<?xml version="1.0" encoding="UTF-8"?>
<!DOCTYPE svg PUBLIC "-//W3C//DTD SVG 1.1//EN" "http://www.w3.org/Graphics/SVG/1.1/DTD/svg11.dtd">
<!-- Creator: CorelDRAW -->
<svg xmlns="http://www.w3.org/2000/svg" xml:space="preserve" width="200mm" height="100mm" style="shape-rendering:geometricPrecision; text-rendering:geometricPrecision; image-rendering:optimizeQuality; fill-rule:evenodd; clip-rule:evenodd"
viewBox="0 0 200 100"
 xmlns:xlink="http://www.w3.org/1999/xlink">
 <defs>
  <style type="text/css">
   <![CDATA[
    .str0 {stroke:#030303;stroke-width:0.0762}
    .fil0 {fill:black}
    .fil3 {fill:#030303}
    .fil4 {fill:#172562}
    .fil6 {fill:#333333}
    .fil1 {fill:#727272}
    .fil2 {fill:#FCFCFC}
    .fil5 {fill:white}
   ]]>
  </style>
 </defs>
 <g id="Capa_x0020_1">
  <metadata id="CorelCorpID_0Corel-Layer"/>
  <rect class="fil0" width="200" height="100"/>
  <path class="fil1" d="M65.5831 70.0212l-0.2829 -0.2871c-0.3465,0.4161 -0.4187,-0.3692 -0.2637,0.4742 1.0533,0.3106 0.1918,0.1166 0.5466,-0.1871z"/>
  <path class="fil2" d="M65.5831 70.0212c-0.3548,0.3037 0.5067,0.4977 -0.5466,0.1871 -0.155,-0.8434 -0.0828,-0.0581 0.2637,-0.4742l9.3836 -9.7522 -4.7402 -4.6604c-0.8249,0.4966 -8.6308,8.2447 -10.0368,9.6002 -2.0091,-1.6757 -8.3726,-8.2872 -11.043,-10.9548 -1.7719,-1.7699 -2.3865,-2.0973 -3.5972,-4.0709 1.4003,0.5783 2.6529,2.2743 3.7294,3.3753l10.8918 10.9145c0.6988,-0.3836 1.7753,-1.5813 2.533,-2.2327l7.5228 -7.3119c1.4417,1.1027 4.2263,4.022 5.604,5.4271l-9.9645 9.9529zm8.7444 -19.8158c0.9129,-1.6311 3.7798,-3.7988 5.2855,-5.6078 1.1617,0.7932 0.684,0.3879 1.5851,1.339 1.6734,1.7667 8.2031,7.5779 8.7253,9.1 -3.7915,-2.8167 -8.3953,-8.5395 -10.2032,-9.6373l-4.7342 4.7731 9.655 9.8698 -11.1738 11.2843c-0.9545,0.9614 -2.6123,3.0033 -3.8108,3.5157 1.9748,-2.0221 13.5362,-13.4844 14.2504,-14.8603 -1.6596,-1.6406 -8.9004,-8.5686 -9.5793,-9.7765zm-10.0274 -9.6582c0.6057,-1.5217 6.3699,-6.7917 7.7065,-8.1036 0.8099,-0.7949 1.5615,-1.9006 2.6354,-2.2595 -1.5519,2.3806 -2.582,3.0791 -4.6938,5.2218 -1.6961,1.7212 -3.3055,3.2352 -4.9131,4.956l4.9085 4.7274 9.6784 -9.6348 13.289 13.0138c1.7105,1.7433 1.3369,0.9116 1.6427,2.0366l-3.8559 -3.4532c-0.4541,-0.4345 -0.5146,-0.5755 -0.9156,-1.0464l-9.4883 -9.5081c-0.4921,-0.3509 0.0825,-0.0099 -0.5737,-0.3007 -1.8865,1.9055 -8.0991,8.3432 -9.7766,9.5725l-5.6435 -5.2218zm-0.5849 -0.1183c0.8278,1.0363 2.0824,2.224 3.0689,3.1577l3.1595 2.8642 9.7766 -9.5226 14.1186 13.9207c-0.5044,0.8197 -0.9091,1.1367 -1.6014,1.8231 -1.0433,1.0347 -0.7758,0.9456 -1.9708,1.7143l-10.5464 -10.3769c-1.4156,1.0662 -4.3994,4.5022 -6.0962,6.196 0.9964,1.224 8.3493,8.5615 9.6058,9.8301 -0.6234,0.98 -2.3746,2.5287 -3.3211,3.4869l-10.755 10.6082c-1.2599,-0.8594 -2.4249,-2.4314 -3.4201,-3.6402l10.3508 -10.5085 -6.1408 -6.0191 -10.0558 9.5017c-1.1726,-0.7566 -2.6117,-2.4222 -3.6353,-3.4812l-10.312 -10.6556 3.2546 -3.3123c1.2462,0.5299 9.1067,8.7738 10.6927,10.3632l6.299 -6.1732 -9.6632 -9.7029c0.4604,-1.1937 2.378,-2.7342 3.3499,-3.7186l10.6287 -10.4332 3.5722 3.4524c-1.5184,1.7384 -3.4044,3.4791 -5.1154,5.1707 -1.042,1.0303 -4.718,4.4038 -5.2438,5.4551zm-8.5805 -0.3396c2.4927,-2.0395 4.9889,-4.993 7.4112,-7.3391 1.3326,-1.2907 2.4542,-2.4664 3.7589,-3.7842 0.9401,-0.9495 2.5877,-3.1559 3.8836,-3.3584 -4.577,5.0506 -9.5003,9.9934 -14.36,14.7364 1.697,1.7009 8.7273,8.5392 9.6359,9.8614l-5.6301 5.5654c-1.5155,-1.5097 -9.4548,-9.041 -9.9476,-10.3185 2.9744,1.9863 7.4995,6.9915 10.0012,9.5201l3.8288 -3.4538c0.6448,-0.5604 0.6905,-0.5976 1.0532,-1.3132 -1.5438,-1.8594 -3.2589,-3.2921 -4.9143,-4.9957 -1.1411,-1.1746 -4.2405,-3.7912 -4.7208,-5.1204zm12.0815 -15.0693c-8.2489,1.393 -11.3914,3.2735 -16.6668,8.8574 -3.7393,3.9581 -6.8509,11.9335 -5.8386,19.2468 2.6323,19.0194 23.7924,29.7527 41.3842,16.5791 5.5852,-4.1825 10.2956,-13.8246 9.0226,-22.3896 -1.0324,-6.9465 -2.5772,-8.771 -5.6649,-13.2655 -3.3378,-4.8586 -13.7463,-10.462 -22.2365,-9.0282z"/>
  <path class="fil2" d="M43.1185 51.8814c-0.8337,-6.7911 2.6816,-15.172 6.9527,-19.8746 1.7879,-1.9686 4.6657,-4.2042 7.7101,-5.703 6.8724,-3.3835 14.8313,-3.9912 22.0085,-1.0442 3.7329,1.5328 5.6341,3.1193 8.2663,5.1528 1.9886,1.5365 4.6071,5.4507 5.7964,7.6168 1.6053,2.9243 2.4303,6.5461 2.8283,10.5061 0.5765,5.7346 -1.2698,11.417 -4.0731,15.9403 -6.6887,10.793 -19.9506,15.3179 -32.524,10.6798 -5.9228,-2.1849 -11.1096,-6.8962 -14.0819,-12.7514 -1.8391,-3.6232 -2.353,-6.2028 -2.8833,-10.5226zm19.2743 48.324l2.5084 0 0.0044 -22.1296c1.5114,0.3219 3.3771,0.5214 5.0381,0.5188 1.7045,-0.0025 3.5121,-0.4473 4.8981,-0.3636l0.0003 21.9744 2.5999 0 -0.0022 -22.7239c4.8074,-0.9785 9.1462,-3.9389 12.4985,-7.2755 4.5227,-4.5013 4.7671,-6.5108 7.268,-12.4858l76.0758 0.0026 0.0068 -2.5686 -75.3755 -0.0102c0.2545,-6.1771 0.6051,-2.4387 0.0034,-9.8869l75.3833 0.0041 -0.0179 -2.5705 -76.0703 0.0019c-4.3999,-7.5008 -5.6371,-16.3194 -19.7705,-19.7644l0.0006 -22.7228 -2.5999 0 -0.0008 21.9811c-1.5248,0.0518 -3.1327,-0.3699 -4.8976,-0.3718 -1.562,-0.0016 -3.6883,0.2007 -5.0225,0.5169l-0.02 -22.1262 -2.5084 0 0.0005 22.7005 -7.0213 2.9439c-5.288,2.7158 -11.5802,10.8348 -12.758,16.8416l-36.0604 -0.0008 -0.0199 2.5661 35.3777 0.0018c-0.5701,7.1323 -0.3269,3.6293 0.0111,9.8666l-35.3845 0.0302 0.0108 2.5709 36.0775 -0.0059c2.1946,5.2274 3.2647,8.6548 7.23,12.5776l2.689 2.3312c2.6926,2.0749 6.5427,4.1088 9.8654,4.8825l-0.0179 22.6938z"/>
  <path class="fil2" d="M101.158 37.6498c-0.9697,-0.8132 -0.9075,-1.4103 -1.843,-3.1333 -2.1601,-3.9781 -4.0406,-6.1448 -7.1796,-9.0157 -0.3932,-0.3596 -0.6929,-0.7298 -1.1354,-1.0988 -4.018,-3.3501 -7.1053,-4.1754 -8.5712,-5.2022l-0.0594 -18.9944 -2.5196 0 0.0142 20.7905c2.4401,1.0022 4.53,1.8404 6.4358,3.0771 4.0434,2.6238 4.9362,3.8395 7.662,6.857 2.2284,2.4671 3.9092,6.3282 5.3117,9.3356 24.3932,-0.0001 49.7605,0.2147 74.0304,-0.0028l-0.0639 -2.5846 -72.082 -0.0284z"/>
  <path class="fil2" d="M79.8496 100.205l2.5196 0 0.0045 -18.9944 0.8411 -0.428c4.989,-2.4166 7.7937,-4.3304 11.4237,-8.3898 1.0678,-1.194 0.7474,-0.5194 2.0558,-2.4075 0.3387,-0.4887 0.5608,-0.8205 0.9161,-1.3162 1.8387,-2.5664 2.4885,-5.0232 3.5667,-5.9055l72.079 -0.031 0.0429 -2.5889 -74.0257 0.0007c-4.6921,10.2895 -8.6305,14.8639 -19.3957,19.2671l-0.028 20.7935z"/>
  <path class="fil2" d="M38.6601 62.7952c0.7031,0.5109 0.1064,-0.2408 0.7155,0.6902 0.9411,1.4382 1.531,4.1611 4.7686,7.7722 0.771,0.86 1.2948,1.7498 2.1559,2.591 3.1847,3.1103 7.1746,5.4069 11.156,7.3624l0.0021 18.9944 2.4705 0 -0.0012 -20.6704c-2.3918,-1.0912 -4.2879,-1.8902 -6.5248,-3.2839 -2.1435,-1.3355 -3.4909,-2.5371 -5.241,-4.2603 -3.1322,-3.0845 -6.307,-7.6135 -7.3713,-11.8438l-34.2524 -0.0028 0.0167 2.6082 32.1054 0.0428z"/>
  <path class="fil2" d="M39.0419 37.4377c-1.3303,0.622 -31.2287,0.2303 -32.4805,0.2295l-0.0226 2.6002 34.2453 -0.0007c1.0311,-4.2413 4.4017,-8.9242 7.3741,-11.8464 4.3198,-4.2469 6.5464,-5.1188 11.7696,-7.5445l0.0009 -20.6704 -2.4705 0 -0.0036 18.9944c-2.5724,1.2418 -3.5866,1.6478 -6.0381,3.279 -0.8755,0.5826 -2.0439,1.4282 -2.6885,2.0391 -0.8566,0.812 -1.5928,1.2417 -2.4216,2.0534 -4.5224,4.4292 -5.0437,7.4194 -7.2645,10.8664z"/>
  <path class="fil2" d="M30.3183 15.2041l0.0265 0.6355 0.4902 -0.0212c2.9193,-0.1451 4.4083,-1.441 6.8619,-2.0803l-0.0237 9.7718 -7.5101 -2.2358 2.3325 7.4448 -9.8766 0.0464 2.2565 -7.5164 -7.4894 2.3016 0.0132 -9.9548 7.5261 2.3366 -2.2811 -7.4813 9.8358 0.0339 -2.1618 6.7192zm-9.2118 -7.716c0.8662,2.544 2.0545,4.2222 2.5586,7.1793l-7.3375 -2.5001 0.0213 12.8578c2.168,-0.8653 5.139,-2.2487 7.3428,-2.5582l-1.2069 4.006c-0.3533,0.743 -1.2307,2.4803 -1.3685,3.2629l12.8434 -0.0002c-0.8894,-2.1403 -2.2436,-4.9841 -2.5543,-7.1635l3.922 1.0305c1.1717,0.5353 2.2005,1.2352 3.335,1.457l0.0351 -12.8799c-2.0935,0.8618 -5.0415,2.2266 -7.2312,2.5366l1.1638 -4.0211c0.4512,-1.2518 1.0925,-2.1704 1.3477,-3.2729l-12.8713 0.0658z"/>
  <path class="fil2" d="M26.0643 21.1751l0.085 -1.1515 -1.2028 0.064 -6.4148 1.6857 -0.0086 -6.2691c4.1359,0.8959 1.7768,1.4076 7.7402,1.6934l-1.8724 -7.5447 6.2528 -0.0198 -1.8318 7.6628 7.6799 -1.7928 -0.0142 6.2493 -7.6561 -1.8099 1.8319 7.6922 -6.2554 -0.0539c0.7733,-2.0815 1.5899,-3.9563 1.6663,-6.4057zm-0.553 -4.5428c-3.5905,-0.463 -4.2808,-0.8688 -7.5911,-2.0175l-0.0078 8.0453c3.8963,-1.086 1.4144,-0.891 7.677,-2.1005 -0.4314,3.5506 -0.9277,4.4501 -2.08,7.6599l8.0322 0.0104c-0.6836,-2.8497 -0.9418,-1.7514 -2.0368,-7.5758l7.6415 2.0111 -0.0208 -8.0756c-0.9208,0.19 -2.2244,0.8911 -3.2958,1.2094l-4.2833 0.8025c0.2735,-3.2079 0.9834,-4.6564 2.0525,-7.569l-8.1162 0.0217c0.8447,2.477 1.9817,4.5189 2.0286,7.5781z"/>
  <path class="fil3" d="M77.442 100.205l2.4076 0 0.028 -20.7935c10.7652,-4.4032 14.7036,-8.9776 19.3957,-19.2671l74.0257 -0.0007 -0.0429 2.5889 -72.079 0.031c0.283,0.4044 0.0999,0.1818 0.8607,0.1644 10.4837,-0.2407 24.3749,0.0195 34.9449,0.0195 6.7882,0 31.7279,-0.3457 36.332,0.0655l-0.0213 37.192 5.5888 0 0 -100 -5.5888 0 0.0006 37.2208 -68.1548 0.0394c-0.6139,0.0023 -3.8984,-0.1991 -3.9814,0.1842l72.082 0.0284 0.0639 2.5846c-24.2699,0.2175 -49.6372,0.0027 -74.0304,0.0028 -1.4025,-3.0074 -3.0833,-6.8685 -5.3117,-9.3356 -2.7258,-3.0175 -3.6186,-4.2332 -7.662,-6.857 -1.9058,-1.2367 -3.9957,-2.0749 -6.4358,-3.0771l-0.0142 -20.7905 -2.4076 0c-0.0002,7.5743 -0.0004,15.1485 -0.0006,22.7228 10.1435,1.837 16.0724,9.3092 19.7705,19.7644l76.0703 -0.0019 0.0179 2.5705 -75.3833 -0.0041c0.6017,7.4482 0.2511,3.7098 -0.0034,9.8869l75.3755 0.0102 -0.0068 2.5686 -76.0758 -0.0026c-2.5009,5.975 -2.7453,7.9845 -7.268,12.4858 -3.3523,3.3366 -7.6911,6.297 -12.4985,7.2755l0.0022 22.7239z"/>
  <path class="fil3 str0" d="M0.9492 100.205l5.5907 0 -0.0273 -37.2262c3.4041,-0.1633 31.7814,0.2802 32.1475,-0.184l-32.1054 -0.0428 -0.0167 -2.6082 34.2524 0.0028c1.0643,4.2303 4.2391,8.7593 7.3713,11.8438 1.7501,1.7232 3.0975,2.9248 5.241,4.2603 2.2369,1.3937 4.133,2.1927 6.5248,3.2839l0.0012 20.6704 2.4641 0 0.0179 -22.6938c-3.3227,-0.7737 -7.1728,-2.8076 -9.8654,-4.8825l-2.689 -2.3312c-3.9653,-3.9228 -5.0354,-7.3502 -7.23,-12.5776l-36.0775 0.0059 -0.0108 -2.5709 35.3845 -0.0302c-0.338,-6.2373 -0.5812,-2.7343 -0.0111,-9.8666l-35.3777 -0.0018 0.0199 -2.5661 36.0604 0.0008c1.1778,-6.0068 7.47,-14.1258 12.758,-16.8416l7.0213 -2.9439 -0.0005 -22.7005 -2.4641 0 -0.0009 20.6704c-5.2232,2.4257 -7.4498,3.2976 -11.7696,7.5445 -2.9724,2.9222 -6.343,7.6051 -7.3741,11.8464l-34.2453 0.0007 0.0226 -2.6002c1.2518,0.0008 31.1502,0.3925 32.4805,-0.2295l-32.5499 0.0318 0.0479 -37.2641 -5.5907 0 0 100z"/>
  <path class="fil3" d="M63.7152 40.4289c0.5258,-1.0513 4.2018,-4.4248 5.2438,-5.4551 1.711,-1.6916 3.597,-3.4323 5.1154,-5.1707l-3.5722 -3.4524 -10.6287 10.4332c-0.9719,0.9844 -2.8895,2.5249 -3.3499,3.7186l9.6632 9.7029 -6.299 6.1732c-1.586,-1.5894 -9.4465,-9.8333 -10.6927,-10.3632l-3.2546 3.3123 10.312 10.6556c1.0236,1.059 2.4627,2.7246 3.6353,3.4812l10.0558 -9.5017 6.1408 6.0191 -10.3508 10.5085c0.9952,1.2088 2.1602,2.7808 3.4201,3.6402l10.755 -10.6082c0.9465,-0.9582 2.6977,-2.5069 3.3211,-3.4869 -1.2565,-1.2686 -8.6094,-8.6061 -9.6058,-9.8301 1.6968,-1.6938 4.6806,-5.1298 6.0962,-6.196l10.5464 10.3769c1.195,-0.7687 0.9275,-0.6796 1.9708,-1.7143 0.6923,-0.6864 1.097,-1.0034 1.6014,-1.8231l-14.1186 -13.9207 -9.7766 9.5226 -3.1595 -2.8642c-0.9865,-0.9337 -2.2411,-2.1214 -3.0689,-3.1577z"/>
  <path class="fil3" d="M67.2162 25.02c8.4902,-1.4338 18.8987,4.1696 22.2365,9.0282 3.0877,4.4945 4.6325,6.319 5.6649,13.2655 1.273,8.565 -3.4374,18.2071 -9.0226,22.3896 -17.5918,13.1736 -38.7519,2.4403 -41.3842,-16.5791 -1.0123,-7.3133 2.0993,-15.2887 5.8386,-19.2468 5.2754,-5.5839 8.4179,-7.4644 16.6668,-8.8574zm-24.0977 26.8614c0.5303,4.3198 1.0442,6.8994 2.8833,10.5226 2.9723,5.8552 8.1591,10.5665 14.0819,12.7514 12.5734,4.6381 25.8353,0.1132 32.524,-10.6798 2.8033,-4.5233 4.6496,-10.2057 4.0731,-15.9403 -0.398,-3.96 -1.223,-7.5818 -2.8283,-10.5061 -1.1893,-2.1661 -3.8078,-6.0803 -5.7964,-7.6168 -2.6322,-2.0335 -4.5334,-3.62 -8.2663,-5.1528 -7.1772,-2.947 -15.1361,-2.3393 -22.0085,1.0442 -3.0444,1.4988 -5.9222,3.7344 -7.7101,5.703 -4.2711,4.7026 -7.7864,13.0835 -6.9527,19.8746z"/>
  <path class="fil3" d="M64.9012 100.205l9.9409 0 -0.0003 -21.9744c-1.386,-0.0837 -3.1936,0.3611 -4.8981,0.3636 -1.661,0.0026 -3.5267,-0.1969 -5.0381,-0.5188l-0.0044 22.1296z"/>
  <path class="fil3" d="M74.8421 0.2054l-9.9409 0 0.02 22.1262c1.3342,-0.3162 3.4605,-0.5185 5.0225,-0.5169 1.7649,0.0019 3.3728,0.4236 4.8976,0.3718l0.0008 -21.9811z"/>
  <path class="fil3" d="M24.9465 20.0876c0.4801,-0.3177 -0.4691,-0.0327 0.594,-0.2923 0.4644,-0.1134 0.3811,-0.0154 0.7851,0.0133 0.1053,1.0408 0.2152,0.6313 -0.2613,1.3665 -0.0764,2.4494 -0.893,4.3242 -1.6663,6.4057l6.2554 0.0539 -1.8319 -7.6922 7.6561 1.8099 0.0142 -6.2493 -7.6799 1.7928 1.8318 -7.6628 -6.2528 0.0198 1.8724 7.5447c-5.9634,-0.2858 -3.6043,-0.7975 -7.7402,-1.6934l0.0086 6.2691 6.4148 -1.6857z"/>
  <path class="fil3" d="M25.5113 16.6323c-0.0469,-3.0592 -1.1839,-5.1011 -2.0286,-7.5781l8.1162 -0.0217c-1.0691,2.9126 -1.779,4.3611 -2.0525,7.569l4.2833 -0.8025c1.0714,-0.3183 2.375,-1.0194 3.2958,-1.2094l0.0208 8.0756 -7.6415 -2.0111c1.095,5.8244 1.3532,4.7261 2.0368,7.5758l-8.0322 -0.0104c1.1523,-3.2098 1.6486,-4.1093 2.08,-7.6599 -6.2626,1.2095 -3.7807,1.0145 -7.677,2.1005l0.0078 -8.0453c3.3103,1.1487 4.0006,1.5545 7.5911,2.0175zm5.3237 -0.8139c-0.376,0.2906 0.6176,0.4121 -0.7913,0.2562 -0.0672,-1.5277 -0.0091,-0.4614 0.2746,-0.8705l2.1618 -6.7192 -9.8358 -0.0339 2.2811 7.4813 -7.5261 -2.3366 -0.0132 9.9548 7.4894 -2.3016 -2.2565 7.5164 9.8766 -0.0464 -2.3325 -7.4448 7.5101 2.2358 0.0237 -9.7718c-2.4536,0.6393 -3.9426,1.9352 -6.8619,2.0803zm0 0l-0.4902 0.0212 -0.0265 -0.6355c-0.2837,0.4091 -0.3418,-0.6572 -0.2746,0.8705 1.4089,0.1559 0.4153,0.0344 0.7913,-0.2562zm-4.7707 5.3567c0.4765,-0.7352 0.3666,-0.3257 0.2613,-1.3665 -0.404,-0.0287 -0.3207,-0.1267 -0.7851,-0.0133 -1.0631,0.2596 -0.1139,-0.0254 -0.594,0.2923l1.2028 -0.064 -0.085 1.1515z"/>
  <path class="fil3" d="M55.1347 40.0893c0.4803,1.3292 3.5797,3.9458 4.7208,5.1204 1.6554,1.7036 3.3705,3.1363 4.9143,4.9957 -0.3627,0.7156 -0.4084,0.7528 -1.0532,1.3132l-3.8288 3.4538c-2.5017,-2.5286 -7.0268,-7.5338 -10.0012,-9.5201 0.4928,1.2775 8.4321,8.8088 9.9476,10.3185l5.6301 -5.5654c-0.9086,-1.3222 -7.9389,-8.1605 -9.6359,-9.8614 4.8597,-4.743 9.783,-9.6858 14.36,-14.7364 -1.2959,0.2025 -2.9435,2.4089 -3.8836,3.3584 -1.3047,1.3178 -2.4263,2.4935 -3.7589,3.7842 -2.4223,2.3461 -4.9185,5.2996 -7.4112,7.3391z"/>
  <path class="fil3" d="M64.3001 40.5472l5.6435 5.2218c1.6775,-1.2293 7.8901,-7.667 9.7766,-9.5725 0.6562,0.2908 0.0816,-0.0502 0.5737,0.3007l9.4883 9.5081c0.401,0.4709 0.4615,0.6119 0.9156,1.0464l3.8559 3.4532c-0.3058,-1.125 0.0678,-0.2933 -1.6427,-2.0366l-13.289 -13.0138 -9.6784 9.6348 -4.9085 -4.7274c1.6076,-1.7208 3.217,-3.2348 4.9131,-4.956 2.1118,-2.1427 3.1419,-2.8412 4.6938,-5.2218 -1.0739,0.3589 -1.8255,1.4646 -2.6354,2.2595 -1.3366,1.3119 -7.1008,6.5819 -7.7065,8.1036z"/>
  <path class="fil3" d="M65.3002 69.7341l0.2829 0.2871 9.9645 -9.9529c-1.3777,-1.4051 -4.1623,-4.3244 -5.604,-5.4271l-7.5228 7.3119c-0.7577,0.6514 -1.8342,1.8491 -2.533,2.2327l-10.8918 -10.9145c-1.0765,-1.101 -2.3291,-2.797 -3.7294,-3.3753 1.2107,1.9736 1.8253,2.301 3.5972,4.0709 2.6704,2.6676 9.0339,9.2791 11.043,10.9548 1.406,-1.3555 9.2119,-9.1036 10.0368,-9.6002l4.7402 4.6604 -9.3836 9.7522z"/>
  <path class="fil3" d="M74.3275 50.2054c0.6789,1.2079 7.9197,8.1359 9.5793,9.7765 -0.7142,1.3759 -12.2756,12.8382 -14.2504,14.8603 1.1985,-0.5124 2.8563,-2.5543 3.8108,-3.5157l11.1738 -11.2843 -9.655 -9.8698 4.7342 -4.7731c1.8079,1.0978 6.4117,6.8206 10.2032,9.6373 -0.5222,-1.5221 -7.0519,-7.3333 -8.7253,-9.1 -0.9011,-0.9511 -0.4234,-0.5458 -1.5851,-1.339 -1.5057,1.809 -4.3726,3.9767 -5.2855,5.6078z"/>
  <path class="fil4" d="M82.3692 100.205l90.9242 0 0.0213 -37.192c-4.6041,-0.4112 -29.5438,-0.0655 -36.332,-0.0655 -10.57,0 -24.4612,-0.2602 -34.9449,-0.0195 -0.7608,0.0174 -0.5777,0.24 -0.8607,-0.1644 -1.0782,0.8823 -1.728,3.3391 -3.5667,5.9055 -0.3553,0.4957 -0.5774,0.8275 -0.9161,1.3162 -1.3084,1.8881 -0.988,1.2135 -2.0558,2.4075 -3.63,4.0594 -6.4347,5.9732 -11.4237,8.3898l-0.8411 0.428 -0.0045 18.9944z"/>
  <path class="fil4" d="M101.158 37.6498c0.083,-0.3833 3.3675,-0.1819 3.9814,-0.1842l68.1548 -0.0394 -0.0006 -37.2208 -90.9242 0 0.0594 18.9944c1.4659,1.0268 4.5532,1.8521 8.5712,5.2022 0.4425,0.369 0.7422,0.7392 1.1354,1.0988 3.139,2.8709 5.0195,5.0376 7.1796,9.0157 0.9355,1.723 0.8733,2.3201 1.843,3.1333z"/>
  <path class="fil4" d="M6.5399 100.205l50.9183 0 -0.0021 -18.9944c-3.9814,-1.9555 -7.9713,-4.2521 -11.156,-7.3624 -0.8611,-0.8412 -1.3849,-1.731 -2.1559,-2.591 -3.2376,-3.6111 -3.8275,-6.334 -4.7686,-7.7722 -0.6091,-0.931 -0.0124,-0.1793 -0.7155,-0.6902 -0.3661,0.4642 -28.7434,0.0207 -32.1475,0.184l0.0273 37.2262z"/>
  <path class="fil4" d="M21.1065 7.4881l12.8713 -0.0658c-0.2552,1.1025 -0.8965,2.0211 -1.3477,3.2729l-1.1638 4.0211c2.1897,-0.31 5.1377,-1.6748 7.2312,-2.5366l-0.0351 12.8799c-1.1345,-0.2218 -2.1633,-0.9217 -3.335,-1.457l-3.922 -1.0305c0.3107,2.1794 1.6649,5.0232 2.5543,7.1635l-12.8434 0.0002c0.1378,-0.7826 1.0152,-2.5199 1.3685,-3.2629l1.2069 -4.006c-2.2038,0.3095 -5.1748,1.6929 -7.3428,2.5582l-0.0213 -12.8578 7.3375 2.5001c-0.5041,-2.9571 -1.6924,-4.6353 -2.5586,-7.1793zm17.9354 29.9496c2.2208,-3.447 2.7421,-6.4372 7.2645,-10.8664 0.8288,-0.8117 1.565,-1.2414 2.4216,-2.0534 0.6446,-0.6109 1.813,-1.4565 2.6885,-2.0391 2.4515,-1.6312 3.4657,-2.0372 6.0381,-3.279l0.0036 -18.9944 -50.9183 0 -0.0479 37.2641 32.5499 -0.0318z"/>
  <g id="_487002624">
   <g>
    <path id="_397188848" class="fil4" d="M159.835 99.9708c0,-10.8333 0,-21.6667 0,-32.5 0,-3.2608 0.5195,-2.0419 -2.7818,-5.3432l-12.1582 -12.1568c3.9572,-4.1942 9.7678,-9.8006 14.1544,-14.1607 1.0844,-1.0779 0.7856,-0.7718 0.7856,-3.3393 0,-10.8333 0,-21.6667 0,-32.5l-20 0 0 100 20 0z"/>
    <path id="_486998328" class="fil4" d="M199.835 99.9708l0 -100 -20 0c0,10.8333 0,21.6667 0,32.5 0,2.5488 -0.3065,2.1345 0.8432,3.2818 1.8039,1.8001 13.7493,13.5694 14.0949,14.2182 -4.6824,4.8185 -9.399,9.5414 -14.1613,14.2768 -0.3996,0.3973 -0.7497,0.5072 -0.7859,1.2124 -0.0315,0.6149 0.0091,1.3777 0.0091,2.0108 0,10.8333 0,21.6667 0,32.5l20 0z"/>
   </g>
   <path id="_486998640" class="fil5" d="M160.565 54.6404l4.5799 -4.7105 -9.2779 -9.3326c1.0168,-1.1502 2.2871,-2.3105 3.4102,-3.4336 1.1974,-1.1974 2.3017,-2.3009 3.5011,-3.4987l7.056 -6.9678c0.7442,0.4345 3.8248,3.8363 4.6295,4.697l-9.2356 9.3184 4.6437 4.5643 9.3345 -9.2724c1.5158,1.328 8.5312,8.4816 10.4345,10.4097l3.4656 3.5566c-0.4494,0.7376 -3.8341,3.8209 -4.6954,4.6293l-9.3238 -9.2382 -4.5597 4.6459 9.2823 9.3423 -13.9756 13.8922c-0.732,-0.4404 -3.8296,-3.8446 -4.6312,-4.7005l9.24 -9.318 -4.6493 -4.564 -9.3291 9.2773c-1.1606,-1.0482 -2.2955,-2.2751 -3.4336,-3.4131 -1.1972,-1.1972 -2.3039,-2.302 -3.4998,-3.5003l-6.9692 -7.0529c0.4305,-0.7435 3.8427,-3.8298 4.7014,-4.6314l9.3015 9.301zm-0.7307 45.3304l20 0c0,-10.8333 0,-21.6667 0,-32.5 0,-0.6331 -0.0406,-1.3959 -0.0091,-2.0108 0.0362,-0.7052 0.3863,-0.8151 0.7859,-1.2124 4.7623,-4.7354 9.4789,-9.4583 14.1613,-14.2768 -0.3456,-0.6488 -12.291,-12.4181 -14.0949,-14.2182 -1.1497,-1.1473 -0.8432,-0.733 -0.8432,-3.2818 0,-10.8333 0,-21.6667 0,-32.5l-20 0c0,10.8333 0,21.6667 0,32.5 0,2.5675 0.2988,2.2614 -0.7856,3.3393 -4.3866,4.3601 -10.1972,9.9665 -14.1544,14.1607l12.1582 12.1568c3.3013,3.3013 2.7818,2.0824 2.7818,5.3432 0,10.8333 0,21.6667 0,32.5z"/>
   <path id="_486998760" class="fil0" d="M151.264 45.3394c-0.8587,0.8016 -4.2709,3.8879 -4.7014,4.6314l6.9692 7.0529c1.1959,1.1983 2.3026,2.3031 3.4998,3.5003 1.1381,1.138 2.273,2.3649 3.4336,3.4131l9.3291 -9.2773 4.6493 4.564 -9.24 9.318c0.8016,0.8559 3.8992,4.2601 4.6312,4.7005l13.9756 -13.8922 -9.2823 -9.3423 4.5597 -4.6459 9.3238 9.2382c0.8613,-0.8084 4.246,-3.8917 4.6954,-4.6293l-3.4656 -3.5566c-1.9033,-1.9281 -8.9187,-9.0817 -10.4345,-10.4097l-9.3345 9.2724 -4.6437 -4.5643 9.2356 -9.3184c-0.8047,-0.8607 -3.8853,-4.2625 -4.6295,-4.697l-7.056 6.9678c-1.1994,1.1978 -2.3037,2.3013 -3.5011,3.4987 -1.1231,1.1231 -2.3934,2.2834 -3.4102,3.4336l9.2779 9.3326 -4.5799 4.7105 -9.3015 -9.301z"/>
  </g>
  <path class="fil5" d="M146.457 90.1511c-0.2058,0.192 -1.0233,0.9315 -1.1264,1.1096l0.2008 0.2032 1.1245 -1.1139 -0.1989 -0.1989zm3.8105 0.8491l0.783 -0.8045 -0.002 -0.002 0.0832 -0.0815 0.2619 -0.2691 0.0063 0.0065 1.8671 -1.829c-0.0464,-0.0438 -0.0855,-0.0797 -0.1155,-0.106l-2.2363 2.2215 -1.1126 -1.0935 2.2127 -2.2325c-0.1095,-0.1171 -0.3946,-0.4303 -0.6533,-0.6983l-3.3357 3.3724 1.7564 1.7667 -1.0973 1.1285 -1.7794 -1.7793 -1.1146 1.1269 1.2089 1.2234c0.2865,0.2871 0.5516,0.5518 0.8385,0.8386 0.2726,0.2727 0.5445,0.5666 0.8226,0.8177l2.235 -2.2226 1.1139 1.0934 -2.2137 2.2324c0.0277,0.0295 0.0668,0.0718 0.1139,0.1227l3.3743 -3.3007 -1.2542 -1.2624 1.0924 -1.113 2.2338 2.2133c0.2063,-0.1937 1.0172,-0.9324 1.1249,-1.1091l-0.8303 -0.8521c-0.3709,-0.3757 -1.552,-1.5797 -2.1754,-2.1872l-2.1634 2.2344 -0.0133 -0.0132 -0.7678 0.8197 -0.264 -0.2621zm-1.5214 1.5213l1.1262 -1.157 0.238 0.2448 -1.1001 1.1743 -0.2641 -0.2621zm1.4165 3.5822c0.2843,0.3038 0.6309,0.6646 0.7435,0.7324l3.3483 -3.3283 -0.7638 -0.7688 -3.328 3.3647zm0.9808 -10.2128c-0.1045,-0.1019 -0.1903,-0.1787 -0.2373,-0.2061l-1.6904 1.6693c-0.2874,0.287 -0.5519,0.5514 -0.8388,0.8383 -0.2691,0.269 -0.5734,0.547 -0.817,0.8226l0.213 0.2142 3.3705 -3.3383z"/>
  <path class="fil5" d="M148.595 8.4863c-0.2058,0.192 -1.0233,0.9315 -1.1264,1.1096l0.2008 0.2032 1.1245 -1.1139 -0.1989 -0.1989zm3.8105 0.8491l0.783 -0.8045 -0.002 -0.002 0.0832 -0.0815 0.2619 -0.2691 0.0063 0.0065 1.8671 -1.829c-0.0464,-0.0438 -0.0855,-0.0797 -0.1155,-0.106l-2.2363 2.2215 -1.1126 -1.0935 2.2127 -2.2325c-0.1095,-0.1171 -0.3946,-0.4303 -0.6533,-0.6983l-3.3357 3.3724 1.7564 1.7667 -1.0973 1.1285 -1.7794 -1.7793 -1.1146 1.1269 1.2089 1.2234c0.2865,0.2871 0.5516,0.5518 0.8385,0.8386 0.2726,0.2727 0.5445,0.5666 0.8226,0.8177l2.235 -2.2226 1.1139 1.0934 -2.2137 2.2324c0.0277,0.0295 0.0668,0.0718 0.1139,0.1227l3.3743 -3.3007 -1.2542 -1.2624 1.0924 -1.113 2.2338 2.2133c0.2063,-0.1937 1.0172,-0.9324 1.1249,-1.1091l-0.8303 -0.8521c-0.3709,-0.3757 -1.552,-1.5797 -2.1754,-2.1872l-2.1634 2.2344 -0.0133 -0.0132 -0.7678 0.8197 -0.264 -0.2621zm-1.5214 1.5213l1.1262 -1.157 0.238 0.2448 -1.1001 1.1743 -0.2641 -0.2621zm1.4165 3.5822c0.2843,0.3038 0.6309,0.6646 0.7435,0.7324l3.3483 -3.3283 -0.7638 -0.7688 -3.328 3.3647zm0.9808 -10.2128c-0.1045,-0.1019 -0.1903,-0.1787 -0.2373,-0.2061l-1.6904 1.6693c-0.2874,0.287 -0.5519,0.5514 -0.8388,0.8383 -0.2691,0.269 -0.5734,0.547 -0.817,0.8226l0.213 0.2142 3.3705 -3.3383z"/>
  <path class="fil4" d="M165.036 90.0467c-0.2058,0.192 -1.0233,0.9315 -1.1264,1.1096l0.2008 0.2032 1.1245 -1.1139 -0.1989 -0.1989zm3.8105 0.8491l0.783 -0.8045 -0.002 -0.002 0.0832 -0.0815 0.2619 -0.2691 0.0063 0.0065 1.8671 -1.829c-0.0464,-0.0438 -0.0855,-0.0797 -0.1155,-0.106l-2.2363 2.2215 -1.1126 -1.0935 2.2127 -2.2325c-0.1095,-0.1171 -0.3946,-0.4303 -0.6533,-0.6983l-3.3357 3.3724 1.7564 1.7667 -1.0973 1.1285 -1.7794 -1.7793 -1.1146 1.1269 1.2089 1.2234c0.2865,0.2871 0.5516,0.5518 0.8385,0.8386 0.2726,0.2727 0.5445,0.5666 0.8226,0.8177l2.235 -2.2226 1.1139 1.0934 -2.2137 2.2324c0.0277,0.0295 0.0668,0.0718 0.1139,0.1227l3.3743 -3.3007 -1.2542 -1.2624 1.0924 -1.113 2.2338 2.2133c0.2063,-0.1937 1.0172,-0.9324 1.1249,-1.1091l-0.8303 -0.8521c-0.3709,-0.3757 -1.552,-1.5797 -2.1754,-2.1872l-2.1634 2.2344 -0.0133 -0.0132 -0.7678 0.8197 -0.264 -0.2621zm-1.5214 1.5213l1.1262 -1.157 0.238 0.2448 -1.1001 1.1743 -0.2641 -0.2621zm1.4165 3.5822c0.2843,0.3038 0.6309,0.6646 0.7435,0.7324l3.3483 -3.3283 -0.7638 -0.7688 -3.328 3.3647zm0.9808 -10.2128c-0.1045,-0.1019 -0.1903,-0.1787 -0.2373,-0.2061l-1.6904 1.6693c-0.2874,0.287 -0.5519,0.5514 -0.8388,0.8383 -0.2691,0.269 -0.5734,0.547 -0.817,0.8226l0.213 0.2142 3.3705 -3.3383z"/>
  <path class="fil4" d="M167.174 8.3819c-0.2058,0.192 -1.0233,0.9315 -1.1264,1.1096l0.2008 0.2032 1.1245 -1.1139 -0.1989 -0.1989zm3.8105 0.8491l0.783 -0.8045 -0.002 -0.002 0.0832 -0.0815 0.2619 -0.2691 0.0063 0.0065 1.8671 -1.829c-0.0464,-0.0438 -0.0855,-0.0797 -0.1155,-0.106l-2.2363 2.2215 -1.1126 -1.0935 2.2127 -2.2325c-0.1095,-0.1171 -0.3946,-0.4303 -0.6533,-0.6983l-3.3357 3.3724 1.7564 1.7667 -1.0973 1.1285 -1.7794 -1.7793 -1.1146 1.1269 1.2089 1.2234c0.2865,0.2871 0.5516,0.5518 0.8385,0.8386 0.2726,0.2727 0.5445,0.5666 0.8226,0.8177l2.235 -2.2226 1.1139 1.0934 -2.2137 2.2324c0.0277,0.0295 0.0668,0.0718 0.1139,0.1227l3.3743 -3.3007 -1.2542 -1.2624 1.0924 -1.113 2.2338 2.2133c0.2063,-0.1937 1.0172,-0.9324 1.1249,-1.1091l-0.8303 -0.8521c-0.3709,-0.3757 -1.552,-1.5797 -2.1754,-2.1872l-2.1634 2.2344 -0.0133 -0.0132 -0.7678 0.8197 -0.264 -0.2621zm-1.5214 1.5213l1.1262 -1.157 0.238 0.2448 -1.1001 1.1743 -0.2641 -0.2621zm1.4165 3.5822c0.2843,0.3038 0.6309,0.6646 0.7435,0.7324l3.3483 -3.3283 -0.7638 -0.7688 -3.328 3.3647zm0.9808 -10.2128c-0.1045,-0.1019 -0.1903,-0.1787 -0.2373,-0.2061l-1.6904 1.6693c-0.2874,0.287 -0.5519,0.5514 -0.8388,0.8383 -0.2691,0.269 -0.5734,0.547 -0.817,0.8226l0.213 0.2142 3.3705 -3.3383z"/>
  <path class="fil5" d="M185.138 89.9423c-0.2058,0.192 -1.0233,0.9315 -1.1264,1.1096l0.2008 0.2032 1.1245 -1.1139 -0.1989 -0.1989zm3.8105 0.8491l0.783 -0.8045 -0.002 -0.002 0.0832 -0.0815 0.2619 -0.2691 0.0063 0.0065 1.8671 -1.829c-0.0464,-0.0438 -0.0855,-0.0797 -0.1155,-0.106l-2.2363 2.2215 -1.1126 -1.0935 2.2127 -2.2325c-0.1095,-0.1171 -0.3946,-0.4303 -0.6533,-0.6983l-3.3357 3.3724 1.7564 1.7667 -1.0973 1.1285 -1.7794 -1.7793 -1.1146 1.1269 1.2089 1.2234c0.2865,0.2871 0.5516,0.5518 0.8385,0.8386 0.2726,0.2727 0.5445,0.5666 0.8226,0.8177l2.235 -2.2226 1.1139 1.0934 -2.2137 2.2324c0.0277,0.0295 0.0668,0.0718 0.1139,0.1227l3.3743 -3.3007 -1.2542 -1.2624 1.0924 -1.113 2.2338 2.2133c0.2063,-0.1937 1.0172,-0.9324 1.1249,-1.1091l-0.8303 -0.8521c-0.3709,-0.3757 -1.552,-1.5797 -2.1754,-2.1872l-2.1634 2.2344 -0.0133 -0.0132 -0.7678 0.8197 -0.264 -0.2621zm-1.5214 1.5213l1.1262 -1.157 0.238 0.2448 -1.1001 1.1743 -0.2641 -0.2621zm1.4165 3.5822c0.2843,0.3038 0.6309,0.6646 0.7435,0.7324l3.3483 -3.3283 -0.7638 -0.7688 -3.328 3.3647zm0.9808 -10.2128c-0.1045,-0.1019 -0.1903,-0.1787 -0.2373,-0.2061l-1.6904 1.6693c-0.2874,0.287 -0.5519,0.5514 -0.8388,0.8383 -0.2691,0.269 -0.5734,0.547 -0.817,0.8226l0.213 0.2142 3.3705 -3.3383z"/>
  <path class="fil5" d="M187.276 8.2775c-0.2058,0.192 -1.0233,0.9315 -1.1264,1.1096l0.2008 0.2032 1.1245 -1.1139 -0.1989 -0.1989zm3.8105 0.8491l0.783 -0.8045 -0.002 -0.002 0.0832 -0.0815 0.2619 -0.2691 0.0063 0.0065 1.8671 -1.829c-0.0464,-0.0438 -0.0855,-0.0797 -0.1155,-0.106l-2.2363 2.2215 -1.1126 -1.0935 2.2127 -2.2325c-0.1095,-0.1171 -0.3946,-0.4303 -0.6533,-0.6983l-3.3357 3.3724 1.7564 1.7667 -1.0973 1.1285 -1.7794 -1.7793 -1.1146 1.1269 1.2089 1.2234c0.2865,0.2871 0.5516,0.5518 0.8385,0.8386 0.2726,0.2727 0.5445,0.5666 0.8226,0.8177l2.235 -2.2226 1.1139 1.0934 -2.2137 2.2324c0.0277,0.0295 0.0668,0.0718 0.1139,0.1227l3.3743 -3.3007 -1.2542 -1.2624 1.0924 -1.113 2.2338 2.2133c0.2063,-0.1937 1.0172,-0.9324 1.1249,-1.1091l-0.8303 -0.8521c-0.3709,-0.3757 -1.552,-1.5797 -2.1754,-2.1872l-2.1634 2.2344 -0.0133 -0.0132 -0.7678 0.8197 -0.264 -0.2621zm-1.5214 1.5213l1.1262 -1.157 0.238 0.2448 -1.1001 1.1743 -0.2641 -0.2621zm1.4165 3.5822c0.2843,0.3038 0.6309,0.6646 0.7435,0.7324l3.3483 -3.3283 -0.7638 -0.7688 -3.328 3.3647zm0.9808 -10.2128c-0.1045,-0.1019 -0.1903,-0.1787 -0.2373,-0.2061l-1.6904 1.6693c-0.2874,0.287 -0.5519,0.5514 -0.8388,0.8383 -0.2691,0.269 -0.5734,0.547 -0.817,0.8226l0.213 0.2142 3.3705 -3.3383z"/>
  <polygon class="fil5" points="146.788,51.4254 171.601,26.8496 172.449,27.6895 147.89,52.5193 "/>
  <polygon class="fil5" points="153.138,45.0754 177.951,20.4996 178.799,21.3395 154.24,46.1693 "/>
  <polygon class="fil5" points="165.302,69.4222 180.831,54.2323 181.679,55.0722 166.404,70.5161 "/>
  <polygon class="fil5" points="160.819,55.2336 165.519,50.404 166.513,51.4257 161.921,56.3275 "/>
  <polygon class="fil5" points="167.169,48.8836 171.869,44.054 172.863,45.0757 168.271,49.9775 "/>
  <polygon class="fil5" points="170.429,45.5173 180.133,36.0119 180.981,36.8518 171.531,46.6112 "/>
  <rect class="fil3" x="135.759" width="6.734" height="100"/>
  <rect class="fil3" x="0.351901" y="0.1571" width="10.7934" height="100"/>
  <path class="fil6" d="M136.635 6.5328c-0.1181,0.1102 -0.5875,0.5348 -0.6467,0.637l0.1153 0.1167 0.6456 -0.6395 -0.1142 -0.1142zm2.1877 0.4875l0.4495 -0.4619 -0.0011 -0.0011 0.0478 -0.0468 0.1503 -0.1545 0.0036 0.0037 1.072 -1.0501c-0.0267,-0.0251 -0.0491,-0.0457 -0.0663,-0.0608l-1.284 1.2754 -0.6387 -0.6278 1.2703 -1.2818c-0.0628,-0.0672 -0.2265,-0.247 -0.3751,-0.4009l-1.915 1.9362 1.0083 1.0143 -0.6299 0.6479 -1.0216 -1.0215 -0.64 0.647 0.6941 0.7023c0.1645,0.1649 0.3167,0.3168 0.4814,0.4815 0.1565,0.1565 0.3126,0.3253 0.4723,0.4695l1.2832 -1.2761 0.6395 0.6278 -1.271 1.2816c0.0159,0.017 0.0384,0.0412 0.0654,0.0704l1.9373 -1.8949 -0.7201 -0.7248 0.6272 -0.639 1.2825 1.2707c0.1184,-0.1112 0.584,-0.5353 0.6458,-0.6368l-0.4767 -0.4892c-0.2129,-0.2157 -0.8911,-0.9069 -1.2489,-1.2557l-1.2421 1.2828 -0.0076 -0.0075 -0.4408 0.4705 -0.1516 -0.1504zm-0.8735 0.8734l0.6466 -0.6643 0.1366 0.1405 -0.6316 0.6743 -0.1516 -0.1505zm0.8133 2.0566c0.1632,0.1744 0.3622,0.3816 0.4268,0.4205l1.9224 -1.9109 -0.4386 -0.4413 -1.9106 1.9317zm0.5631 -5.8634c-0.06,-0.0585 -0.1093,-0.1026 -0.1363,-0.1183l-0.9705 0.9584c-0.165,0.1647 -0.3169,0.3165 -0.4816,0.4812 -0.1544,0.1545 -0.3292,0.3141 -0.469,0.4723l0.1223 0.123 1.9351 -1.9166z"/>
  <path class="fil4" d="M2.752 6.6899c-0.1182,0.1102 -0.5875,0.5348 -0.6467,0.637l0.1153 0.1167 0.6456 -0.6395 -0.1142 -0.1142zm2.1877 0.4875l0.4495 -0.4619 -0.0011 -0.0012 0.0477 -0.0467 0.1504 -0.1545 0.0036 0.0037 1.072 -1.0501c-0.0267,-0.0251 -0.0491,-0.0457 -0.0663,-0.0608l-1.284 1.2754 -0.6387 -0.6278 1.2703 -1.2818c-0.0628,-0.0672 -0.2265,-0.247 -0.375,-0.4009l-1.9151 1.9362 1.0084 1.0143 -0.63 0.6479 -1.0216 -1.0215 -0.6399 0.6469 0.694 0.7024c0.1645,0.1649 0.3167,0.3168 0.4814,0.4815 0.1565,0.1566 0.3126,0.3253 0.4723,0.4695l1.2832 -1.2761 0.6395 0.6278 -1.271 1.2816c0.0159,0.017 0.0384,0.0412 0.0654,0.0705l1.9373 -1.895 -0.7201 -0.7248 0.6272 -0.639 1.2825 1.2707c0.1184,-0.1112 0.584,-0.5353 0.6458,-0.6368l-0.4767 -0.4892c-0.2129,-0.2157 -0.891,-0.9069 -1.2489,-1.2557l-1.2421 1.2828 -0.0076 -0.0076 -0.4408 0.4707 -0.1516 -0.1505zm-0.8735 0.8734l0.6466 -0.6643 0.1366 0.1406 -0.6316 0.6742 -0.1516 -0.1505zm0.8133 2.0566c0.1632,0.1744 0.3622,0.3816 0.4268,0.4205l1.9224 -1.9109 -0.4386 -0.4413 -1.9106 1.9317zm0.5631 -5.8634c-0.06,-0.0585 -0.1093,-0.1026 -0.1363,-0.1183l-0.9705 0.9584c-0.165,0.1647 -0.3168,0.3165 -0.4815,0.4813 -0.1545,0.1544 -0.3293,0.314 -0.4691,0.4722l0.1223 0.123 1.9351 -1.9166zm-2.6852 10.1297c-0.1182,0.1102 -0.5875,0.5348 -0.6467,0.637l0.1153 0.1167 0.6456 -0.6395 -0.1142 -0.1142zm2.1877 0.4875l0.4495 -0.4619 -0.0011 -0.0012 0.0477 -0.0467 0.1504 -0.1545 0.0036 0.0037 1.072 -1.0501c-0.0267,-0.0251 -0.0491,-0.0457 -0.0663,-0.0608l-1.284 1.2754 -0.6387 -0.6278 1.2703 -1.2818c-0.0628,-0.0672 -0.2265,-0.247 -0.375,-0.4009l-1.9151 1.9362 1.0084 1.0143 -0.63 0.6479 -1.0216 -1.0215 -0.6399 0.6469 0.694 0.7024c0.1645,0.1649 0.3167,0.3168 0.4814,0.4815 0.1565,0.1566 0.3126,0.3253 0.4723,0.4695l1.2832 -1.2761 0.6395 0.6278 -1.271 1.2816c0.0159,0.017 0.0384,0.0412 0.0654,0.0705l1.9373 -1.895 -0.7201 -0.7248 0.6272 -0.639 1.2825 1.2707c0.1184,-0.1112 0.584,-0.5353 0.6458,-0.6368l-0.4767 -0.4892c-0.2129,-0.2157 -0.891,-0.9069 -1.2489,-1.2557l-1.2421 1.2828 -0.0076 -0.0076 -0.4408 0.4707 -0.1516 -0.1505zm-0.8735 0.8734l0.6466 -0.6643 0.1366 0.1406 -0.6316 0.6742 -0.1516 -0.1505zm0.8133 2.0566c0.1632,0.1744 0.3622,0.3816 0.4268,0.4205l1.9224 -1.9109 -0.4386 -0.4413 -1.9106 1.9317zm0.5631 -5.8634c-0.06,-0.0585 -0.1093,-0.1026 -0.1363,-0.1183l-0.9705 0.9584c-0.165,0.1647 -0.3168,0.3165 -0.4815,0.4813 -0.1545,0.1544 -0.3293,0.314 -0.4691,0.4722l0.1223 0.123 1.9351 -1.9166zm-2.6852 10.1297c-0.1182,0.1102 -0.5875,0.5348 -0.6467,0.637l0.1153 0.1167 0.6456 -0.6395 -0.1142 -0.1142zm2.1877 0.4875l0.4495 -0.4619 -0.0011 -0.0012 0.0477 -0.0467 0.1504 -0.1545 0.0036 0.0037 1.072 -1.0501c-0.0267,-0.0251 -0.0491,-0.0457 -0.0663,-0.0608l-1.284 1.2754 -0.6387 -0.6278 1.2703 -1.2818c-0.0628,-0.0672 -0.2265,-0.247 -0.375,-0.4009l-1.9151 1.9362 1.0084 1.0143 -0.63 0.6479 -1.0216 -1.0215 -0.6399 0.6469 0.694 0.7024c0.1645,0.1649 0.3167,0.3168 0.4814,0.4815 0.1565,0.1566 0.3126,0.3253 0.4723,0.4695l1.2832 -1.2761 0.6395 0.6278 -1.271 1.2816c0.0159,0.017 0.0384,0.0412 0.0654,0.0705l1.9373 -1.895 -0.7201 -0.7248 0.6272 -0.639 1.2825 1.2707c0.1184,-0.1112 0.584,-0.5353 0.6458,-0.6368l-0.4767 -0.4892c-0.2129,-0.2157 -0.891,-0.9069 -1.2489,-1.2557l-1.2421 1.2828 -0.0076 -0.0076 -0.4408 0.4707 -0.1516 -0.1505zm-0.8735 0.8734l0.6466 -0.6643 0.1366 0.1406 -0.6316 0.6742 -0.1516 -0.1505zm0.8133 2.0566c0.1632,0.1744 0.3622,0.3816 0.4268,0.4205l1.9224 -1.9109 -0.4386 -0.4413 -1.9106 1.9317zm0.5631 -5.8634c-0.06,-0.0585 -0.1093,-0.1026 -0.1363,-0.1183l-0.9705 0.9584c-0.165,0.1647 -0.3168,0.3165 -0.4815,0.4813 -0.1545,0.1544 -0.3293,0.314 -0.4691,0.4722l0.1223 0.123 1.9351 -1.9166zm-2.6852 10.1297c-0.1182,0.1102 -0.5875,0.5348 -0.6467,0.637l0.1153 0.1167 0.6456 -0.6395 -0.1142 -0.1142zm2.1877 0.4875l0.4495 -0.4619 -0.0011 -0.0012 0.0477 -0.0467 0.1504 -0.1545 0.0036 0.0037 1.072 -1.0501c-0.0267,-0.0251 -0.0491,-0.0457 -0.0663,-0.0608l-1.284 1.2754 -0.6387 -0.6278 1.2703 -1.2818c-0.0628,-0.0672 -0.2265,-0.247 -0.375,-0.4009l-1.9151 1.9362 1.0084 1.0143 -0.63 0.6479 -1.0216 -1.0215 -0.6399 0.6469 0.694 0.7024c0.1645,0.1649 0.3167,0.3168 0.4814,0.4815 0.1565,0.1566 0.3126,0.3253 0.4723,0.4695l1.2832 -1.2761 0.6395 0.6278 -1.271 1.2816c0.0159,0.017 0.0384,0.0412 0.0654,0.0705l1.9373 -1.895 -0.7201 -0.7248 0.6272 -0.639 1.2825 1.2707c0.1184,-0.1112 0.584,-0.5353 0.6458,-0.6368l-0.4767 -0.4892c-0.2129,-0.2157 -0.891,-0.9069 -1.2489,-1.2557l-1.2421 1.2828 -0.0076 -0.0076 -0.4408 0.4707 -0.1516 -0.1505zm-0.8735 0.8734l0.6466 -0.6643 0.1366 0.1406 -0.6316 0.6742 -0.1516 -0.1505zm0.8133 2.0566c0.1632,0.1744 0.3622,0.3816 0.4268,0.4205l1.9224 -1.9109 -0.4386 -0.4413 -1.9106 1.9317zm0.5631 -5.8634c-0.06,-0.0585 -0.1093,-0.1026 -0.1363,-0.1183l-0.9705 0.9584c-0.165,0.1647 -0.3168,0.3165 -0.4815,0.4813 -0.1545,0.1544 -0.3293,0.314 -0.4691,0.4722l0.1223 0.123 1.9351 -1.9166zm-2.6852 10.1297c-0.1182,0.1102 -0.5875,0.5348 -0.6467,0.637l0.1153 0.1167 0.6456 -0.6395 -0.1142 -0.1142zm2.1877 0.4875l0.4495 -0.4619 -0.0011 -0.0012 0.0477 -0.0467 0.1504 -0.1545 0.0036 0.0037 1.072 -1.0501c-0.0267,-0.0251 -0.0491,-0.0457 -0.0663,-0.0608l-1.284 1.2754 -0.6387 -0.6278 1.2703 -1.2818c-0.0628,-0.0672 -0.2265,-0.247 -0.375,-0.4009l-1.9151 1.9362 1.0084 1.0143 -0.63 0.6479 -1.0216 -1.0215 -0.6399 0.6469 0.694 0.7024c0.1645,0.1649 0.3167,0.3168 0.4814,0.4815 0.1565,0.1566 0.3126,0.3253 0.4723,0.4695l1.2832 -1.2761 0.6395 0.6278 -1.271 1.2816c0.0159,0.017 0.0384,0.0412 0.0654,0.0705l1.9373 -1.895 -0.7201 -0.7248 0.6272 -0.639 1.2825 1.2707c0.1184,-0.1112 0.584,-0.5353 0.6458,-0.6368l-0.4767 -0.4892c-0.2129,-0.2157 -0.891,-0.9069 -1.2489,-1.2557l-1.2421 1.2828 -0.0076 -0.0076 -0.4408 0.4707 -0.1516 -0.1505zm-0.8735 0.8734l0.6466 -0.6643 0.1366 0.1406 -0.6316 0.6742 -0.1516 -0.1505zm0.8133 2.0566c0.1632,0.1744 0.3622,0.3816 0.4268,0.4205l1.9224 -1.9109 -0.4386 -0.4413 -1.9106 1.9317zm0.5631 -5.8634c-0.06,-0.0585 -0.1093,-0.1026 -0.1363,-0.1183l-0.9705 0.9584c-0.165,0.1647 -0.3168,0.3165 -0.4815,0.4813 -0.1545,0.1544 -0.3293,0.314 -0.4691,0.4722l0.1223 0.123 1.9351 -1.9166zm-2.6852 10.1297c-0.1182,0.1102 -0.5875,0.5348 -0.6467,0.637l0.1153 0.1167 0.6456 -0.6395 -0.1142 -0.1142zm2.1877 0.4875l0.4495 -0.4619 -0.0011 -0.0012 0.0477 -0.0467 0.1504 -0.1545 0.0036 0.0037 1.072 -1.0501c-0.0267,-0.0251 -0.0491,-0.0457 -0.0663,-0.0608l-1.284 1.2754 -0.6387 -0.6278 1.2703 -1.2818c-0.0628,-0.0672 -0.2265,-0.247 -0.375,-0.4009l-1.9151 1.9362 1.0084 1.0143 -0.63 0.6479 -1.0216 -1.0215 -0.6399 0.6469 0.694 0.7024c0.1645,0.1649 0.3167,0.3168 0.4814,0.4815 0.1565,0.1566 0.3126,0.3253 0.4723,0.4695l1.2832 -1.2761 0.6395 0.6278 -1.271 1.2816c0.0159,0.017 0.0384,0.0412 0.0654,0.0705l1.9373 -1.895 -0.7201 -0.7248 0.6272 -0.639 1.2825 1.2707c0.1184,-0.1112 0.584,-0.5353 0.6458,-0.6368l-0.4767 -0.4892c-0.2129,-0.2157 -0.891,-0.9069 -1.2489,-1.2557l-1.2421 1.2828 -0.0076 -0.0076 -0.4408 0.4707 -0.1516 -0.1505zm-0.8735 0.8734l0.6466 -0.6643 0.1366 0.1406 -0.6316 0.6742 -0.1516 -0.1505zm0.8133 2.0566c0.1632,0.1744 0.3622,0.3816 0.4268,0.4205l1.9224 -1.9109 -0.4386 -0.4413 -1.9106 1.9317zm0.5631 -5.8634c-0.06,-0.0585 -0.1093,-0.1026 -0.1363,-0.1183l-0.9705 0.9584c-0.165,0.1647 -0.3168,0.3165 -0.4815,0.4813 -0.1545,0.1544 -0.3293,0.314 -0.4691,0.4722l0.1223 0.123 1.9351 -1.9166zm-2.6852 10.1297c-0.1182,0.1102 -0.5875,0.5348 -0.6467,0.637l0.1153 0.1167 0.6456 -0.6395 -0.1142 -0.1142zm2.1877 0.4875l0.4495 -0.4619 -0.0011 -0.0012 0.0477 -0.0467 0.1504 -0.1545 0.0036 0.0037 1.072 -1.0501c-0.0267,-0.0251 -0.0491,-0.0457 -0.0663,-0.0608l-1.284 1.2754 -0.6387 -0.6278 1.2703 -1.2818c-0.0628,-0.0672 -0.2265,-0.247 -0.375,-0.4009l-1.9151 1.9362 1.0084 1.0143 -0.63 0.6479 -1.0216 -1.0215 -0.6399 0.6469 0.694 0.7024c0.1645,0.1649 0.3167,0.3168 0.4814,0.4815 0.1565,0.1566 0.3126,0.3253 0.4723,0.4695l1.2832 -1.2761 0.6395 0.6278 -1.271 1.2816c0.0159,0.017 0.0384,0.0412 0.0654,0.0705l1.9373 -1.895 -0.7201 -0.7248 0.6272 -0.639 1.2825 1.2707c0.1184,-0.1112 0.584,-0.5353 0.6458,-0.6368l-0.4767 -0.4892c-0.2129,-0.2157 -0.891,-0.9069 -1.2489,-1.2557l-1.2421 1.2828 -0.0076 -0.0076 -0.4408 0.4707 -0.1516 -0.1505zm-0.8735 0.8734l0.6466 -0.6643 0.1366 0.1406 -0.6316 0.6742 -0.1516 -0.1505zm0.8133 2.0566c0.1632,0.1744 0.3622,0.3816 0.4268,0.4205l1.9224 -1.9109 -0.4386 -0.4413 -1.9106 1.9317zm0.5631 -5.8634c-0.06,-0.0585 -0.1093,-0.1026 -0.1363,-0.1183l-0.9705 0.9584c-0.165,0.1647 -0.3168,0.3165 -0.4815,0.4813 -0.1545,0.1544 -0.3293,0.314 -0.4691,0.4722l0.1223 0.123 1.9351 -1.9166zm-2.6852 10.1297c-0.1182,0.1102 -0.5875,0.5348 -0.6467,0.637l0.1153 0.1167 0.6456 -0.6395 -0.1142 -0.1142zm2.1877 0.4875l0.4495 -0.4619 -0.0011 -0.0012 0.0477 -0.0467 0.1504 -0.1545 0.0036 0.0037 1.072 -1.0501c-0.0267,-0.0251 -0.0491,-0.0457 -0.0663,-0.0608l-1.284 1.2754 -0.6387 -0.6278 1.2703 -1.2818c-0.0628,-0.0672 -0.2265,-0.247 -0.375,-0.4009l-1.9151 1.9362 1.0084 1.0143 -0.63 0.6479 -1.0216 -1.0215 -0.6399 0.6469 0.694 0.7024c0.1645,0.1649 0.3167,0.3168 0.4814,0.4815 0.1565,0.1566 0.3126,0.3253 0.4723,0.4695l1.2832 -1.2761 0.6395 0.6278 -1.271 1.2816c0.0159,0.017 0.0384,0.0412 0.0654,0.0705l1.9373 -1.895 -0.7201 -0.7248 0.6272 -0.639 1.2825 1.2707c0.1184,-0.1112 0.584,-0.5353 0.6458,-0.6368l-0.4767 -0.4892c-0.2129,-0.2157 -0.891,-0.9069 -1.2489,-1.2557l-1.2421 1.2828 -0.0076 -0.0076 -0.4408 0.4707 -0.1516 -0.1505zm-0.8735 0.8734l0.6466 -0.6643 0.1366 0.1406 -0.6316 0.6742 -0.1516 -0.1505zm0.8133 2.0566c0.1632,0.1744 0.3622,0.3816 0.4268,0.4205l1.9224 -1.9109 -0.4386 -0.4413 -1.9106 1.9317zm0.5631 -5.8634c-0.06,-0.0585 -0.1093,-0.1026 -0.1363,-0.1183l-0.9705 0.9584c-0.165,0.1647 -0.3168,0.3165 -0.4815,0.4813 -0.1545,0.1544 -0.3293,0.314 -0.4691,0.4722l0.1223 0.123 1.9351 -1.9166zm-2.6852 10.1297c-0.1182,0.1102 -0.5875,0.5348 -0.6467,0.637l0.1153 0.1167 0.6456 -0.6395 -0.1142 -0.1142zm2.1877 0.4875l0.4495 -0.4619 -0.0011 -0.0012 0.0477 -0.0467 0.1504 -0.1545 0.0036 0.0037 1.072 -1.0501c-0.0267,-0.0251 -0.0491,-0.0457 -0.0663,-0.0608l-1.284 1.2754 -0.6387 -0.6278 1.2703 -1.2818c-0.0628,-0.0672 -0.2265,-0.247 -0.375,-0.4009l-1.9151 1.9362 1.0084 1.0143 -0.63 0.6479 -1.0216 -1.0215 -0.6399 0.6469 0.694 0.7024c0.1645,0.1649 0.3167,0.3168 0.4814,0.4815 0.1565,0.1566 0.3126,0.3253 0.4723,0.4695l1.2832 -1.2761 0.6395 0.6278 -1.271 1.2816c0.0159,0.017 0.0384,0.0412 0.0654,0.0705l1.9373 -1.895 -0.7201 -0.7248 0.6272 -0.639 1.2825 1.2707c0.1184,-0.1112 0.584,-0.5353 0.6458,-0.6368l-0.4767 -0.4892c-0.2129,-0.2157 -0.891,-0.9069 -1.2489,-1.2557l-1.2421 1.2828 -0.0076 -0.0076 -0.4408 0.4707 -0.1516 -0.1505zm-0.8735 0.8734l0.6466 -0.6643 0.1366 0.1406 -0.6316 0.6742 -0.1516 -0.1505zm0.8133 2.0566c0.1632,0.1744 0.3622,0.3816 0.4268,0.4205l1.9224 -1.9109 -0.4386 -0.4413 -1.9106 1.9317zm0.5631 -5.8634c-0.06,-0.0585 -0.1093,-0.1026 -0.1363,-0.1183l-0.9705 0.9584c-0.165,0.1647 -0.3168,0.3165 -0.4815,0.4813 -0.1545,0.1544 -0.3293,0.314 -0.4691,0.4722l0.1223 0.123 1.9351 -1.9166zm-2.6852 10.1297c-0.1182,0.1102 -0.5875,0.5348 -0.6467,0.637l0.1153 0.1167 0.6456 -0.6395 -0.1142 -0.1142zm2.1877 0.4875l0.4495 -0.4619 -0.0011 -0.0012 0.0477 -0.0467 0.1504 -0.1545 0.0036 0.0037 1.072 -1.0501c-0.0267,-0.0251 -0.0491,-0.0457 -0.0663,-0.0608l-1.284 1.2754 -0.6387 -0.6278 1.2703 -1.2818c-0.0628,-0.0672 -0.2265,-0.247 -0.375,-0.4009l-1.9151 1.9362 1.0084 1.0143 -0.63 0.6479 -1.0216 -1.0215 -0.6399 0.6469 0.694 0.7024c0.1645,0.1649 0.3167,0.3168 0.4814,0.4815 0.1565,0.1566 0.3126,0.3253 0.4723,0.4695l1.2832 -1.2761 0.6395 0.6278 -1.271 1.2816c0.0159,0.017 0.0384,0.0412 0.0654,0.0705l1.9373 -1.895 -0.7201 -0.7248 0.6272 -0.639 1.2825 1.2707c0.1184,-0.1112 0.584,-0.5353 0.6458,-0.6368l-0.4767 -0.4892c-0.2129,-0.2157 -0.891,-0.9069 -1.2489,-1.2557l-1.2421 1.2828 -0.0076 -0.0076 -0.4408 0.4707 -0.1516 -0.1505zm-0.8735 0.8734l0.6466 -0.6643 0.1366 0.1406 -0.6316 0.6742 -0.1516 -0.1505zm0.8133 2.0566c0.1632,0.1744 0.3622,0.3816 0.4268,0.4205l1.9224 -1.9109 -0.4386 -0.4413 -1.9106 1.9317zm0.5631 -5.8634c-0.06,-0.0585 -0.1093,-0.1026 -0.1363,-0.1183l-0.9705 0.9584c-0.165,0.1647 -0.3168,0.3165 -0.4815,0.4813 -0.1545,0.1544 -0.3293,0.314 -0.4691,0.4722l0.1223 0.123 1.9351 -1.9166zm-2.6852 10.1297c-0.1182,0.1102 -0.5875,0.5348 -0.6467,0.637l0.1153 0.1167 0.6456 -0.6395 -0.1142 -0.1142zm2.1877 0.4875l0.4495 -0.4619 -0.0011 -0.0012 0.0477 -0.0467 0.1504 -0.1545 0.0036 0.0037 1.072 -1.0501c-0.0267,-0.0251 -0.0491,-0.0457 -0.0663,-0.0608l-1.284 1.2754 -0.6387 -0.6278 1.2703 -1.2818c-0.0628,-0.0672 -0.2265,-0.247 -0.375,-0.4009l-1.9151 1.9362 1.0084 1.0143 -0.63 0.6479 -1.0216 -1.0215 -0.6399 0.6469 0.694 0.7024c0.1645,0.1649 0.3167,0.3168 0.4814,0.4815 0.1565,0.1566 0.3126,0.3253 0.4723,0.4695l1.2832 -1.2761 0.6395 0.6278 -1.271 1.2816c0.0159,0.017 0.0384,0.0412 0.0654,0.0705l1.9373 -1.895 -0.7201 -0.7248 0.6272 -0.639 1.2825 1.2707c0.1184,-0.1112 0.584,-0.5353 0.6458,-0.6368l-0.4767 -0.4892c-0.2129,-0.2157 -0.891,-0.9069 -1.2489,-1.2557l-1.2421 1.2828 -0.0076 -0.0076 -0.4408 0.4707 -0.1516 -0.1505zm-0.8735 0.8734l0.6466 -0.6643 0.1366 0.1406 -0.6316 0.6742 -0.1516 -0.1505zm0.8133 2.0566c0.1632,0.1744 0.3622,0.3816 0.4268,0.4205l1.9224 -1.9109 -0.4386 -0.4413 -1.9106 1.9317zm0.5631 -5.8634c-0.06,-0.0585 -0.1093,-0.1026 -0.1363,-0.1183l-0.9705 0.9584c-0.165,0.1647 -0.3168,0.3165 -0.4815,0.4813 -0.1545,0.1544 -0.3293,0.314 -0.4691,0.4722l0.1223 0.123 1.9351 -1.9166zm-2.6852 10.1297c-0.1182,0.1102 -0.5875,0.5348 -0.6467,0.637l0.1153 0.1167 0.6456 -0.6395 -0.1142 -0.1142zm2.1877 0.4875l0.4495 -0.4619 -0.0011 -0.0012 0.0477 -0.0467 0.1504 -0.1545 0.0036 0.0037 1.072 -1.0501c-0.0267,-0.0251 -0.0491,-0.0457 -0.0663,-0.0608l-1.284 1.2754 -0.6387 -0.6278 1.2703 -1.2818c-0.0628,-0.0672 -0.2265,-0.247 -0.375,-0.4009l-1.9151 1.9362 1.0084 1.0143 -0.63 0.6479 -1.0216 -1.0215 -0.6399 0.6469 0.694 0.7024c0.1645,0.1649 0.3167,0.3168 0.4814,0.4815 0.1565,0.1566 0.3126,0.3253 0.4723,0.4695l1.2832 -1.2761 0.6395 0.6278 -1.271 1.2816c0.0159,0.017 0.0384,0.0412 0.0654,0.0705l1.9373 -1.895 -0.7201 -0.7248 0.6272 -0.639 1.2825 1.2707c0.1184,-0.1112 0.584,-0.5353 0.6458,-0.6368l-0.4767 -0.4892c-0.2129,-0.2157 -0.891,-0.9069 -1.2489,-1.2557l-1.2421 1.2828 -0.0076 -0.0076 -0.4408 0.4707 -0.1516 -0.1505zm-0.8735 0.8734l0.6466 -0.6643 0.1366 0.1406 -0.6316 0.6742 -0.1516 -0.1505zm0.8133 2.0566c0.1632,0.1744 0.3622,0.3816 0.4268,0.4205l1.9224 -1.9109 -0.4386 -0.4413 -1.9106 1.9317zm0.5631 -5.8634c-0.06,-0.0585 -0.1093,-0.1026 -0.1363,-0.1183l-0.9705 0.9584c-0.165,0.1647 -0.3168,0.3165 -0.4815,0.4813 -0.1545,0.1544 -0.3293,0.314 -0.4691,0.4722l0.1223 0.123 1.9351 -1.9166z"/>
  <path class="fil6" d="M136.641 14.2166c-0.1181,0.1102 -0.5875,0.5348 -0.6467,0.637l0.1153 0.1167 0.6456 -0.6395 -0.1142 -0.1142zm2.1877 0.4875l0.4495 -0.4619 -0.0011 -0.0011 0.0478 -0.0468 0.1503 -0.1545 0.0036 0.0037 1.072 -1.0501c-0.0267,-0.0251 -0.0491,-0.0457 -0.0663,-0.0608l-1.284 1.2754 -0.6387 -0.6278 1.2703 -1.2818c-0.0628,-0.0672 -0.2265,-0.247 -0.3751,-0.4009l-1.915 1.9362 1.0083 1.0143 -0.6299 0.6479 -1.0216 -1.0215 -0.64 0.647 0.6941 0.7023c0.1645,0.1649 0.3167,0.3168 0.4814,0.4815 0.1565,0.1565 0.3126,0.3253 0.4723,0.4695l1.2832 -1.2761 0.6395 0.6278 -1.271 1.2816c0.0159,0.017 0.0384,0.0412 0.0654,0.0704l1.9373 -1.8949 -0.7201 -0.7248 0.6272 -0.639 1.2825 1.2707c0.1184,-0.1112 0.584,-0.5353 0.6458,-0.6368l-0.4767 -0.4892c-0.2129,-0.2157 -0.8911,-0.9069 -1.2489,-1.2557l-1.2421 1.2828 -0.0076 -0.0075 -0.4408 0.4705 -0.1516 -0.1504zm-0.8735 0.8734l0.6466 -0.6643 0.1366 0.1405 -0.6316 0.6743 -0.1516 -0.1505zm0.8133 2.0566c0.1632,0.1744 0.3622,0.3816 0.4268,0.4205l1.9224 -1.9109 -0.4386 -0.4413 -1.9106 1.9317zm0.5631 -5.8634c-0.06,-0.0585 -0.1093,-0.1026 -0.1363,-0.1183l-0.9705 0.9584c-0.165,0.1647 -0.3169,0.3165 -0.4816,0.4812 -0.1544,0.1545 -0.3292,0.3141 -0.469,0.4723l0.1223 0.123 1.9351 -1.9166z"/>
  <path class="fil6" d="M136.646 21.9004c-0.1181,0.1102 -0.5875,0.5348 -0.6467,0.637l0.1153 0.1167 0.6456 -0.6395 -0.1142 -0.1142zm2.1877 0.4875l0.4495 -0.4619 -0.0011 -0.0011 0.0478 -0.0468 0.1503 -0.1545 0.0036 0.0037 1.072 -1.0501c-0.0267,-0.0251 -0.0491,-0.0457 -0.0663,-0.0608l-1.284 1.2754 -0.6387 -0.6278 1.2703 -1.2818c-0.0628,-0.0672 -0.2265,-0.247 -0.3751,-0.4009l-1.915 1.9362 1.0083 1.0143 -0.6299 0.6479 -1.0216 -1.0215 -0.64 0.647 0.6941 0.7023c0.1645,0.1649 0.3167,0.3168 0.4814,0.4815 0.1565,0.1565 0.3126,0.3253 0.4723,0.4695l1.2832 -1.2761 0.6395 0.6278 -1.271 1.2816c0.0159,0.017 0.0384,0.0412 0.0654,0.0704l1.9373 -1.8949 -0.7201 -0.7248 0.6272 -0.639 1.2825 1.2707c0.1184,-0.1112 0.584,-0.5353 0.6458,-0.6368l-0.4767 -0.4892c-0.2129,-0.2157 -0.8911,-0.9069 -1.2489,-1.2557l-1.2421 1.2828 -0.0076 -0.0075 -0.4408 0.4705 -0.1516 -0.1504zm-0.8735 0.8734l0.6466 -0.6643 0.1366 0.1405 -0.6316 0.6743 -0.1516 -0.1505zm0.8133 2.0566c0.1632,0.1744 0.3622,0.3816 0.4268,0.4205l1.9224 -1.9109 -0.4386 -0.4413 -1.9106 1.9317zm0.5631 -5.8634c-0.06,-0.0585 -0.1093,-0.1026 -0.1363,-0.1183l-0.9705 0.9584c-0.165,0.1647 -0.3169,0.3165 -0.4816,0.4812 -0.1544,0.1545 -0.3292,0.3141 -0.469,0.4723l0.1223 0.123 1.9351 -1.9166z"/>
  <path class="fil6" d="M136.651 29.5842c-0.1181,0.1102 -0.5875,0.5348 -0.6467,0.637l0.1153 0.1167 0.6456 -0.6395 -0.1142 -0.1142zm2.1877 0.4875l0.4495 -0.4619 -0.0011 -0.0011 0.0478 -0.0468 0.1503 -0.1545 0.0036 0.0037 1.072 -1.0501c-0.0267,-0.0251 -0.0491,-0.0457 -0.0663,-0.0608l-1.284 1.2754 -0.6387 -0.6278 1.2703 -1.2818c-0.0628,-0.0672 -0.2265,-0.247 -0.3751,-0.4009l-1.915 1.9362 1.0083 1.0143 -0.6299 0.6479 -1.0216 -1.0215 -0.64 0.647 0.6941 0.7023c0.1645,0.1649 0.3167,0.3168 0.4814,0.4815 0.1565,0.1565 0.3126,0.3253 0.4723,0.4695l1.2832 -1.2761 0.6395 0.6278 -1.271 1.2816c0.0159,0.017 0.0384,0.0412 0.0654,0.0704l1.9373 -1.8949 -0.7201 -0.7248 0.6272 -0.639 1.2825 1.2707c0.1184,-0.1112 0.584,-0.5353 0.6458,-0.6368l-0.4767 -0.4892c-0.2129,-0.2157 -0.8911,-0.9069 -1.2489,-1.2557l-1.2421 1.2828 -0.0076 -0.0075 -0.4408 0.4705 -0.1516 -0.1504zm-0.8735 0.8734l0.6466 -0.6643 0.1366 0.1405 -0.6316 0.6743 -0.1516 -0.1505zm0.8133 2.0566c0.1632,0.1744 0.3622,0.3816 0.4268,0.4205l1.9224 -1.9109 -0.4386 -0.4413 -1.9106 1.9317zm0.5631 -5.8634c-0.06,-0.0585 -0.1093,-0.1026 -0.1363,-0.1183l-0.9705 0.9584c-0.165,0.1647 -0.3169,0.3165 -0.4816,0.4812 -0.1544,0.1545 -0.3292,0.3141 -0.469,0.4723l0.1223 0.123 1.9351 -1.9166z"/>
  <path class="fil6" d="M136.657 37.268c-0.1181,0.1102 -0.5875,0.5348 -0.6467,0.637l0.1153 0.1167 0.6456 -0.6395 -0.1142 -0.1142zm2.1877 0.4875l0.4495 -0.4619 -0.0011 -0.0011 0.0478 -0.0468 0.1503 -0.1545 0.0036 0.0037 1.072 -1.0501c-0.0267,-0.0251 -0.0491,-0.0457 -0.0663,-0.0608l-1.284 1.2754 -0.6387 -0.6278 1.2703 -1.2818c-0.0628,-0.0672 -0.2265,-0.247 -0.3751,-0.4009l-1.915 1.9362 1.0083 1.0143 -0.6299 0.6479 -1.0216 -1.0215 -0.64 0.647 0.6941 0.7023c0.1645,0.1649 0.3167,0.3168 0.4814,0.4815 0.1565,0.1565 0.3126,0.3253 0.4723,0.4695l1.2832 -1.2761 0.6395 0.6278 -1.271 1.2816c0.0159,0.017 0.0384,0.0412 0.0654,0.0704l1.9373 -1.8949 -0.7201 -0.7248 0.6272 -0.639 1.2825 1.2707c0.1184,-0.1112 0.584,-0.5353 0.6458,-0.6368l-0.4767 -0.4892c-0.2129,-0.2157 -0.8911,-0.9069 -1.2489,-1.2557l-1.2421 1.2828 -0.0076 -0.0075 -0.4408 0.4705 -0.1516 -0.1504zm-0.8735 0.8734l0.6466 -0.6643 0.1366 0.1405 -0.6316 0.6743 -0.1516 -0.1505zm0.8133 2.0566c0.1632,0.1744 0.3622,0.3816 0.4268,0.4205l1.9224 -1.9109 -0.4386 -0.4413 -1.9106 1.9317zm0.5631 -5.8634c-0.06,-0.0585 -0.1093,-0.1026 -0.1363,-0.1183l-0.9705 0.9584c-0.165,0.1647 -0.3169,0.3165 -0.4816,0.4812 -0.1544,0.1545 -0.3292,0.3141 -0.469,0.4723l0.1223 0.123 1.9351 -1.9166z"/>
  <path class="fil6" d="M136.662 44.9518c-0.1181,0.1102 -0.5875,0.5348 -0.6467,0.637l0.1153 0.1167 0.6456 -0.6395 -0.1142 -0.1142zm2.1877 0.4875l0.4495 -0.4619 -0.0011 -0.0011 0.0478 -0.0468 0.1503 -0.1545 0.0036 0.0037 1.072 -1.0501c-0.0267,-0.0251 -0.0491,-0.0457 -0.0663,-0.0608l-1.284 1.2754 -0.6387 -0.6278 1.2703 -1.2818c-0.0628,-0.0672 -0.2265,-0.247 -0.3751,-0.4009l-1.915 1.9362 1.0083 1.0143 -0.6299 0.6479 -1.0216 -1.0215 -0.64 0.647 0.6941 0.7023c0.1645,0.1649 0.3167,0.3168 0.4814,0.4815 0.1565,0.1565 0.3126,0.3253 0.4723,0.4695l1.2832 -1.2761 0.6395 0.6278 -1.271 1.2816c0.0159,0.017 0.0384,0.0412 0.0654,0.0704l1.9373 -1.8949 -0.7201 -0.7248 0.6272 -0.639 1.2825 1.2707c0.1184,-0.1112 0.584,-0.5353 0.6458,-0.6368l-0.4767 -0.4892c-0.2129,-0.2157 -0.8911,-0.9069 -1.2489,-1.2557l-1.2421 1.2828 -0.0076 -0.0075 -0.4408 0.4705 -0.1516 -0.1504zm-0.8735 0.8734l0.6466 -0.6643 0.1366 0.1405 -0.6316 0.6743 -0.1516 -0.1505zm0.8133 2.0566c0.1632,0.1744 0.3622,0.3816 0.4268,0.4205l1.9224 -1.9109 -0.4386 -0.4413 -1.9106 1.9317zm0.5631 -5.8634c-0.06,-0.0585 -0.1093,-0.1026 -0.1363,-0.1183l-0.9705 0.9584c-0.165,0.1647 -0.3169,0.3165 -0.4816,0.4812 -0.1544,0.1545 -0.3292,0.3141 -0.469,0.4723l0.1223 0.123 1.9351 -1.9166z"/>
  <path class="fil6" d="M136.668 52.6356c-0.1181,0.1102 -0.5875,0.5348 -0.6467,0.637l0.1153 0.1167 0.6456 -0.6395 -0.1142 -0.1142zm2.1877 0.4875l0.4495 -0.4619 -0.0011 -0.0011 0.0478 -0.0468 0.1503 -0.1545 0.0036 0.0037 1.072 -1.0501c-0.0267,-0.0251 -0.0491,-0.0457 -0.0663,-0.0608l-1.284 1.2754 -0.6387 -0.6278 1.2703 -1.2818c-0.0628,-0.0672 -0.2265,-0.247 -0.3751,-0.4009l-1.915 1.9362 1.0083 1.0143 -0.6299 0.6479 -1.0216 -1.0215 -0.64 0.647 0.6941 0.7023c0.1645,0.1649 0.3167,0.3168 0.4814,0.4815 0.1565,0.1565 0.3126,0.3253 0.4723,0.4695l1.2832 -1.2761 0.6395 0.6278 -1.271 1.2816c0.0159,0.017 0.0384,0.0412 0.0654,0.0704l1.9373 -1.8949 -0.7201 -0.7248 0.6272 -0.639 1.2825 1.2707c0.1184,-0.1112 0.584,-0.5353 0.6458,-0.6368l-0.4767 -0.4892c-0.2129,-0.2157 -0.8911,-0.9069 -1.2489,-1.2557l-1.2421 1.2828 -0.0076 -0.0075 -0.4408 0.4705 -0.1516 -0.1504zm-0.8735 0.8734l0.6466 -0.6643 0.1366 0.1405 -0.6316 0.6743 -0.1516 -0.1505zm0.8133 2.0566c0.1632,0.1744 0.3622,0.3816 0.4268,0.4205l1.9224 -1.9109 -0.4386 -0.4413 -1.9106 1.9317zm0.5631 -5.8634c-0.06,-0.0585 -0.1093,-0.1026 -0.1363,-0.1183l-0.9705 0.9584c-0.165,0.1647 -0.3169,0.3165 -0.4816,0.4812 -0.1544,0.1545 -0.3292,0.3141 -0.469,0.4723l0.1223 0.123 1.9351 -1.9166z"/>
  <path class="fil6" d="M136.673 60.3194c-0.1181,0.1102 -0.5875,0.5348 -0.6467,0.637l0.1153 0.1167 0.6456 -0.6395 -0.1142 -0.1142zm2.1877 0.4875l0.4495 -0.4619 -0.0011 -0.0011 0.0478 -0.0468 0.1503 -0.1545 0.0036 0.0037 1.072 -1.0501c-0.0267,-0.0251 -0.0491,-0.0457 -0.0663,-0.0608l-1.284 1.2754 -0.6387 -0.6278 1.2703 -1.2818c-0.0628,-0.0672 -0.2265,-0.247 -0.3751,-0.4009l-1.915 1.9362 1.0083 1.0143 -0.6299 0.6479 -1.0216 -1.0215 -0.64 0.647 0.6941 0.7023c0.1645,0.1649 0.3167,0.3168 0.4814,0.4815 0.1565,0.1565 0.3126,0.3253 0.4723,0.4695l1.2832 -1.2761 0.6395 0.6278 -1.271 1.2816c0.0159,0.017 0.0384,0.0412 0.0654,0.0704l1.9373 -1.8949 -0.7201 -0.7248 0.6272 -0.639 1.2825 1.2707c0.1184,-0.1112 0.584,-0.5353 0.6458,-0.6368l-0.4767 -0.4892c-0.2129,-0.2157 -0.8911,-0.9069 -1.2489,-1.2557l-1.2421 1.2828 -0.0076 -0.0075 -0.4408 0.4705 -0.1516 -0.1504zm-0.8735 0.8734l0.6466 -0.6643 0.1366 0.1405 -0.6316 0.6743 -0.1516 -0.1505zm0.8133 2.0566c0.1632,0.1744 0.3622,0.3816 0.4268,0.4205l1.9224 -1.9109 -0.4386 -0.4413 -1.9106 1.9317zm0.5631 -5.8634c-0.06,-0.0585 -0.1093,-0.1026 -0.1363,-0.1183l-0.9705 0.9584c-0.165,0.1647 -0.3169,0.3165 -0.4816,0.4812 -0.1544,0.1545 -0.3292,0.3141 -0.469,0.4723l0.1223 0.123 1.9351 -1.9166z"/>
  <path class="fil6" d="M136.678 68.0032c-0.1181,0.1102 -0.5875,0.5348 -0.6467,0.637l0.1153 0.1167 0.6456 -0.6395 -0.1142 -0.1142zm2.1877 0.4875l0.4495 -0.4619 -0.0011 -0.0011 0.0478 -0.0468 0.1503 -0.1545 0.0036 0.0037 1.072 -1.0501c-0.0267,-0.0251 -0.0491,-0.0457 -0.0663,-0.0608l-1.284 1.2754 -0.6387 -0.6278 1.2703 -1.2818c-0.0628,-0.0672 -0.2265,-0.247 -0.3751,-0.4009l-1.915 1.9362 1.0083 1.0143 -0.6299 0.6479 -1.0216 -1.0215 -0.64 0.647 0.6941 0.7023c0.1645,0.1649 0.3167,0.3168 0.4814,0.4815 0.1565,0.1565 0.3126,0.3253 0.4723,0.4695l1.2832 -1.2761 0.6395 0.6278 -1.271 1.2816c0.0159,0.017 0.0384,0.0412 0.0654,0.0704l1.9373 -1.8949 -0.7201 -0.7248 0.6272 -0.639 1.2825 1.2707c0.1184,-0.1112 0.584,-0.5353 0.6458,-0.6368l-0.4767 -0.4892c-0.2129,-0.2157 -0.8911,-0.9069 -1.2489,-1.2557l-1.2421 1.2828 -0.0076 -0.0075 -0.4408 0.4705 -0.1516 -0.1504zm-0.8735 0.8734l0.6466 -0.6643 0.1366 0.1405 -0.6316 0.6743 -0.1516 -0.1505zm0.8133 2.0566c0.1632,0.1744 0.3622,0.3816 0.4268,0.4205l1.9224 -1.9109 -0.4386 -0.4413 -1.9106 1.9317zm0.5631 -5.8634c-0.06,-0.0585 -0.1093,-0.1026 -0.1363,-0.1183l-0.9705 0.9584c-0.165,0.1647 -0.3169,0.3165 -0.4816,0.4812 -0.1544,0.1545 -0.3292,0.3141 -0.469,0.4723l0.1223 0.123 1.9351 -1.9166z"/>
  <path class="fil6" d="M136.684 75.687c-0.1181,0.1102 -0.5875,0.5348 -0.6467,0.637l0.1153 0.1167 0.6456 -0.6395 -0.1142 -0.1142zm2.1877 0.4875l0.4495 -0.4619 -0.0011 -0.0011 0.0478 -0.0468 0.1503 -0.1545 0.0036 0.0037 1.072 -1.0501c-0.0267,-0.0251 -0.0491,-0.0457 -0.0663,-0.0608l-1.284 1.2754 -0.6387 -0.6278 1.2703 -1.2818c-0.0628,-0.0672 -0.2265,-0.247 -0.3751,-0.4009l-1.915 1.9362 1.0083 1.0143 -0.6299 0.6479 -1.0216 -1.0215 -0.64 0.647 0.6941 0.7023c0.1645,0.1649 0.3167,0.3168 0.4814,0.4815 0.1565,0.1565 0.3126,0.3253 0.4723,0.4695l1.2832 -1.2761 0.6395 0.6278 -1.271 1.2816c0.0159,0.017 0.0384,0.0412 0.0654,0.0704l1.9373 -1.8949 -0.7201 -0.7248 0.6272 -0.639 1.2825 1.2707c0.1184,-0.1112 0.584,-0.5353 0.6458,-0.6368l-0.4767 -0.4892c-0.2129,-0.2157 -0.8911,-0.9069 -1.2489,-1.2557l-1.2421 1.2828 -0.0076 -0.0075 -0.4408 0.4705 -0.1516 -0.1504zm-0.8735 0.8734l0.6466 -0.6643 0.1366 0.1405 -0.6316 0.6743 -0.1516 -0.1505zm0.8133 2.0566c0.1632,0.1744 0.3622,0.3816 0.4268,0.4205l1.9224 -1.9109 -0.4386 -0.4413 -1.9106 1.9317zm0.5631 -5.8634c-0.06,-0.0585 -0.1093,-0.1026 -0.1363,-0.1183l-0.9705 0.9584c-0.165,0.1647 -0.3169,0.3165 -0.4816,0.4812 -0.1544,0.1545 -0.3292,0.3141 -0.469,0.4723l0.1223 0.123 1.9351 -1.9166z"/>
  <path class="fil6" d="M136.689 83.3708c-0.1181,0.1102 -0.5875,0.5348 -0.6467,0.637l0.1153 0.1167 0.6456 -0.6395 -0.1142 -0.1142zm2.1877 0.4875l0.4495 -0.4619 -0.0011 -0.0011 0.0478 -0.0468 0.1503 -0.1545 0.0036 0.0037 1.072 -1.0501c-0.0267,-0.0251 -0.0491,-0.0457 -0.0663,-0.0608l-1.284 1.2754 -0.6387 -0.6278 1.2703 -1.2818c-0.0628,-0.0672 -0.2265,-0.247 -0.3751,-0.4009l-1.915 1.9362 1.0083 1.0143 -0.6299 0.6479 -1.0216 -1.0215 -0.64 0.647 0.6941 0.7023c0.1645,0.1649 0.3167,0.3168 0.4814,0.4815 0.1565,0.1565 0.3126,0.3253 0.4723,0.4695l1.2832 -1.2761 0.6395 0.6278 -1.271 1.2816c0.0159,0.017 0.0384,0.0412 0.0654,0.0704l1.9373 -1.8949 -0.7201 -0.7248 0.6272 -0.639 1.2825 1.2707c0.1184,-0.1112 0.584,-0.5353 0.6458,-0.6368l-0.4767 -0.4892c-0.2129,-0.2157 -0.8911,-0.9069 -1.2489,-1.2557l-1.2421 1.2828 -0.0076 -0.0075 -0.4408 0.4705 -0.1516 -0.1504zm-0.8735 0.8734l0.6466 -0.6643 0.1366 0.1405 -0.6316 0.6743 -0.1516 -0.1505zm0.8133 2.0566c0.1632,0.1744 0.3622,0.3816 0.4268,0.4205l1.9224 -1.9109 -0.4386 -0.4413 -1.9106 1.9317zm0.5631 -5.8634c-0.06,-0.0585 -0.1093,-0.1026 -0.1363,-0.1183l-0.9705 0.9584c-0.165,0.1647 -0.3169,0.3165 -0.4816,0.4812 -0.1544,0.1545 -0.3292,0.3141 -0.469,0.4723l0.1223 0.123 1.9351 -1.9166z"/>
  <path class="fil6" d="M136.695 91.0546c-0.1181,0.1102 -0.5875,0.5348 -0.6467,0.637l0.1153 0.1167 0.6456 -0.6395 -0.1142 -0.1142zm2.1877 0.4875l0.4495 -0.4619 -0.0011 -0.0011 0.0478 -0.0468 0.1503 -0.1545 0.0036 0.0037 1.072 -1.0501c-0.0267,-0.0251 -0.0491,-0.0457 -0.0663,-0.0608l-1.284 1.2754 -0.6387 -0.6278 1.2703 -1.2818c-0.0628,-0.0672 -0.2265,-0.247 -0.3751,-0.4009l-1.915 1.9362 1.0083 1.0143 -0.6299 0.6479 -1.0216 -1.0215 -0.64 0.647 0.6941 0.7023c0.1645,0.1649 0.3167,0.3168 0.4814,0.4815 0.1565,0.1565 0.3126,0.3253 0.4723,0.4695l1.2832 -1.2761 0.6395 0.6278 -1.271 1.2816c0.0159,0.017 0.0384,0.0412 0.0654,0.0704l1.9373 -1.8949 -0.7201 -0.7248 0.6272 -0.639 1.2825 1.2707c0.1184,-0.1112 0.584,-0.5353 0.6458,-0.6368l-0.4767 -0.4892c-0.2129,-0.2157 -0.8911,-0.9069 -1.2489,-1.2557l-1.2421 1.2828 -0.0076 -0.0075 -0.4408 0.4705 -0.1516 -0.1504zm-0.8735 0.8734l0.6466 -0.6643 0.1366 0.1405 -0.6316 0.6743 -0.1516 -0.1505zm0.8133 2.0566c0.1632,0.1744 0.3622,0.3816 0.4268,0.4205l1.9224 -1.9109 -0.4386 -0.4413 -1.9106 1.9317zm0.5631 -5.8634c-0.06,-0.0585 -0.1093,-0.1026 -0.1363,-0.1183l-0.9705 0.9584c-0.165,0.1647 -0.3169,0.3165 -0.4816,0.4812 -0.1544,0.1545 -0.3292,0.3141 -0.469,0.4723l0.1223 0.123 1.9351 -1.9166z"/>
 </g>
</svg>
