<?xml version="1.0" encoding="UTF-8"?>
<!DOCTYPE svg PUBLIC "-//W3C//DTD SVG 1.1//EN" "http://www.w3.org/Graphics/SVG/1.1/DTD/svg11.dtd">
<!-- Creator: CorelDRAW -->
<svg xmlns="http://www.w3.org/2000/svg" xml:space="preserve" width="44.0266mm" height="44.0266mm" style="shape-rendering:geometricPrecision; text-rendering:geometricPrecision; image-rendering:optimizeQuality; fill-rule:evenodd; clip-rule:evenodd"
viewBox="0 0 44.0266 44.0266"
 xmlns:xlink="http://www.w3.org/1999/xlink">
 <defs>
  <style type="text/css">
   <![CDATA[
    .fil5 {fill:#160903}
    .fil0 {fill:#857C73}
    .fil1 {fill:#8A614B}
    .fil3 {fill:#B38C75}
    .fil4 {fill:#C4AB94}
    .fil2 {fill:#D6C9B7}
   ]]>
  </style>
 </defs>
 <g id="Capa_x0020_1">
  <metadata id="CorelCorpID_0Corel-Layer"/>
  <g id="_621161072">
   <path id="_342200520" class="fil0" d="M13.8929 33.0574c0.2262,0.3328 1.1289,1.2198 1.5901,1.4236 -0.1865,-0.5411 -0.4341,-0.8761 -0.401,-1.5206l-0.0947 0.5354 -0.7761 -0.5416 -0.3183 0.1032z"/>
   <path id="_342200496" class="fil0" d="M29.8992 39.5627c-0.2148,0.1147 -0.1502,-0.1282 -0.1811,0.1204 -0.29,0.0233 -0.0177,-0.0364 -0.1403,0.188 0.229,0.0777 0.6237,0.2301 0.8839,0.2887 0.494,0.1114 0.4077,-0.1388 0.3945,-0.6348l-0.957 -0.2537 0.2771 0.5689 -0.2771 -0.2775z"/>
   <path id="_342200184" class="fil0" d="M26.9772 25.415l0.1521 0.0887c0.1128,-0.1283 0.1105,-0.1068 0.2869,-0.1483 -0.0105,-0.0205 -0.0447,-0.0706 -0.0496,-0.0808 -0.003,-0.006 -0.016,-0.029 -0.0193,-0.0364 -0.0029,-0.0064 -0.0106,-0.0265 -0.0135,-0.0335 -0.12,-0.2877 -0.243,-0.3548 -0.5962,-0.4544 -0.1562,0.0636 -1.4226,-0.5434 -1.8289,-0.5557 0.396,0.1788 1.991,0.8649 2.2218,1.0362l-1.5059 -0.5095c0.28,0.2199 1.1432,0.6326 1.4376,0.7171l-0.085 -0.0234z"/>
   <path id="_342200064" class="fil0" d="M9.044 33.5724l-0.0299 -0.5369 -0.0117 -0.1726c-0.114,-0.1569 -0.0495,0.0022 -0.1176,-0.2716 -0.0068,-0.0273 -0.0151,-0.1832 -0.0229,-0.2344 -0.0337,-0.2202 -0.1385,-0.3612 -0.2026,-0.8633 -0.0349,-0.2731 -0.0314,-0.2885 -0.1737,-0.4341 -0.0587,0.6893 -0.2256,0.641 0.0469,1.4483 0.0631,0.187 0.1379,0.3791 0.2061,0.5629 0.0331,0.0894 0.0677,0.1978 0.1211,0.2868l0.1843 0.2149z"/>
   <path id="_342199800" class="fil0" d="M39.9663 38.1971c0.1516,-0.121 0.4728,-0.5022 0.4706,-0.7917 -0.2967,0.1484 -0.5782,0.4606 -0.8201,0.7262l0.3495 0.0655z"/>
   <path id="_342199176" class="fil0" d="M27.7991 25.246l0.2077 0.0711c0.3003,-0.0296 0.3406,-0.1336 0.6358,-0.2092 -0.3737,-0.0746 -0.3293,-0.0301 -0.4031,-0.1685 -0.3187,0.1335 -0.2766,0.0831 -0.4404,0.3066z"/>
   <path id="_342199152" class="fil1" d="M25.9773 34.7947c-0.8155,0.0673 -1.2889,0.1059 -2.0909,-0.0747 -0.5882,-0.1324 -0.4419,-0.1273 -0.3836,-0.2705 -0.2714,0.1709 -0.4162,0.385 -0.5971,0.5568l1.6576 0.3677c0.061,0.0066 1.184,-0.2491 1.414,-0.5793z"/>
   <path id="_342199344" class="fil1" d="M22.6171 34.2839c-0.4663,0.0015 -0.815,-0.1116 -1.2505,-0.2328 -0.3142,-0.0875 -0.9152,-0.191 -1.0669,-0.4405 -0.1885,0.0819 -0.1461,0.062 -0.3016,0.1672 1.3351,0.6575 2.1061,1.2682 2.619,0.5061z"/>
   <path id="_342199224" class="fil1" d="M18.8619 21.2991l0.0883 -0.0716c0.0094,-0.0079 0.031,-0.0255 0.0423,-0.0352 0.0109,-0.0093 0.0283,-0.0245 0.0402,-0.0347l0.3671 -0.4012c-0.3505,-0.1165 -0.4802,-0.0617 -0.9989,-0.2546 -0.4257,-0.1583 -0.6112,-0.3257 -0.9599,-0.4752 0.1922,0.4503 0.348,0.4984 0.6142,0.7511 0.2619,0.2485 0.4182,0.3676 0.8067,0.5214z"/>
   <path id="_621168296" class="fil1" d="M20.2684 32.8404c-0.5012,0.0545 -0.8422,-0.062 -1.2908,-0.2071 -0.2121,-0.0686 -0.3708,-0.1342 -0.5509,-0.2111 -0.5135,-0.2192 -0.3685,-0.2392 -0.3001,-0.4017 -0.2177,0.0631 -0.2869,0.0753 -0.4376,0.2253 0.5005,0.2947 1.4159,0.936 1.9426,0.9034 0.2222,-0.0137 0.4857,-0.1275 0.6368,-0.3088z"/>
   <path id="_621156368" class="fil1" d="M29.5778 39.8711c0.1226,-0.2244 -0.1497,-0.1647 0.1403,-0.188 0.0309,-0.2486 -0.0337,-0.0057 0.1811,-0.1204 -0.1128,-0.2394 -0.2083,-0.3491 -0.4107,-0.4726l-0.7636 0.3529 0.1924 0.1674c0.0548,0.0318 0.1438,0.0648 0.1916,0.0854 0.1834,0.0794 0.2759,0.1161 0.4689,0.1753z"/>
   <path id="_621144488" class="fil1" d="M26.3971 31.8176c0.2307,0.0675 0.1197,0.0149 0.2465,0.1903 0.1152,0.0021 0.1904,0.0184 0.316,-0.0158 0.3115,-0.0846 0.1401,-0.0631 0.2094,-0.1505l-0.513 0.1053c0.7061,-0.5839 0.6747,-0.4558 0.4961,-0.5422l-0.7034 0.3765c-0.0094,-0.0156 -0.0346,0.0241 -0.0516,0.0364z"/>
   <path id="_621140792" class="fil2" d="M13.363 24.4591c0.0976,-0.1358 0.0837,-0.181 0.1208,-0.4579 0.0225,-0.1682 0.0485,-0.3572 0.0794,-0.538 0.3118,-1.8279 1.0983,-3.5225 2.1771,-4.9734 0.2436,-0.3276 0.3687,-0.3325 0.3177,-0.8339 -1.0863,0.6327 -3.059,5.296 -2.695,6.8032z"/>
   <path id="_621140624" class="fil2" d="M35.1338 19.1156c-0.231,0.2069 -0.4985,0.9045 -0.5694,1.188l1.2923 -0.9171 1.4644 -0.6853 -1.5323 1.1053c0.046,0.0275 -0.0719,0.2329 0.449,-0.104 0.5941,-0.3842 0.167,-0.2323 1.0929,-0.7076 0.1625,-0.0834 0.0811,0.0044 0.1571,-0.1049 0.2214,-0.1478 0.2153,-0.1027 0.2512,-0.4592 -0.482,0.1754 -0.7703,0.2359 -1.3262,0.3973 -0.4123,0.1198 -0.8754,0.2863 -1.2345,0.4749 -0.06,-0.1072 -0.1126,0.2004 -0.0445,-0.1874z"/>
   <path id="_621141032" class="fil2" d="M29.1787 34.667l-0.0345 0.1472 0.3726 -0.094c0.101,-0.04 -0.0106,0.0291 0.145,-0.0897 0.0174,-0.0132 0.1154,-0.1011 0.1451,-0.1281 0.4092,-0.3727 1.1734,-1.1915 1.5012,-1.6253 0.1233,-0.1632 0.1186,-0.1369 0.1559,-0.2999 -0.0469,-0.2059 0.055,-0.2543 0.1246,-0.3933 0.0735,-0.1465 0.1115,-0.2745 0.1901,-0.4338 0.1313,-0.2663 0.2235,-0.6287 0.2768,-0.9873 -0.326,0.265 -0.3563,1.0589 -1.1483,2.0568 -0.4609,0.5808 -1.6786,1.7509 -1.7285,1.8474z"/>
   <path id="_621140840" class="fil2" d="M34.437 18.2056l-0.6587 -0.8923c0.0398,0.4803 0.1311,0.5267 0.217,0.8138 0.0986,0.3297 0.0827,0.5053 -0.0659,0.7372 -0.1743,-0.1192 -0.053,0.0237 -0.1972,-0.232 -0.9391,-1.6663 -0.3796,-1.7958 -0.5479,-2.7198 -0.0092,0.017 -0.0187,0.0244 -0.0215,0.0537 -0.034,0.3571 -0.0923,0.2268 -0.078,1.0072 0.0223,1.2249 0.2479,1.7178 0.5658,2.9099 0.2491,-0.2546 0.6461,-1.2472 0.7864,-1.6777z"/>
   <path id="_621140696" class="fil2" d="M34.8681 17.1775c0.107,-0.0952 -0.0003,0.0567 0.1364,-0.1681 0.0207,-0.0341 0.0688,-0.1427 0.0892,-0.1899 0.0731,-0.1686 0.1115,-0.2616 0.1943,-0.4317 0.1339,-0.275 0.2914,-0.5528 0.4064,-0.8478l-0.5529 -0.9696c-0.0099,-0.0166 -0.0221,-0.0353 -0.0315,-0.0506l-0.0704 -0.1025c-0.0128,0.0201 -0.0271,0.0268 -0.0326,0.0639 -0.0053,0.0362 -0.0235,0.0454 -0.0303,0.0632 -0.0815,0.2131 -0.0786,0.2443 -0.1024,0.4842 -0.0549,0.5517 -0.0874,1.6621 -0.0062,2.1489z"/>
   <path id="_621140888" class="fil2" d="M38.4055 12.2699c-0.2391,0.2013 -0.8292,1.4862 -0.9505,1.8581l0.6876 -0.5739c0.5144,-0.505 1.0269,-1.4446 1.6485,-1.7391 0.156,-0.1315 0.1066,-0.0785 0.1808,-0.323 -0.3225,0.1043 -0.6153,0.3025 -0.816,0.4375 -0.2692,0.1811 -0.4784,0.2929 -0.7163,0.4551l-0.0341 -0.1147z"/>
   <path id="_621140288" class="fil2" d="M26.7153 27.4316c-0.6706,-0.2181 -3.412,-1.2609 -3.8405,-1.2614l-0.2234 0.0008c0.8857,0.3035 2.7319,1.3363 3.8242,1.3379 0.2376,0.0003 0.1426,0.0273 0.2397,-0.0773z"/>
   <path id="_621140024" class="fil2" d="M14.5624 9.4452c0.0851,0.1601 0.0055,0.0328 0.0979,0.1453 0.0501,0.061 0.0888,0.0956 0.1436,0.1484 0.0872,0.0839 0.1426,0.1351 0.2199,0.2158l0.3198 -0.2478 -0.2123 -0.1742c0.0153,-0.3959 -0.0279,-0.0514 0.1539,-0.1945 -0.181,-0.1796 -0.924,-0.8611 -1.1322,-0.9722 -0.3981,-0.2125 -0.3614,-0.2239 -0.7523,-0.5392l0.6597 0.9144c0.2301,0.3144 0.4724,0.3287 0.507,0.5547 0.0005,0.0035 0.0022,0.0205 0.0025,0.024 0.0192,0.2306 0.0963,-0.0204 -0.0075,0.1253z"/>
   <path id="_621139688" class="fil2" d="M3.26 20.04c0.2159,-0.1987 -0.2325,-0.095 0.1833,-0.1524l-0.1076 -0.0879c-0.0013,-0.0011 -0.0074,-0.0048 -0.0082,-0.0097 -0.0003,-0.0014 0.0014,-0.002 0.0016,-0.0032 0.3485,-0.114 0.4609,-0.1132 0.6812,-0.3192l-0.4025 0.1139c-0.1092,-0.1258 -0.1706,0.1636 -0.1,-0.3283 0.0166,-0.1163 0.0252,-0.1065 0.0985,-0.2729 -0.5025,0.2078 -1.261,1.1189 -1.6411,1.589 0.1319,-0.043 1.2043,-0.4732 1.2948,-0.5293z"/>
   <path id="_621140264" class="fil2" d="M34.6022 22.039c0.0157,0.0174 0.0407,0.0165 0.0503,0.0488 0.037,0.1253 0.3605,0.296 0.5258,0.4074 0.4365,-0.1306 1.1532,-0.7591 1.3476,-1.1573 -0.4185,0.1248 -1.5343,0.7047 -1.9237,0.7011z"/>
   <path id="_621140000" class="fil2" d="M36.5295 16.0119c-0.1314,0.1109 -0.0535,0.0017 -0.1675,0.2033 -0.0423,0.0746 -0.0907,0.208 -0.1246,0.2899 -0.0948,0.2288 -0.1542,0.354 -0.2173,0.5913l0.2053 -0.1008c0.4326,-0.2904 1.6592,-1.8862 2.6539,-1.7622 -0.0564,-0.2174 0.0122,-0.105 -0.0715,-0.2287 -0.3128,0.0672 -0.0195,-0.0291 -0.2338,0.0919 -0.0205,0.0116 -0.1046,0.0772 -0.1253,0.0922 -0.4502,0.3263 -0.8832,0.4236 -1.3969,0.6678 -0.5507,0.2619 -0.3738,0.0663 -0.5272,0.3226l0.0049 -0.1673z"/>
   <path id="_621140432" class="fil2" d="M31.5223 22.5952c0.2094,-0.0377 0.7866,-0.1604 0.966,-0.2918l-0.2691 -0.0168c-0.1484,-0.2744 -0.2534,-0.5143 -0.3689,-0.8095 -0.0998,-0.255 -0.1535,-0.6616 -0.3377,-0.8061l0.0097 1.9242z"/>
   <path id="_621139448" class="fil2" d="M29.2449 30.7221c0.0545,0.154 0.2196,0.0883 0.447,0.0806 0.2802,-0.0095 0.3088,0.0118 0.5605,-0.0896l0.1182 -0.4198 -0.8127 -0.0759c-0.1594,0.1389 -0.2633,0.3135 -0.313,0.5047z"/>
   <path id="_621139184" class="fil2" d="M36.8096 13.3604c0.1447,-0.1034 0.0663,-0.0046 0.1842,-0.1933 0.0417,-0.0666 0.0984,-0.1949 0.1413,-0.2752 0.1076,-0.2013 0.1716,-0.3452 0.2939,-0.5583 -0.2905,0.0208 -0.0884,0.0654 -0.4191,-0.5497 -0.0719,0.2113 -0.3594,1.3427 -0.2003,1.5765z"/>
   <path id="_621139232" class="fil2" d="M39.5944 10.0325c0.177,0.0279 0.083,0.0138 0.1295,0.0013l0.2188 -0.0878 -0.1958 0.4431c0.1759,-0.2097 0.1915,-0.3117 0.431,-0.5076 0.1217,-0.0995 0.0138,-0.1539 0.1254,-0.0322 0.013,-0.0142 0.034,-0.0539 0.0398,-0.042 0.0335,0.0699 0.1078,-0.1666 0.153,-0.3972l-0.3274 0.149 0.4294 -0.8474c-0.2673,0.1838 -0.7908,0.9716 -1.0037,1.3208z"/>
   <path id="_621139208" class="fil2" d="M24.7007 27.7983c-0.0617,0.1801 0.0169,0.2253 0.165,0.2642l1.2918 0.2211c-0.201,-0.2832 -0.6278,-0.3353 -1.0672,-0.4514 -0.1245,-0.0328 -0.2776,-0.1008 -0.3896,-0.0339z"/>
   <path id="_621139376" class="fil2" d="M42.6172 4.4797l0.4327 0.3872 0.3477 -1.0289c-0.2294,0.0808 -0.4171,0.3265 -0.7804,0.6417z"/>
   <path id="_621139256" class="fil2" d="M23.3617 18.4117l-0.1489 -0.2588c0.0168,-0.0102 0.0372,-0.052 0.0482,-0.034l0.2165 -0.024 -0.281 -0.4688 -0.128 -0.1351c-0.2273,-0.1799 0.153,-0.0386 -0.0645,-0.0297l-0.1686 0.0671c0.0932,0.7731 0.397,0.8034 0.5263,0.8833z"/>
   <path id="_621138392" class="fil2" d="M35.1089 24.6018c0.0888,-0.1802 0.0444,-0.547 0.0167,-0.8018 -0.0428,-0.3952 -0.031,-0.3084 -0.2279,-0.6623l0.0877 1.1975c0.0359,0.3416 -0.0384,0.1732 0.1235,0.2666z"/>
   <path id="_621138584" class="fil3" d="M15.284 38.7871l-0.2279 0.3208c-0.1169,-0.167 -0.1754,-0.0609 -0.2478,-0.3517 -0.2495,-0.6588 -0.9636,-1.2815 -1.4056,-1.8138 -0.0635,-0.0765 -0.2041,-0.2513 -0.2401,-0.324 -0.2138,-0.4318 0.0705,-0.4493 0.0776,-0.4542 -0.076,-0.082 -0.0071,-0.0714 -0.2053,-0.1263 -0.3028,0.6259 -0.22,0.4698 -0.2938,1.0679 -0.0211,0.1707 -0.0327,0.2621 -0.114,0.3812l-0.1785 -0.2156c-0.0365,-0.0653 -0.0633,-0.1579 -0.0889,-0.2507 -0.042,-0.1521 -0.0868,-0.3483 -0.1124,-0.4668 -0.307,-0.3986 -0.195,-0.7489 -0.7139,-0.963 -0.0924,1.0737 -0.3731,1.161 0.2608,1.7833 0.2818,0.2766 0.8449,0.8139 1.1933,0.9637l-0.1173 -1.5166 0.1651 0.5699c0.1597,0.1059 0.3742,0.078 0.4764,0.2179 0.1295,0.1774 0.0863,0.8164 0.2515,1.1288 0.1681,0.3179 1.4864,0.9318 1.828,0.9867l-0.3072 -0.9375z"/>
   <path id="_621138368" class="fil3" d="M28.9404 36.5709c0.7762,0.2746 1.5745,0.3024 2.1657,-0.1486 0.5122,-0.3907 0.9966,-0.7886 1.2925,-1.3386 -0.1764,-0.0792 -0.9842,-0.3093 -1.2339,-0.3818 0.0245,0.4411 -1.2234,1.0089 -1.5262,1.1737 0.1456,0.0514 0.1045,0.0242 0.1827,0.1598 -0.1801,0.0738 -0.771,0.3989 -0.8808,0.5355z"/>
   <path id="_621138464" class="fil3" d="M14.912 21.0326c0.0148,-0.0191 0.0485,-0.0618 0.0571,-0.0445l0.1122 -0.0891c0.0847,1.5532 0.8971,1.6747 0.4913,1.9691 0.3741,0.4124 0.939,0.4187 1.4571,0.5012l-0.3105 -0.5754 0.8345 0.6035 0.2761 -0.6649c-1.745,-1.0809 -0.7606,-0.6086 -1.4573,-1.2712 -0.0054,0.0498 -0.1989,0.7783 -0.276,0.8984l-0.833 -1.9214c-0.2736,0.2019 -0.2578,0.2764 -0.3515,0.5943z"/>
   <path id="_621138824" class="fil3" d="M16.3744 20.326c0.2562,0.8066 0.9898,1.622 1.8732,1.69 0.1921,-0.1421 0.5272,-0.5881 0.6143,-0.7169 -0.3885,-0.1538 -0.5448,-0.2729 -0.8067,-0.5214 -0.2662,-0.2527 -0.422,-0.3008 -0.6142,-0.7511 -0.141,-0.3192 -0.5121,-0.6039 -0.9705,-0.816 0.0061,0.2211 0.0345,0.3921 0.059,0.6099 0.0041,0.0364 0.0154,0.2483 0.0082,0.2758 -0.072,0.2763 0.1555,0.1026 -0.1633,0.2297z"/>
   <path id="_621138416" class="fil3" d="M27.1678 25.7975c-0.6431,0.0632 -5.0075,-1.047 -5.8629,-1.3299 0.2299,0.4673 0.7065,0.5094 1.3026,0.7061l4.5487 1.4924 0.0116 -0.8686z"/>
   <path id="_621138704" class="fil3" d="M20.2602 39.1272l-0.0004 0.1111c-0.3879,-0.0181 -0.105,-0.1363 -0.6241,0.1471 0.1881,0.0714 0.0546,0.0637 0.3228,0.0384 0.1189,-0.096 -0.1456,-0.0812 0.3012,-0.1192 0.3786,-0.0322 1.0598,0.6259 1.3531,0.8128 0.4366,0.2782 1.3994,0.5005 1.8709,0.101l-0.8883 -1.0408 0.1843 -0.0452c-0.0634,-0.0808 -0.0181,-0.1363 -0.3618,-0.1399 -0.141,-0.0015 -0.2957,0.018 -0.4613,0.013l0.065 0.1272c0.1528,0.3172 0.0812,-0.06 0.0423,0.1155 -0.8262,0.0088 -1.0821,0.0745 -1.8037,-0.121z"/>
   <path id="_621170696" class="fil3" d="M8.4856 31.0595c0.1423,0.1456 0.1388,0.161 0.1737,0.4341 0.0641,0.5021 0.1689,0.6431 0.2026,0.8633 0.0078,0.0512 0.0161,0.2071 0.0229,0.2344 0.0681,0.2738 0.0036,0.1147 0.1176,0.2716l0.1369 -2.0813c0.1263,-0.1024 -0.0553,-0.0651 0.1485,-0.0029l-0.5829 -1.9747 -0.1883 0.233c-0.2461,0.4206 -0.4261,1.6013 -0.5153,2.077l0.3378 -0.2846 0.1465 0.2301z"/>
   <path id="_621170432" class="fil3" d="M20.2997 33.6106c0.1517,0.2495 0.7527,0.353 1.0669,0.4405 0.4355,0.1212 0.7842,0.2343 1.2505,0.2328 0.2299,-0.0535 0.8101,-0.5049 0.9857,-0.7462 -0.5232,0.0622 -2.2508,-0.2048 -2.5337,-0.475 -0.2157,0.0931 -0.6229,0.3876 -0.7694,0.5479z"/>
   <path id="_621170216" class="fil3" d="M24.8514 38.5074c0.1158,0.2917 0.3501,0.32 0.7021,0.4447 1.3983,0.4954 0.9965,0.3205 2.362,-0.1788 -0.3536,-0.2265 -1.2807,-0.4343 -1.1296,-1.0547l-0.5784 0.1406c0.1302,0.1218 0.3007,0.1545 0.476,0.2082 -0.1959,0.1901 -1.6342,0.4794 -1.8321,0.44z"/>
   <path id="_621169856" class="fil3" d="M18.2313 39.4262c0.0993,0.1909 0.1013,0.1844 0.2679,0.3355 0.2015,0.1827 0.6355,0.5658 0.8549,0.6702 0.5168,0.2459 1.183,0.2128 1.8174,0.1896 -0.3308,-0.3671 -0.4204,-0.3826 -0.532,-0.5052 -0.2344,-0.2574 -0.1449,-0.5911 -0.4487,-0.6562 0.0422,0.108 0.0673,0.1569 0.0738,0.276l-0.5732 -0.0819c-0.1243,-0.0288 -1.0597,-0.5867 -1.4601,-0.228z"/>
   <path id="_621169712" class="fil3" d="M30.807 34.5048c0.5503,0.0172 1.6466,0.1147 2.0454,-0.1532 0.3368,-0.2263 0.7213,-0.8166 0.8998,-1.2402l-0.9238 -0.1672 0.0511 0.1884c-0.2961,0.2293 -0.4854,0.4858 -0.9215,0.7476 -0.2124,0.1275 -0.3381,0.1875 -0.5704,0.2594 -0.1697,0.0526 -0.2875,0.0692 -0.4264,0.1913 -0.1853,0.1629 -0.0484,0.0294 -0.1542,0.1739z"/>
   <path id="_621170312" class="fil3" d="M26.9825 37.7208c0.1158,0.1899 0.0805,0.2113 0.3522,0.294 1.0723,0.3265 2.0209,0.16 2.779,-0.7107l-0.8978 -0.3117c-0.1515,0.1492 -0.9202,0.3288 -1.1554,0.4189 -1.2083,0.4629 -0.7278,0.5394 -1.078,0.3095z"/>
   <path id="_621169664" class="fil3" d="M22.8133 39.1501c0.0831,0.1139 -0.0291,0.0209 0.1518,0.1728 0.1221,0.1027 -0.0096,0.0087 0.1298,0.0828 0.9431,0.5011 1.4282,0.6906 2.505,0.2664l-0.6304 -0.4852c-0.2308,-0.2274 -0.201,-0.4018 -0.5975,-0.4693 -0.1054,0.1026 -0.0457,0.0883 -0.3334,0.1585 -0.8714,0.2127 -0.8054,-0.0069 -1.2253,0.274z"/>
   <path id="_621169880" class="fil3" d="M23.5028 34.4495c-0.0583,0.1432 -0.2046,0.1381 0.3836,0.2705 0.802,0.1806 1.2754,0.142 2.0909,0.0747 0.2167,-0.1371 0.4553,-0.4489 0.6041,-0.7218 -0.3547,0.1503 -2.2843,0.1055 -2.5151,-0.1077 -0.2281,0.0995 -0.1884,0.0836 -0.3759,0.2554 -0.1362,0.1249 -0.1422,0.0854 -0.1876,0.2289z"/>
   <path id="_621169904" class="fil3" d="M18.1266 32.0205c-0.0684,0.1625 -0.2134,0.1825 0.3001,0.4017 0.1801,0.0769 0.3388,0.1425 0.5509,0.2111 0.4486,0.1451 0.7896,0.2616 1.2908,0.2071 0.3063,-0.0365 0.6826,-0.2777 0.8224,-0.4769 -0.4377,0.0984 -0.9329,-0.0926 -1.2923,-0.2057 -0.2078,-0.0654 -0.4168,-0.1179 -0.5915,-0.1789 -0.1454,-0.0509 -0.4303,-0.1272 -0.3412,-0.287l-0.7392 0.3286z"/>
   <path id="_621168992" class="fil3" d="M10.7181 36.1299c-0.0182,-0.2547 0.0208,-0.3663 -0.0327,-0.6277 -0.0524,-0.2557 -0.1235,-0.2349 -0.1104,-0.5196l-0.0748 -0.54c-0.3715,-0.4692 -0.2958,-0.8633 -0.7986,-1.2321 0.1286,0.7732 -0.2105,1.0665 0.1715,1.8545 0.1751,0.361 0.5065,0.8834 0.845,1.0649z"/>
   <path id="_621169616" class="fil3" d="M37.4892 30.8049c0.0544,-0.2047 -0.1512,-0.1045 0.145,-0.1832 0.147,-0.039 0.0917,0.002 0.16,0.101 0.0721,-0.0805 0.146,0.1235 0.0213,-0.1423 -0.1076,-0.4094 -1.5826,-1.1098 -2.265,-1.2635l0.0651 0.7519c0.2379,0.1258 0.6576,0.2043 0.9345,0.308 0.3811,0.1428 0.5991,0.283 0.9391,0.4281z"/>
   <path id="_621168920" class="fil3" d="M18.7112 31.1995c-0.4492,-0.0166 -0.7652,-0.1048 -1.1053,-0.2576 -0.2856,-0.1284 -0.5512,-0.4046 -0.846,-0.5041 0.0042,-0.0057 0.07,-0.1414 0.082,-0.1614l-0.7586 0.1516c0.1623,0.3117 0.7066,0.7275 1.0935,0.9342 0.2266,0.121 0.4797,0.2056 0.7792,0.1784 0.1368,-0.0123 0.2504,-0.0448 0.3875,-0.1042l0.3677 -0.2369z"/>
   <path id="_621169112" class="fil3" d="M19.5601 11.6101c-0.0965,0.0934 0.1245,0.1629 -0.2257,-0.0134 -0.2336,-0.1177 -0.99,-0.9116 -1.306,-1.1788 0.1315,0.3777 0.5519,0.9703 0.7864,1.2665l0.8989 1.1562 0.486 -0.1694c-0.0475,-0.2662 -0.421,-0.8428 -0.6396,-1.0611z"/>
   <path id="_621169400" class="fil3" d="M15.6379 38.6546c0.1092,0.1937 0.2307,0.2853 0.3498,0.498 0.1166,0.2085 0.1817,0.3744 0.2726,0.5587 0.205,0.4154 0.4914,0.5056 1.0788,0.5919 -0.146,-0.2535 -0.1853,-0.2054 -0.2681,-0.4677 -0.076,-0.1623 -0.4427,-0.6735 -0.574,-0.848 -0.1935,-0.2573 -0.5355,-0.4835 -0.7286,-0.6463 -0.1391,0.1454 -0.0383,0.0714 -0.0786,0.2175 -0.0357,0.1295 0.109,0.008 -0.0519,0.0959z"/>
   <path id="_621169160" class="fil3" d="M30.2524 30.7131c-0.2517,0.1014 -0.2803,0.0801 -0.5605,0.0896 -0.2274,0.0077 -0.3925,0.0734 -0.447,-0.0806 -0.2797,0.1806 -0.5506,0.6501 -0.6953,0.987l1.3718 -0.0681 0.331 -0.9279z"/>
   <path id="_621168368" class="fil3" d="M33.286 40.0578c0.3102,0.3379 0.1689,0.6186 0.9166,0.6673 0.4834,0.0315 1.0015,0.0176 1.4493,-0.1041 -0.6485,-0.5419 -0.4722,-0.4844 -0.9569,-0.4749 -0.4732,0.0092 -0.9237,-0.0648 -1.409,-0.0883z"/>
   <path id="_621168824" class="fil3" d="M40.5904 26.2447l0.2288 0.1356 -0.9883 0.8083 0.5328 0.0777 -0.0715 0.1518c0.4963,-0.0686 0.6039,-0.1249 0.8235,-0.4132 0.1624,-0.2131 0.3711,-0.5362 0.4375,-0.809l-0.9628 0.0488z"/>
   <path id="_621168704" class="fil3" d="M31.3883 40.3273c0.2803,0.1545 1.2525,0.3214 1.6443,0.319 -0.5163,-1.0966 -0.6219,-0.5763 -1.6793,-0.9938l0.035 0.6748z"/>
   <path id="_621168176" class="fil3" d="M15.4476 24.632c0.2232,0.2699 1.3624,0.2636 1.7843,0.2663l0.0689 -0.2479c-0.7591,-0.0148 -1.5924,-0.6474 -1.6894,-1.0922 -0.0657,-0.3018 -0.1361,-0.1052 0.0659,-0.2241 -0.075,-0.1424 0.05,-0.0857 -0.2004,-0.1595 -0.1339,0.6099 0.156,0.9869 0.3166,1.5219l-0.3459 -0.0645z"/>
   <path id="_621168776" class="fil3" d="M35.6984 40.0103c0.6689,0.4238 1.751,0.3736 2.2986,-0.1388 -0.3183,-0.153 -0.7731,-0.2219 -1.1329,-0.1288 -0.2654,0.0687 -1,0.1997 -1.1657,0.2676z"/>
   <path id="_621168656" class="fil3" d="M16.9635 18.0384l0.2861 0.6434c0.0963,-0.6551 -0.058,-0.9432 0.1953,-1.6753 0.0785,-0.2268 0.3369,-0.7488 0.4907,-0.9653 0.1665,-0.2346 0.0998,-0.0872 0.2023,-0.3326 -0.6659,0.3706 -0.9094,1.26 -1.0323,1.996 -0.0002,0.0012 -0.0376,0.1708 -0.0383,0.1725 -0.0623,0.1684 -0.0088,0.0508 -0.1038,0.1613z"/>
   <path id="_621167576" class="fil3" d="M39.1331 27.7983c0.1566,0.3241 0.3437,0.4227 0.6943,0.7718l0.6542 -0.7186 -0.6615 -0.0707 -0.0367 0.2484 -0.207 -0.0644c-0.2767,-0.0659 -0.1415,0.0288 -0.4433,-0.1665z"/>
   <path id="_621167432" class="fil3" d="M37.9227 39.3466c0.4076,0.0993 0.6656,0.1788 0.9885,-0.0435 0.2362,-0.1624 0.4556,-0.3316 0.623,-0.5298 -1.5568,0.3608 -0.7372,0.2701 -1.6115,0.5733z"/>
   <path id="_621168008" class="fil3" d="M41.5847 6.5311l0.2549 0.269c0.1836,-0.1248 0.2745,-0.2836 0.4363,-0.4972 0.2416,-0.3191 0.1862,-0.3593 -0.0022,-0.5591 -0.0651,0.2767 -0.3653,0.7647 -0.689,0.7873z"/>
   <path id="_621168080" class="fil3" d="M35.3219 31.8929c0.2683,-0.12 0.565,-0.2893 0.7294,-0.4868l-0.5216 -0.1612 -0.2078 0.648z"/>
   <path id="_621167672" class="fil4" d="M24.5106 29.8799c0.1531,1.2405 -0.269,1.2522 -1.1702,1.8038 0.4969,0.3162 1.9713,0.2678 2.6452,0.036 0.7249,-0.2494 0.5103,-0.4063 0.6344,-0.18 0.3705,-0.15 0.1453,-0.0458 0.4511,-0.4715 0.6939,-0.9658 2.0168,-2.2886 2.9984,-2.894 1.368,-0.8436 3.1598,-1.1384 4.7837,-0.7421 0.5937,0.1448 0.7194,0.1489 0.3923,0.1986 0.1125,0.1055 0.8743,0.4061 1.1517,0.5478 0.4619,0.2358 0.6477,0.3677 1.0146,0.6475 0.3215,0.2453 0.5489,0.479 0.8074,0.8579 0.0958,0.1404 0.2028,0.3561 0.2798,0.5458 0.1313,0.3233 0.2231,0.5468 0.0298,0.7261 0.0406,0.3067 -0.0076,0.0392 0.1113,0.3105 -0.3358,-0.2342 -0.471,-0.4999 -0.8246,-0.6859 0.1247,0.2658 0.0508,0.0618 -0.0213,0.1423 -0.0683,-0.099 -0.013,-0.14 -0.16,-0.101 -0.2962,0.0787 -0.0906,-0.0215 -0.145,0.1832 0.4248,0.426 0.7022,0.4963 1.0872,1.1581 0.2935,0.5045 0.5235,1.2979 0.3745,1.9794l0.3907 -1.466c1.0633,1.4423 -0.4945,6.5696 -7.0716,5.1837 -0.1022,-0.0216 -0.2473,-0.0496 -0.3405,-0.081 -0.4188,-0.1413 -0.2823,-0.0009 -0.2209,-0.2006l-0.4034 0.3386c0.5512,0.2812 2.0669,0.5542 2.8315,0.5879 0.9437,0.0415 2.1374,-0.1476 2.9172,-0.5134 0.8035,-0.3769 1.5531,-0.8743 1.9904,-1.4095 1.1485,-1.4059 0.6891,-1.6304 1.1787,-2.3008l-0.111 0.8633c0.3061,-0.4595 0.2979,-0.8688 0.3197,-1.4728 0.0707,-1.953 -0.9575,-3.5883 -2.3368,-4.8434 -1.0228,-0.9307 -1.9009,-1.5984 -3.4399,-1.9648 -1.9316,-0.4599 -4.2206,0.2003 -5.5331,1.3211 -0.6347,0.542 -2.1255,2.3808 -2.8794,2.536l-1.5727 0.0318c-0.0543,-0.2187 -0.0595,-0.4754 -0.1592,-0.6726z"/>
   <path id="_621167936" class="fil4" d="M27.4126 16.78c0.0183,-0.8165 0.9212,-1.2126 1.5693,-0.747 -1.0607,0.2947 -0.8653,0.1425 -1.3978,0.6335 -0.1031,0.0951 -0.0286,0.0545 -0.1715,0.1135zm-2.4154 -0.8036c0.3671,-0.0007 -0.3452,0.3999 -0.4965,0.4397 -1.1149,0.2937 -1.793,-0.6726 -2.0086,1.5453l-0.1897 -0.2382c-0.0676,0.4416 -0.0305,0.2635 -0.1412,0.3859 0.4026,1.128 1.3196,1.2524 2.5091,1.6047 0.9479,0.2809 2.491,1.0951 2.9503,-0.034 -0.6519,0.2351 -1.7863,-0.2442 -2.3412,-0.4385 -0.4396,-0.1539 -1.6569,-0.5268 -1.9177,-0.8296 -0.1293,-0.0799 -0.4331,-0.1102 -0.5263,-0.8833l0.1686 -0.0671c0.2175,-0.0089 -0.1628,-0.1502 0.0645,0.0297l0.128 0.1351c-0.0813,-1.0949 0.8059,-0.7207 2.8226,-0.6916l3.7174 0.0691 0.1937 -0.801c-0.1074,-0.0906 -0.0938,-0.1092 -0.1717,-0.256 -0.7747,-1.4598 -2.1624,-0.2345 -3.3118,-0.4435 -0.6511,-0.1184 -0.8041,-0.4102 -1.0084,-0.5896 0.0867,0.7027 -0.2365,0.6492 -0.4411,1.0629z"/>
   <path id="_621167600" class="fil4" d="M29.5168 34.7202l-0.3726 0.094 0.0345 -0.1472 -2.0222 1.3521c-3.6619,2.1759 -9.9361,2.5486 -13.1821,-0.4064 -1.6695,-1.5198 -1.9049,-1.6545 -3.2667,-3.6049 0.4697,0.1767 0.2553,0.2719 0.7527,0.5621l0.9079 0.4585c-0.133,-0.3355 -0.1076,-0.2507 -0.3999,-0.4806 -0.2174,-0.171 -1.1374,-1.16 -1.2842,-1.35 -0.5927,-0.7673 -1.0097,-1.9541 -1.2861,-2.2008 0.2835,2.1778 2.1331,5.1756 3.7958,6.4911 0.3789,0.2997 0.6586,0.6039 1.1047,0.9087 2.8778,1.9664 6.5644,2.2815 9.8982,1.2476 1.4733,-0.457 2.9705,-1.1291 4.1827,-2.0012 0.2184,-0.1571 0.3995,-0.2694 0.6111,-0.4321 0.1905,-0.1466 0.4037,-0.2771 0.5262,-0.4909z"/>
   <path id="_621166880" class="fil4" d="M39.1899 22.376c-0.2752,-0.3503 -0.9248,-0.2616 -1.4435,-0.26 0.5524,-0.4223 3.1513,-0.3272 2.9141,2.0737 -0.1384,1.4016 -1.8173,3.0279 -2.2791,2.9503 0.1205,0.2107 0.5637,0.6092 0.7517,0.6583 0.3018,0.1953 0.1666,0.1006 0.4433,0.1665l0.207 0.0644 0.0367 -0.2484c-0.2568,-0.0262 -0.417,-0.0493 -0.5142,-0.2244l0.9863 -0.1383 0.0715 -0.1518 -0.5328 -0.0777 0.9883 -0.8083 -0.2288 -0.1356c0.5121,-0.4005 1.2387,-0.5881 1.4139,-1.6107 0.0262,-0.1528 0.071,-0.5479 0.0038,-0.6874 -0.1045,-0.2171 0.0428,-0.0416 -0.1681,-0.1732 0.1853,0.5444 -0.3936,1.418 -0.7386,1.5054l-0.2673 -3.0648c-0.2713,-0.2891 -0.765,-0.6034 -1.2521,-0.7642 -0.6048,-0.1996 -1.1164,-0.1922 -1.7669,-0.2046l-0.0293 -0.1588c-0.177,0.1462 -0.1105,0.1172 -0.2136,0.3668 -0.1331,0.3224 -0.4017,0.7167 -0.6106,1.1258 0.8678,-0.1815 1.2059,-0.4413 2.2283,-0.203z"/>
   <path id="_621166640" class="fil4" d="M30.6678 38.2078c-0.2025,0.1183 -0.413,0.2385 -0.6003,0.4147l2.0276 0.6522c2.1798,0.6117 4.8797,0.2217 6.7284,-0.8242 2.2792,-1.2894 2.9892,-4.2171 1.9927,-6.649 -0.1575,-0.3845 -0.2319,-0.7035 -0.467,-0.8879 0.1405,0.7468 0.4368,1.1217 0.5253,2.0171 0.4711,4.7643 -4.0579,6.8586 -8.5005,5.9138 -0.3752,-0.0798 -0.6263,-0.1617 -0.9752,-0.2647 -0.5545,-0.1638 -0.8773,-0.1537 -0.731,-0.372z"/>
   <path id="_621166616" class="fil4" d="M2.0449 29.3165c0.0843,-0.0787 0.0333,-0.0106 0.1049,-0.1291l0.4186 -1.0387c0.7031,-1.6649 2.2016,-3.7028 3.4899,-4.8382 0.4103,-0.3615 0.4965,-0.3329 0.7714,-0.8931 0.2107,-0.4295 0.4946,-0.7267 0.6395,-1.0847 -0.7112,0.0442 -1.7246,0.9741 -2.1334,1.324 -1.1307,0.9678 -2.2781,2.4048 -2.8295,3.8992 -0.168,0.455 -0.7073,2.3598 -0.4614,2.7606z"/>
   <path id="_621167048" class="fil4" d="M24.8657 28.0625c-0.1481,-0.0389 -0.2267,-0.0841 -0.165,-0.2642 0.112,-0.0669 0.2651,0.0011 0.3896,0.0339 0.4394,0.1161 0.8662,0.1682 1.0672,0.4514l-1.2918 -0.2211zm1.8496 -0.6309c-0.0971,0.1046 -0.0021,0.0776 -0.2397,0.0773 -1.0923,-0.0016 -2.9385,-1.0344 -3.8242,-1.3379l0.2234 -0.0008 -0.8735 -0.3351 0.017 1.8046c0.8352,0.3258 1.7554,0.6949 2.6999,0.9862 1.1611,0.3581 1.2413,0.0163 2.3351,-1.0913l-0.338 -0.103z"/>
   <path id="_621167000" class="fil4" d="M7.4306 28.1903c0.0196,0.0535 -0.6406,1.0153 -0.7752,1.2637 -0.2669,0.493 -0.463,0.9167 -0.6267,1.531 -0.2737,1.0272 -0.3708,1.8919 -0.1507,2.9523 0.1205,0.5805 0.3082,0.6849 0.0738,0.7833 0.2096,0.6356 0.9743,1.9802 1.3388,2.2469 -0.4406,-1.8189 -0.8775,-3.0664 -0.5401,-5.0366 0.5604,-3.272 1.2564,-3.6289 1.4203,-4.3234 -0.4141,0.228 -0.5385,0.2385 -0.7402,0.5828z"/>
   <path id="_621167216" class="fil4" d="M16.3927 12.385c-0.3315,0.0311 -1.7327,-0.7374 -2.1337,-0.9271 -2.3471,-1.1108 -3.7524,-0.9839 -5.87,-3.0792 -0.2265,-0.2241 0.0398,-0.1096 -0.2901,-0.1696 0.2753,0.6152 1.2917,1.7129 1.7639,2.0914 2.3665,1.8965 4.2481,1.6107 5.494,2.1372l2.5152 1.3242c-0.2649,-0.3933 -1.0858,-1.1377 -1.4793,-1.3769z"/>
   <path id="_621166112" class="fil4" d="M18.4042 19.3492l0.6257 0.426c-0.2757,-0.6115 -0.634,-1.2018 -0.0851,-2.1041 0.5319,-0.8745 1.5385,-0.8679 1.6518,-0.5313 0.0956,0.2841 0.0492,0.1551 -0.1087,0.3107l0.3228 0.0094 -0.6202 0.8431 -0.2678 -0.215c-0.0104,-0.033 -0.0345,-0.0337 -0.0538,-0.048l-0.4314 0.3846 -0.0074 -0.2306 -0.0439 0.1166c-0.0045,0.0227 -0.0967,0.3661 0.1954,0.7984 0.141,0.2087 0.4056,0.4588 0.6872,0.5685l1.933 -0.2062c-0.2059,-0.2261 -0.2959,-0.2446 -0.693,-0.6992l-0.4857 0.659c-0.6658,-0.3006 -0.3008,-1.1104 -0.0459,-1.5306 0.2395,-0.3948 0.4696,-1.1348 0.2948,-1.523 -0.1303,-0.2894 0.0084,-0.0506 -0.1416,-0.175 -0.0792,0.2152 -0.2728,0.0638 -0.5891,0.0393 -1.0221,-0.079 -1.9689,0.7951 -2.1152,1.7911 -0.1264,0.8607 0.1546,0.8658 0.0475,1.2116 -0.1038,0.335 0.3751,-0.1074 -0.0694,0.1047z"/>
   <path id="_621166520" class="fil4" d="M5.1691 17.8216c0.4061,-0.0647 0.7857,-0.2119 1.2302,-0.2605 0.4568,-0.0499 1.0091,-0.0051 1.4016,-0.1308 0.889,-0.2849 2.208,-1.2732 4.2742,-1.8439l2.415 -0.6218 -1.9129 -0.2536c0.0571,0.1217 0.0961,0.1235 0.3988,0.1705l-5.3423 1.3916 1.1709 -0.1318 -0.2371 0.2423 -1.7259 0.6415c-0.7759,0.3455 -0.0136,-0.2926 -0.8668,0.2355 -0.2836,0.1755 -0.627,0.31 -0.8057,0.561z"/>
   <path id="_621165992" class="fil4" d="M17.7976 7.5386c0.198,0.9342 0.9167,1.8936 1.5355,2.5206 0.9453,0.9579 1.0221,1.2704 1.6929,2.4371l0.4953 -0.0738c0.1245,-0.2513 -0.389,-1.0312 -0.6374,-1.6907 -0.1076,-0.2859 -0.2034,-0.6024 -0.3198,-0.869 -0.12,-0.2746 -0.292,-0.559 -0.5518,-0.7346 -0.1021,0.2997 0.2751,0.5874 0.3189,0.9677 -0.7572,-0.8691 -1.5539,-1.6926 -2.0836,-2.7343l-0.2342 0.2672 -0.2158 -0.0902z"/>
   <path id="_621166064" class="fil4" d="M11.0564 23.8914l0.1418 0.0384c-0.4659,0.259 -0.8418,1.1579 -0.9653,1.8153l0.1545 2.4691c-0.1609,0.1618 0.0685,0.0681 -0.2134,0.05l0.6404 0.7928c-0.1686,-3.1282 -0.0431,-2.7874 1.1449,-5.8011 -0.2821,0.0433 -0.7871,0.368 -0.9029,0.6355z"/>
   <path id="_621166352" class="fil4" d="M15.0238 9.9547c0.634,0.5994 1.2421,1.1352 1.899,1.6835 0.9438,0.7878 0.9674,0.8232 1.9942,1.5694 -0.1486,-0.3834 -0.6838,-1.0114 -0.95,-1.3664 -0.1757,-0.2343 -0.3216,-0.425 -0.4937,-0.6852 -0.1604,-0.2425 -0.2824,-0.5387 -0.5131,-0.69 0.0874,0.2467 0.0346,0.0447 -0.0405,0.1303 -0.1589,-0.2589 -1.2849,-1.0617 -1.6345,-1.2581 -0.1818,0.1431 -0.1386,-0.2014 -0.1539,0.1945l0.2123 0.1742 -0.3198 0.2478z"/>
   <path id="_621166016" class="fil4" d="M8.342 24.1548c0.0195,0.0687 -0.1788,0.1869 -0.291,0.3129 -0.8546,0.9594 -1.5757,2.4219 -1.9253,3.7131 0.2042,-0.1257 0.284,-0.2811 0.4071,-0.4404l1.231 -1.3368c0.1143,-0.1161 0.2825,-0.2737 0.4258,-0.4046 0.2346,-0.2141 0.2112,-0.1699 0.2554,-0.5824l0.3325 -1.45c-0.2552,0.0519 -0.2872,0.0301 -0.4355,0.1882z"/>
   <path id="_621165224" class="fil4" d="M19.4275 14.8092c0.662,-0.1306 1.211,-0.1489 1.7681,0.1892 0.5111,0.3102 0.7143,0.7477 0.9727,1.2486l0.5824 -0.3839c-0.5042,-0.7381 -0.5236,-0.8065 -0.9188,-1.5849l1.2729 -0.0707c0.1317,0.1413 0.056,-0.0294 0.0726,0.2281 0.902,-0.6611 0.7768,-0.424 1.8599,-0.1192 -0.1764,-0.3956 -0.8988,-0.514 -1.3095,-0.4918 -0.5898,0.0319 -0.9831,0.2621 -1.454,0.3287 -1.0373,0.1466 -0.9943,-0.3225 -2.7361,0.5901l-0.1102 0.0658z"/>
   <path id="_621165584" class="fil4" d="M10.8009 19.5621c0.3118,0.2561 -0.296,0.7346 -0.4694,0.8759 -0.3834,0.3125 -0.5521,0.4304 -0.8581,0.7371 -0.3788,0.3798 -1.251,1.2944 -1.4265,1.8014 0.3343,-0.17 2.1203,-1.1999 2.278,-1.3667 0.0812,-0.0858 0.4354,-0.9801 0.5766,-1.2287l0.7755 -1.1361c-0.2846,0.0228 -0.6811,0.1149 -0.8761,0.3171z"/>
   <path id="_621165656" class="fil4" d="M8.4336 13.426c0.2111,0.1217 0.5561,0.1604 0.798,0.2075 1.1066,0.2152 1.7181,0.1258 2.8721,0.1102 -0.1542,-0.2342 -0.5706,-0.5075 -0.84,-0.5962 -0.0525,0.2495 -0.1283,-0.0638 -0.9111,-0.2114 -1.7257,-0.3255 -1.6978,-0.2832 -3.5263,-0.4437 0.5498,0.1237 0.5923,0.2579 1.5985,0.3871 0.5493,0.0705 1.4215,0.0334 1.8849,0.3468 -0.0587,0.0395 -0.0481,0.0454 -0.1594,0.0803l-1.7167 0.1194z"/>
   <path id="_621165032" class="fil4" d="M17.071 39.8355c0.0828,0.2623 0.1221,0.2142 0.2681,0.4677l1.1028 0.2173 -0.6107 -1.1971 0.4001 0.1028c0.4004,-0.3587 1.3358,0.1992 1.4601,0.228l0.5732 0.0819c-0.0065,-0.1191 -0.0316,-0.168 -0.0738,-0.276l-0.2323 -0.0363c-0.2682,0.0253 -0.1347,0.033 -0.3228,-0.0384 0.5191,-0.2834 0.2362,-0.1652 0.6241,-0.1471l0.0004 -0.1111c-0.1099,0.0455 -0.2475,0.0666 -0.4144,0.0415 -0.1277,-0.0192 -0.0263,0.0181 -0.1679,-0.0492 -0.1224,-0.0581 -0.0409,-0.0285 -0.1115,-0.1046 -0.0897,0.1735 -0.0773,0.1435 -0.0698,0.2796 -0.4798,-0.0817 -1.6883,-0.2745 -2.1426,-0.4861l-0.1758 -0.1203c-0.0073,-0.0244 -0.0272,-0.0263 -0.0408,-0.0395l-0.0664 1.1869z"/>
   <path id="_621165344" class="fil4" d="M5.5978 21.0108c0.3386,-0.1276 0.6126,-0.297 0.9909,-0.4315 0.8417,-0.2993 1.8916,-0.3501 2.1884,-0.6556 0.1489,-0.1533 0.5832,-0.6416 0.6694,-0.8332 -0.4309,0.0319 -1.713,0.5645 -2.1503,0.7431 -0.546,0.2231 -1.4382,0.7753 -1.6984,1.1772z"/>
   <path id="_621165728" class="fil4" d="M16.9281 14.1639c-0.1251,0.145 0.1768,0.1108 -0.167,0.1231 -0.2811,-0.3327 -3.3124,-1.0875 -3.9293,-1.2264 0.2071,0.2916 1.5414,0.9431 1.9001,1.0455l2.5566 0.3871c-0.115,-0.1909 -0.1336,-0.1787 -0.3604,-0.3293z"/>
   <path id="_621165608" class="fil4" d="M16.7286 29.7856c-0.4923,-0.1643 -0.5367,-0.1841 -0.8516,-0.52 -0.1736,-0.1851 -0.5134,-0.6001 -0.6174,-0.6433l1.2796 -0.0673c1.1752,1.4023 0.7631,0.6865 1.2718,1.051l0.7794 -0.009 -0.5998 -0.219c-0.4346,-0.1909 -1.1788,-0.557 -1.3865,-0.9108l-1.8074 0.041c0.0799,0.3694 0.3697,0.7716 0.614,1.0156 0.3349,0.3342 0.9298,0.5271 1.3179,0.2618z"/>
   <path id="_621164840" class="fil4" d="M17.5533 28.0684c-0.1676,-0.1061 -0.3555,-0.1172 -0.5479,-0.2038 -0.3082,-0.1385 -0.9037,-0.6638 -1.1779,-0.8894l0.5908 1.0507c-0.6263,0.0243 -0.9334,-0.0418 -1.2913,-0.37 -0.1431,-0.1312 -0.4101,-0.4957 -0.486,-0.7059 -0.114,-0.3155 -0.0783,-0.1242 0.0075,-0.2428 -0.1311,-0.09 -0.2359,-0.0879 -0.4497,-0.1275 0.2433,1.9419 0.3029,1.4229 3.3545,1.4887z"/>
   <path id="_621164456" class="fil4" d="M27.8922 25.6535l-0.2752 0.0628 0.0238 1.0821c0.2496,-0.0771 1.4347,-0.9095 2.2442,-1.2417 0.2457,-0.1009 0.2566,-0.0934 0.3758,-0.222 -0.5073,-0.0108 -2.1093,0.5249 -2.4847,0.481l0.0563 -0.1207c0.0101,-0.0304 0.0388,-0.0294 0.0598,-0.0415z"/>
   <path id="_621164432" class="fil4" d="M11.5018 18.1143c-0.1589,0.0935 -0.1156,0.0725 -0.2691,0.2393 1.9367,0.066 1.8111,-0.0596 3.3087,-0.9938 -0.2734,-0.0281 -0.5929,-0.029 -0.8735,-0.0407 -0.33,-0.0138 -0.704,-0.0683 -0.8865,0.1096 0.3361,-0.0529 0.709,-0.0924 1.05,0.0183l-2.1035 0.7233c-0.3938,0.0943 -0.1348,0.097 -0.2261,-0.056z"/>
   <path id="_621164552" class="fil4" d="M11.1703 22.243c0.3171,-0.1117 0.4274,-0.3079 0.6719,-0.5036 0.1939,-0.1551 0.4215,-0.3415 0.6095,-0.5009 0.1563,-0.1325 0.6788,-1.4402 0.7228,-1.6281 -0.3806,0.2174 -0.9039,0.8541 -1.1301,1.2177 -0.2486,0.3996 -0.7006,0.981 -0.8741,1.4149z"/>
   <path id="_621164672" class="fil4" d="M4.7601 18.708l0.7605 -0.055c-0.1299,0.2296 -0.1263,0.2933 -0.3322,0.3944 -0.1423,0.0699 -0.2689,0.105 -0.4218,0.1526 -0.2872,0.0892 -0.5047,0.1805 -0.7563,0.2676 -0.2203,0.206 -0.3327,0.2052 -0.6812,0.3192 -0.0002,0.0012 -0.0019,0.0018 -0.0016,0.0032 0.0008,0.0049 0.0069,0.0086 0.0082,0.0097l0.1076 0.0879c-0.4158,0.0574 0.0326,-0.0463 -0.1833,0.1524 0.3424,-0.0666 0.6242,-0.1599 0.9788,-0.2149 0.4805,-0.0745 0.5284,-0.0429 0.8211,-0.3578l1.2663 -1.0393c-0.4643,0.0076 -1.2214,0.0805 -1.5661,0.28z"/>
   <path id="_621164312" class="fil4" d="M13.7515 16.3948c-0.1595,0.0885 -0.1426,0.0104 -0.1861,0.1877 0.4801,-0.1219 1.2224,0.0027 1.7811,-0.0916 0.7081,-0.1194 0.929,-0.249 1.0872,-0.905 -0.4972,0.2175 -0.9235,0.2535 -1.4356,0.4245 -0.318,0.1062 -0.987,0.4687 -1.2466,0.3844z"/>
   <path id="_621164192" class="fil4" d="M32.5419 32.6476c0.9183,-0.0053 1.3759,0.0983 1.5763,-0.4244 0.164,-0.4279 0.3409,-1.0838 0.3834,-1.5957l-0.4155 -0.0576 0.1419 0.1423c-0.1462,0.4627 -0.2895,0.8082 -0.5542,1.2028 -0.3368,0.502 -0.5862,0.4846 -0.9112,0.605 -0.1476,0.0546 -0.137,0.0559 -0.2207,0.1276z"/>
   <path id="_621163640" class="fil4" d="M31.7724 29.1668l0.1131 -0.0505c-0.0029,0.1279 -0.0198,0.2938 0.0073,0.4145 0.0678,0.3019 0.0189,0.0578 0.0636,0.1598 0.0669,0.1527 0.0108,-0.1254 0.0896,0.1997 0.0709,0.2927 -0.055,0.6298 0.0095,0.8725 -0.0533,0.3586 -0.1455,0.721 -0.2768,0.9873 -0.0786,0.1593 -0.1166,0.2873 -0.1901,0.4338 -0.0696,0.139 -0.1715,0.1874 -0.1246,0.3933 0.1055,-0.0751 0.0334,0.0004 0.1645,-0.1422 0.2408,-0.2616 0.7412,-1.3814 0.7606,-1.587l-0.2639 -2.1117c-0.2827,0.075 -0.3128,0.1213 -0.3528,0.4305z"/>
   <path id="_621163544" class="fil4" d="M10.575 34.9826c-0.0131,0.2847 0.058,0.2639 0.1104,0.5196 0.0535,0.2614 0.0145,0.373 0.0327,0.6277 0.0381,0.0673 -0.0687,0.0101 0.0745,0.1039l0.086 -0.925c0.3502,0.0502 0.4612,0.1955 0.6548,0.2821 0.5189,0.2141 0.4069,0.5644 0.7139,0.963 -0.0794,-0.7281 -0.1788,-0.6695 -0.4825,-1.1679 -0.1752,-0.2874 -0.4321,-0.8643 -0.5948,-0.9831l-0.4164 0.727 -0.1061 -0.0819c-0.0109,-0.0088 -0.059,-0.0467 -0.0725,-0.0654z"/>
   <path id="_621164120" class="fil4" d="M9.0141 33.0355l0.0299 0.5369c0.0816,0.0259 -0.0192,0.0859 0.1116,-0.2056 0.0911,-0.2028 0.0641,-0.1547 0.2103,-0.3078 0.4016,0.0184 0.0627,-0.0014 0.3357,0.1515 0.5028,0.3688 0.4271,0.7629 0.7986,1.2321 -0.0215,-0.5466 -0.1879,-0.8328 -0.3777,-1.2185l-0.3291 -1.2622 -0.6889 1.2024c0.0462,-0.2076 -0.006,-0.0504 -0.0904,-0.1288z"/>
   <path id="_621163568" class="fil4" d="M15.1513 26.2896c-0.0881,-0.1389 -0.2095,-0.2017 -0.338,-0.3308 -0.2864,-0.2877 -0.5223,-0.9711 -0.392,-1.3159 -0.1309,-0.1835 -0.1447,-0.1763 -0.4081,-0.2548l0.0641 1.6903 1.074 0.2112z"/>
   <path id="_621164096" class="fil4" d="M26.7859 37.7186l0.1966 0.0022c0.3502,0.2299 -0.1303,0.1534 1.078,-0.3095 0.2352,-0.0901 1.0039,-0.2697 1.1554,-0.4189 -0.0768,-0.0262 -0.2023,-0.0639 -0.2699,-0.1071 -0.0957,-0.0611 -0.0644,-0.0421 -0.1216,-0.1009 -0.1046,-0.1076 -0.0097,-0.0005 -0.1046,-0.1479 -0.4499,0.1046 -0.0723,0.1601 -0.9345,0.5697l-0.9994 0.5124z"/>
   <path id="_621162776" class="fil4" d="M32.4883 22.3034c0.2771,-0.0862 0.5307,-0.8873 0.6175,-1.1974 -0.4799,0.1508 -0.8154,-0.3654 -0.9806,-0.6831 -0.1134,0.3393 0.3606,1.3914 0.3631,1.8805z"/>
   <path id="_621163232" class="fil4" d="M27.1521 31.4047c0.1786,0.0864 0.21,-0.0417 -0.4961,0.5422l0.513 -0.1053c0.4024,-0.1204 0.617,-0.5071 0.8599,-0.9229 0.1857,-0.3178 0.5028,-0.8832 0.6057,-1.1776 -0.2876,0.1975 -0.491,0.5397 -0.7186,0.8589 -0.3372,0.473 -0.367,0.3069 -0.7639,0.8047z"/>
   <path id="_621163424" class="fil4" d="M32.173 24.8947c0.9301,-0.0243 1.5143,0.0554 2.3887,0.0856l0.0329 -0.7612c-0.0121,0.0118 -0.0264,0.0175 -0.0315,0.0395 -0.0405,0.1773 -0.7734,0.274 -1.1089,0.3644 -0.3535,0.0952 -1.0116,0.1274 -1.2812,0.2717z"/>
   <path id="_621163448" class="fil4" d="M20.088 36.1939c0.6161,0.1473 1.7433,-0.0004 2.3194,-0.1591 -0.2693,-0.1459 -0.8767,-0.335 -1.1561,-0.2402 -0.2677,0.0909 -1.0397,0.3062 -1.1633,0.3993z"/>
   <path id="_621162824" class="fil4" d="M34.0203 30.3127l0.4266 -0.0622c0.1963,-0.4 0.0589,-1.2659 -0.1247,-1.6711l-0.249 -0.0617c0.1344,0.6613 0.1122,1.1316 -0.0529,1.795z"/>
   <path id="_621163472" class="fil4" d="M14.3965 24.1879c-0.1159,-0.831 0.3925,-2.0255 0.4109,-2.7897 -0.4281,0.4057 -0.6166,2.1144 -0.7021,2.6337 0.1674,0.1041 0.1212,0.0847 0.2912,0.156z"/>
   <path id="_621162872" class="fil4" d="M14.8083 38.7562c0.0724,0.2908 0.1309,0.1847 0.2478,0.3517l0.2279 -0.3208c0.1277,-0.1481 0.0827,-0.1143 0.3539,-0.1325 0.1609,-0.0879 0.0162,0.0336 0.0519,-0.0959 0.0403,-0.1461 -0.0605,-0.0721 0.0786,-0.2175 -0.139,-0.2925 -0.0771,-0.0794 -0.227,-0.2861 -0.2396,-0.3302 -0.0619,-0.2659 0.035,-0.3358l-0.0831 -0.0752c-0.1804,-0.1224 -0.1188,-0.0755 -0.2985,-0.1327l0.1295 0.1966c-0.5226,1.2381 -0.1642,1.1055 -0.516,1.0482z"/>
   <path id="_621162128" class="fil4" d="M14.2112 32.9542l0.7761 0.5416 0.0947 -0.5354c0.0068,-0.1371 -0.044,-0.2876 0.0883,-0.2574l-0.0728 -0.2492c-0.1683,0.0335 -0.4709,0.2279 -0.6652,0.3424 -0.0137,0.0081 -0.0317,0.0168 -0.0453,0.0253l-0.1758 0.1327z"/>
   <path id="_621162704" class="fil4" d="M9.158 18.2008c0.3966,-0.0653 0.8152,-0.195 1.1655,-0.3386 0.2258,-0.0926 0.3094,-0.1499 0.5009,-0.2604 0.3124,-0.1802 0.307,-0.0944 0.4689,-0.3228 -0.5687,0.1248 -0.63,0.0917 -1.1424,0.3425 -0.1852,0.0906 -0.2908,0.155 -0.5137,0.2548 -0.2637,0.1181 -0.3295,0.0756 -0.4792,0.3245z"/>
   <path id="_621162032" class="fil4" d="M15.7499 26.3158c0.2719,0.1812 1.2979,0.0588 1.6116,0.0444 0.049,-0.2967 -0.0116,-0.1506 -0.0515,-0.197l-0.0375 0.1083c-2.1825,-0.9588 -0.958,-0.7668 -1.6953,-1.0875l1.1727 1.1464c-0.3568,-0.0449 -0.6384,-0.0941 -1,-0.0146z"/>
   <path id="_621162272" class="fil4" d="M40.2744 8.3122c0.2516,-0.14 0.9461,-0.9818 1.062,-1.3407l-0.1383 -0.1424c-0.0494,0.259 -0.7938,1.0841 -0.9237,1.4831z"/>
   <path id="_621162056" class="fil4" d="M35.5947 24.7246c0.0819,-0.1016 0.0636,0.045 0.0866,-0.2515 0.007,-0.0898 -0.0024,-0.2553 -0.0033,-0.3528 -0.0036,-0.4268 0.0487,-0.2638 -0.1527,-0.6164 -0.1059,0.0999 -0.0881,-0.1842 -0.1155,0.2635 -0.0035,0.0577 0.0179,0.2782 0.0219,0.353 0.0155,0.2914 -0.058,0.5108 0.163,0.6042z"/>
   <path id="_621162512" class="fil4" d="M42.1327 5.0999c0.1605,0.2073 0.2983,0.2447 0.5517,0.3745l0.1468 -0.2277c-0.0723,-0.2358 0.0121,-0.1395 -0.4594,-0.4505l-0.2391 0.3037z"/>
   <path id="_621161240" class="fil4" d="M24.438 33.1217c0.2318,-0.109 0.2811,-0.1452 0.4119,-0.3248 -0.2691,0.0445 -0.3138,0.1166 -0.4119,0.3248z"/>
   <path id="_621161768" class="fil5" d="M31.3533 39.6525c1.0574,0.4175 1.163,-0.1028 1.6793,0.9938 -0.3918,0.0024 -1.364,-0.1645 -1.6443,-0.319l-0.035 -0.6748zm1.9327 0.4053c0.4853,0.0235 0.9358,0.0975 1.409,0.0883 0.4847,-0.0095 0.3084,-0.067 0.9569,0.4749 -0.4478,0.1217 -0.9659,0.1356 -1.4493,0.1041 -0.7477,-0.0487 -0.6064,-0.3294 -0.9166,-0.6673zm2.4124 -0.0475c0.1657,-0.0679 0.9003,-0.1989 1.1657,-0.2676 0.3598,-0.0931 0.8146,-0.0242 1.1329,0.1288 -0.5476,0.5124 -1.6297,0.5626 -2.2986,0.1388zm-6.1206 -0.1392c-0.193,-0.0592 -0.2855,-0.0959 -0.4689,-0.1753 -0.0478,-0.0206 -0.1368,-0.0536 -0.1916,-0.0854l-0.1924 -0.1674 0.7636 -0.3529c0.2024,0.1235 0.2979,0.2332 0.4107,0.4726l0.2771 0.2775 -0.2771 -0.5689 0.957 0.2537c0.0132,0.496 0.0995,0.7462 -0.3945,0.6348 -0.2602,-0.0586 -0.6549,-0.211 -0.8839,-0.2887zm8.3449 -0.5245c0.8743,-0.3032 0.0547,-0.2125 1.6115,-0.5733 -0.1674,0.1982 -0.3868,0.3674 -0.623,0.5298 -0.3229,0.2223 -0.5809,0.1428 -0.9885,0.0435zm2.0436 -1.1495l-0.3495 -0.0655c0.2419,-0.2656 0.5234,-0.5778 0.8201,-0.7262 0.0022,0.2895 -0.319,0.6707 -0.4706,0.7917zm-19.8783 -2.0032c0.1236,-0.0931 0.8956,-0.3084 1.1633,-0.3993 0.2794,-0.0948 0.8868,0.0943 1.1561,0.2402 -0.5761,0.1587 -1.7033,0.3064 -2.3194,0.1591zm13.0882 -0.3077c0.0648,-0.1828 0.5374,-0.6752 0.814,-1.0892 0.3025,-0.4527 0.4658,-0.7638 0.7311,-1.2773 0.2234,-0.4325 0.7892,-0.6026 1.183,-0.8318l1.2169 -0.776c1.9972,1.4916 -0.066,4.4825 -3.945,3.9743zm-6.5948 -1.8133c-0.1488,0.2729 -0.3874,0.5847 -0.6041,0.7218 -0.23,0.3302 -1.353,0.5859 -1.414,0.5793l-1.6576 -0.3677c0.1809,-0.1718 0.3257,-0.3859 0.5971,-0.5568 0.0454,-0.1435 0.0514,-0.104 0.1876,-0.2289 0.1875,-0.1718 0.1478,-0.1559 0.3759,-0.2554 0.1176,-0.2481 0.9114,-0.6354 1.2876,-0.7972 0.9586,-0.412 0.752,-0.3459 1.9241,-0.3382 -0.112,0.3636 -0.4584,0.997 -0.6966,1.2431zm-2.1434 -0.9512c0.0981,-0.2082 0.1428,-0.2803 0.4119,-0.3248 -0.1308,0.1796 -0.1801,0.2158 -0.4119,0.3248zm-0.8352 0.416c-0.1756,0.2413 -0.7558,0.6927 -0.9857,0.7462 -0.5129,0.7621 -1.2839,0.1514 -2.619,-0.5061 0.1555,-0.1052 0.1131,-0.0853 0.3016,-0.1672 0.1465,-0.1603 0.5537,-0.4548 0.7694,-0.5479 0.0876,-0.1787 0.3793,-0.2988 0.6638,-0.3914 1.222,-0.3974 0.2892,-0.3987 2.6495,0.0317 -0.16,0.2806 -0.4914,0.7193 -0.7796,0.8347zm3.5026 0.6553l0.6348 -1.5589c0.3119,-0.0084 1.1305,-0.0752 1.3142,0.021 -0.3155,0.3934 -1.4618,1.38 -1.949,1.5379zm-11.9351 -1.49c-0.1323,-0.0302 -0.0815,0.1203 -0.0883,0.2574 -0.0331,0.6445 0.2145,0.9795 0.401,1.5206 -0.4612,-0.2038 -1.3639,-1.0908 -1.5901,-1.4236l-0.8834 -1.1253c0.4223,-0.0357 0.837,-0.0009 1.2549,-0.0556 0.7067,-0.0925 0.5579,-0.2597 1.0141,0.1382 2.1099,1.8401 2.4635,1.9589 4.9444,3.2078 -0.3103,0.1715 -1.2411,0.376 -1.6736,0.4373 -1.0965,0.1554 -3.1273,-1.2528 -3.379,-2.9568zm20.1516 -0.8101l0.2078 -0.648 0.5216 0.1612c-0.1644,0.1975 -0.4611,0.3668 -0.7294,0.4868zm-14.2311 0.4706c-0.1398,0.1992 -0.5161,0.4404 -0.8224,0.4769 -0.1511,0.1813 -0.4146,0.2951 -0.6368,0.3088 -0.5267,0.0326 -1.4421,-0.6087 -1.9426,-0.9034 0.1507,-0.15 0.2199,-0.1622 0.4376,-0.2253l0.7392 -0.3286 1.8104 -1.1481 1.8961 0.7589c-0.0772,0.1255 -0.0767,0.1451 -0.2853,0.2637 -0.3935,0.2237 -0.7231,0.297 -1.161,0.4362l0.2498 0.2437 -0.285 0.1172zm9.1616 -1.6504l-0.331 0.9279 -1.3718 0.0681c0.1447,-0.3369 0.4156,-0.8064 0.6953,-0.987 0.0497,-0.1912 0.1536,-0.3658 0.313,-0.5047l0.8127 0.0759 -0.1182 0.4198zm3.7679 -0.4004c-0.32,0.1232 -0.4505,0.1677 -0.627,0.3983 0.2916,-0.1206 0.3194,-0.1431 0.6928,-0.1411l0.4155 0.0576c-0.0425,0.5119 -0.2194,1.1678 -0.3834,1.5957 -0.2004,0.5227 -0.658,0.4191 -1.5763,0.4244l-0.321 0.178 0.6075 0.1186 0.9238 0.1672c-0.1785,0.4236 -0.563,1.0139 -0.8998,1.2402 -0.3988,0.2679 -1.4951,0.1704 -2.0454,0.1532l-0.254 0.1268 0.6117 0.0703c0.2497,0.0725 1.0575,0.3026 1.2339,0.3818 -0.2959,0.55 -0.7803,0.9479 -1.2925,1.3386 -0.5912,0.451 -1.3895,0.4232 -2.1657,0.1486 -0.0927,0.0243 -0.1686,0.0457 -0.2206,0.0656 0.0949,0.1474 0,0.0403 0.1046,0.1479 0.0572,0.0588 0.0259,0.0398 0.1216,0.1009 0.0676,0.0432 0.1931,0.0809 0.2699,0.1071l0.8978 0.3117c-0.7581,0.8707 -1.7067,1.0372 -2.779,0.7107 -0.2717,-0.0827 -0.2364,-0.1041 -0.3522,-0.294l-0.1966 -0.0022c-0.1511,0.6204 0.776,0.8282 1.1296,1.0547 -1.3655,0.4993 -0.9637,0.6742 -2.362,0.1788 -0.352,-0.1247 -0.5863,-0.153 -0.7021,-0.4447 -0.3507,0.1303 -0.3398,0.1126 -0.7915,0.1481l0.3121 0.0621c0.3965,0.0675 0.3667,0.2419 0.5975,0.4693l0.6304 0.4852c-1.0768,0.4242 -1.5619,0.2347 -2.505,-0.2664 -0.1394,-0.0741 -0.0077,0.0199 -0.1298,-0.0828 -0.1809,-0.1519 -0.0687,-0.0589 -0.1518,-0.1728l-0.0336 -0.0177 -0.1843 0.0452 0.8883 1.0408c-0.4715,0.3995 -1.4343,0.1772 -1.8709,-0.101 -0.2933,-0.1869 -0.9745,-0.845 -1.3531,-0.8128 -0.4468,0.038 -0.1823,0.0232 -0.3012,0.1192l0.2323 0.0363c0.3038,0.0651 0.2143,0.3988 0.4487,0.6562 0.1116,0.1226 0.2012,0.1381 0.532,0.5052 -0.6344,0.0232 -1.3006,0.0563 -1.8174,-0.1896 -0.2194,-0.1044 -0.6534,-0.4875 -0.8549,-0.6702 -0.1666,-0.1511 -0.1686,-0.1446 -0.2679,-0.3355l-0.4001 -0.1028 0.6107 1.1971 -1.1028 -0.2173c-0.5874,-0.0863 -0.8738,-0.1765 -1.0788,-0.5919 -0.0909,-0.1843 -0.156,-0.3502 -0.2726,-0.5587 -0.1191,-0.2127 -0.2406,-0.3043 -0.3498,-0.498 -0.2712,0.0182 -0.2262,-0.0156 -0.3539,0.1325l0.3072 0.9375c-0.3416,-0.0549 -1.6599,-0.6688 -1.828,-0.9867 -0.1652,-0.3124 -0.122,-0.9514 -0.2515,-1.1288 -0.1022,-0.1399 -0.3167,-0.112 -0.4764,-0.2179l-0.1651 -0.5699 0.1173 1.5166c-0.3484,-0.1498 -0.9115,-0.6871 -1.1933,-0.9637 -0.6339,-0.6223 -0.3532,-0.7096 -0.2608,-1.7833 -0.1936,-0.0866 -0.3046,-0.2319 -0.6548,-0.2821l-0.086 0.925c-0.1432,-0.0938 -0.0364,-0.0366 -0.0745,-0.1039 -0.3385,-0.1815 -0.6699,-0.7039 -0.845,-1.0649 -0.382,-0.788 -0.0429,-1.0813 -0.1715,-1.8545 -0.273,-0.1529 0.0659,-0.1331 -0.3357,-0.1515 -0.1462,0.1531 -0.1192,0.105 -0.2103,0.3078 -0.1308,0.2915 -0.03,0.2315 -0.1116,0.2056l-0.1843 -0.2149c-0.0534,-0.089 -0.088,-0.1974 -0.1211,-0.2868 -0.0682,-0.1838 -0.143,-0.3759 -0.2061,-0.5629 -0.2725,-0.8073 -0.1056,-0.759 -0.0469,-1.4483l-0.1465 -0.2301 -0.3378 0.2846c0.0892,-0.4757 0.2692,-1.6564 0.5153,-2.077l0.1883 -0.233 0.5829 1.9747c0.4881,0.7719 0.634,1.3981 1.6189,2.8345 0.5011,0.7308 0.9281,1.2284 1.5443,1.8548 0.1976,0.201 0.453,0.3517 0.5839,0.5699 0.1982,0.0549 0.1293,0.0443 0.2053,0.1263 0.2214,0.2386 0.6241,0.5028 0.9306,0.705 0.2097,0.1385 0.9085,0.5111 1.024,0.6422 0.1797,0.0572 0.1181,0.0103 0.2985,0.1327l0.0831 0.0752c0.6334,0.1445 1.3621,0.5987 2.7494,0.8232 4.1721,0.6752 8.0278,-0.7231 11.1738,-3.1709 0.3707,-0.2886 0.5897,-0.5306 0.9641,-0.8413 0.7243,-0.6009 1.9192,-2.219 2.3016,-3.2438l0.8943 -2.7912 0.4136 0.0224 0.249 0.0617c0.1836,0.4052 0.321,1.2711 0.1247,1.6711l-0.4266 0.0622zm-21.6013 0.7383c-0.8056,-1.3601 -1.0717,-4.4139 -0.3259,-5.9382 0.2915,1.9554 0.3628,2.8738 1.4778,4.6567 0.1649,0.2636 0.74,0.991 0.7647,1.1757l-1.9166 0.1058zm-6.4672 3.6696c-0.5674,-1.3292 -0.9624,-3.4695 -0.8051,-4.9745l0.2566 -1.6294 0.3522 1.9894 0.7502 -1.0735c0.2364,-0.2911 0.6171,-0.7132 0.9249,-0.8423 0.2017,-0.3443 0.3261,-0.3548 0.7402,-0.5828 -0.1639,0.6945 -0.8599,1.0514 -1.4203,4.3234 -0.3374,1.9702 0.0995,3.2177 0.5401,5.0366 -0.3645,-0.2667 -1.1292,-1.6113 -1.3388,-2.2469zm16.923 -8.5504c0.4285,0.0005 3.1699,1.0433 3.8405,1.2614l0.338 0.103c-1.0938,1.1076 -1.174,1.4494 -2.3351,1.0913 -0.9445,-0.2913 -1.8647,-0.6604 -2.6999,-0.9862l-0.017 -1.8046 0.8735 0.3351zm5.7598 3.5709c-0.1029,0.2944 -0.42,0.8598 -0.6057,1.1776 -0.2429,0.4158 -0.4575,0.8025 -0.8599,0.9229 -0.0693,0.0874 0.1021,0.0659 -0.2094,0.1505 -0.1256,0.0342 -0.2008,0.0179 -0.316,0.0158 -0.1268,-0.1754 -0.0158,-0.1228 -0.2465,-0.1903 -0.247,0.0529 -0.178,0.1103 -0.3751,0.0199l0.598 -0.2978c-0.1241,-0.2263 0.0905,-0.0694 -0.6344,0.18 -0.6739,0.2318 -2.1483,0.2802 -2.6452,-0.036 0.9012,-0.5516 1.3233,-0.5633 1.1702,-1.8038 -0.092,-0.1957 -0.1353,-0.3018 -0.2635,-0.4555l2.4144 -0.2211c0.5177,-0.1999 0.9871,-1.6553 3.5358,-2.8443 2.6391,-1.2312 5.2187,-0.4184 7.2888,1.1436 0.5909,0.4458 1.1924,1.0221 1.6388,1.5523 0.256,0.3042 1.1751,1.4177 1.2243,1.8587 0.2351,0.1844 0.3095,0.5034 0.467,0.8879 0.9965,2.4319 0.2865,5.3596 -1.9927,6.649 -1.8487,1.0459 -4.5486,1.4359 -6.7284,0.8242l-2.0276 -0.6522c0.1873,-0.1762 0.3978,-0.2964 0.6003,-0.4147 0.1577,-0.4638 1.1981,0.2331 2.7165,0.3925 2.9666,0.3113 5.7889,-0.7142 6.7277,-3.6557l0.111 -0.8633c-0.4896,0.6704 -0.0302,0.8949 -1.1787,2.3008 -0.4373,0.5352 -1.1869,1.0326 -1.9904,1.4095 -0.7798,0.3658 -1.9735,0.5549 -2.9172,0.5134 -0.7646,-0.0337 -2.2803,-0.3067 -2.8315,-0.5879l0.4034 -0.3386c0.5607,-1.2299 1.7919,0.2704 4.49,-0.5886 0.8488,-0.2703 1.2764,-0.5318 1.7842,-1.0527 0.2562,-0.2628 1.0458,-1.2602 0.9681,-1.7948 0.149,-0.6815 -0.081,-1.4749 -0.3745,-1.9794 -0.385,-0.6618 -0.6624,-0.7321 -1.0872,-1.1581 -0.34,-0.1451 -0.558,-0.2853 -0.9391,-0.4281 -0.2769,-0.1037 -0.6966,-0.1822 -0.9345,-0.308l-0.0651 -0.7519 -0.0676 -0.5051c1.1329,0.2237 2.8821,1.4063 3.0459,2.144 0.1933,-0.1793 0.1015,-0.4028 -0.0298,-0.7261 -0.077,-0.1897 -0.184,-0.4054 -0.2798,-0.5458 -0.2585,-0.3789 -0.4859,-0.6126 -0.8074,-0.8579 -0.3669,-0.2798 -0.5527,-0.4117 -1.0146,-0.6475 -0.2774,-0.1417 -1.0392,-0.4423 -1.1517,-0.5478 -1.082,-0.0347 -2.0354,-0.5905 -3.9753,0.1404 -1.8729,0.7058 -2.363,1.7869 -2.6356,1.97zm-13.9861 -3.0339c0.4706,-0.0606 0.9633,0.0858 1.446,0.1007 0.5258,0.0163 0.9143,-0.0863 1.3915,-0.1151l1.1238 2.1312c0.4229,0.6403 1.4422,1.2688 1.7075,1.5317l-1.6061 0.8438 -0.3677 0.2369c-0.1371,0.0594 -0.2507,0.0919 -0.3875,0.1042 -0.2995,0.0272 -0.5526,-0.0574 -0.7792,-0.1784 -0.3869,-0.2067 -0.9312,-0.6225 -1.0935,-0.9342l0.7586 -0.1516 1.8739 -0.6391 -0.1254 -0.0403 -0.7794 0.009c-0.3661,0.0547 -0.6658,0.2485 -1.0824,0.1796 -0.3881,0.2653 -0.983,0.0724 -1.3179,-0.2618 -0.2443,-0.244 -0.5341,-0.6462 -0.614,-1.0156l1.8074 -0.041c0.2985,-0.0381 0.9309,-0.1884 1.1323,-0.3224l-0.1831 -0.0764c-3.0516,-0.0658 -3.1112,0.4532 -3.3545,-1.4887 0.2138,0.0396 0.3186,0.0375 0.4497,0.1275zm-0.2272 -2.0643c0.3728,0.0252 0.9057,0.3735 1.2845,0.4917 0.493,0.154 0.966,0.1791 1.5278,0.2055l0.0764 0.8231c0.0399,0.0464 0.1005,-0.0997 0.0515,0.197 -0.3137,0.0144 -1.3397,0.1368 -1.6116,-0.0444 -0.2968,0.0515 -0.3313,0.0033 -0.5986,-0.0262l-1.074 -0.2112 -0.0641 -1.6903c0.2634,0.0785 0.2772,0.0713 0.4081,0.2548zm15.8395 0.6918c-0.1192,0.1286 -0.1301,0.1211 -0.3758,0.222 -0.8095,0.3322 -1.9946,1.1646 -2.2442,1.2417l-0.0238 -1.0821 0.2752 -0.0628c1.2584,-0.4055 6.1278,-1.2798 6.5978,-1.5919l0.1046 0.1575 -0.0329 0.7612c-0.8744,-0.0302 -1.4586,-0.1099 -2.3887,-0.0856 -0.636,0.0431 -1.507,0.4301 -1.9122,0.44zm5.3339 -0.6101c-0.221,-0.0934 -0.1475,-0.3128 -0.163,-0.6042 -0.004,-0.0748 -0.0254,-0.2953 -0.0219,-0.353 0.0274,-0.4477 0.0096,-0.1636 0.1155,-0.2635 0.2014,0.3526 0.1491,0.1896 0.1527,0.6164 0.0009,0.0975 0.0103,0.263 0.0033,0.3528 -0.023,0.2965 -0.0047,0.1499 -0.0866,0.2515zm-8.4269 1.0729l-0.0116 0.8686 -4.5487 -1.4924c-0.5961,-0.1967 -1.0727,-0.2388 -1.3026,-0.7061 -0.1496,-0.0469 -0.1947,-0.1143 -0.246,-0.2423l3.0664 0.7299c0.3361,0.0787 2.8545,0.6067 3.0425,0.8423zm9.1529 -1.859c1.6268,-0.9545 3.7654,-1.1543 2.6686,0.7298 -0.329,0.5652 -0.7927,0.9841 -1.3919,1.3192 -0.4684,0.262 -0.5745,0.1314 -0.9945,-0.0987 -0.2521,-0.1382 -0.6204,-0.2573 -0.8577,-0.4501l0.5165 -0.2985 0.059 -1.2017zm-1.423 -0.8008c0.1969,0.3539 0.1851,0.2671 0.2279,0.6623 0.0277,0.2548 0.0721,0.6216 -0.0167,0.8018 -0.1619,-0.0934 -0.0876,0.075 -0.1235,-0.2666l-0.0877 -1.1975zm-24.7237 5.1265l-0.1656 -0.2364c0.0924,0.5192 0.5284,1.259 0.8181,1.5698 0.2571,0.2758 0.6521,1.8791 1.6195,3.2383 1.6571,2.3282 4.4594,4.1906 7.8832,4.3468 4.5369,0.2072 11.0171,-3.3426 11.4432,-8.0159 0.04,-0.3092 0.0701,-0.3555 0.3528,-0.4305l0.2639 2.1117c-0.0194,0.2056 -0.5198,1.3254 -0.7606,1.587 -0.1311,0.1426 -0.059,0.0671 -0.1645,0.1422 -0.0373,0.163 -0.0326,0.1367 -0.1559,0.2999 -0.3278,0.4338 -1.092,1.2526 -1.5012,1.6253 -0.0297,0.027 -0.1277,0.1149 -0.1451,0.1281 -0.1556,0.1188 -0.044,0.0497 -0.145,0.0897 -0.1225,0.2138 -0.3357,0.3443 -0.5262,0.4909 -0.2116,0.1627 -0.3927,0.275 -0.6111,0.4321 -1.2122,0.8721 -2.7094,1.5442 -4.1827,2.0012 -3.3338,1.0339 -7.0204,0.7188 -9.8982,-1.2476 -0.4461,-0.3048 -0.7258,-0.609 -1.1047,-0.9087 -1.6627,-1.3155 -3.5123,-4.3133 -3.7958,-6.4911 -0.2329,-3.6179 -0.3248,-2.5177 0.7314,-6.13 0.0731,0.8245 0.0783,1.1472 0.2264,1.4383l0.0561 0.0895c0.1572,-0.1788 0.394,-0.4369 0.6444,-0.5034 0.1158,-0.2675 0.6208,-0.5922 0.9029,-0.6355 -1.188,3.0137 -1.3135,2.6729 -1.1449,5.8011l-0.6404 -0.7928zm16.5636 -3.5139c0.3532,0.0996 0.4762,0.1667 0.5962,0.4544 0.0029,0.007 0.0106,0.0271 0.0135,0.0335 0.0033,0.0074 0.0163,0.0304 0.0193,0.0364 0.0049,0.0102 0.0391,0.0603 0.0496,0.0808 -0.1764,0.0415 -0.1741,0.02 -0.2869,0.1483l-0.1521 -0.0887c-0.3777,-0.0664 -1.0037,-0.3241 -1.4581,-0.4514l-4.1651 -1.0356c-0.1879,-0.0768 -0.1985,-0.0981 -0.2787,-0.1782l2.8761 0.579 -2.5537 -0.833 2.1344 0.3509 -1.5103 -0.5914c-0.2521,-0.085 -0.302,-0.0693 -0.4396,-0.2452 2.083,0.5022 3.2618,0.6708 5.1554,1.7402zm1.2692 0.5668l-0.2077 -0.0711 1.3061 -0.8839c1.0328,-0.5648 4.3358,-1.6586 5.2073,-1.6721l-1.8582 0.7276c0.5386,-0.1401 0.9479,-0.2212 1.4548,-0.4281 0.3207,-0.1309 0.3293,-0.1343 0.4555,-0.0488l-2.5137 0.9506 2.6188 -0.6036 -3.2372 0.9672 3.2823 -0.6203 -0.7525 0.3194c-0.3509,0.119 -3.5815,0.8097 -4.4885,1.0578 -0.5241,0.1434 -1.1199,0.4172 -1.651,0.4922l0.384 -0.1869zm9.779 -4.2307c0.0584,-0.0589 0.0115,-0.0406 0.1742,-0.0781l0.6188 -0.0342c0.2861,0.0037 0.5655,0.0324 0.8374,0.0841 0.4705,0.0895 0.8725,0.2438 1.2492,0.4894 0.41,0.2672 1.7598,1.659 1.0055,2.1564l0.1691 0.0694c0.2109,0.1316 0.0636,-0.0439 0.1681,0.1732 0.0672,0.1395 0.0224,0.5346 -0.0038,0.6874 -0.1752,1.0226 -0.9018,1.2102 -1.4139,1.6107l0.9628 -0.0488c-0.0664,0.2728 -0.2751,0.5959 -0.4375,0.809 -0.2196,0.2883 -0.3272,0.3446 -0.8235,0.4132l-0.9863 0.1383c0.0972,0.1751 0.2574,0.1982 0.5142,0.2244l0.6615 0.0707 -0.6542 0.7186c-0.3506,-0.3491 -0.5377,-0.4477 -0.6943,-0.7718 -0.188,-0.0491 -0.6312,-0.4476 -0.7517,-0.6583 -0.2113,-0.0687 -0.2523,-0.076 -0.3822,-0.3459l1.9464 -1.9307c0.4691,-0.6606 0.5008,-2.3426 -0.7557,-2.4874 -1.0224,-0.2383 -1.3605,0.0215 -2.2283,0.203 0.2089,-0.4091 0.4775,-0.8034 0.6106,-1.1258 0.1031,-0.2496 0.0366,-0.2206 0.2136,-0.3668zm-21.4133 0.3749c0.6967,0.6626 -0.2877,0.1903 1.4573,1.2712l-0.2761 0.6649 -0.8345 -0.6035 0.3105 0.5754c-0.5181,-0.0825 -1.083,-0.0888 -1.4571,-0.5012 -0.2383,-0.1604 -0.475,-0.3831 -0.638,-0.6677 -0.0124,0.4051 0.3622,0.8235 0.5423,0.9742 0.2504,0.0738 0.1254,0.0171 0.2004,0.1595 0.3394,0.4076 1.0248,0.5405 1.4824,0.6951l0.1644 0.0656c0.0099,-0.0163 0.0376,0.0154 0.0552,0.0255l-0.0785 0.5301 -0.0689 0.2479c-0.4219,-0.0027 -1.5611,0.0036 -1.7843,-0.2663 -0.3481,-0.0155 -0.8657,-0.1791 -1.0511,-0.4441 -0.17,-0.0713 -0.1238,-0.0519 -0.2912,-0.156 0.0855,-0.5193 0.274,-2.228 0.7021,-2.6337l0.1046 -0.3656c0.0937,-0.3179 0.0779,-0.3924 0.3515,-0.5943 -0.0217,-0.2205 0.3181,-0.7008 0.456,-0.9276 0.1127,-0.1853 0.3731,-0.5947 0.5245,-0.7497 0.0098,-0.0102 0.0381,-0.0124 0.0456,-0.0399 0.0076,-0.028 0.0309,-0.0272 0.0475,-0.0395l0.1334 0.529c0.4584,0.2121 0.8295,0.4968 0.9705,0.816 0.3487,0.1495 0.5342,0.3169 0.9599,0.4752 0.5187,0.1929 0.6484,0.1381 0.9989,0.2546l-0.3671 0.4012c-0.0119,0.0102 -0.0293,0.0254 -0.0402,0.0347 -0.0113,0.0097 -0.0329,0.0273 -0.0423,0.0352l-0.0883 0.0716c-0.0871,0.1288 -0.4222,0.5748 -0.6143,0.7169 -0.8834,-0.068 -1.617,-0.8834 -1.8732,-1.69l-0.2264 -1.002c-0.0566,0.4153 -0.077,0.8335 -0.0282,1.2422 0.0471,0.3943 0.1743,0.5855 0.2527,0.8951zm-8.3256 1.5152c-0.4436,0.401 -0.9809,1.0909 -1.1573,1.9466 0.2677,-0.2128 0.9279,-0.7479 1.4524,-0.7683 0.1483,-0.1581 0.1803,-0.1363 0.4355,-0.1882l-0.3325 1.45c-0.0442,0.4125 -0.0208,0.3683 -0.2554,0.5824 -0.1433,0.1309 -0.3115,0.2885 -0.4258,0.4046l-1.231 1.3368c-0.1231,0.1593 -0.2029,0.3147 -0.4071,0.4404l1.3608 -5.1771c0.4789,-0.8405 0.8753,-1.3408 1.3979,-2.0028 0.2699,-0.3419 1.3249,-1.4008 1.9165,-1.4388 0.195,-0.2022 0.5915,-0.2943 0.8761,-0.3171l-0.7755 1.1361c-0.1412,0.2486 -0.4954,1.1429 -0.5766,1.2287 -0.1577,0.1668 -1.9437,1.1967 -2.278,1.3667zm5.1276 -3.3661c-0.044,0.1879 -0.5665,1.4956 -0.7228,1.6281 -0.188,0.1594 -0.4156,0.3458 -0.6095,0.5009 -0.2445,0.1957 -0.3548,0.3919 -0.6719,0.5036 -0.075,0.2062 -0.0573,0.1287 -0.2269,0.22 0.1599,-1.4079 1.6165,-3.341 2.6885,-3.5226l-0.4574 0.67zm-9.9145 0.4296c-0.0905,0.0561 -1.1629,0.4863 -1.2948,0.5293 0.3801,-0.4701 1.1386,-1.3812 1.6411,-1.589 0.1323,-0.1948 0.8496,-0.2766 1.1538,-0.2723 0.3447,-0.1995 1.1018,-0.2724 1.5661,-0.28l-1.2663 1.0393c-0.2927,0.3149 -0.3406,0.2833 -0.8211,0.3578 -0.3546,0.055 -0.6364,0.1483 -0.9788,0.2149zm10.103 4.4191c0.088,0.5215 -0.0048,1.5175 0.0688,2.1893 0.0803,0.7327 0.2628,1.1796 0.359,1.7648l-0.6017 -6.4376c0.408,-1.7757 1.7758,-4.2267 2.8647,-4.7568l0.0042 0.4371c0.051,0.5014 -0.0741,0.5063 -0.3177,0.8339 -1.0788,1.4509 -1.8653,3.1455 -2.1771,4.9734 -0.0309,0.1808 -0.0569,0.3698 -0.0794,0.538 -0.0371,0.2769 -0.0232,0.3221 -0.1208,0.4579zm-1.8612 -6.3448c0.3726,-0.1735 0.8523,-0.6481 1.2796,-0.6856 0.1825,-0.1779 0.5565,-0.1234 0.8865,-0.1096 0.2806,0.0117 0.6001,0.0126 0.8735,0.0407 -1.4976,0.9342 -1.372,1.0598 -3.3087,0.9938 0.1535,-0.1668 0.1102,-0.1458 0.2691,-0.2393zm6.9024 1.2349c-0.6227,-0.9839 -0.5166,-2.0788 0.2028,-2.9182 0.2546,-0.2971 0.6669,-0.6223 1.1973,-0.734 0.5748,-0.1211 1.2062,0.0919 1.3261,0.5055 0.15,0.1244 0.0113,-0.1144 0.1416,0.175 0.1748,0.3882 -0.0553,1.1282 -0.2948,1.523 -0.2549,0.4202 -0.6199,1.23 0.0459,1.5306l0.4857 -0.659c0.3971,0.4546 0.4871,0.4731 0.693,0.6992l-1.933 0.2062c-0.2816,-0.1097 -0.5462,-0.3598 -0.6872,-0.5685 -0.2921,-0.4323 -0.1999,-0.7757 -0.1954,-0.7984l0.0439 -0.1166c0.0884,-0.4478 0.5063,-0.6903 1.0578,-0.7435 0.1579,-0.1556 0.2043,-0.0266 0.1087,-0.3107 -0.1133,-0.3366 -1.1199,-0.3432 -1.6518,0.5313 -0.5489,0.9023 -0.1906,1.4926 0.0851,2.1041l-0.6257 -0.426zm-7.1109 -2.0702c-0.1619,0.2284 -0.1565,0.1426 -0.4689,0.3228 -0.1915,0.1105 -0.2751,0.1678 -0.5009,0.2604 -0.3503,0.1436 -0.7689,0.2733 -1.1655,0.3386 -0.3484,0.1744 -0.7074,0.3472 -0.8732,0.6083l1.0469 0.0817 0.2552 0.0948 -0.1404 0.1049c-0.0862,0.1916 -0.5205,0.6799 -0.6694,0.8332 -0.2968,0.3055 -1.3467,0.3563 -2.1884,0.6556 -0.3783,0.1345 -0.6523,0.3039 -0.9909,0.4315 -0.282,0.2359 -0.5802,0.4297 -0.7351,0.7668l2.7598 -0.6469 -0.1533 0.202c-0.1449,0.358 -0.4288,0.6552 -0.6395,1.0847 -0.2749,0.5602 -0.3611,0.5316 -0.7714,0.8931 -1.2883,1.1354 -2.7868,3.1733 -3.4899,4.8382l-0.4186 1.0387c-0.0716,0.1185 -0.0206,0.0504 -0.1049,0.1291 0.0093,0.2209 -0.0432,0.4414 -0.1352,0.5963l0.7004 -5.4698c0.6759,-1.6377 1.6302,-2.8741 2.612,-3.8426 0.6098,-0.6014 1.9039,-1.6943 2.7002,-2.1577 1.2088,-0.7034 4.1867,-2.4016 5.5176,-2.4239l-2.1466 1.2602zm5.1404 -1.6931c-0.1582,0.656 -0.3791,0.7856 -1.0872,0.905 -0.5587,0.0943 -1.301,-0.0303 -1.7811,0.0916 0.0435,-0.1773 0.0266,-0.0992 0.1861,-0.1877 0.9295,-0.5228 1.4828,-0.996 2.8385,-1.0525 -0.0586,0.1536 0.0238,0.1163 -0.1563,0.2436zm-11.2646 2.2357l-0.7254 0.2846c1.4061,-1.258 1.6083,-1.573 3.3603,-2.4876 0.63,-0.3288 1.3904,-0.6181 2.1511,-0.7638 0.415,-0.0795 0.849,-0.1331 1.2814,-0.1474 0.3007,-0.0099 1.1596,0.0614 1.3407,0.0036l1.9129 0.2536 -2.415 0.6218c-2.0662,0.5707 -3.3852,1.559 -4.2742,1.8439 -0.3925,0.1257 -0.9448,0.0809 -1.4016,0.1308 -0.4445,0.0486 -0.8241,0.1958 -1.2302,0.2605zm14.2584 -3.0124c-0.61,0.3464 -0.904,0.4243 -1.2896,0.8994 -0.1025,0.2454 -0.0358,0.098 -0.2023,0.3326 -0.1538,0.2165 -0.4122,0.7385 -0.4907,0.9653 -0.2533,0.7321 -0.099,1.0202 -0.1953,1.6753l-0.2861 -0.6434c-0.0895,-0.9441 -0.1736,-1.3337 0.2714,-2.2147 0.3409,-0.6749 0.7003,-1.0756 1.2224,-1.4857 0.9818,-0.7711 2.6083,-1.2318 4.2316,-1.2039 2.677,0.0459 2.6794,1.2518 3.8286,1.6098 0.9589,0.2987 1.4108,-0.3453 2.3111,-0.1519 0.7167,0.1539 1.0466,0.7947 1.1016,1.6106l-0.1937 0.801 -3.7174 -0.0691c-2.0167,-0.0291 -2.9039,-0.4033 -2.8226,0.6916l0.281 0.4688c0.2543,0.1165 0.5975,0.34 0.94,0.4781 0.9434,0.3804 2.2619,0.9271 3.2788,0.8988l-0.0757 0.208c-0.4593,1.1291 -2.0024,0.3149 -2.9503,0.034 -1.1895,-0.3523 -2.1065,-0.4767 -2.5091,-1.6047l0.0071 -1.8621c-0.2584,-0.5009 -0.4616,-0.9384 -0.9727,-1.2486 -0.5571,-0.3381 -1.1061,-0.3198 -1.7681,-0.1892zm-13.4269 0.87c-0.0533,-0.4317 0.3515,-1.4572 0.5897,-1.7537l1.5076 0.4867c-0.345,0.1938 -1.9477,1.0563 -2.0973,1.267zm10.9275 -1.5153c0.2268,0.1506 0.2454,0.1384 0.3604,0.3293l-2.5566 -0.3871c-0.3587,-0.1024 -1.693,-0.7539 -1.9001,-1.0455 -0.2298,-0.0469 -0.37,-0.2117 -0.6547,-0.3056 0.3333,-0.0953 0.3117,-0.0402 0.7028,0.011 1.9689,0.2579 2.2705,0.2881 4.0482,1.3979zm5.226 -3.0478c0.0963,0.481 0.2752,0.7989 0.3675,1.1985 -0.2384,-0.2643 -0.9126,-1.7259 -1.0252,-2.2134 0.7429,0.2958 0.4985,0.2203 0.6577,1.0149zm-2.594 0.494c0.2186,0.2183 0.5921,0.7949 0.6396,1.0611l-0.486 0.1694 -0.8989 -1.1562c-0.2345,-0.2962 -0.6549,-0.8888 -0.7864,-1.2665 -0.1826,-0.2585 -0.5748,-0.9821 -0.6732,-1.3579 0.5613,0.6503 1.9616,2.0293 2.2049,2.5501zm20.7432 -1.7608c-0.1027,0.4176 -1.0902,1.2355 -1.3649,1.7695 0.4514,-0.1329 0.7196,-0.4958 1.3317,-0.6524 -0.0702,0.2045 -0.148,0.4367 -0.2982,0.5256 -0.0742,0.2445 -0.0248,0.1915 -0.1808,0.323 -0.0676,1.0645 -2.5579,2.985 -2.6718,3.4029 0.5412,-0.2434 1.6837,-0.7781 2.2175,-0.8904 -0.1193,0.2167 -0.2681,0.6204 -0.529,0.6772 0.0837,0.1237 0.0151,0.0113 0.0715,0.2287 -1.6139,2.3263 -3.0431,2.5329 -3.2064,3.1649l2.6559 -0.6444 -0.5898 0.6769c-0.0359,0.3565 -0.0298,0.3114 -0.2512,0.4592 -0.4801,1.17 -2.9297,1.8064 -3.2697,2.6093l2.5518 -0.5883 -0.244 0.4269c-0.1944,0.3982 -0.9111,1.0267 -1.3476,1.1573 -0.1653,-0.1114 -0.4888,-0.2821 -0.5258,-0.4074 -0.0096,-0.0323 -0.0346,-0.0314 -0.0503,-0.0488 -0.147,-0.009 -0.1348,-0.1138 -0.3916,-0.1154 -0.1781,-0.001 -0.2,0.0616 -0.4061,0.1037l0.7599 -1.7237c0.0709,-0.2835 0.3384,-0.9811 0.5694,-1.188 -0.0052,-0.1883 0.7601,-1.8957 0.8863,-2.0192 0.0631,-0.2373 0.1225,-0.3625 0.2173,-0.5913 0.0339,-0.0819 0.0823,-0.2153 0.1246,-0.2899 0.114,-0.2016 0.0361,-0.0924 0.1675,-0.2033 0.0227,-0.2537 0.7839,-1.7849 0.9255,-1.8839 0.1213,-0.3719 0.7114,-1.6568 0.9505,-1.8581 0.017,-0.3108 0.4244,-0.8358 0.5816,-1.1324 0.2004,-0.3786 0.3767,-0.7568 0.6073,-1.105 0.2129,-0.3492 0.7364,-1.137 1.0037,-1.3208l-0.4294 0.8474 0.3274 -0.149c-0.0452,0.2306 -0.1195,0.4671 -0.153,0.3972 -0.0058,-0.0119 -0.0268,0.0278 -0.0398,0.042zm-2.6653 2.1689c-0.1146,-0.7374 0.0848,-1.6009 0.3728,-2.1324 0.4078,-0.7528 0.9018,-0.9891 1.1653,-1.3401l-0.6554 1.8476c-0.2695,0.4664 -0.6912,1.1014 -0.8827,1.6249zm2.6364 -3.706c-0.041,0.0931 -0.5303,0.729 -0.7065,0.8187 0.6212,-1.0709 0.5399,-0.9605 1.2063,-1.896 0.1278,-0.1795 0.23,-0.4823 0.4239,-0.4058l0.1383 0.1424c-0.1159,0.3589 -0.8104,1.2007 -1.062,1.3407zm-23.8817 4.0728c0.3935,0.2392 1.2144,0.9836 1.4793,1.3769l-2.5152 -1.3242c-1.2459,-0.5265 -3.1275,-0.2407 -5.494,-2.1372 -0.4722,-0.3785 -1.4886,-1.4762 -1.7639,-2.0914 -0.2463,-0.3272 -0.4659,-0.8298 -0.6361,-1.1942l2.0516 1.4861c0.6201,0.3991 3.6199,1.6638 4.8374,2.3749 0.4853,0.2834 1.8063,1.2048 2.0409,1.5091zm25.192 -5.8539c-0.1772,-0.0619 -0.2624,-0.1008 -0.393,-0.2436 0.1491,-0.1902 0.4917,-0.6772 0.6479,-0.7802l0.4341 0.2365c0.1884,0.1998 0.2438,0.24 0.0022,0.5591 -0.1618,0.2136 -0.2527,0.3724 -0.4363,0.4972l-0.2549 -0.269zm-21.5724 2.5971c0.2598,0.1756 0.4318,0.46 0.5518,0.7346 0.1164,0.2666 0.2122,0.5831 0.3198,0.869 0.2484,0.6595 0.7619,1.4394 0.6374,1.6907l-0.4953 0.0738c-0.6708,-1.1667 -0.7476,-1.4792 -1.6929,-2.4371 -0.6188,-0.627 -1.3375,-1.5864 -1.5355,-2.5206 -0.3182,-1.0229 -0.4483,-1.5727 -0.3805,-2.8064 0.1821,0.2393 0.1768,0.3506 0.2892,0.6365 0.6533,1.661 2.2065,3.4323 2.306,3.7595zm22.3595 -4.332c0.4715,0.311 0.3871,0.2147 0.4594,0.4505l-0.1468 0.2277c-0.2534,-0.1298 -0.3912,-0.1672 -0.5517,-0.3745l0.2391 -0.3037zm0.2454 -0.3165c0.3633,-0.3152 0.551,-0.5609 0.7804,-0.6417l-0.3477 1.0289 -0.4327 -0.3872zm-25.657 5.9863c0.2307,0.1513 0.3527,0.4475 0.5131,0.69 0.1721,0.2602 0.318,0.4509 0.4937,0.6852 0.2662,0.355 0.8014,0.983 0.95,1.3664 -1.0268,-0.7462 -1.0504,-0.7816 -1.9942,-1.5694 -0.6569,-0.5483 -1.265,-1.0841 -1.899,-1.6835 -0.0773,-0.0807 -0.1327,-0.1319 -0.2199,-0.2158 -0.0548,-0.0528 -0.0935,-0.0874 -0.1436,-0.1484 -0.0924,-0.1125 -0.0128,0.0148 -0.0979,-0.1453 -0.1383,-0.054 -0.205,-0.1349 -0.3315,-0.2488 -1.0964,-0.9877 -2.4594,-2.7652 -2.6548,-4.2258l-0.1054 -2.2967c-0.1493,-0.2623 -0.4356,-0.3783 -0.6779,-0.0973 -0.4674,0.5424 -0.1963,2.4957 -0.0395,3.0886 0.3293,1.2448 0.8962,2.0604 1.5884,3.0451 -0.8144,-0.1193 -2.7644,-1.2266 -3.3543,-1.6272 -1.5877,-1.0779 -1.5611,-1.4869 -1.9121,-1.8354l-0.7186 -0.4461c-0.4457,0.495 0.3024,2.6132 0.5112,3.0818l1.533 2.3493c-1.6749,-0.3924 -2.1082,-0.858 -3.155,-1.4893l-1.0824 -0.5017c-0.7981,1.1754 3.2965,2.9096 4.6026,3.1666l2.1776 0.4798c-0.4976,0.1304 0.3822,-0.0432 -0.1206,0.0313l-0.8603 -0.0441c0.3166,0.5936 1.0886,0.987 1.3009,1.2722 0.2694,0.0887 0.6858,0.362 0.84,0.5962 -1.154,0.0156 -1.7655,0.105 -2.8721,-0.1102 -0.2419,-0.0471 -0.5869,-0.0858 -0.798,-0.2075 -0.8508,-0.0501 -2.3551,-0.8652 -2.9992,-1.2624 -2.1818,-1.3455 -2.1863,-2.5923 -2.7935,-2.5567 -0.9662,0.0565 0.2655,1.6373 0.6098,1.9623l2.5136 1.869c-0.0587,0.3723 -0.3772,0.8481 -0.5277,1.2782 -1.1052,3.1592 0.6978,0.5341 -2.1832,3.3685 -0.6037,0.594 -2.1299,2.1257 -2.5625,2.9202l-0.4908 1.2417c0.4125,0.2688 0.9346,-0.2818 1.7181,-0.6407l1.8258 -0.7479c-0.2712,0.474 -0.9846,1.0793 -1.6228,2.4775 -0.474,1.0386 -0.8148,1.9499 -0.9877,3.2084 -0.1795,1.3068 -0.1845,2.5195 0.061,3.8027 0.3241,1.6941 0.3964,1.5659 1.3732,2.6738 0.4014,-0.3075 -0.1046,-1.7342 0.8352,-3.7499l1.6424 -2.9093c-0.0427,0.4277 -0.3916,1.298 -0.5118,1.8873 -0.7649,3.7502 0.3934,7.6327 3.025,10.2292 0.2189,0.216 1.1705,1.054 1.3529,1.1458l0.8869 0.2683c0.3781,-0.8116 -0.7604,-1.1114 -1.2132,-2.7868l-0.6783 -3.6388c0.2472,0.3188 0.4314,0.8815 0.6295,1.2578 2.5774,4.896 8.056,7.4492 13.6544,6.8693 1.6789,-0.1738 2.9866,-0.5441 4.4915,-1.1186 0.7434,-0.2837 0.6154,-0.4063 1.39,-0.0929 3.7509,1.5174 8.772,2.3108 11.8177,-0.3692 2.349,-2.0669 3.2346,-5.038 2.1107,-8.2845 -0.3299,-0.9528 -0.802,-1.6171 -1.3358,-2.4687 1.5828,-1.475 2.8386,-3.3775 2.4353,-5.7844 -0.212,-1.2652 -0.8827,-2.0396 -1.5864,-2.5756l-3.3877 -0.762c0.1583,-0.4674 0.5037,-0.9159 0.6988,-1.4452l0.4396 -1.6658 -0.6141 0.162c0.3772,-0.4362 0.8155,-0.6516 1.1288,-1.5777l0.5709 -2.2627 -0.5182 0.2243c0.6703,-0.8004 1.06,-1.5086 1.1897,-2.6381 0.0806,-0.7019 -0.1885,-0.2438 0.0607,-0.6694 0.387,-0.6609 0.1182,-1.8121 0.5467,-2.3738 0.5768,-0.7561 0.1512,0.2592 1.0156,-0.8606 0.9679,-1.254 0.2296,-0.7678 0.5775,-1.2239 0.4312,-0.5651 0.5259,-0.1826 0.7433,-1.1385l0.2613 -1.7343c-0.4753,0.1048 -0.8425,0.4372 -1.2123,0.6511 -1.4544,0.8409 -0.69,1.0952 -1.3055,1.4689 -0.3446,0.2093 -0.8312,0.8512 -0.8834,0.9929l-0.0832 0.7514c-0.2662,0.1494 -0.3308,0.3931 -0.5085,0.5985 -0.1192,0.1378 -1.1711,0.5851 -2.0946,1.3734 -0.5792,0.4944 -0.6748,0.5235 -0.6741,1.6106 0.0003,0.5406 0.3005,1.6569 0.164,1.9529 -0.1223,0.2131 -0.1863,0.357 -0.2939,0.5583 -0.0429,0.0803 -0.0996,0.2086 -0.1413,0.2752 -0.1179,0.1887 -0.0395,0.0899 -0.1842,0.1933l-0.5608 1.2238c-0.2285,-0.7765 -0.1362,-1.8468 0.0654,-2.5696 0.134,-0.4804 0.2088,-0.5993 0.4318,-0.9696l0.2506 -1.2068c-0.3306,0.185 -0.7495,0.6459 -1.0174,0.9281 -0.4801,0.5057 -0.5472,0.4148 -0.6104,1.349 -0.04,0.5918 0.0172,1.2847 0.1151,1.8624 0.0496,0.2925 0.4685,1.3707 0.2105,1.5623 -0.115,0.295 -0.2725,0.5728 -0.4064,0.8478 -0.0828,0.1701 -0.1212,0.2631 -0.1943,0.4317 -0.0204,0.0472 -0.0685,0.1558 -0.0892,0.1899 -0.1367,0.2248 -0.0294,0.0729 -0.1364,0.1681 -0.0161,0.2945 -0.2912,0.7713 -0.4311,1.0281 -0.1403,0.4305 -0.5373,1.4231 -0.7864,1.6777 -0.3179,-1.1921 -0.5435,-1.685 -0.5658,-2.9099 -0.0143,-0.7804 0.044,-0.6501 0.078,-1.0072 0.0028,-0.0293 0.0123,-0.0367 0.0215,-0.0537l-0.0135 -1.4559c-0.1763,0.1107 -0.1305,0.0744 -0.2735,0.306 -0.6799,1.1013 -0.8724,1.6242 -0.7172,3.0422 0.2294,2.096 1.288,2.7173 0.9257,3.3012 -0.0868,0.3101 -0.3404,1.1112 -0.6175,1.1974 -0.1794,0.1314 -0.7566,0.2541 -0.966,0.2918l-0.3838 0.1545c-0.1201,-1.3436 0.038,-2.0279 0.3701,-3.2648 0.0246,-0.0919 0.1137,-0.4395 0.1451,-0.4959 0.0373,-0.0671 0.0314,-0.1615 0.2421,-0.072l-0.1891 -1.8199c-0.4423,0.4954 -1.5254,3.1408 -1.5621,4.1348l0.0553 1.8689c-0.2895,-0.0929 -0.1387,0.0665 -0.4339,-0.7863 -0.4265,0.3091 -0.0375,0.8511 -0.8187,1.2658 -0.5803,0.308 -0.8036,0.4772 -1.3323,0.8355 -1.1394,-0.8107 -5.0668,-2.5278 -6.0607,-2.1999 -0.3263,0.1076 -0.2944,0.2732 -0.5892,0.4504 -0.4265,0.2563 -0.7994,0.9991 -0.7599,1.2959 0.0986,0.7419 0.7175,1.1255 0.8248,1.2595 0.2027,0.2533 0.1413,2.5724 0.1477,2.986 0.5225,0.2362 1.1487,0.4408 1.7305,0.6938 0.5585,0.2427 0.5118,0.8621 0.6057,1.651 -0.0457,0.0306 -0.0345,0.0841 -0.283,0.0346 -0.464,-0.0925 -1.9492,-0.7596 -2.3069,-0.9539 -5.2461,-2.8498 -2.2574,-10.8365 3.529,-9.0064 0.8751,0.2768 1.9951,0.8354 3.009,0.4282l1.1619 -2.5298c-0.5102,-0.0423 -0.9453,0.202 -1.7036,0.0532l-1.4449 -0.4865c0.6389,-0.2724 3.376,-0.3471 3.5963,-0.2774l0.8258 0.4481c0.9565,-0.5828 1.681,-3.488 -0.4752,-4.417 -0.7799,-0.3359 -1.2518,-0.1285 -2.0034,0.0289 -1.2998,0.2723 -1.0872,-0.7749 -3.0218,-1.3864 -1.3234,-0.4183 -1.0864,0.2726 -1.6256,-2.9393 -0.8296,-0.5139 -0.4552,1.4935 -3.2288,-2.613 -0.4859,-0.7195 -1.3362,-2.2745 -1.3845,-3.2126l0.0125 -1.4538c-0.3861,-0.0735 -0.5111,0.0841 -0.6709,0.287 -0.794,1.0078 -1.3354,2.3844 -1.2407,3.6637l0.2443 1.7092c-2.0103,-1.6267 -2.5769,-4.1271 -2.6867,-4.2895l-0.6516 0.0024c-0.5776,0.9799 1.5907,4.1104 2.8372,5.0976 0.3902,0.309 0.2922,0.2725 0.5272,0.7932 0.1465,0.3245 0.3871,0.6271 0.4307,0.933z"/>
   <path id="_621161552" class="fil5" d="M19.9034 5.744c0.6865,0.2562 2.9505,-0.2977 5.8294,0.6894 1.9596,0.672 1.8626,0.773 3.3431,1.5146l1.1743 0.4852c0.3133,-0.5702 -0.1297,-0.7699 -0.5507,-1.0379 -0.3519,-0.2241 -0.7595,-0.4912 -1.1702,-0.7018 -1.7766,-0.9107 -3.7847,-1.5879 -5.8412,-1.6982 -0.6221,-0.0334 -1.1157,-0.0353 -1.7375,-0.0042 -0.6562,0.0328 -1.3303,-0.0098 -1.0472,0.7529z"/>
   <path id="_621161408" class="fil5" d="M34.3825 17.5065c-0.0278,-1.0761 -0.2405,-1.7602 0.0045,-2.9159 0.0961,-0.4536 0.2553,-0.799 0.424,-1.178l0.2142 -1.4309c-0.2226,0.1156 -0.7345,0.7701 -0.921,1.004 -0.3446,0.4325 -0.5817,0.6525 -0.5701,1.4216 0.02,1.3232 0.3968,2.0826 0.8484,3.0992z"/>
   <path id="_621161528" class="fil5" d="M24.8588 14.9873c0.0207,0.9648 -0.8137,0.7344 -1.0603,0.5272 -0.4782,-0.4018 -0.1762,-1.1438 0.3991,-0.9004 -0.1442,0.2791 -0.5652,0.8219 0.3251,0.7771l0.2875 -0.3637c0.0076,-0.0289 0.031,-0.0286 0.0486,-0.0402zm-1.6814 -0.5517c-0.2315,0.529 -0.0858,1.0253 0.2772,1.3528 0.5778,0.5215 0.9621,0.2507 1.5426,0.188 0.2046,-0.4137 0.5278,-0.3602 0.4411,-1.0629 -0.1001,-0.2906 -0.223,-0.4305 -0.401,-0.5971 -1.0831,-0.3048 -0.9579,-0.5419 -1.8599,0.1192z"/>
   <path id="_621161504" class="fil5" d="M32.3074 10.6984c-0.1171,0.4539 0.1473,0.6875 0.3436,1.03 0.1217,0.2125 0.4606,0.8957 0.8063,0.465 0.3099,-0.3861 -0.5743,-1.4736 -0.6069,-1.4981 -0.2686,-0.2012 -0.3017,-0.0291 -0.543,0.0031z"/>
   <path id="_621161120" class="fil5" d="M27.4126 16.78c0.1429,-0.059 0.0684,-0.0184 0.1715,-0.1135 0.5325,-0.491 0.3371,-0.3388 1.3978,-0.6335 -0.6481,-0.4656 -1.551,-0.0695 -1.5693,0.747z"/>
  </g>
 </g>
</svg>
