<?xml version="1.0" encoding="UTF-8"?>
<!DOCTYPE svg PUBLIC "-//W3C//DTD SVG 1.1//EN" "http://www.w3.org/Graphics/SVG/1.1/DTD/svg11.dtd">
<!-- Creator: CorelDRAW -->
<svg xmlns="http://www.w3.org/2000/svg" xml:space="preserve" width="44.0266mm" height="44.0266mm" style="shape-rendering:geometricPrecision; text-rendering:geometricPrecision; image-rendering:optimizeQuality; fill-rule:evenodd; clip-rule:evenodd"
viewBox="0 0 44.0266 44.0266"
 xmlns:xlink="http://www.w3.org/1999/xlink">
 <defs>
  <style type="text/css">
   <![CDATA[
    .fil0 {fill:#160202}
    .fil6 {fill:#160903}
    .fil1 {fill:#857C73}
    .fil2 {fill:#8A614B}
    .fil4 {fill:#B38C75}
    .fil5 {fill:#C4AB94}
    .fil3 {fill:#D6C9B7}
    .fil7 {fill:#160202;fill-rule:nonzero}
   ]]>
  </style>
 </defs>
 <g id="Capa_x0020_1">
  <metadata id="CorelCorpID_0Corel-Layer"/>
  <path class="fil0" d="M27.0396 37.7935c1.7013,-0.4559 1.8503,2.2817 0.7115,2.6607 -1.608,0.5351 -2.0975,-2.2893 -0.7115,-2.6607zm2.5705 1.8695c0.7878,-3.1424 -3.9657,-4.0078 -4.5006,-1.0986 -0.5897,3.207 3.7334,4.1583 4.5006,1.0986z"/>
  <path class="fil0" d="M16.8514 37.7845c1.7193,-0.4211 1.8435,2.3151 0.7164,2.6709 -1.6818,0.5308 -2.0191,-2.3518 -0.7164,-2.6709zm2.5592 1.9368c0.7375,-3.2815 -3.927,-4.0174 -4.4773,-1.1603 -0.6435,3.3404 3.837,4.0092 4.4773,1.1603z"/>
  <path class="fil0" d="M4.8037 38.527c0.8526,0.0156 0.3012,-0.9977 1.6968,-0.7134l-0.0002 2.0826c-0.0016,0.6125 0.1034,0.9643 -0.3039,1.2488 -0.2408,0.1682 -0.1769,-0.012 -0.2172,0.2869l2.1507 -0.0356c-0.6347,-0.6997 -0.5623,-0.4661 -0.5517,-1.5001 0.0072,-0.692 -0.021,-1.4132 0.0005,-2.0981l0.9435 0.2103c0.1824,0.2696 0.2011,0.5477 0.5935,0.5154 -0.0051,-0.1617 -0.0159,-1.6386 -0.1033,-1.7665l-0.3875 0.0533c-0.4401,0.1106 -2.123,0.0458 -2.6907,0.047 -0.8277,0.0017 -0.459,-0.1709 -0.9034,-0.1376l-0.2271 1.807z"/>
  <path class="fil0" d="M20.0527 38.609c0.8526,0.0155 0.3013,-0.9977 1.6969,-0.7134l-0.0003 2.0825c-0.0016,0.6126 0.1034,0.9644 -0.3039,1.2489 -0.2408,0.1682 -0.1768,-0.012 -0.2172,0.2869l2.1507 -0.0356c-0.6346,-0.6997 -0.5623,-0.4661 -0.5517,-1.5002 0.0072,-0.6919 -0.021,-1.4131 0.0005,-2.098l0.9436 0.2102c0.1823,0.2697 0.201,0.5478 0.5935,0.5155 -0.0052,-0.1617 -0.0159,-1.6386 -0.1033,-1.7666l-0.3876 0.0534c-0.4401,0.1106 -2.123,0.0458 -2.6907,0.047 -0.8277,0.0017 -0.4589,-0.1709 -0.9033,-0.1377l-0.2272 1.8071z"/>
  <path class="fil0" d="M12.5929 36.9026c-0.4075,-0.0257 -1.7759,-0.1852 -2.0546,0.0203l0.0331 0.0874c0.104,0.1763 0.188,0.1316 0.3099,0.2735 0.138,0.1605 0.1354,0.3637 0.1406,0.5695 0.0111,0.4428 -0.0044,0.8987 -0.005,1.3433 -0.0007,0.4389 0.0151,0.9097 -0.0019,1.3445 -0.0315,0.8058 -0.4287,0.419 -0.4964,0.8973l2.7584 0.0537c0.2616,0.0314 0.4367,0.1635 0.7293,0.1156 0.2709,-0.9035 0.1864,-0.624 0.3443,-1.4163 0.0896,-0.4497 -0.008,-0.3604 -0.0461,-0.3964 -0.7921,0.6838 -0.7977,0.9045 -2.1824,0.7481l-0.0001 -2.0461c-0.0032,-1.9667 0.3214,-0.9859 0.4709,-1.5944z"/>
  <path class="fil0" d="M37.5161 36.9026c-0.4076,-0.0257 -1.776,-0.1852 -2.0547,0.0203l0.0331 0.0874c0.104,0.1763 0.188,0.1316 0.31,0.2735 0.1379,0.1605 0.1353,0.3637 0.1405,0.5695 0.0111,0.4428 -0.0044,0.8987 -0.005,1.3433 -0.0006,0.4389 0.0151,0.9097 -0.0019,1.3445 -0.0315,0.8058 -0.4287,0.419 -0.4964,0.8973l2.7584 0.0537c0.2616,0.0314 0.4367,0.1635 0.7293,0.1156 0.2709,-0.9035 0.1865,-0.624 0.3443,-1.4163 0.0896,-0.4497 -0.008,-0.3604 -0.0461,-0.3964 -0.792,0.6838 -0.7976,0.9045 -2.1823,0.7481l-0.0002 -2.0461c-0.0031,-1.9667 0.3215,-0.9859 0.471,-1.5944z"/>
  <path class="fil0" d="M13.0203 35.7685c0.4394,0.0027 0.9025,0.0605 1.2208,-0.11l-0.7544 -0.3884 -8.9855 0.0027c-0.7028,0.0847 -1.0846,0.4905 -1.1042,1.2584l-0.0022 4.4891c0.0279,1.7944 -0.1068,2.1204 1.223,2.1214l11.9405 0.0015c0.9159,-0.0021 0.5833,0.0562 1.5204,-0.2573 -1.289,-0.2022 -1.0739,-0.2202 -2.3365,-0.22l-10.3082 -0.003c-0.9351,0.042 -1.5272,-0.2779 -1.5162,-1.2345l-0.0012 -3.9061c-0.0715,-1.2221 0.4269,-1.7929 1.4591,-1.7537l7.6446 -0.0001z"/>
  <path class="fil0" d="M40.1819 41.2535c-0.0029,0.6565 0.1822,1.3435 -0.4532,1.4082 -0.4812,0.0489 -10.6623,0.0014 -11.7088,0.0008 -0.9872,-0.0006 -1.4819,-0.1668 -1.4922,0.3296 0.2486,0.2231 0.5045,0.15 0.9092,0.149l9.3735 -0.0005c4.1633,0.013 3.8991,0.3568 3.8963,-2.1203 -0.0008,-0.6607 0.0011,-1.3214 -0.0005,-1.9822 -0.0016,-0.6802 -0.0031,-1.3602 -0.0006,-2.0404 0.0027,-0.7287 0.1201,-1.2907 -0.3847,-1.5877 -0.4327,-0.2545 -3.1331,-0.1408 -3.8603,-0.1414l-6.0569 -0.0016c-0.3543,-0.0016 -0.578,0.0221 -0.5614,0.379l1.7894 0.122c1.4735,0.0515 3.0902,-0.0019 4.654,0.0015 4.488,0.01 3.8901,-0.4567 3.8948,1.6946 0.0013,0.6218 0.0013,1.2437 0.0007,1.8655 -0.0006,0.6413 0.0036,1.2828 0.0007,1.9239z"/>
  <path class="fil0" d="M22.9432 43.3478c0.4449,-1.2476 -1.53,-1.8267 -1.8783,-0.6107 -0.3791,1.3237 1.4553,1.797 1.8783,0.6107z"/>
  <path class="fil0" d="M19.3097 43.473c0.7121,0.031 0.6771,-0.6123 0.3012,-0.7056 -0.4451,-0.1105 -0.6552,0.2991 -0.3012,0.7056z"/>
  <path class="fil0" d="M24.8665 42.9375c-0.3188,-0.2969 -0.7749,-0.2921 -0.6964,0.3646l0.1695 0.1551c0.408,0.0397 0.5718,-0.1017 0.5269,-0.5197z"/>
  <path class="fil1" d="M14.9799 25.8833c0.1901,0.2796 0.9486,1.0249 1.3361,1.1961 -0.1567,-0.4547 -0.3648,-0.7361 -0.337,-1.2776l-0.0795 0.4499 -0.6521 -0.4551 -0.2675 0.0867z"/>
  <path class="fil1" d="M28.4284 31.349c-0.1805,0.0964 -0.1262,-0.1077 -0.1522,0.1012 -0.2436,0.0195 -0.0148,-0.0306 -0.1179,0.158 0.1924,0.0652 0.5241,0.1932 0.7427,0.2425 0.415,0.0936 0.3425,-0.1166 0.3315,-0.5334l-0.8041 -0.2131 0.2328 0.478 -0.2328 -0.2332z"/>
  <path class="fil1" d="M25.9734 19.4622l0.1277 0.0745c0.0948,-0.1078 0.0929,-0.0898 0.2411,-0.1246 -0.0089,-0.0172 -0.0375,-0.0593 -0.0417,-0.0678 -0.0025,-0.0051 -0.0134,-0.0245 -0.0162,-0.0306 -0.0024,-0.0054 -0.0089,-0.0223 -0.0114,-0.0282 -0.1007,-0.2417 -0.2041,-0.2981 -0.5008,-0.3818 -0.1313,0.0535 -1.1953,-0.4565 -1.5367,-0.4669 0.3327,0.1503 1.6728,0.7267 1.8668,0.8706l-1.2653 -0.428c0.2352,0.1847 0.9605,0.5315 1.2079,0.6024l-0.0714 -0.0196z"/>
  <path class="fil1" d="M10.906 26.316l-0.0251 -0.4511 -0.0099 -0.145c-0.0958,-0.1319 -0.0416,0.0018 -0.0988,-0.2282 -0.0057,-0.0229 -0.0127,-0.1539 -0.0193,-0.1969 -0.0282,-0.1851 -0.1163,-0.3035 -0.1702,-0.7254 -0.0292,-0.2295 -0.0263,-0.2424 -0.1459,-0.3647 -0.0493,0.5791 -0.1895,0.5386 0.0394,1.2168 0.053,0.1572 0.1159,0.3185 0.1732,0.473 0.0278,0.075 0.0569,0.1662 0.1017,0.2409l0.1549 0.1806z"/>
  <path class="fil1" d="M36.8867 30.2016c0.1274,-0.1017 0.3973,-0.4219 0.3954,-0.6651 -0.2493,0.1247 -0.4858,0.387 -0.689,0.6101l0.2936 0.055z"/>
  <path class="fil1" d="M26.6639 19.3202l0.1745 0.0598c0.2523,-0.025 0.2862,-0.1123 0.5342,-0.1758 -0.314,-0.0627 -0.2767,-0.0253 -0.3387,-0.1416 -0.2678,0.1122 -0.2324,0.0698 -0.37,0.2576z"/>
  <path class="fil2" d="M25.1332 27.3429c-0.6852,0.0566 -1.0829,0.089 -1.7567,-0.0627 -0.4942,-0.1113 -0.3714,-0.107 -0.3223,-0.2273 -0.2281,0.1436 -0.3497,0.3235 -0.5017,0.4679l1.3927 0.3089c0.0513,0.0056 0.9948,-0.2093 1.188,-0.4868z"/>
  <path class="fil2" d="M22.31 26.9138c-0.3918,0.0013 -0.6848,-0.0938 -1.0507,-0.1956 -0.2639,-0.0735 -0.7689,-0.1605 -0.8964,-0.3701 -0.1584,0.0688 -0.1227,0.0521 -0.2533,0.1405 1.1217,0.5524 1.7695,1.0655 2.2004,0.4252z"/>
  <path class="fil2" d="M19.1549 16.004l0.0742 -0.0601c0.0079,-0.0067 0.0261,-0.0215 0.0355,-0.0296 0.0092,-0.0078 0.0238,-0.0206 0.0338,-0.0292l0.3084 -0.3371c-0.2944,-0.0978 -0.4034,-0.0518 -0.8392,-0.2139 -0.3577,-0.133 -0.5135,-0.2736 -0.8065,-0.3992 0.1615,0.3783 0.2924,0.4188 0.5161,0.631 0.22,0.2089 0.3513,0.3089 0.6777,0.4381z"/>
  <path class="fil2" d="M20.3367 25.701c-0.4211,0.0458 -0.7077,-0.0522 -1.0846,-0.174 -0.1782,-0.0577 -0.3115,-0.1128 -0.4629,-0.1774 -0.4314,-0.1842 -0.3095,-0.201 -0.2521,-0.3375 -0.1829,0.053 -0.2411,0.0632 -0.3677,0.1893 0.4206,0.2476 1.1897,0.7864 1.6322,0.759 0.1867,-0.0115 0.4081,-0.1071 0.5351,-0.2594z"/>
  <path class="fil2" d="M28.1583 31.6082c0.1031,-0.1886 -0.1257,-0.1385 0.1179,-0.158 0.026,-0.2089 -0.0283,-0.0048 0.1522,-0.1012 -0.0948,-0.2011 -0.175,-0.2933 -0.3451,-0.397l-0.6415 0.2964 0.1616 0.1407c0.046,0.0267 0.1208,0.0544 0.161,0.0718 0.1541,0.0666 0.2318,0.0975 0.3939,0.1473z"/>
  <path class="fil2" d="M25.4859 24.8416c0.1938,0.0567 0.1006,0.0125 0.2071,0.1599 0.0969,0.0017 0.16,0.0154 0.2655,-0.0132 0.2617,-0.0712 0.1178,-0.0531 0.176,-0.1265l-0.431 0.0884c0.5933,-0.4905 0.5668,-0.3829 0.4168,-0.4555l-0.591 0.3164c-0.0079,-0.0132 -0.0291,0.0202 -0.0434,0.0305z"/>
  <path class="fil3" d="M14.5347 18.659c0.0821,-0.1141 0.0704,-0.1521 0.1015,-0.3847 0.019,-0.1413 0.0408,-0.3001 0.0668,-0.452 0.2619,-1.5358 0.9228,-2.9596 1.8292,-4.1786 0.2046,-0.2752 0.3097,-0.2794 0.2669,-0.7007 -0.9127,0.5317 -2.5702,4.4497 -2.2644,5.716z"/>
  <path class="fil3" d="M32.8264 14.1695c-0.194,0.1738 -0.4187,0.7599 -0.4783,0.9981l1.0858 -0.7705 1.2304 -0.5758 -1.2875 0.9286c0.0387,0.0232 -0.0604,0.1957 0.3773,-0.0873 0.4991,-0.3229 0.1402,-0.1952 0.9182,-0.5945 0.1365,-0.0701 0.0682,0.0037 0.132,-0.0882 0.186,-0.1241 0.1809,-0.0863 0.2111,-0.3858 -0.4051,0.1474 -0.6473,0.1982 -1.1143,0.3338 -0.3465,0.1006 -0.7355,0.2406 -1.0372,0.399 -0.0504,-0.09 -0.0947,0.1684 -0.0375,-0.1574z"/>
  <path class="fil3" d="M27.823 27.2357l-0.029 0.1236 0.3131 -0.0789c0.0849,-0.0336 -0.0089,0.0244 0.1218,-0.0754 0.0146,-0.0111 0.097,-0.0849 0.1219,-0.1076 0.3439,-0.3132 0.986,-1.0011 1.2613,-1.3656 0.1036,-0.1371 0.0997,-0.115 0.131,-0.252 -0.0394,-0.173 0.0462,-0.2137 0.1048,-0.3304 0.0617,-0.1231 0.0936,-0.2307 0.1596,-0.3645 0.1103,-0.2238 0.1878,-0.5282 0.2326,-0.8295 -0.2739,0.2226 -0.2994,0.8897 -0.9648,1.7281 -0.3872,0.488 -1.4103,1.4711 -1.4523,1.5522z"/>
  <path class="fil3" d="M32.241 13.4049l-0.5534 -0.7497c0.0334,0.4035 0.1102,0.4425 0.1823,0.6837 0.0829,0.2771 0.0695,0.4246 -0.0554,0.6194 -0.1464,-0.1001 -0.0445,0.0199 -0.1656,-0.1949 -0.7891,-1.4 -0.319,-1.5088 -0.4603,-2.2851 -0.0078,0.0142 -0.0158,0.0205 -0.0182,0.0451 -0.0285,0.3 -0.0775,0.1905 -0.0655,0.8462 0.0187,1.0291 0.2083,1.4433 0.4754,2.4449 0.2093,-0.214 0.5428,-1.0479 0.6607,-1.4096z"/>
  <path class="fil3" d="M32.6033 12.5411c0.0898,-0.08 -0.0003,0.0477 0.1145,-0.1413 0.0174,-0.0286 0.0578,-0.1199 0.075,-0.1595 0.0614,-0.1417 0.0936,-0.2198 0.1632,-0.3627 0.1126,-0.2311 0.2448,-0.4645 0.3414,-0.7124l-0.4644 -0.8146c-0.0083,-0.0139 -0.0186,-0.0297 -0.0266,-0.0425l-0.0591 -0.0862c-0.0107,0.017 -0.0228,0.0226 -0.0273,0.0538 -0.0045,0.0304 -0.0198,0.0382 -0.0255,0.053 -0.0685,0.1792 -0.0661,0.2053 -0.0861,0.4069 -0.046,0.4635 -0.0734,1.3965 -0.0051,1.8055z"/>
  <path class="fil3" d="M35.5753 8.4178c-0.2008,0.1691 -0.6967,1.2487 -0.7986,1.5611l0.5778 -0.4822c0.4322,-0.4243 0.8628,-1.2137 1.385,-1.4612 0.1311,-0.1105 0.0896,-0.0659 0.1519,-0.2714 -0.2709,0.0877 -0.517,0.2542 -0.6856,0.3677 -0.2261,0.1521 -0.4019,0.246 -0.6018,0.3823l-0.0287 -0.0963z"/>
  <path class="fil3" d="M25.7533 21.1565c-0.5635,-0.1832 -2.8668,-1.0594 -3.2268,-1.0598l-0.1877 0.0006c0.7442,0.255 2.2953,1.1228 3.2131,1.1242 0.1996,0.0003 0.1198,0.0229 0.2014,-0.065z"/>
  <path class="fil3" d="M15.5425 6.0444c0.0715,0.1346 0.0046,0.0276 0.0823,0.1221 0.0421,0.0513 0.0745,0.0803 0.1206,0.1247 0.0732,0.0705 0.1198,0.1136 0.1847,0.1814l0.2688 -0.2082 -0.1785 -0.1464c0.0129,-0.3327 -0.0233,-0.0432 0.1294,-0.1635 -0.1521,-0.1509 -0.7764,-0.7234 -0.9513,-0.8168 -0.3345,-0.1785 -0.3036,-0.1881 -0.6321,-0.453l0.5543 0.7682c0.1933,0.2642 0.3969,0.2762 0.426,0.4661 0.0004,0.0029 0.0018,0.0172 0.0021,0.0202 0.0161,0.1938 0.0809,-0.0172 -0.0063,0.1052z"/>
  <path class="fil3" d="M6.0463 14.9461c0.1814,-0.1669 -0.1953,-0.0797 0.154,-0.128l-0.0904 -0.0738c-0.0011,-0.001 -0.0063,-0.0041 -0.0069,-0.0082 -0.0002,-0.0012 0.0011,-0.0017 0.0013,-0.0027 0.2928,-0.0958 0.3873,-0.0951 0.5724,-0.2682l-0.3382 0.0957c-0.0918,-0.1057 -0.1433,0.1374 -0.0841,-0.2758 0.0141,-0.0978 0.0213,-0.0895 0.0828,-0.2293 -0.4221,0.1746 -1.0595,0.9401 -1.3788,1.3351 0.1108,-0.0362 1.0118,-0.3976 1.0879,-0.4448z"/>
  <path class="fil3" d="M32.3799 16.6257c0.0131,0.0146 0.0341,0.0139 0.0422,0.041 0.0311,0.1053 0.3029,0.2487 0.4418,0.3423 0.3667,-0.1098 0.9689,-0.6378 1.1322,-0.9724 -0.3516,0.1049 -1.2891,0.5921 -1.6162,0.5891z"/>
  <path class="fil3" d="M33.9992 11.5618c-0.1105,0.0932 -0.045,0.0014 -0.1408,0.1707 -0.0355,0.0627 -0.0762,0.1748 -0.1047,0.2437 -0.0796,0.1922 -0.1296,0.2973 -0.1825,0.4967l0.1724 -0.0847c0.3635,-0.244 1.3941,-1.5847 2.2298,-1.4805 -0.0474,-0.1827 0.0103,-0.0883 -0.06,-0.1922 -0.2629,0.0565 -0.0165,-0.0244 -0.1965,0.0772 -0.0172,0.0097 -0.0878,0.0649 -0.1053,0.0775 -0.3782,0.2741 -0.7421,0.3559 -1.1736,0.5611 -0.4627,0.22 -0.3141,0.0557 -0.443,0.271l0.0042 -0.1405z"/>
  <path class="fil3" d="M29.7921 17.093c0.1759,-0.0317 0.6609,-0.1347 0.8116,-0.2451l-0.226 -0.0142c-0.1247,-0.2305 -0.213,-0.4321 -0.31,-0.6801 -0.0838,-0.2143 -0.129,-0.5559 -0.2838,-0.6773l0.0082 1.6167z"/>
  <path class="fil3" d="M27.8786 23.9212c0.0459,0.1294 0.1846,0.0742 0.3757,0.0677 0.2353,-0.008 0.2594,0.0099 0.4709,-0.0753l0.0992 -0.3527 -0.6828 -0.0638c-0.1339,0.1167 -0.2212,0.2634 -0.263,0.4241z"/>
  <path class="fil3" d="M34.2345 9.334c0.1216,-0.0869 0.0557,-0.0039 0.1548,-0.1624 0.035,-0.056 0.0826,-0.1638 0.1187,-0.2312 0.0903,-0.1692 0.1442,-0.2901 0.2469,-0.4691 -0.2441,0.0174 -0.0742,0.0549 -0.3521,-0.4619 -0.0605,0.1776 -0.302,1.1281 -0.1683,1.3246z"/>
  <path class="fil3" d="M36.5742 6.5379c0.1487,0.0234 0.0698,0.0116 0.1089,0.0011l0.1838 -0.0738 -0.1645 0.3723c0.1477,-0.1762 0.1609,-0.2619 0.3621,-0.4265 0.1022,-0.0836 0.0116,-0.1292 0.1053,-0.027 0.011,-0.012 0.0287,-0.0453 0.0335,-0.0353 0.0282,0.0587 0.0906,-0.14 0.1286,-0.3337l-0.2751 0.1252 0.3607 -0.712c-0.2245,0.1544 -0.6644,0.8163 -0.8433,1.1097z"/>
  <path class="fil3" d="M24.0606 21.4646c-0.0518,0.1513 0.0143,0.1893 0.1387,0.222l1.0853 0.1858c-0.1689,-0.238 -0.5274,-0.2817 -0.8966,-0.3793 -0.1046,-0.0276 -0.2333,-0.0847 -0.3274,-0.0285z"/>
  <path class="fil3" d="M39.114 1.8725l0.3635 0.3253 0.2921 -0.8645c-0.1926,0.0679 -0.3504,0.2744 -0.6556,0.5392z"/>
  <path class="fil3" d="M22.9356 13.5781l-0.1251 -0.2175c0.0141,-0.0086 0.0313,-0.0437 0.0405,-0.0286l0.1819 -0.0201 -0.2361 -0.3939 -0.1075 -0.1135c-0.191,-0.1511 0.1285,-0.0325 -0.0542,-0.0249l-0.1417 0.0563c0.0783,0.6496 0.3336,0.675 0.4422,0.7422z"/>
  <path class="fil3" d="M32.8056 18.779c0.0746,-0.1514 0.0372,-0.4596 0.014,-0.6738 -0.036,-0.332 -0.0261,-0.2591 -0.1915,-0.5564l0.0737 1.0062c0.0302,0.287 -0.0323,0.1455 0.1038,0.224z"/>
  <path class="fil4" d="M16.1488 30.6973l-0.1915 0.2696c-0.0983,-0.1403 -0.1474,-0.0512 -0.2082,-0.2955 -0.2096,-0.5535 -0.8096,-1.0768 -1.181,-1.5239 -0.0534,-0.0643 -0.1715,-0.2112 -0.2017,-0.2723 -0.1796,-0.3628 0.0592,-0.3775 0.0652,-0.3816 -0.0638,-0.0689 -0.006,-0.06 -0.1725,-0.1061 -0.2544,0.5259 -0.1848,0.3947 -0.2469,0.8972 -0.0177,0.1434 -0.0274,0.2203 -0.0957,0.3204l-0.15 -0.1812c-0.0307,-0.0549 -0.0532,-0.1327 -0.0747,-0.2107 -0.0353,-0.1277 -0.0729,-0.2926 -0.0944,-0.3922 -0.258,-0.3349 -0.1639,-0.6292 -0.5999,-0.8091 -0.0776,0.9022 -0.3135,0.9755 0.2192,1.4983 0.2368,0.2324 0.7099,0.6839 1.0026,0.8097l-0.0986 -1.2742 0.1388 0.4789c0.1341,0.0889 0.3144,0.0655 0.4002,0.183 0.1088,0.1491 0.0725,0.6859 0.2113,0.9484 0.1413,0.2671 1.2489,0.7829 1.5359,0.8291l-0.2581 -0.7878z"/>
  <path class="fil4" d="M27.6228 28.8353c0.6522,0.2308 1.3229,0.2541 1.8196,-0.1248 0.4303,-0.3283 0.8374,-0.6626 1.086,-1.1247 -0.1482,-0.0666 -0.8269,-0.2599 -1.0367,-0.3208 0.0206,0.3706 -1.028,0.8476 -1.2824,0.9862 0.1224,0.0431 0.0878,0.0203 0.1536,0.1342 -0.1513,0.062 -0.6478,0.3351 -0.7401,0.4499z"/>
  <path class="fil4" d="M15.8363 15.7801c0.0123,-0.0161 0.0407,-0.0519 0.0479,-0.0374l0.0942 -0.0748c0.0712,1.305 0.7538,1.407 0.4129,1.6544 0.3143,0.3465 0.7889,0.3518 1.2242,0.4211l-0.2609 -0.4834 0.7012 0.507 0.2319 -0.5586c-1.4661,-0.9082 -0.639,-0.5114 -1.2244,-1.0681 -0.0045,0.0418 -0.167,0.6539 -0.2318,0.7548l-0.6999 -1.6143c-0.2299,0.1696 -0.2167,0.2322 -0.2953,0.4993z"/>
  <path class="fil4" d="M17.065 15.1864c0.2152,0.6777 0.8316,1.3628 1.5738,1.42 0.1614,-0.1194 0.4429,-0.4941 0.5161,-0.6024 -0.3264,-0.1292 -0.4577,-0.2292 -0.6777,-0.4381 -0.2237,-0.2122 -0.3546,-0.2527 -0.5161,-0.631 -0.1185,-0.2682 -0.4303,-0.5074 -0.8155,-0.6856 0.0052,0.1857 0.029,0.3294 0.0496,0.5125 0.0035,0.0305 0.0129,0.2085 0.0069,0.2316 -0.0604,0.2322 0.1306,0.0863 -0.1371,0.193z"/>
  <path class="fil4" d="M26.1335 19.7836c-0.5403,0.053 -4.2073,-0.8797 -4.926,-1.1174 0.1932,0.3926 0.5936,0.428 1.0944,0.5933l3.8218 1.2539 0.0098 -0.7298z"/>
  <path class="fil4" d="M20.3297 30.9831l-0.0003 0.0933c-0.3259,-0.0152 -0.0882,-0.1144 -0.5244,0.1237 0.1581,0.06 0.0459,0.0535 0.2712,0.0322 0.1,-0.0807 -0.1222,-0.0682 0.2531,-0.1001 0.3181,-0.0271 0.8905,0.5258 1.1369,0.6829 0.3668,0.2337 1.1758,0.4205 1.5719,0.0848l-0.7463 -0.8745 0.1548 -0.0379c-0.0532,-0.068 -0.0151,-0.1145 -0.304,-0.1176 -0.1185,-0.0012 -0.2484,0.0152 -0.3875,0.011l0.0546 0.1068c0.1283,0.2665 0.0682,-0.0504 0.0355,0.0971 -0.6941,0.0074 -0.9092,0.0625 -1.5155,-0.1017z"/>
  <path class="fil4" d="M10.4368 24.2047c0.1196,0.1223 0.1167,0.1352 0.1459,0.3647 0.0539,0.4219 0.142,0.5403 0.1702,0.7254 0.0066,0.043 0.0136,0.174 0.0193,0.1969 0.0572,0.23 0.003,0.0963 0.0988,0.2282l0.115 -1.7487c0.1061,-0.086 -0.0464,-0.0547 0.1248,-0.0025l-0.4897 -1.6591 -0.1582 0.1958c-0.2068,0.3534 -0.3581,1.3453 -0.433,1.7451l0.2838 -0.2392 0.1231 0.1934z"/>
  <path class="fil4" d="M20.3629 26.3481c0.1275,0.2096 0.6325,0.2966 0.8964,0.3701 0.3659,0.1018 0.6589,0.1969 1.0507,0.1956 0.1932,-0.045 0.6806,-0.4242 0.8282,-0.627 -0.4396,0.0523 -1.8911,-0.172 -2.1288,-0.3991 -0.1812,0.0782 -0.5234,0.3257 -0.6465,0.4604z"/>
  <path class="fil4" d="M24.1872 30.4624c0.0974,0.245 0.2942,0.2689 0.5899,0.3736 1.1749,0.4162 0.8373,0.2692 1.9846,-0.1503 -0.2971,-0.1902 -1.076,-0.3648 -0.9491,-0.8861l-0.4859 0.1182c0.1094,0.1023 0.2526,0.1297 0.3999,0.1749 -0.1646,0.1597 -1.3731,0.4027 -1.5394,0.3697z"/>
  <path class="fil4" d="M18.6251 31.2343c0.0834,0.1604 0.0851,0.1549 0.2251,0.2819 0.1692,0.1535 0.5339,0.4754 0.7183,0.5631 0.4342,0.2066 0.9939,0.1788 1.5269,0.1593 -0.2779,-0.3084 -0.3532,-0.3215 -0.447,-0.4244 -0.1969,-0.2163 -0.1217,-0.4967 -0.377,-0.5514 0.0355,0.0907 0.0566,0.1319 0.062,0.2319l-0.4815 -0.0688c-0.1045,-0.0242 -0.8904,-0.4929 -1.2268,-0.1916z"/>
  <path class="fil4" d="M29.1911 27.0994c0.4624,0.0144 1.3835,0.0964 1.7186,-0.1287 0.2829,-0.1901 0.606,-0.6861 0.756,-1.0421l-0.7762 -0.1404 0.0429 0.1583c-0.2487,0.1926 -0.4078,0.4081 -0.7742,0.6281 -0.1785,0.1071 -0.2841,0.1575 -0.4793,0.218 -0.1425,0.0441 -0.2415,0.0581 -0.3582,0.1606 -0.1557,0.1369 -0.0407,0.0248 -0.1296,0.1462z"/>
  <path class="fil4" d="M25.9778 29.8014c0.0973,0.1596 0.0677,0.1776 0.2959,0.2471 0.9009,0.2743 1.6979,0.1344 2.3349,-0.5971l-0.7543 -0.2619c-0.1273,0.1253 -0.7732,0.2762 -0.9708,0.3519 -1.0152,0.389 -0.6115,0.4532 -0.9057,0.26z"/>
  <path class="fil4" d="M22.4748 31.0023c0.0699,0.0958 -0.0244,0.0176 0.1276,0.1453 0.1026,0.0862 -0.008,0.0073 0.109,0.0695 0.7924,0.421 1.2,0.5803 2.1048,0.2239l-0.5297 -0.4078c-0.1939,-0.191 -0.1689,-0.3375 -0.502,-0.3943 -0.0886,0.0863 -0.0385,0.0742 -0.2802,0.1332 -0.7321,0.1787 -0.6766,-0.0058 -1.0295,0.2302z"/>
  <path class="fil4" d="M23.0542 27.0529c-0.0491,0.1203 -0.1719,0.116 0.3223,0.2273 0.6738,0.1517 1.0715,0.1193 1.7567,0.0627 0.1821,-0.1151 0.3826,-0.3771 0.5076,-0.6064 -0.298,0.1263 -1.9193,0.0887 -2.1132,-0.0905 -0.1916,0.0836 -0.1583,0.0703 -0.3158,0.2146 -0.1144,0.1049 -0.1195,0.0717 -0.1576,0.1923z"/>
  <path class="fil4" d="M18.5371 25.0121c-0.0574,0.1365 -0.1793,0.1533 0.2521,0.3375 0.1514,0.0646 0.2847,0.1197 0.4629,0.1774 0.3769,0.1218 0.6635,0.2198 1.0846,0.174 0.2573,-0.0307 0.5735,-0.2334 0.691,-0.4007 -0.3678,0.0827 -0.7839,-0.0778 -1.0859,-0.1729 -0.1746,-0.0549 -0.3501,-0.099 -0.4969,-0.1503 -0.1222,-0.0427 -0.3615,-0.1068 -0.2867,-0.2411l-0.6211 0.2761z"/>
  <path class="fil4" d="M12.3125 28.4648c-0.0153,-0.214 0.0175,-0.3078 -0.0275,-0.5274 -0.044,-0.2148 -0.1037,-0.1973 -0.0927,-0.4366l-0.0629 -0.4537c-0.3121,-0.3941 -0.2485,-0.7253 -0.6709,-1.0351 0.108,0.6496 -0.1769,0.896 0.1441,1.558 0.1471,0.3034 0.4256,0.7423 0.7099,0.8948z"/>
  <path class="fil4" d="M34.8055 23.9908c0.0456,-0.1721 -0.1271,-0.0879 0.1218,-0.154 0.1235,-0.0328 0.077,0.0017 0.1344,0.0849 0.0606,-0.0677 0.1227,0.1037 0.0179,-0.1196 -0.0903,-0.3439 -1.3297,-0.9324 -1.903,-1.0616l0.0546 0.6318c0.2,0.1057 0.5526,0.1716 0.7852,0.2587 0.3203,0.12 0.5034,0.2379 0.7891,0.3598z"/>
  <path class="fil4" d="M19.0283 24.3223c-0.3774,-0.0139 -0.6429,-0.088 -0.9287,-0.2165 -0.2399,-0.1078 -0.4631,-0.3399 -0.7108,-0.4235 0.0036,-0.0047 0.0589,-0.1188 0.0689,-0.1356l-0.6373 0.1274c0.1363,0.2619 0.5936,0.6113 0.9187,0.7849 0.1904,0.1017 0.4031,0.1727 0.6546,0.1499 0.115,-0.0104 0.2105,-0.0377 0.3256,-0.0876l0.309 -0.199z"/>
  <path class="fil4" d="M19.7415 7.8634c-0.081,0.0785 0.1046,0.1369 -0.1896,-0.0113 -0.1963,-0.0988 -0.8318,-0.7659 -1.0973,-0.9904 0.1105,0.3173 0.4637,0.8153 0.6608,1.0641l0.7552 0.9714 0.4083 -0.1423c-0.0399,-0.2236 -0.3537,-0.7081 -0.5374,-0.8915z"/>
  <path class="fil4" d="M16.4461 30.5861c0.0918,0.1627 0.1939,0.2396 0.2939,0.4183 0.098,0.1752 0.1527,0.3147 0.2291,0.4695 0.1722,0.349 0.4128,0.4248 0.9064,0.4973 -0.1227,-0.213 -0.1557,-0.1726 -0.2253,-0.393 -0.0638,-0.1363 -0.3719,-0.5658 -0.4823,-0.7125 -0.1625,-0.2161 -0.4499,-0.4062 -0.6122,-0.543 -0.1168,0.1222 -0.0321,0.06 -0.066,0.1828 -0.03,0.1088 0.0916,0.0067 -0.0436,0.0806z"/>
  <path class="fil4" d="M28.7252 23.9136c-0.2115,0.0852 -0.2356,0.0673 -0.4709,0.0753 -0.1911,0.0065 -0.3298,0.0617 -0.3757,-0.0677 -0.235,0.1517 -0.4625,0.5462 -0.5842,0.8293l1.1527 -0.0572 0.2781 -0.7797z"/>
  <path class="fil4" d="M31.2739 31.765c0.2607,0.2839 0.142,0.5197 0.7701,0.5607 0.4062,0.0265 0.8415,0.0147 1.2178,-0.0875 -0.5449,-0.4553 -0.3968,-0.407 -0.804,-0.399 -0.3976,0.0077 -0.7761,-0.0545 -1.1839,-0.0742z"/>
  <path class="fil4" d="M37.4111 20.1593l0.1922 0.1139 -0.8304 0.6792 0.4477 0.0652 -0.0601 0.1276c0.4171,-0.0577 0.5074,-0.105 0.6919,-0.3472 0.1365,-0.1791 0.3119,-0.4505 0.3676,-0.6797l-0.8089 0.041z"/>
  <path class="fil4" d="M29.6795 31.9914c0.2355,0.1298 1.0523,0.27 1.3815,0.2681 -0.4337,-0.9214 -0.5224,-0.4843 -1.4109,-0.835l0.0294 0.5669z"/>
  <path class="fil4" d="M16.2862 18.8043c0.1875,0.2268 1.1447,0.2215 1.4992,0.2238l0.0579 -0.2083c-0.6378,-0.0125 -1.338,-0.5439 -1.4194,-0.9177 -0.0553,-0.2536 -0.1144,-0.0884 0.0553,-0.1883 -0.063,-0.1196 0.0421,-0.072 -0.1683,-0.134 -0.1126,0.5124 0.131,0.8292 0.2659,1.2787l-0.2906 -0.0542z"/>
  <path class="fil4" d="M33.3008 31.7251c0.5621,0.3561 1.4712,0.3139 1.9313,-0.1166 -0.2674,-0.1286 -0.6496,-0.1865 -0.9518,-0.1082 -0.223,0.0577 -0.8403,0.1677 -0.9795,0.2248z"/>
  <path class="fil4" d="M17.5599 13.2644l0.2404 0.5406c0.0809,-0.5504 -0.0488,-0.7925 0.1641,-1.4076 0.0659,-0.1906 0.2831,-0.6291 0.4122,-0.811 0.14,-0.1971 0.0839,-0.0733 0.1701,-0.2795 -0.5596,0.3114 -0.7641,1.0587 -0.8674,1.6771 -0.0002,0.001 -0.0316,0.1434 -0.0322,0.1449 -0.0523,0.1415 -0.0074,0.0426 -0.0872,0.1355z"/>
  <path class="fil4" d="M36.1867 21.4646c0.1315,0.2723 0.2887,0.3552 0.5833,0.6485l0.5497 -0.6037 -0.5558 -0.0595 -0.0309 0.2088 -0.1738 -0.0542c-0.2326,-0.0553 -0.119,0.0242 -0.3725,-0.1399z"/>
  <path class="fil4" d="M35.1697 31.1675c0.3424,0.0834 0.5592,0.1502 0.8306,-0.0366 0.1984,-0.1365 0.3827,-0.2786 0.5234,-0.4451 -1.308,0.3031 -0.6194,0.2269 -1.354,0.4817z"/>
  <path class="fil4" d="M38.2465 3.596l0.2142 0.2261c0.1542,-0.1049 0.2306,-0.2383 0.3665,-0.4178 0.203,-0.2681 0.1565,-0.3019 -0.0018,-0.4698 -0.0547,0.2325 -0.3069,0.6426 -0.5789,0.6615z"/>
  <path class="fil4" d="M32.9845 24.9049c0.2254,-0.1008 0.4747,-0.2431 0.6129,-0.409l-0.4383 -0.1354 -0.1746 0.5444z"/>
  <path class="fil5" d="M23.9009 23.2136c0.1287,1.0422 -0.226,1.0521 -0.9832,1.5155 0.4175,0.2657 1.6563,0.2251 2.2225,0.0303 0.6091,-0.2096 0.4287,-0.3414 0.533,-0.1513 0.3113,-0.126 0.1221,-0.0385 0.379,-0.3961 0.5831,-0.8115 1.6945,-1.9229 2.5193,-2.4315 1.1494,-0.7089 2.6549,-0.9565 4.0192,-0.6236 0.4988,0.1217 0.6044,0.1251 0.3297,0.1669 0.0944,0.0887 0.7345,0.3412 0.9676,0.4603 0.3881,0.1981 0.5442,0.3089 0.8524,0.544 0.2702,0.2061 0.4612,0.4025 0.6784,0.7208 0.0805,0.118 0.1704,0.2992 0.2351,0.4585 0.1103,0.2717 0.1874,0.4595 0.025,0.6101 0.0342,0.2577 -0.0064,0.033 0.0936,0.2609 -0.2822,-0.1968 -0.3957,-0.42 -0.6929,-0.5763 0.1048,0.2233 0.0427,0.0519 -0.0179,0.1196 -0.0574,-0.0832 -0.0109,-0.1177 -0.1344,-0.0849 -0.2489,0.0661 -0.0762,-0.0181 -0.1218,0.154 0.3569,0.3579 0.59,0.417 0.9134,0.973 0.2466,0.4239 0.4399,1.0904 0.3147,1.6631l0.3283 -1.2318c0.8934,1.2119 -0.4155,5.5198 -5.9416,4.3553 -0.0859,-0.0181 -0.2078,-0.0416 -0.286,-0.068 -0.3519,-0.1187 -0.2373,-0.0008 -0.1857,-0.1685l-0.3389 0.2844c0.4632,0.2363 1.7366,0.4657 2.3791,0.494 0.7928,0.0349 1.7957,-0.1241 2.451,-0.4314 0.675,-0.3167 1.3048,-0.7345 1.6722,-1.1842 0.965,-1.1812 0.579,-1.3699 0.9904,-1.9332l-0.0932 0.7254c0.2571,-0.3861 0.2502,-0.73 0.2686,-1.2375 0.0593,-1.6408 -0.8045,-3.0148 -1.9634,-4.0694 -0.8593,-0.7819 -1.5972,-1.3429 -2.8902,-1.6508 -1.6229,-0.3863 -3.5461,0.1683 -4.6489,1.11 -0.5333,0.4554 -1.7858,2.0004 -2.4193,2.1308l-1.3213 0.0267c-0.0457,-0.1838 -0.0501,-0.3995 -0.1338,-0.5651z"/>
  <path class="fil5" d="M26.3392 12.2072c0.0153,-0.6861 0.774,-1.0189 1.3185,-0.6277 -0.8912,0.2476 -0.727,0.1198 -1.1744,0.5323 -0.0866,0.0799 -0.0241,0.0457 -0.1441,0.0954zm-2.0295 -0.6753c0.3085,-0.0005 -0.29,0.336 -0.4171,0.3695 -0.9367,0.2467 -1.5065,-0.5651 -1.6876,1.2984l-0.1594 -0.2002c-0.0568,0.371 -0.0256,0.2214 -0.1186,0.3242 0.3382,0.9478 1.1087,1.0523 2.1081,1.3483 0.7964,0.2359 2.0929,0.92 2.4788,-0.0286 -0.5477,0.1975 -1.5008,-0.2052 -1.967,-0.3684 -0.3694,-0.1293 -1.3922,-0.4426 -1.6113,-0.697 -0.1086,-0.0672 -0.3639,-0.0926 -0.4422,-0.7422l0.1417 -0.0563c0.1827,-0.0076 -0.1368,-0.1262 0.0542,0.0249l0.1075 0.1135c-0.0683,-0.9199 0.6771,-0.6055 2.3715,-0.5811l3.1234 0.0581 0.1628 -0.673c-0.0903,-0.0761 -0.0789,-0.0918 -0.1444,-0.2151 -0.6509,-1.2265 -1.8168,-0.197 -2.7825,-0.3727 -0.547,-0.0995 -0.6756,-0.3446 -0.8473,-0.4953 0.0729,0.5904 -0.1987,0.5454 -0.3706,0.893z"/>
  <path class="fil5" d="M28.1071 27.2804l-0.3131 0.0789 0.029 -0.1236 -1.699 1.136c-3.0767,1.8282 -8.3483,2.1413 -11.0755,-0.3414 -1.4028,-1.277 -1.6006,-1.3902 -2.7447,-3.0289 0.3946,0.1485 0.2145,0.2285 0.6324,0.4723l0.7628 0.3852c-0.1118,-0.2819 -0.0904,-0.2106 -0.3359,-0.4037 -0.1827,-0.1437 -0.9557,-0.9747 -1.0791,-1.1343 -0.498,-0.6447 -0.8483,-1.6418 -1.0805,-1.8492 0.2381,1.8298 1.7922,4.3486 3.1892,5.4538 0.3183,0.2519 0.5533,0.5074 0.9281,0.7635 2.4179,1.6522 5.5154,1.917 8.3165,1.0482 1.2379,-0.3839 2.4958,-0.9486 3.5143,-1.6813 0.1835,-0.132 0.3356,-0.2264 0.5134,-0.3631 0.1601,-0.1232 0.3392,-0.2328 0.4421,-0.4124z"/>
  <path class="fil5" d="M36.2343 16.9088c-0.2311,-0.2943 -0.7769,-0.2198 -1.2128,-0.2184 0.4642,-0.3549 2.6478,-0.2749 2.4485,1.7423 -0.1163,1.1776 -1.5269,2.544 -1.9149,2.4788 0.1013,0.177 0.4736,0.5119 0.6316,0.5531 0.2535,0.1641 0.1399,0.0846 0.3725,0.1399l0.1738 0.0542 0.0309 -0.2088c-0.2158,-0.022 -0.3504,-0.0414 -0.432,-0.1885l0.8286 -0.1162 0.0601 -0.1276 -0.4477 -0.0652 0.8304 -0.6792 -0.1922 -0.1139c0.4302,-0.3365 1.0407,-0.4941 1.1879,-1.3533 0.022,-0.1284 0.0597,-0.4603 0.0032,-0.5775 -0.0877,-0.1824 0.036,-0.035 -0.1412,-0.1456 0.1557,0.4574 -0.3307,1.1914 -0.6206,1.2649l-0.2246 -2.575c-0.2279,-0.243 -0.6427,-0.507 -1.052,-0.6421 -0.5081,-0.1678 -0.938,-0.1615 -1.4845,-0.172l-0.0246 -0.1333c-0.1487,0.1228 -0.0929,0.0984 -0.1795,0.3081 -0.1119,0.2709 -0.3375,0.6021 -0.513,0.9459 0.7291,-0.1525 1.0132,-0.3708 1.8721,-0.1706z"/>
  <path class="fil5" d="M29.0741 30.2106c-0.1701,0.0994 -0.3469,0.2004 -0.5043,0.3485l1.7035 0.5479c1.8315,0.5139 4.1,0.1863 5.6532,-0.6924 1.915,-1.0834 2.5116,-3.5432 1.6743,-5.5865 -0.1323,-0.323 -0.1948,-0.5911 -0.3924,-0.746 0.1181,0.6275 0.367,0.9424 0.4414,1.6947 0.3958,4.0029 -3.4095,5.7626 -7.1421,4.9688 -0.3152,-0.0671 -0.5262,-0.1359 -0.8194,-0.2225 -0.4658,-0.1375 -0.737,-0.1291 -0.6142,-0.3125z"/>
  <path class="fil5" d="M5.0254 22.7402c0.0708,-0.0661 0.028,-0.0089 0.0881,-0.1084l0.3517 -0.8728c0.5907,-1.3988 1.8498,-3.1111 2.9322,-4.065 0.3447,-0.3037 0.4171,-0.2797 0.6481,-0.7504 0.177,-0.3608 0.4155,-0.6106 0.5373,-0.9113 -0.5975,0.0371 -1.449,0.8184 -1.7924,1.1124 -0.9501,0.8131 -1.9141,2.0205 -2.3774,3.276 -0.1411,0.3824 -0.5943,1.9828 -0.3876,2.3195z"/>
  <path class="fil5" d="M24.1993 21.6866c-0.1244,-0.0327 -0.1905,-0.0707 -0.1387,-0.222 0.0941,-0.0562 0.2228,0.0009 0.3274,0.0285 0.3692,0.0976 0.7277,0.1413 0.8966,0.3793l-1.0853 -0.1858zm1.554 -0.5301c-0.0816,0.0879 -0.0018,0.0653 -0.2014,0.065 -0.9178,-0.0014 -2.4689,-0.8692 -3.2131,-1.1242l0.1877 -0.0006 -0.7339 -0.2816 0.0143 1.5163c0.7017,0.2737 1.4749,0.5838 2.2685,0.8286 0.9755,0.3008 1.0429,0.0136 1.9619,-0.9169l-0.284 -0.0866z"/>
  <path class="fil5" d="M9.5504 21.794c0.0164,0.0449 -0.5383,0.853 -0.6513,1.0618 -0.2243,0.4142 -0.389,0.7702 -0.5265,1.2863 -0.2301,0.863 -0.3116,1.5895 -0.1267,2.4805 0.1013,0.4877 0.259,0.5754 0.062,0.6581 0.1761,0.534 0.8186,1.6638 1.1249,1.8879 -0.3702,-1.5283 -0.7373,-2.5764 -0.4538,-4.2317 0.4708,-2.7492 1.0556,-3.0491 1.1933,-3.6326 -0.3479,0.1916 -0.4525,0.2004 -0.6219,0.4897z"/>
  <path class="fil5" d="M17.0803 8.5145c-0.2785,0.0261 -1.4558,-0.6196 -1.7927,-0.779 -1.9721,-0.9333 -3.1528,-0.8267 -4.9319,-2.5871 -0.1903,-0.1883 0.0334,-0.0921 -0.2438,-0.1425 0.2313,0.5169 1.0852,1.4392 1.482,1.7572 1.9883,1.5934 3.5693,1.3533 4.616,1.7956l2.1133 1.1126c-0.2226,-0.3305 -0.9123,-0.9558 -1.2429,-1.1568z"/>
  <path class="fil5" d="M18.7703 14.3657l0.5258 0.3579c-0.2317,-0.5137 -0.5327,-1.0097 -0.0716,-1.7678 0.4469,-0.7347 1.2927,-0.7292 1.3879,-0.4464 0.0804,0.2387 0.0413,0.1303 -0.0913,0.261l0.2712 0.008 -0.5211 0.7083 -0.225 -0.1807c-0.0087,-0.0276 -0.029,-0.0282 -0.0452,-0.0402l-0.3625 0.3231 -0.0062 -0.1937 -0.0369 0.0979c-0.0037,0.0191 -0.0812,0.3076 0.1642,0.6708 0.1185,0.1754 0.3407,0.3855 0.5774,0.4777l1.6241 -0.1733c-0.173,-0.19 -0.2486,-0.2055 -0.5823,-0.5874l-0.4081 0.5537c-0.5593,-0.2526 -0.2527,-0.933 -0.0385,-1.2861 0.2012,-0.3317 0.3946,-0.9534 0.2477,-1.2796 -0.1095,-0.2431 0.007,-0.0425 -0.119,-0.147 -0.0666,0.1808 -0.2292,0.0536 -0.495,0.033 -0.8587,-0.0664 -1.6543,0.6681 -1.7772,1.5049 -0.1062,0.7231 0.13,0.7274 0.04,1.018 -0.0872,0.2815 0.3151,-0.0903 -0.0584,0.0879z"/>
  <path class="fil5" d="M7.6503 13.0822c0.3412,-0.0543 0.6601,-0.178 1.0336,-0.2188 0.3838,-0.0419 0.8479,-0.0043 1.1776,-0.1099 0.7469,-0.2394 1.8552,-1.0697 3.5912,-1.5492l2.029 -0.5224 -1.6072 -0.2132c0.048,0.1023 0.0808,0.1038 0.3351,0.1433l-4.4886 1.1692 0.9838 -0.1107 -0.1992 0.2036 -1.4501 0.539c-0.6519,0.2902 -0.0114,-0.2459 -0.7282,0.1978 -0.2383,0.1475 -0.5269,0.2605 -0.677,0.4713z"/>
  <path class="fil5" d="M18.2607 4.4426c0.1663,0.7849 0.7702,1.591 1.2901,2.1178 0.7943,0.8047 0.8588,1.0673 1.4224,2.0476l0.4162 -0.062c0.1045,-0.2111 -0.327,-0.8664 -0.5356,-1.4206 -0.0904,-0.2401 -0.1709,-0.5061 -0.2687,-0.7301 -0.1008,-0.2307 -0.2454,-0.4697 -0.4636,-0.6172 -0.0858,0.2518 0.2311,0.4935 0.2679,0.813 -0.6362,-0.7302 -1.3056,-1.4221 -1.7506,-2.2972l-0.1968 0.2245 -0.1813 -0.0758z"/>
  <path class="fil5" d="M12.5968 18.1821l0.1191 0.0323c-0.3915,0.2175 -0.7073,0.9728 -0.8111,1.5251l0.1299 2.0746c-0.1352,0.1359 0.0576,0.0572 -0.1793,0.042l0.5381 0.6661c-0.1417,-2.6283 -0.0363,-2.342 0.9619,-4.8741 -0.237,0.0364 -0.6613,0.3092 -0.7586,0.534z"/>
  <path class="fil5" d="M15.9301 6.4726c0.5328,0.5035 1.0437,0.9537 1.5956,1.4144 0.7929,0.6619 0.8128,0.6916 1.6755,1.3186 -0.1248,-0.3221 -0.5745,-0.8498 -0.7982,-1.1481 -0.1476,-0.1968 -0.2702,-0.357 -0.4148,-0.5756 -0.1347,-0.2038 -0.2372,-0.4527 -0.4311,-0.5798 0.0734,0.2073 0.0291,0.0376 -0.034,0.1095 -0.1336,-0.2175 -1.0796,-0.8921 -1.3733,-1.0571 -0.1527,0.1203 -0.1165,-0.1692 -0.1294,0.1635l0.1785 0.1464 -0.2688 0.2082z"/>
  <path class="fil5" d="M10.3162 18.4034c0.0163,0.0577 -0.1503,0.157 -0.2445,0.2628 -0.7181,0.8062 -1.3239,2.0349 -1.6177,3.1198 0.1716,-0.1056 0.2387,-0.2362 0.3421,-0.37l1.0342 -1.1232c0.0961,-0.0975 0.2374,-0.2299 0.3578,-0.3399 0.1971,-0.1799 0.1775,-0.1428 0.2146,-0.4894l0.2793 -1.2183c-0.2144,0.0437 -0.2412,0.0253 -0.3658,0.1582z"/>
  <path class="fil5" d="M19.6301 10.5513c0.5562,-0.1097 1.0175,-0.1252 1.4856,0.1589 0.4294,0.2606 0.6001,0.6282 0.8172,1.0491l0.4894 -0.3226c-0.4237,-0.6201 -0.44,-0.6776 -0.772,-1.3316l1.0695 -0.0594c0.1106,0.1187 0.047,-0.0247 0.061,0.1916 0.7578,-0.5554 0.6526,-0.3562 1.5627,-0.1001 -0.1483,-0.3324 -0.7553,-0.4319 -1.1003,-0.4132 -0.4955,0.0268 -0.826,0.2202 -1.2217,0.2762 -0.8715,0.1232 -0.8353,-0.271 -2.2988,0.4958l-0.0926 0.0553z"/>
  <path class="fil5" d="M12.3821 14.5446c0.262,0.2152 -0.2487,0.6172 -0.3944,0.7359 -0.3221,0.2626 -0.4639,0.3616 -0.7209,0.6193 -0.3183,0.3191 -1.0511,1.0876 -1.1986,1.5136 0.2809,-0.1429 1.7815,-1.0081 1.914,-1.1483 0.0682,-0.0721 0.3658,-0.8235 0.4844,-1.0324l0.6516 -0.9545c-0.2392,0.0191 -0.5723,0.0965 -0.7361,0.2664z"/>
  <path class="fil5" d="M10.3931 9.3891c0.1774,0.1022 0.4672,0.1348 0.6705,0.1743 0.9297,0.1809 1.4435,0.1057 2.4131,0.0926 -0.1295,-0.1967 -0.4794,-0.4264 -0.7058,-0.5009 -0.0441,0.2096 -0.1077,-0.0536 -0.7655,-0.1777 -1.4499,-0.2734 -1.4265,-0.2378 -2.9627,-0.3727 0.4619,0.1039 0.4976,0.2167 1.343,0.3252 0.4616,0.0593 1.1944,0.0281 1.5837,0.2914 -0.0493,0.0332 -0.0405,0.0381 -0.1339,0.0675l-1.4424 0.1003z"/>
  <path class="fil5" d="M17.6502 31.5782c0.0696,0.2204 0.1026,0.18 0.2253,0.393l0.9265 0.1825 -0.513 -1.0057 0.3361 0.0863c0.3364,-0.3013 1.1223,0.1674 1.2268,0.1916l0.4815 0.0688c-0.0054,-0.1 -0.0265,-0.1412 -0.062,-0.2319l-0.1952 -0.0305c-0.2253,0.0213 -0.1131,0.0278 -0.2712,-0.0322 0.4362,-0.2381 0.1985,-0.1389 0.5244,-0.1237l0.0003 -0.0933c-0.0923,0.0382 -0.2079,0.056 -0.3482,0.0348 -0.1072,-0.0161 -0.022,0.0153 -0.141,-0.0412 -0.1028,-0.0489 -0.0344,-0.024 -0.0937,-0.0879 -0.0754,0.1457 -0.0649,0.1206 -0.0587,0.2349 -0.4031,-0.0687 -1.4184,-0.2307 -1.8001,-0.4085l-0.1477 -0.101c-0.0061,-0.0205 -0.0229,-0.0222 -0.0343,-0.0332l-0.0558 0.9972z"/>
  <path class="fil5" d="M8.0104 15.7618c0.2846,-0.1072 0.5148,-0.2496 0.8326,-0.3626 0.7072,-0.2514 1.5893,-0.2941 1.8387,-0.5508 0.1251,-0.1288 0.49,-0.539 0.5624,-0.7 -0.362,0.0268 -1.4393,0.4742 -1.8066,0.6243 -0.4588,0.1874 -1.2084,0.6514 -1.4271,0.9891z"/>
  <path class="fil5" d="M17.5302 10.0091c-0.1052,0.1218 0.1485,0.0931 -0.1404,0.1034 -0.2362,-0.2795 -2.783,-0.9137 -3.3013,-1.0304 0.174,0.245 1.295,0.7924 1.5964,0.8784l2.148 0.3253c-0.0966,-0.1605 -0.1122,-0.1502 -0.3027,-0.2767z"/>
  <path class="fil5" d="M17.3626 23.1344c-0.4137,-0.1381 -0.451,-0.1547 -0.7156,-0.4369 -0.1458,-0.1556 -0.4314,-0.5043 -0.5187,-0.5406l1.0751 -0.0565c0.9874,1.1782 0.6411,0.5768 1.0685,0.8831l0.6549 -0.0076 -0.5039 -0.184c-0.3652,-0.1604 -0.9905,-0.468 -1.165,-0.7653l-1.5186 0.0345c0.0671,0.3103 0.3107,0.6483 0.516,0.8532 0.2813,0.2809 0.7812,0.4429 1.1073,0.2201z"/>
  <path class="fil5" d="M18.0555 21.6915c-0.1409,-0.0891 -0.2988,-0.0984 -0.4604,-0.1711 -0.259,-0.1165 -0.7593,-0.5578 -0.9897,-0.7474l0.4964 0.8828c-0.5262,0.0205 -0.7843,-0.0351 -1.085,-0.3108 -0.1202,-0.1102 -0.3445,-0.4165 -0.4083,-0.5931 -0.0958,-0.2651 -0.0657,-0.1044 0.0063,-0.204 -0.1101,-0.0756 -0.1981,-0.0739 -0.3778,-0.1071 0.2044,1.6316 0.2545,1.1955 2.8185,1.2507z"/>
  <path class="fil5" d="M26.7421 19.6626l-0.2312 0.0528 0.02 0.9091c0.2097,-0.0648 1.2054,-0.7642 1.8855,-1.0433 0.2065,-0.0847 0.2157,-0.0784 0.3158,-0.1865 -0.4262,-0.0091 -1.7722,0.441 -2.0877,0.4041l0.0474 -0.1014c0.0085,-0.0255 0.0326,-0.0246 0.0502,-0.0348z"/>
  <path class="fil5" d="M12.971 13.3282c-0.1335,0.0786 -0.0971,0.0609 -0.2261,0.201 1.6272,0.0555 1.5217,-0.05 2.7799,-0.8349 -0.2297,-0.0236 -0.4981,-0.0244 -0.7338,-0.0343 -0.2773,-0.0116 -0.5915,-0.0574 -0.7449,0.0921 0.2824,-0.0444 0.5957,-0.0776 0.8822,0.0154l-1.7674 0.6077c-0.3308,0.0793 -0.1132,0.0815 -0.1899,-0.047z"/>
  <path class="fil5" d="M12.6925 16.7971c0.2664,-0.0939 0.3591,-0.2587 0.5645,-0.4231 0.1629,-0.1303 0.3541,-0.2869 0.5121,-0.4209 0.1313,-0.1113 0.5703,-1.21 0.6073,-1.3679 -0.3198,0.1826 -0.7595,0.7176 -0.9495,1.0231 -0.2089,0.3358 -0.5887,0.8242 -0.7344,1.1888z"/>
  <path class="fil5" d="M7.3067 13.827l0.6389 -0.0462c-0.1092,0.1929 -0.1061,0.2464 -0.2791,0.3314 -0.1196,0.0587 -0.2259,0.0882 -0.3544,0.1282 -0.2413,0.075 -0.4241,0.1516 -0.6354,0.2248 -0.1851,0.1731 -0.2796,0.1724 -0.5724,0.2682 -0.0002,0.001 -0.0015,0.0015 -0.0013,0.0027 0.0006,0.0041 0.0058,0.0072 0.0069,0.0082l0.0904 0.0738c-0.3493,0.0483 0.0274,-0.0389 -0.154,0.128 0.2876,-0.0559 0.5244,-0.1343 0.8224,-0.1805 0.4037,-0.0626 0.4439,-0.0361 0.6899,-0.3006l1.0639 -0.8732c-0.3901,0.0064 -1.0262,0.0676 -1.3158,0.2352z"/>
  <path class="fil5" d="M14.8611 11.8835c-0.1339,0.0743 -0.1197,0.0087 -0.1563,0.1576 0.4034,-0.1023 1.0271,0.0023 1.4965,-0.0769 0.5949,-0.1003 0.7805,-0.2092 0.9135,-0.7604 -0.4178,0.1828 -0.7759,0.213 -1.2062,0.3567 -0.2672,0.0892 -0.8293,0.3938 -1.0475,0.323z"/>
  <path class="fil5" d="M30.6488 25.539c0.7716,-0.0045 1.156,0.0826 1.3244,-0.3566 0.1378,-0.3595 0.2864,-0.9106 0.3221,-1.3407l-0.3491 -0.0484 0.1192 0.1196c-0.1228,0.3887 -0.2432,0.679 -0.4656,1.0106 -0.283,0.4217 -0.4925,0.4071 -0.7656,0.5083 -0.124,0.0459 -0.1151,0.047 -0.1854,0.1072z"/>
  <path class="fil5" d="M30.0023 22.6145l0.095 -0.0425c-0.0025,0.1074 -0.0166,0.2469 0.0061,0.3483 0.0569,0.2536 0.0159,0.0485 0.0534,0.1342 0.0563,0.1284 0.0091,-0.1053 0.0753,0.1678 0.0596,0.2459 -0.0462,0.5292 0.008,0.7331 -0.0448,0.3013 -0.1223,0.6057 -0.2326,0.8295 -0.066,0.1338 -0.0979,0.2414 -0.1596,0.3645 -0.0586,0.1167 -0.1442,0.1574 -0.1048,0.3304 0.0887,-0.063 0.0281,0.0003 0.1383,-0.1194 0.2022,-0.2199 0.6227,-1.1607 0.639,-1.3334l-0.2217 -1.7743c-0.2375,0.0631 -0.2629,0.1019 -0.2964,0.3618z"/>
  <path class="fil5" d="M12.1923 27.5008c-0.011,0.2393 0.0487,0.2218 0.0927,0.4366 0.045,0.2196 0.0122,0.3134 0.0275,0.5274 0.0321,0.0565 -0.0577,0.0084 0.0626,0.0873l0.0723 -0.7772c0.2942,0.0422 0.3875,0.1643 0.5501,0.237 0.436,0.1799 0.3419,0.4742 0.5999,0.8091 -0.0668,-0.6117 -0.1503,-0.5625 -0.4055,-0.9812 -0.1472,-0.2415 -0.363,-0.7263 -0.4997,-0.8261l-0.3498 0.6109 -0.0892 -0.0688c-0.0092,-0.0074 -0.0496,-0.0392 -0.0609,-0.055z"/>
  <path class="fil5" d="M10.8809 25.8649l0.0251 0.4511c0.0685,0.0217 -0.0162,0.0722 0.0937,-0.1727 0.0765,-0.1704 0.0539,-0.13 0.1767,-0.2587 0.3375,0.0155 0.0527,-0.0011 0.2821,0.1274 0.4224,0.3098 0.3588,0.641 0.6709,1.0351 -0.018,-0.4592 -0.1579,-0.6997 -0.3173,-1.0238l-0.2765 -1.0604 -0.5788 1.0102c0.0388,-0.1744 -0.005,-0.0423 -0.0759,-0.1082z"/>
  <path class="fil5" d="M16.0373 20.197c-0.074,-0.1167 -0.1761,-0.1695 -0.284,-0.2779 -0.2406,-0.2417 -0.4389,-0.8159 -0.3293,-1.1057 -0.1101,-0.1541 -0.1216,-0.148 -0.343,-0.214l0.0539 1.4202 0.9024 0.1774z"/>
  <path class="fil5" d="M25.8126 29.7996l0.1652 0.0018c0.2942,0.1932 -0.1095,0.129 0.9057,-0.26 0.1976,-0.0757 0.8435,-0.2266 0.9708,-0.3519 -0.0646,-0.022 -0.1699,-0.0537 -0.2268,-0.0901 -0.0804,-0.0513 -0.0541,-0.0353 -0.1022,-0.0847 -0.0878,-0.0904 -0.0081,-0.0004 -0.0879,-0.1243 -0.378,0.0879 -0.0607,0.1346 -0.7851,0.4787l-0.8397 0.4305z"/>
  <path class="fil5" d="M30.6037 16.8479c0.2329,-0.0725 0.446,-0.7455 0.5189,-1.0061 -0.4032,0.1267 -0.6851,-0.307 -0.8239,-0.5739 -0.0953,0.285 0.3029,1.169 0.305,1.58z"/>
  <path class="fil5" d="M26.1203 24.4947c0.15,0.0726 0.1765,-0.035 -0.4168,0.4555l0.431 -0.0884c0.3381,-0.1012 0.5184,-0.4261 0.7225,-0.7755 0.156,-0.2669 0.4224,-0.742 0.5089,-0.9893 -0.2417,0.1659 -0.4126,0.4534 -0.6038,0.7216 -0.2833,0.3974 -0.3083,0.2578 -0.6418,0.6761z"/>
  <path class="fil5" d="M30.3388 19.0251c0.7815,-0.0205 1.2723,0.0465 2.007,0.0719l0.0276 -0.6396c-0.0101,0.0099 -0.0222,0.0147 -0.0264,0.0332 -0.0341,0.1489 -0.6499,0.2302 -0.9317,0.3061 -0.2971,0.08 -0.85,0.1071 -1.0765,0.2284z"/>
  <path class="fil5" d="M20.1851 28.5186c0.5176,0.1237 1.4646,-0.0004 1.9487,-0.1337 -0.2262,-0.1226 -0.7366,-0.2815 -0.9713,-0.2018 -0.2249,0.0763 -0.8735,0.2573 -0.9774,0.3355z"/>
  <path class="fil5" d="M31.8909 23.5772l0.3585 -0.0523c0.1648,-0.336 0.0495,-1.0636 -0.1048,-1.404l-0.2092 -0.0519c0.1129,0.5557 0.0942,0.9508 -0.0445,1.5082z"/>
  <path class="fil5" d="M15.4031 18.4311c-0.0974,-0.6981 0.3298,-1.7017 0.3453,-2.3438 -0.3598,0.3409 -0.5181,1.7765 -0.59,2.2128 0.1407,0.0875 0.1019,0.0712 0.2447,0.131z"/>
  <path class="fil5" d="M15.7491 30.6714c0.0608,0.2443 0.1099,0.1552 0.2082,0.2955l0.1915 -0.2696c0.1072,-0.1244 0.0694,-0.096 0.2973,-0.1112 0.1352,-0.0739 0.0136,0.0282 0.0436,-0.0806 0.0339,-0.1228 -0.0508,-0.0606 0.066,-0.1828 -0.1167,-0.2458 -0.0647,-0.0667 -0.1907,-0.2404 -0.2012,-0.2774 -0.0519,-0.2234 0.0295,-0.2821l-0.0699 -0.0632c-0.1516,-0.1028 -0.0998,-0.0634 -0.2507,-0.1115l0.1088 0.1652c-0.4391,1.0402 -0.1381,0.9288 -0.4336,0.8807z"/>
  <path class="fil5" d="M15.2474 25.7966l0.6521 0.4551 0.0795 -0.4499c0.0057,-0.1152 -0.0369,-0.2417 0.0743,-0.2163l-0.0612 -0.2093c-0.1415,0.0281 -0.3957,0.1914 -0.5589,0.2876 -0.0116,0.0068 -0.0267,0.0142 -0.0381,0.0213l-0.1477 0.1115z"/>
  <path class="fil5" d="M11.0018 13.4008c0.3331,-0.0548 0.6849,-0.1638 0.9792,-0.2844 0.1897,-0.0779 0.2599,-0.126 0.4209,-0.2188 0.2624,-0.1515 0.2579,-0.0793 0.3939,-0.2712 -0.4778,0.1048 -0.5293,0.077 -0.9598,0.2877 -0.1557,0.0762 -0.2443,0.1303 -0.4317,0.2141 -0.2215,0.0992 -0.2768,0.0636 -0.4025,0.2726z"/>
  <path class="fil5" d="M16.5402 20.2191c0.2285,0.1522 1.0906,0.0493 1.3541,0.0372 0.0412,-0.2492 -0.0097,-0.1265 -0.0433,-0.1655l-0.0315 0.091c-1.8337,-0.8056 -0.8049,-0.6442 -1.4244,-0.9137l0.9853 0.9632c-0.2998,-0.0377 -0.5364,-0.0791 -0.8402,-0.0122z"/>
  <path class="fil5" d="M37.1456 5.0925c0.2114,-0.1176 0.7949,-0.8249 0.8922,-1.1265l-0.1161 -0.1196c-0.0415,0.2176 -0.667,0.9109 -0.7761,1.2461z"/>
  <path class="fil5" d="M33.2137 18.8822c0.0688,-0.0855 0.0535,0.0377 0.0728,-0.2114 0.0058,-0.0754 -0.002,-0.2145 -0.0028,-0.2964 -0.003,-0.3586 0.041,-0.2216 -0.1283,-0.5179 -0.0889,0.0839 -0.074,-0.1548 -0.097,0.2214 -0.003,0.0484 0.015,0.2337 0.0183,0.2966 0.0131,0.2448 -0.0486,0.4291 0.137,0.5077z"/>
  <path class="fil5" d="M38.7069 2.3935c0.1349,0.1742 0.2507,0.2056 0.4635,0.3147l0.1234 -0.1913c-0.0607,-0.1982 0.0101,-0.1172 -0.386,-0.3785l-0.2009 0.2551z"/>
  <path class="fil5" d="M23.8399 25.9373c0.1948,-0.0915 0.2362,-0.122 0.3461,-0.2729 -0.2261,0.0374 -0.2637,0.098 -0.3461,0.2729z"/>
  <path class="fil6" d="M29.6501 31.4245c0.8885,0.3507 0.9772,-0.0864 1.4109,0.835 -0.3292,0.0019 -1.146,-0.1383 -1.3815,-0.2681l-0.0294 -0.5669zm1.6238 0.3405c0.4078,0.0197 0.7863,0.0819 1.1839,0.0742 0.4072,-0.008 0.2591,-0.0563 0.804,0.399 -0.3763,0.1022 -0.8116,0.114 -1.2178,0.0875 -0.6281,-0.041 -0.5094,-0.2768 -0.7701,-0.5607zm2.0269 -0.0399c0.1392,-0.0571 0.7565,-0.1671 0.9795,-0.2248 0.3022,-0.0783 0.6844,-0.0204 0.9518,0.1082 -0.4601,0.4305 -1.3692,0.4727 -1.9313,0.1166zm-5.1425 -0.1169c-0.1621,-0.0498 -0.2398,-0.0807 -0.3939,-0.1473 -0.0402,-0.0174 -0.115,-0.0451 -0.161,-0.0718l-0.1616 -0.1407 0.6415 -0.2964c0.1701,0.1037 0.2503,0.1959 0.3451,0.397l0.2328 0.2332 -0.2328 -0.478 0.8041 0.2131c0.011,0.4168 0.0835,0.627 -0.3315,0.5334 -0.2186,-0.0493 -0.5503,-0.1773 -0.7427,-0.2425zm7.0114 -0.4407c0.7346,-0.2548 0.046,-0.1786 1.354,-0.4817 -0.1407,0.1665 -0.325,0.3086 -0.5234,0.4451 -0.2714,0.1868 -0.4882,0.12 -0.8306,0.0366zm1.717 -0.9659l-0.2936 -0.055c0.2032,-0.2231 0.4397,-0.4854 0.689,-0.6101 0.0019,0.2432 -0.268,0.5634 -0.3954,0.6651zm-16.7016 -1.683c0.1039,-0.0782 0.7525,-0.2592 0.9774,-0.3355 0.2347,-0.0797 0.7451,0.0792 0.9713,0.2018 -0.4841,0.1333 -1.4311,0.2574 -1.9487,0.1337zm10.9966 -0.2585c0.0544,-0.1536 0.4515,-0.5674 0.6839,-0.9152 0.2542,-0.3804 0.3914,-0.6417 0.6143,-1.0732 0.1877,-0.3634 0.6631,-0.5063 0.9939,-0.6989l1.0225 -0.6519c1.678,1.2532 -0.0554,3.7661 -3.3146,3.3392zm-5.5409 -1.5236c-0.125,0.2293 -0.3255,0.4913 -0.5076,0.6064 -0.1932,0.2775 -1.1367,0.4924 -1.188,0.4868l-1.3927 -0.3089c0.152,-0.1444 0.2736,-0.3243 0.5017,-0.4679 0.0381,-0.1206 0.0432,-0.0874 0.1576,-0.1923 0.1575,-0.1443 0.1242,-0.131 0.3158,-0.2146 0.0988,-0.2085 0.7658,-0.5339 1.0819,-0.6698 0.8053,-0.3462 0.6318,-0.2906 1.6166,-0.2841 -0.0941,0.3054 -0.3851,0.8376 -0.5853,1.0444zm-1.8009 -0.7992c0.0824,-0.1749 0.12,-0.2355 0.3461,-0.2729 -0.1099,0.1509 -0.1513,0.1814 -0.3461,0.2729zm-0.7017 0.3495c-0.1476,0.2028 -0.635,0.582 -0.8282,0.627 -0.4309,0.6403 -1.0787,0.1272 -2.2004,-0.4252 0.1306,-0.0884 0.0949,-0.0717 0.2533,-0.1405 0.1231,-0.1347 0.4653,-0.3822 0.6465,-0.4604 0.0736,-0.1501 0.3187,-0.251 0.5577,-0.3288 1.0267,-0.3339 0.243,-0.335 2.2261,0.0266 -0.1344,0.2358 -0.4129,0.6043 -0.655,0.7013zm2.9428 0.5506l0.5334 -1.3098c0.262,-0.007 0.9498,-0.0631 1.1042,0.0177 -0.2651,0.3305 -1.2282,1.1595 -1.6376,1.2921zm-10.0277 -1.2519c-0.1112,-0.0254 -0.0686,0.1011 -0.0743,0.2163 -0.0278,0.5415 0.1803,0.8229 0.337,1.2776 -0.3875,-0.1712 -1.146,-0.9165 -1.3361,-1.1961l-0.7422 -0.9455c0.3549,-0.03 0.7033,-0.0008 1.0544,-0.0467 0.5938,-0.0777 0.4687,-0.2182 0.8521,0.1162 1.7727,1.546 2.0698,1.6458 4.1542,2.6951 -0.2607,0.1441 -1.0427,0.3159 -1.4061,0.3674 -0.9213,0.1306 -2.6276,-1.0526 -2.839,-2.4843zm16.9312 -0.6806l0.1746 -0.5444 0.4383 0.1354c-0.1382,0.1659 -0.3875,0.3082 -0.6129,0.409zm-11.9568 0.3954c-0.1175,0.1673 -0.4337,0.37 -0.691,0.4007 -0.127,0.1523 -0.3484,0.2479 -0.5351,0.2594 -0.4425,0.0274 -1.2116,-0.5114 -1.6322,-0.759 0.1266,-0.1261 0.1848,-0.1363 0.3677,-0.1893l0.6211 -0.2761 1.5211 -0.9646 1.5931 0.6376c-0.0649,0.1054 -0.0645,0.1219 -0.2397,0.2215 -0.3307,0.188 -0.6076,0.2496 -0.9755,0.3666l0.2099 0.2047 -0.2394 0.0985zm7.6975 -1.3867l-0.2781 0.7797 -1.1527 0.0572c0.1217,-0.2831 0.3492,-0.6776 0.5842,-0.8293 0.0418,-0.1607 0.1291,-0.3074 0.263,-0.4241l0.6828 0.0638 -0.0992 0.3527zm3.1657 -0.3364c-0.2688,0.1035 -0.3785,0.1409 -0.5268,0.3347 0.245,-0.1014 0.2683,-0.1203 0.5821,-0.1186l0.3491 0.0484c-0.0357,0.4301 -0.1843,0.9812 -0.3221,1.3407 -0.1684,0.4392 -0.5528,0.3521 -1.3244,0.3566l-0.2698 0.1495 0.5105 0.0997 0.7762 0.1404c-0.15,0.356 -0.4731,0.852 -0.756,1.0421 -0.3351,0.2251 -1.2562,0.1431 -1.7186,0.1287l-0.2134 0.1065 0.514 0.0591c0.2098,0.0609 0.8885,0.2542 1.0367,0.3208 -0.2486,0.4621 -0.6557,0.7964 -1.086,1.1247 -0.4967,0.3789 -1.1674,0.3556 -1.8196,0.1248 -0.0779,0.0205 -0.1416,0.0384 -0.1854,0.0551 0.0798,0.1239 0.0001,0.0339 0.0879,0.1243 0.0481,0.0494 0.0218,0.0334 0.1022,0.0847 0.0569,0.0364 0.1622,0.0681 0.2268,0.0901l0.7543 0.2619c-0.637,0.7315 -1.434,0.8714 -2.3349,0.5971 -0.2282,-0.0695 -0.1986,-0.0875 -0.2959,-0.2471l-0.1652 -0.0018c-0.1269,0.5213 0.652,0.6959 0.9491,0.8861 -1.1473,0.4195 -0.8097,0.5665 -1.9846,0.1503 -0.2957,-0.1047 -0.4925,-0.1286 -0.5899,-0.3736 -0.2946,0.1094 -0.2854,0.0945 -0.665,0.1244l0.2623 0.0521c0.3331,0.0568 0.3081,0.2033 0.502,0.3943l0.5297 0.4078c-0.9048,0.3564 -1.3124,0.1971 -2.1048,-0.2239 -0.117,-0.0622 -0.0064,0.0167 -0.109,-0.0695 -0.152,-0.1277 -0.0577,-0.0495 -0.1276,-0.1453l-0.0282 -0.0148 -0.1548 0.0379 0.7463 0.8745c-0.3961,0.3357 -1.2051,0.1489 -1.5719,-0.0848 -0.2464,-0.1571 -0.8188,-0.71 -1.1369,-0.6829 -0.3753,0.0319 -0.1531,0.0194 -0.2531,0.1001l0.1952 0.0305c0.2553,0.0547 0.1801,0.3351 0.377,0.5514 0.0938,0.1029 0.1691,0.116 0.447,0.4244 -0.533,0.0195 -1.0927,0.0473 -1.5269,-0.1593 -0.1844,-0.0877 -0.5491,-0.4096 -0.7183,-0.5631 -0.14,-0.127 -0.1417,-0.1215 -0.2251,-0.2819l-0.3361 -0.0863 0.513 1.0057 -0.9265 -0.1825c-0.4936,-0.0725 -0.7342,-0.1483 -0.9064,-0.4973 -0.0764,-0.1548 -0.1311,-0.2943 -0.2291,-0.4695 -0.1,-0.1787 -0.2021,-0.2556 -0.2939,-0.4183 -0.2279,0.0152 -0.1901,-0.0132 -0.2973,0.1112l0.2581 0.7878c-0.287,-0.0462 -1.3946,-0.562 -1.5359,-0.8291 -0.1388,-0.2625 -0.1025,-0.7993 -0.2113,-0.9484 -0.0858,-0.1175 -0.2661,-0.0941 -0.4002,-0.183l-0.1388 -0.4789 0.0986 1.2742c-0.2927,-0.1258 -0.7658,-0.5773 -1.0026,-0.8097 -0.5327,-0.5228 -0.2968,-0.5961 -0.2192,-1.4983 -0.1626,-0.0727 -0.2559,-0.1948 -0.5501,-0.237l-0.0723 0.7772c-0.1203,-0.0789 -0.0305,-0.0308 -0.0626,-0.0873 -0.2843,-0.1525 -0.5628,-0.5914 -0.7099,-0.8948 -0.321,-0.662 -0.0361,-0.9084 -0.1441,-1.558 -0.2294,-0.1285 0.0554,-0.1119 -0.2821,-0.1274 -0.1228,0.1287 -0.1002,0.0883 -0.1767,0.2587 -0.1099,0.2449 -0.0252,0.1944 -0.0937,0.1727l-0.1549 -0.1806c-0.0448,-0.0747 -0.0739,-0.1659 -0.1017,-0.2409 -0.0573,-0.1545 -0.1202,-0.3158 -0.1732,-0.473 -0.2289,-0.6782 -0.0887,-0.6377 -0.0394,-1.2168l-0.1231 -0.1934 -0.2838 0.2392c0.0749,-0.3998 0.2262,-1.3917 0.433,-1.7451l0.1582 -0.1958 0.4897 1.6591c0.4101,0.6486 0.5327,1.1747 1.3602,2.3816 0.421,0.614 0.7798,1.0321 1.2975,1.5584 0.1661,0.1688 0.3806,0.2955 0.4906,0.4788 0.1665,0.0461 0.1087,0.0372 0.1725,0.1061 0.186,0.2005 0.5243,0.4224 0.7819,0.5924 0.1762,0.1163 0.7633,0.4293 0.8604,0.5395 0.1509,0.0481 0.0991,0.0087 0.2507,0.1115l0.0699 0.0632c0.5321,0.1214 1.1444,0.503 2.31,0.6916 3.5054,0.5674 6.7449,-0.6075 9.3881,-2.6642 0.3115,-0.2424 0.4955,-0.4458 0.8101,-0.7068 0.6085,-0.5049 1.6125,-1.8643 1.9338,-2.7254l0.7514 -2.3451 0.3475 0.0187 0.2092 0.0519c0.1543,0.3404 0.2696,1.068 0.1048,1.404l-0.3585 0.0523zm-18.1493 0.6203c-0.6769,-1.1427 -0.9004,-3.7085 -0.2738,-4.9892 0.2449,1.6429 0.3048,2.4146 1.2416,3.9125 0.1386,0.2215 0.6218,0.8326 0.6425,0.9879l-1.6103 0.0888zm-5.4337 3.0832c-0.4768,-1.1168 -0.8086,-2.9151 -0.6764,-4.1796l0.2156 -1.369 0.2958 1.6715 0.6304 -0.9019c0.1986,-0.2446 0.5185,-0.5993 0.7771,-0.7077 0.1694,-0.2893 0.274,-0.2981 0.6219,-0.4897 -0.1377,0.5835 -0.7225,0.8834 -1.1933,3.6326 -0.2835,1.6553 0.0836,2.7034 0.4538,4.2317 -0.3063,-0.2241 -0.9488,-1.3539 -1.1249,-1.8879zm14.2186 -7.184c0.36,0.0004 2.6633,0.8766 3.2268,1.0598l0.284 0.0866c-0.919,0.9305 -0.9864,1.2177 -1.9619,0.9169 -0.7936,-0.2448 -1.5668,-0.5549 -2.2685,-0.8286l-0.0143 -1.5163 0.7339 0.2816zm4.8394 3.0003c-0.0865,0.2473 -0.3529,0.7224 -0.5089,0.9893 -0.2041,0.3494 -0.3844,0.6743 -0.7225,0.7755 -0.0582,0.0734 0.0857,0.0553 -0.176,0.1265 -0.1055,0.0286 -0.1686,0.0149 -0.2655,0.0132 -0.1065,-0.1474 -0.0133,-0.1032 -0.2071,-0.1599 -0.2075,0.0445 -0.1495,0.0927 -0.3152,0.0167l0.5025 -0.2502c-0.1043,-0.1901 0.0761,-0.0583 -0.533,0.1513 -0.5662,0.1948 -1.805,0.2354 -2.2225,-0.0303 0.7572,-0.4634 1.1119,-0.4733 0.9832,-1.5155 -0.0773,-0.1644 -0.1137,-0.2536 -0.2214,-0.3828l2.0286 -0.1857c0.435,-0.1679 0.8293,-1.3907 2.9708,-2.3898 2.2173,-1.0344 4.3847,-0.3515 6.124,0.9609 0.4964,0.3746 1.0018,0.8588 1.3768,1.3042 0.2151,0.2556 0.9874,1.1912 1.0287,1.5617 0.1976,0.1549 0.2601,0.423 0.3924,0.746 0.8373,2.0433 0.2407,4.5031 -1.6743,5.5865 -1.5532,0.8787 -3.8217,1.2063 -5.6532,0.6924l-1.7035 -0.5479c0.1574,-0.1481 0.3342,-0.2491 0.5043,-0.3485 0.1325,-0.3897 1.0067,0.1959 2.2825,0.3298 2.4925,0.2616 4.8638,-0.6 5.6526,-3.0715l0.0932 -0.7254c-0.4114,0.5633 -0.0254,0.752 -0.9904,1.9332 -0.3674,0.4497 -0.9972,0.8675 -1.6722,1.1842 -0.6553,0.3073 -1.6582,0.4663 -2.451,0.4314 -0.6425,-0.0283 -1.9159,-0.2577 -2.3791,-0.494l0.3389 -0.2844c0.4711,-1.0334 1.5056,0.2272 3.7725,-0.4946 0.7132,-0.2271 1.0724,-0.4468 1.4991,-0.8845 0.2152,-0.2207 0.8787,-1.0587 0.8134,-1.5079 0.1252,-0.5727 -0.0681,-1.2392 -0.3147,-1.6631 -0.3234,-0.556 -0.5565,-0.6151 -0.9134,-0.973 -0.2857,-0.1219 -0.4688,-0.2398 -0.7891,-0.3598 -0.2326,-0.0871 -0.5852,-0.153 -0.7852,-0.2587l-0.0546 -0.6318 -0.0568 -0.4244c0.9518,0.188 2.4215,1.1816 2.5591,1.8014 0.1624,-0.1506 0.0853,-0.3384 -0.025,-0.6101 -0.0647,-0.1593 -0.1546,-0.3405 -0.2351,-0.4585 -0.2172,-0.3183 -0.4082,-0.5147 -0.6784,-0.7208 -0.3082,-0.2351 -0.4643,-0.3459 -0.8524,-0.544 -0.2331,-0.1191 -0.8732,-0.3716 -0.9676,-0.4603 -0.9091,-0.0292 -1.7102,-0.4961 -3.3401,0.118 -1.5736,0.593 -1.9853,1.5013 -2.2144,1.6552zm-11.7511 -2.5491c0.3954,-0.051 0.8094,0.0721 1.215,0.0846 0.4417,0.0137 0.7681,-0.0725 1.1691,-0.0967l0.9442 1.7906c0.3553,0.538 1.2117,1.066 1.4347,1.2869l-1.3495 0.709 -0.309 0.199c-0.1151,0.0499 -0.2106,0.0772 -0.3256,0.0876 -0.2515,0.0228 -0.4642,-0.0482 -0.6546,-0.1499 -0.3251,-0.1736 -0.7824,-0.523 -0.9187,-0.7849l0.6373 -0.1274 1.5744 -0.537 -0.1053 -0.0338 -0.6549 0.0076c-0.3075,0.0459 -0.5594,0.2088 -0.9093,0.1509 -0.3261,0.2228 -0.826,0.0608 -1.1073,-0.2201 -0.2053,-0.2049 -0.4489,-0.5429 -0.516,-0.8532l1.5186 -0.0345c0.2508,-0.032 0.7822,-0.1583 0.9514,-0.2708l-0.1538 -0.0643c-2.564,-0.0552 -2.6141,0.3809 -2.8185,-1.2507 0.1797,0.0332 0.2677,0.0315 0.3778,0.1071zm-0.1908 -1.7345c0.3132,0.0212 0.7609,0.3139 1.0792,0.4132 0.4142,0.1294 0.8116,0.1505 1.2836,0.1727l0.0642 0.6915c0.0336,0.039 0.0845,-0.0837 0.0433,0.1655 -0.2635,0.0121 -1.1256,0.115 -1.3541,-0.0372 -0.2494,0.0432 -0.2783,0.0027 -0.5029,-0.0221l-0.9024 -0.1774 -0.0539 -1.4202c0.2214,0.066 0.2329,0.0599 0.343,0.214zm13.3082 0.5813c-0.1001,0.1081 -0.1093,0.1018 -0.3158,0.1865 -0.6801,0.2791 -1.6758,0.9785 -1.8855,1.0433l-0.02 -0.9091 0.2312 -0.0528c1.0574,-0.3407 5.1486,-1.0753 5.5434,-1.3376l0.0879 0.1324 -0.0276 0.6396c-0.7347,-0.0254 -1.2255,-0.0924 -2.007,-0.0719 -0.5343,0.0361 -1.2662,0.3613 -1.6066,0.3696zm4.4815 -0.5125c-0.1856,-0.0786 -0.1239,-0.2629 -0.137,-0.5077 -0.0033,-0.0629 -0.0213,-0.2482 -0.0183,-0.2966 0.023,-0.3762 0.0081,-0.1375 0.097,-0.2214 0.1693,0.2963 0.1253,0.1593 0.1283,0.5179 0.0008,0.0819 0.0086,0.221 0.0028,0.2964 -0.0193,0.2491 -0.004,0.1259 -0.0728,0.2114zm-7.0802 0.9014l-0.0098 0.7298 -3.8218 -1.2539c-0.5008,-0.1653 -0.9012,-0.2007 -1.0944,-0.5933 -0.1257,-0.0394 -0.1635,-0.096 -0.2067,-0.2036l2.5764 0.6133c0.2824,0.0661 2.3983,0.5097 2.5563,0.7077zm7.6902 -1.562c1.3668,-0.8019 3.1637,-0.9698 2.2421,0.6133 -0.2764,0.4748 -0.666,0.8267 -1.1694,1.1083 -0.3936,0.2201 -0.4827,0.1104 -0.8356,-0.083 -0.2118,-0.116 -0.5213,-0.2161 -0.7206,-0.3781l0.4339 -0.2508 0.0496 -1.0097zm-1.1956 -0.6728c0.1654,0.2973 0.1555,0.2244 0.1915,0.5564 0.0232,0.2142 0.0606,0.5224 -0.014,0.6738 -0.1361,-0.0785 -0.0736,0.063 -0.1038,-0.224l-0.0737 -1.0062zm-20.7727 4.3073l-0.1392 -0.1987c0.0777,0.4363 0.444,1.0579 0.6874,1.319 0.2161,0.2317 0.5479,1.5788 1.3607,2.7208 1.3923,1.9561 3.7467,3.5209 6.6234,3.6522 3.8119,0.174 9.2566,-2.8085 9.6146,-6.7349 0.0335,-0.2599 0.0589,-0.2987 0.2964,-0.3618l0.2217 1.7743c-0.0163,0.1727 -0.4368,1.1135 -0.639,1.3334 -0.1102,0.1197 -0.0496,0.0564 -0.1383,0.1194 -0.0313,0.137 -0.0274,0.1149 -0.131,0.252 -0.2753,0.3645 -0.9174,1.0524 -1.2613,1.3656 -0.0249,0.0227 -0.1073,0.0965 -0.1219,0.1076 -0.1307,0.0998 -0.0369,0.0418 -0.1218,0.0754 -0.1029,0.1796 -0.282,0.2892 -0.4421,0.4124 -0.1778,0.1367 -0.3299,0.2311 -0.5134,0.3631 -1.0185,0.7327 -2.2764,1.2974 -3.5143,1.6813 -2.8011,0.8688 -5.8986,0.604 -8.3165,-1.0482 -0.3748,-0.2561 -0.6098,-0.5116 -0.9281,-0.7635 -1.397,-1.1052 -2.9511,-3.624 -3.1892,-5.4538 -0.1957,-3.0396 -0.2729,-2.1153 0.6145,-5.1503 0.0614,0.6927 0.0658,0.9638 0.1902,1.2084l0.0471 0.0752c0.1321,-0.1502 0.3311,-0.3671 0.5415,-0.4229 0.0973,-0.2248 0.5216,-0.4976 0.7586,-0.534 -0.9982,2.5321 -1.1036,2.2458 -0.9619,4.8741l-0.5381 -0.6661zm13.9167 -2.9524c0.2967,0.0837 0.4001,0.1401 0.5008,0.3818 0.0025,0.0059 0.009,0.0228 0.0114,0.0282 0.0028,0.0061 0.0137,0.0255 0.0162,0.0306 0.0042,0.0085 0.0328,0.0506 0.0417,0.0678 -0.1482,0.0348 -0.1463,0.0168 -0.2411,0.1246l-0.1277 -0.0745c-0.3174,-0.0558 -0.8434,-0.2723 -1.2252,-0.3792l-3.4994 -0.8701c-0.1579,-0.0646 -0.1668,-0.0825 -0.2342,-0.1498l2.4165 0.4865 -2.1456 -0.6999 1.7933 0.2948 -1.2689 -0.4969c-0.2118,-0.0714 -0.2538,-0.0582 -0.3694,-0.206 1.7501,0.4219 2.7405,0.5636 4.3316,1.4621zm1.0663 0.4763l-0.1745 -0.0598 1.0974 -0.7427c0.8678,-0.4745 3.6429,-1.3935 4.3751,-1.4048l-1.5612 0.6113c0.4525,-0.1177 0.7964,-0.1859 1.2222,-0.3597 0.2696,-0.11 0.2767,-0.1128 0.3828,-0.041l-2.112 0.7987 2.2003 -0.5072 -2.7199 0.8127 2.7578 -0.5212 -0.6323 0.2683c-0.2948,0.1001 -3.0091,0.6803 -3.7712,0.8888 -0.4403,0.1205 -0.9409,0.3505 -1.3872,0.4136l0.3227 -0.157zm8.2163 -3.5546c0.049,-0.0496 0.0096,-0.0342 0.1464,-0.0657l0.5198 -0.0287c0.2404,0.0031 0.4752,0.0272 0.7036,0.0706 0.3954,0.0752 0.7331,0.2049 1.0496,0.4112 0.3444,0.2245 1.4785,1.3939 0.8448,1.8118l0.1421 0.0583c0.1772,0.1106 0.0535,-0.0368 0.1412,0.1456 0.0565,0.1172 0.0188,0.4491 -0.0032,0.5775 -0.1472,0.8592 -0.7577,1.0168 -1.1879,1.3533l0.8089 -0.041c-0.0557,0.2292 -0.2311,0.5006 -0.3676,0.6797 -0.1845,0.2422 -0.2748,0.2895 -0.6919,0.3472l-0.8286 0.1162c0.0816,0.1471 0.2162,0.1665 0.432,0.1885l0.5558 0.0595 -0.5497 0.6037c-0.2946,-0.2933 -0.4518,-0.3762 -0.5833,-0.6485 -0.158,-0.0412 -0.5303,-0.3761 -0.6316,-0.5531 -0.1776,-0.0577 -0.212,-0.0638 -0.3211,-0.2906l1.6354 -1.6222c0.394,-0.555 0.4207,-1.9682 -0.6351,-2.0899 -0.8589,-0.2002 -1.143,0.0181 -1.8721,0.1706 0.1755,-0.3438 0.4011,-0.675 0.513,-0.9459 0.0866,-0.2097 0.0308,-0.1853 0.1795,-0.3081zm-17.9914 0.3149c0.5854,0.5567 -0.2417,0.1599 1.2244,1.0681l-0.2319 0.5586 -0.7012 -0.507 0.2609 0.4834c-0.4353,-0.0693 -0.9099,-0.0746 -1.2242,-0.4211 -0.2003,-0.1348 -0.3991,-0.3218 -0.5361,-0.561 -0.0104,0.3404 0.3043,0.6919 0.4557,0.8185 0.2104,0.062 0.1053,0.0144 0.1683,0.134 0.2852,0.3425 0.8611,0.4542 1.2455,0.5841l0.1382 0.0551c0.0083,-0.0137 0.0316,0.0129 0.0463,0.0214l-0.0659 0.4454 -0.0579 0.2083c-0.3545,-0.0023 -1.3117,0.003 -1.4992,-0.2238 -0.2924,-0.013 -0.7273,-0.1505 -0.8831,-0.3732 -0.1428,-0.0598 -0.104,-0.0435 -0.2447,-0.131 0.0719,-0.4363 0.2302,-1.8719 0.59,-2.2128l0.0879 -0.3072c0.0786,-0.2671 0.0654,-0.3297 0.2953,-0.4993 -0.0183,-0.1853 0.2672,-0.5888 0.3831,-0.7794 0.0947,-0.1556 0.3135,-0.4997 0.4406,-0.6299 0.0083,-0.0085 0.0321,-0.0104 0.0384,-0.0334 0.0063,-0.0236 0.026,-0.0229 0.0399,-0.0332l0.112 0.4444c0.3852,0.1782 0.697,0.4174 0.8155,0.6856 0.293,0.1256 0.4488,0.2662 0.8065,0.3992 0.4358,0.1621 0.5448,0.1161 0.8392,0.2139l-0.3084 0.3371c-0.01,0.0086 -0.0246,0.0214 -0.0338,0.0292 -0.0094,0.0081 -0.0276,0.0229 -0.0355,0.0296l-0.0742 0.0601c-0.0732,0.1083 -0.3547,0.483 -0.5161,0.6024 -0.7422,-0.0572 -1.3586,-0.7423 -1.5738,-1.42l-0.1903 -0.8419c-0.0476,0.349 -0.0647,0.7004 -0.0237,1.0437 0.0396,0.3313 0.1465,0.492 0.2123,0.7521zm-6.9951 1.2731c-0.3727,0.3369 -0.8242,0.9165 -0.9724,1.6355 0.225,-0.1788 0.7797,-0.6284 1.2204,-0.6455 0.1246,-0.1329 0.1514,-0.1145 0.3658,-0.1582l-0.2793 1.2183c-0.0371,0.3466 -0.0175,0.3095 -0.2146,0.4894 -0.1204,0.11 -0.2617,0.2424 -0.3578,0.3399l-1.0342 1.1232c-0.1034,0.1338 -0.1705,0.2644 -0.3421,0.37l1.1434 -4.3498c0.4024,-0.7061 0.7353,-1.1265 1.1745,-1.6827 0.2267,-0.2873 1.1132,-1.177 1.6102,-1.2089 0.1638,-0.1699 0.4969,-0.2473 0.7361,-0.2664l-0.6516 0.9545c-0.1186,0.2089 -0.4162,0.9603 -0.4844,1.0324 -0.1325,0.1402 -1.6331,1.0054 -1.914,1.1483zm4.3082 -2.8282c-0.037,0.1579 -0.476,1.2566 -0.6073,1.3679 -0.158,0.134 -0.3492,0.2906 -0.5121,0.4209 -0.2054,0.1644 -0.2981,0.3292 -0.5645,0.4231 -0.063,0.1732 -0.0481,0.1081 -0.1906,0.1848 0.1343,-1.1829 1.3581,-2.8071 2.2588,-2.9596l-0.3843 0.5629zm-8.3301 0.3609c-0.0761,0.0472 -0.9771,0.4086 -1.0879,0.4448 0.3193,-0.395 0.9567,-1.1605 1.3788,-1.3351 0.1112,-0.1637 0.7139,-0.2324 0.9695,-0.2288 0.2896,-0.1676 0.9257,-0.2288 1.3158,-0.2352l-1.0639 0.8732c-0.246,0.2645 -0.2862,0.238 -0.6899,0.3006 -0.298,0.0462 -0.5348,0.1246 -0.8224,0.1805zm8.4884 3.7129c0.074,0.4382 -0.004,1.2751 0.0579,1.8395 0.0674,0.6156 0.2208,0.9911 0.3016,1.4828l-0.5055 -5.4089c0.3427,-1.4919 1.492,-3.5512 2.4068,-3.9966l0.0036 0.3672c0.0428,0.4213 -0.0623,0.4255 -0.2669,0.7007 -0.9064,1.219 -1.5673,2.6428 -1.8292,4.1786 -0.026,0.1519 -0.0478,0.3107 -0.0668,0.452 -0.0311,0.2326 -0.0194,0.2706 -0.1015,0.3847zm-1.5637 -5.3308c0.3131,-0.1458 0.7161,-0.5445 1.0751,-0.5761 0.1534,-0.1495 0.4676,-0.1037 0.7449,-0.0921 0.2357,0.0099 0.5041,0.0107 0.7338,0.0343 -1.2582,0.7849 -1.1527,0.8904 -2.7799,0.8349 0.129,-0.1401 0.0926,-0.1224 0.2261,-0.201zm5.7993 1.0375c-0.5231,-0.8266 -0.434,-1.7465 0.1705,-2.4519 0.2139,-0.2496 0.5602,-0.5227 1.0059,-0.6166 0.483,-0.1017 1.0134,0.0772 1.1142,0.4247 0.126,0.1045 0.0095,-0.0961 0.119,0.147 0.1469,0.3262 -0.0465,0.9479 -0.2477,1.2796 -0.2142,0.3531 -0.5208,1.0335 0.0385,1.2861l0.4081 -0.5537c0.3337,0.3819 0.4093,0.3974 0.5823,0.5874l-1.6241 0.1733c-0.2367,-0.0922 -0.4589,-0.3023 -0.5774,-0.4777 -0.2454,-0.3632 -0.1679,-0.6517 -0.1642,-0.6708l0.0369 -0.0979c0.0742,-0.3763 0.4254,-0.5801 0.8888,-0.6248 0.1326,-0.1307 0.1717,-0.0223 0.0913,-0.261 -0.0952,-0.2828 -0.941,-0.2883 -1.3879,0.4464 -0.4611,0.7581 -0.1601,1.2541 0.0716,1.7678l-0.5258 -0.3579zm-5.9745 -1.7393c-0.136,0.1919 -0.1315,0.1197 -0.3939,0.2712 -0.161,0.0928 -0.2312,0.1409 -0.4209,0.2188 -0.2943,0.1206 -0.6461,0.2296 -0.9792,0.2844 -0.2928,0.1465 -0.5944,0.2918 -0.7337,0.5111l0.8796 0.0687 0.2144 0.0796 -0.118 0.0882c-0.0724,0.161 -0.4373,0.5712 -0.5624,0.7 -0.2494,0.2567 -1.1315,0.2994 -1.8387,0.5508 -0.3178,0.113 -0.548,0.2554 -0.8326,0.3626 -0.2368,0.1982 -0.4874,0.3611 -0.6176,0.6442l2.3188 -0.5435 -0.1288 0.1698c-0.1218,0.3007 -0.3603,0.5505 -0.5373,0.9113 -0.231,0.4707 -0.3034,0.4467 -0.6481,0.7504 -1.0824,0.9539 -2.3415,2.6662 -2.9322,4.065l-0.3517 0.8728c-0.0601,0.0995 -0.0173,0.0423 -0.0881,0.1084 0.0078,0.1856 -0.0363,0.3708 -0.1137,0.501l0.5886 -4.5957c0.5678,-1.3759 1.3696,-2.4148 2.1946,-3.2285 0.5123,-0.5053 1.5996,-1.4236 2.2686,-1.8129 1.0157,-0.591 3.5177,-2.0178 4.6359,-2.0366l-1.8036 1.0589zm4.319 -1.4226c-0.133,0.5512 -0.3186,0.6601 -0.9135,0.7604 -0.4694,0.0792 -1.0931,-0.0254 -1.4965,0.0769 0.0366,-0.1489 0.0224,-0.0833 0.1563,-0.1576 0.781,-0.4393 1.246,-0.8368 2.385,-0.8844 -0.0493,0.1292 0.02,0.0978 -0.1313,0.2047zm-9.4645 1.8784l-0.6095 0.2391c1.1814,-1.0569 1.3513,-1.3215 2.8234,-2.09 0.5292,-0.2763 1.1681,-0.5194 1.8072,-0.6418 0.3488,-0.0668 0.7134,-0.1118 1.0767,-0.1238 0.2527,-0.0083 0.9743,0.0516 1.1264,0.003l1.6072 0.2132 -2.029 0.5224c-1.736,0.4795 -2.8443,1.3098 -3.5912,1.5492 -0.3297,0.1056 -0.7938,0.068 -1.1776,0.1099 -0.3735,0.0408 -0.6924,0.1645 -1.0336,0.2188zm11.9798 -2.5309c-0.5125,0.291 -0.7595,0.3565 -1.0834,0.7556 -0.0862,0.2062 -0.0301,0.0824 -0.1701,0.2795 -0.1291,0.1819 -0.3463,0.6204 -0.4122,0.811 -0.2129,0.6151 -0.0832,0.8572 -0.1641,1.4076l-0.2404 -0.5406c-0.0752,-0.7933 -0.1459,-1.1206 0.228,-1.8608 0.2864,-0.567 0.5884,-0.9037 1.0271,-1.2482 0.8248,-0.6479 2.1914,-1.035 3.5554,-1.0116 2.2491,0.0386 2.2512,1.0518 3.2167,1.3526 0.8056,0.251 1.1853,-0.2901 1.9418,-0.1276 0.6021,0.1293 0.8794,0.6676 0.9256,1.3532l-0.1628 0.673 -3.1234 -0.0581c-1.6944,-0.0244 -2.4398,-0.3388 -2.3715,0.5811l0.2361 0.3939c0.2137,0.0979 0.502,0.2857 0.7898,0.4017 0.7926,0.3196 1.9005,0.7789 2.7548,0.7551l-0.0636 0.1748c-0.3859,0.9486 -1.6824,0.2645 -2.4788,0.0286 -0.9994,-0.296 -1.7699,-0.4005 -2.1081,-1.3483l0.0059 -1.5645c-0.2171,-0.4209 -0.3878,-0.7885 -0.8172,-1.0491 -0.4681,-0.2841 -0.9294,-0.2686 -1.4856,-0.1589zm-11.2812 0.7309c-0.0447,-0.3627 0.2953,-1.2243 0.4955,-1.4734l1.2667 0.4089c-0.2899,0.1629 -1.6365,0.8875 -1.7622,1.0645zm9.1813 -1.2731c0.1905,0.1265 0.2061,0.1162 0.3027,0.2767l-2.148 -0.3253c-0.3014,-0.086 -1.4224,-0.6334 -1.5964,-0.8784 -0.1931,-0.0394 -0.3109,-0.1779 -0.5501,-0.2567 0.28,-0.0802 0.2619,-0.0339 0.5905,0.0092 1.6542,0.2166 1.9076,0.2421 3.4013,1.1745zm4.3908 -2.5607c0.0809,0.4041 0.2312,0.6712 0.3087,1.0069 -0.2003,-0.222 -0.7667,-1.4501 -0.8613,-1.8597 0.6242,0.2485 0.4188,0.1851 0.5526,0.8528zm-2.1795 0.415c0.1837,0.1834 0.4975,0.6679 0.5374,0.8915l-0.4083 0.1423 -0.7552 -0.9714c-0.1971,-0.2488 -0.5503,-0.7468 -0.6608,-1.0641 -0.1534,-0.2172 -0.4829,-0.8252 -0.5656,-1.1409 0.4716,0.5464 1.6482,1.7051 1.8525,2.1426zm17.4283 -1.4794c-0.0862,0.3508 -0.9159,1.0381 -1.1467,1.4867 0.3792,-0.1116 0.6046,-0.4165 1.1188,-0.5481 -0.0589,0.1718 -0.1243,0.3668 -0.2505,0.4415 -0.0623,0.2055 -0.0208,0.1609 -0.1519,0.2714 -0.0568,0.8944 -2.1491,2.508 -2.2448,2.8591 0.4547,-0.2045 1.4146,-0.6537 1.8631,-0.7481 -0.1002,0.1821 -0.2252,0.5213 -0.4444,0.569 0.0703,0.1039 0.0126,0.0095 0.06,0.1922 -1.356,1.9545 -2.5568,2.1281 -2.694,2.6591l2.2315 -0.5415 -0.4955 0.5688c-0.0302,0.2995 -0.0251,0.2617 -0.2111,0.3858 -0.4034,0.983 -2.4616,1.5177 -2.7472,2.1924l2.144 -0.4944 -0.205 0.3587c-0.1633,0.3346 -0.7655,0.8626 -1.1322,0.9724 -0.1389,-0.0936 -0.4107,-0.237 -0.4418,-0.3423 -0.0081,-0.0271 -0.0291,-0.0264 -0.0422,-0.041 -0.1236,-0.0075 -0.1133,-0.0956 -0.3291,-0.0969 -0.1497,-0.0009 -0.168,0.0517 -0.3412,0.0871l0.6385 -1.4483c0.0596,-0.2382 0.2843,-0.8243 0.4783,-0.9981 -0.0043,-0.1582 0.6387,-1.5928 0.7448,-1.6966 0.0529,-0.1994 0.1029,-0.3045 0.1825,-0.4967 0.0285,-0.0689 0.0692,-0.181 0.1047,-0.2437 0.0958,-0.1693 0.0303,-0.0775 0.1408,-0.1707 0.019,-0.2132 0.6585,-1.4997 0.7775,-1.5829 0.1019,-0.3124 0.5978,-1.392 0.7986,-1.5611 0.0143,-0.2612 0.3567,-0.7023 0.4887,-0.9515 0.1684,-0.318 0.3165,-0.6358 0.5102,-0.9284 0.1789,-0.2934 0.6188,-0.9553 0.8433,-1.1097l-0.3607 0.712 0.2751 -0.1252c-0.038,0.1937 -0.1004,0.3924 -0.1286,0.3337 -0.0048,-0.01 -0.0225,0.0233 -0.0335,0.0353zm-2.2393 1.8223c-0.0963,-0.6196 0.0712,-1.3451 0.3132,-1.7917 0.3427,-0.6324 0.7577,-0.831 0.9791,-1.1259l-0.5507 1.5524c-0.2264,0.3918 -0.5808,0.9253 -0.7416,1.3652zm2.2151 -3.1138c-0.0345,0.0782 -0.4456,0.6125 -0.5936,0.6878 0.5219,-0.8997 0.4536,-0.8069 1.0135,-1.5929 0.1074,-0.1509 0.1933,-0.4053 0.3562,-0.341l0.1161 0.1196c-0.0973,0.3016 -0.6808,1.0089 -0.8922,1.1265zm-20.0653 3.422c0.3306,0.201 1.0203,0.8263 1.2429,1.1568l-2.1133 -1.1126c-1.0467,-0.4423 -2.6277,-0.2022 -4.616,-1.7956 -0.3968,-0.318 -1.2507,-1.2403 -1.482,-1.7572 -0.207,-0.2749 -0.3914,-0.6972 -0.5345,-1.0034l1.7238 1.2486c0.521,0.3354 3.0414,1.398 4.0643,1.9954 0.4078,0.2382 1.5177,1.0123 1.7148,1.268zm21.1662 -4.9185c-0.1489,-0.052 -0.2205,-0.0846 -0.3302,-0.2046 0.1252,-0.1598 0.4131,-0.569 0.5444,-0.6556l0.3647 0.1987c0.1583,0.1679 0.2048,0.2017 0.0018,0.4698 -0.1359,0.1795 -0.2123,0.3129 -0.3665,0.4178l-0.2142 -0.2261zm-18.125 2.1821c0.2182,0.1475 0.3628,0.3865 0.4636,0.6172 0.0978,0.224 0.1783,0.49 0.2687,0.7301 0.2086,0.5542 0.6401,1.2095 0.5356,1.4206l-0.4162 0.062c-0.5636,-0.9803 -0.6281,-1.2429 -1.4224,-2.0476 -0.5199,-0.5268 -1.1238,-1.3329 -1.2901,-2.1178 -0.2674,-0.8595 -0.3767,-1.3215 -0.3197,-2.358 0.153,0.2011 0.1485,0.2946 0.243,0.5348 0.5489,1.3955 1.8539,2.8838 1.9375,3.1587zm18.7863 -3.6397c0.3961,0.2613 0.3253,0.1803 0.386,0.3785l-0.1234 0.1913c-0.2128,-0.1091 -0.3286,-0.1405 -0.4635,-0.3147l0.2009 -0.2551zm0.2062 -0.2659c0.3052,-0.2648 0.463,-0.4713 0.6556,-0.5392l-0.2921 0.8645 -0.3635 -0.3253zm-21.5569 5.0296c0.1939,0.1271 0.2964,0.376 0.4311,0.5798 0.1446,0.2186 0.2672,0.3788 0.4148,0.5756 0.2237,0.2983 0.6734,0.826 0.7982,1.1481 -0.8627,-0.627 -0.8826,-0.6567 -1.6755,-1.3186 -0.5519,-0.4607 -1.0628,-0.9109 -1.5956,-1.4144 -0.0649,-0.0678 -0.1115,-0.1109 -0.1847,-0.1814 -0.0461,-0.0444 -0.0785,-0.0734 -0.1206,-0.1247 -0.0777,-0.0945 -0.0108,0.0125 -0.0823,-0.1221 -0.1162,-0.0453 -0.1723,-0.1133 -0.2785,-0.209 -0.9212,-0.8299 -2.0664,-2.3233 -2.2306,-3.5505l-0.0885 -1.9297c-0.1255,-0.2203 -0.366,-0.3178 -0.5696,-0.0817 -0.3927,0.4558 -0.1649,2.0968 -0.0332,2.595 0.2767,1.0459 0.753,1.7311 1.3346,2.5585 -0.6843,-0.1003 -2.3227,-1.0306 -2.8183,-1.3672 -1.3339,-0.9056 -1.3117,-1.2493 -1.6065,-1.542l-0.6038 -0.3749c-0.3745,0.4159 0.2541,2.1956 0.4295,2.5893l1.288 1.9739c-1.4072,-0.3297 -1.7713,-0.7209 -2.6508,-1.2513l-0.9094 -0.4215c-0.6706,0.9876 2.7697,2.4446 3.8671,2.6605l1.8295 0.4032c-0.418,0.1095 0.3212,-0.0364 -0.1012,0.0263l-0.7228 -0.0371c0.2659,0.4988 0.9145,0.8293 1.0929,1.0689 0.2264,0.0745 0.5763,0.3042 0.7058,0.5009 -0.9696,0.0131 -1.4834,0.0883 -2.4131,-0.0926 -0.2033,-0.0395 -0.4931,-0.0721 -0.6705,-0.1743 -0.7148,-0.0421 -1.9787,-0.7269 -2.5199,-1.0607 -1.8331,-1.1304 -1.8369,-2.178 -2.3471,-2.1481 -0.8118,0.0475 0.2231,1.3756 0.5124,1.6488l2.1119 1.5702c-0.0494,0.3129 -0.317,0.7126 -0.4434,1.074 -0.9286,2.6543 0.5863,0.4487 -1.8343,2.8302 -0.5072,0.499 -1.7895,1.7859 -2.153,2.4535l-0.4124 1.0433c0.3466,0.2258 0.7853,-0.2368 1.4436,-0.5384l1.534 -0.6283c-0.2279,0.3982 -0.8273,0.9068 -1.3635,2.0816 -0.3983,0.8726 -0.6846,1.6382 -0.8298,2.6956 -0.1508,1.098 -0.155,2.1169 0.0512,3.1951 0.2723,1.4233 0.333,1.3156 1.1538,2.2465 0.3373,-0.2584 -0.0879,-1.4571 0.7017,-3.1507l1.38 -2.4443c-0.0359,0.3593 -0.3291,1.0905 -0.4301,1.5857 -0.6426,3.1509 0.3306,6.4129 2.5416,8.5944 0.1839,0.1815 0.9834,0.8856 1.1367,0.9628l0.7452 0.2254c0.3177,-0.6819 -0.6389,-0.9338 -1.0194,-2.3414l-0.5699 -3.0574c0.2077,0.2679 0.3626,0.7407 0.529,1.0568 2.1654,4.1136 6.7686,6.2588 11.4723,5.7716 1.4106,-0.1461 2.5093,-0.4572 3.7737,-0.9398 0.6246,-0.2385 0.5171,-0.3414 1.1679,-0.0781 3.1515,1.2749 7.3702,1.9415 9.9292,-0.3102 1.9736,-1.7366 2.7177,-4.2329 1.7734,-6.9606 -0.2772,-0.8006 -0.6739,-1.3587 -1.1224,-2.0742 1.3299,-1.2393 2.385,-2.8378 2.0462,-4.86 -0.1781,-1.063 -0.7417,-1.7137 -1.3329,-2.164l-2.8464 -0.6402c0.1331,-0.3928 0.4233,-0.7696 0.5872,-1.2143l0.3694 -1.3996 -0.516 0.1361c0.3169,-0.3665 0.6852,-0.5475 0.9484,-1.3255l0.4797 -1.9012 -0.4354 0.1885c0.5631,-0.6725 0.8906,-1.2675 0.9996,-2.2166 0.0677,-0.5897 -0.1585,-0.2047 0.0509,-0.5624 0.3252,-0.5552 0.0994,-1.5225 0.4594,-1.9944 0.4846,-0.6353 0.127,0.2178 0.8533,-0.7231 0.8132,-1.0536 0.1929,-0.6451 0.4852,-1.0283 0.3623,-0.4748 0.4418,-0.1534 0.6245,-0.9565l0.2196 -1.4572c-0.3993,0.088 -0.7079,0.3674 -1.0186,0.547 -1.2219,0.7066 -0.5798,0.9202 -1.0969,1.2342 -0.2895,0.1759 -0.6983,0.7152 -0.7422,0.8342l-0.0699 0.6314c-0.2237,0.1255 -0.2779,0.3302 -0.4273,0.5028 -0.1001,0.1158 -0.9839,0.4916 -1.7599,1.154 -0.4866,0.4154 -0.5669,0.4398 -0.5663,1.3531 0.0003,0.4543 0.2525,1.3922 0.1378,1.6409 -0.1027,0.179 -0.1566,0.2999 -0.2469,0.4691 -0.0361,0.0674 -0.0837,0.1752 -0.1187,0.2312 -0.0991,0.1585 -0.0332,0.0755 -0.1548,0.1624l-0.4712 1.0282c-0.192,-0.6524 -0.1145,-1.5517 0.0549,-2.159 0.1126,-0.4036 0.1754,-0.5034 0.3628,-0.8146l0.2106 -1.0139c-0.2778,0.1554 -0.6298,0.5426 -0.8549,0.7797 -0.4033,0.4249 -0.4597,0.3485 -0.5128,1.1335 -0.0336,0.4971 0.0145,1.0793 0.0967,1.5647 0.0417,0.2458 0.3937,1.1517 0.1768,1.3126 -0.0966,0.2479 -0.2288,0.4813 -0.3414,0.7124 -0.0696,0.1429 -0.1018,0.221 -0.1632,0.3627 -0.0172,0.0396 -0.0576,0.1309 -0.075,0.1595 -0.1148,0.189 -0.0247,0.0613 -0.1145,0.1413 -0.0136,0.2474 -0.2447,0.648 -0.3623,0.8638 -0.1179,0.3617 -0.4514,1.1956 -0.6607,1.4096 -0.2671,-1.0016 -0.4567,-1.4158 -0.4754,-2.4449 -0.012,-0.6557 0.037,-0.5462 0.0655,-0.8462 0.0024,-0.0246 0.0104,-0.0309 0.0182,-0.0451l-0.0114 -1.2233c-0.1482,0.093 -0.1097,0.0625 -0.2298,0.2571 -0.5713,0.9253 -0.733,1.3646 -0.6026,2.5561 0.1928,1.761 1.0822,2.283 0.7778,2.7736 -0.0729,0.2606 -0.286,0.9336 -0.5189,1.0061 -0.1507,0.1104 -0.6357,0.2134 -0.8116,0.2451l-0.3225 0.1298c-0.1009,-1.1289 0.032,-1.7038 0.311,-2.7431 0.0207,-0.0772 0.0955,-0.3692 0.1219,-0.4166 0.0313,-0.0564 0.0264,-0.1357 0.2034,-0.0605l-0.1588 -1.5291c-0.3717,0.4163 -1.2817,2.6389 -1.3125,3.4741l0.0465 1.5702c-0.2433,-0.078 -0.1166,0.0559 -0.3646,-0.6606 -0.3583,0.2597 -0.0315,0.7151 -0.6879,1.0635 -0.4875,0.2588 -0.6752,0.4009 -1.1194,0.7019 -0.9573,-0.6811 -4.257,-2.1238 -5.0922,-1.8483 -0.2741,0.0904 -0.2473,0.2295 -0.495,0.3784 -0.3583,0.2154 -0.6716,0.8395 -0.6385,1.0889 0.0829,0.6233 0.6029,0.9456 0.693,1.0582 0.1703,0.2128 0.1187,2.1613 0.1242,2.5088 0.4389,0.1985 0.9651,0.3704 1.4539,0.5829 0.4693,0.204 0.43,0.7244 0.5089,1.3872 -0.0384,0.0257 -0.029,0.0706 -0.2378,0.029 -0.3898,-0.0776 -1.6377,-0.6382 -1.9382,-0.8014 -4.4078,-2.3943 -1.8967,-9.1048 2.965,-7.5671 0.7353,0.2325 1.6763,0.7018 2.5281,0.3597l0.9763 -2.1255c-0.4286,-0.0355 -0.7942,0.1697 -1.4313,0.0447l-1.2141 -0.4087c0.5368,-0.2289 2.8366,-0.2917 3.0216,-0.2331l0.6939 0.3765c0.8036,-0.4897 1.4124,-2.9306 -0.3993,-3.7111 -0.6553,-0.2823 -1.0517,-0.108 -1.6833,0.0242 -1.092,0.2288 -0.9134,-0.651 -2.5389,-1.1648 -1.1119,-0.3515 -0.9127,0.229 -1.3657,-2.4696 -0.6971,-0.4318 -0.3826,1.2548 -2.7129,-2.1954 -0.4083,-0.6045 -1.1226,-1.911 -1.1632,-2.6992l0.0105 -1.2215c-0.3245,-0.0618 -0.4294,0.0706 -0.5637,0.2411 -0.6671,0.8468 -1.122,2.0034 -1.0425,3.0782l0.2053 1.4361c-1.6891,-1.3667 -2.165,-3.4676 -2.2573,-3.604l-0.5475 0.002c-0.4853,0.8233 1.3365,3.4535 2.3838,4.283 0.3278,0.2596 0.2455,0.2289 0.443,0.6664 0.123,0.2727 0.3252,0.5269 0.3618,0.7839z"/>
  <path class="fil6" d="M20.03 2.9347c0.5767,0.2153 2.479,-0.2501 4.8978,0.5793 1.6464,0.5645 1.5649,0.6495 2.8088,1.2725l0.9867 0.4077c0.2632,-0.4791 -0.109,-0.6469 -0.4627,-0.8721 -0.2956,-0.1882 -0.6381,-0.4127 -0.9832,-0.5896 -1.4927,-0.7652 -3.1799,-1.3342 -4.9078,-1.4269 -0.5226,-0.028 -0.9374,-0.0296 -1.4598,-0.0035 -0.5513,0.0276 -1.1177,-0.0082 -0.8798,0.6326z"/>
  <path class="fil6" d="M32.1952 12.8175c-0.0233,-0.9041 -0.202,-1.4789 0.0038,-2.4499 0.0808,-0.3811 0.2145,-0.6713 0.3563,-0.9898l0.1799 -1.2022c-0.187,0.0972 -0.6171,0.647 -0.7738,0.8436 -0.2895,0.3633 -0.4887,0.5482 -0.4789,1.1944 0.0168,1.1117 0.3333,1.7498 0.7127,2.6039z"/>
  <path class="fil6" d="M24.1934 10.7009c0.0174,0.8106 -0.6836,0.617 -0.8908,0.443 -0.4017,-0.3376 -0.148,-0.9611 0.3354,-0.7566 -0.1212,0.2345 -0.4749,0.6906 0.2731,0.653l0.2415 -0.3056c0.0064,-0.0243 0.0261,-0.0241 0.0408,-0.0338zm-1.4126 -0.4636c-0.1946,0.4445 -0.0721,0.8615 0.2329,1.1367 0.4854,0.4381 0.8083,0.2106 1.296,0.1579 0.1719,-0.3476 0.4435,-0.3026 0.3706,-0.893 -0.084,-0.2441 -0.1873,-0.3617 -0.3368,-0.5017 -0.9101,-0.2561 -0.8049,-0.4553 -1.5627,0.1001z"/>
  <path class="fil6" d="M30.4517 7.0973c-0.0983,0.3815 0.1238,0.5777 0.2887,0.8655 0.1023,0.1785 0.387,0.7525 0.6775,0.3907 0.2604,-0.3245 -0.4825,-1.2381 -0.51,-1.2587 -0.2256,-0.1691 -0.2534,-0.0245 -0.4562,0.0025z"/>
  <path class="fil6" d="M26.3392 12.2072c0.12,-0.0497 0.0575,-0.0155 0.1441,-0.0954 0.4474,-0.4125 0.2832,-0.2847 1.1744,-0.5323 -0.5445,-0.3912 -1.3032,-0.0584 -1.3185,0.6277z"/>
  <path class="fil7" d="M15.7667 35.93l0 -1.2417 0.7732 0 0 0.2926 -0.399 0 0 0.1809 0.3747 0 0 0.2929 -0.3747 0 0 0.1827 0.4276 0 0 0.2926 -0.8018 0zm2.5632 -0.6364c0,0.1257 -0.0263,0.2371 -0.0792,0.3337 -0.0529,0.0967 -0.1283,0.1715 -0.2264,0.2238 -0.0981,0.0526 -0.2113,0.0789 -0.3396,0.0789l-0.5255 0 0 -1.2417 0.5143 0c0.4377,0 0.6564,0.2016 0.6564,0.6053zm-0.3975 0.0033c0,-0.0606 -0.0121,-0.115 -0.0367,-0.1635 -0.0245,-0.0484 -0.0597,-0.086 -0.1052,-0.1126 -0.0455,-0.0266 -0.0993,-0.0399 -0.1611,-0.0399l-0.096 0 0 0.6565 0.1046 0c0.0895,0 0.1611,-0.0307 0.2143,-0.0922 0.0535,-0.0615 0.0801,-0.1443 0.0801,-0.2483zm0.9864 0.6331l0 -1.2417 0.3742 0 0 1.2417 -0.3742 0zm1.66 -0.9491l0 0.9491 -0.3757 0 0 -0.9491 -0.3473 0 0 -0.2926 1.0747 0 0 0.2926 -0.3517 0zm2.0954 0.3249c0,0.1247 -0.0269,0.2361 -0.0804,0.3345 -0.0538,0.0985 -0.1289,0.175 -0.2253,0.2294 -0.0963,0.0547 -0.2042,0.0819 -0.3239,0.0819 -0.1165,0 -0.2226,-0.0263 -0.318,-0.0792 -0.0958,-0.0529 -0.17,-0.1271 -0.2232,-0.2226 -0.0529,-0.0955 -0.0795,-0.2036 -0.0795,-0.3242 0,-0.1265 0.0269,-0.24 0.0804,-0.3411 0.0538,-0.1011 0.1292,-0.1791 0.2261,-0.2344 0.097,-0.055 0.2072,-0.0825 0.3307,-0.0825 0.1189,0 0.2253,0.0263 0.3193,0.0792 0.0937,0.0527 0.1661,0.128 0.2172,0.2259 0.0511,0.0978 0.0766,0.2089 0.0766,0.3331zm-0.3967 0.0103c0,-0.1023 -0.0195,-0.1827 -0.0588,-0.2418 -0.0393,-0.0588 -0.0928,-0.088 -0.1611,-0.088 -0.0745,0 -0.1324,0.028 -0.1741,0.0848 -0.0414,0.0564 -0.0624,0.1365 -0.0624,0.2397 0,0.1011 0.0207,0.18 0.0621,0.2364 0.0414,0.0565 0.0976,0.0849 0.1685,0.0849 0.0431,0 0.0822,-0.0127 0.1167,-0.0382 0.0346,-0.0254 0.0615,-0.0617 0.0807,-0.109 0.0189,-0.0473 0.0284,-0.1035 0.0284,-0.1688zm1.6307 0.6139l-0.0928 -0.2675c-0.0177,-0.0526 -0.0411,-0.094 -0.0698,-0.1238 -0.0283,-0.0302 -0.0594,-0.0453 -0.0928,-0.0453l-0.0147 0 0 0.4366 -0.3742 0 0 -1.2417 0.4971 0c0.1738,0 0.3021,0.0284 0.3848,0.0851 0.0828,0.0571 0.1242,0.1422 0.1242,0.256 0,0.0854 -0.024,0.157 -0.0721,0.2149 -0.0482,0.0576 -0.12,0.0996 -0.2152,0.1253l0 0.0036c0.0523,0.0162 0.096,0.0425 0.1312,0.0789 0.0349,0.0363 0.0662,0.0901 0.0937,0.1619l0.1224 0.316 -0.4218 0zm-0.0355 -0.8477c0,-0.0417 -0.0127,-0.0745 -0.0381,-0.0987 -0.0254,-0.0242 -0.0653,-0.0364 -0.1197,-0.0364l-0.0768 0 0 0.2841 0.0673 0c0.0503,0 0.0908,-0.0142 0.1212,-0.0426 0.0308,-0.0284 0.0461,-0.0638 0.0461,-0.1064zm1.0149 0.8477l0 -1.2417 0.3742 0 0 1.2417 -0.3742 0zm1.8107 0l-0.0547 -0.2285 -0.3706 0 -0.0588 0.2285 -0.4044 0 0.4277 -1.2417 0.4643 0 0.4026 1.2417 -0.4061 0zm-0.2356 -0.9715l-0.0085 0c-0.0012,0.0139 -0.0054,0.0366 -0.0122,0.0682 -0.0071,0.032 -0.0419,0.1682 -0.1049,0.4088l0.2373 0 -0.0866 -0.3375c-0.0121,-0.0497 -0.0203,-0.0964 -0.0251,-0.1395zm1.201 0.9715l0 -1.2417 0.3742 0 0 0.9491 0.4276 0 0 0.2926 -0.8018 0z"/>
  <path class="fil0" d="M32.2997 38.3298c0.2048,-0.1748 0.3644,-0.4462 0.5329,-0.6877 0.4044,-0.5799 -0.072,-0.3971 -0.0403,-0.7426l1.1277 -0.0665c0.4089,-0.0043 0.8713,-0.122 0.96,0.2065l-0.6411 0.3768c-0.1162,0.0925 -1.1501,1.5266 -1.288,1.722 0.3504,0.4486 1.0678,1.3998 1.4536,1.7887 0.4772,0.4811 0.5118,0.057 0.5918,0.5177l-1.6593 0.0428 -0.01 -0.4837c-0.034,-0.1203 -0.8182,-1.1846 -1.0934,-1.3511 -0.2752,0.1665 -0.9272,1.2308 -0.9612,1.3511l-0.01 0.4837 -1.6593 -0.0428c0.08,-0.4607 0.1146,-0.0366 0.5918,-0.5177 0.3858,-0.3889 1.1032,-1.3401 1.4536,-1.7887 -0.1379,-0.1954 -1.1718,-1.6295 -1.288,-1.722l-0.6411 -0.3768c0.0887,-0.3285 0.5511,-0.2108 0.96,-0.2065l1.1277 0.0665c0.0317,0.3455 -0.4447,0.1627 -0.0403,0.7426 0.1685,0.2415 0.3281,0.5129 0.5329,0.6877z"/>
 </g>
</svg>
