<?xml version="1.0" encoding="UTF-8"?>
<!DOCTYPE svg PUBLIC "-//W3C//DTD SVG 1.1//EN" "http://www.w3.org/Graphics/SVG/1.1/DTD/svg11.dtd">
<!-- Creator: CorelDRAW -->
<svg xmlns="http://www.w3.org/2000/svg" xml:space="preserve" width="175.599mm" height="44.0266mm" style="shape-rendering:geometricPrecision; text-rendering:geometricPrecision; image-rendering:optimizeQuality; fill-rule:evenodd; clip-rule:evenodd"
viewBox="0 0 175.599 44.0266"
 xmlns:xlink="http://www.w3.org/1999/xlink">
 <defs>
  <style type="text/css">
   <![CDATA[
    .fil0 {fill:#160202}
    .fil1 {fill:#160202;fill-rule:nonzero}
   ]]>
  </style>
 </defs>
 <g id="Capa_x0020_1">
  <metadata id="CorelCorpID_0Corel-Layer"/>
  <path class="fil0" d="M111.238 14.7045c8.0032,-2.1445 8.704,10.734 3.3473,12.5166 -7.5647,2.5174 -9.8672,-10.7696 -3.3473,-12.5166zm12.092 8.7944c3.7063,-14.7825 -18.6553,-18.8532 -21.1717,-5.168 -2.774,15.0866 17.563,19.5618 21.1717,5.168z"/>
  <path class="fil0" d="M63.3108 14.6623c8.0877,-1.9812 8.6723,10.8908 3.37,12.5644 -7.9115,2.497 -9.4981,-11.0634 -3.37,-12.5644zm12.039 9.1109c3.4694,-15.4365 -18.4736,-18.8983 -21.0624,-5.4582 -3.0269,15.7141 18.0502,18.8601 21.0624,5.4582z"/>
  <path class="fil0" d="M6.6355 18.1552c4.011,0.0732 1.4172,-4.6933 7.9824,-3.3558l-0.0011 9.7966c-0.0076,2.8816 0.4862,4.5363 -1.4298,5.8749 -1.1327,0.7912 -0.8318,-0.0563 -1.0215,1.3494l10.1172 -0.1674c-2.9855,-3.2915 -2.6453,-2.1925 -2.5951,-7.0569 0.0336,-3.2552 -0.099,-6.6477 0.0022,-9.8699l4.4387 0.9892c0.8577,1.2685 0.9456,2.577 2.7919,2.425 -0.0243,-0.7609 -0.0748,-7.7086 -0.4859,-8.3104l-1.8233 0.2508c-2.0703,0.5205 -9.9869,0.2157 -12.6576,0.2211 -3.8936,0.0081 -2.159,-0.8037 -4.2496,-0.6473l-1.0685 8.5007z"/>
  <path class="fil0" d="M78.3704 18.5409c4.0109,0.0731 1.4172,-4.6933 7.9824,-3.3559l-0.0012 9.7966c-0.0076,2.8817 0.4863,4.5364 -1.4298,5.8749 -1.1326,0.7913 -0.8317,-0.0562 -1.0215,1.3495l10.1172 -0.1674c-2.9854,-3.2916 -2.6452,-2.1926 -2.595,-7.057 0.0336,-3.2551 -0.099,-6.6476 0.0022,-9.8698l4.4387 0.9892c0.8576,1.2685 0.9456,2.577 2.7919,2.425 -0.0243,-0.761 -0.0748,-7.7086 -0.4859,-8.3104l-1.8233 0.2508c-2.0704,0.5204 -9.9869,0.2156 -12.6576,0.2211 -3.8937,0.008 -2.159,-0.8037 -4.2496,-0.6474l-1.0685 8.5008z"/>
  <path class="fil0" d="M43.2779 10.5136c-1.9173,-0.1207 -8.3544,-0.8711 -9.6655,0.0953l0.1557 0.4114c0.4893,0.8295 0.8844,0.6188 1.4581,1.2864 0.6489,0.7553 0.6367,1.711 0.6611,2.6794 0.0524,2.083 -0.0207,4.2276 -0.0236,6.3188 -0.0029,2.0647 0.0712,4.2795 -0.0088,6.325 -0.1483,3.7909 -2.0166,1.9713 -2.3352,4.221l12.9761 0.2527c1.2307,0.148 2.0545,0.7692 3.4309,0.544 1.2742,-4.2503 0.877,-2.9354 1.6195,-6.6626 0.4215,-2.1158 -0.0376,-1.6956 -0.2168,-1.8648 -3.7259,3.2166 -3.7523,4.2547 -10.2663,3.5192l-0.0007 -9.6256c-0.0149,-9.2517 1.5122,-4.6375 2.2155,-7.5002z"/>
  <path class="fil0" d="M160.522 10.5136c-1.9173,-0.1207 -8.3544,-0.8711 -9.6655,0.0953l0.1557 0.4114c0.4893,0.8295 0.8844,0.6188 1.4581,1.2864 0.6489,0.7553 0.6367,1.711 0.6611,2.6794 0.0524,2.083 -0.0207,4.2276 -0.0236,6.3188 -0.0029,2.0647 0.0712,4.2795 -0.0088,6.325 -0.1483,3.7909 -2.0166,1.9713 -2.3352,4.221l12.9761 0.2527c1.2307,0.148 2.0545,0.7692 3.4309,0.544 1.2742,-4.2503 0.8771,-2.9354 1.6195,-6.6626 0.4216,-2.1158 -0.0376,-1.6956 -0.2168,-1.8648 -3.7259,3.2166 -3.7523,4.2547 -10.2663,3.5192l-0.0007 -9.6256c-0.0148,-9.2517 1.5122,-4.6375 2.2155,-7.5002z"/>
  <path class="fil0" d="M45.2883 5.1784c2.0671,0.0128 4.2456,0.2845 5.7429,-0.5171l-3.5489 -1.8273 -42.2696 0.0126c-3.3064,0.3983 -5.1021,2.3075 -5.1945,5.9199l-0.0103 21.1177c0.1312,8.4414 -0.5023,9.9749 5.7533,9.9795l56.1709 0.007c4.3086,-0.0096 2.744,0.2647 7.1521,-1.2104 -6.0637,-0.9511 -5.0519,-1.0357 -10.9916,-1.0347l-48.4919 -0.0143c-4.3987,0.1977 -7.1843,-1.3074 -7.1327,-5.8074l-0.0057 -18.375c-0.3361,-5.749 2.0086,-8.4342 6.8642,-8.2498l35.9618 -0.0007z"/>
  <path class="fil0" d="M173.063 30.9814c-0.0138,3.088 0.8567,6.3202 -2.1321,6.6242 -2.264,0.2302 -50.1578,0.0068 -55.0811,0.0038 -4.6437,-0.0028 -6.9709,-0.7847 -7.0196,1.5508 1.1696,1.0494 2.3734,0.7053 4.2772,0.7009l44.0949 -0.0026c19.5851,0.0612 18.3423,1.6783 18.329,-9.9741 -0.0035,-3.1083 0.0054,-6.2164 -0.0021,-9.3247 -0.0076,-3.2 -0.0148,-6.3988 -0.0028,-9.5989 0.0128,-3.4278 0.5649,-6.0716 -1.8098,-7.4685 -2.0353,-1.1973 -14.7386,-0.6627 -18.1598,-0.6652l-28.493 -0.0076c-1.6666,-0.0077 -2.7189,0.1036 -2.6408,1.7826l8.4178 0.574c6.9317,0.2422 14.5369,-0.0089 21.8932,0.0074 21.1126,0.0466 18.3,-2.1485 18.322,7.9713 0.0064,2.9251 0.0061,5.8511 0.0034,8.7762 -0.0029,3.0167 0.017,6.0343 0.0036,9.0504z"/>
  <path class="fil0" d="M91.968 40.8332c2.0927,-5.869 -7.1977,-8.5929 -8.836,-2.8729 -1.7835,6.2273 6.8461,8.4538 8.836,2.8729z"/>
  <path class="fil0" d="M74.875 41.4224c3.3499,0.1456 3.1855,-2.8804 1.417,-3.3194 -2.0937,-0.5198 -3.0821,1.407 -1.417,3.3194z"/>
  <path class="fil0" d="M101.016 38.9031c-1.4999,-1.3965 -3.6455,-1.3738 -3.2762,1.7154l0.7976 0.7295c1.9194,0.1869 2.6896,-0.4784 2.4786,-2.4449z"/>
  <path class="fil1" d="M58.2079 5.9384l0 -5.8411 3.6374 0 0 1.3765 -1.8771 0 0 0.8509 1.7631 0 0 1.3779 -1.7631 0 0 0.8593 2.0119 0 0 1.3765 -3.7722 0zm12.0585 -2.9936c0,0.591 -0.1238,1.1151 -0.3726,1.5698 -0.2489,0.4547 -0.6035,0.8065 -1.0651,1.0526 -0.4616,0.2475 -0.9942,0.3712 -1.5976,0.3712l-2.4722 0 0 -5.8411 2.4194 0c2.0592,0 3.0881,0.9482 3.0881,2.8475zm-1.8701 0.0153c0,-0.285 -0.057,-0.5408 -0.1724,-0.7689 -0.1154,-0.228 -0.2809,-0.4046 -0.495,-0.5297 -0.2142,-0.1252 -0.4672,-0.1877 -0.7578,-0.1877l-0.4519 0 0 3.0881 0.4922 0c0.4213,0 0.7578,-0.1446 1.0081,-0.4338 0.2516,-0.2892 0.3768,-0.6785 0.3768,-1.168zm4.6405 2.9783l0 -5.8411 1.7603 0 0 5.8411 -1.7603 0zm7.8094 -4.4646l0 4.4646 -1.7672 0 0 -4.4646 -1.6338 0 0 -1.3765 5.0556 0 0 1.3765 -1.6546 0zm9.8573 1.528c0,0.5868 -0.1265,1.111 -0.3781,1.574 -0.2531,0.463 -0.6063,0.8231 -1.0595,1.079 -0.4533,0.2572 -0.9608,0.3851 -1.5239,0.3851 -0.5479,0 -1.047,-0.1237 -1.4961,-0.3726 -0.4505,-0.2489 -0.7995,-0.5979 -1.0498,-1.047 -0.2489,-0.4491 -0.374,-0.958 -0.374,-1.5253 0,-0.5951 0.1265,-1.129 0.3782,-1.6045 0.253,-0.4756 0.6076,-0.8426 1.0636,-1.1026 0.4561,-0.2587 0.9747,-0.388 1.5559,-0.388 0.559,0 1.0595,0.1238 1.5017,0.3727 0.4407,0.2475 0.7814,0.602 1.0219,1.0622 0.2406,0.4603 0.3601,0.9831 0.3601,1.567zm-1.8659 0.0487c0,-0.4811 -0.0918,-0.8593 -0.2767,-1.1374 -0.1849,-0.2766 -0.4366,-0.4143 -0.7578,-0.4143 -0.3503,0 -0.6229,0.1321 -0.8189,0.399 -0.1947,0.2656 -0.2934,0.6424 -0.2934,1.1277 0,0.4755 0.0973,0.8467 0.292,1.1123 0.1947,0.2656 0.4588,0.3991 0.7925,0.3991 0.203,0 0.3866,-0.0598 0.5492,-0.1794 0.1627,-0.1196 0.2893,-0.2906 0.3796,-0.5131 0.089,-0.2224 0.1335,-0.4866 0.1335,-0.7939zm7.6717 2.8879l-0.4366 -1.2583c-0.0835,-0.2475 -0.1933,-0.4422 -0.3282,-0.5826 -0.1335,-0.1418 -0.2795,-0.2127 -0.4366,-0.2127l-0.0695 0 0 2.0536 -1.7603 0 0 -5.8411 2.3387 0c0.8176,0 1.421,0.1334 1.8103,0.4004 0.3894,0.2683 0.584,0.6688 0.584,1.2041 0,0.4018 -0.1126,0.7383 -0.3392,1.0108 -0.2267,0.2712 -0.5646,0.4686 -1.0123,0.5896l0 0.0167c0.2461,0.0764 0.4519,0.2002 0.6174,0.3712 0.164,0.171 0.3114,0.4241 0.4407,0.7619l0.5757 1.4864 -1.9841 0zm-0.1669 -3.9877c0,-0.1961 -0.0598,-0.3504 -0.1794,-0.4644 -0.1195,-0.114 -0.3072,-0.171 -0.5631,-0.171l-0.3615 0 0 1.3362 0.317 0c0.2364,0 0.4269,-0.0668 0.5701,-0.2003 0.1446,-0.1334 0.2169,-0.3003 0.2169,-0.5005zm4.774 3.9877l0 -5.8411 1.7603 0 0 5.8411 -1.7603 0zm8.5185 0l-0.2572 -1.0748 -1.7436 0 -0.2767 1.0748 -1.9021 0 2.0119 -5.8411 2.1844 0 1.8937 5.8411 -1.9104 0zm-1.1082 -4.5703l-0.0403 0c-0.0055,0.0653 -0.025,0.1724 -0.057,0.3212 -0.0334,0.1502 -0.1974,0.7911 -0.4936,1.9229l1.1165 0 -0.4074 -1.5878c-0.057,-0.2336 -0.0959,-0.4533 -0.1182,-0.6563zm5.65 4.5703l0 -5.8411 1.7603 0 0 4.4646 2.0119 0 0 1.3765 -3.7722 0z"/>
  <path class="fil0" d="M135.983 17.2275c0.9634,-0.8223 1.7142,-2.099 2.5069,-3.2351 1.9024,-2.728 -0.3387,-1.8681 -0.1896,-3.4934l5.305 -0.3128c1.9235,-0.0202 4.0988,-0.5739 4.516,0.9714l-3.0158 1.7726c-0.5467,0.4351 -5.4104,7.1815 -6.0591,8.1007 1.6484,2.1103 5.0232,6.5849 6.8381,8.4144 2.2448,2.2632 2.4076,0.2682 2.7839,2.4354l-7.8057 0.2013 -0.047 -2.2754c-0.16,-0.5659 -3.849,-5.5726 -5.1436,-6.3559 -1.2946,0.7833 -4.3618,5.79 -4.5217,6.3559l-0.0471 2.2754 -7.8057 -0.2013c0.3763,-2.1672 0.5391,-0.1722 2.784,-2.4354 1.8148,-1.8295 5.1897,-6.3041 6.838,-8.4144 -0.6487,-0.9192 -5.5124,-7.6656 -6.059,-8.1007l-3.0159 -1.7726c0.4173,-1.5453 2.5925,-0.9916 4.5161,-0.9714l5.3049 0.3128c0.1491,1.6253 -2.092,0.7654 -0.1896,3.4934 0.7927,1.1361 1.5435,2.4128 2.5069,3.2351z"/>
 </g>
</svg>
