<?xml version="1.0" encoding="UTF-8"?>
<!DOCTYPE svg PUBLIC "-//W3C//DTD SVG 1.1//EN" "http://www.w3.org/Graphics/SVG/1.1/DTD/svg11.dtd">
<!-- Creator: CorelDRAW -->
<svg xmlns="http://www.w3.org/2000/svg" xml:space="preserve" width="58.42mm" height="58.42mm" style="shape-rendering:geometricPrecision; text-rendering:geometricPrecision; image-rendering:optimizeQuality; fill-rule:evenodd; clip-rule:evenodd"
viewBox="0 0 58.42 58.42"
 xmlns:xlink="http://www.w3.org/1999/xlink">
 <defs>
  <style type="text/css">
   <![CDATA[
    .fil0 {fill:black}
   ]]>
  </style>
 </defs>
 <g id="Capa_x0020_1">
  <metadata id="CorelCorpID_0Corel-Layer"/>
  <path class="fil0" d="M30.2666 22.7276l-0.0411 -0.4315 0.5935 0.0551c-0.21,-0.2532 -0.3781,-0.2325 -0.7627,-0.2862l0.2103 0.6626zm-2.7086 34.368c0.4917,0.4112 0.8223,0.1089 1.0606,-0.1875 0.2471,-0.3074 0.4873,-0.5441 0.7268,-0.812 0.7785,-0.8707 1.6401,-1.5659 2.3169,-2.2292 0.2291,-0.2246 0.5514,-0.4491 0.8025,-0.6634 3.0904,-2.6372 8.7005,-4.9428 12.8336,-8.2919 3.583,-2.9034 6.3656,-4.1259 10.3628,-6.2101 0.2674,-0.1394 0.8732,-0.3514 0.7553,-0.7125 -0.1367,-0.4189 -0.7981,0.0507 -1.062,0.1719 -1.8205,0.8363 -5.6684,2.6425 -7.0717,3.4881 -2.6192,1.5782 -4.5132,3.3284 -7.1125,4.9184 -3.2613,1.995 -6.4252,3.4484 -9.3234,5.7865 -1.2554,1.0128 -2.8172,2.4602 -3.7966,3.758 -0.2102,0.2784 -0.5402,0.5242 -0.4923,0.9837zm-18.4153 -20.9982c0.5755,0.0436 0.9282,-0.418 0.564,-0.9206 -0.245,-0.3381 -0.4958,-0.5788 -0.7676,-0.9292 -2.892,-3.7279 -3.771,-8.7799 -2.4077,-13.3759 0.2606,-0.8788 0.5635,-1.6928 0.9388,-2.4561 0.8212,-1.6706 1.1083,-1.4913 0.4883,-2.1989l-0.4445 0.014 -2.1184 4.6566c-0.5147,1.7992 -0.7137,4.079 -0.4983,6.0653 0.3007,2.7742 1.2746,5.1581 2.7554,7.3474 0.2703,0.3997 1.1564,1.555 1.49,1.7974zm-4.1112 7.383c0.6746,1.745 1.566,3.2404 2.5543,4.5318 1.2719,1.6619 2.0104,2.242 3.5273,3.5663 0.6418,0.5603 3.737,2.6839 4.5774,2.5019 -0.9058,-1.3651 -0.3338,-0.7237 -1.719,-1.5827 -1.8228,-1.1303 -1.549,-1.0796 -3.0317,-2.2107l-1.7181 -1.6721c-2.1525,-2.52 -4.0023,-5.9095 -4.3546,-9.4242 -0.1542,-1.538 0.0758,-1.4197 -0.7658,-1.4551 -0.7151,0.9022 0.5674,4.8065 0.9302,5.7448zm31.7879 8.7505c0.3552,0.2139 0.922,-0.2971 1.2212,-0.4687 1.0232,-0.5868 2.4141,-1.3607 3.4451,-1.8678 2.7123,-1.3343 11.1331,-5.8686 13.5972,-7.6607 -1.3489,-0.0515 -0.844,-0.1854 -2.2763,0.6277l-7.0237 3.9227c-2.0449,1.122 -5.2267,2.6898 -7.0887,3.8592 -0.7864,0.4939 -2.1092,1.0812 -1.8748,1.5876zm2.3615 3.1969c0.4209,0.2452 1.2372,-0.3289 2.0414,-0.7138 1.5452,-0.7397 3.9214,-2.267 5.1438,-3.2586 0.3186,-0.2584 0.5247,-0.4067 0.8267,-0.6392 0.7687,-0.5917 1.5642,-1.3569 2.2526,-1.9097l2.1733 -1.9894c0.2434,-0.2477 0.7881,-0.5548 0.3666,-0.9661 -1.4901,0.6624 -0.9603,0.4476 -2.0969,1.3948 -0.1486,0.1239 -0.1984,0.2254 -0.3438,0.3488 -0.8165,0.6928 -2.3851,2.057 -3.0634,2.5643 -1.4302,1.0694 -2.4591,1.9696 -4.0906,2.9244 -0.6044,0.3537 -1.1637,0.6639 -1.7838,0.9917 -0.775,0.4096 -1.6743,0.7305 -1.4259,1.2528zm-30.09 -39.6562c0.1402,-0.1986 0.2687,-0.2978 0.4213,-0.4797 0.9699,-1.1559 2.1112,-2.2299 3.4339,-3.037 2.095,-1.2783 3.8247,-1.6111 3.8898,-1.6455l1.0199 -0.9472c-0.4186,-0.4113 -0.5972,-0.2916 -1.6381,-0.0044 -3.1895,0.8801 -5.6263,2.5667 -7.6132,5.0371 -0.1653,0.2056 -0.4138,0.3967 -0.2815,0.7345 0.1048,0.2675 0.3866,0.3623 0.7679,0.3422zm21.2517 -6.9999c0.4818,0.4281 1.3425,0.8888 2.1608,1.6805 1.4904,1.4419 2.401,2.2978 3.5777,4.2842 0.19,0.3207 0.4897,0.953 0.7035,1.2263 0.3125,0.3996 1.1309,0.2415 0.866,-0.5467 -0.4199,-1.2494 -2.3125,-3.6448 -3.179,-4.6204 -0.66,-0.7432 -2.2607,-2.1013 -3.1905,-2.6674 -0.5885,-0.3583 -1.0184,-0.1219 -0.9385,0.6435zm8.2856 15.8672c0.2836,0.1494 0.6018,0.1685 0.964,0.1964 2.3497,0.1804 1.2111,-0.0852 2.31,1.0428 0.6198,0.6362 0.9885,0.2826 1.8602,0.3352l1.2846 0.9672c0.6691,0.0153 0.6297,-0.2586 0.4027,-0.7634 -0.3628,-0.8065 -1.2791,-2.075 -2.0426,-2.4303 -1.3391,-0.6232 -3.6814,-0.0709 -4.6312,0.5315 -0.1055,0.067 -0.0929,0.0703 -0.1477,0.1206zm-27.6546 -7.2461c0.7641,0.0991 1.0275,-0.6498 1.8276,-1.3516 2.6481,-2.3223 5.2468,-2.4738 5.4569,-2.5766l0.8311 -0.7996c-0.4348,-0.4076 -0.5602,-0.2885 -1.2655,-0.1662 -1.3742,0.2382 -2.6921,0.7363 -3.8522,1.3967 -0.3555,0.2024 -0.68,0.4298 -1.0206,0.6736 -0.6414,0.459 -1.2753,1.0968 -1.8053,1.6666 -0.3765,0.4048 -0.6605,0.599 -0.172,1.1571zm22.0778 39.5464c0.4415,0.3162 0.9318,-0.1319 1.3041,-0.3774 0.3893,-0.2566 0.7777,-0.5089 1.1616,-0.7662 0.7652,-0.5128 1.5516,-1.0082 2.3691,-1.486 0.8677,-0.5069 1.6151,-0.9254 2.4796,-1.3706 0.4532,-0.2334 0.8276,-0.4521 1.2601,-0.676 0.3673,-0.1902 1.1708,-0.4463 0.9424,-0.9073 -0.2292,-0.4624 -1.084,0.0622 -1.3955,0.2226 -2.8728,1.4796 -4.5855,2.3304 -7.2852,4.2818 -0.5816,0.4203 -0.9415,0.5477 -0.8362,1.0791zm-17.3654 -18.8888c-0.9255,-0.0253 -1.9742,-0.402 -2.7328,-0.7227 -1.1324,-0.4786 -1.7679,-1.1734 -2.2686,-1.1486l-0.3395 0.7178 2.7876 1.7117c1.1883,0.5768 2.8676,0.4242 3.797,0.5115 0.9575,-0.0552 1.9412,-0.3196 2.7328,-0.6512 0.4039,-0.1691 2.1875,-0.892 1.3672,-1.4318 -0.3285,-0.2161 -0.8688,0.1879 -1.1706,0.3256 -1.3556,0.6191 -2.688,0.7601 -4.1731,0.6877zm-4.7561 7.3693c-0.158,0.1686 -0.112,0.1173 -0.0724,0.3657l-0.4042 0.0793c-0.2349,-0.2225 -0.2387,-0.2991 -0.5829,-0.3901 0.1063,0.4475 1.4177,1.8453 1.715,2.0849 1.2999,1.0473 0.7302,0.7808 2.4003,1.1328 0.1316,-0.601 -0.2384,-0.6892 -0.5876,-0.9405 -0.5607,-0.4033 -1.2512,-0.9865 -1.7337,-1.5055 -0.2077,-0.2235 -0.5431,-0.6819 -0.7345,-0.8266zm-1.0595 0.0549c0.3442,0.091 0.348,0.1676 0.5829,0.3901l0.4042 -0.0793c-0.0396,-0.2484 -0.0856,-0.1971 0.0724,-0.3657 -0.0885,-0.2435 -0.103,-0.2278 -0.2458,-0.4284 -0.6711,-0.9431 -1.0457,-1.8551 -1.5414,-2.8857l-0.5911 0.2632c-0.0087,0.5826 0.2803,1.1813 0.4826,1.6589 0.1178,0.2779 0.2028,0.4886 0.345,0.7326l0.3002 0.5364c0.2184,0.2776 -0.1625,-0.1548 0.0829,0.0908l0.1081 0.0871zm28.4304 -28.7008c-1.279,-0.2042 -0.6171,0.9937 -0.4331,1.6562 0.1318,0.4747 0.3061,2.0018 0.6596,2.1337 1.5826,0.5909 0.0194,-3.5561 -0.2265,-3.7899zm-4.0038 -14.1176c-0.9384,0.507 -0.1574,1.7675 0.6555,1.318 0.9632,-0.5327 0.1613,-1.7592 -0.6555,-1.318zm19.6612 21.8356c-0.1123,0.0725 -0.2034,0.0441 -0.2601,0.3082 -0.1448,0.674 0.5262,0.9397 0.9054,0.6666 0.5748,-0.414 0.0799,-1.4432 -0.6453,-0.9748zm-37.1944 -2.8966c-0.037,0.4378 0.0122,0.7294 0.4679,0.705 0.4065,-0.0217 0.4775,-0.305 0.4334,-0.6679 -0.3423,-0.3844 -0.5216,-0.4288 -0.9013,-0.0371zm-2.317 12.5814c0.4066,0.3592 1.7223,0.4588 2.1956,0.5021 -0.1608,-0.1277 -0.1463,-0.0997 -0.4165,-0.161l0.0799 -0.395 0.3091 -0.0913 0.0008 -0.189c-0.73,-0.0229 -1.4525,-0.3959 -2.076,-0.5658 0.1203,0.1851 -0.1396,0.1507 0.1173,0.1507l-0.2072 0.3928 0.3011 0.1473 -0.144 0.1077c-0.0762,0.0664 0.0194,0.0589 -0.1601,0.1015zm2.6593 -0.304l0.1724 0.0401 0.6529 0.0717c0.0789,0.2018 0.0476,0 -0.0687,0.3608 -0.0871,0.2703 -0.0119,0.093 -0.1588,0.2993 0.3463,-0.0015 0.6916,-0.1056 1.0083,-0.1973 0.3745,-0.1085 0.6359,-0.1434 0.5006,-0.611l-2.1067 0.0364zm-2.6593 0.304c0.1795,-0.0426 0.0839,-0.0351 0.1601,-0.1015l0.144 -0.1077 -0.3011 -0.1473 0.2072 -0.3928c-0.2569,0 0.003,0.0344 -0.1173,-0.1507 -0.2314,-0.183 -1.1944,-0.5299 -2.0712,-1.4794 -1.422,-1.5401 -1.984,-2.4115 -2.5224,-4.708 -0.3722,-1.5876 -0.1508,-2.5721 -0.2951,-3.3005l-0.0942 -0.4097 -0.1053 0.1091c-0.3361,0.1893 -0.0052,-0.1717 -0.1088,0.0468l-0.1004 -0.3607 -0.088 0.0953c-0.0091,-0.0244 -0.0547,0.0331 -0.0817,0.0502l-0.006 -0.5518c-0.656,2.4265 -0.1585,5.1878 0.8749,7.2381 0.5388,1.0689 1.1356,1.8593 1.8635,2.5333 0.2107,0.1951 0.3179,0.3584 0.5514,0.5305 0.2691,0.1981 0.3944,0.3139 0.6257,0.4506 0.364,0.2153 1.066,0.645 1.4647,0.6562zm2.8378 0.5055l0.4193 -0.0376c0.1469,-0.2063 0.0717,-0.029 0.1588,-0.2993 0.1163,-0.3608 0.1476,-0.159 0.0687,-0.3608l-0.6529 -0.0717c-0.0236,0.261 -0.0729,0.4124 -0.162,0.5968 0.3368,0.0758 0.0351,-0.0217 0.1681,0.1726zm17.0047 18.8507c1.1036,0.984 1.0847,-1.4147 -0.0052,-0.3825l0.0052 0.3825zm-33.3949 -20.8287l0.2311 0.523 0.406 -0.0257 0.1806 -0.5447c-0.2925,-0.3601 -0.5192,-0.4065 -0.8177,0.0474zm55.8521 -1.8976c0.1536,0.2493 0.1288,0.2867 0.5037,0.2911 0.8215,-0.5701 -0.4518,-1.2822 -0.5037,-0.2911zm-0.3554 -7.6336c0.1107,-0.7805 -0.5717,-0.6469 -0.6838,-0.3652 -0.195,0.4905 0.2919,0.6526 0.6838,0.3652zm-40.1021 3.5134c-0.1566,0.5241 0.1932,0.8216 0.4895,0.5054 0.2789,-0.2977 -0.1084,-0.7137 -0.4895,-0.5054zm1.736 2.3593c-0.1345,0.4749 0.0193,0.6531 0.5011,0.5077 0.2139,-0.4542 -0.0458,-0.748 -0.5011,-0.5077zm13.232 -25.8938c0.4432,0.1881 0.823,-0.0579 0.5581,-0.4151 -0.182,-0.2454 -0.6687,-0.1939 -0.5581,0.4151zm-17.4992 40.3636l-0.054 0.4704c0.2726,0.1924 0.3196,0.1896 0.5807,-0.0084 0.0863,-0.4676 -0.2264,-0.6656 -0.5267,-0.462zm42.4984 -15.1086c0.4202,0.1923 0.7645,-0.0522 0.5384,-0.381 -0.1598,-0.2324 -0.6444,-0.252 -0.5384,0.381zm-17.6245 -24.5452l0.423 -0.0351c0.0597,-0.1752 0.057,-0.2845 -0.0145,-0.4667l-0.3705 0.0027c-0.1945,0.2534 -0.1705,0.242 -0.038,0.4991zm-9.8916 -2.2738l0.1702 0.1918 0.4784 -0.547 -0.5244 -0.1087c-0.1117,0.1966 -0.1305,0.1709 -0.1242,0.4639zm26.2997 15.9867c0.0754,-0.137 0.0568,-0.0812 0.0357,-0.3299 -0.5196,-0.068 -0.371,0.2839 -0.2569,0.347 0.2657,0.1472 0.2182,-0.0159 0.2212,-0.0171zm-0.423 2.6877c0.211,0.0119 0.3642,0.0422 0.3673,-0.175 0.003,-0.21 -0.1578,-0.1717 -0.3624,-0.1657l-0.0049 0.3407zm-0.4959 -7.2207c0.3176,-0.0154 0.4777,-0.269 0.0447,-0.3356 -0.1347,0.1995 -0.1203,0.0926 -0.0447,0.3356zm-13.441 22.7757c-0.2199,0.0018 -0.8995,0.4179 -1.2389,0.5225l-0.7691 0.4288c-0.3093,0.1513 -0.6654,0.367 -0.9902,0.529 -0.3579,0.1785 -0.6099,0.4107 -0.9689,0.5253 -0.5538,0.3959 -1.193,0.718 -1.7443,1.0747 -1.3069,0.8455 -2.139,1.4526 -3.3109,2.3844 -0.4402,0.35 -1.2289,0.9367 -1.5407,1.2764 0.224,0.2132 -0.0835,0.0025 0.1264,0.0674 0.2184,0.0676 0.1044,0.0017 0.4137,0.28l-0.2318 0.0817c0.0521,0.0728 0.0218,0.0501 0.1104,0.1136l0.2067 0.125c-0.1858,0.06 -0.1683,0.0655 -0.3231,0.2252 -0.0108,0.0112 -0.0264,0.0278 -0.0371,0.0391l-0.0511 0.2188c0.1889,-0.0675 1.5108,-1.2023 1.8673,-1.4888 0.9831,-0.7902 5.3442,-3.8814 6.1586,-3.9836 0.1342,-0.167 0.0939,-0.1327 0.3233,-0.2533 0.1111,-0.0584 0.1886,-0.0969 0.3042,-0.1554 0.2173,-0.1101 0.4455,-0.2473 0.6918,-0.2786 0.1661,-0.1983 0.3836,-0.2793 0.8498,-0.4909 0.2918,-0.1324 0.6481,-0.3404 0.9035,-0.36l0.9591 -0.4507c0.0848,-0.1025 0.004,-0.0413 0.1263,-0.1278 0.0955,-0.0675 0.0495,-0.0284 0.1551,-0.0783 0.1456,-0.0688 0.178,-0.0824 0.3068,-0.1185 0.0653,-0.0685 0.0416,-0.0605 0.1433,-0.1284 0.0623,-0.0416 0.0062,-0.0025 0.1033,-0.0537 0.0416,-0.0219 0.1482,-0.07 0.2061,-0.0979 0.2597,-0.1249 0.216,-0.1164 0.5597,-0.0991 0.1736,0.3237 0.6594,0.6441 0.8017,0.9674 -0.2889,0.3511 -0.2367,0.3496 -0.529,0.4748 -0.1663,0.1635 -0.2317,0.2216 -0.4761,0.2937 -0.1358,0.2029 -0.3357,0.2997 -0.5906,0.3941 -0.5951,0.4206 -1.2117,0.6988 -1.8633,1.1162l-1.0111 0.5264c-0.3765,0.1157 -1.9319,1.0589 -2.3779,1.3234 -2.644,1.5681 -4.2775,2.6531 -6.7218,4.4573 -0.482,0.3557 -2.207,1.6716 -2.6112,2.0907l-1.0083 0.8454c-0.4939,0.447 -1.8597,1.8616 -2.2707,2.3563l-1.6968 2.0244 0.7961 -1.6952c0.1557,-0.2956 0.807,-1.2569 0.8574,-1.5093l-0.0775 -0.0288c-0.0877,0.2744 -0.2988,0.5721 -0.5182,0.7575 -0.1257,-0.0911 -0.1336,-0.0354 -0.2229,-0.1655l0.0656 -0.209c-0.1812,0.0207 -0.0797,-0.0418 -0.3294,0.1613 -0.0141,-0.0175 -0.0329,-0.0699 -0.0366,-0.0564 -0.0033,0.0122 -0.0252,-0.0428 -0.0294,-0.0536 -0.0837,-0.2179 0.0552,-0.0588 -0.073,-0.201 -0.217,0.267 -0.4706,0.8204 -0.6665,1.1391 -0.9323,1.517 -1.1499,3.2845 -1.4527,3.9914l1.6494 -6.1224c0.4079,-0.8612 0.9097,-1.7587 1.4016,-2.4562 0.808,-1.1455 0.8474,-1.1715 1.6775,-2.1736 1.1737,-1.417 2.5245,-2.4776 4.0148,-3.6955 0.5413,-0.4423 3.933,-3.0521 4.5404,-3.1508 0.1935,-0.2737 0.5886,-0.428 0.8868,-0.5966 0.2159,-0.1221 0.6272,-0.404 0.9268,-0.423 0.1864,-0.228 0.2895,-0.2114 0.6099,-0.3571 0.1946,-0.0885 0.3626,-0.1574 0.5669,-0.2477l1.0765 -0.4337 0.1991 -0.099c0.0167,-0.007 0.1778,-0.0623 0.1831,-0.064 0.3433,-0.1094 0.712,-0.1068 1.0729,-0.0747 0.2936,0.0261 1.0808,0.2209 1.3015,0.3192l-1.3743 0.8476zm-21.4253 -28.1052c3.9195,0.1764 5.1803,0.2707 8.6679,2.3855 0.924,0.5602 1.6529,1.2892 2.1894,1.5833l1.2702 1.2812c0.3073,0.2852 1.0722,1.0714 1.1493,1.3659 0.3193,0.1867 1.3257,1.5562 1.4232,1.9499 0.1182,0.101 0.6264,0.7552 0.7763,1.3277 0.2171,0.2524 0.3911,0.695 0.4763,1.0553 0.0373,0.0307 0.0351,-0.0061 0.0971,0.1004 0.1223,0.2103 0.3182,1.0934 0.3173,1.2847 0.1961,0.2056 0.2259,0.6483 0.2444,0.9572 -0.3415,-0.4381 -0.1705,-0.2625 -0.5291,-0.5804 -0.1425,-0.1263 -0.0139,0.0021 -0.1252,-0.1304 -0.0107,-0.0127 -0.0305,-0.0265 -0.0381,-0.06 -0.0079,-0.0352 -0.0251,-0.0431 -0.0383,-0.0643 -0.3377,-0.3975 -0.8743,-0.5569 -1.1203,-1.1786 -0.1651,-0.3013 -0.3921,-0.6077 -0.5297,-0.9679 -0.1158,-0.0667 -0.6664,-0.8747 -0.79,-1.0977 -0.2008,-0.2309 -0.4343,-0.5826 -0.6511,-0.8472 -0.2266,-0.2764 -0.595,-0.6189 -0.6862,-0.8924 -0.196,-0.113 -0.4721,-0.4145 -0.6172,-0.579 -1.2639,-1.4325 -2.8427,-2.6564 -4.5455,-3.6241 -1.5195,-0.8635 -3.5644,-1.5729 -5.4142,-1.7114 -1.107,-0.083 -1.4388,-0.2025 -1.9228,0.225l1.1583 0.8072c0.1126,0.0388 2.1976,-0.0009 4.5736,1.1318 1.7828,0.85 2.8924,1.6214 4.2915,2.8743 0.0145,0.013 0.107,0.0954 0.118,0.108 0.0862,0.0989 0.0311,0.0367 0.0668,0.1241 0.3395,0.1591 0.6018,0.5255 0.8589,0.8048l0.2146 0.2911 0.247 0.1746c0.1696,0.1378 0.8719,0.9932 0.9522,1.1733 0.0159,0.0137 0.0373,0.0315 0.0471,0.0414 0.0097,0.0098 0.0335,0.03 0.0449,0.0422 0.243,0.2592 0.7076,1.006 0.8183,1.2992l-1.4781 -0.3983c-0.8462,-0.1308 -0.9686,-0.0167 -1.2837,-0.7301 -0.1612,-0.0214 -0.0454,0.0337 -0.2201,-0.1522 -0.0874,-0.093 -0.1232,-0.1289 -0.2219,-0.2388 -0.1855,-0.2064 -0.2723,-0.2569 -0.3719,-0.5127 -0.1245,-0.0679 -1.2271,-1.0139 -1.4153,-1.2934 -0.1182,-0.0303 -0.0524,0.0048 -0.1879,-0.081 -0.9482,-0.6002 -1.4032,-1.1045 -2.8601,-1.6926 -0.9437,-0.381 -2.776,-0.9842 -3.9124,-0.8825l-0.1994 0.6898c1.4137,0.5538 0.7337,0.2429 2.0312,0.575 1.3338,0.3414 2.4955,0.8707 3.6211,1.6283 0.3589,0.2416 1.2259,0.886 1.4358,1.1512 0.4514,0.3306 1.0108,0.9746 1.3287,1.4253 -0.2703,0.176 -0.2461,0.1393 -0.5557,0.2136l-0.6735 -0.8573c-0.3102,-0.363 -0.5377,-0.4569 -0.7229,-0.7835l-0.2655 -0.1531c-2.7855,-2.3448 -6.6532,-3.1705 -10.0869,-1.6794 -1.3635,0.5922 -2.5839,1.4142 -3.4521,2.5596 -0.1478,0.1949 -0.2378,0.2287 -0.39,0.457 -0.97,1.4545 -1.6245,2.755 -1.9966,4.8817 -0.7816,4.4681 1.1106,8.1733 3.6762,9.7309 3.6762,2.232 7.8049,0.5354 8.7998,-2.9319l0.164 -0.9998 -0.0337 -1.531c-0.1495,-0.1555 -0.2291,-0.5114 -0.2395,-0.7242 -0.1771,-0.1767 -0.1567,-0.1944 -0.2564,-0.4374 -0.0156,-0.0155 -0.0368,-0.0348 -0.0468,-0.0466l-0.6076 -0.7713 1.5454 0.6435 0.3259 0.5237c0.1791,0.1964 0.261,0.4354 0.3229,0.7709 0.1148,0.1934 0.1826,0.7263 0.2061,1.0006 0.0192,0.2248 0.0437,0.7046 0.0064,0.9305 -0.0339,0.205 0.0154,-0.0481 -0.0325,0.1289l-0.0539 0.0997c0.036,0.2186 0.0487,0.1681 0.0015,0.4239 -0.0036,0.0194 -0.0444,0.1783 -0.0489,0.1904 -0.0497,0.1335 -0.0507,0.1009 -0.1043,0.1706 0.0806,0.8527 -1.0848,2.4668 -1.4592,2.9746 -0.1781,0.2416 -0.8854,0.9552 -1.1124,1.1219 -0.4006,0.2944 -0.84,0.6146 -1.3541,0.8789 -2.1662,1.1135 -5.1022,1.0253 -7.1002,-0.2619 -1.7561,-1.1314 -3.0779,-2.593 -3.9758,-4.9604 -0.4302,-1.1343 -0.7114,-2.3847 -0.7511,-3.6995 -0.0627,-2.0746 0.4445,-3.4268 0.4293,-3.8923 0.1741,-0.2224 0.2135,-0.4719 0.3295,-0.8097 0.3973,-1.1559 0.3934,-0.4478 0.0605,-2.1456 -0.3993,0.3212 -0.9897,1.7075 -1.0889,2.2215 -0.2536,0.348 -0.6193,2.2892 -0.6877,2.8598 -0.1207,1.0069 -0.0975,2.3321 0.0544,3.3116 0.297,1.916 1.1029,3.7386 2.0045,5.1121 4.7506,7.2371 14.9061,4.5259 16.2991,-3.727 0.5865,-3.4746 -0.3926,-7.6783 -3.3199,-9.7161 -0.1518,-0.1056 -0.3517,-0.188 -0.4621,-0.3187 -0.446,-0.1321 -0.81,-0.3552 -1.3325,-0.5068 -0.4904,-0.1423 -1.0134,-0.2378 -1.5522,-0.2397 -3.2905,0.0538 -5.3898,1.3924 -6.914,3.9871 -0.1967,0.3348 -0.3342,0.738 -0.523,1.0172 0.8547,-2.005 0.8588,-2.5556 2.1031,-3.9073 0.9097,-0.9882 2.3845,-1.7359 3.8471,-1.9907 0.6928,-0.1207 2.9534,-0.2962 3.4935,0.2302 0.5747,0.008 1.9123,0.6096 2.1616,1.0068 0.3137,0.0677 0.4927,0.285 0.7251,0.4879 2.6503,2.3133 3.9694,6.0755 3.555,9.6514 -0.2107,1.8182 -1.1035,3.2805 -1.0165,3.8442l1.0302 -0.2139c0.579,-1.2184 0.9328,-2.4791 1.0825,-3.8634 0.3478,-3.2179 -0.7319,-5.0876 -0.7568,-5.7475 -0.0687,-0.0648 -0.8943,-1.7216 -1.0457,-1.9718 -0.1948,-0.3216 -0.4066,-0.6208 -0.6301,-0.9114 -0.9069,-1.1792 -2.5148,-2.7495 -4.2197,-3.2126 -1.0713,-0.3497 -2.2669,-0.5666 -3.467,-0.4934l-1.6443 0.1916c1.6905,-0.5476 2.2922,-0.9233 3.9492,-0.8202 0.3633,0.0226 1.041,0.0639 1.3135,0.2667 0.3512,-0.0003 1.5857,0.3716 1.8412,0.7006 0.5212,0.0643 1.2744,0.7684 1.6802,1.0637 1.3449,0.9788 2.7593,3.4492 3.2071,5.0263 0.1227,0.2123 0.2987,0.7763 0.4181,1.0571 0.598,1.4064 0.7548,1.7678 0.7872,3.6087 0.0665,3.7742 -1.0372,5.9284 -3.7281,8.1398 -0.29,0.2383 -0.5414,0.4729 -0.8468,0.696 -0.7621,0.5567 -2.3344,2 -3.2267,2.7094 -2.2905,1.821 -4.9515,2.6024 -7.9932,2.0041 -3.2679,-0.6427 -5.7639,-2.7886 -7.2014,-4.6582 -3.839,-4.9928 -4.6915,-11.8482 -1.8115,-18.519 0.5726,-1.3264 1.4882,-2.7341 2.2602,-3.67 0.4892,-0.593 0.9247,-1.0776 1.4414,-1.5681 0.6267,-0.595 0.6936,-0.7363 1.574,-1.3531 2.1944,-1.5376 6.0412,-3.0759 8.8311,-2.9436zm11.4334 3.1397c-0.1958,-0.3028 -0.591,-0.5433 -0.9021,-0.7684l-0.4882 -0.3495c-0.0135,-0.0094 -0.0324,-0.0221 -0.0459,-0.0318 -0.1044,-0.0741 -0.0416,-0.0305 -0.1376,-0.1023 -0.7028,-0.525 -1.5157,-0.9575 -2.3855,-1.3886 -1.37,-0.6789 -3.4171,-1.3552 -5.1773,-1.4822 -1.4524,-0.0038 -2.4352,-0.128 -3.9643,0.069 -1.4396,0.1854 -2.1541,0.3971 -3.5337,0.7397 0.1613,-0.1838 0.3262,-0.2398 0.5941,-0.3694 0.1832,-0.0886 0.4476,-0.2088 0.6308,-0.2903 1.5249,-0.678 3.2005,-0.8796 4.8888,-0.8809 2.2621,-0.0016 4.6863,0.4331 6.5762,1.1113 0.4612,0.1655 0.9271,0.3524 1.3681,0.5711 0.3487,0.1729 0.9656,0.6329 1.3165,0.3195 0.5267,-0.4703 0.0061,-0.8604 -0.4106,-1.0818 -0.425,-0.2258 -0.8484,-0.4212 -1.3216,-0.6068l-6.395 -1.3332c0.7777,-0.3296 3.0044,-0.2309 3.9545,-0.1457 2.5963,0.2326 4.3566,0.8807 6.5447,2.0088 3.4387,1.773 6.5959,5.7639 7.8083,9.3758 0.4761,1.4184 0.568,2.0142 0.8733,3.45l1.6468 -0.6549c0.0633,-0.949 -0.945,-3.3367 -1.4868,-4.2818l-0.7622 -1.3075c2.2552,-0.0115 3.907,1.244 5.3397,2.6663 0.5896,0.5853 1.1672,1.4819 1.53,2.4019l0.4943 3.5343c0.3619,0.3438 0.6438,0.8399 0.952,1.2605 0.7992,1.0903 4.2249,6.06 4.6056,6.8049l1.2876 3.1907c-0.7051,-0.0013 -1.4418,-0.3315 -1.682,-0.7144 -0.1527,-0.2435 -0.2037,-0.5921 -0.4592,-0.7051 -1.0299,-0.4549 -0.8074,1.6841 -0.111,2.1996l1.6524 0.8121c0.0945,0.396 -0.996,2.216 -2.7516,1.9912 -0.7752,-0.0993 -1.243,-0.4755 -1.5735,-0.9009 -0.2494,-0.321 -0.6068,-1.4168 -1.3051,-0.8275 -0.517,0.4363 0.1866,1.3883 0.4415,1.689 2.5657,3.0258 6.2642,0.4247 7.004,-2.7125 0.3611,-1.5311 -0.3334,-2.7877 -0.951,-3.7984 -1.249,-2.044 -2.5891,-4.0527 -3.9013,-6.06 0.6393,-1.191 1.0382,-1.1106 1.6569,-3.2851 0.9316,-3.2744 0.1807,-7.0999 -1.7264,-9.8898 -2.8784,-4.2108 -8.7694,-6.5415 -13.9878,-4.6838l-1.8107 0.7109c-2.6195,-1.7791 -4.4926,-2.7192 -7.7738,-3.3204 -5.3154,-0.9738 -10.9333,0.7368 -15.1718,3.7673 -0.8883,0.6351 -1.2578,0.986 -1.9962,1.5493 -0.3991,0.3045 -2.063,2.0814 -2.4024,2.4575 -0.7465,0.8275 -1.7078,2.3079 -2.3155,3.3104 -1.2921,2.1315 -2.4465,5.4902 -2.6549,8.5361 -0.2511,3.6685 0.2415,6.469 1.5556,9.4771 1.1918,2.7281 2.9365,4.8846 4.8492,6.3332l8.5888 2.6038c-0.1565,0.4815 -0.4772,1.0612 -0.6854,1.5923 -0.2294,0.5854 -0.3764,1.1549 -0.5078,1.7999 -0.3039,1.4926 -0.3127,2.7457 -0.0866,4.263l2.9507 6.198 0.747 -0.4279c-0.2371,-1.0565 -2.3998,-2.3882 -2.5498,-7.7042 0.0166,-1.0913 0.2595,-1.9274 0.521,-2.8572l0.3666 -0.926 0.3213 -0.7947c0.1485,-0.2725 0.3525,-0.5524 0.5159,-0.7182 0.1511,-0.3059 0.237,-0.385 0.5587,-0.5078 0.1512,0.1735 0.297,0.2937 0.467,0.4522 -0.0525,0.3614 -0.1385,0.5048 -0.3607,0.7201 -0.0443,0.2385 -0.1851,0.5753 -0.3586,0.768l-0.153 0.444c-0.0779,0.2286 -0.1465,0.4106 -0.2161,0.6469 -0.075,0.2546 -0.0996,0.4425 -0.2505,0.6427 0.018,0.3773 -0.1429,0.5567 -0.1083,1.0026l-0.0154 0.7162 0.5375 0.3784 0.1273 -0.3761 0.173 0.1751c0.3885,-3.3513 2.6352,-6.6331 4.9013,-8.7315 0.2707,-0.2507 0.5818,-0.5755 0.8819,-0.8143l3.1802 -2.8347c0.7594,-0.7001 1.3326,-1.4515 1.9169,-2.3237 0.1202,-0.1796 0.5857,-0.9613 0.674,-1.0261 0.1192,-0.3675 0.318,-0.6914 0.4709,-1.052 0.1121,-0.2645 0.2378,-0.6879 0.3734,-0.9524l0.2112 -0.9102 0.0283 -0.1729 0.0862 -0.6484 0.0438 -1.1493 1.2599 0.6455 -0.0959 1.5434c-0.0111,0.2947 -0.0172,0.5631 -0.1771,0.7562 0.0192,0.2309 0.0547,0.1258 -0.0727,0.2602 0.0222,0.2239 0.0225,0.2112 -0.055,0.442 -0.0065,0.0195 -0.0538,0.1509 -0.0666,0.1768 -0.0567,0.1148 -0.0569,0.0875 -0.1127,0.1529 0.0088,0.2811 -0.374,1.2508 -0.5727,1.5444 -0.066,0.0975 -0.0624,0.0735 -0.1263,0.1339 -0.0794,0.4506 -1.2346,2.0876 -1.6271,2.5039 -0.4685,0.497 -1.6331,1.8043 -2.09,2.1505 -0.4843,0.3671 -1.1866,1.0458 -1.6081,1.3961l-1.0006 0.8509c-0.6509,0.5038 -2.3773,2.3627 -2.9448,3.1469 -2.5501,3.5237 -3.7147,6.5166 -2.2944,11.1149 0.582,1.8845 0.6182,1.664 1.9623,2.8876 0.3288,-0.2745 1.222,-2.0309 1.6233,-2.6145 0.549,-0.798 1.5942,-2.2283 2.3121,-2.928 0.532,-0.5185 0.7056,-0.8808 1.6075,-1.6318 0.5198,-0.4328 1.0515,-0.9969 1.7316,-1.5074 0.9383,-0.7041 1.7194,-1.4274 2.978,-2.3412 0.806,-0.5851 1.6292,-1.1704 2.4937,-1.7436 1.871,-1.2405 3.1669,-1.9406 5.0116,-3.0074 0.2496,-0.1444 0.1454,-0.1142 0.3837,-0.1394 0.1884,-0.2501 0.6689,-0.4103 0.9237,-0.548 0.2574,-0.1392 0.7208,-0.4346 0.9533,-0.4787l0.4453 -0.29c0.3572,-0.1856 0.9197,-0.5668 1.2037,-0.6131 0.1744,-0.2377 0.1517,-0.1575 0.4175,-0.308 0.2316,-0.1312 0.2363,-0.1549 0.4666,-0.2206 0.1195,-0.2196 0.673,-0.5065 0.885,-0.5574 0.2907,0.3801 0.1776,0.3671 0.4812,0.5845l-0.6862 0.6752c-0.1859,0.2543 -0.5021,0.5376 -0.7968,0.7082 -0.0454,0.2183 -0.1133,0.1486 -0.3086,0.3137 -0.2708,0.229 -0.1191,0.1663 -0.4623,0.3067 -0.0456,0.1467 0.0071,0.0621 -0.1823,0.198 -0.131,0.094 -0.1671,0.1107 -0.2801,0.1891 -0.1986,0.1379 -0.3049,0.2103 -0.4962,0.3406 -0.3758,0.2559 -0.6871,0.5237 -1.1001,0.654 -0.0753,0.0854 -5.5128,3.322 -6.4294,3.929 -0.6484,0.4294 -1.9352,1.2632 -2.4816,1.6834 -1.4599,1.1228 -3.3215,2.4564 -4.6141,3.7137 -0.1863,0.1812 -0.3045,0.3436 -0.4839,0.5171 -1.2152,1.1758 -1.6008,1.6563 -2.6972,3.009 -0.0716,0.0883 -0.1667,0.2092 -0.2345,0.3052 -0.6198,0.8785 -0.653,1.1 -1.1243,2.1139 0.5965,0.5263 0.7939,-0.0695 1.3393,-0.8239 1.24,-1.7154 3.2994,-3.838 4.8731,-5.1456 1.6213,-1.3473 3.2729,-2.5636 5.0279,-3.758 2.3562,-1.6035 4.2362,-2.6512 6.6366,-4.0862 3.4716,-2.0752 3.126,-2.0158 5.9778,-4.766 -0.2236,-0.3639 -0.4069,-0.5545 -0.6528,-0.8437 -0.2461,-0.2895 -0.4466,-0.5378 -0.6807,-0.7816 -0.8696,-0.9058 -1.8117,-2.4697 -3.0553,-2.8778 -0.9455,-0.3103 -1.7401,-0.2273 -2.7366,-0.288 -1.8745,-0.1143 -3.1305,-0.8839 -4.0124,-1.9116 -1.1485,-1.3385 -1.0156,-3.0464 -1.1313,-4.8614 -0.7165,-0.2869 -2.8632,-0.1588 -4.4054,-2.1669 -0.2003,-0.2608 -0.6937,-1.0864 -0.734,-1.4725 -0.1214,-0.0889 -0.0546,0.145 -0.1226,-0.1993l-0.2103 -0.6626c0.3846,0.0537 0.5527,0.033 0.7627,0.2862 1.0918,0.3085 3.089,1.6479 3.3841,2.4659l0.9095 0.2147c0.0003,-0.0005 0.1567,0.0104 0.0485,-0.423 -0.0377,-0.1508 -0.1142,-0.3292 -0.1724,-0.4511 -0.2893,-0.6066 -1.1812,-1.6541 -1.7092,-1.9161l-3.587 -1.2083c-0.086,-0.2765 -0.2638,-0.6195 -0.2479,-0.9277 -0.0952,-0.1016 -0.0468,-0.0103 -0.1538,-0.2036l-0.2606 -0.659c0.7861,0.0329 1.1764,0.0121 1.9379,0.1502 0.3692,0.0668 0.3578,0.0495 0.5219,0.189 0.8632,-0.0409 2.5572,1.266 2.9657,1.6386l1.7828 2.9124c0.2586,-0.1932 0.3016,-0.4571 0.4138,-0.8791 0.2944,-1.1073 0.2997,-2.2555 0.0651,-3.3603 -0.2734,-1.2879 -0.8701,-2.6135 -1.4337,-3.5859 -0.6659,-1.1489 -1.3234,-2.0225 -2.0646,-2.9475 -0.6357,-0.7934 -0.8054,-0.8589 -1.3785,-1.4709 -0.2749,-0.2936 -0.8495,-0.8799 -1.1526,-1.0378zm18.7347 4.7603c-0.0206,0.2483 0.0747,0.5537 0.1025,0.7193 0.0372,0.2219 0.0616,0.4648 0.0843,0.68 0.0527,0.4978 0.0275,0.9354 0.0364,1.4232 0.0324,0.7787 -0.3818,3.0134 -0.7998,3.397 -0.338,-1.3386 -0.2276,-0.4903 0.0219,-1.9434 0.5894,-3.4328 -0.8456,-7.4775 -2.9145,-9.9354 -1.2177,-1.4466 -1.4218,-1.4257 -2.6183,-2.4763l4.1168 2.2116c0.3008,0.3001 0.5356,0.4338 0.849,0.7711 0.7776,0.8367 1.4584,1.734 1.9597,2.8186 0.7215,1.5607 1.1524,3.3833 1.0433,5.3529 -0.0512,0.9242 -0.2127,1.8324 -0.4948,2.6534 -0.1643,0.4783 -0.8553,1.9604 -1.1035,1.8918 -0.1561,-0.3332 -0.1446,-0.2413 0.0969,-0.7491 0.9246,-1.9442 0.8088,-3.6846 0.7564,-5.5705l-0.3884 -1.5661 -0.4372 -1.1826 -0.5017 -0.8788c-0.109,-0.4098 -0.3586,-0.519 -0.3984,-0.7567 -0.4799,-0.6808 -0.3013,-0.4965 -0.9905,-0.9619 -0.0471,0.3576 -0.0245,0.3687 0.1274,0.6506 0.0686,0.1272 0.0659,0.159 0.1219,0.2618 0.0085,0.0156 0.015,0.0359 0.0247,0.0509 0.0104,0.016 0.0205,0.0358 0.0321,0.0508l0.1605 0.1397c0.0581,0.1633 0.0945,0.2097 0.1719,0.3881 0.039,0.0897 0.0488,0.1451 0.088,0.2141 0.1625,0.2857 0.0159,0.0622 0.163,0.1852 0.0108,0.225 0.0482,0.2746 0.1338,0.525 0.0202,0.059 0.0646,0.2015 0.0756,0.2245 0.1566,0.3272 0.029,0.0781 0.1561,0.2125 -0.0145,0.2537 0.0475,0.3362 0.1214,0.6096 0.0618,0.2287 0.0645,0.422 0.2035,0.5891zm-40.3561 7.1559l0.006 0.5518c0.027,-0.0171 0.0726,-0.0746 0.0817,-0.0502l0.088 -0.0953 0.1004 0.3607c0.1036,-0.2185 -0.2273,0.1425 0.1088,-0.0468l0.1053 -0.1091 0.0942 0.4097c0.136,-0.2074 0.184,-1.1879 0.157,-1.3707 0.1809,0 0.0905,-0.2288 0.0762,-0.3442 0.0714,-0.0779 0.0674,0.0584 0.1372,-0.2627 0.0419,-0.1925 0.02,-0.1833 0.0095,-0.3544 0.0922,-0.0937 0.0349,0.0217 0.1081,-0.1436 0.1266,-0.286 0.2392,-1.2668 0.2803,-1.5766 -0.2565,0.384 -0.5786,0.6918 -0.7338,1.1776 -0.1336,0.1744 -0.2276,0.45 -0.318,0.6996l-0.1337 0.4808 -0.1672 0.6734zm27.7151 11.8873l-0.613 0.3167 -0.1969 0.0766c-0.1176,0.1323 -0.8042,0.5216 -1.0336,0.6586 -0.2852,0.1704 -0.823,0.4541 -1.0176,0.6109l1.2828 -1.6961c0.0695,-0.2036 0.1946,-0.3953 0.2849,-0.5822l0.2126 -0.4765c0.1247,-0.3031 0.2891,-0.5486 0.3939,-0.8015 0.5748,0.594 1.2481,1.0807 1.1601,1.6682l-0.4732 0.2253zm-1.8456 -2.3135c-0.0107,0.2248 -0.0532,0.3035 -0.1367,0.5269 -0.0279,0.0745 -0.0417,0.1332 -0.0879,0.2143 -0.1165,0.2047 -0.0645,0.101 -0.1618,0.1969 -0.0225,0.2175 -0.3464,0.8898 -0.6113,1.096 -0.0442,0.3499 -1.2895,1.8901 -1.5497,2.176l-0.925 1.002c-0.3215,0.3359 -0.5656,0.5548 -0.9227,0.9273 -0.5825,0.6078 -1.4971,1.2841 -2.0069,1.7716 -0.2294,0.2193 -0.327,0.2785 -0.539,0.465l-1.4323 1.3411c-0.3421,0.3363 -0.5969,0.6543 -0.9165,1.0117l-0.8619 0.9897c-1.6452,2.1526 -3.2885,4.4755 -3.8049,7.4483 0.0809,-2.9418 -0.1907,-3.6802 1.1365,-6.1885 1.4706,-2.7793 3.9109,-5.0652 6.2912,-6.9666 0.1987,-0.1588 0.2879,-0.2975 0.469,-0.4541 1.2998,-1.1243 2.1755,-2.0273 3.2028,-3.4328 0.1795,-0.2456 0.5115,-0.8921 0.729,-1.0661 0.0568,-0.2003 0.4523,-1.0306 0.6123,-1.2066l0.4297 -1.2188 0.4738 -1.4584c0.1759,0.4419 0.27,0.9544 0.4994,1.4345 0.2223,0.4652 0.6633,0.8786 0.1129,1.3906zm-15.1831 -7.3943c0.2468,0.162 0.302,0.1058 0.58,0.2232 0.203,0.0858 0.3644,0.1761 0.4855,0.281 0.9316,0.8068 1.2726,1.9872 1.0269,3.259 -0.6265,3.2426 -4.6658,4.4241 -7.4145,2.1247 -0.9827,-0.8221 -1.8248,-1.9904 -2.1441,-3.7801 -0.9905,-5.5523 4.872,-9.6079 9.0613,-6.8336 1.0787,0.7144 2.2426,2.1805 2.4719,3.514l-2.5099 0.0397c-0.7158,0.2319 -1.2902,0.6391 -1.5571,1.1721zm19.1995 -13.162l-0.7147 -0.9798c-0.2476,-0.3485 -0.5511,-0.6069 -0.7563,-0.9916 0.8465,0.328 2.0254,0.6649 2.7144,1.1932 0.1631,0.125 0.02,0.0298 0.1965,0.1858 0.2935,0.2594 0.2218,0.0739 0.5984,0.5649 0.2523,0.329 0.2239,0.1912 0.3039,0.457l-2.3422 -0.4295zm-1.5093 -3.7007c0.2768,-0.0125 0.4876,0.058 0.7648,0.1307 0.1227,0.0322 0.2191,0.063 0.3602,0.1083 0.2428,0.0778 0.1932,0.0438 0.3325,0.1603 1.2925,0.0709 4.2059,2.4414 4.3589,3.0323l0.333 0.3386c0.1649,0.2099 0.1621,0.1638 0.1996,0.3839 0.1317,0.0882 0.048,-0.0079 0.1905,0.1575 0.0075,0.0088 0.0807,0.1204 0.0898,0.1372 0.1004,0.1841 0.0801,0.1807 0.1052,0.3358 0.2766,0.2032 0.4058,0.6496 0.5061,0.9909 -0.2631,-0.1619 -0.461,-0.3642 -0.8113,-0.5228 -0.4542,-0.2055 -0.5521,-0.1858 -0.7408,-0.6477 -0.2146,-0.0935 -0.3227,-0.3854 -0.4403,-0.6167 -0.1566,-0.0677 -0.1193,-0.0652 -0.2142,-0.178 -0.0042,-0.0049 -0.0947,-0.1189 -0.106,-0.1352 -0.095,-0.1371 -0.0041,0.015 -0.1033,-0.1836l-0.8535 -0.7851c-0.9962,-1.0629 -2.3324,-1.4312 -3.0535,-1.8379l-1.3059 -0.2904 -0.8514 -0.1296 -0.3701 -0.5838c0.419,-0.0038 1.247,-0.107 1.6097,0.1353zm9.1309 4.843c0.1062,0.0917 0.0419,-0.0129 0.1633,0.1789 0.1673,0.2643 0.5244,1.2807 0.5334,1.5249 0.2241,0.2307 0.3534,0.8795 0.3159,1.2233 0.1525,0.2069 0.1664,0.5686 0.2016,0.8773 0.1009,0.1619 0.1308,0.9101 0.0875,1.2391l-0.9136 -1.5066c-0.0067,-0.0321 -0.0252,-0.0379 -0.0368,-0.0575 -0.0722,-0.2318 -0.1638,-0.2113 -0.2821,-0.4311 -0.0691,-0.1284 -0.1308,-0.3404 -0.1867,-0.5337l-0.2027 -0.7312c-0.182,-0.5899 -0.4817,-1.0496 -0.6929,-1.6207 -0.802,-1.5723 -1.8323,-2.7335 -2.934,-3.6634 -2.2194,-1.8734 -3.765,-1.8691 -4.3403,-2.2041 3.8047,0.5312 2.7307,0.0744 5.2573,1.7472 0.7612,0.504 1.1872,1.0665 1.7617,1.7966 0.3058,0.3886 1.2116,1.6767 1.2684,2.161zm-22.5079 36.4865c0.1282,0.1422 -0.0107,-0.0169 0.073,0.201 0.0042,0.0108 0.0261,0.0658 0.0294,0.0536 0.0037,-0.0135 0.0225,0.0389 0.0366,0.0564 0.2497,-0.2031 0.1482,-0.1406 0.3294,-0.1613l-0.0656 0.209c0.0893,0.1301 0.0972,0.0744 0.2229,0.1655 0.2194,-0.1854 0.4305,-0.4831 0.5182,-0.7575l0.0775 0.0288c0.1692,-0.0911 0.9839,-1.1828 1.1944,-1.449 0.6927,-0.8754 1.6945,-1.9717 2.516,-2.7269 0.2011,-0.1849 1.222,-1.1309 1.333,-1.3247l0.0511 -0.2188c0.0107,-0.0113 0.0263,-0.0279 0.0371,-0.0391 0.1548,-0.1597 0.1373,-0.1652 0.3231,-0.2252l-0.2067 -0.125c-0.0886,-0.0635 -0.0583,-0.0408 -0.1104,-0.1136l0.2318 -0.0817c-0.3093,-0.2783 -0.1953,-0.2124 -0.4137,-0.28 -0.2099,-0.0649 0.0976,0.1458 -0.1264,-0.0674 -0.6549,0.4033 -2.7441,2.585 -3.2742,3.1724 -0.586,0.6493 -2.4711,2.9184 -2.7765,3.6835zm-5.8106 -1.0299c0.1374,0.1962 0.0834,-0.2686 0.1264,0.2884 0.2137,-0.0101 0.18,-0.016 0.3638,0.0333 0.2728,0.0732 0.204,0.0564 0.3602,0.195l0.1505 -1.5937 -0.173 -0.1751 -0.1273 0.3761 -0.5375 -0.3784 0.0154 -0.7162c-0.1283,0.1168 -0.1263,0.2728 -0.1424,0.5012 -0.0143,0.2043 -0.0123,0.2307 -0.0307,0.4638 -0.0261,0.3304 -0.0169,0.6804 -0.0054,1.0056zm0.2959 1.9274l0.1676 0.2218 0.2383 -0.2631 0.0956 0.0622 0.0559 -0.9846 -0.6585 0.061c-0.0335,-0.0914 -0.0089,-0.0704 -0.0631,-0.1725 -0.0815,-0.1534 -0.0148,-0.0445 -0.1136,-0.1448l0.2778 1.22zm-0.2908 -1.5884l0.013 0.3684c0.0988,0.1003 0.0321,-0.0086 0.1136,0.1448 0.0542,0.1021 0.0296,0.0811 0.0631,0.1725l0.6585 -0.061 -0.0029 -0.447c-0.1562,-0.1386 -0.0874,-0.1218 -0.3602,-0.195 -0.1838,-0.0493 -0.1501,-0.0434 -0.3638,-0.0333 -0.043,-0.557 0.011,-0.0922 -0.1264,-0.2884l0.0051 0.339zm0.2908 1.5884c0.1162,0.6718 0.6956,1.6434 0.7154,1.9486 0.0223,-0.3709 -0.0487,-0.6186 -0.0875,-0.9923 -0.0287,-0.2759 0.0037,-0.7366 -0.1264,-0.9354l-0.0956 -0.0622 -0.2383 0.2631 -0.1676 -0.2218zm-1.9091 -15.633l0.6422 0.0034c-0.133,-0.1943 0.1687,-0.0968 -0.1681,-0.1726 0.0891,-0.1844 0.1384,-0.3358 0.162,-0.5968l-0.1724 -0.0401 -0.4904 -0.0302 -0.0008 0.189 -0.3091 0.0913 -0.0799 0.395c0.2702,0.0613 0.2557,0.0333 0.4165,0.161zm-14.0811 1.8018l-0.0402 0.4937c0.3614,0.244 0.8216,0.207 0.6685,-0.4485 -0.1569,-0.0879 -0.4424,-0.1826 -0.6283,-0.0452z"/>
 </g>
</svg>
