<?xml version="1.0" encoding="UTF-8"?>
<!DOCTYPE svg PUBLIC "-//W3C//DTD SVG 1.1//EN" "http://www.w3.org/Graphics/SVG/1.1/DTD/svg11.dtd">
<!-- Creator: CorelDRAW -->
<svg xmlns="http://www.w3.org/2000/svg" xml:space="preserve" width="50.8mm" height="50.8mm" style="shape-rendering:geometricPrecision; text-rendering:geometricPrecision; image-rendering:optimizeQuality; fill-rule:evenodd; clip-rule:evenodd"
viewBox="0 0 50.8 50.8"
 xmlns:xlink="http://www.w3.org/1999/xlink">
 <defs>
  <style type="text/css">
   <![CDATA[
    .fil0 {fill:none}
    .fil13 {fill:#3F224E}
    .fil5 {fill:#412150}
    .fil12 {fill:#C681CD}
    .fil2 {fill:#C985D0}
    .fil7 {fill:#D3598C}
    .fil3 {fill:#D3C5DF}
    .fil11 {fill:#EC7398}
    .fil6 {fill:#F489A6}
    .fil10 {fill:#FAFAFA}
    .fil4 {fill:#FAFAFD}
    .fil1 {fill:#FBC4E4}
    .fil9 {fill:#FBF4FB}
    .fil8 {fill:#FEF6FE}
   ]]>
  </style>
 </defs>
 <g id="Capa_x0020_1">
  <metadata id="CorelCorpID_0Corel-Layer"/>
  <rect class="fil0" width="50.8" height="50.8"/>
  <rect class="fil0" width="50.8" height="50.8"/>
  <g id="_396500464">
   <path id="_396502216" class="fil1" d="M37.3011 20.6821c0.6777,-0.1714 1.433,-0.0124 1.7833,0.4326 0.462,0.5869 -0.1916,1.1248 -0.7262,1.245 -1.8968,0.4262 -2.7879,-1.2399 -1.0571,-1.6776zm-24.6201 -0.0442c1.7565,-0.3452 2.4514,1.5081 0.7511,1.7621 -1.909,0.2851 -2.6122,-1.3964 -0.7511,-1.7621zm9.6263 -0.7579c0.4266,-0.1385 4.8521,-0.0383 5.707,-0.0438 1.1273,-0.0072 1.1525,0.7197 0.855,1.7758 -0.6668,2.3673 -3.4174,3.3782 -5.4592,2.0309 -1.3836,-0.913 -2.229,-3.3975 -1.1028,-3.7629zm10.4762 -2.8803c2.1067,-0.7366 3.4161,3.7933 1.1086,4.5475 -2.5049,0.8188 -3.153,-3.8325 -1.1086,-4.5475zm-15.5394 -0.0187c2.3442,-0.673 2.7779,4.259 0.4842,4.6283 -1.2298,0.1979 -2.0548,-0.8592 -2.03,-2.0732 0.0241,-1.1816 0.65,-2.298 1.5458,-2.5551zm-0.3935 -5.8527c0.5868,-0.3001 0.772,0.5538 0.2404,0.7626 -0.5603,0.2199 -0.8356,-0.4583 -0.2404,-0.7626zm0.9537 -2.1803c-0.1306,0.0887 -0.2628,0.2347 -0.4976,0.1986 -0.2103,-0.0324 -0.2903,-0.2334 -0.2127,-0.4654 0.0967,-0.2889 0.7776,-0.546 0.7103,0.2668zm-15.5297 10.7494c0.2346,0.0415 0.0713,-0.1036 0.1778,0.0828l-0.0655 1.0249c0.1495,0.321 0.3182,0.5347 0.5471,0.7793 1.1215,1.1987 1.5175,1.4806 2.89,2.4128 0.3769,0.2561 1.3764,0.6829 1.529,1.0572 0.1973,0.484 -0.095,4.9611 3.42,8.4646 1.5059,1.501 3.7426,2.7505 5.8074,3.4167 2.8169,0.9089 5.9637,1.4091 9.2237,1.3643 7.7509,-0.1066 16.4514,-2.9571 17.4827,-11.6176 0.1282,-1.0767 -0.0151,-1.685 0.5622,-2.0256 0.2689,-0.1586 0.5631,-0.3023 0.8504,-0.4725 1.0465,-0.6201 4.7179,-3.062 3.6657,-4.5068 -0.1375,-0.1885 -0.1861,-0.1266 -0.2047,-0.4362l0.2162 -0.1656 -0.2426 -0.1398c0.0341,0.0996 -0.0326,0.1309 0.0399,0.0817 -2.2461,-0.1463 -3.0261,-0.2828 -5.244,0.6368 -0.8558,0.3547 -1.0488,0.6175 -1.4152,0.2695l0.831 -0.9389c-0.5367,-2.0104 -0.4525,-2.0781 -1.4393,-3.9458 -0.5634,-1.0664 -0.9597,-1.5312 -1.6358,-2.4503 -0.8571,-1.1653 -2.1723,-2.3658 -3.4514,-3.2892 -1.0508,-0.7586 -2.1606,-1.3654 -3.4468,-1.9122 -4.09,-1.7387 -9.1509,-1.9425 -13.5119,-0.1491 -0.89,0.366 -2.8982,1.1865 -3.4852,1.852l1.1408 0.947c-0.078,0.8019 -1.1909,1.7207 -2.1257,1.9498 -0.3016,0.0739 -0.6457,0.0628 -0.8757,-0.1004 -0.2452,-0.1739 -0.2602,-0.394 -0.2436,-0.7599l-0.6835 0.7328c0.4129,0.2547 0.661,0.295 0.6291,0.8831 -0.0646,1.191 -1.7946,1.9196 -1.8978,0.8291 -0.0319,-0.3369 0.082,-0.3531 0.0802,-0.5602l-0.9419 1.2281c-0.6205,0.8731 -1.9868,3.7112 -1.954,4.6994 0.4903,0.2623 1.0763,0.4959 0.7518,1.0052 -1.1733,-0.055 -0.541,0.0475 -1.6147,-0.403 -1.1045,-0.4636 -2.5831,-0.7664 -3.8158,-0.5994 -0.4109,0.0556 -1.3582,0.3388 -1.5499,0.7554z"/>
   <path id="_396502528" class="fil2" d="M2.2746 19.6974c-0.2015,0.024 -0.2385,-0.0664 -0.2116,-0.2944 -0.3006,0.2317 -0.4137,0.7802 -0.4465,1.1341 -0.0442,0.4766 0.0251,0.9099 0.1299,1.3474 0.4909,2.0487 2.2121,4.0438 3.7058,5.2454 1.2753,1.026 1.3385,0.7456 1.328,1.6312 -0.0112,0.9495 0.0716,1.8719 0.2326,2.7656 0.3098,1.7197 0.9276,2.9824 1.7182,4.2538 1.5185,2.4419 3.9927,4.203 6.6819,5.3056 5.3224,2.1825 15.3382,2.1083 20.5731,-0.2593 4.1057,-1.8568 7.3434,-5.2731 7.9749,-9.9171 0.063,-0.4632 0.1074,-0.9045 0.12,-1.3743 0.009,-0.3292 -0.075,-1.2233 0.0586,-1.4369 0.1605,-0.2567 2.9308,-1.8517 4.3276,-4.6252 0.6093,-1.2098 1.3468,-3.6605 -0.0905,-4.3976l-0.2162 0.1656c0.0186,0.3096 0.0672,0.2477 0.2047,0.4362 1.0522,1.4448 -2.6192,3.8867 -3.6657,4.5068 -0.2873,0.1702 -0.5815,0.3139 -0.8504,0.4725 -0.5773,0.3406 -0.434,0.9489 -0.5622,2.0256 -1.0313,8.6605 -9.7318,11.511 -17.4827,11.6176 -3.26,0.0448 -6.4068,-0.4554 -9.2237,-1.3643 -2.0648,-0.6662 -4.3015,-1.9157 -5.8074,-3.4167 -3.515,-3.5035 -3.2227,-7.9806 -3.42,-8.4646 -0.1526,-0.3743 -1.1521,-0.8011 -1.529,-1.0572 -1.3725,-0.9322 -1.7685,-1.2141 -2.89,-2.4128 -0.2289,-0.2446 -0.3976,-0.4583 -0.5471,-0.7793l0.0655 -1.0249c-0.1065,-0.1864 0.0568,-0.0413 -0.1778,-0.0828z"/>
   <path id="_396502504" class="fil3" d="M41.8315 42.9883c-0.1343,0.2347 -0.0987,0.5339 -0.3367,1.0739 -0.1508,0.3423 -0.3113,0.5816 -0.5422,0.8416 -1.7918,2.0177 -6.3397,0.5586 -8.4503,-0.5313 -1.374,-0.7096 -0.8559,-0.6997 -1.9745,-0.5564 -3.1081,0.398 -7.1822,0.4334 -10.2922,0.0092 -0.556,-0.0758 -0.6047,-0.1841 -1.0852,0.0978 -2.0742,1.2168 -5.1228,2.3132 -7.531,1.8899 -1.1393,-0.2003 -1.8816,-0.8434 -2.3029,-1.7772 -0.2111,-0.4681 -0.2123,-0.8798 -0.3211,-1.0338 -0.1065,0.1848 -1.0192,0.2729 -1.4118,0.3537 -0.9644,0.1984 -4.1132,0.9376 -1.9215,2.0137 1.6041,0.7877 7.0184,1.3463 9.2625,1.5104 1.0928,0.0798 2.2351,0.1517 3.3278,0.2329 2.3025,0.1712 4.7358,0.1521 7.0546,0.1708 4.079,0.0328 15.9362,-0.3549 19.6887,-1.8746 1.3102,-0.5306 1.1291,-1.1792 -0.1413,-1.6241l-3.0229 -0.7965z"/>
   <path id="_396502720" class="fil4" d="M2.063 19.403c-0.0269,0.228 0.0101,0.3184 0.2116,0.2944 0.1917,-0.4166 1.139,-0.6998 1.5499,-0.7554 1.2327,-0.167 2.7113,0.1358 3.8158,0.5994 1.0737,0.4505 0.4414,0.348 1.6147,0.403 0.3245,-0.5093 -0.2615,-0.7429 -0.7518,-1.0052 -0.0328,-0.9882 1.3335,-3.8263 1.954,-4.6994l0.9419 -1.2281c0.0018,0.2071 -0.1121,0.2233 -0.0802,0.5602 0.1032,1.0905 1.8332,0.3619 1.8978,-0.8291 0.0319,-0.5881 -0.2162,-0.6284 -0.6291,-0.8831l0.6835 -0.7328c-0.0166,0.3659 -0.0016,0.586 0.2436,0.7599 0.23,0.1632 0.5741,0.1743 0.8757,0.1004 0.9348,-0.2291 2.0477,-1.1479 2.1257,-1.9498l-1.1408 -0.947c0.587,-0.6655 2.5952,-1.486 3.4852,-1.852 4.361,-1.7934 9.4219,-1.5896 13.5119,0.1491 1.2862,0.5468 2.396,1.1536 3.4468,1.9122 1.2791,0.9234 2.5943,2.1239 3.4514,3.2892 0.6761,0.9191 1.0724,1.3839 1.6358,2.4503 0.9868,1.8677 0.9026,1.9354 1.4393,3.9458l-0.831 0.9389c0.3664,0.348 0.5594,0.0852 1.4152,-0.2695 2.2179,-0.9196 2.9979,-0.7831 5.244,-0.6368 -0.0725,0.0492 -0.0058,0.0179 -0.0399,-0.0817 -0.5574,-0.6197 -3.076,-0.6096 -4.0502,-0.4596 -0.252,0.0388 -0.8602,0.2043 -1.0463,0.1881 -0.3047,-0.0263 -0.5205,-0.3065 -0.4794,-0.6584 0.0758,-0.6485 -0.1918,-1.2659 -0.4213,-1.8233 -3.8196,-9.2743 -14.7734,-13.9166 -24.8713,-9.2156 -2.1149,0.9845 -4.1954,2.676 -5.3586,4.085 -1.5931,1.9294 -2.6471,3.3819 -3.4947,5.9464 -0.1581,0.4784 -0.1926,0.4705 -0.129,1.0048 0.1219,1.024 -1.1859,0.5088 -1.5108,0.4636 -1.2944,-0.1797 -3.9938,-0.1771 -4.7094,0.9361z"/>
   <path id="_396502072" class="fil5" d="M27.3423 22.323c-0.2185,0.5143 -1.2063,0.9299 -1.9807,0.9302 -0.7955,0.0004 -1.7969,-0.4947 -1.8988,-0.968 -0.181,-0.1165 -0.2484,-0.2351 -0.2511,-0.4833 0.7142,-0.8714 3.5942,-0.8048 4.3926,0 -0.0023,0.2122 -0.0985,0.4075 -0.262,0.5211zm-5.035 -2.443c-1.1262,0.3654 -0.2808,2.8499 1.1028,3.7629 2.0418,1.3473 4.7924,0.3364 5.4592,-2.0309 0.2975,-1.0561 0.2723,-1.783 -0.855,-1.7758 -0.8549,0.0055 -5.2804,-0.0947 -5.707,0.0438z"/>
   <path id="_396501784" class="fil6" d="M23.4628 22.2852c0.1019,0.4733 1.1033,0.9684 1.8988,0.968 0.7744,-0.0003 1.7622,-0.4159 1.9807,-0.9302 -0.3379,-0.9618 -3.8602,-0.6141 -3.8795,-0.0378z"/>
   <path id="_396502000" class="fil7" d="M23.4628 22.2852c0.0193,-0.5763 3.5416,-0.924 3.8795,0.0378 0.1635,-0.1136 0.2597,-0.3089 0.262,-0.5211 -0.7984,-0.8048 -3.6784,-0.8714 -4.3926,0 0.0027,0.2482 0.0701,0.3668 0.2511,0.4833z"/>
   <path id="_396501520" class="fil8" d="M16.8506 11.1283c-0.5952,0.3043 -0.3199,0.9825 0.2404,0.7626 0.5316,-0.2088 0.3464,-1.0627 -0.2404,-0.7626z"/>
   <path id="_396501496" class="fil9" d="M17.8043 8.948c0.0673,-0.8128 -0.6136,-0.5557 -0.7103,-0.2668 -0.0776,0.232 0.0024,0.433 0.2127,0.4654 0.2348,0.0361 0.367,-0.1099 0.4976,-0.1986z"/>
   <g>
    <path id="_396501544" class="fil10" d="M32.7352 18.4326c0.1854,0.6728 1.1971,0.5743 1.0251,-0.2674 -0.1482,-0.7257 -1.2583,-0.5792 -1.0251,0.2674z"/>
    <path id="_396501112" class="fil10" d="M17.3601 17.7667c-0.6143,0.3102 -0.2587,1.3963 0.4348,1.054 0.5933,-0.2928 0.2722,-1.4109 -0.4348,-1.054z"/>
   </g>
   <g>
    <path id="_396500608" class="fil11" d="M12.681 20.6379c-1.8611,0.3657 -1.1579,2.0472 0.7511,1.7621 1.7003,-0.254 1.0054,-2.1073 -0.7511,-1.7621z"/>
    <path id="_396500560" class="fil11" d="M37.3011 20.6821c-1.7308,0.4377 -0.8397,2.1038 1.0571,1.6776 0.5346,-0.1202 1.1882,-0.6581 0.7262,-1.245 -0.3503,-0.445 -1.1056,-0.604 -1.7833,-0.4326z"/>
   </g>
   <g>
    <path id="_396501232" class="fil12" d="M33.7129 43.1775c0.7819,0.6723 3.5405,1.3799 4.8858,1.2164 0.9434,-0.1147 1.4571,-0.5788 1.6295,-1.4312 0.0985,-0.4874 0.0985,-2.4422 -0.1737,-2.7905 -1.6483,1.1454 -2.5705,1.7443 -4.5844,2.4562 -0.3016,0.1066 -1.6073,0.436 -1.7572,0.5491z"/>
    <path id="_396501136" class="fil12" d="M10.7252 40.1469c-0.2402,0.3804 -0.2341,2.3446 -0.1027,2.8734 0.4915,1.9783 2.9117,1.4483 4.373,1.056 0.4316,-0.1159 2.0137,-0.6217 2.1222,-0.8988 -1.2827,-0.3908 -2.2568,-0.6348 -3.4881,-1.2476 -0.5268,-0.2621 -1.0171,-0.5133 -1.5371,-0.8367l-1.3673 -0.9463z"/>
   </g>
   <g>
    <path id="_396500944" class="fil13" d="M10.7252 40.1469l1.3673 0.9463c0.52,0.3234 1.0103,0.5746 1.5371,0.8367 1.2313,0.6128 2.2054,0.8568 3.4881,1.2476 -0.1085,0.2771 -1.6906,0.7829 -2.1222,0.8988 -1.4613,0.3923 -3.8815,0.9223 -4.373,-1.056 -0.1314,-0.5288 -0.1375,-2.493 0.1027,-2.8734zm22.9877 3.0306c0.1499,-0.1131 1.4556,-0.4425 1.7572,-0.5491 2.0139,-0.7119 2.9361,-1.3108 4.5844,-2.4562 0.2722,0.3483 0.2722,2.3031 0.1737,2.7905 -0.1724,0.8524 -0.6861,1.3165 -1.6295,1.4312 -1.3453,0.1635 -4.1039,-0.5441 -4.8858,-1.2164zm14.4211 -24.2416l0.2426 0.1398c1.4373,0.7371 0.6998,3.1878 0.0905,4.3976 -1.3968,2.7735 -4.1671,4.3685 -4.3276,4.6252 -0.1336,0.2136 -0.0496,1.1077 -0.0586,1.4369 -0.0126,0.4698 -0.057,0.9111 -0.12,1.3743 -0.6315,4.644 -3.8692,8.0603 -7.9749,9.9171 -5.2349,2.3676 -15.2507,2.4418 -20.5731,0.2593 -2.6892,-1.1026 -5.1634,-2.8637 -6.6819,-5.3056 -0.7906,-1.2714 -1.4084,-2.5341 -1.7182,-4.2538 -0.161,-0.8937 -0.2438,-1.8161 -0.2326,-2.7656 0.0105,-0.8856 -0.0527,-0.6052 -1.328,-1.6312 -1.4937,-1.2016 -3.2149,-3.1967 -3.7058,-5.2454 -0.1048,-0.4375 -0.1741,-0.8708 -0.1299,-1.3474 0.0328,-0.3539 0.1459,-0.9024 0.4465,-1.1341 0.7156,-1.1132 3.415,-1.1158 4.7094,-0.9361 0.3249,0.0452 1.6327,0.5604 1.5108,-0.4636 -0.0636,-0.5343 -0.0291,-0.5264 0.129,-1.0048 0.8476,-2.5645 1.9016,-4.017 3.4947,-5.9464 1.1632,-1.409 3.2437,-3.1005 5.3586,-4.085 10.0979,-4.701 21.0517,-0.0587 24.8713,9.2156 0.2295,0.5574 0.4971,1.1748 0.4213,1.8233 -0.0411,0.3519 0.1747,0.6321 0.4794,0.6584 0.1861,0.0162 0.7943,-0.1493 1.0463,-0.1881 0.9742,-0.15 3.4928,-0.1601 4.0502,0.4596zm-39.1386 24.0661c0.1088,0.154 0.11,0.5657 0.3211,1.0338 0.4213,0.9338 1.1636,1.5769 2.3029,1.7772 2.4082,0.4233 5.4568,-0.6731 7.531,-1.8899 0.4805,-0.2819 0.5292,-0.1736 1.0852,-0.0978 3.11,0.4242 7.1841,0.3888 10.2922,-0.0092 1.1186,-0.1433 0.6005,-0.1532 1.9745,0.5564 2.1106,1.0899 6.6585,2.549 8.4503,0.5313 0.2309,-0.26 0.3914,-0.4993 0.5422,-0.8416 0.238,-0.54 0.2024,-0.8392 0.3367,-1.0739 -0.0539,-0.2652 0.1427,-1.5308 -0.2108,-3.2598 -0.2414,-1.1808 -0.1702,-0.5445 1.0803,-2.1344 0.3314,-0.4215 0.6607,-0.8814 0.9544,-1.3668l1.9884 -7.3643 1.5911 -1.317c1.4266,-1.2889 2.9568,-3.4735 3.4191,-5.5355 0.4548,-2.0285 -0.1901,-3.5388 -1.4221,-4.3043 -1.5603,-0.9695 -3.2151,-0.7709 -5.1453,-0.8028 -0.397,-0.656 -0.63,-2.4269 -2.7238,-5.3015 -3.5701,-4.9012 -9.2048,-8.0731 -15.9453,-8.0872 -7.6167,-0.0158 -14.3042,4.1863 -17.4836,10.5809 -0.5592,1.1248 -0.7391,1.6474 -1.1856,2.8138 -1.5744,0.0538 -3.4191,-0.3094 -5.1223,0.7651 -1.2732,0.8033 -1.9349,2.2441 -1.4849,4.2663 0.3403,1.5297 1.2151,2.9832 1.9859,3.985l3.0578 2.946c0.0985,0.6553 0.057,1.4676 0.1526,2.1699 0.369,2.7112 1.5517,5.1791 3.3211,7.1877 1.0789,1.2246 0.5941,0.2407 0.3692,2.5235 -0.036,0.3646 -0.0551,0.7175 -0.0599,1.099 -0.0045,0.3663 0.0843,0.8351 0.0276,1.1501z"/>
    <path id="_396499912" class="fil13" d="M17.3601 17.7667c0.707,-0.3569 1.0281,0.7612 0.4348,1.054 -0.6935,0.3423 -1.0491,-0.7438 -0.4348,-1.054zm-0.116 -0.7857c-0.8958,0.2571 -1.5217,1.3735 -1.5458,2.5551 -0.0248,1.214 0.8002,2.2711 2.03,2.0732 2.2937,-0.3693 1.86,-5.3013 -0.4842,-4.6283z"/>
    <path id="_396499888" class="fil13" d="M32.7352 18.4326c-0.2332,-0.8466 0.8769,-0.9931 1.0251,-0.2674 0.172,0.8417 -0.8397,0.9402 -1.0251,0.2674zm0.0483 -1.4329c-2.0444,0.715 -1.3963,5.3663 1.1086,4.5475 2.3075,-0.7542 0.9981,-5.2841 -1.1086,-4.5475z"/>
   </g>
  </g>
 </g>
</svg>
