<?xml version="1.0" encoding="UTF-8"?>
<!DOCTYPE svg PUBLIC "-//W3C//DTD SVG 1.1//EN" "http://www.w3.org/Graphics/SVG/1.1/DTD/svg11.dtd">
<!-- Creator: CorelDRAW -->
<svg xmlns="http://www.w3.org/2000/svg" xml:space="preserve" width="215.9mm" height="279.4mm" style="shape-rendering:geometricPrecision; text-rendering:geometricPrecision; image-rendering:optimizeQuality; fill-rule:evenodd; clip-rule:evenodd"
viewBox="0 0 215.9 279.4"
 xmlns:xlink="http://www.w3.org/1999/xlink">
 <defs>
  <style type="text/css">
   <![CDATA[
    .fil5 {fill:#29050A}
    .fil0 {fill:#937F82}
    .fil2 {fill:#CF7054}
    .fil6 {fill:#EEA67E}
    .fil3 {fill:#F9C2AD}
    .fil1 {fill:#FDE5CD}
    .fil4 {fill:#FFFAF6}
   ]]>
  </style>
 </defs>
 <g id="Capa_x0020_1">
  <metadata id="CorelCorpID_0Corel-Layer"/>
  <g id="_436499928">
   <g>
    <path id="_436499256" class="fil0" d="M154.601 124.491l-0.1734 -1.112c1.4141,-0.697 0.2013,0.1447 1.2827,-0.5159l-1.5128 0.2843c-0.0203,0.5014 -0.2281,-0.1304 0.0099,0.7059 0.2869,1.0078 0.1513,0.3711 0.3936,0.6377z"/>
    <path id="_436498752" class="fil0" d="M155.266 162.079l-0.1533 -0.5636 0.6597 0.0861c-0.2856,-0.2529 0.324,-0.3086 -0.9349,-0.3789 0.1734,1.1977 0.1593,0.5743 0.4285,0.8564z"/>
    <path id="_436499664" class="fil0" d="M59.0114 161.874c0.2876,-0.2965 0.3603,0.5154 0.2744,-0.7376 -1.2003,0.0785 -0.3323,0.0065 -0.6672,0.3378l0.4809 -0.0617 -0.0881 0.4615z"/>
    <path id="_436499496" class="fil0" d="M102.324 77.519c-0.0086,0.006 -0.5541,0.2723 -0.5556,0.2902l-0.3325 -0.6313 0.3153 0.9735 0.5728 -0.6324z"/>
   </g>
   <g>
    <path id="_436496304" class="fil1" d="M83.5345 144.921c0.8101,-3.0518 -2.2508,-4.8249 -5.0144,-4.9736 -8.2916,-0.4461 -9.4232,7.6053 -1.5145,8.3171 2.8141,0.2533 5.7847,-0.5394 6.5289,-3.3435z"/>
    <path id="_436496232" class="fil1" d="M130.474 144.921c0.5341,2.4893 3.6885,3.5233 6.6437,3.3477 2.8549,-0.1696 5.6753,-1.7098 5.1368,-4.9746 -0.411,-2.4926 -3.865,-3.5033 -6.768,-3.3177 -2.0725,0.1325 -2.5368,0.4699 -3.5983,1.3394 -0.9408,0.7707 -1.7497,2.041 -1.4142,3.6052z"/>
    <path id="_436496784" class="fil1" d="M29.1755 61.0108c0.7378,0.5333 2.6047,1.3918 3.3652,1.7811 0.7421,0.3799 1.0264,0.4678 1.6744,0.8892 0.7218,0.4693 0.8334,0.5373 1.7684,0.9914 1.6422,0.7975 4.5003,2.9357 6.5508,3.9713 0.8154,0.1872 1.3543,0.5598 2.106,0.8944 -0.4857,-0.8766 -0.3966,-0.0862 -0.7111,-1.175 -0.3597,-0.2095 -0.5727,-0.499 -1.0791,-0.8013 -0.3856,-0.2302 -0.7467,-0.3609 -1.2084,-0.7004 -1.0324,-0.1896 -1.188,-0.4826 -1.7332,-1.1569 0.2622,-0.6794 0.0166,-0.221 0.3958,-0.8422 -0.5484,-0.5737 -5.1159,-2.9718 -6.1062,-3.4636 -1.4526,-0.7214 -5.7296,-3.1302 -6.7902,-3.043 -0.3741,0.4772 -0.4749,0.4867 -0.4912,1.2882 0.7038,0.3944 1.74,0.8035 2.2588,1.3668z"/>
    <path id="_436498152" class="fil1" d="M132.511 95.1643l0.4555 -0.0631c-1.1291,0 -0.0272,0.1516 -0.3936,-0.4571 -0.864,-1.1456 -8.9251,-4.9274 -11.242,-4.9785l5.4878 2.6233c1.9522,0.8287 3.8973,2.0353 5.6923,2.8754z"/>
    <path id="_436497960" class="fil1" d="M141.967 108.801c0.7996,0.7028 1.0981,0.4578 2.0696,0.205 0.1066,-1.6517 -0.9469,-2.4202 -2.5382,-2.3506 -0.2375,1.0212 -0.2734,1.4936 0.4686,2.1456z"/>
    <path id="_436499424" class="fil1" d="M168.665 135.088l0.7591 -0.2187c-0.223,0.5705 -0.0362,0.199 -0.3367,0.7803 -0.4327,0.837 -0.0807,-0.1394 -0.4208,0.9025 1.4034,-0.7502 2.3797,-2.1162 3.3766,-3.3171l-0.4686 -0.0977c-0.5615,0.1469 -2.3613,1.2231 -2.9096,1.9507z"/>
   </g>
   <g>
    <path id="_436494624" class="fil2" d="M162.95 180.215c-0.4917,0.2709 -0.5838,2.3015 -0.7523,2.9381 -0.2687,1.0156 -0.5264,1.71 -0.9041,2.6326 -3.1283,7.642 -8.6849,9.9773 -9.7771,11.2502l0.8992 6.4854c0.0058,2.8461 -0.7361,4.473 -0.8905,6.8523l14.1369 -5.1743c4.0983,-2.4903 7.4397,-5.7991 10.0028,-8.7583 5.935,-6.8522 9.5758,-15.1319 11.5858,-26.0186 -0.7673,0.5037 -0.5645,0.7106 -1.226,1.3954 -2.4759,2.5631 -3.0133,3.2523 -6.0444,5.5524 -4.4211,3.3548 -10.8836,5.8412 -17.4095,5.8339l0.3792 -2.9891z"/>
    <path id="_436494456" class="fil2" d="M186.684 92.0199c-0.1636,0.1686 -0.1905,0.1572 -0.3728,0.4225 -0.173,0.2518 0.0056,0.0009 -0.1681,0.3023 -0.1642,0.2849 -0.1456,0.2952 -0.3166,0.5776 -0.2529,0.4173 -0.4538,0.6815 -0.7664,1.1113 -1.9611,2.6968 -2.4542,3.546 -4.9296,6.1816 -2.4317,2.5888 -5.0464,4.7069 -8.2616,6.7935 -5.4597,3.5431 -16.0812,8.1813 -22.4772,7.6391 0.7738,0.836 0.24,-0.0585 0.6147,1.0659 0.3504,1.0513 0.8129,1.9505 0.9293,2.8647l-0.6171 0.5235c6.2019,-0.0517 10.2873,-0.6328 15.5193,-2.6042 8.3666,-3.1525 16.4832,-9.1217 21.5909,-15.9381 2.7291,-3.642 5.3409,-7.2871 7.2782,-11.6697l-0.4935 -0.0961c-1.5144,1.1877 -3.2545,2.2546 -5.2699,2.6197 -1.7323,0.3138 -1.2547,-0.1403 -1.968,0.6176l-0.2916 -0.4112z"/>
    <path id="_436494192" class="fil2" d="M128.463 220.43c0.1861,0.1287 0.1707,0.1729 0.5158,0.3048 0.0229,0.0088 0.4914,0.1138 0.5496,0.1234 0.3848,0.0633 0.9312,0.0932 1.3292,0.1165 0.9199,0.0538 1.835,0.0586 2.7485,-0.0663 1.6967,-0.2318 2.829,-0.4804 4.3134,-1.0811 7.989,-3.2334 12.4625,-11.6799 10.2674,-20.9013 -8.0507,2.1854 -4.9952,0.9319 -8.6809,0.0527l-4.3458 4.0795c-0.6144,1.0287 -1.4463,8.2906 -4.4859,13.712 -0.5226,0.9322 -1.8784,2.7363 -2.2113,3.6598z"/>
    <path id="_436494480" class="fil2" d="M64.1509 119.448c-0.5309,-0.4175 0.7604,-0.2162 -0.8789,-0.4687l0.9952 -3.1571 0.5831 -0.8636c-2.7626,0.4996 -9.9207,-1.9375 -12.3116,-2.9104 -9.5437,-3.8832 -15.4847,-8.8812 -21.3261,-16.8785l-2.904 -4.5811 0.103 0.9457c-2.3635,-0.4428 -5.0793,-0.6027 -6.9172,-2.3654l-0.5228 -0.5341c-0.0282,-0.1033 -0.1177,-0.0954 -0.1769,-0.1427 0.2819,0.7951 1.0933,2.416 1.4879,3.081 2.0486,3.452 2.5806,4.742 5.4278,8.4798 7.6629,10.0598 18.8605,17.4516 31.741,19.287 1.9018,0.271 2.9548,0.0213 4.6995,0.1081z"/>
    <path id="_436495368" class="fil2" d="M66.4129 199.075c-0.9518,7.1218 1.4166,12.3622 4.9837,16.421 3.3014,3.7566 10.2489,6.5387 14.9114,5.3699 0.839,-0.2104 0.5707,-0.2495 0.7895,-0.4357 -2.5088,-4.3711 -3.9438,-6.536 -5.6853,-11.4645 -1.252,-3.5435 -1.038,-5.4209 -2.3198,-6.2415 -2.1368,-1.3681 -3.5807,-3.2194 -4.5172,-3.8335 -6.8308,1.9724 -3.3427,0.9333 -8.1623,0.1843z"/>
    <path id="_436495560" class="fil2" d="M87.0273 166.913c0.5049,-0.0247 7.3901,1.6628 9.4782,2.0066 17.0516,2.8067 29.0731,-2.247 30.6777,-1.9433l-0.8086 -0.978c-0.0338,-2.2701 0.8469,-2.1713 2.663,-2.7704 1.3185,-0.435 2.6989,-0.8263 3.9828,-1.307 6.9884,-2.6167 14.0456,-8.0039 16.9815,-15.082 -1.0718,0.7849 -4.1813,6.7144 -12.0784,11.3917 -2.7458,1.6262 -5.4849,2.518 -7.9883,3.6204 -6.0715,2.6737 -16.3679,4.1075 -22.9325,4.1083 -10.5118,0.0013 -21.9608,-2.7116 -30.9197,-7.9688 -2.2339,-1.3108 -4.6836,-3.2182 -6.5885,-4.9651 -0.809,-0.7421 -1.0741,-1.3217 -1.8795,-2.0824 -2.5286,-2.3882 -2.618,-3.7023 -3.424,-4.4001 1.3048,4.8879 6.0612,8.9629 9.9861,11.7363 4.1182,2.9097 10.9015,4.7882 11.0843,4.9153l2.51 3.0956c-0.0119,0.0095 -0.3547,0.2664 -0.3557,0.2673l-0.3884 0.3556z"/>
    <path id="_436495080" class="fil2" d="M110.896 221.229c0.0725,-0.7362 0.6781,-0.2386 3.2678,-0.6717 1.2838,-0.2147 1.8064,-0.6498 2.7574,-1.0984l6.8562 0.2315 0.0754 0.5671c2.1076,-1.2906 6.8916,-11.0507 7.0371,-14.4285 -6.4017,2.7001 -4.9095,1.0621 -6.5156,1.5123 -0.9308,0.2609 -5.0496,3.5022 -9.7806,4.9084 -2.8892,0.8588 -3.7185,0.3822 -4.0834,1.7861 -0.4743,1.8253 -0.7326,5.4016 0.1214,6.9256 0.0202,0.036 0.1083,0.1738 0.1244,0.1371 0.0167,-0.038 0.0952,0.0851 0.1399,0.1305z"/>
    <path id="_436495800" class="fil2" d="M91.9459 220.429l-0.388 -0.8178c2.3476,-0.2191 3.9883,-0.929 6.5535,-0.0964 3.8763,1.2583 0.8543,0.7634 6.0605,1.4749l-0.4108 0.8299c2.2006,-1.3655 1.2611,-7.4377 0.6989,-8.5699 -3.0564,-0.6765 -5.1025,-0.9925 -7.963,-2.2385 -2.4994,-1.0886 -4.3793,-2.4121 -6.4029,-3.7345l-3.0932 -0.177c-0.9303,-0.2839 -1.5057,-0.6422 -2.451,-0.8331l7.396 14.1624z"/>
    <path id="_436497552" class="fil2" d="M100.577 103.691c1.231,1.1024 3.4078,1.0843 5.2717,0.9206 0.8944,-0.0786 1.5192,-0.2365 2.3018,-0.6878 0.8289,-0.4779 1.0727,-0.832 1.7349,-1.1594 -3.6938,-1.927 -0.8678,-0.8107 -5.6625,-0.8107 -2.7071,0 -2.6541,-0.3086 -3.6822,0.5588l0.0363 1.1785z"/>
    <path id="_436497816" class="fil2" d="M90.2957 107.396c1.9528,-1.0306 6.0423,-0.0776 6.1584,-2.5467 -0.7431,-0.7035 -0.865,-0.6449 -2.1833,-0.6776 -0.932,-0.023 -1.8581,-0.0148 -2.7871,-0.029 -1.8354,-0.028 -3.3051,-0.4691 -4.9826,-0.6678 1.555,1.2289 5.4837,0.488 3.7946,3.9211z"/>
   </g>
   <g>
    <path id="_424951192" class="fil3" d="M55.8895 170.572l-0.4206 0.9148c-0.0932,0.3246 -0.178,0.639 -0.2721,1.0353 -0.5608,2.3597 -0.6849,5.215 -0.3321,7.6102 0.4595,3.1197 1.6941,5.7199 3.264,7.8782 1.6483,2.2661 3.4156,3.7952 5.5584,5.3259l7.8519 2.7636c0.1202,-1.4249 -1.4548,-4.1715 -1.5924,-6.7038l1.4337 -6.8782c0.5618,0.7302 1.4137,9.2958 4.8052,12.6688l10.2422 7.7069 -1.4643 -3.662c0.887,0.2233 3.151,2.6277 4.5593,3.702 1.5438,1.1776 3.0793,2.1551 4.9365,3.1693 9.1081,4.9741 15.9913,5.3345 25.2297,0.1385 4.6272,-2.6025 5.6432,-3.8543 9.3051,-7.0833l-1.4489 3.9663c4.1506,-0.8636 11.849,-7.7033 13.4374,-13.1269l1.5864 -7.1776c0.3374,0.2164 0.4087,-0.185 0.9239,1.3654 0.6318,1.9008 0.9397,3.4052 0.8203,5.4466 -0.0555,0.9484 -0.9478,4.8316 -1.2397,6.5576 1.9489,1.0358 6.5006,-2.1886 7.7368,-3.0646 2.0501,-1.4527 4.1758,-3.5555 5.5463,-5.5732 2.8928,-4.2592 3.534,-8.2212 2.8339,-13.4396 -0.0615,-0.4592 -0.767,-4.4367 -1.0462,-4.9063 -0.0491,1.4711 0.2568,1.8004 -0.2565,3.1865 -1.1692,3.1578 -2.1623,5.1197 -4.4342,7.6216 -1.5238,1.6779 -4.3375,4.6084 -6.3796,5.1294l-5.0958 -6.7459c-2.8073,3.6489 -1.1082,1.7495 -2.661,4.4075 -1.365,2.3366 -4.3968,5.4035 -6.717,6.9224 -6.5014,4.2557 -11.8946,6.2278 -19.6315,7.4582 -1.9794,0.3148 -4.1164,0.5712 -6.1975,0.5389 -8.1932,-0.1269 -19.8701,-3.9335 -25.665,-8.3874 -2.7729,-2.1313 -4.5725,-3.9473 -6.4689,-6.953 -1.5794,-2.5034 -0.1235,-1.1565 -2.4546,-4.2273 -4.6372,3.6136 -3.2499,1.9404 -4.96,6.6763 -3.954,-1.895 -4.1625,-2.2205 -7.2376,-5.6307 -1.5584,-1.7284 -2.7194,-3.9982 -3.6022,-6.0961 -0.2561,-0.6088 -0.3177,-1.7256 -0.4933,-2.5343z"/>
    <path id="_436494408" class="fil3" d="M70.1743 219.402c-0.6251,0.758 -0.7663,0.5169 -2.0257,0.6696 -2.9494,0.3574 -11.3286,1.2706 -12.7965,3.6015l0.5216 1.3329c1.1323,1.7189 8.3135,1.9863 10.1441,2.5911 1.2189,0.4028 8.112,0.8163 10.1763,0.9788 3.0906,0.2433 8.289,0.2716 10.3031,0.5802 6.0344,0.9247 28.5894,0.5814 35.7933,0.5259 4.7164,-0.0364 9.2487,-0.7128 13.656,-0.8417 6.8889,-0.2014 18.8306,-0.9404 25.0919,-4.0091l-2.3473 -2.7831 -6.5173 -1.513c-1.993,-0.2058 -4.4922,-0.2265 -6.4897,-0.8005l-0.0011 -0.4448c-1.2498,0.7146 -2.4542,1.815 -3.9781,2.7096 -8.1679,4.795 -15.0781,1.5294 -16.1721,1.8634l-4.1224 2.6276c-3.4117,1.763 -8.9566,1.4664 -12.3515,-1.6301 -0.5784,-0.5276 -1.0039,-1.1931 -1.5929,-1.6106l-1.5134 1.6848c-2.7732,2.9107 -8.5156,3.3556 -12.2905,1.422 -1.8566,-0.951 -2.3913,-1.679 -3.7997,-2.5629 -1.7884,-0.3746 -9.0469,3.9714 -19.2104,-4.0858 -0.3423,-0.2713 -0.0389,-0.0545 -0.4777,-0.3058z"/>
    <path id="_436495104" class="fil3" d="M149.924 154.12c-0.0567,0.0395 -0.1453,0.0255 -0.1709,0.1172l-0.9413 0.991c-0.3933,0.4646 -0.6181,0.8279 -1.035,1.2845 -1.6,1.7525 -5.3173,4.4467 -7.4846,5.7031 -2.739,1.5876 -9.4273,4.8068 -13.1087,4.7609 -1.6046,-0.3037 -13.6261,4.75 -30.6777,1.9433 -2.0881,-0.3438 -8.9733,-2.0313 -9.4782,-2.0066 -4.108,0.6075 -16.605,-5.8523 -20.7509,-10.6831 -0.3978,-0.4636 -0.6228,-0.6994 -1.0733,-1.2389 -0.633,-0.7582 -0.2886,-0.701 -1.2815,-1.3185 0.554,1.3875 -0.368,2.2417 -0.2359,3.0721 0.0506,0.318 2.7671,3.0395 2.8822,3.1229 1.4847,1.0763 2.9951,2.317 4.487,3.1574 0.4308,0.2426 0.8596,0.3139 1.3223,0.5646 7.9608,4.3129 11.3144,4.9203 20.1398,6.9847 8.5512,2.0002 19.1347,2.4502 27.7203,0.3723 1.9519,-0.4725 4.3811,-0.8843 6.3826,-1.3446 6.6866,-1.5378 14.7356,-4.8027 19.9644,-8.966 0.5552,-0.4421 0.3539,-0.351 1.029,-0.7979 1.2497,-0.8274 3.5763,-3.2534 3.0305,-4.8348l-0.7201 -0.8836z"/>
    <path id="_436495896" class="fil3" d="M175.081 64.8911c0.2418,1.1509 -0.1583,1.2649 -2.4769,2.7322 -1.6797,1.0629 -1.1641,0.5448 -2.2205,2.293 0.093,0.0455 -0.0847,0.6071 1.1598,-0.1032 0.3745,-0.2138 0.7538,-0.4664 1.1611,-0.7144l2.7938 -1.772c0.6402,-0.3184 0.6827,-0.0712 1.9292,-0.9076l9.3966 -5.3076c1.5886,-0.663 0.5387,0.0221 2.5596,-1.2457l-0.2501 -1.505c-0.8556,-0.049 -0.9943,0.0064 -1.6904,0.2833 -1.0417,0.0705 -2.2524,0.8723 -3.251,1.3258 -1.1619,0.5277 -1.9134,1.0049 -3.0609,1.5739 -1.3063,0.6477 -5.0308,2.4865 -6.0503,3.3473z"/>
    <path id="_436496808" class="fil3" d="M189.702 57.4484c0.478,2.6928 3.3212,0.8435 6.0903,-0.4618l6.4691 -2.8113 -0.2087 -0.5146c-0.4382,-1.3104 -11.341,3.3553 -12.3507,3.7877z"/>
    <path id="_436497792" class="fil3" d="M13.5783 53.9523l-0.1085 0.449c0.8513,-0.3866 5.0817,1.7871 6.1836,2.3564l3.1739 1.4217 3.6678 0.0812 -0.085 1.4218c0.784,0.6135 1.7027,1.0682 2.7654,1.3284 -0.5188,-0.5633 -1.555,-0.9724 -2.2588,-1.3668 0.0163,-0.8015 0.1171,-0.811 0.4912,-1.2882l-0.2828 -0.2892c-2.901,-1.9914 -10.2108,-3.7143 -13.382,-4.5241 -0.1789,0.1702 -0.0881,0.2187 -0.1648,0.4098z"/>
    <path id="_436498656" class="fil3" d="M103.429 82.4698c-0.3686,0.768 -0.3082,0.5641 -0.3623,1.4496 4.0491,-2.8763 1.9345,-1.3068 3.1059,-3.0525 0.5463,-0.8139 0.342,-0.1613 0.8699,-1.1222 -0.4165,-0.4655 -0.3406,-0.4861 -1.1975,-0.592 -0.5622,0.3715 -2.2741,2.006 -2.416,3.3171z"/>
    <path id="_436498680" class="fil3" d="M71.3324 109.545c1.5048,-0.1516 2.7042,-1.3064 2.0607,-3.0274 -1.5377,-0.1215 -2.2649,0.4554 -2.7544,1.7325 0.1891,1.0478 -0.0038,0.6582 0.6937,1.2949z"/>
    <path id="_436497936" class="fil3" d="M131.568 100.686c-0.2222,1.9018 3.186,2.921 2.7067,0.4444 -0.1514,-0.7825 -0.9749,-1.6188 -2.4462,-1.1225 -0.0489,0.1021 -0.175,-0.0544 -0.2605,0.6781z"/>
    <path id="_436498632" class="fil3" d="M138.435 105.508c-0.3341,1.5148 0.2462,2.4282 1.6897,2.3606l0.6795 -1.1364c-0.6596,-1.1345 -0.781,-1.3659 -2.3692,-1.2242z"/>
    <path id="_436498008" class="fil3" d="M74.9549 107.692c0.1689,0.0946 -0.3482,0.3072 0.7683,0.2278 1.6262,-0.1157 1.2106,-1.9381 1.167,-2.3749 -1.2453,0.3672 -2.779,0.4503 -1.9353,2.1471z"/>
    <path id="_436498824" class="fil3" d="M41.6417 66.8615c0.2832,-0.6542 -0.3781,-0.4901 0.4121,-0.5492 -0.4194,-0.2806 -0.2556,-0.2281 -0.5055,-0.6088 -0.2631,-0.3777 0.4085,0.1472 -0.3692,-0.4164 -0.4041,-0.2929 -0.3374,-0.2254 -0.8748,-0.4247 -0.3792,0.6212 -0.1336,0.1628 -0.3958,0.8422 0.5452,0.6743 0.7008,0.9673 1.7332,1.1569z"/>
    <path id="_436498968" class="fil3" d="M42.5343 68.6438l0.5709 0.5069c0.7513,0.5258 1.4216,0.756 2.274,1.1277 -0.044,-1.3503 -0.371,-1.4649 -1.45,-1.9152 0.3145,1.0888 0.2254,0.2984 0.7111,1.175 -0.7517,-0.3346 -1.2906,-0.7072 -2.106,-0.8944z"/>
    <path id="_436499448" class="fil3" d="M132.511 95.1643c0.2385,0.2376 0.063,0.1474 0.4625,0.4271l0.3116 0.1719c0.2569,0.1402 0.3521,0.1578 0.6043,0.2826 0.524,0.2593 0.7438,0.3886 1.1404,0.709l0.307 -0.2081c-0.3486,-0.6681 -1.8205,-1.5837 -2.7639,-1.9027 0.3664,0.6087 -0.7355,0.4571 0.3936,0.4571l-0.4555 0.0631z"/>
   </g>
   <g>
    <path id="_424956016" class="fil4" d="M58.6186 161.474c0.3349,-0.3313 -0.5331,-0.2593 0.6672,-0.3378 0.0859,1.253 0.0132,0.4411 -0.2744,0.7376 -1.0348,1.7731 -3.6547,5.8206 -3.1219,8.6983 0.1756,0.8087 0.2372,1.9255 0.4933,2.5343 0.8828,2.0979 2.0438,4.3677 3.6022,6.0961 3.0751,3.4102 3.2836,3.7357 7.2376,5.6307 1.7101,-4.7359 0.3228,-3.0627 4.96,-6.6763 2.3311,3.0708 0.8752,1.7239 2.4546,4.2273 1.8964,3.0057 3.696,4.8217 6.4689,6.953 5.7949,4.4539 17.4718,8.2605 25.665,8.3874 2.0811,0.0323 4.2181,-0.2241 6.1975,-0.5389 7.7369,-1.2304 13.1301,-3.2025 19.6315,-7.4582 2.3202,-1.5189 5.352,-4.5858 6.717,-6.9224 1.5528,-2.658 -0.1463,-0.7586 2.661,-4.4075l5.0958 6.7459c2.0421,-0.521 4.8558,-3.4515 6.3796,-5.1294 2.2719,-2.5019 3.265,-4.4638 4.4342,-7.6216 0.5133,-1.3861 0.2074,-1.7154 0.2565,-3.1865 0.1702,-2.4118 -2.0988,-5.4762 -2.8779,-7.1271 -0.2692,-0.2821 -0.2551,0.3413 -0.4285,-0.8564 1.2589,0.0703 0.6493,0.126 0.9349,0.3789l4.4212 3.4086c0.0684,-2.4117 -2.1181,-6.0135 -3.1994,-7.5429l-6.0382 -5.1638c-0.4831,0.9682 -0.8268,1.1098 -1.0326,1.8163l0.7201 0.8836c0.5458,1.5814 -1.7808,4.0074 -3.0305,4.8348 -0.6751,0.4469 -0.4738,0.3558 -1.029,0.7979 -5.2288,4.1633 -13.2778,7.4282 -19.9644,8.966 -2.0015,0.4603 -4.4307,0.8721 -6.3826,1.3446 -8.5856,2.0779 -19.1691,1.6279 -27.7203,-0.3723 -8.8254,-2.0644 -12.179,-2.6718 -20.1398,-6.9847 -0.4627,-0.2507 -0.8915,-0.322 -1.3223,-0.5646 -1.4919,-0.8404 -3.0023,-2.0811 -4.487,-3.1574 -0.1151,-0.0834 -2.8316,-2.8049 -2.8822,-3.1229 -0.1321,-0.8304 0.7899,-1.6846 0.2359,-3.0721l-0.9277 -1.5412c-1.4999,0.4452 -4.7644,3.8855 -5.7165,5.1404l-3.3888 7.6483c1.4934,-0.5761 2.774,-2.8235 4.73,-3.446z"/>
    <path id="_424944400" class="fil4" d="M183.199 125.538c-0.3335,0.7749 -0.2786,0.6541 -1.2532,1.4519 -3.2442,2.6554 -7.0283,6.3445 -9.7989,9.1893 -2.2888,2.35 -8.1921,7.1361 -5.6277,9.2175 0.6431,0.522 1.2043,0.5554 2.2983,0.379l2.0841 0.3128c0.2689,2.3357 -1.933,3.437 -3.7326,6.4129 -0.6901,1.1414 -1.2248,2.6552 -0.6434,3.9703l3.4611 1.6722c0.5032,2.24 1.306,5.1523 4.3901,3.6269 2.4847,-1.2289 -0.2495,-0.8635 5.0892,-2.9246 0.8213,4.1018 -1.699,11.1685 1.6528,11.2396 1.3929,0.0295 2.0588,-0.9872 2.5459,-2.009 0.9583,-2.01 2.0135,-4.1176 2.6429,-6.33l1.7359 -6.8768c0.2187,-0.4739 0.0983,-0.2041 0.3693,-0.5056 -0.0277,-1.9317 0.5652,-6.082 0.7843,-8.302 0.2789,-2.8254 0.5963,-5.5357 0.8687,-8.325l1.5409 -12.3922 -0.3413 -3.9684c-2.1731,-0.3631 -6.0486,2.9832 -8.0664,4.1612z"/>
    <path id="_436496112" class="fil4" d="M72.2024 92.1166c-0.9493,-2.3753 -10.7364,-12.3501 -12.843,-13.6635 -0.7145,0.0388 -1.0066,-0.0206 -1.0391,0.9314 -0.0408,1.2008 4.9185,5.975 5.7164,6.8193 1.0272,1.0867 2.4835,2.5764 3.6001,3.5675 2.0541,1.8233 2.7001,2.8402 4.3905,2.81l0.1751 -0.4647z"/>
    <path id="_436496520" class="fil4" d="M142.695 92.2718l0.1257 0.4853 4.4709 -2.7391 4.4628 -4.3552c1.3837,-1.5063 2.9337,-2.9767 4.1799,-4.6125 0.8282,-1.087 1.0988,-0.824 0.7329,-2.5015l-0.9103 0.0824c-2.7319,2.1035 -4.634,4.1038 -6.9386,6.4196 -1.3046,1.311 -2.0113,2.1233 -3.2529,3.4643 -0.5403,0.5838 -2.5424,3.052 -2.8704,3.7567z"/>
    <path id="_436497912" class="fil4" d="M90.3257 87.5177c0.9049,-0.8751 1.2232,-1.8318 1.7771,-2.9469 0.552,-1.1113 1.1704,-1.5744 0.6497,-3.0131l-1.2341 -0.0612c-1.2545,1.276 -2.918,3.0526 -2.7499,5.0642 0.0858,1.0269 0.6945,1.0849 1.5572,0.957z"/>
    <path id="_436497720" class="fil4" d="M163.714 138.03c-0.1642,2.4108 1.6397,1.2134 2.4821,0.533 0.8525,-0.6885 1.5992,-1.3165 2.4699,-2.0108 0.3401,-1.0419 -0.0119,-0.0655 0.4208,-0.9025 0.3005,-0.5813 0.1137,-0.2098 0.3367,-0.7803l-0.7591 0.2187c-0.6468,0.1221 -0.525,0.1342 -1.2182,0.5639 -0.5735,0.3557 -0.8582,0.5186 -1.2864,0.7873 -0.8061,0.5059 -1.504,1.0301 -2.4458,1.5907z"/>
   </g>
   <g>
    <path id="_424956328" class="fil5" d="M123.853 220.258c-0.6758,1.4335 -3.7357,3.2138 -6.0181,3.5755 -2.9091,0.4612 -6.2204,-0.5811 -6.9387,-2.604 -0.0447,-0.0454 -0.1232,-0.1685 -0.1399,-0.1305 -0.0161,0.0367 -0.1042,-0.1011 -0.1244,-0.1371 -0.854,-1.524 -0.5957,-5.1003 -0.1214,-6.9256 0.3649,-1.4039 1.1942,-0.9273 4.0834,-1.7861 4.731,-1.4062 8.8498,-4.6475 9.7806,-4.9084 1.6061,-0.4502 0.1139,1.1878 6.5156,-1.5123 -0.1455,3.3778 -4.9295,13.1379 -7.0371,14.4285zm4.6094 0.1726c0.3329,-0.9235 1.6887,-2.7276 2.2113,-3.6598 3.0396,-5.4214 3.8715,-12.6833 4.4859,-13.712l4.3458 -4.0795c3.6857,0.8792 0.6302,2.1327 8.6809,-0.0527 2.1951,9.2214 -2.2784,17.6679 -10.2674,20.9013 -1.4844,0.6007 -2.6167,0.8493 -4.3134,1.0811 -0.9135,0.1249 -1.8286,0.1201 -2.7485,0.0663 -0.398,-0.0233 -0.9444,-0.0532 -1.3292,-0.1165 -0.0582,-0.0096 -0.5267,-0.1146 -0.5496,-0.1234 -0.3451,-0.1319 -0.3297,-0.1761 -0.5158,-0.3048zm-24.7014 1.3895c-0.3921,1.6454 -4.2383,2.3962 -6.351,2.0037 -1.8637,-0.3462 -5.2307,-2.2186 -5.4642,-3.3943l-7.396 -14.1624c0.9453,0.1909 1.5207,0.5492 2.451,0.8331l3.0932 0.177c2.0236,1.3224 3.9035,2.6459 6.4029,3.7345 2.8605,1.246 4.9066,1.562 7.963,2.2385 0.5622,1.1322 1.5017,7.2044 -0.6989,8.5699zm-37.3482 -22.7447c4.8196,0.749 1.3315,1.7881 8.1623,-0.1843 0.9365,0.6141 2.3804,2.4654 4.5172,3.8335 1.2818,0.8206 1.0678,2.698 2.3198,6.2415 1.7415,4.9285 3.1765,7.0934 5.6853,11.4645 -0.2188,0.1862 0.0495,0.2253 -0.7895,0.4357 -4.6625,1.1688 -11.61,-1.6133 -14.9114,-5.3699 -3.5671,-4.0588 -5.9355,-9.2992 -4.9837,-16.421zm122 -44.7111c0.0525,4.711 -0.3674,11.6511 -1.162,16.0587 -2.01,10.8867 -5.6508,19.1664 -11.5858,26.0186 -2.5631,2.9592 -5.9045,6.268 -10.0028,8.7583l-14.1369 5.1743c0.1544,-2.3793 0.8963,-4.0062 0.8905,-6.8523l-0.8992 -6.4854c1.0922,-1.2729 6.6488,-3.6082 9.7771,-11.2502 0.3777,-0.9226 0.6354,-1.617 0.9041,-2.6326 0.1685,-0.6366 0.2606,-2.6672 0.7523,-2.9381 -0.1269,-1.7881 0.1557,-3.6765 -0.1182,-5.6769 -0.246,-1.797 -0.8219,-3.2762 -1.0544,-4.9667l2.2582 -5.2638c-0.5921,-2.4202 -1.5193,-4.3123 -2.5798,-6.2234 -3.3076,-5.9603 -7.0734,-7.695 -8.3661,-9.2264 2.0314,-5.9405 1.0913,-5.2289 3.8528,-6.8089l6.7713 -4.0196c0.9418,-0.5606 1.6397,-1.0848 2.4458,-1.5907 0.4282,-0.2687 0.7129,-0.4316 1.2864,-0.7873 0.6932,-0.4297 0.5714,-0.4418 1.2182,-0.5639 0.5483,-0.7276 2.3481,-1.8038 2.9096,-1.9507l8.649 -5.7923c0.9202,-0.5663 2.1247,-1.422 2.9761,-1.8071 2.0178,-1.178 5.8933,-4.5243 8.0664,-4.1612l0.3413 3.9684 -1.5409 12.3922c-0.2724,2.7893 -0.5898,5.4996 -0.8687,8.325 -0.2191,2.22 -0.812,6.3703 -0.7843,8.302zm6.2936 -65.0741c-1.9373,4.3826 -4.5491,8.0277 -7.2782,11.6697 -5.1077,6.8164 -13.2243,12.7856 -21.5909,15.9381 -5.232,1.9714 -9.3174,2.5525 -15.5193,2.6042l-0.4846 0.366c1.044,4.8255 1.9917,8.4152 2.1905,13.4713 0.2139,5.4379 -0.48,8.9208 -2.0222,13.4998 -2.9359,7.0781 -9.9931,12.4653 -16.9815,15.082 -1.2839,0.4807 -2.6643,0.872 -3.9828,1.307 -1.8161,0.5991 -2.6968,0.5003 -2.663,2.7704l0.8086 0.978c3.6814,0.0459 10.3697,-3.1733 13.1087,-4.7609 2.1673,-1.2564 5.8846,-3.9506 7.4846,-5.7031 0.4169,-0.4566 0.6417,-0.8199 1.035,-1.2845l0.9413 -0.991c0.0256,-0.0917 0.1142,-0.0777 0.1709,-0.1172 0.2058,-0.7065 0.5495,-0.8481 1.0326,-1.8163l6.0382 5.1638c1.0813,1.5294 3.2678,5.1312 3.1994,7.5429l-4.4212 -3.4086 -0.6597 -0.0861 0.1533 0.5636c0.7791,1.6509 3.0481,4.7153 2.8779,7.1271 0.2792,0.4696 0.9847,4.4471 1.0462,4.9063 0.7001,5.2184 0.0589,9.1804 -2.8339,13.4396 -1.3705,2.0177 -3.4962,4.1205 -5.5463,5.5732 -1.2362,0.876 -5.7879,4.1004 -7.7368,3.0646 0.2919,-1.726 1.1842,-5.6092 1.2397,-6.5576 0.1194,-2.0414 -0.1885,-3.5458 -0.8203,-5.4466 -0.5152,-1.5504 -0.5865,-1.149 -0.9239,-1.3654l-1.5864 7.1776c-1.5884,5.4236 -9.2868,12.2633 -13.4374,13.1269l1.4489 -3.9663c-3.6619,3.229 -4.6779,4.4808 -9.3051,7.0833 -9.2384,5.196 -16.1216,4.8356 -25.2297,-0.1385 -1.8572,-1.0142 -3.3927,-1.9917 -4.9365,-3.1693 -1.4083,-1.0743 -3.6723,-3.4787 -4.5593,-3.702l1.4643 3.662 -10.2422 -7.7069c-3.3915,-3.373 -4.2434,-11.9386 -4.8052,-12.6688l-1.4337 6.8782c0.1376,2.5323 1.7126,5.2789 1.5924,6.7038l-7.8519 -2.7636c-2.1428,-1.5307 -3.9101,-3.0598 -5.5584,-5.3259 -1.5699,-2.1583 -2.8045,-4.7585 -3.264,-7.8782 -0.3528,-2.3952 -0.2287,-5.2505 0.3321,-7.6102 0.0941,-0.3963 0.1789,-0.7107 0.2721,-1.0353l0.4206 -0.9148c-0.5328,-2.8777 2.0871,-6.9252 3.1219,-8.6983l0.0881 -0.4615 -0.4809 0.0617c-1.956,0.6225 -3.2366,2.8699 -4.73,3.446l3.3888 -7.6483c0.9521,-1.2549 4.2166,-4.6952 5.7165,-5.1404l0.9277 1.5412c0.9929,0.6175 0.6485,0.5603 1.2815,1.3185 0.4505,0.5395 0.6755,0.7753 1.0733,1.2389 4.1459,4.8308 16.6429,11.2906 20.7509,10.6831l0.3884 -0.3556c0.001,-0.0009 0.3438,-0.2578 0.3557,-0.2673l-2.51 -3.0956c-0.1828,-0.1271 -6.9661,-2.0056 -11.0843,-4.9153 -3.9249,-2.7734 -8.6813,-6.8484 -9.9861,-11.7363 -1.6768,-2.8328 -2.123,-9.975 -1.9159,-13.8987 0.1284,-2.4329 0.4454,-4.6539 0.8674,-6.9523 0.3005,-1.6369 1.5264,-5.0162 1.0084,-6.2437 -1.7447,-0.0868 -2.7977,0.1629 -4.6995,-0.1081 -12.8805,-1.8354 -24.0781,-9.2272 -31.741,-19.287 -2.8472,-3.7378 -3.3792,-5.0278 -5.4278,-8.4798 -0.3946,-0.665 -1.206,-2.2859 -1.4879,-3.081 -1.6567,-2.0998 -4.8595,-12.3883 -5.7353,-15.8336 -1.0376,-4.0817 -2.1181,-9.8083 -2.2672,-14.1249 -0.0744,-2.157 -0.3583,-3.6832 0.7861,-4.5816 0.0767,-0.1911 -0.0141,-0.2396 0.1648,-0.4098 3.1712,0.8098 10.481,2.5327 13.382,4.5241l0.2828 0.2892c1.0606,-0.0872 5.3376,2.3216 6.7902,3.043 0.9903,0.4918 5.5578,2.8899 6.1062,3.4636 0.5374,0.1993 0.4707,0.1318 0.8748,0.4247 0.7777,0.5636 0.1061,0.0387 0.3692,0.4164 1.1259,0.3069 2.238,1.2028 3.2439,1.8069 2.251,1.3515 3.9714,2.5202 6.1763,4.1957 1.5764,1.1978 2.6244,1.9554 4.3502,3.2843l3.5385 2.9485c0.0367,0.0316 0.0985,0.078 0.1316,0.1076 0.0344,0.0307 0.1004,0.0958 0.1281,0.1216l0.2425 0.285c2.1066,1.3134 11.8937,11.2882 12.843,13.6635 0.7724,0.5601 2.9185,3.9078 3.5794,5.0561 0.528,0.9174 0.8023,2.1639 1.2918,3.0968 1.356,2.5852 3.8931,4.7298 6.6706,6.0584 4.0425,1.9337 4.8797,1.0509 6.5515,1.0681 1.6891,-3.4331 -2.2396,-2.6922 -3.7946,-3.9211 -2.8805,-0.3018 -7.0646,-4.4994 -7.4848,-7.1957l3.76 -2.408c0.4004,0.8812 1.6271,4.6285 3.4985,2.9798l0.1214 -7.5108c0.6148,-5.4243 6.7975,-12.9219 10.6466,-13.2086 0.6749,1.9448 3.1851,10.702 5.3763,11.8794 0.0645,-1.3012 -0.1333,-4.5787 1.0095,-5.5412 0.1419,-1.3111 1.8538,-2.9456 2.416,-3.3171 0.8569,0.1059 0.781,0.1265 1.1975,0.592 2.9586,2.0391 5.3207,7.2569 6.9093,8.6538 2.3054,-0.2191 1.7574,-0.3421 3.9829,0.1926l2.7877 0.6704c1.0385,0.3811 0.2467,0.0642 0.6085,0.4041 2.3169,0.0511 10.378,3.8329 11.242,4.9785 0.9434,0.319 2.4153,1.2346 2.7639,1.9027 0.9983,0.3574 1.1357,0.8234 2.2409,1.3199l2.6374 -2.6508c0.869,-0.966 1.4951,-2.0934 2.4803,-2.9441 0.328,-0.7047 2.3301,-3.1729 2.8704,-3.7567 1.2416,-1.341 1.9483,-2.1533 3.2529,-3.4643 2.3046,-2.3158 4.2067,-4.3161 6.9386,-6.4196 0.2664,-0.2695 -0.0513,0.0026 0.3993,-0.37 3.2683,-2.7025 5.3598,-4.258 8.8683,-6.8777 1.9553,-1.4601 7.782,-5.3021 10.0565,-6.4924 1.0195,-0.8608 4.744,-2.6996 6.0503,-3.3473 1.1475,-0.569 1.899,-1.0462 3.0609,-1.5739 0.9986,-0.4535 2.2093,-1.2553 3.251,-1.3258 0.4671,-0.5526 0.3035,-0.3448 1.0367,-0.6322 0.4966,-0.1945 0.7732,-0.3454 1.2217,-0.5635 1.0097,-0.4324 11.9125,-5.0981 12.3507,-3.7877l0.6399 0.1833 -2.0095 19.3931c-0.7546,2.9362 -1.6855,5.7759 -2.6513,8.4554 -1.0735,2.9782 -2.7991,6.1835 -3.3248,7.5974zm-92.3828 -11.7709l-0.5728 0.6324 -0.3153 -0.9735c-1.904,-7.6804 -6.4912,-5.2438 -11.5254,-1.0016 -3.2219,2.7151 -6.4385,7.5186 -7.1756,13.4559l-5.38 3.1289c-2.6547,-3.6259 -6.7818,-9.2561 -10.0624,-12.1327 -1.5522,-1.361 -4.1285,-4.0155 -5.6482,-5.2394 -4.2791,-3.4462 -5.5364,-4.5974 -10.4156,-8.1111 -8.4268,-6.0682 -23.8112,-14.1968 -34.2669,-17.1648 -5.6324,-1.5989 -7.726,0.6627 -7.8273,6.0951 -0.2901,15.5692 7.3914,34.598 14.5098,44.4476 7.3452,10.1633 18.4839,20.2015 36.237,22.3854 -1.6418,10.6929 -2.3918,15.1667 1.2172,25.8169 -1.6097,1.3243 -3.4246,2.6973 -4.7782,4.2126 -1.2875,1.4412 -2.6559,3.1627 -3.7577,5.0455 -1.1334,1.9366 -6.1906,12.6467 -0.2841,11.3748 -1.3086,6.1278 -2.1604,10.9287 0.917,17.2114 1.7959,3.6663 6.3625,9.2171 9.8431,10.3207 -0.346,5.5823 -1.0232,8.1527 0.9954,13.3368 2.2777,5.8495 3.7298,6.058 6.1405,9.0421 0.4388,0.2513 0.1354,0.0345 0.4777,0.3058 10.1635,8.0572 17.422,3.7112 19.2104,4.0858 1.4084,0.8839 1.9431,1.6119 3.7997,2.5629 3.7749,1.9336 9.5173,1.4887 12.2905,-1.422l1.5134 -1.6848c0.589,0.4175 1.0145,1.083 1.5929,1.6106 3.3949,3.0965 8.9398,3.3931 12.3515,1.6301l4.1224 -2.6276c1.094,-0.334 8.0042,2.9316 16.1721,-1.8634 1.5239,-0.8946 2.7283,-1.995 3.9781,-2.7096l3.9388 -4.9098c1.9547,-1.2184 13.9275,-0.3066 25.773,-12.4159 6.7583,-6.9088 11.3824,-14.6369 13.8441,-24.153 2.0575,-7.9535 2.0362,-13.9923 2.7157,-22.5324 0.3165,-3.9796 0.467,-7.9293 0.9294,-11.7778 0.4697,-3.9085 2.9167,-20.3693 2.2306,-23.002 -0.3753,-1.4401 -1.7052,-2.8669 -3.3256,-3.0454 -1.9406,-0.2138 -3.6024,0.8554 -4.852,1.5482 -5.4862,3.0416 -28.2353,18.5992 -31.377,19.565l-0.0612 -7.5368c-0.172,-2.1042 -0.9073,-4.8413 -0.8974,-6.5386 -0.2423,-0.2666 -0.1067,0.3701 -0.3936,-0.6377 -0.238,-0.8363 -0.0302,-0.2045 -0.0099,-0.7059l1.5128 -0.2843c2.8485,0.1906 9.5639,-1.8439 12.1054,-2.8098 3.6884,-1.4017 6.7061,-3.0047 9.8037,-5.0429 6.4355,-4.2346 10.4031,-8.7009 14.8439,-14.8038 7.0314,-9.6631 14.9608,-29.6034 14.2676,-45.1649 -0.2427,-5.4456 -3.7924,-6.1365 -8.5718,-4.7378 -14.9016,4.3609 -35.3822,16.6656 -46.8166,27.3111 -2.5863,2.4078 -5.1903,4.6266 -7.4601,7.3666l-6.7688 8.0956c-3.4074,-2.1063 -5.9623,-3.8469 -9.7367,-5.3593 -3.2809,-1.3147 -7.6759,-2.8292 -11.7313,-3.1438l-2.6757 -3.7609c-1.2754,-1.6673 -4.5843,-5.5728 -6.8888,-5.6823 -1.6603,-0.0789 -3.4076,1.4659 -3.7577,2.3878z"/>
    <path id="_424955272" class="fil5" d="M149.391 115.048c6.396,0.5422 17.0175,-4.096 22.4772,-7.6391 3.2152,-2.0866 5.8299,-4.2047 8.2616,-6.7935 2.4754,-2.6356 2.9685,-3.4848 4.9296,-6.1816 0.3126,-0.4298 0.5135,-0.694 0.7664,-1.1113 0.171,-0.2824 0.1524,-0.2927 0.3166,-0.5776 0.1737,-0.3014 -0.0049,-0.0505 0.1681,-0.3023 0.1823,-0.2653 0.2092,-0.2539 0.3728,-0.4225 0.4026,-0.9816 1.0873,-2.0821 1.6329,-3.1649 2.6058,-5.1713 8.7618,-21.878 8.1974,-25.3348 -7.1609,2.6205 -8.6793,3.9744 -15.7457,7.629 -3.4096,1.7635 -11.225,6.6199 -14.3728,9.0149 -5.8046,4.4167 -7.3417,5.7148 -12.4677,10.9243 -1.8916,1.9224 -3.8163,4.0244 -5.6046,6.2135 -1.1078,1.3561 -4.3981,5.2197 -4.9474,6.6209 1.6427,2.4074 5.8335,8.5531 6.0156,11.125z"/>
    <path id="_424955224" class="fil5" d="M28.3086 90.5889l2.904 4.5811c5.8414,7.9973 11.7824,12.9953 21.3261,16.8785 2.3909,0.9729 9.549,3.41 12.3116,2.9104 0.4475,-1.5571 1.9872,-4.6136 2.7754,-5.9204 2.2805,-3.781 1.5231,-2.2639 3.6111,-5.1157 -5.8147,-7.5545 -8.8693,-12.4904 -15.8873,-18.7602 -2.2153,-1.9792 -4.1452,-3.3441 -6.4376,-5.1452 -3.5764,-2.8098 -9.708,-6.6456 -14.1353,-9.0192 -2.4793,-1.3292 -4.868,-2.6949 -7.5022,-4.088 -1.2787,-0.6762 -2.5472,-1.3465 -3.8236,-1.9868 -1.0896,-0.5467 -2.9549,-1.8906 -4.0025,-1.2889 2.0058,7.8289 3.0346,13.3938 6.0928,20.7467 0.8356,2.0089 1.979,4.2437 2.7675,6.2077z"/>
    <path id="_436494984" class="fil5" d="M118.607 138.714c1.2861,1.1137 2.2762,1.4332 3.3736,-0.3342 0.7433,-1.197 1.1153,-2.1049 2.1613,-3.1875 1.7962,-1.8589 4.1409,-3.42 7.6606,-2.5579 3.5615,0.8723 4.1796,3.3015 5.6425,5.0039 1.5065,1.7532 5.5076,0.5002 3.4179,-5.2483 -1.6391,-4.5089 -7.2784,-9.0433 -13.8176,-6.5455 -4.151,1.5855 -9.3843,6.4631 -8.4383,12.8695z"/>
    <path id="_436494936" class="fil5" d="M82.5101 132.621c3.2925,-0.7345 6.0427,0.7477 7.7115,2.6737 0.7928,0.915 1.2199,1.9392 2.0609,3.2757 2.0666,3.2844 6.241,-1.1421 0.8649,-8.2833 -1.3862,-1.8411 -3.4734,-3.6701 -6.1057,-4.5596 -9.7106,-3.2811 -16.1383,7.6081 -13.7899,11.6868 0.8606,1.4948 2.5193,1.1093 3.43,0.1172 0.8252,-0.8989 1.3321,-2.1902 2.2558,-3.0734 0.9288,-0.888 1.9226,-1.4691 3.5725,-1.8371z"/>
    <path id="_436496256" class="fil5" d="M28.5155 130.775l-0.0168 1.2094c1.5259,1.673 3.8013,0.946 5.4917,3.0275l2.7931 5.7229 0.9897 -0.0417c1.4857,-1.164 1.3597,-3.9734 2.7853,-5.7023l5.4341 -3.0409c0.403,-2.6984 -3.2557,-1.7156 -5.3471,-4.2862 -0.7119,-0.8749 -1.1674,-2.1212 -1.5162,-3.3463l-2.309 -2.4628c-1.5906,1.1846 -1.2676,3.8104 -2.8008,5.6809 -1.7778,2.1689 -3.9702,1.707 -5.504,3.2395z"/>
    <path id="_436496136" class="fil5" d="M114.879 143.374l-2.9136 3.7634c-2.6173,0.741 -3.3577,-1.7376 -4.7386,-1.7912 -1.3164,-0.0512 -2.1968,2.4222 -4.7922,1.8187 -1.9355,-0.45 -1.8586,-2.3489 -2.955,-3.7521l-1.0465 0.0056c-2.2616,1.8743 0.5062,5.0129 1.7154,5.8161 3.4425,2.2865 6.9348,-0.5738 7.0864,-0.5998l6.8857 0.6253c1.2302,-0.7715 3.9494,-4.0347 1.6844,-5.833l-0.926 -0.053z"/>
    <path id="_436497072" class="fil5" d="M39.5293 149.09c0.7988,1.4298 0.4802,-0.0386 2.3875,4.2186 1.9856,-0.1216 1.1932,-0.8002 1.9411,-2.2773l1.405 -2.1729c-0.6243,-1.1764 -0.4183,0.1771 -2.4189,-4.1972l-1.0434 -0.0209c-0.6917,1.13 -0.4504,1.0543 -0.872,2.2894 -0.437,1.2802 -1.0915,0.8565 -1.3993,2.1603z"/>
    <path id="_436497504" class="fil5" d="M104.873 141.734c0.8258,0.1946 5.0892,1.6302 4.5045,-0.96 -0.2714,-1.2024 -2.9559,-1.6963 -4.4585,-0.2557l-0.046 1.2157z"/>
   </g>
   <g>
    <path id="_424956616" class="fil6" d="M98.4326 143.418l1.0465 -0.0056c1.0964,1.4032 1.0195,3.3021 2.955,3.7521 2.5954,0.6035 3.4758,-1.8699 4.7922,-1.8187 1.3809,0.0536 2.1213,2.5322 4.7386,1.7912l2.9136 -3.7634 0.926 0.053c2.265,1.7983 -0.4542,5.0615 -1.6844,5.833l-6.8857 -0.6253c-0.1516,0.026 -3.6439,2.8863 -7.0864,0.5998 -1.2092,-0.8032 -3.977,-3.9418 -1.7154,-5.8161zm32.0414 1.5023c-0.3355,-1.5642 0.4734,-2.8345 1.4142,-3.6052 1.0615,-0.8695 1.5258,-1.2069 3.5983,-1.3394 2.903,-0.1856 6.357,0.8251 6.768,3.3177 0.5385,3.2648 -2.2819,4.805 -5.1368,4.9746 -2.9552,0.1756 -6.1096,-0.8584 -6.6437,-3.3477zm-46.9395 0c-0.7442,2.8041 -3.7148,3.5968 -6.5289,3.3435 -7.9087,-0.7118 -6.7771,-8.7632 1.5145,-8.3171 2.7636,0.1487 5.8245,1.9218 5.0144,4.9736zm21.3848 -4.4026c1.5026,-1.4406 4.1871,-0.9467 4.4585,0.2557 0.5847,2.5902 -3.6787,1.1546 -4.5045,0.96l0.046 -1.2157zm13.6877 -1.8042c-0.946,-6.4064 4.2873,-11.284 8.4383,-12.8695 6.5392,-2.4978 12.1785,2.0366 13.8176,6.5455 2.0897,5.7485 -1.9114,7.0015 -3.4179,5.2483 -1.4629,-1.7024 -2.081,-4.1316 -5.6425,-5.0039 -3.5197,-0.8621 -5.8644,0.699 -7.6606,2.5579 -1.046,1.0826 -1.418,1.9905 -2.1613,3.1875 -1.0974,1.7674 -2.0875,1.4479 -3.3736,0.3342zm-36.0969 -6.093c-1.6499,0.368 -2.6437,0.9491 -3.5725,1.8371 -0.9237,0.8832 -1.4306,2.1745 -2.2558,3.0734 -0.9107,0.9921 -2.5694,1.3776 -3.43,-0.1172 -2.3484,-4.0787 4.0793,-14.9679 13.7899,-11.6868 2.6323,0.8895 4.7195,2.7185 6.1057,4.5596 5.3761,7.1412 1.2017,11.5677 -0.8649,8.2833 -0.841,-1.3365 -1.2681,-2.3607 -2.0609,-3.2757 -1.6688,-1.926 -4.419,-3.4082 -7.7115,-2.6737zm-11.1777 -23.0755c-0.6975,-0.6367 -0.5046,-0.2471 -0.6937,-1.2949 0.4895,-1.2771 1.2167,-1.854 2.7544,-1.7325 0.6435,1.721 -0.5559,2.8758 -2.0607,3.0274zm70.1658 -2.8898c1.5913,-0.0696 2.6448,0.6989 2.5382,2.3506 -0.9715,0.2528 -1.27,0.4978 -2.0696,-0.205 -0.742,-0.652 -0.7061,-1.1244 -0.4686,-2.1456zm-3.0627 -1.1476c1.5882,-0.1417 1.7096,0.0897 2.3692,1.2242l-0.6795 1.1364c-1.4435,0.0676 -2.0238,-0.8458 -1.6897,-2.3606zm-63.4806 2.1846c-0.8437,-1.6968 0.69,-1.7799 1.9353,-2.1471 0.0436,0.4368 0.4592,2.2592 -1.167,2.3749 -1.1165,0.0794 -0.5994,-0.1332 -0.7683,-0.2278zm25.6224 -4.0012l-0.0363 -1.1785c1.0281,-0.8674 0.9751,-0.5588 3.6822,-0.5588 4.7947,0 1.9687,-1.1163 5.6625,0.8107 -0.6622,0.3274 -0.906,0.6815 -1.7349,1.1594 -0.7826,0.4513 -1.4074,0.6092 -2.3018,0.6878 -1.8639,0.1637 -4.0407,0.1818 -5.2717,-0.9206zm31.2511 -3.6838c1.4713,-0.4963 2.2948,0.34 2.4462,1.1225 0.4793,2.4766 -2.9289,1.4574 -2.7067,-0.4444 0.0855,-0.7325 0.2116,-0.576 0.2605,-0.6781zm-41.5027 -12.4897c-0.8627,0.1279 -1.4714,0.0699 -1.5572,-0.957 -0.1681,-2.0116 1.4954,-3.7882 2.7499,-5.0642l1.2341 0.0612c0.5207,1.4387 -0.0977,1.9018 -0.6497,3.0131 -0.5539,1.1151 -0.8722,2.0718 -1.7771,2.9469zm99.3759 -30.0693c-0.4485,0.2181 -0.7251,0.369 -1.2217,0.5635 -0.7332,0.2874 -0.5696,0.0796 -1.0367,0.6322 0.6961,-0.2769 0.8348,-0.3323 1.6904,-0.2833l0.2501 1.505c-2.0209,1.2678 -0.971,0.5827 -2.5596,1.2457l-9.3966 5.3076c-1.2465,0.8364 -1.289,0.5892 -1.9292,0.9076l-2.7938 1.772c-0.4073,0.248 -0.7866,0.5006 -1.1611,0.7144 -1.2445,0.7103 -1.0668,0.1487 -1.1598,0.1032 1.0564,-1.7482 0.5408,-1.2301 2.2205,-2.293 2.3186,-1.4673 2.7187,-1.5813 2.4769,-2.7322 -2.2745,1.1903 -8.1012,5.0323 -10.0565,6.4924 -3.5085,2.6197 -5.6,4.1752 -8.8683,6.8777 -0.4506,0.3726 -0.1329,0.1005 -0.3993,0.37l0.9103 -0.0824c0.3659,1.6775 0.0953,1.4145 -0.7329,2.5015 -1.2462,1.6358 -2.7962,3.1062 -4.1799,4.6125l-4.4628 4.3552 -4.4709 2.7391 -0.1257 -0.4853c-0.9852,0.8507 -1.6113,1.9781 -2.4803,2.9441l-2.6374 2.6508c-1.1052,-0.4965 -1.2426,-0.9625 -2.2409,-1.3199l-0.307 0.2081c-0.3966,-0.3204 -0.6164,-0.4497 -1.1404,-0.709 -0.2522,-0.1248 -0.3474,-0.1424 -0.6043,-0.2826l-0.3116 -0.1719c-0.3995,-0.2797 -0.224,-0.1895 -0.4625,-0.4271 -1.795,-0.8401 -3.7401,-2.0467 -5.6923,-2.8754l-5.4878 -2.6233c-0.3618,-0.3399 0.43,-0.023 -0.6085,-0.4041l-2.7877 -0.6704c-2.2255,-0.5347 -1.6775,-0.4117 -3.9829,-0.1926 -1.5886,-1.3969 -3.9507,-6.6147 -6.9093,-8.6538 -0.5279,0.9609 -0.3236,0.3083 -0.8699,1.1222 -1.1714,1.7457 0.9432,0.1762 -3.1059,3.0525 0.0541,-0.8855 -0.0063,-0.6816 0.3623,-1.4496 -1.1428,0.9625 -0.945,4.24 -1.0095,5.5412 -2.1912,-1.1774 -4.7014,-9.9346 -5.3763,-11.8794 -3.8491,0.2867 -10.0318,7.7843 -10.6466,13.2086l-0.1214 7.5108c-1.8714,1.6487 -3.0981,-2.0986 -3.4985,-2.9798l-3.76 2.408c0.4202,2.6963 4.6043,6.8939 7.4848,7.1957 1.6775,0.1987 3.1472,0.6398 4.9826,0.6678 0.929,0.0142 1.8551,0.006 2.7871,0.029 1.3183,0.0327 1.4402,-0.0259 2.1833,0.6776 -0.1161,2.4691 -4.2056,1.5161 -6.1584,2.5467 -1.6718,-0.0172 -2.509,0.8656 -6.5515,-1.0681 -2.7775,-1.3286 -5.3146,-3.4732 -6.6706,-6.0584 -0.4895,-0.9329 -0.7638,-2.1794 -1.2918,-3.0968 -0.6609,-1.1483 -2.807,-4.496 -3.5794,-5.0561l-0.1751 0.4647c-1.6904,0.0302 -2.3364,-0.9867 -4.3905,-2.81 -1.1166,-0.9911 -2.5729,-2.4808 -3.6001,-3.5675 -0.7979,-0.8443 -5.7572,-5.6185 -5.7164,-6.8193 0.0325,-0.952 0.3246,-0.8926 1.0391,-0.9314l-0.2425 -0.285c-0.0277,-0.0258 -0.0937,-0.0909 -0.1281,-0.1216 -0.0331,-0.0296 -0.0949,-0.076 -0.1316,-0.1076l-3.5385 -2.9485c-1.7258,-1.3289 -2.7738,-2.0865 -4.3502,-3.2843 -2.2049,-1.6755 -3.9253,-2.8442 -6.1763,-4.1957 -1.0059,-0.6041 -2.118,-1.5 -3.2439,-1.8069 0.2499,0.3807 0.0861,0.3282 0.5055,0.6088 -0.7902,0.0591 -0.1289,-0.105 -0.4121,0.5492 0.4617,0.3395 0.8228,0.4702 1.2084,0.7004 0.5064,0.3023 0.7194,0.5918 1.0791,0.8013 1.079,0.4503 1.406,0.5649 1.45,1.9152 -0.8524,-0.3717 -1.5227,-0.6019 -2.274,-1.1277l-0.5709 -0.5069c-2.0505,-1.0356 -4.9086,-3.1738 -6.5508,-3.9713 -0.935,-0.4541 -1.0466,-0.5221 -1.7684,-0.9914 -0.648,-0.4214 -0.9323,-0.5093 -1.6744,-0.8892 -0.7605,-0.3893 -2.6274,-1.2478 -3.3652,-1.7811 -1.0627,-0.2602 -1.9814,-0.7149 -2.7654,-1.3284l0.085 -1.4218 -3.6678 -0.0812 -3.1739 -1.4217c-1.1019,-0.5693 -5.3323,-2.743 -6.1836,-2.3564l0.1085 -0.449c-1.1444,0.8984 -0.8605,2.4246 -0.7861,4.5816 0.1491,4.3166 1.2296,10.0432 2.2672,14.1249 0.8758,3.4453 4.0786,13.7338 5.7353,15.8336 0.0592,0.0473 0.1487,0.0394 0.1769,0.1427l0.5228 0.5341c1.8379,1.7627 4.5537,1.9226 6.9172,2.3654l-0.103 -0.9457c-0.7885,-1.964 -1.9319,-4.1988 -2.7675,-6.2077 -3.0582,-7.3529 -4.087,-12.9178 -6.0928,-20.7467 1.0476,-0.6017 2.9129,0.7422 4.0025,1.2889 1.2764,0.6403 2.5449,1.3106 3.8236,1.9868 2.6342,1.3931 5.0229,2.7588 7.5022,4.088 4.4273,2.3736 10.5589,6.2094 14.1353,9.0192 2.2924,1.8011 4.2223,3.166 6.4376,5.1452 7.018,6.2698 10.0726,11.2057 15.8873,18.7602 -2.088,2.8518 -1.3306,1.3347 -3.6111,5.1157 -0.7882,1.3068 -2.3279,4.3633 -2.7754,5.9204l-0.5831 0.8636 -0.9952 3.1571c1.6393,0.2525 0.348,0.0512 0.8789,0.4687 0.518,1.2275 -0.7079,4.6068 -1.0084,6.2437 -0.422,2.2984 -0.739,4.5194 -0.8674,6.9523 -0.2071,3.9237 0.2391,11.0659 1.9159,13.8987 0.806,0.6978 0.8954,2.0119 3.424,4.4001 0.8054,0.7607 1.0705,1.3403 1.8795,2.0824 1.9049,1.7469 4.3546,3.6543 6.5885,4.9651 8.9589,5.2572 20.4079,7.9701 30.9197,7.9688 6.5646,-0.0008 16.861,-1.4346 22.9325,-4.1083 2.5034,-1.1024 5.2425,-1.9942 7.9883,-3.6204 7.8971,-4.6773 11.0066,-10.6068 12.0784,-11.3917 1.5422,-4.579 2.2361,-8.0619 2.0222,-13.4998 -0.1988,-5.0561 -1.1465,-8.6458 -2.1905,-13.4713l0.4846 -0.366 0.6171 -0.5235c-0.1164,-0.9142 -0.5789,-1.8134 -0.9293,-2.8647 -0.3747,-1.1244 0.1591,-0.2299 -0.6147,-1.0659 -0.1821,-2.5719 -4.3729,-8.7176 -6.0156,-11.125 0.5493,-1.4012 3.8396,-5.2648 4.9474,-6.6209 1.7883,-2.1891 3.713,-4.2911 5.6046,-6.2135 5.126,-5.2095 6.6631,-6.5076 12.4677,-10.9243 3.1478,-2.395 10.9632,-7.2514 14.3728,-9.0149 7.0664,-3.6546 8.5848,-5.0085 15.7457,-7.629 0.5644,3.4568 -5.5916,20.1635 -8.1974,25.3348 -0.5456,1.0828 -1.2303,2.1833 -1.6329,3.1649l0.2916 0.4112c0.7133,-0.7579 0.2357,-0.3038 1.968,-0.6176 2.0154,-0.3651 3.7555,-1.432 5.2699,-2.6197l0.4935 0.0961c0.5257,-1.4139 2.2513,-4.6192 3.3248,-7.5974 0.9658,-2.6795 1.8967,-5.5192 2.6513,-8.4554l2.0095 -19.3931 -0.6399 -0.1833 0.2087 0.5146 -6.4691 2.8113c-2.7691,1.3053 -5.6123,3.1546 -6.0903,0.4618z"/>
    <path id="_436494288" class="fil6" d="M171.574 133.137l0.4686 0.0977c-0.9969,1.2009 -1.9732,2.5669 -3.3766,3.3171 -0.8707,0.6943 -1.6174,1.3223 -2.4699,2.0108 -0.8424,0.6804 -2.6463,1.8778 -2.4821,-0.533l-6.7713 4.0196c-2.7615,1.58 -1.8214,0.8684 -3.8528,6.8089 1.2927,1.5314 5.0585,3.2661 8.3661,9.2264 1.0605,1.9111 1.9877,3.8032 2.5798,6.2234l-2.2582 5.2638c0.2325,1.6905 0.8084,3.1697 1.0544,4.9667 0.2739,2.0004 -0.0087,3.8888 0.1182,5.6769l-0.3792 2.9891c6.5259,0.0073 12.9884,-2.4791 17.4095,-5.8339 3.0311,-2.3001 3.5685,-2.9893 6.0444,-5.5524 0.6615,-0.6848 0.4587,-0.8917 1.226,-1.3954 0.7946,-4.4076 1.2145,-11.3477 1.162,-16.0587 -0.271,0.3015 -0.1506,0.0317 -0.3693,0.5056l-1.7359 6.8768c-0.6294,2.2124 -1.6846,4.32 -2.6429,6.33 -0.4871,1.0218 -1.153,2.0385 -2.5459,2.009 -3.3518,-0.0711 -0.8315,-7.1378 -1.6528,-11.2396 -5.3387,2.0611 -2.6045,1.6957 -5.0892,2.9246 -3.0841,1.5254 -3.8869,-1.3869 -4.3901,-3.6269l-3.4611 -1.6722c-0.5814,-1.3151 -0.0467,-2.8289 0.6434,-3.9703 1.7996,-2.9759 4.0015,-4.0772 3.7326,-6.4129l-2.0841 -0.3128c-1.094,0.1764 -1.6552,0.143 -2.2983,-0.379 -2.5644,-2.0814 3.3389,-6.8675 5.6277,-9.2175 2.7706,-2.8448 6.5547,-6.5339 9.7989,-9.1893 0.9746,-0.7978 0.9197,-0.677 1.2532,-1.4519 -0.8514,0.3851 -2.0559,1.2408 -2.9761,1.8071l-8.649 5.7923z"/>
    <path id="_436496640" class="fil6" d="M110.896 221.229c0.7183,2.0229 4.0296,3.0652 6.9387,2.604 2.2824,-0.3617 5.3423,-2.142 6.0181,-3.5755l-0.0754 -0.5671 -6.8562 -0.2315c-0.951,0.4486 -1.4736,0.8837 -2.7574,1.0984 -2.5897,0.4331 -3.1953,-0.0645 -3.2678,0.6717z"/>
    <path id="_436496712" class="fil6" d="M91.9459 220.429c0.2335,1.1757 3.6005,3.0481 5.4642,3.3943 2.1127,0.3925 5.9589,-0.3583 6.351,-2.0037l0.4108 -0.8299c-5.2062,-0.7115 -2.1842,-0.2166 -6.0605,-1.4749 -2.5652,-0.8326 -4.2059,-0.1227 -6.5535,0.0964l0.388 0.8178z"/>
   </g>
  </g>
 </g>
</svg>
