<?xml version="1.0" encoding="UTF-8"?>
<!DOCTYPE svg PUBLIC "-//W3C//DTD SVG 1.1//EN" "http://www.w3.org/Graphics/SVG/1.1/DTD/svg11.dtd">
<!-- Creator: CorelDRAW -->
<svg xmlns="http://www.w3.org/2000/svg" xml:space="preserve" width="207.086mm" height="46.5328mm" style="shape-rendering:geometricPrecision; text-rendering:geometricPrecision; image-rendering:optimizeQuality; fill-rule:evenodd; clip-rule:evenodd"
viewBox="0 0 207.086 46.5328"
 xmlns:xlink="http://www.w3.org/1999/xlink">
 <defs>
  <style type="text/css">
   <![CDATA[
    .fil0 {fill:#091B1D}
   ]]>
  </style>
 </defs>
 <g id="Capa_x0020_1">
  <metadata id="CorelCorpID_0Corel-Layer"/>
  <path class="fil0" d="M153.579 12.8803l4.4411 14.8688 -9.0007 -0.0142 4.5596 -14.8546zm-132.269 2.8012l-7.334 -15.5037 -13.4203 -0.0116c0.212,1.313 9.0306,17.7046 10.3615,20.1129 1.7216,3.1153 4.4568,7.2131 4.4716,10.7167l0.1694 15.2564 0.0351 -0.1865 0.0016 0.1872 11.6458 -0.1343c0.5431,-3.4357 0.1772,-11.2625 0.1671,-15.1485 -0.0114,-4.3489 7.5473,-16.2674 9.9608,-20.8237l5.4433 -10.0468 -13.4953 0.0095 -7.6949 15.5008 -0.5101 1.126 0.1984 -1.0544zm31.5152 -2.315l4.4411 14.8688 -9.0007 -0.0142 4.5596 -14.8546zm30.4762 -2.8431c6.1444,-1.8882 9.6729,0.1137 11.3813,4.8225 0.0499,2.2559 -1.1691,4.2982 -3.4284,4.8212 -1.584,0.3666 -6.3758,0.4195 -7.9358,0.0604l-0.0171 -9.7041zm-0.0106 20.0958c6.9431,-1.2849 12.2001,1.8129 18.8155,-3.774 4.2967,-3.6286 5.5917,-10.0657 4.2826,-15.6403 2.1178,4.006 4.1589,7.7842 4.7455,8.8456 1.7217,3.1153 4.4569,7.2131 4.4717,10.7166l0.1694 15.2565 0.0351 -0.1865 0.0016 0.1872 11.6458 -0.1343c0.5431,-3.4357 0.1772,-11.2625 0.1671,-15.1485 -0.0114,-4.3489 7.5473,-16.2674 9.9608,-20.8237l5.4432 -10.0468 -13.4952 0.0095 -7.6949 15.5008 -0.5101 1.126 0.1984 -1.0544 -7.334 -15.5037 -13.4203 -0.0116c0.0693,0.4296 1.0599,2.4731 2.408,5.1125 -6.8346,-7.0118 -21.6947,-4.1614 -32.1772,-4.6596l-0.0347 33.5601 -11.2187 -33.4779 -13.0915 0.0142 -16.1567 45.9993 11.8857 0.051 3.2347 -9.2074 14.1441 -0.1445 3.1557 9.3608 20.184 -0.0155 0.1844 -15.9114zm100.764 -20.582c6.1444,-1.8881 9.6729,0.1137 11.3813,4.8225 0.0499,2.2559 -1.1691,4.2983 -3.4284,4.8212 -1.584,0.3666 -6.3758,0.4196 -7.9358,0.0605l-0.0171 -9.7042zm-0.0106 20.0958c6.9431,-1.2848 12.2001,1.8129 18.8156,-3.774 4.5673,-3.8573 5.7432,-10.8883 4.0044,-16.6831 -3.9971,-13.3208 -22.646,-9.1794 -35.107,-9.7716l-0.0347 33.5601 -11.2187 -33.4779 -13.0915 0.0143 -16.1566 45.9992 11.8856 0.051 3.2347 -9.2074 14.1441 -0.1445 3.1557 9.3608 20.184 -0.0155 0.1844 -15.9114z"/>
 </g>
</svg>
