<?xml version="1.0" encoding="UTF-8"?>
<!DOCTYPE svg PUBLIC "-//W3C//DTD SVG 1.1//EN" "http://www.w3.org/Graphics/SVG/1.1/DTD/svg11.dtd">
<!-- Creator: CorelDRAW -->
<svg xmlns="http://www.w3.org/2000/svg" xml:space="preserve" width="90.13mm" height="98.18mm" style="shape-rendering:geometricPrecision; text-rendering:geometricPrecision; image-rendering:optimizeQuality; fill-rule:evenodd; clip-rule:evenodd"
viewBox="0 0 90.13 98.18"
 xmlns:xlink="http://www.w3.org/1999/xlink">
 <defs>
  <style type="text/css">
   <![CDATA[
    .fil2 {fill:#CE5665}
    .fil4 {fill:#E47C81}
    .fil3 {fill:#F9F5EB}
    .fil0 {fill:#FCB7AD}
    .fil1 {fill:#FD99A3}
   ]]>
  </style>
 </defs>
 <g id="Capa_x0020_1">
  <metadata id="CorelCorpID_0Corel-Layer"/>
  <g id="_339862128">
   <path id="_342186216" class="fil0" d="M26.0873 77.6919c0.9606,0.2702 0.7035,-0.2501 1.3614,-0.1739 0.3288,0.038 0.7479,0.4156 1.132,0.0416 0.355,-0.3456 -0.0196,-0.8668 0.1809,-1.238 0.2333,-0.432 0.5311,-0.2399 0.4251,-1.02 -2.1388,-0.949 -0.8148,-0.5858 -1.7027,-1.2377 -1.2771,0.964 -0.7919,0.6893 -2.2192,1.3351 0.758,1.3797 0.5864,0.8373 0.8225,2.2929zm-6.5356 -16.2419l0.5142 1.1032 1.4087 1.1429 1.4099 0.1697c0.1368,-1.572 -0.0223,-1.0077 0.625,-2.3869 -0.5009,-0.4516 -0.7389,-0.1295 -1.095,-0.5416l-0.9557 -0.8434c-0.7117,0.4141 -0.3602,0.5093 -0.7372,0.8969 -0.3036,0.312 -0.6871,0.1389 -1.1699,0.4592zm-19.5496 -16.016c-0.0065,0.73 -0.0049,0.0453 0.9109,1.3563l1.7632 -0.2841c0.2114,-0.3761 0.0131,-1.4704 -0.0632,-2.078l-1.7104 -0.413c-0.3805,0.4809 -0.1293,0.4575 -0.3246,0.8445 -0.1375,0.2727 -0.3214,0.188 -0.5759,0.5743zm18.0769 9.3689c-1.2914,0.6044 -0.3584,2.3179 0.8665,1.7121 0.9973,-0.4931 0.3804,-2.2957 -0.8665,-1.7121zm4.6257 -17.8062l0.613 0.0353c0.2613,-0.5698 0.1588,-0.7375 -0.449,-0.8264 -0.2793,0.2925 -0.407,0.3926 -0.164,0.7911zm-11.3793 29.6931c0.2974,1.0304 2.1457,0.4522 1.6753,-0.7968 -0.3389,-0.8999 -2.0616,-0.5423 -1.6753,0.7968zm-4.7495 8.1098c0.4025,0.9677 2.0945,0.3627 1.6293,-0.8092 -0.3257,-0.8208 -2.22,-0.6111 -1.6293,0.8092zm-5.3072 -43.7235c0.3695,0.3322 0.3052,0.288 0.8154,0.2289 0.4419,-0.3737 0.535,-0.5919 0.1848,-1.1113 -0.8304,-0.3676 -1.1956,0.0553 -1.0002,0.8824zm22.3155 38.5655c1.1653,-1.3466 -1.6005,-1.5672 -0.6585,-0.0563l0.6585 0.0563zm-13.9227 -48.151l0.0038 0.7107c0.3635,0.1793 0.3388,0.2159 0.7695,0.0348l0.0516 -0.6241c-0.2684,-0.258 -0.5144,-0.3523 -0.8249,-0.1214zm4.7123 4.2486l-0.0407 0.7231 0.8534 -0.0132 -0.0023 -0.7251c-0.4634,-0.2884 -0.4263,-0.1795 -0.8104,0.0152zm3.9356 46.8557c0.3235,-0.3555 0.4561,-0.4147 0.1607,-0.9029l-0.7151 0.0842 -0.0146 0.6411 0.569 0.1776zm-13.7962 -52.6159l0.6637 0.0938 0.0336 -0.8019 -0.6303 -0.0288c-0.2497,0.3723 -0.2473,0.2854 -0.067,0.7369zm5.7521 38.7635c0.8497,0.1965 1.07,-0.3498 1.7203,-0.7178l2.2017 -0.5034c0.1789,-1.0481 -0.4537,-1.4079 -0.2908,-2.057l0.3776 -1.7961c-0.9161,-0.4724 -1.4917,0.0679 -2.0854,-0.2631l-1.7712 -0.9187c-0.732,0.6666 -0.4283,1.0607 -0.7718,1.7886 -0.2884,0.6111 -1.3335,0.5136 -1.4859,1.2559 -0.1799,0.8764 0.7247,1.049 1.235,1.3817 0.5314,0.3464 0.2732,1.2064 0.8705,1.8299z"/>
   <path id="_342185976" class="fil1" d="M86.4279 33.0188c0.7349,1.8571 0.2202,1.5981 0.362,1.9905 0.1747,0.4835 1.03,0.1646 1.3709,0.2537l1.0182 0.1802c0.4064,-0.5079 0.1011,-0.7723 0.4051,-1.141l0.5448 -0.9989c-0.8794,-0.8522 -0.1023,0.4877 -1.7719,-1.3641 -0.6981,0.082 -0.4509,0.3053 -0.8524,0.6405 -0.2613,0.2181 -0.7332,0.2029 -1.0767,0.4391zm-6.7009 -8.1093c0.738,1.3715 0.5505,0.8136 0.7987,2.338 1.5505,-0.385 0.9456,-0.3181 2.5825,-0.2364 0.3576,-0.6147 0.0786,-0.7235 0.1021,-1.2336l0.3961 -1.1565c-1.3879,-0.4821 -0.9554,-0.1866 -1.8371,-1.1891 -1.1603,0.1077 -0.5991,0.3447 -1.0879,0.9159 -0.2516,0.2942 -0.5966,0.1991 -0.9544,0.5617zm-4.3191 10.8448l-1.3584 0.5012 0.7719 1.3991c0.023,0.4889 -0.0953,0.9822 0.378,1.2839 0.4853,0.3092 0.8676,0.0584 1.1617,-0.3397 1.27,-1.7191 -0.0464,0.4836 1.731,-1.7665 -0.7497,-1.1711 -0.3194,0.4511 -1.4919,-2.0098l-0.6203 0.0082 -0.572 0.9236zm-49.3206 41.9376c0.9606,0.2702 0.7035,-0.2501 1.3614,-0.1739 0.3288,0.038 0.7479,0.4156 1.132,0.0416 0.355,-0.3456 -0.0196,-0.8668 0.1809,-1.238 0.2333,-0.432 0.5311,-0.2399 0.4251,-1.02 -2.1388,-0.949 -0.8148,-0.5858 -1.7027,-1.2377 -1.2771,0.964 -0.7919,0.6893 -2.2192,1.3351 0.758,1.3797 0.5864,0.8373 0.8225,2.2929zm-6.5356 -16.2419l0.5142 1.1032 1.4087 1.1429 1.4099 0.1697c0.1368,-1.572 -0.0223,-1.0077 0.625,-2.3869 -0.5009,-0.4516 -0.7389,-0.1295 -1.095,-0.5416l-0.9557 -0.8434c-0.7117,0.4141 -0.3602,0.5093 -0.7372,0.8969 -0.3036,0.312 -0.6871,0.1389 -1.1699,0.4592zm-19.5496 -16.016c-0.0065,0.73 -0.0049,0.0453 0.9109,1.3563l1.7632 -0.2841c0.2114,-0.3761 0.0131,-1.4704 -0.0632,-2.078l-1.7104 -0.413c-0.3805,0.4809 -0.1293,0.4575 -0.3246,0.8445 -0.1375,0.2727 -0.3214,0.188 -0.5759,0.5743z"/>
   <path id="_342185808" class="fil2" d="M43.8254 19.9116c0.5766,-1.2976 7.5125,-1.1608 8.2307,0.1176 -0.5935,1.3061 -7.5905,1.1322 -8.2307,-0.1176zm-2.1257 -1.0891l3.9193 -1.4264c0.1245,0.8466 -0.8663,0.2832 -2.9831,1.5767l-1.1048 0.5337c-0.3659,3.4912 11.9455,5.5841 12.7288,0.0643 -0.5662,-0.2932 -0.296,0.1039 -0.7787,-0.1658 -0.2507,-0.1401 -0.4493,-0.3889 -0.7249,-0.5704 -1.0858,-0.7154 -0.4862,-0.0945 -1.3616,-1.09l2.7808 1.1239c0.0747,-0.7871 -1.6623,-1.5702 -2.3541,-1.7924 -1.1176,-0.3588 -2.6055,-0.5529 -3.7843,-0.5687 -1.208,-0.0161 -2.7659,0.064 -3.9192,0.4121 -0.8008,0.2417 -2.524,0.9356 -2.4182,1.903z"/>
   <path id="_342186432" class="fil0" d="M36.5671 79.8909l0.0317 0.3044 -10.733 1.3091c1.9725,1.5755 1.5058,1.5085 4.4236,1.8676 8.9911,1.1066 21.4837,1.3075 30.4348,0.5652 1.9811,-0.1643 3.8107,-0.3555 5.7672,-0.5626 0.9533,-0.1009 1.7628,-0.2246 2.6599,-0.5114 0.8248,-0.2636 1.6354,-0.2691 1.7755,-1.2467 -2.5803,-1.0977 -2.4114,-1.201 -5.4923,-1.3235 -1.1283,-0.0449 -2.2806,-0.0583 -3.411,-0.0813 -0.7362,-0.015 -3.0834,0.156 -3.2572,-0.1377 -0.4418,0.4435 -0.8048,1.4931 -1.276,2.0659 -0.9393,1.1417 -1.16,0.6215 -1.8281,-0.1183l-1.971 0.4035c-0.5112,-0.6456 -0.6515,-1.5569 -0.8891,-2.3088l-10.0531 0.0118 -0.0618 -0.4737c-0.623,0.7691 -0.2969,3.3546 -2.202,3.128l-0.5947 -0.9162 -0.9007 0.8213 -2.4227 -2.7966z"/>
   <path id="_343897336" class="fil2" d="M42.339 41.6836c0.0493,-0.7531 0.8154,-1.6527 1.4555,-1.9466 1.743,-1.1455 5.1272,-1.0891 7.0108,-0.3173 0.7709,0.2479 1.7962,1.1823 1.8927,1.9859 0.9547,0.9087 0.1592,3.0699 -0.7061,3.8515 -1.6392,1.4805 -7.2929,1.2784 -8.7189,0.1045 -0.8677,-0.7143 -1.8756,-2.7169 -0.934,-3.678zm-1.6085 0.3248c-0.0928,1.989 0.0386,3.0367 1.5597,4.3327 2.1495,1.8316 7.5324,1.6799 9.5634,0.6587 2.0674,-1.0395 2.0777,-2.6393 2.5829,-3.2029 -0.1099,-1.1032 0.1759,-1.4821 -0.2948,-2.7181 -0.8968,-2.3542 -3.2098,-3.4244 -5.6331,-3.5363 -1.7926,-0.0827 -3.6909,0.07 -5.2429,0.9868 -1.6351,0.9658 -1.9488,1.7569 -2.5352,3.4791zm8.1558 -0.7063c-0.5206,0.871 -0.0096,2.3632 1.2648,2.2354 1.0219,-0.1024 1.5864,-1.8305 0.8979,-2.4705 -0.3719,-0.2077 -0.2825,-0.091 -0.6339,-0.2494 0.2672,1.3135 0.697,2.2813 -0.7047,1.9789l-0.1851 -1.6867 -0.2296 0.0964c-0.0454,0.0021 -0.0434,0.0123 -0.1707,-0.1373l-0.2387 0.2332zm0.888 0.0342c0.697,0.0821 0.2466,-0.0387 0.7002,0.4974 0.0445,0.4991 0.0953,0.4146 -0.103,0.8608 -0.9876,0.1656 -0.9751,-0.7732 -0.5972,-1.3582zm-0.888 -0.0342l0.2387 -0.2332c0.1273,0.1496 0.1253,0.1394 0.1707,0.1373l0.2296 -0.0964 0.1851 1.6867c1.4017,0.3024 0.9719,-0.6654 0.7047,-1.9789 0.3514,0.1584 0.262,0.0417 0.6339,0.2494 -0.3969,-1.018 -1.8692,-0.8077 -2.1627,0.2351zm-3.5228 -0.0893c0.5301,0.5521 0.5898,1.5624 -0.5615,1.4579 -0.0523,-0.3858 -0.0791,-0.5051 0.0055,-0.9057 0.1215,-0.5749 0.1523,-0.4642 0.556,-0.5522zm-1.378 -0.0156l0.8037 -0.2742 -0.1075 1.8633 0.9911 -0.1051 -0.0016 -1.6074c0.6863,0.8619 0.5562,0.4086 0.4536,1.9178 0.5986,-0.3852 0.3355,-1.9102 -0.1421,-2.3385 -0.659,-0.5911 -1.6443,-0.21 -1.9972,0.5441zm0 0c-0.8998,1.9722 1.8225,3.1372 2.1393,1.7944 0.1026,-1.5092 0.2327,-1.0559 -0.4536,-1.9178l0.0016 1.6074 -0.9911 0.1051 0.1075 -1.8633 -0.8037 0.2742z"/>
   <path id="_339860520" class="fil2" d="M56.394 34.9542c0.4751,-0.5537 0.8834,-0.6427 1.3865,0.0005 0.0688,1.26 -1.4316,1.3759 -1.3865,-0.0005zm-1.6052 2.3523c0.6264,3.1791 5.2658,2.1869 4.6422,-1.1737 -0.5953,-3.2074 -5.3235,-2.2837 -4.6422,1.1737z"/>
   <path id="_339860616" class="fil2" d="M37.5754 34.6136c1.268,-0.2812 1.416,0.7549 0.8246,1.1728 -0.6098,0.4309 -1.5655,-0.3101 -0.8246,-1.1728zm-1.8734 2.5754c0.5364,3.2753 5.1895,2.436 4.6663,-0.9305 -0.517,-3.3259 -5.2183,-2.4402 -4.6663,0.9305z"/>
   <path id="_339860544" class="fil2" d="M35.4367 31.5778c0.6667,0.2506 0.8528,-0.3692 1.4447,-0.7266 0.6134,-0.3705 1.3472,-0.2998 0.981,-1.1217 -0.8879,-0.271 -2.6504,1.0959 -2.4257,1.8483z"/>
   <path id="_339860928" class="fil2" d="M57.1808 30.353l1.3731 0.7868c0.4447,0.3224 0.758,0.7879 1.2496,0.5303l-2.48 -1.8525 -0.1427 0.5354z"/>
   <path id="_339861000" class="fil3" d="M63.2249 53.0645c0.1228,0.2326 0.0778,0.2249 0.4203,0.201 0.8068,0.054 1.3709,-0.1924 2.1058,-0.4641 1.2218,-0.4516 0.7757,-0.0614 1.5148,-1.0882l-0.4034 0.0884c-0.7781,-0.0051 -3.0154,0.7923 -3.6375,1.2629z"/>
   <path id="_339860880" class="fil3" d="M37.5754 34.6136c-0.7409,0.8627 0.2148,1.6037 0.8246,1.1728 0.5914,-0.4179 0.4434,-1.454 -0.8246,-1.1728z"/>
   <path id="_339861768" class="fil3" d="M56.394 34.9542c-0.0451,1.3764 1.4553,1.2605 1.3865,0.0005 -0.5031,-0.6432 -0.9114,-0.5542 -1.3865,-0.0005z"/>
   <path id="_339861960" class="fil3" d="M63.0668 54.3507l-0.1251 0.6007c0.6907,0.5044 1.2471,-0.1211 1.1566,-0.8069l-0.4828 -0.0047 -0.5487 0.2109z"/>
   <path id="_339861552" class="fil3" d="M49.5726 30.9553c0.4884,0.3316 0.8975,0.3017 0.9256,-0.3425 -0.4753,-0.0492 -0.7514,-0.1006 -0.9256,0.3425z"/>
   <path id="_339861432" class="fil3" d="M64.2731 54.0926c0.5405,0.1151 0.6562,0.1039 0.875,-0.3566 -0.386,-0.2137 -0.9253,-0.2037 -0.875,0.3566z"/>
   <path id="_339861720" class="fil4" d="M57.2736 79.5519l-3.2244 -0.2851 -0.0005 -0.2377c0.3848,-0.3565 1.4106,-0.3891 1.9704,-0.5058l1.8386 -0.5142c-0.0598,0.4894 -0.2268,1.1899 -0.5841,1.5428zm-10.1691 -8.0411c0.455,-0.1797 0.2187,-0.1647 0.6827,-0.0115 0.0993,1.2341 -1.1348,0.7782 -0.6827,0.0115zm-0.3996 -0.5247c-1.1598,0.928 0.3346,2.2509 1.4133,1.5384 1.3198,-0.8717 -0.3554,-2.3849 -1.4133,-1.5384zm-24.1206 -48.1587l0.4222 0.1311c1.0687,0.1606 1.9984,0.9089 3.0509,1.3172 1.1886,0.4611 2.8537,1.7229 3.3377,3.0074 0.3068,0.8144 1.87,4.0788 1.8641,4.5025l-0.309 0.7222c-0.0275,0.1843 -0.3919,0.9029 -0.5055,1.0994 -0.4155,0.7184 -3.4026,0.277 -4.0364,0.0828 -1.2667,-0.388 -2.9986,-1.8104 -3.4054,-3.0439 -0.7671,-1.1491 -1.1152,-2.8841 -1.1512,-4.2687 -0.0518,-1.9888 -0.1902,-2.9917 -0.5721,-4.8992l-0.1318 -0.5133 8.5296 1.6767c1.0476,0.5899 2.1146,1.6078 2.5832,2.714 0.6941,1.6384 0.6999,1.953 2.3503,2.8194l-0.0617 0.1984c-0.0288,0.0515 -2.3753,2.5687 -2.5464,2.7044 -0.2501,0.1121 -0.6162,-1.2162 -0.7043,-1.488 -0.449,-1.3847 -1.1711,-3.8135 -2.4193,-4.6263l-6.6897 -2.8076c0.0728,0.6186 0.1944,0.1844 0.3948,0.6715zm41.4831 9.439c-0.0294,-0.4212 1.657,-5.4463 2.684,-6.3261 0.4726,-0.4048 2.2936,-1.5991 2.7802,-1.7918 0.9847,-0.39 2.2614,-0.9854 3.2024,-1.533 0.2617,-0.0829 0.2542,-0.1608 0.3026,-0.428 -1.7787,0.1147 -5.176,1.5958 -6.5638,2.7602 -2.3293,1.9546 -2.5138,5.6055 -3.3421,6.2497l-1.9186 -2.1898 -0.8554 -0.6301c1.9922,-1.3891 1.6845,-0.9177 2.55,-2.8804 1.6217,-3.6775 8.3502,-5.1178 11.1654,-4.5748l0.0118 0.4319c-0.4721,2.1052 -0.5987,2.8109 -0.6822,5.022 -0.0412,1.0891 -0.4073,3.4798 -1.1505,4.2315 -0.3357,1.1292 -2.1342,2.9469 -3.3324,2.9892 -0.6134,0.6386 -3.0264,0.4035 -3.9471,0.2523l-0.9043 -1.5828zm-26.5829 45.3608l3.8043 1.2088 -0.0749 0.5349 -3.0564 0.1325c-0.4792,-0.5035 -0.5148,-1.2727 -0.673,-1.8762zm28.0644 -8.3347l-0.0155 -1.0684 1.4956 0.9303 1.5575 -0.0027c-0.2583,0.9979 -2.5122,1.2073 -3.251,0.5926 0.0701,-0.5327 -0.0322,-0.2116 0.2134,-0.4518zm1.6483 -4.2855c0.8114,-0.4769 1.3602,-0.449 2.1278,0.0808 1.3944,0.9832 0.5007,3.0681 -1.1901,2.9858 -1.8048,-0.0878 -2.2412,-2.4283 -0.9377,-3.0666zm-39.1235 -13.7339c0.0699,0.5107 0.1037,0.3934 -0.1738,0.8012 -0.5085,0.0239 -0.7337,-0.3385 -0.793,-0.8047l0.9668 0.0035zm39.8651 0.2336c0.819,-0.0705 2.0113,-0.3311 2.6611,-0.0004l-2.6002 0.6912 -0.0609 -0.6908zm-47.7775 -5.6149l1.2262 -1.3555c3.0392,2.6892 2.6838,1.9189 4.2269,5.7858 0.3991,1.0001 2.6599,6.8309 2.6613,7.4345l-0.3748 0.1313c-0.6264,0.0378 -0.9545,0.028 -1.5341,-0.2086 -0.5552,-2.0309 -0.6771,-2.6347 -1.4763,-4.6358 -0.573,-1.435 -1.0309,-2.925 -1.8353,-4.2728 -1.7056,-2.8576 -2.6223,-1.3681 -3.5419,-0.8412 -1.1015,0.6309 -3.9525,0.8755 -4.5717,-0.2132l3.0309 -0.5056c0.8169,-0.3053 1.5316,-1.0294 2.1888,-1.3189zm13.4655 -14.4639c0.1221,-0.3124 0.4407,-0.7063 0.7407,-0.8152 0.5099,-1.084 4.0379,-3.0914 5.329,-3.6316 5.0643,-2.1188 9.8833,-2.1667 14.9353,-0.1366 1.0424,0.4189 2.0291,0.8639 3.014,1.4381 0.4733,0.276 2.2721,1.5042 2.4001,1.8472 0.4912,0.257 0.8008,0.6418 1.2011,1.0288 1.2412,1.018 3.2163,4.2034 3.9235,5.8154 2.0796,4.7404 2.7218,10.7905 -2.0012,14.1713 -4.1823,2.9939 -6.5299,1.7058 -6.2017,3.4339l6.2573 -1.5147c0.6221,-0.4706 2.8594,-1.268 3.6375,-1.2629l0.4389 -0.1742c0.2512,0.5352 0.2572,1.1863 0.6165,1.888 0.3149,0.615 0.6594,0.8006 1.1426,1.1929l-0.116 0.1522c-0.5041,1.2442 -3.4648,4.3674 -4.6452,5.0981l-0.5127 0.5972c-0.2795,-0.2816 -0.0978,-0.274 -0.2961,-0.2065 -0.0738,1.589 2.7164,8.3054 -2.1765,13.6259 -3.1094,3.3812 -8.9764,3.9447 -13.5119,3.8921 -7.1867,-0.0833 -14.9678,-1.9441 -16.0743,-10.0008 -0.3963,-2.8855 0.1164,-5.0613 0.5414,-7.8598 -2.3588,-0.9236 -2.8652,-2.4172 -3.5384,-4.3795 -0.2334,-0.4119 -0.753,-1.4892 -0.6298,-1.932 0.0468,-0.1683 0.3102,-0.6349 0.3996,-0.9009 0.1233,-0.3668 0.1528,-0.6253 0.2311,-0.9952l0.0951 -0.3655c0.8722,0.1606 2.2771,0.3915 3.0069,0.7477l0.0336 0.0377c0.9701,0.6085 2.0221,1.1628 3.0957,1.56 1.4686,0.5433 2.5665,0.8333 3.2831,-0.2413 -1.946,-0.8739 -4.2845,-1.7573 -5.8362,-3.1873 -4.3047,-3.967 -4.177,-7.855 -2.2257,-13.2625 0.557,-1.5438 2.1366,-4.8357 3.4427,-5.66zm-21.0104 -1.0223c1.3711,-0.2726 3.1439,0.4356 3.4413,1.8217 0.2556,0.3334 0.286,0.4686 0.2927,0.9167 0.4795,0.3977 0.1834,1.721 -0.0897,2.2464 -0.3498,0.6732 -1.0871,0.5831 -1.7816,0.9237 -1.5275,0.7492 -2.2096,1.5868 -2.1646,3.3425 0.246,1.1698 1.2132,2.403 2.4762,2.5794 2.2114,0.309 2.9264,-2.2798 1.2993,-1.9374 -0.4183,2.6762 -4.1203,-0.8681 -2.2125,-2.2672 1.0491,-2.1252 6.0117,-1.205 6.7329,1.0615 0.3171,0.2487 0.4418,0.5253 0.4519,0.9375 0.8558,0.97 0.1353,3.0856 -1.0235,4.4156 -2.2547,2.5878 -6.0598,2.5752 -8.9057,0.966 -0.9995,-0.5653 -2.5943,-2.0186 -2.9569,-3.0988l-0.3893 -0.6232c-0.7174,-1.4921 -0.9783,-2.8731 -0.5699,-4.5343 0.6002,-2.4416 2.051,-2.5006 2.7596,-2.8085l-2.2919 -1.5055c-0.4007,-0.4276 -0.6185,-0.9866 -0.7156,-1.5617 -0.8649,-3.299 3.2128,-5.3921 3.628,-3.5859 0.477,0.3674 0.1882,1.811 -0.7444,1.7904 -0.3147,-0.2998 -0.3605,-0.3574 -0.2877,-0.8021l0.6218 -0.1632 0.0041 -0.6021 -0.8388 -0.3047c-0.4489,0.5293 -0.751,0.4053 -0.7242,1.3513 0.0161,0.5698 0.2693,1.0325 0.6892,1.341 1.1651,0.856 2.0852,0.2973 3.2993,0.1009zm23.9507 49.4853l2.4227 2.7966 0.9007 -0.8213 0.5947 0.9162c1.9051,0.2266 1.579,-2.3589 2.202,-3.128l-0.0012 -0.4828c0.3351,-0.0766 4.0751,0.2579 4.881,0.2672 1.5682,0.018 3.7001,-0.2846 5.0603,-0.2022l0.1748 0.8797c0.2376,0.7519 0.3779,1.6632 0.8891,2.3088l1.971 -0.4035c0.6681,0.7398 0.8888,1.26 1.8281,0.1183 0.4712,-0.5728 0.8342,-1.6224 1.276,-2.0659 0.0131,-0.2558 0.8011,-2.6367 0.9354,-2.778 1.0788,-1.1344 2.9692,-1.1845 5.1498,-6.1443 1.7542,0.1992 2.8117,0.5766 4.3086,-0.4968 1.6764,-1.2019 0.8665,-1.4094 1.7055,-2.5269 1.0797,-1.4379 0.4749,-3.6525 -1.1953,-4.5057 -2.185,-1.1161 -3.4442,0.4943 -3.9945,0.8563l-0.4685 -2.95 4.4095 -4.756c0.6358,-0.8859 1.2664,-1.7649 1.9102,-2.6777 0.9318,-1.3212 0.5341,-1.0178 0.6566,-1.5936 0.1172,-0.5508 0.6624,-0.5769 0.5962,-1.561l-2.9982 -0.9074c-1.0698,-0.1788 -3.1066,0.3563 -3.6468,0.3175 1.5451,-2.823 2.3881,-3.7215 2.1969,-7.249 -0.2028,-3.7409 -1.969,-6.6995 -1.9928,-7.4483l4.997 -1.3764c1.1846,-0.8814 2.1942,-2.0647 2.8648,-3.4834 0.9024,-1.9088 0.8659,-3.3139 0.9799,-5.3632 0.1263,-2.2698 1.0064,-4.571 0.9111,-5.2553l-5.4907 -0.5111c-1.5422,0.1949 -3.5307,0.7793 -4.8459,1.5031 -1.2196,0.6713 -2.7283,1.8363 -3.4902,2.9796 -1.0529,1.5799 -1.1504,2.591 -3.4139,2.9667l-3.3359 -1.761c-1.0785,-0.5108 -2.5561,-0.9143 -3.7469,-1.1839 -4.0822,-0.924 -9.0913,-0.4468 -12.8926,1.3784 -1.6812,0.8071 -2.3204,1.696 -3.1953,1.3414 -1.6682,-0.6763 -1.6872,-1.0317 -2.5517,-2.5257 -1.8788,-3.2468 -6.3363,-4.8178 -10.0081,-4.926 -5.123,-0.151 -3.8647,0.6715 -3.3612,3.1298 0.872,4.2572 -0.2126,6.574 2.4454,10.0156 0.7343,0.9508 1.6909,1.6636 2.7836,2.2579 1.6394,0.8916 2.4515,0.6335 4.1538,0.8123 -0.9606,2.7908 -1.7696,4.5864 -1.7714,7.6488 -0.0025,4.3513 2.088,5.6759 2.4679,6.8248 -1.5556,-0.2125 -2.1665,-0.1845 -3.2662,-0.3105l-1.7693 -3.615c-0.9985,-1.6422 -1.493,-1.5697 -2.7973,-2.6531 0.4448,-1.5265 0.056,-3.578 -0.6548,-5.2932 -1.0327,-1.4721 -2.2516,-2.0778 -4.028,-2.4563 0.0358,-2.1886 0.4112,-3.6325 -1.0795,-5.1309 -1.4292,-1.4365 -2.8081,-1.6533 -4.7487,-1.0089l0.2354 -2.1214c-0.1104,-0.9319 -2.349,-2.5986 -4.6589,-0.2856 -0.8683,0.8696 -1.348,2.5639 -1.21,3.8088 0.1693,1.5276 0.7917,2.2196 1.7483,3.1799l-1.4814 2.7766c-0.2859,1.245 -0.2587,2.4567 0.0907,3.6817 0.4983,1.7476 1.9856,3.8366 3.3473,4.873 0.7709,0.5867 1.8311,1.1791 2.7445,1.4859 1.6124,0.5416 2.2447,2.8386 5.8381,2.3077 1.7303,-0.2556 2.166,-1.0506 2.8562,-1.2686l2.3403 4.0261 0.9337 2.3598c0.5462,0.5134 0.6855,2.4848 1.0406,3.3098 0.657,1.5261 2.2932,0.8634 3.0234,1.3236 0.2879,0.1814 0.8151,0.8361 1.1087,1.1254 0.3272,0.3224 0.7803,0.6165 1.1569,0.9508 -0.6069,3.6641 -1.1059,7.2424 0.8307,10.9291 0.6608,1.2582 1.807,2.7908 2.8734,3.5943 1.2991,0.9789 0.8369,0.3717 1.3806,1.8905 0.232,0.648 0.7968,1.6767 0.8738,2.2859zm12.1763 -50.1441c0.8027,0.0315 1.818,0.0097 1.6237,-0.999 -0.4863,-0.1385 -1.4781,-0.0113 -1.8992,0.2021 -0.2066,0.5125 -0.0999,0.4761 0.2755,0.7969zm1.8018 -2.0465c-0.4452,0.8399 0.5272,0.9825 1.0529,0.7565 0.1257,-0.2955 0.2543,-0.3329 -0.1657,-0.6563 -0.3725,-0.2867 -0.5067,-0.2648 -0.8872,-0.1002zm-9.2782 -0.1738c0.067,0.5693 0.0773,0.5609 0.68,0.6562 0.4443,-0.2341 0.6085,-0.3386 0.5391,-0.8346 -0.5509,-0.2 -0.7899,-0.1052 -1.2191,0.1784zm-1.5553 1.583c0.3714,-0.349 0.5089,-0.0391 0.437,-0.7326 -0.5302,0.0033 -1.3263,-0.1303 -1.0861,0.6997l0.6491 0.0329zm14.0896 0.0494l0.5129 -0.1465 0.1514 -0.4007 -0.3184 -0.3338c-0.9275,-0.0038 -1.0351,0.3063 -0.3459,0.881zm-12.2626 0.2664c-0.035,-0.9595 -1.287,-0.6921 -0.9341,0.1528 0.4486,0.1768 0.5806,0.1102 0.9341,-0.1528zm2.8079 -0.8879c-0.4257,0.1422 -0.6266,0.2041 -0.5013,0.7405l0.8514 0.0306c0.0585,-0.4952 0.025,-0.5355 -0.3501,-0.7711zm8.0395 -0.2678l0.6256 -0.0802 -0.0352 -0.6769 -0.7435 -0.0025c-0.0372,0.5466 -0.077,0.2845 0.1531,0.7596zm0.3456 1.0544c-0.3538,-0.3933 -0.3109,-0.3216 -0.8644,-0.1774 -0.1183,0.831 0.7365,0.8424 0.8644,0.1774zm3.4269 -0.2373c0.0078,-0.6134 -0.236,-0.6265 -0.8341,-0.5932 -0.0527,0.6212 0.2964,0.6566 0.8341,0.5932zm-12.7645 0.4837c-0.1439,-0.5653 -0.2379,-0.4761 -0.7209,-0.3347 0.1131,0.5898 0.1261,0.723 0.7209,0.3347zm1.9205 1.2605c0.5074,0.2464 0.7007,0.0925 0.6722,-0.4104l-0.7386 0.0094 0.0664 0.401zm-30.0063 9.1988c0.365,-1.1748 2.0083,-1.0835 2.705,0.0276 0.6766,1.0792 0.0504,2.3463 -0.7494,3.1297l0.0667 0.315c2.2094,-0.1781 2.5518,-3.1536 1.149,-4.6111 -1.5549,-1.6156 -5.0452,-0.2998 -3.6834,1.2995l0.5121 -0.1607z"/>
   <path id="_339861336" class="fil2" d="M54.7486 3.274c0.5009,-0.1396 1.4948,0.1078 1.5302,0.7514 0.0398,0.7245 -0.9867,0.932 -1.5526,0.7209l0.0224 -1.4723zm-0.0176 3.6643l2.8485 4.1362c1.2426,-0.8651 1.8817,-1.6273 0.7942,-3.8081 -1.2502,-2.5069 0.0464,-0.7771 0.5678,-2.7709 0.7446,-2.8471 -2.4916,-4.2329 -4.8302,-4.1211 -2.7503,0.1315 -2.0565,5.0675 -2.1617,7.0478 -0.0615,1.1587 -0.293,3.3868 1.6028,2.9108 1.6138,-0.4051 0.59,-2.5895 1.1786,-3.3947zm-7.6885 -2.1564c0.258,0.4287 0.5079,1.1798 0.4959,1.6978l-0.9746 0.003c-0.0083,-0.5268 0.2003,-1.2776 0.4787,-1.7008zm-1.0739 3.8203l2.0482 -0.0274c0.2848,0.2743 0.9769,3.0919 2.583,1.4745 0.7883,-0.7939 -0.0163,-2.7794 -0.3048,-3.7561 -0.4612,-1.5616 -1.2612,-6.3798 -3.2269,-6.2905 -1.973,0.0896 -2.821,4.6433 -3.3137,6.2375 -0.2882,0.9323 -1.079,2.9197 -0.4196,3.7238 1.4327,1.7473 2.3926,-1.1357 2.6338,-1.3618zm28.3767 1.646l0.8532 -1.2449c0.0555,0.459 0.0898,1.1056 -0.118,1.5178 -0.2926,-0.0132 -0.5197,-0.077 -0.7352,-0.2729zm-1.164 2.01l1.5806 0.4576c0.2648,0.5502 -0.253,3.411 1.9996,2.3649 0.9623,-0.4469 0.8558,-2.8271 0.9197,-3.7882 0.1052,-1.5814 1.2119,-8.1366 -2.2296,-6.5179 -0.8974,0.4221 -3.3529,4.2189 -4.0765,5.2384 -0.6207,0.8744 -1.8622,2.1039 -1.0708,3.1736 1.1347,1.5336 2.3544,-0.631 2.877,-0.9284zm-10.1473 -4.8549l2.482 -0.1149 0.2777 -0.7487 -2.5344 -1.1759 0.324 -1.2889 3.4335 -0.0448 -0.0032 -0.2478c1.8813,-2.7884 -4.9332,-2.5905 -5.5349,-2.257 -0.9981,0.5534 -1.3611,5.9741 -1.5565,7.2721 -0.5131,3.4077 3.4827,3.5773 5.3562,2.8796 1.1138,-0.4149 1.2852,-2.0628 0.0134,-2.497 -0.8866,-0.3027 -3.5755,0.0241 -2.2578,-1.7767zm-26.5838 0.0108c-1.3491,0.4102 -1.3929,-3.1312 -1.5261,-4.0855 -0.3916,-2.8061 -2.6386,-1.9426 -2.649,-0.3961 -0.0164,2.4256 0.5314,7.9744 3.7354,8.1479 4.2276,0.2289 3.4484,-5.4749 3.1751,-8.1066 -0.3236,-3.1161 -2.5073,-2.4018 -2.652,-0.9605 -0.1228,1.2237 0.8672,4.6254 -0.0834,5.4008zm-21.341 -0.7773c-0.9707,2.1442 3.2931,2.8064 4.4694,6.1626 0.4194,1.1968 1.3773,3.1971 2.9396,1.8362 1.2224,-1.0647 -0.3878,-2.9739 -0.3856,-4.2772 0.0015,-0.8483 1.0108,-3.0373 1.1471,-4.2929 0.2452,-2.2593 -2.0895,-2.3873 -2.6638,-0.8515 -0.6393,1.7098 0.119,3.6276 -1.8306,2.0381 -0.991,-0.808 -2.59,-2.0168 -3.6761,-0.6153zm12.3315 -0.7522c1.7695,-0.7798 2.419,2.8834 0.9073,3.5449 -1.6284,0.7126 -2.5666,-2.8137 -0.9073,-3.5449zm-0.1804 -2.8809c-4.9195,1.0681 -3.754,10.5713 1.4917,9.5226 5.199,-1.0393 3.3663,-10.5773 -1.4917,-9.5226z"/>
   <path id="_339861528" class="fil2" d="M28.8876 89.8994c-0.0649,0.6935 -0.5268,0.9864 -1.2326,0.9225 -0.6538,-0.0591 -0.4132,-0.9433 -0.3858,-1.5507 0.6529,-0.2001 1.3273,0.0092 1.6184,0.6282zm-1.6461 3.1033c0.7521,0.2422 1.6152,2.8039 2.1872,3.4741 1.1524,1.3503 2.9688,0.1523 2.0917,-2.3269 -1.4411,-4.0731 -1.1859,-0.5707 0.0886,-3.3768 0.6767,-1.4899 -0.2357,-3.205 -1.5959,-3.936 -5.1797,-2.7837 -5.5072,0.739 -5.542,4.7051 -0.0101,1.1445 -0.4696,4.5703 0.7352,5.0686 2.4289,1.0045 1.7858,-2.4169 2.0352,-3.6081zm50.661 -2.3608c-0.0034,-0.0017 -4.9029,-10.3012 -4.8401,-0.1568 0.0074,1.1928 -0.2697,5.3628 0.7464,5.9391l2.1084 -4.2391c0.0854,0.0429 4.859,9.8839 4.791,-0.0552 -0.0083,-1.2174 0.4199,-5.189 -0.8002,-5.7287 -2.5165,-1.1133 -1.7234,3.1388 -2.0055,4.2407zm-33.2613 2.7153c-0.0593,-0.4615 0.2369,-1.1789 0.4832,-1.556l0.4027 1.5736 -0.8859 -0.0176zm-0.5904 2.3208c3.0605,-0.6571 1.5253,1.6817 3.2053,2.1629 2.2879,0.6554 1.8129,-1.9268 1.4861,-3.1738 -0.4063,-1.5504 -1.4997,-7.5774 -2.8143,-8.1316 -2.6407,-1.1134 -3.5584,4.7305 -4.0908,6.3849 -0.3122,0.9698 -1.2756,3.2675 -0.802,4.156 1.2848,2.4099 2.9027,-1.3119 3.0157,-1.3984zm23.8355 -6.0165c1.9073,-0.8209 2.0605,3.3337 0.7452,3.8459 -2.0537,0.7998 -2.285,-3.1832 -0.7452,-3.8459zm-0.0778 -3.2445c-4.9019,0.803 -4.6278,11.4565 0.728,10.6623 4.896,-0.726 4.5847,-11.5325 -0.728,-10.6623zm-31.4619 6.1489c0.8,-0.4052 2.3553,0.3753 2.5035,-0.9347l-2.5004 -1.1174 0.0682 -1.654 3.3933 -0.4781 -0.0335 -0.2375c1.5983,-2.9451 -5.4036,-1.6996 -5.8247,-1.3621 -0.8695,0.6966 -0.6032,6.7028 -0.6183,8.0616 -0.0398,3.594 5.0364,2.8392 5.9469,2.1989 0.8903,-0.6262 0.8595,-2.3409 -0.4531,-2.6727 -1.1179,-0.2827 -3.6261,0.4079 -2.4819,-1.804zm13.8947 -5.6513c-1.6014,0.4449 -1.4758,2.6626 0.0995,2.9695 2.745,0.5348 2.0711,-0.4419 2.0328,3.186 -0.0766,7.2716 3.0208,5.5972 2.9777,2.239 -0.0108,-0.8412 -0.2411,-4.6795 0.0426,-5.0651 0.654,-0.889 3.3403,0.5299 3.3927,-1.7597 0.0537,-2.3498 -6.9142,-2.0228 -8.5453,-1.5697zm-29.8378 -0.574c-8.1712,1.6423 -1.76,12.8914 2.4484,9.6773 3.429,-2.6189 -5.0613,-2.8947 -3.0498,-5.7454 1.0116,-1.4336 3.1476,0.1388 3.4399,-1.8011 0.3109,-2.0629 -1.1245,-2.4752 -2.8385,-2.1308zm40.7307 0.4399c-1.4965,0.3324 -2.4097,11.3168 0.4413,10.7431 1.6946,-0.3411 2.4233,-11.3792 -0.4413,-10.7431z"/>
   <path id="_339862224" class="fil0" d="M22.7047 36.9967l0.613 0.0353c0.2613,-0.5698 0.1588,-0.7375 -0.449,-0.8264 -0.2793,0.2925 -0.407,0.3926 -0.164,0.7911zm-21.436 -5.9206c0.3695,0.3322 0.3052,0.288 0.8154,0.2289 0.4419,-0.3737 0.535,-0.5919 0.1848,-1.1113 -0.8304,-0.3676 -1.1956,0.0553 -1.0002,0.8824zm8.3928 -9.5855l0.0038 0.7107c0.3635,0.1793 0.3388,0.2159 0.7695,0.0348l0.0516 -0.6241c-0.2684,-0.258 -0.5144,-0.3523 -0.8249,-0.1214zm4.7123 4.2486l-0.0407 0.7231 0.8534 -0.0132 -0.0023 -0.7251c-0.4634,-0.2884 -0.4263,-0.1795 -0.8104,0.0152zm-9.8606 -5.7602l0.6637 0.0938 0.0336 -0.8019 -0.6303 -0.0288c-0.2497,0.3723 -0.2473,0.2854 -0.067,0.7369zm69.1426 41.3933c-1.3792,0.6542 -0.4802,2.7169 0.9931,2.0682 1.365,-0.6011 0.4397,-2.7479 -0.9931,-2.0682zm-1.4678 -14.2547l0.5996 0.0063c0.5673,-1.2242 -1.233,-1.0181 -0.5996,-0.0063zm2.4103 22.8631c0.1445,1.3815 2.1829,1.0969 2.1364,-0.2353 -0.0464,-1.3264 -2.3226,-1.5451 -2.1364,0.2353zm-6.3455 6.2293c0.1187,1.2885 2.1444,1.128 2.1155,-0.2328 -0.0284,-1.3404 -2.2638,-1.3766 -2.1155,0.2328zm14.2164 -22.9874c-1.3179,0.3229 -0.9306,2.2995 0.4614,1.9681 1.2086,-0.2878 0.836,-2.2859 -0.4614,-1.9681zm-6.2181 4.755c1.1354,-1.0723 0.3652,-2.1866 -0.6827,-1.8458 -0.9018,0.2933 -1.0304,2.1685 0.6827,1.8458zm-8.8258 8.7169c0.9102,1.0922 2.2424,-0.0661 1.181,-1.0612 -0.8345,-0.1028 -1.2661,0.1661 -1.181,1.0612zm-56.0999 -0.0047c0.2974,1.0304 2.1457,0.4522 1.6753,-0.7968 -0.3389,-0.8999 -2.0616,-0.5423 -1.6753,0.7968zm-4.7495 8.1098c0.4025,0.9677 2.0945,0.3627 1.6293,-0.8092 -0.3257,-0.8208 -2.22,-0.6111 -1.6293,0.8092zm17.0083 -5.158c1.1653,-1.3466 -1.6005,-1.5672 -0.6585,-0.0563l0.6585 0.0563zm-5.2748 2.9533c0.3235,-0.3555 0.4561,-0.4147 0.1607,-0.9029l-0.7151 0.0842 -0.0146 0.6411 0.569 0.1776z"/>
   <path id="_339862272" class="fil4" d="M10.2653 58.7425c0.8497,0.1965 1.07,-0.3498 1.7203,-0.7178l2.2017 -0.5034c0.1789,-1.0481 -0.4537,-1.4079 -0.2908,-2.057l0.3776 -1.7961c-0.9161,-0.4724 -1.4917,0.0679 -2.0854,-0.2631l-1.7712 -0.9187c-0.732,0.6666 -0.4283,1.0607 -0.7718,1.7886 -0.2884,0.6111 -1.3335,0.5136 -1.4859,1.2559 -0.1799,0.8764 0.7247,1.049 1.235,1.3817 0.5314,0.3464 0.2732,1.2064 0.8705,1.8299zm67.9613 -12.8506l0.076 1.5801c0.5255,0.7253 1.0757,0.2239 1.6543,0.0077l2.0205 0.2488 0.3756 -1.8382c0.577,-0.6387 1.9059,-1.7665 0.1483,-2.1571 -0.8287,-0.1841 -0.8035,0.0334 -1.217,-0.7692 -0.2054,-0.3987 -0.4857,-0.9579 -1.0161,-0.8988 -0.4894,0.0546 -0.7386,0.6322 -0.962,1.007 -0.7863,1.3194 -3.607,0.096 -1.0796,2.8197z"/>
  </g>
 </g>
</svg>
