<?xml version="1.0" encoding="UTF-8"?>
<!DOCTYPE svg PUBLIC "-//W3C//DTD SVG 1.1//EN" "http://www.w3.org/Graphics/SVG/1.1/DTD/svg11.dtd">
<!-- Creator: CorelDRAW -->
<svg xmlns="http://www.w3.org/2000/svg" xml:space="preserve" width="279.993mm" height="246.041mm" style="shape-rendering:geometricPrecision; text-rendering:geometricPrecision; image-rendering:optimizeQuality; fill-rule:evenodd; clip-rule:evenodd"
viewBox="0 0 279.993 246.041"
 xmlns:xlink="http://www.w3.org/1999/xlink">
 <defs>
  <style type="text/css">
   <![CDATA[
    .fil0 {fill:#04050A}
   ]]>
  </style>
 </defs>
 <g id="Capa_x0020_1">
  <metadata id="CorelCorpID_0Corel-Layer"/>
  <path class="fil0" d="M63.2358 178.024c-0.5932,-5.2741 -1.5096,-8.9572 -1.5042,-14.814 0.0023,-2.5999 0.1592,-4.8936 0.3231,-7.3987 0.9385,-10.9937 1.9138,-4.8095 -2.9478,-13.1572 -18.7433,-32.1828 -13.5361,-60.6945 -20.3289,-85.3738 -1.5757,-5.7248 -3.9033,-10.1841 -10.0044,-5.8597 -2.2417,1.589 -8.4136,7.5974 -9.4532,10.0977 -0.887,0.2977 -3.3276,4.1483 -3.8214,4.8904 -3.4227,5.1432 -6.8684,11.5336 -9.1738,17.4479 -2.0286,5.2041 -7.4314,22.7056 -6.1113,29.1819l8.8589 4.5471c3.5362,3.0188 1.9283,7.0081 -0.8833,8.8694 -6.6032,4.3711 -10.3065,-1.1776 -5.4134,16.691 1.688,6.1642 4.6927,14.1064 7.7515,19.1303 2.1931,3.6022 6.8619,0.6627 10.1593,3.3097 3.8517,3.0919 -2.1424,6.4627 -3.0198,8.0624l16.9118 17.0805c2.9389,2.4453 11.6071,7.4038 15.9524,9.3269 1.7238,0.7629 4.5589,1.6006 5.666,2.4999 3.2106,0.541 6.8195,2.199 10.3918,2.9908 3.8082,0.8442 2.7713,1.3867 6.7125,-1.8557 1.0256,-0.8439 0.8815,-0.8951 2.0612,-1.5207 -2.9937,-3.3624 -4.9958,-6.7129 -7.3224,-11.2195 -0.9794,-1.897 -1.9831,-4.1196 -2.7362,-6.4047 -0.5838,-1.7717 -1.3874,-5.0657 -2.0684,-6.5219zm65.7524 -36.6813c0.9284,-3.2296 6.3643,-6.1391 10.6597,-6.9784 3.4387,-0.6721 12.5712,-0.2641 14.5467,2.0136l-14.3374 0.8592c-4.0691,0.5975 -8.235,3.0867 -10.869,4.1056zm5.7004 -10.3532c2.0663,-4.0388 11.437,-4.2325 14.1205,-2.6199 0.5817,0.3497 0.2476,0.1828 0.6169,0.5895 -11.7308,0.4948 -5.2118,-0.0029 -14.7374,2.0304zm-13.166 -46.2309l0.7067 2.7626 -30.1674 16.0666c-8.0144,6.7737 -14.7004,14.6905 -20.3095,25.7906 -5.4907,10.8657 -8.1758,24.6463 -7.2813,38.8917 0.4214,6.7115 2.2452,12.9163 4.5761,18.2981 1.8247,4.2131 5.9774,11.7392 8.8941,13.9851l8.3713 -3.3344c-5.2214,-3.3105 -8.2644,-5.4568 -11.353,-11.1653 -2.9282,-5.4125 -4.23,-10.0884 -5.132,-17.0773 -3.7317,-28.9187 18.6489,-61.3548 35.2002,-47.3325 7.2922,6.178 11.0335,16.5188 13.6343,25.7088l0.7902 3.2136c0.5866,1.4763 0.1265,0.3834 0.5797,0.9685l4.6002 -3.5775c9.8799,-7.5422 26.4751,-9.0615 37.5712,-3.3246 1.1567,0.5981 3.7033,2.4205 5.1208,2.2558l1.4858 -13.7054c1.4483,-10.1436 7.2071,-25.8152 20.1458,-24.3385 7.6772,0.8763 15.1805,7.4226 18.5878,11.2994 26.425,30.0661 17.6719,75.883 -18.7773,69.2595 -4.0208,-0.7307 -7.7196,-2.3085 -10.9509,-4.1517 -6.3052,-3.5966 -5.3018,-4.7327 -6.3513,-7.7481 -0.0163,-0.0469 -0.1048,-0.0875 -0.1178,-0.1959 -0.0124,-0.1039 -0.0859,-0.1184 -0.1321,-0.175l-1.7069 1.6834c-0.7885,2.5177 -6.0313,6.7329 -8.7263,8.3118 -7.8491,4.5987 -19.5915,5.9657 -28.364,2.7074 -3.2855,-1.2202 -8.6675,-4.46 -10.2385,-7.118 -0.226,-0.0255 -0.5075,-0.0224 -0.6776,0.0226l-2.0943 6.4445c-1.4616,2.5827 -12.2482,8.8077 -16.1997,8.5647 0.0116,1.0001 3.3901,2.2781 5.2366,3.2916 0.8726,0.479 4.6639,3.0856 5.2437,3.1325 0.4372,0.0354 11.3704,-3.4083 13.1298,-3.8395 15.5223,-3.8041 29.7775,-5.3283 46.0387,-3.3265 1.9215,0.2366 14.1327,2.5825 14.4417,2.5278 1.1826,-0.2094 10.7029,-6.5484 20.5603,-4.3063l6.7941 1.9268c3.4921,-2.9977 7.3524,-10.1891 9.2949,-14.569 7.1485,-16.1188 4.2556,-39.6959 -3.8548,-55.1046 -0.8262,-1.5697 -1.6471,-2.7883 -2.0755,-4.2124 -0.9368,-0.6565 -1.9709,-2.8544 -2.7839,-4.0844 -1.0528,-1.5928 -1.7567,-2.6151 -2.8319,-3.9005 -4.2735,-5.1088 -8.3826,-9.5604 -13.5264,-13.7402 -14.2158,-11.5515 -28.8394,-16.4301 -49.5419,-18.1583l3.5294 -6.5494c1.0444,-1.3831 5.0684,-3.2931 5.8646,-3.8682 -1.0144,-0.7772 -0.9094,-0.8341 -2.314,-1.0081 -8.8296,-1.0941 -14.1772,6.3058 -15.4038,7.0445 0.389,-2.6139 0.4646,-4.9312 1.6091,-7.0205 0.7774,-1.419 0.5712,-0.5538 0.8107,-1.7303 0.6499,-0.4019 0.4459,-0.1908 1.0226,-0.8238l2.8079 -2.8305c-2.0634,-0.9369 -6.4499,-0.5175 -8.1336,1.4437 -1.8634,0.1569 -4.7082,3.495 -5.6231,4.9196 -1.5986,2.4891 -2.3756,4.9766 -2.3817,8.455 -2.1852,-0.7464 -3.7075,-3.2428 -4.9097,-4.5934 -1.362,-6.2234 -0.4439,-4.3584 0.5047,-7.8325l-5.549 6.0815c-0.8383,1.368 -1.5402,7.665 0.3562,9.6849zm106.07 49.3333c-0.2859,1.8719 -0.9479,2.1829 -0.3706,4.0907 5.3616,17.7165 5.4257,38.1537 -4.6431,53.8333l-4.2029 6.2131c2.0113,1.8447 5.0575,0.1482 7.6544,-0.7379 10.7248,-3.6594 24.7722,-12.7058 31.5537,-20.6438l8.8295 -11.9537c-0.9824,-1.5977 -10.1622,-6.7695 -1.3844,-9.1414 6.3969,-1.7285 6.1916,1.9155 9.8817,-8.3951 0.985,-2.7523 7.5857,-25.0966 4.0319,-27.9008 -0.4429,-0.3496 -0.1744,-0.0434 -0.5973,-0.3671 -0.6427,-0.4919 -0.4257,-0.3424 -0.6746,-0.7072 -4.6167,1.0497 -10.0365,-1.4253 -10.1746,-5.68 -0.1261,-3.888 4.8141,-7.472 8.2051,-8.2898l3.2592 -2.0966c1.5379,-9.5158 -9.0613,-32.4283 -14.7943,-40.8188 -3.8614,-5.6511 -8.2126,-11.1895 -12.4879,-15.1144 -2.6481,-2.4313 -12.567,-11.2005 -17.0713,-10.628 -6.5726,0.8352 -4.67,16.0462 -4.3702,22.39 0.4062,8.5953 1.5357,17.2821 1.8819,25.9421 0.3707,9.2692 0.4241,17.6139 -0.0906,26.9464 -0.2536,4.5957 -2.8684,20.4565 -4.4356,23.059zm-39.2141 -112.978c-0.4058,0.973 -10.7374,8.7366 -12.4688,10.0836 -3.0364,2.3624 -9.4569,8.0535 -12.1093,10.7894 -3.283,3.3859 -8.1054,8.618 -4.6539,15.8018 2.788,5.8032 9.9548,5.0483 16.869,5.9586 6.6557,0.8762 13.022,1.8252 19.4118,3.1684 6.4338,1.3524 13.545,3.9091 17.3173,-1.5785 3.7195,-5.4107 2.8812,-13.321 -2.6508,-15.7404 -3.1737,-1.3879 -14.7922,-3.1759 -18.922,-3.9022 1.1556,-2.5042 19.6993,-16.8483 23.4626,-20.222 3.4105,-3.0575 7.3821,-9.1089 3.8026,-15.5542 -2.6842,-4.8333 -9.7172,-5.4273 -15.9142,-6.368 -6.6747,-1.0133 -12.641,-1.7523 -19.2038,-2.6196 -7.3741,-0.9746 -14.2126,-2.317 -17.951,2.8816 -3.2817,4.5634 -2.656,13.4125 3.8164,14.3686 3.1978,0.4723 17.4531,1.899 19.1941,2.9329zm-109.311 182.396c-0.442,0.6647 -4.6352,3.8008 -5.2854,4.3667 -1.2811,1.1148 -3.2529,3.4248 -4.2876,5.148 -11.7509,19.5718 5.5688,37.2676 14.9092,32.0849l-3.6654 -5.706c9.3874,1.7966 10.2619,3.3551 12.5141,-3.9915l5.8192 3.9468c4.7615,2.4092 8.999,-6.3985 6.1208,-16.5039 -0.3434,-1.2056 -1.0592,-2.4831 -1.1437,-3.5493 8.1689,11.8557 3.366,6.8594 4.9793,12.4584l3.7689 0.6515c1.6277,0.5505 6.4462,3.5895 9.5159,0.1595l-3.1311 -4.3773 1.8011 -5.7125c1.1395,-5.8029 -4.1287,-11.7743 -8.221,-14.9565 -8.1054,-6.3028 -13.3375,-7.9233 -23.3698,-7.5047 -0.544,0.384 -2.0199,0.3107 -2.8183,0.5331l-5.2962 2.0326c-0.3666,0.1773 -0.6631,0.38 -1.11,0.5986 -1.3145,0.6429 -0.1846,0.2518 -1.1,0.3216zm97.7438 24.9005l-2.5195 3.828c2.7552,3.62 8.525,-0.0058 9.6106,-0.4161l3.6892 -0.7347c1.4522,-5.4846 -3.0826,-1.2767 4.4754,-12.2848 -0.4808,3.779 -3.5541,8.7367 -0.3711,16.1555l11.5076 -1.0256c1.5209,2.2266 0.7271,5.0711 4.3558,5.4965l8.0333 -1.799 -2.9728 5.4299c5.9812,3.9707 17.8071,-4.5545 17.9015,-17.8906 0.1443,-20.3918 -22.723,-35.5653 -43.7745,-21.4971 -5.0294,3.3611 -11.4138,9.8054 -11.7419,16.43 -0.2164,4.3688 1.3868,5.0951 1.8064,8.308zm-52.7277 -46.8107c3.2738,2.2716 4.7782,4.5587 9.7029,6.5415 4.3712,1.76 9.0079,2.6912 14.5222,1.9282 7.1346,-0.9872 14.331,-5.9507 18.4909,-11.7384 0.074,-0.103 0.3932,-0.5648 0.4208,-0.597 0.7423,-0.8676 0.2649,-0.3272 0.7894,-0.7077 0.1416,-1.1265 0.4662,-1.1866 1.2083,-2.6928 3.4103,-6.9216 2.7908,-14.8976 -3.2834,-19.6471 -13.2509,-10.361 -36.3419,-6.1089 -44.6049,5.09 -7.8943,10.6993 1.7041,19.8347 2.7538,21.8233zm1.0386 -165.269c-1.2675,4.5262 -20.8138,20.0764 -14.5386,29.04 2.6406,3.7716 7.1762,2.4562 11.7901,1.6591 4.3503,-0.7517 8.8659,-1.2988 13.4022,-1.8268 4.7273,-0.5503 9.8117,-0.1257 12.1309,-3.2769 2.3909,-3.2487 0.6429,-9.3765 -2.6679,-10.6564l-14.2167 0.7868c0.7802,-2.6523 10.6824,-13.1182 13.4247,-17.1591 2.4853,-3.6621 2.1135,-8.7062 -0.7454,-11.3906 -3.0566,-2.87 -8.4535,-1.5358 -12.9072,-1.1721 -4.6786,0.3822 -8.8659,0.9716 -13.3907,1.6662 -4.3144,0.6621 -8.9302,0.6927 -10.7533,4.3527 -1.9977,4.0106 0.2193,9.8381 4.6293,9.7843 4.2983,-0.0524 9.2103,-1.612 13.8426,-1.8072zm-45.8633 26.2054c-1.7634,2.1788 -6.6313,16.6004 -6.8001,20.9985 -0.1621,4.2228 2.4717,8.0153 6.8347,7.4617 2.1296,-0.2702 16.0479,-7.7643 19.0812,-9.2496 2.8358,-1.3886 7.6059,-2.7989 7.5388,-6.625 -0.0635,-3.6161 -3.1203,-7.6788 -7.2257,-6.5815l-10.1276 4.3224c0.9701,-7.7824 9.9916,-19.5272 3.9424,-25.77 -3.4192,-3.5286 -8.4077,-0.791 -12.2309,0.7452 -1.6285,0.6543 -10.6774,4.6876 -11.4233,5.4383 -2.334,0.7499 -5.997,2.7232 -7.0271,4.3673 -1.8074,2.8845 -0.3189,6.6195 1.4633,8.2359 2.6717,2.4231 5.5407,0.5565 8.1008,-0.6908l7.5665 -3.6701c0.4451,0.4718 0.1982,0.0287 0.307,1.0177zm40.4254 166.806l3.0418 5.4434c3.9017,-0.1134 8.0543,-1.1267 12.1221,-1.4397 17.0045,-1.3086 21.8311,-0.5985 38.3867,1.1329l2.6426 -5.8101c-6.1296,-2.2206 -20.9444,-2.8236 -28.2338,-2.7777 -5.387,0.034 -24.667,1.1736 -27.9594,3.4512zm58.3167 -36.366c2.1467,1.6525 9.1449,2.4485 12.407,2.5063 20.4755,0.3632 27.9574,-15.1067 25.9277,-17.9576l-0.8705 0.7792c-4.6713,4.9441 -8.2517,7.4238 -15.5035,9.8049 -8.0398,2.6398 -12.6693,2.6179 -19.5486,4.031l-2.2141 0.6959c-0.0347,-0.0654 -0.1339,0.0908 -0.198,0.1403zm-86.0623 4.906c-9.8979,-1.1175 -14.5252,-6.2307 -16.1152,-6.6648 -0.1382,5.5093 8.7919,11.3384 15.748,12.7217 6.7131,1.3351 14.2979,-0.5779 20.2451,-3.6869 1.0079,-0.5269 1.3959,-0.5299 1.7709,-1.4331l-21.6488 -0.9369zm-53.3939 64.7129c1.2521,-0.5281 1.8833,-1.162 2.7945,-1.8282 1.0537,-0.7706 1.8242,-1.1573 2.893,-1.8316 3.8168,-2.408 8.156,-4.7651 12.2742,-6.5905 1.7327,-0.768 4.7442,-1.8649 6.1674,-2.7994l-0.0009 -6.8671 -30.091 16.2954 5.9628 3.6214zm212.009 -3.2475l5.1684 -3.4044c-0.9528,-1.5403 -3.0192,-2.4895 -3.8097,-3.2754 -0.3757,-0.3736 -0.1801,-0.1834 -0.4855,-0.6287 -0.7368,-0.1563 -6.9702,-4.0235 -8.4913,-4.843l-9.4599 -4.1847 -0.3117 7.2244c2.6606,1.0201 5.9542,2.8805 8.7,4.4496 2.7115,1.5496 7.1344,4.8312 8.6897,4.6622z"/>
 </g>
</svg>
