<?xml version="1.0" encoding="UTF-8"?>
<!DOCTYPE svg PUBLIC "-//W3C//DTD SVG 1.1//EN" "http://www.w3.org/Graphics/SVG/1.1/DTD/svg11.dtd">
<!-- Creator: CorelDRAW -->
<svg xmlns="http://www.w3.org/2000/svg" xml:space="preserve" width="279.993mm" height="280.416mm" style="shape-rendering:geometricPrecision; text-rendering:geometricPrecision; image-rendering:optimizeQuality; fill-rule:evenodd; clip-rule:evenodd"
viewBox="0 0 279.993 280.416"
 xmlns:xlink="http://www.w3.org/1999/xlink">
 <defs>
  <style type="text/css">
   <![CDATA[
    .fil1 {fill:#030F1D}
    .fil0 {fill:#04050A}
   ]]>
  </style>
 </defs>
 <g id="Capa_x0020_1">
  <metadata id="CorelCorpID_0Corel-Layer"/>
  <g id="_628312432">
   <path id="_628313080" class="fil0" d="M104.342 223.522c-1.5304,3.4159 -8.557,1.2461 -6.287,-3.4789 1.6956,-3.5292 8.4619,-1.3755 6.287,3.4789zm68.7595 -22.3638l1.4427 -6.446c2.7312,-0.0367 6.6305,0.5895 9.3126,1.0459l6.4152 4.2633c-3.2103,0.7652 -13.9959,2.1151 -17.1705,1.1368zm-8.8586 1.3749c0.2962,-0.6491 3.1832,-2.6711 3.9973,-3.7102 1.6048,-2.0484 1.7504,-3.2636 2.6322,-5.7239 1.3428,4.2248 -2.6453,10.3895 -6.6295,9.4341zm-57.6445 -1.5875l1.9261 -0.7905 2.1506 4.7341c4.4882,-0.8169 4.6286,-1.7194 7.0967,-4.6518 2.9618,3.7513 1.1804,-0.1744 4.0835,7.0063 0.0929,-0.0644 0.2292,-0.2845 0.2697,-0.2054l0.7195 -0.6174c4.0075,-2.888 2.1772,1.8595 6.284,-7.1449 3.4273,0.4315 10.385,3.1289 19.8347,4.2398 9.5899,1.1273 9.9437,-1.9032 16.8504,7.4535l-57.2187 8.7586c-1.2183,-2.5216 -3.1536,-5.1096 -6.7065,-5.4001l-7.9111 4.6174c-4.0544,-0.0554 -16.9156,-4.2891 -20.9678,-5.8004l-18.6559 -8.3485c1.0292,-2.4524 5.1094,-3.3964 7.898,-4.3831 0.0799,0.0881 0.2078,0.0985 0.2397,0.2639l1.43 2.1084c1.1973,-0.6343 0.5256,-0.1607 2.0873,-1.707l4.5918 4.9725c3.6009,-3.4412 2.049,-0.6854 4.6362,-6.3366l2.8778 4.1671c4.5944,-1.5238 4.3418,-3.1083 5.82,-7.0832l22.4511 -1.6265c-0.5293,2.7011 -0.3439,3.2192 0.2129,5.7738zm0.0318 -9.5718l-25.1347 0.8106c0.5481,-0.6479 0.5238,-0.6888 1.7657,-1.0965 7.0128,-2.3027 20.3502,-5.5386 27.4774,-6.7919 2.0103,-0.3535 3.6515,-0.5108 5.7807,-0.506 2.6702,0.0059 3.7013,-0.1727 5.4235,0.8805 -7.5679,5.9231 -11.1467,-4.9772 -15.3126,6.7033zm15.8475 -5.4644c3.018,-3.2157 7.7455,-5.4314 12.8908,-6.9997 4.264,-1.2997 11.0949,-2.4941 15.7061,-1.6239 1.1112,0.2097 0.9888,0.2361 1.9642,0.7938 -9.4912,0.092 -15.5954,1.0191 -24.0909,4.8001 -1.8928,0.8424 -4.6186,2.4984 -6.4702,3.0297zm25.5256 -9.3164c0.5058,-1.1005 0.5214,-1.1295 1.1334,-1.9094 0.9218,-1.1747 0.558,-0.832 1.7736,-1.3962 -0.6138,1.612 -1.3226,2.6181 -2.907,3.3056zm47.7209 23.5555c-4.3764,-3.0928 -5.68,-11.2739 -3.4201,-17.3535l11.1274 -12.272c-1.3177,2.1128 -6.399,5.8552 -8.8997,12.4384 -2.6851,7.0688 -1.6646,10.9221 1.1924,17.1871zm-84.3733 -25.2c-2.0267,5.9646 -12.4093,10.8713 -18.8688,9.2162l-7.2366 -2.4611c-0.5577,7.1882 -7.8283,6.3873 -11.1035,4.8795 -3.9337,-1.8109 -5.7722,-6.2722 -7.0218,-11.4429l3.0628 -29.2326c3.461,1.3961 4.7069,6.0922 5.9466,10.3097l2.5206 9.6326c0.471,1.8143 0.1882,1.5437 1.1118,3.0629 1.8861,-13.2353 21.4669,-12.6799 26.6641,-8.3867l6.2327 6.9061c-0.0253,-3.0088 -2.1391,-9.9923 -2.2093,-17.8268 -0.2896,-32.2903 24.0395,-17.6535 30.9387,-8.5756 15.2587,20.0771 1.7988,38.8629 -21.5339,36.1245 -4.1511,-0.4872 -5.3641,-1.3922 -8.5034,-2.2058zm-29.3329 -17.571l16.2784 -5.6112c-0.9392,0.6126 -0.7066,0.4728 -2.1338,0.6334 -5.3029,0.5966 -9.9531,1.8093 -14.1446,4.9778zm-14.4886 -13.4469l4.8119 -3.8443 2.8319 4.9682c-0.0022,-0.0016 -4.8931,-5.9202 -7.6438,-1.1239zm42.4839 -10.715c0.2634,-3.559 2.7309,-6.9981 5.5695,-8.3565 4.0953,-1.9599 8.0128,0.4726 11.1767,1.6367 -1.7535,0.5423 -0.8555,0.4486 -2.4549,0.0072 -5.7368,-1.5832 -11.9972,0.9609 -14.2913,6.7126zm56.1668 -51.1227c-0.254,-4.7447 2.8262,-6.1586 3.4333,-9.7139 -7.0478,-4.2398 -13.4251,-10.1381 -16.1668,-2.3001 -8.3707,23.9308 5.5929,51.5741 5.3997,69.3167 -0.9719,-1.8448 -1.0681,-3.8796 -1.5499,-5.9407 -0.439,-1.8783 -0.8923,-3.7031 -1.4154,-5.6663 -0.8443,-3.1677 -1.6374,-6.6429 -2.8305,-9.7226 -0.7586,-1.9581 -0.0245,-0.2718 -0.6885,-1.12l0.6535 24.074c-1.518,-1.7587 -2.3047,-4.5004 -3.4373,-6.5089 -1.1572,-2.0525 -2.314,-3.5666 -3.8323,-5.3603 -16.9051,-19.9709 -35.1668,-15.9605 -38.5008,-17.095l-9.4529 -7.4712 1.7155 5.6727 -9.7424 -4.1502c1.9807,3.396 4.4344,6.3608 4.7052,6.9018l-11.0247 0.994c1.9766,1.3355 4.8556,1.2437 6.7883,2.6247 -2.4569,2.1829 -6.2379,3.0934 -9.4309,6.0186 -8.263,7.5701 -15.621,16.5546 -17.5818,28.3601 -2.8398,-3.7155 -5.9877,-7.4493 -8.6104,-11.2843 -0.8219,-1.2015 -1.7241,-2.816 -2.8026,-3.6758 1.747,5.5696 3.4242,10.7059 3.917,16.6456 -1.6444,-2.2881 -4.9642,-15.0375 -5.8627,-17.7938 -2.5942,-7.9585 -9.2662,-26.0737 -17.0227,-29.3692 -3.2904,-1.398 -4.5482,2.222 -5.6829,4.7788 -1.035,2.3322 -2.5851,6.1658 -2.5759,8.8247 1.3361,0.8176 2.5018,0.9786 4.0675,1.4604 1.8501,0.5694 2.7061,0.7169 2.6314,2.714l-7.6735 2.2689 2.1315 24.1619c1.4139,4.9622 5.9896,16.1529 9.3796,18.4349l8.7681 -0.6731c1.2435,3.4413 -2.3002,3.9773 -3.1003,7.1526 5.9595,4.1902 9.6171,7.8516 16.9385,9.1553 1.265,0.2253 2.4704,0.3805 3.6909,0.4813 2.1228,0.1753 2.0608,-0.2428 3.0925,1.2169 -4.3695,3.894 -7.0219,3.5816 -6.4151,11.2708 -8.3998,5.6243 -6.1464,4.0175 -12.1866,12.6017 4.4509,1.7254 3.5809,-2.1221 8,0.3646 7.192,4.047 15.1585,6.8924 23.1107,9.415 2.6363,0.8364 16.2633,4.1143 17.1,4.5907l6.9574 5.4546c1.9661,0.0271 3.8302,-0.8248 4.8243,-1.7259 0.7691,-0.6969 1.7771,-2.8916 2.6316,-3.3199l11.3206 -1.0147c10.6455,-1.0927 21.3539,-2.6051 31.898,-4.614 2.6653,-0.5078 13.3568,-3.2261 15.7083,-3.1621 1.9483,0.053 2.5559,1.3441 4.9991,1.1928 3.2916,-0.204 5.8236,-3.2151 4.4264,-6.6631 -1.7307,-4.2716 -3.8836,-3.0735 -8.1821,-3.161l-2.7546 -2.8881c5.9461,1.4332 7.8602,2.0625 14.0168,1.3954 3.4578,-0.3748 11.5848,-1.9506 14.2245,-0.5346l-9.457 3.9575c13.1245,-0.8012 18.1881,-0.6489 31.1415,-0.2642 2.7439,0.0815 6.1816,-0.3783 8.8475,0.477 1.2498,0.4009 0.4563,0.2248 0.8788,0.4723l-11.4828 1.493c-3.2851,0.6689 -7.0296,2.4461 -9.3031,2.8348l18.5818 -1.4857c5.751,-0.4115 13.6339,-0.068 19.0541,-1.0075l-5.5568 -2.7202c6.4401,-2.4117 3.7898,-0.8956 6.9493,-4.4365l3.9345 -0.0565 -3.8431 -2.9666c0.566,-5.458 0.2357,-3.8431 4.7037,-7.5683 -3.6435,-7.3111 -3.9496,-5.9448 -4.6179,-13.5568 -1.7342,-1.1847 -3.9117,-0.7799 -5.3314,0.6161l1.5644 1.1133c0.4578,0.3475 0.6656,0.6133 1.0243,1.0327 3.4965,4.0884 2.4065,5.178 -0.7736,8.29l2.3515 5.7247c-0.2552,2.1544 -1.7811,3.697 -3.8483,3.6602l0.3921 -9.3849 2.9861 -6.0379c-0.846,-2.7216 -2.6759,-3.3191 -5.8373,-3.8106l1.2391 -1.0048 -4.9759 -3.5151c-1.4731,0.424 -1.0455,1.1949 -3.1388,1.1917 -1.2154,-0.0019 -2.1082,-0.3002 -3.1658,0.0986 -0.1008,0.038 -0.5551,0.3306 -0.6801,0.3917l-25.1671 -24.7244c-8.2503,-1.1498 -13.8736,1.3535 -20.0746,4.2129 -8.5582,3.9464 -10.5847,4.2903 -20.3219,2.8529 1.8798,-1.8468 7.7617,-4.6244 10.6207,-6.7101 8.1651,-5.9567 19.0872,-19.7303 18.6831,-31.4051l-10.1452 -8.5423c1.2299,-3.9087 7.2355,-5.9534 10.0338,-8.6308 -2.8257,-8.1919 -4.4076,-14.7239 -9.1645,-21.9693 -0.7185,-1.0944 -1.4961,-2.1166 -2.2741,-3.1585 -0.8569,-1.1474 -1.3837,-1.84 -2.6346,-2.5073l-4.9339 6.3968 -4.2651 -1.9675z"/>
   <path id="_628313056" class="fil1" d="M131.327 11.0292c18.2041,-2.4459 40.281,2.9876 55.205,8.4535 7.4436,2.7263 15.2516,6.9436 21.5893,10.9685 9.6363,6.12 14.5462,10.5903 22.4546,18.0432 21.1516,19.9333 36.3431,52.3593 38.2346,82.3472 2.3825,37.7698 -9.2495,69.3925 -32.7813,95.6943 -48.6492,54.3764 -133.775,57.6195 -186.289,5.2931 -1.28,-1.2754 -2.7687,-2.6292 -3.9855,-3.9441 -32.891,-35.5471 -44.7626,-88.5211 -25.9337,-134.512 10.0536,-24.5565 22.7509,-39.9762 41.6266,-55.6085 5.3298,-4.414 12.5171,-8.7914 19.5567,-12.5953 18.1143,-9.7882 30.4658,-11.4718 50.3225,-14.1398zm-103.558 45.7397l-8.5725 13.4462c-2.6762,4.2303 -5.4026,9.5829 -7.3805,14.347 -14.6224,35.2224 -16.2788,72.916 -1.5343,107.825 8.2252,19.4736 19.8355,37.0957 35.6534,51.1774 14.8735,13.2409 31.2169,23.9377 55.418,31.0524 37.0623,10.8957 73.3365,6.1285 106.816,-12.0794 10.6174,-5.7743 14.0156,-9.1859 22.3917,-15.5892 6.0256,-4.6063 13.3786,-12.7562 18.6128,-18.9517 16.2797,-19.2693 25.7568,-42.5029 29.6071,-68.1561 2.2231,-14.8113 0.9225,-25.7864 -0.2592,-40.2882 -0.8605,-3.3425 -1.3222,-7.3901 -2.1398,-10.837 -3.9956,-16.842 -11.0945,-32.2478 -20.4423,-46.347 -10.2453,-15.4528 -24.6988,-29.936 -40.2236,-39.927 -10.0131,-6.4439 -23.7279,-13.4787 -36.4832,-16.853 -46.4751,-12.2943 -87.8292,-4.2527 -125.262,24.282 -3.2549,2.4812 -11.2875,9.7162 -14.0418,12.6741l-12.1596 14.2248z"/>
   <path id="_628312936" class="fil1" d="M127.435 51.0015c0.0622,0.2064 1.0215,-0.3392 -0.4692,1.3105 -0.3687,0.408 -1.0647,1.0444 -1.5268,1.4181 -3.0846,2.495 -13.1155,10.2673 -13.3345,14.047 -0.2458,4.2405 3.2108,4.3424 6.8919,4.7948 4.0729,0.5006 17.2479,2.7184 19.858,0.0044 1.8725,-1.9471 1.899,-6.6796 -1.551,-7.1684l-10.5575 -0.8149c0.8785,-2.8299 8.9583,-8.6242 11.0839,-10.5577 1.4177,-1.2896 4.7212,-3.424 4.2628,-6.7012 -0.4314,-3.0841 -3.587,-3.697 -6.7779,-4.2783 -4.1351,-0.7533 -16.7103,-2.9384 -19.2132,0.1061 -1.6091,1.9574 -2.0682,6.1234 1.4378,6.914 3.1361,0.7072 7.1305,-0.2798 9.8957,0.9256z"/>
   <path id="_628312744" class="fil1" d="M75.3315 64.593l11.4406 -1.7278c0.0419,1.9108 -2.6396,4.1616 -4.3339,6.3266 -1.7065,2.1804 -3.175,3.9283 -4.7053,6.1517 -1.3004,1.8895 -3.6316,4.8086 -2.0699,7.8019 1.5955,3.0583 5.9591,1.8286 9.1483,1.4889 4.5089,-0.4803 15.6904,-1.285 17.495,-4.3414 1.657,-2.8065 -0.0767,-6.5283 -3.7234,-6.4076l-10.2946 1.6319c0.5269,-2.2216 5.9716,-8.8207 7.7292,-11.1185 0.9035,-1.1811 3.1117,-4.0486 3.3793,-5.85 1.3723,-9.2355 -14.887,-4.7027 -19.3269,-3.4267 -6.913,1.9868 -9.5058,3.3348 -4.7384,9.471z"/>
   <path id="_628312648" class="fil1" d="M110.453 172.565c4.1824,-15.1143 -29.2498,-16.7414 -29.7661,-1.6716 -0.1302,3.8028 2.7944,7.2656 4.4219,8.8722 6.535,6.4507 22.1875,4.2073 25.3442,-7.2006z"/>
   <path id="_628312792" class="fil1" d="M50.3472 91.7144l8.4591 2.7885 -6.149 12.9412c2.064,3.0299 6.0657,0.9531 9.6317,0.0227 6.4033,-1.6708 4.5327,-0.2322 7.7969,-5.5241l-1.2429 -1.4389 -8.0027 1.5456c0.7277,-4.6086 15.2592,-18.3907 -3.2911,-13.5264 -3.0481,0.7993 -5.6418,1.3862 -7.202,3.1914z"/>
   <path id="_628312600" class="fil1" d="M116.231 167.376c6.2094,-0.2434 11.7038,-2.0427 15.6891,-4.8755l7.1549 -12.9711c-2.1745,1.0018 -3.4347,9.0094 -16.5108,13.6397 -3.0746,1.0888 -5.5892,0.8907 -6.3332,4.2069z"/>
   <path id="_628312768" class="fil1" d="M69.5607 170.689c-0.9669,-1.0086 -0.7896,-1.0807 -1.9829,-1.9232 0.6929,6.5036 5.9796,8.1688 12.668,7.8868l-1.2848 -2.7616c-5.1658,-1.0118 -6.9738,-0.6706 -9.4003,-3.202z"/>
  </g>
 </g>
</svg>
