<?xml version="1.0" encoding="UTF-8"?>
<!DOCTYPE svg PUBLIC "-//W3C//DTD SVG 1.1//EN" "http://www.w3.org/Graphics/SVG/1.1/DTD/svg11.dtd">
<!-- Creator: CorelDRAW -->
<svg xmlns="http://www.w3.org/2000/svg" xml:space="preserve" width="279.993mm" height="294.471mm" style="shape-rendering:geometricPrecision; text-rendering:geometricPrecision; image-rendering:optimizeQuality; fill-rule:evenodd; clip-rule:evenodd"
viewBox="0 0 279.993 294.471"
 xmlns:xlink="http://www.w3.org/1999/xlink">
 <defs>
  <style type="text/css">
   <![CDATA[
    .fil3 {fill:#040308}
    .fil2 {fill:#04050A}
    .fil0 {fill:#687688}
    .fil1 {fill:#E5F3FA}
   ]]>
  </style>
 </defs>
 <g id="Capa_x0020_1">
  <metadata id="CorelCorpID_0Corel-Layer"/>
  <g id="_628308160">
   <path id="_628315648" class="fil0" d="M129.989 276.09c2.3491,0.64 1.2086,1.7796 2.6695,2.0958 1.6671,0.3609 0.4049,0.2435 0.9561,-0.1315 -0.2068,-0.7596 0.4212,-0.166 -0.4692,-0.8634 -1.9009,-0.6866 -0.2265,-0.0717 -1.4736,-0.9867 -0.4559,-0.3998 -0.5522,-0.5771 -0.8364,-0.8359 -0.598,-0.5443 0.0139,-0.0724 -0.7883,-0.5851l-0.0581 1.3068z"/>
   <path id="_628315168" class="fil0" d="M166.855 153.35c0.6996,0.8118 0.412,0.6287 1.5731,0.9941 -0.2882,-1.4312 -0.4312,-1.2134 -1.3428,-1.7851 0.5161,0.8226 0.5707,0.4698 -0.2303,0.791z"/>
   <path id="_628315864" class="fil1" d="M139.175 195.631l-0.3175 2.2202 3.1307 -0.6053 -1.5563 -0.9334c0.6172,-0.1545 0.8464,-0.1848 1.2722,-0.6432l2.1738 0.346 -1.0279 -0.8003 0.5881 -0.6416 -1.308 -0.494 2.5177 -1.285c0.2328,-1.8359 0.0134,-1.1841 1.31,-2.0846l-1.9268 -0.8409 -0.744 0.293c-0.1082,0.0089 -0.4854,-0.0126 -0.5995,-0.0313 -0.8685,-0.1423 -0.6205,-0.158 -1.133,-0.5321 -0.7752,0.5315 -2.3674,5.9515 -2.3795,6.0325z"/>
   <path id="_628314640" class="fil1" d="M131.406 19.758c0.097,0.0239 0.2488,-0.0388 0.2929,0.0625l1.3644 -0.0607c-0.0387,0.0561 -0.1076,0.0598 -0.1165,0.1682l-0.2663 1.635 3.2473 0.6244 0.7231 -1.5818 2.8525 0.196c-0.2199,-1.1777 -0.155,-2.1856 -3.3824,-2.8461 -2.5878,-0.5295 -3.4481,0.4059 -4.715,1.8025z"/>
   <path id="_628314472" class="fil1" d="M116.263 103.581l0.89 1.3773 -1.8379 0.3628c0.8578,0.4523 0.848,0.6856 1.1158,0.9424l0.3475 -0.048c0.2848,-0.1368 0.099,-0.7372 1.8332,-0.0334l-1.1117 -1.2812c-0.8416,-0.6785 -0.9069,-0.4652 -1.2369,-1.3199z"/>
   <path id="_628314448" class="fil2" d="M0.2033 64.8852c0.8128,-0.7422 0.4732,0.8472 0.7328,-1.7877l1.1021 -27.8026c0.0151,-1.1304 -0.13,-1.6456 0.22,-2.6763 0.0213,-0.0625 0.0877,-0.1516 0.1087,-0.2075l0.2598 -0.9967c1.6483,0.9852 1.6979,0.6937 4.3414,0.3023 -0.4248,5.5109 0.0773,13.8378 0.0773,19.8127 0,33.5694 -0.5094,66.9188 -0.3614,100.724l0.4843 39.0049c0.1361,0.9093 -0.0075,0.5361 0.43,0.9813 0.3143,-4.2399 -0.1406,-30.2465 -0.1878,-36.737 -0.0895,-12.2972 0.0458,-24.5622 -0.0798,-36.824 -0.2516,-24.555 0.3748,-48.8241 0.3199,-73.2868 -0.031,-13.7846 -0.9681,-22.2319 7.1929,-29.7411 7.8081,-7.1842 17.6471,-6.0334 30.4682,-6.2703 9.6493,-0.1784 27.467,-0.1103 36.2256,-0.6898 11.9332,-0.7896 24.8066,0.0868 36.4398,-0.6362 5.8078,-0.361 12.4302,-0.1671 18.3118,-0.225 30.1643,-0.2966 60.5927,-1.0649 90.9772,-1.0109 19.1846,0.0341 33.0537,-3.3537 42.7136,12.5663 2.626,4.3277 2.355,9.9573 2.3832,15.8986 0.1443,30.3663 -0.0468,61.627 -0.2561,92.0597 -0.0389,5.6458 -0.4679,13.3504 0.0161,18.7551 0.8011,-0.4655 0.426,0.7738 0.4697,-3.5922l0.0778 -11.5527c0.0225,-5.6654 0.0248,-38.0503 0.4971,-41.2347 0.0821,-0.5532 -0.0461,0.3318 0.0846,-0.587l0.5943 -4.7324 3.2306 0.3536 1.7726 2.1633 0.2503 3.1827c0.5268,11.2027 -0.3635,58.7495 0.3066,62.4155 0.6698,-0.4118 0.3426,-0.9028 0.3464,-3.1482l0.1168 -58.4859c-0.0566,-20.6574 0.3058,-41.4813 -0.0032,-62.1051 -0.146,-9.7336 -4.2894,-16.6385 -9.6323,-21.2809 -6.7038,-5.825 -12.4096,-7.5229 -23.8341,-7.5111 -61.2218,0.0632 -123.279,1.11 -184.481,2.1742 -10.0373,0.1745 -20.0397,0.5568 -30.3272,0.7159 -9.7962,0.1515 -16.8518,2.6392 -22.568,8.3975 -5.5728,5.6138 -8.4271,12.4191 -8.6642,22.2049 -0.2398,9.8977 -0.5842,21.6102 -0.1559,31.4094z"/>
   <path id="_628314832" class="fil2" d="M197.501 61.29l-0.0551 -1.0409 13.7868 -18.6164c1.1681,-1.5954 2.2519,-2.9413 3.4004,-4.5494 1.495,-2.093 2.4471,-3.0559 2.4299,-6.1322 -0.0167,-2.9867 -0.8256,-4.8327 -3.5005,-5.0608 -2.703,-0.2304 -5.3498,-0.0612 -7.567,-0.0135l-24.2326 0.1888c-3.192,0.0409 -4.5608,0.1577 -5.6977,2.4062 -0.9451,1.8689 -0.9931,5.2345 -0.2892,7.3994 0.8194,2.5197 2.6173,2.6804 5.6393,2.696l16.5761 0.0241c-0.197,1.2097 -4.0615,6.1087 -5.0658,7.4685 -0.9092,1.231 -1.7822,2.4832 -2.7759,3.7409 -0.8514,1.0775 -2.1188,2.8452 -2.6237,4.1271 -1.5995,1.3656 -5.6538,7.5277 -7.1566,9.5481 -1.3939,1.8739 -2.5548,3.1775 -2.3054,6.4797 0.2127,2.8157 1.5382,4.286 4.4227,4.4591 10.99,0.6596 23.3372,-0.819 34.3118,-0.1564 3.9999,0.0487 6.7039,-0.6277 6.9702,-4.6587 0.7078,-10.7137 -1.6678,-8.5221 -14.5534,-8.5274 -3.8289,-0.0015 -7.7171,-0.0351 -11.5385,0.037l-0.1758 0.1808zm-173.85 48.5758c-3.8779,1.6149 -4.6388,19.2299 -4.1803,23.4949l5.685 1.8702c1.7927,0.5312 1.1541,0.285 1.8482,0.8148l-7.2443 2.7312 5.5694 20.4312c1.5256,3.5695 2.6056,5.5498 4.4201,8.6239 2.1926,3.715 2.6407,4.3448 6.1766,6.7443l4.2775 -2.5002 0.3045 9.1566c1.8361,1.0673 7.0163,2.9529 9.269,3.4978l-2.4029 -4.2355c-9.1956,-16.4211 -6.9231,-38.8602 -18.7231,-63.2214 -0.8662,-1.7883 -2.2,-4.4804 -3.3675,-6.0074 -0.6687,-0.8745 -0.5817,-0.9254 -1.6322,-1.4004zm44.5173 73.7965c-0.4912,4.9344 1.1375,8.9744 3.5046,11.5428 3.4796,3.7755 5.7525,2.8505 10.748,4.1769l-0.8238 -3.1413c-6.642,-2.9842 -10.8632,-4.7808 -13.4288,-12.5784zm72.9176 20.578c13.0841,5.8165 26.7166,0.2902 27.2028,-11.8584l-10.2506 7.9704c-3.8635,1.4668 -11.7461,3.3083 -16.0206,1.7247l-0.9316 2.1633zm-49.8132 -9.0254c0.4407,4.7951 3.3602,9.0953 5.4453,12.1303 6.3043,9.1767 16.7842,9.6616 23.8289,3.174 6.9295,-6.3815 13.1449,-14.6006 4.5035,-22.1132 -13.9473,-12.1254 -34.7942,-4.2529 -33.7777,6.8089zm-10.944 32.6442c0.7559,1.174 1.3203,1.724 2.5826,2.5197 -0.4582,-0.8594 -0.9337,-1.9636 -1.6026,-2.5521 -0.4912,-0.4322 -0.1858,-0.1466 -0.8177,-0.5092 -0.412,-1.401 -1.2487,-1.4254 -2.0106,-2.8555l20.9267 2.7443c-11.2136,-4.1819 -10.9733,-5.1889 -21.6102,-5.6198 -2.8645,-0.1161 -5.1843,-2.3547 -5.6171,-3.1343l7.0678 0.9931c13.0913,1.2939 20.0576,-0.8425 37.1261,3.2867 14.3735,3.4774 5.3992,4.4041 26.3994,5.6392 14.2892,0.8404 27.8355,-0.2342 38.8986,-9.2393 0.7991,-1.1985 0.6436,-0.9779 2.0894,-1.7888 -0.6286,1.2766 -0.6726,1.6451 -1.5945,2.391 -0.7405,0.5813 -1.5782,1.5905 -2.4284,2.3264 -10.0987,8.7402 -21.3308,8.1101 -23.6008,9.2562l5.3503 3.5431 -5.5713 -1.9308c-7.7418,-2.4616 -13.942,-2.0336 -18.8141,-2.9377l-4.1791 -0.1691 3.7537 5.9615c-1.31,-0.8313 -1.9581,-1.8092 -2.8719,-2.7056l-2.2138 -2.1054c-0.6985,-0.7274 -0.3374,-0.3684 -0.6987,-0.9333 -0.9717,-0.207 -1.9926,-1.024 -2.9639,-1.5594 -6.7338,-3.7117 -18.7981,-5.7181 -20.8132,4.339l-7.126 1.5539c-1.3369,1.5624 -2.1774,4.531 -1.2643,7.0819 1.0557,2.9491 -1.3994,4.0424 0.444,7.1309 0.9087,1.5224 3.0372,3.4679 5.4647,3.0935 -0.8481,-3.4786 -3.0405,-9.3287 1.3411,-11.0826 0.607,2.2958 3.7203,15.5245 4.6527,17.1029 1.1787,1.1763 2.5168,1.947 4.5261,1.5966l0.0605 -5.9573 -3.0811 -3.6055c-0.8208,-1.4312 -0.2972,-4.3388 0.7323,-5.4756 6.0279,9.3367 4.9216,8.1939 12.4774,16.1646l-0.8381 -7.0835 3.0535 -1.9613 3.527 4.9702c1.7899,0.9072 4.4541,1.5805 6.6372,1.7009 15.4761,0.8534 20.6088,-11.5796 40.3508,-2.324l-5.453 -4.1909c-1.3495,-12.7453 -0.6186,-5.3105 -3.4921,-13.0618l4.0592 6.4002 12.9204 3.4116c2.9616,1.3682 7.273,4.0495 9.7134,6.1705 2.7,2.3466 5.6447,5.3597 7.9919,7.8987 2.3068,2.4952 5.5399,5.5761 7.0545,8.4938l-5.1166 -9.5655c6.0482,-5.5787 11.0107,-10.5158 18.6282,-14.4357 3.867,-1.9901 8.1682,-3.2002 12.6835,-3.9556 3.8531,-0.6445 7.8752,-0.9001 11.878,-0.735 0.4335,0.0178 2.8465,0.5332 3.0221,0.0964 0.035,-0.0872 0.1473,-0.0698 0.2212,-0.1041l-10.1153 -2.196c-4.3139,-0.1779 -7.3418,1.0077 -10.6575,0.9622l-16.8391 -30.1352c-2.8808,-2.2426 -11.6752,-8.653 -15.9023,-7.0022 -4.7649,1.8608 -12.1293,6.6968 -16.0617,7.7818 11.3519,-8.4412 8.9027,-6.9569 21.4836,-13.1603 10.5638,-5.2089 22.324,-12.67 30.171,-21.4603 8.0486,-9.0161 16.0632,-19.9781 18.939,-32.265 -3.0715,-1.4103 -6.6764,-2.9378 -9.515,-4.5124l10.1158 -1.1878c1.5787,-2.9937 1.3052,-7.0617 1.4246,-10.3377l-12.4268 3.4362 12.2674 -8.6508 -4.7165 -20.6101c-1.1012,-2.04 -3.4099,-6.1179 -5.6204,-6.9675 -3.1525,-1.2117 -6.0535,1.7031 -8.0432,3.7418 -28.9782,29.6903 -15.5494,60.4578 -33.813,91.4716 -2.0742,3.5221 -8.409,11.0005 -12.3854,12.4372l5.4132 -6.4238c13.6919,-17.0216 13.2278,-31.6396 17.1615,-52.0986 0.5958,-3.0989 1.5093,-7.0877 1.7637,-10.2403 -7.3168,7.2847 -13.029,15.0901 -19.1303,23.4976 -2.6083,3.5941 -5.9216,9.0366 -7.6075,13.6485 -1.1732,3.2091 -1.1918,5.3605 -1.2547,9.259 -0.0276,1.705 -0.0203,3.6073 -0.1421,5.289 -0.0555,0.7692 -0.108,1.501 -0.1409,2.2913l-0.4644 2.2509 -3.3752 -22.6635c-1.865,-5.8229 -5.5249,-13.3009 -8.6821,-17.3257 -3.9056,-4.9789 -7.8689,-9.2156 -12.9782,-13.0112 -6.2122,-4.615 -8.6781,-5.6345 -15.2453,-8.8918 -2.2635,-1.1227 -2.7854,-8.5526 -11.8362,-14.8989 -1.8867,-1.3229 -4.499,-3.2502 -6.9255,-3.3601 3.4309,3.8083 10.5875,10.3438 11.6884,15.0312l-6.7273 -4.6933c-1.2879,-0.8665 -2.2715,-1.4498 -3.5386,-2.1868 -4.8195,-2.803 -17.4403,-6.9982 -22.7626,-3.8975l2.2449 1.2387c2.786,1.1375 15.5958,3.1604 18.2733,6.9964l-6.9014 -1.6954c-6.0005,-1.1182 -13.3306,0.1838 -18.7188,2.9089 -1.1069,0.5598 -1.9921,0.9855 -2.6058,1.824l23.2856 -1.1642c-9.8235,1.3145 -13.8588,2.6299 -22.9355,6.8445 -4.906,2.278 -15.6075,9.1699 -17.3757,12.2896l1.1037 8.9614 -3.1882 -7.1111 -4.6697 4.3043c-4.0681,4.5356 -6.7494,16.748 -7.9659,18.3776 -9.4229,-15.4138 -16.3901,-20.8167 -26.4055,-33.8432 -0.4436,-0.5769 -0.5772,-0.8142 -0.9066,-1.2738l-0.7027 -0.853c-0.0308,-0.1326 -0.1454,-0.1304 -0.2165,-0.1973 2.6056,15.8042 4.9564,38.1797 13.8887,51.2735 1.2227,1.7924 4.6896,2.9839 6.557,4.2345 1.8144,1.2151 4.4878,3.2674 4.9295,5.6687 -2.0601,-1.7084 -3.9743,-3.3022 -6.1936,-4.7487 -2.1455,-1.3985 -4.3629,-2.3792 -7.3278,-3.1514 -12.0703,-3.1434 -21.7902,2.7844 -25.8305,14.3418 -2.5122,7.1864 -0.8143,11.2525 2.2883,16.2204 -3.0573,1.5289 -7.73,3.2612 -9.6577,6.1157 -0.9099,0.583 -1.1804,0.7354 -1.692,1.7038 2.4008,-0.4497 1.5873,-0.623 1.9187,-0.9936 3.195,-1.2583 5.5075,-2.3805 9.3461,-3.4619 5.7084,-1.6081 7.2188,2.0363 10.9089,-0.6508l-0.147 -3.7792c-3.5593,0.0953 -11.2041,1.7298 -11.0165,-4.221l8.6728 3.2697 -0.5657 -7.6795c5.4693,9.6668 3.5356,7.0291 10.4915,15.4443l0.3931 -6.1085 1.1236 -0.7221 -0.6439 -3.0492c0.8385,1.709 1.7617,1.9258 3.2169,3.0492l3.491 7.9551c2.2471,-9.2976 0.8287,-6.5044 4.0886,-9.994 3.3545,-3.5911 2.0655,-7.0446 1.8002,-9.4389 1.9681,10.5821 0.9254,5.5108 -1.6982,11.4976 3.829,-0.3559 9.9531,0.1658 11.6957,-4.3024 1.6224,-4.1598 -3.8597,-7.598 -5.3183,-9.3683l7.8447 7.8712c-0.2291,4.4655 -4.6179,5.9708 -8.7416,6.7887 1.2046,1.1043 3.5393,1.8867 5.069,2.6467 1.5638,0.7769 3.4026,1.8908 4.8226,2.7661 2.2959,1.4153 7.9366,5.8306 8.5944,6.0055zm8.7529 -31.2002c-0.2909,-2.0274 -0.0068,-2.7075 0.1773,-4.3953 2.3326,-21.3843 43.4535,-18.8952 42.4935,4.3975 -0.3235,7.848 -6.7407,14.7475 -12.9376,17.5476 -11.7712,5.3189 -27.4841,-1.8738 -29.7332,-17.5498zm-13.8046 -38.5447c4.9667,3.9305 6.6607,21.2301 7.7282,29.1113 0.7427,5.4839 4.386,19.6315 -0.3141,22.9871 -1.9337,1.3804 -5.1063,1.5403 -7.3973,0.5528 -3.5245,-1.5189 -6.5676,-6.7555 -8.2634,-10.2119 -2.5082,-5.1117 -2.5851,-9.8334 -2.0098,-16.0695 0.5933,-6.4305 3.7863,-26.7683 10.2564,-26.3698zm63.8987 37.5167c0.0121,-0.081 1.6043,-5.501 2.3795,-6.0325 0.7578,-2.3293 4.4034,-9.0706 5.8909,-11.0276 0.8085,-1.0638 1.0539,-2.2084 2.1837,-3.5796 3.1374,-3.8077 7.2354,-8.9069 12.0543,-10.6964 12.2821,-4.5611 14.3391,20.9918 12.7783,30.8269 -4.623,29.1306 -32.0176,28.9241 -37.4647,19.2341 -1.6071,-2.8591 -1.4203,-6.1915 -0.6918,-9.6813 0.3465,-1.6596 0.7964,-2.9777 1.1871,-4.5876 0.5156,-2.1248 0.551,-3.4818 1.6827,-4.456zm27.91 -43.0723c0.9116,0.5717 1.0546,0.3539 1.3428,1.7851 -1.1611,-0.3654 -0.8735,-0.1823 -1.5731,-0.9941 -5.4364,-2.1364 -7.3918,-0.1526 -12.7632,2.8008 1.7237,-5.2586 10.558,-7.3909 12.9935,-3.5918zm-59.2241 -17.3488c4.9348,-3.5755 14.447,-4.5248 16.5829,-2.0615l-9.0941 0.3512c-3.1185,0.3909 -4.9555,1.2164 -7.4888,1.7103zm48.3962 -65.785c-0.5199,1.7202 -10.1692,13.9958 -11.5144,15.828 -1.5034,2.0476 -4.711,5.3155 -4.2918,8.771 0.5859,4.8286 5.526,3.4456 10.2787,3.4844 4.4367,0.0364 8.9244,0.0417 13.3577,-0.0307 3.8127,-0.0624 10.1028,1.0707 10.9898,-2.7349 0.403,-1.7293 0.3398,-4.7836 -0.3402,-6.2019 -0.8701,-1.8144 -2.8609,-1.5677 -5.2342,-1.5608l-13.9296 0.1376c1.8989,-5.9783 15.2702,-17.1374 15.1768,-23.322 -0.0819,-5.4373 -3.6611,-4.2839 -8.4677,-4.2903l-18.7894 0.1404c-2.1458,0.0545 -3.5599,0.1981 -4.4151,1.898 -0.3071,0.6105 -2.6321,7.897 4.0633,7.9006 4.2172,0.0023 8.9667,-0.2428 13.1161,-0.0194z"/>
   <path id="_628314040" class="fil3" d="M0.2033 64.8852c0.4122,7.1995 -0.0429,31.3219 -0.1109,40.1484 -0.3133,40.7119 0.4829,81.0886 0.5356,121.59 0.0122,9.3299 0.1824,31.1468 0.7515,39.7235 0.6855,10.3302 8.3595,19.7575 16.954,23.7234 6.1401,2.8334 9.8224,2.7269 17.5917,2.7578 47.0703,0.1868 94.3212,1.1855 141.52,1.1506 13.4275,-0.0099 26.5788,0.1145 40.0733,0.2236 8.5232,0.0687 33.4247,1.0782 39.7425,-1.1685 9.3018,-3.3078 17.1719,-10.6205 19.7137,-20.7676 1.352,-5.3968 1.0157,-13.0416 1.051,-19.2895 0.0367,-6.5037 0.3458,-13.1153 0.4571,-19.8549 0.1091,-6.6065 1.8021,-75.9256 0.9237,-80.6073 -0.6701,-3.666 0.2202,-51.2128 -0.3066,-62.4155l-0.2503 -3.1827 -1.7726 -2.1633 -3.2306 -0.3536 -0.5943 4.7324c-0.1307,0.9188 -0.0025,0.0338 -0.0846,0.587 -0.4723,3.1844 -0.4746,35.5693 -0.4971,41.2347l-0.0778 11.5527c-0.0437,4.366 0.3314,3.1267 -0.4697,3.5922 0.462,5.8013 -0.9888,77.5651 -1.2051,85.5793 -0.1286,4.7668 -0.2316,9.2321 -0.3084,14.0798 -0.0696,4.3868 -0.481,9.6729 -0.2496,13.7244 -0.0593,2.4737 0.005,5.4706 -0.2803,7.8902 -0.286,2.4251 -1.1888,4.0319 -1.6441,6.182 -0.5709,0.5625 -0.7933,0.9331 -0.7369,1.8294 -1.0635,0.9326 -2.2524,2.8022 -3.2767,3.9122 -1.1615,1.2589 -1.8968,1.9469 -3.4244,3.0716 -2.3556,1.7342 -5.4777,3.5687 -9.1505,4.0605 -6.0346,1.5852 -194.809,-0.5747 -210.867,-0.6977 -12.3142,-0.0944 -22.5579,0.5278 -29.8638,-12.2583 -2.98,-5.2151 -2.765,-11.4044 -2.8517,-18.3233 -0.0879,-7.0259 -0.0029,-14.285 -0.2743,-21.2782 -0.2408,-6.2044 -0.7228,-36.5546 -0.3914,-41.6305 -0.4375,-0.4452 -0.2939,-0.072 -0.43,-0.9813l-0.4843 -39.0049c-0.148,-33.8054 0.3614,-67.1548 0.3614,-100.724 0,-5.9749 -0.5021,-14.3018 -0.0773,-19.8127 -2.6435,0.3914 -2.6931,0.6829 -4.3414,-0.3023l-0.2598 0.9967c-0.021,0.0559 -0.0874,0.145 -0.1087,0.2075 -0.35,1.0307 -0.2049,1.5459 -0.22,2.6763l-1.1021 27.8026c-0.2596,2.6349 0.08,1.0455 -0.7328,1.7877z"/>
  </g>
 </g>
</svg>
