<?xml version="1.0" encoding="UTF-8"?>
<!DOCTYPE svg PUBLIC "-//W3C//DTD SVG 1.1//EN" "http://www.w3.org/Graphics/SVG/1.1/DTD/svg11.dtd">
<!-- Creator: CorelDRAW -->
<svg xmlns="http://www.w3.org/2000/svg" xml:space="preserve" width="279.993mm" height="236.728mm" style="shape-rendering:geometricPrecision; text-rendering:geometricPrecision; image-rendering:optimizeQuality; fill-rule:evenodd; clip-rule:evenodd"
viewBox="0 0 279.993 236.728"
 xmlns:xlink="http://www.w3.org/1999/xlink">
 <defs>
  <style type="text/css">
   <![CDATA[
    .fil0 {fill:#04050A}
   ]]>
  </style>
 </defs>
 <g id="Capa_x0020_1">
  <metadata id="CorelCorpID_0Corel-Layer"/>
  <path class="fil0" d="M113.273 157.833c-1.8158,4.2509 -0.8936,5.2742 -4.3335,8.46 -6.6642,6.1723 -21.6415,3.5895 -29.4417,-1.602 -4.9759,-3.3117 -8.5355,-8.3594 -9.8155,-15.8975 -1.3767,-8.1072 -0.0271,-15.4223 2.7447,-21.8533 2.7653,-6.4163 6.4891,-11.3298 10.8785,-14.7925 5.1558,-4.0671 12.2097,-6.194 17.8957,-0.8402 6.5412,6.1591 9.7583,17.2673 11.1126,26.8666 0.3667,2.5986 0.7248,9.403 1.5764,11.0393l10.4712 -13.1267c5.2352,-3.0273 12.0375,-4.389 19.2455,-3.5218 6.8999,0.8302 12.063,3.3667 16.405,6.717 4.077,3.146 6.4927,7.6161 7.6569,12.6542l0.4952 1.6491 6.5169 -17.851c2.7874,-5.649 6.2204,-10.5671 10.5601,-13.4961 4.6341,-3.1276 9.0418,-3.2543 13.802,0.1871 1.5304,1.1064 1.9275,1.6815 3.0284,2.9892 12.3894,14.7167 11.2206,44.2732 -4.7948,51.2827 -5.5789,2.4416 -14.1969,3.8041 -20.7504,1.5036 -8.5901,-3.0155 -9.74,-7.0326 -9.9569,-14.0889l-2.5061 3.14c-6.3777,8.0936 -16.0795,11.6707 -26.8845,10.0511 -6.1087,-0.9157 -11.5259,-3.7509 -15.0796,-6.7571 -6.1954,-5.2408 -5.7196,-6.8211 -8.8261,-12.7128zm-88.3455 -81.3093c-7.436,-4.0535 -14.9376,-8.7559 -22.5244,-12.944 -4.0337,9.176 -2.3551,28.5926 0.4452,38.3439 1.6244,5.6564 4.1997,10.7818 7.3897,14.503 1.8201,2.1231 3.2285,3.5942 5.4058,5.3716 3.9096,3.1918 2.5045,0.97 4.5707,6.4345l-4.965 0.3593c0.1865,2.2338 6.7493,8.7587 8.5793,10.3595 13.3095,11.6433 22.0659,13.9167 38.1976,19.0861l-1.4498 -6.1855c-0.4799,-1.385 -11.948,-10.7923 -15.6382,-23.2226l-2.9822 -12.2715c0.2606,2.7708 5.6206,14.27 7.1343,16.9444l10.8326 14.0074c-0.6727,-15.3276 -7.8168,-27.2308 -8.7519,-56.7262 -0.6724,-21.2135 -1.1669,-38.7563 -8.3974,-57.1136 -1.4752,-3.7456 -3.1092,-7.7032 -5.0933,-10.9906 -1.6761,-2.7768 -4.4455,-8.7501 -8.6163,-6.6824 -5.1956,2.5758 -12.1163,12.9681 -15.1133,17.7952 -1.9658,3.1662 -4.2351,7.4598 -5.3652,10.8026 -1.0645,3.1485 2.3415,4.8198 5.7224,10.0016 2.7937,4.2819 10.7576,17.0569 10.6194,22.1273zm40.7512 132.988c1.3598,-2.1017 5.8273,-2.7004 7.1456,0.1598 -3.742,-0.8567 -3.6187,-0.4419 -7.1456,-0.1598zm17.6862 -0.1633c0.3119,-4.1678 6.8107,-5.8852 8.506,-1.9189 -4.0388,-1.4755 -6.028,0.488 -8.506,1.9189zm16.8149 -3.6612c0.4418,-2.4209 4.7713,-3.5434 6.0116,-2.7848l1.6758 1.671c-2.923,-0.7042 -5.7161,-0.42 -7.6874,1.1138zm-32.61 -3.6092c3.0572,-1.8004 6.3298,0.0822 6.884,2.978 -1.2057,-0.734 -1.5716,-1.2704 -3.0247,-1.8832 -1.1856,-0.5001 -2.9761,-0.6111 -3.8593,-1.0948zm28.0939 -0.631c0.8743,-5.4217 7.0681,-5.4838 8.7424,-2.9552 -9.2206,1.1989 -4.6524,0.7631 -8.7424,2.9552zm-3.3002 -0.0247c-1.1291,-0.4248 -1.7413,-1.253 -2.6179,-1.9986 -1.122,-0.9541 -2.1173,-1.3784 -2.3068,-1.5366 -0.6562,-0.5474 -0.0183,0.1198 -0.5405,-0.7078l5.4652 4.243zm-39.6804 -28.6111c2.7505,-4.2088 8.342,-5.2643 14.8867,-5.4598l-8.1925 -4.7285c-3.8397,-0.7506 -8.0649,-0.8263 -11.9978,-0.3046 -7.1204,0.9445 -13.4411,3.5606 -18.0131,7.0721 -7.6947,5.9097 -13.3481,15.8078 -10.1181,26.1127 1.0815,3.4504 2.8503,5.5313 5.1181,7.1718l7.9694 -1.1532c2.9438,-0.3381 5.8477,-0.5001 8.8337,-0.3391l1.054 -9.7714c1.1305,-2.3218 3.2182,-4.9724 4.7465,-5.9885 -2.6524,5.8666 -5.5174,9.9447 -2.4913,16.8098 2.2346,5.0695 7.0655,7.2155 13.4534,8.4428 0.0757,-1.731 -0.0132,-3.9035 0.5488,-5.5216 0.2697,-0.7761 0.3196,-0.7742 0.7322,-1.245l2.4913 10.2384c1.9108,2.9103 3.2252,4.3502 7.64,5.1581l3.577 3.5689c2.4661,0.8282 3.9866,-0.7509 4.6392,-2.479 2.1511,-5.6969 -3.6488,-8.5635 -1.5644,-11.0226 3.9375,4.4408 2.4283,3.2514 4.7903,6.2867 1.7414,2.2378 3.959,3.1311 7.8795,3.0565l4.5915 1.8364c1.5472,-0.4076 2.4648,-2.0224 2.7406,-3.5926 1.0562,-6.0121 -3.1914,-6.5252 -1.9489,-10.4782l9.1497 7.8831c2.5773,-0.2076 1.2039,0.3043 3.0665,0.8437 4.6096,1.3349 3.954,-5.7705 3.7731,-8.4085l4.3244 1.2447 0.4573 -8.0487c-0.7902,-1.2801 -1.653,-2.077 -2.933,-2.4251 -2.078,-0.5651 -2.4593,0.4127 -3.6991,1.1788l-7.7367 -14.1481c-2.1857,-1.5355 -4.2479,-2.9553 -6.7784,-4.321 -8.5202,-4.5984 -23.319,-11.2446 -33.0356,-9.9754 -5.2508,0.686 -6.0633,2.0072 -7.9543,2.5064zm7.7924 -39.9113c0.1763,-0.2323 2.9525,-10.4602 3.4611,-11.9226 1.3615,-3.9139 2.9528,-7.0814 4.6871,-10.7553 -1.5933,-2.6805 -3.3861,-5.0599 -5.1445,-8.4189 -3.6721,-7.0141 -5.5898,-11.754 -7.9717,-19.5463l-2.2984 -8.0841c-0.4098,-1.6604 -0.0726,-1.5045 -0.9905,-2.6309 -0.8253,10.897 3.8069,53.6855 8.2569,61.3581zm-59.4595 85.2709c1.7388,-0.4422 4.4928,-1.8336 6.8065,-2.5487 14.3431,-4.4332 26.4848,-4.621 40.9817,-0.3072 2.3481,0.6988 4.8161,1.5944 7.0861,2.4397 1.9735,0.7349 4.8969,2.2392 6.9552,2.5247 -1.3741,-1.6852 -3.0898,-3.582 -4.0272,-5.4627 -0.8748,-1.7554 -0.8456,-1.3298 -2.991,-1.7288 -10.1468,-1.8869 -10.9691,-6.0111 -14.0398,-8.7723l-24.3413 3.2003c-6.8912,2.5524 -12.6767,6.4533 -16.4302,10.655zm108.488 -60.434l-7.6439 -3.9344c-3.2803,-0.567 -6.4438,-1.2931 -9.433,-2.3846 -2.677,-0.9776 -5.6736,-2.4136 -7.8702,-3.8178 -3.9764,-2.542 -4.8304,-4.7406 -7.2523,-4.3469 -2.0086,3.0043 1.9913,6.3056 3.4068,7.5484 7.2946,6.4047 23.126,9.677 28.7926,6.9353zm108.709 3.0815c7.3335,-5.8443 12.7036,-15.3412 17.4009,-23.3747 -0.3546,2.1656 -2.8124,7.6465 -3.6867,9.282 -1.7325,3.2402 -3.0922,5.5324 -5.1556,8.1581 -2.1031,2.6763 -3.7814,4.6028 -6.1616,6.8329 -4.4242,4.1452 -2.9236,0.9996 -5.0266,8.574 9.1361,-0.2208 17.6633,-1.5156 25.0223,-4.7441 4.9342,-2.1648 9.6476,-4.8047 13.5497,-8.2983 2.4457,-2.1897 1.6863,-1.2969 3.3839,-4.2997l-4.6799 -0.7634c-0.5674,-2.768 2.69,-4.1063 4.3436,-5.1909 6.0936,-3.9967 11.1537,-8.685 14.4814,-15.2984 12.4065,-24.6561 10.346,-56.3692 -2.4222,-80.7586 -1.5521,-2.9649 -6.0149,-11.4475 -10.2842,-8.5906 -5.3826,3.602 -13.1551,17.4337 -15.9085,23.6687 -4.5501,10.3033 -7.1568,19.5172 -9.2651,30.7317 -4.312,22.937 -4.839,26.3193 -12.3285,47.4374 -2.2026,6.2104 -2.6821,9.7232 -3.2629,16.6339zm-12.1862 52.7967c-4.1536,-0.7852 -1.3562,-0.6152 -6.4096,-0.8443 1.4127,-1.6613 5.2401,-1.4786 6.4096,0.8443zm-89.9758 -57.465c1.1616,5.8722 4.6846,10.2135 7.7695,13.3103 7.8197,7.8498 22.1359,9.0414 31.658,2.5121 18.314,-12.5579 11.0064,-28.7191 -12.6436,-30.8338 -11.3558,-1.0154 -29.4606,1.4795 -26.7839,15.0114zm22.4023 -148.39l1.3964 0.9004c2.0218,1.0297 4.8826,0.2546 6.6931,0.1592l8.846 0.1426c0.2225,2.4157 -2.1038,3.6584 -3.5308,5.1301 -5.4141,5.5834 -18.4525,14.8843 -13.195,19.8487 1.8439,1.7411 4.8196,1.287 7.6638,1.0852 3.4004,-0.2412 13.829,-1.9111 16.6846,-1.0654 0.2511,-0.1474 0.1763,-0.2069 0.7303,-0.3143l3.485 -0.1867c6.5981,-0.4044 5.461,-6.506 3.3955,-7.0975l-16.8047 -0.3039c-0.5692,-1.9394 2.1395,-3.8766 4.1141,-5.8855 3.575,-3.6373 6.8402,-6.7322 10.1792,-10.7287 1.5263,-1.8267 3.3482,-4.6637 1.2304,-7.1534 -3.2497,-3.8204 -22.255,-1.9351 -27.4523,-0.7055 -3.8989,0.9225 -4.4871,2.524 -3.4356,6.1747zm-35.2928 29.3894c-0.0171,-0.0326 -0.8305,0.0633 0.1053,-2.2828l2.8153 -6.0803c1.1908,-2.551 2.3542,-5.3182 3.6329,-8.0547 4.5723,-9.7852 1.0461,-10.6146 -8.7451,-7.4781 -3.1596,1.0122 -5.5662,1.9432 -8.5803,3.1405 -2.2516,0.8944 -6.8058,2.4088 -6.6313,5.141 0.5115,8.0099 17.4855,-6.1255 14.5311,1.8221 -0.701,1.886 -6.2564,13.5433 -7.4429,15.9405 -1.2068,2.4382 -2.8789,7.3976 1.2175,7.828 1.9401,0.2038 7.0929,-1.9191 9.0111,-2.6528 2.8679,-1.097 5.7608,-2.0491 8.6461,-3.045 2.4346,-0.8404 6.9955,-1.8677 7.4574,-4.3787 0.3496,-1.9008 -0.9107,-3.2361 -2.3543,-3.4728 -1.5389,-0.2523 -3.726,0.584 -4.9155,1.0391 -1.8467,0.7067 -7.2701,3.1632 -8.7473,2.534zm72.6521 6.791c0.0785,0.1057 0.503,0.8075 0.8239,1.1145 0.2845,0.2721 0.9583,0.6597 1.1411,0.8071 3.3846,0.182 19.5875,-2.4293 23.1375,-3.3664 4.6215,-1.2199 3.8393,-6.056 -0.7533,-6.0087 -1.6906,0.0174 -4.1151,0.4176 -5.8506,0.702 -0.9591,0.1571 -1.7921,0.3093 -2.7119,0.4619 -5.7977,0.9616 -2.2134,-2.7601 0.8568,-6.7167 1.6452,-2.1201 8.9502,-11.4516 8.9655,-13.5178 0.0283,-3.8497 -4.9182,-3.467 -8.1678,-2.9967 -4.0511,0.5865 -15.1549,2.5649 -17.7189,4.6701 -2.3229,1.9073 -0.8755,5.9486 4.058,4.6682l9.1332 -1.5899c0.0317,0.0447 0.671,-0.0935 0.2263,1.4166 -0.2849,0.9671 -5.793,7.6037 -6.7327,8.8283 -2.6738,3.4844 -6.7616,7.4676 -6.4071,11.5275zm-63.5316 149.738c4.1033,3.8772 3.3971,4.1104 5.3513,7.9266 12.8112,2.5266 24.1041,4.4674 35.9685,10.6028 2.2223,1.1491 8.6242,4.6601 9.3116,5.8108 -5.1764,-8.5183 -5.5573,-8.3727 -14.3643,-14.0088 7.0364,0.7495 5.0708,-0.1242 8.8509,3.0981 3.3664,-3.5994 1.6405,-2.0791 5.21,-4.7132l0.4773 -5.0688 -5.5988 -0.228c-2.0643,1.0897 -4.0028,0.9254 -6.4234,0.9694 -10.6478,0.1938 -16.6401,-0.2796 -27.0175,-2.1842 -2.4472,-0.4491 -10.0887,-2.3685 -11.7656,-2.2047zm115.946 20.5287c-0.1671,0.6084 0.0717,0.3974 -1.2345,1.4022 -4.6182,3.5525 -8.9476,3.2437 -14.6816,3.0503l-2.9027 3.3749c0.4339,0.8377 -0.8574,0.5142 1.4885,0.7881 15.2837,1.7846 23.9769,6.0784 36.5295,13.8864 -3.74,-4.7524 -8.0572,-8.9841 -13.2733,-12.2333 -1.4238,-0.8869 -4.2178,-2.3263 -5.2013,-3.393 10.1985,-0.0404 14.822,-0.7847 24.5751,2.3679 7.2695,2.3497 11.9221,5.3108 17.8039,9.2672l-16.9588 -13.8889c-5.4634,-2.6637 -17.0648,-6.9077 -24.1207,-6.6399 -0.9803,1.1293 -1.0653,1.5027 -2.0241,2.0181zm-14.0725 -91.9488c0.789,3.3452 2.116,6.5095 2.9002,10.3569l1.6931 11.6706c1.8893,-1.9977 7.552,-21.8734 8.0678,-23.8687 2.354,-9.1062 3.8492,-16.8274 5.6592,-26.0181 -2.5958,3.4734 -5.6775,12.4564 -12.992,21.5297l-5.3283 6.3296zm-43.4417 42.4438c3.0632,2.5343 13.6753,2.9425 18.4023,2.2075 4.0757,-0.6337 13.1408,-3.3401 14.221,-7.02 1.3551,-4.6168 -5.7134,-0.5264 -6.5736,-0.1931 -14.7249,5.7044 -25.3972,-0.4581 -26.0497,5.0056zm-50.7229 -21.9282c6.9398,-3.8878 15.2075,-4.6608 23.4696,-3.799 6.9055,0.7203 16.7582,3.7931 19.8608,7.9414l-7.6234 -8.3892c-3.3162,-1.9465 -7.5858,-3.4615 -11.9312,-3.8509 -5.3205,-0.4766 -10.1039,-0.1353 -14.5772,1.4718 -3.0911,1.1105 -7.9949,3.806 -9.1986,6.6259zm6.0725 49.1683c4.3248,1.4902 16.0611,3.4155 20.5075,1.6526l-15.2037 -1.7823 -4.3965 -0.259c-1.7913,0.1624 -0.4083,-0.0321 -0.9073,0.3887zm62.9429 20.2342c-2.7025,-1.9402 -2.6012,-2.6738 -7.2864,-2.7571 1.9347,-2.8135 6.8694,-0.4509 7.2864,2.7571zm9.5592 -4.1161c0.4374,-2.9129 5.6628,-4.1886 7.1253,-1.4538 -4.0871,-0.3946 -4.2956,0.1882 -7.1253,1.4538zm-32.2889 -4.4383c1.0021,-1.6291 3.7885,-2.3787 5.9371,-1.7821l3.8646 4.3233c-3.1018,-1.8564 -4.3842,-3.6592 -9.8017,-2.5412zm15.2782 0.2522c0.4542,-3.1087 5.7999,-4.8803 8.5184,-2.3931 -5.2682,-0.0019 -5.0132,0.5486 -8.5184,2.3931zm9.739 -20.4128c-1.0685,0.642 -6.1111,2.0438 -7.7489,2.6177 -2.5226,0.8838 -5.0239,1.9817 -7.3301,3.1417 -11.8253,5.9481 -10.499,12.0474 -11.7642,14.8594 -0.4934,1.0967 -1.4702,1.7873 -2.0992,3.254 -1.0946,2.5519 -0.9122,7.1638 1.5196,7.895 2.002,0.6019 1.8342,-1.1974 4.1235,-0.6517 7.3977,1.7632 6.8863,-4.9887 10.2525,-5.1999 -0.9222,2.7135 -2.7213,6.6204 -2.7937,8.5381 -0.2692,7.121 6.0219,3.0623 6.6361,3.0176 2.4655,-0.1796 2.702,0.4511 5.2414,-0.6335 5.4153,-2.313 5.7778,-7.9879 9.3491,-8.1292 -1.3331,4.1969 -0.3719,1.3471 -2.2196,4.4982 -2.2301,3.8036 -1.3281,9.7379 3.1568,8.9004 1.6845,-0.3146 2.7964,-1.9944 3.8111,-3.0275l8.0137 -4.2144c1.9592,-2.5676 2.8598,-5.0462 3.1523,-8.9691l0.6721 6.7222c4.1076,-0.4966 7.6834,-0.4451 10.7485,-2.1713 1.4967,-0.8429 1.4329,-1.1981 2.4728,-1.5136 0.85,-1.6945 2.1864,-2.6673 3.0951,-5.2674 1.4682,-4.2008 0.4104,-9.5161 -1.4737,-13.3637 -0.4628,-0.9454 -0.9776,-1.8657 -1.4648,-2.6418 -0.5981,-0.9526 -1.1518,-1.336 -1.5409,-2.4008 3.9661,5.3617 7.2111,8.2431 7.6062,13.9748 0.1885,2.7357 -0.3798,4.0426 -0.4644,6.2178l7.9135 1.9248c1.9646,0.5885 5.8812,2.2258 7.5605,2.3067 3.7214,-6.1056 5.8841,-7.8869 4.283,-16.0921 -3.0405,-15.5803 -22.1197,-24.8137 -36.0223,-21.9216 -0.7631,0.1588 -1.2919,0.332 -1.995,0.5291 -1.0043,0.2815 -1.1163,0.2418 -1.9053,0.7814l10.2082 2.7364 -16.3152 0.5853c-4.9666,0.9171 -10.1593,2.97 -14.6787,3.697zm-62.1599 -55.7524c0.7829,-0.8159 2.1699,-1.3254 3.4301,-1.8035 9.0161,-3.421 18.4593,-1.7389 25.6549,4.1824 -7.7193,-2.6052 -12.7738,-4.2349 -21.4908,-3.5573 -2.9044,0.2257 -4.9946,0.8846 -7.5942,1.1784zm1.3985 -6.1824c3.3498,-1.8445 12.3463,-4.089 16.4485,-1.4704 -3.0684,0.1097 -5.8686,0.0413 -8.8984,0.2884 -2.6927,0.2195 -5.3759,1.0601 -7.5501,1.182zm46.7388 -3.0228c0.4653,-5.1986 5.5985,-11.5681 9.8271,-13.1193 6.2607,-2.2967 13.1724,2.9611 14.5861,7.0781 -4.6816,-2.4931 -8.3728,-5.383 -14.2759,-2.9446 -1.9533,0.8068 -4.552,2.7757 -5.6344,3.8576 -1.0783,1.0779 -3.3115,4.3853 -4.5029,5.1282zm-90.3101 -17.9879c0.8751,-2.0568 4.3353,-4.3625 6.7119,-5.5428 10.5566,-5.2427 18.2878,4.1678 17.0335,14.8982l-8.0469 -11.7396c-2.4459,-1.0107 -5.6678,-1.1019 -8.5059,-0.4469 -2.8108,0.649 -4.8351,2.2163 -7.1926,2.8311zm69.6932 -21.1354c-4.316,-1.6611 -4.7458,-2.146 -9.6616,-2.2342 0.5302,-1.0949 4.3706,-1.0607 5.7919,-0.63 1.5029,0.4555 3.2526,1.733 3.8697,2.8642zm-10.8117 -3.5667c1.7512,-2.8083 8.7352,-3.2428 12.2787,-1.0673 -1.3353,0.555 -1.0664,0.1716 -2.9269,0.0441 -3.7493,-0.257 -5.8164,0.3908 -9.3518,1.0232zm45.694 104.823c0.7391,-0.7056 0.6364,-0.5675 2.0045,-1.0497 0.7488,-0.264 1.3239,-0.4463 2.1155,-0.6956 2.7521,-0.8665 13.9441,-3.0442 13.9997,-3.072 0.5303,-0.2648 1.1079,-1.5859 1.3779,-2.1582 0.355,-0.7526 0.7223,-1.629 1.0559,-2.4046 0.7648,-1.7782 1.4705,-3.3831 2.0082,-5.2835 5.2025,-18.3873 0.4402,-43.1046 -8.5712,-58.2589 -4.585,-7.7104 -4.5181,-7.0278 -8.9794,-12.5684 -1.8261,-2.268 -2.7424,-2.5079 -3.4539,-4.0574 -0.4239,-0.1177 -7.0907,-6.0391 -8.5168,-7.0988 -9.8389,-7.3107 -21.0678,-12.1961 -34.2985,-12.871l9.0615 -3.9469c2.9305,-1.1475 9.5932,-3.1269 9.7455,-3.1943l-0.859 -1.0074c-2.1186,-1.6598 -10.1973,-0.6712 -10.8302,-0.7031 -0.2748,0.2378 -0.128,0.1972 -0.5871,0.4425 -1.0059,0.5374 0.8232,-0.3217 -0.4595,0.1889 -3.7911,1.5093 -6.2636,3.326 -7.3587,3.6901 1.7482,-3.1469 3.8679,-7.9487 7.6626,-9.2714 0.7915,-1.1233 2.9463,-1.8827 4.4719,-2.5677l-12.1873 1.7203c-1.7476,0.9323 -3.2041,2.1584 -4.3196,3.2853 -1.0308,1.0414 -2.4705,3.4452 -3.3724,3.8355l-2.8507 -6.588c-2.986,13.8727 -1.4574,11.6834 -8.5173,12.7331 -5.8199,0.8652 -11.6998,2.3689 -16.913,4.29 -10.8539,3.9999 -19.543,9.6281 -26.1908,16.2523 -1.7028,1.6967 -3.7574,3.471 -5.3294,5.4346 -1.4926,1.8643 -2.8716,3.495 -4.6235,5.8364 -11.4878,15.3524 -21.1135,44.9057 -7.5217,63.8427 0.762,1.0616 1.2597,2.4829 2.4363,2.9426 2.892,1.13 6.0905,1.645 11.8074,4.0399 2.9487,1.2352 13.4463,6.6397 14.3475,6.7869 5.9069,0.9644 13.7168,0.8564 19.9156,1.3875 13.1299,1.1249 25.5796,2.3474 38.4218,3.9478 6.1151,0.762 13.5743,1.8912 19.8722,1.6013 3.4365,-0.1582 12.4631,-5.752 15.436,-5.4608z"/>
 </g>
</svg>
