<?xml version="1.0" encoding="UTF-8"?>
<!DOCTYPE svg PUBLIC "-//W3C//DTD SVG 1.1//EN" "http://www.w3.org/Graphics/SVG/1.1/DTD/svg11.dtd">
<!-- Creator: CorelDRAW -->
<svg xmlns="http://www.w3.org/2000/svg" xml:space="preserve" width="70mm" height="67.28mm" style="shape-rendering:geometricPrecision; text-rendering:geometricPrecision; image-rendering:optimizeQuality; fill-rule:evenodd; clip-rule:evenodd"
viewBox="0 0 70 67.28"
 xmlns:xlink="http://www.w3.org/1999/xlink">
 <defs>
  <style type="text/css">
   <![CDATA[
    .fil0 {fill:#373435}
    .fil1 {fill:#373435;fill-rule:nonzero}
   ]]>
  </style>
 </defs>
 <g id="Capa_x0020_1">
  <metadata id="CorelCorpID_0Corel-Layer"/>
  <g id="_563057528">
   <path id="_563060432" class="fil0" d="M29.1077 20.0702c-0.081,-1.2027 0.4117,-1.611 1.562,-1.7575 -0.4169,0.8042 -0.5023,1.638 -1.562,1.7575zm11.7483 9.5325l-0.4372 -2.4214 2.2907 0.604c-0.0422,-0.5288 -0.5838,-1.0872 -0.967,-1.4837l-1.2689 -1.2104 3.1474 0.4638c-0.413,-1.1121 -2.4317,-1.958 -3.4309,-2.4604l3.4809 0.0627c-0.7023,-1.1393 -2.8245,-1.6788 -4.0182,-2.0715l3.1292 -0.4575c-0.4242,-0.9425 -3.0387,-1.3916 -3.9503,-1.6107l4.2349 -0.7749c-0.8167,-0.5518 -1.8237,-0.9537 -2.8395,-1.1436l-3.6528 0.243c0.7652,-1.2419 3.2326,-2.0317 4.5589,-2.5629 -1.0777,-0.4379 -3.463,-0.2075 -4.6153,0.065l-3.2612 1.7083c0.0086,-1.2482 1.8569,-2.6051 2.8951,-3.0849l4.0323 -2.0747c-2.528,-0.0738 -6.8323,1.2765 -8.9675,3.3317 -0.7682,0.7393 -1.2436,1.4135 -1.8777,2.2545l-0.2246 -2.4907c-0.5702,0.579 -1.3838,3.4517 -1.3246,4.3483 0.0578,0.8742 -0.3008,1.3189 -0.8422,1.9828l-2.002 0.8514 1.4 3.5752c1.0744,-0.1549 0.3434,-0.4058 0.9306,-0.954 0.6344,-0.5926 0.4798,0.1618 0.8244,-1.0278l2.1527 -1.5492c-0.2606,0.3302 -0.6416,0.5148 -0.7831,0.9786 -0.6417,2.1039 0.0103,1.9081 -2.2142,3.1725l2.8624 0.4338c0.8057,-2.2583 0.0994,-2.5245 2.8911,-4.0438 0.7996,-0.435 0.6895,-0.406 1.2929,-1.0899 0.8212,0.8038 1.2853,2.4283 0.8984,3.5583l-2.3351 2.4041 1.5775 -0.1102 -4.0366 4.3384c0.8782,-0.306 1.475,-0.6246 2.445,-0.8364 3.2045,-0.6999 5.2831,0.2104 8.1034,1.4673 1.3132,0.5851 1.0074,0.4955 2.2796,-0.0691 0.7717,-0.3424 1.5237,-0.6854 2.3003,-1.021 0.742,-0.3208 1.6537,-0.6234 2.3385,-0.9925l1.8871 -1.4798c0.7605,0.0217 3.1844,0.7958 3.6911,1.342 0.1919,0.2069 0.2858,0.509 0.4719,0.7275 0.239,0.2808 0.396,0.3282 0.6078,0.6979l0.2928 2.1936 1.5574 4.5511c1.515,-3.163 0.2263,-7.4366 -1.3632,-10.3805 -2.1667,-4.013 -2.5749,-4.1935 -5.4676,-7.5487 1.1021,0.4728 3.8251,3.2802 4.6525,4.2871 1.4176,1.7247 2.5332,3.8174 3.2274,5.9349l-2.0053 14.7807c2.1826,-1.3754 4.7898,-7.655 5.0805,-10.1637l0.4032 -14.3208c-0.8232,-0.6781 -3.9882,-1.5937 -5.1275,-1.7859 -1.0719,-0.1808 -3.7397,-0.462 -4.797,-0.074l-1.215 0.5068c0.7318,-0.9564 2.8566,-2.4296 4.0581,-3.0293 4.7653,-2.3788 9.6162,-1.4858 13.9998,1.19l2.1727 1.4049c-0.4889,-1.3575 -2.0402,-3.3784 -2.9982,-4.3732 -6.2358,-6.4752 -14.703,-2.5118 -19.7983,3.207 -2.1144,2.3733 -0.0127,2.963 0.7567,4.9146 0.8526,2.1627 -0.3061,3.8526 -1.7615,5.184 -1.0433,0.9543 -3.9314,2.3413 -5.3427,1.9313z"/>
   <path id="_563060000" class="fil0" d="M5.0126 23.4713c-0.0994,5.9811 0.0697,10.7018 1.9353,16.424 2.8259,8.6675 8.9195,15.5272 16.2841,20.6474 4.0395,2.8086 7.5161,4.4953 11.8221,6.7368 0.9462,-0.2986 4.9387,-2.5304 6.0608,-3.1468 5.1081,-2.8066 11.8617,-7.8808 15.3226,-12.3445 2.8734,-3.706 5.1055,-7.3262 6.5747,-11.8458 0.7789,-2.396 1.3731,-4.8982 1.6957,-7.4273l0.2558 -9.0558 -2.5097 -1.7473c0.0474,5.5835 0.2075,10.7293 -1.3983,16.0868 -2.5748,8.5903 -7.8534,14.6885 -15.0287,19.9546 -1.3753,1.0094 -10.1048,6.5909 -11.029,6.3909 -0.5168,-0.1118 -4.9236,-2.5792 -5.6838,-3.0231 -5.6921,-3.3236 -10.2867,-6.7105 -14.3997,-11.8796 -5.6857,-7.1452 -7.3733,-14.4053 -7.3859,-23.1883l-0.0096 -4.3847 -2.5064 1.8027z"/>
   <path id="_563059952" class="fil0" d="M-0 18.7427c0.7942,-0.3905 2.269,-1.7018 4.3497,-2.6653 1.8396,-0.8518 3.8456,-1.3023 5.9037,-1.2795 1.9692,0.0218 3.9302,0.5533 5.6602,1.4342l4.1199 2.9389c-1.2,-0.4577 -1.2058,-0.6344 -2.6539,-0.6992 -1.0171,-0.0456 -2.2457,0.0729 -3.2471,0.2588l-5.1329 1.7951c-0.22,4.9164 -0.5203,9.4702 0.5055,14.3314 0.4373,2.0723 0.9965,3.7868 1.8945,5.6812l3.175 4.4597c-1.099,-1.7406 -2.0448,-4.5559 -2.4329,-6.6108 -0.9676,-5.1227 0.3118,-9.8646 3.5202,-13.9558 1.4401,-1.8362 2.8977,-2.933 4.6436,-4.3508 -0.2116,0.3721 -1.1659,1.1638 -1.5261,1.6361 -0.4653,0.61 -0.9345,1.202 -1.388,1.8493 -0.9339,1.3324 -1.7211,2.6644 -2.4654,4.1124l-1.2929 10.2807 1.5948 -4.5291c-0.02,-0.8866 -0.2131,-1.1922 0.2143,-2.0956 0.1874,-0.3962 0.277,-0.4443 0.5625,-0.7304 0.2837,-0.2843 0.2184,-0.501 0.5,-0.7971l3.7422 -1.4155c0.4979,0.3814 0.9418,0.9486 1.4632,1.2875 0.4902,0.3183 4.9744,2.2959 5.7472,2.6494l2.1387 -2.6676c-2.3121,-0.02 -3.7277,-0.4381 -5.5747,-1.8314 -1.4399,-1.0862 -2.7262,-3.0275 -2.1184,-5.0124 0.5716,-1.8665 2.9556,-2.9832 1.0295,-5.0014 -1.2905,-1.3525 -2.4399,-2.3458 -3.9945,-3.501 -7.4319,-5.5223 -15.0906,-3.8884 -18.9379,4.4282z"/>
   <path id="_563060408" class="fil0" d="M5.0051 3.8755l0.0257 7.226 2.4989 -0.907 0.0395 -3.5102 1.1703 -0.0021 0.0301 3.1043c0.6198,0.0361 1.412,-0.1307 2.1315,-0.109l1.9843 0.2327 0.0902 -3.3222c7.394,-0.5339 14.4832,-1.7645 21.7487,-3.1627 0.6229,-0.1199 9.003,1.582 10.5039,1.7875l11.1623 1.3682 0.0864 3.4196c2.9478,-0.4061 1.3965,-0.3508 4.68,-0.2136l0.0898 -3.1039 1.176 -0.0026 0.0347 3.5189 2.4899 0.8868c0.0976,-1.2397 0.0271,-4.6571 0.0335,-6.3143 0.0023,-0.5489 0.0717,-0.496 -0.1356,-0.8989 -1.2343,-0.103 -2.7994,-0.0134 -4.0713,-0.0174 -5.8841,-0.0182 -13.238,-0.991 -18.9826,-2.1936 -0.74,-0.1549 -6.7415,-1.6681 -6.7964,-1.6613 -0.1835,0.0226 -5.1758,1.3864 -6.713,1.6818 -6.1014,1.1718 -12.8151,2.1852 -19.0462,2.1689 -1.3233,-0.0033 -2.9402,-0.0747 -4.2306,0.0241z"/>
   <path id="_563059928" class="fil0" d="M16.8864 31.4061c-1.0777,1.0045 -1.039,0.5528 0.0853,3.5403l-0.908 -0.8156 -1.318 1.1761 0.9393 0.7022 -0.4433 0.7695c1.0037,-0.1195 1.7623,1.158 2.263,1.9189 0.6983,1.0614 0.9456,1.8179 1.2357,3.0359 0.6714,2.8199 1.3853,3.1337 3.315,5.0994 -0.1327,-0.6062 -0.4886,-1.0545 -0.5899,-1.9117l0.2614 -2.3108 6.2756 5.3397c-0.5815,-1.0081 -1.2569,-1.3028 -1.982,-3.4213 -0.5348,-1.5624 -0.5975,-3.1801 -0.3331,-4.8063l4.2231 -6.6869c-0.6028,0.0998 -1.5283,0.6619 -2.1407,0.5803l-2.1595 -0.7328c-1.0132,0.4725 -2.1248,1.7129 -2.6899,2.6913l-1.1814 4.2807c-0.9246,-0.1112 -3.4546,-1.8719 -3.3512,-3.8094 0.1368,-2.5623 2.2237,-2.7462 2.6287,-2.0664l0.4259 1.4589c1.4304,-1.4021 -0.6005,-4.1164 -1.8248,-3.5369l-1.1907 0.869c-0.3203,-0.5552 -0.2864,-1.1635 0.1106,-1.6691l1.6995 -0.5445c-0.3008,-0.528 -1.4321,-0.7484 -2.0255,-0.6979 -1.2069,0.1024 -1.0924,0.6333 -1.3251,1.5474z"/>
   <path id="_563060264" class="fil0" d="M49.6734 30.5483c2.042,0.1321 1.7093,0.3347 1.9376,2.1638 -0.4008,-0.1537 -0.6688,-0.6439 -1.2389,-0.8015 -0.5899,-0.163 -1.1521,0.111 -1.5738,0.4873l-0.2442 3.0235c0.064,-0.9801 0.4118,-2.1101 1.704,-1.7128 1.5092,0.4639 1.8569,3.5439 0.2672,4.7659l-2.2469 1.3927 -3.7815 -6.9771c-0.5423,0.059 -1.4947,0.5073 -2.1181,0.6777l-2.1386 -0.4604c0.5176,0.7359 3.4011,2.353 4.1047,6.6676 0.2617,1.6061 0.181,3.283 -0.3763,4.8132l-2.0308 3.3667c0.6574,-0.1728 2.8549,-1.8565 3.4277,-2.3361l2.9172 -3.0204c0.7466,1.0519 -0.0156,3.1311 -0.3375,4.2546 0.6127,-0.3517 1.7595,-1.6341 2.1795,-2.3012 1.5048,-2.3899 0.8895,-4.9701 3.8021,-7.5796l1.2397 0.708c0.3019,-0.2945 0.5243,-0.7831 0.3604,-1.2032l-1.3095 -0.4808 1.0514 -0.7304 -1.2722 -1.1927 -0.9787 0.8465c0.0465,-0.363 0.5703,-1.3804 0.7477,-1.8069l-0.6324 -1.7228c-0.2372,-0.8424 -0.1441,-1.4517 -1.3334,-1.5292 -0.7081,-0.046 -1.5998,0.2099 -2.1264,0.6876z"/>
   <path id="_563059184" class="fil0" d="M34.4429 45.3027c-0.274,-0.5537 -1.3763,-1.5309 -0.3877,-3.2606 0.7674,-1.3429 1.1816,-1.7407 0.2925,-3.2651 -0.7032,-1.2057 -1.0344,-1.9907 -0.2335,-3.3028l-0.1255 -3.1473c-1.0776,0.1936 -2.4496,1.6405 -3.0274,2.5092 -1.663,2.5 -1.7785,6.114 -0.0172,8.4848 0.7022,0.9451 2.1724,2.1258 3.4988,1.9818z"/>
   <path id="_563059592" class="fil0" d="M35.1154 45.2475c1.1513,-0.0335 2.5936,-1.3352 3.1511,-2.2633 0.8149,-1.3564 1.1234,-2.8568 0.9557,-4.4508 -0.1505,-1.4288 -0.6612,-2.7464 -1.5006,-3.9008l-3.1326 -2.3427c0.2087,0.4581 0.5796,0.9145 0.6316,1.5204 0.0566,0.6582 -0.1573,1.2289 -0.4793,1.7642 -0.9355,1.5554 -0.5415,1.7797 0.2289,3.1823 1.679,3.0566 -2.523,3.7685 0.1452,6.4907z"/>
   <path id="_563059472" class="fil0" d="M51.3569 18.4473c1.8458,-0.3095 1.7491,-0.7656 4.7011,-0.5908 2.6477,0.1567 5.5161,1.5547 7.6797,3.0107l3.2751 2.1694c-0.2162,-0.6691 -0.9688,-1.8998 -1.3002,-2.6668l-0.642 -3.2617c-1.3294,-0.9906 -5.7816,-1.0984 -7.4414,-0.874 -1.7211,0.2327 -4.9048,1.2 -6.2723,2.2132z"/>
   <path id="_563059424" class="fil0" d="M4.9407 17.0321c-0.1352,1.53 0.065,1.8637 -0.6408,3.3485l-1.3312 2.6724c3.1953,-1.8461 6.1005,-4.8643 10.6132,-5.1793 1.9925,-0.139 2.9245,0.1283 4.8152,0.489 -1.0159,-0.8053 -4.7657,-1.8732 -6.1519,-2.0728 -2.2427,-0.3229 -5.2488,-0.2117 -7.3045,0.7422z"/>
   <path id="_563059568" class="fil0" d="M49.8844 9.6244c0.7382,0.9072 0.6047,0.4847 0.5302,1.7393l0.9299 -0.4296 0.9838 0.4004 -0.1773 -0.922 0.6316 -0.7812 -1.4464 -1.0255c-0.6364,0.8396 -0.1463,0.8995 -1.4518,1.0186z"/>
   <path id="_563059352" class="fil0" d="M17.3248 9.5449l-0.9438 0.1196 0.6898 0.7535 -0.1491 0.9141c1.1002,-0.219 0.0859,-0.6601 1.9054,-0.0109l-0.1355 -0.9874 0.5959 -0.7077 -0.8646 -0.094 -0.5396 -0.9571 -0.5585 0.9699z"/>
   <path id="_563058440" class="fil0" d="M34.6737 59.8398l-0.9438 0.1196 0.6898 0.7535 -0.1491 0.9141c1.1002,-0.219 0.086,-0.6601 1.9054,-0.0108l-0.1355 -0.9875 0.5959 -0.7077 -0.8645 -0.094 -0.5397 -0.957 -0.5585 0.9698z"/>
   <path id="_563058296" class="fil0" d="M24.1855 14.3873l0.4344 0.4699 -0.0884 0.6225 1.2467 -0.019 -0.0636 -0.7023 0.4296 -0.4188 -0.986 -0.73c-0.6441,0.9289 -0.2445,0.3259 -0.9727,0.7777z"/>
   <path id="_563058512" class="fil0" d="M42.9389 14.3138l0.3797 0.4501 -0.0088 0.7432 0.5297 -0.2893 0.7002 0.2451 0.3082 -1.0828c-0.5601,-0.3061 -0.2714,0.2919 -0.9329,-0.7396 -0.2582,0.2127 -0.1406,0.3129 -0.3461,0.4792 -0.2224,0.18 -0.3869,0.104 -0.63,0.1941z"/>
   <path id="_563058776" class="fil1" d="M20.8947 9.277l0 -0.8821 1.4483 0 0 0.8821 -1.4483 0zm-0.0153 -1.2952l0.3723 -0.408 0 2.5905 -0.3979 -0.4743 1.7594 0 0 0.8823 -2.2846 0 0 -3.4727 2.2846 0 0 0.8822 -1.7338 0zm3.4012 2.6822c-0.2176,0 -0.4156,-0.0313 -0.594,-0.0943 -0.1785,-0.0628 -0.3366,-0.1538 -0.4743,-0.2728 -0.1377,-0.1189 -0.2523,-0.2634 -0.3442,-0.4335l0.6936 -0.4538c0.0883,0.1258 0.203,0.2269 0.3441,0.3035 0.1412,0.0765 0.2848,0.1147 0.4309,0.1147 0.1123,0 0.1964,-0.0222 0.2525,-0.0664 0.0561,-0.0442 0.0841,-0.0984 0.0841,-0.1631 0,-0.0442 -0.0127,-0.0833 -0.0382,-0.1173 -0.0256,-0.0339 -0.0757,-0.0671 -0.1505,-0.0994 -0.0748,-0.0322 -0.1835,-0.0637 -0.3263,-0.0943 -0.2992,-0.0681 -0.5372,-0.1538 -0.7139,-0.2575 -0.1768,-0.1037 -0.3026,-0.2295 -0.3774,-0.3774 -0.0748,-0.1479 -0.1122,-0.3171 -0.1122,-0.5075 0,-0.2107 0.0544,-0.402 0.1631,-0.5735 0.1089,-0.1718 0.2644,-0.3086 0.4667,-0.4106 0.2023,-0.102 0.4428,-0.1531 0.7216,-0.1531 0.3127,0 0.5796,0.0621 0.8006,0.1863 0.2209,0.124 0.391,0.283 0.5099,0.4767l-0.6936 0.4997c-0.0781,-0.1053 -0.1827,-0.181 -0.3136,-0.2269 -0.1309,-0.0458 -0.2558,-0.0688 -0.3747,-0.0688 -0.1054,0 -0.1895,0.0196 -0.2525,0.0586 -0.0628,0.0391 -0.0943,0.0926 -0.0943,0.1607 0,0.068 0.0348,0.1223 0.1045,0.1631 0.0698,0.0409 0.2083,0.0851 0.4156,0.1326 0.2857,0.0647 0.5193,0.1471 0.7013,0.2474 0.1818,0.1003 0.316,0.2243 0.4027,0.3722 0.0867,0.1479 0.1302,0.3289 0.1302,0.5431 0,0.2142 -0.0545,0.4054 -0.1633,0.5737 -0.1088,0.1682 -0.2652,0.3 -0.4692,0.3953 -0.2039,0.0951 -0.4469,0.1426 -0.7292,0.1426zm2.4835 -0.0917l0 -3.1464 0.9332 0 0 3.1464 -0.9332 0zm-0.9842 -2.5752l0 -0.8975 2.8965 0 0 0.8975 -2.8965 0zm3.7225 1.2799l0 -0.8821 1.4483 0 0 0.8821 -1.4483 0zm-0.0153 -1.2952l0.3723 -0.408 0 2.5905 -0.3978 -0.4743 1.7593 0 0 0.8823 -2.2846 0 0 -3.4727 2.2846 0 0 0.8822 -1.7338 0zm4.2529 2.5905l0 -3.1464 0.9332 0 0 3.1464 -0.9332 0zm-0.9842 -2.5752l0 -0.8975 2.8965 0 0 0.8975 -2.8965 0zm3.7225 1.2799l0 -0.8821 1.4483 0 0 0.8821 -1.4483 0zm-0.0153 -1.2952l0.3723 -0.408 0 2.5905 -0.3978 -0.4743 1.7593 0 0 0.8823 -2.2846 0 0 -3.4727 2.2846 0 0 0.8822 -1.7338 0zm2.106 2.5905l0 -3.4727 1.2852 0c0.2548,0 0.4868,0.0484 0.696,0.1453 0.209,0.0969 0.3757,0.2398 0.4997,0.4284 0.1241,0.1886 0.1861,0.4224 0.1861,0.7011 0,0.2788 -0.062,0.5126 -0.1861,0.7013 -0.124,0.1886 -0.2907,0.3305 -0.4997,0.4258 -0.2092,0.0951 -0.4412,0.1427 -0.696,0.1427l-0.5814 0 0 -0.8974 0.5506 0c0.1564,0 0.2746,-0.0306 0.3545,-0.0919 0.0799,-0.0612 0.1198,-0.1546 0.1198,-0.2805 0,-0.1223 -0.0399,-0.2159 -0.1198,-0.2804 -0.0799,-0.0647 -0.1981,-0.0969 -0.3545,-0.0969l-0.5558 0 0.2245 -0.1988 0 2.774 -0.9231 0zm1.6931 0l-0.6833 -1.387 1.0096 0 0.6833 1.387 -1.0096 0zm1.1269 0l0.5967 -3.4727 0.8312 0 0.7394 2.2539 -0.0764 0 0.7393 -2.2539 0.8261 0 0.6017 3.4727 -0.9076 0 -0.2091 -1.4737c-0.0238,-0.1837 -0.0477,-0.3681 -0.0714,-0.5534 -0.0238,-0.1851 -0.0475,-0.3714 -0.0714,-0.5582l0.2652 0c-0.0476,0.1801 -0.0927,0.3619 -0.1352,0.5455 -0.0425,0.1837 -0.0925,0.3655 -0.1503,0.5456l-0.4846 1.4687 -0.7292 0 -0.4844 -1.4687c-0.0612,-0.1801 -0.113,-0.3619 -0.1555,-0.5456 -0.0425,-0.1836 -0.0876,-0.3654 -0.1352,-0.5455l0.2704 0c-0.0239,0.1868 -0.0468,0.3731 -0.069,0.5582 -0.022,0.1853 -0.0466,0.3697 -0.0738,0.5534l-0.2092 1.4737 -0.9077 0zm4.3754 -1.7338c0,-0.2651 0.0426,-0.5083 0.1276,-0.7292 0.0848,-0.221 0.2056,-0.4123 0.3619,-0.5737 0.1564,-0.1615 0.3434,-0.2864 0.561,-0.3748 0.2176,-0.0884 0.4589,-0.1326 0.7242,-0.1326 0.2651,0 0.5073,0.0442 0.7266,0.1326 0.2193,0.0884 0.4079,0.2133 0.5661,0.3748 0.1581,0.1614 0.2796,0.3527 0.3645,0.5737 0.085,0.2209 0.1275,0.4641 0.1275,0.7292 0,0.2651 -0.0425,0.5083 -0.1275,0.7292 -0.0849,0.221 -0.2064,0.4122 -0.3645,0.5737 -0.1582,0.1615 -0.3468,0.2856 -0.5661,0.3722 -0.2193,0.0867 -0.4615,0.1301 -0.7266,0.1301 -0.2653,0 -0.5066,-0.0434 -0.7242,-0.1301 -0.2176,-0.0866 -0.4046,-0.2107 -0.561,-0.3722 -0.1563,-0.1615 -0.2771,-0.3527 -0.3619,-0.5737 -0.085,-0.2209 -0.1276,-0.4641 -0.1276,-0.7292zm0.9435 0c0,0.1904 0.0348,0.3518 0.1044,0.4844 0.0697,0.1326 0.1675,0.2329 0.2933,0.3009 0.1258,0.0681 0.2702,0.102 0.4335,0.102 0.1665,0 0.3127,-0.0339 0.4385,-0.102 0.1257,-0.068 0.2243,-0.1691 0.2957,-0.3033 0.0714,-0.1344 0.1071,-0.2967 0.1071,-0.4871 0,-0.1903 -0.0357,-0.3518 -0.1071,-0.4845 -0.0714,-0.1326 -0.17,-0.2329 -0.2957,-0.3008 -0.1258,-0.068 -0.272,-0.102 -0.4385,-0.102 -0.1633,0 -0.3077,0.0349 -0.4335,0.1045 -0.1258,0.0697 -0.2236,0.1709 -0.2933,0.3035 -0.0696,0.1326 -0.1044,0.294 -0.1044,0.4844z"/>
   <path id="_563058968" class="fil1" d="M31.1102 51.1658l0 -1.1663 1.9145 0 0 1.1663 -1.9145 0zm-0.0203 -1.7124l0.4922 -0.5393 0 3.4248 -0.5259 -0.6271 2.3259 0 0 1.1664 -3.0202 0 0 -4.5911 3.0202 0 0 1.1663 -2.2922 0zm6.2783 3.4248l-2.8988 0 0 -4.5911 1.2202 0 0 3.9776 -0.3775 -0.5731 2.0561 0 0 1.1866zm2.2132 0l-1.2202 0 0 -4.5911 1.2202 0 0 4.5911z"/>
   <path id="_563058608" class="fil1" d="M27.4022 44.9139l0 -0.4899 0.8973 0 0 0.4899 -0.8973 0zm-0.0095 -0.8367l0.1941 -0.2164 0 1.6384 -0.21 -0.2385 1.0944 0 0 0.4931 -1.3999 0 0 -2.1667 1.3999 0 0 0.4901 -1.0785 0zm2.138 1.7307c-0.1294,0 -0.2493,-0.0191 -0.3595,-0.0573 -0.1103,-0.0381 -0.2084,-0.0944 -0.2944,-0.1687 -0.0859,-0.0741 -0.1575,-0.1674 -0.2146,-0.28l0.3912 -0.2512c0.0594,0.0912 0.1331,0.1616 0.2212,0.2115 0.088,0.0498 0.183,0.0748 0.2847,0.0748 0.0848,0 0.1484,-0.017 0.1909,-0.051 0.0424,-0.0339 0.0637,-0.0784 0.0637,-0.1336 0,-0.0338 -0.0097,-0.0647 -0.0286,-0.0922 -0.0192,-0.0275 -0.0552,-0.0535 -0.1083,-0.078 -0.0531,-0.0243 -0.1283,-0.0471 -0.2258,-0.0683 -0.1825,-0.0424 -0.3267,-0.0954 -0.4328,-0.1591 -0.1059,-0.0637 -0.1813,-0.1405 -0.2258,-0.2307 -0.0445,-0.09 -0.0668,-0.1925 -0.0668,-0.307 0,-0.1272 0.0322,-0.2424 0.0971,-0.3451 0.0646,-0.1029 0.1579,-0.1846 0.2799,-0.245 0.1219,-0.0605 0.2656,-0.0907 0.4311,-0.0907 0.1887,0 0.3489,0.037 0.4804,0.1114 0.1315,0.0741 0.2344,0.1706 0.3086,0.2894l-0.3913 0.28c-0.0531,-0.0701 -0.1194,-0.1199 -0.1989,-0.1496 -0.0796,-0.0296 -0.1575,-0.0445 -0.2338,-0.0445 -0.0785,0 -0.1406,0.0149 -0.1861,0.0445 -0.0456,0.0297 -0.0685,0.0722 -0.0685,0.1274 0,0.0508 0.0238,0.0927 0.0717,0.1255 0.0477,0.0329 0.1416,0.0653 0.2815,0.0971 0.1781,0.0424 0.3223,0.0944 0.4327,0.156 0.1103,0.0615 0.1915,0.1373 0.2433,0.2274 0.052,0.0902 0.078,0.2 0.078,0.3293 0,0.1315 -0.0334,0.2482 -0.1002,0.35 -0.0668,0.1017 -0.1611,0.1818 -0.2832,0.2403 -0.122,0.0582 -0.2677,0.0874 -0.4374,0.0874z"/>
   <path id="_563058728" class="fil1" d="M39.1084 45.4331l0 -2.1666 0.7731 0c0.2291,0 0.4253,0.0429 0.5887,0.1289 0.1633,0.0859 0.2884,0.2094 0.3754,0.3706 0.087,0.1612 0.1304,0.3554 0.1304,0.5823 0,0.229 -0.044,0.4241 -0.1321,0.5853 -0.0879,0.1613 -0.2136,0.2849 -0.3769,0.3706 -0.1633,0.086 -0.3595,0.1289 -0.5887,0.1289l-0.7699 0zm0.5155 -0.2864l-0.2132 -0.2131 0.4328 0c0.1229,0 0.2295,-0.0196 0.3197,-0.0589 0.09,-0.0391 0.1601,-0.1023 0.2099,-0.1893 0.0499,-0.0868 0.0748,-0.1994 0.0748,-0.3371 0,-0.1358 -0.0245,-0.2467 -0.0733,-0.3326 -0.0487,-0.0858 -0.1181,-0.1489 -0.2084,-0.1893 -0.09,-0.0402 -0.1966,-0.0604 -0.3197,-0.0604l-0.4581 0 0.2355 -0.1431 0 1.5238zm1.8994 -0.5535l0 -0.4899 0.8972 0 0 0.4899 -0.8972 0zm-0.0095 -0.8367l0.194 -0.2163 0 1.6384 -0.2099 -0.2386 1.0944 0 0 0.4931 -1.3999 0 0 -2.1666 1.3999 0 0 0.49 -1.0785 0z"/>
   <path id="_563058080" class="fil1" d="M25.8826 55.7956l0.6006 0c0.1707,0 0.2996,-0.0388 0.3867,-0.1167 0.0872,-0.0779 0.1308,-0.1909 0.1308,-0.3394 0,-0.152 -0.0436,-0.267 -0.1308,-0.3448 -0.0871,-0.0778 -0.216,-0.1168 -0.3867,-0.1168l-0.6062 0 0.2448 -0.217 0 3.026 -1.0069 0 0 -3.7879 1.4018 0c0.3003,0 0.5636,0.0545 0.7898,0.164 0.2263,0.1094 0.4024,0.2707 0.5284,0.484 0.1262,0.2131 0.1892,0.4774 0.1892,0.7925 0,0.3153 -0.063,0.5795 -0.1892,0.7927 -0.126,0.2133 -0.3021,0.3746 -0.5284,0.4839 -0.2262,0.1095 -0.4895,0.1641 -0.7898,0.1641l-0.6341 0 0 -0.9846zm3.1317 0.395l1.5853 0 0 0.9289 -1.5853 0 0 -0.9289zm-0.9177 1.4963l1.3405 -3.7879 1.0067 0 1.2182 3.7879 -1.0124 0 -0.9067 -3.1038 0.4006 0 -1.0402 3.1038 -1.0067 0zm3.8101 0l0 -3.7879 1.3852 0c0.4116,0 0.7591,0.075 1.0428,0.2252 0.2838,0.1501 0.4997,0.3662 0.6482,0.648 0.1483,0.2818 0.2224,0.6211 0.2224,1.0179 0,0.3968 -0.0741,0.737 -0.2224,1.0207 -0.1485,0.2838 -0.3653,0.5006 -0.651,0.6509 -0.2854,0.1501 -0.6341,0.2252 -1.0457,0.2252l-1.3795 0zm1.0069 -0.5339l-0.4395 -0.4451 0.7343 0c0.2076,0 0.3829,-0.0306 0.5257,-0.0918 0.1426,-0.0612 0.2521,-0.1595 0.3281,-0.2948 0.076,-0.1353 0.1141,-0.3124 0.1141,-0.5312 0,-0.2188 -0.0372,-0.3949 -0.1113,-0.5284 -0.0742,-0.1335 -0.1826,-0.2308 -0.3254,-0.2921 -0.1428,-0.0612 -0.3181,-0.0917 -0.5257,-0.0917l-0.7788 0 0.4785 -0.2615 0 2.5366zm3.5989 0.5339l-1.0069 0 0 -3.7879 1.0069 0 0 3.7879zm2.8479 0l-2.3919 0 0 -3.7879 1.0069 0 0 3.2818 -0.3115 -0.4729 1.6965 0 0 0.979zm2.7201 0l-2.3919 0 0 -3.7879 1.0068 0 0 3.2818 -0.3114 -0.4729 1.6965 0 0 0.979zm1.0402 -1.4963l1.5853 0 0 0.9289 -1.5853 0 0 -0.9289zm-0.9177 1.4963l1.3405 -3.7879 1.0067 0 1.2182 3.7879 -1.0124 0 -0.9067 -3.1038 0.4006 0 -1.0402 3.1038 -1.0067 0z"/>
  </g>
 </g>
</svg>
