<?xml version="1.0" encoding="UTF-8"?>
<!DOCTYPE svg PUBLIC "-//W3C//DTD SVG 1.1//EN" "http://www.w3.org/Graphics/SVG/1.1/DTD/svg11.dtd">
<!-- Creator: CorelDRAW -->
<svg xmlns="http://www.w3.org/2000/svg" xml:space="preserve" width="62.5mm" height="62.5mm" style="shape-rendering:geometricPrecision; text-rendering:geometricPrecision; image-rendering:optimizeQuality; fill-rule:evenodd; clip-rule:evenodd"
viewBox="0 0 62.5 62.5"
 xmlns:xlink="http://www.w3.org/1999/xlink">
 <defs>
  <style type="text/css">
   <![CDATA[
    .fil9 {fill:#009522}
    .fil10 {fill:#009CEF}
    .fil8 {fill:#040406}
    .fil0 {fill:#27160A}
    .fil12 {fill:#8B0718}
    .fil11 {fill:#A7022B}
    .fil1 {fill:#F1B22D}
    .fil2 {fill:#F1CB2C}
    .fil3 {fill:#F28E0F}
    .fil7 {fill:#F50021}
    .fil4 {fill:#FCE4D4}
    .fil5 {fill:#FCF2E4}
    .fil6 {fill:#FEB101}
   ]]>
  </style>
 </defs>
 <g id="Capa_x0020_1">
  <metadata id="CorelCorpID_0Corel-Layer"/>
  <g id="_397172600">
   <path id="_397186424" class="fil0" d="M37.7354 18.8666l-0.1144 -0.1677c-0.3133,-0.1357 -0.2768,-0.4184 -0.7041,-0.4604l0.4221 0.6107c0.2338,0.2859 0.1632,0.5108 0.5084,0.4339l-0.112 -0.4165z"/>
   <path id="_397186496" class="fil0" d="M30.1991 20.7841c0.3418,0.0188 0.284,-0.1376 0.4434,-0.9299 -0.4843,-0.1635 -0.4685,0.8298 -0.4434,0.9299z"/>
   <path id="_397185656" class="fil0" d="M34.9968 17.7609c0.0271,0.2137 0.1131,0.2427 0.2537,0.4273 0.1703,0.2236 0.1173,0.2522 0.3995,0.2045 0.0649,-0.2667 -0.3381,-0.7995 -0.6532,-0.6318z"/>
   <path id="_397185560" class="fil0" d="M31.2582 18.2925l0.0052 -0.1837 -0.2531 0.0131c-0.1413,0.2534 -0.32,0.4159 -0.2969,0.7272 0.2466,0.0471 0.1849,0.0676 0.3275,-0.1807 0.0759,-0.1323 0.1331,-0.2484 0.2173,-0.3759z"/>
   <path id="_397186088" class="fil0" d="M36.8334 20.0169c0.0111,0.2214 0.0508,0.3386 0.1049,0.5462 0.0739,0.2839 0.0431,0.3303 0.3395,0.273l-0.261 -0.7937 -0.1834 -0.0255z"/>
   <path id="_397185512" class="fil0" d="M36.0847 20.3376c-0.0313,-0.3151 -0.061,-0.6435 -0.397,-0.6576 -0.1502,0.298 0.0652,0.5985 0.397,0.6576z"/>
   <path id="_397186064" class="fil0" d="M29.8713 18.1333c0.2914,-0.0405 0.4503,-0.0799 0.4451,-0.3785 -0.3213,-0.0028 -0.4231,0.0594 -0.4451,0.3785z"/>
   <path id="_397185128" class="fil1" d="M30.1991 20.7841c-0.0251,-0.1001 -0.0409,-1.0934 0.4434,-0.9299 -0.1594,0.7923 -0.1016,0.9487 -0.4434,0.9299zm0.5434 -0.0491c-0.0258,-0.392 0.224,-0.6991 -0.055,-1.0279l-0.3596 -0.0283 -0.1353 1.3085 0.5499 -0.2523z"/>
   <path id="_397184552" class="fil2" d="M31.2582 18.2925c-0.0842,0.1275 -0.1414,0.2436 -0.2173,0.3759 -0.1426,0.2483 -0.0809,0.2278 -0.3275,0.1807 -0.0231,-0.3113 0.1556,-0.4738 0.2969,-0.7272 -0.3581,-0.0022 -0.3649,0.6189 -0.4017,0.8833l0.7661 -0.5061c0,-0.5035 0.0213,-0.0622 -0.1165,-0.2066z"/>
   <path id="_487009704" class="fil3" d="M37.7403 18.7069l-0.1193 -0.008 0.1144 0.1677 0.225 0.044c0.109,0.276 0.1167,0.4586 -0.1964,0.5541l0.1034 0.0359c0.0979,0.3623 0.2006,0.6726 0.2033,1.0611 0.1372,-0.1008 0.0884,0.0706 0.1125,-0.1485 0.0338,0.1614 0.3187,0.6138 0.3846,0.8367 -0.1879,0.0466 -0.7614,0.0639 -0.8498,-0.1348 -0.5483,0.1828 -0.7701,-0.0823 -1.2877,0.054l2.3515 0.2956c-0.06,-0.6287 -0.4995,-1.1302 -0.7003,-1.7149l-0.019 -0.1256c0.5988,-0.0291 -0.1872,0.007 0.7608,-0.3669l-0.1738 -0.4181 -0.2773 0.0503c0.2429,0.1496 0.1693,0.0706 0.2269,0.3346 -0.3608,-0.1046 -0.2184,-0.2061 -0.5186,-0.4532l-0.0582 -0.075c0.1505,-0.099 0.3397,-0.2812 0.2666,-0.3843l0.3078 -0.0223c-0.1117,-0.1576 -0.2721,-0.2438 -0.4735,-0.3176 -0.1638,0.2301 -0.0211,0.3955 -0.2628,0.7781l-0.1201 -0.0429zm-13.8938 3.4395l1.2772 -0.3383c0.8145,-1.6141 0.4791,-1.0993 1.7558,-2.4941l0.0989 0.0809c0.3042,0.1723 0.097,0.1969 -0.3012,0.9607l0.1355 -0.3006 0.2078 -0.0041 1.6953 -1.5995c-0.0774,0.1919 -0.8582,1.03 -1.0896,1.3633l-0.8313 1.7531 1.2026 -0.196 1.291 -2.1546c0.2008,0.2937 -0.1304,0.3312 -0.3874,0.9331l-0.43 1.197c1.2753,-0.1396 2.6199,-0.2263 3.904,-0.2468 0.7074,-0.0113 3.6839,0.1583 4.0552,0.0686 0.5176,-0.1363 0.7394,0.1288 1.2877,-0.054l0.3527 -0.5534c-0.0027,-0.3885 -0.1054,-0.6988 -0.2033,-1.0611l-0.1034 -0.0359c-0.3945,-0.0551 -0.3603,-0.277 -0.6021,-0.5695 -0.2421,-0.2928 -0.3903,-0.2172 -0.4296,-0.6967 0.9561,0.108 0.4622,0.0058 0.8397,0.2963 0.1735,0.1334 0.0901,-0.0315 0.1683,0.2121l0.1201 0.0429c0.2417,-0.3826 0.099,-0.548 0.2628,-0.7781 -4.0419,-1.9115 -8.6327,-1.6501 -12.0139,1.267 -0.6206,0.5353 -2.0328,2.0742 -2.2628,2.9077zm14.234 -3.3755l0.0134 -0.0897 0.2783 0.2083 0.2773 -0.0503 0.1738 0.4181c-0.948,0.3739 -0.162,0.3378 -0.7608,0.3669l0.019 0.1256 -0.0139 -0.1159c0.3951,0.0236 0.7783,0.6613 0.9463,1.0022 0.0711,-0.1362 -0.0036,-0.0292 0.0785,-0.0921 0.0928,-0.0711 0.0323,0.1091 0.0721,-0.0324 0.0046,-0.0162 0.0268,-0.0062 0.0391,-0.0121l0.0506 -0.4372c0.287,0.0704 0.4151,0.2586 0.5892,0.5168l0.1706 0.2165 0.1988 -0.0135c0.0445,0.1802 0.0129,0.1885 0.1844,0.2592l0.0103 -0.2289 -0.0652 -0.2452c-0.2058,-0.1279 -0.3006,-0.2872 -0.3674,-0.528 0.2874,0.0588 0.434,0.1668 0.5478,0.4229 0.3366,0.1623 0.5416,0.7752 0.7225,0.9128 0.3225,0.0516 0.4847,0.2543 0.8786,0.5568 -0.5121,-0.601 -0.3125,-0.5377 -0.7925,-1.1082 -0.2364,-0.2809 -0.1948,-0.2636 -0.0745,-0.3862 -0.1166,-0.0202 -1.0253,-0.9809 -1.2223,-1.1599 -0.2218,-0.2016 -1.1944,-0.9368 -1.4378,-0.9881l-0.3078 0.0223c0.0731,0.1031 -0.1161,0.2853 -0.2666,0.3843l0.0582 0.075zm-0.0098 1.7908l-0.3527 0.5534c0.0884,0.1987 0.6619,0.1814 0.8498,0.1348 -0.0659,-0.2229 -0.3508,-0.6753 -0.3846,-0.8367 -0.0241,0.2191 0.0247,0.0477 -0.1125,0.1485zm0.9432 0.0744l0.3788 0.9177 0.56 0.0454 -0.3549 -0.8689c-0.2031,-0.1296 -0.3794,-0.4033 -0.3436,-0.668l-0.0506 0.4372c-0.0123,0.0059 -0.0345,-0.0041 -0.0391,0.0121 -0.0398,0.1415 0.0207,-0.0387 -0.0721,0.0324 -0.0821,0.0629 -0.0074,-0.0441 -0.0785,0.0921zm2.2313 0.7388c0.2197,0.7718 0.514,0.6522 1.2617,0.8218 -0.0577,-0.2507 -0.2253,-0.4848 -0.3716,-0.7009 -0.1481,-0.2187 -0.2818,-0.5455 -0.4803,-0.6416 -0.2412,-0.0612 -0.2575,-0.1884 -0.3982,-0.4169 -0.1203,0.1226 -0.1619,0.1053 0.0745,0.3862 0.48,0.5705 0.2804,0.5072 0.7925,1.1082 -0.3939,-0.3025 -0.5561,-0.5052 -0.8786,-0.5568zm-0.8377 -0.5625l-0.0103 0.2289c-0.1715,-0.0707 -0.1399,-0.079 -0.1844,-0.2592l-0.1988 0.0135 0.4338 0.9498 0.4859 0.0613c-0.0677,-0.2955 -0.2804,-0.8247 -0.5262,-0.9943zm-2.6435 -1.3477c0.3131,-0.0955 0.3054,-0.2781 0.1964,-0.5541l-0.225 -0.044 0.112 0.4165c-0.3452,0.0769 -0.2746,-0.148 -0.5084,-0.4339l-0.4221 -0.6107c0.4273,0.042 0.3908,0.3247 0.7041,0.4604l0.1193 0.008c-0.0782,-0.2436 0.0052,-0.0787 -0.1683,-0.2121 -0.3775,-0.2905 0.1164,-0.1883 -0.8397,-0.2963 0.0393,0.4795 0.1875,0.4039 0.4296,0.6967 0.2418,0.2925 0.2076,0.5144 0.6021,0.5695zm-0.9306 0.5522l0.0886 -0.156 0.3645 0.1612c0.0767,0.5108 0.5484,1.0522 -0.2363,1.025 -0.2142,-0.1868 -0.5229,-0.9279 -0.2168,-1.0302zm-1.1457 -0.3369c0.336,0.0141 0.3657,0.3425 0.397,0.6576 -0.3318,-0.0591 -0.5472,-0.3596 -0.397,-0.6576zm-0.4372 -1.4918c-0.1406,-0.1846 -0.2266,-0.2136 -0.2537,-0.4273 0.3151,-0.1677 0.7181,0.3651 0.6532,0.6318 -0.2822,0.0477 -0.2292,0.0191 -0.3995,-0.2045zm1.5829 1.8287l0.1834 0.0255 0.261 0.7937c-0.2964,0.0573 -0.2656,0.0109 -0.3395,-0.273 -0.0541,-0.2076 -0.0938,-0.3248 -0.1049,-0.5462zm0 0c-0.3061,0.1023 0.0026,0.8434 0.2168,1.0302 0.7847,0.0272 0.313,-0.5142 0.2363,-1.025l-0.3645 -0.1612 -0.0886 0.156z"/>
   <path id="_397188824" class="fil3" d="M54.0018 28.0402c0.2072,-0.247 0.5373,-0.4588 0.8256,-0.1151 0.1133,0.1352 0.1327,0.2777 0.0482,0.4364 -0.0338,0.0634 -0.0967,0.1338 -0.15,0.1743l-0.2613 0.1704c0.8224,0.2123 0.6561,-0.2307 0.6278,-0.8512l-1.0936 -0.0427 0.0033 0.2279zm0 0c-0.0172,0.4371 0.1267,0.4992 0.4625,0.666l0.2613 -0.1704c0.0533,-0.0405 0.1162,-0.1109 0.15,-0.1743 0.0845,-0.1587 0.0651,-0.3012 -0.0482,-0.4364 -0.2883,-0.3437 -0.6184,-0.1319 -0.8256,0.1151zm0 0l-0.0033 -0.2279 1.0936 0.0427c0.0283,0.6205 0.1946,1.0635 -0.6278,0.8512 -0.3358,-0.1668 -0.4797,-0.2289 -0.4625,-0.666zm-20.1651 -12.7101c0.0567,0.1298 1.7335,0.2663 2.4913,0.4717 0.7052,0.1911 1.5093,0.484 2.1638,0.8305 1.0391,0.5502 2.6998,1.6874 3.3787,2.5512 0.0504,-0.2993 3.5558,-3.7055 4.0365,-4.1904 -0.0477,-0.5167 -0.9081,-0.9775 -0.5339,-2.4959 0.3644,-1.4785 2.6229,-2.372 4.0395,-0.9117 0.757,0.7804 0.4945,1.3597 0.3531,2.4641 0.9708,-0.0174 1.4413,-0.1663 2.1893,0.6209 1.4205,1.495 0.0467,4.3181 -2.5806,3.6407 -0.4525,-0.1166 -0.7713,-0.4057 -0.9984,-0.4649 -0.3837,0.0584 -0.1219,-0.1063 -0.307,0.0334 -0.1235,0.0933 -0.1929,0.1483 -0.3011,0.2665l-3.7132 3.8384c0.0885,0.2715 0.06,0.0704 0.1431,0.2487 0.0696,0.149 0.0279,0.214 0.0694,0.3773l0.6009 1.8973c0.2981,0.1549 2.941,0.4858 3.7127,0.6645 0.2661,0.0616 0.4199,0.1088 0.7092,0.1593 0.6174,0.108 0.9026,0.1991 1.495,0.3773l0.0851 -0.2146 0.4334 0.1754 -0.0612 0.1974 1.4466 0.3846 0.8358 0.9896c-0.0354,0.5698 0.0422,0.4218 -0.2972,0.7975 -0.3039,0.3362 -0.2417,0.2168 -0.5381,0.5916 -0.5372,-0.0242 -0.8808,0.2028 -1.353,0.3456l-1.4606 0.2831 -0.125 0.1805 -1.432 0.1069 8.2436 -0.034 -0.0561 -23.4693c-0.5192,0.0565 -0.1916,0.0183 -0.6263,0.0054 -1.3308,-0.0395 -3.6551,-0.0294 -4.9416,-0.0121 -1.8951,0.0257 -3.7917,0.0011 -5.6878,0.0091l-8.5004 0.0116c-0.4605,-0.0015 -2.5028,-0.095 -2.7344,0.0782 -0.0418,2.6419 -0.168,6.5881 -0.0682,9.107 0.1598,0.0734 0.1418,0.0521 0.2571,0.1629l-0.368 -0.0753zm0 0l0.368 0.0753c-0.1153,-0.1108 -0.0973,-0.0895 -0.2571,-0.1629 -0.0998,-2.5189 0.0264,-6.4651 0.0682,-9.107 0.2316,-0.1732 2.2739,-0.0797 2.7344,-0.0782l8.5004 -0.0116c1.8961,-0.008 3.7927,0.0166 5.6878,-0.0091 1.2865,-0.0173 3.6108,-0.0274 4.9416,0.0121 0.4347,0.0129 0.1071,0.0511 0.6263,-0.0054l0.0561 23.4693 0.0917 0.0124 -0.0109 -23.6686 -22.8297 0.024 0.0232 9.4497zm9.9741 6.5927c0.1858,0.456 0.3716,0.8828 0.5208,1.3601 0.1353,0.4326 0.2353,1.0738 0.3813,1.4378l8.3612 2.2065c1.154,1.272 -1.9809,1.9406 -2.7355,2.0952 -0.94,0.1927 -2.4614,0.3844 -3.4609,0.4777 -0.2107,0.0197 -0.4218,0.0396 -0.6299,0.0585 -0.7424,0.0673 -0.4014,0.0363 -0.5385,0.1558l10.8574 -0.0389 0.0874 -0.1505 -0.0917 -0.0124 -8.2436 0.034 1.432 -0.1069 0.125 -0.1805 1.4606 -0.2831c0.4722,-0.1428 0.8158,-0.3698 1.353,-0.3456 0.2964,-0.3748 0.2342,-0.2554 0.5381,-0.5916 0.3394,-0.3757 0.2618,-0.2277 0.2972,-0.7975l-0.8358 -0.9896 -1.4466 -0.3846 0.0612 -0.1974 -0.4334 -0.1754 -0.0851 0.2146c-0.5924,-0.1782 -0.8776,-0.2693 -1.495,-0.3773 -0.2893,-0.0505 -0.4431,-0.0977 -0.7092,-0.1593 -0.7717,-0.1787 -3.4146,-0.5096 -3.7127,-0.6645l-0.6009 -1.8973c-0.0415,-0.1633 0.0002,-0.2283 -0.0694,-0.3773 -0.0831,-0.1783 -0.0546,0.0228 -0.1431,-0.2487l3.7132 -3.8384c0.1082,-0.1182 0.1776,-0.1732 0.3011,-0.2665 0.1851,-0.1397 -0.0767,0.025 0.307,-0.0334l-0.1738 -0.2226 -1.1615 1.0403c-0.4878,0.4674 -3.0337,3.1101 -3.2299,3.2588z"/>
   <path id="_397183616" class="fil4" d="M40.0959 39.7069l5.7798 5.7312c-0.5124,0.8815 -0.8089,1.3965 -0.4861,2.4795 0.226,0.7582 0.9019,1.3843 1.6864,1.5734 0.8483,0.2044 1.8441,-0.0306 2.3951,-0.7078 0.4446,-0.7356 0.5601,-1.5602 0.2505,-2.4998 0.6306,-0.0624 1.3802,0.4001 2.3392,-0.6599 1.189,-1.3142 0.2798,-3.5623 -1.6229,-3.7492 -1.1626,-0.1143 -1.536,0.1983 -2.4996,0.6896 -0.537,-0.481 -1.0997,-1.1042 -1.6296,-1.622 -0.7395,-0.7226 -4.8591,-4.7558 -4.9523,-4.9604 -0.1528,-0.0532 -0.196,-0.119 -0.3013,-0.2149 -0.3791,0.125 -1.0608,0.6448 -1.5866,0.8293l0.6274 3.111z"/>
   <path id="_397183592" class="fil4" d="M33.3212 44.0229c-0.0779,0.439 -0.0147,1.4754 -0.0096,1.9778 0.0046,0.4486 -0.1066,1.3523 0.3141,1.6221 0.6657,0.427 3.8889,-0.6125 5.2334,-2.5132 0.8041,-1.1369 0.9281,-1.5359 0.4387,-2.8422l-1.455 0.6969c-0.5285,0.2627 -1.0501,0.4027 -1.5823,0.6155l-0.3228 1.5589 -0.5 -1.363 -2.1165 0.2472z"/>
   <path id="_397183328" class="fil4" d="M26.5702 42.2554c-0.3453,1.082 -0.4133,1.269 0.1499,2.2733 0.3602,0.6422 0.7983,1.1043 1.3094,1.5668 0.9547,0.8637 2.8437,1.6413 4.1547,1.5663 0.3763,-1.6893 0.452,-1.7727 0.3669,-3.6423l-2.2701 -0.292 -0.4061 1.3946 -0.2787 -1.5982 -1.5659 -0.6283c-0.4188,-0.1948 -1.038,-0.6041 -1.4601,-0.6402z"/>
   <path id="_397182704" class="fil4" d="M36.1435 42.8161c0.4993,-0.0044 2.5754,-0.9679 2.993,-1.3156 0.0106,-0.5049 -0.304,-1.4982 -0.3906,-2.0635l-2.7799 0.6771 0.1775 2.702z"/>
   <path id="_397182608" class="fil4" d="M33.3126 43.2454c0.3878,0.0641 1.8211,-0.0706 2.1632,-0.2449l-0.1055 -2.778 -2.0788 0.1301 0.0211 2.8928z"/>
   <path id="_397182776" class="fil5" d="M31.8658 34.9334c-0.7822,-0.8546 0.4718,-2.0761 1.0077,-2.7477 0.5609,0.0047 0.856,0.6987 1.095,1.1549l0.0359 1.6013c-0.7082,0.0747 -0.6528,-0.4635 -1.0674,-0.4579 -0.3897,0.0052 -0.3501,0.5593 -1.0712,0.4494zm-3.0449 -7.8808c0.252,0.3458 0.9132,0.1635 1.6582,1.0936 0.4752,0.5932 0.7584,1.1845 0.7114,1.9813 -0.198,3.357 -5.2151,3.6703 -5.7136,0.2902 -0.1087,-0.7371 0.0808,-1.527 0.5271,-2.1013 0.7832,-1.0076 1.3396,-0.8575 1.4776,-1.1645 -1.8918,0.2458 -2.9374,0.3423 -4.8296,0.8027 -0.3376,2.9001 0.9064,5.0051 2.9203,6.7229 1.9736,1.5228 5.0255,2.0139 7.4903,2.0122 2.3976,-0.0016 5.5454,-0.56 7.4449,-2.0567 2.0142,-1.5869 3.0071,-4.024 2.8648,-6.6331l-5.0108 -0.828c0.6037,0.3619 1.1009,0.5892 1.5294,1.188 0.4364,0.6101 0.6442,1.3557 0.5022,2.1174 -0.6037,3.239 -5.5278,3.0777 -5.7173,-0.3518 -0.1339,-2.4229 2.2023,-2.8863 2.3324,-3.0632l-8.1873 -0.0097z"/>
   <path id="_397182392" class="fil5" d="M14.8071 42.1269c-0.4419,0.3531 -0.7455,0.4471 -1.0423,1.0126 -0.6971,1.328 0.2104,2.757 0.7719,2.9489l1.8013 0.2165c-0.0593,0.6093 -0.54,1.4555 0.3873,2.5327 1.08,1.2547 3.5785,0.8291 4.0197,-0.9717 0.269,-1.0979 -0.1611,-1.6659 -0.5959,-2.4903 0.1208,-0.1995 5.3592,-5.4327 5.6085,-5.5652 0.1646,-0.426 0.657,-2.7274 0.6701,-3.1814 -0.0583,-0.0519 -1.3184,-0.7949 -1.4876,-0.8834 -0.2654,0.0858 -0.6915,0.6002 -0.927,0.8301 -0.2925,0.2855 -0.583,0.5886 -0.8665,0.8841 -0.7094,0.7394 -4.988,4.998 -5.2097,5.0974 -1.9779,-0.8816 -1.3846,-0.7787 -3.1298,-0.4303z"/>
   <path id="_397182560" class="fil5" d="M41.8705 19.1835c0.9137,0.9754 1.2453,1.5845 1.9403,2.7393 0.1962,-0.1487 2.7421,-2.7914 3.2299,-3.2588l1.1615 -1.0403 0.1738 0.2226c0.2271,0.0592 0.5459,0.3483 0.9984,0.4649 2.6273,0.6774 4.0011,-2.1457 2.5806,-3.6407 -0.748,-0.7872 -1.2185,-0.6383 -2.1893,-0.6209 0.1414,-1.1044 0.4039,-1.6837 -0.3531,-2.4641 -1.4166,-1.4603 -3.6751,-0.5668 -4.0395,0.9117 -0.3742,1.5184 0.4862,1.9792 0.5339,2.4959 -0.4807,0.4849 -3.9861,3.8911 -4.0365,4.1904z"/>
   <path id="_397182464" class="fil5" d="M13.6764 15.4235c-0.4686,1.3664 0.5545,3.0631 2.3856,3.0187 0.8846,-0.0215 1.2746,-0.3007 1.9374,-0.7892l1.5042 1.5653c0.3726,0.1404 2.3808,2.5558 2.8064,2.7157 0.344,-0.6834 1.2056,-2.2754 1.7731,-2.6738 -0.001,-0.3471 -1.7349,-1.8963 -1.992,-2.1653 -0.3035,-0.3174 -1.8404,-1.8839 -1.9761,-2.0956 0.4602,-0.8288 0.9446,-1.4324 0.5706,-2.5592 -0.5801,-1.7477 -2.9039,-2.1235 -4.0733,-0.7652 -0.896,1.0407 -0.3059,1.9 -0.279,2.4137 -1.1061,-0.0385 -2.192,-0.0208 -2.6569,1.3349z"/>
   <path id="_397181960" class="fil5" d="M29.8903 40.1229c-0.3841,-0.093 -2.5629,-0.6816 -2.7337,-0.6599l-0.441 2.0384c0.9382,0.2909 2.0041,1.0858 2.9809,1.267l0.1938 -2.6455z"/>
   <path id="_397182272" class="fil5" d="M30.3706 42.938c0.3802,0.1667 1.756,0.3392 2.1967,0.3188l0.0183 -2.9096 -2.1032 -0.1487 -0.1118 2.7395z"/>
   <path id="_397181672" class="fil5" d="M35.9363 39.4153c0.561,-0.0477 2.2903,-0.4561 2.6997,-0.7275l-0.3821 -1.9337 -2.5282 0.5615 0.2106 2.0997z"/>
   <path id="_397181864" class="fil5" d="M30.166 37.281l-2.499 -0.5208 -0.3945 1.9213c0.4864,0.2621 2.1224,0.6548 2.6835,0.7072l0.21 -2.1077z"/>
   <path id="_397181744" class="fil5" d="M30.5524 39.4379c0.272,0.1471 1.6892,0.2318 2.0367,0.1567l0.015 -2.1187 -1.907 -0.1169 -0.1447 2.0789z"/>
   <path id="_397181840" class="fil5" d="M33.3126 39.6129c0.3744,0.0668 1.7001,-0.0109 2.0081,-0.175l-0.1265 -2.0544 -1.9092 0.0823 0.0276 2.1471z"/>
   <path id="_487011408" class="fil6" d="M31.0103 18.1219l0.2531 -0.0131 -0.0052 0.1837c0.1378,0.1444 0.1165,-0.2969 0.1165,0.2066l-0.7661 0.5061c0.0368,-0.2644 0.0436,-0.8855 0.4017,-0.8833zm-7.1638 4.0245c0.23,-0.8335 1.6422,-2.3724 2.2628,-2.9077 3.3812,-2.9171 7.972,-3.1785 12.0139,-1.267 0.2014,0.0738 0.3618,0.16 0.4735,0.3176 0.2434,0.0513 1.216,0.7865 1.4378,0.9881 0.197,0.179 1.1057,1.1397 1.2223,1.1599 0.1407,0.2285 0.157,0.3557 0.3982,0.4169 -0.7519,-1.086 -2.5185,-2.5748 -3.7751,-3.1771 -1.7682,-0.8475 -3.8079,-1.2382 -5.8187,-1.0709 -2.1574,0.1796 -3.4115,0.7377 -5.1833,1.8308 -1.612,0.9946 -2.2502,2.2572 -3.2366,3.765l0.2052 -0.0556zm6.0248 -4.0131c0.022,-0.3191 0.1238,-0.3813 0.4451,-0.3785 0.0052,0.2986 -0.1537,0.338 -0.4451,0.3785zm-2.8508 1.9176l-0.2078 0.0041 -0.1355 0.3006c0.3982,-0.7638 0.6054,-0.7884 0.3012,-0.9607 -0.1822,0.5308 -1.4242,1.641 -1.3843,2.3671l0.617 -0.1246c0.0107,-0.014 0.7854,-1.5273 0.8094,-1.5865zm3.722 0.6841l-0.5499 0.2523 0.1353 -1.3085 0.3596 0.0283c0.279,0.3288 0.0292,0.6359 0.055,1.0279z"/>
   <path id="_487010424" class="fil6" d="M36.1379 26.0405l0.4778 -0.0157 -1.8981 -0.1173c0.5716,0.0722 1.2571,-0.2739 1.8784,-0.5084l0.0918 -0.2611c1.6088,-0.1045 6.1143,0.3898 7.73,0.7026l6.8334 1.4859c-0.3828,-0.6899 -7.3433,-1.6875 -8.4756,-1.8551 -3.1794,-0.4706 -6.5589,-0.7064 -9.7755,-0.6994 -3.2646,0.0071 -6.4683,0.2448 -9.6993,0.6967l-8.4925 1.9686 6.5704 1.1893 0.0196 -1.4227c2.2051,-0.6604 8.3844,-1.1795 10.7892,-1.2023l3.9504 0.0389zm0 0c0.1467,0.0963 3.8599,0.4001 4.4236,0.4651l4.1493 0.7316 0.0092 1.4145 6.5312 -1.3252 -6.8334 -1.4859c-1.6157,-0.3128 -6.1212,-0.8071 -7.73,-0.7026l-0.0918 0.2611c-0.6213,0.2345 -1.3068,0.5806 -1.8784,0.5084l1.8981 0.1173 -0.4778 0.0157z"/>
   <path id="_487008864" class="fil7" d="M9.5263 29.6671l9.9859 0.0223c-0.1248,-0.2597 -0.2925,-0.1338 -0.8709,-0.2152l-2.7687 -0.4181c-0.5037,-0.0775 -1.1397,-0.3282 -1.683,-0.4427l-1.2427 -0.8639c-0.0835,-0.5759 0.0277,-0.6695 0.4422,-0.9896 0.9269,-0.7157 2.1254,-0.8201 3.1188,-1.1829 0.2436,-0.0889 0.8916,-0.1916 1.1906,-0.2544l3.6898 -0.6821c0.1304,-0.2149 0.2973,-1.0873 0.3951,-1.4189 0.1268,-0.43 0.3255,-0.8714 0.5266,-1.2876 -0.4256,-0.1599 -2.4338,-2.5753 -2.8064,-2.7157l-0.2215 0c-0.0631,-0.1946 -1.0619,-1.1083 -1.2827,-1.3285 -0.2334,0.2472 -0.026,0.1267 -0.3825,0.2754 -0.1977,0.0824 -0.2717,0.1996 -0.4678,0.2775 -0.2527,0.1003 -0.9225,0.2089 -1.2154,0.2041 -0.7299,-0.012 -1.4881,-0.3732 -1.9393,-0.9525 -0.1498,-0.1924 -0.4408,-0.7128 -0.4965,-0.9548 -0.3761,-1.6345 0.8469,-2.7579 1.6194,-2.6933 0.2155,-0.1608 0.1501,-0.0997 0.4443,-0.1418 0.3959,-0.0568 0.0974,-0.0833 0.5571,-0.0145 -0.1036,-0.4926 -0.2611,-0.9657 -0.0722,-1.4692 0.2897,-0.7718 0.8386,-1.4575 1.6741,-1.6345 1.0746,-0.2278 1.7095,-0.0723 2.479,0.6402 0.3589,0.3323 0.4642,0.5902 0.6417,1.0443l-0.4786 2.524c0.1367,0.2435 0.2791,0.2662 0.446,0.5129 0.1537,0.2271 0.2518,0.3094 0.4391,0.4907l1.4129 1.4012c0.6531,0.8094 0.6967,0.7031 1.3952,1.4875 0.4274,-0.0587 0.195,-0.2149 0.5312,-0.2242 0.0365,-0.0134 1.2168,-0.998 1.3831,-1.1298 0.4704,-0.3724 1.1069,-0.6925 1.6456,-0.9765 0.7704,-0.4062 3.282,-1.1809 4.1317,-1.0824 0.0806,-0.0831 0.0585,-0.0598 0.1701,-0.1256 0.0031,-0.0018 0.0707,-0.0276 0.1231,-0.0602 0.0054,-0.7883 0.0844,-8.7604 0.0234,-9.3465l-22.5352 -0.022 -0.0026 23.7473zm5.591 -15.6209l1.216 0.0424c-0.0269,-0.5137 -0.617,-1.373 0.279,-2.4137 1.1694,-1.3583 3.4932,-0.9825 4.0733,0.7652 0.374,1.1268 -0.1104,1.7304 -0.5706,2.5592 0.1357,0.2117 1.6726,1.7782 1.9761,2.0956 0.2571,0.269 1.991,1.8182 1.992,2.1653 0.1886,-0.2542 0.3903,-0.3408 0.504,-0.5974 -0.3362,0.0093 -0.1038,0.1655 -0.5312,0.2242 -0.6985,-0.7844 -0.7421,-0.6781 -1.3952,-1.4875l-1.4129 -1.4012c-0.1873,-0.1813 -0.2854,-0.2636 -0.4391,-0.4907 -0.1669,-0.2467 -0.3093,-0.2694 -0.446,-0.5129l0.4786 -2.524c-0.1775,-0.4541 -0.2828,-0.712 -0.6417,-1.0443 -0.7695,-0.7125 -1.4044,-0.868 -2.479,-0.6402 -0.8355,0.177 -1.3844,0.8627 -1.6741,1.6345 -0.1889,0.5035 -0.0314,0.9766 0.0722,1.4692 -0.4597,-0.0688 -0.1612,-0.0423 -0.5571,0.0145 -0.2942,0.0421 -0.2288,-0.019 -0.4443,0.1418zm4.3863 5.1721l-1.5042 -1.5653c-0.6628,0.4885 -1.0528,0.7677 -1.9374,0.7892 -1.8311,0.0444 -2.8542,-1.6523 -2.3856,-3.0187 0.2953,-0.861 1.313,-1.2422 1.3508,-1.2704 0.0922,-0.0687 0.0305,-0.017 0.0901,-0.1069 -0.7725,-0.0646 -1.9955,1.0588 -1.6194,2.6933 0.0557,0.242 0.3467,0.7624 0.4965,0.9548 0.4512,0.5793 1.2094,0.9405 1.9393,0.9525 0.2929,0.0048 0.9627,-0.1038 1.2154,-0.2041 0.1961,-0.0779 0.2701,-0.1951 0.4678,-0.2775 0.3565,-0.1487 0.1491,-0.0282 0.3825,-0.2754 0.2208,0.2202 1.2196,1.1339 1.2827,1.3285l0.2215 0zm-9.9773 10.4488l0.0026 -23.7473 22.5352 0.022c0.061,0.5861 -0.018,8.5582 -0.0234,9.3465 -0.0524,0.0326 -0.12,0.0584 -0.1231,0.0602 -0.1116,0.0658 -0.0895,0.0425 -0.1701,0.1256l0.3632 -0.0438c0.2296,-0.4636 0.0153,-8.458 -0.0041,-9.6192l-22.6482 0.0221c-0.1655,0.565 -0.0745,10.4939 -0.0627,11.9162l0.0137 11.5649c0.0037,0.342 0.025,0.2654 0.1169,0.3528z"/>
   <path id="_397180928" class="fil7" d="M31.1966 23.8242c0.2342,-0.2228 1.6497,-0.1148 2.0535,-0.1222 0.6876,-0.0125 1.4523,0.046 2.1252,-0.0079 0.1063,-0.2 0.5502,-1.0744 0.6654,-1.2151 0.1578,-0.1926 0.1104,-0.1941 0.2162,-0.3449l-0.1704 -0.2247c-0.2047,-0.1175 -4.3288,-0.0901 -5.0865,-0.0727 -0.7283,0.0167 -4.3207,0.4081 -4.8649,0.5092l-2.87 0.6666 -0.4682 1.5052 4.1549 -0.439c0.777,-0.1207 3.49,-0.3036 4.2448,-0.2545z"/>
   <path id="_397184384" class="fil8" d="M33.3212 44.0229l2.1165 -0.2472 0.5 1.363 0.3228 -1.5589c0.5322,-0.2128 1.0538,-0.3528 1.5823,-0.6155l1.455 -0.6969c0.4894,1.3063 0.3654,1.7053 -0.4387,2.8422 -1.3445,1.9007 -4.5677,2.9402 -5.2334,2.5132 -0.4207,-0.2698 -0.3095,-1.1735 -0.3141,-1.6221 -0.0051,-0.5024 -0.0683,-1.5388 0.0096,-1.9778zm-6.751 -1.7675c0.4221,0.0361 1.0413,0.4454 1.4601,0.6402l1.5659 0.6283 0.2787 1.5982 0.4061 -1.3946 2.2701 0.292c0.0851,1.8696 0.0094,1.953 -0.3669,3.6423 -1.311,0.075 -3.2,-0.7026 -4.1547,-1.5663 -0.5111,-0.4625 -0.9492,-0.9246 -1.3094,-1.5668 -0.5632,-1.0043 -0.4952,-1.1913 -0.1499,-2.2733zm6.7424 0.99l-0.0211 -2.8928 2.0788 -0.1301 0.1055 2.778c-0.3421,0.1743 -1.7754,0.309 -2.1632,0.2449zm-2.942 -0.3074l0.1118 -2.7395 2.1032 0.1487 -0.0183 2.9096c-0.4407,0.0204 -1.8165,-0.1521 -2.1967,-0.3188zm5.5954 -2.8239l2.7799 -0.6771c0.0866,0.5653 0.4012,1.5586 0.3906,2.0635 -0.4176,0.3477 -2.4937,1.3112 -2.993,1.3156l-0.1775 -2.702zm-6.2695 2.6543c-0.9768,-0.1812 -2.0427,-0.9761 -2.9809,-1.267l0.441 -2.0384c0.1708,-0.0217 2.3496,0.5669 2.7337,0.6599l-0.1938 2.6455zm3.6161 -3.1555l-0.0276 -2.1471 1.9092 -0.0823 0.1265 2.0544c-0.308,0.1641 -1.6337,0.2418 -2.0081,0.175zm-2.7602 -0.175l0.1447 -2.0789 1.907 0.1169 -0.015 2.1187c-0.3475,0.0751 -1.7647,-0.0096 -2.0367,-0.1567zm5.1733 -2.1223l2.5282 -0.5615 0.3821 1.9337c-0.4094,0.2714 -2.1387,0.6798 -2.6997,0.7275l-0.2106 -2.0997zm-5.7697 2.0731c-0.5611,-0.0524 -2.1971,-0.4451 -2.6835,-0.7072l0.3945 -1.9213 2.499 0.5208 -0.21 2.1077zm11.0991 -3.6221c0.0605,-0.0979 0.8414,-0.7229 1.0143,-0.8853 1.3411,-1.2601 1.556,-1.9238 2.2493,-3.5783l12.3465 -0.0606 -0.0707 24.6021 -22.7333 -0.016c-0.0832,-0.7612 0.0053,-5.6819 0.0139,-6.8798 1.4645,-0.3591 2.3418,-0.1095 4.2836,-1.4799 0.9712,-0.6854 2.2462,-2.0403 2.5871,-3.2649 0.2975,-0.677 -0.0144,-1.5244 -0.1641,-2.2237 -0.1615,-0.7546 -0.3529,-1.5121 -0.4858,-2.2733l-0.6274 -3.111c0.5258,-0.1845 1.2075,-0.7043 1.5866,-0.8293zm-15.2975 4.0438l-0.6293 3.0615c-0.293,1.4573 0.4273,1.8958 0.8128,2.779 0.5438,0.4071 1.8402,2.6234 5.1822,3.1422l1.0303 0.1804c0.0804,1.0339 0.0103,2.3381 0.011,3.4024 0.0009,1.2221 0.0256,2.2081 -0.065,3.4163 -0.2672,0.1995 -10.0113,0.0811 -11.2251,0.078l-11.3127 -0.0637c-0.1123,-0.217 -0.0514,-19.2766 -0.0545,-22.9939 -0.0002,-0.27 -0.073,-1.2793 0.062,-1.5118 0.381,-0.1066 11.4713,-0.0284 12.1659,-0.0275 0.1652,0.3018 0.2928,0.841 0.4638,1.2149 0.1021,0.2232 0.541,0.9627 0.5673,1.0757 0.2383,0.1884 0.7058,0.8822 0.9949,1.1744 0.374,0.3781 0.8315,0.6605 1.1789,1.0073 0.1692,0.0885 1.4293,0.8315 1.4876,0.8834 -0.0131,0.454 -0.5055,2.7554 -0.6701,3.1814zm3.0633 -12.7578l8.1873 0.0097c-0.1301,0.1769 -2.4663,0.6403 -2.3324,3.0632 0.1895,3.4295 5.1136,3.5908 5.7173,0.3518 0.142,-0.7617 -0.0658,-1.5073 -0.5022,-2.1174 -0.4285,-0.5988 -0.9257,-0.8261 -1.5294,-1.188l5.0108 0.828c0.1423,2.6091 -0.8506,5.0462 -2.8648,6.6331 -1.8995,1.4967 -5.0473,2.0551 -7.4449,2.0567 -2.4648,0.0017 -5.5167,-0.4894 -7.4903,-2.0122 -2.0982,-1.791 -3.2637,-3.9552 -2.9203,-6.7229 1.8922,-0.4604 2.9378,-0.5569 4.8296,-0.8027 -0.138,0.307 -0.6944,0.1569 -1.4776,1.1645 -0.4463,0.5743 -0.6358,1.3642 -0.5271,2.1013 0.4985,3.3801 5.5156,3.0668 5.7136,-0.2902 0.047,-0.7968 -0.2362,-1.3881 -0.7114,-1.9813 -0.745,-0.9301 -1.4062,-0.7478 -1.6582,-1.0936zm22.4303 0.2739l-6.5312 1.3252 -0.0092 -1.4145 -4.1493 -0.7316c-0.5637,-0.065 -4.2769,-0.3688 -4.4236,-0.4651l-3.9504 -0.0389c-2.4048,0.0228 -8.5841,0.5419 -10.7892,1.2023l-0.0196 1.4227 -6.5704 -1.1893 8.4925 -1.9686c3.231,-0.4519 6.4347,-0.6896 9.6993,-0.6967 3.2166,-0.007 6.5961,0.2288 9.7755,0.6994 1.1323,0.1676 8.0928,1.1652 8.4756,1.8551zm-15.1647 -5.4171c0.7944,0.0594 1.5034,0.1408 2.2854,0.2291 1.0789,0.1219 3.1353,0.4918 4.1144,0.7383 0.4575,0.1151 0.4334,0.2978 0.5725,0.6998 0.1127,0.3257 0.2436,0.5358 0.2326,0.9015 -1.2937,-0.1306 -4.6911,-0.5071 -5.7928,-0.5481 -1.0267,-0.0383 -2.0128,-0.1066 -3.0609,-0.1168 -1.0748,-0.0104 -2.1754,0.0376 -3.2411,0.011 -0.7548,-0.0491 -3.4678,0.1338 -4.2448,0.2545l-4.1549 0.439 0.4682 -1.5052 2.87 -0.6666c0.5442,-0.1011 4.1366,-0.4925 4.8649,-0.5092 0.7577,-0.0174 4.8818,-0.0448 5.0865,0.0727zm-9.066 -1.8585c-0.024,0.0592 -0.7987,1.5725 -0.8094,1.5865l-0.617 0.1246c-0.0399,-0.7261 1.2021,-1.8363 1.3843,-2.3671l-0.0989 -0.0809c-1.2767,1.3948 -0.9413,0.88 -1.7558,2.4941l-1.2772 0.3383 -0.2052 0.0556c0.9864,-1.5078 1.6246,-2.7704 3.2366,-3.765 1.7718,-1.0931 3.0259,-1.6512 5.1833,-1.8308 2.0108,-0.1673 4.0505,0.2234 5.8187,1.0709 1.2566,0.6023 3.0232,2.0911 3.7751,3.1771 0.1985,0.0961 0.3322,0.4229 0.4803,0.6416 0.1463,0.2161 0.3139,0.4502 0.3716,0.7009 -0.7477,-0.1696 -1.042,-0.05 -1.2617,-0.8218 -0.1809,-0.1376 -0.3859,-0.7505 -0.7225,-0.9128l-0.1906 -0.0088 0.0102 0.1139 0.0652 0.2452c0.2458,0.1696 0.4585,0.6988 0.5262,0.9943l-0.4859 -0.0613 -0.4338 -0.9498 -0.1706 -0.2165c-0.0711,0.0343 0.0738,0.1458 -0.2709,-0.0218l0.0253 0.173 0.3549 0.8689 -0.56 -0.0454 -0.3788 -0.9177c-0.168,-0.3409 -0.5512,-0.9786 -0.9463,-1.0022l0.0139 0.1159c0.2008,0.5847 0.6403,1.0862 0.7003,1.7149l-2.3515 -0.2956c-0.3713,0.0897 -3.3478,-0.0799 -4.0552,-0.0686 -1.2841,0.0205 -2.6287,0.1072 -3.904,0.2468l0.43 -1.197c0.257,-0.6019 0.5882,-0.6394 0.3874,-0.9331l-1.291 2.1546 -1.2026 0.196 0.8313 -1.7531c0.2314,-0.3333 1.0122,-1.1714 1.0896,-1.3633l-1.6953 1.5995zm29.6336 9.4741l-0.0874 0.1505 -10.8574 0.0389c0.1371,-0.1195 -0.2039,-0.0885 0.5385,-0.1558 0.2081,-0.0189 0.4192,-0.0388 0.6299,-0.0585 0.9995,-0.0933 2.5209,-0.285 3.4609,-0.4777 0.7546,-0.1546 3.8895,-0.8232 2.7355,-2.0952l-8.3612 -2.2065c-0.146,-0.364 -0.246,-1.0052 -0.3813,-1.4378 -0.1492,-0.4773 -0.335,-0.9041 -0.5208,-1.3601 -0.695,-1.1548 -1.0266,-1.7639 -1.9403,-2.7393 -0.6789,-0.8638 -2.3396,-2.001 -3.3787,-2.5512 -0.6545,-0.3465 -1.4586,-0.6394 -2.1638,-0.8305 -0.7578,-0.2054 -2.4346,-0.3419 -2.4913,-0.4717l-0.0232 -9.4497 22.8297 -0.024 0.0109 23.6686zm-24.9066 -14.0509c-0.8497,-0.0985 -3.3613,0.6762 -4.1317,1.0824 -0.5387,0.284 -1.1752,0.6041 -1.6456,0.9765 -0.1663,0.1318 -1.3466,1.1164 -1.3831,1.1298 -0.1137,0.2566 -0.3154,0.3432 -0.504,0.5974 -0.5675,0.3984 -1.4291,1.9904 -1.7731,2.6738 -0.2011,0.4162 -0.3998,0.8576 -0.5266,1.2876 -0.0978,0.3316 -0.2647,1.204 -0.3951,1.4189l-3.6898 0.6821c-0.299,0.0628 -0.947,0.1655 -1.1906,0.2544 -0.9934,0.3628 -2.1919,0.4672 -3.1188,1.1829 -0.4145,0.3201 -0.5257,0.4137 -0.4422,0.9896l1.2427 0.8639c0.5433,0.1145 1.1793,0.3652 1.683,0.4427l2.7687 0.4181c0.5784,0.0814 0.7461,-0.0445 0.8709,0.2152l-9.9859 -0.0223c-0.0919,-0.0874 -0.1132,-0.0108 -0.1169,-0.3528l-0.0137 -11.5649c-0.0118,-1.4223 -0.1028,-11.3512 0.0627,-11.9162l22.6482 -0.0221c0.0194,1.1612 0.2337,9.1556 0.0041,9.6192l-0.3632 0.0438zm-31.7489 47.0273l62.5028 0 0 -62.5028 -62.5028 0 0 62.5028zm40.3437 -41.9342l-0.0102 -0.1139 0.1906 0.0088c-0.1138,-0.2561 -0.2604,-0.3641 -0.5478,-0.4229 0.0668,0.2408 0.1616,0.4001 0.3674,0.528zm-0.7445 0.1631l-0.0253 -0.173c0.3447,0.1676 0.1998,0.0561 0.2709,0.0218 -0.1741,-0.2582 -0.3022,-0.4464 -0.5892,-0.5168 -0.0358,0.2647 0.1405,0.5384 0.3436,0.668z"/>
   <path id="_397180472" class="fil8" d="M31.8658 34.9334c0.7211,0.1099 0.6815,-0.4442 1.0712,-0.4494 0.4146,-0.0056 0.3592,0.5326 1.0674,0.4579 0.1267,-0.4922 0.4798,-0.9164 -0.0359,-1.6013 -0.239,-0.4562 -0.5341,-1.1502 -1.095,-1.1549 -0.5359,0.6716 -1.7899,1.8931 -1.0077,2.7477z"/>
   <path id="_397188680" class="fil9" d="M41.3564 35.9815c0.0932,0.2046 4.2128,4.2378 4.9523,4.9604 0.5299,0.5178 1.0926,1.141 1.6296,1.622 0.9636,-0.4913 1.337,-0.8039 2.4996,-0.6896 1.9027,0.1869 2.8119,2.435 1.6229,3.7492 -0.959,1.06 -1.7086,0.5975 -2.3392,0.6599 0.2878,0.7111 0.2076,1.5382 -0.2505,2.4998 -0.551,0.6772 -1.5468,0.9122 -2.3951,0.7078 -0.7845,-0.1891 -1.4604,-0.8152 -1.6864,-1.5734 -0.3228,-1.083 -0.0263,-1.598 0.4861,-2.4795l-5.7798 -5.7312c0.1329,0.7612 0.3243,1.5187 0.4858,2.2733 0.1497,0.6993 0.4616,1.5467 0.1641,2.2237l0.1677 -0.1237c-0.0746,0.8361 -1.0694,2.1295 -1.7072,2.7471 -0.7027,0.6804 -1.7929,1.4355 -2.7207,1.7269l-2.4948 0.5319 0.0211 6.6112c0.3734,0.0473 0.9111,0.0453 1.2987,0.0663 0.8216,0.0445 3.3133,-0.0019 4.2523,-0.0019 1.8749,0 3.7504,0.0115 5.6252,0.0006l10.563 0.0184c0.1224,0.0009 0.2559,0.0012 0.3779,-0.0032 0.0817,-0.003 0.2752,-0.0149 0.3323,-0.067 0.1,-0.091 0.0272,-5.453 0.0295,-6.0222l-0.0519 -18.2511 -12.0246 0.0345c-0.1644,0.2923 -0.3272,0.9496 -0.504,1.3057 -0.6679,1.3452 -1.41,1.8444 -2.5808,2.9728 0.039,0.1931 0.1163,0.1469 0.0269,0.2313zm-0.3013 -0.2149c0.1053,0.0959 0.1485,0.1617 0.3013,0.2149 0.0894,-0.0844 0.0121,-0.0382 -0.0269,-0.2313 1.1708,-1.1284 1.9129,-1.6276 2.5808,-2.9728 0.1768,-0.3561 0.3396,-1.0134 0.504,-1.3057l12.0246 -0.0345 0.0519 18.2511c-0.0023,0.5692 0.0705,5.9312 -0.0295,6.0222 -0.0571,0.0521 -0.2506,0.064 -0.3323,0.067 -0.122,0.0044 -0.2555,0.0041 -0.3779,0.0032l-10.563 -0.0184c-1.8748,0.0109 -3.7503,-0.0006 -5.6252,-0.0006 -0.939,0 -3.4307,0.0464 -4.2523,0.0019 -0.3876,-0.021 -0.9253,-0.019 -1.2987,-0.0663l-0.0211 -6.6112 2.4948 -0.5319c0.9278,-0.2914 2.018,-1.0465 2.7207,-1.7269 0.6378,-0.6176 1.6326,-1.911 1.7072,-2.7471l-0.1677 0.1237c-0.3409,1.2246 -1.6159,2.5795 -2.5871,3.2649 -1.9418,1.3704 -2.8191,1.1208 -4.2836,1.4799 -0.0086,1.1979 -0.0971,6.1186 -0.0139,6.8798l22.7333 0.016 0.0707 -24.6021 -12.3465 0.0606c-0.6933,1.6545 -0.9082,2.3182 -2.2493,3.5783 -0.1729,0.1624 -0.9538,0.7874 -1.0143,0.8853z"/>
   <path id="_397180976" class="fil10" d="M9.6423 46.8865l0.6065 -0.0401 0.0179 -0.9498 0.5011 -0.0031 0.0012 -0.4363 0.4992 0 0 -1.4969c0.3154,0 0.5351,-0.0523 0.8429,-0.1492 0.2554,-0.0804 -0.0212,-0.0552 0.5349,-0.1023l0.1357 -0.7378c0.0041,1.0183 -0.119,0.5675 0.2734,1.4952 0.0005,-0.0004 0.2181,-0.048 0.1554,-0.4013 -0.0707,-0.3989 -0.3211,0.2173 0.0875,-1.0987l-0.0573 0.3578 0.1963 0.2394 0.3317 -0.889 0.1751 0.0253 0.6086 -0.6379 0.2547 0.0651c1.7452,-0.3484 1.1519,-0.4513 3.1298,0.4303 0.2217,-0.0994 4.5003,-4.358 5.2097,-5.0974 0.2835,-0.2955 0.574,-0.5986 0.8665,-0.8841 0.2355,-0.2299 0.6616,-0.7443 0.927,-0.8301 -0.3474,-0.3468 -0.8049,-0.6292 -1.1789,-1.0073 -0.2891,-0.2922 -0.7566,-0.986 -0.9949,-1.1744 0.0162,0.1418 0.0384,0.059 -0.0145,0.1339 -0.4068,-0.7154 -0.8399,-1.3757 -1.0193,-2.1878 -1.2967,-0.0176 -11.6245,-0.2084 -12.0025,-0.0334l-0.0703 4.0236c-0.0009,1.3075 0.0645,2.7905 -0.0129,4.0766 -0.1267,-0.4848 -0.0303,-3.3959 -0.0326,-4.1391 -0.0026,-0.861 0.0966,-3.499 -0.0449,-4.1369 -0.135,0.2325 -0.0622,1.2418 -0.062,1.5118 0.0031,3.7173 -0.0578,22.7769 0.0545,22.9939l11.3127 0.0637c1.2138,0.0031 10.9579,0.1215 11.2251,-0.078 0.0906,-1.2082 0.0659,-2.1942 0.065,-3.4163 -0.0007,-1.0643 0.0694,-2.3685 -0.011,-3.4024l-1.0303 -0.1804c-3.342,-0.5188 -4.6384,-2.7351 -5.1822,-3.1422 0.1951,0.5902 0.9282,1.2555 1.4472,1.5817l0.6296 0.4982c0.4514,0.4082 2.0825,1.0317 2.9448,1.1649 0.1761,0.0272 0.3193,0.0659 0.4761,0.0779 0.1956,0.0148 0.3526,0.0068 0.5329,0.0515 0.0114,0.8287 0.1947,6.32 -0.0268,6.6635 -7.2632,0.0435 -15.0713,0.1766 -22.2786,0.0748l-0.024 -8.8769zm5.1648 -4.7596l-0.2547 -0.0651 -0.6086 0.6379 -0.1751 -0.0253 -0.3317 0.889 -0.1963 -0.2394 0.0573 -0.3578c-0.4086,1.316 -0.1582,0.6998 -0.0875,1.0987 0.0627,0.3533 -0.1549,0.4009 -0.1554,0.4013 -0.3924,-0.9277 -0.2693,-0.4769 -0.2734,-1.4952l-0.1357 0.7378c-0.5561,0.0471 -0.2795,0.0219 -0.5349,0.1023 -0.3078,0.0969 -0.5275,0.1492 -0.8429,0.1492l0 1.4969 -0.4992 0 -0.0012 0.4363 -0.5011 0.0031 -0.0179 0.9498 -0.6065 0.0401 0.024 8.8769c7.2073,0.1018 15.0154,-0.0313 22.2786,-0.0748 0.2215,-0.3435 0.0382,-5.8348 0.0268,-6.6635 -0.1803,-0.0447 -0.3373,-0.0367 -0.5329,-0.0515 -0.1568,-0.012 -0.3,-0.0507 -0.4761,-0.0779 -0.8623,-0.1332 -2.4934,-0.7567 -2.9448,-1.1649l-0.6296 -0.4982c-0.519,-0.3262 -1.2521,-0.9915 -1.4472,-1.5817 -0.3855,-0.8832 -1.1058,-1.3217 -0.8128,-2.779l0.6293 -3.0615c-0.2493,0.1325 -5.4877,5.3657 -5.6085,5.5652 0.4348,0.8244 0.8649,1.3924 0.5959,2.4903 -0.4412,1.8008 -2.9397,2.2264 -4.0197,0.9717 -0.9273,-1.0772 -0.4466,-1.9234 -0.3873,-2.5327l-1.8013 -0.2165c-0.5615,-0.1919 -1.469,-1.6209 -0.7719,-2.9489 0.2968,-0.5655 0.6004,-0.6595 1.0423,-1.0126zm-5.1603 -2.5501c0.0774,-1.2861 0.012,-2.7691 0.0129,-4.0766l0.0703 -4.0236c0.378,-0.175 10.7058,0.0158 12.0025,0.0334 0.1794,0.8121 0.6125,1.4724 1.0193,2.1878 0.0529,-0.0749 0.0307,0.0079 0.0145,-0.1339 -0.0263,-0.113 -0.4652,-0.8525 -0.5673,-1.0757 -0.171,-0.3739 -0.2986,-0.9131 -0.4638,-1.2149 -0.6946,-0.0009 -11.7849,-0.0791 -12.1659,0.0275 0.1415,0.6379 0.0423,3.2759 0.0449,4.1369 0.0023,0.7432 -0.0941,3.6543 0.0326,4.1391z"/>
   <path id="_397180352" class="fil11" d="M31.1966 23.8242c1.0657,0.0266 2.1663,-0.0214 3.2411,-0.011 1.0481,0.0102 2.0342,0.0785 3.0609,0.1168 1.1017,0.041 4.4991,0.4175 5.7928,0.5481 0.011,-0.3657 -0.1199,-0.5758 -0.2326,-0.9015 -0.1391,-0.402 -0.115,-0.5847 -0.5725,-0.6998 -0.9791,-0.2465 -3.0355,-0.6164 -4.1144,-0.7383 -0.782,-0.0883 -1.491,-0.1697 -2.2854,-0.2291l0.1704 0.2247c-0.1058,0.1508 -0.0584,0.1523 -0.2162,0.3449 -0.1152,0.1407 -0.5591,1.0151 -0.6654,1.2151 -0.6729,0.0539 -1.4376,-0.0046 -2.1252,0.0079 -0.4038,0.0074 -1.8193,-0.1006 -2.0535,0.1222z"/>
   <path id="_397179080" class="fil12" d="M38.0805 18.7709c0.3002,0.2471 0.1578,0.3486 0.5186,0.4532 -0.0576,-0.264 0.016,-0.185 -0.2269,-0.3346l-0.2783 -0.2083 -0.0134 0.0897z"/>
  </g>
 </g>
</svg>
