<?xml version="1.0" encoding="UTF-8"?>
<!DOCTYPE svg PUBLIC "-//W3C//DTD SVG 1.1//EN" "http://www.w3.org/Graphics/SVG/1.1/DTD/svg11.dtd">
<!-- Creator: CorelDRAW -->
<svg xmlns="http://www.w3.org/2000/svg" xml:space="preserve" width="32.512mm" height="26.8392mm" style="shape-rendering:geometricPrecision; text-rendering:geometricPrecision; image-rendering:optimizeQuality; fill-rule:evenodd; clip-rule:evenodd"
viewBox="0 0 32.512 26.8392"
 xmlns:xlink="http://www.w3.org/1999/xlink">
 <defs>
  <style type="text/css">
   <![CDATA[
    .fil15 {fill:#080808}
    .fil22 {fill:#616161}
    .fil19 {fill:#646565}
    .fil32 {fill:dimgray}
    .fil1 {fill:#6C6C6C}
    .fil20 {fill:#707070}
    .fil30 {fill:#747474}
    .fil25 {fill:#7E7E7E}
    .fil5 {fill:#878787}
    .fil18 {fill:#8F8F90}
    .fil23 {fill:#929292}
    .fil31 {fill:#999999}
    .fil28 {fill:#A3A3A3}
    .fil6 {fill:#A5A5A6}
    .fil14 {fill:#A8A8A8}
    .fil9 {fill:darkgray}
    .fil4 {fill:#AAAAAA}
    .fil27 {fill:#ABABAB}
    .fil10 {fill:#ADADAE}
    .fil26 {fill:#B4B4B5}
    .fil0 {fill:#C1C1C2}
    .fil33 {fill:#CBCBCC}
    .fil29 {fill:#CDCDCD}
    .fil21 {fill:gainsboro}
    .fil24 {fill:#E8E9E9}
    .fil17 {fill:#EBEBEB}
    .fil2 {fill:#EDEDEE}
    .fil7 {fill:#EFEFEF}
    .fil3 {fill:#F2F2F2}
    .fil8 {fill:#F6F6F6}
    .fil16 {fill:#F8F8F9}
    .fil11 {fill:#F9F9F9}
    .fil12 {fill:#FAFAFA}
    .fil13 {fill:#FDFDFD}
    .fil34 {fill:#010C0E;fill-rule:nonzero}
   ]]>
  </style>
 </defs>
 <g id="Capa_x0020_1">
  <metadata id="CorelCorpID_0Corel-Layer"/>
  <g id="_631542648">
   <path id="_627500192" class="fil0" d="M23.5265 6.8421l0.1234 -0.0341 0.1727 0.2176c0.8239,-0.843 0.4735,-0.6449 0.4328,-0.7235 -0.0197,0.0396 -0.0078,0.2587 -0.2492,0.2505 -0.0254,-0.0008 -0.293,-0.2406 -0.4797,0.2895z"/>
   <path id="_627499784" class="fil0" d="M23.6355 3.6244c0.0607,-0.1052 0.1041,-0.1102 0,-0.2173 -0.0848,0.1032 -0.3235,0.1251 0,0.2173z"/>
   <path id="_627499736" class="fil1" d="M3.3159 16.6604c0.5929,-0.3513 0.2784,-0.4739 0.7109,-0.8045l-0.2778 -0.2152c-0.1707,0.1333 -0.0172,-0.1296 -0.1816,0.1996 -0.04,0.08 -0.0772,0.238 -0.1035,0.3082 -0.1018,0.2712 -0.0441,0.2207 -0.148,0.5119z"/>
   <path id="_627500168" class="fil1" d="M2.5965 18.1934c0.0135,0.0142 0.0336,0.0359 0.0391,0.0438 0.0049,0.0071 0.0272,0.0338 0.0323,0.0419l0.6301 -0.9264 -0.1126 -0.0974c-0.2218,0.1219 -0.0224,-0.1397 -0.2079,0.1963 -0.0332,0.0603 -0.0571,0.1877 -0.0721,0.2477 -0.0856,0.3428 -0.0424,0.3107 -0.3089,0.4941z"/>
   <path id="_627500480" class="fil2" d="M12.006 15.2927c-0.1583,0.4496 -0.4475,0.6161 -0.646,0.9722 0.4801,-0.2545 1.002,-0.8501 1.1812,-1.5439 -0.0386,-0.2114 0.0482,-0.0628 -0.0845,-0.1843 -0.106,0.3704 -0.2096,0.5539 -0.4507,0.756z"/>
   <path id="_627500264" class="fil2" d="M15.7821 13.0576c0.0717,-0.106 0.1043,-0.0101 0.1328,-0.4777l-0.1328 0.4777z"/>
   <path id="_627500096" class="fil3" d="M2.1423 17.2593c0.0788,0.0479 0.1713,0.0975 0.3251,0.0671 0.1788,-0.0354 0.2039,-0.1331 0.3007,-0.2686 0.3702,-0.5181 0.4305,-0.5476 0.2272,-0.736 -0.249,0.1819 -0.1883,0.309 -0.3842,0.4944 -0.263,0.2489 -0.3283,0.0169 -0.4688,0.4431z"/>
   <path id="_627499088" class="fil3" d="M8.4479 17.0097c-0.0371,0.1618 -0.053,0.0737 -0.043,0.2637 0.0219,0.4126 0.0108,0.141 0.0783,0.2329 0.2301,-0.2134 0.3137,-0.429 0.2982,-0.7953 -0.1664,0.1535 -0.215,0.0965 -0.3335,0.2987z"/>
   <path id="_627499352" class="fil3" d="M27.3043 18.1497l-0.0151 -0.374c-0.0951,-0.048 0.0167,-0.0138 -0.1815,-0.0716 -0.0167,-0.0049 -0.1174,-0.0108 -0.1455,-0.0123l0.1091 0.3922 0.233 0.0657z"/>
   <path id="_627499064" class="fil4" d="M25.2349 6.873c-0.0079,0.2322 0.221,1.0299 0.3331,1.2368l0.2739 -0.662c-0.2079,-0.3481 -0.0655,-0.4341 -0.4091,-0.8242l0.0441 0.5182c-0.0903,-0.1853 -0.1037,-0.1722 -0.242,-0.2688z"/>
   <path id="_627499160" class="fil4" d="M18.5782 12.3379c0.0677,0.3272 0.2161,0.4311 0.4564,0.5915l-0.1771 -1.2222c-0.1259,-0.264 0.0713,-0.0388 -0.1872,-0.3022 -0.1782,0.3324 -0.1599,0.2117 -0.1089,0.5223 0.0356,0.2169 0.0828,0.1586 0.0168,0.4106z"/>
   <path id="_627499544" class="fil4" d="M27.5289 16.3452l0.1719 0.5321c0.3004,-0.0797 0.3865,-0.1527 0.5658,-0.3008l0.0481 -0.2435c-0.5313,-0.1432 0.2702,0.4828 -0.8958,-0.4 0.1401,0.2641 0.2573,0.3947 0.11,0.4122z"/>
   <path id="_627499712" class="fil5" d="M9.0147 10.2653c0.3433,-0.1339 0.1528,-0.0958 0.2275,-0.29 0.1406,-0.0206 0.492,0.0085 0.5303,-0.1144l-1.5185 -0.779c0.2377,0.4786 0.2446,0.4082 0.7693,0.815 -0.0354,0.1989 -0.0709,0.1734 -0.0086,0.3684z"/>
   <path id="_627498656" class="fil5" d="M18.1528 1.1986c-0.2547,0.0127 -0.2647,-0.0421 -0.4082,0.0921l0.0881 0.3774c0.1037,-0.2258 0.2138,-0.2786 0.3201,-0.4695z"/>
   <path id="_627498416" class="fil6" d="M3.0071 16.0874l-0.2166 0.21 0.2048 0.0244c0.2033,0.1884 0.143,0.2179 -0.2272,0.736 -0.0968,0.1355 -0.1219,0.2332 -0.3007,0.2686 -0.1538,0.0304 -0.2463,-0.0192 -0.3251,-0.0671 -0.1512,0.2165 -0.1048,0.2018 -0.0876,0.4321l0.2997 0.1363 -0.1265 0.3822 0.3686 -0.0165c0.2665,-0.1834 0.2233,-0.1513 0.3089,-0.4941 0.015,-0.06 0.0389,-0.1874 0.0721,-0.2477 0.1855,-0.336 -0.0139,-0.0744 0.2079,-0.1963l0.1792 -0.3344 -0.0752 -0.1377c-0.0028,-0.0132 0.0192,-0.0944 0.0265,-0.1228 0.1039,-0.2912 0.0462,-0.2407 0.148,-0.5119 0.0263,-0.0702 0.0635,-0.2282 0.1035,-0.3082 0.1644,-0.3292 0.0109,-0.0663 0.1816,-0.1996 0.1257,-0.068 0.2775,-0.138 0.4705,-0.1939 -0.0823,-0.0309 -0.2027,-0.0654 -0.2544,-0.0893 -0.177,-0.0819 -0.1232,-0.0632 -0.2063,-0.1535l-0.218 0.268c-0.2652,0.4419 -0.1876,0.6957 -0.5337,0.6154z"/>
   <path id="_627498392" class="fil6" d="M9.2173 14.9288c0.1283,-0.1003 0.2128,-0.1268 0.3333,-0.3174 0.1774,-0.2807 0.0952,-0.4268 0.965,-0.8181 0.987,-0.444 1.2738,-0.1245 2.1234,0.0461 -0.4809,-0.566 -1.771,-0.6664 -2.4952,-0.2409 -0.305,0.1793 -0.5036,0.4937 -0.7679,0.753 -0.2925,0.287 -0.4017,0.4517 -0.8077,0.692l0.6491 -0.1147z"/>
   <path id="_627498248" class="fil6" d="M7.5568 17.4624l-0.0836 0.576 0.2792 -0.0102 0.3168 -0.5481 0.1424 0.2569c0.0065,-0.0134 0.028,0.0404 0.0417,0.0608l0.2299 -0.2915c-0.0675,-0.0919 -0.0564,0.1797 -0.0783,-0.2329 -0.01,-0.19 0.0059,-0.1019 0.043,-0.2637 -0.2882,0.1221 -0.6006,0.3109 -0.8911,0.4527z"/>
   <path id="_627498872" class="fil7" d="M23.3565 1.8168c-0.426,0.2091 -0.3346,0.4065 -0.3512,1.2251l0.1047 -0.2953 0.1338 0.2443 1.3431 0.1326 -0.0941 -0.4645 0.2916 0.2867c-0.063,-0.7648 -0.6385,-0.6971 -1.2346,-0.7797l0.361 -0.3059c-0.4213,0.0422 -0.2716,0.0877 -0.4856,-0.0094l-0.0687 -0.0339z"/>
   <path id="_627498272" class="fil7" d="M3.0071 16.0874c0.3461,0.0803 0.2685,-0.1735 0.5337,-0.6154l0.218 -0.268c0.8334,-0.6535 1.4027,0.0307 2.2387,-0.6136l-1.8458 0.0304c-0.2262,0.0373 -1.1358,0.9162 -0.9241,1.209l-0.2205 0.2576z"/>
   <path id="_627498176" class="fil8" d="M17.7446 1.2907c0.1435,-0.1342 0.1535,-0.0794 0.4082,-0.0921 0.1163,-0.0892 0.0754,-0.0613 0.3105,-0.0991 0.1304,-0.021 0.2011,-0.0214 0.3462,-0.0464 0.1269,0.2567 0.088,0.2309 0.2276,0.3653l0.0828 -0.2413c0.0283,0.2159 0.5635,1.6187 -0.0604,2.1992 -0.3714,0.3456 0.3712,-0.2776 -0.1475,0.0974l-0.0955 0.0749c0.9305,0.3202 0.75,-2.5569 0.755,-3.0281l0.2803 0.4684 -0.108 -0.5581c-0.7606,-0.0708 -0.3786,0.2749 -1.2012,0.3659l-1.3608 0.2888 0.941 1.6958 -0.5833 -1.44 0.2051 -0.0506z"/>
   <path id="_627498008" class="fil8" d="M24.8447 6.4301l0.1819 0.4587 0.1028 -0.2688c0.2327,0.2396 0.0402,0.0162 0.1055,0.253 0.1383,0.0966 0.1517,0.0835 0.242,0.2688l-0.0441 -0.5182c0.3436,0.3901 0.2012,0.4761 0.4091,0.8242l0.1291 -0.1925c0.1905,-0.143 0.1747,0.2066 0.1388,-0.4026 -0.0037,-0.063 -0.0593,-0.2544 -0.0629,-0.3798l0.4276 0.8001 -0.3485 -1.3919 -0.2285 -0.4894c-0.016,0.015 -0.0402,0.0177 -0.0472,0.046 -0.0347,0.14 -0.2892,0.0922 -0.5079,0.4137 -0.2275,0.3344 -0.3001,0.2983 -0.4977,0.5787z"/>
   <path id="_627497960" class="fil8" d="M23.3443 9.3197c0.0905,-0.1546 0.1953,-0.2363 0.2627,-0.3949l-0.3116 0.9571c0.1097,0.1413 -0.0599,0.2598 0.2402,0.022 0.1382,-0.1094 0.4457,-0.689 0.5429,-0.859l0.2575 0.2213 -0.3449 -1.4031c-0.5307,1.0031 -0.0523,-0.3083 -0.8337,1.1922l0.1516 0.0003 0.0353 0.2641z"/>
   <path id="_627497816" class="fil8" d="M27.49 17.8612l0.2405 0.1909 0.1025 -0.1667 0.321 0.2858 -0.098 -0.6917c0.1584,0.0569 0.1686,0.0687 0.2652,0.2088l0.0353 0.0721 0.0516 -0.2251c0.0882,0.0189 0.1659,0.0241 0.2449,0.0608 0.1789,0.0832 0.1633,0.1154 0.1965,0.1446l0.1291 -0.2021c-0.0438,-0.3116 -0.0116,-0.3738 -0.1965,-0.5756 -0.756,0.6262 -0.4241,0.4282 -1.3243,0.6772l0.0322 0.221z"/>
   <path id="_627497504" class="fil8" d="M20.3423 1.1783c0.016,0.0129 0.0378,0.0154 0.0473,0.0395l0.3673 0.2512c0.3301,-0.0064 0.6929,0.0302 1.0076,-0.0263 0.6706,-0.1205 0.4807,0.1699 0.7419,-0.0122 -0.535,-0.4024 -1.4525,-0.349 -2.1641,-0.2522z"/>
   <path id="_627497624" class="fil9" d="M23.3443 9.3197l-0.0353 -0.2641 -0.1516 -0.0003c0.7814,-1.5005 0.303,-0.1891 0.8337,-1.1922l0.3449 1.4031 -0.2575 -0.2213c-0.0972,0.17 -0.4047,0.7496 -0.5429,0.859 -0.3001,0.2378 -0.1305,0.1193 -0.2402,-0.022l-0.3079 0.6467c0.5424,-0.5577 0.2187,-0.0272 1.1299,-1.1763l-0.139 0.6281c0.4678,-0.463 0.2781,-0.4653 0.6024,-0.9554 -0.0112,0.3797 -0.0817,0.3523 -0.0014,0.6534l-0.3512 -2.4001 -1.6155 2.004 -0.1306 1.1073c0.2934,-0.3019 0.6319,-0.6345 0.8622,-1.0699z"/>
   <path id="_627497648" class="fil9" d="M19.6292 11.5178l0.5136 0.689c0.1103,0.1654 0.1387,0.2435 0.2261,0.3679 0.1305,0.1858 0.1779,0.2155 0.318,0.3074l-0.1403 -0.7421 -0.0332 0.1568c-0.1439,-0.49 -0.4989,-0.857 -0.894,-1.0719l0.0098 0.2929z"/>
   <path id="_627496736" class="fil10" d="M20.0771 9.0308c0.0483,0.1633 0.0076,0.14 0.1277,0.3147l0.2494 0.2324 0.0984 -1.2052 0.6897 1.8515 0.4097 -2.007 0.1743 0.5626c0.2783,-0.6104 0.763,-1.3917 0.8652,-1.756 -0.1457,0.1042 -0.1359,0.0673 -0.2127,0.2363l0.0426 -0.551 -0.7225 1.3478 -0.0744 -0.8594 -0.3279 0.718c-0.1805,0.3818 -0.0364,0.0868 -0.1658,0.2426l0.059 -0.82c-0.3438,1.0565 -0.2549,0.6816 -0.3841,1.8052l-0.0777 -2.0262 -0.2091 0.3896c-0.0322,-0.4779 -0.0461,-0.3264 -0.1065,-0.4262l-0.2838 1.0198c-0.2403,0.8378 0.1131,0.9305 -0.1515,0.9305z"/>
   <path id="_627496856" class="fil10" d="M27.2479 16.3499c-0.1039,0.1713 -0.0644,0.0494 -0.1033,0.287l-0.4633 -0.2879 -0.04 0.0996c-0.0724,0.2485 0.0384,-0.0681 -0.0206,0.1061 -0.4076,-0.3369 -1.0166,-0.9154 -1.3395,-1.1134l0.1419 0.4992c-0.362,-0.3562 -0.3779,-0.5048 -0.4936,-0.642 -0.1787,-0.2118 -0.0163,-0.0609 -0.2058,-0.1338 0.0552,0.2462 0.2271,0.4921 0.3686,0.731 0.2172,0.3668 0.2399,0.5083 0.4906,0.6383l0.0799 -0.5349 1.5883 0.9852 -0.0032 -0.6344z"/>
   <path id="_627496712" class="fil10" d="M22.9074 7.1051c-0.104,0.0847 -0.0625,-0.0675 -0.1115,0.2524 -0.0165,0.1076 -0.0039,0.2322 -0.0033,0.3394 0.2283,-0.1868 0.6652,-0.5421 0.7339,-0.8548l-0.0269 -0.5302c-0.0476,0.1231 -0.172,0.1739 -0.294,0.365l-0.2982 0.4282z"/>
   <path id="_627496976" class="fil10" d="M27.49 17.8612l0.076 0.4854 0.5424 0.0113c0.2445,-0.595 0.0613,-0.4356 0.2128,-0.6696 -0.0966,-0.1401 -0.1068,-0.1519 -0.2652,-0.2088l0.098 0.6917 -0.321 -0.2858 -0.1025 0.1667 -0.2405 -0.1909z"/>
   <path id="_627497120" class="fil11" d="M9.7725 9.8609c-0.0383,0.1229 -0.3897,0.0938 -0.5303,0.1144 -0.0747,0.1942 0.1158,0.1561 -0.2275,0.29 -1.4258,0.3985 -2.2458,3.2392 -2.8625,4.835l0.4443 -0.5636c0.686,-0.9939 1.0147,-3.8094 3.0246,-4.3007 0.0794,-0.0754 -0.1348,-0.1328 0.5182,-0.1403 0.1778,-0.002 0.3326,-0.0177 0.5063,-0.0467 0.361,-0.0602 0.7233,-0.1269 1.0747,-0.2112 0.7339,-0.1759 1.1577,-0.3488 1.775,-0.6784 0.6065,-0.3237 1.0321,-0.5476 1.498,-0.9569 0.2538,-0.223 0.4413,-0.3573 0.6624,-0.6083 0.1061,-0.1205 0.1775,-0.1934 0.2791,-0.3151 0.3924,-0.47 0.0966,-0.3918 0.0839,-0.4052 -0.8112,0.6456 -1.5446,1.4068 -2.6749,1.9661 -0.8396,0.4155 -2.5088,1.0837 -3.5713,1.0209z"/>
   <path id="_627497168" class="fil11" d="M18.5684 5.3406l0.1249 -0.4793 0.2677 0.3889 -0.0259 1.9251 0.434 -0.9038 -0.1375 1.5137 1.0722 -1.984c-0.1984,0.2636 -0.1491,0.1038 -0.5288,0.6942l0.3955 -1.5048 -0.4139 0.3352 0.3341 -0.6557 -0.5636 0.6074 -0.0109 -0.409 -0.1832 -0.5125 -0.6868 -0.2442c-0.1867,0.3418 -0.2519,0.9241 -0.0778,1.2288z"/>
   <path id="_627496256" class="fil12" d="M20.0771 9.0308c0.2646,0 -0.0888,-0.0927 0.1515,-0.9305l0.2838 -1.0198c0.0604,0.0998 0.0743,-0.0517 0.1065,0.4262l0.2091 -0.3896 0.0777 2.0262c0.1292,-1.1236 0.0403,-0.7487 0.3841,-1.8052l-0.059 0.82c0.1294,-0.1558 -0.0147,0.1392 0.1658,-0.2426l0.3279 -0.718 0.0744 0.8594 0.7225 -1.3478 -0.0426 0.551c0.0768,-0.169 0.067,-0.1321 0.2127,-0.2363l0.1626 -0.1776 0.0533 0.2589 0.2982 -0.4282c0.122,-0.1911 0.2464,-0.2419 0.294,-0.365l0.0269 0.5302c0.1867,-0.5301 0.4543,-0.2903 0.4797,-0.2895 0.2414,0.0082 0.2295,-0.2109 0.2492,-0.2505 -0.2269,-0.2703 -0.2604,-0.0857 -0.5261,-0.5372 -0.3025,-0.0609 -0.3513,-0.1381 -0.5703,-0.2094 0.0774,-0.2624 -0.0157,-0.152 0.066,-0.3769l-0.9061 0.6263 0.2199 -0.5492 -0.3448 0.3353 0.4339 -0.6836 -1.0022 1.1946 1.151 -1.7567 -1.0815 0.6293 0.7091 -0.8586c-0.4704,0.2107 -0.731,0.3888 -1.0283,0.733 -0.2895,0.3353 -0.5831,0.6848 -0.8241,1.1233 -0.51,0.9281 -0.9205,1.8383 -0.4748,3.0585z"/>
   <path id="_627496520" class="fil12" d="M16.4388 6.8308l0.0847 0.7022c0.1417,-0.277 0.2839,-0.7823 0.4106,-1.1074l0.3462 -0.8347c0.0144,-0.0291 0.0391,-0.0847 0.058,-0.1136 0.1656,-0.2534 -0.0072,-0.0122 0.1372,-0.1531l0.572 -2.1108c-0.2184,0.1064 -0.2656,0.3581 -0.4435,0.8274 -0.1148,0.3028 -0.257,0.6771 -0.3898,0.9642 -0.2006,0.434 -0.7366,1.3831 -0.7754,1.8258z"/>
   <path id="_627496568" class="fil13" d="M19.4588 13.5088c0.1097,0.3018 0.2018,0.2164 1.0576,0.2313l-0.4449 0.192c0.582,0.0329 0.816,-0.0264 1.1299,0.1802 0.4756,0.3131 0.7879,0.1089 1.1765,0.2555 0.1617,0.0611 0.2388,0.0995 0.411,0.1519l0.0846 -0.1199c0.7535,0.2671 0.8512,0.209 1.2781,0.6573 0.1245,0.1307 0.0519,0.0724 0.1486,0.1899l0.1409 0.1484c0.0086,-0.016 0.0396,0.0301 0.0593,0.0453 -0.0164,-0.636 -0.0208,-0.4142 0.0956,-0.5698l0.1277 0.2938c0.1895,0.0729 0.0271,-0.078 0.2058,0.1338 0.1157,0.1372 0.1316,0.2858 0.4936,0.642l-0.1419 -0.4992c0.3229,0.198 0.9319,0.7765 1.3395,1.1134 0.059,-0.1742 -0.0518,0.1424 0.0206,-0.1061l0.04 -0.0996 0.4633 0.2879c0.0389,-0.2376 -0.0006,-0.1157 0.1033,-0.287l-0.0759 -0.2331c0.1772,0.1464 0.1338,0.1899 0.3569,0.2284 0.1473,-0.0175 0.0301,-0.1481 -0.11,-0.4122 1.166,0.8828 0.3645,0.2568 0.8958,0.4l-0.1806 -0.4784 0.4393 0.287c-0.4529,-1.0412 -0.325,-0.4678 -0.5054,-0.9373l-1.6788 -0.5115 0.8384 -0.1106c-0.5297,-0.2186 -0.6313,-0.2887 -1.2266,-0.3521 -1.1338,-0.1207 0.0133,-0.103 -1.5169,-0.1123l0.804 -0.2902 -0.3753 -0.0271c0.3565,-0.3362 0.208,-0.151 0.2152,-0.2945l-1.3994 -0.0066 0.6635 -0.3467 -1.585 0.1938 0.295 -0.1745 -0.1439 -0.2132 -1.4417 0.4068 -0.0093 -0.0795c0.0048,-0.17 0.047,0.0898 0.0117,-0.0645l-2.0601 0.2872z"/>
   <path id="_627496136" class="fil13" d="M18.5782 12.3379c0.066,-0.252 0.0188,-0.1937 -0.0168,-0.4106 -0.051,-0.3106 -0.0693,-0.1899 0.1089,-0.5223 0.2585,0.2634 0.0613,0.0382 0.1872,0.3022l0.18 0.2981c0.1222,0.0827 0.0948,0.0111 0.246,0.225 0.1155,0.1635 0.0223,0.1066 0.2174,0.2919l-0.0259 -0.7028 -0.1875 -0.607 0.3417 0.3054 -0.0098 -0.2929c0.3951,0.2149 0.7501,0.5819 0.894,1.0719l0.0332 -0.1568c0.0218,-0.6929 -0.6651,-1.3223 -0.9565,-1.6151l0.3899 0.1778c-0.264,-0.3919 -1.0818,-1.1285 -1.7619,-1.2092l-0.279 -0.0551 -0.0427 1.2256c0.2327,0.1383 -0.1324,0.0365 0.0741,0.0135l0.0519 -0.0135c0.0764,0.308 0.1406,0.6007 0.2375,0.8918 0.0954,0.2866 0.2749,0.5135 0.3183,0.7821z"/>
   <path id="_627495920" class="fil14" d="M16.4388 6.8308l-0.1637 0.0903c-0.1221,-0.3035 -0.03,-0.1038 -0.1675,-0.2322l-0.0889 0.185c0.0127,0.0134 0.3085,-0.0648 -0.0839,0.4052 -0.1016,0.1217 -0.173,0.1946 -0.2791,0.3151 -0.2211,0.251 -0.4086,0.3853 -0.6624,0.6083 -0.4659,0.4093 -0.8915,0.6332 -1.498,0.9569 -0.6173,0.3296 -1.0411,0.5025 -1.775,0.6784 -0.3514,0.0843 -0.7137,0.151 -1.0747,0.2112 -0.1737,0.029 -0.3285,0.0447 -0.5063,0.0467 -0.653,0.0075 -0.4388,0.0649 -0.5182,0.1403 0.199,0.0954 0.1723,-0.1011 0.1723,0.0978l-1.9563 3.1016 2.0387 -2.4113 -0.3543 0.983 1.0754 -1.2424 0.0462 0.2853 0.7815 -0.6017 -0.3299 0.9795 0.7722 -0.9434 0.02 0.3348 0.742 -0.6692c0.0597,0.1903 -0.0239,0.1568 0.0643,0.3364l0.7908 -0.9362 -0.3904 1.4999c0.4459,-0.9125 0.4953,-1.2334 1.2235,-1.9138 0.2478,-0.2316 0.0616,-0.0842 0.2742,-0.189l-0.3587 1.3409 0.1485 -0.2492c0.2696,-0.5648 0.4229,-0.9923 1.0381,-1.387l-0.3196 1.8493c0.4851,-0.8957 0.4571,-0.9935 1.1429,-1.6721l-0.1759 1.6223 0.2385 -0.727 0.6727 2.9231 0.2328 -0.8063c0.2174,0.6572 0.3597,1.2839 0.7273,1.8109 0.101,0.1447 0.088,0.1126 0.193,0.2263 0.1311,0.1421 0.0238,0.0063 0.1286,0.1461l-0.5964 -0.0182c0.1592,0.6549 0.2037,1.2716 0.6713,1.5958l0.1967 -1.2886c0.1125,0.5056 0.1484,1.2807 0.6392,1.5614 -0.016,-0.732 -0.1265,-1.0383 0.2459,-1.4203l0.626 1.3466c-0.0207,-0.3024 -0.1097,-0.8974 0.0141,-1.1758 0.1592,-0.358 0.1128,-0.1639 0.2494,-0.2635l1.1082 1.6315 -0.3572 -1.4837 1.3009 1.556 -0.2395 -0.8391c0.4984,0.5841 0.2803,0.2425 0.5373,0.3879 0.1953,0.1998 0.1185,0.1699 0.3738,0.2945l-0.3177 -0.8697 1.4846 1.1106 -0.4985 -0.8453 1.0081 0.8411 0.018 -0.9811 -0.1277 -0.2938c-0.1164,0.1556 -0.112,-0.0662 -0.0956,0.5698 -0.0197,-0.0152 -0.0507,-0.0613 -0.0593,-0.0453l-0.1409 -0.1484c-0.0967,-0.1175 -0.0241,-0.0592 -0.1486,-0.1899 -0.4269,-0.4483 -0.5246,-0.3902 -1.2781,-0.6573l-0.0846 0.1199c-0.1722,-0.0524 -0.2493,-0.0908 -0.411,-0.1519 -0.3886,-0.1466 -0.7009,0.0576 -1.1765,-0.2555 -0.3139,-0.2066 -0.5479,-0.1473 -1.1299,-0.1802l0.4449 -0.192c-0.8558,-0.0149 -0.9479,0.0705 -1.0576,-0.2313l-0.564 -0.1429c-0.195,0.3749 -0.2119,0.5017 -0.4745,0.7174l-0.501 -2.7105 0.2231 0.3045c0.0275,0.0567 0.0574,0.1462 0.0991,0.2327 0.2499,0.5193 0.2494,0.3765 0.3367,0.4279 -0.0434,-0.2686 -0.2229,-0.4955 -0.3183,-0.7821 -0.0969,-0.2911 -0.1611,-0.5838 -0.2375,-0.8918l-0.0519 0.0135c-0.2065,0.023 0.1586,0.1248 -0.0741,-0.0135l0.0427 -1.2256 0.279 0.0551c-0.2928,-0.2419 -0.2698,-0.0247 -0.4922,-0.3704 -0.1297,-0.2015 -0.1217,-0.3041 -0.277,-0.4765l-0.7186 0.8983 0.7452 -4.2207c-0.1444,0.1409 0.0284,-0.1003 -0.1372,0.1531 -0.0189,0.0289 -0.0436,0.0845 -0.058,0.1136l-0.3462 0.8347c-0.1267,0.3251 -0.2689,0.8304 -0.4106,1.1074l-0.0847 -0.7022z"/>
   <path id="_627496064" class="fil14" d="M25.971 7.2553c0.1797,0.448 0.1412,0.6356 0.1413,1.1223 0.2486,-0.3211 0.3219,-0.6154 0.3622,-1.1046l-0.4276 -0.8001c0.0036,0.1254 0.0592,0.3168 0.0629,0.3798 0.0359,0.6092 0.0517,0.2596 -0.1388,0.4026z"/>
   <path id="_627495872" class="fil15" d="M26.9622 17.6918c0.0281,0.0015 0.1288,0.0074 0.1455,0.0123 0.1982,0.0578 0.0864,0.0236 0.1815,0.0716l0.0151 0.374c-0.098,0.076 0.1235,0.0871 -0.1858,0.0423 -0.3326,-0.0482 -0.2195,-0.2808 -0.5041,-0.3796 -0.0753,-0.0262 0.0326,0.1488 -0.2185,-0.2111l0.5663 0.0905zm0.5278 0.1694l-0.0322 -0.221c0.9002,-0.249 0.5683,-0.051 1.3243,-0.6772 0.1849,0.2018 0.1527,0.264 0.1965,0.5756 0.1121,0.3892 -0.0559,0.5222 -0.3477,0.6502 -0.1294,-0.1089 0.0027,0.0972 -0.156,-0.165 -0.1098,-0.1815 -0.0534,-0.1133 -0.1184,-0.2634l-0.0353 -0.0721c-0.1515,0.234 0.0317,0.0746 -0.2128,0.6696l-0.5424 -0.0113 -0.076 -0.4854zm-11.226 -4.1782l0.2993 2.1171c-0.2628,-0.5073 -0.5907,-1.1499 -0.4402,-1.8162 0.0657,-0.291 0.1178,-0.2658 0.1409,-0.3009zm-3.7228 1.038c-0.1792,0.6938 -0.7011,1.2894 -1.1812,1.5439 0.1985,-0.3561 0.4877,-0.5226 0.646,-0.9722l0.1925 -0.8179c0.0335,-0.0178 -0.112,-0.2675 0.4638,0.0901l-0.1211 0.1561zm-8.7824 0.483c0.0831,0.0903 0.0293,0.0716 0.2063,0.1535 0.0517,0.0239 0.1721,0.0584 0.2544,0.0893 -0.193,0.0559 -0.3448,0.1259 -0.4705,0.1939l0.2778 0.2152c-0.4325,0.3306 -0.118,0.4532 -0.7109,0.8045 -0.0073,0.0284 -0.0293,0.1096 -0.0265,0.1228l0.0752 0.1377 -0.1792 0.3344 0.1126 0.0974 -0.6301 0.9264c-0.0051,-0.0081 -0.0274,-0.0348 -0.0323,-0.0419 -0.0055,-0.0079 -0.0256,-0.0296 -0.0391,-0.0438l-0.3686 0.0165 0.1265 -0.3822 -0.2997 -0.1363c-0.0172,-0.2303 -0.0636,-0.2156 0.0876,-0.4321 0.1405,-0.4262 0.2058,-0.1942 0.4688,-0.4431 0.1959,-0.1854 0.1352,-0.3125 0.3842,-0.4944l-0.2048 -0.0244 0.2166 -0.21 0.2205 -0.2576c-0.2117,-0.2928 0.6979,-1.1717 0.9241,-1.209l1.8458 -0.0304c-0.836,0.6443 -1.4053,-0.0399 -2.2387,0.6136zm10.5349 -3.6087l0.3672 -0.0285 0.168 -0.254 0.3685 0c0.034,0.3443 0.112,0.3013 0.0341,0.7149l-0.0341 0.9223c0.0172,0.0192 0.0465,0.0199 0.0533,0.0558 0.0113,0.0591 0.1304,0.088 0.1294,0.2829l-0.0587 0.5236 0.384 0.3231c-0.1011,0.2845 -0.1003,-0.0186 -0.2825,0.3671 -0.2447,-0.0869 0.0296,0.0792 -0.1111,-0.0739l-0.1429 -0.1801 -0.6212 0 0 -0.3671 -0.3948 -0.3949 -0.6212 0 0 -0.3672 0.254 -0.254c-0.4824,-0.3767 -0.1778,0.1609 -0.7335,-0.3948 -0.1904,0.2438 -0.1076,0.252 -0.254,0.762l-0.508 0 -0.1693 -0.254 -1.2139 -0.0846 0.2825 -0.3111c0.2447,0.087 -0.0297,-0.0792 0.1111,0.0739l0.1429 0.1801 0.5642 0 -0.0006 -0.762 0.6218 0 0.1693 0.254c0.3608,-0.1202 0.4502,-0.2005 0.5899,-0.1227 0.1981,0.1104 0.2317,0.1952 0.5697,0.0606l0.5899 -0.3327c-0.0904,-0.2103 -0.0724,-0.1182 -0.1747,-0.2346 -0.008,-0.0092 -0.03,-0.0257 -0.0368,-0.0337 -0.0116,-0.0136 -0.0185,-0.0555 -0.0425,-0.0704zm1.4884 1.4623l0.1328 -0.4777c-0.0285,0.4676 -0.0611,0.3717 -0.1328,0.4777zm6.5264 -2.1699l0.5314 0.7222 0.1053 -0.3584 0.2373 1.0943 -0.5536 -0.6709 0.0183 0.549c-0.0113,-0.2174 -0.3288,-0.5102 -0.4109,-0.9442 -0.004,-0.0215 -0.0206,-0.1912 -0.0185,-0.2049 0.0315,-0.2027 -0.0113,-0.073 0.0907,-0.1871zm1.0358 -1.568c-0.2303,0.4354 -0.5688,0.768 -0.8622,1.0699l0.1306 -1.1073 1.6155 -2.004 0.3512 2.4001c-0.0803,-0.3011 -0.0098,-0.2737 0.0014,-0.6534 -0.3243,0.4901 -0.1346,0.4924 -0.6024,0.9554l0.139 -0.6281c-0.9112,1.1491 -0.5875,0.6186 -1.1299,1.1763l0.3079 -0.6467 0.3116 -0.9571c-0.0674,0.1586 -0.1722,0.2403 -0.2627,0.3949zm1.7579 -3.9466c-0.0059,-0.0328 -0.0183,-0.041 -0.0273,-0.0615l-1.1322 0.0315c0.1391,-0.2103 0.2478,-0.3224 0.7961,-0.2808 0.4551,0.0345 0.4904,0.1466 0.5249,0.5732l-0.1615 -0.2624zm1.3723 1.8999c-0.0403,0.4892 -0.1136,0.7835 -0.3622,1.1046 -0.0001,-0.4867 0.0384,-0.6743 -0.1413,-1.1223l-0.1291 0.1925 -0.2739 0.662c-0.1121,-0.2069 -0.341,-1.0046 -0.3331,-1.2368l-0.1044 0.3722c-0.1778,-0.2099 -0.8558,-0.5882 -0.2858,-0.8151 0.1976,-0.2804 0.2702,-0.2443 0.4977,-0.5787 0.2187,-0.3215 0.4732,-0.2737 0.5079,-0.4137 0.007,-0.0283 0.0312,-0.031 0.0472,-0.046l0.2285 0.4894 0.3485 1.3919zm-3.2495 -2.0944c0.1496,0.0807 0.1235,-0.1173 0.1235,0.0818 0.0504,0.1887 0.2587,0.3791 0.3808,0.5045 0.2657,0.4515 0.2992,0.2669 0.5261,0.5372 0.0407,0.0786 0.3911,-0.1195 -0.4328,0.7235l-0.1727 -0.2176 -0.1234 0.0341c-0.0687,0.3127 -0.5056,0.668 -0.7339,0.8548 -0.0006,-0.1072 -0.0132,-0.2318 0.0033,-0.3394 0.049,-0.3199 0.0075,-0.1677 0.1115,-0.2524l-0.0533 -0.2589 -0.1626 0.1776c-0.1022,0.3643 -0.5869,1.1456 -0.8652,1.756l-0.1743 -0.5626 -0.4097 2.007 -0.6897 -1.8515 -0.0984 1.2052 -0.2494 -0.2324c-0.1201,-0.1747 -0.0794,-0.1514 -0.1277,-0.3147 -0.4457,-1.2202 -0.0352,-2.1304 0.4748,-3.0585 0.241,-0.4385 0.5346,-0.788 0.8241,-1.1233 0.2973,-0.3442 0.5579,-0.5223 1.0283,-0.733l-0.7091 0.8586 1.0815 -0.6293 -1.151 1.7567 1.0022 -1.1946 -0.4339 0.6836 0.3448 -0.3353 -0.2199 0.5492 0.9061 -0.6263zm-3.7088 -0.3101l0.0109 0.409 0.5636 -0.6074 -0.3341 0.6557 0.4139 -0.3352 -0.3955 1.5048c0.3797,-0.5904 0.3304,-0.4306 0.5288,-0.6942l-1.0722 1.984 0.1375 -1.5137 -0.434 0.9038 0.0259 -1.9251 -0.2677 -0.3889 -0.1249 0.4793 -0.275 -1.7781 0.9848 0.5142 0.169 -0.1613 0.069 0.9531zm1.5289 -1.3165c0.3479,-0.3485 0.2002,-0.0306 0.238,0 -0.0315,0.0209 0.0803,0.2824 -0.238,0zm2.5904 0.0724c-0.3235,-0.0922 -0.0848,-0.1141 0,-0.2173 0.1041,0.1071 0.0607,0.1121 0,0.2173zm-6.16 1.6998l-0.7452 4.2207 0.7186 -0.8983c0.1553,0.1724 0.1473,0.275 0.277,0.4765 0.2224,0.3457 0.1994,0.1285 0.4922,0.3704 0.6801,0.0807 1.4979,0.8173 1.7619,1.2092l-0.3899 -0.1778c0.2914,0.2928 0.9783,0.9222 0.9565,1.6151l0.1403 0.7421c-0.1401,-0.0919 -0.1875,-0.1216 -0.318,-0.3074 -0.0874,-0.1244 -0.1158,-0.2025 -0.2261,-0.3679l-0.5136 -0.689 -0.3417 -0.3054 0.1875 0.607c0.2156,0.3046 0.1938,0.6937 0.2366,1.1875 -0.3397,-0.302 -0.4645,-0.4573 -0.6741,-1.0016l-0.18 -0.2981 0.1771 1.2222c-0.2403,-0.1604 -0.3887,-0.2643 -0.4564,-0.5915 -0.0873,-0.0514 -0.0868,0.0914 -0.3367,-0.4279 -0.0417,-0.0865 -0.0716,-0.176 -0.0991,-0.2327l-0.2231 -0.3045 0.501 2.7105c0.2626,-0.2157 0.2795,-0.3425 0.4745,-0.7174l0.564 0.1429 2.0601 -0.2872c0.0353,0.1543 -0.0069,-0.1055 -0.0117,0.0645l0.0093 0.0795 1.4417 -0.4068 0.1439 0.2132 -0.295 0.1745 1.585 -0.1938 -0.6635 0.3467 1.3994 0.0066c-0.0072,0.1435 0.1413,-0.0417 -0.2152,0.2945l0.3753 0.0271 -0.804 0.2902c1.5302,0.0093 0.3831,-0.0084 1.5169,0.1123 0.5953,0.0634 0.6969,0.1335 1.2266,0.3521l-0.8384 0.1106 1.6788 0.5115c0.1804,0.4695 0.0525,-0.1039 0.5054,0.9373l-0.4393 -0.287 0.1806 0.4784 -0.0481 0.2435c-0.1793,0.1481 -0.2654,0.2211 -0.5658,0.3008l-0.1719 -0.5321c-0.2231,-0.0385 -0.1797,-0.082 -0.3569,-0.2284l0.0759 0.2331 0.0032 0.6344 -1.5883 -0.9852 -0.0799 0.5349c-0.2507,-0.13 -0.2734,-0.2715 -0.4906,-0.6383 -0.1415,-0.2389 -0.3134,-0.4848 -0.3686,-0.731l-0.018 0.9811 -1.0081 -0.8411 0.4985 0.8453 -1.4846 -1.1106 0.3177 0.8697c-0.2553,-0.1246 -0.1785,-0.0947 -0.3738,-0.2945 -0.257,-0.1454 -0.0389,0.1962 -0.5373,-0.3879l0.2395 0.8391 -1.3009 -1.556 0.3572 1.4837 -1.1082 -1.6315c-0.1366,0.0996 -0.0902,-0.0945 -0.2494,0.2635 -0.1238,0.2784 -0.0348,0.8734 -0.0141,1.1758l-0.626 -1.3466c-0.3724,0.382 -0.2619,0.6883 -0.2459,1.4203 -0.4908,-0.2807 -0.5267,-1.0558 -0.6392,-1.5614l-0.1967 1.2886c-0.4676,-0.3242 -0.5121,-0.9409 -0.6713,-1.5958l0.5964 0.0182c-0.1048,-0.1398 0.0025,-0.004 -0.1286,-0.1461 -0.105,-0.1137 -0.092,-0.0816 -0.193,-0.2263 -0.3676,-0.527 -0.5099,-1.1537 -0.7273,-1.8109l-0.2328 0.8063 -0.6727 -2.9231 -0.2385 0.727 0.1759 -1.6223c-0.6858,0.6786 -0.6578,0.7764 -1.1429,1.6721l0.3196 -1.8493c-0.6152,0.3947 -0.7685,0.8222 -1.0381,1.387l-0.1485 0.2492 0.3587 -1.3409c-0.2126,0.1048 -0.0264,-0.0426 -0.2742,0.189 -0.7282,0.6804 -0.7776,1.0013 -1.2235,1.9138l0.3904 -1.4999 -0.7908 0.9362c-0.0882,-0.1796 -0.0046,-0.1461 -0.0643,-0.3364l-0.742 0.6692 -0.02 -0.3348 -0.7722 0.9434 0.3299 -0.9795 -0.7815 0.6017 -0.0462 -0.2853 -1.0754 1.2424 0.3543 -0.983 -2.0387 2.4113 1.9563 -3.1016c0,-0.1989 0.0267,-0.0024 -0.1723,-0.0978 -2.0099,0.4913 -2.3386,3.3068 -3.0246,4.3007l-0.4443 0.5636c0.6167,-1.5958 1.4367,-4.4365 2.8625,-4.835 -0.0623,-0.195 -0.0268,-0.1695 0.0086,-0.3684 -0.5247,-0.4068 -0.5316,-0.3364 -0.7693,-0.815l1.5185 0.779c1.0625,0.0628 2.7317,-0.6054 3.5713,-1.0209 1.1303,-0.5593 1.8637,-1.3205 2.6749,-1.9661l0.0889 -0.185c0.1375,0.1284 0.0454,-0.0713 0.1675,0.2322l0.1637 -0.0903c0.0388,-0.4427 0.5748,-1.3918 0.7754,-1.8258 0.1328,-0.2871 0.275,-0.6614 0.3898,-0.9642 0.1779,-0.4693 0.2251,-0.721 0.4435,-0.8274l-0.572 2.1108zm5.9497 -3.4735c0.214,0.0971 0.0643,0.0516 0.4856,0.0094l-0.361 0.3059c0.5961,0.0826 1.1716,0.0149 1.2346,0.7797l-0.2916 -0.2867 0.0941 0.4645 -1.3431 -0.1326 -0.1338 -0.2443 -0.1047 0.2953c0.0166,-0.8186 -0.0748,-1.016 0.3512,-1.2251l0.0687 0.0339zm-1.7946 0.345c-0.0547,-0.0538 -0.0528,-0.0747 -0.1459,-0.1308 -0.06,-0.0362 -0.1174,-0.054 -0.1829,-0.0748 -0.1532,-0.0488 -0.2439,-0.0496 -0.3838,-0.1051l0.9699 0.2531 0.4357 1.2086 -0.3332 -0.6119 0.0347 0.3246c-0.3679,-0.1058 -0.6744,-0.2485 -1.0114,-0.1953 -0.2496,0.0394 -0.7416,0.3442 -0.792,0.5509l-0.0809 -0.3167 0.3461 -0.5919c-0.3424,-0.2922 -0.0794,-0.108 -0.0687,-0.1489l1.2124 -0.1618zm-1.2883 -1.0174c0.7116,-0.0968 1.6291,-0.1502 2.1641,0.2522l0.3389 0.344 -2.4271 0.0394 -0.1605 -0.2093 0.2097 -0.2143 -0.4621 0.0519 0.337 -0.2639zm1.7755 -0.4179c0.2126,-0.1247 0.4111,-0.3953 0.7689,-0.2564l0.2465 0.8181 -0.4099 -0.7445c-0.321,0.3019 -0.1219,0.1116 -0.2731,0.3284l-0.3324 -0.1456zm-3.0807 0.658l-0.1125 0.5855 -0.1626 -0.8067 -0.1769 0.4301 -0.0797 -0.4466c-0.1925,0.4208 -0.101,0.273 -0.3191,0.4887l-0.0335 -0.4708c-0.1063,0.1909 -0.2164,0.2437 -0.3201,0.4695l-0.0881 -0.3774 -0.2051 0.0506 0.5833 1.44 -0.941 -1.6958 1.3608 -0.2888c0.8226,-0.091 0.4406,-0.4367 1.2012,-0.3659l0.108 0.5581 -0.2803 -0.4684c-0.005,0.4712 0.1755,3.3483 -0.755,3.0281l0.0955 -0.0749c0.5187,-0.375 -0.2239,0.2482 0.1475,-0.0974 0.6239,-0.5805 0.0887,-1.9833 0.0604,-2.1992l-0.0828 0.2413zm-14.4643 16.1041l-0.7778 -0.0005c0.0914,-0.2573 -0.1,0.0736 0.1242,-0.1487l0.3838 -0.3593 0 -0.3386 0.1747 -0.1013c0.0126,-0.0116 0.0297,-0.0342 0.0426,-0.047l0.3192 -0.3882c0.6027,0 0.8993,0.1754 1.4255,-0.1411 0.2701,-0.1624 0.268,-0.2601 0.578,-0.5078l0 -0.3386c0.1825,-0.0716 0.1633,-0.1032 0.2958,-0.24l0.2487 -0.2588c0.1804,-0.1395 0.8385,-0.2917 0.8387,-0.2918 0.0181,-0.0209 0.0429,-0.0824 0.0519,-0.065l0.2193 -0.2272c0.0127,-0.0123 0.0319,-0.0293 0.0445,-0.0417l0.3617 -0.4311 0.3671 0.0315c-0.0483,0.1359 -0.1166,0.1389 -0.3834,0.4041l-0.3786 0.358 0 0.3386c-0.2687,0.1252 -0.273,0.0003 -0.1132,0.5642l-0.1693 0.2263c-1.0757,0 -0.1631,0.2233 -1.2415,0.254 0.0061,0.5059 0.059,0.1301 0.0002,0.8725l0.0882 0.0141 1.1497 -0.4492 -0.839 0.0056 1.5197 -0.7688c-0.0059,0.0007 -0.0147,-0.0062 -0.0159,-0.0078 -0.0022,-0.0028 -0.0175,-0.0216 -0.0201,-0.0251l-0.0645 -0.0941 0.4143 -0.3909 -0.6491 0.1147c0.406,-0.2403 0.5152,-0.405 0.8077,-0.692 0.2643,-0.2593 0.4629,-0.5737 0.7679,-0.753 0.7242,-0.4255 2.0143,-0.3251 2.4952,0.2409l3.2405 1.0255 0.1422 0.553c-2.3383,-0.2422 -3.0851,-1.8023 -4.9203,-1.5584 -0.4713,0.0626 -0.8495,0.2218 -1.0463,0.5853 -0.467,0.8623 -1.3846,2.3078 -2.4273,2.4667 0,0.1565 -0.205,0.1359 -0.3325,0.1638l-0.0005 -0.0609c-0.466,0 -0.3511,-0.0648 -0.647,0.2263 -0.1969,0.1937 -0.1475,-0.0504 -0.1397,0.2443 0.0159,0.5952 0.0736,0.2403 0.1924,0.3753l0.0319 -0.3007 0.8244 -0.0972c0.2905,-0.1418 0.6029,-0.3306 0.8911,-0.4527 0.1185,-0.2022 0.1671,-0.1452 0.3335,-0.2987 0.0155,0.3663 -0.0681,0.5819 -0.2982,0.7953l-0.2299 0.2915c-0.0137,-0.0204 -0.0352,-0.0742 -0.0417,-0.0608l-0.1424 -0.2569 -0.3168 0.5481 -0.2792 0.0102 -0.4562 0.0645 -0.0601 -0.2253 -0.295 0.0049c0.2364,0.1939 -0.3746,0.0903 0.2939,0.1756 -0.1466,0.0894 -0.0812,0.0299 -0.1753,0.1179 -0.4852,0.4541 0.1803,-0.0785 -0.1513,0.1505 0.342,0.6983 1.6481,-0.0315 1.9568,-0.2737 0.2725,-0.2139 0.3275,-0.3861 0.5137,-0.7623 0.3827,-0.7734 -0.1791,0.1552 0.5986,-0.4073 0.5225,0.0945 -0.4121,-0.1448 0.1232,0.0474 0.2325,0.0835 0.2101,0.0164 0.7565,-0.3147l-0.1491 0.3371 2.4909 -2.1725c0.4835,0.1675 0.9781,0.5205 1.5325,0.7483 2.0651,0.6577 1.3141,-0.1747 2.5682,1.2106l-0.0388 -0.8114 1.4759 1.7834 -0.1757 -0.6532c0.1961,0.1003 0.1081,0.0165 0.2864,0.2015 0.3304,0.3427 0.1868,0.21 0.752,0.5109l-0.0875 -0.5702 1.1175 0.6681 0.1498 -0.6691 0.4789 0.7159c0.1697,-0.1871 0.1423,-0.1258 0.2439,-0.3529 0.1265,-0.2826 -0.0234,-0.0662 0.2188,-0.4589 0.1965,0.2689 0.0957,0.1898 0.3477,0.4311l0.3221 -0.6633 0.2643 0.7245 0.9211 -0.8264 0.5481 0.7065 0.5078 -0.6547 0.8409 0.1611c0.2394,0.579 0.3245,0.3493 0.5463,0.6311 0.1785,0.2268 0.1111,0.4653 0.4287,0.7622 0.9325,0.8718 2.77,0.8675 3.3003,-0.0987 0.5107,-0.9305 -0.3509,-1.5368 -0.4015,-1.7709 0.1478,-0.8604 -0.3105,-1.5693 -0.8699,-1.8542 -0.9641,-0.4911 -0.7478,-0.458 -1.9431,-0.9669l0.6485 -0.2755 -2.0067 -0.5659 0.1084 -0.2911 -1.0531 -0.0898 -0.6136 -1.5446c0.1832,-0.1724 0.3728,-0.2119 0.5614,-0.3286 1.1491,-0.7109 1.215,-1.2902 1.5142,-1.0391 0.8799,-0.6609 1.971,-1.7867 1.4415,-3.5454 -0.3952,-1.3126 -1.1915,-1.593 -2.0577,-1.8259 -0.413,-0.111 -0.4344,-0.3977 -0.5483,-0.7595l0.4025 0.2854c0.2832,-0.2631 0.4469,-0.7578 0.2658,-1.2677l-0.8237 -0.8626c-0.0016,-0.4328 0.0054,-0.7703 -0.2833,-0.9921 -0.0633,-0.0486 -0.4217,-0.192 -0.8522,-0.49 -1.6278,0.729 -1.0019,0.6112 -2.6247,0.5904 -0.219,-0.4996 -0.5762,-0.9218 -1.2134,-0.5492 -0.7334,0.4288 -0.8198,0.1997 -1.6032,0.4299 -1.3876,0.4076 -0.7386,1.1056 0.0165,2.3957 -0.1871,0.5676 -0.5747,1.4885 -0.8289,2.0465 -0.8413,1.8468 -2.9939,3.3699 -4.9049,3.9833 -1.6308,0.5235 -2.7702,0.911 -3.8968,-1.0498 -1.0189,-1.7734 -0.6553,-2.8452 -0.4553,-4.9595 -1.2187,-0.1404 -1.2752,2.8849 -1.1205,3.8438 0.2432,1.5073 0.7852,2.3755 1.5641,3.5864 -1.3497,2.0725 -0.727,0.8095 -1.8437,3.6458 -1.0476,0.2965 -1.8725,-0.2764 -2.6879,0.5471 -0.1595,0.1611 -0.3997,0.3225 -0.4394,0.4675 -0.0033,0.0122 0.0009,0.0392 -0.0013,0.0514 -0.0662,0.3678 0.0886,0.0355 -0.2197,0.35 -0.4434,0.4525 0.2376,-0.1023 -0.1981,0.4697 -0.252,0.3309 -0.3256,0.152 -0.1874,0.5452 -1.3936,0.3637 -0.9101,3.01 1.2261,2.2776 0.544,-0.1865 0.5865,-0.5067 0.6759,-0.6061 0.3048,-0.3388 0.1761,0.0662 0.3572,-0.6357zm10.6779 -4.5167c-0.0068,-0.0359 -0.0361,-0.0366 -0.0533,-0.0558l0.0341 -0.9223c0.0779,-0.4136 -0.0001,-0.3706 -0.0341,-0.7149l-0.3685 0 -0.168 0.254 -0.3672 0.0285c0.024,0.0149 0.0309,0.0568 0.0425,0.0704 0.0068,0.008 0.0288,0.0245 0.0368,0.0337 0.1023,0.1164 0.0843,0.0243 0.1747,0.2346l-0.5899 0.3327c-0.338,0.1346 -0.3716,0.0498 -0.5697,-0.0606 -0.1397,-0.0778 -0.2291,0.0025 -0.5899,0.1227l-0.1693 -0.254 -0.6218 0 0.0006 0.762 -0.5642 0 -0.1429 -0.1801c-0.1408,-0.1531 0.1336,0.0131 -0.1111,-0.0739l-0.2825 0.3111 1.2139 0.0846 0.1693 0.254 0.508 0c0.1464,-0.51 0.0636,-0.5182 0.254,-0.762 0.5557,0.5557 0.2511,0.0181 0.7335,0.3948l-0.254 0.254 0 0.3672 0.6212 0 0.3948 0.3949 0 0.3671 0.6212 0 0.1429 0.1801c0.1407,0.1531 -0.1336,-0.013 0.1111,0.0739 0.1822,-0.3857 0.1814,-0.0826 0.2825,-0.3671l-0.384 -0.3231 0.0587 -0.5236c0.001,-0.1949 -0.1181,-0.2238 -0.1294,-0.2829zm-10.6779 4.5167c0.1841,-0.0983 0.1176,-0.0765 0.2474,0.0869l1.3779 -0.172c0.0793,0.5155 0.0527,0.7926 0.4311,0.8891 0.3316,-0.229 -0.3339,0.3036 0.1513,-0.1505 0.0941,-0.088 0.0287,-0.0285 0.1753,-0.1179 -0.6685,-0.0853 -0.0575,0.0183 -0.2939,-0.1756l0.0386 -0.0222c-0.1188,-0.135 -0.1765,0.2199 -0.1924,-0.3753 -0.0078,-0.2947 -0.0572,-0.0506 0.1397,-0.2443 0.2959,-0.2911 0.181,-0.2263 0.647,-0.2263l0.0005 0.0609 -0.7115 -0.0471 0.3095 -0.1671 -0.3718 -0.1445 0.5516 -0.0575 -0.0882 -0.0141c0.0588,-0.7424 0.0059,-0.3666 -0.0002,-0.8725 1.0784,-0.0307 0.1658,-0.254 1.2415,-0.254l0.1693 -0.2263c-0.1598,-0.5639 -0.1555,-0.439 0.1132,-0.5642l0 -0.3386 0.3786 -0.358c0.2668,-0.2652 0.3351,-0.2682 0.3834,-0.4041l-0.3671 -0.0315 -0.3617 0.4311c-0.0126,0.0124 -0.0318,0.0294 -0.0445,0.0417l-0.2193 0.2272c-0.009,-0.0174 -0.0338,0.0441 -0.0519,0.065 -0.0002,0.0001 -0.6583,0.1523 -0.8387,0.2918l-0.2487 0.2588c-0.1325,0.1368 -0.1133,0.1684 -0.2958,0.24l0 0.3386c-0.31,0.2477 -0.3079,0.3454 -0.578,0.5078 -0.5262,0.3165 -0.8228,0.1411 -1.4255,0.1411l-0.3192 0.3882c-0.0129,0.0128 -0.03,0.0354 -0.0426,0.047l-0.1747 0.1013 0 0.3386 -0.3838 0.3593c-0.2242,0.2223 -0.0328,-0.1086 -0.1242,0.1487l0.7778 0.0005z"/>
   <path id="_627495848" class="fil16" d="M9.2173 14.9288l-0.4143 0.3909 0.0645 0.0941c0.0026,0.0035 0.0179,0.0223 0.0201,0.0251 0.0012,0.0016 0.01,0.0085 0.0159,0.0078l-1.5197 0.7688 0.839 -0.0056 -1.1497 0.4492c0.2106,0.1323 0.0778,0.1111 0.4758,0.1109l0.0669 0.113c0.0014,0.0027 0.0072,0.0194 0.012,0.0285 1.0427,-0.1589 1.9603,-1.6044 2.4273,-2.4667 0.1968,-0.3635 0.575,-0.5227 1.0463,-0.5853 1.8352,-0.2439 2.582,1.3162 4.9203,1.5584l-0.1422 -0.553 -3.2405 -1.0255c-0.8496,-0.1706 -1.1364,-0.4901 -2.1234,-0.0461 -0.8698,0.3913 -0.7876,0.5374 -0.965,0.8181 -0.1205,0.1906 -0.205,0.2171 -0.3333,0.3174z"/>
   <path id="_627495560" class="fil17" d="M21.6306 2.1957l-1.2124 0.1618c-0.0107,0.0409 -0.2737,-0.1433 0.0687,0.1489l-0.3461 0.5919 0.0809 0.3167c0.0504,-0.2067 0.5424,-0.5115 0.792,-0.5509 0.337,-0.0532 0.6435,0.0895 1.0114,0.1953l-0.0347 -0.3246 0.3332 0.6119 -0.4357 -1.2086 -0.9699 -0.2531c0.1399,0.0555 0.2306,0.0563 0.3838,0.1051 0.0655,0.0208 0.1229,0.0386 0.1829,0.0748 0.0931,0.0561 0.0912,0.077 0.1459,0.1308z"/>
   <path id="_627495512" class="fil18" d="M22.5064 1.4305c-0.2612,0.1821 -0.0713,-0.1083 -0.7419,0.0122 -0.3147,0.0565 -0.6775,0.0199 -1.0076,0.0263l-0.3673 -0.2512c-0.0095,-0.0241 -0.0313,-0.0266 -0.0473,-0.0395l-0.337 0.2639 0.4621 -0.0519 -0.2097 0.2143 0.1605 0.2093 2.4271 -0.0394 -0.3389 -0.344z"/>
   <path id="_627495632" class="fil19" d="M22.8399 11.6099l-0.5314 -0.7222c-0.102,0.1141 -0.0592,-0.0156 -0.0907,0.1871 -0.0021,0.0137 0.0145,0.1834 0.0185,0.2049 0.0821,0.434 0.3996,0.7268 0.4109,0.9442l-0.0183 -0.549 0.5536 0.6709 -0.2373 -1.0943 -0.1053 0.3584z"/>
   <path id="_627495320" class="fil20" d="M18.5684 5.3406c-0.1741,-0.3047 -0.1089,-0.887 0.0778,-1.2288l0.6868 0.2442 0.1832 0.5125 -0.069 -0.9531 -0.169 0.1613 -0.9848 -0.5142 0.275 1.7781z"/>
   <path id="_627494960" class="fil21" d="M16.264 13.683c-0.0231,0.0351 -0.0752,0.0099 -0.1409,0.3009 -0.1505,0.6663 0.1774,1.3089 0.4402,1.8162l-0.2993 -2.1171z"/>
   <polygon id="_627494912" class="fil22" points="6.7005,17.8603 6.6619,17.8825 6.9569,17.8776 7.017,18.1029 7.4732,18.0384 7.5568,17.4624 6.7324,17.5596 "/>
   <path id="_627494528" class="fil23" d="M19.0371 1.4184c-0.1396,-0.1344 -0.1007,-0.1086 -0.2276,-0.3653 -0.1451,0.025 -0.2158,0.0254 -0.3462,0.0464 -0.2351,0.0378 -0.1942,0.0099 -0.3105,0.0991l0.0335 0.4708c0.2181,-0.2157 0.1266,-0.0679 0.3191,-0.4887l0.0797 0.4466 0.1769 -0.4301 0.1626 0.8067 0.1125 -0.5855z"/>
   <path id="_627494624" class="fil24" d="M23.9427 5.3431l1.1322 -0.0315c0.009,0.0205 0.0214,0.0287 0.0273,0.0615l0.1615 0.2624c-0.0345,-0.4266 -0.0698,-0.5387 -0.5249,-0.5732 -0.5483,-0.0416 -0.657,0.0705 -0.7961,0.2808z"/>
   <path id="_627494864" class="fil25" d="M7.2953 17.0753c0.1275,-0.0279 0.3325,-0.0073 0.3325,-0.1638 -0.0048,-0.0091 -0.0106,-0.0258 -0.012,-0.0285l-0.0669 -0.113c-0.398,0.0002 -0.2652,0.0214 -0.4758,-0.1109l-0.5516 0.0575 0.3718 0.1445 -0.3095 0.1671 0.7115 0.0471z"/>
   <path id="_627495104" class="fil26" d="M28.3565 17.7604c0.065,0.1501 0.0086,0.0819 0.1184,0.2634 0.1587,0.2622 0.0266,0.0561 0.156,0.165 0.2918,-0.128 0.4598,-0.261 0.3477,-0.6502l-0.1291 0.2021c-0.0332,-0.0292 -0.0176,-0.0614 -0.1965,-0.1446 -0.079,-0.0367 -0.1567,-0.0419 -0.2449,-0.0608l-0.0516 0.2251z"/>
   <path id="_627494432" class="fil27" d="M19.0375 12.0053c0.2096,0.5443 0.3344,0.6996 0.6741,1.0016 -0.0428,-0.4938 -0.021,-0.8829 -0.2366,-1.1875l0.0259 0.7028c-0.1951,-0.1853 -0.1019,-0.1284 -0.2174,-0.2919 -0.1512,-0.2139 -0.1238,-0.1423 -0.246,-0.225z"/>
   <path id="_627493640" class="fil28" d="M25.2349 6.873c-0.0653,-0.2368 0.1272,-0.0134 -0.1055,-0.253l-0.1028 0.2688 -0.1819 -0.4587c-0.57,0.2269 0.108,0.6052 0.2858,0.8151l0.1044 -0.3722z"/>
   <path id="_627493880" class="fil29" d="M22.1178 0.7604l0.3324 0.1456c0.1512,-0.2168 -0.0479,-0.0265 0.2731,-0.3284l0.4099 0.7445 -0.2465 -0.8181c-0.3578,-0.1389 -0.5563,0.1317 -0.7689,0.2564z"/>
   <path id="_627493784" class="fil30" d="M12.006 15.2927c0.2411,-0.2021 0.3447,-0.3856 0.4507,-0.756 0.1327,0.1215 0.0459,-0.0271 0.0845,0.1843l0.1211 -0.1561c-0.5758,-0.3576 -0.4303,-0.1079 -0.4638,-0.0901l-0.1925 0.8179z"/>
   <path id="_627494168" class="fil31" d="M27.3043 18.1497l-0.233 -0.0657 -0.1091 -0.3922 -0.5663 -0.0905c0.2511,0.3599 0.1432,0.1849 0.2185,0.2111 0.2846,0.0988 0.1715,0.3314 0.5041,0.3796 0.3093,0.0448 0.0878,0.0337 0.1858,-0.0423z"/>
   <path id="_627494072" class="fil32" d="M23.7293 5.7649c-0.1221,-0.1254 -0.3304,-0.3158 -0.3808,-0.5045 0,-0.1991 0.0261,-0.0011 -0.1235,-0.0818 -0.0817,0.2249 0.0114,0.1145 -0.066,0.3769 0.219,0.0713 0.2678,0.1485 0.5703,0.2094z"/>
   <path id="_627493928" class="fil33" d="M21.0451 3.552c0.3183,0.2824 0.2065,0.0209 0.238,0 -0.0378,-0.0306 0.1099,-0.3485 -0.238,0z"/>
   <path id="_627493064" class="fil34" d="M3.6871 26.0795c0.0032,0.1676 -0.051,0.3233 -0.1647,0.4614 -0.1166,0.1416 -0.2513,0.2124 -0.4051,0.218 -0.798,0.0292 -1.6028,0.0586 -2.4106,0.0882 -0.1701,0.0062 -0.318,-0.0548 -0.4389,-0.1819 -0.1229,-0.1291 -0.1825,-0.2888 -0.1863,-0.481 -0.0059,-0.3027 -0.0119,-0.6055 -0.0179,-0.9095 0.5367,-0.0156 1.0767,-0.0314 1.6101,-0.047 0.0034,0.1756 0.0068,0.35 0.0101,0.5236 0.003,0.1579 0.0538,0.2361 0.1617,0.2326 0.0981,-0.0031 0.1622,-0.018 0.1956,-0.0387 0.0474,-0.0294 0.0769,-0.0892 0.0751,-0.184 -0.0068,-0.3606 -0.0139,-0.722 -0.0208,-1.0831 -0.0017,-0.0942 -0.0333,-0.1529 -0.0821,-0.1796 -0.0339,-0.0185 -0.1022,-0.029 -0.2003,-0.0265 -0.3895,0.0099 -0.7757,0.02 -1.1619,0.0298 -0.1538,0.0039 -0.2928,-0.0608 -0.4198,-0.1961 -0.1271,-0.1354 -0.1925,-0.2879 -0.1958,-0.4584 -0.0087,-0.4483 -0.0175,-0.8969 -0.0263,-1.3457 -0.0088,-0.4484 -0.0177,-0.8974 -0.0265,-1.347 -0.0033,-0.1697 0.0548,-0.3266 0.1744,-0.4651 0.1206,-0.1396 0.2582,-0.2098 0.4121,-0.2108 0.8029,-0.0054 1.6092,-0.011 2.4054,-0.0164 0.1737,-0.0011 0.3198,0.062 0.4395,0.1906 0.1177,0.1265 0.1759,0.2882 0.1795,0.4814 0.0056,0.2989 0.0113,0.5979 0.0169,0.8955 -0.5241,0.0074 -1.0449,0.0149 -1.5657,0.0223 -0.0033,-0.1733 -0.0066,-0.3474 -0.0099,-0.5219 -0.003,-0.1581 -0.0603,-0.2365 -0.1619,-0.2355 -0.0982,0.001 -0.1624,0.0146 -0.1959,0.0338 -0.0507,0.0291 -0.0769,0.0884 -0.0751,0.1834 0.006,0.322 0.0123,0.6428 0.0185,0.9635 0.0062,0.3207 0.0126,0.6421 0.0186,0.9628 0.0018,0.095 0.0303,0.1535 0.0821,0.181 0.0341,0.0181 0.0989,0.0295 0.197,0.0274 0.3831,-0.0082 0.7597,-0.0166 1.1394,-0.0248 0.1539,-0.0033 0.2912,0.06 0.4131,0.1953 0.119,0.132 0.1791,0.2837 0.1822,0.4513 0.0057,0.302 0.0114,0.6042 0.0171,0.9062 0.0056,0.302 0.0114,0.6034 0.0171,0.9049zm3.9387 -0.1473c0.0035,0.1905 -0.0536,0.3495 -0.1648,0.4801 -0.1098,0.129 -0.2453,0.1966 -0.4087,0.2025 -0.7687,0.0279 -1.5375,0.0563 -2.3126,0.0846 -0.1504,0.0054 -0.2834,-0.0557 -0.4061,-0.1875 -0.1211,-0.1301 -0.1788,-0.2808 -0.1819,-0.448 -0.0154,-0.8233 -0.0312,-1.6485 -0.0466,-2.4724 -0.0155,-0.8251 -0.031,-1.6511 -0.0465,-2.4775 -0.0031,-0.1665 0.0486,-0.3203 0.1651,-0.4561 0.1175,-0.137 0.2486,-0.2058 0.3992,-0.2068 0.7767,-0.0052 1.5501,-0.0107 2.3202,-0.0159 0.1605,-0.0011 0.2982,0.0626 0.413,0.1872 0.1158,0.1258 0.1789,0.2828 0.1823,0.4724 0.0053,0.2933 0.0106,0.5867 0.0159,0.8788 -0.5045,0.0072 -1.0056,0.0143 -1.5133,0.0216 -0.0031,-0.1701 -0.0063,-0.3408 -0.0094,-0.5121 -0.0028,-0.1551 -0.0534,-0.2322 -0.1517,-0.2312 -0.0949,0.001 -0.159,0.0145 -0.1895,0.0331 -0.0473,0.0289 -0.0737,0.0868 -0.072,0.18 0.0128,0.6978 0.0241,1.3963 0.0353,2.0928 0.0112,0.6966 0.0259,1.3938 0.0387,2.0898 0.0017,0.0931 0.0305,0.1494 0.0785,0.176 0.0315,0.0175 0.0955,0.0285 0.1904,0.0255 0.0981,-0.0032 0.149,-0.0832 0.1462,-0.2376 -0.003,-0.1701 -0.0063,-0.3408 -0.0094,-0.5128 0.5039,-0.0147 1.0079,-0.0293 1.5118,-0.044 0.0054,0.2934 0.0106,0.5855 0.0159,0.8775zm4.3099 0.5037c-0.4841,0.0178 -0.9682,0.0356 -1.4555,0.0534 -0.0084,-0.482 -0.0169,-0.9651 -0.0253,-1.4483 -0.288,0.0085 -0.5792,0.0171 -0.8672,0.0256 0.0086,0.4852 0.0172,0.9705 0.0257,1.4545 -0.4972,0.0181 -0.9944,0.0363 -1.4916,0.0545 -0.0183,-1.0223 -0.0369,-2.0466 -0.0552,-3.0702 -0.0184,-1.0247 -0.0367,-2.0509 -0.0552,-3.0775 0.4981,-0.0034 0.9963,-0.0068 1.4944,-0.0102 0.0113,0.6438 0.0228,1.2871 0.034,1.9292 0.0113,0.6426 0.0226,1.2848 0.034,1.9263 0.288,-0.0074 0.5793,-0.0149 0.8673,-0.0223 -0.0112,-0.6388 -0.0223,-1.2781 -0.0334,-1.9181 -0.0111,-0.6393 -0.0223,-1.28 -0.0335,-1.921 0.4883,-0.0034 0.9766,-0.0067 1.4616,-0.01 0.0172,1.0076 0.0328,2.0148 0.0483,3.0206 0.0155,1.0047 0.0345,2.01 0.0516,3.0135zm3.8892 -0.1423c-0.458,0.0167 -0.9126,0.0334 -1.3706,0.0501 -0.0137,-0.8337 -0.026,-1.6687 -0.0381,-2.5035 -0.0122,-0.8355 -0.0276,-1.6716 -0.0414,-2.5076 -0.0014,-0.0894 -0.0285,-0.1468 -0.0848,-0.1708 -0.0229,-0.0097 -0.0789,-0.014 -0.1771,-0.013 -0.0918,0.0009 -0.1328,0.0641 -0.1312,0.1883 0.011,0.8377 0.0245,1.6756 0.0384,2.5126 0.0139,0.8366 0.0279,1.6731 0.0417,2.5085 -0.471,0.0171 -0.9354,0.0342 -1.4065,0.0514 -0.0152,-0.9013 -0.0307,-1.8038 -0.0459,-2.7064 -0.0153,-0.903 -0.0307,-1.8068 -0.0459,-2.7111 -0.0026,-0.155 0.0475,-0.2945 0.1503,-0.4154 0.1027,-0.1209 0.2198,-0.1825 0.3509,-0.1833 0.7306,-0.005 1.4582,-0.0101 2.1792,-0.0149 0.1375,-0.0009 0.2521,0.0604 0.347,0.1801 0.0958,0.1209 0.1453,0.2623 0.1479,0.4245 0.0143,0.8863 0.0287,1.7725 0.043,2.6579 0.0143,0.8842 0.0288,1.7696 0.0431,2.6526zm3.6961 -0.1352c-0.4481,0.0163 -0.893,0.0326 -1.3345,0.0488 -0.0073,-0.469 -0.0147,-0.9386 -0.0221,-1.4088 -0.1309,0.0038 -0.2585,0.0076 -0.3861,0.0113 0.0074,0.4711 0.0148,0.9416 0.0222,1.4116 -0.4481,0.0165 -0.9028,0.0331 -1.3542,0.0496 -0.014,-0.8755 -0.0282,-1.7529 -0.0422,-2.6296 -0.0141,-0.8772 -0.0282,-1.7559 -0.0423,-2.6348 -0.0029,-0.1865 0.0427,-0.3412 0.1367,-0.459 0.0954,-0.1194 0.2201,-0.1791 0.3774,-0.1801 0.6815,-0.0046 1.3601,-0.0092 2.035,-0.0138 0.1278,-0.0008 0.2507,0.0505 0.3629,0.1545 0.1104,0.1024 0.1643,0.2328 0.1666,0.3879 0.0134,0.8781 0.0269,1.7565 0.0403,2.6335 0.0134,0.8771 0.0269,1.7536 0.0403,2.6289zm-1.3682 -2.1051c-0.0073,-0.4626 -0.0145,-0.9258 -0.0217,-1.3883 -0.0072,-0.4626 -0.0146,-0.9271 -0.0218,-1.3902 -0.0017,-0.1123 -0.0552,-0.1678 -0.1534,-0.1668 -0.0327,0.0003 -0.0656,0.0007 -0.095,0.001 -0.095,0.0009 -0.1399,0.0577 -0.1382,0.1702 0.0073,0.464 0.0148,0.9294 0.022,1.3929 0.0072,0.4634 0.0145,0.9276 0.0218,1.3911 0.1277,-0.0033 0.2553,-0.0066 0.3863,-0.0099zm4.9247 1.3628c0.0025,0.1762 -0.0466,0.3216 -0.1442,0.4432 -0.0952,0.1186 -0.2069,0.1818 -0.3442,0.1868 -0.6574,0.024 -1.3182,0.0483 -1.9789,0.0725 -0.1307,0.0047 -0.2471,-0.0523 -0.3495,-0.1749 -0.1009,-0.1208 -0.1513,-0.2593 -0.1536,-0.414 -0.0131,-0.8621 -0.0262,-1.7262 -0.0393,-2.5896 -0.0131,-0.8634 -0.0262,-1.7286 -0.0394,-2.5942 0.4457,-0.003 0.8848,-0.006 1.3272,-0.009 0.012,0.8033 0.0239,1.6063 0.0358,2.4074 0.0118,0.8011 0.0235,1.6036 0.0324,2.4041 0.0009,0.0862 0.0266,0.1379 0.0712,0.1629 0.0282,0.0158 0.079,0.0266 0.1607,0.024 0.085,-0.0027 0.1266,-0.0766 0.1245,-0.2194 -0.0117,-0.7957 -0.0236,-1.5926 -0.0353,-2.3888 -0.0116,-0.7962 -0.0236,-1.5942 -0.0354,-2.3927 0.4326,-0.0029 0.8619,-0.0058 1.2945,-0.0088 0.0123,0.8501 0.0246,1.6993 0.0368,2.5472 0.0121,0.8479 0.0245,1.6965 0.0367,2.5433zm3.4302 0.4864c-0.9453,0.0346 -1.8971,0.0696 -2.8621,0.1049 -0.0035,-0.2456 -0.007,-0.4912 -0.0105,-0.7368 0.2583,-0.7083 0.5196,-1.416 0.7753,-2.1207 0.255,-0.703 0.5176,-1.4045 0.7765,-2.1046 -0.5373,0.0057 -1.0714,0.0115 -1.6119,0.0172 -0.0036,-0.2466 -0.0071,-0.4934 -0.0106,-0.7407 0.9667,-0.0066 1.9236,-0.0131 2.8707,-0.0196 0.0033,0.2436 0.0066,0.4867 0.0099,0.7296 -0.2527,0.6955 -0.5138,1.3917 -0.7676,2.0905 -0.2541,0.6995 -0.511,1.4029 -0.7663,2.1064 0.5333,-0.0174 1.0601,-0.0347 1.5901,-0.052 0.0032,0.2419 0.0065,0.4838 0.0065,0.7258zm2.9667 -0.1086c-0.8766,0.0321 -1.7597,0.0644 -2.6494,0.097 -0.0125,-0.9298 -0.0235,-1.8613 -0.0344,-2.7927 -0.0108,-0.9314 -0.0251,-1.8646 -0.0377,-2.7982 0.8914,-0.006 1.7762,-0.0121 2.6512,-0.018 0.003,0.2397 0.0061,0.479 0.0091,0.7182 -0.4652,0.005 -0.9402,0.01 -1.412,0.0151 0.0061,0.4642 0.0123,0.9292 0.0183,1.3929 0.006,0.4637 0.0122,0.928 0.0183,1.3918 0.2913,-0.0075 0.5859,-0.015 0.8772,-0.0225 0.003,0.235 0.0061,0.4699 0.0091,0.7043 -0.2913,0.0086 -0.5858,0.0172 -0.877,0.0258 0.0027,0.206 0.0054,0.4121 0.0081,0.6182 0.4712,-0.0155 0.9423,-0.0309 1.4101,-0.0462 0.0031,0.2381 0.0061,0.4762 0.0091,0.7143zm3.055 -0.1116c-0.3859,0.014 -0.7719,0.028 -1.1579,0.0421 -0.0047,-0.3873 -0.0095,-0.7752 -0.0142,-1.1642 -0.0004,-0.0365 -0.0141,-0.0699 -0.0438,-0.1007 -0.0299,-0.0311 -0.0595,-0.0462 -0.0856,-0.0455 -0.0752,0.0022 -0.1506,0.0045 -0.2258,0.0066 0.0054,0.4395 0.0108,0.8784 0.0162,1.3168 -0.3925,0.0144 -0.7883,0.0288 -1.1841,0.0433 -0.0115,-0.9149 -0.0233,-1.8314 -0.0348,-2.7479 -0.0115,-0.9164 -0.0232,-1.8347 -0.0348,-2.7533 0.7668,-0.0052 1.5205,-0.0105 2.2742,-0.0156 0.1081,-0.0007 0.2063,0.0591 0.2938,0.1749 0.0889,0.1177 0.1374,0.2485 0.1391,0.3926 0.0052,0.4422 0.0106,0.8852 0.0158,1.3265 0.0052,0.4413 0.0106,0.8831 0.0158,1.3244 0.0019,0.1582 -0.0385,0.2886 -0.1166,0.3892 -0.0797,0.1026 -0.1814,0.1541 -0.3025,0.1574 0.1211,-0.0033 0.2241,0.0443 0.3062,0.1447 0.0805,0.0984 0.1239,0.2276 0.1257,0.3859 0.0045,0.3751 0.0089,0.7492 0.0133,1.1228zm-1.1843 -2.1172c-0.005,-0.402 -0.0098,-0.8048 -0.0147,-1.2068 -0.0048,-0.402 -0.0099,-0.8053 -0.0148,-1.2078 -0.0014,-0.1228 -0.0449,-0.1838 -0.1301,-0.1829 -0.0752,0.0008 -0.1507,0.0016 -0.226,0.0024 0.0057,0.459 0.0114,0.9193 0.017,1.3779 0.0056,0.4586 0.0113,0.9177 0.0169,1.3763 0.0753,-0.0018 0.1507,-0.0038 0.2259,-0.0057 0.0262,-0.0006 0.0554,-0.0174 0.0845,-0.0502 0.029,-0.0325 0.0417,-0.0666 0.0413,-0.1032z"/>
  </g>
 </g>
</svg>
