<?xml version="1.0" encoding="UTF-8"?>
<!DOCTYPE svg PUBLIC "-//W3C//DTD SVG 1.1//EN" "http://www.w3.org/Graphics/SVG/1.1/DTD/svg11.dtd">
<!-- Creator: CorelDRAW -->
<svg xmlns="http://www.w3.org/2000/svg" xml:space="preserve" width="70.14mm" height="97.8mm" style="shape-rendering:geometricPrecision; text-rendering:geometricPrecision; image-rendering:optimizeQuality; fill-rule:evenodd; clip-rule:evenodd"
viewBox="0 0 70.14 97.8"
 xmlns:xlink="http://www.w3.org/1999/xlink">
 <defs>
  <style type="text/css">
   <![CDATA[
    .fil0 {fill:#010101}
   ]]>
  </style>
 </defs>
 <g id="Capa_x0020_1">
  <metadata id="CorelCorpID_0Corel-Layer"/>
  <path class="fil0" d="M30.4835 62.0197c-0.466,1.5846 -2.7329,1.0676 -2.2106,-0.5834 0.4359,-1.3777 2.6963,-1.0682 2.2106,0.5834zm22.5138 -36.4481c-0.3547,0.1108 -0.1722,0.1457 -0.5239,0.286 0.2553,-0.5325 0.6683,-1.301 1.2754,-1.5098 -0.826,1.2785 -0.859,0.6295 -0.7515,1.2238zm-0.0142 -1.8596c-0.134,0.2626 -0.5537,0.1113 -0.8865,0.0012l-0.019 -0.1945c0.2602,0.0686 0.6586,0.251 0.9055,0.1933zm0.5708 3.6072c0.1026,-0.1118 0.0846,-0.1214 0.1798,-0.3875 -0.2464,-0.1639 -0.2183,0.2322 -0.2044,-0.2118 0.0344,-0.0805 0.4395,-0.3552 0.5893,-0.6909 0.0133,-0.0297 0.045,-0.1217 0.0562,-0.1527 0.4224,-1.16 0.537,-0.819 0.7622,-1.4839 -1.2846,-0.6785 -1.2733,-0.1459 -1.2842,-1.3961l-0.2364 0.5034 -0.175 -0.1253c-0.0019,-0.0506 -0.0081,-0.1367 -0.0204,-0.2815 -0.0712,-0.4833 -0.9222,-1.0505 -1.2393,-3.2328l0.4429 -0.0092c0.2798,0.5589 0.086,0.4604 0.3088,0.7591l-0.0531 -0.786 0.5401 0.6206c0.0054,-0.0166 0.0383,0.0274 0.0575,0.041 0.075,-0.6765 0.0724,-0.4809 0.3142,-0.6902l0.2191 0.6641 0.0305 -0.7354 0.9104 -0.1423 0.0967 0.868c0.2998,-0.5393 0.0699,-0.4477 0.0418,-0.9672 0.7518,-0.0217 0.4423,0.0257 0.6153,-0.1275l-1.1863 -0.3732c-0.456,-0.2029 -0.1187,-0.0326 -0.2978,-0.2014 -0.6977,-0.0047 -1.8959,-1.215 -2.1776,-1.7154 -0.1882,-0.2401 -0.3452,-0.5744 -0.5118,-0.8875 -0.2027,-0.3809 -0.3471,-0.5042 -0.4425,-0.9325l2.3384 -3.4838 -0.6774 0.3574c-0.2152,0.0967 -0.3919,0.161 -0.6251,0.2275 -1.6134,0.4602 -3.2275,-0.3771 -4.5751,-0.6084 0.2388,-0.2248 0.1539,-0.1828 0.3857,-0.28l1.1124 -0.4809c1.7697,-0.7838 1.3767,-0.6949 2.5546,0.2058l-0.7057 -0.8255c-0.1998,-0.0426 -0.0384,-0.0113 -0.2548,-0.1076 -0.2662,-0.1183 0.0789,-0.0429 -0.3246,-0.1143 -1.0718,-0.2607 -3.2615,-0.5372 -3.2778,-0.5768 -0.0121,-0.0295 -0.0447,-0.0247 -0.0664,-0.0384 -1.0576,0.2254 -2.2509,-0.2549 -3.3309,-0.0326 0.1578,-0.7217 0.6594,-0.4523 1.2294,-0.3448 0.457,0.0861 0.9224,0.124 1.2892,0.2383l-2.1527 -0.3776c0.2821,-0.4167 0.9428,-1.5412 1.3271,-1.7633 0.072,-0.3639 0.1084,-0.3398 0.3554,-0.6048 0.5621,-0.0488 1.2746,0.1667 1.7148,0.296 0.3261,0.0467 0.7141,0.1507 0.9816,0.2347l0.8359 0.3845c0.8309,0.0089 2.709,1.2107 3.3715,1.6014 0.749,0.4416 1.4885,1.0048 2.1881,1.5381 0.1938,0.1477 0.4575,0.3116 0.5616,0.5425 0.4469,0.1814 0.5819,0.4165 0.9271,0.743 0.3052,0.2889 0.5536,0.4887 0.7671,0.9109 0.2283,0.0541 0.1861,0.0525 0.3733,0.2894l0.9891 1.2554c0.2936,0.4361 0.9269,1.3858 1.1104,1.9121l0.0775 0.1701c0.8393,1.0048 1.6711,6.1347 0.9456,7.642 -0.1022,0.6067 -0.3029,1.055 -0.5487,1.6106 -0.3889,0.8795 -0.1393,0.6107 -0.8617,1.0855 -0.3394,-0.5428 0.6479,-0.9823 0.4328,-1.9416 -0.1891,0.4018 -0.3296,0.8623 -0.5249,1.2684 -0.1953,0.4061 -0.6167,0.8655 -0.5422,1.1355l-0.2138 0.1098c-0.3519,-0.0141 -0.1728,0.1181 -0.2913,-0.0653l0.8275 -2.5312c-0.3074,0.4345 -0.2585,0.4504 -0.4467,1.0436 -0.157,0.4946 -0.2868,0.5901 -0.5249,0.948 -0.5219,0.7843 -0.8009,1.5073 -1.2392,1.7093 0.6655,-1.1443 1.5536,-2.4177 1.7018,-3.7445l-0.2064 0.3761c-0.1515,0.4729 -0.0199,0.3218 -0.3754,0.9012 -0.1995,0.3251 -0.482,0.823 -0.716,1.0359 -0.0237,-0.3842 -0.032,-0.1347 0.2668,-0.8474 0.1419,-0.3381 0.4897,-0.7905 0.562,-1.4077l-1.1247 1.8138c-0.1559,0.2079 0.0457,0.0488 -0.2506,0.1934l0.2838 -1.0197c0.1208,-0.3812 0.2744,-0.4891 0.3758,-0.9386 -0.537,0.5973 -0.3584,0.6148 -0.6786,1.1697 -0.7022,1.2174 -1.3367,2.4981 -0.2847,0.3127l0.1564 -0.4471c0.3224,-0.6936 0.7743,-1.2615 0.7429,-1.7427l-0.8969 1.5803c-0.1708,0.3275 -0.1592,0.2993 -0.3338,0.4106l0.4581 -1.3597c0.1678,-0.5259 0.0253,-0.3454 -0.0538,-0.4591l-0.6084 1.5063 -0.5112 0.0998c-0.1963,0.4321 -0.1815,0.4434 -0.512,0.6058 0.4414,-0.8611 0.2562,-0.3163 0.6257,-1.3859 -0.3299,0.4097 -0.9665,1.1487 -1.1055,1.6373 -0.1257,0.3512 -0.0557,0.2587 -0.3195,0.5358l-0.044 -0.0351zm-10.4941 -3.5625c0.6344,-0.2631 1.8165,0.2448 2.2668,0.6692 0.7182,0.6773 0.7726,1.2727 0.9793,1.6793 0.0794,0.1565 0.0828,0.1273 0.1599,0.2145 -0.5746,-2.2486 -0.6747,-1.4486 -0.8681,-2.0718 -0.8696,-0.5967 -1.9613,-1.1667 -3.3648,-0.5785 -1.3407,0.5617 -1.3435,1.267 -1.7543,2.4892 0.466,-0.7731 0.6973,-2.2295 2.5812,-2.4019zm5.042 6.9041c-0.0276,-0.6726 0.4523,-0.4632 0.6937,-0.0991 -0.2335,0.1173 -0.3661,0.1826 -0.6937,0.0991zm0.2632 0.8098l-0.3795 -0.3827 1.0068 -0.8446 -0.616 -0.4223 0.7418 -0.3915c0.382,0.8794 0.6937,1.139 -0.1119,1.9717l-0.609 0.5868c-0.4532,0.2688 -0.2814,0.0276 -0.3322,-0.0462 0.0789,-0.164 0.1681,-0.1923 0.384,-0.3209l-0.084 -0.1503zm-0.953 1.1023c2.0427,-0.1808 3.1885,-3.3146 2.7003,-4.2709 -0.7661,-0.1736 -0.8103,0.2799 -1.2362,0.7352 -0.1214,0.1296 -0.2278,0.186 -0.3421,0.2917 -0.4504,0.4168 -0.8837,0.9068 -1.0019,1.759l0.2817 0.4555c-0.5569,0.2971 -0.7942,0.1346 -1.2169,0.6922 0.4986,-0.98 1.3914,-2.8654 2.0022,-3.6945 0.3419,-0.464 0.7341,-0.7557 0.879,-0.977 0.4654,-0.1118 0.3038,-0.1679 0.8263,-0.0985 0.4146,0.656 0.3447,1.156 0.2742,2.0827 -0.2003,0.5685 -0.1942,1.029 -0.5898,1.6649 -0.8058,1.2951 -2.5775,2.8292 -4.2444,2.493l1.6676 -1.1333zm-18.1906 -6.8939c0.1161,-1.8978 3.5515,-2.7466 4.6789,-1.3489l1.0037 1.5836c0.3203,-0.2541 0.0047,0.1829 0.1423,-0.1594 -1.068,-4.0607 -6.5302,-2.3488 -6.1457,0.6104l0.3208 -0.6857zm7.0516 64.3628l2.9256 -0.5855c0.0631,0.1152 0.055,-0.1091 0.1508,0.3497 0.2498,1.1949 -0.1545,1.1009 -0.8839,1.0685 -0.6299,-0.0281 -0.1435,0.0906 -0.8196,-0.11l-0.1538 0.2332 -0.8533 0.0686c-0.1905,-0.2688 -0.4084,-0.6104 -0.3658,-1.0245zm2.9065 -1.6849l0.238 0.0372 0.0516 0.5039 -0.7396 0.2622c-0.5344,0.1908 -1.8852,0.5235 -2.4111,0.5035l0.0761 -0.4453 2.785 -0.8615zm0.0887 -6.6042c0.0549,1.2633 0.0237,3.5335 -0.001,4.9122 -0.0022,0.1246 -0.0879,0.6558 -0.0878,0.6585 0.0044,0.1254 0.1046,0.1282 0.1047,0.5084l-2.7683 0.7925c-0.3334,-0.9375 -0.2335,-0.7109 -0.0036,-0.8765 -0.3676,-0.4934 -0.3228,-0.3197 -0.3344,-0.977 -0.0079,-0.4477 0.0257,-0.9022 0.0482,-1.2876 0.0501,-0.8582 0.0506,-1.9533 0.0221,-2.8146l0.0226 -1.1701 2.0739 -0.0602 0.1611 2.8572c0.3744,-0.6332 0.0436,-2.1007 0.2132,-2.9164l0.5129 0.0195 0.0364 0.3541zm-3.2948 0.8836l-0.0443 5.6903 -1.4236 -0.3603 -0.1066 0.2226c-0.3684,-0.355 -0.2527,-0.1926 -0.4926,-0.2336l-0.3145 -0.0819c-0.0579,-0.0169 -0.2491,-0.0742 -0.3294,-0.1006 -0.4451,-0.1464 -0.8237,-0.2914 -1.2029,-0.4278 0.7357,0.5882 0.9866,0.5404 1.3517,0.8069l-3.0344 -0.4829 2.7344 0.7913 2.6052 0.4953 0.3385 0.1562 -0.0883 0.4887c-1.0223,-0.165 -4.9011,-0.7956 -5.9733,-1.2365 -0.4257,-0.175 -0.0497,0.0022 -0.2481,-0.1604 -0.6152,0.0119 -1.0382,-0.3196 -1.6494,-0.3617 0.2425,0.183 0.0857,0.0799 0.1173,0.1637 0.3358,0.0922 1.3351,0.4994 1.5592,0.6684l3.37 0.9358c2.3976,0.5842 1.1216,-0.365 2.9602,1.426 -4.5231,0.0899 -5.4708,1.4611 -6.9355,1.7805l0.2327 0.4049c0.1055,-0.0416 0.2313,-0.0777 0.323,-0.1315 0.1418,-0.0831 0.1103,-0.033 0.1964,-0.3156l0.5328 0.0874 -0.5009 0.6088c0.4546,-0.0105 1.2269,-0.2613 1.699,-0.398 0.6035,-0.1747 1.0873,-0.2785 1.7,-0.4105 0.802,-0.1728 2.9759,-0.6207 3.4907,-0.8397l0.276 0.0054c-1.7132,0.7302 -4.6378,2.8964 -6.3257,4.022 -0.5919,0.3947 -0.9265,0.2662 -1.6041,0.5075 -0.5338,0.19 -0.939,0.5433 -1.3647,0.3868l-1.6362 0.0952c-0.3725,-0.1825 -0.7461,-0.4892 -1.2944,-0.5781l-1.4789 0.4034 -2.1332 -0.1496c-0.8738,-0.7722 -0.9328,-0.9357 -0.7405,-2.3914 0.1476,-1.1179 0.7789,-4.7752 1.0351,-5.7619 0.1424,-0.5486 1.0131,-1.7135 1.5803,-1.868 -0.1303,-0.3117 0.0696,-0.1199 -0.1683,-0.2397l-1.1654 1.032 1.1275 -2.1147 -0.7128 0.7365 -0.1451 -0.3118 0.1621 -0.3198c0.3166,-1.1565 0.0152,-1.8604 1.0461,-2.1396 1.67,-0.4523 1.3051,-0.43 2.6736,-1.0274 0.1642,-0.3741 0.7903,-0.834 1.0671,-1.1 1.1028,-0.0648 2.284,0.3052 3.1009,0.2434 0.7023,0.0723 0.3458,0.2165 0.7863,0.2009 0.3026,-0.0108 0.2916,-0.08 0.8483,-0.0353l-0.2117 0.5204 -1.8941 0.9831c-0.1982,0.0749 0.0108,0.0491 -0.4129,0.0876l1.7736 -0.5525c0.4118,-0.1833 1.3929,-0.7469 1.7762,-0.7049 0.2365,-0.2846 0.2771,-0.1949 0.7367,-0.1995 0.6134,-0.0063 1.9175,-0.0431 2.4059,0.0172l0.025 1.067zm2.677 8.9047l7.1612 1.0992 0.0016 -0.2296 0.3184 0.1113c0.004,0.0131 -0.0047,0.0241 -0.0053,0.0406l-0.0264 0.1118c0.0391,0.116 -0.316,-0.0381 0.2481,0.1429 0.7755,0.2487 1.1952,0.463 1.9591,0.8083l-0.5237 -0.2811c-0.1734,-0.1284 -0.0903,-0.0321 -0.2016,-0.2162 -0.3227,-0.1057 -2.8778,-1.6773 -2.944,-1.7755 -0.2033,-0.0703 -1.4093,-0.5869 -1.6072,-0.7595l0.7787 0.116c-2.2395,-0.3602 -2.1072,-0.4321 -3.3125,-0.3164 -0.0077,0.0007 -0.0362,-0.0019 -0.0439,-0.0012 -0.008,0.0007 -0.0377,-0.0036 -0.0459,-0.0025 -0.2948,0.0377 -0.2406,0.1922 -0.4892,-0.0811l-0.1853 0.2991 -0.1885 -1.1753 2.8478 -1.1761 1.2829 -0.7063c0.0178,-0.0242 0.1519,-0.2382 0.16,-0.2459l-1.5087 0.5828c-0.2523,0.1025 -0.2746,0.1336 -0.4962,0.2332 -0.501,0.2252 -1.7191,0.6856 -2.1774,0.731l-0.0256 -0.6917c0.4426,-0.1638 4.6835,-1.5833 5.0355,-1.9259l-5.0758 1.5073 -0.0511 -0.8678 -0.0311 -5.1208 0.0434 -0.4255c0.599,0.2082 1.9352,0.0406 2.6419,-0.0218l0.936 -0.1049c0.2676,-0.015 0.7312,-0.0484 1.0866,0.2241l0.294 -0.0316 -0.3138 -0.4021c0.707,-0.08 0.4125,-0.1511 1.222,0.3606l-0.2478 -0.4288 1.7653 1.15 -0.9109 -0.1544 0.1387 0.261c0.2044,-0.0402 0.6548,0.1529 0.7735,0.2614 0.182,0.1663 0.2094,0.4442 0.3134,0.7549 0.1951,0.583 0.4711,1.0056 0.6274,1.5598 0.3619,0.6018 0.7401,1.5283 1.0618,2.1823 0.7906,1.6076 2.501,4.9777 3.3491,6.4938l0.1377 0.4428c0.1231,0.0978 0.1975,0.0901 0.1718,0.3645 0.3797,0.3061 0.9654,1.8379 1.0249,2.2601l-0.6614 0.6823c-0.9155,-0.7792 -0.8659,-0.9095 -1.8136,-0.7846l-0.1964 0.0434c-0.4083,0.5006 -0.1482,0.0865 -0.6704,0.8412l-1.2441 -0.8428c-0.6958,-0.2637 -1.0834,0.0939 -1.7285,0.1217l-0.756 -0.5064c-0.6412,-0.3918 -1.7453,-0.8948 -2.459,-1.2646 -1.2043,-0.6241 -2.211,-1.0871 -3.1654,-1.6935 1.4582,0.525 5.019,1.9683 6.1829,2.6148 1.1837,0.6574 0.7744,0.2828 0.8765,0.2288l-2.5337 -1.4706c-1.234,-0.7083 -0.4373,-0.2598 -1.1462,-0.7472l-3.439 -1.475c-0.3715,-0.1358 -1.4714,-0.5171 -2.2146,-0.7043zm27.9937 5.1242c-0.1372,0.4317 -0.153,0.3416 -0.7802,0.8698 -0.3686,-0.4085 -0.7963,-0.9417 -1.2703,-1.3978l-2.6643 -2.6613c-0.3022,-0.2878 -0.297,-0.3862 -0.6018,-0.6862 -0.3273,-0.3221 -0.4366,-0.3825 -0.5984,-0.793 -1.9263,-1.8148 -2.7768,-3.1608 -4.2965,-5.3863 0.0875,0.1735 1.7645,1.7773 1.9325,1.9364 -0.2011,-0.2646 -1.2964,-1.4847 -1.3945,-1.7501l-0.0662 -0.6238c0.2998,0.1066 2.4877,1.8857 2.7911,2.1744 1.0713,1.0186 2.8276,2.6437 3.8612,3.7113 0.2849,0.2943 0.313,0.3773 0.6292,0.6495 0.2489,0.2143 0.4419,0.3806 0.6843,0.599 0.471,0.4244 2.227,1.6062 2.4231,2.1692l0.0991 0.2578 -0.7483 0.9311zm-35.281 -65.2191c2.4101,0.1233 3.408,0.3456 6.2356,0.2895l6.213 -0.2504c-0.742,2.6517 -8.3587,4.6467 -11.9405,0.742 -0.0959,-0.1046 -0.173,-0.175 -0.2484,-0.2725 -0.1957,-0.2531 -0.1764,-0.3752 -0.2597,-0.5086zm14.7802 48.4242c-0.3977,-0.0729 -2.5057,0.5187 -3.3187,0.6116l-0.494 0.0362c0.4435,-0.3393 0.447,-0.2384 1.0112,-0.4137 0.3344,-0.104 0.5926,-0.1675 0.9622,-0.2429 -0.5407,-0.1015 -0.2241,-0.0522 -0.199,-0.1372 0.4639,-0.1214 1.7745,-0.5776 2.1497,-0.4254l-0.3163 0.4162 0.2049 0.1552zm-4.9595 0.7705l-1.6657 0.0629 -1.894 0.0645c0.5483,-0.2989 0.3127,-0.2256 0.8326,-0.3017l2.4438 -0.4298c1.0848,-0.2175 2.0717,-0.5445 3.1819,-0.6921l-0.3291 0.3616c-0.1956,0.1734 -2.5392,0.9109 -2.5695,0.9346zm-11.3708 0.062c-0.7834,-0.1061 -3.6666,-0.6263 -4.1228,-0.5216 -0.172,-0.1356 -0.2253,-0.1574 -0.5108,-0.2264 -0.1861,-0.0449 -0.3557,-0.066 -0.5529,-0.0983 -0.2662,-0.0437 -0.6337,-0.1294 -0.8528,-0.1883 5.5484,0.3562 5.3741,0.5904 11.5608,-0.092 1.7316,-0.1911 3.5839,-0.4936 5.3367,-0.8347l4.6354 -0.757c0.4763,-0.0587 0.4894,-0.0306 0.6355,0.0229 0.0275,0.29 -0.1275,0.3554 -0.5631,0.515 -4.2315,1.5506 -11.2901,2.4881 -15.566,2.1804zm-4.094 -0.0469c-0.1261,0.2746 -0.3297,0.4693 -0.3869,0.6668 -0.3079,-0.1145 -0.2294,0.2352 -0.2596,-0.134 -0.3831,0.423 -0.2177,0.3103 -0.8473,0.5241 -0.4386,0.1489 -0.7287,0.2423 -1.1802,0.2763l0.3677 -1.4111c0.6848,-0.1513 1.1037,-0.0745 1.7567,0.089 0.6526,0.1634 -0.3483,0.3732 0.5496,-0.0111zm-0.5256 0.9428c0.8535,-0.43 0.436,-0.9074 1.4522,-0.8325 -0.1294,0.5222 -0.5911,0.9322 -0.9784,1.1457 -0.6642,0.4843 -1.8651,0.9216 -2.8594,1.0562 0.118,-0.8447 0.2742,-0.6345 1.0526,-0.8541 0.4773,-0.1347 0.9021,-0.2452 1.333,-0.5153zm-3.3774 3.3526l-1.5434 7.51c-2.1751,1.3395 -1.3639,1.0087 -3.6854,1.7366 0.3926,2.0055 0.5085,1.3415 -0.4009,2.748l-0.068 0.8438c2.3474,-0.1283 1.8242,-0.1612 4.3446,-0.9901 -0.2145,-0.2733 -0.4795,-0.478 -0.9023,-0.5276 -0.7126,-0.0836 -1.4804,0.244 -1.8522,0.899 -0.077,0.1355 -0.2885,0.8198 -0.8189,0.3919 -0.0543,-0.0928 -0.2032,0.1935 -0.0713,-0.3098 0.0332,-0.1269 0.4757,-0.598 0.5859,-0.7237l-0.7152 0.4121 0.815 -1.1102c-0.0866,-0.3572 -0.1747,-0.4035 -0.3182,-0.7155 -0.1909,-0.4151 -0.1615,-0.3393 -0.0299,-0.7464l1.7802 -0.2038 0.0116 -1.0033 1.262 -0.1967c0.1053,0.9177 0.0496,0.812 -0.3754,1.3678l0.1818 1.0642 -1.6579 -0.3491c0.229,0.1971 -0.1738,0.0187 0.3276,0.1936 1.3308,0.4644 0.7204,-0.0276 2.1927,1.5492 -0.6038,0.9165 -0.7385,0.6786 -0.3943,0.9617 0.1514,-0.345 0.8583,-0.8916 1.053,-0.9173l1.5292 0.2973c0.024,-0.0172 0.0575,-0.076 0.07,-0.054 0.0123,0.0217 0.0544,-0.0398 0.0717,-0.0494 0.156,-0.0868 -0.0084,-0.0182 0.2269,-0.1142 0.1639,-0.0668 0.1867,-0.0516 0.3888,-0.1374 0.9543,-0.4054 0.9997,-0.1652 2.5756,0.5317 0.6811,-0.5744 0.3607,-0.7948 1.9199,0.3243 0.0186,-0.0167 0.0424,-0.0732 0.052,-0.0545 0.0179,0.0354 0.0819,-0.0773 0.1214,-0.0959 0.3497,-0.1648 0.2669,-0.0111 0.769,-0.159l-0.7217 -0.1841 0.3204 -0.2333c1.3799,-0.7523 2.0907,0.0759 3.2029,0.8387l-0.6332 -0.902 0.5529 -0.0874 0.2803 0.9994c0.0128,-0.023 0.0227,-0.0887 0.0264,-0.0743 0.0039,0.0146 0.02,-0.0588 0.0257,-0.0754l0.1637 -0.381 1.4641 0.5569 3.3798 0.0017c-0.4584,-1.4151 -0.4768,-1.0771 -0.1641,-1.6505 0.2905,-0.5328 0.3162,-0.9873 0.5148,-1.5111l0.7784 -1.8404c0.5708,0.4304 1.0726,3.083 1.3191,4.0482l-0.6827 0.9485 3.5679 0.0019 1.0305 -0.7654c-0.6411,0.4004 -0.3334,0.1358 -0.9066,0.7632 0.4451,-0.0709 1.3307,-0.8064 1.8548,-0.7625 0.678,0.0568 -0.195,0.2014 0.553,0.2017 0.4638,-0.8335 0.7931,-0.5816 1.7037,-0.4261 -0.0126,0.0237 -0.0348,0.0323 -0.0423,0.0687l-0.3094 0.3452c-0.4453,0.4661 -0.3673,0.2876 -0.089,0.4284 0.1137,-0.4206 1.5123,-0.9892 1.9213,-0.9024l2.0257 0.9404c0.2998,-0.3459 0.5943,-1.0399 1.2493,-0.9552l1.2947 1.0226 0.866 0.0026 -0.438 -0.417 1.3085 -0.8338c0.5852,0.5831 0.3061,0.3955 1.8422,0.6205l-0.2831 0.6411 1.338 0.0002c-0.1081,-0.637 -4.0476,-8.2012 -4.667,-9.4348 0.0401,0.2964 2.2099,3.2031 2.8638,4.3754 1.1241,2.0154 1.4966,2.945 2.4119,5.022 0.5505,0.0478 1.2044,-0.0939 1.6921,0.0853 -0.3115,-1.5048 -6.5738,-8.3541 -6.6934,-10.1396l2.732 2.918 -0.805 -1.5957c-0.3347,-0.5401 -0.6716,-0.8938 -0.7649,-1.6767l0.4274 -0.0323 5.748 7.8206c0.3958,0.5337 1.7666,2.1416 1.97,2.5973 0.09,-0.0016 0.0945,-0.1515 0.0674,0.0408l0.794 -0.0386 -3.7317 -4.3522c-0.8076,-1.276 -3.5858,-4.3834 -4.0245,-5.6126l5.3751 5.9647c-1.5259,-1.8631 -2.1398,-2.5419 -3.5073,-4.4977 -0.3686,-0.5271 -0.6968,-0.9501 -1.0344,-1.5339l1.4858 1.9315c0.2777,0.3272 0.3025,0.3967 0.5878,0.5949 0.4413,0.3067 0.764,0.7639 1.1482,1.1852 0.2352,0.2578 0.5807,0.6112 0.6802,0.8703 0.3126,0.814 1.4995,2.2819 2.0741,2.992l1.6425 1.8832c0.1119,0.14 0.1414,0.1513 0.2527,0.2744l0.2073 0.2569c0.0088,-0.0182 0.034,0.0488 0.0503,0.0736l1.746 0.0145c1.2107,-1.191 2.1398,-2.6477 3.0909,-4.1387 1.7806,-2.7914 0.0656,-2.8501 -1.9908,-3.8897 -5.088,-2.5723 -4.1144,-2.0539 -9.0292,-5.7188 1.5785,-2.4391 0.4717,-2.4243 0.8956,-3.8106 0.2226,-0.7278 1.9725,-4.7884 2.3491,-5.6848 1.1296,0.3957 0.7294,0.0104 1.743,-0.092 0.289,0.4979 0.4356,0.449 1.0081,0.6089l0.8666 -1.0615 1.48 0.2104 0.5423 -1.3698c0.3989,-0.3088 0.9343,-0.4487 1.1245,-0.9017l-0.5739 -1.4448c0.2173,-0.3409 0.8395,-0.6928 0.7851,-1.2544l-0.895 -1.1989c0.0297,-0.9749 0.0881,-1.3144 -0.3706,-1.9994 -0.4257,-0.6356 -0.2048,-0.8713 0.0253,-1.7168 0.3006,-1.1045 0.5999,-1.9624 0.3841,-3.0556 -0.0446,-0.226 -0.0994,-0.5473 -0.224,-0.7345 -0.0955,-0.1433 -0.0848,-0.0882 -0.1355,-0.1246 -0.2595,-0.0498 -0.2503,0.1889 -0.225,-0.0643l-0.2348 0.3609c-0.3903,-0.2238 -0.2706,-0.1247 -0.4159,-0.0803 -0.1336,-0.4584 -0.1331,-0.4875 -0.5798,-0.5748 -0.1313,-0.0257 -0.1127,-0.0357 -0.3398,-0.0287l-0.0829 -0.7595c-0.1145,-0.1026 -0.2187,-0.1509 -0.4115,-0.3575 -0.1705,-0.1827 -0.185,-0.2267 -0.3766,-0.386 -0.3442,-0.2862 -0.6165,-0.5272 -0.9497,-0.6756 -0.1195,0.1288 0.0245,-0.0107 -0.2147,0.1524 -0.1835,0.1251 -0.1883,0.1364 -0.351,0.232 0,0.7764 -0.0459,0.2179 0.1953,0.3753l0.358 -0.0791c-0.1936,0.3202 -0.0551,0.154 -0.4035,0.3946 -0.193,0.1333 -0.1881,0.1074 -0.2991,0.2672 -0.4003,0.8336 -0.2569,0.741 -0.061,0.8548l-0.2995 0.3967c0.9869,-0.385 0.786,-0.3962 1.7887,-0.3962 -0.4737,0.5061 -0.2756,0.3313 -0.5928,0.436l-0.8464 0.3667c-0.0517,0.0413 -0.116,0.1219 -0.1511,0.1691 -0.1032,0.1386 -0.0411,0.0693 -0.1357,0.2426l0.8136 0.4757c0.0033,0.0019 0.0274,0.02 0.0295,0.0107 0.0022,-0.0092 0.0203,0.0059 0.0306,0.0058 -0.1809,0.0677 -0.7062,0.1669 -0.7567,0.3558l0.0267 0.2158c0.0063,0.0196 0.0621,0.0487 0.0896,0.0713 -0.6163,-0.1625 -0.458,-0.0436 -0.6395,0.1032 0.6315,0.3434 0.3204,0.2757 1.06,0.1651 0.7241,-0.1083 0.5912,0.1747 1.2034,0.125l-0.4383 0.0612c0.5924,0.5552 0.6495,0.3134 0.0821,0.6209l0.3082 -0.3083 -0.9355 -0.0245 -0.5343 -0.207 0.3743 -0.0494c-0.4322,0.3397 -0.4793,0.231 -0.6622,0.4702l1.0645 1.2327 -0.1913 0.332c-0.0433,0.0938 -0.0515,0.1375 -0.1066,0.2313l-0.3772 -1.3635c-0.2839,-0.2331 -0.8875,-0.297 -1.2931,-0.1205 -0.3083,0.134 -0.5636,0.5365 -0.7469,0.8381 -0.2441,0.4015 -0.3848,0.5145 -0.6671,0.8726l-0.4285 -0.1867 -0.1535 0.7447c0.0267,-0.3878 0.0841,-0.1544 -0.2245,-0.441l-0.2138 0.494c-1.2905,-0.3157 0.4103,0.2774 -0.5334,-0.1701 -0.6161,0.6768 -0.2528,0.3073 -0.5338,1.0557l-0.3223 -0.4334c-0.0465,-0.1008 0.2964,-1.4165 0.9048,-1.7304l-0.2935 -0.0398c-0.5279,0.079 -0.6572,0.5439 -0.7459,1.1414 -0.2338,1.5748 -1.768,0.7685 -1.6365,2.1122 0.0642,0.6571 0.4898,0.7039 0.7302,1.1904 0.2173,1.1159 -0.9319,1.4159 1.0759,2.5011 -0.531,1.1374 -1.7138,4.2711 -2.6338,4.5164 -0.4115,0.1098 -1.4746,-0.2033 -1.7406,-0.4044l1.8743 -1.4315 -0.5176 -0.0727 -0.0659 0.1072c-0.3102,0.4776 0.2001,0.0557 -0.3209,0.1182 -0.3443,0.0413 -0.0287,-0.08 -0.1475,0.106l-0.1072 -0.32c-0.3449,0.3586 -0.3539,0.3554 -0.7455,0.2133l0.1652 0.4794c0.0174,0.3721 0.1092,0.1687 -0.1657,0.2673l-0.0006 -0.1067c-0.8431,0.158 -0.5529,0.0564 -1.4921,0l-0.0871 0.1552c0.1932,0.2547 0.0731,0.1461 0.4223,0.346l-0.3015 0.2795c-0.3171,0.221 -0.3997,0.2276 -0.6396,0.5768 -0.0175,0.0257 -0.0496,0.0291 -0.0566,0.0741 -0.008,0.0514 -0.0796,0.1259 -0.0898,0.1522 -0.0486,0.1251 -0.0368,0.0597 -0.0538,0.2459 -0.14,0.3081 -0.0057,0.0653 -0.1569,0.2606l-0.3314 0.3618c-0.4068,0.1685 -0.0824,-0.0052 -0.1416,0.2069l-0.3374 0.4765c0.0713,0.2291 -0.0583,0.1248 0.1797,0.1115l0.1085 -0.0605c0.0722,-0.0609 0.062,-0.0426 0.1503,-0.1436 0.7748,-0.886 1.2011,-2.3328 2.0575,-2.0336 1.0381,0.0983 3.0903,0.6642 3.5929,1.1892l0.1138 -0.0169 0.0307 -0.2508 0.5319 0.3898c-0.0782,-0.0937 -0.1217,-0.1446 -0.2256,-0.2522l-0.3278 -0.3973 -0.7329 -0.2311c0.4075,-0.6322 0.4064,-0.0841 1.197,-1.6521 0.3266,-0.6479 0.6081,-1.202 0.9249,-1.8452 0.6077,-1.2337 1.1256,-2.642 1.7141,-3.8846 0.3156,-1.545 2.1126,-1.02 3.1123,-0.4458 0.4738,0.2722 0.5337,0.2681 0.8441,0.6275l-0.539 1.3492c-0.0922,0.172 -0.1722,0.3459 -0.2506,0.4939 -0.0579,0.1093 -0.0494,0.1133 -0.1202,0.211 -0.1172,0.1615 -0.0538,0.0724 -0.192,0.1857 -0.0275,0.2881 -0.0952,0.3882 -0.2417,0.6544 -0.2091,0.3798 -0.2724,0.4049 -0.2924,0.7476 -0.1244,0.0967 -0.0751,0.032 -0.1896,0.1718l-2.8232 6.2548 -0.0389 0.2754 -0.2851 0.0023c0.0256,0.7076 0.2088,2.2822 -0.1671,2.761 0.0479,0.3594 0.0566,0.5668 -0.207,0.7884 -0.3426,0.6073 -0.4042,0.063 -0.8503,0.4575 -0.1031,0.0911 -0.1059,0.1164 -0.2317,0.2229l-0.1047 0.0828c-0.8713,0.6169 -0.7377,1.2982 -1.419,1.8914 -0.1481,0.1289 -1.076,0.6722 -1.2627,0.2288 -0.3429,-0.0896 -0.1649,-0.0289 -0.4403,-0.262l1.9381 -3.8787c-1.218,1.7158 -1.5444,2.3187 -2.5937,3.9478 -0.8592,-0.0689 -1.2264,-0.3538 -1.5491,-0.9068 0.1754,-0.5934 0.8872,-1.5174 1.2178,-2.0263 0.1751,-0.2694 1.0733,-1.8378 1.1712,-1.9207l-0.0386 -0.3073c-0.2491,0.4228 -0.0542,0.1141 -0.3097,0.2468 -0.0526,0.44 -1.9081,3.0929 -2.3169,3.6515 -0.1326,0.2397 -0.1376,0.3636 -0.4534,0.4341 -0.2306,0.0515 -0.4266,0.0106 -0.6229,-0.0587 -0.3314,-0.117 -0.626,-0.3562 -0.8137,-0.6561 -0.2405,-0.5147 -0.1692,-0.8003 0.2347,-1.144 0.1154,-0.3865 0.4857,-0.708 0.7353,-1.0603 0.534,-0.7535 1.9171,-2.5275 2.0329,-3.257 -0.8456,0.6178 -1.4834,2.1794 -2.2814,2.9642 -0.1777,0.4114 -0.6208,0.9006 -1.0736,1.0576 -0.5624,-0.5509 -1.1988,-1.6572 -0.5849,-1.9662 0.1848,-0.7406 1.5415,-1.8065 1.8717,-2.6296 -0.238,0.0133 -0.1084,0.1176 -0.1797,-0.1115l0.3374 -0.4765c-0.3346,-0.0555 -0.1178,0.0726 -0.2896,-0.0996 0.0226,-0.7245 -0.2955,-1.1101 -0.3653,-1.8567 0.5069,0.2745 0.9034,1.0248 0.7965,1.7494l0.3314 -0.3618c0.1512,-0.1953 0.0169,0.0475 0.1569,-0.2606l-0.2388 -0.0008c-0.2569,-0.8287 -0.4879,-1.1267 -0.7404,-1.786 -0.1964,-0.1475 -0.0428,0.1407 -0.0854,-0.1528 -0.0009,-0.0056 0.048,-0.2701 0.0492,-0.2738 0.7811,0.0925 1.1719,0.4704 1.7344,0.5389l0.0871 -0.1552c0.9392,0.0564 0.649,0.158 1.4921,0l0.0006 0.1067c0.2749,-0.0986 0.1831,0.1048 0.1657,-0.2673l-0.1652 -0.4794c0.3916,0.1421 0.4006,0.1453 0.7455,-0.2133l0.1072 0.32c0.1188,-0.186 -0.1968,-0.0647 0.1475,-0.106 0.521,-0.0625 0.0107,0.3594 0.3209,-0.1182l0.0659 -0.1072 0.5176 0.0727c0.3926,-0.0949 0.7576,-0.6134 1.0365,-0.9151 -0.1791,-0.5132 -0.7732,-1.2725 -1.104,-1.8378 -2.6576,-4.5409 -3.7374,-8.6311 -4.1581,-13.9641 -0.1316,-1.6673 -0.152,-1.2307 0.2741,-2.7647 0.819,-0.0346 1.6301,0.7344 2.401,1.3578 2.2481,1.8181 3.7638,3.1445 5.8595,5.0257l0.2862 0.1859 0.1815 0.2993c0.1927,0.3365 -0.0942,0.4264 -0.2285,0.9489 -0.0931,0.8125 0.0599,0.3246 -0.2865,0.9213 -0.2507,0.4321 -0.0612,0.4605 -0.4805,0.6862 -0.3665,0.1972 -0.4159,0.0716 -0.7048,0.431l0.2935 0.0398c-0.6084,0.3139 -0.9513,1.6296 -0.9048,1.7304l0.3223 0.4334c0.281,-0.7484 -0.0823,-0.3789 0.5338,-1.0557 0.9437,0.4475 -0.7571,-0.1456 0.5334,0.1701l0.2138 -0.494c0.3086,0.2866 0.2512,0.0532 0.2245,0.441l0.1535 -0.7447 0.4285 0.1867c-0.0827,-1.4876 1.2352,-2.1888 2.6056,-2.4435l0.5343 0.207 0.9355 0.0245 -0.3082 0.3083c0.5674,-0.3075 0.5103,-0.0657 -0.0821,-0.6209l0.4383 -0.0612c-0.6122,0.0497 -0.4793,-0.2333 -1.2034,-0.125 -0.7396,0.1106 -0.4285,0.1783 -1.06,-0.1651 0.1815,-0.1468 0.0232,-0.2657 0.6395,-0.1032 -0.0275,-0.0226 -0.0833,-0.0517 -0.0896,-0.0713l-0.0267 -0.2158c0.0505,-0.1889 0.5758,-0.2881 0.7567,-0.3558 -0.0103,0.0001 -0.0284,-0.015 -0.0306,-0.0058 -0.0021,0.0093 -0.0262,-0.0088 -0.0295,-0.0107l-0.8136 -0.4757c0.0946,-0.1733 0.0325,-0.104 0.1357,-0.2426 0.0351,-0.0472 0.0994,-0.1278 0.1511,-0.1691l0.8464 -0.3667c0.3172,-0.1047 0.1191,0.0701 0.5928,-0.436 -1.0027,0 -0.8018,0.0112 -1.7887,0.3962l0.2995 -0.3967c-0.1959,-0.1138 -0.3393,-0.0212 0.061,-0.8548 -0.7305,0.2561 -1.0523,0.725 -1.4105,1.3781l0.7197 -0.4575c-0.3682,0.5329 -0.7541,1.0916 -1.4542,1.2116 0.496,-1.2641 1.3044,-2.3781 2.4896,-2.7149 -0.2412,-0.1574 -0.1953,0.4011 -0.1953,-0.3753 0.1627,-0.0956 0.1675,-0.1069 0.351,-0.232 0.2392,-0.1631 0.0952,-0.0236 0.2147,-0.1524 -0.2086,-0.3122 -1.1251,-1.1717 -1.4058,-1.4456l-1.546 -1.5433c-0.4434,-0.5063 -0.5,-0.6537 -1.1182,-1.2311l-3.6116 -3.6393c-0.1796,-0.2259 -0.3126,-0.5905 -0.5743,-0.6989 -0.4909,-0.2032 -0.3559,-0.232 -1.0565,-1.1487l-0.3963 0.2328 -0.2437 -0.9942c-0.1281,0.1463 -0.1295,-0.1239 -0.074,0.2446 0.0292,0.1944 0.2205,0.0137 -0.1614,0.7858l-1.7606 3.3989c0.1246,-0.9768 1.5952,-3.787 1.6038,-4.6682 0.0061,-0.6298 -0.3123,-1.1628 -0.7373,-1.5577l-1.3964 6.441c-0.0724,-2.2255 1.3131,-6.1366 1.279,-7.2837 0.4688,0.2539 0.7687,0.9112 1.2292,1.5676 0.0788,0.1123 0.1659,0.2712 0.2576,0.3764 0.473,0.543 0.2345,-0.3375 0.5878,1.3979 0.7367,0.2607 1.1656,0.593 1.5218,1.3034 0.4601,0.9175 0.6872,0.9628 1.2969,1.5723 0.9281,0.9275 1.8633,1.9141 2.867,2.8939 0.8585,0.8382 3.6687,3.7272 4.3852,4.2544 0.2371,0.1745 1.1521,1.2271 1.4266,1.5248 -0.329,-0.1111 -0.0856,-0.0088 -0.3318,-0.1642l-0.3032 -0.1998 0.0829 0.7595c0.2271,-0.007 0.2085,0.003 0.3398,0.0287 0.4467,0.0873 0.4462,0.1164 0.5798,0.5748 0.1453,-0.0444 0.0256,-0.1435 0.4159,0.0803l0.2348 -0.3609c-0.0253,0.2532 -0.0345,0.0145 0.225,0.0643 -0.2519,-0.7003 -1.5482,-1.7937 -2.0743,-2.2632 -0.7814,-0.6975 -1.4476,-1.3895 -2.1797,-2.0875l-4.0049 -3.9963c-0.2297,-0.229 -0.1771,-0.1788 -0.2382,-0.3548 -0.3004,-0.1486 -0.2235,-0.1078 -0.4978,-0.3957 -0.7227,-0.7582 -0.5413,-0.5235 -1.2153,-1.1336 -0.3757,-0.34 -0.337,-0.6775 -0.5605,-1.0413 -0.569,-0.9258 -1.3011,-0.994 -1.4657,-1.5959 -0.4098,-1.4986 -1.0687,-0.9978 -1.8419,-2.7749 -0.7408,-1.7028 -2.4143,-1.5032 -4.3466,-1.8317 -0.8574,-0.1458 -0.8583,-0.3554 -1.1297,-0.4828 -0.5156,-0.242 -0.302,0.2916 -0.9452,-0.3303 -1.1667,-1.128 -1.2673,0.0613 -2.2414,-0.0191l-1.0603 -1.0742c-1.0635,-0.6021 -0.8544,-0.2936 -1.5548,-0.5719l-0.197 -3.381c3.5397,-0.2 7.0002,-1.0412 9.9898,-2.5973 0.4978,-0.2592 0.8683,-0.4544 1.3826,-0.7644l1.1002 -0.6966c0.1104,-0.1064 0.0758,-0.0937 0.1062,-0.1445 0.7234,-0.2793 2.154,-1.5724 2.618,-2.0451 0.7236,-0.7373 1.2987,-1.4908 2.0308,-2.5589 1.4931,-2.1784 2.1519,-4.1141 2.0393,-7.3718 -0.7197,-5.1378 -2.8242,-7.875 -6.6799,-10.9474 -0.4526,-0.3607 -1.7569,-1.1232 -2.0239,-1.6022 -2.6494,-4.7526 -7.0062,-7.8371 -13.0802,-8.2426 -7.6193,-0.5088 -10.815,2.5385 -11.6024,2.6279 -0.1018,0.1285 -0.0451,0.0772 -0.1756,0.1967l-0.9887 0.7241c-1.5579,1.2686 -2.7113,2.4305 -3.6965,4.2956 -0.5371,1.0171 -1.9311,1.6269 -3.2761,2.704 -1.3228,1.0592 -2.7864,2.6676 -3.7416,4.2582 -1.2156,2.0245 -1.7186,3.1813 -1.9762,6.0269l-1.2397 -0.009c-0.4827,-0.7462 -0.3312,-0.8288 -0.9651,-1.4949 -0.3637,-0.3823 -0.9238,-0.6842 -0.787,-1.5243l2.1971 -1.0766c1.6092,-0.9125 1.0692,-3.5676 -1.4899,-3.4503 -1.1269,0.0515 -1.7697,0.7838 -2.6472,0.0568l1.2575 -2.0362 -0.9304 -1.834c-0.1645,-0.2317 -0.7837,-0.5996 -0.586,-1.5869 0.0332,-0.1658 0.0242,-0.1322 0.0883,-0.2448 0.1633,-0.2864 0.0054,-0.0286 0.1522,-0.1144 0.1963,-0.4995 0.6278,-0.6292 1.2447,-0.8573 -1.3632,0.5395 -1.5721,0.3539 -1.7207,1.9191l0.3111 -1.8247c0.275,-0.5204 2.6708,-1.4829 3.8338,0.1313 0.569,0.7897 0.4829,1.1795 0.1905,2.057l0.3432 -0.232c0.0435,-0.5131 0.2514,-0.6262 0.037,-1.3278 -0.7082,-2.3167 -4.3728,-2.0095 -5.073,-0.0196 -0.421,1.1962 0.5587,1.647 0.7739,2.2471 0.501,0.2665 1.0236,0.7775 1.0984,1.5803l-1.2887 2.1332 4.3407 0.6013c0.2029,0.0816 2.0515,2.1105 -1.2447,3.0906 -2.6871,0.799 -0.1314,2.4786 0.1813,3.1024 0.6401,1.2764 0.0492,0.824 1.4629,1.306 0.9455,0.3224 0.7282,0.9226 0.8373,1.9504 0.9419,0.3463 1.1264,0.2466 1.276,0.6154 -1.416,-0.3098 -1.1804,-0.3118 -2.7222,-0.2625 -0.3034,-2.405 -0.1081,-1.2565 -1.0696,-2.2247 -0.3822,-0.3848 -0.174,-0.5425 -0.8239,-0.7731 -0.5255,-0.1864 -1.0023,-0.1183 -1.494,0.0099 -0.9713,0.2532 -1.9333,0.3258 -2.2108,-0.5741 -0.2962,-0.9606 0.7306,-1.7436 1.1503,-1.7986l-0.0725 1.1738c0.1676,-0.2052 0.2492,-0.2784 0.3216,-0.5725 0.0975,-0.3968 0.0825,-0.462 -0.0039,-0.8446l-2.4916 -1.5508c-0.1818,-0.6088 0.0352,-1.1483 0.3775,-1.5341 0.4346,-0.4898 0.6703,-0.3938 1.1287,-0.7549l-0.5801 -0.6756c-0.4512,-0.8325 1.7624,-1.7032 0.6581,-2.5679 -0.1481,-0.1159 -1.5017,-0.3896 -1.9447,-0.612 -0.6661,-0.3343 -1.0393,-0.686 -1.2891,-1.3703 -0.7873,-1.0666 0.0186,-3.4344 1.6669,-4.6151 1.4978,-1.073 3.6899,-1.0486 5.787,-1.0568 2.311,-0.0091 3.9917,0.4706 4.5395,2.3056 0.6691,2.2411 -1.4694,3.8645 -2.5235,3.8571 -0.259,0.224 -0.7756,0.1425 -1.0941,0.0609 -1.3815,-0.3537 -1.6696,-1.5896 -1.4217,-2.0333 0.1147,-0.2056 0.4733,-0.2305 0.5576,-0.4837 -1.2043,1.1715 -1.0379,0.7674 -0.4796,2.1256 0.3884,0.1261 1.3758,1.1712 3.0964,0.4911 3.4905,-1.3799 2.9615,-6.0069 -1.0722,-6.6299 -0.7789,-0.1203 -3.2114,-0.0591 -4.0453,0.0248 -2.0333,0.2047 -4.2071,1.0902 -5.157,2.9436 -0.6263,1.2221 -0.5896,1.8663 -0.2854,3.2499 0.4449,0.6218 0.7976,1.2932 1.6475,1.5289l1.8648 0.3822c0.5555,0.6906 -0.1954,1.0981 -0.4934,1.4071 -0.1838,0.1905 -0.3542,0.4676 -0.3498,0.8151 0.0044,0.3491 0.1942,0.5292 0.4218,0.8527 -0.7862,0.4187 -1.5771,1.0009 -1.39,2.2281 0.184,1.2073 1.2227,1.2408 2.2031,1.5159 -0.1251,0.689 -0.6106,0.4693 -0.9604,1.2381 -0.3516,0.7726 0.0179,1.3855 0.5123,1.6894l3.6444 0.2615c-0.2889,0.1989 -1.0704,0.3359 -1.5021,0.4819 -1.5765,0.5333 -2.2183,1.285 -3.5699,2.7073l-2.0078 2.2795c-0.9762,0.0693 -1.3739,0.1864 -1.726,0.8331l-0.1494 2.1959c-0.8781,0.3547 -1.2388,0.4935 -1.6691,1.2136 -0.4205,0.704 -0.6568,1.5073 -0.3295,2.3465 0.4749,1.2184 0.5973,0.5862 0.461,2.2298l0.763 2.2449c0.0381,0.7166 -0.2672,1.2749 -0.1424,1.9186l0.989 1.1766 -0.125 0.4241c-0.3605,0.6347 0.1785,1.3107 0.021,1.9672 -0.2074,0.8647 -2.1799,1.6025 -1.6832,3.3138 0.1535,0.5286 0.9375,0.9386 1.2927,1.2577 0.961,0.8634 -0.7653,1.9019 -0.1593,3.8839 0.6598,2.1581 2.6191,1.0814 3.3891,1.3549 0.7934,0.6524 0.7837,2.1321 1.51,2.8183 0.8729,0.8245 2.3179,0.9931 3.2505,0.0858 0.3885,-0.3781 0.5917,-0.9205 1.4196,-0.8245 2.2253,0.2579 1.3267,1.1098 3.5778,-2.7158 2.0815,-0.2199 6.6719,0.3356 8.6782,0.723 1.4092,0.272 1.4284,0.6233 1.2241,3.3141 -0.5562,7.327 -2.838,11.7368 -6.2367,17.5671 0.7511,1.4286 3.433,2.5672 4.8375,3.2656 -0.0424,0.5897 0.0513,0.575 0.0693,0.9115 0.0198,0.3676 -0.144,0.2735 -0.1605,0.7175 -0.125,0.1747 -0.0564,-0.2235 -0.1498,0.3335 -0.0586,0.3502 0.0521,0.5446 0.1792,0.7449l-1.3436 4.9059zm27.0893 -0.8024c0.0154,-0.2435 -0.2432,-0.3462 -0.4533,-0.6672 -0.1354,-0.2071 -0.311,-0.6041 -0.4336,-0.8477 -0.2864,-0.5689 -0.4793,-1.056 -0.5964,-1.763 -0.0245,-0.7093 -0.0867,-1.0086 0.0653,-1.7267 0.0726,-0.3431 0.3121,-1.0781 0.259,-1.2644l0.3427 3.6613c0.1028,0.855 0.8912,2.2211 0.9213,2.431 0.0354,0.2469 0.133,0.113 -0.105,0.1767zm-4.4118 -54.6582l0.0641 0.6359c-0.3963,0.2258 -0.7486,0.2734 -1.2474,0.1554l-0.0161 -0.6774 1.1994 -0.1139zm1.0686 -1.028c-0.0865,0.2926 -0.5888,0.5246 -0.878,0.6448 -1.0464,0.4346 -3.0141,0.2275 -3.3867,-0.6116 -0.1996,-0.1008 -0.2257,-0.1099 -0.4349,-0.2065 1.5963,1.6598 0.8381,0.7457 2.0647,1.3053l0.0076 0.7331 -1.7823 -0.4909c0.6928,0.397 1.5137,0.7445 2.0098,1.236l0.1516 -0.4195 1.1744 -0.0803 -0.3625 0.5192c-0.6022,0.418 -9.025,0.3137 -10.1573,0.2635 -2.2992,-0.1016 -1.9099,-0.2635 -3.4191,-0.4971l2.792 2.886c1.2623,0.7231 2.8757,1.0445 4.5773,1.0135 1.6237,-0.0296 3.2594,-0.5839 4.3489,-1.2333 2.3358,-1.3921 2.5117,-2.9658 2.5465,-3.0014 0.3249,-0.3324 0.9101,-0.0971 1.2491,-0.9016l-1.2172 0.4771 -0.0437 -0.7767 1.2298 -1.1327 -0.47 0.2731zm20.7453 62.8206c0.0312,0.2473 0.705,0.4949 0.9121,0.6049 0.5819,0.3092 0.9667,0.7127 1.7371,1.1705 -0.8391,0.4068 -0.4097,0.2082 -0.7762,0.1056 0.3392,0.1513 0.3681,0.1857 0.5995,0.4272l-0.7835 1.3879c-2.3607,-1.5777 -3.0534,-1.9079 -5.0641,-3.7888l-1.1713 -1.0699c-0.7809,-0.6708 -1.6132,-1.7016 -2.2351,-2.2495 -0.4211,-0.371 -0.7686,-0.6365 -1.0992,-1.0024l-0.7246 -0.8951c-0.2756,-0.2625 -0.2148,-0.1828 -0.3127,-0.5091 1.077,0.7495 2.3152,1.5563 3.3107,2.4176l0.9556 0.8157c0.2453,-0.2396 0.1947,0.0278 -0.2931,-0.4149 -1.235,-1.121 -0.5935,-1.1927 -1.4205,-1.2437l0.1517 -0.4092c-0.5599,-0.4452 -1.9844,-1.7179 -2.1703,-2.36 1.0393,0.7287 1.6657,1.3075 2.7624,2.0121 0.9203,0.5911 1.8504,1.2363 2.8705,1.8273 0.9164,0.531 5.7848,2.9542 6.0757,3.21l-0.3926 1.6096c-0.6306,-0.4055 -2.4238,-1.505 -2.9321,-1.6458zm-35.2928 -64.5682c0.2428,1.3182 2.3343,0.9349 2.1377,-0.4237 -0.1815,-1.2549 -2.4174,-1.0948 -2.1377,0.4237zm17.2926 54.2502c-0.3194,-1.4037 -0.2668,-2.8789 0.1331,-4.1852 0.1815,0.7111 0.2226,1.4595 0.2871,2.2053 0.1326,1.5328 0.0234,0.8855 -0.4202,1.9799zm0.881 -1.4294c-0.0573,-0.6268 -0.3765,-2.6947 -0.1768,-3.1788l0.5149 0.6104c0.2479,0.4458 0.655,1.948 -0.3381,2.5684zm1.2503 -1.3672l-0.2437 0.111c-0.006,-0.0152 -0.0332,0.0134 -0.0497,0.0201l-0.4936 -2.3589 0.787 2.2278zm-24.1752 -0.6777c-0.1048,-0.0919 0.0686,-0.2012 -0.5071,0.0855l-0.0104 -0.5428 0.1782 0.2848c0.0064,-0.0154 0.0244,0.0452 0.0364,0.068l0.2314 -0.2927c0.1857,-0.2934 -0.3421,-0.0528 0.1008,-0.28l3.5179 -0.3194c0.1424,-0.2817 -0.1803,0.038 0.0019,-0.2339 3.1019,-0.3679 7.0421,-0.217 10.2395,-0.2224 1.8584,-0.0027 3.7126,0.1634 5.5671,0.2745 -0.4051,0.2735 -0.6746,0.2757 -1.329,0.423 -2.6596,0.5987 -8.6145,-0.0638 -11.3306,0.1713l4.746 0.2279c2.2216,0.0407 6.5897,-0.2489 8.1053,-0.1666 -4.7277,0.3875 -10.2167,0.9293 -14.9308,1.0189l-4.054 0.1169c-0.5481,0.0138 -0.8772,0.0863 -1.2164,-0.1915 0.3999,-0.2452 0.2405,-0.188 0.7902,-0.2246l-0.0892 -0.1375c-0.0121,-0.0135 -0.0332,-0.0471 -0.0472,-0.0594zm1.1543 -1.2381c-0.3232,0.2207 -1.0847,0.1887 -1.5104,0.1412 0.069,-0.2852 0.0715,-0.4466 0.2618,-0.6332 0.2301,-0.2256 0.4421,-0.2425 0.7609,-0.2304 1.7522,-0.4626 6.743,-0.421 8.3516,-1.0181l-2.3269 0.1613c0.6003,-0.3142 0.518,-0.1747 1.4499,-0.2498 1.2313,-0.0993 3.5224,-0.1705 4.6875,-0.1584 0.5918,0.0062 4.6982,0.1075 5.3038,0.2597 0.456,0.1147 0.4577,0.3034 0.4983,0.3622 -2.611,0.112 -6.6571,0.1273 -8.9773,0.7365 1.7511,-0.108 7.5723,-0.3835 8.7053,0.0298l-4.5516 0.0438c-1.4108,0.0547 -2.8716,0.1526 -4.2866,0.1291 -1.4711,-0.0244 -2.75,-0.0892 -4.2649,0.0238 -1.2322,0.092 -2.9695,0.4368 -4.1014,0.4025zm-0.765 -1.7946c3.339,-1.272 12.628,-1.3254 16.9123,-0.8845 0.602,0.062 0.6139,-0.0246 0.8086,0.3923 -0.4471,0.1882 -0.297,0.1676 -0.8014,0.1558 -3.2691,-0.0767 -9.0427,-0.3689 -11.839,0.4605l1.2217 -0.0299 -0.1691 0.099c-0.4579,0.1343 0.2409,-0.0197 -0.1949,0.0436 -0.0658,0.0096 -0.3469,0.0057 -0.4355,0.0086 -0.2648,0.0085 -0.4609,0.0394 -0.6609,0.0623 -1.3761,0.1579 -2.824,0.1531 -4.1352,0.235l-0.2133 -0.487 -0.4933 -0.0557zm21.0305 2.0365c-0.6437,-0.1681 -2.7296,-1.8069 -2.6897,-3.439 0.8544,0.8681 2.4835,2.2982 2.6897,3.439zm-10.4875 -4.8904c0.0097,0.0064 0.0279,0.0146 0.0309,0.0164l0.2136 1.4058 -0.9818 0.0166 -4.2486 0.1305c-0.3425,-0.5115 -0.8225,-1.1316 -0.9328,-1.7157 -0.1753,-0.9292 0.0088,-1.4517 0.431,-1.9551 0.9882,-0.0354 4.9658,-0.2829 5.4789,-0.2276 0.142,0.3461 0.1739,0.1346 0.2306,0.5259 0.0162,0.1118 -0.0096,0.5181 -0.0197,0.6492 -0.041,0.5323 -0.1438,0.6996 -0.2021,1.154zm0.5233 -2.1281l-0.2063 0.0664 -0.3258 -0.2674 0.0425 -0.3392c0.6529,-0.2256 0.8233,-0.0521 0.4896,0.5402zm-3.2158 -0.3561l-0.1408 0.0978c-0.5479,0.2246 0.4617,-0.0959 -0.1799,0.056 -0.297,0.0702 -0.6565,0.0147 -0.8651,0.0401 -0.3961,0.0481 -0.8769,0.0908 -1.3162,-0.1044 -0.9115,-0.4049 -1.0497,-1.6909 -0.7914,-2.2085 -0.0696,-0.6798 0.377,-1.383 0.6595,-1.7499 0.7723,-1.0031 2.0365,-1.034 3.6053,-1.2841 0.679,-0.1082 1.574,-0.0354 2.0251,-0.4351l4.0021 0.764c1.19,0.2497 2.3073,1.3517 2.3295,2.3553 0.4483,0.4402 -0.0474,2.233 -1.0263,2.4872l-0.1852 0.0262c-0.3839,0.0597 -0.5935,0.1058 -0.9881,0.0677l-0.181 0.0764 1.6946 0.0363 -0.4389 3.642c-0.4991,0.3006 -4.0119,-0.0789 -4.9521,-0.027l0.0917 -0.4919c0.136,0.3984 0.0566,0.2025 0.2861,0.3359l0.0092 -0.1063c-0.0259,-0.5511 0.0705,-0.0719 0.1186,-0.3003 0.0072,-0.0341 0.0484,-0.0277 0.0688,-0.0463l-0.2221 -0.1541c-0.0028,-0.0165 0.024,-0.0662 0.0261,-0.0872 0.0543,-0.5643 -0.4789,-0.9702 -0.4137,-2.6337 0.5547,-0.4331 0.6667,-0.2947 1.5892,-0.2726 0.5882,0.0141 1.1564,0.0485 1.7399,0.1303 -0.1118,-0.2144 0.2241,-0.144 -0.3378,-0.1833l0.086 -0.0026c-0.3852,-0.0278 -0.5604,-0.0517 -0.9567,-0.102 -1.0603,-0.1346 -1.9303,0.0046 -2.1536,-0.6 -0.0036,-0.0096 -0.0795,-3.4339 -0.0723,-3.7213 -0.0894,-0.4586 0.0073,-0.1082 -0.17,-0.2971 0.0001,0.323 0.1014,3.9521 -0.1721,4.1945 -0.6013,0.5329 -2.4278,0.41 -2.7684,0.498zm-0.7437 -5.1028l-0.1782 0.0695c-1.3523,0.2885 -1.2307,0.1439 -1.9461,-0.6851 -0.2686,-0.3113 -0.064,-0.088 -0.2595,-0.2412l-0.114 -0.5818c-0.0735,-0.7417 0.1762,-0.709 0.2189,-0.739 0.0437,-1.1596 2.4619,-2.8491 3.6738,-2.7609 0.1447,-0.122 2.441,-0.7363 2.4444,-0.7363 0.3857,0.1351 0.4415,0.2313 0.8742,0.3202 0.369,0.0759 0.6829,0.1175 1.0276,0.1939 1.4871,0.3295 4.1758,1.6421 4.3455,2.9669 0.2731,0.1549 0.1661,0.4774 0.1515,0.8375 -0.0131,0.324 -0.0398,0.6377 -0.0482,0.8855 -0.6103,0.512 -0.3468,0.4784 -1.0175,0.7548l-0.1034 -0.0956c-0.0066,-0.0028 -0.0337,-0.021 -0.0406,-0.0219l-0.176 0.1563c-0.5176,-0.1234 -0.7949,-0.1186 -0.9889,-0.3499 -0.3668,0.0213 -2.3379,-0.2541 -2.7437,-0.3829 -0.6397,-0.0833 -0.2905,-0.2507 -0.7626,-0.0785l0.1917 -0.5148 -0.3272 0.2274 0.0036 -0.4268 -0.2836 0.3999c0.0191,-1.121 0.0593,-2.1066 0.0023,-3.2237 -0.0599,-1.1753 -0.1049,-0.7503 -0.2651,-0.9068l-0.1249 4.152c-0.3008,0.369 -2.9035,0.6651 -3.554,0.7813zm-2.497 -0.8236c0.2773,0.7431 0.4971,0.7457 1.0256,1.1727l-0.457 0.5254c-0.1247,0.1477 -0.229,0.2906 -0.3688,0.485 -0.7089,0.9864 -1.0498,2.9818 0.0651,3.896l-0.4963 0.9086c-0.4034,1.0053 0.3315,2.3117 0.8072,3.0277l-2.736 0.279 -1.5585 0.2274 1.2848 -4.3354 1.0005 -2.579 1.1366 -3.962c0.0876,0.0839 0.079,0.0819 0.1753,0.2022 0.0925,0.1152 0.1016,0.14 0.1215,0.1524zm-4.2341 6.933c0.1494,0.9416 -0.0098,0.9485 -0.2939,1.6671 -0.463,0.1604 -0.9714,0.4149 -1.4827,0.1132 -0.8125,-0.4792 -0.7683,-2.0011 0.4266,-2.2856 0.897,-0.2136 0.9505,0.2213 1.35,0.5053zm-1.1038 8.4333l1.4111 -0.0268 -0.3953 -0.1448c-0.3803,-0.0602 -0.1928,0.0196 -0.2428,0.0477l4.4672 -0.2677c-0.3266,0.2074 -0.2335,0.1916 -0.606,0.2197 -0.1334,0.0101 -0.3505,0.0062 -0.4905,0.0059 -0.4167,-0.0008 -0.6249,-0.0494 -0.9778,0.1281l12.0669 -0.7787c1.2218,-0.0644 2.8561,-0.2615 3.9974,-0.2386 -2.3845,0.4684 -7.1785,1.4984 -9.1541,1.7605 -1.5157,0.2009 -3.4787,0.2202 -4.9741,0.4965 -1.661,0.3069 -3.4726,-0.1106 -5.0511,-0.2075 4.2455,0.2463 3.025,0.352 7.198,-0.1854 0.1774,-0.0229 0.3305,-0.0098 0.481,-0.0333 0.0874,-0.0136 0.3595,-0.0676 0.3892,-0.135 0.0187,-0.0424 0.0562,-0.0396 0.0834,-0.0606 -3.3129,0.1946 -4.5752,0.3889 -7.8417,0.1957 -0.461,-0.0273 -0.9243,-0.0379 -1.3838,-0.0682 -1.3934,-0.0921 -0.7576,0.021 -1.2233,-0.5776l0.0545 -0.1041 2.1918 -0.0258zm24.0592 -4.4381c-0.3449,0.1358 -0.1935,-0.0798 -0.5197,0.7146l-0.408 -1.9941 -0.0125 2.3889 -0.3397 -1.9209c-0.2075,-0.4911 -0.7009,-1.0279 -0.7067,-1.4678 1.1549,-0.0423 1.9824,1.1308 1.9866,2.2793zm-2.5231 -2.3532c0.5689,0.6521 0.7373,0.6341 1.0336,1.6306 0.2213,0.7447 0.2327,1.6514 0.1136,2.4011l-0.242 -0.4374c-0.3464,-0.9022 -0.7463,-2.3371 -1.5989,-2.7919l1.09 3.0229 -0.5189 -0.6096c-0.151,-0.2306 -0.2133,-0.3571 -0.3721,-0.5783 -0.2578,-0.3589 -0.5249,-0.7131 -0.7684,-1.0159 0.347,0.4736 0.5803,0.7335 0.8058,1.3139l-1.7539 -1.9115c0.5912,-0.531 0.6474,-0.2568 0.9337,-0.6071 0.4435,-0.0359 0.7111,-0.2882 1.2775,-0.4168zm-1.6638 0.323c-0.3043,0.1038 -0.703,0.2731 -0.8987,0.4296 -0.3517,0.281 -0.2104,0.3854 -0.4731,0.6987l-1.4144 -0.0564c0.4156,-0.6101 0.9445,-1.2629 1.0459,-1.9988 0.1681,-1.2203 -0.3007,-1.5072 -0.7063,-2.1285l0.8053 -2.4817c-0.2683,-1.1544 -0.9416,-1.3868 -1.2344,-2.0815 0.6323,-0.3544 0.8911,-0.4012 1.101,-0.9053 0.2713,0.1857 0.0956,-0.1655 0.2527,0.4234l0.6819 3.7891c0.2121,1.248 0.8201,3.186 0.8401,4.3114zm-7.1315 -23.8639l0.8533 4.6418c-1.6194,-0.3544 -1.3016,-1.6079 -1.3475,-3.1926 0.3712,1.2304 0.162,0.8204 1.0221,1.8443l-0.6265 -2.1668c0.4581,0.2117 0.646,0.7123 0.8316,1.2636 0.1182,0.3509 0.0315,0.2471 0.2573,0.5649 0.0311,-1.7245 -1.1844,-1.9881 -1.3948,-2.3071 -0.2623,-0.3974 0.0303,-0.5424 0.4045,-0.6481zm-2.6917 2.9453c0.0198,-0.0228 0.0441,-0.0906 0.0546,-0.0723 0.0527,0.0925 -0.021,-0.0267 0.3444,-0.3273l-0.1451 0.6491 0.7166 -1.4466 0.2434 0.6081 -0.0245 -2.1427 0.6319 0.0343c0.0206,2.9185 0.1681,2.1618 -0.9045,4.5136 -1.1907,-0.0848 -1.9564,-1.0373 -1.5567,-2.4007l1.6798 -2.2762c0.1263,0.4982 -0.298,0.9134 -0.5268,1.2859 -0.2902,0.4727 -0.4708,0.9482 -0.5131,1.5748zm1.9897 -5.0339l0.4495 0.1615 -0.2298 1.5835c-0.0611,0.1188 -1.097,0.626 -1.4362,-0.2189 -0.8804,-0.9719 0.5097,-2.4924 1.2165,-1.5261zm1.1649 -0.1552c0.1371,0.3916 0.1327,0.1753 -0.0071,0.4877 -0.3283,0.1309 -0.2922,0.118 -0.4973,-0.2376 0.0755,-0.2765 0.2315,-0.2815 0.5044,-0.2501zm-3.367 0.4642c0.0074,-0.2537 -0.0511,-0.2807 0.1195,-0.5497 0.2303,-0.3628 -0.0213,-0.119 0.3314,-0.2046 0.3336,0.4579 0.0731,0.7564 -0.4509,0.7543zm4.6476 -0.8934c0.0136,1.3292 -1.3319,-0.0183 0,0zm-5.0804 0.14c-0.0124,0.2406 -0.1046,0.2266 -0.2896,0.2944 -0.2557,-0.2613 -0.2834,-0.2732 -0.1066,-0.6145 0.1594,0.0106 0.4164,-0.0679 0.3962,0.3201zm5.9696 -0.072c-0.7313,-0.3421 -0.628,-0.2489 -0.5048,-0.5659 0.3015,-0.2116 0.016,-0.1302 0.4436,-0.1098l0.0612 0.6757zm-7.3139 -0.1662c-0.2003,-0.2837 -0.2199,-0.163 -0.0528,-0.5359l0.4145 0.0925c0.0553,0.5506 -0.1824,0.4288 -0.3617,0.4434zm8.0532 -0.5204c-0.4277,0.2423 -0.3433,-0.0351 -0.3437,-0.0352 -0.1472,-0.4305 0.1563,-0.4961 0.515,-0.2669 -0.0807,0.2715 0.2076,0.0874 -0.1713,0.3021zm-8.9835 -0.2464c-0.118,-0.4344 0.002,-0.4984 0.2435,-0.7611 0.1362,0.2135 0.2404,0.3931 0.2376,0.7054l-0.4811 0.0557zm9.3417 -0.4823c0.0128,-0.5308 0.2423,-0.4698 0.6366,-0.335 -0.0764,0.3933 -0.2307,0.5475 -0.6366,0.335zm-10.084 -0.266c-0.1588,-0.4973 -0.0626,-0.4229 0.2741,-0.6357l0.3214 0.2299c-0.1267,0.3116 -0.2437,0.398 -0.5955,0.4058zm10.6374 -0.5873c0.089,-0.2991 0.087,-0.3032 0.3914,-0.3918l0.1414 0.5045 -0.5328 -0.1127zm-11.7725 -1.0855c0.1436,0.3541 0.2525,0.4977 0.1733,0.8155l-1.3578 -0.7458 1.1845 -0.0697zm12.7158 1.2983c0.1195,-0.5936 -0.0762,-0.2147 0.2558,-0.5983 0.0571,-0.0659 0.2525,-0.245 0.3145,-0.3024l0.6633 0.3968c-0.2598,-0.1503 -0.2281,-0.0362 -0.468,-0.2641 -0.1237,0.2948 -0.072,0.2336 -0.0435,0.2548 0.078,0.0582 0.3338,-0.0368 0.6223,0.2362 0.2526,0.239 0.0759,-0.0118 0.2253,0.3649 -0.5512,-0.0377 -0.5162,0.0178 -0.8272,-0.2118l-0.2693 -0.2041 -0.4732 0.328zm-12.0531 -0.5477c-0.1694,-0.5242 -0.0997,-0.5927 0.4251,-0.6241 0.1634,0.4834 0.1341,0.6849 -0.4251,0.6241zm-0.3672 -0.9058c0.1097,-0.4676 0.0698,-0.4237 0.3672,-0.5682 0.3315,0.4607 0.098,0.5173 -0.3672,0.5682zm0.7291 -1.1059c-0.7003,0.3636 -0.4363,0.0733 -0.5378,0 0.1334,-0.1057 -0.0233,-0.1945 0.2904,-0.2143 0.3886,-0.0246 0.1329,0.0179 0.2474,0.2143zm-16.6641 2.4527c0.2101,-0.4343 -0.2468,0.0319 0.9964,0.2729 2.1804,0.4227 2.6134,1.2252 3.3656,1.4489 -1.6293,-1.4636 -0.6852,-0.728 -2.2907,-1.463l3.1041 -0.0843c0.7005,-0.1691 0.934,0.1457 1.2712,0.5097 1.0771,1.1627 1.4423,1.7805 2.1817,3.3497 0.3246,0.6887 0.8936,2.2406 1.1909,2.5159l-0.0861 0.5367c0.0324,-0.4289 -0.332,-0.9765 -0.5169,-1.2245 -0.5257,-0.1378 -0.9388,-0.0187 -1.447,0.024 -0.3982,-0.3398 -0.1859,-0.3618 -0.698,-0.3846 -0.4952,-0.9976 -0.5065,-0.7197 -0.298,-1.1636 -0.0687,-0.3447 -1.2409,-1.2447 -1.5431,-1.5841 -0.5006,-0.5624 -0.98,-0.8614 -1.8393,-1.1409 -0.5174,-0.1682 -1.1296,-0.253 -1.443,-0.4884l0.4745 1.2876 -1.2187 -1.3984c0.4259,1.0955 0.8183,1.6452 0.5406,2.5601 -0.3893,1.2823 -1.0554,0.2324 -0.8084,2.2833 0.0844,0.7003 0.114,1.1485 -0.5571,1.4544l0.4848 -1.2335c0.033,-0.616 -0.306,-0.6265 -0.3001,-1.2776l0.911 -2.6754c-0.1659,-0.4888 -0.4453,-0.8653 -0.6972,-1.2123 -0.1152,-0.1588 -0.7166,-0.8633 -0.7772,-0.9126zm10.2357 -0.5322c0.5067,4.5179 0.2577,4.4422 0.1267,8.8034 -0.1051,-1.2571 -0.0976,-1.2355 -0.0724,-2.5109 0.0245,-1.2369 0.0595,-4.1859 -0.141,-5.2795 -0.1846,-1.0076 -0.1591,-1.3385 -1.2308,-1.47l0.5796 1.9071 -1.9138 -1.7405c1.0078,1.3892 2.13,3.1316 2.1748,4.9287 -0.553,-1.4164 -1.4097,-4.6992 -3.3281,-4.1299l1.1074 1.2871 -1.6251 -1.2043 1.7383 -1.0295c0.8431,-0.603 0.9846,-0.5301 1.9312,-0.2527l0.2895 -0.2649c3.0124,0.3794 1.4372,0.2755 2.5479,1.1449 -0.2206,0.13 0.167,0.175 -0.2979,0.0504l-0.7343 -0.4474c-0.3631,-0.1687 -0.809,-0.2366 -1.2463,-0.2131l0.0943 0.4211zm2.4417 0.1056c-0.3505,-0.7725 -0.4026,-0.4023 -0.7408,-0.8528 2.489,0.1729 1.076,-0.2809 2.3678,-0.4793 -0.422,1.4814 -0.3598,0.8621 -0.0928,2.0348 -0.548,-1.2472 -0.4284,-1.2937 -1.1054,-1.2088l0.3768 2.2137c-0.1217,-0.5031 -0.4571,-1.4654 -0.8056,-1.7076zm3.1241 2.8799c-0.135,-0.3846 -0.1299,-0.3444 -0.3404,-0.6563 -0.446,-0.661 -0.5377,-1.0835 -0.8298,-1.8673l1.4575 -0.0158c0.3978,0.4505 0.1336,0.6667 0.6288,0.942 0.0211,0.0117 0.0527,0.0192 0.0746,0.0305 0.8607,0.4459 0.0098,0.5694 0.8812,0.8518 0.2699,0.0875 0.0463,-0.0616 0.2225,0.0819 0.3322,0.2708 -0.2687,0.3395 1.2518,0.9705 0.4978,0.2065 0.1432,0.0339 0.4012,0.2476 0.7397,0.6129 1.0412,0.0856 0.9718,1.071l0.4852 0.4778c-0.2477,0.5625 -1.8471,1.8176 -1.6001,3.7262 0.2094,1.6196 1.8675,1.9587 2.2077,1.7039l0.5918 -0.8189c0.1526,0.3699 0.0615,0.2498 0.5088,0.5538 -0.1248,-0.4698 -0.1416,-0.3196 -0.3323,-0.8452 2.3311,2.7071 2.8017,-0.499 2.7634,-0.6918l-1.6912 -3.9245c0.3256,-0.1889 0.0018,-0.0949 0.3792,-0.1185 0.1584,-0.276 0.2554,-0.1599 0.1012,-0.5194 -0.5429,0.424 -0.4562,0.1071 -0.4703,0.099l0.8376 -0.5281 0.9579 0.7235c-0.3474,0.5284 -0.4052,0.5167 -0.5331,0.9594 0.3423,-0.1641 0.4195,-0.3708 0.709,-0.6756l0.2671 -0.2907 -0.4428 -1.0597 0.7639 -0.1127 0.2625 -0.6932 0.681 -0.0302 0.2827 -0.7017 0.6241 -0.1021 0.2917 -0.8911 1.5346 0.0309c0.089,0.5425 -1.185,2.0485 -1.509,2.5151 -0.1407,0.2385 -0.3448,0.4323 -0.5455,0.6627 -0.2147,0.2465 -0.3011,0.4015 -0.515,0.6584 -1.5193,1.8248 -1.0464,0.6922 -0.3085,4.334 0.1858,1.1169 0.3358,2.0937 0.466,3.2102 -0.5949,0.219 -0.7993,0.1894 -1.533,0.0157 -0.9984,-0.2363 -2.2162,-0.766 -2.8906,-1.4948l-0.255 -0.2534c-0.0091,-0.01 -0.03,-0.033 -0.038,-0.0429 -0.1812,-0.2265 0.0952,-0.0671 -0.1855,-0.2541l-0.2822 0.3302c-0.6126,0.8246 -2.3226,1.5955 -2.9199,1.4591 -0.178,0.1711 0.1925,0.1686 -0.9617,0.2995l-1.1674 0.1088c-0.0322,-0.4797 0.1439,-2.8231 0.3817,-3.0039 -0.0595,-1.2382 0.4979,-2.8281 0.5,-4.1246l-1.679 -1.8756c-0.1001,-0.1249 -0.1257,-0.186 -0.2324,-0.3119 -0.2117,-0.2494 -0.0279,-0.1241 -0.2238,-0.1595zm14.9777 -2.799c-0.1223,-0.0773 -0.1928,-0.3906 -0.1956,-0.3994 -0.2741,-0.8508 -0.183,-0.0775 -0.2993,-0.7092 1.9855,1.3489 0.6944,0.6809 1.7175,0.793l-0.3128 1.0879c-0.2295,0.2998 -0.2583,0.6302 -0.4345,0.9499 -0.0046,-0.79 0.4543,-1.574 -0.3398,-2.0022 -0.1715,0.1396 -0.0945,0.0537 -0.1355,0.28zm1.5311 0.3515l-0.0679 -0.3979 2.7008 0.3891c1.5101,0.2321 1.4958,0.6179 2.1271,0.8134l-0.0245 0.4453c-0.297,0.1561 -0.6833,0.7509 -0.7449,1.1647l0.3467 -1.5126 -0.5751 0.5015c-0.5296,0.7722 -0.8178,6.2816 -0.8224,7.1251l0.0157 -4.0714c0.0621,-0.7669 0.6074,-3.4623 0.5257,-3.8866l-0.7706 0.9238c-0.0973,0.2376 -0.1608,4.5041 -0.193,5.0049l-0.1618 -2.9849c0.0232,-0.8337 0.286,-2.273 0.1508,-2.9863l-2.5066 -0.5281zm-6.275 -2.0116c0.028,0.0187 0.065,0.0401 0.0861,0.0532 0.7828,0.4887 0.3938,0.1381 0.7989,0.6099 0.014,0.0164 0.0341,0.0451 0.0473,0.0596 0.2006,0.222 0.249,0.0579 0.5781,0.4928 -0.3129,0.412 -0.6364,0.8577 -0.8239,1.3155l-0.713 -0.1229c-1.3116,-0.0576 -2.0814,0.2341 -2.65,0.9916 1.1196,-0.6079 1.1633,-0.789 2.2237,-0.813 0.45,-0.0103 0.5567,-0.0605 0.825,0.1601 -0.929,0.457 -0.6847,0.2381 -1.3282,0.7849 -0.4511,0.3835 -0.6403,0.2569 -1.0967,0.7166 -0.0111,0.0113 -0.0455,0.0739 -0.0535,0.0563 -0.0082,-0.018 -0.0352,0.0398 -0.054,0.0584 -0.8173,0.4391 -2.7894,-0.0453 -3.7332,-0.1925l-0.1006 -0.1437c-0.3046,-0.4725 -0.3321,-0.556 -0.9526,-0.3215l-0.9431 -1.168c3.0936,0.2886 1.4792,0.2384 2.8671,0.8435l-2.9861 -0.9626 -0.7299 -0.8741c-1.0445,-1.324 0.6029,-1.0645 1.0434,-2.8303l0.2167 -2.0643c0.3195,0.086 2.1364,1.3889 2.3631,1.6105 0.5205,0.1356 0.8813,0.4023 1.2919,0.6078 0.653,0.3269 3.0816,1.2135 3.8235,1.1322zm-7.8848 -2.5654l-0.2261 1.3765c-1.2903,0.5366 -1.1588,0.5472 -2.396,1.3469l-1.2529 -0.4266 -1.1732 0.506 -1.0091 -0.1995c-0.4406,0.1473 -0.2888,0.4065 -0.9653,0.2272 -2.1776,-0.5772 -1.0571,0.1455 -2.0523,-0.1149 -0.9281,-0.2429 -1.3189,0.1316 -1.878,0.5408 -0.819,0.5994 -0.6738,-0.1205 -1.5532,0.9786 -1.6262,0.0556 -0.8084,0.1824 -1.4235,0.306 -0.254,0.0511 -0.8236,-0.1796 -1.4642,-0.1323 -1.5412,0.1137 -1.4557,0.0031 -2.2498,-0.357 -0.4101,-0.186 -0.3988,-0.0147 -0.4178,-0.4393 0.2057,-0.4693 0.1858,-1.147 -0.0809,-1.6232 -0.1666,-0.2975 -0.707,-0.9014 -1.0419,-0.8311 0.8862,-0.5683 2.8702,0.2399 5.2504,-2.06 0.5545,-0.5357 0.9912,-1.247 1.3599,-2.0495l0.6949 -1.8633c0.1228,-0.4253 0.0205,-0.5145 0.3914,-0.641 0.0349,0.0516 -0.0187,0.0484 0.1751,0.1783 0.0088,0.0059 0.2584,0.1373 0.2769,0.1469 4.5829,2.3748 5.6502,2.2335 10.9928,3.3194l0.0428 1.8111zm-6.6613 -7.161c-0.476,0.2571 -1.016,-0.427 -1.2367,-0.7786 -0.4457,-0.7103 -0.3553,-1.0741 0.1833,-1.5162l0.7823 0.6949c-0.3232,0.0372 -0.5252,0.0198 -0.6897,0.1066l0.6719 0.32 -0.2539 0.96 0.5428 0.2133zm-1.7056 -1.628l-0.4736 -1.2007 0.3408 0.2892c0.2119,-1.237 -0.3282,0.2406 -0.363,-0.8705 0.3964,0.2058 0.6197,0.2818 0.9132,0.6368l-0.4174 1.1452zm3.7904 2.6963c-0.1875,-0.4396 -0.4295,-0.7501 -0.6352,-1.2232 -0.247,-0.568 -0.3182,-0.9725 -0.6145,-1.2588 0.0516,-0.5626 -1.2978,-4.0666 -1.0994,-6.3293l1.3441 2.8239c0.1701,-0.4602 0.047,-0.6804 0.0334,-1.4804 -0.0091,-0.5282 -0.0204,-1.0727 -0.011,-1.6001 0.0106,-0.591 0.0727,-2.2881 0.4042,-2.7984l1.5857 0.1522 0.3982 2.2903 0.1377 -2.0091 2.1841 0.979 2.9523 1.6371c0.3748,0.1576 0.7516,0.5367 0.8902,1.0731 0.3809,0.4997 0.091,2.1279 -0.1881,2.4881 -0.1605,0.6984 -0.4064,0.9106 -0.6856,1.4141 0.2439,0.3473 1.1621,1.1415 1.5784,1.3988 0.1394,-0.1222 0.1254,0.2431 0.104,-0.292 -0.6233,-0.6626 0.9774,-4.39 -1.534,-6.2879 -0.1347,-0.1018 -4.6464,-2.3076 -5.2045,-2.7118 0.7523,-3.2942 0.9109,-5.1595 2.5148,-8.0593 0.218,-0.3942 0.4082,-0.6129 0.5847,-0.9129 0.3436,0.3363 0.2383,0.1968 0.4892,0.6066 0.1441,0.2354 0.2576,0.4022 0.4191,0.6517 0.2545,0.3933 0.5271,0.8438 0.7749,1.2416 0.7942,1.2758 4.5952,7.2238 4.675,7.7787l0.3058 0.2154c-0.4167,-2.619 -0.5991,-4.249 -1.2577,-6.8031 -0.1622,-0.629 -0.5086,-1.4398 -0.5714,-1.9499l2.045 4.1043c0.2544,0.5269 1.6095,4.0362 1.8988,4.3384l-0.8481 -4.6402c-0.2777,-1.3265 -1.0539,-3.4577 -1.2233,-4.2849 0.9189,0.7161 4.1475,6.851 4.2909,8.1402 -1.2759,0.4808 -1.7792,0.636 -2.9611,1.1959 -0.5198,0.2462 -0.9669,0.4179 -1.504,0.6447 -0.6205,0.262 -0.7014,0.6284 -1.3697,0.4123l0.2915 0.4148 0.4629 -0.3307 2.8438 -1.2394c0.6086,-0.2271 1.6141,-0.8548 2.3463,-0.7688l0.5371 1.7137c0.1777,-0.4231 0.1043,-1.2616 0.0942,-1.7346l0.9136 0.1496 0.1866 1.2485 0.159 2.7198 1.1913 -3.2735 0.0265 3.7548c-0.0723,0.7027 -0.4772,2.7687 -0.74,3.1387 -0.3393,1.5783 -1.7746,3.7456 -2.8968,4.7594 -1.2034,1.0872 -3.1451,2.08 -4.9646,2.6017 -2.2604,0.6482 -4.3407,-0.0334 -6.1443,-0.8928 -1.6423,-0.7827 -2.1812,-1.0738 -3.4105,-2.2398 -0.3028,-0.2872 -0.537,-0.698 -0.7995,-0.9665zm-1.6513 -2.4141c0.1378,0.6289 0.4845,0.9441 0.6806,1.6182 -0.574,-0.7448 -0.2577,-0.5506 -1.322,-0.7729 0.2461,-1.9874 0.2598,-0.9311 -1.2124,-2.7613 -0.2552,-0.3173 -0.3371,-0.471 -0.8065,-0.5934l1.0288 3.4679c0.4788,0.9252 1.5403,1.0952 2.4787,1.2903 0.4119,0.0857 0.2702,0.2307 0.7167,0.4391 0.0605,0.4488 0.1341,0.2136 0.2831,0.728 -3.0689,-0.8422 -2.2367,-0.3898 -3.7903,-1.8209 -0.1226,-0.1128 -0.0654,-0.0564 -0.1562,-0.1018 -0.3477,-0.8003 -0.723,-1.141 -0.9968,-2.2646 -0.2256,-0.9256 -0.3027,-1.9777 0.243,-2.6558l0.5125 0.0297c0.0157,0.0758 -0.0333,0.0173 0.1098,0.1467 0.0149,0.0136 0.1452,0.1077 0.1797,0.1391 0.2996,0.2725 0.7225,0.9441 0.9513,1.2978 0.1751,0.2707 1.0362,1.7571 1.1,1.8139zm1.5744 31.3176c0.276,0.4402 0.3612,0.2423 0.4336,-0.1099 -0.3206,-0.0043 -0.262,-0.0344 -0.4336,0.1099zm-9.1706 -49.3411l0.0507 -0.0425 0.0855 0.2703c0.353,-0.3281 0.5885,-0.6775 0.856,-1.0531 -0.6815,0.1531 -0.4411,0.4382 -0.9922,0.8253zm22.4712 14.3562c0.1775,1.1998 2.2079,1.066 2.0833,-0.3111 -0.1298,-1.4362 -2.292,-1.0989 -2.0833,0.3111zm-32.3237 -11.5313c0.3449,-0.1106 0.7716,-0.2684 1.2292,-0.093l0.2622 1.0397 0.3655 -0.8466c-0.7331,-0.8391 -1.5479,-0.6293 -1.8569,-0.1001zm35.4807 2.099c0.3427,0.863 0.9558,3.5288 0.9675,4.5462 -0.3849,-0.0474 -0.5663,-0.1515 -0.848,-0.3158 0.0026,-0.6569 -0.2416,-4.0486 -0.1195,-4.2304zm-34.6651 23.5183l0.1458 -1.9209c0.679,0.141 0.6848,1.5408 -0.1458,1.9209zm-2.4019 -14.2697c1.5394,1.377 8.3932,1.2244 10.4022,0.3556 0.734,-0.1839 1.5505,-0.5767 2.067,-0.9846 0.5941,-0.4692 1.0916,-0.8682 0.6064,-1.9085l-0.2207 1.3697c-0.5742,-0.2427 -0.6019,-0.5354 -1.453,-0.8024 -0.4417,-0.1386 -0.1552,0.0081 -0.4683,-0.1819l-0.1621 -0.1229c-0.4335,-0.0267 -0.8249,-0.1913 -1.3244,-0.2233l-1.4567 -0.0912c0.0151,-0.0125 0.0403,-0.0532 0.0473,-0.0347l0.2679 -0.0043c0.1859,0.0221 0.0584,0.141 0.4871,-0.0676 -1.0134,-0.3263 -0.743,0.3334 -2.0522,-0.2725 -1.2869,-0.5955 -0.4109,-0.7007 -0.7792,-1.4934l-0.5657 -0.7532c2.3873,0.032 7.7907,0.2837 8.5961,2.9743 0.4886,1.6324 -1.6037,2.6167 -2.7216,3.0763 -2.9463,1.2114 -7.0486,1.1828 -10.1166,0.3985 -0.7374,-0.1885 -1.5022,-0.485 -2.097,-0.8009 -2.3055,-1.2245 -0.9903,-3.4479 1.9158,-4.68 0.5229,-0.2217 1.6767,-0.7527 2.1955,-0.5 0.9603,0.4678 0.852,0.9464 1.026,1.9443 -0.7735,0.5312 -0.0234,0.1657 -0.6184,0.8766 -0.422,-0.2942 -0.0565,-0.7725 0.3273,-1.7385 -0.3952,0.2289 -0.3856,0.4768 -0.636,1.1933 -1.4706,0.2339 -1.6617,0.458 -2.8398,0.9559 -0.0222,0.0205 -0.0548,0.0224 -0.0663,0.0618 -0.023,0.0789 -0.5208,0.331 -0.531,0.3402l-0.4139 0.5139c-0.1578,-0.1024 -0.3241,-0.215 -0.4529,-0.476 -0.3007,-0.6091 0.0561,-0.5522 -0.0919,-0.7391 -0.2916,0.9505 0.302,1.5536 1.1291,1.8146zm3.2622 13.6303l0.0712 -0.8933 0.6334 0.0797c-0.0004,0.4837 -0.2548,0.7232 -0.7046,0.8136zm-5.2185 -10.4387c0.3574,0.5468 0.1555,0.8885 0.2439,1.5318l0.3608 1.4111c-0.8786,-0.0389 -0.9084,-0.2218 -1.0206,-1.1683 -0.1072,-0.9037 0.0438,-1.2354 0.4159,-1.7746zm2.7189 -1.7777c0.5332,0.0128 1.0966,0.2173 1.7051,0.33 1.8666,0.3453 4.0166,0.3765 5.8908,0.0923 1.1444,-0.1736 2.1567,-0.4419 3.2277,-0.8968 1.9508,-0.8289 1.8748,-1.3334 2.4795,-1.8609 -0.0411,3.2236 -0.3438,5.0809 -1.1315,8.0256 -0.2273,0.8498 -0.5943,1.5741 -0.7989,2.2719 -0.6693,1.2469 -1.1934,1.8925 -2.4686,2.5585 -0.6371,0.3326 -1.1507,0.5103 -1.9042,0.6461 -0.7002,0.1263 -1.718,-0.0101 -2.29,0.2003 -0.1982,-0.079 -0.2309,-0.0833 -0.4878,-0.1441 -0.6699,-0.1583 -0.7292,-0.136 -1.4981,-0.4142 -0.5609,-0.2029 -1.2673,-0.515 -1.6396,-0.9853 -0.3014,-0.0965 -0.3608,-0.2302 -0.682,-0.6423 -1.359,-1.7436 -2.7283,-6.4581 -2.5683,-7.7137 -0.0172,-0.026 -0.0412,-0.096 -0.0474,-0.0805l-0.1712 -0.6239 -0.3477 -2.353c0.4252,0.2537 0.693,0.6115 1.2651,0.8988 0.2467,0.1238 0.4809,0.2232 0.7408,0.3318 0.4939,0.2066 0.4822,0.1067 0.7263,0.3594zm-3.479 -2.4034c0.4149,0.7038 0.2964,0.5696 0.3911,1.7662l-0.1611 -2.4031c-0.0224,0.2004 -0.0968,0.4722 -0.23,0.6369zm-2.8614 15.299c-0.1181,-0.2059 -0.0075,-0.0786 -0.1519,-0.2302l-0.672 -0.507c-0.3109,-0.3077 -0.3822,-0.5324 -0.3024,-1.0817 0.0587,-0.4041 0.2355,-0.7695 0.2238,-1.2195 -0.0134,-0.5152 -0.3109,-0.5077 -0.6067,-0.8484 -0.6176,-0.7114 -0.0013,-1.7485 -0.096,-2.6692 -0.0764,-0.7431 -1.2564,-1.4934 -0.6282,-2.2663 -0.0834,-0.6615 0.8194,-1.4748 1.3428,-1.688 0.6084,-0.2477 2.2422,-0.278 3.0037,-0.2357 0.4512,0.0614 0.2209,0.0755 0.785,-0.0732 -0.2011,-0.3364 0.091,-0.1707 -0.458,-0.2355 -0.5732,-0.0675 -0.8495,-0.0973 -1.1612,-0.5831l-0.0954 0.0855c-0.3246,0.5208 -0.3629,0.4218 -1.2032,0.6477 -0.5327,-0.8682 -0.4741,-2.1652 0.3454,-2.5508 0.6428,-0.3025 0.9277,-0.1397 1.4245,0.1162l1.5367 0.2802c0.5753,0.9178 0.1768,1.5271 -0.2065,2.1463 -0.5214,0.8422 -0.2364,1.3064 -0.2232,2.2753l0.404 0.8396c0.2969,0.0773 0.1012,-0.0745 0.4694,0.3046 0.1802,-0.567 -0.1104,0.5419 0.0331,-0.2l0.0565 -0.1905c0.3705,0.0278 0.288,0.0349 0.5984,0.1543l0.2264 1.1766 -0.377 0.4577c-0.1429,-0.0084 -0.0612,-0.1079 -0.2189,-0.1087 -0.3185,0.0839 -0.1132,-0.0752 -0.066,0.2137 0.0845,0.5162 -0.1365,0.3595 0.4283,0.8501 0.0202,0.0176 0.1381,0.1268 0.1612,0.1507 0.0185,0.0191 0.0414,0.041 0.0597,0.0609 0.0196,0.0214 0.0425,0.0482 0.0603,0.0686l0.1208 0.1518 0.6213 0.3153 -1.1883 -1.3068 0.4271 -0.5305c0.3623,0.3573 0.4638,0.5517 0.6438,1.1663l0.7086 1.1629c-1.2311,0.1355 -2.4837,-0.7611 -2.8453,-1.6856 -0.2505,-0.6403 -0.7227,-2.9381 -0.9232,-3.8004l0.2063 2.0887 -2.0933 -0.1471c0.2531,0.2301 0.1596,0.1576 0.6244,0.3384l-1.2318 -0.0826c0.0397,0.043 0.0871,0.1922 0.1141,0.2475 0.5736,-0.124 1.9978,-0.0616 2.6215,0.0161 0.2699,0.809 0.4149,1.7918 0.9186,2.3203 0.4703,0.2744 0.4856,0.4345 1.4483,0.8548 0.6021,0.2629 0.3499,-0.0728 1.6835,0.5638 -0.7664,0.5408 -2.8343,0.3861 -3.3548,0.2225 -0.2419,-0.076 -0.0721,-0.0054 -0.2147,-0.1238 -0.9393,0.0444 -1.2006,-0.596 -1.986,-0.2648 0.2948,0.3286 1.8321,0.7012 2.3731,0.8198 0.4733,0.0997 0.8542,0.2042 1.3488,0.3286 1.435,0.3609 1.0295,0.1469 2.243,0.0069 0.5536,-0.0638 0.987,0.1236 1.0168,0.1429l0.1503 0.0941 -0.1458 1.9209 -0.3417 0.1563c-0.2591,0.3436 -0.6846,0.4324 -1.2104,0.4764 -0.2906,-0.0185 -0.5896,0.0074 -0.8959,-0.009l-0.6414 -0.0922c-0.3251,-0.1079 -0.1496,-0.0592 -0.2611,-0.1293l-3.2897 -0.7699c0.3447,0.4517 1.342,0.6985 1.8524,0.8602 0.4884,0.1547 1.788,0.4763 2.2853,0.471 1.6066,-0.0682 0.7,0.1089 2.3774,-0.316 -0.0717,1.5357 -0.7554,1.8697 -1.5807,2.2227 -0.2884,0.2437 -0.6241,0.2334 -1.0666,0.2028 -0.7299,-0.2474 -1.6737,-0.3108 -2.5033,-0.5686 -0.8007,-0.2488 -1.3912,-0.6271 -1.8224,-1.3567l-0.8816 -1.1079zm5.1007 3.8029c0.6042,0.0226 1.0436,-0.116 1.4667,-0.3467 0.5931,-0.3233 0.5126,-0.5153 0.9449,-0.797 0.0646,-0.3749 0.1978,-0.4739 0.3865,-0.8713l0.4538 -0.9026c0.0668,0.5533 0.8891,2.1224 1.1094,3.0195 0.2389,0.9727 -0.0617,2.5611 -0.4857,3.2976 -0.454,1.4722 -1.4559,2.355 -2.9169,2.3688 -0.3359,0.0031 -0.4963,0.0405 -0.6357,-0.1675 -0.6434,0.1068 -1.1686,-0.4197 -1.5035,-0.8032 -0.8575,-0.9824 -1.4634,-3.7805 -1.5994,-5.1212l1.9266 0.2877 0.4665 0.0409 0.3868 -0.005zm15.928 -18.2945l0.1571 0.1525c-0.0081,1.4026 -0.0777,0.3738 -0.1199,1.4718l-0.4735 -0.0362c-0.0303,0.1369 -0.1952,-0.1795 0.0244,0.2128 0.0961,0.1715 0.2097,-0.1222 0.0558,0.4912l-0.0849 -0.1481c-0.0082,-0.0158 -0.0291,-0.0535 -0.039,-0.0725l-0.0998 -0.2061c-0.0098,-0.0166 -0.0249,-0.0442 -0.0355,-0.0598l-0.4289 -0.3731c0.6927,-0.92 0.6986,-0.5777 1.0187,-1.3404l0.0255 -0.0921zm-0.1936 -5.4537c-0.173,0.1741 0.0182,-0.0576 -0.1331,0.1816l-0.133 0.2259 -0.085 -0.6319 -0.4031 0.2336c0.1341,0.0778 0.0503,0.004 0.3334,0.0131 0.143,0.7046 0.1225,0.4645 -0.0406,1.2018l-0.4339 -1.0296c0.4285,1.2995 0.5989,1.7409 0.0929,3.0042l-0.5058 -0.7136c-0.6677,-0.8861 -0.8407,-0.7936 -2.175,-1.485l0.3274 -0.1935 -0.0424 -0.3291c-0.1562,0.4341 0.0275,0.1696 -0.2836,0.3524l-0.1516 -0.6379c-0.1785,0.4363 -0.1463,0.3501 -0.5508,0.4773l0.0977 -1.836c-0.3574,0.3979 -0.265,0.186 -0.2797,0.7942 -0.0081,0.3354 -0.0259,0.6531 -0.0269,0.9918l-0.4678 -0.7692c-0.0262,-0.109 0.1427,-0.7033 -0.1013,-1.0631l-0.0947 1.6072 -0.5307 -0.0564 0.0312 -1.576 -0.1908 0.3355c-0.1291,0.3258 0.0642,0.0623 -0.1202,0.286l0.0534 0.863c-0.408,-0.0289 -0.4522,0.0723 -0.3961,-0.2936l0.0397 -1.1128c-0.228,0.3617 -0.217,0.2672 -0.2588,0.6148 -0.0344,0.2859 -0.035,0.4361 -0.0239,0.7221l-0.4718 -0.0327c-0.0845,-0.2798 -0.1083,-0.261 -0.0816,-0.4977 0.0094,-0.0839 0.0698,-0.2518 0.1025,-0.3488 0.083,-0.2462 0.1465,-0.367 0.1984,-0.6083 -0.6776,1.0983 -0.3038,0.5506 -0.5459,1.1081 -0.1757,0.4045 0.0449,0.1356 -0.2706,0.3012 -0.1128,-0.3525 -0.0942,-0.2909 0.0305,-0.7696 0.2298,-0.8833 0.1006,-0.6185 0.0762,-0.6858 -0.2918,0.432 -0.3956,0.8769 -0.3228,1.4043l-0.5989 -0.0108c0.0821,-0.5003 0.2322,-0.9937 0.0684,-1.2449l-0.276 1.2041 -0.7511 0.018c0.5589,-2.603 0.492,-3.5055 1.6808,-5.4883 0.2546,-0.4246 0.5642,-1.1105 1.0087,-1.377 0.0768,-0.3067 0.0925,-0.2624 0.3474,-0.5717l0.8382 -0.9758c0.0616,-0.0765 0.1359,-0.1871 0.1902,-0.2387 0.1575,-0.1498 0.0709,-0.0831 0.2269,-0.1222 0.2881,-0.5022 1.1763,-1.2177 1.892,-1.6988 0.7312,-0.4916 1.2154,-0.8809 2.0562,-1.3638 0.7662,-0.44 1.3656,-0.7808 2.2347,-1.1722l2.4046 -0.9638 2.289 -0.5855 0.008 2.9955c0.1859,0.3079 0.2141,1.1269 0.2048,1.5821l-0.601 0.2233c-0.2486,0.0461 -0.4834,0.0684 -0.7402,0.0965 -1.0535,0.1192 -2.1202,0.3339 -3.2958,0.2056 -2.1154,-0.2306 -1.6073,-1.0811 -2.3544,-0.9399l0.3216 0.1944c0.2764,0.2077 0.1385,0.1965 0.4996,0.4492 0.0181,0.0127 0.0501,0.0291 0.0669,0.0406 0.0178,0.0122 0.0533,0.0365 0.0679,0.0467l-0.08 0.6165 0.3877 -0.1633 1.0818 1.0392c0.399,0.3174 0.9506,0.499 1.2499,0.8505 -0.4555,0.3057 -1.3212,1.0157 -1.8671,1.0382 -0.25,0.2947 -0.5213,0.3827 -0.9275,0.522 -0.3304,0.1132 -0.7149,0.2063 -1.0709,0.316l-1.3337 0.0463c-0.086,0.05 -0.5551,-0.1035 0.0012,0.1935 0.477,0.2547 2.3177,0.322 2.7519,0.3716 -0.8477,0.7312 -1.523,1.3528 -2.4327,2.0003l-0.7137 0.4636c-0.169,0.1401 -0.0607,0.0547 -0.1827,0.2078l3.1047 -1.0703c-0.2595,0.3824 -2.1632,3.3217 -2.5335,3.4917l-0.2395 0.5057 2.8371 -1.5143 -0.0833 0.7349zm3.6768 -14.8916c-0.8789,0.2968 -2.1753,1.2253 -2.9102,1.4281l0.3656 -1.0042 -0.1107 0.1258c-0.2113,0.3175 -0.2894,0.5878 -0.2937,0.9682l-1.1961 0.6249 2.1499 -2.947c0.3926,-0.4711 2.2901,-1.9565 2.891,-2.1846 0.4588,-0.5118 2.6743,-1.3689 3.4963,-1.6552 1.3167,-0.4589 2.8826,-0.7279 4.429,-0.842 1.5889,-0.1172 3.3412,-0.04 4.8494,0.2328 0.7787,0.1409 3.4791,0.8051 3.823,1.214 1.471,0.437 3.1469,1.72 4.0581,2.5585 0.6696,0.6162 2.606,2.7324 2.8546,3.6255 -2.3621,-1.5423 -1.0716,-1.3353 -2.4335,-2.5071 -0.0541,0.3272 -0.0637,0.2462 0.0544,0.4253 0.1701,0.2581 0.8048,0.7569 1.0222,1.2426 -1.6837,-0.7818 -0.8818,-0.424 -1.8908,-2.1133l0.5492 1.3962c-1.323,-0.4955 -0.7796,-0.3582 -1.4742,-1.8331l0.4238 1.3135 -1.2217 -0.5887 -0.3394 -0.2552 -0.6014 -0.1996c-1.5063,-0.453 -2.4938,-1.0218 -4.2007,-1.3549 -3.2492,-0.6342 -7.0195,-0.4445 -10.1502,0.5128 -0.7676,0.2348 -1.4252,0.4888 -2.1341,0.7608 -0.4715,0.1809 -1.4629,0.7965 -1.8866,0.8219 -0.0124,0.0187 -0.1204,0.2256 -0.1232,0.234zm16.7747 0.0816l0.4233 0.2614 -1.3894 0.4485 -0.3055 0.1582c-0.0128,-0.0222 -0.0463,0.0373 -0.069,0.0562 -0.4958,-0.0841 -0.728,0.1696 -1.2854,0.142 -0.3261,0.318 -4.5377,1.5673 -5.1458,1.6138l-0.0793 -1.889 -0.139 -0.7849c-0.3384,0.2374 -0.4003,0.6904 -0.5127,1.0201 -0.3743,1.1234 -1.0685,1.7595 -1.9783,2.3771 -0.4403,-0.1949 -1.2549,-0.4953 -1.5737,-0.8228 -0.2436,-0.2503 0.0313,0.0498 -0.1578,-0.2102 -0.6024,-0.2792 -1.5773,-1.388 -1.779,-2.2186 3.5188,-0.3871 7.106,-0.8597 10.6582,-0.5254 0.8857,0.0834 2.6087,0.4738 3.3334,0.3736zm-15.6447 14.6819c0.2147,-1.6206 1.3726,-4.4825 2.1511,-5.4455 -0.52,2.7828 -0.5522,2.8447 -0.538,5.5269l-1.6131 -0.0814zm4.3743 35.578c1.4612,-0.6003 3.1991,-1.2997 5.1625,-1.2564 1.9636,0.0432 2.7828,0.7316 4.0513,0.9059 0.7749,0.1064 0.4803,0.0362 0.7141,0.1776l0.2304 0.0839 0.4397 2.9115c0.2236,0.3936 0.2136,0.9422 0.2915,1.6426l-0.1955 -0.1245c-0.0196,-0.0153 -0.0564,-0.0412 -0.0789,-0.0596 -0.3487,-0.2853 -0.3606,-0.3928 -0.599,-0.8051 -0.1159,0.5989 -1.2314,-0.8683 -3.3635,-1.3081 -0.8808,-0.1815 -1.1087,-0.015 -1.3323,-0.4356l0.0218 -0.7425c-0.1468,0.4293 0.0769,0.3223 -0.2062,0.8704l-0.3228 -0.2753 -0.1672 0.1209c-0.2444,0.1618 -0.2244,0.1669 -0.5335,0.2417 -0.2753,0.0666 -0.5504,0.0955 -0.8274,0.1406 -0.6407,0.1043 -1.0995,0.2748 -1.6766,0.4166l-0.2623 -0.569c0.1076,0.3545 0.1533,0.1683 -0.0403,0.6517l-0.158 0.1087c-0.0227,-0.0192 -0.057,-0.0785 -0.0664,-0.0599 -0.009,0.0181 -0.0513,-0.0442 -0.0631,-0.0597l-0.1131 0.1116c-0.2516,0.3468 0.2523,-0.0624 -0.1254,0.1231l-0.3583 0.1697 0.0046 -0.2569c-0.0123,0.5689 -0.3288,0.3728 -0.977,0.9727l-0.9642 0.9966c0.212,-0.5496 0.4097,-1.9513 0.5613,-2.6833l0.3811 -1.6443c0.0925,-0.4579 0.1815,-0.3717 0.5727,-0.3656zm5.3822 -1.916c0.1588,-0.1031 0.0306,-0.4728 0.8284,0.5184l-1.1344 0.0225c-0.3662,-0.0375 -0.0957,-0.0924 -0.7056,0.0405l-0.193 -0.289c-0.122,0.237 0.0763,0.165 -0.5496,0.2939l1.1077 -1.2771c0.3717,0.1601 0.0657,0.1992 0.5709,0.0242 0.0532,0.6316 0.4261,0.1086 0.0756,0.6666zm-8.4203 -0.3024c-0.2205,-1.5478 2.053,-1.9553 2.2566,-0.5335 0.2436,1.7023 -2.0589,1.9217 -2.2566,0.5335zm1.8129 -4.8877c-0.7531,0.24 -1.0933,-0.2711 -0.6283,-0.8311 0.4094,-0.0664 0.4803,0.0282 0.6846,0.2015l-0.0563 0.6296zm-9.3277 -1.4412c-0.2085,0.4439 -0.1972,0.166 0.298,1.1636 0.5121,0.0228 0.2998,0.0448 0.698,0.3846 0.5082,-0.0427 0.9213,-0.1618 1.447,-0.024 -0.3258,-1.1313 -2.8247,-5.8186 -4.0781,-5.4348l1.8425 2.2934c-0.8985,-0.8225 -1.8583,-1.8877 -3.0951,-2.0877l0.2999 0.2874c0.3207,0.2526 0.425,0.266 0.7211,0.6636 0.3132,0.4209 2.1965,2.844 2.3071,3.0869l-0.4404 -0.333zm8.3586 6.0089c0.0838,0.0702 -0.1227,0.1513 0.2111,0.1188 0.2383,-0.0232 0.0723,0.0007 0.2098,-0.1188 -0.2883,-0.4739 -0.3233,-0.0602 -0.4209,0zm-5.0222 17.0658c0.3761,0.1813 0.3476,0.0902 0.4067,-0.2133 -0.3633,-0.1792 -0.3352,-0.0818 -0.4067,0.2133zm39.7908 -5.2992c-0.1264,0.5506 -0.0803,0.3588 -0.246,0.5294l-0.1957 -1.3708c1.097,0.9068 1.9264,1.0731 2.1856,1.7408 0.2158,0.5557 -0.0265,0.3039 -0.0373,0.3186l-1.7066 -1.218zm-42.411 -42.4117c-0.0341,-0.492 -0.127,-1.7943 -0.5939,-1.9677l0.409 1.4334c-0.5103,-0.3905 -0.2392,-0.7553 -0.7806,-1.1741 0.3021,0.9083 0.3433,1.4432 0.9655,1.7084z"/>
 </g>
</svg>
