<?xml version="1.0" encoding="UTF-8"?>
<!DOCTYPE svg PUBLIC "-//W3C//DTD SVG 1.1//EN" "http://www.w3.org/Graphics/SVG/1.1/DTD/svg11.dtd">
<!-- Creator: CorelDRAW -->
<svg xmlns="http://www.w3.org/2000/svg" xml:space="preserve" width="215.9mm" height="279.4mm" style="shape-rendering:geometricPrecision; text-rendering:geometricPrecision; image-rendering:optimizeQuality; fill-rule:evenodd; clip-rule:evenodd"
viewBox="0 0 215.9 279.4"
 xmlns:xlink="http://www.w3.org/1999/xlink">
 <defs>
  <style type="text/css">
   <![CDATA[
    .fil0 {fill:#031018}
    .fil4 {fill:#485459}
    .fil3 {fill:#7E8991}
    .fil5 {fill:#A3AAAD}
    .fil2 {fill:#C5CACE}
    .fil1 {fill:#FCFCFE}
   ]]>
  </style>
 </defs>
 <g id="Capa_x0020_1">
  <metadata id="CorelCorpID_0Corel-Layer"/>
  <g id="_626697672">
   <path id="_627492152" class="fil0" d="M161.534 177.805l-0.0884 0.7499c-3.2301,0.8882 -8.035,4.8083 -10.0303,5.6698 -1.991,0.8597 -9.4329,2.6949 -12.2401,3.3914 0.7016,-0.5311 3.4109,-1.8927 4.3877,-2.4233 0.996,-0.5409 3.846,-2.0129 4.8317,-2.3141 1.1276,-0.7961 2.2113,-0.6736 5.5443,-3.1582 1.7468,-1.3022 5.7519,-4.2953 7.7622,-5.414 0.7877,-0.4383 2.2749,-1.3626 3.4834,-0.6495 0.9307,0.5491 1.4976,1.9076 0.536,2.8398l-3.0277 1.4528 2.2151 -2.3399c-1.4792,0.0477 -2.8507,1.5149 -3.3739,2.1953zm-6.8955 -1.8608c-0.2659,0.4219 -2.4205,2.0182 -2.9857,2.4691 -1.1861,0.946 -1.9617,1.3193 -3.5607,1.9018 -3.9516,1.4398 -7.6068,2.9417 -11.2137,4.9137 -3.1898,1.7441 -5.4666,1.2368 -9.3804,0.8642 -0.794,-0.0756 -1.5847,-0.19 -2.3804,-0.2742 -0.4298,-0.0455 -0.848,-0.0969 -1.2562,-0.1504 -0.1711,-0.0226 -0.437,-0.0464 -0.5952,-0.0795l-0.6165 -0.252c3.3551,-0.0604 7.9963,-0.2151 11.144,-0.799 1.7157,-0.3183 2.8049,-1.1821 3.9996,-2.0332 0.643,-0.4581 1.1539,-0.7598 1.7566,-1.1766 0.6765,-0.4678 1.2792,-0.9976 1.9728,-1.2441 0.1796,-0.2376 3.6613,-2.2826 4.1786,-2.5804 3.9642,-2.2819 4.8826,-2.3024 8.4595,-5.2754 1.1845,-0.9845 2.618,-2.067 3.9914,-3.0274 1.3339,-0.9327 6.9381,-4.7065 9.0338,-4.7248 2.1985,-0.0192 3.2112,2.389 1.5726,3.6965l-4.6432 2.3454c0.3438,-1.1745 2.8235,-2.9129 3.8716,-3.7466 -1.5288,0.1812 -4.2374,2.3113 -5.1604,3.6218l-0.4061 0.9778c-0.4444,0.1252 -0.6952,0.209 -1.069,0.4485l-3.9797 2.1877c-0.5036,0.3335 -0.3994,0.2664 -0.8329,0.6776 -0.3607,0.342 -1.534,1.2136 -1.9004,1.2595zm-8.1471 -9.8532c0.4076,0.4036 0.3193,0.8495 0.3446,1.6452l-0.4307 -0.3629 -0.8378 3.1216 -2.6506 -3.3314c-0.8506,0 -0.0675,-0.0521 -0.3584,0.2778l0.0184 0.2763c0.1827,0.1644 0.0937,0.0052 0.238,0.252 0.0763,0.1304 0.068,0.1329 0.1208,0.2912 0.6705,2.0087 -0.4746,2.8885 -1.5526,4.2683l-2.5208 -3.5294c-0.1819,0.4674 -0.1868,1.5946 -0.4561,2.1929l-1.0902 1.8423c-0.6727,-0.3294 -1.0131,-0.9865 -1.3568,-1.82 -0.1227,-0.6134 -0.3021,-1.0181 -0.3486,-1.6619 -0.0416,-0.575 0.1969,-1.4313 0.0127,-1.7629l-0.3984 0.9204 -1.1345 3.3105c-0.4165,-0.4079 -0.6743,-0.8362 -0.7962,-1.4916l0.1879 -2.7803c-0.9612,1.2261 -0.5949,0.6408 -1.3559,2.0792 -0.4067,-0.7825 -0.1474,-1.8402 0.166,-2.5087 0.4317,-0.9206 0.9091,-0.8142 1.9815,-1.0779 4.5406,-1.1165 4.7799,-1.0457 8.9693,-3.1107l2.6286 1.7886c0.5524,0.8577 0.5654,0.5476 0.6198,1.1714zm-81.3959 -7.4804c0.0284,0.0506 2.5186,6.4827 3.4787,8.4611 1.4657,3.0201 2.6701,4.8813 4.3857,7.6824 -2.8008,-1.7713 -7.6793,-12.347 -7.8644,-16.1435zm62.4038 -2.6756c0.1776,-0.4509 0.7137,-1.2485 1.0534,-1.6025 0.4254,-0.4435 0.8533,-0.8571 1.5471,-1.1056l-0.719 2.5071 -1.8815 0.201zm-1.6703 -0.2893c0.308,-0.3902 0.6399,-1.4398 1.0349,-2.0277 0.4087,-0.6085 1.0758,-1.148 1.8149,-1.3484 -0.6226,1.2338 -1.2063,2.2371 -1.4272,3.6681l-3.1574 0.154 1.987 -2.9258 -0.2522 2.4798zm-1.8481 -1.9127c0.2131,-0.975 1.1249,-1.9866 2.1865,-2.0747 -0.9281,0.457 -1.431,1.6271 -2.1865,2.0747zm36.7421 -6.6285c0.662,0.7428 1.2637,2.4603 1.4678,3.7501 0.2454,1.5515 0.1684,3.4309 -0.1162,4.9216 -0.0879,-1.4278 -0.3088,-2.2988 -0.5009,-3.4918 -0.0147,0.0253 -0.3141,1.4173 -0.4135,1.7209 -0.191,0.5831 -0.3655,1.1355 -0.6769,1.4935 0.0189,-1.8896 -0.048,-5.0184 0.0677,-6.7081 0.1001,-1.4643 -0.2546,-1.5995 0.0457,-2.0593l0.1263 0.3731zm-9.9428 3.93c0.4334,0.1393 0.2999,0.0575 0.6889,0.3072 0.3319,0.2132 0.2421,0.1476 0.4512,0.4028 -0.4762,-0.0323 -3.8419,-0.4122 -3.8204,0.4619 0.9786,-0.0801 2.4098,0.8454 2.946,1.3662 0.3897,0.3783 0.187,0.2402 0.3342,0.547 0.2596,0.5409 0.4482,0.4364 0.6624,0.804 0.46,0.2859 0.5209,0.3854 0.6653,1.1496 -0.9271,-0.7071 -0.8855,-0.5342 -1.1656,-1.111l-2.8884 -1.129c0.7309,0.6651 2.1215,1.3982 2.4982,2.5076 0.3756,0.3553 0.4672,0.5663 0.6194,1.0717 -2.712,-2.0529 -1.7785,-1.1119 -4.3577,-2.4293l-0.0806 0.2685c0.6255,0.74 0.2536,0.865 0.7811,1.113l-0.1648 -0.1253c-0.0197,-0.0155 -0.0542,-0.0477 -0.0758,-0.0645l-0.2284 -0.1755c-0.6203,-0.3667 -2.9613,-1.3876 -3.6922,-1.4334l1.0051 1.4302 -7.2214 -1.3704c-1.5703,-0.1232 -6.4626,0.9814 -7.557,1.0078l4.7761 -3.324 -1.4316 2.2354c1.2525,-0.8358 1.8507,-1.3067 3.278,-1.9027 0.6357,-0.2655 3.2797,-1.3646 3.7613,-1.4499 -0.5035,0.5724 -1.3653,1.431 -1.7041,1.9453l3.2698 -1.585 -0.8477 1.4145c1.4084,-0.9652 2.5984,-1.6844 4.2879,-2.2379 1.5638,-0.5122 4.0666,-0.6243 5.2108,0.3052zm13.7427 5.2895l-1.3521 -0.1578 -0.28 -3.544 -0.1231 -2.3807c1.1124,1.9903 2.1516,3.8999 2.3532,6.28l-0.598 -0.1975zm-40.2466 -13.4243c0.3063,0.0763 0.3488,0.1115 0.4183,0.4035 0.6301,0.2773 3.1397,1.4094 3.6094,1.7366 1.327,0.9243 1.459,1.6869 1.8279,2.8118l-1.4195 -1.1414c-0.4542,-0.4247 -0.2314,-0.3824 -0.3565,-0.0238l0.7441 1.5936c-2.4774,-1.1552 -1.2122,-0.7912 -2.2032,-1.4774l0.6585 1.7575c-0.854,-0.5103 -2.5554,-1.3006 -2.7218,-2.4333 -0.7804,1.3172 -0.3483,0.5802 -0.2791,1.2615 -0.4572,-0.7785 -0.4117,-0.4222 -0.7667,-1.0529 -0.2652,-0.4712 -0.4499,-1.0143 -0.428,-1.6273 -0.2305,0.1993 -0.3092,-0.2009 -0.2292,1.2781l-0.6236 -2.7689 1.6216 -0.7286 0.1478 0.411zm33.0087 0.8829l1.3729 2.0432 -0.5799 -2.6538 1.7663 3.6217c0.308,1.362 0.366,3.3954 -0.359,4.5297l-0.1453 -1.8328c-0.2247,-2.3746 -0.0595,-1.2827 -0.5658,-1.6808l-0.6513 2.6224 -0.102 -3.5665c-0.1919,-0.9489 -0.6217,-2.1926 -0.7359,-3.0831zm-47.4485 0.8015l-0.0724 0.2758c-0.2825,0.7168 -1.2112,2.3776 -1.7394,2.672l0.5447 -3.113 -0.328 0.6788c-0.0823,0.2339 -0.1581,0.4446 -0.2299,0.6289 -0.954,2.4499 -3.2193,5.7818 -5.1735,6.8358 0.5215,-1.3193 1.3078,-3.1351 1.449,-4.5401 -0.5831,0.4996 -0.382,0.5595 -0.9233,1.5949 -0.9181,1.7559 -1.6702,2.5784 -2.6517,4.2018 -0.3212,-0.79 0.0892,-2.2895 0.2519,-3.0817 0.1917,-0.9327 0.5135,-2.15 0.6035,-3.0737l-2.1587 6.0098 -1.6135 -5.8411c-0.0284,-1.9192 5.4304,-6.4873 7.2669,-7.3569l3.1916 -2.5133c0.3785,-0.3471 1.1063,-1.2147 1.1528,-1.6539 1.5688,2.2693 1.9781,3.1461 1.0982,6.3698 -0.1646,0.6031 -0.5726,1.2477 -0.6682,1.9061zm45.7642 2.2004c-0.0978,0.5777 -0.2103,0.8966 -0.6697,1.2393 -0.2612,-2.2875 -0.3884,-4.0558 -0.9065,-6.2988 -0.3088,-1.3372 -0.2014,-1.661 -0.6696,-1.6615 0.0028,0.4105 -0.0772,0.6331 -0.1972,1.0012 -0.1533,0.4704 -0.1186,0.4402 -0.4743,0.7777 0.2683,-3.539 0.1834,-2.1973 0.707,-5.1796 2.666,5.0127 3.2074,4.8027 2.2103,10.1217zm-3.1712 -12.493c-0.0556,0.8303 0.5108,1.8992 0.2275,3.501 -0.2354,1.3318 -0.7718,1.845 -1.2192,2.6692l0.9917 -6.1702zm-2.0556 3.8413c0.2647,-0.9369 0.5183,-1.6234 0.6499,-2.6816 0.0817,-0.6557 -0.1087,-2.601 0.457,-2.8922 0.8679,1.8414 0.0245,4.7919 -1.1069,5.5738zm-13.6291 -7.2185c-0.1817,0.1625 0.0201,0.0756 -0.2835,0.1874 -0.1015,0.0373 -0.3433,0.0423 -0.4497,0.0513l0.6314 1.2311c-1.0617,-0.7424 -1.4938,-0.8515 -1.9026,-1.8716 -0.2008,-0.2669 -0.2272,-0.1735 -0.385,-0.6413l2.3444 0.2273c0.7032,-0.1404 0.9421,-1.5018 1.1771,-1.8514 0.5538,0.4658 0.9003,1.1029 0.4533,1.7826 -0.2999,0.4557 -0.9228,0.8031 -1.5854,0.8846zm-0.937 -2.6346c-0.1077,-0.7192 0.0267,-1.0025 0.69,-0.6954 0.1861,0.5109 0.1356,0.3186 0.0385,0.6549l-0.7285 0.0405zm-9.8636 5.166l0.7584 -0.1777 -0.7179 0.6248 1.7918 0.0585 -0.9971 0.3541c0.8654,0.5961 1.1482,0.4302 2.1234,0.4794 0.8958,0.0449 1.2011,0.3538 1.9181,0.522 -0.6866,-0.5421 -1.2738,-0.8336 -1.5742,-1.1803 2.4155,0.0575 1.623,-0.1115 3.16,0.7793 -0.8149,-1.2791 -0.5388,-1.0774 -1.47,-1.7548 -0.2796,-0.2033 -0.1205,-0.0926 -0.2571,-0.2203l3.8314 2.4718 -0.5435 -1.893 2.6798 2.4898c0.8773,1.0682 1.0357,3.3876 1.2296,3.7343l0.3789 -1.5076c0.5463,0.49 0.232,0.31 0.6282,0.7616 0.2538,-0.661 1.4494,-3.7968 1.9605,-4.3942l-0.1383 2.4004 1.6043 -3.0128 0.6053 -2.377 2.8575 3.598 -0.8645 -0.4514c-1.0411,-0.4955 -0.8238,0.0711 -0.8495,0.1552 0.4789,0.174 0.8167,1.2916 0.9226,1.7186 0.215,0.8667 0.0601,1.7763 -0.0725,2.5605l-0.3525 -0.5908c-0.2416,-0.5288 -0.4907,-1.1614 -1.0354,-1.425 0.222,1.1873 0.4366,1.7015 0.2628,2.788 -0.0253,0.1581 -0.0548,0.3317 -0.1104,0.4772 -0.0796,0.2082 -0.1256,0.2072 -0.1872,0.2938 -0.5095,-0.8086 -0.1177,-0.8107 -1.4908,-2.6935 1.0152,4.8651 -0.2841,5.1181 -0.4732,6.269 0,-2.4306 -0.0556,-1.1146 -0.4152,-2.4149 -0.2694,-0.9745 0.2555,0.0497 -0.5388,-1.0953l-0.6658 4.4539c-0.2179,-0.7277 -0.6425,-2.6485 -1.2092,-3.2229 -0.1312,1.2082 -0.1235,3.4394 -0.9472,4.3905 -0.5734,0.6622 -0.3717,-0.1061 -0.7117,0.6936l0 -1.5434c0.0041,-2.5561 0.1109,-1.2554 -0.4193,-1.6822l-0.5936 2.5537c-0.3234,1.0685 -1.639,2.4459 -2.5297,2.8101 0.7267,-2.1138 1.1272,-2.8529 1.0235,-5.2828l-0.3423 0.4726c0.0754,0.8481 -0.341,1.764 -0.7425,2.3436 -0.3068,0.7323 -0.5237,0.7637 -0.8278,1.248 -0.0758,-2.3469 0.1605,-2.5382 -0.5806,-4.152 -0.4971,-1.0827 0.0488,-0.5878 -0.6344,-1.051l0.0741 0.602 0.1369 0.7348 -0.0344 1.9649c-0.6532,-0.7041 -0.9042,-1.0464 -1.7391,-1.4522 -0.6195,-0.3012 -1.6144,-1.1841 -1.905,-1.7735 -0.229,-0.1032 -0.5511,-0.5065 -0.5627,-0.7991 -0.2297,0.1517 -0.3725,-0.2519 -0.0658,0.5793 0.089,0.2417 0.1323,0.3165 0.1696,0.6082 -1.3633,-0.3641 -2.9228,-1.7645 -3.2363,-3.2444l-0.1257 -0.2087 -0.3868 0.0409 0 0.9195 -0.3149 0.2418c-0.2499,0.2461 0.0345,0.016 -0.2683,0.2866 -0.3631,0.3247 0.1893,0.035 -0.623,0.3005 -0.0334,0.011 -0.071,0.0254 -0.1046,0.036 -0.2292,0.0724 -0.5956,0.1982 -0.9582,0.0713 -0.0368,-0.0129 -0.2082,-0.1211 -0.2898,-0.188l-0.3698 -0.3268 -0.8525 1.2697c-0.0135,0.0177 -0.0612,0.1012 -0.0712,0.0786 -0.0103,-0.0232 -0.05,0.0519 -0.0753,0.0778 -0.286,-2.1122 0.2164,-1.6309 -0.2797,-1.8247 -0.2318,0.3557 -0.1646,-0.1296 -0.5617,0.8716 -0.2769,0.6982 -0.3092,0.5762 -0.4201,1.2093 -0.2323,-2.633 -0.2876,-1.0151 0.1985,-2.6852 0.0811,-0.2786 0.1375,-0.4508 0.0772,-0.8067 -0.0043,-0.0258 -0.0415,-0.0483 -0.0459,-0.1048 -0.0046,-0.0586 -0.0376,-0.0695 -0.0562,-0.1042 -0.9578,1.2878 -0.4518,0.6278 -1.0219,1.6126 -0.0119,0.0206 -0.0559,0.1077 -0.0649,0.0864 -0.0091,-0.0217 -0.0464,0.0561 -0.0692,0.0846 -0.1506,-0.3204 -0.1577,-0.2658 -0.1882,-0.5978 -0.1521,-1.6538 0.4175,-2.3928 1.1693,-3.5149 -0.9713,0.5653 -0.4047,0.2019 -0.963,0.7459 -0.2513,0.2448 -0.0083,-0.0069 -0.2201,0.2022 -0.5647,0.5578 -0.7727,1.2049 -0.944,1.9033 -0.0637,0.2596 -0.0981,0.0188 0.0233,0.2341 0.0723,-5.0636 0.1795,-2.7357 1.3249,-5.0695l-1.3685 0.5219c1.346,-2.0435 1.4024,-2.8219 3.8786,-2.7197 -0.6074,-0.6965 -1.0331,-0.5609 -1.923,-0.6662 3.5164,-0.9819 2.1423,-0.613 3.9627,0.3929 -0.2509,-0.8919 -0.6748,-1.0697 -0.8795,-1.8812 1.5231,0.5778 1.4763,0.3734 1.9947,1.1636 0.6286,0.9581 0.1387,0.3089 0.5283,0.6243l-0.091 -0.8946 -0.5872 -1.5186c1.2769,1.2975 0.4329,0.8597 1.2942,1.2102l-0.1402 -1.5419c0.0557,0.4845 0.0725,0.3775 0.2819,0.8408 0.5886,-0.7356 0.4193,-0.396 0.4193,-0.9811 0.3763,1.2856 0.152,0.6134 0.2614,1.4065 0.109,0.79 -0.0306,0.1412 0.1601,0.4004 0.192,-0.5138 1.3581,-3.2968 1.5576,-3.5334l-0.2429 1.8178c0.4613,-0.4249 0.4361,-0.3302 0.7077,-0.8743l0.4357 -0.8468c0.0089,-0.0477 0.0467,-0.0512 0.0697,-0.0772 -0.4925,2.0389 -0.2571,1.0811 -0.0087,1.8473l-1.135 1.3371 0.8839 -0.3913 -1.9297 2.0664 1.2709 -0.4172 -1.4766 1.2069 0.2762 0.0666zm10.7802 -6.1125c0.0039,-0.0015 0.1551,-0.2391 0.4492,-0.0164 0.3765,0.2852 0.1093,0.0652 0.2594,0.5086 -0.7098,-0.1984 -0.4923,-0.0206 -0.7086,-0.4922zm-10.9255 -0.8019c-0.078,0.9502 -1.0021,0.7139 -1.3399,-0.0138 0.733,0.1986 0.62,0.2671 1.3399,0.0138zm-13.2624 2.5951l-0.0246 0.4516c-0.6106,-0.8071 -0.3788,-0.3367 -0.3325,-1.1219 -0.6995,1.0816 -1.6482,2.6077 -3.0382,2.7846l1.3264 -2.2246c-0.6016,-0.609 -1.499,-1.5893 -2.2811,-1.8936l0.5303 -0.757c0.3162,-0.381 0.1529,-0.3798 0.4418,-0.575l-0.1864 -0.0811c-0.4841,-0.0327 -0.8753,0.1732 -1.3514,0.2888l4.3437 -1.3651c1.9315,1.4891 0.6899,3.973 0.572,4.4933zm12.4362 -4.6917l0.5605 -0.0546 0.1087 0.7591 -0.6912 -0.0516 0.022 -0.6529zm9.0183 -2.2893c0.6409,-1.1208 1.0489,-2.0505 2.8227,-2.403l-1.3207 2.0116c1.9948,-1.1432 1.8905,-1.3645 3.7348,-0.7864 -2.5948,0.8867 -1.8531,1.0582 -2.3721,1.2303 1.1854,-0.22 2.7767,-0.8117 3.5703,0.5481l-2.4689 0.2256c0.4546,0.2982 0.2043,0.181 0.6594,0.2906 0.1143,0.0274 0.3857,0.1011 0.4989,0.1429 1.0447,0.3845 1.7937,1.4944 1.8765,2.6845 -0.6354,-0.5092 -0.8707,-1.0154 -1.5787,-1.2921l0.9756 2.5325 -2.8289 -2.331c-0.6989,-0.2614 -1.6356,-0.3593 -2.4131,-0.1135 -1.0352,0.3273 -1.0592,0.7394 -1.5606,0.8915l0.1183 -1.873 -0.7361 1.7074 -0.2163 -2.9875c0.0678,-0.6379 0.7696,-1.678 1.5217,-2.0535l-0.2828 1.575zm-36.1271 -2.502c0.3671,-0.2473 0.3803,-0.2439 1.024,-0.2447 1.2274,-0.0014 0.8721,0.1273 1.0618,0.2937 -2.6882,1.2377 -2.9501,1.1069 -5.0484,2.9482 -0.4804,0.4215 -0.3798,0.3217 -0.7409,0.5011 -0.5869,0.9815 -2.3289,2.6038 -3.0688,5.1452l3.2471 -3.9625c0.9845,-0.8596 3.1754,-2.3379 4.6943,-2.4879 -0.3973,0.413 -0.4174,0.364 -0.8714,0.7009 -1.957,1.4526 -3.7451,4.0627 -4.4127,6.3209l3.6691 -3.9781c1.1318,-0.8369 3.4647,-2.1827 5.3733,-2.1414l-3.161 2.0365 2.5823 -0.9127c0.6525,-0.4834 1.9446,-0.2419 2.6923,-0.1498 -3.741,2.4378 -2.5645,1.4272 -5.0228,4.0707l-0.1839 0.1677c-0.3081,0.5083 -0.6113,0.8638 -1.0236,1.5602 -0.3786,0.6394 -0.6285,1.0729 -0.9015,1.6214 -0.4686,0.9416 -1.1292,2.5014 -1.2694,3.7987 0.5217,-0.8323 1.6378,-3.0209 2.0897,-3.3062 0.5896,-1.4632 3.6602,-4.3782 5.4723,-4.8391 0.1158,0.9791 0.6205,2.1187 0.9588,3.03 0.7981,2.0434 2.6253,3.6402 5.4053,2.9586 0.4012,-0.0984 0.5479,-0.2945 0.7414,-0.4236l1.0238 -0.6746c0.1304,-0.1003 0.1064,-0.0186 0.3218,-0.2649l0.6749 -1.0379c0.3329,-0.6749 1.0309,-2.2548 0.7393,-2.901 -0.1878,-1.0467 -0.1431,-2.1566 -0.3501,-3.2977 1.6985,0.404 3.1093,2.1262 3.4251,3.9989 0.1991,0.683 0.4283,1.7623 0.1147,2.5013 -0.1761,-0.371 -1.0127,-1.9641 -1.0702,-2.3196l-0.2384 0.225c-0.0401,0.4122 0.3129,1.2531 0.4176,1.6659 0.1467,0.5778 0.0502,1.3633 0.0502,1.9952 -0.1127,0.2909 -1.1432,1.1148 -1.3458,1.6717 -0.0002,0.0004 -0.6172,2.3307 -0.4631,2.4028 -0.0946,0.7665 -0.2769,2.8402 -0.8911,3.4155l-0.1057 -5.9363c-0.2409,0.9326 -0.363,1.6062 -0.7402,2.4705 -0.1625,0.3725 -0.1363,0.3682 -0.3817,0.5924l-1.4587 -1.6199c-0.3264,-0.2118 -0.664,-0.3457 -0.8219,-0.7129 -0.1584,-0.369 -0.0007,-1.0757 -0.2331,-1.2302 -0.1643,0.9051 -0.8506,1.5107 -1.2219,2.1127 -0.6223,0.6709 -2.2214,2.2139 -3.3436,2.6586l0.6708 -1.5821c0.4418,-1.1089 0.6589,-1.2351 0.3182,-1.3992 -0.0323,0.1767 0.0174,0.1008 -0.1128,0.3414 -0.3686,0.6808 -2.9992,4.0207 -3.4698,4.2783 -0.2138,0.3722 -0.2454,0.4634 -0.679,0.6614 0.1056,-0.4522 0.1493,-0.6554 0.5281,-0.8384l0.783 -2.3071c-0.1346,0.3266 -0.6221,1.0328 -0.8701,1.1923 -0.1802,0.542 -0.1823,0.4985 -0.4985,0.952 -0.8521,1.2219 -2.9353,4.1628 -4.1133,4.5888 0.0419,-1.1178 -0.0361,-6.3152 0.8151,-7.2967 -0.0053,-0.0308 -0.0595,-0.2769 -0.0821,-0.342l-0.7154 0.8401c-0.0947,0.203 -0.1728,0.3457 -0.2649,0.5674l-0.8428 2.2493c-0.2562,0.7967 -0.2956,1.1458 -0.3874,1.9073 -0.0879,0.7298 -0.1337,0.221 -0.1279,1.4424 0.0023,0.4786 -0.0385,1.1007 0.0299,1.5587 0.0618,0.4141 0.1108,0.6181 0.1108,1.2455l-0.2515 -0.5591c-0.6886,-0.9832 -0.2828,-0.8668 -0.6549,-1.4377 -0.6766,-1.038 -1.1698,-3.1859 -1.0583,-4.0704 -0.2932,-0.2633 -0.2062,-0.2653 -0.2316,-0.7983l-0.0965 -2.9087 -0.6425 7.6675c0.0347,2.2897 1.7398,6.3652 1.7982,6.8397l-2.7106 -2.6443c-1.1223,-1.45 -2.1532,-3.8952 -2.6483,-5.9885 -0.9787,-4.1378 -0.5453,-4.2139 -0.5399,-7.8572l-0.8558 3.9039c-0.0756,1.9821 -0.2139,3.8536 0.1141,5.7934 0.3933,2.3256 1.2491,3.941 1.3879,4.7397 -1.1922,-0.9482 -2.2539,-1.9535 -2.9271,-3.3774 -3.058,-4.526 -3.255,-11.5447 -1.1968,-16.422 1.4553,-3.4485 5.2713,-10.5493 9.151,-11.2249 -1.7766,1.3374 -1.7386,1.1612 -3.1235,2.6696l-0.4224 0.5701c1.7859,-1.1393 2.9627,-2.1148 5.112,-2.4251l-0.5157 0.4247c-0.2027,0.1151 -0.2629,0.1391 -0.466,0.2515 -0.3805,0.2105 -0.6845,0.366 -0.9698,0.5625 -1.3503,0.9303 -2.1583,1.8006 -3.1312,3.0374 -0.3092,0.3929 -0.9964,1.3406 -1.1116,1.7521 1.8528,-1.8071 4.5966,-4.9717 7.4897,-4.9812zm28.2346 -0.0076c-0.0268,-1.0273 -0.5149,-1.6202 -0.9783,-2.1313 1.1054,0.6146 1.4612,0.6267 1.8876,1.4737 0.2001,0.3976 0.1167,0.4262 0.3883,0.8174l0.0134 -0.9874c0.5795,2.0122 1.1497,2.7195 -0.1345,4.5583l-0.4386 -1.6604 -0.4595 1.6851 -3.0675 -1.5337c0.4678,-0.3475 0.4483,-0.275 0.7214,-0.626l-2.0001 -0.0982c0.7107,-0.9828 0.9052,-1.6018 1.8066,-1.4793 0.3631,0.0494 0.2418,0.0668 0.5581,0.2299l0.2978 0.1559c-0.5788,-0.9987 -0.4248,-0.9645 -1.044,-1.3429l2.4493 0.9389zm-39.2072 -4.0565c0.0379,-0.0269 0.0751,-0.0754 0.1046,-0.0918 0.0319,-0.0178 0.0977,-0.0573 0.1303,-0.0744 0.2342,-0.1224 -0.0081,-0.0307 0.355,-0.0795 -0.3784,1.1436 -0.597,2.5315 -1.8175,3.059l1.0204 -1.8583 -0.3796 -0.0861c-0.88,-0.0134 -1.3145,0.4641 -2.5621,-0.0453 -0.7024,-0.2869 -1.289,-0.8462 -1.4238,-1.5515l0.9773 -1.1455 0.3486 0.5537c0.0841,0.1522 0.1593,0.2904 0.2564,0.4311 0.9753,1.4112 2.055,1.1073 2.9904,0.8886zm55.4612 -0.1462c0.0648,-1.7094 0.749,-2.2151 2.1059,-2.7225 3.1302,-1.1706 4.9141,-0.2085 6.9944,1.4684 1.8094,1.4585 3.8438,2.047 5.6348,3.6183 0.8782,0.7704 1.468,1.8711 0.8302,3.214 -1.8296,3.8521 -4.8854,7.9413 -7.8393,10.6702 -2.2723,2.0992 -3.6863,2.1305 -5.3709,-0.7967 -3.0755,-5.3442 0.6681,-12.7244 -1.3541,-15.9986l-1.001 0.5469zm-68.5739 0.9163c0.6339,-0.1584 0.8318,-0.5003 1.2685,-0.8961 0.7199,1.8695 2.9797,7.8024 4.3481,8.6934 -0.5001,-1.5706 -1.2955,-3.7511 -1.2835,-5.4015 0.3244,0.4699 0.231,0.3715 0.3989,0.919 0.5142,1.6766 1.8478,4.2694 2.9904,5.0785l-0.6499 -2.4811c-0.0056,-0.4795 0.0142,-0.1218 0.0808,-0.2854l1.4565 2.5189c0.3453,0.768 -0.6555,1.9658 -0.6797,2.8995l1.5835 -2.2345c0.1556,-0.289 0.0243,-0.3459 0.7364,-0.6394 -0.3255,0.989 -0.2593,0.6275 -0.4262,0.8197l-0.9799 2.835 2.0683 -2.6388c-2.682,7.6182 -2.3959,5.4605 -2.6535,13.4458l-2.0704 -5.6276c-1.3877,-3.5754 -2.5722,-3.8492 -3.1124,-4.6184 -0.2706,0.0151 -4.3227,-1.8519 -4.8538,-2.1375 -1.3395,-0.7204 -2.92,-1.9785 -3.7799,-3.1673 1.4043,0.6873 2.2054,1.1894 3.716,1.5789 0.5781,0.1491 0.8994,0.3363 1.2415,0.0788 -1.886,-1.1099 -4.9518,-2.5898 -5.6874,-4.8766 0.7366,0.497 2.7065,1.8916 3.4716,2.0155l0.4146 0.0367c-0.1765,-0.2745 -0.0017,0.02 -0.1886,-0.3506 -0.0117,-0.0232 -0.1575,-0.322 -0.1655,-0.3367 -0.4458,-0.3841 -1.0874,-0.7726 -1.6643,-1.3197 -0.5027,-0.4767 -1.0576,-0.973 -1.3413,-1.6798 0.8684,0.1919 1.6984,0.8805 2.5318,1.1127l0.4274 0.0634 -1.6439 -3.319c1.1009,0.2718 0.698,0.2416 0.866,0.3888l1.5383 0.7529c0.3159,-0.2186 0.2241,0.5602 0.2241,-0.201l-1.2428 -1.391c1.425,-0.9272 2.9444,-1.6608 3.5782,-3.1363 0.1317,-0.3064 0.0309,-0.2165 0.333,-0.5646 0.2131,2.9789 0.4954,2.0229 -1.062,3.9699l0.2111 0.0955zm13.7343 -3.9227c-0.4004,0.0834 -0.9998,0.3834 -1.2114,-0.1475 -0.2387,-0.5987 0.1847,-0.7723 0.6664,-0.8066l-1.0255 2.9997 1.5705 -2.0456zm54.193 0.1338c-0.2143,0.4593 -0.3735,1.0308 -0.7113,1.3444 -0.3474,0.3225 -2.2876,1.6726 -2.6384,2.8408l1.1536 -2.907 -0.3699 -0.1365c-0.2908,0.0455 -0.0899,-0.4247 -0.2554,0.1813 -0.2086,0.5289 -0.3153,0.4814 -0.7263,0.7009 -0.4684,0.2219 -0.0373,0.014 -0.3593,0.6096l-0.6713 0.8799c-0.309,0.4121 -0.6299,1.0349 -0.8904,1.5415 1.2613,-4.6797 1.0061,-2.0333 1.5548,-3.5533l0.1104 -0.269c0.0418,-0.2688 -0.0078,-0.1424 0.3946,-0.1424 0.3293,0.0043 0.3396,-0.1479 0.3591,-0.3427 -0.147,-0.2661 0.2726,-0.293 -0.2189,-0.215 -0.1733,0.2546 -0.0641,0.1922 -0.4846,0.4396l-0.3389 0.1904c-0.4188,0.2952 -0.4524,0.4452 -0.8812,0.616 -0.2952,0.5455 -2.3121,2.6957 -2.4254,3.6731l1.5986 -4.0022 -0.3131 -0.0795c-0.2364,0.066 -0.3994,0.0834 -0.5542,0.1879 -0.2363,0.1598 -0.1522,-0.0429 -0.2148,0.3131 -0.1665,0.5901 -0.0077,0.2327 -0.3796,0.6422 -0.9891,1.0887 -1.7255,2.6176 -2.1819,3.0245l1.8275 -3.6514c0.0781,-0.0086 0.0755,0.0099 0.2805,-0.157 -0.415,-0.5831 0.1354,-0.3216 -0.4582,-0.2556 -0.0264,0.0028 -0.2997,0.2368 -0.3183,0.2486 -0.146,0.2502 -0.1771,0.3613 -0.6163,0.6054 -1.2935,0.7189 -0.6712,0.7493 -1.5509,1.5067l0.9536 -1.5812c0.344,-0.608 -0.1157,-0.5687 0.7279,-0.9439 -1.1283,-0.24 -0.3658,-0.248 -1.4083,0.5326l-0.5918 0.5396c-1.1587,0.8957 -0.5248,0.7368 -0.9436,1.0322l0.6998 -0.9832 -0.3692 -0.3342c-0.6688,0.5404 -2.1306,1.6219 -2.3673,2.2191 1.8382,-2.5347 2.1629,-3.6144 5.3715,-4.7302 2.1843,-0.7597 6.9565,-1.3865 8.713,-0.2393l-0.5061 0.6542zm-15.7675 3.7465c0.2517,-0.9169 1.6471,-4.0698 2.1094,-4.8295 1.3071,-2.1481 3.9254,-1.221 4.3822,-0.1078 -3.7936,0.2061 -2.6428,-0.2198 -3.8824,1.871 -0.3382,0.5704 -2.1183,2.8039 -2.6092,3.0663zm-16.9924 4.3661c0.0029,-0.6002 0.3609,-0.1854 -0.4148,-0.4671 -1.0376,-0.3766 -2.9367,-0.8335 -4.0131,-0.9068l2.3027 -0.4741 -0.2167 -0.1651 -0.2534 -0.0666c-0.8677,-0.3689 -0.8552,-0.4629 -1.8513,-0.6964l-1.7647 -0.4618c-0.02,-0.0488 -0.0696,-0.0422 -0.1037,-0.0644l2.4498 -0.213 -0.0782 -0.3823c-0.541,-0.1337 -1.365,-0.4878 -2.0362,-0.6859l-1.6596 -0.4204c-0.6487,-0.2076 -0.1436,-0.0393 -0.4003,-0.259l1.9647 -0.0205c-0.8916,-0.7763 -2.4623,-2.0254 -2.8706,-3.0807l2.1131 1.56 -0.4281 -0.567c-0.1003,-0.1291 -0.138,-0.1825 -0.2297,-0.3206 -0.5302,-0.7979 -0.9841,-1.6078 -1.1579,-2.6505 2.4102,3.0724 2.3462,2.9886 5.7013,5.1175 0.7573,0.4805 1.4165,0.9354 2.1174,1.3951 1.9202,1.2596 4.3753,3.1014 5.8779,4.7821 0.9462,1.0585 0.9991,1.573 1.4424,1.7815 -0.7934,-0.7498 -0.3475,-0.4028 -0.9904,-0.6813 -0.118,-0.0512 -0.2055,-0.1067 -0.2972,-0.1495 -1.2747,-0.5959 -3.6754,-1.0266 -4.834,-0.9052l1.7946 -0.121 -1.1071 -0.412c-1.1109,-0.3269 -1.1284,0.0358 -1.0569,-0.465zm-20.1184 -18.9413c-0.1773,-2.0057 -1.1247,-3.3716 -2.6604,-4.0884l3.6037 1.5038c1.4583,0.8907 1.4033,2.5962 1.9654,3.2196l0.483 -2.3069c1.1194,1.7558 1.2407,1.5175 0.8931,3.5975 0.4192,-0.3565 0.9829,-1.2328 1.0074,-1.7092 0.3818,1.2234 0.2766,0.7617 0.2873,2.1043 1.6629,1.5129 2.6482,1.9175 2.5208,4.6318 -0.8696,-1.2387 -1.1746,-1.952 -2.6665,-2.6676 0.7389,1.3909 1.1995,2.0875 1.16,3.8336l-0.3813 -0.4121c-0.6714,-0.9707 -1.2181,-1.7702 -2.6019,-2.2996l0.9953 3.9311c-1.2872,-1.9615 -3.1384,-5.4333 -6.7331,-3.7902 -0.495,0.2262 -0.7785,0.4663 -1.1695,0.7996 -0.5957,0.508 -0.4399,0.6038 -0.9973,0.9444l1.27 -2.4281c-2.5447,1.6282 -3.6726,1.8701 -4.5767,4.0578 -0.571,1.3816 -0.5909,2.213 -0.6547,2.0395 -0.0074,-0.0199 -0.0365,0.0708 -0.0556,0.1058 0.0699,-4.1731 -0.3374,-3.9968 1.3768,-7.0161 -1.0375,0.7243 -1.4205,1.159 -2.1491,2.2658 -0.3199,0.4859 -0.5686,0.9189 -0.778,1.4768 -0.2008,0.535 -0.285,1.0996 -0.5341,1.5434l1.4073 -5.3096c0.5305,-1.1573 2.0214,-2.1166 3.2165,-2.677l0.3778 -0.2462c0.0168,-0.0538 0.0571,-0.06 0.0861,-0.0895l-3.428 1.3067c-0.3764,0.22 -1.9151,2.0462 -1.9725,2.1477 -0.249,0.4415 -0.0702,0.0812 0.0124,0.2369l0.1177 -0.5694c0.7274,-3.5416 4.2361,-5.5358 8.0165,-4.3406 -0.8983,-1.2465 -2.1792,-1.276 -3.2519,-1.5836 -0.3872,-0.111 -0.2295,-0.0595 -0.4513,-0.2557l3.8594 0.0113c1.0606,0.2264 1.9677,1.7437 2.4054,2.0324zm9.5002 2.9942c-0.8624,-2.0527 0.3236,-4.8173 1.2135,-6.0503 0.8669,-1.2013 3.3005,-2.4804 5.4847,-1.4952 -1.2269,0.4392 -2.6976,0.7144 -3.203,2.101l3.6209 -0.0913c0.9756,0.3037 2.0217,0.8529 2.4403,1.6746l-4.1633 -0.4587c0.4231,0.2004 0.4824,0.1385 0.9561,0.2194 1.9876,0.3398 4.6064,2.3082 4.5907,3.9887l-3.1334 -1.4545c0.9273,0.8363 1.8864,1.4114 1.6925,3.0892l-2.8309 -1.986 0.4245 1.735c-1.8231,-1.5328 -1.9202,-2.0699 -3.1633,-1.1031 -0.4446,0.3457 -0.4928,0.5422 -0.8652,0.8688 0.1457,-0.6737 0.1278,-0.7662 0.392,-1.3859l-1.8265 0.8629 0.6772 -1.3972c-1.8179,1.6438 -0.7735,0.9905 -1.6048,2.0895l0.1386 -2.7441 -0.8406 1.5372zm-1.3229 -9.6913c0.6116,0.2446 1.356,0.9888 1.8434,1.4603l-0.5205 0.6293 -0.2416 -0.3171c-0.4675,-0.1005 -0.815,-0.3958 -1.2635,-0.5224l-0.8502 -0.3727 0.9341 3.0603 -2.5341 -2.4738c-0.57,-0.3688 -2.7297,-1.5438 -3.308,-1.6785l1.138 1.974 -5.0144 -3.1568 0.6607 1.2993 -2.6509 -1.4862 0.8521 1.8228 -2.9168 -2.3266c-0.3348,-0.4079 -0.1118,-0.4683 -0.5818,-0.1137l1.4229 2.4625 -1.0245 -1.1144c-0.6977,-0.679 -0.8326,-0.4013 -1.2481,-1.1168 -0.3193,-0.0308 -0.1437,-0.0208 -0.5811,-0.2543 -0.228,-0.1219 -0.2909,-0.1637 -0.5824,-0.2335l1.0299 1.4557 -0.3933 -0.2366c-0.7205,-0.2521 -0.9647,-0.6319 -1.7713,-0.8285l0.9657 2.1346 -2.6568 -1.9875 0 0.8407c-0.0652,-0.5877 -0.5356,-1.5851 -0.7227,-2.1371l-0.5237 -1.9856 12.0855 0.4383c1.827,0.3256 6.9596,3.3069 8.4534,4.7643zm-26.8657 -6.4021c0.0977,0.4685 0.0619,3.0276 0.1518,3.9175 0.6294,6.2213 1.8871,12.6756 -0.5335,18.5565 -0.6957,1.6902 -2.4443,4.0622 -3.5756,4.695 -1.2086,0.6761 -2.1482,-0.1083 -2.8532,-0.7302 -2.2502,-1.985 -3.9891,-4.0853 -5.7679,-6.7068 -1.1097,-1.6356 -2.0473,-3.4951 -2.9272,-5.3464 -0.7532,-1.5845 -2.0334,-4.6739 -4.1363,-3.6234l-0.0325 0.9616c3.2291,-5.8776 1.4227,-3.8672 5.5574,-5.5085 0.7132,-0.2831 2.3162,-0.998 2.899,-1.1203 0.2968,-0.3471 -0.0104,-0.1669 0.664,-0.3744 1.4952,-0.4602 2.8899,-1.643 4.0691,-2.2092 0.1805,-0.39 2.4663,-2.472 2.9675,-2.95 0.8501,-0.811 2.206,-2.2195 4.0476,-1.7685 2.4733,0.6057 4.8627,5.3678 4.9056,6.7845l-2.4692 -2.9367c-0.0094,-0.0117 -0.16,-0.2164 -0.1625,-0.2202l-0.0669 -0.1413c-0.9,-0.414 -1.0594,-1.0424 -2.3171,-1.4254l-0.4201 0.1462zm24.9485 -0.148c-1.0466,-0.3763 -2.0049,-0.4436 -2.7208,0.2013 0.3426,-0.6451 0.9765,-0.4633 1.1672,-1.1823 -0.8966,-0.5299 -1.189,-0.4671 -2.2552,-0.3948l-1.677 0.6565 3.6105 -2.163c1.5429,-0.2774 4.7809,5.1084 5.6226,6.1671 0.3923,0.4938 2.3955,3.0178 2.5197,3.4811l-0.7828 0.0443 -2.9343 -3.3159c-0.3254,-0.4469 -2.1497,-3.2438 -2.5499,-3.4943zm-15.8904 91.1674c-0.0898,-0.377 -5.2354,-5.6876 -5.9576,-7.7201 -0.6857,-0.5952 -2.9366,-4.9747 -3.4737,-6.0728 -2.0454,-4.1816 -3.8173,-9.8105 -4.9523,-14.4116 -0.3169,-1.2851 -0.5853,-2.496 -0.9035,-3.8522 -0.2211,-0.9416 -0.5704,-3.5537 -0.7832,-3.7139 1.6618,4.3572 3.6221,9.3451 5.9929,13.2284 2.7202,4.4555 4.3369,7.145 8.0316,11.0334 1.4468,1.5226 5.2078,4.7357 7.11,5.5604l-1.6681 -1.8858c-3.6784,-4.2759 -7.7617,-10.4008 -8.4346,-16.2023 0.5468,0.5424 3.0257,5.504 5.0953,6.8119l-1.1687 -2.5237c-2.5241,-5.6597 -2.9208,-12.5232 -1.1144,-18.4598 0.195,-0.6408 0.5547,-2.0608 1.0563,-2.5215l-0.51 5.1c-0.2895,4.9584 1.0182,9.2021 2.8034,13.4244 -0.5914,-2.5412 -0.8685,-3.2625 -0.9414,-5.9914 -0.0402,-1.5107 0.093,-3.3643 0.3453,-4.8594l0.2089 -1.0767c0.0779,-0.2112 0.1232,-0.2077 0.187,-0.3002l1.6419 9.3291c-0.2265,-3.9833 -0.5464,-5.8301 0.2398,-9.8011 0.9591,6.1792 1.3749,11.8203 4.3711,17.3346 -0.914,-4.1292 -1.7243,-8.6964 -1.0205,-12.9485l3.6194 13.4579c-0.1938,-2.3003 -0.7447,-7.5783 -0.5781,-9.5943 1.5012,4.8804 2.3327,6.5973 2.3345,11.9672 0.8429,-1.2879 0.7731,-4.751 0.937,-6.1467 0.3469,0.4758 0.2803,0.3784 0.4155,0.9858 0.231,1.0378 0.3731,1.9553 0.4517,3.0076 0.1333,1.7814 -0.0335,2.7125 -0.2453,4.3533 0.7653,-0.671 4.1673,-3.7362 4.7769,-4.0548l-1.0405 -8.9046c0.8407,0.7725 3.6449,3.5407 4.5478,3.8067l0.5411 -1.1188c1.304,-2.5236 7.4966,-4.6938 10.296,-10.6026 0.1999,-0.4219 0.7544,-1.8335 0.9435,-2.0866l0.2385 0.5122 2.5665 -3.2079 0.332 0.6484c0.516,1.3441 1.612,3.0086 3.088,3.4796l0.1867 -1.0168 1.5823 1.5984 0.4564 -0.4291 2.8591 3.2831c-1.4799,3.1288 -1.881,3.3679 -2.2195,6.9881l-15.7515 3.3219c-1.0276,0.614 -1.9696,1.267 -2.8249,1.9404 -2.5256,1.9884 -5.1418,4.6042 -7.4856,6.6796 -2.3211,2.0553 -12.3248,11.5059 -14.5801,13.8895 -1.1588,1.2247 -4.3241,3.8975 -4.6953,4.8474l3.7106 1.7819 6.4805 -6.4614c1.2013,-1.2521 8.3329,-8.5425 9.5985,-9.6164 1.3814,-1.1718 3.1857,-2.1757 3.5649,-2.8902 1.3406,-2.526 3.9034,-5.264 6.0022,-6.7562 7.8823,-5.6043 16.0652,-3.4949 26.9676,-5.1376 1.8262,-0.2751 3.59,-0.6587 5.4489,-0.8679 1.8173,-0.2045 4.2983,-0.4825 5.8577,0.3156 1.1961,0.6121 1.9313,1.7597 1.5603,3.1453 -0.1921,0.7175 -0.2949,0.6707 -0.9833,0.663 -0.1737,-3.0853 -0.2133,-1.6003 -0.6864,-2.7163 -0.6948,0.2956 0.4175,0.4339 -0.15,1.9558 -0.2212,0.5933 -0.6651,1.1166 -1.1728,1.4712 -5.018,3.5048 -19.1363,2.6659 -24.2542,6.8877 -1.3996,1.1543 -1.5348,1.3206 -2.785,2.5964l1.3626 -0.0675c2.6857,-0.2792 5.1834,-0.4132 7.9309,-0.1253 2.5399,0.2661 4.9452,0.6717 7.4288,0.9526l3.3659 1.5958 6.849 0.5474c0.7808,-0.3411 1.3523,-0.9093 1.8462,-1.479l3.4557 -1.9124c0.7455,-1.185 0.9199,-2.5388 0.9803,-4.2263 3.0953,-2.1294 11.7551,-8.2912 14.9202,-8.0633 2.1198,0.1528 4.2769,2.9564 0.8694,4.9447 -0.7427,0.4333 -2.3475,1.206 -3.1836,1.4133l1.6163 -2.1432c0.4447,-0.4532 1.6245,-1.1752 1.9533,-1.6618l-3.0446 1.6865c-0.449,0.2985 -1.9912,2.1571 -2.0421,2.2482l-0.0748 0.2219c-0.0414,0.1265 -0.0124,0.1549 -0.0225,0.299 -0.7395,0.4872 -0.512,0.3888 -1.3078,0.7463 -0.8404,0.3776 -2.5505,1.55 -3.345,2.1608l-0.4033 0.2739c-0.2585,0.1649 -2.5403,1.9127 -2.7822,2.2869 -0.8324,1.287 -6.5129,3.9705 -8.4542,5.0398 -0.6293,0.3467 -5.3208,3.121 -5.5629,3.0968 -0.4131,0.5343 -1.5695,1.263 -2.1525,1.6557 -2.9791,2.0067 -12.3149,2.5777 -16.0783,2.84 -2.4869,0.1734 -4.9722,0.0514 -7.4581,0.0351 -2.5482,-0.0168 -7.6945,-0.6321 -9.8223,1.3531 -0.6728,0.6278 -1.3276,1.3214 -1.8468,1.9397 -1.5039,1.7909 -5.7354,6.0414 -7.3951,7.743l0.164 0.3343c0.6531,0.0235 2.0336,0.8953 2.9128,1.1073l3.6532 -3.2592c1.0384,-0.9927 2.2925,-2.5672 3.6911,-3.1838 2.5885,-1.1412 8.5843,1.076 11.1518,1.7768 3.5997,0.9825 7.1752,2.099 10.8603,2.9073 5.2642,1.1544 6.6456,-0.1554 10.2266,-2.45 2.0491,-1.3129 7.7403,-2.5251 10.5554,-3.2126 1.7402,-0.4249 3.7968,-0.8687 5.4085,-1.4346 3.329,-1.1693 7.4314,-5.3921 12.5939,-7.8988 1.5171,-0.7367 3.1191,-1.4348 3.813,-3.0443 1.0773,-2.4982 -0.6444,-3.7152 -1.5896,-4.6426 1.9641,-1.1707 4.5601,-2.3361 5.2817,-4.3067 0.9607,-2.6233 -1.2054,-5.2255 -3.8277,-5.2769 0.1918,-2.6728 0.3581,-2.7638 -0.253,-5.4409 -1.0961,-4.8015 -3.5144,-8.5803 -6.325,-12.2103 -1.3337,-1.7226 -1.8958,-2.0939 -2.9764,-3.3357l-2.2282 -3.9338c-0.8366,-1.3126 -3.0102,-5.3178 -1.6647,-6.9816 1.6388,-2.0265 5.5613,-7.2159 5.8913,-9.7026 0.2674,-2.0148 -0.7994,-3.4445 -1.8529,-4.3436 -0.7699,-0.6571 -2.9064,-1.8055 -3.8826,-2.302 -3.2798,-1.6681 -4.223,-4.0961 -9.1002,-3.2728 -1.5905,0.2685 -0.9831,0.338 -2.5007,-0.1412 -4.3644,-1.3778 -7.2177,-0.1424 -8.2182,-0.2249l-5.7578 -1.6279c-1.982,0.5839 -2.7548,2.206 -3.5208,4.0448 -0.3586,0.8608 -0.7366,1.7504 -1.1193,2.6541 -0.9141,2.1586 -0.4028,1.6509 -1.5276,2.2633 -2.0247,1.1024 -2.8027,3.6613 -2.1599,5.2474 2.5229,0.8585 1.3139,0.6754 2.4705,1.1869l-0.0738 3.6673 -1.3753 1.5003c-0.262,0.0837 -2.0981,0.5604 -2.1716,0.5669l-7.3342 -12.4561c-1.0235,-0.7327 -1.8566,-1.3548 -2.9714,-2.0765 -1.6789,-1.0871 -4.6147,-2.4859 -5.7572,-4.059 -0.7565,-1.0416 -1.0504,-2.553 0.0238,-3.5109l1.6829 2.0859c0.6459,-0.5996 0.9389,-1.6717 1.1346,-2.5123 2.0307,2.3348 0.8892,1.1903 1.8105,2.7258l0.9385 -3.4987 1.8665 2.706c0.3275,-0.3378 0.2623,-0.1992 0.3951,-0.7134 0.0695,-0.2696 0.1215,-0.4959 0.1776,-0.7978 0.1106,-0.597 0.1174,-1.1893 0.0971,-1.8443 -0.1032,-3.3467 -1.5493,-6.0813 -4.4257,-7.7076 0.3736,-0.4849 0.4761,-0.3349 0.9424,-0.7012l-3.6682 -1.5254 -3.5898 -4.9527c-2.3151,-3.194 -4.7695,-8.4513 -9.4597,-7.0088 -1.8543,0.5703 -3.8325,2.762 -4.26,4.1601l-5.8006 -0.5556c-2.1267,0.0595 -3.5868,0.5414 -5.4695,0.7875 -1.3182,-1.7187 -2.6559,-3.6762 -5.1932,-3.9257 -3.1448,-0.3093 -4.6992,1.5163 -6.1074,2.8418 -7.986,7.517 -14.8418,5.2794 -16.669,10.3921 -0.9647,2.6994 0.9558,4.9432 2.2085,6.3324 0.3056,0.3388 0.692,0.7205 1.1635,1.0803 0.2793,0.2133 1.1297,0.7036 1.3271,0.9192 0.214,0.2337 2.6389,4.294 4.6855,6.5315 0.2742,0.2998 0.8185,0.8222 1.0695,1.1917l-0.6826 13.3196c-0.2184,2.108 -0.5026,4.194 -0.8615,6.2 -0.1723,0.9627 -0.2732,2.0599 -0.6363,2.8762 -2.822,6.3444 -5.3829,10.0643 -9.0155,15.5072 -0.6429,0.9633 -2.7264,3.4421 -2.9581,4.0303 1.9294,2.9807 3.7528,5.9964 6.1473,8.6938 5.8453,6.5847 8.5117,8.7425 15.8904,13.5671 1.9454,1.2719 7.634,4.315 9.6318,5.0583l3.4489 -3.0494z"/>
   <path id="_627492056" class="fil1" d="M87.0478 145.428c0.1847,-0.18 0.2464,0.0379 -0.0081,-0.6384 -1.3913,-3.6987 -1.6242,-7.9117 -0.5355,-11.696l0.3843 6.9396 0.4406 -2.4074c0.0068,-0.0505 0.0403,-0.0585 0.0592,-0.0885l0.3005 2.5316c0.0738,0.5603 0.4633,2.026 0.4457,2.2192l0.0312 -2.053c0.0261,-0.7259 -0.0007,-1.9628 0.3072,-1.9628l0.8558 -3.9039c-0.0054,3.6433 -0.4388,3.7194 0.5399,7.8572 0.4951,2.0933 1.526,4.5385 2.6483,5.9885 0.2197,-0.2233 0.269,0.1217 0.0068,-0.6165 -1.4472,-4.0736 -1.9023,-8.3428 -1.3044,-12.6912 0.4158,0.7243 0.3062,0.3664 0.2926,1.123 -0.0263,1.4693 0.8182,5.7719 1.4906,6.3084 0.0835,-2.0625 0.0134,-4.3108 0.5224,-6.1548 0.4175,-1.5123 0.2472,-1.3338 0.875,-1.6972l0 5.5724c-0.1115,0.8845 0.3817,3.0324 1.0583,4.0704 0.3721,0.5709 -0.0337,0.4545 0.6549,1.4377l0.2515 0.5591c0,-0.6274 -0.049,-0.8314 -0.1108,-1.2455 -0.0684,-0.458 -0.0276,-1.0801 -0.0299,-1.5587 -0.0058,-1.2214 0.04,-0.7126 0.1279,-1.4424 0.0918,-0.7615 0.1312,-1.1106 0.3874,-1.9073l0.8428 -2.2493c0.0921,-0.2217 0.1702,-0.3644 0.2649,-0.5674l0.7154 -0.8401c0.0226,0.0651 0.0768,0.3112 0.0821,0.342l-0.3114 4.8541c0.42,-0.2291 0.4554,-0.5629 0.6632,-1.0227 0.4717,-1.0443 1.5307,-2.2652 2.2478,-3.186l-1.2351 3.3634c0.3718,-0.2261 0.7285,-0.8312 1.0664,-1.1837 0.3712,-0.3871 0.7458,-0.7878 1.3658,-1.0692 0.248,-0.1595 0.7355,-0.8657 0.8701,-1.1923l-0.783 2.3071 -0.0879 0.2813 0.2388 -0.1043c0.4706,-0.2576 3.1012,-3.5975 3.4698,-4.2783 0.1302,-0.2406 0.0805,-0.1647 0.1128,-0.3414 0.1125,-0.5091 -0.2987,-0.0645 0.3402,-0.5796 0.2957,1.2398 0.0194,0.3846 0.0121,1.211l0.0762 0.4961c0.007,0.0194 0.034,0.0699 0.041,0.086l1.5536 -0.9469 0.3315 0.0561c0.3713,-0.602 1.0576,-1.2076 1.2219,-2.1127l0.0378 -0.4575c1.2364,0.5461 0.716,0.1969 1.6344,1.929 0.5181,-0.8393 0.2352,-0.6273 0.7013,-0.8415l0.5603 0.7013 0.2877 -0.141 -0.0194 -1.694c0.0814,-0.4545 0.0956,-0.3105 0.2934,-0.5492 0.52,0.8508 0.0983,0.2687 0.4046,1.0468 0.4745,1.2049 0.3178,1.6669 0.2854,3.3008l0.2909 -0.4208 0.156 0.147c-0.1541,-0.0721 0.4629,-2.4024 0.4631,-2.4028 0.2026,-0.5569 1.2331,-1.3808 1.3458,-1.6717 0,-0.6319 0.0965,-1.4174 -0.0502,-1.9952 -0.1047,-0.4128 -0.4577,-1.2537 -0.4176,-1.6659l-0.2654 -0.2702c-0.4072,-0.504 -0.5837,-1.2584 -1.3719,-1.2584l-0.2438 0.4207c0.2916,0.6462 -0.4064,2.2261 -0.7393,2.901l-0.6749 1.0379c-0.2154,0.2463 -0.1914,0.1646 -0.3218,0.2649l-1.0238 0.6746c-0.1935,0.1291 -0.3402,0.3252 -0.7414,0.4236 -2.78,0.6816 -4.6072,-0.9152 -5.4053,-2.9586 -0.3767,0.1756 -0.319,-0.2295 -0.3223,0.1817 -3.3119,1.1539 -2.9262,1.8922 -4.3961,3.0468l0.9568 -2.4878c0.4819,-1.093 1.1276,-1.7075 1.2153,-2.0119 -1.1853,0.8543 -2.7352,1.8167 -3.434,3.0435l-0.4508 0.0368c-0.4519,0.2853 -1.568,2.4739 -2.0897,3.3062 0.1402,-1.2973 0.8008,-2.8571 1.2694,-3.7987 0.273,-0.5485 0.5229,-0.982 0.9015,-1.6214 0.4123,-0.6964 0.7155,-1.0519 1.0236,-1.5602 -0.1988,-0.2431 0.2175,-0.1633 -0.2542,-0.2089l-0.536 0.7041c0.9637,-1.7037 1.8119,-3.7518 3.8501,-4.5459l-0.5455 -0.0379 -2.5823 0.9127 3.161 -2.0365c-1.9086,-0.0413 -4.2415,1.3045 -5.3733,2.1414l-3.6691 3.9781c0.6676,-2.2582 2.4557,-4.8683 4.4127,-6.3209 0.454,-0.3369 0.4741,-0.2879 0.8714,-0.7009 -1.5189,0.15 -3.7098,1.6283 -4.6943,2.4879l-3.2471 3.9625c0.7399,-2.5414 2.4819,-4.1637 3.0688,-5.1452 1.125,-1.5829 2.3366,-2.6524 4.2941,-3.4989l-0.5906 0.0006c-2.8931,0.0095 -5.6369,3.1741 -7.4897,4.9812 0.1152,-0.4115 0.8024,-1.3592 1.1116,-1.7521 0.9729,-1.2368 1.7809,-2.1071 3.1312,-3.0374 0.2853,-0.1965 0.5893,-0.352 0.9698,-0.5625 0.2031,-0.1124 0.2633,-0.1364 0.466,-0.2515l0.5157 -0.4247c-2.1493,0.3103 -3.3261,1.2858 -5.112,2.4251l0.4224 -0.5701c1.3849,-1.5084 1.3469,-1.3322 3.1235,-2.6696 -3.8797,0.6756 -7.6957,7.7764 -9.151,11.2249 -2.0582,4.8773 -1.8612,11.896 1.1968,16.422z"/>
   <path id="_627492632" class="fil1" d="M122.655 134.485c-0.0604,1.5812 2.8659,1.6047 4.6644,1.8703l-0.1421 0.7261 0.7176 -1.1939 -0.5729 -0.763 1.2515 0.763c-0.5482,0.5752 -0.825,3.7709 -4.1652,3.7153 -0.5084,-0.0085 -0.6275,-0.0271 -0.9685,-0.2089l-0.2288 -5.3679c-0.0307,0.0305 -0.076,0.0338 -0.0924,0.0913 -0.0114,0.0396 -0.1564,0.1432 -0.1785,0.1611 -0.1931,0.1558 -0.1787,0.0572 -0.2851,0.2066zm-3.1502 6.3339l0.4207 -0.851c0.4091,0.4037 0.6475,-0.7845 0.0545,1.3393l1.377 -0.6514 -0.1406 0.6751 1.4513 -0.0381 0.5244 -0.7766c0.2462,-0.3836 0.4796,-0.3623 0.52,-0.6396l0.3868 -0.0409 0.1257 0.2087c0.3562,0.126 0.2477,-0.0484 0.6401,0.5687 0.5177,0.814 0.97,0.9725 1.9301,1.6415l-0.2225 -0.99c0.6223,0.2884 0.5516,0.2288 0.7848,0.8367 0.0116,0.2926 0.3337,0.6959 0.5627,0.7991l1.6679 0.9901 -0.8077 -2.2213c0.5031,0.4934 1.043,1.0882 1.4987,1.6768 0.97,1.2524 0.6513,0.4941 1.0693,2.2969 0.3657,-0.3796 0.3695,-0.6347 0.2503,-1.4817l-0.1369 -0.7348c-0.5052,-0.5516 -0.4382,-0.682 -0.5968,-1.5077 1.0138,0.3724 0.4908,0.2665 1.0449,0.9141 1.5144,1.7701 1.0666,2.4367 1.3115,3.5723 0.0836,0.388 -0.0605,0.1664 0.2091,0.3743 0.4015,-0.5796 0.8179,-1.4955 0.7425,-2.3436l0.0976 -2.3289c1.038,0.7782 1.0887,3.0552 1.2481,4.1932 0.2872,-0.327 0.1265,-0.1961 0.5028,0.1358l0.5936 -2.5537c0.5302,0.4268 0.4234,-0.8739 0.4193,1.6822l0 1.5434c0.34,-0.7997 0.1383,-0.0314 0.7117,-0.6936 0.8237,-0.9511 0.816,-3.1823 0.9472,-4.3905 0.5667,0.5744 0.9913,2.4952 1.2092,3.2229l0.6658 -4.4539c0.7943,1.145 0.2694,0.1208 0.5388,1.0953 0.3596,1.3003 0.4152,-0.0157 0.4152,2.4149 0.1891,-1.1509 1.4884,-1.4039 0.4732,-6.269 1.3731,1.8828 0.9813,1.8849 1.4908,2.6935 0.0616,-0.0866 0.1076,-0.0856 0.1872,-0.2938 0.0556,-0.1455 0.0851,-0.3191 0.1104,-0.4772 0.1738,-1.0865 -0.0408,-1.6007 -0.2628,-2.788 0.5447,0.2636 0.7938,0.8962 1.0354,1.425l0.3525 0.5908c0.1326,-0.7842 0.2875,-1.6938 0.0725,-2.5605 -0.1059,-0.427 -0.4437,-1.5446 -0.9226,-1.7186 -0.2554,-0.1667 -0.8792,-0.8967 -1.7488,-0.9248l-1.6043 3.0128 0.1383 -2.4004c-0.5111,0.5974 -1.7067,3.7332 -1.9605,4.3942 -0.3962,-0.4516 -0.0819,-0.2716 -0.6282,-0.7616l-0.3789 1.5076c-0.1939,-0.3467 -0.3523,-2.6661 -1.2296,-3.7343l-2.6798 -2.4898 0.5435 1.893 -3.8314 -2.4718c0.1366,0.1277 -0.0225,0.017 0.2571,0.2203 0.9312,0.6774 0.6551,0.4757 1.47,1.7548 -1.537,-0.8908 -0.7445,-0.7218 -3.16,-0.7793 0.3004,0.3467 0.8876,0.6382 1.5742,1.1803 -0.717,-0.1682 -1.0223,-0.4771 -1.9181,-0.522 -0.9752,-0.0492 -1.258,0.1167 -2.1234,-0.4794l0.9971 -0.3541 -1.7918 -0.0585 0.7179 -0.6248 -0.7584 0.1777c-0.9612,1.4057 -2.6027,-0.3636 -3.1246,-1.371l-0.4131 -0.3615 0.0546 0.8036 -0.1677 -0.1014c-1.8204,-1.0059 -0.4463,-1.3748 -3.9627,-0.3929 0.8899,0.1053 1.3156,-0.0303 1.923,0.6662 -2.4762,-0.1022 -2.5326,0.6762 -3.8786,2.7197l1.3685 -0.5219c-1.1454,2.3338 -1.2526,0.0059 -1.3249,5.0695 -0.1214,-0.2153 -0.087,0.0255 -0.0233,-0.2341 0.1713,-0.6984 0.3793,-1.3455 0.944,-1.9033 0.2118,-0.2091 -0.0312,0.0426 0.2201,-0.2022 0.5583,-0.544 -0.0083,-0.1806 0.963,-0.7459 -0.7518,1.1221 -1.3214,1.8611 -1.1693,3.5149 0.0305,0.332 0.0376,0.2774 0.1882,0.5978 0.0228,-0.0285 0.0601,-0.1063 0.0692,-0.0846 0.009,0.0213 0.053,-0.0658 0.0649,-0.0864 0.5701,-0.9848 0.0641,-0.3248 1.0219,-1.6126 0.0186,0.0347 0.0516,0.0456 0.0562,0.1042 0.0044,0.0565 0.0416,0.079 0.0459,0.1048 0.0603,0.3559 0.0039,0.5281 -0.0772,0.8067 -0.4861,1.6701 -0.4308,0.0522 -0.1985,2.6852 0.1109,-0.6331 0.1432,-0.5111 0.4201,-1.2093 0.3971,-1.0012 0.3299,-0.5159 0.5617,-0.8716z"/>
   <path id="_627492176" class="fil1" d="M63.6539 91.1437l-0.5563 2.2563 0.5893 2.1931c0.6932,-1.3435 -0.1637,-1.4223 1.7373,-3.0846l0.6475 3.9104c0.0136,-0.109 -0.0074,-0.1373 0.0437,-0.2543 0.0984,-0.2253 0.1533,-0.2919 0.2153,-0.3861l0.213 -1.7031c0.0622,-0.7153 0.6315,-1.7543 1.1888,-2.1349l0.2347 3.282c-0.0242,0.9827 0.5157,3.36 0.6639,4.6121 0.0916,0.7733 0.1747,1.5852 0.2126,2.3899 0.0388,0.8254 -0.0552,2.0259 0.0365,2.735 0.0397,1.4094 -0.3956,3.0109 -0.8193,4.175l-1.0614 2.5837c-0.2337,0.4952 -0.1613,0.4383 -0.526,0.7858 0.1064,-0.7182 0.5816,-2.0701 0.7359,-3.1003 0.0433,-0.2892 -0.0025,-0.3146 0.0584,-0.5962 0.0932,-0.4313 0.1178,-0.3756 0.2596,-0.55l-0.3141 -5.7418 -1.7032 8.7111c-0.36,-0.6325 -0.5203,-1.4363 -0.8828,-2.0925l-2.9742 -5.7379c0.0588,0.6219 0.5713,2.0369 0.7937,2.7248 0.2153,0.6666 0.8968,2.304 0.9147,2.787 0.3986,0.4404 0.3494,0.3754 0.6075,1.7258 -0.4023,-0.2422 -1.0668,-1.1166 -1.3242,-1.5562 -1.0863,-1.2777 -2.744,-4.4754 -3.5058,-5.2149l2.9529 6.2018c-1.2415,-0.9444 -2.7938,-3.7243 -3.4164,-4.3852 -0.3901,-0.199 -0.3039,-0.1731 -0.4802,-0.4958 -0.124,-0.227 -0.1717,-0.295 -0.3141,-0.5118 -0.7957,-1.2113 -1.0994,-1.7385 -1.8711,-3.1875 -1.2398,-2.3282 -1.0554,-2.3301 -2.8044,-3.8834l3.4991 -2.6831 -0.5615 2.6924c0.4622,-0.7104 0.1019,-0.8484 0.9094,-1.2709l0.0479 -0.1375c0.4041,-0.8027 1.5649,-2.0304 2.1205,-2.3765 -0.1532,-0.127 -0.0052,-0.0646 -0.3003,-0.0981 -0.5828,0.1223 -2.1858,0.8372 -2.899,1.1203 -4.1347,1.6413 -2.3283,-0.3691 -5.5574,5.5085l0.0325 -0.9616c2.1029,-1.0505 3.3831,2.0389 4.1363,3.6234 0.8799,1.8513 1.8175,3.7108 2.9272,5.3464 1.7788,2.6215 3.5177,4.7218 5.7679,6.7068 0.705,0.6219 1.6446,1.4063 2.8532,0.7302 1.1313,-0.6328 2.8799,-3.0048 3.5756,-4.695 2.4206,-5.8809 1.1629,-12.3352 0.5335,-18.5565 -0.0899,-0.8899 -0.0541,-3.449 -0.1518,-3.9175l0.5603 -0.5795c0.6753,0.024 0.9772,0.3434 1.3158,0.6622 0.3655,0.3442 0.74,0.7559 0.8611,1.1965l0.0669 0.1413c0.0025,0.0038 0.1531,0.2085 0.1625,0.2202l2.4692 2.9367c-0.0429,-1.4167 -2.4323,-6.1788 -4.9056,-6.7845 -1.8416,-0.451 -3.1975,0.9575 -4.0476,1.7685 -0.5012,0.478 -2.787,2.56 -2.9675,2.95z"/>
   <path id="_627492488" class="fil2" d="M93.0305 194.845l-0.164 -0.3343c1.6597,-1.7016 5.8912,-5.9521 7.3951,-7.743 0.5192,-0.6183 1.174,-1.3119 1.8468,-1.9397 2.1278,-1.9852 7.2741,-1.3699 9.8223,-1.3531 2.4859,0.0163 4.9712,0.1383 7.4581,-0.0351 3.7634,-0.2623 13.0992,-0.8333 16.0783,-2.84 0.583,-0.3927 1.7394,-1.1214 2.1525,-1.6557 -0.6922,0.1858 -0.879,0.4634 -1.6461,0.6354 -1.3859,0.3104 -11.4741,1.3538 -12.8223,1.47 -7.6648,0.6607 -14.256,-2.3218 -22.6065,0.3752 -4.6371,1.4977 -7.2551,5.7407 -11.3382,9.011 -0.5388,0.4316 -1.7805,1.329 -2.1898,1.8311l6.0138 2.5782z"/>
   <path id="_627491792" class="fil0" d="M66.5437 94.0754l-0.213 1.7031 0.0574 3.68c-1.4873,-3.7256 -0.7919,-2.1625 -1.7123,-5.3759 -0.2509,0.3527 -0.1607,0.3133 -0.2379,0.8299 -0.1184,0.7916 -0.2947,0.9017 -0.3332,2.1245 -0.0355,1.1272 0.1463,2.1107 0.1274,3.2083 -0.5856,-1.503 -1.282,-3.0058 -1.5462,-4.6038 -0.1019,-0.6171 -0.0492,-1.1897 -0.1562,-1.8027 -2.1246,4.7995 -1.2474,2.3701 -1.506,6.9767l-1.2982 -5.7144 -1.5736 4.7117c-0.2271,-0.742 -0.6341,-1.9226 -0.7171,-2.6691 -0.0082,-0.0735 -0.0357,-0.5138 -0.039,-0.5262 -0.1673,-0.6348 0.1297,-0.2308 -0.2952,-0.4156l-0.0479 0.1375c-0.5764,2.0886 -0.8389,2.6318 -0.1995,5.1242 0.4355,1.6979 1.4065,2.8466 1.8223,4.2159 0.6226,0.6609 2.1749,3.4408 3.4164,4.3852l-2.9529 -6.2018c0.7618,0.7395 2.4195,3.9372 3.5058,5.2149 0.5,-0.1164 0.2251,0.3233 0.4097,-0.3777l0.2195 0.4039 0.0875 -0.1958c-0.0179,-0.483 -0.6994,-2.1204 -0.9147,-2.787 -0.2224,-0.6879 -0.7349,-2.1029 -0.7937,-2.7248l2.9742 5.7379c0.3625,0.6562 0.5228,1.46 0.8828,2.0925l1.7032 -8.7111 0.3141 5.7418 -0.0661 1.1326c0.0214,-0.0273 0.0561,-0.1028 0.0643,-0.0817l0.2006 -0.3655c0.5724,-1.3398 0.7785,-3.5554 1.154,-3.9834 -0.0917,-0.7091 0.0023,-1.9096 -0.0365,-2.735 -0.0379,-0.8047 -0.121,-1.6166 -0.2126,-2.3899 -0.1482,-1.2521 -0.6881,-3.6294 -0.6639,-4.6121 -0.4821,-0.4848 -0.4205,-1.2281 -0.8273,-2.0444l-0.5962 0.8973z"/>
   <path id="_627491696" class="fil1" d="M88.8272 101.732c-0.4377,-0.2887 -1.3448,-1.806 -2.4054,-2.0324l-3.8594 -0.0113c0.2218,0.1962 0.0641,0.1447 0.4513,0.2557 1.0727,0.3076 2.3536,0.3371 3.2519,1.5836 -3.7804,-1.1952 -7.2891,0.799 -8.0165,4.3406l-0.1177 0.5694c-0.0826,-0.1557 -0.2614,0.2046 -0.0124,-0.2369 0.0574,-0.1015 1.5961,-1.9277 1.9725,-2.1477l3.428 -1.3067c-0.029,0.0295 -0.0693,0.0357 -0.0861,0.0895l-0.3778 0.2462c-1.1951,0.5604 -2.686,1.5197 -3.2165,2.677l-1.4073 5.3096c0.2491,-0.4438 0.3333,-1.0084 0.5341,-1.5434 0.2094,-0.5579 0.4581,-0.9909 0.778,-1.4768 0.7286,-1.1068 1.1116,-1.5415 2.1491,-2.2658 -1.7142,3.0193 -1.3069,2.843 -1.3768,7.0161 0.0191,-0.035 0.0482,-0.1257 0.0556,-0.1058 0.0638,0.1735 0.0837,-0.6579 0.6547,-2.0395 0.9041,-2.1877 2.032,-2.4296 4.5767,-4.0578l-1.27 2.4281c0.5574,-0.3406 0.4016,-0.4364 0.9973,-0.9444 0.391,-0.3333 0.6745,-0.5734 1.1695,-0.7996 3.5947,-1.6431 5.4459,1.8287 6.7331,3.7902l-0.9953 -3.9311c1.3838,0.5294 1.9305,1.3289 2.6019,2.2996l0.3813 0.4121c0.0395,-1.7461 -0.4211,-2.4427 -1.16,-3.8336 1.4919,0.7156 1.7969,1.4289 2.6665,2.6676 0.1274,-2.7143 -0.8579,-3.1189 -2.5208,-4.6318 -0.0107,-1.3426 0.0945,-0.8809 -0.2873,-2.1043 -0.0245,0.4764 -0.5882,1.3527 -1.0074,1.7092 0.3476,-2.08 0.2263,-1.8417 -0.8931,-3.5975l-0.483 2.3069c-0.5621,-0.6234 -0.5071,-2.3289 -1.9654,-3.2196l-3.6037 -1.5038c1.5357,0.7168 2.4831,2.0827 2.6604,4.0884z"/>
   <path id="_627491672" class="fil1" d="M73.7782 116.349l-0.2581 0.27 -0.158 -0.2526c-0.2907,-0.5554 0.1526,-0.5082 -1.6245,-0.4028 0.6475,0.9255 0.5623,0.9138 1.3415,1.6889l0.2816 0.2861c0.0217,0.0217 0.0513,0.0516 0.0731,0.0729 0.2163,0.2119 0.7949,0.8194 1.0772,0.7884 -1.0448,-0.5093 -1.6508,-0.8061 -2.7744,-1.2234l-1.5383 -0.7529c-0.492,0.0613 -0.3327,0.0727 -0.3965,0.131 1.2187,2.0021 0.8036,1.1 1.4566,2.0012 0.4435,0.6119 1.1807,1.1271 1.8812,1.5059 0.2303,0.1245 0.2277,0.1705 0.4141,0.1924 -0.9365,-0.2802 -2.655,-0.6117 -3.0049,-0.9637 -0.8334,-0.2322 -1.6634,-0.9208 -2.5318,-1.1127 0.2837,0.7068 0.8386,1.2031 1.3413,1.6798 0.5769,0.5471 1.2185,0.9356 1.6643,1.3197 0.8057,0.2009 4.3997,2.3462 4.8902,2.1344 -1.0923,-0.2287 -3.4797,-0.6553 -4.4927,-1.1152 -0.5413,-0.2456 -0.3062,-0.194 -0.458,-0.3686 -0.7651,-0.1239 -2.735,-1.5185 -3.4716,-2.0155 0.7356,2.2868 3.8014,3.7667 5.6874,4.8766 -0.3421,0.2575 -0.6634,0.0703 -1.2415,-0.0788 -1.5106,-0.3895 -2.3117,-0.8916 -3.716,-1.5789 0.8599,1.1888 2.4404,2.4469 3.7799,3.1673 0.5311,0.2856 4.5832,2.1526 4.8538,2.1375l0.3994 0.0942 -0.1993 -0.8642c1.2201,0.5103 2.8575,3.5556 3.2263,4.8254 0.1782,0.613 -0.0788,0.1882 0.376,0.8559l-0.0852 -4.1702c0.3153,0.272 0.0844,-0.0935 0.3129,0.3083l0.6138 2.3777c0.3086,-0.1628 0.5856,-2.5011 0.8224,-3.4321 0.1497,-0.5887 -0.0648,-0.2456 0.3017,-0.556l0.9799 -2.835c-0.1178,-0.3239 0.1877,-0.3506 -0.3102,-0.1803l-1.5835 2.2345c0.0242,-0.9337 1.025,-2.1315 0.6797,-2.8995l-1.4565 -2.5189c-0.0666,0.1636 -0.0864,-0.1941 -0.0808,0.2854l0.6499 2.4811c-1.1426,-0.8091 -2.4762,-3.4019 -2.9904,-5.0785 -0.1679,-0.5475 -0.0745,-0.4491 -0.3989,-0.919 -0.012,1.6504 0.7834,3.8309 1.2835,5.4015 -1.3684,-0.891 -3.6282,-6.8239 -4.3481,-8.6934 -0.4367,0.3958 -0.6346,0.7377 -1.2685,0.8961z"/>
   <path id="_627491312" class="fil0" d="M145.338 114.465c0.9267,3.7595 0.1285,5.5362 -0.2842,9.2229 -0.2605,2.327 -0.3622,4.6 0.7785,6.6269 0.302,0.5367 0.7063,1.1633 1.2317,1.4005l0.0692 -2.8403 0.8186 2.3347 1.7058 -3.4203c0.3634,0.8316 -0.2646,1.6418 -0.3564,2.4155 1.6759,-2.0376 1.3007,-1.816 2.6999,-3.9774l-0.8954 2.7697 3.1291 -4.2647c0.264,-0.8066 0.5462,-1.4998 0.6071,-2.4449 0.0383,-0.5942 -0.0204,-1.8986 -0.427,-2.3963 -0.1256,0.7883 -0.1103,1.3282 -0.5553,1.8472l-0.1675 -2.3542 -0.4708 -1.5062 -0.4777 -0.2213 0.1109 1.8122c-0.4081,-1.1236 -0.8477,-2.7575 -1.8446,-3.5203l0.2052 2.112 -0.7013 -1.4091c-0.6043,-1.1445 -0.6376,-0.9771 -0.8661,-1.1175l0.15 2.239 -0.366 -1.1403c-0.3855,-0.9695 -0.6416,-0.8326 -0.8511,-0.913l-0.089 2.3081 -1.0306 -2.7054 0.0283 1.8573 -2.039 -3.0568 -0.1123 0.342z"/>
   <path id="_627491552" class="fil1" d="M141.522 180.084l0.0006 0.2949c3.7597,-1.5608 9.0943,-2.145 10.2659,-2.8168 0.6655,-0.3817 2.3288,-1.559 2.8493,-1.6179 0.3664,-0.0459 1.5397,-0.9175 1.9004,-1.2595 0.4335,-0.4112 0.3293,-0.3441 0.8329,-0.6776l3.9797 -2.1877c0.3738,-0.2395 0.6246,-0.3233 1.069,-0.4485l0.4061 -0.9778c0.923,-1.3105 3.6316,-3.4406 5.1604,-3.6218 -1.0481,0.8337 -3.5278,2.5721 -3.8716,3.7466l4.6432 -2.3454c1.6386,-1.3075 0.6259,-3.7157 -1.5726,-3.6965 -2.0957,0.0183 -7.6999,3.7921 -9.0338,4.7248 -1.3734,0.9604 -2.8069,2.0429 -3.9914,3.0274 -3.5769,2.973 -4.4953,2.9935 -8.4595,5.2754 -0.5173,0.2978 -3.999,2.3428 -4.1786,2.5804z"/>
   <path id="_627491288" class="fil1" d="M154.234 124.732l-3.1291 4.2647 0.8954 -2.7697c-1.3992,2.1614 -1.024,1.9398 -2.6999,3.9774 0.0918,-0.7737 0.7198,-1.5839 0.3564,-2.4155l-1.7058 3.4203 -0.8186 -2.3347 -0.0692 2.8403c-0.5254,-0.2372 -0.9297,-0.8638 -1.2317,-1.4005 -1.1407,-2.0269 -1.039,-4.2999 -0.7785,-6.6269 0.4127,-3.6867 1.2109,-5.4634 0.2842,-9.2229 -0.0291,-0.0277 -0.069,-0.0621 -0.0869,-0.0834l-0.6903 -1.0975 3.1243 0.8592c2.2339,0.5578 1.5822,0.9222 2.6973,1.2914l-0.523 -1.1301 3.4945 2.879c0.3741,0.3252 0.5351,0.805 1.0616,1.0303l-0.9387 -2.0346c2.4285,3.9657 2.9436,3.7386 1.9633,6.5651 -0.2321,0.6693 -0.4442,1.0446 -0.8075,1.5431l-0.3978 0.445zm-11.8823 -9.2996l1.001 -0.5469c2.0222,3.2742 -1.7214,10.6544 1.3541,15.9986 1.6846,2.9272 3.0986,2.8959 5.3709,0.7967 2.9539,-2.7289 6.0097,-6.8181 7.8393,-10.6702 0.6378,-1.3429 0.048,-2.4436 -0.8302,-3.214 -1.791,-1.5713 -3.8254,-2.1598 -5.6348,-3.6183 -2.0803,-1.6769 -3.8642,-2.639 -6.9944,-1.4684 -1.3569,0.5074 -2.0411,1.0131 -2.1059,2.7225z"/>
   <path id="_627491168" class="fil2" d="M137.132 158.327c-1.0377,0.4092 -1.0744,1.4204 -0.3856,2.2525 0.7209,0.871 1.1558,0.7376 2.2612,1.0669 -1.4999,0.1936 -1.3156,0.0997 -2.5204,-0.2639 0.245,0.314 -0.2986,0.2871 0.24,0.2496l-14.1448 2.6861c-2.3169,0.5698 -4.3495,1.1194 -6.0592,2.3832 -0.9431,0.697 -3.7622,3.1541 -4.1984,4.1074 0.4268,0.2562 0.4542,0.249 1.0033,0.2935 0.3737,0.0303 0.7587,0.0243 1.1305,0.0492 0.5079,0.0341 0.9849,0.2861 1.6902,0.1244 0.7895,-0.1811 0.2074,-0.0336 0.4775,-0.2348l-1.3626 0.0675c1.2502,-1.2758 1.3854,-1.4421 2.785,-2.5964 5.1179,-4.2218 19.2362,-3.3829 24.2542,-6.8877 0.5077,-0.3546 0.9516,-0.8779 1.1728,-1.4712 0.5675,-1.5219 -0.5448,-1.6602 0.15,-1.9558 -0.4397,-0.3453 0.5712,-0.2906 -0.5597,-0.2906l-2.7317 2.8874c-1.8735,0.3308 -3.5154,0.0758 -3.6533,-1.7661 0.0318,-0.1114 0.2354,-0.1981 0.451,-0.7012z"/>
   <path id="_627491096" class="fil2" d="M109.764 144.86c-0.3537,-0.1768 -0.1269,0.0036 -0.248,-0.3709 -0.0408,-0.1263 -0.0422,-0.5506 -0.2952,-1.2761 -0.1628,-0.4666 -0.2337,-0.9315 -0.4409,-1.3795 -0.5475,1.4848 -1.3187,4.161 -2.2421,5.3503 -0.414,0.5331 -1.7299,1.9571 -2.1851,2.1648 0.1598,-1.0695 0.4526,-2.8426 0.4411,-3.8725l-1.3631 2.0943c-0.2487,0.387 -0.429,0.5906 -0.7055,0.9797 -0.6907,0.9718 -0.3622,0.6278 -0.8301,0.8481l1.1204 -5.865c0.317,-0.8009 0.742,-1.5146 1.3352,-2.0373 1.182,-1.0414 0.9198,-1.3449 1.9576,-1.6699l-0.5301 3.3728c0.3945,-0.8487 0.5059,-0.9866 1.0929,-1.7064l0.1258 -0.1538c0.4274,-0.5708 0.9372,-2.0046 1.3031,-2.6276 0.5821,0.6262 1.3774,1.6146 1.1568,2.5579 0.2427,-0.8517 0.1934,-1.1677 0.5113,-1.575l0.3497 0.3967c0.0177,0.0459 0.0194,0.0777 0.0313,0.1273 0.1845,0.7704 -0.1354,3.4272 -0.5127,4.3663 0.0956,-0.6584 0.5036,-1.303 0.6682,-1.9061 0.8799,-3.2237 0.4706,-4.1005 -1.0982,-6.3698 -0.0465,0.4392 -0.7743,1.3068 -1.1528,1.6539l-3.1916 2.5133c-1.8365,0.8696 -7.2953,5.4377 -7.2669,7.3569l1.6135 5.8411 2.1587 -6.0098c-0.09,0.9237 -0.4118,2.141 -0.6035,3.0737 -0.1627,0.7922 -0.5731,2.2917 -0.2519,3.0817 0.9815,-1.6234 1.7336,-2.4459 2.6517,-4.2018 0.5413,-1.0354 0.3402,-1.0953 0.9233,-1.5949 -0.1412,1.405 -0.9275,3.2208 -1.449,4.5401 1.9542,-1.054 4.2195,-4.3859 5.1735,-6.8358 0.0718,-0.1843 0.1476,-0.395 0.2299,-0.6289l0.328 -0.6788 -0.5447 3.113c0.5282,-0.2944 1.4569,-1.9552 1.7394,-2.672z"/>
   <path id="_627490640" class="fil1" d="M133.294 170.529c0.0372,0.0247 0.0955,0.0123 0.1113,0.0745l0.5414 0.7522c0.1357,-0.4285 0.3417,-0.8654 0.5307,-1.2856l0.4082 -0.9664c0.1557,-0.282 0.1436,-0.2247 0.3391,-0.3936l0.3984 -0.9204c0.1842,0.3316 -0.0543,1.1879 -0.0127,1.7629 0.0465,0.6438 0.2259,1.0485 0.3486,1.6619l0.2762 -0.0277 0.8001 0.7863c0.7959,-0.723 1.4868,-3.2369 1.8231,-4.2949 0.3762,0.4103 0.171,0.4641 0.4989,1.1044 0.8019,1.5661 0.3892,0.9653 2.3061,2.51 1.0373,-0.8545 0.8012,-2.2561 0.9133,-3.5754l-0.0184 -0.2763c-0.1585,-0.4148 -0.2946,-0.6222 -0.55,-0.9329 0.9208,0.4861 0.3948,0.1315 1.0219,0.3671 0.5832,0.219 1.9033,1.7765 2.56,1.9955l0.4768 -2.1289 0.4654 0.0002 -0.0412 -0.6513c-0.0544,-0.6238 -0.0674,-0.3137 -0.6198,-1.1714l-2.6286 -1.7886c-4.1894,2.065 -4.4287,1.9942 -8.9693,3.1107 -1.0724,0.2637 -1.5498,0.1573 -1.9815,1.0779 -0.3134,0.6685 -0.5727,1.7262 -0.166,2.5087 0.761,-1.4384 0.3947,-0.8531 1.3559,-2.0792l-0.1879 2.7803z"/>
   <path id="_627490928" class="fil1" d="M98.3274 104.726l0.8406 -1.5372 -0.1386 2.7441c0.8313,-1.099 -0.2131,-0.4457 1.6048,-2.0895l-0.6772 1.3972 1.8265 -0.8629c-0.2642,0.6197 -0.2463,0.7122 -0.392,1.3859 0.3724,-0.3266 0.4206,-0.5231 0.8652,-0.8688 1.2431,-0.9668 1.3402,-0.4297 3.1633,1.1031l-0.4245 -1.735 2.8309 1.986c0.1939,-1.6778 -0.7652,-2.2529 -1.6925,-3.0892l3.1334 1.4545c0.0157,-1.6805 -2.6031,-3.6489 -4.5907,-3.9887 -0.4737,-0.0809 -0.533,-0.019 -0.9561,-0.2194l4.1633 0.4587c-0.4186,-0.8217 -1.4647,-1.3709 -2.4403,-1.6746l-3.6209 0.0913c0.5054,-1.3866 1.9761,-1.6618 3.203,-2.101 -2.1842,-0.9852 -4.6178,0.2939 -5.4847,1.4952 -0.8899,1.233 -2.0759,3.9976 -1.2135,6.0503z"/>
   <path id="_627491144" class="fil1" d="M147.333 155.251l-0.571 -0.4304c0.3516,-0.2626 -0.749,-0.4483 1.2054,-0.0034 0.8728,0.1987 2.3309,1.091 3.1444,1.5399l0.0401 -0.017c-0.3767,-1.1094 -1.7673,-1.8425 -2.4982,-2.5076l2.8884 1.129c0.8382,0 0.2894,0.0146 0.4997,0.1403l0.0006 -0.1789c-0.2142,-0.3676 -0.4028,-0.2631 -0.6624,-0.804 -0.1472,-0.3068 0.0555,-0.1687 -0.3342,-0.547 -0.5362,-0.5208 -1.9674,-1.4463 -2.946,-1.3662l-2.4512 -0.078c1.4804,-1.3412 3.2715,-1.203 5.1309,-0.9901l0.0006 -0.1038c-1.1442,-0.9295 -3.647,-0.8174 -5.2108,-0.3052 -1.6895,0.5535 -2.8795,1.2727 -4.2879,2.2379l0.8477 -1.4145 -3.2698 1.585c0.3388,-0.5143 1.2006,-1.3729 1.7041,-1.9453 -0.4816,0.0853 -3.1256,1.1844 -3.7613,1.4499 -1.4273,0.596 -2.0255,1.0669 -3.278,1.9027l1.4316 -2.2354 -4.7761 3.324c1.0944,-0.0264 5.9867,-1.131 7.557,-1.0078l7.2214 1.3704 -1.0051 -1.4302c0.7309,0.0458 3.0719,1.0667 3.6922,1.4334l0.2284 0.1755c0.0216,0.0168 0.0561,0.049 0.0758,0.0645l0.1648 0.1253c-0.5275,-0.248 -0.1556,-0.373 -0.7811,-1.113z"/>
   <path id="_627490568" class="fil2" d="M141.522 180.084c-0.6936,0.2465 -1.2963,0.7763 -1.9728,1.2441 -0.6027,0.4168 -1.1136,0.7185 -1.7566,1.1766 -1.1947,0.8511 -2.2839,1.7149 -3.9996,2.0332 -3.1477,0.5839 -7.7889,0.7386 -11.144,0.799l0.6165 0.252c0.1582,0.0331 0.4241,0.0569 0.5952,0.0795 0.4082,0.0535 0.8264,0.1049 1.2562,0.1504 0.7957,0.0842 1.5864,0.1986 2.3804,0.2742 3.9138,0.3726 6.1906,0.8799 9.3804,-0.8642 3.6069,-1.972 7.2621,-3.4739 11.2137,-4.9137 1.599,-0.5825 2.3746,-0.9558 3.5607,-1.9018 0.5652,-0.4509 2.7198,-2.0472 2.9857,-2.4691 -0.5205,0.0589 -2.1838,1.2362 -2.8493,1.6179 -1.1716,0.6718 -6.5062,1.256 -10.2659,2.8168l-0.0006 -0.2949z"/>
   <path id="_627489800" class="fil1" d="M148.394 182.878l0.0008 0.3022c2.7734,-0.4107 4.0935,0.1624 6.3971,-1.4913 1.3314,-0.9557 3.5088,-2.2105 5.055,-3.0841 0.6258,-0.3537 0.885,-0.787 1.6865,-0.8005 0.5232,-0.6804 1.8947,-2.1476 3.3739,-2.1953l-2.2151 2.3399 3.0277 -1.4528c0.9616,-0.9322 0.3947,-2.2907 -0.536,-2.8398 -1.2085,-0.7131 -2.6957,0.2112 -3.4834,0.6495 -2.0103,1.1187 -6.0154,4.1118 -7.7622,5.414 -3.333,2.4846 -4.4167,2.3621 -5.5443,3.1582z"/>
   <path id="_627490160" class="fil1" d="M76.9893 91.8174l0.1945 0.1363c0.0325,0.0212 0.1404,0.0946 0.1774,0.1159 0.3979,0.2276 0.7671,0.3043 1.1958,0.3577l-0.3491 -0.4859 1.3898 0.4328c0.2876,-0.1282 0.3323,0.112 -0.3626,-0.6803 1.1682,0.2914 1.9647,0.8317 2.4124,0.5468l-0.8395 -0.4989c1.0626,0.2825 0.7875,-0.0425 1.3023,0.3335 0.0256,0.0187 0.9198,1.0468 1.1365,-0.1733l2.5586 0.9059c-0.2186,-0.1446 -0.2168,-0.1604 -0.4264,-0.3265l-0.5611 -0.5155c0.5106,0.1014 3.5459,1.2587 3.8926,1.4839 0.4983,0.3236 0.1155,0.245 0.781,0.4287 0.0271,0.0075 0.0741,0.0181 0.098,0.0245l0.1837 0.0523c-0.3331,0.1441 -1.0478,-0.6556 -1.3017,-0.8866l-1.4798 -1.0561c3.2903,0.7469 4.8516,1.5275 7.6125,2.8677 0.7075,0.3435 1.0306,0.4151 1.6498,0.8514 0.0925,0.0651 0.1719,0.1039 0.2533,0.1757 0.3158,0.2783 0.1112,0.073 0.315,0.3771 0.4485,0.1266 0.796,0.4219 1.2635,0.5224l0.1767 -0.0474c-0.3956,-0.638 -0.4998,-0.833 -1.1336,-1.261l-0.1244 -0.4641c-1.4938,-1.4574 -6.6264,-4.4387 -8.4534,-4.7643l-12.0855 -0.4383 0.5237 1.9856z"/>
   <path id="_627490112" class="fil1" d="M109.764 144.86l0.0724 -0.2758c0.3773,-0.9391 0.6972,-3.5959 0.5127,-4.3663 -0.0119,-0.0496 -0.0136,-0.0814 -0.0313,-0.1273l-0.3497 -0.3967c-0.3179,0.4073 -0.2686,0.7233 -0.5113,1.575 0.2206,-0.9433 -0.5747,-1.9317 -1.1568,-2.5579 -0.3659,0.623 -0.8757,2.0568 -1.3031,2.6276l-0.1258 0.1538c-0.587,0.7198 -0.6984,0.8577 -1.0929,1.7064l0.5301 -3.3728c-1.0378,0.325 -0.7756,0.6285 -1.9576,1.6699 -0.5932,0.5227 -1.0182,1.2364 -1.3352,2.0373l-1.1204 5.865c0.4679,-0.2203 0.1394,0.1237 0.8301,-0.8481 0.2765,-0.3891 0.4568,-0.5927 0.7055,-0.9797l1.3631 -2.0943c0.0115,1.0299 -0.2813,2.803 -0.4411,3.8725 0.4552,-0.2077 1.7711,-1.6317 2.1851,-2.1648 0.9234,-1.1893 1.6946,-3.8655 2.2421,-5.3503 0.2072,0.448 0.2781,0.9129 0.4409,1.3795 0.253,0.7255 0.2544,1.1498 0.2952,1.2761 0.1211,0.3745 -0.1057,0.1941 0.248,0.3709z"/>
   <path id="_627489968" class="fil2" d="M73.2393 171.932c0.7222,2.0325 5.8678,7.3431 5.9576,7.7201 0.7058,-0.4457 -0.0577,-0.2826 1.401,-1.3507l0.1982 -0.1995c-0.6186,0.0839 -0.4405,-0.0198 -1.1978,-0.7647 -1.9173,-1.8857 -3.8403,-5.4486 -5.2195,-7.7684 0.958,1.0596 1.7508,2.2446 3.3269,3.911 1.2452,1.3166 2.5124,2.397 3.8642,3.6828 0.2255,-0.0906 0.0795,0.0632 0.2336,-0.1825l-3.5046 -3.6684c-2.0308,-1.9974 -6.4656,-7.7621 -7.6586,-10.2877 -0.2204,-0.4664 -0.4499,-0.7635 -0.6675,-1.1645 -0.3221,-0.5935 -0.275,-0.7075 -0.7614,-1.0431 0.8159,2.0851 4.3167,10.1457 4.3132,11.1148l-0.2853 0.0008z"/>
   <path id="_627490304" class="fil3" d="M58.9208 93.7273c0.2951,0.0335 0.1471,-0.0289 0.3003,0.0981 -0.5556,0.3461 -1.7164,1.5738 -2.1205,2.3765 0.4249,0.1848 0.1279,-0.2192 0.2952,0.4156 0.0033,0.0124 0.0308,0.4527 0.039,0.5262 0.083,0.7465 0.49,1.9271 0.7171,2.6691l1.5736 -4.7117 1.2982 5.7144c0.2586,-4.6066 -0.6186,-2.1772 1.506,-6.9767 0.107,0.613 0.0543,1.1856 0.1562,1.8027 0.2642,1.598 0.9606,3.1008 1.5462,4.6038 0.0189,-1.0976 -0.1629,-2.0811 -0.1274,-3.2083 0.0385,-1.2228 0.2148,-1.3329 0.3332,-2.1245 0.0772,-0.5166 -0.013,-0.4772 0.2379,-0.8299 0.9204,3.2134 0.225,1.6503 1.7123,5.3759l-0.0574 -3.68c-0.062,0.0942 -0.1169,0.1608 -0.2153,0.3861 -0.0511,0.117 -0.0301,0.1453 -0.0437,0.2543l-0.6475 -3.9104c-1.901,1.6623 -1.0441,1.7411 -1.7373,3.0846l-0.5893 -2.1931 0.5563 -2.2563c-1.1792,0.5662 -2.5739,1.749 -4.0691,2.2092 -0.6744,0.2075 -0.3672,0.0273 -0.664,0.3744z"/>
   <path id="_627490496" class="fil1" d="M105.002 116.775c0.3323,0.0499 0.5623,0.0912 0.8143,0.2549 1.2601,0.8196 -1.2273,-0.2199 1.766,1.3205 -1.8795,0.0939 -0.9865,-0.1235 -1.2322,0.2425l0.2534 0.0666c0.8347,0.1811 1.2113,0.5239 1.9146,0.8699l1.7738 0.9515 -1.3465 0.1917c-0.0715,0.5008 -0.054,0.1381 1.0569,0.465l1.1071 0.412 -1.7946 0.121c1.1586,-0.1214 3.5593,0.3093 4.834,0.9052 0.0917,0.0428 0.1792,0.0983 0.2972,0.1495 0.6429,0.2785 0.197,-0.0685 0.9904,0.6813 -0.4433,-0.2085 -0.4962,-0.723 -1.4424,-1.7815 -1.5026,-1.6807 -3.9577,-3.5225 -5.8779,-4.7821 -0.7009,-0.4597 -1.3601,-0.9146 -2.1174,-1.3951 -3.3551,-2.1289 -3.2911,-2.0451 -5.7013,-5.1175 0.1738,1.0427 0.6277,1.8526 1.1579,2.6505 0.0917,0.1381 0.1294,0.1915 0.2297,0.3206l0.4281 0.567 -2.1131 -1.56c0.4083,1.0553 1.979,2.3044 2.8706,3.0807l-1.9647 0.0205c0.2567,0.2197 -0.2484,0.0514 0.4003,0.259l1.6596 0.4204c0.6712,0.1981 1.4952,0.5522 2.0362,0.6859z"/>
   <path id="_627490184" class="fil1" d="M133.991 122.145l0.2828 -1.575c-0.7521,0.3755 -1.4539,1.4156 -1.5217,2.0535l0.2163 2.9875 0.7361 -1.7074 -0.1183 1.873c0.5014,-0.1521 0.5254,-0.5642 1.5606,-0.8915 0.7775,-0.2458 1.7142,-0.1479 2.4131,0.1135l2.8289 2.331 -0.9756 -2.5325c0.708,0.2767 0.9433,0.7829 1.5787,1.2921 -0.0828,-1.1901 -0.8318,-2.3 -1.8765,-2.6845 -0.1132,-0.0418 -0.3846,-0.1155 -0.4989,-0.1429 -0.4551,-0.1096 -0.2048,0.0076 -0.6594,-0.2906l2.4689 -0.2256c-0.7936,-1.3598 -2.3849,-0.7681 -3.5703,-0.5481 0.519,-0.1721 -0.2227,-0.3436 2.3721,-1.2303 -1.8443,-0.5781 -1.74,-0.3568 -3.7348,0.7864l1.3207 -2.0116c-1.7738,0.3525 -2.1818,1.2822 -2.8227,2.403z"/>
   <path id="_627489728" class="fil3" d="M81.6475 92.2407c0.3911,0.1486 0.0122,-0.179 0.4607,0.3114l-0.2876 0.0986c-0.1983,0.0095 -0.13,-0.0147 -0.4204,-0.0994l0.3011 0.5126c0.4155,0.7155 0.5504,0.4378 1.2481,1.1168l1.0245 1.1144 -1.4229 -2.4625c0.47,-0.3546 0.247,-0.2942 0.5818,0.1137l2.9168 2.3266 -0.8521 -1.8228 2.6509 1.4862 -0.6607 -1.2993 5.0144 3.1568 -1.138 -1.974c0.5783,0.1347 2.738,1.3097 3.308,1.6785l2.5341 2.4738 -0.9341 -3.0603 0.8502 0.3727c-0.2038,-0.3041 0.0008,-0.0988 -0.315,-0.3771 -0.0814,-0.0718 -0.1608,-0.1106 -0.2533,-0.1757 -0.6192,-0.4363 -0.9423,-0.5079 -1.6498,-0.8514 -2.7609,-1.3402 -4.3222,-2.1208 -7.6125,-2.8677l1.4798 1.0561c0.2539,0.231 0.9686,1.0307 1.3017,0.8866l-0.1837 -0.0523c-0.0239,-0.0064 -0.0709,-0.017 -0.098,-0.0245 -0.6655,-0.1837 -0.2827,-0.1051 -0.781,-0.4287 -0.3467,-0.2252 -3.382,-1.3825 -3.8926,-1.4839l0.5611 0.5155c0.2096,0.1661 0.2078,0.1819 0.4264,0.3265l-2.5586 -0.9059c-0.2167,1.2201 -1.1109,0.192 -1.1365,0.1733 -0.5148,-0.376 -0.2397,-0.051 -1.3023,-0.3335l0.8395 0.4989z"/>
   <path id="_627489224" class="fil2" d="M92.5169 148.215l2.7106 2.6443c-0.0584,-0.4745 -1.7635,-4.55 -1.7982,-6.8397l0.6425 -7.6675 0.0965 2.9087c0.0254,0.533 -0.0616,0.535 0.2316,0.7983l0 -5.5724c-0.6278,0.3634 -0.4575,0.1849 -0.875,1.6972 -0.509,1.844 -0.4389,4.0923 -0.5224,6.1548 -0.6724,-0.5365 -1.5169,-4.8391 -1.4906,-6.3084 0.0136,-0.7566 0.1232,-0.3987 -0.2926,-1.123 -0.5979,4.3484 -0.1428,8.6176 1.3044,12.6912 0.2622,0.7382 0.2129,0.3932 -0.0068,0.6165z"/>
   <path id="_627489512" class="fil2" d="M148.394 182.878c-0.9857,0.3012 -3.8357,1.7732 -4.8317,2.3141 -0.9768,0.5306 -3.6861,1.8922 -4.3877,2.4233 2.8072,-0.6965 10.2491,-2.5317 12.2401,-3.3914 1.9953,-0.8615 6.8002,-4.7816 10.0303,-5.6698l0.0884 -0.7499c-0.8015,0.0135 -1.0607,0.4468 -1.6865,0.8005 -1.5462,0.8736 -3.7236,2.1284 -5.055,3.0841 -2.3036,1.6537 -3.6237,1.0806 -6.3971,1.4913l-0.0008 -0.3022z"/>
   <path id="_627489704" class="fil3" d="M145.338 114.465l0.1123 -0.342 2.039 3.0568 -0.0283 -1.8573 1.0306 2.7054 0.089 -2.3081c0.2095,0.0804 0.4656,-0.0565 0.8511,0.913l0.366 1.1403 -0.15 -2.239c0.2285,0.1404 0.2618,-0.027 0.8661,1.1175l0.7013 1.4091 -0.2052 -2.112c0.9969,0.7628 1.4365,2.3967 1.8446,3.5203l-0.1109 -1.8122 0.4777 0.2213 0.4708 1.5062 0.1675 2.3542c0.445,-0.519 0.4297,-1.0589 0.5553,-1.8472 0.4066,0.4977 0.4653,1.8021 0.427,2.3963 -0.0609,0.9451 -0.3431,1.6383 -0.6071,2.4449l0.3978 -0.445c0.3633,-0.4985 0.5754,-0.8738 0.8075,-1.5431 0.9803,-2.8265 0.4652,-2.5994 -1.9633,-6.5651l0.9387 2.0346c-0.5265,-0.2253 -0.6875,-0.7051 -1.0616,-1.0303l-3.4945 -2.879 0.523 1.1301c-1.1151,-0.3692 -0.4634,-0.7336 -2.6973,-1.2914l-3.1243 -0.8592 0.6903 1.0975c0.0179,0.0213 0.0578,0.0557 0.0869,0.0834z"/>
   <path id="_627489176" class="fil2" d="M87.0478 145.428c0.6732,1.4239 1.7349,2.4292 2.9271,3.3774 -0.1388,-0.7987 -0.9946,-2.4141 -1.3879,-4.7397 -0.328,-1.9398 -0.1897,-3.8113 -0.1141,-5.7934 -0.3079,0 -0.2811,1.2369 -0.3072,1.9628l-0.0312 2.053c0.0176,-0.1932 -0.3719,-1.6589 -0.4457,-2.2192l-0.3005 -2.5316c-0.0189,0.03 -0.0524,0.038 -0.0592,0.0885l-0.4406 2.4074 -0.3843 -6.9396c-1.0887,3.7843 -0.8558,7.9973 0.5355,11.696 0.2545,0.6763 0.1928,0.4584 0.0081,0.6384z"/>
   <path id="_627489440" class="fil1" d="M130.494 114.656c0.2095,-0.112 0.3822,-0.251 0.617,-0.3777 0.2495,-0.1345 0.0798,-0.0486 0.3657,-0.1531l1.9124 -0.7532c0.2962,-0.3577 0.2622,-0.3253 0.7397,-0.4034 0.3989,0.3901 0.2777,0.3329 0.9417,0.4796 -0.5079,0.3712 -0.4395,0.2499 -0.5937,0.5808l-0.1075 0.26c-0.205,0.1669 -0.2024,0.1484 -0.2805,0.157 0.0009,0.1981 -0.0112,-0.0011 0.734,-0.0153 0.0626,-0.356 -0.0215,-0.1533 0.2148,-0.3131 0.1548,-0.1045 0.3178,-0.1219 0.5542,-0.1879 0.2258,-0.3317 -0.1971,-0.0181 0.3239,-0.3642 0.0109,-0.0072 0.3847,-0.1598 0.4554,-0.1899 0.6762,-0.3596 1.1601,-0.2737 2.0653,-0.2833 0.4915,-0.078 0.0719,-0.0511 0.2189,0.215 -0.0195,0.1948 -0.0298,0.347 -0.3591,0.3427l0.0008 0.2173 0.5867 0.0155c0.1655,-0.606 -0.0354,-0.1358 0.2554,-0.1813 1.0562,-0.6802 1.4844,-0.5447 2.1553,-0.8943l0.4107 -0.2474 0.5061 -0.6542c-1.7565,-1.1472 -6.5287,-0.5204 -8.713,0.2393 -3.2086,1.1158 -3.5333,2.1955 -5.3715,4.7302 0.2367,-0.5972 1.6985,-1.6787 2.3673,-2.2191z"/>
   <path id="_627488384" class="fil2" d="M82.6221 128.175c-0.3665,0.3104 -0.152,-0.0327 -0.3017,0.556 -0.2368,0.931 -0.5138,3.2693 -0.8224,3.4321l-0.6138 -2.3777c-0.2285,-0.4018 0.0024,-0.0363 -0.3129,-0.3083l0.0852 4.1702c-0.4548,-0.6677 -0.1978,-0.2429 -0.376,-0.8559 -0.3688,-1.2698 -2.0062,-4.3151 -3.2263,-4.8254l0.1993 0.8642 -0.3994 -0.0942c0.5402,0.7692 1.7247,1.043 3.1124,4.6184l2.0704 5.6276c0.2576,-7.9853 -0.0285,-5.8276 2.6535,-13.4458l-2.0683 2.6388z"/>
   <path id="_627488360" class="fil1" d="M126.098 119.636l-2.4493 -0.9389c0.6192,0.3784 0.4652,0.3442 1.044,1.3429l-0.2978 -0.1559c-0.3163,-0.1631 -0.195,-0.1805 -0.5581,-0.2299 -0.9014,-0.1225 -1.0959,0.4965 -1.8066,1.4793l2.0001 0.0982c-0.2731,0.351 -0.2536,0.2785 -0.7214,0.626l3.0675 1.5337 0.4595 -1.6851 0.4386 1.6604c1.2842,-1.8388 0.714,-2.5461 0.1345,-4.5583l-0.0134 0.9874c-0.2716,-0.3912 -0.1882,-0.4198 -0.3883,-0.8174 -0.4264,-0.847 -0.7822,-0.8591 -1.8876,-1.4737 0.4634,0.5111 0.9515,1.104 0.9783,2.1313z"/>
   <path id="_627488792" class="fil1" d="M91.2785 87.1085c0.1221,-0.0929 0.0706,-0.1038 0.319,-0.1733 0.0482,-0.0134 0.2458,-0.0406 0.2692,-0.0428 0.372,-0.0353 1.512,0.1284 1.8086,0.2447 0.7501,0.2943 1.1456,0.7175 1.412,1.3472 0.4002,0.2505 2.2245,3.0474 2.5499,3.4943l2.9343 3.3159 0.7828 -0.0443c-0.1242,-0.4633 -2.1274,-2.9873 -2.5197,-3.4811 -0.8417,-1.0587 -4.0797,-6.4445 -5.6226,-6.1671l-3.6105 2.163 1.677 -0.6565z"/>
   <path id="_627488408" class="fil0" d="M122.655 134.485c0.1064,-0.1494 0.092,-0.0508 0.2851,-0.2066 0.0221,-0.0179 0.1671,-0.1215 0.1785,-0.1611 0.0164,-0.0575 0.0617,-0.0608 0.0924,-0.0913l0.2288 5.3679c0.341,0.1818 0.4601,0.2004 0.9685,0.2089 3.3402,0.0556 3.617,-3.1401 4.1652,-3.7153l-1.2515 -0.763 0.5729 0.763 -0.7176 1.1939 0.1421 -0.7261c-1.7985,-0.2656 -4.7248,-0.2891 -4.6644,-1.8703z"/>
   <path id="_627488552" class="fil1" d="M123.359 144.708c-0.0219,0.613 0.1628,1.1561 0.428,1.6273 0.355,0.6307 0.3095,0.2744 0.7667,1.0529 -0.0692,-0.6813 -0.5013,0.0557 0.2791,-1.2615 0.1664,1.1327 1.8678,1.923 2.7218,2.4333l-0.6585 -1.7575c0.991,0.6862 -0.2742,0.3222 2.2032,1.4774l-0.7441 -1.5936c-0.6609,0 -0.0921,-0.0418 -0.358,-0.5277 -0.2764,-0.5052 -0.8651,-0.6916 -1.3412,-1.0093l-1.8219 -1.4082c-0.0943,-0.1129 -0.1047,-0.327 -0.1402,-0.438 -0.0695,-0.292 -0.112,-0.3272 -0.4183,-0.4035 -0.0143,-0.0029 -0.2444,-0.0065 -0.2635,-0.057 -0.0137,-0.0364 -0.0529,0.0423 -0.0828,0.0578 -0.4133,0.7417 -0.3502,0.9404 -0.5703,1.8076z"/>
   <path id="_627488912" class="fil2" d="M58.6755 105.68c-0.4158,-1.3693 -1.3868,-2.518 -1.8223,-4.2159 -0.6394,-2.4924 -0.3769,-3.0356 0.1995,-5.1242 -0.8075,0.4225 -0.4472,0.5605 -0.9094,1.2709l0.5615 -2.6924 -3.4991 2.6831c1.749,1.5533 1.5646,1.5552 2.8044,3.8834 0.7717,1.449 1.0754,1.9762 1.8711,3.1875 0.1424,0.2168 0.1901,0.2848 0.3141,0.5118 0.1763,0.3227 0.0901,0.2968 0.4802,0.4958z"/>
   <path id="_627488096" class="fil2" d="M98.593 131.625l0.4508 -0.0368c0.6988,-1.2268 2.2487,-2.1892 3.434,-3.0435 -0.0877,0.3044 -0.7334,0.9189 -1.2153,2.0119l-0.9568 2.4878c1.4699,-1.1546 1.0842,-1.8929 4.3961,-3.0468 0.0033,-0.4112 -0.0544,-0.0061 0.3223,-0.1817 -0.3383,-0.9113 -0.843,-2.0509 -0.9588,-3.03 -1.8121,0.4609 -4.8827,3.3759 -5.4723,4.8391z"/>
   <path id="_627487832" class="fil3" d="M123.846 131.427c0.2379,0.2926 0.2432,0.2732 0.2797,0.7178 0.022,0.2685 0.0102,0.5671 0.0021,0.8533l-1.0044 -1.4177c-0.3971,-0.5453 0.0462,-0.151 -0.5128,-0.3664l0.5932 1.1224 -0.3841 -0.2622c0.5219,1.0074 2.1634,2.7767 3.1246,1.371l-0.2762 -0.0666 1.4766 -1.2069 -1.2709 0.4172 1.9297 -2.0664 -0.8839 0.3913 1.135 -1.3371c-0.2484,-0.7662 -0.4838,0.1916 0.0087,-1.8473 -0.023,0.026 -0.0608,0.0295 -0.0697,0.0772l-0.4357 0.8468c-0.2716,0.5441 -0.2464,0.4494 -0.7077,0.8743l0.2429 -1.8178c-0.1995,0.2366 -1.3656,3.0196 -1.5576,3.5334 -0.1907,-0.2592 -0.0511,0.3896 -0.1601,-0.4004 -0.1094,-0.7931 0.1149,-0.1209 -0.2614,-1.4065 0,0.5851 0.1693,0.2455 -0.4193,0.9811 -0.2094,-0.4633 -0.2262,-0.3563 -0.2819,-0.8408l0.1402 1.5419c-0.8613,-0.3505 -0.0173,0.0873 -1.2942,-1.2102l0.5872 1.5186z"/>
   <path id="_627488000" class="fil2" d="M102.441 138.413c-0.62,0.2814 -0.9946,0.6821 -1.3658,1.0692 -0.3379,0.3525 -0.6946,0.9576 -1.0664,1.1837l1.2351 -3.3634c-0.7171,0.9208 -1.7761,2.1417 -2.2478,3.186 -0.2078,0.4598 -0.2432,0.7936 -0.6632,1.0227l0.3114 -4.8541c-0.8512,0.9815 -0.7732,6.1789 -0.8151,7.2967 1.178,-0.426 3.2612,-3.3669 4.1133,-4.5888 0.3162,-0.4535 0.3183,-0.41 0.4985,-0.952z"/>
   <path id="_627487544" class="fil2" d="M109.838 133.295c0.2324,0.1545 0.0747,0.8612 0.2331,1.2302 0.1579,0.3672 0.4955,0.5011 0.8219,0.7129l1.4587 1.6199c0.2454,-0.2242 0.2192,-0.2199 0.3817,-0.5924 0.3772,-0.8643 0.4993,-1.5379 0.7402,-2.4705l0.1057 5.9363c0.6142,-0.5753 0.7965,-2.649 0.8911,-3.4155l-0.156 -0.147 -0.2909 0.4208c0.0324,-1.6339 0.1891,-2.0959 -0.2854,-3.3008 -0.3063,-0.7781 0.1154,-0.196 -0.4046,-1.0468 -0.1978,0.2387 -0.212,0.0947 -0.2934,0.5492l0.0194 1.694 -0.2877 0.141 -0.5603 -0.7013c-0.4661,0.2142 -0.1832,0.0022 -0.7013,0.8415 -0.9184,-1.7321 -0.398,-1.3829 -1.6344,-1.929l-0.0378 0.4575z"/>
   <path id="_627487472" class="fil4" d="M112.536 129.126c-0.3078,-0.2784 -0.1157,-0.6406 -0.1628,-1.5182 -0.0341,-0.6332 -0.1071,-0.9272 -0.4421,-1.2732l-0.3849 0.2001c-2.1759,1.2253 -2.0926,-0.9513 -2.1395,-1.0617l-0.435 0.236 0.1864 0.0811c-0.2889,0.1952 -0.1256,0.194 -0.4418,0.575l-0.5303 0.757c0.7821,0.3043 1.6795,1.2846 2.2811,1.8936l-1.3264 2.2246c1.39,-0.1769 2.3387,-1.703 3.0382,-2.7846 -0.0463,0.7852 -0.2781,0.3148 0.3325,1.1219l0.0246 -0.4516z"/>
   <path id="_627487952" class="fil1" d="M153.355 140.063l0.2295 -1.0309c0.8453,0.9499 1.8147,4.9392 1.891,6.6736 0.035,0.7984 -0.1208,0.7889 0.1253,1.0783 0.9971,-5.319 0.4557,-5.109 -2.2103,-10.1217 -0.5236,2.9823 -0.4387,1.6406 -0.707,5.1796 0.3557,-0.3375 0.321,-0.3073 0.4743,-0.7777 0.12,-0.3681 0.2,-0.5907 0.1972,-1.0012z"/>
   <path id="_627487736" class="fil3" d="M72.9595 174.754c-1.7156,-2.8011 -2.92,-4.6623 -4.3857,-7.6824 -0.9601,-1.9784 -3.4503,-8.4105 -3.4787,-8.4611 0.1851,3.7965 5.0636,14.3722 7.8644,16.1435z"/>
   <path id="_627487088" class="fil0" d="M80.7961 178.102c0.0792,-0.3044 0.1006,-0.252 0.3552,-0.4793 0.3981,-0.3551 0.1703,-0.0185 0.4186,-0.46 -1.3518,-1.2858 -2.619,-2.3662 -3.8642,-3.6828 -1.5761,-1.6664 -2.3689,-2.8514 -3.3269,-3.911 1.3792,2.3198 3.3022,5.8827 5.2195,7.7684 0.7573,0.7449 0.5792,0.8486 1.1978,0.7647z"/>
   <path id="_627487208" class="fil1" d="M125.938 116.307c0.4909,-0.2624 2.271,-2.4959 2.6092,-3.0663 1.2396,-2.0908 0.0888,-1.6649 3.8824,-1.871 -0.4568,-1.1132 -3.0751,-2.0403 -4.3822,0.1078 -0.4623,0.7597 -1.8577,3.9126 -2.1094,4.8295z"/>
   <path id="_627486992" class="fil2" d="M135.959 171.215c0.3437,0.8335 0.6841,1.4906 1.3568,1.82l1.0902 -1.8423c0.2693,-0.5983 0.2742,-1.7255 0.4561,-2.1929l2.5208 3.5294c1.078,-1.3798 2.2231,-2.2596 1.5526,-4.2683 -0.0528,-0.1583 -0.0445,-0.1608 -0.1208,-0.2912 -0.1443,-0.2468 -0.0553,-0.0876 -0.238,-0.252 -0.1121,1.3193 0.124,2.7209 -0.9133,3.5754 -1.9169,-1.5447 -1.5042,-0.9439 -2.3061,-2.51 -0.3279,-0.6403 -0.1227,-0.6941 -0.4989,-1.1044 -0.3363,1.058 -1.0272,3.5719 -1.8231,4.2949l-0.8001 -0.7863 -0.2762 0.0277z"/>
   <path id="_627486920" class="fil1" d="M158.658 145.826l-1.3729 -2.0432c0.1142,0.8905 0.544,2.1342 0.7359,3.0831l0.102 3.5665 0.6513 -2.6224c0.5063,0.3981 0.3411,-0.6938 0.5658,1.6808l0.1453 1.8328c0.725,-1.1343 0.667,-3.1677 0.359,-4.5297l-1.7663 -3.6217 0.5799 2.6538z"/>
   <path id="_627486944" class="fil5" d="M71.7366 117.577c1.1236,0.4173 1.7296,0.7141 2.7744,1.2234 -0.2823,0.031 -0.8609,-0.5765 -1.0772,-0.7884 -0.0218,-0.0213 -0.0514,-0.0512 -0.0731,-0.0729l-0.2816 -0.2861c-0.7792,-0.7751 -0.694,-0.7634 -1.3415,-1.6889 1.7771,-0.1054 1.3338,-0.1526 1.6245,0.4028l0.158 0.2526 0.2581 -0.27 -0.2111 -0.0955c1.5574,-1.947 1.2751,-0.991 1.062,-3.9699 -0.3021,0.3481 -0.2013,0.2582 -0.333,0.5646 -0.6338,1.4755 -2.1532,2.2091 -3.5782,3.1363l1.2428 1.391c0,0.7612 0.0918,-0.0176 -0.2241,0.201z"/>
   <path id="_627487064" class="fil1" d="M108.972 125.709l0.435 -0.236c0.0469,0.1104 -0.0364,2.287 2.1395,1.0617l0.3849 -0.2001c0.335,0.346 0.408,0.64 0.4421,1.2732 0.0471,0.8776 -0.145,1.2398 0.1628,1.5182 0.1179,-0.5203 1.3595,-3.0042 -0.572,-4.4933l-4.3437 1.3651c0.4761,-0.1156 0.8673,-0.3215 1.3514,-0.2888z"/>
   <path id="_627486560" class="fil2" d="M134.173 144.436l0.3423 -0.4726c0.1037,2.4299 -0.2968,3.169 -1.0235,5.2828 0.8907,-0.3642 2.2063,-1.7416 2.5297,-2.8101 -0.3763,-0.3319 -0.2156,-0.4628 -0.5028,-0.1358 -0.1594,-1.138 -0.2101,-3.415 -1.2481,-4.1932l-0.0976 2.3289z"/>
   <path id="_627486296" class="fil1" d="M125.829 155.645l0.2522 -2.4798 -1.987 2.9258 3.1574 -0.154c0.2209,-1.431 0.8046,-2.4343 1.4272,-3.6681 -0.7391,0.2004 -1.4062,0.7399 -1.8149,1.3484 -0.395,0.5879 -0.7269,1.6375 -1.0349,2.0277z"/>
   <path id="_627486272" class="fil2" d="M113.931 127.473l0.2438 -0.4207c0.7882,0 0.9647,0.7544 1.3719,1.2584l0.2654 0.2702 0.2384 -0.225c-0.1468,-0.6373 -0.6532,-1.1669 -1.0486,-1.7371 1.2988,0.08 1.505,1.0264 2.0041,1.5554 -0.3158,-1.8727 -1.7266,-3.5949 -3.4251,-3.9989 0.207,1.1411 0.1623,2.251 0.3501,3.2977z"/>
   <path id="_627486416" class="fil3" d="M153.355 140.063c0.4682,0.0005 0.3608,0.3243 0.6696,1.6615 0.5181,2.243 0.6453,4.0113 0.9065,6.2988 0.4594,-0.3427 0.5719,-0.6616 0.6697,-1.2393 -0.2461,-0.2894 -0.0903,-0.2799 -0.1253,-1.0783 -0.0763,-1.7344 -1.0457,-5.7237 -1.891,-6.6736l-0.2295 1.0309z"/>
   <path id="_627486128" class="fil3" d="M99.6978 127.951l0.1839 -0.1677c2.4583,-2.6435 1.2818,-1.6329 5.0228,-4.0707 -0.7477,-0.0921 -2.0398,-0.3336 -2.6923,0.1498l0.5455 0.0379c-2.0382,0.7941 -2.8864,2.8422 -3.8501,4.5459l0.536 -0.7041c0.4717,0.0456 0.0554,-0.0342 0.2542,0.2089z"/>
   <path id="_627485960" class="fil1" d="M161.573 152.284c0.1921,1.193 0.413,2.064 0.5009,3.4918 0.2846,-1.4907 0.3616,-3.3701 0.1162,-4.9216 -0.2041,-1.2898 -0.8058,-3.0073 -1.4678,-3.7501 -0.1215,0.0254 0.114,2.2513 0.1676,2.5132 0.1771,0.8647 0.5703,1.7209 0.6831,2.6667z"/>
   <path id="_627485768" class="fil1" d="M86.3041 116.448c0.212,-0.2606 0.0315,-0.0892 0.2734,-0.308 0.0171,-0.0154 0.2564,-0.196 0.2574,-0.197 0.5504,-0.5148 0.1986,-0.2824 0.056,-0.3639 -0.9354,0.2187 -2.0151,0.5226 -2.9904,-0.8886 -0.0971,-0.1407 -0.1723,-0.2789 -0.2564,-0.4311l-0.3486 -0.5537 -0.9773 1.1455c0.1348,0.7053 0.7214,1.2646 1.4238,1.5515 1.2476,0.5094 1.6821,0.0319 2.5621,0.0453z"/>
   <path id="_627485840" class="fil2" d="M128.356 146.686c0.1251,-0.3586 -0.0977,-0.4009 0.3565,0.0238l1.4195 1.1414c-0.3689,-1.1249 -0.5009,-1.8875 -1.8279,-2.8118 -0.4697,-0.3272 -2.9793,-1.4593 -3.6094,-1.7366 0.0355,0.111 0.0459,0.3251 0.1402,0.438l1.8219 1.4082c0.4761,0.3177 1.0648,0.5041 1.3412,1.0093 0.2659,0.4859 -0.3029,0.5277 0.358,0.5277z"/>
   <path id="_627485144" class="fil1" d="M162.89 152.622c0.252,0.2508 1.4341,3.2857 1.6321,3.7018l0.598 0.1975c-0.2016,-2.3801 -1.2408,-4.2897 -2.3532,-6.28l0.1231 2.3807z"/>
   <path id="_627485432" class="fil3" d="M161.573 152.284c-0.1128,-0.9458 -0.506,-1.802 -0.6831,-2.6667 -0.0536,-0.2619 -0.2891,-2.4878 -0.1676,-2.5132l-0.1263 -0.3731c-0.3003,0.4598 0.0544,0.595 -0.0457,2.0593 -0.1157,1.6897 -0.0488,4.8185 -0.0677,6.7081 0.3114,-0.358 0.4859,-0.9104 0.6769,-1.4935 0.0994,-0.3036 0.3988,-1.6956 0.4135,-1.7209z"/>
   <path id="_627485888" class="fil2" d="M142.558 167.441c0.2909,-0.3299 -0.4922,-0.2778 0.3584,-0.2778l2.6506 3.3314 0.8378 -3.1216 0.4307 0.3629c-0.0253,-0.7957 0.063,-1.2416 -0.3446,-1.6452l0.0412 0.6513 -0.4654 -0.0002 -0.4768 2.1289c-0.6567,-0.219 -1.9768,-1.7765 -2.56,-1.9955 -0.6271,-0.2356 -0.1011,0.119 -1.0219,-0.3671 0.2554,0.3107 0.3915,0.5181 0.55,0.9329z"/>
   <path id="_627485360" class="fil3" d="M81.1744 93.7952l-0.0979 -0.4009c-0.5645,-0.0789 -0.586,-0.1776 -1.0771,-0.5795l-0.1681 -0.128c-0.1815,-0.181 -0.103,-0.1186 -0.2336,-0.3126l-1.3898 -0.4328 0.3491 0.4859c-0.4287,-0.0534 -0.7979,-0.1301 -1.1958,-0.3577 -0.037,-0.0213 -0.1449,-0.0947 -0.1774,-0.1159l-0.1945 -0.1363c0.1871,0.552 0.6575,1.5494 0.7227,2.1371l0 -0.8407 2.6568 1.9875 -0.9657 -2.1346c0.8066,0.1966 1.0508,0.5764 1.7713,0.8285z"/>
   <path id="_627485240" class="fil2" d="M142.31 133.981c0.8696,0.0281 1.4934,0.7581 1.7488,0.9248 0.0257,-0.0841 -0.1916,-0.6507 0.8495,-0.1552l0.8645 0.4514 -2.8575 -3.598 -0.6053 2.377z"/>
   <path id="_627484664" class="fil1" d="M134.74 130.512c0.6316,0.2365 1.1136,0.4743 2.0044,0.4018 0.6626,-0.0815 1.2855,-0.4289 1.5854,-0.8846 0.447,-0.6797 0.1005,-1.3168 -0.4533,-1.7826 -0.235,0.3496 -0.4739,1.711 -1.1771,1.8514l-2.3444 -0.2273c0.1578,0.4678 0.1842,0.3744 0.385,0.6413z"/>
   <path id="_627484592" class="fil2" d="M148.1 152.206c-0.0215,-0.8741 3.3442,-0.4942 3.8204,-0.4619 -0.2091,-0.2552 -0.1193,-0.1896 -0.4512,-0.4028 -0.389,-0.2497 -0.2555,-0.1679 -0.6889,-0.3072l-0.0006 0.1038c-1.8594,-0.2129 -3.6505,-0.3511 -5.1309,0.9901l2.4512 0.078z"/>
   <path id="_627484448" class="fil2" d="M127.92 142.901c0.2906,0.5894 1.2855,1.4723 1.905,1.7735 0.8349,0.4058 1.0859,0.7481 1.7391,1.4522l0.0344 -1.9649c0.1192,0.847 0.1154,1.1021 -0.2503,1.4817 -0.418,-1.8028 -0.0993,-1.0445 -1.0693,-2.2969 -0.4557,-0.5886 -0.9956,-1.1834 -1.4987,-1.6768l0.8077 2.2213 -1.6679 -0.9901z"/>
   <path id="_627484928" class="fil2" d="M131.462 143.427l-0.0741 -0.602c0.6832,0.4632 0.1373,-0.0317 0.6344,1.051 0.7411,1.6138 0.5048,1.8051 0.5806,4.152 0.3041,-0.4843 0.521,-0.5157 0.8278,-1.248 -0.2696,-0.2079 -0.1255,0.0137 -0.2091,-0.3743 -0.2449,-1.1356 0.2029,-1.8022 -1.3115,-3.5723 -0.5541,-0.6476 -0.0311,-0.5417 -1.0449,-0.9141 0.1586,0.8257 0.0916,0.9561 0.5968,1.5077z"/>
   <path id="_627485096" class="fil3" d="M94.16 123.141c0.3611,-0.1794 0.2605,-0.0796 0.7409,-0.5011 2.0983,-1.8413 2.3602,-1.7105 5.0484,-2.9482 -0.1897,-0.1664 0.1656,-0.2951 -1.0618,-0.2937 -0.6437,0.0008 -0.6569,-0.0026 -1.024,0.2447l0.5906 -0.0006c-1.9575,0.8465 -3.1691,1.916 -4.2941,3.4989z"/>
   <path id="_627484496" class="fil3" d="M108.946 120.673l1.3465 -0.1917 -1.7738 -0.9515c-0.7033,-0.346 -1.0799,-0.6888 -1.9146,-0.8699l0.2167 0.1651 -2.3027 0.4741c1.0764,0.0733 2.9755,0.5302 4.0131,0.9068 0.7757,0.2817 0.4177,-0.1331 0.4148,0.4671z"/>
   <path id="_625414440" class="fil1" d="M150.374 138.133c1.1314,-0.7819 1.9748,-3.7324 1.1069,-5.5738 -0.5657,0.2912 -0.3753,2.2365 -0.457,2.8922 -0.1316,1.0582 -0.3852,1.7447 -0.6499,2.6816z"/>
   <path id="_626692800" class="fil1" d="M127.499 155.935l1.8815 -0.201 0.719 -2.5071c-0.6938,0.2485 -1.1217,0.6621 -1.5471,1.1056 -0.3397,0.354 -0.8758,1.1516 -1.0534,1.6025z"/>
   <path id="_626681208" class="fil5" d="M67.5274 108.258c-0.1418,0.1744 -0.1664,0.1187 -0.2596,0.55 -0.0609,0.2816 -0.0151,0.307 -0.0584,0.5962 -0.1543,1.0302 -0.6295,2.3821 -0.7359,3.1003 0.3647,-0.3475 0.2923,-0.2906 0.526,-0.7858l1.0614 -2.5837c0.4237,-1.1641 0.859,-2.7656 0.8193,-4.175 -0.3755,0.428 -0.5816,2.6436 -1.154,3.9834l-0.2006 0.3655c-0.0082,-0.0211 -0.0429,0.0544 -0.0643,0.0817l0.0661 -1.1326z"/>
   <path id="_626669376" class="fil3" d="M106.35 118.593c0.2457,-0.366 -0.6473,-0.1486 1.2322,-0.2425 -2.9933,-1.5404 -0.5059,-0.5009 -1.766,-1.3205 -0.252,-0.1637 -0.482,-0.205 -0.8143,-0.2549l0.0782 0.3823 -2.4498 0.213c0.0341,0.0222 0.0837,0.0156 0.1037,0.0644l1.7647 0.4618c0.9961,0.2335 0.9836,0.3275 1.8513,0.6964z"/>
   <path id="_626669328" class="fil2" d="M106.262 135.085c0.3407,0.1641 0.1236,0.2903 -0.3182,1.3992l-0.6708 1.5821c1.1222,-0.4447 2.7213,-1.9877 3.3436,-2.6586l-0.3315 -0.0561 -1.5536 0.9469c-0.007,-0.0161 -0.034,-0.0666 -0.041,-0.086l-0.0762 -0.4961c0.0073,-0.8264 0.2836,0.0288 -0.0121,-1.211 -0.6389,0.5151 -0.2277,0.0705 -0.3402,0.5796z"/>
   <path id="_626669160" class="fil3" d="M139.14 113.702l0.3699 0.1365 -1.1536 2.907c0.3508,-1.1682 2.291,-2.5183 2.6384,-2.8408 0.3378,-0.3136 0.497,-0.8851 0.7113,-1.3444l-0.4107 0.2474c-0.6709,0.3496 -1.0991,0.2141 -2.1553,0.8943z"/>
   <path id="_626669208" class="fil2" d="M119.505 140.819c0.4961,0.1938 -0.0063,-0.2875 0.2797,1.8247 0.0253,-0.0259 0.065,-0.101 0.0753,-0.0778 0.01,0.0226 0.0577,-0.0609 0.0712,-0.0786l0.8525 -1.2697 0.3698 0.3268c0.0816,0.0669 0.253,0.1751 0.2898,0.188 0.3626,0.1269 0.729,0.0011 0.9582,-0.0713 0.0336,-0.0106 0.0712,-0.025 0.1046,-0.036 0.8123,-0.2655 0.2599,0.0242 0.623,-0.3005 0.3028,-0.2706 0.0184,-0.0405 0.2683,-0.2866l0.3149 -0.2418 0 -0.9195c-0.0404,0.2773 -0.2738,0.256 -0.52,0.6396l-0.5244 0.7766 -1.4513 0.0381 0.1406 -0.6751 -1.377 0.6514c0.593,-2.1238 0.3546,-0.9356 -0.0545,-1.3393l-0.4207 0.851z"/>
   <path id="_626669016" class="fil0" d="M136.488 161.383c1.2048,0.3636 1.0205,0.4575 2.5204,0.2639 -1.1054,-0.3293 -1.5403,-0.1959 -2.2612,-1.0669 -0.6888,-0.8321 -0.6521,-1.8433 0.3856,-2.2525 0.7347,-0.68 2.5226,-0.5093 3.5618,-0.8159l-4.3169 0.7179c-0.4318,0.325 -0.8484,0.9097 -0.7214,1.768 0.1106,0.7474 0.645,0.938 0.8317,1.3855z"/>
   <path id="_626669736" class="fil1" d="M151.437 140.461c0.4474,-0.8242 0.9838,-1.3374 1.2192,-2.6692 0.2833,-1.6018 -0.2831,-2.6707 -0.2275,-3.501l-0.9917 6.1702z"/>
   <path id="_626668248" class="fil1" d="M116.05 128.355c0.0575,0.3555 0.8941,1.9486 1.0702,2.3196 0.3136,-0.739 0.0844,-1.8183 -0.1147,-2.5013 -0.4991,-0.529 -0.7053,-1.4754 -2.0041,-1.5554 0.3954,0.5702 0.9018,1.0998 1.0486,1.7371z"/>
   <path id="_626668800" class="fil2" d="M127.358 142.102c-0.2332,-0.6079 -0.1625,-0.5483 -0.7848,-0.8367l0.2225 0.99c-0.9601,-0.669 -1.4124,-0.8275 -1.9301,-1.6415 -0.3924,-0.6171 -0.2839,-0.4427 -0.6401,-0.5687 0.3135,1.4799 1.873,2.8803 3.2363,3.2444 -0.0373,-0.2917 -0.0806,-0.3665 -0.1696,-0.6082 -0.3067,-0.8312 -0.1639,-0.4276 0.0658,-0.5793z"/>
   <path id="_626668344" class="fil3" d="M164.523 156.324c-0.198,-0.4161 -1.3801,-3.451 -1.6321,-3.7018l0.28 3.544 1.3521 0.1578z"/>
   <path id="_626668440" class="fil5" d="M70.5488 119.691c0.3499,0.352 2.0684,0.6835 3.0049,0.9637 -0.1864,-0.0219 -0.1838,-0.0679 -0.4141,-0.1924 -0.7005,-0.3788 -1.4377,-0.894 -1.8812,-1.5059 -0.653,-0.9012 -0.2379,0.0009 -1.4566,-2.0012 0.0638,-0.0583 -0.0955,-0.0697 0.3965,-0.131 -0.168,-0.1472 0.2349,-0.117 -0.866,-0.3888l1.6439 3.319 -0.4274 -0.0634z"/>
   <path id="_626668560" class="fil5" d="M147.333 155.251l0.0806 -0.2685c2.5792,1.3174 1.6457,0.3764 4.3577,2.4293 -0.1522,-0.5054 -0.2438,-0.7164 -0.6194,-1.0717l-0.0401 0.017c-0.8135,-0.4489 -2.2716,-1.3412 -3.1444,-1.5399 -1.9544,-0.4449 -0.8538,-0.2592 -1.2054,0.0034l0.571 0.4304z"/>
   <path id="_626668488" class="fil5" d="M70.9621 122.228c0.1518,0.1746 -0.0833,0.123 0.458,0.3686 1.013,0.4599 3.4004,0.8865 4.4927,1.1152 -0.4905,0.2118 -4.0845,-1.9335 -4.8902,-2.1344 0.008,0.0147 0.1538,0.3135 0.1655,0.3367 0.1869,0.3706 0.0121,0.0761 0.1886,0.3506l-0.4146 -0.0367z"/>
   <path id="_626668536" class="fil3" d="M135.592 113.93l0.3131 0.0795 -1.5986 4.0022c0.1133,-0.9774 2.1302,-3.1276 2.4254,-3.6731l-0.2799 -0.01c0.1,-0.6605 -0.0412,-0.4329 0.3017,-0.6002 0,-0.4723 0.1118,-0.3391 -0.3824,-0.3525 -0.0707,0.0301 -0.4445,0.1827 -0.4554,0.1899 -0.521,0.3461 -0.0981,0.0325 -0.3239,0.3642z"/>
   <path id="_626700672" class="fil2" d="M123.359 144.708c0.2201,-0.8672 0.157,-1.0659 0.5703,-1.8076 0.0299,-0.0155 0.0691,-0.0942 0.0828,-0.0578 0.0191,0.0505 0.2492,0.0541 0.2635,0.057l-0.1478 -0.411 -1.6216 0.7286 0.6236 2.7689c-0.08,-1.479 -0.0013,-1.0788 0.2292,-1.2781z"/>
   <path id="_626700768" class="fil5" d="M130.494 114.656l0.3692 0.3342 -0.6998 0.9832c0.4188,-0.2954 -0.2151,-0.1365 0.9436,-1.0322l0.5918 -0.5396c1.0425,-0.7806 0.28,-0.7726 1.4083,-0.5326 -0.8436,0.3752 -0.3839,0.3359 -0.7279,0.9439l-0.9536 1.5812c0.8797,-0.7574 0.2574,-0.7878 1.5509,-1.5067 0.4392,-0.2441 0.4703,-0.3552 0.6163,-0.6054 -0.4659,-0.0271 -0.2281,0.0658 -0.4765,-0.1325 0.1669,-0.9035 -0.0662,-0.1493 0.2791,-0.6051 0.1339,-0.1766 0.4084,-0.0349 -0.0063,-0.1724l-1.9124 0.7532c-0.2859,0.1045 -0.1162,0.0186 -0.3657,0.1531 -0.2348,0.1267 -0.4075,0.2657 -0.617,0.3777z"/>
   <path id="_626700408" class="fil4" d="M122.293 132.415l0.1677 0.1014 -0.0546 -0.8036 0.4131 0.3615 0.3841 0.2622 -0.5932 -1.1224c0.559,0.2154 0.1157,-0.1789 0.5128,0.3664l1.0044 1.4177c0.0081,-0.2862 0.0199,-0.5848 -0.0021,-0.8533 -0.0365,-0.4446 -0.0418,-0.4252 -0.2797,-0.7178l0.091 0.8946c-0.3896,-0.3154 0.1003,0.3338 -0.5283,-0.6243 -0.5184,-0.7902 -0.4716,-0.5858 -1.9947,-1.1636 0.2047,0.8115 0.6286,0.9893 0.8795,1.8812z"/>
   <path id="_626700360" class="fil5" d="M79.5977 92.3742c0.1306,0.194 0.0521,0.1316 0.2336,0.3126l0.1681 0.128c0.4911,0.4019 0.5126,0.5006 1.0771,0.5795l0.0979 0.4009 0.3933 0.2366 -1.0299 -1.4557c0.2915,0.0698 0.3544,0.1116 0.5824,0.2335 0.4374,0.2335 0.2618,0.2235 0.5811,0.2543l-0.3011 -0.5126c0.2904,0.0847 0.2221,0.1089 0.4204,0.0994l0.2876 -0.0986c-0.4485,-0.4904 -0.0696,-0.1628 -0.4607,-0.3114 -0.4477,0.2849 -1.2442,-0.2554 -2.4124,-0.5468 0.6949,0.7923 0.6502,0.5521 0.3626,0.6803z"/>
   <path id="_626700168" class="fil3" d="M95.0873 88.4843c-0.2664,-0.6297 -0.6619,-1.0529 -1.412,-1.3472 -0.2966,-0.1163 -1.4366,-0.28 -1.8086,-0.2447 -0.0234,0.0022 -0.221,0.0294 -0.2692,0.0428 -0.2484,0.0695 -0.1969,0.0804 -0.319,0.1733 1.0662,-0.0723 1.3586,-0.1351 2.2552,0.3948 -0.1907,0.719 -0.8246,0.5372 -1.1672,1.1823 0.7159,-0.6449 1.6742,-0.5776 2.7208,-0.2013z"/>
   <path id="_626699712" class="fil3" d="M66.5437 94.0754l0.5962 -0.8973c0.4068,0.8163 0.3452,1.5596 0.8273,2.0444l-0.2347 -3.282c-0.5573,0.3806 -1.1266,1.4196 -1.1888,2.1349z"/>
   <path id="_626700096" class="fil2" d="M133.39 113.372c0.4147,0.1375 0.1402,-0.0042 0.0063,0.1724 -0.3453,0.4558 -0.1122,-0.2984 -0.2791,0.6051 0.2484,0.1983 0.0106,0.1054 0.4765,0.1325 0.0186,-0.0118 0.2919,-0.2458 0.3183,-0.2486 0.5936,-0.066 0.0432,-0.3275 0.4582,0.2556l0.1075 -0.26c0.1542,-0.3309 0.0858,-0.2096 0.5937,-0.5808 -0.664,-0.1467 -0.5428,-0.0895 -0.9417,-0.4796 -0.4775,0.0781 -0.4435,0.0457 -0.7397,0.4034z"/>
   <path id="_626699952" class="fil3" d="M134.823 114.431c-0.7452,0.0142 -0.7331,0.2134 -0.734,0.0153l-1.8275 3.6514c0.4564,-0.4069 1.1928,-1.9358 2.1819,-3.0245 0.3719,-0.4095 0.2131,-0.0521 0.3796,-0.6422z"/>
   <path id="_626699832" class="fil4" d="M86.3041 116.448l0.3796 0.0861 -1.0204 1.8583c1.2205,-0.5275 1.4391,-1.9154 1.8175,-3.059 -0.3631,0.0488 -0.1208,-0.0429 -0.355,0.0795 -0.0326,0.0171 -0.0984,0.0566 -0.1303,0.0744 -0.0295,0.0164 -0.0667,0.0649 -0.1046,0.0918 0.1426,0.0815 0.4944,-0.1509 -0.056,0.3639 -0.001,0.001 -0.2403,0.1816 -0.2574,0.197 -0.2419,0.2188 -0.0614,0.0474 -0.2734,0.308z"/>
   <path id="_626699544" class="fil3" d="M138.158 114.584c-0.2311,0.0036 -0.1943,-0.0007 -0.5186,-0.0598l0.1524 -0.4625c-0.5487,1.52 -0.2935,-1.1264 -1.5548,3.5533 0.2605,-0.5066 0.5814,-1.1294 0.8904,-1.5415l0.6713 -0.8799c0.322,-0.5956 -0.1091,-0.3877 0.3593,-0.6096z"/>
   <path id="_626699496" class="fil5" d="M136.372 113.376c0.4942,0.0134 0.3824,-0.1198 0.3824,0.3525 -0.3429,0.1673 -0.2017,-0.0603 -0.3017,0.6002l0.2799 0.01c0.4288,-0.1708 0.4624,-0.3208 0.8812,-0.616l0.3389 -0.1904c0.4205,-0.2474 0.3113,-0.185 0.4846,-0.4396 -0.9052,0.0096 -1.3891,-0.0763 -2.0653,0.2833z"/>
   <path id="_626699352" class="fil2" d="M70.1388 88.6323l0.4201 -0.1462c1.2577,0.383 1.4171,1.0114 2.3171,1.4254 -0.1211,-0.4406 -0.4956,-0.8523 -0.8611,-1.1965 -0.3386,-0.3188 -0.6405,-0.6382 -1.3158,-0.6622l-0.5603 0.5795z"/>
   <path id="_626699184" class="fil4" d="M136.744 130.914c-0.8908,0.0725 -1.3728,-0.1653 -2.0044,-0.4018 0.4088,1.0201 0.8409,1.1292 1.9026,1.8716l-0.6314 -1.2311c0.1064,-0.009 0.3482,-0.014 0.4497,-0.0513 0.3036,-0.1118 0.1018,-0.0249 0.2835,-0.1874z"/>
   <path id="_626699136" class="fil5" d="M133.294 170.529c0.1219,0.6554 0.3797,1.0837 0.7962,1.4916l1.1345 -3.3105c-0.1955,0.1689 -0.1834,0.1116 -0.3391,0.3936l-0.4082 0.9664c-0.189,0.4202 -0.395,0.8571 -0.5307,1.2856l-0.5414 -0.7522c-0.0158,-0.0622 -0.0741,-0.0498 -0.1113,-0.0745z"/>
   <path id="_626699064" class="fil5" d="M98.0858 96.8069l0.2416 0.3171 0.5205 -0.6293c-0.4874,-0.4715 -1.2318,-1.2157 -1.8434,-1.4603l0.1244 0.4641c0.6338,0.428 0.738,0.623 1.1336,1.261l-0.1767 0.0474z"/>
   <path id="_626698824" class="fil4" d="M62.6448 109.078c0.2574,0.4396 0.9219,1.314 1.3242,1.5562 -0.2581,-1.3504 -0.2089,-1.2854 -0.6075,-1.7258l-0.0875 0.1958 -0.2195 -0.4039c-0.1846,0.701 0.0903,0.2613 -0.4097,0.3777z"/>
   <path id="_626698512" class="fil3" d="M123.981 153.733c0.7555,-0.4476 1.2584,-1.6177 2.1865,-2.0747 -1.0616,0.0881 -1.9734,1.0997 -2.1865,2.0747z"/>
   <path id="_626698392" class="fil2" d="M137.792 114.062l-0.1524 0.4625c0.3243,0.0591 0.2875,0.0634 0.5186,0.0598 0.411,-0.2195 0.5177,-0.172 0.7263,-0.7009l-0.5867 -0.0155 -0.0008 -0.2173c-0.4024,0 -0.3528,-0.1264 -0.3946,0.1424l-0.1104 0.269z"/>
   <path id="_626698800" class="fil1" d="M135.807 128.279l0.7285 -0.0405c0.0971,-0.3363 0.1476,-0.144 -0.0385,-0.6549 -0.6633,-0.3071 -0.7977,-0.0238 -0.69,0.6954z"/>
   <path id="_626698656" class="fil3" d="M151.542 154.962c0.2801,0.5768 0.2385,0.4039 1.1656,1.111 -0.1444,-0.7642 -0.2053,-0.8637 -0.6653,-1.1496l-0.0006 0.1789c-0.2103,-0.1257 0.3385,-0.1403 -0.4997,-0.1403z"/>
   <path id="_626698176" class="fil5" d="M125.799 126.531c-0.7199,0.2533 -0.6069,0.1848 -1.3399,-0.0138 0.3378,0.7277 1.2619,0.964 1.3399,0.0138z"/>
   <polygon id="_626697552" class="fil1" points="124.95,125.087 125.642,125.139 125.533,124.38 124.972,124.434 "/>
   <path id="_626697576" class="fil1" d="M87.5125 112.426l-1.5705 2.0456 1.0255 -2.9997c-0.4817,0.0343 -0.9051,0.2079 -0.6664,0.8066 0.2116,0.5309 0.811,0.2309 1.2114,0.1475z"/>
   <path id="_626697792" class="fil2" d="M136.724 127.333c0.2163,0.4716 -0.0012,0.2938 0.7086,0.4922 -0.1501,-0.4434 0.1171,-0.2234 -0.2594,-0.5086 -0.2941,-0.2227 -0.4453,0.0149 -0.4492,0.0164z"/>
   <path id="_626698056" class="fil3" d="M83.2918 125.16c0.4979,-0.1703 0.1924,-0.1436 0.3102,0.1803 0.1669,-0.1922 0.1007,0.1693 0.4262,-0.8197 -0.7121,0.2935 -0.5808,0.3504 -0.7364,0.6394z"/>
   <path id="_626697696" class="fil3" d="M102.679 139.705l-0.2388 0.1043 0.0879 -0.2813c-0.3788,0.183 -0.4225,0.3862 -0.5281,0.8384 0.4336,-0.198 0.4652,-0.2892 0.679,-0.6614z"/>
  </g>
 </g>
</svg>
