<?xml version="1.0" encoding="UTF-8"?>
<!DOCTYPE svg PUBLIC "-//W3C//DTD SVG 1.1//EN" "http://www.w3.org/Graphics/SVG/1.1/DTD/svg11.dtd">
<!-- Creator: CorelDRAW -->
<svg xmlns="http://www.w3.org/2000/svg" xml:space="preserve" width="279.4mm" height="215.9mm" style="shape-rendering:geometricPrecision; text-rendering:geometricPrecision; image-rendering:optimizeQuality; fill-rule:evenodd; clip-rule:evenodd"
viewBox="0 0 279.4 215.9"
 xmlns:xlink="http://www.w3.org/1999/xlink">
 <defs>
  <style type="text/css">
   <![CDATA[
    .fil6 {fill:#050105}
    .fil8 {fill:#90CCC4}
    .fil9 {fill:#B1AC8E}
    .fil10 {fill:#B4B5A8}
    .fil1 {fill:#DEDAC9}
    .fil4 {fill:#ECBC4C}
    .fil0 {fill:#F8E8A7}
    .fil2 {fill:#F8F5D5}
    .fil7 {fill:#FCBB29}
    .fil3 {fill:#FCF4B9}
    .fil5 {fill:#FEE17D}
    .fil11 {fill:black;fill-rule:nonzero}
   ]]>
  </style>
 </defs>
 <g id="Capa_x0020_1">
  <metadata id="CorelCorpID_0Corel-Layer"/>
  <path class="fil0" d="M160.222 75.2162l0.5293 0.6232c0.6447,-1.3502 3.1514,-2.8051 4.5383,-3.4504 1.3229,-0.6157 4.8725,-2.3634 6.0523,-2.5382l0.4799 1.2046 -0.6498 -3.9951c-1.4565,1.4707 -0.5202,2.1174 -4.8288,3.863l-6.1804 2.8781 0.0592 1.4148z"/>
  <path class="fil0" d="M147.244 174.407l0.0282 -0.8035c-1.6989,-1.0095 -0.7029,-1.494 -3.6901,-1.0887 0.216,1.7454 0.5692,4.4366 2.3013,5.2162 0.7908,-0.8987 1.1692,-2.1668 1.3606,-3.324z"/>
  <path class="fil0" d="M141.683 174.55l-0.4006 -0.5309 -1.825 0.0963c0.1249,2.0665 -0.4428,4.3067 1.4788,5.7883 0.4316,-0.5445 1.084,-1.9475 1.3973,-2.6877 0.4838,-1.143 -0.0977,-1.606 -0.6505,-2.666z"/>
  <path class="fil1" d="M106.165 130.334c-2.6498,-4.7826 -5.8864,-12.2243 -5.8142,-17.7276l-2.0538 -2.0154c0.508,5.3887 3.9944,14.3258 6.5506,19.1367 2.1119,3.9746 7.7106,12.6925 11.1313,14.5772l-5.1225 -6.8402c-1.6133,-2.232 -3.3391,-4.6901 -4.6914,-7.1307z"/>
  <path class="fil1" d="M174.639 68.9952c-0.5826,0.7664 -0.6219,1.3107 -0.5949,2.2371 1.7497,0.0525 2.5259,-0.4103 2.6938,-2.3263l-2.0989 0.0892z"/>
  <path class="fil1" d="M115.097 63.9356c0.7894,-0.581 1.2019,-1.1568 1.3221,-2.1638l-2.6504 0.0144c0.1585,1.065 0.3685,1.6662 1.3283,2.1494z"/>
  <path class="fil2" d="M113.326 33.442c1.4651,5.7259 9.0631,4.9948 7.328,-1.4626 -1.6116,-5.998 -8.9981,-5.0638 -7.328,1.4626z"/>
  <path class="fil2" d="M150.589 34.8002c1.6182,-2.6723 -0.0236,-8.0438 -3.2968,-8.1481 -0.8949,1.733 -0.7199,3.3129 -0.0804,5.2006 0.6111,1.8041 1.3457,3.266 3.3772,2.9475z"/>
  <path class="fil2" d="M167.431 97.8764c1.6672,2.1876 2.4659,1.288 4.9619,2.2581 1.9666,0.7643 2.9347,1.7645 4.5905,2.5857 -1.1348,-2.7225 -6.476,-5.0681 -9.5524,-4.8438z"/>
  <path class="fil2" d="M152.481 62.5265l1.693 -1.3219c-0.0578,-0.0535 -0.1378,-0.2233 -0.1712,-0.1629l-2.4847 -0.6026c0.1988,1.0646 0.153,1.3287 0.9629,2.0874z"/>
  <path class="fil3" d="M95.3079 78.5226l0.5686 -0.298c-1.5585,-0.9173 -1.4032,-1.9545 -2.6284,-5.0738 -3.4516,-8.7875 -3.4874,-6.8001 -5.6388,-17.8218 -3.47,-17.7764 4.6927,-32.6213 21.8441,-39.6471 6.543,-2.6803 17.9657,-4.3966 25.2281,-2.3414 2.1823,0.6175 1.2852,0.2706 1.5548,0.0082 -16.1437,-6.8808 -39.0128,-0.5407 -47.7406,14.3866 -7.934,13.5697 -5.2579,26.631 0.3389,40.2345l3.8977 8.7128c0.6659,1.6389 0.7615,1.5595 2.5756,1.84z"/>
  <path class="fil3" d="M132.432 164.551l0.085 -0.6305c-0.1935,-0.1035 -0.5661,-0.257 -0.7772,-0.3431 -3.1497,-1.2856 -6.7476,-5.3323 -8.1211,-8.8486 -0.2389,-0.6114 -0.2234,-1.4826 -0.3986,-2.1909 -0.1415,-0.5726 -0.4688,-1.2524 -0.603,-1.8129 -0.6051,-2.5282 -0.8618,-6.1211 -0.8702,-8.7061 -0.0098,-3.0372 0.6473,-3.7806 -0.0111,-4.0771 -3.684,3.698 -3.8471,12.8235 -2.0099,17.5846 2.022,5.2402 7.0805,8.4808 12.7061,9.0246z"/>
  <path class="fil3" d="M99.9839 83.9099c-2.5307,-1.5786 -7.3323,-3.2508 -10.2887,-4.1081 -1.7184,-0.4983 -4.9072,-0.7864 -6.1777,-1.3429 -1.6791,-0.7357 -2.7022,-2.1831 -4.1965,-2.9985l-0.6101 0.1545 -0.1765 3.0823c4.6429,0.8146 12.5049,1.8922 16.6533,3.4866 0.8663,0.333 4.1867,1.656 4.7962,1.7261z"/>
  <path class="fil3" d="M178.594 106.033l0.42 0.6268c2.8877,-3.4104 5.721,0.1104 7.2926,0.6997l1.3894 0.2431 0.4465 1.0146 2.2117 -1.5238c-0.6599,-0.5204 -1.1318,-0.602 -2.1234,-0.4958 -1.0511,0.1127 -0.7555,0.543 -1.915,-0.0382 0.7311,-2.5667 0.1138,-1.5632 3.3787,-4.2344l-4.7291 2.5432 1.6259 -3.6774 -7.9973 4.8422z"/>
  <path class="fil3" d="M76.7149 83.9245c0.0182,-1.209 0.1028,-0.8137 0.2654,-1.8085 -1.6983,-0.1012 -4.6891,-0.051 -6.0167,1.0788l2.9023 3.1106 3.3148 -0.877 -0.4658 -1.5039z"/>
  <path class="fil3" d="M135.103 176.658l0.8035 3.1215c1.3485,-0.6655 1.7452,-2.4019 1.7013,-3.9091l-0.4683 -0.5852c-0.8302,0.4786 -0.9944,0.282 -2.0366,0.178l0.0001 1.1948z"/>
  <path class="fil4" d="M141.556 71.4796l0.8714 0.0339 0.2984 -1.6998 3.8946 1.9165c1.5428,1.0982 1.6565,1.288 3.6439,2.454l-0.785 1.0734c-7.0455,0.9143 -6.061,1.3272 -12.1123,0.12 -2.0659,-0.4121 -1.6566,0.1623 -1.7466,0.4104l16.1633 -1.1145 -13.7134 -7.5251 3.9603 3.161 -0.4746 1.1702z"/>
  <path class="fil5" d="M126.402 129.384c0.298,0.5967 0.1472,0.4688 0.882,0.5264l0.0614 -0.9495c2.5626,-1.1739 7.3347,0.6724 9.6655,1.887 3.2898,1.7141 4.4905,2.9587 6.8805,5.3657l0.15 -0.7159c3.4461,-0.4852 7.5183,0.0281 10.8285,-1.5707 5.5257,-2.6689 10.4991,-5.4449 13.7908,-11.4916 2.6832,-4.9293 2.0247,-3.7068 3.2101,-9.4389 1.0753,0.3778 1.2149,0.7169 1.5782,3.4543 0.201,1.5148 0.3725,3.1389 0.337,4.6782 -0.0864,3.74 -1.7063,7.1769 -1.6731,8.3508 4.2601,-5.9341 1.6959,-19.87 -4.2145,-26.516 -4.6831,-5.2659 -13.0624,-12.8243 -20.8568,-13.9264 -9.5313,-1.3475 -18.1013,4.4267 -22.2227,12.4119 -2.285,4.4271 -2.8643,9.8295 -2.219,14.8305 0.9453,7.3255 4.5914,11.719 3.8021,13.1042z"/>
  <path class="fil5" d="M74.8929 152.739c-1.1409,1.5567 -3.2092,1.0479 -5.1502,1.0502 -1.5292,0.0019 -5.2021,0.5736 -4.7611,-1.8668 0.2984,-1.6508 4.0056,-1.0794 5.3109,-1.0763 2.114,0.005 4.5147,-0.7561 4.6004,1.8929zm-32.2276 -4.1229l-2.6588 2.9299c0.1879,3.4002 1.6133,4.3675 4.6352,5.2286l8.8073 -0.5384 -1.7527 -8.0644c1.1534,-0.9391 2.9929,2.3741 7.8905,-2.0242l2.0917 -1.5647c-0.1237,5.9191 -0.1038,4.4447 2.2921,6.7821 0.5648,0.551 0.5118,1.3321 1.0276,2.0097 1.0795,1.4179 3.3774,0.9098 5.0195,0.9202 3.4407,0.0216 2.3937,0.2354 5.298,-0.9446 0.4332,-2.4888 7.7347,-6.0893 9.9996,-7.3997l-0.766 4.6294c1.4036,1.1633 1.6272,0.676 5.8092,0.4062l1.3744 1.9367c1.2351,0.13 8.1226,0.4037 8.7278,-0.2057 -2.2638,-0.3664 -7.4097,0.4198 -9.024,-0.5091l-0.2248 -1.6659 1.1333 -0.7562 -10.7033 -13.3696c-3.3002,-1.4405 -6.7701,-1.7515 -10.243,-0.7124 -5.0387,1.5075 -5.0176,4.2587 -6.8788,4.9239l-5.8361 -5.4052c-3.173,-2.2153 -12.8436,-1.6332 -14.0416,5.8268 -0.8649,5.3845 2.8866,5.4644 3.6831,7.011l-0.5284 1.3597 -5.1318 -0.8041z"/>
  <path class="fil5" d="M219.726 111.995c-0.6626,1.3238 -0.0252,0.6921 -1.0075,2.0383 1.2173,1.231 2.1509,2.7357 2.5428,4.5264 0.6545,2.9907 -0.4448,3.568 -0.6574,5.9663l0.611 0.328 0.3718 0.9156c2.7267,-0.909 1.8504,-0.57 5.6084,-0.7331 -0.1423,1.7527 -1.6493,1.4258 -1.7821,5.9837 -0.0992,3.4092 0.3674,3.7782 2.7989,5.3968 3.2095,2.1364 11.1462,0.7984 12.1391,-1.9789l-0.4445 -0.6384c-0.0229,-3.2715 0.3299,-4.4184 -2.0249,-7.0855l-6.2385 -3.0581c-0.2604,-2.3099 1.3554,-2.0422 0.269,-5.5481 -0.4559,-1.4714 -1.3839,-3.1089 -2.4287,-4.1624 -2.5754,-2.5966 -6.2521,-3.4229 -9.7574,-1.9506z"/>
  <path class="fil5" d="M209.106 106.571c-0.7194,0.7875 -2.7496,3.718 -3.199,4.7352 -1.5383,3.4816 0.3539,4.0648 0.1946,6.1763l-3.1554 -1.7094 3.9393 8.9637 -1.7428 0.6963 0.0066 2.1653 -2.432 -0.73 3.9374 7.2026 3.8256 -6.2376 2.2032 7.605 6.0639 -8.6024 -2.1588 0.6135 1.5883 -9.3485 -1.0605 1.3635 -1.7633 -4.0192c-1.8159,-3.8534 -3.6089,-5.7002 -6.2471,-8.8743z"/>
  <path class="fil5" d="M55.3465 54.2452c-0.2668,1.4869 -0.9822,2.512 -0.7977,3.8973 0.4513,3.3872 3.1624,6.6599 6.8154,7.7053 2.651,0.7587 5.8426,0.6855 8.5122,-0.0381 2.6934,-0.7302 3.8709,-2.3279 5.9023,-3.9397l-0.9677 -1.5986c0.0946,-3.9856 -3.8226,-7.616 -7.3312,-8.8877 -3.9982,-1.4492 -9.4354,-0.3488 -12.1333,2.8615z"/>
  <path class="fil5" d="M211.486 84.7613l0.3525 0.4742 4.7558 -0.4821c0.7556,1.4693 -0.0978,3.7416 3.482,3.1495l4.4222 -2.5044c2.258,-0.5684 2.8153,2.2649 10.7909,-1.9492l0.004 3.2404 4.0985 0.1446c0.2503,-0.2753 1.4462,-2.0178 1.6019,-2.3319l-0.9882 -0.0382 -1.2079 -4.2637c-2.3412,-6.7126 -11.5513,-10.0823 -16.8297,-4.4827 -3.2533,3.4513 -1.1134,5.5329 -1.8794,8.0125l-8.6026 1.031z"/>
  <path class="fil6" d="M170.103 137.143c1.132,0.3464 3.0352,2.0072 4.2566,2.7643 1.5424,0.9558 3.0281,1.7211 4.624,2.5367 3.3946,1.7345 7.2128,2.4843 10.8631,3.3802 -5.4092,0.0375 -13.7749,-3.1275 -18.2586,-6.6787 -1.1755,-0.931 -1.5704,-0.6615 -1.4851,-2.0025zm-22.1169 13.3218c10.1001,-3.9186 4.9784,-3.2194 14.4284,-0.0226 2.6558,0.8985 5.4878,1.5528 8.2602,2.0263 5.6451,0.9642 13.2446,1.9826 18.8017,0.5611 8.0195,-4.2771 15.004,-10.5443 20.7276,-19.2362 0.4999,6.3385 -2.5964,11.9604 -6.6021,16.4657 -11.8407,13.3177 -39.5635,9.1483 -54.0654,1.8531 -1.1286,-0.5678 -1.3755,-0.5347 -1.5504,-1.6474zm61.1194 -43.8933c2.6382,3.1741 4.4312,5.0209 6.2471,8.8743l1.7633 4.0192 1.0605 -1.3635 -1.5883 9.3485 2.1588 -0.6135 -6.0639 8.6024 -2.2032 -7.605 -3.8256 6.2376 -3.9374 -7.2026 2.432 0.73 -0.0066 -2.1653 1.7428 -0.6963 -3.9393 -8.9637 3.1554 1.7094c0.1593,-2.1115 -1.7329,-2.6947 -0.1946,-6.1763 0.4494,-1.0172 2.4796,-3.9477 3.199,-4.7352zm-110.809 4.0197l2.0538 2.0154c-0.0722,5.5033 3.1644,12.945 5.8142,17.7276 1.3523,2.4406 3.0781,4.8987 4.6914,7.1307l5.1225 6.8402c-3.4207,-1.8847 -9.0194,-10.6026 -11.1313,-14.5772 -2.5562,-4.8109 -6.0426,-13.748 -6.5506,-19.1367zm89.3989 -2.9886l-1.3405 0.0988 0.8559 3.3134c-2.7836,6.1452 -1.3811,5.7392 -2.0869,11.7587 -1.0067,2.3728 -3.3105,3.7942 -7.8491,3.577 1.9447,-0.7315 3.9292,-0.3493 4.7815,-3.145 1.5324,-5.0266 -4.6158,-7.9547 -5.2575,-10.9511 -0.4039,-1.8856 0.374,-4.9713 1.7946,-6.2214l7.9973 -4.8422 -1.6259 3.6774 4.7291 -2.5432c-3.2649,2.6712 -2.6476,1.6677 -3.3787,4.2344 1.1595,0.5812 0.8639,0.1509 1.915,0.0382 0.9916,-0.1062 1.4635,-0.0246 2.1234,0.4958l-2.2117 1.5238 -0.4465 -1.0146zm-20.2647 -9.7262c3.0764,-0.2243 8.4176,2.1213 9.5524,4.8438 -1.6558,-0.8212 -2.6239,-1.8214 -4.5905,-2.5857 -2.496,-0.9701 -3.2947,-0.0705 -4.9619,-2.2581zm-7.2085 -22.6602l-0.0592 -1.4148 6.1804 -2.8781c4.3086,-1.7456 3.3723,-2.3923 4.8288,-3.863l0.6498 3.9951 -1.629 2.7088c1.0132,0.495 2.5888,-0.7129 4.9721,-0.2964l3.9217 2.5802c-2.8986,1.6937 -6.8788,-0.0374 -14.8218,10.1384l-3.8717 4.8962 -8.2141 -5.9637c0.494,-0.77 3.9104,-2.5517 5.0949,-3.731 1.7774,-1.7697 2.8874,-3.4873 2.9481,-6.1717zm16.5154 -6.3102c-0.1679,1.916 -0.9441,2.3788 -2.6938,2.3263 -0.027,-0.9264 0.0123,-1.4707 0.5949,-2.2371l2.0989 -0.0892zm-41.1179 6.882c-3.065,-0.6637 -13.0918,-4.2518 -14.3201,-7.0608 3.5209,-1.6719 7.1215,-2.2475 11.0229,-1.3363 3.5627,0.8321 6.8615,3.6746 9.2328,4.0887l0.4746 -1.1702 -3.9603 -3.161 13.7134 7.5251 -16.1633 1.1145zm-20.5225 -11.8524c-0.9598,-0.4832 -1.1698,-1.0844 -1.3283,-2.1494l2.6504 -0.0144c-0.1202,1.007 -0.5327,1.5828 -1.3221,2.1638zm37.3833 -1.4091c-0.8099,-0.7587 -0.7641,-1.0228 -0.9629,-2.0874l2.4847 0.6026c0.0334,-0.0604 0.1134,0.1094 0.1712,0.1629l-1.693 1.3219zm-0.9485 -20.2885c0.3679,-0.6794 0.3502,-0.6661 1.1261,-1.0168l0.3972 1.7393c-0.9656,-0.2285 -0.8845,-0.1366 -1.5233,-0.7225zm-0.9428 -7.4378c-2.0315,0.3185 -2.7661,-1.1434 -3.3772,-2.9475 -0.6395,-1.8877 -0.8145,-3.4676 0.0804,-5.2006 3.2732,0.1043 4.915,5.4758 3.2968,8.1481zm1.3429 42.2455c5.5534,-2.1952 1.3415,-6.4907 -1.1385,-8.9567l0.3102 -1.635c2.1414,1.2902 4.7807,4.5112 5.9005,6.9748 0.2548,5.4879 -2.4764,7.0671 -7.196,9.029 -6.5448,2.7207 -13.1237,0.7061 -14.7001,1.8051 5.9775,3.1239 2.9703,2.0888 11.1281,2.1665 -5.5036,1.061 -9.3419,1.2902 -14.2232,4.334 -8.4503,5.2691 -12.4739,15.3844 -11.2609,25.2605 0.3995,3.2519 2.3256,11.2787 4.8028,13.3299l0.8465 0.0304c0.7893,-1.3852 -2.8568,-5.7787 -3.8021,-13.1042 -0.6453,-5.001 -0.066,-10.4034 2.219,-14.8305 4.1214,-7.9852 12.6914,-13.7594 22.2227,-12.4119 7.7944,1.1021 16.1737,8.6605 20.8568,13.9264 5.9104,6.646 8.4746,20.5819 4.2145,26.516 -0.7378,3.2896 -7.0346,9.6361 -9.7148,11.4639 -3.1318,2.1358 -10.7813,6.7668 -14.4434,6.7205 -0.4469,-6.005 -1.2583,-6.6016 -4.0633,-11.4506 -2.39,-2.407 -3.5907,-3.6516 -6.8805,-5.3657 -2.3308,-1.2146 -7.1029,-3.0609 -9.6655,-1.887l-0.0614 0.9495c5.736,1.6807 10.8975,1.6777 15.9847,8.8094l-1.5029 0.5431 1.6809 4.369c2.9451,7.5959 -1.95,12.3319 -0.9583,15.2534l2.5709 -1.1946 2.1852 16.7157c-0.1914,1.1572 -0.5698,2.4253 -1.3606,3.324 -1.7321,-0.7796 -2.0853,-3.4708 -2.3013,-5.2162l-1.5391 0.1651c-0.5334,1.0176 -0.368,0.8025 -0.3606,1.8709 0.5528,1.06 1.1343,1.523 0.6505,2.666 -0.3133,0.7402 -0.9657,2.1432 -1.3973,2.6877 -1.9216,-1.4816 -1.3539,-3.7218 -1.4788,-5.7883 -0.7699,-0.4473 -0.4439,-0.445 -1.3823,-0.2913 -0.6,0.8934 -0.4349,0.9442 -0.4674,2.0459 0.0439,1.5072 -0.3528,3.2436 -1.7013,3.9091l-0.8035 -3.1215c-0.4601,-1.2323 -0.584,-4.3849 -0.4921,-5.7887 0.1131,-1.7271 0.8987,-3.6667 0.724,-5.1846 -1.0317,-0.8824 -1.8691,-0.5744 -2.9027,-1.1341 -5.6256,-0.5438 -10.6841,-3.7844 -12.7061,-9.0246 -1.8372,-4.7611 -1.6741,-13.8866 2.0099,-17.5846l0.2896 -1.6021 -4.9508 4.8746 -9.2732 -12.2507c-2.5435,-4.8552 -4.8091,-10.0382 -5.7169,-15.5319l0.9904 -1.0102 -3.0951 -3.9426 4.4089 -0.0002 -2.9519 -3.3824 -11.0099 -7.1253c-7.8898,-4.5883 -8.71,-5.9403 -18.4777,-6.0099l5.7011 -5.8883 2.5927 -0.9535 -3.5279 -1.1944 0.4658 1.5039 -3.3148 0.877 -2.9023 -3.1106c1.3276,-1.1298 4.3184,-1.18 6.0167,-1.0788l1.178 -0.1051c0.3487,-0.7387 0.4415,-5.3848 0.5633,-6.6205l0.5994 0.07c1.4943,0.8154 2.5174,2.2628 4.1965,2.9985 1.2705,0.5565 4.4593,0.8446 6.1777,1.3429 2.9564,0.8573 7.758,2.5295 10.2887,4.1081 1.6473,0.6 3.4217,2.6939 5.0893,2.4175l0.6576 -0.6529c-0.0427,-3.3952 -8.3103,-5.6688 -10.4229,-7.1519 -1.8141,-0.2805 -1.9097,-0.2011 -2.5756,-1.84l-3.8977 -8.7128c-5.5968,-13.6035 -8.2729,-26.6648 -0.3389,-40.2345 8.7278,-14.9273 31.5969,-21.2674 47.7406,-14.3866 4.5724,1.209 10.7606,6.8749 12.603,10.9915 -3.7735,1.0843 -4.4103,4.5578 -3.0749,9.5342 0.4703,2.5878 1.9434,8.9673 4.4496,10.0374 2.4316,1.0384 7.4528,0.9828 11.0496,3.5534 3.2585,2.329 3.9918,7.0801 0.1851,9.2538 -7.4632,4.2615 -9.7952,-2.5776 -24.7854,2.6927 -10.4949,3.6897 -14.904,0.4546 -24.995,-0.6071l1.1238 -1.0943 -0.1871 -1.1523 -5.821 5.2764 1.442 0.4019 1.4817 -1.1791 16.8224 14.8197c4.0667,1.7482 7.7285,2.9429 12.2378,3.3403 3.0952,0.2728 10.8799,0.0017 13.1645,-2.1715zm-96.5859 -22.8005c2.6979,-3.2103 8.1351,-4.3107 12.1333,-2.8615 3.5086,1.2717 7.4258,4.9021 7.3312,8.8877l0.5416 1.056c3.0269,0.0519 3.3886,-1.1805 6.8577,0.0363 1.8745,0.6575 1.7537,1.9685 2.9335,4.7819l4.6602 10.4684c-8.7287,-1.4118 -4.311,-0.6477 -9.0566,-3.8746 -5.1051,-3.4714 -4.7732,4.8897 -5.4991,6.0337 -1.5399,1.2025 -5.882,1.0281 -7.2723,2.917l3.4915 6.1776 -3.5567 6.0044c3.3567,2.9305 6.4128,-1.2983 15.2884,5.0062l11.8263 8.7625c1.2984,8.0327 3.704,15.7207 7.3993,22.8785l13.0966 17.3532c0.1327,5.5447 0.8893,9.2221 4.2923,13.6216 3.0071,3.8877 7.3868,4.8187 11.8331,6.3629 -0.0901,4.4286 -0.448,1.8116 0.0407,7.523 -3.2923,0.3264 -46.2312,0.0832 -50.6748,0.0813 -8.5211,-0.0037 -17.0424,-0.004 -25.5636,-0.0079 -4.2148,-0.0019 -8.4295,0.009 -12.6443,0.0035 -6.792,-0.0089 -5.4852,-0.1099 -12.1324,0.8437l0.0664 1.1771c1.2055,1.4273 3.7404,0.8412 5.4689,0.8319 2.108,-0.0114 4.2144,0.0089 6.3221,0.0102l89.865 0.0436 4.4343 5.0633 1.9079 -2.0813 3.8321 2.2385 1.3619 -3.6495 3.3271 0.8062c1.0162,-0.831 1.0553,-1.5686 1.6352,-2.0392 0.5816,-0.9356 4.8137,-0.4042 6.0614,-0.4013l32.4355 0.0041c6.8528,0.0018 5.4321,0.126 12.1709,-0.8273l-0.1029 -1.3443c-0.5458,-1.1333 -21.7301,-0.6791 -24.1626,-0.6795l-24.8692 -0.0389c-0.0213,-0.8083 3.2188,-9.2418 -0.0896,-15.8811l-2.2815 -4.0221c5.804,1.6019 6.1903,3.5142 17.6087,5.5125 7.9495,1.3913 13.7599,1.2623 21.7249,0.5162 6.441,-1.5946 11.4187,-2.4896 16.4118,-7.1975 3.9262,-4.5502 6.5837,-9.9079 8.3611,-15.8258 2.9756,-0.5915 5.6428,-1.4777 7.4554,-4.125 1.6119,-2.3541 2.6927,-6.8862 1.5973,-9.5369l-0.611 -0.328c0.2126,-2.3983 1.3119,-2.9756 0.6574,-5.9663 -0.3919,-1.7907 -1.3255,-3.2954 -2.5428,-4.5264 -3.0028,-1.2037 -2.6819,-3.3193 -3.381,-7.9163l-2.9317 2.0615c-0.7392,-1.5293 -0.6432,-3.2071 -1.6173,-4.9487l-4.1034 -2.1417c-0.9492,1.2909 1.6363,1.887 -0.9336,5.6885 -0.5209,0.7705 -1.1462,1.3807 -1.6539,2.2012 -0.5476,0.8849 -0.8846,2.051 -1.3278,2.7548 -0.287,0.4555 -2.803,2.5142 -2.7429,5.2607l1.0809 6.8828c-1.4287,2.4346 -1.543,4.9328 -0.5417,7.7052l4.3156 4.9392c-1.2154,4.1976 -11.4796,7.6067 -16.6268,5.9776l-15.6935 -7.6383 3.0095 -5.1138c3.2298,0.4815 5.5911,1.4855 8.855,-0.3276 7.3919,-4.1066 0.5041,-11.7425 7.0915,-19.8339l2.2458 -3.3005 -2.2666 -1.9242 0.8131 -3.8357 -3.0819 -0.7511c-1.3528,-3.2032 -7.4937,0.1474 -9.5338,1.0472 -7.2438,-5.4181 -2.3417,-3.8824 -15.1807,-5.8056 0.1953,-2.0106 5.6452,-9.2451 7.2083,-10.9946 3.3295,-3.7266 6.4407,-4.5009 11.5454,-6.8635l-4.714 -5.507 1.1763 -4.4755 -5.6576 -0.8626 -1.7531 -3.4851 -1.6955 0.0622c-1.769,1.4163 -2.4083,4.3245 -4.4149,5.1764 -3.193,1.3558 -2.9464,1.0312 -6.855,2.9462 -2.4632,-3.2788 -1.8772,-2.597 -4.7046,-5.6839 0.3616,-0.71 2.188,-2.6456 2.8517,-3.4992 1.6457,-2.1162 10.1666,-2.13 9.7764,-9.9788 -0.1776,-3.5709 -2.5667,-5.8249 -5.4509,-7.4153 -5.304,-2.9245 -4.7646,-0.5757 -6.0945,-7.1421 -1.345,-6.6415 -2.741,-13.665 -7.2336,-18.8385 -18.4882,-21.2907 -68.6204,-10.5674 -67.6831,28.4572 0.1101,4.5859 0.8036,7.2046 1.687,11.5951l-5.0619 -0.4448c-1.4706,-2.2272 -1.649,-4.5693 -5.2912,-7.2312 -2.7634,-2.0198 -6.2905,-3.0056 -9.7475,-2.6728 -4.5086,2.8601 -9.0179,2.1094 -13.5269,11.4787 -2.973,-0.258 -6.5116,-2.3662 -12.3008,0.2748 -5.1351,2.3425 -5.7387,5.9112 -7.1136,7.2146l-7.6652 4.665c1.6283,1.1252 2.4807,-0.3068 4.2358,-0.9799l5.1502 -0.7886c1.5317,-1.0534 1.5228,-5.7444 6.8796,-7.7888 4.7639,-1.818 7.8074,-0.4362 12.3796,0.8013 0.9266,-1.375 1.0396,-3.2407 1.918,-4.9097 0.6469,-1.2292 1.9463,-3.1755 2.9892,-3.8795z"/>
  <path class="fil6" d="M214.778 57.5442l1.9761 0.3038 2.2743 -7.0115 8.1567 -0.0061 2.1027 6.9468 2.0358 -0.4483 -1.2395 -7.3134 6.2339 -2.9113c1.0096,0.6963 2.6215,2.2941 3.5132,3.1681l4.0018 2.8628 0.9452 -1.2796 -5.9869 -6.8686c2.8625,-3.4645 2.4317,-2.9936 4.6735,-6.8533l8.2162 2.0447 0.808 -1.8016 -7.9426 -2.9978 0.4063 -8.9599 7.832 -2.3233c0.1077,-2.7941 -2.428,-1.5874 -4.3708,-1.3421l-4.1244 0.6672c-1.844,-4.9166 -1.486,-3.8223 -4.3233,-8.3956 3.2264,-3.9669 1.2249,-0.276 5.4393,-6.9143 -2.1505,-1.2623 -2.5107,0.225 -3.9995,1.5553l-3.4388 3.1244c-1.1194,-0.3898 -2.2005,-1.5058 -3.3088,-2.1578l-3.5872 -1.9298 1.4682 -8.1089 -1.7189 -0.1224 -2.4832 7.4216 -7.9621 -0.2016 -2.5429 -7.6675 -1.0334 -0.0242 -0.7661 0.7438 1.2171 7.639 -6.4955 2.9152 -7.1603 -5.3698c-1.158,1.9165 1.5303,3.6374 2.8207,5.1923 1.6323,1.9669 2.6708,3.6299 5.9597,2.7983 2.4232,-0.6127 6.3981,-4.4267 13.9823,-2.9863 9.3935,1.7843 16.1916,9.6439 15.7892,19.49 -0.5344,13.0724 -14.0028,20.6991 -25.6682,16.2747 -5.3091,-2.0137 -6.5473,-6.6381 -11.5277,-1.1908l-3.8274 5.0493 0.849 0.6355 6.8585 -5.4806c1.0487,0.3894 2.4839,1.6164 3.5963,2.2783l3.7743 1.9458c-0.4568,2.5587 -1.5301,5.1342 -1.4228,7.6095z"/>
  <path class="fil6" d="M111.249 44.2012c1.9186,0.8925 2.5684,3.4547 6.043,3.7074l6.2953 -3.7711c1.0454,-0.0341 2.8277,0.0451 3.3976,1.0587l0.1213 4.3807 -14.8693 1.2918c-1.2881,-1.338 -2.7368,-5.2771 -0.9879,-6.6675zm2.0766 -10.7592c-1.6701,-6.5264 5.7164,-7.4606 7.328,-1.4626 1.7351,6.4574 -5.8629,7.1885 -7.328,1.4626zm16.108 8.8756l-1.3127 -5.1048c-1.7033,-4.4986 -4.4481,-10.5751 -9.5596,-11.9052 -6.5842,-1.7133 -10.5113,4.5462 -11.382,10.1263 -0.5669,3.6323 -0.1125,15.8416 4.0571,16.9715l18.7141 -1.8422c0.3328,-2.4358 0.0521,-5.8497 -0.5169,-8.2456z"/>
  <path class="fil6" d="M42.6653 148.616l5.1318 0.8041 0.5284 -1.3597c-0.7965,-1.5466 -4.548,-1.6265 -3.6831,-7.011 1.198,-7.46 10.8686,-8.0421 14.0416,-5.8268l5.8361 5.4052c1.8612,-0.6652 1.8401,-3.4164 6.8788,-4.9239 3.4729,-1.0391 6.9428,-0.7281 10.243,0.7124l10.7033 13.3696 -1.1333 0.7562 0.2248 1.6659c1.6143,0.9289 6.7602,0.1427 9.024,0.5091l1.7916 0.0985 0.6946 -0.9014 -7.6723 -2.2051c-1.7627,-6.4648 -5.0917,-11.676 -10.9529,-14.8616 -4.6328,-2.5181 -11.3594,-3.2724 -15.7501,-0.8856l-4.0515 2.4756c-10.8662,-10.3986 -20.3969,-1.734 -21.1391,0.3844l-0.9849 9.1175c-2.9184,0.2784 -5.6731,1.6127 -7.8104,3.5278l-3.3446 7.7826 1.6399 0.1123c1.2197,-0.3804 1.6529,-7.5663 9.7843,-8.7461z"/>
  <path class="fil6" d="M211.486 84.7613l8.6026 -1.031c0.766,-2.4796 -1.3739,-4.5612 1.8794,-8.0125 5.2784,-5.5996 14.4885,-2.2299 16.8297,4.4827l1.2079 4.2637 0.9882 0.0382c3.4953,-1.0602 5.1108,-2.3842 9.2351,-1.1991 1.7141,0.4925 5.0915,3.3671 6.7724,4.6192 2.3159,-2.1931 -2.6377,-5.7258 -4.5219,-6.5965l-10.5541 -0.1416c-1.8521,-5.6775 -5.5077,-10.3633 -11.935,-10.8598 -4.5706,2.1592 -10.5307,-0.9619 -12.7952,9.9587l-9.7714 6.4816 1.9233 0.7205c0.9224,-1.088 1.0333,-2.0427 2.139,-2.7241z"/>
  <path class="fil6" d="M245.641 178.311c1.6709,-0.0087 4.1878,0.7161 5.5141,-0.784l0.0118 -1.1498 -2.5806 -0.907c-1.3817,-0.2379 -19.7272,-0.0774 -20.6024,0.1333 -0.4076,1.0057 -0.3896,0.628 -0.3745,1.9265l5.6981 0.7749c2.409,0.1661 9.4995,0.021 12.3335,0.0061z"/>
  <path class="fil6" d="M38.5605 162.085c1.0973,1.6648 4.061,0.9648 5.8936,0.9697l13.1941 -0.0062c1.974,-0.0057 4.2258,0.5527 5.3936,-0.9635l-5.1188 -1.8731 -14.2936 0.0144c-2.2555,0.0019 -4.9683,-0.8221 -5.0689,1.8587z"/>
  <path class="fil6" d="M58.4728 78.5722c1.9849,-0.0076 3.7658,0.4284 5.1913,-0.8292l-0.3955 -1.8046c-3.0833,-0.0749 -20.3891,-0.9107 -22.0669,0.2155l-0.2283 1.702c6.9522,0.4394 10.5673,0.743 17.4994,0.7163z"/>
  <path class="fil6" d="M228.904 142.499l-0.0132 1.4968c1.682,1.3451 6.2528,0.6798 8.5273,0.6827l9.6007 -0.0284 0.988 -1.9982 -0.748 -0.7919c-2.3764,-0.3776 -6.9556,-0.1295 -9.5659,-0.131 -2.332,-0.0013 -7.0951,-0.6073 -8.7889,0.77z"/>
  <path class="fil6" d="M197.837 34.6124c-0.099,0.1064 -2.9239,1.3359 -3.547,1.6988l0.0269 1.6835c3.7234,-0.756 5.3551,-0.6702 7.8696,-2.3642 0.9238,-0.6224 1.0346,-0.0846 2.2726,-1.2714l-0.3094 -6.4214c0.131,-1.8605 1.0276,-3.957 0.499,-5.6965l-1.743 -0.2116 -1.3509 11.3291 -3.7178 1.2537z"/>
  <path class="fil6" d="M215.808 151.364c1.0423,1.4335 1.9881,0.9781 3.7427,0.9714l9.8957 -0.015 3.715 -0.9564c0.1253,-2.7978 -3.3021,-1.9262 -8.6629,-1.926 -1.7405,0.0001 -3.4822,0.0102 -5.2226,-0.0039 -1.9331,-0.0157 -3.4891,-0.4303 -3.4679,1.9299z"/>
  <path class="fil6" d="M236.919 96.9397c2.1879,2.0368 9.1827,0.2359 11.9775,-0.2852l-0.0531 -1.0628c-1.316,-1.4963 -4.5421,-0.7844 -6.4782,-0.7861 -2.443,-0.0022 -5.7174,-0.9414 -5.4462,2.1341z"/>
  <path class="fil6" d="M215.685 95.5581c-0.4478,3.003 2.8307,2.2485 4.9653,2.2385l6.1867 -0.8575c-0.0907,-2.6788 -0.3551,-2.1095 -6.1867,-2.1188 -1.6405,-0.0026 -3.721,-0.473 -4.9653,0.7378z"/>
  <path class="fil6" d="M70.2925 150.846c-1.3053,-0.0031 -5.0125,-0.5745 -5.3109,1.0763 -0.441,2.4404 3.2319,1.8687 4.7611,1.8668 1.941,-0.0023 4.0093,0.5065 5.1502,-1.0502 -0.0857,-2.649 -2.4864,-1.8879 -4.6004,-1.8929z"/>
  <path class="fil6" d="M197.426 91.6212c1.6845,1.3227 2.5629,-0.8188 4.0783,-1.742l4.9991 -1.5482 -0.0365 -1.7166c-2.1209,-1.6856 -10.1781,1.6993 -9.0409,5.0068z"/>
  <path class="fil6" d="M219.726 111.995c3.5053,-1.4723 7.182,-0.646 9.7574,1.9506 1.0448,1.0535 1.9728,2.691 2.4287,4.1624 1.0864,3.5059 -0.5294,3.2382 -0.269,5.5481l6.2385 3.0581c2.3548,2.6671 2.002,3.814 2.0249,7.0855l0.4445 0.6384c1.981,0.7094 3.6073,-0.9669 6.7938,0.8839l4.0158 4.4758 1.1063 -0.0101c2.0578,-1.6097 -0.8878,-4.5454 -2.215,-5.734l-7.2553 -2.6136 -7.8327 -9.7174c-3.5,-12.5818 -9.3644,-13.9524 -16.7408,-10.5021 0.5579,0.7499 0.5377,0.8027 1.5029,0.7744z"/>
  <path class="fil6" d="M105.97 161.979c1.1541,-1.1665 1.0478,-1.4485 0.09,-2.6418l-7.6658 -0.0355c-0.61,1.1013 -0.4784,0.623 -0.5105,1.9281 2.7281,0.6809 5.0163,1.4085 8.0863,0.7492z"/>
  <path class="fil6" d="M194.844 19.4693l9.567 3.4908 -0.1132 -0.7614c-0.8995,-1.2733 -4.4127,-2.984 -5.8161,-3.6939 -1.7201,-0.87 -3.5797,-1.964 -3.6377,0.9645z"/>
  <path class="fil6" d="M143.623 51.7899c-0.844,1.555 1.6169,2.6468 2.8656,2.0712 0.9287,-1.562 -1.5126,-2.7227 -2.8656,-2.0712z"/>
  <path class="fil6" d="M32.5 119.377c0.7994,0.8359 0.6132,0.7185 1.7991,0.6839 0.9609,-0.8978 1.1144,-1.1937 0.3987,-2.3689 -1.6672,-0.5494 -2.5328,-0.1103 -2.1978,1.685z"/>
  <path class="fil6" d="M157.856 53.3469c1.6023,0.2975 2.6472,-1.1719 2.1589,-2.6931 -1.8386,-0.7696 -2.7457,1.1167 -2.1589,2.6931z"/>
  <path class="fil6" d="M37.4859 119.56l1.5011 0.4909c1.1736,-0.7306 1.529,-1.3286 0.4591,-2.52l-1.5647 0.068c-0.5665,0.633 -0.6693,1.0721 -0.3955,1.9611z"/>
  <path class="fil7" d="M143.891 136.214c2.805,4.849 3.6164,5.4456 4.0633,11.4506 3.6621,0.0463 11.3116,-4.5847 14.4434,-6.7205 2.6802,-1.8278 8.977,-8.1743 9.7148,-11.4639 -0.0332,-1.1739 1.5867,-4.6108 1.6731,-8.3508 0.0355,-1.5393 -0.136,-3.1634 -0.337,-4.6782 -0.3633,-2.7374 -0.5029,-3.0765 -1.5782,-3.4543 -1.1854,5.7321 -0.5269,4.5096 -3.2101,9.4389 -3.2917,6.0467 -8.2651,8.8227 -13.7908,11.4916 -3.3102,1.5988 -7.3824,1.0855 -10.8285,1.5707l-0.15 0.7159z"/>
  <path class="fil7" d="M178.594 106.033c-1.4206,1.2501 -2.1985,4.3358 -1.7946,6.2214 0.6417,2.9964 6.7899,5.9245 5.2575,10.9511 -0.8523,2.7957 -2.8368,2.4135 -4.7815,3.145 3.1385,0.0838 7.0495,2.0566 7.8491,-3.577 0.7058,-6.0195 -0.6967,-5.6135 2.0869,-11.7587l-0.8559 -3.3134 1.3405 -0.0988 -1.3894 -0.2431c-1.5716,-0.5893 -4.4049,-4.1101 -7.2926,-0.6997l-0.42 -0.6268z"/>
  <path class="fil8" d="M111.249 44.2012c-1.7489,1.3904 -0.3002,5.3295 0.9879,6.6675l14.8693 -1.2918 -0.1213 -4.3807c-0.5699,-1.0136 -2.3522,-1.0928 -3.3976,-1.0587l-6.2953 3.7711c-3.4746,-0.2527 -4.1244,-2.8149 -6.043,-3.7074z"/>
  <path class="fil9" d="M174.36 139.907c-1.2214,-0.7571 -3.1246,-2.4179 -4.2566,-2.7643 -0.0853,1.341 0.3096,1.0715 1.4851,2.0025 4.4837,3.5512 12.8494,6.7162 18.2586,6.6787 -3.6503,-0.8959 -7.4685,-1.6457 -10.8631,-3.3802 -1.5959,-0.8156 -3.0816,-1.5809 -4.624,-2.5367z"/>
  <path class="fil10" d="M151.532 42.238c0.6388,0.5859 0.5577,0.494 1.5233,0.7225l-0.3972 -1.7393c-0.7759,0.3507 -0.7582,0.3374 -1.1261,1.0168z"/>
  <path class="fil11" d="M34.1196 209.508c0.0606,0.2094 0.1102,0.4849 0.1598,0.8321 0.044,0.3471 0.0936,0.7273 0.1432,1.1461 0.0496,0.4133 0.1102,0.8376 0.1819,1.2564 0.0661,0.4243 0.1542,0.8155 0.2589,1.1792 0.0992,0.3637 0.2315,0.6667 0.3858,0.9037 0.1487,0.2424 0.3361,0.3857 0.5565,0.4353 0.1543,0.0331 0.3582,0.0496 0.6006,0.0496 0.2425,0 0.5015,-0.022 0.777,-0.0772 0.27,-0.0495 0.529,-0.1322 0.7714,-0.2534 0.2425,-0.1213 0.4354,-0.2811 0.5896,-0.4794 0.1543,-0.2039 0.2315,-0.4574 0.237,-0.7605 0.0055,-1.0855 0.0275,-2.2592 0.0716,-3.5211 0.0441,-1.2618 0.0772,-2.5623 0.0992,-3.8958 0.0221,-1.339 -0.0055,-2.6615 -0.0716,-3.9729 -0.0661,-1.3115 -0.2039,-2.5568 -0.4188,-3.7415 -0.2149,-1.1847 -0.54,-2.2538 -0.9643,-3.2126 -0.4298,-0.9532 -0.9919,-1.7467 -1.6917,-2.3749 -0.7053,-0.6227 -1.5759,-1.0359 -2.6119,-1.2343 -1.328,-0.1378 -2.4907,-0.0606 -3.477,0.2424 -0.9864,0.3031 -1.8294,0.7825 -2.5182,1.4382 -0.6888,0.6558 -1.2509,1.4492 -1.6862,2.375 -0.4353,0.9312 -0.7659,1.9506 -0.9919,3.0637 -0.2204,1.1131 -0.3581,2.2703 -0.4187,3.4826 -0.0551,1.2122 -0.0441,2.43 0.022,3.6588 0.0716,1.2233 0.1818,2.4135 0.3306,3.5652 0.1543,1.1517 0.3196,2.2262 0.5125,3.2236 0.1873,0.9973 0.3747,1.868 0.5565,2.6229 0.0055,0.0165 0.0166,0.0385 0.0331,0.0606 0.022,0.022 0.0331,0.0386 0.0331,0.0386 0.4738,0.0551 0.9532,0.044 1.4216,-0.0496 0.4739,-0.0882 0.9147,-0.2535 1.317,-0.4905 0.4078,-0.2314 0.7439,-0.54 1.0139,-0.9202 0.27,-0.3802 0.4408,-0.8265 0.5125,-1.35l0.3306 -2.4466c0.0055,-0.0992 0.0551,-0.1818 0.1543,-0.248 0.1047,-0.0716 0.2865,-0.1322 0.551,-0.1873 0.2645,-0.0551 0.6447,-0.1102 1.1406,-0.1653 0.496,-0.0551 1.1352,-0.1213 1.9231,-0.1929l0.1654 0zm-3.7691 -3.0417c-0.1323,-0.4629 -0.2315,-0.9863 -0.2866,-1.5594 -0.0606,-0.5731 -0.0771,-1.1627 -0.0495,-1.7688 0.022,-0.6007 0.0991,-1.1737 0.2259,-1.7248 0.1212,-0.5455 0.303,-1.0194 0.5345,-1.4271 0.2369,-0.4078 0.529,-0.7054 0.8871,-0.8927 0.3527,-0.1874 0.777,-0.2204 1.2674,-0.0992 0.1268,-0.0165 0.2425,0.0882 0.3417,0.3141 0.1047,0.2314 0.1928,0.5455 0.27,0.9478 0.0771,0.4022 0.1432,0.8596 0.1928,1.372 0.0551,0.5125 0.0882,1.0415 0.1157,1.5925 0.0221,0.5511 0.0331,1.0911 0.0276,1.6145 -0.0055,0.5235 -0.022,1.0029 -0.0551,1.4327 -0.3251,0.0111 -0.6943,0.0276 -1.0966,0.0441 -0.4077,0.0165 -0.821,0.0386 -1.2343,0.0661 -0.4133,0.0276 -0.7935,0.0551 -1.1406,0.0882zm19.5727 -4.4634c-0.0055,0.9203 0.0386,1.8901 0.1267,2.904 0.0882,1.0194 0.2425,2.0278 0.4684,3.0307 0.2204,0.9973 0.5345,1.9396 0.9423,2.8213 0.4022,0.8816 0.9202,1.6475 1.5539,2.2978 0.6282,0.6502 1.3941,1.1296 2.2978,1.4437 1.2949,0.4298 2.5127,0.6282 3.6478,0.5951 1.1407,-0.0386 2.1656,-0.281 3.0858,-0.7274 0.9148,-0.4463 1.6917,-1.069 2.3199,-1.868 0.6337,-0.799 1.091,-1.7412 1.3721,-2.8323 0.281,-1.0965 0.3526,-2.3033 0.2204,-3.6313 0.0936,-0.1157 0.2039,-0.2039 0.3416,-0.259 0.1378,-0.0606 0.2755,-0.1322 0.4188,-0.2204 0.1378,-0.0827 0.259,-0.2204 0.3637,-0.4133 0.2094,-0.4628 0.2259,-0.8486 0.0496,-1.1682 -0.1819,-0.3141 -0.507,-0.562 -0.9754,-0.7383 -0.4628,-0.1764 -1.0194,-0.2866 -1.6696,-0.3362 -0.6502,-0.0441 -1.3335,-0.0275 -2.0553,0.0496 -0.7274,0.0772 -1.4382,0.2094 -2.1325,0.4023 -0.6943,0.1873 -1.317,0.4353 -1.8791,0.7328 -0.0661,0.1543 -0.0551,0.3086 0.0331,0.4684 0.0937,0.1598 0.2259,0.3086 0.4023,0.4574 0.1763,0.1488 0.3636,0.281 0.551,0.4022 0.1928,0.1158 0.3526,0.2149 0.4904,0.2921 0.1323,0.0716 0.2039,0.1157 0.2094,0.1322 0,0.0166 -0.0055,0.0331 -0.0165,0.0441 -0.0111,0.0165 -0.0166,0.0221 -0.0166,0.0221 0,0.0055 -0.011,0.0275 -0.033,0.0716 -0.0166,0.0386 -0.0276,0.0716 -0.0331,0.0937 -0.1984,0.4022 -0.4078,0.821 -0.6227,1.2618 -0.2204,0.4353 -0.4518,0.8652 -0.7053,1.2784 -0.2479,0.4188 -0.5235,0.7935 -0.821,1.1296 -0.2645,0.0386 -0.5235,-0.0991 -0.766,-0.4077 -0.2479,-0.3031 -0.4738,-0.7439 -0.6832,-1.3115 -0.2094,-0.562 -0.3858,-1.2178 -0.54,-1.9617 -0.1488,-0.7383 -0.2645,-1.5263 -0.3362,-2.3529 -0.0771,-0.832 -0.1047,-1.6641 -0.0881,-2.4962 0.0165,-0.8375 0.0936,-1.631 0.2259,-2.3804 0.1267,-0.7549 0.3251,-1.4272 0.5841,-2.0113 0.2645,-0.5896 0.6006,-1.0525 1.0139,-1.3886 0.4077,-0.3361 0.9037,-0.5014 1.4823,-0.5014 0.1432,0.0055 0.2534,0.0385 0.3361,0.1157 0.0826,0.0716 0.1488,0.1653 0.1873,0.2755 0.0386,0.1102 0.0607,0.2204 0.0717,0.3361 0.0716,0.3858 0.1157,0.7825 0.1212,1.1903 0.0055,0.4077 0,0.8155 -0.022,1.2233 -0.0166,0.4077 -0.0276,0.8045 -0.0331,1.1902 0.0606,0.4684 0.248,0.8486 0.5731,1.1406 0.3196,0.2866 0.7273,0.4353 1.2122,0.4464 0.4299,0.0055 0.8266,-0.0882 1.1903,-0.2645 0.3637,-0.1819 0.6777,-0.4243 0.9478,-0.7274 0.2644,-0.3031 0.4794,-0.6337 0.6281,-0.9974 0.1488,-0.3636 0.2315,-0.7273 0.2425,-1.0855 0.0165,-1.3059 -0.1323,-2.408 -0.4408,-3.3172 -0.3086,-0.9037 -0.7384,-1.6201 -1.295,-2.1546 -0.551,-0.5345 -1.1847,-0.8981 -1.901,-1.0965 -0.7164,-0.1929 -1.4713,-0.2315 -2.2703,-0.1157 -0.799,0.1212 -1.598,0.3747 -2.397,0.7714 -0.799,0.3968 -1.5539,0.9202 -2.2758,1.5705 -0.7218,0.6447 -1.361,1.4051 -1.9175,2.2702 -0.5566,0.8651 -0.9974,1.8294 -1.317,2.8874 -0.3141,1.058 -0.4739,2.1987 -0.4684,3.4164zm31.2105 11.6048c0.766,-0.3747 1.4272,-0.8927 1.9893,-1.5704 0.5565,-0.6723 1.0249,-1.4382 1.4106,-2.3034 0.3802,-0.8651 0.6943,-1.7743 0.9313,-2.7221 0.2424,-0.9533 0.4243,-1.89 0.551,-2.8157 0.1322,-0.9313 0.2204,-1.7909 0.2755,-2.5899 0.0496,-0.799 0.0827,-1.4768 0.0882,-2.0388 0.011,-0.5621 0.011,-0.9533 0.011,-1.1682 -0.0055,-0.7164 -0.1598,-1.3335 -0.4519,-1.8515 -0.2975,-0.518 -0.6943,-0.9478 -1.1957,-1.2784 -0.5014,-0.3306 -1.0635,-0.5731 -1.6862,-0.7329 -0.6226,-0.1598 -1.2618,-0.2369 -1.9231,-0.2369 -0.4022,0.0055 -0.7328,0.1708 -0.9863,0.4904 -0.2535,0.3196 -0.4574,0.7604 -0.6006,1.317 -0.1433,0.5565 -0.2535,1.1902 -0.3307,1.901 -0.0771,0.7109 -0.1377,1.4548 -0.1818,2.2428 -0.0496,0.7879 -0.1047,1.5704 -0.1653,2.3529 -0.0606,0.7824 -0.1488,1.5208 -0.259,2.2151 -0.1157,0.6998 -0.2755,1.317 -0.4849,1.846 -0.2039,0.5345 -0.4794,0.9478 -0.8266,1.2343 -0.3416,0.292 -0.7714,0.4188 -1.2894,0.3857 -0.2645,-0.2975 -0.4518,-0.7273 -0.562,-1.3004 -0.1157,-0.5731 -0.1819,-1.2343 -0.2039,-1.9837 -0.0165,-0.7494 -0.0276,-1.5484 -0.022,-2.3805 0.011,-0.8376 0,-1.6696 -0.0331,-2.4962 -0.0276,-0.8265 -0.1047,-1.6035 -0.2259,-2.3253 -0.1268,-0.7274 -0.3307,-1.3501 -0.6117,-1.8736 -0.2865,-0.5234 -0.6778,-0.8981 -1.1847,-1.1296 -0.8927,-0.3912 -1.6311,-0.562 -2.2096,-0.5235 -0.5841,0.0441 -1.0415,0.2535 -1.3776,0.6282 -0.3307,0.3802 -0.5731,0.8762 -0.7164,1.4933 -0.1432,0.6227 -0.2259,1.3115 -0.2424,2.0774 -0.0166,0.766 0.0055,1.5539 0.0551,2.3695 0.0496,0.821 0.1047,1.6145 0.1653,2.3859 0.0551,0.777 0.0881,1.4823 0.0937,2.116 0.0055,1.2178 0.1983,2.3584 0.5896,3.4219 0.3912,1.069 0.9422,2.0058 1.6696,2.8268 0.7219,0.8155 1.5815,1.4603 2.5899,1.9341 1.0028,0.4739 2.1269,0.7329 3.3668,0.7715 1.2343,0.0331 2.5623,-0.1929 3.9839,-0.6888zm7.4721 -0.6612c0.2149,0.6392 0.4463,1.1351 0.6998,1.4988 0.2534,0.3637 0.562,0.6006 0.9257,0.7163 0.3692,0.1102 0.8266,0.1102 1.3831,0 1.8239,-0.3637 3.3558,-0.7714 4.5901,-1.2288 1.2343,-0.4573 2.2262,-0.9423 2.9756,-1.4547 0.7494,-0.5125 1.3059,-1.036 1.6751,-1.565 0.3692,-0.5289 0.6006,-1.0469 0.6888,-1.5539 0.0937,-0.5069 0.0992,-0.9808 0.0165,-1.4271 -0.0826,-0.4409 -0.1983,-0.8376 -0.3526,-1.1793 -0.1488,-0.3416 -0.2866,-0.6116 -0.4023,-0.8155 -0.033,-0.0496 -0.0606,-0.0937 -0.0771,-0.1267 -0.0221,-0.0386 -0.0386,-0.0717 -0.0551,-0.1047 -0.0496,-0.0937 -0.2259,-0.1378 -0.518,-0.1433 -0.2975,-0.0055 -0.6667,0.0276 -1.1076,0.0992 -0.4463,0.0661 -0.9147,0.1653 -1.4106,0.2865 -0.4959,0.1268 -0.9753,0.27 -1.4327,0.4298 -0.4518,0.1654 -0.8431,0.3362 -1.1627,0.5235 -0.3196,0.1819 -0.529,0.3692 -0.6171,0.5566 -0.1819,-0.7384 -0.3086,-1.4272 -0.3858,-2.0774 -0.0771,-0.6502 -0.1102,-1.3005 -0.1102,-1.9562 0.0331,-0.0937 0.1709,-0.1763 0.4078,-0.259 0.2369,-0.0771 0.5345,-0.1543 0.8872,-0.2259 0.3581,-0.0772 0.7328,-0.1488 1.1241,-0.2259 0.3912,-0.0772 0.7549,-0.1598 1.102,-0.248 0.3417,-0.0882 0.6172,-0.1873 0.8321,-0.292 0.2094,-0.1102 0.3141,-0.2315 0.3086,-0.3692 0.2424,-0.5566 0.3471,-1.025 0.3141,-1.4107 -0.0331,-0.3802 -0.1709,-0.6888 -0.4133,-0.9257 -0.2425,-0.237 -0.5566,-0.4078 -0.9423,-0.518 -0.3857,-0.1102 -0.81,-0.1708 -1.2729,-0.1763 -0.4628,-0.0055 -0.9312,0.0275 -1.4051,0.1047 -0.4739,0.0771 -0.9202,0.1818 -1.339,0.3141 -0.011,-0.1819 -0.0221,-0.3472 -0.0331,-0.4849 -0.011,-0.1378 -0.0165,-0.27 -0.022,-0.3968 -0.0055,-0.1322 -0.011,-0.281 -0.011,-0.4408 0.0055,-0.2645 0.0881,-0.4849 0.2424,-0.6668 0.1598,-0.1763 0.3692,-0.3306 0.6227,-0.4463 0.2535,-0.1212 0.529,-0.2204 0.821,-0.2976 0.2921,-0.0771 0.5731,-0.1432 0.8486,-0.2038 0.2755,-0.0551 0.507,-0.1158 0.7053,-0.1709 0.4188,-0.1267 0.8707,-0.2424 1.3611,-0.3471 0.4849,-0.1102 0.9698,-0.2314 1.4492,-0.3692 0.4739,-0.1378 0.9037,-0.3251 1.2839,-0.551 0.3857,-0.2315 0.6778,-0.5345 0.8817,-0.9092 0.2039,-0.3747 0.2755,-0.8486 0.2149,-1.4272 -0.0055,-0.2039 -0.0882,-0.3802 -0.2535,-0.529 -0.1598,-0.1488 -0.3582,-0.27 -0.5951,-0.3637 -0.2425,-0.0937 -0.4794,-0.1653 -0.7108,-0.2149 -0.237,-0.0496 -0.4354,-0.0771 -0.5897,-0.0827 -0.0385,0 -0.0771,0 -0.1267,0 -0.0496,0 -0.0826,0 -0.1047,0 -0.7769,0.0276 -1.609,0.0552 -2.5017,0.0772 -0.8927,0.0275 -1.8019,0.0882 -2.7166,0.1873 -0.9147,0.1047 -1.7908,0.2811 -2.6339,0.5345 -0.8431,0.2535 -1.598,0.6172 -2.2703,1.1021 -0.6722,0.4794 -1.2122,1.1131 -1.6145,1.9011 0,0 0,0.0055 0,0.022 0,0.011 0,0.0276 0,0.0441 -0.0055,0.1763 0.022,0.3472 0.0937,0.507 0.0661,0.1598 0.1543,0.314 0.2645,0.4628 0.1102,0.1488 0.2204,0.2866 0.3361,0.4188 0,0 0,0 0,0.0055 0,0 0,0.011 0,0.0276 -0.0992,1.3941 -0.1984,2.7827 -0.3031,4.1658 -0.1102,1.3776 -0.1818,2.7496 -0.2259,4.1162 -0.0441,1.3611 -0.0165,2.7166 0.0716,4.0666 0.0937,1.3445 0.2921,2.6836 0.5897,4.0171zm23.5071 0.1983c0.7218,-0.0055 1.3279,-0.1267 1.8129,-0.3637 0.4904,-0.2424 0.9092,-0.5675 1.2508,-0.9753 0.3416,-0.4077 0.6502,-0.8761 0.9312,-1.3941 0.2756,-0.518 0.5676,-1.0635 0.8652,-1.6311 0.1377,-0.2534 0.3581,-0.6392 0.6722,-1.1626 0.3086,-0.5235 0.6668,-1.1407 1.0635,-1.8515 0.4023,-0.7108 0.799,-1.4713 1.2013,-2.2813 0.4022,-0.8045 0.7549,-1.6255 1.069,-2.4466 0.3086,-0.821 0.5345,-1.609 0.6722,-2.3529 0.1378,-0.7494 0.1378,-1.4216 0.0111,-2.0057 -0.1268,-0.5897 -0.4298,-1.0525 -0.9092,-1.3942 -0.4794,-0.3416 -1.1737,-0.5179 -2.094,-0.5234 -0.3416,0.0055 -0.6888,0.1157 -1.0469,0.3306 -0.3527,0.2204 -0.7054,0.5069 -1.0525,0.8706 -0.3527,0.3637 -0.6888,0.7604 -1.0194,1.2013 -0.3306,0.4408 -0.6447,0.8926 -0.9423,1.3445 -0.2975,0.4518 -0.5675,0.8816 -0.8155,1.2784 -0.248,0.4022 -0.4629,0.7439 -0.6447,1.0249 -0.0166,0.0165 -0.0386,0.0386 -0.0661,0.0661 -0.0276,0.0276 -0.0496,0.0496 -0.0662,0.0662 -0.529,-1.0415 -1.0635,-1.9727 -1.6035,-2.7883 -0.54,-0.81 -1.1351,-1.4988 -1.7798,-2.0664 -0.6502,-0.562 -1.3996,-0.9918 -2.2482,-1.2839 -0.8486,-0.292 -1.846,-0.4408 -2.9977,-0.4408 -0.2093,0.0055 -0.4022,0.0661 -0.573,0.1819 -0.1653,0.1102 -0.2976,0.2369 -0.3968,0.3747 -0.0992,0.1432 -0.1543,0.2534 -0.1543,0.3361 0.1929,0.4408 0.4078,1.0304 0.6447,1.7633 0.237,0.7384 0.496,1.5704 0.7715,2.4962 0.281,0.9257 0.5786,1.901 0.9037,2.926 0.3196,1.0194 0.6667,2.0443 1.0304,3.0582 0.3692,1.0194 0.7549,1.9837 1.1682,2.8984 0.4133,0.9148 0.8486,1.7248 1.306,2.4356 0.4573,0.7108 0.9422,1.2729 1.4492,1.6807 0.5014,0.4132 1.0359,0.6226 1.587,0.6281zm22.0854 0.9588c0.8706,0.0441 1.7247,-0.0771 2.5568,-0.3692 0.8375,-0.2865 1.609,-0.7218 2.3253,-1.2949 0.7164,-0.5786 1.3335,-1.2784 1.8515,-2.1049 0.518,-0.8211 0.8982,-1.7523 1.1406,-2.7828 0.2425,-1.0304 0.3031,-2.138 0.1929,-3.3337 0.3747,0.0551 0.788,0.0496 1.2343,-0.011 0.4519,-0.0551 0.8982,-0.1543 1.3445,-0.2921 0.4464,-0.1377 0.8541,-0.303 1.2288,-0.4849 0.3692,-0.1873 0.6668,-0.3802 0.8872,-0.5841 0.2204,-0.2039 0.3306,-0.3967 0.3251,-0.5841 0,-0.1873 -0.1543,-0.3526 -0.4573,-0.4904 -0.1709,-0.0661 -0.4078,-0.0716 -0.7219,-0.011 -0.3141,0.0606 -0.6778,0.1377 -1.0855,0.2314 -0.4133,0.0937 -0.8541,0.1543 -1.328,0.1819 -0.4684,0.033 -0.9423,-0.0111 -1.4272,-0.1378 0.2039,-0.4188 0.292,-0.9202 0.27,-1.4988 -0.022,-0.5786 -0.1322,-1.1958 -0.3361,-1.857 -0.2094,-0.6557 -0.4849,-1.317 -0.8321,-1.9727 -0.3471,-0.6557 -0.7439,-1.2729 -1.1902,-1.8515 -0.4464,-0.573 -0.9202,-1.069 -1.4272,-1.4822 -0.5014,-0.4188 -1.0194,-0.7109 -1.5374,-0.8817 -0.5235,-0.1763 -1.0304,-0.1873 -1.5263,-0.0386 -0.496,0.1488 -0.9588,0.5015 -1.3886,1.0525 0,0 -0.0166,0 -0.0386,0 -0.0221,0 -0.0441,0 -0.0606,0 -1.2454,-0.248 -2.4191,-0.27 -3.5156,-0.0661 -1.0966,0.2039 -2.0995,0.5896 -3.0032,1.1516 -0.9036,0.5621 -1.6861,1.2509 -2.3474,2.0719 -0.6667,0.8156 -1.1847,1.7137 -1.5649,2.6891 -0.3802,0.9753 -0.5951,1.9782 -0.6447,3.0141 -0.0771,1.8184 0.1378,3.444 0.6447,4.8656 0.5015,1.4217 1.2509,2.634 2.2427,3.6314 0.9864,0.9973 2.1766,1.7688 3.5652,2.3198 1.3886,0.5455 2.9315,0.8541 4.6232,0.9202zm-4.5956 -5.4552c-0.3637,-0.7329 -0.6227,-1.4933 -0.7825,-2.2868 -0.1543,-0.788 -0.2094,-1.5815 -0.1488,-2.3749 0.0551,-0.7935 0.2204,-1.5595 0.5014,-2.2979 0.2756,-0.7383 0.6668,-1.4216 1.1737,-2.0498 0.507,-0.6282 1.1297,-1.1737 1.8681,-1.6366 -0.2315,0.4464 -0.3417,0.9203 -0.3362,1.4217 0.0055,0.5014 0.1212,0.9974 0.3362,1.4878 0.2204,0.4959 0.54,0.9533 0.9532,1.3776 0.4133,0.4243 0.9092,0.788 1.4933,1.0855 0.5896,0.2976 1.2454,0.5015 1.9838,0.6117 0.1377,0.0275 0.1818,0.1708 0.1322,0.4353 -0.0551,0.259 -0.1818,0.5951 -0.3802,1.0029 -0.2039,0.4077 -0.4629,0.8485 -0.7825,1.3114 -0.3141,0.4684 -0.6722,0.9202 -1.0635,1.3556 -0.3967,0.4353 -0.81,0.81 -1.2453,1.1296 -0.4353,0.3196 -0.8761,0.5345 -1.317,0.6447 -0.4353,0.1157 -0.8596,0.0826 -1.2673,-0.0992 -0.4078,-0.1818 -0.7825,-0.5565 -1.1186,-1.1186zm6.414 -12.5966c0,0 0.0165,0 0.0386,0 0.022,0 0.044,0 0.0606,0 0.2149,0.011 0.4243,0.0937 0.6171,0.2369 0.1929,0.1433 0.3637,0.3306 0.5125,0.5455 0.1488,0.2205 0.2645,0.4519 0.3416,0.6888 0.0827,0.2315 0.1213,0.4519 0.1157,0.6447l-0.1322 3.0087c-0.8596,-0.0827 -1.5098,-0.2865 -1.9507,-0.6117 -0.4353,-0.3251 -0.6943,-0.7328 -0.7714,-1.2177 -0.0827,-0.4905 -0.0165,-1.0195 0.1984,-1.587 0.2094,-0.5676 0.5345,-1.1407 0.9698,-1.7082zm24.8626 17.9857c0.8265,0.3527 1.6476,0.5731 2.4631,0.6557 0.8155,0.0772 1.587,0.0386 2.3199,-0.1157 0.7273,-0.1598 1.3775,-0.4188 1.9451,-0.7824 0.5676,-0.3637 1.0194,-0.8101 1.35,-1.3446 0.3362,-0.529 0.5125,-1.1296 0.5345,-1.7908 0.0221,-0.6668 -0.1487,-1.3776 -0.5124,-2.1435 -0.1819,-0.3803 -0.4023,-0.6888 -0.6558,-0.9313 -0.2534,-0.2424 -0.5014,-0.3857 -0.7494,-0.4298 -0.2479,-0.0496 -0.4518,0.0331 -0.6116,0.2369 -0.6502,0.8762 -1.2398,1.4989 -1.7633,1.8515 -0.529,0.3582 -0.9919,0.5015 -1.3941,0.4353 -0.4023,-0.0716 -0.7494,-0.3085 -1.0305,-0.7163 -0.2865,-0.4023 -0.5124,-0.9257 -0.6777,-1.576 -0.1709,-0.6447 -0.2811,-1.3665 -0.3362,-2.16 -0.0551,-0.7935 -0.0551,-1.6145 0,-2.4686 0.0551,-0.8486 0.1598,-1.6807 0.3251,-2.4907 0.1598,-0.81 0.3747,-1.5594 0.6392,-2.2427 0.2645,-0.6778 0.5786,-1.2454 0.9423,-1.7027 0.3692,-0.4574 0.7825,-0.7604 1.2453,-0.8982 0.1103,0.0165 0.1929,0.0606 0.248,0.1433 0.0606,0.0826 0.0992,0.1818 0.1212,0.2975 0.0166,0.1102 0.0276,0.2149 0.0276,0.3196 -0.0221,0.1929 -0.0937,0.3857 -0.2204,0.5786 -0.1268,0.1929 -0.2535,0.4078 -0.3747,0.6502 -0.1213,0.2425 -0.1874,0.54 -0.1984,0.8872 0.0055,0.2865 0.1323,0.5455 0.3747,0.7825 0.2425,0.2314 0.5565,0.4187 0.9423,0.5565 0.3912,0.1433 0.8045,0.2149 1.2453,0.2204 0.4463,0.011 0.8706,-0.0661 1.2784,-0.2314 0.4078,-0.1653 0.7604,-0.4353 1.0415,-0.81 0.2865,-0.3802 0.4683,-0.8817 0.54,-1.5044 0.0771,-0.6281 0,-1.3996 -0.2315,-2.3198 -0.1377,-0.5345 -0.3967,-1.0194 -0.7714,-1.4658 -0.3802,-0.4463 -0.8431,-0.832 -1.3886,-1.1571 -0.551,-0.3196 -1.1517,-0.5566 -1.8074,-0.7164 -0.6502,-0.1543 -1.3225,-0.2094 -2.0168,-0.1653 -0.9918,0.0772 -1.8845,0.3582 -2.678,0.8431 -0.7935,0.4849 -1.4933,1.1241 -2.0884,1.9176 -0.5951,0.7935 -1.0966,1.6972 -1.4933,2.7111 -0.4023,1.0139 -0.7053,2.0829 -0.9092,3.2235 -0.1984,1.1352 -0.3031,2.2813 -0.3141,3.444 -0.0055,1.1682 0.0881,2.2978 0.2755,3.3944 0.1929,1.0965 0.4794,2.1159 0.8651,3.0527 0.3913,0.9422 0.8762,1.7523 1.4547,2.4355 0.5841,0.6833 1.2674,1.1903 2.0444,1.5264zm10.4476 -1.3225c-0.0331,1.0139 0.1874,1.7964 0.6557,2.3419 0.4684,0.5511 1.1792,0.8266 2.1215,0.8321 0.6172,0.011 1.1186,-0.1433 1.5043,-0.4519 0.3858,-0.3141 0.6833,-0.7384 0.8872,-1.2784 0.2094,-0.5455 0.3582,-1.1571 0.4408,-1.8349 0.0882,-0.6833 0.1433,-1.3886 0.1653,-2.1215 0.0166,-0.7274 0.0331,-1.4382 0.0441,-2.127 0.011,-0.6888 0.0441,-1.3169 0.0992,-1.8735 0.1653,-0.0331 0.3967,-0.0606 0.6943,-0.0882 0.2976,-0.022 0.6227,-0.044 0.9808,-0.0661 0.3582,-0.0165 0.7109,-0.033 1.0525,-0.0441 0.3472,-0.011 0.6447,-0.022 0.9037,-0.0275 0.259,-0.0055 0.4353,-0.0055 0.5345,-0.0055 0.1433,0.0055 0.259,0.1377 0.3361,0.3967 0.0772,0.259 0.1378,0.6006 0.1709,1.036 0.0385,0.4298 0.0606,0.9092 0.0716,1.4327 0.011,0.5289 0.022,1.069 0.0331,1.6145 0.0055,0.54 0.0275,1.058 0.0496,1.5429 0.0275,0.4849 0.0771,0.9037 0.1432,1.2563 0.0661,0.3472 0.1598,0.5896 0.2866,0.7219 0.1598,0.2535 0.4077,0.4684 0.7328,0.6392 0.3307,0.1763 0.6998,0.2975 1.0966,0.3692 0.4022,0.0716 0.7825,0.0826 1.1516,0.033 0.3692,-0.0496 0.6723,-0.1763 0.9148,-0.3692 0.2369,-0.1983 0.3581,-0.4738 0.3692,-0.8375 0,-0.0221 0,-0.0496 0,-0.0827 0,-0.0386 0,-0.0661 0,-0.0826 0.0055,-0.1653 0.011,-0.507 0.0055,-1.025 -0.0055,-0.5179 -0.0166,-1.1626 -0.0331,-1.9341 -0.022,-0.7769 -0.0441,-1.631 -0.0716,-2.5623 -0.0221,-0.9312 -0.0551,-1.8955 -0.0882,-2.8929 -0.0386,-0.9974 -0.0771,-1.9727 -0.1157,-2.937 -0.0441,-0.9588 -0.0882,-1.857 -0.1323,-2.6891 -0.0496,-0.832 -0.0936,-1.5484 -0.1432,-2.1545 -0.0496,-0.6061 -0.0992,-1.047 -0.1488,-1.328 -0.0165,-0.0331 -0.0276,-0.0716 -0.0331,-0.1157 -0.0055,-0.0441 -0.0165,-0.0827 -0.033,-0.1157 -0.2645,-0.8817 -0.5841,-1.587 -0.9643,-2.1215 -0.3747,-0.529 -0.766,-0.8817 -1.1737,-1.0525 -0.4078,-0.1708 -0.7935,-0.1543 -1.1462,0.0496 -0.3582,0.2039 -0.6447,0.6061 -0.8706,1.2013 -0.2204,0.5951 -0.3362,1.3886 -0.3417,2.3859 0,0.9368 0.0055,1.8625 0.0111,2.7828 0.0055,0.9147 0.0055,1.8514 -0.0111,2.8047 -0.6998,0.0165 -1.4051,0.0661 -2.1214,0.1378 -0.7164,0.0716 -1.4107,0.1598 -2.0774,0.259 0.011,-1.0801 0.0055,-2.1656 -0.0055,-3.2566 -0.0166,-1.0966 -0.0056,-2.1821 0.0385,-3.2567 -0.0881,-0.6943 -0.2479,-1.2673 -0.4684,-1.7082 -0.2259,-0.4408 -0.4959,-0.7824 -0.8155,-1.0304 -0.3141,-0.2424 -0.6557,-0.4133 -1.0249,-0.518 -0.3692,-0.1047 -0.7384,-0.1708 -1.1131,-0.1928 -0.3747,-0.0166 -0.7329,-0.0276 -1.0745,-0.0221 -0.0992,0 -0.1984,0 -0.2976,0 -0.3306,-0.0165 -0.5841,0.0496 -0.7604,0.2039 -0.1763,0.1488 -0.2645,0.3912 -0.2645,0.7219 0,3.5541 -0.022,6.943 -0.0551,10.1776 -0.0386,3.2345 -0.0716,6.3203 -0.1102,9.2628zm18.9446 -16.8285c0,1.8184 -0.0717,3.4494 -0.2204,4.8987 -0.1543,1.4492 -0.3417,2.7386 -0.5676,3.8682 -0.2259,1.1296 -0.4463,2.1325 -0.6612,3.0031 -0.2205,0.8652 -0.3913,1.6311 -0.5235,2.2923 -0.1268,0.6613 -0.1764,1.2454 -0.1378,1.7523 0.0386,0.507 0.2039,0.9698 0.4904,1.3776 0.2866,0.4078 0.7384,0.7935 1.3556,1.1572 0.6722,0.3912 1.2729,0.6171 1.8019,0.6833 0.5289,0.0661 0.9973,0.011 1.3941,-0.1654 0.4022,-0.1818 0.7494,-0.4353 1.0359,-0.7714 0.2921,-0.3361 0.5345,-0.7163 0.7274,-1.1296 0.1983,-0.4133 0.3581,-0.8266 0.4739,-1.2343 0.1212,-0.4078 0.2094,-0.777 0.27,-1.0966 0.0606,-0.3251 0.0992,-0.562 0.1157,-0.7163 0.0716,-0.3968 0.1818,-0.8872 0.3141,-1.4713 0.1377,-0.5786 0.292,-1.2123 0.4628,-1.8955 0.1654,-0.6833 0.3417,-1.3776 0.5125,-2.083 0.1708,-0.7053 0.3361,-1.383 0.4794,-2.0278 0.1488,-0.6447 0.27,-1.2177 0.3637,-1.7247 0.0882,-0.5014 0.1433,-0.8982 0.1488,-1.1792 0.0055,-0.54 -0.1102,-1.0139 -0.3527,-1.4217 -0.2369,-0.4077 -0.5621,-0.7549 -0.9753,-1.0524 -0.4133,-0.2976 -0.8707,-0.5511 -1.3721,-0.766 -0.5069,-0.2094 -1.0194,-0.3857 -1.5429,-0.5345 -0.5235,-0.1488 -1.0139,-0.281 -1.4768,-0.3912 -0.033,0 -0.0661,-0.0055 -0.0991,-0.0221 -0.0331,-0.011 -0.0662,-0.0275 -0.0992,-0.044 -0.2039,-0.0551 -0.4133,-0.0992 -0.6337,-0.1433 -0.2204,-0.0386 -0.4298,-0.0496 -0.6227,-0.0331 -0.1929,0.0221 -0.3527,0.0992 -0.4739,0.2315 -0.1212,0.1322 -0.1818,0.3471 -0.1873,0.6392z"/>
  <path class="fil11" d="M199.892 211.293c0.0441,0.6557 0.1654,1.2563 0.3637,1.7963 0.1984,0.5456 0.518,1.069 0.9588,1.576 0.3141,0.3692 0.6502,0.6061 1.0139,0.7108 0.3582,0.0992 0.7164,0.0992 1.0745,-0.011 0.3582,-0.1102 0.6888,-0.2865 0.9919,-0.54 0.3086,-0.259 0.5676,-0.551 0.777,-0.8927 0.2094,-0.3416 0.3416,-0.6888 0.4077,-1.0525 0,-0.0165 0,-0.0275 0,-0.033 0,-0.0055 0,-0.0166 0,-0.0331 -0.033,-0.6171 -0.0385,-1.3335 -0.022,-2.1545 0.0165,-0.8211 0.0386,-1.6972 0.0661,-2.6229 0.0331,-0.9258 0.0551,-1.857 0.0716,-2.7883 0.0166,-0.9367 0.0111,-1.8239 -0.0165,-2.6615 -0.0275,-0.843 -0.0937,-1.5869 -0.1984,-2.2372 0.788,1.0415 1.5264,2.0554 2.2152,3.0417 0.6888,0.9864 1.3555,1.9838 1.9947,2.9866 0.6337,1.0029 1.2729,2.0444 1.9066,3.1299 0,0.0055 0.0165,0.0331 0.0386,0.0882 0.022,0.0496 0.0441,0.0881 0.0606,0.1102 0.011,0.0386 0.0441,0.0937 0.0826,0.1653 0.0441,0.0716 0.0882,0.1433 0.1323,0.2094 0.0386,0.0661 0.0716,0.1047 0.0827,0.1212 0.1983,0.3031 0.4077,0.6282 0.6336,0.9753 0.226,0.3417 0.4739,0.6723 0.7439,0.9809 0.27,0.3141 0.5676,0.5731 0.8982,0.7769 0.3251,0.2039 0.6943,0.3196 1.0966,0.3417 0.2865,0.0055 0.562,-0.1984 0.8265,-0.6117 0.27,-0.4132 0.5235,-0.9753 0.766,-1.6916 0.2424,-0.7164 0.4683,-1.5319 0.6832,-2.4466 0.2149,-0.9147 0.4133,-1.868 0.5952,-2.8709 0.1763,-1.0029 0.3361,-1.9892 0.4794,-2.9701 0.1432,-0.9808 0.2645,-1.8955 0.3581,-2.7441 0.0992,-0.8486 0.1764,-1.576 0.226,-2.1876 0.0495,-0.6117 0.0716,-1.047 0.0661,-1.306 0.0165,-0.2259 -0.0992,-0.4573 -0.3362,-0.6888 -0.2424,-0.2259 -0.562,-0.4518 -0.9643,-0.6667 -0.4022,-0.2204 -0.8375,-0.4243 -1.3114,-0.6117 -0.4739,-0.1873 -0.9368,-0.3526 -1.3886,-0.5014 -0.4519,-0.1433 -0.8541,-0.2535 -1.1958,-0.3361 -0.3416,-0.0882 -0.5841,-0.1323 -0.7218,-0.1378 -0.3361,-0.0055 -0.6172,0.1598 -0.8431,0.507 -0.2204,0.3471 -0.4023,0.8155 -0.5345,1.4051 -0.1323,0.5896 -0.2314,1.2453 -0.2976,1.9727 -0.0661,0.7218 -0.1102,1.4602 -0.1267,2.2096 -0.0165,0.7494 -0.0276,1.4603 -0.022,2.127 0.0055,0.6613 0.011,1.2343 0.022,1.7027 0.0055,0.4739 0,0.7935 -0.011,0.9643 -0.0166,0.1708 -0.0496,0.1323 -0.1047,-0.1102 -0.2866,-0.518 -0.6227,-1.1131 -1.0139,-1.7853 -0.3857,-0.6668 -0.8155,-1.3776 -1.2894,-2.127 -0.4739,-0.7494 -0.9754,-1.4988 -1.5099,-2.2482 -0.5345,-0.7494 -1.091,-1.4603 -1.6696,-2.1325 -0.5731,-0.6723 -1.1627,-1.2619 -1.7578,-1.7799 -0.5951,-0.5124 -1.1902,-0.9092 -1.7853,-1.1902 -0.5952,-0.281 -1.1793,-0.4078 -1.7523,-0.3747 -0.1268,-0.0055 -0.2645,-0.011 -0.4188,-0.0055 -0.1543,0.0055 -0.2645,0.0606 -0.3417,0.1708 -0.0661,0.2645 -0.1267,0.6172 -0.1763,1.058 -0.0496,0.4353 -0.0881,0.9037 -0.1267,1.4106 -0.0331,0.5015 -0.0606,0.9809 -0.0827,1.4437 -0.022,0.4574 -0.0385,0.8376 -0.0441,1.1462l0.4298 13.4232zm20.763 -9.2905c-0.0055,0.9203 0.0386,1.8901 0.1267,2.904 0.0882,1.0194 0.2425,2.0278 0.4684,3.0307 0.2204,0.9973 0.5345,1.9396 0.9423,2.8213 0.4022,0.8816 0.9202,1.6475 1.5539,2.2978 0.6282,0.6502 1.3941,1.1296 2.2978,1.4437 1.2949,0.4298 2.5127,0.6282 3.6478,0.5951 1.1407,-0.0386 2.1656,-0.281 3.0858,-0.7274 0.9148,-0.4463 1.6917,-1.069 2.3199,-1.868 0.6337,-0.799 1.091,-1.7412 1.3721,-2.8323 0.281,-1.0965 0.3526,-2.3033 0.2204,-3.6313 0.0936,-0.1157 0.2039,-0.2039 0.3416,-0.259 0.1378,-0.0606 0.2755,-0.1322 0.4188,-0.2204 0.1378,-0.0827 0.259,-0.2204 0.3637,-0.4133 0.2094,-0.4628 0.2259,-0.8486 0.0496,-1.1682 -0.1819,-0.3141 -0.507,-0.562 -0.9754,-0.7383 -0.4628,-0.1764 -1.0194,-0.2866 -1.6696,-0.3362 -0.6502,-0.0441 -1.3335,-0.0275 -2.0553,0.0496 -0.7274,0.0772 -1.4382,0.2094 -2.1325,0.4023 -0.6943,0.1873 -1.317,0.4353 -1.8791,0.7328 -0.0661,0.1543 -0.0551,0.3086 0.0331,0.4684 0.0937,0.1598 0.2259,0.3086 0.4023,0.4574 0.1763,0.1488 0.3636,0.281 0.551,0.4022 0.1928,0.1158 0.3526,0.2149 0.4904,0.2921 0.1323,0.0716 0.2039,0.1157 0.2094,0.1322 0,0.0166 -0.0055,0.0331 -0.0165,0.0441 -0.0111,0.0165 -0.0166,0.0221 -0.0166,0.0221 0,0.0055 -0.011,0.0275 -0.033,0.0716 -0.0166,0.0386 -0.0276,0.0716 -0.0331,0.0937 -0.1984,0.4022 -0.4078,0.821 -0.6227,1.2618 -0.2204,0.4353 -0.4518,0.8652 -0.7053,1.2784 -0.2479,0.4188 -0.5235,0.7935 -0.821,1.1296 -0.2645,0.0386 -0.5235,-0.0991 -0.766,-0.4077 -0.2479,-0.3031 -0.4738,-0.7439 -0.6832,-1.3115 -0.2094,-0.562 -0.3858,-1.2178 -0.54,-1.9617 -0.1488,-0.7383 -0.2645,-1.5263 -0.3362,-2.3529 -0.0771,-0.832 -0.1047,-1.6641 -0.0881,-2.4962 0.0165,-0.8375 0.0936,-1.631 0.2259,-2.3804 0.1267,-0.7549 0.3251,-1.4272 0.5841,-2.0113 0.2645,-0.5896 0.6006,-1.0525 1.0139,-1.3886 0.4077,-0.3361 0.9037,-0.5014 1.4823,-0.5014 0.1432,0.0055 0.2534,0.0385 0.3361,0.1157 0.0826,0.0716 0.1488,0.1653 0.1873,0.2755 0.0386,0.1102 0.0607,0.2204 0.0717,0.3361 0.0716,0.3858 0.1157,0.7825 0.1212,1.1903 0.0055,0.4077 0,0.8155 -0.022,1.2233 -0.0166,0.4077 -0.0276,0.8045 -0.0331,1.1902 0.0606,0.4684 0.248,0.8486 0.5731,1.1406 0.3196,0.2866 0.7273,0.4353 1.2122,0.4464 0.4299,0.0055 0.8266,-0.0882 1.1903,-0.2645 0.3637,-0.1819 0.6777,-0.4243 0.9478,-0.7274 0.2644,-0.3031 0.4794,-0.6337 0.6281,-0.9974 0.1488,-0.3636 0.2315,-0.7273 0.2425,-1.0855 0.0165,-1.3059 -0.1323,-2.408 -0.4408,-3.3172 -0.3086,-0.9037 -0.7384,-1.6201 -1.295,-2.1546 -0.551,-0.5345 -1.1847,-0.8981 -1.901,-1.0965 -0.7164,-0.1929 -1.4713,-0.2315 -2.2703,-0.1157 -0.799,0.1212 -1.598,0.3747 -2.397,0.7714 -0.799,0.3968 -1.5539,0.9202 -2.2758,1.5705 -0.7218,0.6447 -1.361,1.4051 -1.9175,2.2702 -0.5566,0.8651 -0.9974,1.8294 -1.317,2.8874 -0.3141,1.058 -0.4739,2.1987 -0.4684,3.4164zm28.764 7.5051c0.0606,0.2094 0.1102,0.4849 0.1598,0.8321 0.044,0.3471 0.0936,0.7273 0.1432,1.1461 0.0496,0.4133 0.1102,0.8376 0.1819,1.2564 0.0661,0.4243 0.1542,0.8155 0.2589,1.1792 0.0992,0.3637 0.2315,0.6667 0.3858,0.9037 0.1487,0.2424 0.3361,0.3857 0.5565,0.4353 0.1543,0.0331 0.3582,0.0496 0.6006,0.0496 0.2425,0 0.5015,-0.022 0.777,-0.0772 0.27,-0.0495 0.529,-0.1322 0.7714,-0.2534 0.2425,-0.1213 0.4354,-0.2811 0.5896,-0.4794 0.1543,-0.2039 0.2315,-0.4574 0.237,-0.7605 0.0055,-1.0855 0.0275,-2.2592 0.0716,-3.5211 0.0441,-1.2618 0.0772,-2.5623 0.0992,-3.8958 0.0221,-1.339 -0.0055,-2.6615 -0.0716,-3.9729 -0.0661,-1.3115 -0.2039,-2.5568 -0.4188,-3.7415 -0.2149,-1.1847 -0.54,-2.2538 -0.9643,-3.2126 -0.4298,-0.9532 -0.9919,-1.7467 -1.6917,-2.3749 -0.7053,-0.6227 -1.5759,-1.0359 -2.6119,-1.2343 -1.328,-0.1378 -2.4907,-0.0606 -3.477,0.2424 -0.9864,0.3031 -1.8294,0.7825 -2.5182,1.4382 -0.6888,0.6558 -1.2509,1.4492 -1.6862,2.375 -0.4353,0.9312 -0.7659,1.9506 -0.9919,3.0637 -0.2204,1.1131 -0.3581,2.2703 -0.4187,3.4826 -0.0551,1.2122 -0.0441,2.43 0.022,3.6588 0.0716,1.2233 0.1818,2.4135 0.3306,3.5652 0.1543,1.1517 0.3196,2.2262 0.5125,3.2236 0.1873,0.9973 0.3747,1.868 0.5565,2.6229 0.0055,0.0165 0.0166,0.0385 0.0331,0.0606 0.022,0.022 0.0331,0.0386 0.0331,0.0386 0.4738,0.0551 0.9532,0.044 1.4216,-0.0496 0.4739,-0.0882 0.9147,-0.2535 1.317,-0.4905 0.4078,-0.2314 0.7439,-0.54 1.0139,-0.9202 0.27,-0.3802 0.4408,-0.8265 0.5125,-1.35l0.3306 -2.4466c0.0055,-0.0992 0.0551,-0.1818 0.1543,-0.248 0.1047,-0.0716 0.2865,-0.1322 0.551,-0.1873 0.2645,-0.0551 0.6447,-0.1102 1.1406,-0.1653 0.496,-0.0551 1.1352,-0.1213 1.9231,-0.1929l0.1654 0zm-3.7691 -3.0417c-0.1323,-0.4629 -0.2315,-0.9863 -0.2866,-1.5594 -0.0606,-0.5731 -0.0771,-1.1627 -0.0495,-1.7688 0.022,-0.6007 0.0991,-1.1737 0.2259,-1.7248 0.1212,-0.5455 0.303,-1.0194 0.5345,-1.4271 0.2369,-0.4078 0.529,-0.7054 0.8871,-0.8927 0.3527,-0.1874 0.777,-0.2204 1.2674,-0.0992 0.1268,-0.0165 0.2425,0.0882 0.3417,0.3141 0.1047,0.2314 0.1928,0.5455 0.27,0.9478 0.0771,0.4022 0.1432,0.8596 0.1928,1.372 0.0551,0.5125 0.0882,1.0415 0.1157,1.5925 0.0221,0.5511 0.0331,1.0911 0.0276,1.6145 -0.0055,0.5235 -0.022,1.0029 -0.0551,1.4327 -0.3251,0.0111 -0.6943,0.0276 -1.0966,0.0441 -0.4077,0.0165 -0.821,0.0386 -1.2343,0.0661 -0.4133,0.0276 -0.7935,0.0551 -1.1406,0.0882z"/>
  <path class="fil11" d="M201.816 178.374c0,0.007 0,0.0117 0,0.014 0,0.0024 0,0.0071 0,0.0141 0.0023,0.0611 0.0164,0.1316 0.0399,0.2161 0.0258,0.0846 0.0775,0.1598 0.1597,0.2255 0.0799,0.0635 0.2067,0.094 0.3782,0.094 0.6647,-0.0564 1.2285,-0.0869 1.6912,-0.094 0.4651,-0.007 0.8456,-0.007 1.1463,0.0024 0.2983,0.0094 0.5308,0.007 0.7,-0.0024 0.1691,-0.0094 0.2889,-0.0446 0.3617,-0.1057 0.0752,-0.061 0.1174,-0.1644 0.1315,-0.31 0.0118,-0.148 0.0118,-0.3524 0,-0.6178 -0.0094,-0.1597 -0.054,-0.2795 -0.1292,-0.357 -0.0775,-0.0799 -0.1738,-0.1316 -0.2889,-0.1574 -0.1174,-0.0258 -0.2349,-0.0399 -0.3594,-0.0399 -0.1221,-0.0024 -0.2348,-0.0047 -0.3358,-0.0094 0.0023,-0.9466 0,-1.7735 -0.0094,-2.4852 -0.0071,-0.7117 -0.0212,-1.3224 -0.0423,-1.8321 -0.0212,-0.5098 -0.0493,-0.9373 -0.0846,-1.2802 -0.0352,-0.3453 -0.0798,-0.6225 -0.1315,-0.8315 -0.0517,-0.2114 -0.1151,-0.3735 -0.1856,-0.4839 -0.0728,-0.1127 -0.155,-0.1926 -0.2466,-0.2372 -0.094,-0.047 -0.1973,-0.0775 -0.3148,-0.094 -0.2255,-0.0329 -0.4087,-0.0305 -0.5496,0.0047 -0.1386,0.0352 -0.249,0.0963 -0.3312,0.1832 -0.0822,0.0869 -0.148,0.1879 -0.1997,0.3077 -0.0517,0.1198 -0.1033,0.2467 -0.1527,0.3829 -0.0493,0.1362 -0.1127,0.2701 -0.1902,0.404 -0.4557,0.3242 -0.7869,0.6178 -0.9936,0.8832 -0.2044,0.2678 -0.2983,0.4839 -0.2795,0.653 0.0188,0.1691 0.1362,0.2701 0.3547,0.303 0.2184,0.0329 0.5261,-0.0211 0.9184,-0.1621 -0.0071,0.4792 0,0.9702 0.0211,1.4752 0.0212,0.505 0.047,1.003 0.0752,1.4892 0.0282,0.4862 0.047,0.9395 0.0587,1.3624 -0.2631,0.0023 -0.4886,0.0587 -0.6718,0.162 -0.1832,0.1057 -0.3218,0.2396 -0.4134,0.404 -0.0939,0.1645 -0.1362,0.3383 -0.1268,0.5192zm9.6681 -0.2396c0.2208,-0.2772 0.404,-0.6037 0.5497,-0.9748 0.1456,-0.3712 0.2537,-0.7728 0.3241,-1.2003 0.0705,-0.4299 0.101,-0.8691 0.094,-1.3178 -0.0047,-0.4486 -0.0493,-0.8902 -0.1339,-1.3224 -0.0846,-0.4322 -0.2091,-0.8386 -0.3711,-1.2168 -0.1621,-0.3781 -0.3641,-0.714 -0.6084,-1.0006 -0.2419,-0.2889 -0.5238,-0.5144 -0.848,-0.6765 -0.3218,-0.1621 -0.6882,-0.2419 -1.0922,-0.2396 -0.2819,-0.0188 -0.5614,0.0071 -0.8409,0.0752 -0.2795,0.0705 -0.545,0.1832 -0.7963,0.3406 -0.2513,0.155 -0.4745,0.3523 -0.6694,0.5919 -0.1973,0.2373 -0.3524,0.5144 -0.4675,0.8315 -0.1151,0.3171 -0.1785,0.6718 -0.1855,1.0641 -0.0024,0.4651 0.0681,0.8832 0.209,1.2496 0.141,0.3664 0.3312,0.6812 0.5755,0.9443 0.2443,0.2607 0.5191,0.4674 0.8245,0.6154 0.3053,0.1503 0.6201,0.2396 0.9489,0.2678 0.3265,0.0282 0.6436,-0.0047 0.9513,-0.1034 -0.0023,0.3289 -0.0469,0.599 -0.1362,0.8127 -0.0869,0.2114 -0.2043,0.3712 -0.3476,0.4792 -0.1457,0.1081 -0.3077,0.1668 -0.4816,0.1785 -0.1738,0.0118 -0.3499,-0.0187 -0.5285,-0.0939 -0.1761,-0.0752 -0.3382,-0.1879 -0.4885,-0.3406 -0.1504,-0.1527 -0.2749,-0.3383 -0.3712,-0.5567 -0.0657,-0.1081 -0.1409,-0.1715 -0.2278,-0.1903 -0.0846,-0.0211 -0.1715,-0.0094 -0.2607,0.0353 -0.0893,0.0446 -0.1715,0.1104 -0.2467,0.1949 -0.0775,0.0846 -0.1386,0.1762 -0.1879,0.2772 -0.047,0.101 -0.0728,0.1973 -0.0775,0.2889 0.0869,0.3946 0.2349,0.7235 0.4392,0.9866 0.2067,0.263 0.451,0.4674 0.7376,0.613 0.2866,0.1457 0.5943,0.2349 0.9255,0.2725 0.3288,0.0376 0.6624,0.0258 1.0006,-0.0329 0.3359,-0.0587 0.6601,-0.1621 0.9654,-0.3053 0.3077,-0.1457 0.5825,-0.3289 0.8221,-0.5473zm-1.9026 -5.7079c0.047,0.007 0.0846,0.0517 0.1104,0.1409 0.0282,0.0869 0.047,0.195 0.0587,0.3265 0.0118,0.1292 0.0188,0.2631 0.0212,0.397 0.0023,0.1362 0.0047,0.256 0.0047,0.3594 0,0.101 0,0.1691 0.0023,0.1996 -0.0728,0.1128 -0.1644,0.195 -0.2725,0.249 -0.1104,0.0541 -0.2254,0.0869 -0.3452,0.094 -0.1222,0.0094 -0.2349,0 -0.343,-0.0235 -0.108,-0.0258 -0.1973,-0.0611 -0.2654,-0.1081 -0.1691,-0.1738 -0.2654,-0.3429 -0.2913,-0.512 -0.0258,-0.1668 -0.0023,-0.3218 0.0752,-0.4675 0.0775,-0.1456 0.1856,-0.2701 0.3241,-0.3758 0.141,-0.1057 0.2913,-0.1855 0.4557,-0.2349 0.1621,-0.0517 0.3171,-0.0657 0.4651,-0.0446zm6.3985 6.4548c0.5637,-0.0023 1.057,-0.0798 1.4845,-0.2349 0.4252,-0.155 0.7658,-0.3758 1.0218,-0.6671 0.256,-0.2912 0.4087,-0.6389 0.4604,-1.0476 0.0517,-0.4087 -0.0165,-0.8667 -0.2044,-1.3764 -0.0916,-0.2396 -0.2043,-0.4557 -0.3382,-0.653 -0.1339,-0.195 -0.2819,-0.3735 -0.4416,-0.5356 -0.1597,-0.1621 -0.3218,-0.3101 -0.4886,-0.4463 0.242,-0.101 0.4322,-0.2443 0.5708,-0.4298 0.1409,-0.1833 0.2349,-0.39 0.2842,-0.6225 0.0493,-0.2302 0.0587,-0.4674 0.0306,-0.7094 -0.0282,-0.2419 -0.0893,-0.4721 -0.1809,-0.6906 -0.1269,-0.2842 -0.3054,-0.5308 -0.5309,-0.7399 -0.2255,-0.209 -0.4838,-0.3734 -0.7704,-0.4956 -0.2866,-0.1221 -0.5872,-0.1973 -0.8973,-0.2231 -0.3101,-0.0259 -0.6154,0 -0.9114,0.0775 -0.2959,0.0775 -0.5684,0.2137 -0.8127,0.4063 -0.2443,0.1926 -0.4463,0.4463 -0.6013,0.7634 -0.2185,0.4534 -0.3383,0.855 -0.3571,1.205 -0.0164,0.35 0.0588,0.6601 0.2255,0.9302 0.1668,0.2701 0.4158,0.5121 0.7517,0.7258 0.0211,0.0141 0.0423,0.0259 0.0634,0.0353 0.0212,0.0093 0.0423,0.0211 0.0634,0.0352 -0.4016,0.2795 -0.7117,0.5896 -0.9325,0.9325 -0.2208,0.3429 -0.357,0.6953 -0.4087,1.057 -0.0517,0.3617 -0.0258,0.7094 0.0799,1.0429 0.1057,0.3359 0.2842,0.6319 0.5355,0.8926 0.2514,0.2584 0.5708,0.4581 0.9584,0.599 0.3875,0.1386 0.8362,0.195 1.3459,0.1691zm-0.2819 -3.8193c0.2067,-0.0493 0.3876,-0.0446 0.5426,0.0117 0.1551,0.0564 0.2819,0.1504 0.3806,0.2795 0.0986,0.1269 0.1691,0.2749 0.2114,0.4393 0.0422,0.1668 0.0516,0.3335 0.0328,0.5003 -0.0187,0.1691 -0.0704,0.3218 -0.155,0.4581 -0.0822,0.1385 -0.1996,0.2419 -0.35,0.3124 -0.0023,0 -0.0094,0.0023 -0.0211,0.007 -0.0118,0.0047 -0.0188,0.0071 -0.0212,0.0071 -0.1761,0.0986 -0.3405,0.1385 -0.4909,0.1244 -0.1503,-0.0164 -0.2842,-0.0728 -0.4016,-0.1714 -0.1175,-0.0987 -0.2138,-0.2208 -0.289,-0.3712 -0.0728,-0.1479 -0.1198,-0.3077 -0.1432,-0.4768 -0.0212,-0.1668 -0.0118,-0.3288 0.0281,-0.4862 0.04,-0.1574 0.1151,-0.2913 0.2255,-0.4064 0.1104,-0.1127 0.2608,-0.1879 0.451,-0.2278zm-0.6342 -2.9174c0.0071,-0.1127 0.0541,-0.2161 0.1457,-0.3124 0.0916,-0.0963 0.2043,-0.1715 0.3359,-0.2231 0.1338,-0.0541 0.2677,-0.0705 0.3993,-0.0517 0.1315,0.0188 0.2443,0.0846 0.3335,0.202 0.0893,0.1175 0.1339,0.2983 0.1386,0.5403 0,0.0681 -0.0094,0.1503 -0.0282,0.2442 -0.0188,0.0963 -0.047,0.1856 -0.0845,0.2725 -0.0376,0.0846 -0.0846,0.148 -0.141,0.1879 -0.0775,0.0165 -0.1691,0.0188 -0.2748,0.0047 -0.1057,-0.0117 -0.2138,-0.0399 -0.3218,-0.0845 -0.1081,-0.0423 -0.2044,-0.101 -0.2913,-0.1739 -0.0869,-0.0704 -0.1526,-0.1573 -0.1926,-0.2583 -0.0423,-0.1034 -0.047,-0.2185 -0.0188,-0.3477zm5.6797 6.7508c0.2137,0.0493 0.4369,0.0118 0.6647,-0.1151 0.2302,-0.1268 0.4604,-0.3218 0.6929,-0.5849 0.2326,-0.263 0.4581,-0.5778 0.6812,-0.9395 0.2208,-0.3641 0.4322,-0.7564 0.6295,-1.1815 0.1997,-0.4228 0.3806,-0.8597 0.545,-1.306 0.1644,-0.4487 0.303,-0.8879 0.4204,-1.3201 0.1151,-0.4322 0.1997,-0.8386 0.2561,-1.2191 -0.0376,-0.3312 -0.1222,-0.6248 -0.2561,-0.8832 -0.1338,-0.256 -0.3006,-0.4721 -0.5026,-0.6507 -0.202,-0.1761 -0.4252,-0.31 -0.6695,-0.4016 -0.2442,-0.0893 -0.4979,-0.1363 -0.7563,-0.1363 -0.3594,0 -0.7258,0.0071 -1.0946,0.0188 -0.3688,0.0141 -0.7376,0.0306 -1.104,0.0517 -0.2866,0.0165 -0.5332,0.0869 -0.7399,0.2067 -0.2067,0.1222 -0.3711,0.2748 -0.4886,0.4604 -0.1198,0.1856 -0.1902,0.3829 -0.2137,0.5896 -0.0235,0.209 0.0047,0.411 0.0822,0.6037 0.0798,0.1926 0.2137,0.357 0.404,0.4932 0.1903,0.1386 0.4369,0.2279 0.7446,0.2678 0.2137,0.0235 0.4416,0.0446 0.6882,0.0634 0.2443,0.0188 0.4933,0.0329 0.747,0.0423 0.2537,0.0094 0.498,0.0117 0.7352,0.007 0.0094,0 0.0211,0.0024 0.0352,0.0071 0.0165,0.0047 0.0282,0.007 0.0353,0.007 0,0.0071 0.0023,0.0165 0.007,0.0306 0.0047,0.0117 0.0071,0.0258 0.0071,0.0399 -0.249,0.5473 -0.4651,1.0194 -0.6483,1.4188 -0.1856,0.3993 -0.343,0.7399 -0.4745,1.0194 -0.1316,0.2795 -0.2396,0.5144 -0.3289,0.7047 -0.007,0.0211 -0.0164,0.0375 -0.0282,0.0516 -0.0117,0.0141 -0.0211,0.0259 -0.0281,0.0329 -0.087,0.1785 -0.1833,0.3618 -0.2843,0.552 -0.0986,0.1903 -0.1879,0.3805 -0.263,0.5708 -0.0752,0.1926 -0.1151,0.3782 -0.1245,0.5567 -0.0094,0.1809 0.0328,0.3523 0.1268,0.5121 0.0963,0.1573 0.2631,0.303 0.5027,0.4298z"/>
 </g>
</svg>
