<?xml version="1.0" encoding="UTF-8"?>
<!DOCTYPE svg PUBLIC "-//W3C//DTD SVG 1.1//EN" "http://www.w3.org/Graphics/SVG/1.1/DTD/svg11.dtd">
<!-- Creator: CorelDRAW -->
<svg xmlns="http://www.w3.org/2000/svg" xml:space="preserve" width="215.9mm" height="279.4mm" style="shape-rendering:geometricPrecision; text-rendering:geometricPrecision; image-rendering:optimizeQuality; fill-rule:evenodd; clip-rule:evenodd"
viewBox="0 0 215.9 279.4"
 xmlns:xlink="http://www.w3.org/1999/xlink">
 <defs>
  <style type="text/css">
   <![CDATA[
    .str0 {stroke:black;stroke-linecap:round;stroke-linejoin:round}
    .fil4 {fill:#020202}
    .fil0 {fill:#081311}
    .fil2 {fill:#267A75}
    .fil1 {fill:#EB8435}
    .fil3 {fill:#FDFDFB}
    .fil6 {fill:#FF9933}
    .fil5 {fill:black;fill-rule:nonzero}
   ]]>
  </style>
 </defs>
 <g id="Capa_x0020_1">
  <metadata id="CorelCorpID_0Corel-Layer"/>
  <g id="_722105760">
   <path id="_722108136" class="fil0" d="M98.8028 173.632l10.5208 -0.0868c-0.2754,-1.9508 -2.8757,-2.1014 -5.5134,-2.1041 -1.2343,-0.0012 -2.2329,0.1306 -3.3253,0.3896 -1.1808,0.2799 -1.7477,0.3286 -1.6821,1.8013z"/>
   <path id="_722108688" class="fil0" d="M81.6108 173.089l8.2937 0.0975c0.0077,-0.0227 0.7758,0.2292 0.0304,-0.9204 -0.5248,-0.8094 -2.885,-1.0718 -3.9097,-1.0886 -1.015,-0.0165 -1.7937,0.0808 -2.6342,0.3065 -1.2966,0.3481 -1.619,0.2724 -1.7802,1.605z"/>
   <path id="_722108328" class="fil1" d="M151.297 209.333c0.6,1.1843 -0.0295,0.6508 1.1447,1.6713l9.1231 7.631c2.4474,1.8813 8.1839,7.0704 11.8665,7.5504l-7.1336 -14.2753 14.8917 4.334 -3.8486 -5.1746c-2.3463,-2.4395 -13.7948,-8.5474 -16.7353,-8.9528l-9.3085 7.216z"/>
   <path id="_722108208" class="fil1" d="M83.625 247.695c2.7467,-1.0044 5.5013,-12.3838 6.4616,-15.4209l5.796 -15.6784 -7.4642 -2.7117 -15.7829 26.3015 6.0192 -4.3482c2.215,-1.8533 2.9057,-4.647 5.4098,-5.0412l-0.4395 16.8989z"/>
   <path id="_722108880" class="fil2" d="M98.8028 173.632c-0.0656,-1.4727 0.5013,-1.5214 1.6821,-1.8013 1.0924,-0.259 2.091,-0.3908 3.3253,-0.3896 2.6377,0.0027 5.238,0.1533 5.5134,2.1041l-10.5208 0.0868zm-17.192 -0.5424c0.1612,-1.3326 0.4836,-1.2569 1.7802,-1.605 0.8405,-0.2257 1.6192,-0.323 2.6342,-0.3065 1.0247,0.0168 3.3849,0.2792 3.9097,1.0886 0.7454,1.1496 -0.0227,0.8977 -0.0304,0.9204l-8.2937 -0.0975zm-9.6206 -0.0212c1.8894,4.3112 10.848,9.128 18.4143,4.0432l5.5404 -3.3423c2.8647,2.7926 4.8089,6.0758 10.9432,6.1889 5.9945,0.1106 7.9374,-2.2554 12.087,-5.5213 -1.0754,-4.6929 -12.4649,-10.0993 -18.8608,-6.1068l-5.5378 4.1656c-2.8811,-0.9846 -3.1884,-6.4625 -11.6431,-5.8873 -4.3846,0.2984 -9.2395,3.2669 -10.9432,6.46z"/>
   <path id="_722108856" class="fil2" d="M189.447 155.278c-1.9998,-1.2519 -5.6831,-1.5827 -7.6574,-0.7335 0.4769,0.2976 -0.446,0.2315 1.1788,0.8897 3.4379,1.3928 3.6705,2.2465 5.9153,0.4263 0.3608,-0.2926 0.3109,-0.3071 0.5633,-0.5825z"/>
   <path id="_722108808" class="fil3" d="M126.31 103.141c8.591,-2.1415 15.291,4.8431 16.3392,11.8243 1.2953,8.6274 -4.0705,15.6203 -10.9639,17.2069 -13.8555,3.1891 -20.0178,-13.614 -13.7953,-23.3679 2.3669,-3.7099 4.6323,-4.7191 8.42,-5.6633zm-40.9708 5.8278c0.8733,-1.1157 8.1941,-18.2515 18.7971,-11.4768 13.8161,8.8277 12.9251,37.7468 -2.1908,43.9143 -4.8859,1.9935 -8.7284,1.4347 -12.3568,-1.6637 -3.8637,-3.2993 -3.8642,-4.7022 -5.9601,-10.417 -4.7751,2.7585 -9.4536,5.2172 -15.825,1.419 -12.5106,-7.458 -4.8761,-32.9975 12.0091,-26.3881 2.8107,1.1003 3.8653,2.7057 5.5265,4.6123zm13.2859 -15.6763c-2.0627,-2.3305 -4.2241,-4.2254 -7.124,-5.734 -3.0849,-1.6048 -5.9994,-2.7454 -10.2673,-2.8497 -10.0871,-0.2466 -20.4671,5.7824 -25.5213,13.2273l-2.4628 4.0317c-0.7026,1.5013 -1.2117,2.7058 -1.9022,4.2358 -6.1143,13.5484 -3.3679,32.9824 8.8428,42.743 9.5698,7.6497 24.3513,7.2883 32.705,-0.8181 2.4923,-2.4185 4.3575,-6.3599 7.217,-2.5031 1.7361,2.3416 3.9601,4.3447 6.716,5.9512 27.3878,15.9649 59.3646,-8.0908 54.0397,-38.0178 -3.6107,-20.2931 -23.5894,-35.1092 -45.6531,-29.3771 -11.3698,2.9539 -13.067,9.1896 -16.5898,9.1108z"/>
   <path id="_722108544" class="fil3" d="M61.3594 183.793c1.5234,2.8381 5.7528,7.3979 8.4156,9.9706 3.2542,3.1443 11.2071,9.2958 15.8633,11.4949 1.0011,0.4729 1.9324,0.9627 2.9911,1.4685 22.9068,10.9455 53.3533,6.7301 69.9233,-11.0764 0.9259,-0.9949 0.5049,-0.2787 0.7063,-1.3716l-5.6745 -2.3754c0.3562,0.5357 0.2229,-0.2278 0.2702,1.1069l-18.3421 -5.124c-1.0543,-0.4371 -12.9579,-7.5086 -14.1053,-8.7385l-1.512 0.15c-3.527,2.3102 -6.7916,5.0741 -13.004,5.0194 -6.2958,-0.0554 -9.2158,-2.8661 -12.0095,-5.6778l-14.0021 4.6766c-2.6757,-0.3814 -4.8526,-1.4266 -6.8538,-2.6966 -3.2415,-2.0572 -3.7509,-3.6305 -4.8665,-4.2801 -1.0088,0.0785 -0.0626,-0.2938 -1.1389,0.6323l-6.6702 5.6752 0.0091 1.146z"/>
   <path id="_722108760" class="fil3" d="M109.168 123.322c2.8588,-11.1058 -6.2286,-24.9947 -10.5986,-23.2924 -3.0421,1.1851 -6.4131,6.1219 -8.1498,9.6863 -2.1213,4.3534 -2.9502,9.2622 -2.7634,14.9561 17.8884,2.6454 7.8485,1.8849 21.5118,-1.35z"/>
   <path id="_722108400" class="fil3" d="M71.9336 118.121c1.0475,0.9803 2.0025,2.3692 4.3389,1.3997 1.2944,-0.5372 2.258,-2.2899 1.6729,-4.13 -0.687,-2.1606 -6.0478,-4.1094 -6.0118,2.7303z"/>
   <path id="_722108448" class="fil3" d="M126.751 118.049c0.9919,0.7718 2.3379,2.091 4.3893,0.9179 1.171,-0.6696 1.9241,-2.4765 1.1349,-4.1298 -1.2337,-2.5839 -6.377,-2.9244 -5.5242,3.2119z"/>
   <path id="_722108784" class="fil4" d="M83.625 247.695l0.4395 -16.8989c-2.5041,0.3942 -3.1948,3.1879 -5.4098,5.0412l-6.0192 4.3482 15.7829 -26.3015 7.4642 2.7117 -5.796 15.6784c-0.9603,3.0371 -3.7149,14.4165 -6.4616,15.4209zm67.672 -38.3619l9.3085 -7.216c2.9405,0.4054 14.389,6.5133 16.7353,8.9528l3.8486 5.1746 -14.8917 -4.334 7.1336 14.2753c-3.6826,-0.48 -9.4191,-5.6691 -11.8665,-7.5504l-9.1231 -7.631c-1.1742,-1.0205 -0.5447,-0.487 -1.1447,-1.6713zm30.4921 -54.7882c1.9743,-0.8492 5.6576,-0.5184 7.6574,0.7335 -0.2524,0.2754 -0.2025,0.2899 -0.5633,0.5825 -2.2448,1.8202 -2.4774,0.9665 -5.9153,-0.4263 -1.6248,-0.6582 -0.7019,-0.5921 -1.1788,-0.8897zm-83.1639 -61.2518c3.5228,0.0788 5.22,-6.1569 16.5898,-9.1108 22.0637,-5.7321 42.0424,9.084 45.6531,29.3771 5.3249,29.927 -26.6519,53.9827 -54.0397,38.0178 -2.7559,-1.6065 -4.9799,-3.6096 -6.716,-5.9512 -2.8595,-3.8568 -4.7247,0.0846 -7.217,2.5031 -8.3537,8.1064 -23.1352,8.4678 -32.705,0.8181 -12.2107,-9.7606 -14.9571,-29.1946 -8.8428,-42.743 0.6905,-1.53 1.1996,-2.7345 1.9022,-4.2358l2.4628 -4.0317c5.0542,-7.4449 15.4342,-13.4739 25.5213,-13.2273 4.2679,0.1043 7.1824,1.2449 10.2673,2.8497 2.8999,1.5086 5.0613,3.4035 7.124,5.734zm-79.4625 38.5481c-1.6413,3.2538 -10.1279,0.3037 -9.4704,-6.3363 0.04,-0.4046 0.4489,-2.2708 0.577,-2.5997 0.4721,-1.2121 0.4882,-0.2768 1.0599,-1.6954l-0.5505 4.3122c-0.0904,3.8436 3.8296,6.0892 8.384,6.3192zm7.3326 -18.5567c-0.3523,-4.9231 -0.1405,-16.8566 3.7629,-18.5756l3.1312 9.9279c0.2975,4.123 0.2779,8.4123 0.4475,12.6664l3.9515 5.1453c6.1274,9.5277 -1.0999,20.996 7.9516,45.4506 0.8807,2.379 1.9875,4.323 2.5447,6.7259l-22.6567 -14.3784c-4.0168,-3.3907 -12.3195,-16.8011 -13.2196,-23.1114 5.1361,0.135 7.2565,0.9672 9.0262,-1.6408 0.8697,-1.2816 0.3857,-1.5599 1.3656,-2.6096l7.016 1.5242 -3.033 -4.1054 5.35 -6.8423 -1.4123 -0.3089c-0.2461,0.0033 -12.4108,7.9186 -15.2403,2.0194 6.0426,-7.4065 5.4262,-8.8444 16.0074,-8.6959 -1.9126,-2.3898 -1.7049,-2.8836 -4.9927,-3.1914zm-12.1959 3.5098c-0.483,-1.1443 -1.8017,-2.9787 -2.5036,-4.2992 -1.8574,-3.4935 -5.5277,-11.5432 -2.9727,-14.8804l6.5341 6.8514c0.8013,1.5714 4.1755,7.8837 4.2298,9.4158l-5.2876 2.9124zm139.285 75.1101l5.6745 2.3754c-0.2014,1.0929 0.2196,0.3767 -0.7063,1.3716 -16.57,17.8065 -47.0165,22.0219 -69.9233,11.0764 -1.0587,-0.5058 -1.99,-0.9956 -2.9911,-1.4685 -4.6562,-2.1991 -12.6091,-8.3506 -15.8633,-11.4949 -2.6628,-2.5727 -6.8922,-7.1325 -8.4156,-9.9706l-0.3993 -0.3516c-0.2266,-0.2712 -0.228,-0.2683 -0.4496,-0.6048 -5.5265,-8.3902 -10.8239,-20.2051 -12.4365,-29.925l-1.4402 -13.7721c1.1837,1.1156 3.2445,6.7059 8.2984,11.3011 3.1621,2.8754 7.6171,5.9812 12.6157,7.244 6.4228,1.6226 11.2689,1.621 17.6061,-0.172l12.0546 -7.7988c2.6133,1.3998 6.7178,7.9827 19.1848,10.4053 35.6837,6.9336 62.3166,-30.2235 43.3549,-61.4677 -3.9701,-6.5415 -8.3636,-10.9575 -14.9867,-14.7813 -6.0501,-3.493 -15.6833,-6.3542 -24.3957,-5.1137 -10.8318,1.5423 -12.0835,3.3861 -20.6576,9.0328 -3.7227,-2.3128 -5.9394,-5.7837 -14.76,-7.0685 -8.1429,-1.1861 -12.1261,0.0727 -18.9002,2.8516 0.5285,-1.0379 -0.2335,-0.0483 0.6292,-1.0177 0.2421,-0.272 0.5482,-0.4746 0.9367,-0.7791 2.1908,-1.7169 3.438,-2.7625 5.9344,-4.3295 17.0702,-10.7145 35.0519,-14.2781 54.905,-8.7981 6.7977,1.8763 18.061,7.5036 22.5793,11.7053 1.3864,1.2893 2.5342,2.246 3.6439,3.1914 2.8888,2.4612 4.0231,4.2866 6.5823,7.1029 11.1393,12.2586 17.2355,36.3388 14.3145,53.1679 -0.3791,2.1846 -0.5998,3.9289 -1.0313,5.9532l-1.5681 5.1668c3.7,2.5068 11.8159,5.7576 16.0472,8.5313l14.186 10.139 -9.6876 0.4884c0.348,1.8081 5.1701,3.8255 6.664,4.8907l6.5574 5.307c-4.0668,0.2396 -5.53,0.4548 -9.526,1.0922 0.7072,1.3363 3.3275,2.1474 4.6611,2.8407l4.8575 2.6332c-2.4454,1.8993 -17.6422,1.8927 -21.8184,1.6604 -7.1662,-0.3984 -13.7821,-1.488 -20.2483,-3.3277 -6.3442,-1.805 -11.0156,-3.9144 -16.322,-7.2729 -5.0148,-3.1741 -8.6298,-6.7955 -12.8801,-10.7378 -1.2268,3.9466 4.8047,11.0374 6.5038,12.6581 1.9974,1.9054 3.0109,2.6197 5.2821,4.2895 2.1331,1.5682 4.3461,2.1624 6.3338,3.7761zm-112.379 -74.2911c-3.02,-2.4936 -0.8176,-5.1616 -1.5164,-13.6112 -0.3774,-4.564 -0.9218,-9.7076 -3.1038,-12.8694 -2.2886,-3.316 -6.623,-5.0112 -10.6244,-1.7353l-5.1765 10.9109c-1.5731,-1.0252 -3.4138,-6.2887 -7.0632,-8.545 -6.3324,-3.9151 -18.2239,1.2769 -8.703,21.3599l2.5675 5.2063c-2.3638,3.2008 -3.8564,5.1836 -3.5947,10.617 0.1848,3.8418 1.5145,8.6681 2.6096,12.0831 2.2777,7.1028 6.2824,14.1029 10.1953,18.8185 5.741,6.9186 4.8882,5.9749 10.6835,10.8673 1.4121,1.1922 2.7968,2.3272 4.3726,3.1575 6.2094,3.2719 6.5161,4.2666 14.5644,6.9528 7.3929,2.4675 4.5745,-0.4441 8.8275,5.913 2.574,3.8472 7.1424,9.0668 10.366,11.8771 8.2616,7.2024 8.2539,6.7416 17.4571,12.3095 -0.516,1.7939 -2.4038,3.2191 -3.4994,4.6055 -3.4652,4.3849 -6.8501,9.5502 -9.3704,14.2454 -1.6423,3.0595 -4.0288,7.8127 -2.9611,12.0118 1.4255,5.6057 6.912,2.7865 10.6395,1.6771 0.2409,3.7022 0.7369,10.7941 7.3955,9.2829 6.2674,-1.4225 8.9863,-15.3442 11.4945,-22.3956l4.775 -12.319c4.0143,0.1101 7.7955,0.9294 11.8591,1.0531 13.4108,0.4087 20.5106,-2.1469 32.1522,-6.5557l6.3267 5.5309c4.9751,4.5569 16.1753,14.636 23.1025,13.8767 2.5287,-0.2771 3.9254,-1.7195 4.1912,-4.1372l-1.9333 -6.5963c13.5387,1.9066 13.3469,-9.4328 -2.837,-18.4704 -0.7162,-0.4 -1.2878,-0.6872 -1.9994,-1.0849l-1.8916 -1.2764 3.4367 -2.5036c4.026,-0.0513 8.4757,0.7412 12.6572,0.8346 6.1557,0.1375 18.6312,-0.446 24.1903,-2.8198 1.3669,-0.5836 3.2431,-1.3174 3.5841,-3.3152 0.4018,-2.3534 -1.2451,-3.3791 -2.4198,-4.4474 2.2485,-4.9906 1.8207,-4.5393 -4.5429,-9.9215 0.5374,-0.9602 6.0678,-4.1786 -3.0977,-10.8521 -4.6953,-3.4188 -5.8612,-4.1725 -10.8198,-7.2802 0.4311,-0.9862 2.1379,-2.403 3.0478,-3.3971l1.2731 -5.134 -16.844 -2.607c-0.0177,-2.3114 1.4159,-8.9489 1.2246,-16.2314 -0.3615,-13.772 -5.2343,-31.1126 -13.0257,-41.4346 -1.4811,-1.9621 -2.309,-3.454 -3.751,-5.1185 -11.436,-13.2013 -21.8819,-20.0362 -39.1128,-24.5215 -9.6449,-2.5107 -22.4632,-2.0579 -32.1999,0.1317 -9.8757,2.2209 -18.263,6.3272 -25.1145,11.1575 -24.8907,17.5477 -25.9059,41.0082 -27.7912,44.7002z"/>
   <path id="_722107680" class="fil4" d="M32.912 265.782c1.5026,2.6712 15.3525,3.4055 17.8675,3.677 27.4223,2.9603 77.3394,3.0511 104.694,1.5073 3.2405,-0.1828 24.9209,-1.651 29.1344,-2.5807l8.5792 -2.6036c-1.6042,-3.0915 -14.0172,-3.3994 -17.7075,-3.8962 -15.5784,-2.0968 -46.7508,-2.913 -62.4282,-2.9509 -14.2322,-0.0344 -28.0911,0.5293 -42.0743,1.2238 -12.5272,0.6223 -18.631,1.6941 -29.7992,2.8547 -2.1992,0.2286 -7.4012,0.6013 -8.2654,2.7686z"/>
   <path id="_722107656" class="fil4" d="M88.6479 129.811c10.188,1.8659 7.7518,1.687 19.2412,-1.8939 -0.7934,4.068 -5.1969,8.9623 -8.9427,10.1883 -5.0966,1.6683 -9.5187,-4.3586 -10.2985,-8.2944zm20.5196 -6.4898c-13.6633,3.2349 -3.6234,3.9954 -21.5118,1.35 -0.1868,-5.6939 0.6421,-10.6027 2.7634,-14.9561 1.7367,-3.5644 5.1077,-8.5012 8.1498,-9.6863 4.37,-1.7023 13.4574,12.1866 10.5986,23.2924zm-37.2339 -5.2011c-0.036,-6.8397 5.3248,-4.8909 6.0118,-2.7303 0.5851,1.8401 -0.3785,3.5928 -1.6729,4.13 -2.3364,0.9695 -3.2914,-0.4194 -4.3389,-1.3997zm13.4057 -9.1516c-1.6612,-1.9066 -2.7158,-3.512 -5.5265,-4.6123 -16.8852,-6.6094 -24.5197,18.9301 -12.0091,26.3881 6.3714,3.7982 11.0499,1.3395 15.825,-1.419 2.0959,5.7148 2.0964,7.1177 5.9601,10.417 3.6284,3.0984 7.4709,3.6572 12.3568,1.6637 15.1159,-6.1675 16.0069,-35.0866 2.1908,-43.9143 -10.603,-6.7747 -17.9238,10.3611 -18.7971,11.4768z"/>
   <path id="_722107632" class="fil4" d="M126.751 118.049c-0.8528,-6.1363 4.2905,-5.7958 5.5242,-3.2119 0.7892,1.6533 0.0361,3.4602 -1.1349,4.1298 -2.0514,1.1731 -3.3974,-0.1461 -4.3893,-0.9179zm-0.441 -14.9078c-3.7877,0.9442 -6.0531,1.9534 -8.42,5.6633 -6.2225,9.7539 -0.0602,26.557 13.7953,23.3679 6.8934,-1.5866 12.2592,-8.5795 10.9639,-17.2069 -1.0482,-6.9812 -7.7482,-13.9658 -16.3392,-11.8243z"/>
   <path id="_722107608" class="fil4" d="M71.9902 173.068c1.7037,-3.1931 6.5586,-6.1616 10.9432,-6.46 8.4547,-0.5752 8.762,4.9027 11.6431,5.8873l5.5378 -4.1656c6.3959,-3.9925 17.7854,1.4139 18.8608,6.1068 -4.1496,3.2659 -6.0925,5.6319 -12.087,5.5213 -6.1343,-0.1131 -8.0785,-3.3963 -10.9432,-6.1889l-5.5404 3.3423c-7.5663,5.0848 -16.5249,0.268 -18.4143,-4.0432zm-2.8308 3.2718c1.1156,0.6496 1.625,2.2229 4.8665,4.2801 2.0012,1.27 4.1781,2.3152 6.8538,2.6966 5.4671,1.1608 10.1049,-0.4991 14.0021,-4.6766 2.7937,2.8117 5.7137,5.6224 12.0095,5.6778 6.2124,0.0547 9.477,-2.7092 13.004,-5.0194 0.9817,-1.4207 2.5653,-2.0502 3.0841,-3.5155 1.5386,-4.3462 -4.4968,-8.9859 -8.0866,-10.7248 -12.2274,-5.9229 -19.2941,2.136 -19.9742,2.226 -4.7931,-3.4001 -10.2617,-5.3748 -17.5343,-3.5399 -3.1193,1.1063 -5.0314,2.8476 -6.9208,4.7113 -3.9655,3.9118 -2.411,5.1681 -1.3041,7.8844z"/>
   <path id="_722107584" class="fil4" d="M190.502 117.537c2.2915,-2.3476 3.957,-4.4724 5.0855,-8.1682 1.8974,4.9713 1.3565,4.7744 4.6472,8.2756 -2.6471,2.3096 -3.7688,2.9983 -5.6718,6.1205l-4.0609 -6.2279zm-8.7011 1.1338c2.6169,2.256 6.4157,0.0365 8.4999,5.1588l2.8058 11.2686c3.0709,0.3197 2.5643,-2.5684 3.3488,-5.2102 3.3292,-11.2114 10.5809,-9.0877 12.2524,-10.0167l2.1535 -2.3015c-5.561,-4.0189 -9.2081,1.8195 -12.149,-13.4461l-1.4925 -6.9774 -1.8026 -0.0889c-1.4129,2.1395 -1.2705,3.5541 -2.0299,6.4506 -4.5666,17.4167 -12.1861,9.5156 -11.5864,15.1628z"/>
   <path id="_722107392" class="fil5 str0" d="M20.6706 71.9783c0.2517,0.0665 0.5075,0.0999 0.772,0.0858 0.2643,-0.014 0.5045,-0.0609 0.7346,-0.1451 0.2301,-0.0844 0.4125,-0.1963 0.5563,-0.3453 0.2411,-0.2689 0.3213,-0.5444 0.2405,-0.8455 -0.0856,-0.2963 -0.2653,-0.5814 -0.5536,-0.8503 -0.3123,-0.2923 -0.6432,-0.5653 -0.9924,-0.8098 -0.3495,-0.2539 -0.7035,-0.5028 -1.0626,-0.766 -0.3588,-0.2537 -0.709,-0.5453 -1.05,-0.8655 -0.1348,-0.1393 -0.2079,-0.2657 -0.2051,-0.3744 -0.002,-0.1135 0.0245,-0.2272 0.0793,-0.3321 0.0594,-0.1098 0.1001,-0.2192 0.1358,-0.3427 0.2563,-0.7464 0.4801,-1.4593 0.6714,-2.148 0.1961,-0.6839 0.392,-1.3679 0.5976,-2.0426 0.2055,-0.6841 0.4532,-1.383 0.7477,-2.1113 0.0975,-0.0915 0.2769,-0.1041 0.5193,-0.0279 0.247,0.0713 0.5375,0.1938 0.8573,0.3725 0.3243,0.174 0.6585,0.3666 0.9884,0.5829 0.3393,0.2162 0.6407,0.4237 0.9182,0.6173 0.2774,0.1937 0.4833,0.346 0.6364,0.4567 0.2155,0.1617 0.4217,0.333 0.6236,0.528 0.2066,0.1901 0.408,0.3568 0.6041,0.4904 0.2009,0.1382 0.4053,0.2056 0.6133,0.2114 0.2079,-0.0036 0.4186,-0.1161 0.6415,-0.3373 0.3342,-0.3556 0.4172,-0.7398 0.2494,-1.1433 -0.1724,-0.4082 -0.511,-0.8559 -1.0299,-1.3384 -0.4183,-0.4039 -0.8831,-0.7787 -1.3904,-1.1384 -0.5168,-0.3596 -1.0518,-0.6904 -1.6052,-0.9928 -0.5536,-0.3022 -1.1016,-0.5619 -1.6491,-0.7934l-9.8574 -4.2798c-0.7191,-0.3136 -1.4509,-0.5372 -2.1811,-0.6755 -0.7301,-0.1386 -1.4259,-0.1972 -2.0872,-0.1764 -0.6659,0.0259 -1.255,0.1166 -1.7768,0.2816 -0.5168,0.1696 -0.9192,0.4035 -1.2118,0.697 -0.0789,0.0817 -0.1762,0.192 -0.2965,0.3359 -0.1205,0.1439 -0.2223,0.2591 -0.3152,0.3553 0.0276,0.5004 0.1834,1.0317 0.4626,1.5987 0.2792,0.5575 0.6388,1.1279 1.0742,1.6968 0.44,0.5735 0.9035,1.1326 1.3949,1.6722 0.4914,0.5397 0.9728,1.0417 1.4252,1.5063 0.457,0.46 0.842,0.8597 1.1645,1.199 0.6586,0.636 1.2743,1.2491 1.8517,1.8344 0.5821,0.5901 1.1545,1.1708 1.7177,1.7519 0.5631,0.5808 1.15,1.1755 1.7609,1.7933 0.611,0.6179 1.2746,1.2775 2.0006,1.9785 0.3221,0.311 0.6633,0.6405 1.0286,0.9839 0.3651,0.3433 0.7396,0.677 1.1138,1.0013 0.3743,0.3243 0.7337,0.6064 1.0829,0.8507zm-4.4124 -7.494c-0.2645,-0.2554 -0.5432,-0.5151 -0.8312,-0.7747 -0.288,-0.2596 -0.557,-0.5006 -0.8066,-0.7233 -0.2496,-0.2224 -0.4417,-0.3986 -0.5811,-0.5332 -0.6297,-0.6082 -1.2695,-1.2444 -1.9286,-1.9087 -0.6541,-0.6596 -1.2704,-1.3105 -1.8534,-1.9479 -0.5828,-0.6278 -1.0845,-1.2145 -1.5048,-1.7411 -0.4205,-0.5268 -0.7068,-0.9612 -0.8688,-1.3035 -0.1619,-0.3421 -0.1513,-0.5456 0.0413,-0.6197 0.4204,-0.0027 0.8796,0.0318 1.3678,0.113 0.488,0.0814 0.9673,0.1912 1.4423,0.3341 0.4846,0.1428 0.9221,0.2959 1.3174,0.4733l6.3694 2.6392c0.1858,0.0772 0.3289,0.1597 0.4297,0.2477 0.096,0.0834 0.2114,0.1948 0.3462,0.3343 -0.2214,0.3157 -0.4421,0.6694 -0.648,1.0558 -0.2154,0.3865 -0.407,0.7868 -0.5887,1.2058 -0.1513,0.2627 -0.302,0.563 -0.4472,0.9057 -0.1501,0.3383 -0.2814,0.6666 -0.4032,0.9948 -0.1268,0.3237 -0.2258,0.5995 -0.3119,0.8231 -0.0857,0.2237 -0.145,0.3522 -0.1727,0.3906 -0.0276,0.0383 -0.0697,0.0626 -0.1308,0.0873 -0.0562,0.0294 -0.137,0.0071 -0.2371,-0.0526zm18.0956 -15.4867c0.4236,0.6651 0.9172,1.3416 1.4717,2.0273 0.5638,0.6879 1.1729,1.3474 1.8351,1.9659 0.6601,0.6276 1.3579,1.1767 2.0909,1.6564 0.7331,0.4795 1.4825,0.8466 2.2482,1.1009 0.7623,0.2487 1.5343,0.3494 2.3,0.2884 0.7692,-0.055 1.5166,-0.3092 2.2512,-0.7605 0.4441,-0.2853 0.8621,-0.6255 1.2467,-1.0312 0.3905,-0.4094 0.7481,-0.8457 1.0698,-1.3145 0.1452,-0.209 0.3386,-0.5426 0.5817,-0.986 0.2465,-0.4377 0.5121,-0.9583 0.7927,-1.5435 0.2862,-0.5885 0.5513,-1.2112 0.8112,-1.8543 0.2621,-0.6524 0.472,-1.2878 0.6497,-1.9111 0.1723,-0.6198 0.2686,-1.1843 0.2949,-1.6972 0.0206,-0.5092 -0.058,-0.925 -0.2436,-1.2346 -0.3102,-0.4838 -0.6799,-0.8358 -1.1091,-1.0562 -0.4292,-0.2203 -0.891,-0.3416 -1.389,-0.3692 -0.5002,-0.0184 -1.0002,0.0261 -1.5152,0.1351 -0.5058,0.1112 -0.9959,0.26 -1.4614,0.4482 -0.4632,0.1793 -0.8861,0.3725 -1.2553,0.5638 -0.3689,0.1913 -0.6651,0.3606 -0.8861,0.4986 -0.3039,0.1821 -0.5901,0.3923 -0.8528,0.6274 -0.263,0.2353 -0.4358,0.5008 -0.5243,0.8005 -0.0886,0.2997 -0.0208,0.6354 0.2039,1.0072 0.1805,0.2891 0.4257,0.5299 0.7146,0.7276 0.2947,0.1941 0.6007,0.3181 0.9237,0.3684 0.3194,0.0446 0.6177,-0.0077 0.8818,-0.165 0.2232,-0.1473 0.3989,-0.3202 0.5363,-0.5162 0.1339,-0.2019 0.2713,-0.3981 0.3996,-0.5965 0.1374,-0.1962 0.3018,-0.3619 0.5136,-0.502 0.1133,-0.0709 0.2905,-0.1659 0.5334,-0.294 0.2408,-0.1189 0.5001,-0.2337 0.7756,-0.3349 0.2756,-0.1013 0.5108,-0.1537 0.7148,-0.1551 0.2005,-0.0072 0.311,0.0814 0.3393,0.2528 -0.0639,0.7176 -0.2042,1.4514 -0.4131,2.1888 -0.2183,0.7353 -0.4954,1.452 -0.8361,2.1299 -0.3374,0.6834 -0.7376,1.304 -1.1839,1.8507 -0.452,0.5504 -0.9472,0.9939 -1.482,1.3359 -0.7062,0.4335 -1.3991,0.6615 -2.067,0.677 -0.6679,0.0155 -1.3089,-0.1277 -1.9287,-0.426 -0.6233,-0.3038 -1.2119,-0.7161 -1.775,-1.2389 -0.5632,-0.5229 -1.0907,-1.1151 -1.5908,-1.764 -0.4944,-0.6524 -0.9569,-1.3168 -1.3761,-2.0006 -1.0304,-1.6491 -1.8422,-3.364 -2.4405,-5.1414 -0.5983,-1.7771 -0.9679,-3.5793 -1.1087,-5.4061 -0.1465,-1.8233 -0.0487,-3.6338 0.2823,-5.4245 0.0319,-0.1381 0.0809,-0.2867 0.1454,-0.4611 0.068,-0.1686 0.1487,-0.3293 0.2366,-0.4788 0.0934,-0.153 0.1855,-0.2578 0.2897,-0.3308 0.1828,-0.0983 0.3768,-0.0778 0.5802,0.0709 0.2089,0.1452 0.4087,0.3513 0.5991,0.6184 0.1998,0.2692 0.3754,0.5378 0.5291,0.7962 0.1479,0.2622 0.2628,0.4584 0.3442,0.5888l0.4887 0.782 2.5623 5.9164c0.0035,0.0056 0.0119,0.0318 0.029,0.0843 0.0204,0.058 0.0397,0.1012 0.0644,0.1409 0.1155,0.1722 0.2783,0.3067 0.4865,0.413 0.214,0.1027 0.4364,0.1687 0.6658,0.1828 0.224,0.0178 0.4123,-0.0212 0.5689,-0.1111 0.2967,-0.1934 0.476,-0.4236 0.53,-0.6778 0.0559,-0.2636 0.0381,-0.544 -0.0567,-0.8472 -0.0913,-0.2976 -0.2045,-0.605 -0.3456,-0.9188 -0.2669,-0.629 -0.5432,-1.2602 -0.8249,-1.8878 -0.2877,-0.624 -0.6007,-1.2638 -0.9449,-1.9155 -0.335,-0.6496 -0.7266,-1.3267 -1.1621,-2.0238 -0.2622,-0.4194 -0.5496,-0.8543 -0.8719,-1.307 -0.3187,-0.447 -0.6678,-0.867 -1.044,-1.2545 -0.376,-0.3876 -0.7727,-0.7071 -1.1864,-0.9529 -0.4228,-0.2479 -0.8584,-0.3777 -1.3139,-0.4003 -0.4575,-0.0135 -0.9251,0.121 -1.4103,0.4164 -0.4669,0.2995 -0.8374,0.728 -1.125,1.3018 -0.2856,0.5645 -0.4925,1.2296 -0.6278,1.984 -0.1354,0.7543 -0.2149,1.5605 -0.2291,2.4204 -0.0234,0.8578 0.0084,1.7283 0.0806,2.613 0.0686,0.8792 0.1677,1.7312 0.2937,2.5508 0.1295,0.8253 0.2725,1.5712 0.4305,2.2525 0.1544,0.6759 0.3101,1.2405 0.4617,1.6973 0.3427,1.0151 0.7471,2.0154 1.1947,2.9964 0.4476,0.9812 0.9632,1.9198 1.5375,2.8138zm13.6169 -19.096c0.0877,0.1803 0.2161,0.4524 0.3914,0.8132 0.1752,0.3608 0.375,0.7766 0.6053,1.2447 0.2243,0.4707 0.4628,0.957 0.7094,1.4618 0.2467,0.5046 0.479,0.9937 0.7092,1.4616 0.2303,0.4681 0.4363,0.8812 0.6115,1.242 0.1815,0.3581 0.3159,0.6274 0.4097,0.8051 0.4314,0.8539 0.9348,1.7051 1.5134,2.5447 0.5786,0.8397 1.2108,1.6189 1.8939,2.3315 0.6891,0.7099 1.4162,1.3079 2.1757,1.7816 0.7596,0.4739 1.536,0.7719 2.3354,0.8914 0.7993,0.1196 1.5999,0.012 2.4023,-0.338 0.797,-0.3621 1.4588,-0.9129 1.9911,-1.64 0.526,-0.7242 0.9379,-1.5734 1.2298,-2.5445 0.289,-0.9772 0.4675,-2.0222 0.5502,-3.1343 0.0766,-1.1095 0.0644,-2.2378 -0.0429,-3.3824 -0.0985,-1.141 -0.2796,-2.2381 -0.5375,-3.2938 -0.2606,-1.0616 -0.5794,-2.0242 -0.9627,-2.8851 -0.2745,-0.6165 -0.5693,-1.1802 -0.8812,-1.6997 -0.3117,-0.5194 -0.6506,-1.0343 -1.0201,-1.5354 -0.3694,-0.5012 -0.7762,-1.037 -1.2202,-1.6072 -0.0361,-0.0645 -0.1508,-0.1743 -0.3483,-0.3059 -0.1942,-0.1402 -0.4093,-0.2786 -0.6517,-0.4121 -0.2395,-0.1273 -0.4506,-0.2236 -0.625,-0.2702 -0.211,0.1011 -0.3975,0.2573 -0.548,0.478 -0.1565,0.2232 -0.2603,0.467 -0.3143,0.7397 -0.0506,0.264 -0.026,0.5164 0.0739,0.7572 0.2757,0.5867 0.5977,1.1456 0.9841,1.6684 0.3804,0.5256 0.7688,1.0696 1.1654,1.6318 0.4028,0.5595 0.7572,1.1915 1.0821,1.8882 0.5477,1.263 0.8809,2.5044 1.0019,3.7454 0.1182,1.2348 0.0904,2.454 -0.0858,3.6519 -0.1824,1.2002 -0.4442,2.3702 -0.795,3.5212 -0.0811,0.2775 -0.195,0.5477 -0.3238,0.8171 -0.1348,0.2722 -0.2954,0.5193 -0.4758,0.7385 -0.1829,0.2132 -0.3905,0.3714 -0.6198,0.4807 -0.4179,0.1789 -0.8411,0.2137 -1.2729,0.0987 -0.4349,-0.1062 -0.8592,-0.3198 -1.2876,-0.6411 -0.4282,-0.3214 -0.8356,-0.7105 -1.2342,-1.1621 -0.3924,-0.4545 -0.7687,-0.9379 -1.1137,-1.4499 -0.345,-0.5121 -0.6547,-1.0105 -0.9292,-1.4956 -0.2744,-0.4849 -0.4999,-0.9257 -0.68,-1.3138 -0.1324,-0.2483 -0.3166,-0.6124 -0.5578,-1.1049 -0.235,-0.4952 -0.5061,-1.0547 -0.801,-1.6842 -0.301,-0.6268 -0.5986,-1.2622 -0.9015,-1.9101 -0.3032,-0.6478 -0.5905,-1.244 -0.8528,-1.8001 -0.2623,-0.5562 -0.4784,-1.0086 -0.6482,-1.3573 -0.1699,-0.3486 -0.2663,-0.5324 -0.2948,-0.5636 -0.2248,-0.1926 -0.4725,-0.3383 -0.7467,-0.4285 -0.268,-0.0926 -0.513,-0.1005 -0.7233,-0.0144 -0.2748,0.1224 -0.5148,0.2731 -0.7121,0.4707 -0.2001,0.1915 -0.3213,0.4284 -0.3727,0.7073 -0.0575,0.2816 -0.0002,0.6072 0.162,0.9885 0.0871,0.1953 0.1631,0.3662 0.2433,0.5134 0.0802,0.1471 0.1895,0.3107 0.3396,0.4999zm21.8899 2.8291c0.2333,0.664 0.4484,1.312 0.6389,1.9458 0.1906,0.6338 0.4062,1.2057 0.6548,1.7202 0.2438,0.5228 0.5748,0.932 0.9773,1.2463 0.3416,0.2681 0.6583,0.4947 0.95,0.6795 0.2899,0.1782 0.5918,0.2979 0.8975,0.3544 0.3009,0.0646 0.6474,0.041 1.0281,-0.061 0.3018,-0.0878 0.6731,-0.2772 1.1123,-0.5748 0.4326,-0.2959 0.8949,-0.6618 1.385,-1.1045 0.4902,-0.4427 0.9637,-0.9222 1.4313,-1.4489 0.4613,-0.5249 0.8739,-1.0505 1.2279,-1.5881 0.3623,-0.5329 0.626,-1.0464 0.801,-1.5292 0.1669,-0.4875 0.2132,-0.908 0.1212,-1.2777 -0.0537,-0.2001 -0.1383,-0.4126 -0.2458,-0.6329 -0.1137,-0.2186 -0.2496,-0.3897 -0.4173,-0.5245 -0.1611,-0.1368 -0.3466,-0.1839 -0.555,-0.135 -0.1532,0.048 -0.273,0.1424 -0.3682,0.2785 -0.0932,0.1425 -0.1764,0.2964 -0.2481,0.4677 -0.0799,0.1667 -0.165,0.3141 -0.2681,0.4455 -0.2829,0.3387 -0.5905,0.7393 -0.9197,1.215 -0.3276,0.482 -0.6889,0.9663 -1.0697,1.4558 -0.3809,0.4894 -0.7901,0.9242 -1.2325,1.3126 -0.4442,0.3819 -0.9213,0.6412 -1.4343,0.7924 -0.268,0.0581 -0.501,-0.0109 -0.6942,-0.2152 -0.1946,-0.2107 -0.3516,-0.4868 -0.4838,-0.825 -0.1322,-0.3383 -0.2414,-0.6686 -0.325,-1.0061l-0.6018 -2.2462c0.0155,-0.3294 0.1446,-0.6475 0.4004,-0.9583 0.2493,-0.3089 0.5537,-0.6187 0.9114,-0.936 0.3595,-0.3109 0.6993,-0.6439 1.0353,-0.9901 0.3298,-0.3443 0.583,-0.7164 0.7529,-1.1148 0.1747,-0.4066 0.1948,-0.8479 0.0781,-1.3354 -0.019,-0.0711 -0.0632,-0.1838 -0.1223,-0.3269 -0.0608,-0.1498 -0.1362,-0.3025 -0.2264,-0.4583 -0.0903,-0.1557 -0.1928,-0.2804 -0.295,-0.3776 -0.1103,-0.1019 -0.2163,-0.1357 -0.3212,-0.1145 -0.0194,0.0052 -0.0452,0.0121 -0.0758,0.0272 -0.0321,0.0086 -0.0546,0.0285 -0.0688,0.0531l-2.5047 2.5804 -0.3485 0.0935c-0.2207,-0.8748 -0.4137,-1.7502 -0.5774,-2.6195 -0.1573,-0.871 -0.3435,-1.7206 -0.5601,-2.5551 -0.0847,-0.3162 -0.2353,-0.5941 -0.4435,-0.8289 -0.2034,-0.2429 -0.4431,-0.4139 -0.722,-0.526 -0.2774,-0.1055 -0.5727,-0.1232 -0.8713,-0.0501 -0.2436,0.0721 -0.4295,0.205 -0.5493,0.4032 -0.1263,0.1999 -0.2276,0.4414 -0.3069,0.7393 0.0831,0.3099 0.1725,0.6181 0.2685,0.9243 0.0958,0.3064 0.1854,0.6145 0.2684,0.9245 0.2542,0.9487 0.4826,1.9045 0.6818,2.8543 0.2008,0.9563 0.3854,1.903 0.5518,2.8338 -0.0261,0.0832 -0.0872,0.2172 -0.1748,0.4066 -0.0876,0.1895 -0.1571,0.3949 -0.223,0.6133 -0.0661,0.2183 -0.0822,0.4163 -0.042,0.5923 0.0584,0.192 0.152,0.3605 0.2826,0.5124 0.137,0.15 0.2807,0.2984 0.4352,0.4369 0.1484,0.14 0.2854,0.2901 0.4048,0.4518zm-3.2989 -15.7197c0.1006,0.2981 0.2543,0.5614 0.4754,0.7926 0.221,0.2314 0.4671,0.4007 0.7444,0.5063 0.2726,0.1137 0.5404,0.1319 0.8067,0.0675 0.3469,-0.0999 0.684,-0.2871 1.0169,-0.5423 0.3248,-0.26 0.6378,-0.5376 0.9392,-0.8328 0.3096,-0.2905 0.6003,-0.5483 0.8773,-0.754 0.3785,-0.2398 0.7836,-0.4313 1.2204,-0.5829 0.4385,-0.1452 0.8675,-0.2741 1.3018,-0.3834l0.2711 -0.0726c0.4276,-0.1077 0.867,-0.1978 1.315,-0.2557 0.4481,-0.0577 0.8944,-0.1219 1.349,-0.1815 0.4544,-0.0594 0.9002,-0.1513 1.341,-0.2625 0.1871,-0.0501 0.3493,-0.1419 0.4947,-0.2709 0.1516,-0.1306 0.2626,-0.2847 0.329,-0.4755 0.0666,-0.1909 0.0645,-0.4048 0.0088,-0.6389 -0.1202,-0.3967 -0.3423,-0.6831 -0.6808,-0.8621 -0.3385,-0.1792 -0.7259,-0.283 -1.1754,-0.3078 -0.4431,-0.0266 -0.8967,-0.0157 -1.3448,0.0421 -0.448,0.0578 -0.8392,0.1211 -1.18,0.1916 -0.3408,0.0707 -0.5702,0.1182 -0.6899,0.1365 -0.8133,0.218 -1.5293,0.4375 -2.1369,0.6486 -0.6122,0.2195 -1.1643,0.4573 -1.6689,0.7171 -0.5046,0.2597 -0.9971,0.5645 -1.4921,0.9117 -0.4887,0.3455 -1.0279,0.7597 -1.6068,1.233 -0.1794,0.1311 -0.3289,0.2957 -0.434,0.4969 -0.1135,0.1964 -0.142,0.4255 -0.0811,0.679zm12.5112 1.4784l0.5782 1.201c0.7728,1.5736 1.5429,3.0935 2.3104,4.5596 0.774,1.4649 1.5992,2.8732 2.4831,4.2306 0.885,1.364 1.8751,2.6687 2.9855,3.9249 0.199,0.2432 0.3852,0.4138 0.5509,0.5068 0.1657,0.0929 0.3353,0.1309 0.5241,0.1248 0.1888,-0.0062 0.4216,-0.0336 0.6902,-0.0879 0.3289,-0.058 0.5699,-0.1547 0.7223,-0.29 0.1461,-0.1344 0.2432,-0.3145 0.273,-0.5301 0.0299,-0.2156 0.0372,-0.4815 0.018,-0.7834 -0.0259,-0.3009 -0.0402,-0.6511 -0.056,-1.0487 -0.0401,-0.9973 -0.0559,-1.9716 -0.0483,-2.9297 0.0009,-0.9569 0.0335,-1.9262 0.0967,-2.9144 0.0567,-0.9872 0.1513,-2.0285 0.2772,-3.1228 0.126,-1.0943 0.2829,-2.2824 0.4798,-3.5521 0.2034,-1.2708 0.4451,-2.6705 0.7253,-4.1991l-0.007 -0.0396c0.0523,-0.1654 0.084,-0.293 0.0953,-0.3832 0.01,-0.0968 0.0023,-0.2175 -0.0232,-0.3623 -0.036,-0.2041 -0.1281,-0.4186 -0.2697,-0.6446 -0.1418,-0.226 -0.3104,-0.4136 -0.5064,-0.5622 -0.1892,-0.1498 -0.3831,-0.2106 -0.5686,-0.1846 -0.3739,0.0726 -0.6828,0.2832 -0.9256,0.6381 -0.2505,0.3495 -0.4441,0.7908 -0.6017,1.3207 -0.1499,0.5354 -0.272,1.1133 -0.3662,1.7338 -0.0941,0.6206 -0.175,1.2388 -0.2352,1.86 -0.0678,0.616 -0.1372,1.1847 -0.2092,1.6994 -0.071,0.5214 -0.1593,0.9441 -0.2716,1.2693 -0.0175,0.2474 -0.0434,0.6387 -0.0869,1.1621 -0.0356,0.5288 -0.0806,1.1203 -0.1337,1.7811 -0.0521,0.6673 -0.1051,1.3281 -0.1506,1.9943 -0.053,0.6608 -0.0915,1.2512 -0.1271,1.7799 -0.0369,0.5222 -0.0563,0.9125 -0.0672,1.1586l-0.2368 0.0417c-0.0868,0.0086 -0.2366,-0.1483 -0.4339,-0.4595 -0.2052,-0.3167 -0.4522,-0.7549 -0.7409,-1.3147 -0.2874,-0.5533 -0.6032,-1.1896 -0.946,-1.9028 -0.343,-0.7131 -0.6928,-1.4657 -1.0617,-2.2488 -0.37,-0.7897 -0.7321,-1.5741 -1.0931,-2.3518 -0.36,-0.7712 -0.7064,-1.5041 -1.0302,-2.1864 -0.2264,-0.2452 -0.4609,-0.4211 -0.7091,-0.5198 -0.2548,-0.0976 -0.523,-0.1181 -0.8192,-0.0659 -0.384,0.0541 -0.6879,0.2164 -0.9008,0.471 -0.213,0.2548 -0.2761,0.6661 -0.1841,1.2267zm17.8133 3.9631c0.0236,0.9619 0.1993,1.8344 0.527,2.6173 0.3277,0.7764 0.7738,1.4436 1.3316,2.002 0.5644,0.5515 1.2,0.9749 1.9136,1.2699 0.7201,0.2881 1.4778,0.4286 2.273,0.4214 0.9287,-0.0229 1.8606,-0.2329 2.796,-0.6369 0.9287,-0.3972 1.8148,-0.9474 2.6582,-1.6372 0.8367,-0.6896 1.5847,-1.4846 2.2374,-2.3849 0.6527,-0.8936 1.1642,-1.845 1.5274,-2.8604 0.3701,-1.0091 0.5527,-2.0349 0.5411,-3.0772 -0.0254,-1.0757 -0.2101,-2.0817 -0.5604,-3.0112 -0.3505,-0.9363 -0.8463,-1.7631 -1.4737,-2.4873 -0.6275,-0.7176 -1.3659,-1.2928 -2.2224,-1.7256 -0.0537,-0.0124 -0.1676,-0.0304 -0.3355,-0.0744 -0.1677,-0.0372 -0.3556,-0.0806 -0.5571,-0.1373 -0.2015,-0.0566 -0.3762,-0.1138 -0.5311,-0.1779 -0.1547,-0.0574 -0.2428,-0.1227 -0.2705,-0.1824 0.0725,-0.0613 0.1452,-0.1027 0.2049,-0.1306 0.0598,-0.0211 0.1398,-0.0357 0.2334,-0.0374 0.2271,0.0027 0.4484,0.039 0.677,0.1151 0.2217,0.0697 0.4436,0.146 0.6721,0.2155 0.2286,0.0762 0.4631,0.1123 0.7037,0.1147 0.147,-0.0092 0.2461,-0.0711 0.3041,-0.1857 0.0649,-0.1148 0.1027,-0.2492 0.1133,-0.4029 0.0107,-0.154 0.0083,-0.2944 0.0061,-0.4213l-0.0014 -0.0802c-0.0141,-0.4275 -0.1139,-0.7799 -0.3058,-1.0573 -0.1921,-0.284 -0.4432,-0.5002 -0.7401,-0.6554 -0.3034,-0.1551 -0.626,-0.2631 -0.9679,-0.324 -0.342,-0.0609 -0.6764,-0.0818 -0.9906,-0.0763 -0.7615,0.02 -1.4736,0.1928 -2.1364,0.5119 -0.6628,0.319 -1.2835,0.7509 -1.8488,1.2953 -0.5654,0.5446 -1.0893,1.1553 -1.5585,1.8385 -0.476,0.6833 -0.9047,1.3993 -1.2859,2.1478 -0.3814,0.742 -0.7161,1.4763 -1.0109,2.2032l-0.2702 0.6063c-0.276,0.6463 -0.5382,1.3259 -0.7932,2.0322 -0.2551,0.7061 -0.4698,1.4252 -0.6305,2.1632 -0.161,0.738 -0.235,1.4744 -0.229,2.2095zm2.7325 0.3132c-0.008,-0.8421 0.0977,-1.6726 0.3241,-2.4919 0.2196,-0.8193 0.513,-1.6198 0.8738,-2.4014 0.3605,-0.7816 0.7415,-1.5434 1.1497,-2.2857 0.4013,-0.7422 0.7833,-1.4573 1.1388,-2.1452 0.2716,-0.526 0.5063,-0.8576 0.7042,-1.0081 0.1979,-0.1506 0.3712,-0.1804 0.5197,-0.0893 0.1421,0.0978 0.2783,0.2424 0.402,0.4341 0.1171,0.1984 0.2339,0.3835 0.3439,0.5554 0.1098,0.1718 0.2317,0.2566 0.3588,0.2676 0.2004,-0.0101 0.4003,-0.0471 0.6063,-0.1108 0.1994,-0.0635 0.4126,-0.1006 0.633,-0.1111 0.4746,-0.0016 0.9249,0.1441 1.3442,0.4243 0.4192,0.2866 0.7868,0.6613 1.1156,1.1233 0.3222,0.4623 0.5782,0.959 0.7679,1.4904 0.1898,0.5381 0.2924,1.051 0.3011,1.552 0.0062,0.7418 -0.1543,1.4931 -0.4753,2.254 -0.3143,0.7539 -0.7495,1.4766 -1.2922,2.168 -0.5494,0.6846 -1.1535,1.3033 -1.8189,1.8495 -0.6723,0.5398 -1.3531,0.9728 -2.0427,1.2923 -0.6962,0.3263 -1.3549,0.4914 -1.9695,0.5088 -0.5947,0.0038 -1.1049,-0.1277 -1.5509,-0.4007 -0.4391,-0.2728 -0.7867,-0.6545 -1.0358,-1.1447 -0.2492,-0.497 -0.3795,-1.0695 -0.3978,-1.7308zm26.3912 1.5735c-0.0872,1.4571 0.0859,2.7837 0.5089,3.9643 0.4228,1.1807 1.0575,2.1611 1.8996,2.927 0.8486,0.7671 1.8602,1.2644 3.037,1.4788 0.3884,0.0685 0.8207,0.1175 1.2995,0.1341 0.4854,0.0178 0.9791,-0.0106 1.4807,-0.0851 0.5016,-0.0743 0.9755,-0.2214 1.4215,-0.4413 0.4458,-0.22 0.8266,-0.5328 1.1425,-0.9385 0.3093,-0.407 0.5163,-0.9269 0.6224,-1.5665 0.0002,-0.0406 -0.0346,-0.0739 -0.1034,-0.1064 -0.0767,-0.0269 -0.1601,-0.0552 -0.2587,-0.0726 -0.0975,-0.024 -0.1765,-0.0379 -0.249,-0.0507 -0.4223,-0.0677 -0.8527,-0.0894 -1.2859,-0.0571 -0.4332,0.0322 -0.8698,0.084 -1.3022,0.1504 -0.4389,0.065 -0.8821,0.1158 -1.3219,0.1468 -0.4465,0.0299 -0.89,0.0059 -1.3321,-0.0651 -0.8016,-0.1483 -1.4352,-0.4431 -1.8869,-0.8824 -0.4584,-0.4405 -0.7751,-0.9917 -0.9514,-1.647 -0.1839,-0.6499 -0.2596,-1.3758 -0.2344,-2.1722 0.0173,-0.7907 0.1085,-1.6161 0.266,-2.4703 0.0743,-0.4214 0.2011,-0.9485 0.3717,-1.5699 0.1773,-0.6202 0.3889,-1.2818 0.6493,-1.989 0.2527,-0.7019 0.5448,-1.3969 0.8622,-2.0805 0.3228,-0.6759 0.6691,-1.2935 1.0356,-1.8327 0.3744,-0.5447 0.7606,-0.9651 1.1589,-1.2613 0.4049,-0.2951 0.8125,-0.4133 1.2282,-0.3466 0.2686,0.0541 0.4704,0.2186 0.6063,0.4868 0.1293,0.2672 0.2263,0.6031 0.2905,1.0079 0.0565,0.4105 0.115,0.8482 0.1667,1.3255 0.0527,0.4707 0.1394,0.9407 0.2548,1.4022 0.1077,0.4667 0.2838,0.8914 0.5221,1.2726 0.1041,0.1406 0.2569,0.2354 0.452,0.2834 0.2007,0.0557 0.4104,0.0587 0.6349,0.0169 0.2191,-0.0496 0.4123,-0.1444 0.5807,-0.2912 0.082,-0.0805 0.1664,-0.1743 0.262,-0.293 0.0879,-0.1136 0.1436,-0.1987 0.1583,-0.2435 0.0291,-1.5896 -0.0771,-2.9111 -0.3156,-3.9439 -0.2375,-1.0394 -0.5473,-1.8607 -0.9306,-2.4577 -0.3844,-0.5903 -0.7825,-1.0268 -1.191,-1.2888 -0.4149,-0.2631 -0.7738,-0.4215 -1.092,-0.464 -0.8382,-0.1341 -1.6027,-0.0315 -2.2936,0.308 -0.691,0.3397 -1.3176,0.8534 -1.8734,1.5425 -0.5546,0.6826 -1.0477,1.4778 -1.4769,2.3725 -0.4369,0.9001 -0.8127,1.8381 -1.1327,2.8063 -0.3276,0.9736 -0.5969,1.9235 -0.8264,2.84 -0.2229,0.9173 -0.4008,1.7342 -0.5427,2.4623 -0.142,0.7282 -0.2407,1.2876 -0.3115,1.689z"/>
   <path id="_722107440" class="fil5 str0" d="M140.074 36.2869c-0.0429,0.2375 -0.0303,0.4485 0.0508,0.6363 0.081,0.1878 0.192,0.342 0.3455,0.4663 0.1535,0.124 0.311,0.2078 0.4853,0.2544 0.4952,0.1397 0.8814,0.1186 1.152,-0.0649 0.2704,-0.1835 0.4711,-0.5448 0.6082,-1.0823 0.1387,-0.544 0.2291,-1.0871 0.2787,-1.6341 0.0415,-0.5424 0.0897,-1.0829 0.1277,-1.6123 0.0462,-0.5343 0.1296,-1.0515 0.2579,-1.5568 0.0602,-0.1983 0.1581,-0.3313 0.3018,-0.4034 0.1438,-0.072 0.3115,-0.1033 0.4913,-0.1035 0.1847,0.0079 0.3594,0.0271 0.5372,0.0609 0.1729,0.0256 0.3203,0.0443 0.4368,0.048 0.146,-0.0025 0.3891,-0.0065 0.7168,-0.0157 0.3275,-0.0091 0.7021,-0.0124 1.1204,-0.0248 0.4249,-0.0107 0.8416,-0.0167 1.26,-0.0291 0.4266,-0.0172 0.8029,-0.027 1.1387,-0.0407 0.3358,-0.0139 0.5824,-0.0308 0.7465,-0.0491l0.697 0.1867 -1.3616 6.9409c-0.0049,0.0955 0.0359,0.1757 0.1224,0.2404 0.0864,0.0647 0.191,0.1134 0.3054,0.1509 0.1128,0.0441 0.2031,0.0683 0.2741,0.0873l0.0387 0.0104c0.3275,0.0947 0.603,0.0993 0.8165,0.0249 0.2153,-0.0805 0.3969,-0.2671 0.5508,-0.5579 0.1477,-0.2925 0.3024,-0.7147 0.4428,-1.265 0.23,-0.8586 0.4575,-1.7592 0.6808,-2.6956 0.2214,-0.9299 0.4379,-1.8405 0.6489,-2.7318 0.2112,-0.8911 0.4161,-1.708 0.6116,-2.4374 0.0242,-0.0904 0.0855,-0.2676 0.1677,-0.5223 0.0902,-0.2595 0.1974,-0.556 0.3265,-0.9087 0.1209,-0.3481 0.2518,-0.7075 0.3843,-1.0731 0.1344,-0.3722 0.2536,-0.7139 0.3723,-1.028 0.1107,-0.3094 0.2056,-0.5607 0.2704,-0.7508 0.0683,-0.2031 0.1818,-0.4979 0.3389,-0.8778 0.1573,-0.3798 0.3364,-0.8161 0.5423,-1.3006 0.2076,-0.4908 0.4187,-0.9948 0.635,-1.5179 0.2228,-0.5214 0.4356,-1.0317 0.6351,-1.5179 0.2058,-0.4843 0.3768,-0.916 0.521,-1.2994 0.149,-0.3752 0.2479,-0.6668 0.3015,-0.867 0.0813,-0.3033 0.101,-0.6094 0.0739,-0.9211 -0.0336,-0.3133 -0.1263,-0.5872 -0.2779,-0.8215 -0.1518,-0.2344 -0.371,-0.3969 -0.6534,-0.4796 -0.2646,-0.0708 -0.4978,-0.0781 -0.6952,-0.0133 -0.2036,0.0631 -0.4181,0.1924 -0.6534,0.3992 -0.1851,0.407 -0.3962,0.9108 -0.638,1.5032 -0.2353,0.5942 -0.4862,1.2465 -0.7526,1.9569 -0.2648,0.7039 -0.5364,1.4336 -0.8068,2.1844 -0.2687,0.7444 -0.5272,1.4776 -0.7809,2.1914 -0.2487,0.722 -0.4738,1.3812 -0.6786,1.9905 -0.2047,0.6093 -0.3771,1.1235 -0.5124,1.5508l-0.2172 0.1908c-0.3158,0.2751 -0.623,0.5179 -0.9215,0.7285 -0.2969,0.2041 -0.622,0.3592 -0.9804,0.4568 -0.3663,0.1025 -0.7947,0.1262 -1.2995,0.0738 -0.2726,0.0099 -0.6212,0.0203 -1.0379,0.0264 -0.4149,-0.0006 -0.8383,0.0037 -1.266,-0.0003 -0.4278,-0.0039 -0.7942,-0.0052 -1.1019,-0.0185 -0.3031,-0.0051 -0.4812,-0.0113 -0.533,-0.0252l-0.9682 -0.2594c-0.0241,-0.0134 -0.0537,-0.0836 -0.0841,-0.2025 -0.0351,-0.127 -0.0345,-0.2583 -0.0029,-0.402l2.5294 -11.609 0.083 -0.3098c0.0951,-0.3551 0.1253,-0.6999 0.0904,-1.0343 -0.0349,-0.3345 -0.1434,-0.6264 -0.3192,-0.8742 -0.1694,-0.246 -0.4209,-0.4172 -0.7421,-0.5101 -0.0838,-0.0224 -0.2163,-0.0442 -0.3992,-0.0585 -0.1765,-0.0129 -0.347,0.0037 -0.5097,0.0431 -0.1693,0.0377 -0.2761,0.1268 -0.3207,0.267l-0.2905 1.0843 -2.448 12.5442c-0.0103,0.0387 -0.0194,0.0985 -0.0237,0.1665 -0.0046,0.0681 -0.0153,0.1343 -0.0309,0.1925 -0.0618,0.2047 -0.1679,0.3423 -0.3135,0.421 -0.1456,0.0785 -0.3135,0.1373 -0.4909,0.1798 -0.1775,0.0424 -0.3471,0.1076 -0.4996,0.212 -0.1508,0.098 -0.2672,0.2743 -0.3429,0.5308 -0.0938,0.3761 -0.1135,0.6821 -0.0592,0.918 0.0609,0.2377 0.1614,0.4307 0.3062,0.5871 0.1403,0.1483 0.295,0.2935 0.455,0.4194 0.1682,0.1212 0.3035,0.2612 0.4209,0.4171 0.1126,0.1479 0.1709,0.3434 0.1702,0.5784 -0.0097,0.5785 -0.0716,1.1708 -0.1709,1.7736 -0.1057,0.6013 -0.2279,1.2121 -0.3757,1.8158 -0.0467,0.1742 -0.0917,0.3421 -0.1415,0.5017 -0.0432,0.1614 -0.101,0.3258 -0.167,0.4948zm14.5031 1.4962c-0.0778,0.2779 -0.1127,0.5364 -0.1117,0.7946 0.0037,0.2518 0.0612,0.4745 0.1733,0.6678 0.1095,0.1995 0.2914,0.3409 0.5385,0.4429 0.2255,0.065 0.4554,0.0817 0.6895,0.05 0.2428,-0.0357 0.4408,-0.1602 0.5942,-0.3733 0.9379,-2.2382 1.8329,-4.2711 2.6846,-6.0986 0.8557,-1.819 1.69,-3.4887 2.5041,-4.9944 0.8079,-1.5079 1.6173,-2.9078 2.4259,-4.1938 0.8022,-1.2882 1.6252,-2.5184 2.4627,-3.693 0.1077,-0.2807 0.1852,-0.5945 0.2253,-0.9227 0.0425,-0.3344 0.0096,-0.6404 -0.0897,-0.9222 -0.0996,-0.2815 -0.2998,-0.4872 -0.6093,-0.6131 -0.3393,-0.1231 -0.6766,-0.1022 -1.0119,0.0626 -0.3353,0.1647 -0.6619,0.4187 -0.9821,0.7682 -0.3179,0.3433 -0.6077,0.7258 -0.8762,1.1453 -0.277,0.4234 -0.5195,0.8313 -0.7275,1.224 -0.208,0.3926 -0.3772,0.7213 -0.4989,0.9824l-0.0718 0.1871c-0.3008,0.5788 -0.6613,1.2565 -1.0724,2.0292 -0.4174,0.7703 -0.8515,1.5844 -1.311,2.4458 -0.4596,0.8615 -0.9081,1.7129 -1.3481,2.5606 -0.4398,0.8474 -0.8346,1.6335 -1.1868,2.3645 -0.3545,0.7372 -0.6301,1.3616 -0.8288,1.8794 -0.1102,0.287 -0.2475,0.6637 -0.4209,1.1339 -0.1735,0.4704 -0.3673,0.9756 -0.567,1.5147 -0.2021,0.545 -0.3924,1.059 -0.584,1.5581zm8.1326 0.564c-0.1821,0.3722 -0.2297,0.7305 -0.1486,1.0718 0.081,0.3413 0.2432,0.6413 0.4833,0.9063 0.2311,0.2676 0.4955,0.4698 0.7754,0.6124 0.3186,0.1549 0.6172,0.1871 0.8929,0.0875 0.2726,-0.0936 0.519,-0.2679 0.7451,-0.5203 0.2231,-0.2463 0.4254,-0.5257 0.604,-0.8322 0.1758,-0.3155 0.3334,-0.5951 0.4639,-0.8663 0.622,-1.2354 1.2231,-2.4741 1.8064,-3.7219 0.5833,-1.2478 1.1876,-2.4925 1.8187,-3.7459 0.012,-0.0238 0.0481,-0.0504 0.0932,-0.0799 0.0481,-0.0355 0.084,-0.0472 0.1048,-0.044 0.0268,0.0211 0.0741,0.1051 0.1446,0.2611 0.0705,0.1559 0.1408,0.3417 0.217,0.5455 0.0821,0.2069 0.1464,0.3897 0.202,0.5604l3.1559 11.8229c0.0317,0.1586 0.0725,0.2845 0.1258,0.3567 0.0502,0.0779 0.1184,0.1353 0.2077,0.1808 0.0835,0.0425 0.2025,0.1031 0.3425,0.167 0.253,0.1364 0.5182,0.2341 0.7959,0.278 0.2804,0.0528 0.5618,0.0013 0.8529,-0.1579 0.1365,-0.2679 0.3092,-0.5923 0.5274,-0.9763 0.2092,-0.3809 0.4333,-0.7766 0.6696,-1.1963 0.2332,-0.4137 0.4513,-0.7974 0.6482,-1.1546 0.2029,-0.3541 0.3546,-0.6369 0.4638,-0.8512l6.4591 -9.939c0.2925,-0.3383 0.5277,-0.6236 0.7178,-0.864 0.1871,-0.2348 0.3503,-0.4667 0.4895,-0.6957 0.1451,-0.226 0.2877,-0.491 0.4423,-0.7945 0.1244,-0.2442 0.2222,-0.5243 0.2932,-0.8258 0.065,-0.3043 0.0731,-0.5851 0.0125,-0.8487 -0.0519,-0.2663 -0.2027,-0.4707 -0.4498,-0.604 -0.3721,-0.1822 -0.7217,-0.1878 -1.0517,-0.026 -0.3242,0.1649 -0.6399,0.4464 -0.9389,0.8417 -0.2989,0.3952 -0.598,0.8352 -0.8919,1.3381 -0.2935,0.5028 -0.5992,0.9996 -0.9107,1.4933 -0.0213,0.0418 -0.0665,0.1012 -0.136,0.1932 -0.0665,0.0862 -0.1268,0.1754 -0.1934,0.2616 -0.0663,0.0862 -0.1085,0.1397 -0.1237,0.1695l-5.9493 8.9384c-0.0724,0.0831 -0.1689,0.1841 -0.2923,0.3087 -0.1235,0.1245 -0.2378,0.2163 -0.337,0.2784 -0.096,0.0709 -0.1467,0.0525 -0.146,-0.0371l-4.3831 -15.5082 -1.3218 -0.6735c-0.1222,-0.0548 -0.2597,-0.0498 -0.4185,0.0118 -0.1529,0.0646 -0.2971,0.1561 -0.4266,0.2778 -0.1354,0.1184 -0.2319,0.2343 -0.2895,0.3473 -0.1002,0.2115 -0.1524,0.4024 -0.1598,0.5787 -0.0014,0.1792 0.0121,0.3735 0.0376,0.574 0.0253,0.2005 0.0235,0.4395 0.0004,0.7203 -0.0171,0.2837 -0.0974,0.6328 -0.241,1.0471 -0.0671,0.1759 -0.2041,0.5036 -0.4109,0.9831 -0.201,0.4827 -0.4564,1.0575 -0.7453,1.7279 -0.2951,0.6672 -0.6083,1.3699 -0.9336,2.1118 -0.3314,0.7386 -0.6506,1.4534 -0.9637,2.1414 -0.3071,0.6911 -0.5835,1.2927 -0.8265,1.8137 -0.24,0.5152 -0.4164,0.8905 -0.5346,1.1227 -0.1418,0.1753 -0.3041,0.2876 -0.4808,0.3401 -0.1767,0.0523 -0.3416,0.111 -0.5033,0.1634 -0.1617,0.0526 -0.2911,0.1593 -0.3851,0.3289zm19.2895 7.2609c-0.4802,0.6255 -0.947,1.3208 -1.4017,2.0764 -0.4536,0.7651 -0.8651,1.563 -1.2197,2.3968 -0.364,0.8349 -0.6414,1.6784 -0.8413,2.5313 -0.2,0.8529 -0.2885,1.6826 -0.2657,2.4892 0.0271,0.8012 0.1964,1.5612 0.5156,2.2599 0.3148,0.7041 0.8094,1.3193 1.4846,1.8553 0.4201,0.3198 0.8826,0.5962 1.3955,0.8188 0.5181,0.2269 1.0505,0.4138 1.6011,0.5557 0.246,0.065 0.6256,0.1326 1.1255,0.2093 0.4956,0.082 1.0757,0.1536 1.7214,0.2171 0.651,0.0677 1.3267,0.1037 2.0199,0.1281 0.7028,0.0232 1.3717,0.003 2.0181,-0.0431 0.6414,-0.05 1.2047,-0.1526 1.6957,-0.3033 0.4856,-0.1549 0.8494,-0.3709 1.0769,-0.6512 0.3485,-0.457 0.5529,-0.9248 0.6132,-1.4035 0.0602,-0.4788 0.0162,-0.9541 -0.1281,-1.4316 -0.1538,-0.4762 -0.3667,-0.9308 -0.6453,-1.3775 -0.2775,-0.4373 -0.5848,-0.847 -0.921,-1.22 -0.3269,-0.3741 -0.6531,-0.7052 -0.9591,-0.9867 -0.3059,-0.2814 -0.5663,-0.5017 -0.7717,-0.6622 -0.2748,-0.2232 -0.5703,-0.4202 -0.8812,-0.5868 -0.311,-0.1666 -0.6197,-0.2383 -0.9315,-0.2189 -0.3119,0.0192 -0.6041,0.1978 -0.8768,0.5361 -0.2098,0.2685 -0.3523,0.5812 -0.4392,0.9204 -0.0817,0.3432 -0.0935,0.6732 -0.0303,0.9939 0.0674,0.3154 0.2186,0.5778 0.4567,0.7723 0.2147,0.1593 0.4372,0.2653 0.6686,0.3274 0.2355,0.0567 0.4667,0.1188 0.6971,0.1714 0.2314,0.0622 0.4433,0.1599 0.6474,0.3109 0.1054,0.0823 0.2551,0.2163 0.4587,0.4007 0.1942,0.1856 0.3906,0.3901 0.58,0.6144 0.1894,0.2242 0.3192,0.4274 0.3903,0.6186 0.0751,0.1859 0.0297,0.32 -0.1216,0.4053 -0.6961,0.1853 -1.4338,0.3045 -2.1981,0.3604 -0.7656,0.0463 -1.5339,0.0311 -2.2875,-0.0572 -0.7576,-0.0833 -1.4775,-0.2471 -2.1439,-0.4795 -0.6719,-0.2365 -1.2579,-0.5502 -1.7623,-0.9357 -0.6488,-0.5154 -1.1,-1.0885 -1.343,-1.7109 -0.2431,-0.6223 -0.3278,-1.2737 -0.2595,-1.958 0.0724,-0.6896 0.2585,-1.3839 0.5572,-2.0918 0.2987,-0.7079 0.6748,-1.4062 1.1135,-2.098 0.444,-0.6879 0.9102,-1.3496 1.4093,-1.9775 1.1971,-1.5323 2.5311,-2.8816 3.9965,-4.0518 1.4655,-1.17 3.0325,-2.1337 4.701,-2.8909 1.6633,-0.7612 3.3981,-1.2884 5.1939,-1.5898 0.1407,-0.0174 0.2971,-0.0222 0.483,-0.0212 0.1816,0.0063 0.3603,0.0271 0.5309,0.0586 0.1758,0.0356 0.3057,0.0861 0.4099,0.1591 0.155,0.1381 0.202,0.3274 0.1318,0.5694 -0.065,0.246 -0.1904,0.5042 -0.3762,0.7746 -0.1846,0.2798 -0.377,0.5367 -0.5673,0.7695 -0.1957,0.2287 -0.3407,0.4036 -0.4354,0.5247l-0.5678 0.7267 -4.6832 4.4313c-0.0041,0.0053 -0.0259,0.0221 -0.0693,0.0561 -0.0475,0.0392 -0.0816,0.0719 -0.1103,0.1088 -0.1224,0.1673 -0.1931,0.3663 -0.2217,0.5984 -0.0234,0.2362 -0.0093,0.4678 0.0559,0.6882 0.0598,0.2165 0.1609,0.3801 0.299,0.4965 0.2831,0.2128 0.5608,0.3026 0.8182,0.2662 0.2668,-0.0375 0.5243,-0.1502 0.7766,-0.3431 0.2484,-0.1875 0.4986,-0.3991 0.7452,-0.6389 0.4997,-0.466 0.9985,-0.9415 1.4918,-1.4209 0.4882,-0.4836 0.9822,-0.9966 1.4768,-1.543 0.4959,-0.537 0.9983,-1.1366 1.5043,-1.7842 0.3044,-0.3898 0.6148,-0.8086 0.93,-1.2664 0.3112,-0.4523 0.5864,-0.9241 0.8218,-1.4101 0.2356,-0.4858 0.4002,-0.9678 0.4897,-1.4406 0.0884,-0.4821 0.0612,-0.9359 -0.0732,-1.3717 -0.1438,-0.4346 -0.4301,-0.8279 -0.8736,-1.1828 -0.4412,-0.3363 -0.9706,-0.5378 -1.6082,-0.6119 -0.6281,-0.0753 -1.3238,-0.0423 -2.079,0.0886 -0.7551,0.1308 -1.5399,0.3319 -2.3528,0.6126 -0.8141,0.2713 -1.6212,0.599 -2.4279,0.9694 -0.8026,0.3652 -1.5694,0.7498 -2.2965,1.1484 -0.7312,0.4039 -1.3832,0.7935 -1.9694,1.1749 -0.5823,0.3763 -1.0596,0.7157 -1.4371,1.0143 -0.8365,0.6694 -1.6383,1.3914 -2.407,2.1475 -0.7689,0.7563 -1.4746,1.5618 -2.1182,2.4072zm10.5992 17.7887c-0.0753,0.2493 -0.1176,0.5036 -0.1127,0.7685 0.0048,0.2647 0.0431,0.5063 0.1194,0.7392 0.0763,0.2329 0.1817,0.4192 0.3256,0.5682 0.2603,0.2502 0.5329,0.34 0.8365,0.2697 0.2991,-0.0751 0.5904,-0.2449 0.8692,-0.5236 0.3031,-0.3018 0.5875,-0.6229 0.844,-0.9635 0.2659,-0.3404 0.5271,-0.6854 0.8026,-1.0351 0.266,-0.3499 0.5697,-0.6896 0.9016,-1.0193 0.1439,-0.1298 0.2727,-0.1985 0.3814,-0.1919 0.1134,0.002 0.2262,0.0324 0.3291,0.0908 0.1076,0.0633 0.2156,0.1078 0.3377,0.1477 0.7371,0.2822 1.4417,0.5309 2.1233,0.7459 0.6766,0.2199 1.3533,0.4396 2.0204,0.6687 0.6765,0.2292 1.3665,0.5012 2.084,0.8208 0.088,0.1007 0.0943,0.2805 0.0097,0.52 -0.0798,0.2444 -0.2124,0.5304 -0.4021,0.8438 -0.1853,0.318 -0.3894,0.6452 -0.6171,0.9674 -0.2279,0.3316 -0.4458,0.6256 -0.6489,0.896 -0.2032,0.2706 -0.3627,0.4711 -0.4788,0.6203 -0.1691,0.2097 -0.3473,0.4097 -0.5494,0.6047 -0.1972,0.1998 -0.3706,0.3953 -0.5111,0.5866 -0.1451,0.1959 -0.2196,0.3979 -0.2327,0.6055 -0.0036,0.2079 0.1013,0.4224 0.3148,0.653 0.3436,0.3463 0.7247,0.4427 1.1338,0.2892 0.414,-0.1582 0.8733,-0.4809 1.3735,-0.9826 0.4182,-0.4039 0.8089,-0.8555 1.1862,-1.3499 0.3774,-0.5039 0.7267,-1.027 1.0482,-1.5696 0.3214,-0.5426 0.6001,-1.0813 0.8506,-1.6203l4.6212 -9.7021c0.3384,-0.7077 0.5874,-1.4312 0.7513,-2.1562 0.1639,-0.7249 0.2467,-1.4181 0.249,-2.0797 -0.0026,-0.6665 -0.0727,-1.2583 -0.2194,-1.7855 -0.1515,-0.5226 -0.3712,-0.9328 -0.6543,-1.2355 -0.0788,-0.0816 -0.1857,-0.1828 -0.3254,-0.3081 -0.1396,-0.1254 -0.2511,-0.2312 -0.344,-0.3274 -0.5011,0.0101 -1.0376,0.1473 -1.614,0.4067 -0.5668,0.2594 -1.1493,0.599 -1.7332,1.0141 -0.5885,0.4198 -1.1633,0.8635 -1.7198,1.3358 -0.5566,0.4723 -1.075,0.9359 -1.5552,1.3718 -0.4756,0.4406 -0.8885,0.8115 -1.239,1.122 -0.6584,0.6359 -1.2927,1.2299 -1.8978,1.7864 -0.61,0.5612 -1.2104,1.113 -1.8107,1.6555 -0.6002,0.5425 -1.2149,1.1083 -1.8537,1.6973 -0.6389,0.589 -1.3212,1.2293 -2.0471,1.9304 -0.3221,0.311 -0.6633,0.6405 -1.0192,0.9936 -0.3558,0.3528 -0.7025,0.7154 -1.0396,1.0781 -0.3371,0.3628 -0.6316,0.7122 -0.8879,1.0526zm7.6433 -4.1482c0.2645,-0.2553 0.5338,-0.5248 0.8034,-0.8035 0.2694,-0.279 0.5197,-0.5393 0.7509,-0.781 0.231,-0.2417 0.4138,-0.4276 0.5532,-0.5621 0.6297,-0.6081 1.2879,-1.2253 1.9748,-1.8607 0.6821,-0.6309 1.3541,-1.2241 2.0114,-1.7844 0.6477,-0.5606 1.2516,-1.0415 1.7926,-1.4432 0.541,-0.4017 0.9854,-0.6728 1.3329,-0.8227 0.3476,-0.1499 0.5507,-0.1322 0.6181,0.0628 -0.012,0.4204 -0.0626,0.878 -0.1609,1.363 -0.0982,0.485 -0.2247,0.9602 -0.3841,1.4299 -0.1597,0.4792 -0.3279,0.9112 -0.5189,1.3001l-2.8601 6.2734c-0.0835,0.1829 -0.171,0.3231 -0.2625,0.4208 -0.0866,0.093 -0.202,0.2044 -0.3462,0.3342 -0.3077,-0.2322 -0.6534,-0.4651 -1.0324,-0.6844 -0.3787,-0.2288 -0.7722,-0.4341 -1.1846,-0.6304 -0.2572,-0.1604 -0.5521,-0.3214 -0.8895,-0.4786 -0.3328,-0.1617 -0.6564,-0.3044 -0.9802,-0.4377 -0.3189,-0.1379 -0.5912,-0.2466 -0.8117,-0.3402 -0.2205,-0.0938 -0.3469,-0.1573 -0.3843,-0.1864 -0.0373,-0.0289 -0.0601,-0.0719 -0.0826,-0.1337 -0.0274,-0.0571 -0.0024,-0.1371 0.0607,-0.2352z"/>
   <path id="_722107368" class="fil6" d="M109.168 123.322c-13.6633,3.2349 -3.6234,3.9954 -21.5118,1.35 -0.1868,-5.6939 0.6421,-10.6027 2.7634,-14.9561 1.7367,-3.5644 5.1077,-8.5012 8.1498,-9.6863 4.37,-1.7023 13.4574,12.1866 10.5986,23.2924z"/>
   <path id="_722107512" class="fil6" d="M88.6479 129.811c10.188,1.8659 7.7518,1.687 19.2412,-1.8939 -0.7934,4.068 -5.1969,8.9623 -8.9427,10.1883 -5.0966,1.6683 -9.5187,-4.3586 -10.2985,-8.2944z"/>
  </g>
 </g>
</svg>
