<?xml version="1.0" encoding="UTF-8"?>
<!DOCTYPE svg PUBLIC "-//W3C//DTD SVG 1.1//EN" "http://www.w3.org/Graphics/SVG/1.1/DTD/svg11.dtd">
<!-- Creator: CorelDRAW -->
<svg xmlns="http://www.w3.org/2000/svg" xml:space="preserve" width="215.9mm" height="279.4mm" style="shape-rendering:geometricPrecision; text-rendering:geometricPrecision; image-rendering:optimizeQuality; fill-rule:evenodd; clip-rule:evenodd"
viewBox="0 0 215.9 279.4"
 xmlns:xlink="http://www.w3.org/1999/xlink">
 <defs>
  <style type="text/css">
   <![CDATA[
    .fil3 {fill:#050102}
    .fil2 {fill:#DA3136}
    .fil1 {fill:#E4840B}
    .fil0 {fill:#F0F1EC}
   ]]>
  </style>
 </defs>
 <g id="Capa_x0020_1">
  <metadata id="CorelCorpID_0Corel-Layer"/>
  <path id="_390564512" class="fil0" d="M93.8781 71.527c-0.1697,2.7753 1.2585,4.0361 4.0066,3.5408 4.0534,-2.8849 -0.2694,-7.7729 -4.0066,-3.5408z"/>
  <path id="_602346008" class="fil0" d="M59.237 71.9797c0.6565,7.1955 8.828,-2.0814 1.0635,-1.3295l-1.0635 1.3295z"/>
  <path id="_394061264" class="fil1" d="M78.3726 187.833c1.6902,1.9609 15.5711,6.7249 18.61,7.3511 7.238,1.4916 13.6347,-0.7689 18.1796,-6.6612 4.8173,-6.2454 5.5266,-12.9557 5.0767,-20.8444l-1.7298 -24.2618 -4.2138 3.8706c0.5907,-6.1354 10.6894,-16.4378 14.6023,-20.4384 3.1411,-3.2116 14.8232,-15.7811 16.2911,-19.2565 -1.641,0.0312 -6.8748,4.8038 -8.4831,6.3671 -6.211,6.0373 -18.1322,16.3393 -22.1491,23.3743 -2.4032,4.2088 -4.7143,11.1933 -3.1123,16.0697 2.7524,8.3777 9.3486,17.695 -0.7995,30.1776 -9.7378,11.9782 -25.8336,3.5567 -32.2721,4.2519z"/>
  <path id="_394049648" class="fil1" d="M11.85 161.748c0.8088,1.3061 3.8276,8.6737 6.0512,11.0463l9.7012 7.9287 1.7245 -8.8883c1.2824,6.7507 0.4164,4.1229 2.3061,6.2697 7.4749,8.4917 18.6964,6.8463 27.4561,6.6941 4.6602,-0.081 7.4569,0.4251 11.9234,1.0609 -2.1195,-1.8648 -8.2568,-1.4457 -9.9371,-2.365 -1.2596,-0.6891 -0.2599,-0.7736 -2.4412,-1.2957 -4.2094,-1.0077 -8.0491,-1.607 -12.1611,-3.1848 -12.4902,-4.7923 -15.3565,-11.7457 -18.5024,-12.573 0.3256,3.2158 0.699,7.7438 0.6594,10.9262l-2.3589 -1.3586 -11.1423 -15.0194c-2.3508,-2.3865 -1.5815,-2.9006 -2.8633,0.0377 -0.042,0.0964 -0.1639,0.4234 -0.1965,0.3581 -0.0338,-0.0678 -0.1362,0.2486 -0.2191,0.3631z"/>
  <path id="_394831680" class="fil1" d="M93.139 50.2045l4.1196 0.9877 10.8866 -9.8904c-0.1383,-1.8773 -0.5357,-4.637 -1.4898,-5.9989 -2.8296,2.7366 -4.0624,3.7659 -6.9413,7.2576 -1.7067,2.0701 -5.7128,5.2452 -6.5751,7.644z"/>
  <path id="_394050920" class="fil2" d="M103.086 106.083c2.4854,-2.0585 4.3318,-3.5294 7.2514,-5.2326 2.1654,-1.2634 6.3098,-3.2753 7.9364,-4.4217l-1.0067 -0.0872c-0.1651,-2.6584 -0.0381,-3.0871 -1.4872,-5.297 -2.2927,-3.4964 -2.4203,-1.9299 -2.8134,-3.6773 -3.0633,-0.7484 -3.9572,-2.5525 -8.193,-1.2245 -8.32,2.6086 -8.7573,13.748 -3.2043,18.3073 0.0826,0.0679 0.6843,0.503 0.7046,0.5226 0.7166,0.695 0.3326,0.1742 0.8122,1.1104z"/>
  <path id="_394815024" class="fil2" d="M46.5954 103.869c0.6201,-1.1744 2.6613,-2.0447 3.8475,-3.6868 2.4495,-3.3905 3.1486,-7.878 1.3459,-11.7916 -1.2955,-2.8124 -2.0392,-2.3627 -3.9632,-4.0727 -1.2193,-0.2573 -0.5645,0.373 -0.6397,-0.6903 -5.0427,4.6525 -4.3524,15.0023 -0.5905,20.2414z"/>
  <path id="_394831512" class="fil2" d="M72.5738 104.772c5.4833,-0.1255 9.2521,-9.8193 9.2408,-12.8427l-9.7158 3.8176c-3.3324,3.8378 -2.0275,6.075 0.475,9.0251z"/>
  <path id="_389379856" class="fil3" d="M79.8045 262.116c8.501,-0.6837 19.0377,-0.1164 27.7583,-0.1364l54.6878 -0.0049c8.1637,-0.0129 16.5142,1.3979 23.2699,-3.928 5.8983,-4.65 7.5705,-12.6914 4.3797,-19.4623 -3.7469,-7.9512 -10.1414,-9.073 -18.1202,-9.0595l-109.376 0.0078c-9.1145,0.0087 -18.2292,0.0033 -27.3439,0.0126 -6.822,0.0073 -19.927,-1.0959 -25.6496,1.5908 -15.1708,7.1227 -9.8144,29.7228 5.3403,30.7507 8.5817,0.5819 18.6051,0.0357 27.3524,0.0567 4.5568,0.0107 9.1162,0.0356 13.6721,0.0402 15.9335,0.0154 11.1661,-2.0902 20.3083,6.0429l3.7212 -5.9106zm-64.9247 -8.142c0.0986,0.1766 0.2183,0.3376 0.3688,0.4778 0.1507,0.1402 0.3065,0.2492 0.478,0.3325 0.1713,0.0831 0.3323,0.1246 0.4935,0.1246 0.2805,-0.0103 0.4778,-0.1142 0.6025,-0.322 0.1195,-0.2078 0.1819,-0.4624 0.1766,-0.7688 -0.0052,-0.3324 -0.0311,-0.665 -0.0831,-0.9922 -0.0467,-0.3324 -0.0987,-0.6649 -0.1455,-1.0078 -0.0519,-0.3376 -0.0778,-0.6907 -0.083,-1.0545 0.0052,-0.1505 0.0363,-0.2597 0.0986,-0.3168 0.0624,-0.0624 0.1403,-0.1091 0.2285,-0.1351 0.0936,-0.026 0.1767,-0.0624 0.265,-0.1091 0.5559,-0.2596 1.0754,-0.5194 1.5636,-0.7844 0.4883,-0.2596 0.9765,-0.5194 1.4648,-0.7687 0.4936,-0.2545 1.0182,-0.4935 1.5844,-0.722 0.104,0.0051 0.2078,0.0986 0.2961,0.2753 0.0935,0.1764 0.1818,0.405 0.2547,0.6803 0.0778,0.2755 0.1504,0.5664 0.2077,0.8676 0.0622,0.3065 0.1091,0.587 0.1507,0.8468 0.0414,0.2597 0.0674,0.457 0.0882,0.6025 0.026,0.2077 0.0415,0.4156 0.0414,0.6337 0.0054,0.2182 0.0207,0.4209 0.0521,0.6026 0.0312,0.187 0.1039,0.3376 0.213,0.457 0.1143,0.1146 0.2908,0.1715 0.535,0.1767 0.3792,-0.0052 0.639,-0.1662 0.774,-0.4778 0.1351,-0.3169 0.2027,-0.748 0.1923,-1.2987 -0.0001,-0.4519 -0.0417,-0.9143 -0.1143,-1.3921 -0.078,-0.4832 -0.1819,-0.961 -0.3118,-1.4338 -0.1299,-0.4727 -0.2804,-0.9194 -0.4467,-1.3507l-2.9298 -7.8229c-0.2128,-0.5714 -0.483,-1.1012 -0.7999,-1.5845 -0.3168,-0.483 -0.6598,-0.9038 -1.0285,-1.2622 -0.3741,-0.3584 -0.7428,-0.639 -1.1169,-0.8416 -0.374,-0.1972 -0.722,-0.2961 -1.0441,-0.3012 -0.0883,0 -0.2026,0.0051 -0.348,0.0156 -0.1455,0.0103 -0.2648,0.0155 -0.3689,0.0155 -0.2649,0.2858 -0.4778,0.6598 -0.644,1.122 -0.1612,0.4573 -0.2858,0.9664 -0.3689,1.5169 -0.0831,0.5559 -0.1454,1.1168 -0.1818,1.683 -0.0364,0.5664 -0.0572,1.1065 -0.0727,1.6104 -0.0104,0.5039 -0.0261,0.935 -0.0417,1.2986 0.0001,0.7117 -0.0103,1.387 -0.0258,2.026 -0.0156,0.6441 -0.0312,1.2779 -0.052,1.9064 -0.0208,0.6285 -0.0364,1.2779 -0.052,1.9532 -0.0156,0.6752 -0.0258,1.4026 -0.0259,2.1869 0.0001,0.348 0,0.7169 0.0051,1.1065 0.0052,0.3896 0.0208,0.7791 0.0416,1.1635 0.0208,0.3844 0.0571,0.7377 0.1091,1.065zm1.8078 -6.5141c0,-0.2857 -0.0053,-0.5818 -0.0156,-0.8832 -0.0106,-0.3012 -0.0207,-0.5817 -0.0313,-0.8414 -0.0102,-0.2598 -0.0154,-0.4623 -0.0154,-0.613 0,-0.6805 0.0102,-1.3817 0.0259,-2.1091 0.0156,-0.722 0.0467,-1.418 0.0883,-2.0881 0.0363,-0.665 0.0935,-1.2623 0.161,-1.7818 0.0676,-0.5195 0.1558,-0.9142 0.2598,-1.1896 0.1038,-0.2752 0.2234,-0.3792 0.3687,-0.3117 0.2286,0.2338 0.4573,0.5091 0.6753,0.826 0.2182,0.3169 0.4157,0.6441 0.5922,0.987 0.1819,0.3481 0.3326,0.6752 0.4468,0.9922l1.9635 4.9867c0.0572,0.1455 0.0884,0.2701 0.0936,0.374 0.0051,0.0988 0.0052,0.2235 0,0.3742 -0.2962,0.0467 -0.6131,0.1142 -0.9402,0.2077 -0.3325,0.0883 -0.6598,0.1974 -0.9923,0.322 -0.2285,0.0572 -0.4779,0.135 -0.7479,0.239 -0.2702,0.0987 -0.5248,0.2025 -0.774,0.3117 -0.2494,0.1039 -0.4571,0.1974 -0.6286,0.2701 -0.1714,0.0726 -0.2753,0.1091 -0.3119,0.1143 -0.0361,0.0052 -0.0725,-0.0052 -0.1193,-0.026 -0.0467,-0.0156 -0.0779,-0.0727 -0.0986,-0.161zm17.0798 1.0909c0.0051,0.6129 0.052,1.2623 0.135,1.9427 0.0883,0.6857 0.2182,1.3715 0.4,2.0519 0.1767,0.6858 0.4104,1.3351 0.6962,1.9532 0.2856,0.6182 0.6285,1.1688 1.0284,1.6519 0.4,0.4778 0.8676,0.8622 1.3974,1.1376 0.5298,0.2805 1.1273,0.4208 1.7972,0.426 0.4105,-0.0052 0.8262,-0.0572 1.2469,-0.1663 0.4259,-0.1091 0.8415,-0.2493 1.2467,-0.426 0.1816,-0.0778 0.4467,-0.2181 0.7895,-0.4104 0.343,-0.1869 0.7325,-0.4207 1.1584,-0.6908 0.4312,-0.2701 0.8623,-0.5715 1.2987,-0.8883 0.4415,-0.3221 0.8415,-0.6545 1.2153,-0.9921 0.369,-0.3377 0.6651,-0.6702 0.8936,-0.9973 0.2235,-0.3274 0.343,-0.6338 0.3482,-0.9143 -0.0052,-0.4468 -0.104,-0.8312 -0.2961,-1.1533 -0.1923,-0.3221 -0.4468,-0.5921 -0.7635,-0.8155 -0.3223,-0.2182 -0.6702,-0.3949 -1.0546,-0.535 -0.3792,-0.1351 -0.7637,-0.2391 -1.1481,-0.3066 -0.3792,-0.0726 -0.7376,-0.1194 -1.0596,-0.1454 -0.3221,-0.026 -0.5871,-0.0364 -0.7896,-0.0364 -0.2754,-0.0052 -0.5507,0.0156 -0.8208,0.0624 -0.2702,0.0466 -0.4935,0.1507 -0.6752,0.3116 -0.1819,0.1611 -0.2755,0.4104 -0.2806,0.7481 0,0.2648 0.0623,0.5246 0.1715,0.7739 0.1142,0.2494 0.2648,0.4572 0.457,0.6235 0.1922,0.161 0.4105,0.2493 0.6493,0.2544 0.2079,-0.0051 0.3949,-0.0467 0.5663,-0.1194 0.1714,-0.078 0.3429,-0.1506 0.5091,-0.2287 0.1714,-0.0726 0.348,-0.1142 0.5454,-0.1194 0.1038,0 0.2597,0.0105 0.4727,0.026 0.2078,0.0208 0.426,0.052 0.6493,0.0987 0.2234,0.0468 0.4,0.1091 0.5351,0.1922 0.135,0.078 0.1713,0.1818 0.1194,0.3065 -0.3376,0.4468 -0.7324,0.8726 -1.1739,1.2727 -0.4467,0.3947 -0.9247,0.7531 -1.4285,1.0597 -0.5039,0.3116 -1.0234,0.5559 -1.5427,0.7324 -0.5249,0.1767 -1.0338,0.265 -1.5273,0.2702 -0.6442,-0.0052 -1.1949,-0.1403 -1.6416,-0.4052 -0.4468,-0.265 -0.8104,-0.6234 -1.0961,-1.0753 -0.2856,-0.4572 -0.5038,-0.9715 -0.6596,-1.548 -0.1559,-0.5767 -0.2598,-1.1844 -0.3221,-1.8182 -0.0571,-0.6337 -0.0883,-1.2622 -0.0831,-1.8856 0,-1.5116 0.1714,-2.9765 0.5091,-4.3946 0.3376,-1.4181 0.8363,-2.7583 1.4959,-4.0207 0.6548,-1.2623 1.4649,-2.4153 2.4208,-3.4595 0.0779,-0.0781 0.1713,-0.1559 0.2857,-0.2442 0.1142,-0.0832 0.2338,-0.1558 0.3532,-0.2182 0.1249,-0.0624 0.2285,-0.0935 0.3273,-0.0987 0.161,0.0104 0.2805,0.1039 0.3532,0.2858 0.078,0.1818 0.1246,0.3999 0.1403,0.6545 0.0208,0.2597 0.0259,0.5091 0.0208,0.7428 -0.0105,0.2337 -0.0157,0.4103 -0.0157,0.5299l0 0.7168 -0.7479 4.9555c0,0.0053 -0.0053,0.0261 -0.0157,0.0676 -0.0104,0.0468 -0.0156,0.0832 -0.0156,0.1195 0.0052,0.1611 0.0572,0.317 0.1507,0.4727 0.0985,0.1559 0.2183,0.2909 0.3636,0.3949 0.1402,0.1039 0.2806,0.1557 0.4208,0.1609 0.2753,-0.0052 0.4883,-0.083 0.6285,-0.2285 0.1456,-0.1507 0.2494,-0.3428 0.3118,-0.5819 0.0623,-0.2336 0.1142,-0.4829 0.1507,-0.7478 0.083,-0.5248 0.1609,-1.0546 0.2337,-1.5845 0.0674,-0.5299 0.1247,-1.0804 0.1662,-1.6519 0.0468,-0.5661 0.0676,-1.1738 0.0676,-1.8128 0,-0.3846 -0.0105,-0.7896 -0.0365,-1.2207 -0.026,-0.426 -0.0831,-0.8468 -0.1715,-1.2572 -0.0883,-0.4104 -0.218,-0.7844 -0.3894,-1.1168 -0.1767,-0.3376 -0.4104,-0.6025 -0.7013,-0.8052 -0.2962,-0.1974 -0.6598,-0.3013 -1.1013,-0.3065 -0.4312,0.0052 -0.8521,0.1351 -1.2779,0.3949 -0.4207,0.2545 -0.8311,0.6077 -1.2311,1.0492 -0.4,0.4416 -0.7844,0.9403 -1.1482,1.5013 -0.3687,0.5557 -0.7063,1.1428 -1.0232,1.7558 -0.3169,0.6077 -0.6026,1.2103 -0.8571,1.8025 -0.2545,0.5974 -0.4675,1.148 -0.6442,1.6623 -0.1766,0.5091 -0.3065,0.9454 -0.3946,1.309 -0.1923,0.8103 -0.3377,1.6363 -0.4468,2.4673 -0.1091,0.8314 -0.1559,1.6624 -0.1455,2.4884zm14.9917 -7.3556c0.0052,0.1559 0.0103,0.3896 0.0208,0.7012 0.0103,0.3117 0.0208,0.6701 0.0364,1.0753 0.0104,0.4052 0.0259,0.8259 0.0414,1.2624 0.0156,0.4362 0.0261,0.857 0.0416,1.2622 0.0157,0.4052 0.0313,0.7636 0.0416,1.0752 0.0157,0.3119 0.0259,0.5455 0.0364,0.7013 0.0362,0.7429 0.1246,1.5065 0.2701,2.2858 0.1454,0.7791 0.3479,1.5323 0.6077,2.2543 0.265,0.722 0.5922,1.3767 0.9819,1.9532 0.3896,0.5766 0.8467,1.0339 1.3765,1.3715 0.5299,0.3377 1.1325,0.5142 1.813,0.5194 0.6804,-0.0052 1.3245,-0.187 1.9323,-0.5351 0.6025,-0.348 1.1637,-0.8208 1.6779,-1.4181 0.5142,-0.6025 0.9714,-1.2883 1.3817,-2.0519 0.4052,-0.7636 0.7533,-1.5687 1.039,-2.4155 0.291,-0.8414 0.509,-1.6778 0.6597,-2.509 0.1505,-0.8362 0.2285,-1.6206 0.2285,-2.3531 0,-0.5246 -0.0311,-1.0181 -0.0883,-1.4857 -0.0571,-0.4675 -0.135,-0.9402 -0.2388,-1.4128 -0.104,-0.4729 -0.2235,-0.9819 -0.3585,-1.5273 -0.0053,-0.0572 -0.052,-0.1714 -0.1506,-0.3273 -0.0936,-0.1609 -0.2027,-0.3272 -0.3326,-0.4987 -0.1298,-0.1661 -0.2493,-0.3012 -0.3584,-0.3896 -0.1818,0.0052 -0.3635,0.0572 -0.5402,0.1663 -0.1818,0.109 -0.3325,0.2493 -0.4571,0.4259 -0.1195,0.1713 -0.1819,0.3584 -0.1871,0.5611 0.0105,0.5038 0.0624,1.0024 0.1715,1.4959 0.1037,0.4935 0.2077,1.0026 0.3116,1.5273 0.1092,0.5246 0.1611,1.0857 0.1714,1.6831 -0.0103,1.0701 -0.1662,2.0571 -0.4726,2.9766 -0.3065,0.9141 -0.7117,1.7713 -1.2156,2.5659 -0.5089,0.7949 -1.0649,1.5429 -1.6778,2.2494 -0.1454,0.1713 -0.3117,0.3272 -0.4883,0.4779 -0.1818,0.1507 -0.3739,0.2753 -0.5714,0.374 -0.1974,0.0935 -0.3948,0.1402 -0.5922,0.1454 -0.3531,-0.0051 -0.6649,-0.1142 -0.935,-0.3325 -0.2754,-0.213 -0.5091,-0.4986 -0.7116,-0.8622 -0.2027,-0.3636 -0.3689,-0.7688 -0.5091,-1.2155 -0.1351,-0.4468 -0.2494,-0.9091 -0.3326,-1.3818 -0.0831,-0.4727 -0.1453,-0.9246 -0.1869,-1.3559 -0.0416,-0.4309 -0.0624,-0.8154 -0.0676,-1.148 -0.0156,-0.2181 -0.0312,-0.535 -0.0467,-0.9609 -0.0104,-0.426 -0.0259,-0.9091 -0.0364,-1.4494 -0.0156,-0.5402 -0.026,-1.0856 -0.0364,-1.6416 -0.0104,-0.5555 -0.026,-1.0699 -0.0362,-1.5478 -0.0105,-0.4779 -0.0208,-0.8676 -0.0313,-1.1688 -0.0103,-0.3013 -0.0207,-0.4624 -0.0312,-0.4934 -0.0986,-0.208 -0.2285,-0.3897 -0.3948,-0.5403 -0.161,-0.1507 -0.3323,-0.2338 -0.509,-0.239 -0.2338,0 -0.452,0.0312 -0.6546,0.1091 -0.2026,0.0727 -0.3636,0.2026 -0.4882,0.3844 -0.1299,0.1817 -0.1922,0.4311 -0.1974,0.7532 0,0.1663 0,0.3118 0.0104,0.4415 0.0104,0.1299 0.0362,0.2806 0.0831,0.4624zm13.9943 8.8204c0.0415,0.5454 0.0727,1.0753 0.0883,1.5896 0.0156,0.5143 0.0623,0.987 0.1454,1.4234 0.0779,0.4414 0.2442,0.8155 0.4831,1.1324 0.2026,0.27 0.3949,0.5039 0.5766,0.7012 0.1819,0.1923 0.3845,0.3429 0.6027,0.4467 0.2129,0.1089 0.4778,0.1611 0.7844,0.1611 0.2441,-0.0053 0.5609,-0.0728 0.9505,-0.2078 0.3844,-0.1351 0.8052,-0.3169 1.2622,-0.5506 0.4572,-0.2338 0.9092,-0.4988 1.3662,-0.8001 0.4521,-0.3012 0.8675,-0.6129 1.2417,-0.9453 0.3792,-0.3273 0.6803,-0.6598 0.9089,-0.9869 0.2232,-0.3326 0.3429,-0.639 0.3481,-0.9351 0,-0.1611 -0.0208,-0.3376 -0.0572,-0.5248 -0.0415,-0.187 -0.109,-0.3427 -0.2077,-0.4779 -0.0936,-0.135 -0.2235,-0.2076 -0.3896,-0.2128 -0.1247,0.0052 -0.2338,0.0519 -0.3325,0.1352 -0.0987,0.0881 -0.1921,0.1868 -0.2805,0.301 -0.0936,0.1091 -0.187,0.2027 -0.2909,0.2806 -0.2805,0.1973 -0.5921,0.4364 -0.935,0.7273 -0.3429,0.296 -0.7117,0.5869 -1.0961,0.8777 -0.3843,0.291 -0.7792,0.5351 -1.1895,0.7378 -0.4105,0.1973 -0.8208,0.296 -1.2364,0.3064 -0.2129,-0.0103 -0.374,-0.1091 -0.4779,-0.3014 -0.1039,-0.1973 -0.1662,-0.4362 -0.1974,-0.7168 -0.0311,-0.2805 -0.0467,-0.5505 -0.0414,-0.8206l-0.0001 -1.8078c0.0779,-0.2442 0.239,-0.457 0.4934,-0.6389 0.2495,-0.1819 0.5404,-0.3532 0.8727,-0.5195 0.3323,-0.1611 0.6546,-0.3427 0.9766,-0.5351 0.3169,-0.1921 0.5819,-0.4206 0.7896,-0.6856 0.213,-0.2701 0.3168,-0.5975 0.3273,-0.9869 0,-0.0572 -0.0105,-0.1507 -0.0259,-0.2701 -0.0157,-0.1248 -0.0416,-0.2546 -0.0781,-0.3897 -0.0363,-0.1351 -0.0882,-0.2493 -0.1454,-0.3429 -0.0623,-0.0986 -0.135,-0.1454 -0.2181,-0.1506 -0.0157,0 -0.0365,0 -0.0625,0.0052 -0.0258,0 -0.0466,0.0103 -0.0623,0.026l-2.3998 1.4337 -0.2805 0c0.0103,-0.7013 0.0416,-1.3974 0.0934,-2.0831 0.0572,-0.6856 0.0884,-1.3609 0.0936,-2.0311 0,-0.2544 -0.0571,-0.4935 -0.1662,-0.7116 -0.1039,-0.2234 -0.2493,-0.4 -0.4365,-0.5403 -0.1869,-0.135 -0.4051,-0.2077 -0.644,-0.213 -0.1974,0.0053 -0.3637,0.0675 -0.4936,0.1923 -0.1351,0.1247 -0.2597,0.2857 -0.3792,0.4935 0,0.2493 0.0053,0.4986 0.0156,0.7481 0.0105,0.2493 0.0156,0.4986 0.0156,0.7479 0,0.7636 -0.0208,1.5272 -0.0623,2.2805 -0.0416,0.7584 -0.0935,1.5064 -0.1558,2.2388 -0.0364,0.0572 -0.1091,0.1454 -0.2129,0.2702 -0.104,0.1246 -0.1975,0.2649 -0.2909,0.4155 -0.0936,0.1507 -0.1456,0.2961 -0.1507,0.4363 0.0051,0.1559 0.0416,0.3013 0.109,0.4417 0.0728,0.1402 0.1506,0.2804 0.2389,0.4155 0.0832,0.1351 0.1559,0.2752 0.2131,0.4207zm0.6857 -12.467c0.0155,0.2441 0.0779,0.4727 0.1973,0.6909 0.1196,0.2181 0.2702,0.3948 0.4572,0.5298 0.1818,0.1403 0.3792,0.2078 0.5921,0.2129 0.2806,-0.0051 0.5715,-0.0778 0.8727,-0.2025 0.2961,-0.1299 0.587,-0.2753 0.8728,-0.4364 0.2908,-0.1557 0.5609,-0.2908 0.8103,-0.3897 0.3324,-0.1037 0.6754,-0.166 1.0338,-0.192 0.3584,-0.0208 0.7066,-0.0313 1.0545,-0.0261l0.2181 0c0.3429,0.0053 0.6909,0.0261 1.039,0.073 0.3479,0.0465 0.696,0.0881 1.0493,0.1348 0.3532,0.0468 0.7064,0.0676 1.0596,0.0728 0.1507,0 0.291,-0.0364 0.426,-0.1039 0.1403,-0.0676 0.2545,-0.1611 0.3428,-0.291 0.0883,-0.1297 0.1299,-0.2909 0.1351,-0.4778 -0.0104,-0.3221 -0.1195,-0.5819 -0.3376,-0.7844 -0.2183,-0.2025 -0.4883,-0.3584 -0.8208,-0.4675 -0.3272,-0.1092 -0.67,-0.1922 -1.0182,-0.2391 -0.3479,-0.0467 -0.6545,-0.0778 -0.9245,-0.0934 -0.2701,-0.0156 -0.452,-0.026 -0.5455,-0.0363 -0.6545,0 -1.2363,0.0207 -1.7348,0.0571 -0.5042,0.0416 -0.9664,0.1091 -1.3975,0.2025 -0.4312,0.0936 -0.8624,0.2235 -1.3039,0.3844 -0.4364,0.1611 -0.9247,0.3638 -1.4546,0.6027 -0.1609,0.0623 -0.3063,0.1557 -0.4259,0.2856 -0.1246,0.1248 -0.1921,0.2909 -0.1973,0.4936zm7.8541 3.9582l0.2805 0.9973c0.3792,1.3092 0.7636,2.5766 1.1533,3.8024 0.3948,1.2261 0.8362,2.4156 1.3297,3.5741 0.4936,1.1636 1.0753,2.2959 1.7559,3.4076 0.1195,0.2131 0.2389,0.3689 0.3532,0.4624 0.1143,0.0935 0.2389,0.1454 0.3845,0.1661 0.1454,0.0208 0.327,0.0313 0.5401,0.026 0.2597,0 0.4572,-0.0415 0.5922,-0.1246 0.1299,-0.0831 0.2285,-0.2078 0.2806,-0.3689 0.0519,-0.161 0.0935,-0.3636 0.1194,-0.5973 0.0207,-0.2338 0.0573,-0.5039 0.0987,-0.8104 0.1039,-0.7688 0.2233,-1.5168 0.3584,-2.2492 0.1299,-0.7325 0.2857,-1.4701 0.4675,-2.2182 0.1766,-0.7481 0.3896,-1.5324 0.6338,-2.3531 0.2441,-0.8207 0.5246,-1.709 0.8467,-2.6545 0.3273,-0.9454 0.7013,-1.9842 1.1221,-3.1167l0 -0.0311c0.0622,-0.1196 0.1038,-0.213 0.1246,-0.2806 0.0208,-0.0727 0.0313,-0.1662 0.0313,-0.2805 0,-0.161 -0.0416,-0.3376 -0.1197,-0.5299 -0.0778,-0.1922 -0.1817,-0.3584 -0.3116,-0.4984 -0.1246,-0.1406 -0.2649,-0.2131 -0.4104,-0.2185 -0.296,0.0053 -0.5609,0.1247 -0.7948,0.3637 -0.2389,0.2338 -0.4466,0.5455 -0.6388,0.9299 -0.187,0.3894 -0.3585,0.8153 -0.5143,1.2779 -0.1558,0.4622 -0.3012,0.9246 -0.4311,1.3921 -0.1351,0.4623 -0.265,0.8883 -0.3897,1.2727 -0.1246,0.3896 -0.2493,0.7012 -0.3792,0.935 -0.0468,0.187 -0.1195,0.4831 -0.2234,0.878 -0.0986,0.3999 -0.213,0.8467 -0.3427,1.3453 -0.1299,0.5038 -0.2598,1.0026 -0.3844,1.5064 -0.1299,0.4987 -0.2391,0.9455 -0.3377,1.3454 -0.0988,0.3948 -0.1664,0.6909 -0.2078,0.8778l-0.1871 0c-0.0675,-0.005 -0.1609,-0.1453 -0.2701,-0.4101 -0.1143,-0.2703 -0.2442,-0.639 -0.3895,-1.1066 -0.1455,-0.4623 -0.3014,-0.9922 -0.4676,-1.5843 -0.1662,-0.5923 -0.3324,-1.2155 -0.5091,-1.8648 -0.1765,-0.6547 -0.3479,-1.304 -0.5194,-1.9481 -0.1714,-0.639 -0.3376,-1.2467 -0.4935,-1.8129 -0.1402,-0.2182 -0.296,-0.3845 -0.4727,-0.4935 -0.1818,-0.1091 -0.3843,-0.1611 -0.6181,-0.1611 -0.3013,-0.0103 -0.5559,0.0728 -0.7532,0.239 -0.1975,0.1663 -0.3015,0.4727 -0.3066,0.9142zm11.7191 5.3609c0.0052,0.7481 0.1299,1.4285 0.374,2.0415 0.2441,0.6078 0.5818,1.1324 1.0078,1.5738 0.4309,0.4364 0.9195,0.7741 1.47,1.0131 0.5559,0.2338 1.1428,0.3533 1.761,0.3584 0.7219,-0.0051 1.4493,-0.1558 2.1817,-0.4571 0.7272,-0.2961 1.4234,-0.7116 2.0883,-1.2364 0.6596,-0.5246 1.2518,-1.1323 1.7714,-1.8233 0.5194,-0.6856 0.9297,-1.418 1.2258,-2.2024 0.3014,-0.7792 0.4571,-1.5741 0.4623,-2.3844 -0.0052,-0.8363 -0.1351,-1.6207 -0.3948,-2.348 -0.2596,-0.7323 -0.6336,-1.3817 -1.1116,-1.9531 -0.4779,-0.5662 -1.0442,-1.0234 -1.7038,-1.3714 -0.0416,-0.0105 -0.1298,-0.0259 -0.2597,-0.0623 -0.1299,-0.0312 -0.2753,-0.0676 -0.4312,-0.1143 -0.1559,-0.0468 -0.2909,-0.0934 -0.4104,-0.1455 -0.1195,-0.0468 -0.187,-0.0986 -0.2078,-0.1454 0.0572,-0.0468 0.1143,-0.0779 0.1611,-0.0986 0.0467,-0.0157 0.1089,-0.0261 0.1818,-0.0261 0.1766,0.0053 0.3481,0.0364 0.5246,0.0988 0.1715,0.057 0.3428,0.1194 0.5195,0.1766 0.1766,0.0622 0.3585,0.0934 0.5455,0.0986 0.1143,-0.0052 0.1921,-0.0517 0.2389,-0.1402 0.0519,-0.0883 0.0831,-0.1922 0.0934,-0.3117 0.0105,-0.1195 0.0105,-0.2285 0.0105,-0.3273l0 -0.0622c-0.0052,-0.3325 -0.0779,-0.608 -0.2234,-0.826 -0.1455,-0.2234 -0.3377,-0.3949 -0.5662,-0.5196 -0.2338,-0.1246 -0.4831,-0.2129 -0.7481,-0.2647 -0.2649,-0.0521 -0.5246,-0.0729 -0.7687,-0.0728 -0.5922,0.0052 -1.148,0.1298 -1.6677,0.3688 -0.5192,0.2389 -1.0076,0.5662 -1.4543,0.9818 -0.4468,0.4155 -0.8623,0.883 -1.2363,1.4077 -0.3792,0.5246 -0.7221,1.0754 -1.0285,1.6518 -0.3065,0.5715 -0.5766,1.1377 -0.8156,1.6987l-0.2182 0.4675c-0.2233,0.4987 -0.4363,1.0234 -0.6441,1.5688 -0.2078,0.5453 -0.3844,1.1012 -0.5195,1.6727 -0.135,0.5713 -0.2025,1.1428 -0.2077,1.7142zm2.1192 0.2805c0.0054,-0.6545 0.0988,-1.2986 0.2857,-1.9324 0.1819,-0.6338 0.4209,-1.2519 0.7118,-1.8544 0.2909,-0.6027 0.5974,-1.1896 0.9247,-1.761 0.322,-0.5714 0.6285,-1.122 0.9142,-1.6519 0.2182,-0.4052 0.4051,-0.6597 0.561,-0.774 0.1559,-0.1142 0.2909,-0.135 0.4052,-0.0624 0.1091,0.0779 0.213,0.1924 0.3065,0.3429 0.0884,0.1558 0.1766,0.3013 0.2598,0.4363 0.083,0.1351 0.1765,0.2027 0.2752,0.2129 0.1559,-0.0051 0.3117,-0.0309 0.4728,-0.0778 0.1557,-0.0468 0.322,-0.0726 0.4935,-0.0779 0.3688,0.0053 0.7168,0.1247 1.0389,0.348 0.322,0.2286 0.6025,0.5247 0.8519,0.8883 0.2441,0.3636 0.4363,0.7532 0.5765,1.1688 0.1404,0.4208 0.2131,0.8207 0.2131,1.2103 -0.0052,0.5767 -0.1402,1.1585 -0.4,1.7454 -0.2545,0.5819 -0.6027,1.1376 -1.0337,1.6674 -0.4365,0.5248 -0.9143,0.9974 -1.439,1.413 -0.5297,0.4104 -1.0648,0.7376 -1.6051,0.9766 -0.5455,0.2441 -1.0598,0.3637 -1.5376,0.3687 -0.4623,-0.005 -0.8571,-0.1142 -1.1999,-0.3324 -0.3378,-0.2181 -0.6026,-0.5195 -0.7896,-0.9038 -0.1871,-0.3896 -0.2805,-0.8363 -0.2859,-1.3506zm19.293 0.9662c0.1298,1.1272 0.4415,2.1195 0.9247,2.9661 0.483,0.8467 1.1012,1.5117 1.8492,1.9843 0.7532,0.4727 1.5947,0.717 2.5246,0.722 0.3065,0 0.6441,-0.0207 1.0128,-0.0726 0.3741,-0.052 0.7481,-0.1403 1.1221,-0.265 0.374,-0.1245 0.7168,-0.3012 1.0286,-0.5298 0.3117,-0.2286 0.561,-0.5195 0.748,-0.8727 0.1819,-0.3532 0.2702,-0.7792 0.2649,-1.2831 -0.0052,-0.0311 -0.0363,-0.0519 -0.0935,-0.0674 -0.0624,-0.0104 -0.1299,-0.0209 -0.2078,-0.0209 -0.0779,-0.0052 -0.1401,-0.0052 -0.1974,-0.0052 -0.3324,0.0052 -0.6649,0.0468 -0.9921,0.1299 -0.3273,0.0831 -0.6546,0.1819 -0.9768,0.2909 -0.327,0.1091 -0.6595,0.2078 -0.9919,0.2909 -0.3377,0.0832 -0.6806,0.1248 -1.0288,0.1299 -0.6336,-0.0051 -1.1582,-0.1455 -1.5634,-0.4208 -0.4103,-0.2753 -0.7272,-0.6545 -0.9506,-1.1323 -0.2286,-0.4729 -0.3845,-1.0182 -0.4727,-1.6311 -0.0935,-0.608 -0.135,-1.252 -0.1299,-1.9273 0,-0.3325 0.026,-0.7532 0.0728,-1.2518 0.0518,-0.499 0.1247,-1.0339 0.2285,-1.6104 0.0988,-0.5715 0.2285,-1.1429 0.3792,-1.7091 0.1558,-0.561 0.3376,-1.0805 0.5455,-1.5428 0.213,-0.4674 0.4519,-0.8414 0.7169,-1.122 0.2701,-0.2805 0.5661,-0.426 0.8934,-0.4312 0.213,0.0052 0.3897,0.1039 0.5299,0.2909 0.1349,0.1869 0.2545,0.4312 0.3584,0.7325 0.0987,0.3064 0.2025,0.6337 0.3064,0.9921 0.1038,0.3533 0.2337,0.7013 0.3844,1.0389 0.1454,0.3429 0.3377,0.6442 0.5714,0.9039 0.0988,0.0935 0.2287,0.1455 0.3845,0.1559 0.161,0.0155 0.322,-0.0104 0.4882,-0.0727 0.1612,-0.0675 0.2962,-0.1663 0.4053,-0.3013 0.0519,-0.0728 0.1038,-0.1559 0.1609,-0.2598 0.052,-0.0986 0.0831,-0.1714 0.0884,-0.2078 -0.1923,-1.2207 -0.452,-2.2181 -0.7741,-2.9765 -0.322,-0.7636 -0.6701,-1.3505 -1.0441,-1.7557 -0.3739,-0.4 -0.7375,-0.6806 -1.0856,-0.826 -0.3533,-0.1455 -0.6493,-0.2182 -0.8986,-0.2077 -0.6598,0.0103 -1.2312,0.1919 -1.7144,0.5454 -0.483,0.3532 -0.8936,0.8311 -1.2258,1.4336 -0.3324,0.5975 -0.6025,1.2727 -0.8105,2.0155 -0.2129,0.748 -0.3738,1.5169 -0.4881,2.3013 -0.1196,0.7896 -0.1974,1.5532 -0.2495,2.2856 -0.0468,0.7326 -0.0726,1.3818 -0.083,1.9584 -0.0104,0.5766 -0.0104,1.0182 -0.0104,1.335zm12.5918 7.0128c0.0155,0.1871 0.0675,0.3429 0.1661,0.4675 0.0987,0.1247 0.2131,0.2183 0.3532,0.2806 0.1403,0.0623 0.2753,0.0935 0.4157,0.0935 0.4,0.0051 0.6857,-0.0883 0.8519,-0.2805 0.1662,-0.1922 0.2442,-0.5038 0.2388,-0.935 -0.005,-0.4365 -0.0466,-0.8623 -0.1194,-1.2832 -0.0778,-0.4155 -0.1506,-0.831 -0.2285,-1.2362 -0.0727,-0.4104 -0.1143,-0.8156 -0.1194,-1.2209 0.0051,-0.1609 0.0519,-0.2802 0.1454,-0.3636 0.0934,-0.083 0.213,-0.1402 0.348,-0.1765 0.1403,-0.0312 0.2753,-0.0519 0.4157,-0.0623 0.1349,-0.0157 0.2492,-0.0313 0.3375,-0.052 0.1092,-0.0311 0.2909,-0.0831 0.535,-0.1559 0.2442,-0.0727 0.5248,-0.1505 0.8364,-0.2441 0.3169,-0.0936 0.6286,-0.1819 0.9402,-0.2753 0.317,-0.0986 0.5974,-0.1819 0.8467,-0.2598 0.2493,-0.0777 0.4313,-0.1402 0.5507,-0.187l0.5611 0 0.374 5.4855c0.0155,0.0728 0.0622,0.1247 0.1402,0.1559 0.0778,0.0311 0.1661,0.0468 0.2598,0.052 0.0935,0.0103 0.1661,0.0102 0.2232,0.0103l0.0313 0c0.2649,0.0052 0.4727,-0.0467 0.6181,-0.1454 0.1455,-0.1039 0.2441,-0.2805 0.3013,-0.5298 0.0519,-0.2493 0.0832,-0.5974 0.0779,-1.039 0,-0.691 -0.0104,-1.413 -0.0312,-2.1609 -0.0208,-0.7428 -0.0416,-1.4701 -0.0624,-2.1818 -0.0207,-0.7117 -0.031,-1.3662 -0.031,-1.9531 0,-0.0728 0.0103,-0.2183 0.0208,-0.426 0.0154,-0.2129 0.0362,-0.4571 0.0623,-0.748 0.0208,-0.2857 0.0468,-0.5818 0.0726,-0.8831 0.026,-0.3065 0.0468,-0.5871 0.0728,-0.8467 0.0208,-0.2545 0.0416,-0.4624 0.052,-0.6182 0.0103,-0.1662 0.0364,-0.4103 0.0779,-0.7273 0.0416,-0.3167 0.0883,-0.6804 0.1454,-1.0856 0.0571,-0.4103 0.1143,-0.8312 0.1714,-1.2674 0.0624,-0.4364 0.1194,-0.8623 0.1715,-1.2675 0.0571,-0.4052 0.0986,-0.7636 0.1298,-1.0806 0.0364,-0.3117 0.052,-0.5505 0.052,-0.7116 0,-0.2441 -0.0467,-0.4779 -0.1299,-0.7066 -0.0885,-0.2285 -0.2131,-0.4155 -0.374,-0.5609 -0.161,-0.1454 -0.3585,-0.2234 -0.587,-0.2285 -0.2129,0 -0.3896,0.0415 -0.5247,0.1299 -0.1403,0.0882 -0.2754,0.2285 -0.4103,0.431 -0.0571,0.3429 -0.1144,0.7637 -0.1767,1.2571 -0.0571,0.4935 -0.1143,1.0337 -0.1714,1.6208 -0.0571,0.5817 -0.1142,1.1843 -0.1662,1.8025 -0.052,0.613 -0.0987,1.2155 -0.1454,1.8025 -0.0416,0.5922 -0.078,1.1324 -0.1091,1.6311 -0.0311,0.4987 -0.0572,0.9194 -0.0728,1.2675l-0.1247 0.187c-0.1817,0.2701 -0.3636,0.5143 -0.5453,0.7325 -0.1818,0.2129 -0.3948,0.3948 -0.6442,0.5402 -0.2545,0.1507 -0.5714,0.2545 -0.961,0.3168 -0.2026,0.0624 -0.4624,0.1403 -0.774,0.2285 -0.3116,0.0833 -0.6286,0.1715 -0.9506,0.2546 -0.3221,0.0831 -0.5975,0.1559 -0.8312,0.2079 -0.2285,0.0571 -0.3636,0.0883 -0.4051,0.0883l-0.7792 0c-0.0208,-0.0052 -0.0571,-0.0519 -0.1038,-0.1351 -0.0521,-0.0883 -0.078,-0.1869 -0.0832,-0.3012l-0.4364 -9.2258 0 -0.2493c0,-0.2856 -0.0467,-0.5505 -0.1402,-0.7947 -0.0936,-0.2441 -0.2337,-0.4416 -0.4156,-0.5924 -0.1766,-0.1505 -0.3999,-0.2284 -0.6596,-0.2336 -0.0676,0 -0.1715,0.0104 -0.3118,0.0364 -0.135,0.026 -0.2597,0.0727 -0.374,0.1351 -0.1194,0.0622 -0.1818,0.1506 -0.187,0.2649l0 0.8726 0.6858 9.9114c0,0.0311 0.0051,0.078 0.0155,0.1299 0.0103,0.0519 0.0155,0.1039 0.0155,0.1506 -0.0052,0.1662 -0.0571,0.2909 -0.1506,0.3792 -0.0935,0.0883 -0.2078,0.1662 -0.3325,0.2338 -0.1246,0.0675 -0.2389,0.1506 -0.3325,0.2598 -0.0934,0.1039 -0.1454,0.2596 -0.1505,0.4674 0.0051,0.3013 0.0519,0.5351 0.1402,0.7013 0.0935,0.1662 0.2077,0.2909 0.3481,0.3792 0.135,0.0831 0.2803,0.161 0.426,0.2233 0.1505,0.0572 0.2804,0.1351 0.4,0.2287 0.1142,0.0882 0.1972,0.2233 0.244,0.4 0.1091,0.4362 0.1819,0.8935 0.2286,1.3661 0.0416,0.4727 0.0727,0.9557 0.083,1.4388 0,0.1403 0,0.2753 -0.0051,0.4052 0,0.1299 -0.0104,0.265 -0.0259,0.4052zm11.0957 -2.3064c0.0207,0.2233 0.0674,0.4208 0.1401,0.6077 0.0727,0.1819 0.1766,0.3274 0.3116,0.4365 0.1351,0.1142 0.3066,0.1662 0.5143,0.1715 0.182,-0.0157 0.3534,-0.0676 0.5143,-0.1559 0.1663,-0.0936 0.2754,-0.239 0.3274,-0.4364 0.0571,-1.8857 0.1402,-3.6102 0.2493,-5.1738 0.1142,-1.5585 0.2545,-3.0025 0.4259,-4.322 0.1663,-1.3194 0.3637,-2.5609 0.5924,-3.7192 0.2232,-1.1585 0.4777,-2.2805 0.7582,-3.3662 0,-0.2338 -0.0311,-0.4831 -0.0936,-0.7324 -0.0623,-0.2546 -0.1712,-0.4675 -0.3219,-0.6442 -0.1507,-0.1767 -0.3533,-0.2701 -0.6129,-0.2753 -0.2806,0.0052 -0.5196,0.1143 -0.7171,0.3273 -0.1972,0.213 -0.3635,0.4882 -0.4986,0.8311 -0.1351,0.3377 -0.2389,0.6962 -0.3168,1.0754 -0.0831,0.3844 -0.1454,0.748 -0.187,1.0907 -0.0415,0.3429 -0.0728,0.6286 -0.0883,0.8519l0 0.1559c-0.0573,0.5039 -0.1299,1.096 -0.213,1.7713 -0.0882,0.6755 -0.1767,1.387 -0.2701,2.1403 -0.0935,0.7532 -0.1819,1.496 -0.265,2.2336 -0.0829,0.7377 -0.1506,1.4181 -0.2025,2.0467 -0.052,0.6337 -0.078,1.1636 -0.078,1.5948 0,0.2389 0.0052,0.5506 0.0104,0.9401 0.0053,0.3897 0.0053,0.8105 0.0104,1.2571 0.0052,0.4521 0.0104,0.8781 0.0105,1.2935zm5.6412 -2.0258c0.0052,0.322 0.0987,0.587 0.2753,0.7947 0.1767,0.2078 0.3948,0.3584 0.6545,0.4571 0.2546,0.104 0.5091,0.1506 0.7533,0.1506 0.2752,-0.0051 0.4934,-0.0883 0.6493,-0.2545 0.1559,-0.161 0.2649,-0.3687 0.3324,-0.6233 0.0676,-0.2495 0.1092,-0.5143 0.1246,-0.7896 0.0105,-0.2806 0.0208,-0.5299 0.0157,-0.7636 -0.0052,-1.0752 -0.0259,-2.1454 -0.0623,-3.2154 -0.0364,-1.0702 -0.0572,-2.1454 -0.0623,-3.2363 0,-0.0208 0.0155,-0.0519 0.0364,-0.0883 0.0207,-0.0416 0.0414,-0.0624 0.0571,-0.0676 0.0259,0.0052 0.0883,0.0468 0.1921,0.1299 0.1039,0.0831 0.2182,0.1871 0.3429,0.3013 0.1298,0.1143 0.2389,0.2182 0.3377,0.3167l6.3582 7.0753c0.0779,0.0987 0.1505,0.1714 0.2129,0.2025 0.0623,0.0364 0.13,0.052 0.2078,0.052 0.0728,0 0.1766,0 0.2961,-0.0052 0.2234,0.0052 0.4415,-0.0208 0.6494,-0.0884 0.2129,-0.0622 0.3895,-0.1974 0.5351,-0.4103 0,-0.2337 0.005,-0.5194 0.0207,-0.8624 0.0103,-0.3376 0.0259,-0.6907 0.0415,-1.0648 0.0156,-0.3688 0.0312,-0.7117 0.0416,-1.0286 0.0157,-0.3167 0.0208,-0.5662 0.0208,-0.7532l0.9661 -9.1632c0.0831,-0.3377 0.1455,-0.6183 0.1922,-0.852 0.0467,-0.2285 0.0779,-0.4468 0.0936,-0.6545 0.0208,-0.2078 0.0258,-0.4415 0.0258,-0.7064 0,-0.213 -0.031,-0.4416 -0.0882,-0.6754 -0.0624,-0.2337 -0.1559,-0.4311 -0.291,-0.5921 -0.1295,-0.1663 -0.3063,-0.2546 -0.5245,-0.2596 -0.3221,0.005 -0.5662,0.1246 -0.7377,0.3531 -0.1661,0.2285 -0.2857,0.5351 -0.3533,0.9143 -0.0674,0.3792 -0.1194,0.7896 -0.1454,1.2414 -0.0258,0.4519 -0.0623,0.9039 -0.1039,1.3558 0,0.0364 -0.0103,0.0936 -0.026,0.1819 -0.0156,0.083 -0.0258,0.1661 -0.0415,0.2493 -0.0156,0.0831 -0.0259,0.1351 -0.0259,0.161l-0.9662 8.2906c-0.0208,0.0832 -0.052,0.1871 -0.0935,0.317 -0.0415,0.1298 -0.0883,0.2337 -0.1351,0.3115 -0.0415,0.0832 -0.0831,0.0883 -0.1144,0.0261l-8.5088 -9.1945 -1.1531 0c-0.1039,0.0051 -0.1975,0.057 -0.2856,0.1558 -0.0833,0.0986 -0.1508,0.213 -0.1975,0.3429 -0.0519,0.1299 -0.0779,0.2441 -0.0779,0.3429 0.0052,0.1817 0.0364,0.3323 0.0935,0.457 0.0624,0.1247 0.1402,0.2545 0.2285,0.3844 0.0884,0.1299 0.1715,0.2961 0.2546,0.4986 0.0884,0.2027 0.1559,0.4728 0.2027,0.8105 0.0155,0.1454 0.0362,0.4207 0.0622,0.8258 0.0312,0.4053 0.0572,0.8935 0.0936,1.4598 0.0311,0.5662 0.0622,1.1637 0.0987,1.7922 0.031,0.6285 0.0623,1.2363 0.0882,1.8232 0.0312,0.587 0.052,1.1013 0.0675,1.548 0.0157,0.4416 0.026,0.7636 0.026,0.9661 -0.0362,0.1715 -0.1091,0.3066 -0.2129,0.4053 -0.1039,0.0988 -0.1974,0.1974 -0.2909,0.291 -0.0936,0.0934 -0.1455,0.2129 -0.1507,0.3636zm14.5864 -2.2441c0.0052,0.6129 0.0521,1.2623 0.1351,1.9429 0.0884,0.6855 0.2183,1.3713 0.4,2.0517 0.1767,0.6858 0.4104,1.3351 0.6961,1.9532 0.2857,0.6182 0.6285,1.1688 1.0286,1.6519 0.3999,0.4778 0.8675,0.8622 1.3974,1.1376 0.5297,0.2805 1.1272,0.4209 1.7972,0.426 0.4104,-0.0051 0.826,-0.0572 1.2468,-0.1663 0.4259,-0.1091 0.8415,-0.2493 1.2466,-0.426 0.1818,-0.0778 0.4467,-0.218 0.7895,-0.4102 0.343,-0.1871 0.7326,-0.4209 1.1585,-0.691 0.4311,-0.2701 0.8624,-0.5714 1.2986,-0.8883 0.4417,-0.3221 0.8416,-0.6545 1.2155,-0.9921 0.369,-0.3377 0.665,-0.6702 0.8935,-0.9973 0.2234,-0.3274 0.343,-0.6338 0.3482,-0.9143 -0.0052,-0.4468 -0.1041,-0.8312 -0.2961,-1.1533 -0.1922,-0.3221 -0.4467,-0.5921 -0.7636,-0.8155 -0.3221,-0.2181 -0.6702,-0.3949 -1.0546,-0.535 -0.3792,-0.1351 -0.7637,-0.2391 -1.1481,-0.3067 -0.3792,-0.0725 -0.7376,-0.1193 -1.0596,-0.1453 -0.322,-0.026 -0.587,-0.0364 -0.7895,-0.0364 -0.2754,-0.0051 -0.5507,0.0156 -0.8209,0.0624 -0.27,0.0468 -0.4934,0.1507 -0.6752,0.3117 -0.1818,0.161 -0.2753,0.4103 -0.2806,0.748 0,0.265 0.0623,0.5246 0.1715,0.7741 0.1143,0.2493 0.265,0.457 0.4571,0.6233 0.1924,0.161 0.4104,0.2493 0.6493,0.2545 0.2078,-0.0052 0.3948,-0.0468 0.5662,-0.1194 0.1714,-0.0781 0.3429,-0.1507 0.509,-0.2287 0.1714,-0.0727 0.3482,-0.1143 0.5456,-0.1195 0.1038,0 0.2596,0.0105 0.4726,0.026 0.2079,0.0208 0.426,0.0522 0.6494,0.0987 0.2234,0.0468 0.4,0.1093 0.5351,0.1922 0.135,0.078 0.1713,0.1818 0.1194,0.3065 -0.3376,0.4468 -0.7325,0.8728 -1.174,1.2728 -0.4467,0.3946 -0.9246,0.753 -1.4284,1.0596 -0.504,0.3116 -1.0234,0.5559 -1.5429,0.7324 -0.5246,0.1767 -1.0337,0.265 -1.5272,0.2702 -0.6441,-0.0052 -1.1948,-0.1403 -1.6415,-0.4052 -0.4468,-0.265 -0.8104,-0.6234 -1.0963,-1.0753 -0.2854,-0.4572 -0.5037,-0.9716 -0.6594,-1.548 -0.1559,-0.5765 -0.2598,-1.1844 -0.3222,-1.8182 -0.0571,-0.6337 -0.0882,-1.2622 -0.083,-1.8856 0.0001,-1.5116 0.1715,-2.9765 0.5091,-4.3946 0.3376,-1.4181 0.8362,-2.7583 1.4959,-4.0206 0.6546,-1.2624 1.465,-2.4154 2.4208,-3.4596 0.0778,-0.0781 0.1714,-0.1559 0.2856,-0.2442 0.1143,-0.0832 0.2338,-0.1558 0.3533,-0.2181 0.1247,-0.0624 0.2284,-0.0936 0.3272,-0.0989 0.1611,0.0105 0.2805,0.1039 0.3534,0.2859 0.0778,0.1818 0.1246,0.3999 0.1401,0.6545 0.0208,0.2597 0.0259,0.5091 0.0208,0.7428 -0.0104,0.2337 -0.0156,0.4104 -0.0157,0.5299l0.0001 0.7168 -0.748 4.9557c0,0.0051 -0.0053,0.0259 -0.0156,0.0674 -0.0105,0.0468 -0.0155,0.0832 -0.0155,0.1196 0.005,0.161 0.0571,0.3169 0.1506,0.4726 0.0987,0.1559 0.2182,0.291 0.3635,0.3949 0.1402,0.1039 0.2805,0.1557 0.4209,0.1609 0.2754,-0.0052 0.4883,-0.083 0.6285,-0.2285 0.1455,-0.1507 0.2493,-0.3428 0.3117,-0.5818 0.0623,-0.2337 0.1143,-0.483 0.1507,-0.7479 0.083,-0.5248 0.161,-1.0546 0.2337,-1.5845 0.0675,-0.5299 0.1247,-1.0804 0.1662,-1.6519 0.0468,-0.5661 0.0676,-1.1738 0.0676,-1.8127 0,-0.3845 -0.0104,-0.7897 -0.0364,-1.2209 -0.026,-0.4259 -0.0831,-0.8467 -0.1714,-1.257 -0.0884,-0.4105 -0.2182,-0.7844 -0.3896,-1.1169 -0.1766,-0.3376 -0.4103,-0.6025 -0.7013,-0.8052 -0.2962,-0.1974 -0.6598,-0.3013 -1.1013,-0.3064 -0.4311,0.0051 -0.852,0.135 -1.2779,0.3948 -0.4207,0.2545 -0.8311,0.6077 -1.2311,1.0491 -0.4,0.4417 -0.7844,0.9404 -1.1479,1.5015 -0.3688,0.5556 -0.7065,1.1428 -1.0234,1.7557 -0.3169,0.6077 -0.6028,1.2103 -0.8572,1.8024 -0.2544,0.5975 -0.4675,1.1481 -0.644,1.6624 -0.1767,0.509 -0.3065,0.9454 -0.3948,1.309 -0.1923,0.8104 -0.3377,1.6363 -0.4468,2.4675 -0.1091,0.8311 -0.1558,1.6622 -0.1455,2.4882zm15.0542 5.4232c0.0986,0.1766 0.2181,0.3376 0.3687,0.4778 0.1507,0.1402 0.3065,0.2493 0.478,0.3325 0.1713,0.0832 0.3323,0.1246 0.4934,0.1246 0.2805,-0.0103 0.4779,-0.1142 0.6026,-0.322 0.1194,-0.2077 0.1818,-0.4624 0.1766,-0.7688 -0.0052,-0.3324 -0.0312,-0.6649 -0.083,-0.9922 -0.0468,-0.3324 -0.0989,-0.6649 -0.1456,-1.0078 -0.0519,-0.3376 -0.0779,-0.6907 -0.0831,-1.0545 0.0052,-0.1505 0.0364,-0.2597 0.0988,-0.3168 0.0623,-0.0624 0.1401,-0.1091 0.2285,-0.1351 0.0934,-0.026 0.1766,-0.0624 0.2649,-0.1091 0.5558,-0.2596 1.0753,-0.5194 1.5636,-0.7844 0.4884,-0.2595 0.9766,-0.5194 1.4649,-0.7687 0.4934,-0.2545 1.0182,-0.4935 1.5843,-0.722 0.104,0.0051 0.2078,0.0986 0.2961,0.2753 0.0935,0.1765 0.1817,0.4051 0.2546,0.6804 0.0778,0.2754 0.1506,0.5663 0.2078,0.8675 0.0623,0.3065 0.109,0.587 0.1506,0.8468 0.0415,0.2598 0.0676,0.457 0.0883,0.6025 0.026,0.2076 0.0415,0.4156 0.0415,0.6337 0.0053,0.2182 0.0209,0.4209 0.0521,0.6026 0.031,0.187 0.1038,0.3377 0.2128,0.4572 0.1143,0.1143 0.291,0.1713 0.5351,0.1765 0.3792,-0.0052 0.639,-0.1661 0.7742,-0.4778 0.1349,-0.3168 0.2024,-0.748 0.192,-1.2987 0,-0.4519 -0.0415,-0.9143 -0.1143,-1.3921 -0.0778,-0.4832 -0.1817,-0.961 -0.3116,-1.4337 -0.1299,-0.4727 -0.2805,-0.9194 -0.4468,-1.3507l-2.9298 -7.823c-0.2129,-0.5714 -0.483,-1.1012 -0.7998,-1.5845 -0.3169,-0.483 -0.6598,-0.9037 -1.0286,-1.2622 -0.374,-0.3584 -0.7429,-0.639 -1.1169,-0.8414 -0.3741,-0.1974 -0.722,-0.2964 -1.0441,-0.3014 -0.0884,0 -0.2026,0.0051 -0.3481,0.0156 -0.1454,0.0104 -0.2648,0.0155 -0.3688,0.0155 -0.265,0.2858 -0.4779,0.6598 -0.6442,1.122 -0.1609,0.4573 -0.2855,0.9664 -0.3687,1.5169 -0.0832,0.5559 -0.1455,1.1168 -0.1818,1.6831 -0.0364,0.5663 -0.0572,1.1064 -0.0727,1.6103 -0.0105,0.5039 -0.0261,0.9351 -0.0415,1.2986 0,0.7117 -0.0105,1.387 -0.026,2.026 -0.0157,0.6442 -0.0313,1.2779 -0.0521,1.9063 -0.0208,0.6286 -0.0362,1.278 -0.0518,1.9533 -0.0157,0.6752 -0.026,1.4026 -0.026,2.1869 0,0.348 0,0.7169 0.0052,1.1065 0.0051,0.3896 0.0208,0.7792 0.0416,1.1636 0.0206,0.3843 0.057,0.7376 0.1091,1.0649zm1.8076 -6.514c0,-0.2858 -0.0052,-0.5819 -0.0155,-0.8833 -0.0105,-0.3011 -0.0208,-0.5817 -0.0313,-0.8414 -0.0102,-0.2598 -0.0155,-0.4623 -0.0155,-0.613 0,-0.6805 0.0104,-1.3817 0.026,-2.109 0.0156,-0.7221 0.0467,-1.4182 0.0883,-2.0883 0.0363,-0.6649 0.0934,-1.2622 0.1611,-1.7817 0.0674,-0.5195 0.1557,-0.9142 0.2597,-1.1896 0.1038,-0.2752 0.2234,-0.3792 0.3688,-0.3116 0.2285,0.2338 0.4571,0.5091 0.6752,0.8259 0.2182,0.3169 0.4156,0.6441 0.5923,0.987 0.1817,0.3481 0.3324,0.6752 0.4467,0.9922l1.9635 4.9867c0.0572,0.1455 0.0883,0.2701 0.0937,0.3742 0.0051,0.0986 0.0051,0.2233 -0.0001,0.374 -0.2962,0.0467 -0.613,0.1143 -0.9403,0.2077 -0.3324,0.0883 -0.6597,0.1974 -0.9922,0.322 -0.2285,0.0572 -0.4779,0.1351 -0.748,0.2391 -0.27,0.0986 -0.5247,0.2025 -0.774,0.3116 -0.2494,0.1039 -0.4571,0.1975 -0.6286,0.2701 -0.1713,0.0727 -0.2753,0.1091 -0.3116,0.1143 -0.0363,0.0052 -0.0728,-0.0052 -0.1194,-0.026 -0.0468,-0.0156 -0.0781,-0.0726 -0.0988,-0.1609zm9.5685 5.8906c0.0052,0.4208 0.1143,0.7272 0.3325,0.9246 0.218,0.1974 0.5194,0.2909 0.9141,0.2908 0.265,-0.0051 0.4624,-0.0882 0.5871,-0.2441 0.1246,-0.1557 0.2025,-0.3428 0.2388,-0.5713 0.0365,-0.2285 0.0521,-0.4572 0.0468,-0.6806 -0.0052,-0.2493 -0.0778,-0.431 -0.2233,-0.5453 -0.1454,-0.1144 -0.3323,-0.1715 -0.5558,-0.1715 -0.1662,0 -0.3481,0.0414 -0.5558,0.1247 -0.2078,0.0831 -0.3844,0.2026 -0.5402,0.3533 -0.156,0.1454 -0.2338,0.322 -0.2442,0.5194zm0.1869 -4.457c0.0468,0.1819 0.1299,0.3013 0.2494,0.3584 0.1196,0.057 0.2649,0.0832 0.4364,0.0781 0.2077,-0.0105 0.3739,-0.0937 0.5038,-0.2546 0.13,-0.1611 0.2234,-0.3482 0.2806,-0.5611 0.0623,-0.2182 0.0883,-0.4104 0.0884,-0.5869 -0.0054,-0.5091 -0.0261,-1.0234 -0.0624,-1.5377 -0.0416,-0.5143 -0.0832,-1.0234 -0.1247,-1.5376 -0.0364,-0.5142 -0.0572,-1.0286 -0.0622,-1.5376 0.005,-0.935 0.0414,-1.8649 0.1037,-2.7999 0.0676,-0.9298 0.1299,-1.8597 0.1974,-2.7947 0.0624,-0.935 0.0987,-1.8753 0.104,-2.8206 -0.0053,-0.2701 -0.0781,-0.5091 -0.213,-0.7066 -0.1403,-0.2025 -0.3221,-0.3584 -0.5506,-0.4675 -0.2234,-0.1091 -0.4675,-0.1662 -0.7325,-0.1662 -0.1402,-0.0052 -0.2493,0.0208 -0.3325,0.0728 -0.0883,0.0571 -0.1507,0.1662 -0.1975,0.3324 0.0001,1.0857 -0.0207,2.1817 -0.0467,3.2777 -0.031,1.1014 -0.0623,2.1768 -0.0934,3.2208 -0.026,1.0442 -0.0468,2.0259 -0.0468,2.9453 0,0.1766 0.0156,0.4519 0.0416,0.8207 0.0311,0.3689 0.0622,0.7845 0.1091,1.2467 0.0415,0.4675 0.083,0.9299 0.1298,1.3922 0.0468,0.4624 0.0935,0.8726 0.1299,1.2363 0.0416,0.3637 0.0675,0.6233 0.0882,0.7896z"/>
  <path id="_394064504" class="fil3" d="M26.722 220.312l137.504 -0.3845c-3.4666,-2.0273 -60.3231,-3.7947 -68.6773,-3.821 -11.8046,-0.0373 -23.433,0.7437 -35.2034,1.2122 -5.8704,0.2336 -11.5663,0.6074 -17.4138,0.862 -3.3438,0.1456 -14.4512,-0.0654 -16.2087,2.1313l-0.0005 0z"/>
  <path id="_394051688" class="fil3" d="M72.5738 104.772c-2.5025,-2.9501 -3.8074,-5.1873 -0.475,-9.0251l9.7158 -3.8176c0.0113,3.0234 -3.7575,12.7172 -9.2408,12.8427zm-6.8614 -14.9989c0.4924,2.8788 0.7253,5.8392 1.4487,8.4652 0.363,1.3177 0.8288,2.728 1.437,3.9429 0.283,0.5653 0.5767,1.0798 0.9404,1.6064 0.7655,1.108 0.6356,0.5295 0.9858,1.6164 2.6421,1.2102 4.1368,1.6735 6.5894,-0.5056 4.593,-4.0808 5.5039,-11.0894 7.6698,-18.4907 3.7192,-1.2268 3.2014,-2.7566 2.8199,-4.2629 -1.0814,0.9304 -3.0537,3.8208 -7.741,2.8802l-7.9187 -2.5945c-1.7123,0.76 -3.5096,1.9381 -5.482,2.2062l-4.9077 -2.7465c4.5363,5.5913 4.0122,3.904 4.1584,7.8829z"/>
  <path id="_394839648" class="fil3" d="M93.8781 71.527c3.7372,-4.2321 8.06,0.6559 4.0066,3.5408 -2.7481,0.4953 -4.1763,-0.7655 -4.0066,-3.5408zm1.2928 -2.5695c-10.1031,3.5095 -4.9267,16.9886 3.8998,14.4065 9.5158,-2.7838 4.9981,-17.4974 -3.8998,-14.4065z"/>
  <path id="_394829640" class="fil3" d="M60.3005 70.6502c7.7645,-0.7519 -0.407,8.525 -1.0635,1.3295l1.0635 -1.3295zm-2.6584 -0.8498c-2.2251,1.798 -3.559,4.595 -3.8337,7.5436 0.012,1.8924 0.4649,2.8439 1.9986,3.8903 3.6838,1.0741 8.2471,-1.372 9.1808,-5.0089 1.2916,-5.0316 -2.7452,-8.049 -7.3457,-6.425z"/>
  <path id="_602346104" class="fil3" d="M69.8627 76.3828c-0.4656,1.1039 -0.5674,0.7477 0.2605,2.0148 2.2549,0.7389 3.4863,0.1907 4.0395,-2.0371 -1.4058,-0.3844 -3.1798,-0.62 -4.3,0.0223z"/>
  <path id="_602346248" class="fil3" d="M119.575 194.732c-0.4702,0.2421 -2.6857,-0.0881 1.2935,2.7162 1.0171,0.7168 2.2289,1.347 2.6598,2.3858l-8.9589 -3.982 5.2046 -6.3711 0.5138 -1.2024 5.6203 7.3502 -4.9728 -3.0206 5.7816 6.5315c-0.9232,-0.5133 -6.8988,-3.3835 -7.1419,-4.4076zm3.2448 -55.325c2.6385,-1.8218 15.2184,-15.4297 18.4299,-19.2563 1.7664,-2.1047 3.7541,-4.8852 5.6714,-6.8049l9.0149 21.157 -23.6606 9.7852 4.9488 14.2179 -11.9103 2.8961c0.5218,4.6834 0.8251,3.9491 -0.3606,4.6061 -1.299,-8.4639 -2.181,-18.0744 -2.1335,-26.6011zm85.0897 -51.7373l1.8611 37.3117 -35.4682 5.7391 3.7207 14.7493 -36.0758 7.2975 0.4283 4.6287 -2.9412 -6.9773 -1.2514 -3.4365c3.5973,-3.1119 19.2515,-6.3997 23.4346,-9.5616 -0.6006,-5.0485 -6.4504,-16.6511 -8.1459,-22.6943l-0.3819 -1.1865c8.8156,-4.8041 18.2285,-8.9097 27.169,-13.2236 9.1753,-4.4274 18.3947,-8.6112 27.6507,-12.6465zm-166.151 17.0224l5.2916 7.4502 -4.1114 6.288c-2.1273,-1.8047 -3.0269,-7.9218 -4.2164,-10.9443 -1.7081,-9.8251 -3.0602,-13.6741 -2.6218,-24.305 1.8255,-1.605 1.3133,-0.6396 1.888,-4.2995l2.6188 -0.5064c0.2368,-1.1851 0.1881,-1.4875 0.6947,-2.2302 5.2992,2.6921 2.9776,0.6705 5.9029,1.6161 -3.5532,3.8587 -6.2553,5.9213 -7.4579,11.2775 -1.6163,7.1992 0.2288,9.4036 2.0115,15.6536zm51.3793 -54.487c-5.6642,0.228 -9.3518,-0.2707 -15.3461,0.5786l-1.8956 0.3338 6.2136 -7.515c4.3617,-4.9127 18.1163,-17.1144 22.7506,-17.8504l0.2652 1.5514c0.8633,1.7996 1.8774,6.0807 1.5287,8.0001 0.9541,1.3618 1.3515,4.1215 1.4897,5.9988l-10.8866 9.8905 -4.1195 -0.9878zm58.9057 -9.3527c-0.3213,3.0148 -1.3952,6.4501 -2.1759,9.5952 -0.4143,1.6692 -1.3964,8.4006 -3.107,8.4271 -1.8731,2.6862 -23.4862,9.5238 -27.1545,12.2732 5.8005,4.7843 8.2988,13.8653 8.1839,21.1092l-9.5178 4.1726c-1.6267,1.1464 -5.771,3.1584 -7.9365,4.4217 -2.9196,1.7032 -4.766,3.1741 -7.2513,5.2326 -1.4861,1.5672 -5.0792,4.5383 -5.6374,6.6423 1.7591,0.1603 4.3373,-2.2932 6.2779,-2.8365 12.6105,-8.2742 28.8603,-16.6686 44.0568,-18.7012 0.6418,0.6669 0.677,-1.1165 0.4528,1.2692l2.5469 0.6029 -1.1473 3.0776 2.1508 1.4509c-3.1656,4.2859 -1.643,2.8341 -3.2685,5.4052 -0.8879,1.4048 -2.1452,3.6587 -3.3289,4.5985 -1.4679,3.4754 -13.15,16.0449 -16.2912,19.2565 -3.9129,4.0006 -14.0116,14.303 -14.6023,20.4384l4.2139 -3.8706 1.7298 24.2618c0.4499,7.8887 -0.2595,14.599 -5.0767,20.8444 -4.545,5.8923 -10.9417,8.1528 -18.1797,6.6612 -3.0388,-0.6262 -16.9198,-5.3902 -18.61,-7.3511 -1.717,0.2231 -5.3913,-1.4502 -7.3601,-1.9732 -4.4665,-0.6358 -7.2632,-1.1419 -11.9233,-1.0609 -8.7598,0.1522 -19.9813,1.7976 -27.4561,-6.6941 -1.8898,-2.1468 -1.0238,0.481 -2.3062,-6.2697l-1.7245 8.8883 -9.7011 -7.9287c-2.2236,-2.3726 -5.2424,-9.7402 -6.0513,-11.0463 -0.8916,-3.5814 -1.9043,-5.532 -2.1209,-9.4717l3.701 3.4632c1.1003,1.7407 1.1188,3.6447 2.9281,4.0282l-4.0695 -8.4365 10.3233 10.9956 -1.2485 -6.7089c-1.1697,-2.4093 2.6553,-7.3264 4.4901,-8.7565 5.4021,-4.2109 6.7864,-2.6116 10.135,-3.8785l5.4705 -14.5033c1.2009,-2.3695 5.9423,-10.3577 7.7336,-11.7644l1.1951 -1.5781c5.996,3.0745 8.0748,4.849 15.2114,4.7227l-19.0038 -15.9915c-3.7618,-5.2391 -4.4521,-15.5889 0.5905,-20.2414 3.2658,-4.202 3.6,-0.4156 5.0657,-7.7633 9.9634,-25.2208 41.8939,-25.6971 55.2065,-16.3328l-0.3765 1.3293 -0.4918 1.2789 2.5263 -1.518c6.5295,-5.0187 12.5546,-9.8293 20.0587,-13.8377 5.629,-3.0069 17.4424,-8.8882 23.3799,-9.8138l-0.5099 3.882zm-103.727 32.8338l-5.4722 -1.741 -1.5711 1.5896 -3.8001 -0.6377 -0.4846 3.0631 -3.1941 0.219 -0.2207 3.3947 -2.2618 1.5015c-0.0509,1.6996 0.3311,3.5399 0.2729,5.8 -0.0527,2.0413 0.0227,4.1884 0.1451,6.2277 0.6807,11.3486 4.1088,19.8753 7.8707,30.2527 -1.5213,2.4221 -3.1479,4.8471 -4.3961,7.5435l-3.4141 8.6608c-2.8403,1.3657 -5.353,1.2445 -8.3209,3.6785l-5.3972 6.5313c-2.7531,-0.8942 -2.8142,-2.9707 -7.05,-2.9149 -13.5896,0.1792 2.2094,29.713 6.5584,32.4875l13.335 4.4126c7.3108,4.2047 9.2162,5.9646 18.2293,6.0038 8.2983,0.036 15.0528,-1.0377 23.076,1.2153 5.6631,1.5904 11.5851,5.041 17.1824,6.8602l20.6441 0.3783c1.4834,0.3232 13.3792,9.5759 19.4536,4.2265 -0.3449,-7.0914 -1.6536,-13.4941 -6.6179,-17.2858l1.6806 -6.5766 14.5877 1.9981 -1.1669 -10.2486 16.0119 -0.9634 -2.3427 -14.3351c5.0792,-0.782 10.382,-2.1177 15.6234,-3.0126l16.0195 -2.5798 -3.1774 -15.278 34.5778 -4.9994 -1.8628 -48.5264c-2.8993,0.3269 -53.2992,24.5501 -62.6782,28.9893 0.0249,-0.1014 3.7339,-7.8784 4.5779,-8.721l2.1997 -2.5211 -1.5782 -2.3849 1.1915 -2.5825 -2.0824 -1.2929 -0.0605 -3.1594 -3.0391 -0.2957 -0.7631 -2.4485c-1.884,-0.1147 -15.681,3.3232 -18.5171,3.9957 -1.201,-9.4565 -1.7161,-9.4705 -5.2011,-18.0167 4.8714,-0.9592 12.5885,-4.6646 17.2604,-6.753 17.384,-7.7709 25.7034,-19.9337 38.398,-33.6675 -2.2456,-2.7092 -7.4559,-1.8212 -10.7634,-1.7934 -8.4313,0.0708 -24.0472,2.9732 -30.957,6.4706l-31.2369 18.9971 -7.0326 -2.9591c1.1521,-1.7117 11.9588,-10.6619 14.4422,-12.9423 4.1906,-3.8481 15.9121,-17.5354 18.0463,-23.3837 3.7411,-10.2509 -27.4736,3.4665 -29.5821,4.3743 -11.0533,4.7592 -23.0731,15.391 -30.505,24.6074 -1.0217,1.2672 -1.925,2.3262 -2.8541,3.77 -0.9043,1.4054 -1.4833,3.4174 -2.8775,4.18 -7.6508,4.1852 -13.8105,7.0625 -18.6105,15.7744 -0.8584,1.5577 -1.2987,3.4639 -2.295,4.8175z"/>
 </g>
</svg>
