<?xml version="1.0" encoding="UTF-8"?>
<!DOCTYPE svg PUBLIC "-//W3C//DTD SVG 1.1//EN" "http://www.w3.org/Graphics/SVG/1.1/DTD/svg11.dtd">
<!-- Creator: CorelDRAW -->
<svg xmlns="http://www.w3.org/2000/svg" xml:space="preserve" width="215.9mm" height="279.4mm" style="shape-rendering:geometricPrecision; text-rendering:geometricPrecision; image-rendering:optimizeQuality; fill-rule:evenodd; clip-rule:evenodd"
viewBox="0 0 215.9 279.4"
 xmlns:xlink="http://www.w3.org/1999/xlink">
 <defs>
  <style type="text/css">
   <![CDATA[
    .str0 {stroke:#0732AB;stroke-width:4}
    .fil3 {fill:#0732AB}
    .fil1 {fill:white}
    .fil2 {fill:black;fill-rule:nonzero}
    .fil0 {fill:#E6E6E6;fill-opacity:0.160784}
   ]]>
  </style>
 </defs>
 <g id="Capa_x0020_1">
  <metadata id="CorelCorpID_0Corel-Layer"/>
  <g id="_378356320">
   <polygon id="_378356872" class="fil0" points="215.9,0 -0,0 -0,279.4 215.9,279.4 "/>
   <rect id="_378356824" class="fil1 str0" x="7.95" y="10.2882" width="200" height="258.824" rx="8.4684" ry="8.4684"/>
   <path id="_378356344" class="fil2" d="M42.1318 213.175c-0.815,0 -1.5567,-0.1178 -2.2253,-0.3534 -0.6686,-0.2356 -1.2607,-0.5762 -1.7765,-1.022 -0.5157,-0.4456 -0.9455,-0.9868 -1.2893,-1.6236l2.5978 -1.7c0.3311,0.4712 0.7609,0.85 1.2894,1.1366 0.5284,0.2865 1.0665,0.4297 1.614,0.4297 0.4203,0 0.7355,-0.0827 0.9456,-0.2482 0.2101,-0.1656 0.3151,-0.3694 0.3151,-0.6113 0,-0.1655 -0.0477,-0.312 -0.1432,-0.4394 -0.0956,-0.1273 -0.2833,-0.2515 -0.5635,-0.3725 -0.2802,-0.121 -0.6877,-0.2387 -1.2225,-0.3534 -1.1206,-0.2546 -2.0121,-0.5762 -2.6742,-0.9645 -0.6622,-0.3885 -1.1334,-0.8596 -1.4135,-1.4135 -0.2802,-0.554 -0.4203,-1.1876 -0.4203,-1.9007 0,-0.7895 0.2038,-1.5058 0.6112,-2.1489 0.4076,-0.6431 0.9902,-1.1556 1.7479,-1.5377 0.7577,-0.382 1.6586,-0.573 2.7029,-0.573 1.1715,0 2.1711,0.2324 2.9989,0.6972 0.8277,0.4648 1.4644,1.0601 1.9101,1.786l-2.5978 1.872c-0.2929,-0.3948 -0.6845,-0.6781 -1.1748,-0.8501 -0.4902,-0.1719 -0.9582,-0.2579 -1.4039,-0.2579 -0.3948,0 -0.7099,0.0732 -0.9456,0.2197 -0.2355,0.1464 -0.3533,0.347 -0.3533,0.6017 0,0.2547 0.1305,0.4585 0.3916,0.6113 0.261,0.1528 0.78,0.3183 1.5568,0.4966 1.0697,0.2419 1.9451,0.5508 2.6264,0.9264 0.6813,0.3757 1.1843,0.8405 1.509,1.3944 0.3248,0.554 0.4872,1.232 0.4872,2.0344 0,0.8022 -0.2038,1.5185 -0.6113,2.1489 -0.4075,0.6303 -0.9933,1.1238 -1.7574,1.4804 -0.764,0.3565 -1.6745,0.5348 -2.7315,0.5348zm9.6845 -0.3438l-3.4574 0 0 -13.0082 3.4574 0 0 13.0082zm10.0857 0l-4.2597 -13.0082 3.5529 0 3.381 10.6587 -1.6428 0 3.4001 -10.6587 3.4574 0 -4.2596 13.0082 -3.6293 0zm11.1936 -5.1384l5.4438 0 0 3.19 -5.4438 0 0 -3.19zm-3.1519 5.1384l4.6036 -13.0082 3.4573 0 4.1833 13.0082 -3.4766 0 -3.1134 -10.6587 1.3752 0 -3.5719 10.6587 -3.4575 0zm17.9364 0.3438c-0.815,0 -1.5567,-0.1178 -2.2253,-0.3534 -0.6686,-0.2356 -1.2607,-0.5762 -1.7764,-1.022 -0.5158,-0.4456 -0.9456,-0.9868 -1.2894,-1.6236l2.5978 -1.7c0.3311,0.4712 0.7609,0.85 1.2894,1.1366 0.5284,0.2865 1.0665,0.4297 1.614,0.4297 0.4203,0 0.7355,-0.0827 0.9456,-0.2482 0.2101,-0.1656 0.3151,-0.3694 0.3151,-0.6113 0,-0.1655 -0.0477,-0.312 -0.1432,-0.4394 -0.0956,-0.1273 -0.2833,-0.2515 -0.5635,-0.3725 -0.2802,-0.121 -0.6877,-0.2387 -1.2225,-0.3534 -1.1206,-0.2546 -2.0121,-0.5762 -2.6742,-0.9645 -0.6622,-0.3885 -1.1334,-0.8596 -1.4135,-1.4135 -0.2802,-0.554 -0.4203,-1.1876 -0.4203,-1.9007 0,-0.7895 0.2038,-1.5058 0.6113,-2.1489 0.4075,-0.6431 0.9901,-1.1556 1.7478,-1.5377 0.7577,-0.382 1.6586,-0.573 2.7029,-0.573 1.1715,0 2.1711,0.2324 2.9989,0.6972 0.8277,0.4648 1.4644,1.0601 1.9101,1.786l-2.5978 1.872c-0.2929,-0.3948 -0.6845,-0.6781 -1.1748,-0.8501 -0.4902,-0.1719 -0.9582,-0.2579 -1.4039,-0.2579 -0.3948,0 -0.7099,0.0732 -0.9456,0.2197 -0.2355,0.1464 -0.3533,0.347 -0.3533,0.6017 0,0.2547 0.1305,0.4585 0.3916,0.6113 0.261,0.1528 0.78,0.3183 1.5568,0.4966 1.0697,0.2419 1.9451,0.5508 2.6264,0.9264 0.6813,0.3757 1.1843,0.8405 1.5091,1.3944 0.3247,0.554 0.4871,1.232 0.4871,2.0344 0,0.8022 -0.2038,1.5185 -0.6113,2.1489 -0.4075,0.6303 -0.9933,1.1238 -1.7574,1.4804 -0.764,0.3565 -1.6745,0.5348 -2.7315,0.5348zm13.6386 -5.4822l5.4439 0 0 3.19 -5.4439 0 0 -3.19zm-3.1518 5.1384l4.6035 -13.0082 3.4574 0 4.1833 13.0082 -3.4766 0 -3.1135 -10.6587 1.3753 0 -3.5719 10.6587 -3.4575 0zm17.5353 -6.4945c0,-0.9934 0.1592,-1.9039 0.4775,-2.7316 0.3184,-0.8277 0.7705,-1.544 1.3562,-2.1489 0.5858,-0.6049 1.2862,-1.0729 2.1012,-1.404 0.815,-0.3311 1.7192,-0.4966 2.7124,-0.4966 0.9933,0 1.9006,0.1655 2.722,0.4966 0.8213,0.3311 1.5281,0.7991 2.1203,1.404 0.5921,0.6049 1.0474,1.3212 1.3657,2.1489 0.3184,0.8277 0.4776,1.7382 0.4776,2.7316 0,0.9932 -0.1592,1.9038 -0.4776,2.7315 -0.3183,0.8277 -0.7736,1.544 -1.3657,2.1489 -0.5922,0.6049 -1.299,1.0697 -2.1203,1.3944 -0.8214,0.3247 -1.7287,0.4871 -2.722,0.4871 -0.9932,0 -1.8974,-0.1624 -2.7124,-0.4871 -0.815,-0.3247 -1.5154,-0.7895 -2.1012,-1.3944 -0.5857,-0.6049 -1.0378,-1.3212 -1.3562,-2.1489 -0.3183,-0.8277 -0.4775,-1.7383 -0.4775,-2.7315zm3.5337 0c0,0.7131 0.1306,1.3179 0.3916,1.8146 0.2611,0.4966 0.6272,0.8723 1.0984,1.1269 0.4712,0.2548 1.0123,0.3821 1.6236,0.3821 0.624,0 1.1716,-0.1273 1.6428,-0.3821 0.4712,-0.2546 0.8404,-0.6334 1.1079,-1.1364 0.2673,-0.5031 0.401,-1.1111 0.401,-1.8243 0,-0.7131 -0.1337,-1.318 -0.401,-1.8146 -0.2675,-0.4966 -0.6367,-0.8723 -1.1079,-1.127 -0.4712,-0.2547 -1.0188,-0.3821 -1.6428,-0.3821 -0.6113,0 -1.1524,0.1306 -1.6236,0.3916 -0.4712,0.2611 -0.8373,0.64 -1.0984,1.1366 -0.261,0.4966 -0.3916,1.1015 -0.3916,1.8147zm10.8306 6.4945l0 -13.0082 4.8136 0c0.9551,0 1.8242,0.1815 2.6074,0.5444 0.7831,0.3629 1.4071,0.8978 1.8719,1.6045 0.4648,0.7068 0.6972,1.5823 0.6972,2.6265 0,1.0442 -0.2324,1.9197 -0.6972,2.6265 -0.4648,0.7067 -1.0888,1.2384 -1.8719,1.5949 -0.7832,0.3566 -1.6523,0.5349 -2.6074,0.5349l-2.1776 0 0 -3.3619 2.063 0c0.5858,0 1.0283,-0.1146 1.3275,-0.3438 0.2993,-0.2292 0.4489,-0.5795 0.4489,-1.0506 0,-0.4585 -0.1496,-0.8087 -0.4489,-1.0506 -0.2992,-0.242 -0.7417,-0.363 -1.3275,-0.363l-2.0821 0 0.8405 -0.7448 0 10.3912 -3.4574 0zm6.3418 0l-2.5597 -5.1956 3.7821 0 2.5597 5.1956 -3.7821 0zm8.29 0l-3.4574 0 0 -13.0082 3.4574 0 0 13.0082zm9.8564 0l-6.1316 -8.6721 1.2989 -0.3439 0 9.016 -3.4574 0 0 -13.0082 3.2282 0 6.1125 8.6721 -1.299 0.3439 0 -9.016 3.4766 0 0 13.0082 -3.2282 0zm7.2395 -5.1384l5.4439 0 0 3.19 -5.4439 0 0 -3.19zm-3.1518 5.1384l4.6035 -13.0082 3.4574 0 4.1833 13.0082 -3.4766 0 -3.1135 -10.6587 1.3753 0 -3.5719 10.6587 -3.4575 0zm13.0846 0l0 -13.0082 4.8136 0c0.9551,0 1.8242,0.1815 2.6074,0.5444 0.7831,0.3629 1.4071,0.8978 1.8719,1.6045 0.4648,0.7068 0.6972,1.5823 0.6972,2.6265 0,1.0442 -0.2324,1.9197 -0.6972,2.6265 -0.4648,0.7067 -1.0888,1.2384 -1.8719,1.5949 -0.7832,0.3566 -1.6523,0.5349 -2.6074,0.5349l-2.1776 0 0 -3.3619 2.063 0c0.5858,0 1.0283,-0.1146 1.3275,-0.3438 0.2993,-0.2292 0.4489,-0.5795 0.4489,-1.0506 0,-0.4585 -0.1496,-0.8087 -0.4489,-1.0506 -0.2992,-0.242 -0.7417,-0.363 -1.3275,-0.363l-2.0821 0 0.8405 -0.7448 0 10.3912 -3.4574 0zm6.3418 0l-2.5597 -5.1956 3.7821 0 2.5597 5.1956 -3.7821 0zm-108.239 13.6934l0 -3.3046 5.4248 0 0 3.3046 -5.4248 0zm-0.0574 -4.8518l1.3944 -1.5282 0 9.7036 -1.4898 -1.7764 6.59 0 0 3.3046 -8.5575 0 0 -13.0082 8.5575 0 0 3.3046 -6.4946 0zm16.1791 9.7036l-6.1316 -8.6721 1.2989 -0.3439 0 9.016 -3.4574 0 0 -13.0082 3.2282 0 6.1125 8.6721 -1.299 0.3439 0 -9.016 3.4766 0 0 13.0082 -3.2282 0zm11.8813 -4.8518l0 -3.3046 5.4248 0 0 3.3046 -5.4248 0zm-0.0574 -4.8518l1.3944 -1.5282 0 9.7036 -1.4898 -1.7764 6.59 0 0 3.3046 -8.5575 0 0 -13.0082 8.5575 0 0 3.3046 -6.4946 0zm16.1026 9.7036l-8.2136 0 0 -13.0082 3.4574 0 0 11.2699 -1.0697 -1.6236 5.8259 0 0 3.3619zm17.1343 0l-3.2473 -10.9452 -0.6113 -2.063 3.2855 0 3.3236 11.0216 -1.7382 0 2.808 -11.0216 3.4955 0 -3.6102 13.0082 -3.7056 0zm-8.1373 0l-3.6103 -13.0082 3.4957 0 2.8079 11.0216 -1.7382 0 3.3236 -11.0216 3.2855 0 -0.5922 2.063 -3.2663 10.9452 -3.7057 0zm22.4443 0.2674c-1.3753,0 -2.5596,-0.2865 -3.5529,-0.8596 -0.9933,-0.573 -1.7573,-1.3658 -2.2921,-2.3781 -0.5349,-1.0124 -0.8023,-2.1872 -0.8023,-3.5242 0,-0.9934 0.1592,-1.9039 0.4775,-2.7316 0.3184,-0.8277 0.7705,-1.544 1.3562,-2.1489 0.5858,-0.6049 1.2862,-1.0697 2.1012,-1.3944 0.815,-0.3247 1.7192,-0.4872 2.7124,-0.4872 1.5536,0 2.8398,0.3534 3.8586,1.0602 1.0187,0.7068 1.7573,1.7541 2.2157,3.1422l-3.0563 1.2989c-0.2928,-0.6876 -0.6812,-1.2161 -1.1651,-1.5854 -0.4839,-0.3693 -1.1015,-0.5539 -1.8529,-0.5539 -0.6113,0 -1.1524,0.1337 -1.6236,0.401 -0.4712,0.2675 -0.8373,0.6559 -1.0984,1.1653 -0.261,0.5093 -0.3916,1.1206 -0.3916,1.8338 0,0.713 0.1306,1.3243 0.3916,1.8337 0.2611,0.5093 0.6272,0.8945 1.0984,1.1556 0.4712,0.2611 1.0123,0.3916 1.6236,0.3916 0.7514,0 1.369,-0.1815 1.8529,-0.5444 0.4839,-0.3629 0.8723,-0.8882 1.1651,-1.5758l3.0563 1.2988c-0.4584,1.3881 -1.197,2.4355 -2.2157,3.1422 -1.0188,0.7068 -2.305,1.0602 -3.8586,1.0602zm-122.221 13.1394l5.4439 0 0 3.19 -5.4439 0 0 -3.19zm-3.1518 5.1384l4.6035 -13.0082 3.4574 0 4.1832 13.0082 -3.4765 0 -3.1135 -10.6587 1.3753 0 -3.572 10.6587 -3.4574 0zm16.16 0l0 -11.7857 3.4955 0 0 11.7857 -3.4955 0zm-3.6867 -9.6464l0 -3.3618 10.8497 0 0 3.3618 -10.8497 0zm15.2813 9.6464l-3.4574 0 0 -13.0082 3.4574 0 0 13.0082zm9.8564 0l-6.1316 -8.6721 1.2989 -0.3439 0 9.016 -3.4574 0 0 -13.0082 3.2282 0 6.1125 8.6721 -1.2989 0.3439 0 -9.016 3.4765 0 0 13.0082 -3.2282 0zm7.2396 -5.1384l5.4438 0 0 3.19 -5.4438 0 0 -3.19zm-3.1519 5.1384l4.6036 -13.0082 3.4573 0 4.1833 13.0082 -3.4766 0 -3.1134 -10.6587 1.3752 0 -3.5719 10.6587 -3.4575 0zm21.2983 0l-8.2137 0 0 -13.0082 3.4574 0 0 11.2699 -1.0697 -1.6236 5.826 0 0 3.3619zm3.2474 -4.8518l0 -3.3046 5.4247 0 0 3.3046 -5.4247 0zm-0.0574 -4.8518l1.3944 -1.5282 0 9.7036 -1.4899 -1.7764 6.5901 0 0 3.3046 -8.5576 0 0 -13.0082 8.5576 0 0 3.3046 -6.4946 0zm15.4915 3.2091l2.0629 0c0.5858,0 1.0283,-0.1338 1.3276,-0.4012 0.2992,-0.2675 0.4488,-0.6558 0.4488,-1.1652 0,-0.5221 -0.1496,-0.9168 -0.4488,-1.1843 -0.2993,-0.2674 -0.7418,-0.4012 -1.3276,-0.4012l-2.082 0 0.8404 -0.7449 0 10.3913 -3.4574 0 0 -13.0082 4.8136 0c1.0315,0 1.9356,0.1879 2.7124,0.5635 0.7768,0.3756 1.3817,0.9296 1.8147,1.6619 0.4329,0.7321 0.6495,1.6395 0.6495,2.7219 0,1.0824 -0.2166,1.9898 -0.6495,2.7219 -0.433,0.7323 -1.0379,1.2863 -1.8147,1.6619 -0.7768,0.3756 -1.6809,0.5635 -2.7124,0.5635l-2.1775 0 0 -3.3809zm7.7934 0c0,-0.9934 0.1592,-1.9039 0.4775,-2.7316 0.3184,-0.8277 0.7705,-1.544 1.3562,-2.1489 0.5858,-0.6049 1.2862,-1.0729 2.1012,-1.404 0.815,-0.3311 1.7192,-0.4967 2.7124,-0.4967 0.9933,0 1.9006,0.1656 2.722,0.4967 0.8213,0.3311 1.5281,0.7991 2.1203,1.404 0.5921,0.6049 1.0474,1.3212 1.3657,2.1489 0.3184,0.8277 0.4776,1.7382 0.4776,2.7316 0,0.9932 -0.1592,1.9037 -0.4776,2.7314 -0.3183,0.8278 -0.7736,1.5441 -1.3657,2.149 -0.5922,0.6048 -1.299,1.0697 -2.1203,1.3944 -0.8214,0.3247 -1.7287,0.4871 -2.722,0.4871 -0.9932,0 -1.8974,-0.1624 -2.7124,-0.4871 -0.815,-0.3247 -1.5154,-0.7896 -2.1012,-1.3944 -0.5857,-0.6049 -1.0378,-1.3212 -1.3562,-2.149 -0.3183,-0.8277 -0.4775,-1.7382 -0.4775,-2.7314zm3.5337 0c0,0.713 0.1306,1.3179 0.3916,1.8146 0.2611,0.4966 0.6272,0.8723 1.0984,1.1269 0.4712,0.2548 1.0123,0.3821 1.6236,0.3821 0.624,0 1.1716,-0.1273 1.6428,-0.3821 0.4712,-0.2546 0.8404,-0.6335 1.1079,-1.1364 0.2673,-0.5031 0.4011,-1.1112 0.4011,-1.8243 0,-0.7131 -0.1338,-1.318 -0.4011,-1.8146 -0.2675,-0.4966 -0.6367,-0.8724 -1.1079,-1.127 -0.4712,-0.2547 -1.0188,-0.3821 -1.6428,-0.3821 -0.6113,0 -1.1524,0.1306 -1.6236,0.3916 -0.4712,0.2611 -0.8373,0.64 -1.0984,1.1366 -0.261,0.4966 -0.3916,1.1015 -0.3916,1.8147zm10.8306 6.4945l0 -13.0082 4.8136 0c0.9551,0 1.8242,0.1815 2.6074,0.5444 0.7831,0.3629 1.4071,0.8978 1.8719,1.6045 0.4648,0.7068 0.6972,1.5823 0.6972,2.6264 0,1.0443 -0.2324,1.9198 -0.6972,2.6266 -0.4648,0.7067 -1.0888,1.2384 -1.8719,1.5949 -0.7832,0.3566 -1.6523,0.5349 -2.6074,0.5349l-2.1776 0 0 -3.3619 2.063 0c0.5858,0 1.0283,-0.1146 1.3275,-0.3438 0.2993,-0.2292 0.4489,-0.5795 0.4489,-1.0507 0,-0.4584 -0.1496,-0.8086 -0.4489,-1.0505 -0.2992,-0.242 -0.7417,-0.363 -1.3275,-0.363l-2.0821 0 0.8405 -0.7449 0 10.3913 -3.4574 0zm6.3418 0l-2.5597 -5.1957 3.7821 0 2.5597 5.1957 -3.7821 0zm12.0912 -4.3743l0 -3.3618 5.4248 0 0 3.3618 -5.4248 0zm1.1652 4.3743l-3.4574 0 0 -13.0082 8.5575 0 0 3.3618 -6.4945 0 1.3944 -1.5854 0 11.2318zm8.6912 -5.1384l5.4439 0 0 3.19 -5.4439 0 0 -3.19zm-3.1518 5.1384l4.6035 -13.0082 3.4574 0 4.1833 13.0082 -3.4766 0 -3.1135 -10.6587 1.3753 0 -3.5719 10.6587 -3.4575 0zm16.6375 0l-4.2597 -13.0082 3.5529 0 3.381 10.6587 -1.6427 0 3.4001 -10.6587 3.4573 0 -4.2596 13.0082 -3.6293 0zm8.2328 -6.4945c0,-0.9934 0.1592,-1.9039 0.4776,-2.7316 0.3183,-0.8277 0.7704,-1.544 1.3561,-2.1489 0.5858,-0.6049 1.2863,-1.0729 2.1013,-1.404 0.8149,-0.3311 1.7191,-0.4967 2.7123,-0.4967 0.9934,0 1.9007,0.1656 2.722,0.4967 0.8214,0.3311 1.5282,0.7991 2.1203,1.404 0.5921,0.6049 1.0474,1.3212 1.3658,2.1489 0.3183,0.8277 0.4775,1.7382 0.4775,2.7316 0,0.9932 -0.1592,1.9037 -0.4775,2.7314 -0.3184,0.8278 -0.7737,1.5441 -1.3658,2.149 -0.5921,0.6048 -1.2989,1.0697 -2.1203,1.3944 -0.8213,0.3247 -1.7286,0.4871 -2.722,0.4871 -0.9932,0 -1.8974,-0.1624 -2.7123,-0.4871 -0.815,-0.3247 -1.5155,-0.7896 -2.1013,-1.3944 -0.5857,-0.6049 -1.0378,-1.3212 -1.3561,-2.149 -0.3184,-0.8277 -0.4776,-1.7382 -0.4776,-2.7314zm3.5338 0c0,0.713 0.1306,1.3179 0.3916,1.8146 0.261,0.4966 0.6272,0.8723 1.0983,1.1269 0.4712,0.2548 1.0124,0.3821 1.6236,0.3821 0.624,0 1.1717,-0.1273 1.6428,-0.3821 0.4712,-0.2546 0.8405,-0.6335 1.1079,-1.1364 0.2674,-0.5031 0.4011,-1.1112 0.4011,-1.8243 0,-0.7131 -0.1337,-1.318 -0.4011,-1.8146 -0.2674,-0.4966 -0.6367,-0.8724 -1.1079,-1.127 -0.4711,-0.2547 -1.0188,-0.3821 -1.6428,-0.3821 -0.6112,0 -1.1524,0.1306 -1.6236,0.3916 -0.4711,0.2611 -0.8373,0.64 -1.0983,1.1366 -0.261,0.4966 -0.3916,1.1015 -0.3916,1.8147zm10.8305 6.4945l0 -13.0082 4.8137 0c0.955,0 1.8241,0.1815 2.6073,0.5444 0.7832,0.3629 1.4072,0.8978 1.872,1.6045 0.4648,0.7068 0.6972,1.5823 0.6972,2.6264 0,1.0443 -0.2324,1.9198 -0.6972,2.6266 -0.4648,0.7067 -1.0888,1.2384 -1.872,1.5949 -0.7832,0.3566 -1.6523,0.5349 -2.6073,0.5349l-2.1776 0 0 -3.3619 2.0629 0c0.5858,0 1.0283,-0.1146 1.3276,-0.3438 0.2993,-0.2292 0.4488,-0.5795 0.4488,-1.0507 0,-0.4584 -0.1495,-0.8086 -0.4488,-1.0505 -0.2993,-0.242 -0.7418,-0.363 -1.3276,-0.363l-2.082 0 0.8404 -0.7449 0 10.3913 -3.4574 0zm6.3418 0l-2.5597 -5.1957 3.7821 0 2.5597 5.1957 -3.7821 0z"/>
   <circle id="_378356440" class="fil3" cx="108.055" cy="103.385" r="81.25"/>
   <path id="_378356752" class="fil1" d="M139.392 107.799c0.3092,-5.6941 2.1403,-12.6107 4.6533,-17.5553 1.0381,-2.0426 1.5469,-2.8537 2.7082,-4.7607 0.1802,0.2018 0.2256,0.3443 0.2843,0.6727 0.049,0.2747 0.074,0.5591 0.1171,0.8405 0.5765,3.7752 0.4696,8.7341 -0.7847,12.2045 -0.7013,1.9404 -1.8797,3.4872 -2.9485,4.7795 -0.6286,0.7602 -3.2087,3.4751 -4.0297,3.8188zm-15.1972 -21.7983l-0.3336 1.0992c-0.2787,0.4495 -0.8154,2.6068 -0.8533,3.2044 -0.7224,1.6984 -1.4016,7.0865 -1.656,9.2743 -2.1145,18.1884 2.4947,38.791 10.0402,55.1027l3.6596 7.2912 -4.558 2.3453c-1.1957,0.3683 -1.5735,0.4323 -2.101,1.3339 -0.3694,0.6313 -0.693,1.5722 -0.6754,2.5202l25.1938 0.0111 -1.4658 -6.6776c-0.8498,-1.8682 -1.6501,-3.7924 -2.4021,-5.6921 -1.5434,-3.8992 -3.193,-7.686 -4.5235,-11.8023 -1.3738,-4.2505 -2.502,-8.3647 -3.449,-12.8772 -0.6841,-3.2593 -1.977,-11.1897 -1.8205,-14.3217l7.8687 -6.5609c2.1356,-2.2063 4.5885,-5.1379 5.8087,-8.6719 2.7573,-7.9855 1.4978,-17.2824 -1.1486,-24.833 -1.47,-4.1941 -2.535,-6.9245 -5.59,-8.8961 -3.3182,-2.1412 -7.9624,-2.0364 -11.2089,0.0761 -4.1992,2.7323 -9.5672,13.0263 -10.7853,18.0744zm-62.5622 50.5562c0.1915,0.3991 0.7756,0.9943 1.0869,1.3719 1.0384,1.2599 2.0721,2.7721 2.9053,4.2121 0.9567,1.6534 2.3174,4.5503 2.7148,6.664 -6.3333,0.0452 -5.43,-0.6901 -5.4303,3.3502 -0.0001,1.4727 -0.0005,2.9453 -0.0005,4.4179 0,1.2274 -0.2476,3.1091 0.3165,3.9064l4.7136 0.0829 -1.6966 4.0668c-0.5299,1.0996 -2.0842,3.2111 -2.2216,3.5342l1.0404 0.0213c10.292,0.1035 21.0203,-0.0025 31.3567,-0.0027 -2.3595,-2.4932 -4.6874,-5.3225 -5.1398,-8.9635 -1.2535,-10.0878 19.6786,-11.7025 19.9701,-22.6796 -15.805,-0.004 -34.099,-0.8658 -49.6155,0.0181zm17.0461 -17.1675c-0.0882,-1.5675 -0.1744,-3.0757 -0.2729,-4.6495 -0.1947,-3.1143 -0.3812,-6.2573 -0.5499,-9.3357 -0.179,-3.2628 0.0136,-6.3427 -2.8644,-7.1244 -0.9507,-0.2583 -3.6151,-0.133 -4.7753,-0.1302 -1.4329,0.0033 -3.3589,-0.2248 -4.505,0.4157 -2.423,1.3544 -2.0019,4.3761 -2.2175,7.7149 -0.187,2.8964 -1.7256,27.2906 -1.5668,28.0089 17.0589,-0.2327 17.4978,-1.6509 16.7518,-14.8997zm58.0244 -80.7452c-7.3872,1.0298 -12.1514,7.3077 -11.3007,14.2606 0.8017,6.5539 6.731,12.1746 14.3529,11.2218 6.4648,-0.8081 12.1215,-6.7897 11.1366,-14.3353 -0.5075,-3.8869 -2.447,-6.4832 -4.5128,-8.2718 -2.0862,-1.8062 -5.8359,-3.4106 -9.676,-2.8753zm-41.3713 92.9465c0.2908,-0.3587 1.9562,-2.5166 2.042,-2.7895l-1.014 -0.7482 -2.8715 3.5554 -12.7294 0.1582 0.105 2.8699c1.4688,0.1555 1.4776,0.1524 2.9764,0.1472l27.2482 -0.0015 1.2153 -0.0185 -2.2521 -2.6786c-1.3434,-0.6044 -2.798,-0.4618 -4.3638,-0.4618 -3.3073,0 -7.108,0.0646 -10.3561,-0.0326zm-8.8461 -11.4885c0.1477,-0.1786 0.0506,0.0311 0.1854,-0.3238 0.0598,-0.1571 0.0743,-0.2807 0.1208,-0.4731l4.7683 -17.8671 -5.7662 8.3733c-0.4952,1.8493 -0.9778,3.6853 -1.4736,5.5158 -0.7042,2.5997 -2.415,7.6182 -2.6809,10.0745 -0.8102,2.2453 0.6388,4.7036 2.078,5.235 0.2872,-0.5686 2.769,-10.1239 2.7682,-10.5346zm32.4711 -4.2387l-0.2985 -1.3379c-1.5762,0.2206 -3.1018,0.9147 -4.5157,1.2934 0.0705,0.5049 0.2629,1.0669 0.5015,1.3536l4.3127 -1.3091zm-12.0414 4.9579c1.1926,-0.492 2.5819,-1.6189 3.9659,-2.0218l-0.4861 -1.3218c-0.8198,0.1258 -3.5891,1.7194 -4.2201,2.1263l0.7403 1.2173zm-6.8984 5.2038c0.2045,-0.0804 3.4255,-2.7958 3.5664,-2.9543l-0.806 -1.1161 -3.5898 3.0795 0.8294 0.9909zm-27.1428 -28.6751c-0.4319,-2.0825 -3.8492,-2.0736 -4.3854,-0.0195l4.3854 0.0195z"/>
  </g>
 </g>
</svg>
