<?xml version="1.0" encoding="UTF-8"?>
<!DOCTYPE svg PUBLIC "-//W3C//DTD SVG 1.1//EN" "http://www.w3.org/Graphics/SVG/1.1/DTD/svg11.dtd">
<!-- Creator: CorelDRAW -->
<svg xmlns="http://www.w3.org/2000/svg" xml:space="preserve" width="100mm" height="100mm" style="shape-rendering:geometricPrecision; text-rendering:geometricPrecision; image-rendering:optimizeQuality; fill-rule:evenodd; clip-rule:evenodd"
viewBox="0 0 100 100"
 xmlns:xlink="http://www.w3.org/1999/xlink">
 <defs>
  <style type="text/css">
   <![CDATA[
    .fil7 {fill:#050105}
    .fil9 {fill:#90CCC4}
    .fil10 {fill:#B1AC8E}
    .fil11 {fill:#B4B5A8}
    .fil2 {fill:#DEDAC9}
    .fil5 {fill:#ECBC4C}
    .fil1 {fill:#F8E8A7}
    .fil3 {fill:#F8F5D5}
    .fil8 {fill:#FCBB29}
    .fil4 {fill:#FCF4B9}
    .fil6 {fill:#FEE17D}
    .fil0 {fill:#FF6600}
    .fil12 {fill:black;fill-rule:nonzero}
   ]]>
  </style>
 </defs>
 <g id="Capa_x0020_1">
  <metadata id="CorelCorpID_0Corel-Layer"/>
  <rect class="fil0" width="100" height="100"/>
  <g id="_343913328">
   <path id="_716780176" class="fil1" d="M57.8326 37.5068l0.202 0.2378c0.2461,-0.5153 1.2028,-1.0705 1.7321,-1.3168 0.5049,-0.235 1.8597,-0.9021 2.31,-0.9687l0.1831 0.4597 -0.248 -1.5248c-0.5559,0.5613 -0.1985,0.8081 -1.843,1.4744l-2.3588 1.0984 0.0226 0.54z"/>
   <path id="_716781664" class="fil1" d="M52.8794 75.3638l0.0107 -0.3066c-0.6484,-0.3853 -0.2683,-0.5702 -1.4083,-0.4155 0.0824,0.6661 0.2172,1.6932 0.8783,1.9908 0.3018,-0.343 0.4462,-0.827 0.5193,-1.2687z"/>
   <path id="_343913040" class="fil1" d="M50.7567 75.4188l-0.1529 -0.2027 -0.6965 0.0368c0.0477,0.7887 -0.169,1.6437 0.5644,2.2092 0.1647,-0.2079 0.4137,-0.7433 0.5333,-1.0259 0.1846,-0.4362 -0.0373,-0.6129 -0.2483,-1.0174z"/>
   <path id="_343920648" class="fil2" d="M37.201 58.5432c-1.0114,-1.8254 -2.2467,-4.6656 -2.2191,-6.7659l-0.7838 -0.7693c0.1938,2.0567 1.5245,5.4676 2.5001,7.3038 0.806,1.5169 2.9428,4.8442 4.2483,5.5635l-1.955 -2.6106c-0.6158,-0.8519 -1.2744,-1.79 -1.7905,-2.7215z"/>
   <path id="_343920384" class="fil2" d="M63.3348 35.1325c-0.2223,0.2925 -0.2373,0.5002 -0.227,0.8538 0.6678,0.02 0.964,-0.1566 1.0281,-0.8879l-0.8011 0.0341z"/>
   <path id="_547986744" class="fil2" d="M40.6102 33.2014c0.3013,-0.2217 0.4587,-0.4415 0.5046,-0.8258l-1.0115 0.0055c0.0604,0.4065 0.1406,0.6359 0.5069,0.8203z"/>
   <path id="_692477688" class="fil3" d="M39.934 21.5632c0.5592,2.1854 3.459,1.9064 2.7968,-0.5582 -0.6151,-2.2892 -3.4342,-1.9326 -2.7968,0.5582z"/>
   <path id="_343913256" class="fil3" d="M54.1561 22.0816c0.6176,-1.0199 -0.009,-3.07 -1.2583,-3.1098 -0.3415,0.6614 -0.2747,1.2644 -0.0307,1.9849 0.2333,0.6885 0.5136,1.2465 1.289,1.1249z"/>
   <path id="_343913688" class="fil3" d="M60.5838 46.1553c0.6363,0.8349 0.9411,0.4916 1.8938,0.8618 0.7506,0.2917 1.12,0.6735 1.752,0.9869 -0.4331,-1.0391 -2.4716,-1.9343 -3.6458,-1.8487z"/>
   <path id="_692497272" class="fil3" d="M54.8779 32.6636l0.6462 -0.5045c-0.0221,-0.0204 -0.0526,-0.0852 -0.0654,-0.0621l-0.9483 -0.23c0.0759,0.4063 0.0584,0.5071 0.3675,0.7966z"/>
   <path id="_343921656" class="fil4" d="M33.0573 38.7687l0.217 -0.1137c-0.5948,-0.3501 -0.5356,-0.746 -1.0032,-1.9365 -1.3173,-3.3538 -1.3309,-2.5953 -2.1521,-6.8019 -1.3243,-6.7845 1.7911,-12.4502 8.3371,-15.1317 2.4972,-1.0229 6.8568,-1.678 9.6285,-0.8936 0.8329,0.2356 0.4906,0.1033 0.5934,0.0031 -6.1614,-2.6261 -14.8896,-0.2064 -18.2207,5.4908 -3.028,5.179 -2.0067,10.164 0.1294,15.3559l1.4876 3.3254c0.2542,0.6255 0.2906,0.5952 0.983,0.7022z"/>
   <path id="_692497704" class="fil4" d="M47.226 71.6022l0.0325 -0.2406c-0.0739,-0.0395 -0.2161,-0.0981 -0.2967,-0.131 -1.2021,-0.4906 -2.5753,-2.0351 -3.0995,-3.3771 -0.0911,-0.2334 -0.0852,-0.5659 -0.1521,-0.8362 -0.054,-0.2186 -0.1789,-0.478 -0.2301,-0.6919 -0.231,-0.9649 -0.329,-2.3362 -0.3322,-3.3228 -0.0037,-1.1592 0.2471,-1.4429 -0.0042,-1.556 -1.406,1.4113 -1.4683,4.8942 -0.7671,6.7113 0.7717,2 2.7023,3.2368 4.8494,3.4443z"/>
   <path id="_692497032" class="fil4" d="M34.842 40.8248c-0.9659,-0.6024 -2.7985,-1.2406 -3.9268,-1.5678 -0.6559,-0.1902 -1.8729,-0.3002 -2.3578,-0.5126 -0.6409,-0.2808 -1.0314,-0.8332 -1.6016,-1.1444l-0.2329 0.0589 -0.0674 1.1765c1.772,0.3108 4.7726,0.7221 6.3559,1.3307 0.3307,0.127 1.5979,0.632 1.8306,0.6587z"/>
   <path id="_692496816" class="fil4" d="M64.8442 49.2684l0.1603 0.2392c1.1021,-1.3016 2.1834,0.0421 2.7833,0.267l0.5302 0.0928 0.1705 0.3872 0.8441 -0.5815c-0.2519,-0.1987 -0.432,-0.2298 -0.8104,-0.1893 -0.4012,0.0431 -0.2884,0.2073 -0.7309,-0.0146 0.279,-0.9795 0.0434,-0.5965 1.2895,-1.616l-1.8049 0.9706 0.6205 -1.4035 -3.0522 1.8481z"/>
   <path id="_692496504" class="fil4" d="M25.9611 40.8304c0.0069,-0.4614 0.0392,-0.3105 0.1013,-0.6902 -0.6482,-0.0387 -1.7897,-0.0195 -2.2963,0.4117l1.1076 1.1872 1.2652 -0.3347 -0.1778 -0.574z"/>
   <path id="_692496648" class="fil4" d="M48.2454 76.2231l0.3066 1.1914c0.5147,-0.254 0.6661,-0.9167 0.6493,-1.492l-0.1787 -0.2233c-0.3168,0.1827 -0.3795,0.1076 -0.7773,0.0679l0.0001 0.456z"/>
   <path id="_692496168" class="fil5" d="M50.7082 36.0807l0.3326 0.0129 0.1139 -0.6487 1.4864 0.7314c0.5888,0.4192 0.6322,0.4916 1.3907,0.9366l-0.2996 0.4097c-2.689,0.349 -2.3132,0.5065 -4.6228,0.0458 -0.7884,-0.1573 -0.6322,0.0619 -0.6666,0.1566l6.1689 -0.4253 -5.2338 -2.8721 1.5115 1.2065 -0.1812 0.4466z"/>
   <path id="_692496072" class="fil6" d="M44.9246 58.1806c0.1137,0.2277 0.0562,0.1789 0.3366,0.2009l0.0235 -0.3624c0.978,-0.448 2.7993,0.2567 3.6889,0.7202 1.2556,0.6542 1.7139,1.1292 2.626,2.0479l0.0573 -0.2733c1.3152,-0.1851 2.8694,0.0108 4.1328,-0.5994 2.1089,-1.0187 4.0071,-2.0781 5.2634,-4.3859 1.0241,-1.8813 0.7727,-1.4148 1.2251,-3.6025 0.4105,0.1442 0.4637,0.2736 0.6024,1.3184 0.0767,0.5781 0.1421,1.198 0.1286,1.7855 -0.033,1.4274 -0.6512,2.7391 -0.6386,3.1872 1.626,-2.2649 0.6473,-7.5836 -1.6085,-10.1202 -1.7873,-2.0097 -4.9854,-4.8945 -7.9602,-5.3151 -3.6377,-0.5143 -6.9085,1.6895 -8.4815,4.7371 -0.8721,1.6897 -1.0932,3.7515 -0.8469,5.6602 0.3608,2.7959 1.7524,4.4727 1.4511,5.0014z"/>
   <path id="_692495952" class="fil6" d="M25.2657 67.0941c-0.4354,0.5941 -1.2248,0.4 -1.9656,0.4009 -0.5837,0.0006 -1.9855,0.2188 -1.8171,-0.7125 0.1138,-0.6301 1.5287,-0.412 2.0269,-0.4108 0.8069,0.0019 1.7231,-0.2886 1.7558,0.7224zm-12.3 -1.5735l-1.0147 1.1182c0.0717,1.2977 0.6157,1.6669 1.769,1.9955l3.3614 -0.2054 -0.6689 -3.0779c0.4402,-0.3584 1.1423,0.9061 3.0115,-0.7726l0.7983 -0.5971c-0.0472,2.259 -0.0396,1.6963 0.8748,2.5884 0.2156,0.2103 0.1953,0.5084 0.3922,0.767 0.412,0.5412 1.289,0.3473 1.9157,0.3512 1.3132,0.0083 0.9136,0.0899 2.0221,-0.3605 0.1653,-0.9498 2.952,-2.324 3.8164,-2.8242l-0.2923 1.7669c0.5357,0.444 0.621,0.258 2.2171,0.155l0.5246 0.7392c0.4713,0.0496 3.1,0.1541 3.331,-0.0785 -0.864,-0.1398 -2.828,0.1602 -3.4441,-0.1943l-0.0858 -0.6358 0.4326 -0.2886 -4.0851 -5.1027c-1.2595,-0.5498 -2.5838,-0.6684 -3.9093,-0.2719 -1.9231,0.5754 -1.915,1.6254 -2.6254,1.8793l-2.2274 -2.063c-1.211,-0.8454 -4.9019,-0.6233 -5.3591,2.2239 -0.3301,2.055 1.1017,2.0856 1.4057,2.6758l-0.2017 0.519 -1.9586 -0.3069z"/>
   <path id="_692495760" class="fil6" d="M80.5426 51.544c-0.2529,0.5052 -0.0096,0.2642 -0.3845,0.7779 0.4646,0.4699 0.8209,1.0441 0.9704,1.7276 0.2498,1.1414 -0.1697,1.3618 -0.2508,2.2771l0.2332 0.1252 0.1419 0.3494c1.0406,-0.3469 0.7062,-0.2175 2.1405,-0.2798 -0.0544,0.669 -0.6295,0.5442 -0.6802,2.2838 -0.0379,1.3011 0.1402,1.4419 1.0682,2.0597 1.2249,0.8154 4.2541,0.3048 4.633,-0.7553l-0.1696 -0.2436c-0.0088,-1.2486 0.1259,-1.6863 -0.7729,-2.7043l-2.3809 -1.1671c-0.0994,-0.8816 0.5173,-0.7794 0.1026,-2.1175 -0.174,-0.5616 -0.5281,-1.1866 -0.9269,-1.5886 -0.9829,-0.991 -2.3862,-1.3064 -3.724,-0.7445z"/>
   <path id="_692495328" class="fil6" d="M76.4893 49.4739c-0.2745,0.3006 -1.0493,1.419 -1.2209,1.8072 -0.5871,1.3288 0.1351,1.5514 0.0743,2.3573l-1.2043 -0.6525 1.5035 3.4211 -0.6652 0.2658 0.0025 0.8264 -0.9282 -0.2786 1.5028 2.749 1.4601 -2.3807 0.8409 2.9025 2.3143 -3.2832 -0.8239 0.2342 0.6062 -3.568 -0.4048 0.5204 -0.673 -1.534c-0.693,-1.4706 -1.3773,-2.1755 -2.3843,-3.3869z"/>
   <path id="_692493864" class="fil6" d="M17.8056 29.503c-0.1018,0.5675 -0.3749,0.9587 -0.3044,1.4875 0.1722,1.2927 1.2069,2.5418 2.6011,2.9408 1.0118,0.2895 2.2299,0.2616 3.2488,-0.0146 1.028,-0.2787 1.4774,-0.8885 2.2527,-1.5036l-0.3693 -0.6101c0.036,-1.5212 -1.459,-2.9068 -2.7981,-3.3921 -1.5259,-0.5531 -3.6011,-0.1332 -4.6308,1.0921z"/>
   <path id="_692493384" class="fil6" d="M77.3979 41.1498l0.1345 0.181 1.8151 -0.184c0.2884,0.5607 -0.0373,1.428 1.329,1.202l1.6878 -0.9558c0.8618,-0.217 1.0745,0.8644 4.1184,-0.744l0.0016 1.2368 1.5642 0.0552c0.0955,-0.1051 0.5519,-0.7702 0.6114,-0.89l-0.3772 -0.0146 -0.461 -1.6273c-0.8935,-2.5619 -4.4087,-3.848 -6.4232,-1.7108 -1.2417,1.3172 -0.425,2.1116 -0.7173,3.058l-3.2833 0.3935z"/>
   <path id="_692492952" class="fil7" d="M61.6037 61.1418c0.432,0.1322 1.1584,0.7661 1.6245,1.055 0.5887,0.3648 1.1557,0.6569 1.7648,0.9682 1.2956,0.662 2.7529,0.9482 4.1461,1.2901 -2.0645,0.0143 -5.2574,-1.1937 -6.9686,-2.549 -0.4487,-0.3553 -0.5994,-0.2525 -0.5668,-0.7643zm-8.4412 5.0844c3.8548,-1.4955 1.9001,-1.2287 5.5068,-0.0086 1.0136,0.3429 2.0944,0.5926 3.1526,0.7733 2.1545,0.3681 5.0549,0.7567 7.1758,0.2142 3.0607,-1.6324 5.7264,-4.0243 7.9109,-7.3417 0.1908,2.4192 -0.9909,4.5648 -2.5197,6.2843 -4.5192,5.0828 -15.0999,3.4915 -20.6346,0.7073 -0.4308,-0.2167 -0.525,-0.2041 -0.5918,-0.6288zm23.3268 -16.7523c1.007,1.2114 1.6913,1.9163 2.3843,3.3869l0.673 1.534 0.4048 -0.5204 -0.6062 3.568 0.8239 -0.2342 -2.3143 3.2832 -0.8409 -2.9025 -1.4601 2.3807 -1.5028 -2.749 0.9282 0.2786 -0.0025 -0.8264 0.6652 -0.2658 -1.5035 -3.4211 1.2043 0.6525c0.0608,-0.8059 -0.6614,-1.0285 -0.0743,-2.3573 0.1716,-0.3882 0.9464,-1.5066 1.2209,-1.8072zm-42.2912 1.5341l0.7838 0.7693c-0.0276,2.1003 1.2077,4.9405 2.2191,6.7659 0.5161,0.9315 1.1747,1.8696 1.7905,2.7215l1.955 2.6106c-1.3055,-0.7193 -3.4423,-4.0466 -4.2483,-5.5635 -0.9756,-1.8362 -2.3063,-5.2471 -2.5001,-7.3038zm34.1199 -1.1406l-0.5116 0.0377 0.3267 1.2646c-1.0624,2.3454 -0.5271,2.1905 -0.7965,4.4878 -0.3842,0.9056 -1.2635,1.4482 -2.9957,1.3653 0.7423,-0.2792 1.4997,-0.1334 1.8249,-1.2004 0.5849,-1.9184 -1.7616,-3.036 -2.0065,-4.1796 -0.1542,-0.7196 0.1427,-1.8973 0.6849,-2.3744l3.0522 -1.8481 -0.6205 1.4035 1.8049 -0.9706c-1.2461,1.0195 -1.0105,0.6365 -1.2895,1.616 0.4425,0.2219 0.3297,0.0577 0.7309,0.0146 0.3784,-0.0405 0.5585,-0.0094 0.8104,0.1893l-0.8441 0.5815 -0.1705 -0.3872zm-7.7342 -3.7121c1.1742,-0.0856 3.2127,0.8096 3.6458,1.8487 -0.632,-0.3134 -1.0014,-0.6952 -1.752,-0.9869 -0.9527,-0.3702 -1.2575,-0.0269 -1.8938,-0.8618zm-2.7512 -8.6485l-0.0226 -0.54 2.3588 -1.0984c1.6445,-0.6663 1.2871,-0.9131 1.843,-1.4744l0.248 1.5248 -0.6217 1.0338c0.3867,0.189 0.988,-0.2721 1.8976,-0.1131l1.4968 0.9848c-1.1063,0.6464 -2.6254,-0.0143 -5.6569,3.8694l-1.4777 1.8687 -3.135 -2.2761c0.1886,-0.2939 1.4925,-0.9739 1.9445,-1.424 0.6784,-0.6754 1.1021,-1.331 1.1252,-2.3555zm6.3033 -2.4084c-0.0641,0.7313 -0.3603,0.9079 -1.0281,0.8879 -0.0103,-0.3536 0.0047,-0.5613 0.227,-0.8538l0.8011 -0.0341zm-15.6931 2.6266c-1.1698,-0.2533 -4.9966,-1.6227 -5.4654,-2.6948 1.3438,-0.6381 2.718,-0.8578 4.207,-0.51 1.3597,0.3176 2.6188,1.4024 3.5238,1.5605l0.1812 -0.4466 -1.5115 -1.2065 5.2338 2.8721 -6.1689 0.4253zm-7.8326 -4.5236c-0.3663,-0.1844 -0.4465,-0.4138 -0.5069,-0.8203l1.0115 -0.0055c-0.0459,0.3843 -0.2033,0.6041 -0.5046,0.8258zm14.2677 -0.5378c-0.3091,-0.2895 -0.2916,-0.3903 -0.3675,-0.7966l0.9483 0.23c0.0128,-0.0231 0.0433,0.0417 0.0654,0.0621l-0.6462 0.5045zm-0.362 -7.7433c0.1404,-0.2593 0.1337,-0.2542 0.4298,-0.3881l0.1516 0.6639c-0.3685,-0.0872 -0.3376,-0.0521 -0.5814,-0.2758zm-0.3598 -2.8387c-0.7754,0.1216 -1.0557,-0.4364 -1.289,-1.1249 -0.244,-0.7205 -0.3108,-1.3235 0.0307,-1.9849 1.2493,0.0398 1.8759,2.0899 1.2583,3.1098zm0.5125 16.1234c2.1195,-0.8378 0.512,-2.4772 -0.4345,-3.4184l0.1184 -0.624c0.8173,0.4924 1.8246,1.7218 2.252,2.662 0.0972,2.0945 -0.9452,2.6972 -2.7464,3.446 -2.4979,1.0384 -5.0088,0.2695 -5.6105,0.689 2.2814,1.1922 1.1337,0.7972 4.2472,0.8268 -2.1005,0.405 -3.5655,0.4925 -5.4285,1.6542 -3.2251,2.011 -4.7608,5.8716 -4.2978,9.6409 0.1524,1.2411 0.8876,4.3046 1.833,5.0875l0.3231 0.0116c0.3013,-0.5287 -1.0903,-2.2055 -1.4511,-5.0014 -0.2463,-1.9087 -0.0252,-3.9705 0.8469,-5.6602 1.573,-3.0476 4.8438,-5.2514 8.4815,-4.7371 2.9748,0.4206 6.1729,3.3054 7.9602,5.3151 2.2558,2.5366 3.2345,7.8553 1.6085,10.1202 -0.2816,1.2555 -2.6848,3.6777 -3.7077,4.3753 -1.1953,0.8151 -4.1148,2.5826 -5.5125,2.5649 -0.1705,-2.2919 -0.4802,-2.5195 -1.5508,-4.3702 -0.9121,-0.9187 -1.3704,-1.3937 -2.626,-2.0479 -0.8896,-0.4635 -2.7109,-1.1682 -3.6889,-0.7202l-0.0235 0.3624c2.1893,0.6415 4.1592,0.6403 6.1008,3.3622l-0.5736 0.2073 0.6415 1.6674c1.124,2.8991 -0.7443,4.7067 -0.3658,5.8217l0.9813 -0.456 0.834 6.3797c-0.0731,0.4417 -0.2175,0.9257 -0.5193,1.2687 -0.6611,-0.2976 -0.7959,-1.3247 -0.8783,-1.9908l-0.5874 0.063c-0.2036,0.3884 -0.1405,0.3063 -0.1377,0.7141 0.211,0.4045 0.4329,0.5812 0.2483,1.0174 -0.1196,0.2826 -0.3686,0.818 -0.5333,1.0259 -0.7334,-0.5655 -0.5167,-1.4205 -0.5644,-2.2092 -0.2939,-0.1708 -0.1694,-0.1699 -0.5276,-0.1112 -0.229,0.341 -0.1659,0.3603 -0.1784,0.7808 0.0168,0.5753 -0.1346,1.238 -0.6493,1.492l-0.3066 -1.1914c-0.1756,-0.4703 -0.223,-1.6735 -0.1879,-2.2093 0.0432,-0.6591 0.343,-1.3994 0.2763,-1.9787 -0.3937,-0.3368 -0.7133,-0.2193 -1.1078,-0.4329 -2.1471,-0.2075 -4.0777,-1.4443 -4.8494,-3.4443 -0.7012,-1.8171 -0.6389,-5.3 0.7671,-6.7113l0.1105 -0.6115 -1.8895 1.8604 -3.5392 -4.6756c-0.9708,-1.853 -1.8355,-3.8312 -2.1819,-5.9279l0.378 -0.3856 -1.1813 -1.5047 1.6827 -0.0001 -1.1266 -1.2909 -4.2021 -2.7194c-3.0112,-1.7512 -3.3242,-2.2672 -7.0522,-2.2938l2.1759 -2.2473 0.9895 -0.3639 -1.3464 -0.4559 0.1778 0.574 -1.2652 0.3347 -1.1076 -1.1872c0.5066,-0.4312 1.6481,-0.4504 2.2963,-0.4117l0.4496 -0.0401c0.133,-0.282 0.1685,-2.0552 0.215,-2.5268l0.2288 0.0267c0.5702,0.3112 0.9607,0.8636 1.6016,1.1444 0.4849,0.2124 1.7019,0.3224 2.3578,0.5126 1.1283,0.3272 2.9609,0.9654 3.9268,1.5678 0.6286,0.229 1.3059,1.0282 1.9423,0.9227l0.251 -0.2492c-0.0163,-1.2958 -3.1717,-2.1636 -3.978,-2.7296 -0.6924,-0.107 -0.7288,-0.0767 -0.983,-0.7022l-1.4876 -3.3254c-2.1361,-5.1919 -3.1574,-10.1769 -0.1294,-15.3559 3.3311,-5.6972 12.0593,-8.1169 18.2207,-5.4908 1.7451,0.4614 4.1069,2.6239 4.8101,4.1951 -1.4402,0.4138 -1.6832,1.7395 -1.1736,3.6388 0.1795,0.9876 0.7418,3.4224 1.6983,3.8308 0.928,0.3963 2.8444,0.3751 4.2172,1.3563 1.2436,0.8888 1.5235,2.7021 0.0706,3.5318 -2.8484,1.6264 -3.7384,-0.9838 -9.4596,1.0276 -4.0055,1.4083 -5.6883,0.1735 -9.5396,-0.2316l0.4289 -0.4177 -0.0714 -0.4398 -2.2216 2.0138 0.5503 0.1534 0.5655 -0.45 6.4205 5.6561c1.5521,0.6672 2.9496,1.1232 4.6707,1.2748 1.1813,0.1041 4.1524,0.0007 5.0243,-0.8288zm-36.863 -8.702c1.0297,-1.2253 3.1049,-1.6452 4.6308,-1.0921 1.3391,0.4853 2.8341,1.8709 2.7981,3.3921l0.2067 0.403c1.1552,0.0198 1.2933,-0.4506 2.6173,0.0138 0.7154,0.251 0.6693,0.7514 1.1196,1.8251l1.7786 3.9954c-3.3314,-0.5388 -1.6454,-0.2472 -3.4566,-1.4788 -1.9484,-1.3249 -1.8217,1.8662 -2.0988,2.3028 -0.5877,0.459 -2.2449,0.3924 -2.7755,1.1133l1.3325 2.3578 -1.3574 2.2916c1.2811,1.1185 2.4475,-0.4955 5.835,1.9107l4.5136 3.3443c0.4956,3.0658 1.4137,6 2.824,8.7318l4.9985 6.6231c0.0506,2.1161 0.3394,3.5196 1.6382,5.1988 1.1477,1.4837 2.8193,1.8391 4.5162,2.4284 -0.0344,1.6903 -0.171,0.6914 0.0156,2.8713 -1.2566,0.1246 -17.6447,0.0317 -19.3406,0.031 -3.2522,-0.0014 -6.5044,-0.0015 -9.7566,-0.003 -1.6086,-0.0008 -3.2172,0.0034 -4.8259,0.0013 -2.5922,-0.0034 -2.0934,-0.0419 -4.6304,0.322l0.0253 0.4493c0.4601,0.5447 1.4276,0.321 2.0873,0.3175 0.8045,-0.0044 1.6085,0.0034 2.4129,0.0039l34.2979 0.0166 1.6924 1.9325 0.7282 -0.7944 1.4625 0.8544 0.5198 -1.3929 1.2698 0.3077c0.3879,-0.3171 0.4028,-0.5987 0.6241,-0.7783 0.222,-0.3571 1.8372,-0.1543 2.3134,-0.1531l12.3793 0.0015c2.6155,0.0007 2.0733,0.0481 4.6452,-0.3157l-0.0393 -0.5131c-0.2083,-0.4325 -8.2935,-0.2592 -9.2219,-0.2593l-9.4916 -0.0149c-0.0081,-0.3085 1.2285,-3.5272 -0.0341,-6.0612l-0.8708 -1.535c2.2151,0.6113 2.3626,1.3412 6.7205,2.1039 3.034,0.531 5.2516,0.4817 8.2915,0.197 2.4583,-0.6086 4.3581,-0.9502 6.2638,-2.747 1.4985,-1.7367 2.5127,-3.7815 3.1911,-6.0401 1.1357,-0.2258 2.1536,-0.564 2.8454,-1.5744 0.6152,-0.8984 1.0277,-2.6282 0.6097,-3.6398l-0.2332 -0.1252c0.0811,-0.9153 0.5006,-1.1357 0.2508,-2.2771 -0.1495,-0.6835 -0.5058,-1.2577 -0.9704,-1.7276 -1.1461,-0.4593 -1.0236,-1.2668 -1.2904,-3.0213l-1.1189 0.7868c-0.2822,-0.5837 -0.2455,-1.224 -0.6173,-1.8887l-1.5661 -0.8174c-0.3623,0.4927 0.6245,0.7202 -0.3563,2.171 -0.1988,0.2941 -0.4375,0.527 -0.6312,0.8401 -0.209,0.3378 -0.3377,0.7828 -0.5068,1.0515 -0.1095,0.1738 -1.0698,0.9595 -1.0469,2.0078l0.4126 2.6269c-0.5453,0.9291 -0.5889,1.8826 -0.2068,2.9407l1.6471 1.8851c-0.4639,1.6021 -4.3813,2.9032 -6.3458,2.2815l-5.9896 -2.9153 1.1486 -1.9518c1.2327,0.1838 2.134,0.567 3.3797,-0.125 2.8211,-1.5673 0.1923,-4.4816 2.7065,-7.5698l0.8571 -1.2596 -0.865 -0.7344 0.3103 -1.464 -1.1762 -0.2867c-0.5164,-1.2225 -2.8601,0.0563 -3.6387,0.3997 -2.7647,-2.0679 -0.8937,-1.4817 -5.7939,-2.2157 0.0745,-0.7674 2.1546,-3.5285 2.7511,-4.1963 1.2708,-1.4222 2.4582,-1.7178 4.4064,-2.6195l-1.7991 -2.1018 0.4489 -1.7081 -2.1592 -0.3292 -0.6691 -1.3302 -0.6471 0.0238c-0.6752,0.5405 -0.9192,1.6505 -1.685,1.9756 -1.2187,0.5175 -1.1246,0.3936 -2.6163,1.1245 -0.9401,-1.2514 -0.7165,-0.9912 -1.7956,-2.1693 0.138,-0.271 0.8351,-1.0098 1.0884,-1.3355 0.6281,-0.8077 3.8802,-0.813 3.7313,-3.8086 -0.0678,-1.3628 -0.9796,-2.2231 -2.0804,-2.8301 -2.0244,-1.1162 -1.8185,-0.2197 -2.326,-2.7259 -0.5134,-2.5348 -1.0462,-5.2153 -2.7608,-7.1899 -7.0562,-8.1258 -26.1897,-4.0331 -25.832,10.861 0.042,1.7503 0.3067,2.7497 0.6439,4.4254l-1.9319 -0.1698c-0.5613,-0.85 -0.6294,-1.7439 -2.0195,-2.7598 -1.0547,-0.7709 -2.4008,-1.1471 -3.7202,-1.0201 -1.7208,1.0916 -3.4418,0.8051 -5.1627,4.3809 -1.1347,-0.0984 -2.4852,-0.903 -4.6947,0.1049 -1.9599,0.8941 -2.1902,2.2561 -2.715,2.7536l-2.9255 1.7804c0.6215,0.4295 0.9468,-0.1171 1.6166,-0.374l1.9657 -0.301c0.5845,-0.402 0.5812,-2.1924 2.6256,-2.9726 1.8182,-0.6939 2.9798,-0.1665 4.7248,0.3058 0.3537,-0.5248 0.3968,-1.2368 0.732,-1.8739 0.247,-0.4691 0.7429,-1.2119 1.1409,-1.4806z"/>
   <path id="_692492976" class="fil7" d="M78.6544 30.7621l0.7542 0.116 0.868 -2.6761 3.1131 -0.0023 0.8025 2.6513 0.7771 -0.1711 -0.4731 -2.7912 2.3792 -1.1111c0.3853,0.2657 1.0005,0.8755 1.3409,1.2091l1.5273 1.0926 0.3607 -0.4884 -2.2849 -2.6214c1.0925,-1.3223 0.9281,-1.1426 1.7837,-2.6157l3.1358 0.7804 0.3084 -0.6876 -3.0314 -1.1441 0.155 -3.4197 2.9892 -0.8867c0.0411,-1.0664 -0.9267,-0.6058 -1.6682,-0.5122l-1.5741 0.2546c-0.7038,-1.8764 -0.5671,-1.4588 -1.65,-3.2042 1.2314,-1.514 0.4675,-0.1054 2.0759,-2.639 -0.8207,-0.4817 -0.9582,0.0859 -1.5264,0.5937l-1.3124 1.1924c-0.4273,-0.1488 -0.8399,-0.5747 -1.2629,-0.8235l-1.3691 -0.7366 0.5604 -3.0948 -0.6561 -0.0467 -0.9477 2.8325 -3.0388 -0.0769 -0.9706 -2.9264 -0.3944 -0.0093 -0.2923 0.2839 0.4645 2.9155 -2.4791 1.1126 -2.7328 -2.0494c-0.442,0.7315 0.584,1.3882 1.0765,1.9817 0.623,0.7507 1.0194,1.3854 2.2746,1.068 0.9249,-0.2338 2.4419,-1.6895 5.3365,-1.1397 3.5852,0.681 6.1797,3.6806 6.0261,7.4385 -0.2039,4.9892 -5.3443,7.9 -9.7965,6.2114 -2.0263,-0.7685 -2.4988,-2.5335 -4.3997,-0.4544l-1.4608 1.9271 0.3241 0.2425 2.6176 -2.0917c0.4002,0.1486 0.948,0.6169 1.3726,0.8695l1.4405 0.7426c-0.1744,0.9766 -0.584,1.9596 -0.5431,2.9043z"/>
   <path id="_692493240" class="fil7" d="M39.1414 25.6696c0.7323,0.3406 0.9803,1.3185 2.3064,1.415l2.4027 -1.4393c0.399,-0.013 1.0792,0.0172 1.2967,0.404l0.0463 1.672 -5.675 0.493c-0.4916,-0.5106 -1.0445,-2.0141 -0.3771,-2.5447zm0.7926 -4.1064c-0.6374,-2.4908 2.1817,-2.8474 2.7968,-0.5582 0.6622,2.4646 -2.2376,2.7436 -2.7968,0.5582zm6.1478 3.3875l-0.501 -1.9483c-0.6501,-1.7169 -1.6977,-4.0361 -3.6485,-4.5437 -2.5129,-0.6539 -4.0118,1.7351 -4.3441,3.8648 -0.2163,1.3863 -0.0429,6.0461 1.5484,6.4773l7.1425 -0.7031c0.127,-0.9296 0.0198,-2.2326 -0.1973,-3.147z"/>
   <path id="_692492184" class="fil7" d="M12.9657 65.5206l1.9586 0.3069 0.2017 -0.519c-0.304,-0.5902 -1.7358,-0.6208 -1.4057,-2.6758 0.4572,-2.8472 4.1481,-3.0693 5.3591,-2.2239l2.2274 2.063c0.7104,-0.2539 0.7023,-1.3039 2.6254,-1.8793 1.3255,-0.3965 2.6498,-0.2779 3.9093,0.2719l4.0851 5.1027 -0.4326 0.2886 0.0858 0.6358c0.6161,0.3545 2.5801,0.0545 3.4441,0.1943l0.6838 0.0376 0.2651 -0.344 -2.9282 -0.8416c-0.6728,-2.4674 -1.9433,-4.4563 -4.1803,-5.6721 -1.7681,-0.9611 -4.3354,-1.249 -6.0112,-0.338l-1.5463 0.9448c-4.1472,-3.9687 -7.7847,-0.6618 -8.068,0.1467l-0.3758 3.4798c-1.1139,0.1063 -2.1652,0.6155 -2.981,1.3464l-1.2765 2.9703 0.6259 0.0429c0.4655,-0.1452 0.6309,-2.8877 3.7343,-3.338z"/>
   <path id="_692491896" class="fil7" d="M77.3979 41.1498l3.2833 -0.3935c0.2923,-0.9464 -0.5244,-1.7408 0.7173,-3.058 2.0145,-2.1372 5.5297,-0.8511 6.4232,1.7108l0.461 1.6273 0.3772 0.0146c1.334,-0.4047 1.9506,-0.91 3.5246,-0.4577 0.6542,0.188 1.9432,1.2851 2.5848,1.763 0.8839,-0.837 -1.0067,-2.1853 -1.7258,-2.5176l-4.0281 -0.0541c-0.7069,-2.1669 -2.1021,-3.9552 -4.5551,-4.1447 -1.7445,0.8241 -4.0192,-0.3671 -4.8834,3.8008l-3.7294 2.4738 0.734 0.275c0.3521,-0.4153 0.3944,-0.7797 0.8164,-1.0397z"/>
   <path id="_692491200" class="fil7" d="M90.4335 76.8541c0.6377,-0.0033 1.5983,0.2733 2.1045,-0.2992l0.0045 -0.4388 -0.9849 -0.3462c-0.5273,-0.0908 -7.5291,-0.0295 -7.8632,0.0509 -0.1555,0.3838 -0.1486,0.2397 -0.1429,0.7352l2.1748 0.2958c0.9194,0.0634 3.6255,0.008 4.7072,0.0023z"/>
   <path id="_692490264" class="fil7" d="M11.3991 70.661c0.4188,0.6354 1.5499,0.3683 2.2493,0.3701l5.0357 -0.0023c0.7534,-0.0022 1.6128,0.2109 2.0585,-0.3678l-1.9536 -0.7149 -5.4553 0.0055c-0.8609,0.0008 -1.8962,-0.3137 -1.9346,0.7094z"/>
   <path id="_692489904" class="fil7" d="M18.9988 38.7876c0.7576,-0.0029 1.4373,0.1636 1.9813,-0.3164l-0.1509 -0.6888c-1.1768,-0.0285 -7.7818,-0.3475 -8.4221,0.0823l-0.0871 0.6496c2.6533,0.1677 4.0331,0.2835 6.6788,0.2733z"/>
   <path id="_692489856" class="fil7" d="M84.0456 63.1862l-0.0051 0.5712c0.642,0.5134 2.3864,0.2595 3.2545,0.2606l3.6642 -0.0109 0.3771 -0.7626 -0.2855 -0.3022c-0.9069,-0.1442 -2.6546,-0.0495 -3.6509,-0.05 -0.89,-0.0005 -2.7079,-0.2318 -3.3543,0.2939z"/>
   <path id="_692490120" class="fil7" d="M72.1886 22.0099c-0.0378,0.0406 -1.1159,0.5099 -1.3538,0.6484l0.0103 0.6425c1.4211,-0.2885 2.0438,-0.2558 3.0035,-0.9023 0.3526,-0.2375 0.3949,-0.0323 0.8674,-0.4852l-0.1181 -2.4509c0.05,-0.71 0.3922,-1.5102 0.1904,-2.1741l-0.6652 -0.0807 -0.5156 4.3239 -1.4189 0.4784z"/>
   <path id="_692488896" class="fil7" d="M79.0475 66.5695c0.3977,0.5471 0.7587,0.3733 1.4284,0.3708l3.7768 -0.0058 1.4179 -0.365c0.0478,-1.0678 -1.2604,-0.7351 -3.3063,-0.735 -0.6643,0 -1.3291,0.0038 -1.9933,-0.0016 -0.7378,-0.0059 -1.3316,-0.1642 -1.3235,0.7366z"/>
   <path id="_692489160" class="fil7" d="M87.1048 45.7978c0.8351,0.7774 3.5047,0.09 4.5714,-0.1088l-0.0203 -0.4057c-0.5023,-0.571 -1.7336,-0.2993 -2.4725,-0.3 -0.9324,-0.0008 -2.1821,-0.3593 -2.0786,0.8145z"/>
   <path id="_692488272" class="fil7" d="M79.0005 45.2705c-0.1709,1.1461 1.0804,0.8582 1.8951,0.8544l2.3612 -0.3273c-0.0347,-1.0224 -0.1356,-0.8052 -2.3612,-0.8087 -0.6262,-0.001 -1.4202,-0.1805 -1.8951,0.2816z"/>
   <path id="_692485584" class="fil7" d="M23.5099 66.3717c-0.4982,-0.0012 -1.9131,-0.2193 -2.0269,0.4108 -0.1684,0.9313 1.2334,0.7131 1.8171,0.7125 0.7408,-0.0009 1.5302,0.1932 1.9656,-0.4009 -0.0327,-1.011 -0.9489,-0.7205 -1.7558,-0.7224z"/>
   <path id="_692484816" class="fil7" d="M72.0316 43.7679c0.643,0.5049 0.9782,-0.3125 1.5566,-0.6648l1.9079 -0.5909 -0.0139 -0.6552c-0.8095,-0.6433 -3.8846,0.6486 -3.4506,1.9109z"/>
   <path id="_692484360" class="fil7" d="M80.5426 51.544c1.3378,-0.5619 2.7411,-0.2465 3.724,0.7445 0.3988,0.402 0.7529,1.027 0.9269,1.5886 0.4147,1.3381 -0.202,1.2359 -0.1026,2.1175l2.3809 1.1671c0.8988,1.018 0.7641,1.4557 0.7729,2.7043l0.1696 0.2436c0.7561,0.2708 1.3768,-0.369 2.5929,0.3374l1.5327 1.7082 0.4222 -0.0038c0.7854,-0.6144 -0.3388,-1.7348 -0.8453,-2.1885l-2.7691 -0.9975 -2.9894 -3.7087c-1.3358,-4.802 -3.574,-5.3251 -6.3893,-4.0082 0.2129,0.2862 0.2052,0.3063 0.5736,0.2955z"/>
   <path id="_692484384" class="fil7" d="M37.1265 70.6209c0.4405,-0.4452 0.3999,-0.5528 0.0344,-1.0083l-2.9258 -0.0135c-0.2328,0.4203 -0.1826,0.2378 -0.1948,0.7359 1.0412,0.2599 1.9145,0.5376 3.0862,0.2859z"/>
   <path id="_692484672" class="fil7" d="M71.0463 16.2304l3.6514 1.3323 -0.0433 -0.2906c-0.3433,-0.4859 -1.6841,-1.1389 -2.2197,-1.4098 -0.6565,-0.332 -1.3663,-0.7496 -1.3884,0.3681z"/>
   <path id="_692484240" class="fil7" d="M51.4972 28.5659c-0.3221,0.5935 0.6172,1.0102 1.0937,0.7905 0.3545,-0.5962 -0.5773,-1.0391 -1.0937,-0.7905z"/>
   <path id="_692483856" class="fil7" d="M9.086 54.3611c0.3051,0.3191 0.2341,0.2743 0.6867,0.2611 0.3667,-0.3427 0.4253,-0.4556 0.1521,-0.9041 -0.6363,-0.2097 -0.9666,-0.0421 -0.8388,0.643z"/>
   <path id="_716779624" class="fil7" d="M56.9296 29.1602c0.6116,0.1135 1.0103,-0.4473 0.824,-1.0279 -0.7017,-0.2937 -1.0479,0.4262 -0.824,1.0279z"/>
   <path id="_692484072" class="fil7" d="M10.9889 54.4312l0.573 0.1874c0.4478,-0.2789 0.5835,-0.5071 0.1752,-0.9618l-0.5972 0.0259c-0.2162,0.2416 -0.2554,0.4092 -0.151,0.7485z"/>
   <path id="_692483904" class="fil8" d="M51.5996 60.7872c1.0706,1.8507 1.3803,2.0783 1.5508,4.3702 1.3977,0.0177 4.3172,-1.7498 5.5125,-2.5649 1.0229,-0.6976 3.4261,-3.1198 3.7077,-4.3753 -0.0126,-0.4481 0.6056,-1.7598 0.6386,-3.1872 0.0135,-0.5875 -0.0519,-1.2074 -0.1286,-1.7855 -0.1387,-1.0448 -0.1919,-1.1742 -0.6024,-1.3184 -0.4524,2.1877 -0.201,1.7212 -1.2251,3.6025 -1.2563,2.3078 -3.1545,3.3672 -5.2634,4.3859 -1.2634,0.6102 -2.8176,0.4143 -4.1328,0.5994l-0.0573 0.2733z"/>
   <path id="_692483520" class="fil8" d="M64.8442 49.2684c-0.5422,0.4771 -0.8391,1.6548 -0.6849,2.3744 0.2449,1.1436 2.5914,2.2612 2.0065,4.1796 -0.3252,1.067 -1.0826,0.9212 -1.8249,1.2004 1.1979,0.0319 2.6905,0.7849 2.9957,-1.3653 0.2694,-2.2973 -0.2659,-2.1424 0.7965,-4.4878l-0.3267 -1.2646 0.5116 -0.0377 -0.5302 -0.0928c-0.5999,-0.2249 -1.6812,-1.5686 -2.7833,-0.267l-0.1603 -0.2392z"/>
   <path id="_692483784" class="fil9" d="M39.1414 25.6696c-0.6674,0.5306 -0.1145,2.0341 0.3771,2.5447l5.675 -0.493 -0.0463 -1.672c-0.2175,-0.3868 -0.8977,-0.417 -1.2967,-0.404l-2.4027 1.4393c-1.3261,-0.0965 -1.5741,-1.0744 -2.3064,-1.415z"/>
   <path id="_692498424" class="fil10" d="M63.2282 62.1968c-0.4661,-0.2889 -1.1925,-0.9228 -1.6245,-1.055 -0.0326,0.5118 0.1181,0.409 0.5668,0.7643 1.7112,1.3553 4.9041,2.5633 6.9686,2.549 -1.3932,-0.3419 -2.8505,-0.6281 -4.1461,-1.2901 -0.6091,-0.3113 -1.1761,-0.6034 -1.7648,-0.9682z"/>
   <path id="_692498616" class="fil11" d="M54.5159 24.9203c0.2438,0.2237 0.2129,0.1886 0.5814,0.2758l-0.1516 -0.6639c-0.2961,0.1339 -0.2894,0.1288 -0.4298,0.3881z"/>
   <g>
    <path id="_343925328" class="fil12" d="M9.7041 88.7607c0.0231,0.0799 0.042,0.1851 0.061,0.3176 0.0168,0.1325 0.0357,0.2776 0.0546,0.4374 0.019,0.1577 0.0421,0.3197 0.0694,0.4795 0.0253,0.1619 0.0589,0.3113 0.0989,0.4501 0.0378,0.1388 0.0883,0.2544 0.1472,0.3449 0.0568,0.0925 0.1283,0.1472 0.2124,0.1661 0.0589,0.0126 0.1367,0.0189 0.2293,0.0189 0.0925,0 0.1913,-0.0084 0.2965,-0.0294 0.103,-0.0189 0.2019,-0.0505 0.2944,-0.0968 0.0925,-0.0462 0.1662,-0.1072 0.225,-0.1829 0.0589,-0.0778 0.0884,-0.1746 0.0905,-0.2902 0.0021,-0.4144 0.0105,-0.8623 0.0273,-1.3439 0.0168,-0.4816 0.0295,-0.9779 0.0379,-1.4869 0.0084,-0.511 -0.0021,-1.0158 -0.0274,-1.5163 -0.0252,-0.5005 -0.0778,-0.9758 -0.1598,-1.428 -0.082,-0.4521 -0.2061,-0.8601 -0.368,-1.2261 -0.1641,-0.3638 -0.3786,-0.6666 -0.6457,-0.9064 -0.2692,-0.2376 -0.6015,-0.3954 -0.9968,-0.4711 -0.5069,-0.0525 -0.9506,-0.0231 -1.3271,0.0926 -0.3764,0.1156 -0.6982,0.2986 -0.9611,0.5489 -0.2629,0.2502 -0.4774,0.5531 -0.6435,0.9064 -0.1662,0.3554 -0.2923,0.7445 -0.3786,1.1693 -0.0841,0.4248 -0.1367,0.8665 -0.1598,1.3291 -0.021,0.4627 -0.0168,0.9275 0.0084,1.3965 0.0274,0.4669 0.0694,0.9211 0.1262,1.3607 0.0589,0.4395 0.122,0.8496 0.1956,1.2303 0.0715,0.3806 0.143,0.7129 0.2124,1.001 0.0021,0.0063 0.0063,0.0147 0.0126,0.0231 0.0084,0.0085 0.0126,0.0148 0.0126,0.0148 0.1809,0.021 0.3639,0.0168 0.5426,-0.019 0.1809,-0.0336 0.3491,-0.0967 0.5027,-0.1871 0.1556,-0.0884 0.2839,-0.2061 0.3869,-0.3512 0.1031,-0.1452 0.1683,-0.3155 0.1956,-0.5153l0.1262 -0.9338c0.0021,-0.0378 0.021,-0.0694 0.0589,-0.0946 0.0399,-0.0273 0.1093,-0.0505 0.2103,-0.0715 0.1009,-0.021 0.246,-0.0421 0.4353,-0.0631 0.1893,-0.021 0.4332,-0.0463 0.734,-0.0736l0.0631 0zm-1.4385 -1.1609c-0.0505,-0.1767 -0.0883,-0.3764 -0.1094,-0.5952 -0.0231,-0.2187 -0.0294,-0.4437 -0.0189,-0.675 0.0084,-0.2293 0.0379,-0.448 0.0862,-0.6583 0.0463,-0.2082 0.1157,-0.3891 0.204,-0.5447 0.0905,-0.1556 0.2019,-0.2692 0.3386,-0.3407 0.1346,-0.0715 0.2965,-0.0841 0.4837,-0.0379 0.0484,-0.0063 0.0926,0.0337 0.1304,0.1199 0.04,0.0884 0.0736,0.2082 0.1031,0.3617 0.0294,0.1536 0.0546,0.3281 0.0736,0.5237 0.021,0.1956 0.0336,0.3975 0.0441,0.6078 0.0084,0.2103 0.0126,0.4164 0.0105,0.6162 -0.0021,0.1998 -0.0084,0.3828 -0.021,0.5468 -0.1241,0.0042 -0.265,0.0105 -0.4185,0.0168 -0.1556,0.0063 -0.3134,0.0147 -0.4711,0.0253 -0.1577,0.0105 -0.3028,0.021 -0.4353,0.0336zm7.4701 -1.7035c-0.0021,0.3512 0.0147,0.7214 0.0484,1.1083 0.0336,0.3891 0.0925,0.774 0.1787,1.1567 0.0841,0.3807 0.204,0.7403 0.3596,1.0768 0.1536,0.3365 0.3513,0.6288 0.5931,0.877 0.2398,0.2481 0.5321,0.4311 0.877,0.551 0.4942,0.164 0.959,0.2397 1.3922,0.2271 0.4354,-0.0147 0.8265,-0.1072 1.1777,-0.2776 0.3491,-0.1703 0.6457,-0.408 0.8854,-0.7129 0.2419,-0.305 0.4164,-0.6646 0.5237,-1.081 0.1072,-0.4185 0.1346,-0.8791 0.0841,-1.3859 0.0358,-0.0442 0.0778,-0.0778 0.1304,-0.0989 0.0526,-0.0231 0.1052,-0.0505 0.1598,-0.0841 0.0526,-0.0315 0.0989,-0.0841 0.1388,-0.1577 0.08,-0.1767 0.0863,-0.3239 0.019,-0.4459 -0.0694,-0.1199 -0.1935,-0.2145 -0.3723,-0.2818 -0.1766,-0.0673 -0.389,-0.1094 -0.6372,-0.1283 -0.2482,-0.0168 -0.509,-0.0105 -0.7845,0.0189 -0.2776,0.0295 -0.5489,0.08 -0.8138,0.1536 -0.265,0.0715 -0.5027,0.1661 -0.7172,0.2797 -0.0252,0.0589 -0.021,0.1178 0.0126,0.1787 0.0358,0.061 0.0863,0.1178 0.1536,0.1746 0.0673,0.0568 0.1388,0.1073 0.2103,0.1535 0.0736,0.0442 0.1346,0.082 0.1871,0.1115 0.0505,0.0273 0.0779,0.0441 0.08,0.0505 0,0.0063 -0.0021,0.0126 -0.0064,0.0168 -0.0042,0.0063 -0.0063,0.0084 -0.0063,0.0084 0,0.0021 -0.0042,0.0105 -0.0126,0.0273 -0.0063,0.0148 -0.0105,0.0274 -0.0126,0.0358 -0.0757,0.1535 -0.1556,0.3133 -0.2376,0.4816 -0.0842,0.1661 -0.1725,0.3302 -0.2692,0.4879 -0.0947,0.1598 -0.1998,0.3028 -0.3134,0.4311 -0.1009,0.0147 -0.1998,-0.0378 -0.2923,-0.1556 -0.0947,-0.1157 -0.1809,-0.2839 -0.2608,-0.5005 -0.0799,-0.2145 -0.1472,-0.4648 -0.2061,-0.7487 -0.0568,-0.2818 -0.101,-0.5826 -0.1283,-0.898 -0.0294,-0.3176 -0.0399,-0.6352 -0.0336,-0.9527 0.0063,-0.3197 0.0357,-0.6225 0.0862,-0.9085 0.0484,-0.2882 0.1241,-0.5447 0.2229,-0.7677 0.101,-0.225 0.2292,-0.4017 0.387,-0.5299 0.1556,-0.1283 0.3449,-0.1914 0.5657,-0.1914 0.0547,0.0021 0.0967,0.0147 0.1283,0.0441 0.0315,0.0274 0.0568,0.0631 0.0715,0.1052 0.0147,0.0421 0.0231,0.0841 0.0273,0.1283 0.0274,0.1472 0.0442,0.2986 0.0463,0.4543 0.0021,0.1556 0,0.3112 -0.0084,0.4668 -0.0063,0.1557 -0.0105,0.3071 -0.0126,0.4543 0.0231,0.1788 0.0946,0.3239 0.2187,0.4353 0.122,0.1094 0.2776,0.1662 0.4627,0.1704 0.164,0.0021 0.3154,-0.0337 0.4542,-0.101 0.1388,-0.0694 0.2587,-0.1619 0.3618,-0.2776 0.1009,-0.1156 0.1829,-0.2418 0.2397,-0.3806 0.0568,-0.1388 0.0883,-0.2776 0.0925,-0.4143 0.0063,-0.4985 -0.0504,-0.9191 -0.1682,-1.2661 -0.1178,-0.3449 -0.2818,-0.6183 -0.4942,-0.8223 -0.2103,-0.204 -0.4522,-0.3428 -0.7256,-0.4185 -0.2734,-0.0736 -0.5615,-0.0883 -0.8665,-0.0442 -0.3049,0.0463 -0.6098,0.1431 -0.9148,0.2945 -0.3049,0.1514 -0.5931,0.3512 -0.8686,0.5993 -0.2755,0.2461 -0.5194,0.5363 -0.7318,0.8665 -0.2124,0.3302 -0.3807,0.6982 -0.5027,1.102 -0.1198,0.4038 -0.1808,0.8391 -0.1787,1.3039zm11.9117 4.4291c0.2924,-0.143 0.5447,-0.3407 0.7592,-0.5994 0.2125,-0.2566 0.3912,-0.5489 0.5384,-0.8791 0.1451,-0.3302 0.265,-0.6772 0.3555,-1.0389 0.0925,-0.3638 0.1619,-0.7213 0.2103,-1.0747 0.0504,-0.3554 0.0841,-0.6835 0.1051,-0.9884 0.0189,-0.3049 0.0316,-0.5636 0.0337,-0.7781 0.0042,-0.2145 0.0042,-0.3639 0.0042,-0.4459 -0.0021,-0.2734 -0.061,-0.5089 -0.1725,-0.7066 -0.1135,-0.1977 -0.265,-0.3617 -0.4563,-0.4879 -0.1914,-0.1262 -0.4059,-0.2187 -0.6436,-0.2797 -0.2376,-0.061 -0.4816,-0.0905 -0.734,-0.0905 -0.1535,0.0021 -0.2797,0.0652 -0.3764,0.1872 -0.0967,0.122 -0.1746,0.2902 -0.2292,0.5026 -0.0547,0.2124 -0.0968,0.4543 -0.1262,0.7256 -0.0295,0.2713 -0.0526,0.5552 -0.0694,0.8559 -0.019,0.3008 -0.04,0.5994 -0.0631,0.8981 -0.0232,0.2986 -0.0568,0.5804 -0.0989,0.8454 -0.0441,0.2671 -0.1051,0.5026 -0.185,0.7045 -0.0778,0.204 -0.183,0.3617 -0.3155,0.4711 -0.1304,0.1115 -0.2944,0.1598 -0.4921,0.1472 -0.101,-0.1135 -0.1725,-0.2776 -0.2145,-0.4963 -0.0442,-0.2187 -0.0694,-0.4711 -0.0778,-0.7571 -0.0063,-0.286 -0.0106,-0.591 -0.0084,-0.9085 0.0042,-0.3197 0,-0.6373 -0.0127,-0.9527 -0.0105,-0.3155 -0.0399,-0.612 -0.0862,-0.8875 -0.0484,-0.2776 -0.1262,-0.5153 -0.2334,-0.7151 -0.1094,-0.1998 -0.2587,-0.3428 -0.4522,-0.4311 -0.3407,-0.1493 -0.6225,-0.2145 -0.8433,-0.1998 -0.2229,0.0168 -0.3975,0.0968 -0.5258,0.2398 -0.1262,0.1451 -0.2187,0.3344 -0.2734,0.5699 -0.0547,0.2376 -0.0862,0.5005 -0.0925,0.7929 -0.0063,0.2923 0.0021,0.593 0.021,0.9043 0.0189,0.3133 0.04,0.6162 0.0631,0.9106 0.021,0.2965 0.0336,0.5657 0.0358,0.8076 0.0021,0.4648 0.0757,0.9001 0.225,1.306 0.1493,0.408 0.3596,0.7655 0.6372,1.0789 0.2755,0.3112 0.6036,0.5573 0.9885,0.7381 0.3827,0.1809 0.8117,0.2797 1.2849,0.2945 0.4711,0.0126 0.978,-0.0736 1.5205,-0.2629zm2.8518 -0.2524c0.0821,0.244 0.1704,0.4332 0.2671,0.572 0.0968,0.1388 0.2145,0.2293 0.3534,0.2734 0.1409,0.0421 0.3154,0.0421 0.5278,0 0.6961,-0.1388 1.2808,-0.2944 1.7519,-0.4689 0.4711,-0.1746 0.8496,-0.3597 1.1356,-0.5552 0.286,-0.1956 0.4985,-0.3954 0.6394,-0.5973 0.1409,-0.2019 0.2292,-0.3996 0.2628,-0.5931 0.0358,-0.1935 0.0379,-0.3743 0.0064,-0.5447 -0.0316,-0.1682 -0.0758,-0.3196 -0.1346,-0.45 -0.0568,-0.1304 -0.1094,-0.2335 -0.1536,-0.3113 -0.0126,-0.0189 -0.0231,-0.0357 -0.0294,-0.0484 -0.0084,-0.0147 -0.0147,-0.0273 -0.021,-0.0399 -0.019,-0.0358 -0.0863,-0.0526 -0.1977,-0.0547 -0.1136,-0.0021 -0.2545,0.0105 -0.4227,0.0379 -0.1704,0.0252 -0.3492,0.063 -0.5384,0.1093 -0.1893,0.0484 -0.3723,0.1031 -0.5468,0.1641 -0.1725,0.063 -0.3218,0.1282 -0.4438,0.1997 -0.1219,0.0694 -0.2019,0.141 -0.2355,0.2125 -0.0694,-0.2819 -0.1178,-0.5447 -0.1472,-0.7929 -0.0295,-0.2482 -0.0421,-0.4963 -0.0421,-0.7466 0.0126,-0.0357 0.0652,-0.0673 0.1556,-0.0988 0.0905,-0.0295 0.204,-0.0589 0.3386,-0.0863 0.1367,-0.0294 0.2797,-0.0567 0.4291,-0.0862 0.1493,-0.0294 0.2881,-0.061 0.4206,-0.0946 0.1304,-0.0337 0.2355,-0.0715 0.3175,-0.1115 0.0799,-0.042 0.1199,-0.0883 0.1178,-0.1409 0.0925,-0.2124 0.1325,-0.3912 0.1199,-0.5384 -0.0126,-0.1451 -0.0652,-0.2629 -0.1578,-0.3533 -0.0925,-0.0904 -0.2124,-0.1556 -0.3596,-0.1977 -0.1472,-0.042 -0.3091,-0.0652 -0.4858,-0.0673 -0.1766,-0.0021 -0.3554,0.0105 -0.5363,0.04 -0.1808,0.0294 -0.3512,0.0694 -0.511,0.1199 -0.0042,-0.0694 -0.0084,-0.1325 -0.0126,-0.1851 -0.0042,-0.0526 -0.0063,-0.1031 -0.0084,-0.1514 -0.0021,-0.0505 -0.0042,-0.1073 -0.0042,-0.1683 0.0021,-0.1009 0.0336,-0.185 0.0925,-0.2544 0.061,-0.0673 0.1409,-0.1262 0.2376,-0.1704 0.0968,-0.0463 0.2019,-0.0841 0.3134,-0.1136 0.1115,-0.0294 0.2187,-0.0546 0.3239,-0.0778 0.1051,-0.021 0.1934,-0.0441 0.2692,-0.0652 0.1598,-0.0483 0.3322,-0.0925 0.5194,-0.1325 0.1851,-0.042 0.3702,-0.0883 0.5531,-0.1409 0.1809,-0.0525 0.3449,-0.1241 0.49,-0.2103 0.1472,-0.0883 0.2587,-0.204 0.3365,-0.347 0.0778,-0.143 0.1052,-0.3239 0.082,-0.5447 -0.0021,-0.0778 -0.0336,-0.1451 -0.0967,-0.2019 -0.061,-0.0568 -0.1367,-0.103 -0.2271,-0.1388 -0.0926,-0.0357 -0.183,-0.0631 -0.2713,-0.082 -0.0905,-0.0189 -0.1662,-0.0294 -0.2251,-0.0315 -0.0147,0 -0.0294,0 -0.0483,0 -0.019,0 -0.0316,0 -0.04,0 -0.2965,0.0105 -0.6141,0.021 -0.9548,0.0294 -0.3407,0.0105 -0.6877,0.0337 -1.0368,0.0715 -0.3491,0.04 -0.6835,0.1073 -1.0053,0.204 -0.3217,0.0967 -0.6098,0.2355 -0.8664,0.4206 -0.2566,0.183 -0.4627,0.4248 -0.6162,0.7256 0,0 0,0.0021 0,0.0084 0,0.0042 0,0.0105 0,0.0168 -0.0021,0.0673 0.0084,0.1325 0.0357,0.1935 0.0253,0.061 0.0589,0.1199 0.101,0.1767 0.042,0.0567 0.0841,0.1093 0.1283,0.1598 0,0 0,0 0,0.0021 0,0 0,0.0042 0,0.0105 -0.0379,0.5321 -0.0757,1.0621 -0.1157,1.5899 -0.0421,0.5258 -0.0694,1.0495 -0.0862,1.571 -0.0168,0.5195 -0.0063,1.0368 0.0273,1.5521 0.0358,0.5131 0.1115,1.0242 0.225,1.5331zm8.9717 0.0757c0.2755,-0.0021 0.5068,-0.0483 0.6919,-0.1388 0.1872,-0.0925 0.347,-0.2166 0.4774,-0.3722 0.1304,-0.1556 0.2482,-0.3344 0.3554,-0.5321 0.1052,-0.1977 0.2166,-0.4059 0.3302,-0.6225 0.0526,-0.0967 0.1367,-0.244 0.2566,-0.4438 0.1177,-0.1997 0.2544,-0.4353 0.4059,-0.7066 0.1535,-0.2713 0.3049,-0.5615 0.4584,-0.8707 0.1536,-0.307 0.2882,-0.6204 0.408,-0.9337 0.1178,-0.3134 0.204,-0.6141 0.2566,-0.898 0.0526,-0.286 0.0526,-0.5426 0.0042,-0.7655 -0.0484,-0.2251 -0.164,-0.4017 -0.347,-0.5321 -0.183,-0.1304 -0.4479,-0.1977 -0.7992,-0.1998 -0.1303,0.0021 -0.2628,0.0442 -0.3995,0.1262 -0.1346,0.0841 -0.2692,0.1935 -0.4017,0.3323 -0.1346,0.1388 -0.2629,0.2902 -0.3891,0.4584 -0.1262,0.1683 -0.2461,0.3407 -0.3596,0.5132 -0.1136,0.1724 -0.2166,0.3365 -0.3113,0.4879 -0.0946,0.1535 -0.1766,0.2839 -0.246,0.3912 -0.0063,0.0063 -0.0148,0.0147 -0.0253,0.0252 -0.0105,0.0105 -0.0189,0.0189 -0.0252,0.0252 -0.2019,-0.3974 -0.4059,-0.7529 -0.612,-1.0641 -0.2061,-0.3092 -0.4332,-0.5721 -0.6793,-0.7887 -0.2481,-0.2145 -0.5342,-0.3785 -0.858,-0.49 -0.3239,-0.1114 -0.7046,-0.1682 -1.1441,-0.1682 -0.0799,0.0021 -0.1535,0.0252 -0.2187,0.0694 -0.0631,0.042 -0.1136,0.0904 -0.1514,0.143 -0.0379,0.0547 -0.0589,0.0967 -0.0589,0.1283 0.0736,0.1682 0.1556,0.3932 0.246,0.6729 0.0905,0.2819 0.1893,0.5994 0.2945,0.9527 0.1072,0.3534 0.2208,0.7256 0.3449,1.1168 0.1219,0.389 0.2544,0.7802 0.3932,1.1672 0.1409,0.389 0.2882,0.7571 0.4459,1.1062 0.1577,0.3491 0.3239,0.6582 0.4984,0.9295 0.1746,0.2713 0.3596,0.4858 0.5531,0.6415 0.1914,0.1577 0.3954,0.2376 0.6057,0.2397zm8.4291 0.366c0.3322,0.0168 0.6582,-0.0295 0.9758,-0.1409 0.3196,-0.1094 0.6141,-0.2756 0.8875,-0.4943 0.2734,-0.2208 0.5089,-0.4879 0.7066,-0.8033 0.1977,-0.3134 0.3428,-0.6688 0.4353,-1.0621 0.0926,-0.3933 0.1157,-0.816 0.0736,-1.2723 0.143,0.021 0.3008,0.0189 0.4711,-0.0043 0.1725,-0.021 0.3428,-0.0588 0.5132,-0.1114 0.1703,-0.0526 0.326,-0.1157 0.469,-0.1851 0.1409,-0.0715 0.2544,-0.1451 0.3386,-0.2229 0.0841,-0.0778 0.1261,-0.1514 0.124,-0.2229 0,-0.0715 -0.0589,-0.1346 -0.1745,-0.1872 -0.0652,-0.0252 -0.1556,-0.0273 -0.2755,-0.0042 -0.1199,0.0231 -0.2587,0.0526 -0.4143,0.0883 -0.1578,0.0358 -0.326,0.0589 -0.5069,0.0694 -0.1787,0.0126 -0.3596,-0.0042 -0.5447,-0.0526 0.0779,-0.1598 0.1115,-0.3512 0.1031,-0.572 -0.0084,-0.2208 -0.0505,-0.4564 -0.1283,-0.7087 -0.0799,-0.2503 -0.1851,-0.5027 -0.3176,-0.7529 -0.1325,-0.2503 -0.2839,-0.4858 -0.4542,-0.7067 -0.1704,-0.2187 -0.3512,-0.408 -0.5447,-0.5657 -0.1914,-0.1598 -0.3891,-0.2713 -0.5868,-0.3365 -0.1998,-0.0673 -0.3932,-0.0715 -0.5825,-0.0147 -0.1893,0.0568 -0.366,0.1914 -0.53,0.4017 0,0 -0.0063,0 -0.0147,0 -0.0084,0 -0.0168,0 -0.0231,0 -0.4753,-0.0946 -0.9233,-0.1031 -1.3418,-0.0252 -0.4185,0.0778 -0.8013,0.225 -1.1462,0.4395 -0.3449,0.2145 -0.6435,0.4774 -0.8959,0.7907 -0.2545,0.3113 -0.4521,0.6541 -0.5973,1.0263 -0.1451,0.3723 -0.2271,0.755 -0.246,1.1504 -0.0295,0.694 0.0526,1.3144 0.246,1.857 0.1914,0.5426 0.4774,1.0053 0.856,1.386 0.3764,0.3806 0.8307,0.675 1.3607,0.8853 0.53,0.2082 1.1188,0.326 1.7645,0.3513zm-1.754 -2.0821c-0.1388,-0.2797 -0.2377,-0.5699 -0.2986,-0.8728 -0.0589,-0.3007 -0.08,-0.6035 -0.0568,-0.9064 0.021,-0.3028 0.0841,-0.5951 0.1914,-0.877 0.1051,-0.2818 0.2544,-0.5425 0.4479,-0.7823 0.1935,-0.2397 0.4311,-0.4479 0.7129,-0.6246 -0.0883,0.1703 -0.1303,0.3512 -0.1282,0.5426 0.0021,0.1914 0.0462,0.3806 0.1282,0.5678 0.0842,0.1893 0.2061,0.3638 0.3639,0.5258 0.1577,0.1619 0.347,0.3007 0.5699,0.4143 0.225,0.1136 0.4753,0.1914 0.7571,0.2334 0.0526,0.0105 0.0694,0.0652 0.0505,0.1662 -0.021,0.0988 -0.0694,0.2271 -0.1451,0.3827 -0.0778,0.1557 -0.1767,0.3239 -0.2987,0.5006 -0.1198,0.1787 -0.2565,0.3512 -0.4059,0.5173 -0.1514,0.1662 -0.3091,0.3092 -0.4752,0.4311 -0.1662,0.122 -0.3344,0.204 -0.5027,0.2461 -0.1661,0.0442 -0.3281,0.0315 -0.4837,-0.0379 -0.1556,-0.0694 -0.2986,-0.2124 -0.4269,-0.4269zm2.448 -4.8076c0,0 0.0063,0 0.0147,0 0.0084,0 0.0168,0 0.0231,0 0.082,0.0042 0.162,0.0358 0.2356,0.0904 0.0736,0.0547 0.1388,0.1262 0.1955,0.2082 0.0568,0.0842 0.101,0.1725 0.1304,0.2629 0.0316,0.0884 0.0463,0.1725 0.0442,0.2461l-0.0505 1.1483c-0.3281,-0.0316 -0.5762,-0.1094 -0.7445,-0.2335 -0.1661,-0.1241 -0.2649,-0.2797 -0.2944,-0.4648 -0.0315,-0.1871 -0.0063,-0.389 0.0757,-0.6056 0.0799,-0.2167 0.204,-0.4354 0.3702,-0.652zm9.489 6.8644c0.3154,0.1346 0.6288,0.2187 0.94,0.2503 0.3113,0.0294 0.6057,0.0147 0.8854,-0.0442 0.2776,-0.061 0.5258,-0.1598 0.7424,-0.2986 0.2166,-0.1388 0.3891,-0.3092 0.5153,-0.5132 0.1282,-0.2019 0.1955,-0.4311 0.204,-0.6835 0.0084,-0.2544 -0.0568,-0.5257 -0.1956,-0.8181 -0.0694,-0.1451 -0.1536,-0.2628 -0.2503,-0.3554 -0.0967,-0.0925 -0.1914,-0.1472 -0.286,-0.164 -0.0946,-0.0189 -0.1725,0.0126 -0.2335,0.0904 -0.2481,0.3344 -0.4731,0.5721 -0.6729,0.7067 -0.2019,0.1367 -0.3786,0.1913 -0.5321,0.1661 -0.1535,-0.0273 -0.286,-0.1178 -0.3933,-0.2734 -0.1093,-0.1535 -0.1956,-0.3533 -0.2587,-0.6015 -0.0652,-0.246 -0.1072,-0.5215 -0.1282,-0.8244 -0.0211,-0.3028 -0.0211,-0.6162 0,-0.9422 0.021,-0.3238 0.0609,-0.6414 0.124,-0.9505 0.061,-0.3092 0.143,-0.5952 0.244,-0.856 0.1009,-0.2587 0.2208,-0.4753 0.3596,-0.6498 0.1409,-0.1746 0.2986,-0.2903 0.4753,-0.3428 0.0421,0.0063 0.0736,0.0231 0.0946,0.0546 0.0232,0.0316 0.0379,0.0694 0.0463,0.1136 0.0063,0.0421 0.0105,0.082 0.0105,0.122 -0.0084,0.0736 -0.0357,0.1472 -0.0841,0.2208 -0.0484,0.0736 -0.0967,0.1556 -0.143,0.2482 -0.0463,0.0925 -0.0715,0.2061 -0.0757,0.3386 0.0021,0.1093 0.0505,0.2082 0.143,0.2986 0.0925,0.0883 0.2124,0.1598 0.3596,0.2124 0.1493,0.0547 0.3071,0.082 0.4753,0.0841 0.1704,0.0042 0.3323,-0.0252 0.4879,-0.0883 0.1557,-0.0631 0.2902,-0.1661 0.3975,-0.3092 0.1094,-0.1451 0.1788,-0.3364 0.2061,-0.5741 0.0294,-0.2397 0,-0.5342 -0.0883,-0.8854 -0.0526,-0.204 -0.1514,-0.389 -0.2945,-0.5594 -0.1451,-0.1703 -0.3217,-0.3176 -0.5299,-0.4416 -0.2103,-0.122 -0.4396,-0.2124 -0.6898,-0.2734 -0.2482,-0.0589 -0.5048,-0.08 -0.7698,-0.0631 -0.3785,0.0294 -0.7192,0.1367 -1.022,0.3217 -0.3029,0.1851 -0.57,0.4291 -0.7971,0.7319 -0.2271,0.3028 -0.4185,0.6478 -0.5699,1.0347 -0.1536,0.387 -0.2692,0.795 -0.347,1.2303 -0.0758,0.4332 -0.1157,0.8707 -0.1199,1.3144 -0.0021,0.4459 0.0336,0.877 0.1051,1.2955 0.0736,0.4185 0.183,0.8076 0.3302,1.1651 0.1493,0.3596 0.3344,0.6688 0.5552,0.9296 0.2229,0.2607 0.4837,0.4542 0.7803,0.5825zm3.9874 -0.5047c-0.0126,0.3869 0.0715,0.6856 0.2503,0.8938 0.1787,0.2103 0.45,0.3154 0.8096,0.3175 0.2356,0.0043 0.427,-0.0546 0.5742,-0.1724 0.1472,-0.1199 0.2607,-0.2818 0.3386,-0.4879 0.0799,-0.2082 0.1367,-0.4417 0.1682,-0.7003 0.0337,-0.2608 0.0547,-0.53 0.0631,-0.8097 0.0063,-0.2776 0.0126,-0.5489 0.0168,-0.8118 0.0042,-0.2629 0.0168,-0.5026 0.0379,-0.715 0.0631,-0.0127 0.1514,-0.0232 0.265,-0.0337 0.1135,-0.0084 0.2376,-0.0168 0.3743,-0.0252 0.1367,-0.0063 0.2713,-0.0126 0.4017,-0.0169 0.1325,-0.0042 0.2461,-0.0084 0.3449,-0.0105 0.0988,-0.0021 0.1661,-0.0021 0.204,-0.0021 0.0547,0.0021 0.0988,0.0526 0.1283,0.1515 0.0294,0.0988 0.0526,0.2292 0.0652,0.3953 0.0147,0.1641 0.0231,0.347 0.0273,0.5468 0.0042,0.2019 0.0084,0.408 0.0126,0.6162 0.0021,0.2061 0.0106,0.4038 0.019,0.5889 0.0105,0.1851 0.0294,0.3449 0.0546,0.4795 0.0253,0.1325 0.061,0.225 0.1094,0.2755 0.061,0.0967 0.1556,0.1787 0.2797,0.2439 0.1262,0.0673 0.2671,0.1136 0.4185,0.1409 0.1535,0.0274 0.2987,0.0316 0.4396,0.0127 0.1409,-0.019 0.2565,-0.0673 0.3491,-0.1409 0.0904,-0.0758 0.1367,-0.1809 0.1409,-0.3197 0,-0.0084 0,-0.0189 0,-0.0316 0,-0.0147 0,-0.0252 0,-0.0315 0.0021,-0.0631 0.0042,-0.1935 0.0021,-0.3912 -0.0021,-0.1977 -0.0063,-0.4437 -0.0126,-0.7381 -0.0084,-0.2966 -0.0169,-0.6226 -0.0274,-0.978 -0.0084,-0.3554 -0.021,-0.7234 -0.0336,-1.1041 -0.0147,-0.3806 -0.0295,-0.7529 -0.0442,-1.1209 -0.0168,-0.366 -0.0336,-0.7088 -0.0505,-1.0263 -0.0189,-0.3176 -0.0357,-0.591 -0.0546,-0.8223 -0.019,-0.2314 -0.0379,-0.3996 -0.0568,-0.5069 -0.0063,-0.0126 -0.0105,-0.0273 -0.0126,-0.0441 -0.0021,-0.0168 -0.0064,-0.0316 -0.0127,-0.0442 -0.1009,-0.3365 -0.2229,-0.6057 -0.368,-0.8097 -0.143,-0.2019 -0.2923,-0.3365 -0.448,-0.4016 -0.1556,-0.0652 -0.3028,-0.0589 -0.4374,0.0189 -0.1367,0.0778 -0.246,0.2313 -0.3323,0.4584 -0.0841,0.2272 -0.1283,0.53 -0.1304,0.9107 0,0.3575 0.0021,0.7108 0.0042,1.062 0.0021,0.3491 0.0021,0.7067 -0.0042,1.0705 -0.2671,0.0063 -0.5362,0.0252 -0.8096,0.0526 -0.2734,0.0273 -0.5384,0.061 -0.7929,0.0988 0.0042,-0.4122 0.0021,-0.8265 -0.0021,-1.2429 -0.0063,-0.4185 -0.0021,-0.8328 0.0147,-1.2429 -0.0336,-0.265 -0.0946,-0.4837 -0.1787,-0.652 -0.0863,-0.1682 -0.1893,-0.2986 -0.3113,-0.3932 -0.1199,-0.0926 -0.2503,-0.1578 -0.3912,-0.1977 -0.1409,-0.04 -0.2818,-0.0652 -0.4248,-0.0736 -0.143,-0.0063 -0.2797,-0.0106 -0.4101,-0.0085 -0.0378,0 -0.0757,0 -0.1136,0 -0.1261,-0.0063 -0.2229,0.019 -0.2902,0.0779 -0.0673,0.0567 -0.1009,0.1493 -0.1009,0.2755 0,1.3564 -0.0084,2.6498 -0.0211,3.8843 -0.0147,1.2345 -0.0273,2.4122 -0.042,3.5353zm7.2304 -6.4228c0,0.694 -0.0274,1.3165 -0.0842,1.8696 -0.0588,0.5532 -0.1303,1.0453 -0.2166,1.4764 -0.0862,0.4311 -0.1703,0.8139 -0.2523,1.1462 -0.0842,0.3301 -0.1494,0.6225 -0.1998,0.8748 -0.0484,0.2524 -0.0673,0.4753 -0.0526,0.6688 0.0147,0.1935 0.0778,0.3702 0.1872,0.5258 0.1093,0.1556 0.2818,0.3028 0.5173,0.4416 0.2566,0.1493 0.4858,0.2356 0.6877,0.2608 0.2019,0.0252 0.3807,0.0042 0.5321,-0.0631 0.1535,-0.0694 0.286,-0.1661 0.3954,-0.2944 0.1114,-0.1283 0.204,-0.2734 0.2776,-0.4311 0.0757,-0.1578 0.1367,-0.3155 0.1808,-0.4711 0.0463,-0.1557 0.08,-0.2966 0.1031,-0.4185 0.0231,-0.1241 0.0378,-0.2146 0.0442,-0.2734 0.0273,-0.1515 0.0694,-0.3386 0.1198,-0.5616 0.0526,-0.2208 0.1115,-0.4626 0.1767,-0.7234 0.0631,-0.2608 0.1304,-0.5258 0.1956,-0.795 0.0652,-0.2692 0.1283,-0.5278 0.1829,-0.7739 0.0568,-0.2461 0.1031,-0.4648 0.1388,-0.6583 0.0337,-0.1913 0.0547,-0.3428 0.0568,-0.45 0.0021,-0.2061 -0.042,-0.387 -0.1346,-0.5426 -0.0904,-0.1556 -0.2145,-0.2881 -0.3722,-0.4017 -0.1577,-0.1136 -0.3323,-0.2103 -0.5237,-0.2923 -0.1935,-0.0799 -0.389,-0.1472 -0.5888,-0.204 -0.1998,-0.0568 -0.387,-0.1073 -0.5637,-0.1493 -0.0126,0 -0.0252,-0.0021 -0.0378,-0.0084 -0.0126,-0.0043 -0.0253,-0.0106 -0.0379,-0.0169 -0.0778,-0.021 -0.1577,-0.0378 -0.2418,-0.0546 -0.0841,-0.0148 -0.1641,-0.019 -0.2377,-0.0127 -0.0736,0.0084 -0.1346,0.0379 -0.1808,0.0884 -0.0463,0.0504 -0.0694,0.1325 -0.0715,0.2439z"/>
    <path id="_692485488" class="fil12" d="M72.9727 89.4421c0.0168,0.2503 0.0631,0.4795 0.1388,0.6856 0.0757,0.2082 0.1977,0.408 0.3659,0.6015 0.1199,0.1409 0.2482,0.2313 0.387,0.2713 0.1367,0.0378 0.2734,0.0378 0.4101,-0.0042 0.1367,-0.0421 0.2629,-0.1094 0.3786,-0.2061 0.1177,-0.0989 0.2166,-0.2103 0.2965,-0.3407 0.0799,-0.1304 0.1304,-0.2629 0.1556,-0.4017 0,-0.0063 0,-0.0105 0,-0.0126 0,-0.0021 0,-0.0064 0,-0.0127 -0.0126,-0.2355 -0.0147,-0.5089 -0.0084,-0.8223 0.0063,-0.3133 0.0147,-0.6477 0.0252,-1.001 0.0127,-0.3533 0.0211,-0.7088 0.0274,-1.0642 0.0063,-0.3575 0.0042,-0.6961 -0.0063,-1.0158 -0.0105,-0.3217 -0.0358,-0.6056 -0.0757,-0.8538 0.3007,0.3975 0.5825,0.7844 0.8454,1.1609 0.2629,0.3764 0.5173,0.7571 0.7613,1.1399 0.2419,0.3827 0.4858,0.7802 0.7277,1.1945 0,0.0021 0.0063,0.0126 0.0147,0.0336 0.0084,0.019 0.0168,0.0337 0.0231,0.0421 0.0042,0.0147 0.0168,0.0358 0.0316,0.0631 0.0168,0.0273 0.0336,0.0547 0.0504,0.0799 0.0148,0.0253 0.0274,0.04 0.0316,0.0463 0.0757,0.1157 0.1556,0.2397 0.2418,0.3722 0.0863,0.1304 0.1809,0.2566 0.284,0.3744 0.103,0.1198 0.2166,0.2187 0.3428,0.2965 0.124,0.0778 0.2649,0.122 0.4185,0.1304 0.1093,0.0021 0.2145,-0.0757 0.3154,-0.2334 0.1031,-0.1578 0.1998,-0.3723 0.2923,-0.6457 0.0926,-0.2734 0.1788,-0.5846 0.2608,-0.9337 0.082,-0.3492 0.1578,-0.713 0.2272,-1.0957 0.0673,-0.3828 0.1282,-0.7593 0.1829,-1.1336 0.0547,-0.3743 0.101,-0.7235 0.1367,-1.0473 0.0379,-0.3239 0.0673,-0.6015 0.0863,-0.8349 0.0189,-0.2335 0.0273,-0.3996 0.0252,-0.4985 0.0063,-0.0862 -0.0379,-0.1745 -0.1283,-0.2629 -0.0925,-0.0862 -0.2145,-0.1724 -0.368,-0.2544 -0.1536,-0.0841 -0.3197,-0.162 -0.5006,-0.2335 -0.1808,-0.0715 -0.3575,-0.1346 -0.5299,-0.1913 -0.1725,-0.0547 -0.326,-0.0968 -0.4564,-0.1283 -0.1304,-0.0337 -0.2229,-0.0505 -0.2755,-0.0526 -0.1283,-0.0021 -0.2355,0.061 -0.3218,0.1935 -0.0841,0.1325 -0.1535,0.3112 -0.204,0.5363 -0.0504,0.225 -0.0883,0.4752 -0.1135,0.7529 -0.0253,0.2755 -0.0421,0.5573 -0.0484,0.8433 -0.0063,0.286 -0.0105,0.5573 -0.0084,0.8118 0.0021,0.2523 0.0042,0.4711 0.0084,0.6498 0.0021,0.1809 0,0.3029 -0.0042,0.3681 -0.0063,0.0651 -0.0189,0.0504 -0.04,-0.0421 -0.1093,-0.1977 -0.2376,-0.4248 -0.3869,-0.6814 -0.1473,-0.2545 -0.3113,-0.5258 -0.4922,-0.8118 -0.1808,-0.286 -0.3722,-0.572 -0.5762,-0.858 -0.204,-0.2861 -0.4164,-0.5574 -0.6372,-0.8139 -0.2187,-0.2566 -0.4438,-0.4816 -0.6709,-0.6793 -0.2271,-0.1956 -0.4543,-0.347 -0.6814,-0.4543 -0.2271,-0.1072 -0.4501,-0.1556 -0.6688,-0.143 -0.0483,-0.0021 -0.1009,-0.0042 -0.1598,-0.0021 -0.0589,0.0021 -0.1009,0.0231 -0.1304,0.0652 -0.0252,0.101 -0.0484,0.2355 -0.0673,0.4038 -0.0189,0.1661 -0.0336,0.3449 -0.0484,0.5384 -0.0126,0.1914 -0.0231,0.3743 -0.0315,0.551 -0.0084,0.1745 -0.0147,0.3196 -0.0168,0.4374l0.164 5.1231zm7.9244 -3.5458c-0.0021,0.3512 0.0147,0.7214 0.0484,1.1083 0.0336,0.3891 0.0925,0.774 0.1787,1.1567 0.0841,0.3807 0.204,0.7403 0.3596,1.0768 0.1536,0.3365 0.3513,0.6288 0.5931,0.877 0.2398,0.2481 0.5321,0.4311 0.877,0.551 0.4942,0.164 0.959,0.2397 1.3922,0.2271 0.4354,-0.0147 0.8265,-0.1072 1.1777,-0.2776 0.3491,-0.1703 0.6457,-0.408 0.8854,-0.7129 0.2419,-0.305 0.4164,-0.6646 0.5237,-1.081 0.1072,-0.4185 0.1346,-0.8791 0.0841,-1.3859 0.0358,-0.0442 0.0778,-0.0778 0.1304,-0.0989 0.0526,-0.0231 0.1052,-0.0505 0.1598,-0.0841 0.0526,-0.0315 0.0989,-0.0841 0.1388,-0.1577 0.08,-0.1767 0.0863,-0.3239 0.019,-0.4459 -0.0694,-0.1199 -0.1935,-0.2145 -0.3723,-0.2818 -0.1766,-0.0673 -0.389,-0.1094 -0.6372,-0.1283 -0.2482,-0.0168 -0.509,-0.0105 -0.7845,0.0189 -0.2776,0.0295 -0.5489,0.08 -0.8138,0.1536 -0.265,0.0715 -0.5027,0.1661 -0.7172,0.2797 -0.0252,0.0589 -0.021,0.1178 0.0126,0.1787 0.0358,0.061 0.0863,0.1178 0.1536,0.1746 0.0673,0.0568 0.1388,0.1073 0.2103,0.1535 0.0736,0.0442 0.1346,0.082 0.1871,0.1115 0.0505,0.0273 0.0779,0.0441 0.08,0.0505 0,0.0063 -0.0021,0.0126 -0.0064,0.0168 -0.0042,0.0063 -0.0063,0.0084 -0.0063,0.0084 0,0.0021 -0.0042,0.0105 -0.0126,0.0273 -0.0063,0.0148 -0.0105,0.0274 -0.0126,0.0358 -0.0757,0.1535 -0.1556,0.3133 -0.2376,0.4816 -0.0842,0.1661 -0.1725,0.3302 -0.2692,0.4879 -0.0947,0.1598 -0.1998,0.3028 -0.3134,0.4311 -0.1009,0.0147 -0.1998,-0.0378 -0.2923,-0.1556 -0.0947,-0.1157 -0.1809,-0.2839 -0.2608,-0.5005 -0.0799,-0.2145 -0.1472,-0.4648 -0.2061,-0.7487 -0.0568,-0.2818 -0.101,-0.5826 -0.1283,-0.898 -0.0294,-0.3176 -0.0399,-0.6352 -0.0336,-0.9527 0.0063,-0.3197 0.0357,-0.6225 0.0862,-0.9085 0.0484,-0.2882 0.1241,-0.5447 0.2229,-0.7677 0.101,-0.225 0.2292,-0.4017 0.387,-0.5299 0.1556,-0.1283 0.3449,-0.1914 0.5657,-0.1914 0.0547,0.0021 0.0967,0.0147 0.1283,0.0441 0.0315,0.0274 0.0568,0.0631 0.0715,0.1052 0.0147,0.0421 0.0231,0.0841 0.0273,0.1283 0.0274,0.1472 0.0442,0.2986 0.0463,0.4543 0.0021,0.1556 0,0.3112 -0.0084,0.4668 -0.0063,0.1557 -0.0105,0.3071 -0.0126,0.4543 0.0231,0.1788 0.0946,0.3239 0.2187,0.4353 0.122,0.1094 0.2776,0.1662 0.4627,0.1704 0.164,0.0021 0.3154,-0.0337 0.4542,-0.101 0.1388,-0.0694 0.2587,-0.1619 0.3618,-0.2776 0.1009,-0.1156 0.1829,-0.2418 0.2397,-0.3806 0.0568,-0.1388 0.0883,-0.2776 0.0925,-0.4143 0.0063,-0.4985 -0.0504,-0.9191 -0.1682,-1.2661 -0.1178,-0.3449 -0.2818,-0.6183 -0.4942,-0.8223 -0.2103,-0.204 -0.4522,-0.3428 -0.7256,-0.4185 -0.2734,-0.0736 -0.5615,-0.0883 -0.8665,-0.0442 -0.3049,0.0463 -0.6098,0.1431 -0.9148,0.2945 -0.3049,0.1514 -0.5931,0.3512 -0.8686,0.5993 -0.2755,0.2461 -0.5194,0.5363 -0.7318,0.8665 -0.2124,0.3302 -0.3807,0.6982 -0.5027,1.102 -0.1198,0.4038 -0.1808,0.8391 -0.1787,1.3039zm10.978 2.8644c0.0231,0.0799 0.042,0.1851 0.061,0.3176 0.0168,0.1325 0.0357,0.2776 0.0546,0.4374 0.019,0.1577 0.0421,0.3197 0.0694,0.4795 0.0253,0.1619 0.0589,0.3113 0.0989,0.4501 0.0378,0.1388 0.0883,0.2544 0.1472,0.3449 0.0568,0.0925 0.1283,0.1472 0.2124,0.1661 0.0589,0.0126 0.1367,0.0189 0.2293,0.0189 0.0925,0 0.1913,-0.0084 0.2965,-0.0294 0.103,-0.0189 0.2019,-0.0505 0.2944,-0.0968 0.0925,-0.0462 0.1662,-0.1072 0.225,-0.1829 0.0589,-0.0778 0.0884,-0.1746 0.0905,-0.2902 0.0021,-0.4144 0.0105,-0.8623 0.0273,-1.3439 0.0168,-0.4816 0.0295,-0.9779 0.0379,-1.4869 0.0084,-0.511 -0.0021,-1.0158 -0.0274,-1.5163 -0.0252,-0.5005 -0.0778,-0.9758 -0.1598,-1.428 -0.082,-0.4521 -0.2061,-0.8601 -0.368,-1.2261 -0.1641,-0.3638 -0.3786,-0.6666 -0.6457,-0.9064 -0.2692,-0.2376 -0.6015,-0.3954 -0.9968,-0.4711 -0.5069,-0.0525 -0.9506,-0.0231 -1.3271,0.0926 -0.3764,0.1156 -0.6982,0.2986 -0.9611,0.5489 -0.2629,0.2502 -0.4774,0.5531 -0.6435,0.9064 -0.1662,0.3554 -0.2923,0.7445 -0.3786,1.1693 -0.0841,0.4248 -0.1367,0.8665 -0.1598,1.3291 -0.021,0.4627 -0.0168,0.9275 0.0084,1.3965 0.0274,0.4669 0.0694,0.9211 0.1262,1.3607 0.0589,0.4395 0.122,0.8496 0.1956,1.2303 0.0715,0.3806 0.143,0.7129 0.2124,1.001 0.0021,0.0063 0.0063,0.0147 0.0126,0.0231 0.0084,0.0085 0.0126,0.0148 0.0126,0.0148 0.1809,0.021 0.3639,0.0168 0.5426,-0.019 0.1809,-0.0336 0.3491,-0.0967 0.5027,-0.1871 0.1556,-0.0884 0.2839,-0.2061 0.3869,-0.3512 0.1031,-0.1452 0.1683,-0.3155 0.1956,-0.5153l0.1262 -0.9338c0.0021,-0.0378 0.021,-0.0694 0.0589,-0.0946 0.0399,-0.0273 0.1093,-0.0505 0.2103,-0.0715 0.1009,-0.021 0.246,-0.0421 0.4353,-0.0631 0.1893,-0.021 0.4332,-0.0463 0.734,-0.0736l0.0631 0zm-1.4385 -1.1609c-0.0505,-0.1767 -0.0883,-0.3764 -0.1094,-0.5952 -0.0231,-0.2187 -0.0294,-0.4437 -0.0189,-0.675 0.0084,-0.2293 0.0379,-0.448 0.0862,-0.6583 0.0463,-0.2082 0.1157,-0.3891 0.204,-0.5447 0.0905,-0.1556 0.2019,-0.2692 0.3386,-0.3407 0.1346,-0.0715 0.2965,-0.0841 0.4837,-0.0379 0.0484,-0.0063 0.0926,0.0337 0.1304,0.1199 0.04,0.0884 0.0736,0.2082 0.1031,0.3617 0.0294,0.1536 0.0546,0.3281 0.0736,0.5237 0.021,0.1956 0.0336,0.3975 0.0441,0.6078 0.0084,0.2103 0.0126,0.4164 0.0105,0.6162 -0.0021,0.1998 -0.0084,0.3828 -0.021,0.5468 -0.1241,0.0042 -0.265,0.0105 -0.4185,0.0168 -0.1556,0.0063 -0.3134,0.0147 -0.4711,0.0253 -0.1577,0.0105 -0.3028,0.021 -0.4353,0.0336z"/>
   </g>
   <path id="_343920288" class="fil12" d="M73.707 76.8782c0,0.0027 0,0.0045 0,0.0054 0,0.0009 0,0.0027 0,0.0054 0.0009,0.0233 0.0063,0.0502 0.0153,0.0825 0.0098,0.0322 0.0296,0.0609 0.0609,0.086 0.0305,0.0242 0.0789,0.0359 0.1444,0.0359 0.2537,-0.0215 0.4688,-0.0332 0.6454,-0.0359 0.1775,-0.0027 0.3228,-0.0027 0.4375,0.0009 0.1139,0.0036 0.2026,0.0027 0.2671,-0.0009 0.0646,-0.0036 0.1103,-0.017 0.1381,-0.0403 0.0287,-0.0233 0.0448,-0.0628 0.0502,-0.1184 0.0045,-0.0564 0.0045,-0.1344 0,-0.2357 -0.0036,-0.061 -0.0206,-0.1067 -0.0493,-0.1363 -0.0296,-0.0305 -0.0663,-0.0502 -0.1103,-0.0601 -0.0448,-0.0098 -0.0896,-0.0152 -0.1371,-0.0152 -0.0466,-0.0009 -0.0897,-0.0018 -0.1282,-0.0036 0.0009,-0.3613 0,-0.6768 -0.0036,-0.9484 -0.0027,-0.2717 -0.0081,-0.5047 -0.0161,-0.6993 -0.0081,-0.1945 -0.0189,-0.3577 -0.0323,-0.4886 -0.0135,-0.1317 -0.0305,-0.2375 -0.0502,-0.3173 -0.0197,-0.0807 -0.0439,-0.1425 -0.0708,-0.1847 -0.0278,-0.043 -0.0592,-0.0735 -0.0942,-0.0905 -0.0358,-0.018 -0.0753,-0.0296 -0.1201,-0.0359 -0.0861,-0.0125 -0.156,-0.0116 -0.2098,0.0018 -0.0529,0.0135 -0.095,0.0368 -0.1264,0.0699 -0.0313,0.0332 -0.0564,0.0718 -0.0762,0.1175 -0.0197,0.0457 -0.0394,0.0941 -0.0582,0.1461 -0.0189,0.052 -0.0431,0.1031 -0.0727,0.1542 -0.1739,0.1237 -0.3003,0.2358 -0.3792,0.3371 -0.078,0.1022 -0.1138,0.1846 -0.1066,0.2492 0.0071,0.0645 0.052,0.1031 0.1353,0.1156 0.0834,0.0126 0.2008,-0.008 0.3505,-0.0618 -0.0026,0.1828 0,0.3702 0.0081,0.5629 0.0081,0.1928 0.0179,0.3828 0.0287,0.5684 0.0108,0.1856 0.0179,0.3586 0.0224,0.52 -0.1004,0.0009 -0.1865,0.0224 -0.2564,0.0618 -0.0699,0.0404 -0.1228,0.0915 -0.1578,0.1542 -0.0358,0.0628 -0.0519,0.1291 -0.0484,0.1981zm3.6899 -0.0914c0.0842,-0.1058 0.1542,-0.2304 0.2097,-0.372 0.0556,-0.1417 0.0969,-0.295 0.1238,-0.4581 0.0268,-0.1641 0.0385,-0.3317 0.0358,-0.503 -0.0018,-0.1712 -0.0188,-0.3397 -0.0511,-0.5047 -0.0323,-0.1649 -0.0798,-0.32 -0.1416,-0.4643 -0.0619,-0.1444 -0.139,-0.2726 -0.2322,-0.3819 -0.0924,-0.1103 -0.1999,-0.1964 -0.3236,-0.2582 -0.1229,-0.0619 -0.2627,-0.0924 -0.4169,-0.0915 -0.1076,-0.0071 -0.2143,0.0027 -0.3209,0.0287 -0.1067,0.0269 -0.208,0.07 -0.3039,0.13 -0.096,0.0592 -0.1811,0.1345 -0.2555,0.2259 -0.0753,0.0906 -0.1345,0.1964 -0.1784,0.3174 -0.044,0.121 -0.0682,0.2564 -0.0708,0.4061 -0.0009,0.1775 0.026,0.337 0.0797,0.4769 0.0538,0.1398 0.1264,0.26 0.2197,0.3604 0.0932,0.0995 0.1981,0.1784 0.3146,0.2349 0.1166,0.0573 0.2367,0.0914 0.3622,0.1021 0.1246,0.0108 0.2456,-0.0017 0.3631,-0.0394 -0.0009,0.1255 -0.018,0.2286 -0.052,0.3102 -0.0332,0.0807 -0.078,0.1416 -0.1327,0.1829 -0.0556,0.0412 -0.1174,0.0636 -0.1838,0.0681 -0.0663,0.0045 -0.1335,-0.0072 -0.2017,-0.0359 -0.0672,-0.0287 -0.1291,-0.0717 -0.1864,-0.13 -0.0574,-0.0582 -0.1049,-0.129 -0.1417,-0.2124 -0.0251,-0.0413 -0.0538,-0.0655 -0.0869,-0.0726 -0.0323,-0.0081 -0.0655,-0.0036 -0.0995,0.0134 -0.0341,0.017 -0.0655,0.0421 -0.0942,0.0744 -0.0296,0.0323 -0.0529,0.0673 -0.0717,0.1058 -0.0179,0.0386 -0.0278,0.0753 -0.0296,0.1103 0.0332,0.1506 0.0897,0.2761 0.1677,0.3765 0.0788,0.1004 0.1721,0.1784 0.2815,0.234 0.1093,0.0555 0.2268,0.0896 0.3532,0.104 0.1255,0.0143 0.2528,0.0098 0.3819,-0.0126 0.1281,-0.0224 0.2519,-0.0619 0.3684,-0.1165 0.1174,-0.0556 0.2223,-0.1255 0.3138,-0.2089zm-0.7262 -2.1784c0.018,0.0027 0.0323,0.0197 0.0422,0.0538 0.0107,0.0331 0.0179,0.0744 0.0224,0.1246 0.0045,0.0493 0.0071,0.1004 0.008,0.1515 0.0009,0.052 0.0018,0.0977 0.0018,0.1371 0,0.0386 0,0.0646 0.0009,0.0762 -0.0278,0.0431 -0.0627,0.0744 -0.104,0.0951 -0.0421,0.0206 -0.086,0.0331 -0.1317,0.0358 -0.0467,0.0036 -0.0897,0 -0.1309,-0.0089 -0.0413,-0.0099 -0.0753,-0.0234 -0.1013,-0.0413 -0.0646,-0.0663 -0.1013,-0.1309 -0.1112,-0.1954 -0.0098,-0.0637 -0.0009,-0.1228 0.0287,-0.1784 0.0296,-0.0556 0.0708,-0.1031 0.1237,-0.1434 0.0538,-0.0404 0.1112,-0.0709 0.1739,-0.0897 0.0619,-0.0197 0.121,-0.0251 0.1775,-0.017zm2.442 2.4635c0.2152,-0.0009 0.4034,-0.0305 0.5666,-0.0897 0.1623,-0.0591 0.2922,-0.1434 0.39,-0.2546 0.0977,-0.1111 0.1559,-0.2438 0.1757,-0.3998 0.0197,-0.156 -0.0063,-0.3308 -0.078,-0.5253 -0.035,-0.0915 -0.078,-0.1739 -0.1291,-0.2493 -0.0511,-0.0744 -0.1076,-0.1425 -0.1686,-0.2043 -0.0609,-0.0619 -0.1228,-0.1184 -0.1864,-0.1704 0.0923,-0.0385 0.1649,-0.0932 0.2178,-0.164 0.0538,-0.07 0.0897,-0.1488 0.1085,-0.2376 0.0188,-0.0878 0.0224,-0.1784 0.0116,-0.2707 -0.0107,-0.0924 -0.034,-0.1802 -0.069,-0.2636 -0.0484,-0.1085 -0.1165,-0.2026 -0.2026,-0.2824 -0.086,-0.0798 -0.1847,-0.1425 -0.294,-0.1891 -0.1094,-0.0466 -0.2241,-0.0753 -0.3425,-0.0852 -0.1183,-0.0099 -0.2349,0 -0.3478,0.0296 -0.113,0.0296 -0.2169,0.0816 -0.3102,0.1551 -0.0932,0.0735 -0.1703,0.1703 -0.2295,0.2913 -0.0833,0.1731 -0.1291,0.3263 -0.1362,0.4599 -0.0063,0.1336 0.0224,0.2519 0.086,0.355 0.0637,0.1031 0.1587,0.1955 0.2869,0.277 0.0081,0.0054 0.0161,0.0099 0.0242,0.0135 0.0081,0.0036 0.0161,0.008 0.0242,0.0134 -0.1533,0.1067 -0.2716,0.225 -0.3559,0.3559 -0.0843,0.1309 -0.1363,0.2654 -0.156,0.4034 -0.0197,0.1381 -0.0098,0.2708 0.0305,0.3981 0.0403,0.1282 0.1085,0.2411 0.2044,0.3406 0.0959,0.0986 0.2178,0.1748 0.3657,0.2286 0.148,0.0529 0.3192,0.0744 0.5137,0.0646zm-0.1076 -1.4577c0.0789,-0.0188 0.148,-0.017 0.2071,0.0045 0.0592,0.0215 0.1076,0.0574 0.1453,0.1067 0.0376,0.0484 0.0645,0.1049 0.0806,0.1676 0.0162,0.0637 0.0198,0.1273 0.0126,0.191 -0.0072,0.0645 -0.0269,0.1228 -0.0592,0.1748 -0.0314,0.0529 -0.0762,0.0923 -0.1335,0.1192 -0.0009,0 -0.0036,0.0009 -0.0081,0.0027 -0.0045,0.0018 -0.0072,0.0027 -0.0081,0.0027 -0.0672,0.0376 -0.13,0.0529 -0.1873,0.0475 -0.0574,-0.0063 -0.1085,-0.0278 -0.1533,-0.0655 -0.0449,-0.0376 -0.0816,-0.0842 -0.1103,-0.1416 -0.0278,-0.0565 -0.0457,-0.1174 -0.0547,-0.182 -0.0081,-0.0636 -0.0045,-0.1255 0.0108,-0.1855 0.0152,-0.0601 0.0439,-0.1112 0.086,-0.1551 0.0422,-0.0431 0.0995,-0.0718 0.1721,-0.087zm-0.242 -1.1134c0.0027,-0.043 0.0206,-0.0825 0.0556,-0.1192 0.0349,-0.0368 0.078,-0.0655 0.1282,-0.0852 0.0511,-0.0206 0.1022,-0.0269 0.1524,-0.0197 0.0502,0.0072 0.0932,0.0323 0.1273,0.0771 0.034,0.0448 0.0511,0.1138 0.0529,0.2062 0,0.026 -0.0036,0.0573 -0.0108,0.0932 -0.0072,0.0368 -0.0179,0.0708 -0.0323,0.104 -0.0143,0.0323 -0.0322,0.0565 -0.0538,0.0717 -0.0295,0.0063 -0.0645,0.0072 -0.1048,0.0018 -0.0404,-0.0045 -0.0816,-0.0152 -0.1229,-0.0323 -0.0412,-0.0161 -0.0779,-0.0385 -0.1111,-0.0663 -0.0332,-0.0269 -0.0583,-0.0601 -0.0735,-0.0986 -0.0162,-0.0395 -0.018,-0.0834 -0.0072,-0.1327zm2.1677 2.5764c0.0815,0.0189 0.1667,0.0045 0.2537,-0.0439 0.0878,-0.0484 0.1757,-0.1228 0.2644,-0.2232 0.0888,-0.1004 0.1748,-0.2205 0.26,-0.3586 0.0843,-0.1389 0.1649,-0.2887 0.2402,-0.4509 0.0762,-0.1614 0.1453,-0.3281 0.208,-0.4984 0.0628,-0.1713 0.1157,-0.3389 0.1605,-0.5039 0.0439,-0.1649 0.0762,-0.32 0.0977,-0.4652 -0.0143,-0.1264 -0.0466,-0.2385 -0.0977,-0.3371 -0.0511,-0.0977 -0.1148,-0.1802 -0.1919,-0.2483 -0.0771,-0.0673 -0.1622,-0.1184 -0.2555,-0.1533 -0.0932,-0.0341 -0.19,-0.052 -0.2886,-0.052 -0.1372,0 -0.277,0.0027 -0.4178,0.0072 -0.1407,0.0053 -0.2815,0.0116 -0.4213,0.0197 -0.1094,0.0063 -0.2035,0.0331 -0.2824,0.0789 -0.0789,0.0466 -0.1416,0.1049 -0.1865,0.1757 -0.0457,0.0708 -0.0726,0.1461 -0.0815,0.225 -0.009,0.0798 0.0018,0.1569 0.0313,0.2304 0.0305,0.0735 0.0816,0.1362 0.1542,0.1882 0.0726,0.0529 0.1668,0.087 0.2842,0.1022 0.0816,0.009 0.1685,0.0171 0.2627,0.0242 0.0932,0.0072 0.1882,0.0126 0.2851,0.0162 0.0968,0.0036 0.19,0.0045 0.2805,0.0027 0.0036,0 0.0081,0.0009 0.0135,0.0027 0.0063,0.0017 0.0108,0.0026 0.0134,0.0026 0,0.0027 0.0009,0.0063 0.0027,0.0117 0.0018,0.0045 0.0027,0.0099 0.0027,0.0152 -0.095,0.2089 -0.1775,0.3891 -0.2474,0.5415 -0.0708,0.1524 -0.1309,0.2824 -0.1811,0.3891 -0.0502,0.1067 -0.0914,0.1963 -0.1255,0.2689 -0.0027,0.0081 -0.0063,0.0144 -0.0108,0.0197 -0.0044,0.0054 -0.008,0.0099 -0.0107,0.0126 -0.0332,0.0681 -0.0699,0.138 -0.1085,0.2107 -0.0376,0.0726 -0.0717,0.1452 -0.1004,0.2178 -0.0287,0.0735 -0.0439,0.1443 -0.0475,0.2125 -0.0036,0.069 0.0125,0.1344 0.0484,0.1954 0.0368,0.0601 0.1004,0.1156 0.1919,0.164z"/>
  </g>
 </g>
</svg>
