<?xml version="1.0" encoding="UTF-8"?>
<!DOCTYPE svg PUBLIC "-//W3C//DTD SVG 1.1//EN" "http://www.w3.org/Graphics/SVG/1.1/DTD/svg11.dtd">
<!-- Creator: CorelDRAW -->
<svg xmlns="http://www.w3.org/2000/svg" xml:space="preserve" width="50.8mm" height="50.8mm" style="shape-rendering:geometricPrecision; text-rendering:geometricPrecision; image-rendering:optimizeQuality; fill-rule:evenodd; clip-rule:evenodd"
viewBox="0 0 50.8 50.8"
 xmlns:xlink="http://www.w3.org/1999/xlink">
 <defs>
  <style type="text/css">
   <![CDATA[
    .fil0 {fill:none}
    .fil9 {fill:#3E256A}
    .fil2 {fill:#3E256D}
    .fil7 {fill:#40246F}
    .fil10 {fill:#41226E}
    .fil17 {fill:#481C55}
    .fil6 {fill:#BBA2D1}
    .fil3 {fill:#BCA2D1}
    .fil8 {fill:#C5C0DE}
    .fil20 {fill:#C8B7D7}
    .fil14 {fill:#C9749A}
    .fil18 {fill:#EAAEAE}
    .fil5 {fill:#EAD1E7}
    .fil15 {fill:#EDB08B}
    .fil13 {fill:#F09BB8}
    .fil1 {fill:#F3A2C2}
    .fil19 {fill:#F3D08F}
    .fil4 {fill:#F9F5F5}
    .fil11 {fill:#FAD87B}
    .fil16 {fill:#FAFAFA}
    .fil12 {fill:#FDFAFD}
   ]]>
  </style>
 </defs>
 <g id="Capa_x0020_1">
  <metadata id="CorelCorpID_0Corel-Layer"/>
  <rect class="fil0" width="50.8" height="50.8"/>
  <rect class="fil0" width="50.8" height="50.8"/>
  <g id="_559656016">
   <g>
    <path id="_559657744" class="fil1" d="M11.1673 20.8375c-1.9364,0.5448 -0.8883,2.7405 1.2531,2.3308 0.6138,-0.1174 1.4425,-0.8505 0.8791,-1.6434 -0.3403,-0.4789 -1.3189,-0.9162 -2.1322,-0.6874z"/>
    <path id="_559658080" class="fil1" d="M31.5168 23.0445c-0.7162,0.2196 -1.4442,0.8234 -0.8349,1.6617 0.9854,1.3559 4.0279,0.5848 2.9083,-0.9878 -0.3409,-0.4786 -1.2652,-0.9218 -2.0734,-0.6739z"/>
   </g>
   <g>
    <path id="_559658728" class="fil2" d="M29.8011 18.8242c-2.113,0.6374 -1.6351,4.4848 0.5012,3.8523 0.8467,-0.2506 1.3888,-1.1325 1.3672,-2.2541 -0.019,-0.9898 -0.8372,-1.9094 -1.8684,-1.5982z"/>
    <path id="_559658344" class="fil2" d="M14.2905 17.1356c-0.9277,0.1731 -1.4868,1.0779 -1.5026,2.1353 -0.015,1.0039 0.7084,1.9947 1.7856,1.7754 2.0524,-0.4177 1.8012,-4.2997 -0.283,-3.9107z"/>
   </g>
   <g>
    <path id="_559658776" class="fil3" d="M4.7584 27.482l0.1193 0.0546 0.5492 -2.307c-0.2638,-0.3469 -2.9359,-2.1421 -3.7541,-3.0381 -0.143,-0.1566 -0.115,-0.1637 -0.2897,-0.2567l-0.047 0.1631 -0.0529 0.6851c0.0679,1.9425 1.0749,3.4794 2.2206,4.9258 0.1722,-0.3001 0.1538,-0.6122 0.5509,-0.701 0.4206,-0.0941 0.5835,0.1777 0.7037,0.4742z"/>
    <path id="_559658200" class="fil3" d="M36.9016 12.0612c1.9786,1.8877 3.804,4.4155 4.5485,7.3233 0.1362,0.5322 0.1664,1.0893 0.6712,1.3095 0.2211,0.0965 0.5638,0.1865 0.8023,0.2513 0.4674,0.127 0.352,-0.0024 0.7764,-0.1541l0.386 0.016c-0.0719,-0.0472 0.0183,-0.0037 -0.1411,-0.0768 -1.2668,-0.5813 -0.5559,0.1586 -1.5363,-2.1773 -0.7167,-1.7076 -1.7908,-3.612 -3.0244,-4.918 -0.3723,-0.3941 -0.6162,-0.6696 -0.9833,-1.0038 -0.1772,-0.1614 -0.3172,-0.3189 -0.492,-0.4687 -0.1501,-0.1284 -0.4339,-0.3952 -0.5823,-0.462 -0.011,0.1886 0.1192,0.0444 -0.0538,0.1182l-0.6453 -0.3541 0.1805 0.2649c0.2753,0.3119 0.0445,0.0521 0.0936,0.3316z"/>
   </g>
   <g>
    <path id="_559658608" class="fil4" d="M1.5442 21.4467l-0.0149 0.2402c0.1968,-0.2415 0.3642,-0.5825 0.6172,-0.8929 0.9112,-1.1179 2.9108,-1.6754 4.3556,-1.8942 0.3915,-0.0593 1.2537,-0.0462 1.5138,-0.1231 0.3717,-0.1099 0.7144,-1.1918 1.1983,-1.9971 1.1594,-1.9297 2.7235,-3.6516 4.502,-4.9821 0.3049,-0.2281 0.625,-0.4889 0.9231,-0.6785 1.4005,-0.8915 1.5903,-0.9123 3.1361,-1.6045 3.9809,-1.7829 9.2686,-1.8487 13.4418,-0.4639 1.248,0.4141 2.2096,0.8356 3.3427,1.395 0.188,0.0929 0.3309,0.1744 0.5327,0.2546 0.1205,0.048 0.1573,0.0502 0.2868,0.0929 0.3132,0.1032 0.2532,0.1188 0.3038,0.1646 0.201,0.0364 0.8984,0.3769 1.0628,0.4896 0.117,-0.0614 0.0978,0.1179 0.0888,-0.1669 -0.1984,-0.1089 -1.3549,-0.9311 -1.9522,-1.2836 -3.9608,-2.3368 -9.2182,-3.0442 -13.7807,-2.2049 -3.3205,0.6109 -5.4575,1.769 -7.9967,3.5865 -0.4863,0.3481 -1.7383,1.5296 -2.1449,2.0204 -0.7762,0.9369 -0.9815,1.0764 -1.8242,2.3385 -0.3744,0.5608 -1.1263,2.0326 -1.1971,2.1309 -0.2669,0.3706 -0.8254,0.3091 -1.2889,0.3796 -1.3913,0.2117 -2.5641,0.4923 -3.689,1.3134 -0.4283,0.3126 -1.4272,1.2593 -1.4169,1.8855z"/>
    <path id="_559657984" class="fil4" d="M49.3896 25.6468l-0.024 -0.1495c-0.0528,-1.1613 -1.3811,-2.4233 -2.0487,-2.9421 -0.4591,-0.3568 -0.9804,-0.6959 -1.5136,-0.9821 -0.3203,-0.1719 -1.4039,-0.7523 -1.7173,-0.7659l-0.386 -0.016 -0.4339 0.375c2.0309,0.8555 4.1676,1.7954 5.5209,3.6976 0.4683,0.6582 0.2258,0.7283 0.6026,0.783z"/>
   </g>
   <path id="_559672192" class="fil5" d="M31.5168 23.0445c0.8082,-0.2479 1.7325,0.1953 2.0734,0.6739 1.1196,1.5726 -1.9229,2.3437 -2.9083,0.9878 -0.6093,-0.8383 0.1187,-1.4421 0.8349,-1.6617zm-20.3495 -2.207c0.8133,-0.2288 1.7919,0.2085 2.1322,0.6874 0.5634,0.7929 -0.2653,1.526 -0.8791,1.6434 -2.1414,0.4097 -3.1895,-1.786 -1.2531,-2.3308zm8.0761 -0.8309c0.2957,-0.1457 2.0129,0.1675 2.4529,0.2273l2.4364 0.3236c0.8986,0.2319 0.6118,1.2305 0.4064,1.9869 -1.0409,3.8304 -5.4371,2.8427 -5.7462,-0.2692 -0.075,-0.7557 -0.1178,-1.9886 0.4505,-2.2686zm10.5577 -1.1824c1.0312,-0.3112 1.8494,0.6084 1.8684,1.5982 0.0216,1.1216 -0.5205,2.0035 -1.3672,2.2541 -2.1363,0.6325 -2.6142,-3.2149 -0.5012,-3.8523zm-15.5106 -1.6886c2.0842,-0.389 2.3354,3.493 0.283,3.9107 -1.0772,0.2193 -1.8006,-0.7715 -1.7856,-1.7754 0.0158,-1.0574 0.5749,-1.9622 1.5026,-2.1353zm3.8156 -7.3769c1.0037,-0.3486 1.5445,0.5256 0.943,1.285 -0.3399,0.4292 -0.8466,0.9661 -1.5518,1.209 -1.6682,0.5748 -1.489,-1.7653 0.6088,-2.494zm3.7862 -0.26c1.0429,-0.1863 1.2576,1.1049 0.1112,1.3782 -1.1212,0.2671 -1.2689,-1.1713 -0.1112,-1.3782zm-20.3481 11.948c-0.0774,0.0861 -0.0425,-0.0444 -0.1247,0.2246 -0.0313,0.1026 -0.0273,0.1595 -0.0364,0.2635 0.1747,0.093 0.1467,0.1001 0.2897,0.2567 0.8182,0.896 3.4903,2.6912 3.7541,3.0381l-0.5492 2.307 -0.1193 -0.0546c0.0539,0.4485 -0.0997,1.1649 -0.1173,1.6545 -0.0222,0.6134 0.0086,1.2166 -0.0093,1.816 0.1769,0.1608 0.2012,0.606 0.2568,0.8278 0.077,0.3069 0.1271,0.5895 0.2099,0.8806 0.4286,1.5064 1.4314,3.0661 2.5234,4.1506 1.3471,1.3377 3.3345,2.4586 5.6152,3.2321 5.2626,1.785 13.6427,1.8403 19.1668,-0.3344 1.1495,-0.4524 1.9969,-0.9695 2.8817,-1.5363 0.3723,-0.2385 0.9136,-0.71 1.2182,-0.9613 1.0197,-0.8407 2.2851,-2.5766 2.894,-3.8396 0.4515,-0.9363 0.8545,-2.2472 0.9762,-3.4653 0.1273,-1.2737 -0.0874,-1.5526 0.4348,-1.7245 0.509,-0.1676 1.2683,-0.2992 1.8125,-0.4282 1.176,-0.2788 2.3873,-0.6272 3.4582,-0.9487 0.6192,-0.1859 1.1155,-0.3246 1.7053,-0.552 0.2707,-0.1043 0.5039,-0.205 0.7852,-0.3068 0.1771,-0.064 0.7475,-0.2198 0.8196,-0.2997 -0.3768,-0.0547 -0.1343,-0.1248 -0.6026,-0.783 -1.3533,-1.9022 -3.49,-2.8421 -5.5209,-3.6976l0.4339 -0.375c-0.4244,0.1517 -0.309,0.2811 -0.7764,0.1541 -0.2385,-0.0648 -0.5812,-0.1548 -0.8023,-0.2513 -0.5048,-0.2202 -0.535,-0.7773 -0.6712,-1.3095 -0.7445,-2.9078 -2.5699,-5.4356 -4.5485,-7.3233 -0.1479,-0.0977 -0.2571,-0.2129 -0.3791,-0.3062 -0.1272,-0.0972 -0.8765,-0.7185 -0.8393,-0.7973 -0.0506,-0.0458 0.0094,-0.0614 -0.3038,-0.1646 -0.1295,-0.0427 -0.1663,-0.0449 -0.2868,-0.0929 -0.2018,-0.0802 -0.3447,-0.1617 -0.5327,-0.2546 -1.1331,-0.5594 -2.0947,-0.9809 -3.3427,-1.395 -4.1732,-1.3848 -9.4609,-1.319 -13.4418,0.4639 -1.5458,0.6922 -1.7356,0.713 -3.1361,1.6045 -0.2981,0.1896 -0.6182,0.4504 -0.9231,0.6785 -1.7785,1.3305 -3.3426,3.0524 -4.502,4.9821 -0.4839,0.8053 -0.8266,1.8872 -1.1983,1.9971 -0.2601,0.0769 -1.1223,0.0638 -1.5138,0.1231 -1.4448,0.2188 -3.4444,0.7763 -4.3556,1.8942 -0.253,0.3104 -0.4204,0.6514 -0.6172,0.8929l0.0149 -0.2402z"/>
   <path id="_559669672" class="fil6" d="M49.3896 25.6468c-0.0721,0.0799 -0.6425,0.2357 -0.8196,0.2997 -0.2813,0.1018 -0.5145,0.2025 -0.7852,0.3068 -0.5898,0.2274 -1.0861,0.3661 -1.7053,0.552 -1.0709,0.3215 -2.2822,0.6699 -3.4582,0.9487 -0.5442,0.129 -1.3035,0.2606 -1.8125,0.4282 -0.5222,0.1719 -0.3075,0.4508 -0.4348,1.7245 -0.1217,1.2181 -0.5247,2.529 -0.9762,3.4653 -0.6089,1.263 -1.8743,2.9989 -2.894,3.8396 -0.3046,0.2513 -0.8459,0.7228 -1.2182,0.9613 -0.8848,0.5668 -1.7322,1.0839 -2.8817,1.5363 -5.5241,2.1747 -13.9042,2.1194 -19.1668,0.3344 -2.2807,-0.7735 -4.2681,-1.8944 -5.6152,-3.2321 -1.092,-1.0845 -2.0948,-2.6442 -2.5234,-4.1506 -0.0828,-0.2911 -0.1329,-0.5737 -0.2099,-0.8806 -0.0556,-0.2218 -0.0799,-0.667 -0.2568,-0.8278 0.0073,2.7588 1.1635,6.0917 3.1635,7.7351 0.4761,0.3912 0.6161,0.2939 0.673,1.1494 0.1754,2.6328 1.3548,4.887 4.5567,4.5334 1.9039,-0.2102 2.7386,-0.5572 4.3705,-1.0806 0.6317,-0.2025 0.9298,-0.0195 1.5541,0.0695 2.1834,0.311 4.5425,0.409 6.854,0.3619 1.9191,-0.0391 1.4923,-0.1036 2.956,0.5904 2.3523,1.1155 6.5904,2.3006 8.2934,-0.0774 0.5884,-0.8215 0.8485,-1.487 1.0338,-2.6257 0.0874,-0.5365 0.0223,-1.1679 0.4438,-1.3436l0.8531 0.941c1.8768,-0.7933 3.7563,-3.2463 4.4072,-5.2331 0.8151,-2.4887 0.1465,-3.5082 0.8912,-3.9745 0.8989,-0.5628 1.9981,-0.9584 2.9333,-1.9357 0.5213,-0.5447 1.0662,-1.0195 1.4291,-1.7825 0.2359,-0.496 0.7052,-2.2685 0.3211,-2.7828l0.024 0.1495z"/>
   <path id="_559669576" class="fil7" d="M1.3831 21.9348c0.0091,-0.104 0.0051,-0.1609 0.0364,-0.2635 0.0822,-0.269 0.0473,-0.1385 0.1247,-0.2246 -0.0103,-0.6262 0.9886,-1.5729 1.4169,-1.8855 1.1249,-0.8211 2.2977,-1.1017 3.689,-1.3134 0.4635,-0.0705 1.022,-0.009 1.2889,-0.3796 0.0708,-0.0983 0.8227,-1.5701 1.1971,-2.1309 0.8427,-1.2621 1.048,-1.4016 1.8242,-2.3385 0.4066,-0.4908 1.6586,-1.6723 2.1449,-2.0204 2.5392,-1.8175 4.6762,-2.9756 7.9967,-3.5865 4.5625,-0.8393 9.8199,-0.1319 13.7807,2.2049 0.5973,0.3525 1.7538,1.1747 1.9522,1.2836 0.2346,0.172 0.3004,0.2308 0.4918,0.4202 0.1484,0.0668 0.4322,0.3336 0.5823,0.462 0.1748,0.1498 0.3148,0.3073 0.492,0.4687 0.3671,0.3342 0.611,0.6097 0.9833,1.0038 1.2336,1.306 2.3077,3.2104 3.0244,4.918 0.9804,2.3359 0.2695,1.596 1.5363,2.1773 0.1594,0.0731 0.0692,0.0296 0.1411,0.0768 0.3134,0.0136 1.397,0.594 1.7173,0.7659 0.5332,0.2862 1.0545,0.6253 1.5136,0.9821 0.6676,0.5188 1.9959,1.7808 2.0487,2.9421 0.3841,0.5143 -0.0852,2.2868 -0.3211,2.7828 -0.3629,0.763 -0.9078,1.2378 -1.4291,1.7825 -0.9352,0.9773 -2.0344,1.3729 -2.9333,1.9357 -0.7447,0.4663 -0.0761,1.4858 -0.8912,3.9745 -0.6509,1.9868 -2.5304,4.4398 -4.4072,5.2331l-0.8531 -0.941c-0.4215,0.1757 -0.3564,0.8071 -0.4438,1.3436 -0.1853,1.1387 -0.4454,1.8042 -1.0338,2.6257 -1.703,2.378 -5.9411,1.1929 -8.2934,0.0774 -1.4637,-0.694 -1.0369,-0.6295 -2.956,-0.5904 -2.3115,0.0471 -4.6706,-0.0509 -6.854,-0.3619 -0.6243,-0.089 -0.9224,-0.272 -1.5541,-0.0695 -1.6319,0.5234 -2.4666,0.8704 -4.3705,1.0806 -3.2019,0.3536 -4.3813,-1.9006 -4.5567,-4.5334 -0.0569,-0.8555 -0.1969,-0.7582 -0.673,-1.1494 -2,-1.6434 -3.1562,-4.9763 -3.1635,-7.7351 0.0179,-0.5994 -0.0129,-1.2026 0.0093,-1.816 0.0176,-0.4896 0.1712,-1.206 0.1173,-1.6545 -0.1202,-0.2965 -0.2831,-0.5683 -0.7037,-0.4742 -0.3971,0.0888 -0.3787,0.4009 -0.5509,0.701 -1.1457,-1.4464 -2.1527,-2.9833 -2.2206,-4.9258l0.0529 -0.6851 0.047 -0.1631zm5.974 19.274l0.0465 0.0993c0.0992,0.2807 0.096,0.4568 0.3091,1.0451 0.3556,0.9812 1.0565,2.0377 1.8718,2.6195 1.8212,1.2997 5.2502,0.6217 7.3725,-0.1441 1.2342,-0.4454 0.8249,-0.267 2.4377,-0.0749 2.5463,0.3033 4.5853,0.3665 7.1774,0.3084 0.7648,-0.017 0.664,-0.0048 1.2406,0.2691 3.4241,1.6268 8.4899,3.0448 10.779,-1.0368 0.9476,-1.6896 0.0625,-1.3088 1.1765,-1.8268 1.0658,-0.4956 1.1222,-0.6842 1.8579,-1.1717 2.0739,-1.597 3.8906,-4.5995 4.0015,-8.2806 0.9525,-0.5402 1.5556,-0.8302 2.4217,-1.5581 2.4976,-2.0987 3.7126,-5.0255 1.8411,-8.0791 -0.8653,-1.4119 -2.5176,-2.6242 -4.414,-3.4722 -1.7039,-0.7619 -1.2002,-0.1759 -1.9106,-1.9924 -1.1766,-3.0091 -3.4283,-5.8226 -6.0136,-7.7659 -2.8605,-2.1501 -6.1391,-3.3412 -9.8111,-3.8501 -8.1092,-1.1238 -15.8535,2.5664 -19.9017,9.1056 -0.8687,1.4033 -0.3977,1.4128 -1.3991,1.5433 -1.6033,0.2089 -3.7636,0.8973 -4.7901,2.0056 -0.1571,0.1697 -0.3619,0.3268 -0.5151,0.5112 -1.9821,2.3859 -1.0751,5.6684 0.4867,7.9681 0.2905,0.4278 0.5663,0.7583 0.8682,1.1198 0.4192,0.5019 0.8236,0.7502 0.8543,1.0951 0.1134,1.2753 -0.176,1.7215 0.2178,3.6653 0.413,2.039 1.1523,3.8152 2.416,5.3999 0.9741,1.2216 1.1488,0.8272 1.2539,1.6918 0.0353,0.29 0.1117,0.5205 0.1251,0.8056z"/>
   <path id="_559658296" class="fil8" d="M41.6261 41.2959c-0.7357,0.4875 -0.7921,0.6761 -1.8579,1.1717 -1.114,0.518 -0.2289,0.1372 -1.1765,1.8268 -2.2891,4.0816 -7.3549,2.6636 -10.779,1.0368 -0.5766,-0.2739 -0.4758,-0.2861 -1.2406,-0.2691 -2.5921,0.0581 -4.6311,-0.0051 -7.1774,-0.3084 -1.6128,-0.1921 -1.2035,-0.3705 -2.4377,0.0749 -2.1223,0.7658 -5.5513,1.4438 -7.3725,0.1441 -0.8153,-0.5818 -1.5162,-1.6383 -1.8718,-2.6195 -0.2131,-0.5883 -0.2099,-0.7644 -0.3091,-1.0451l-0.0465 -0.0993 -0.0015 0.2961c-1.2541,0.3862 -6.6171,1.6616 -4.3144,3.4082 1.8599,1.4105 7.9553,2.2684 10.7163,2.5641 1.3499,0.1446 2.6666,0.2561 4.0222,0.3884 4.7833,0.4669 8.2775,0.2771 12.8936,0.2213 2.7985,-0.0338 9.1423,-0.7129 11.9042,-1.3358 1.357,-0.306 6.5515,-1.3594 5.4436,-3.1102 -0.4343,-0.6862 -1.9594,-1.2223 -2.937,-1.4986 -0.5758,-0.1627 -3.2352,-0.7252 -3.458,-0.8464z"/>
   <path id="_559658944" class="fil9" d="M2.6715 7.6002c0.2729,-0.255 0.9742,-0.3859 1.5786,-1.4247 0.0836,-0.1436 0.2625,-0.5415 0.3401,-0.6175 0.0644,-0.2619 0.2327,-0.8944 0.37,-1.0742 0.1152,0.3435 0.2359,0.7273 0.368,1.0364 0.1626,0.3806 0.3623,0.6334 0.4975,0.966 0.0275,0.0169 0.0251,0.0103 0.089,0.0672 0.0044,0.004 0.086,0.0863 0.0897,0.0904 0.8005,0.8498 1.0768,0.7459 1.3514,1.0061 0.3251,0.0835 0.3356,0.0881 0.4332,0.2151 -0.8765,0.4297 -0.7519,0.4149 -1.3968,0.7763 -0.39,0.4354 -0.6008,0.6112 -0.9082,1.2692 -0.2288,0.49 -0.3996,1.0795 -0.5374,1.6489l-0.0838 -0.2777c-0.5688,-0.376 -0.1508,-1.2404 -1.442,-2.4267 -0.2184,-0.2006 -0.0943,-0.2125 -0.4275,-0.3456 -0.4463,-0.1784 -0.0467,-0.1058 -0.4599,-0.308 -0.1834,-0.0897 -0.3345,-0.1399 -0.5493,-0.1834l0.2236 -0.0905c-0.1767,-0.1312 -0.0386,-0.0339 -0.135,-0.1469l0.5988 -0.1804zm1.9439 -4.8541c-0.6573,0.3106 -0.6259,0.8126 -0.8849,1.5658 -0.6221,1.8087 -0.9654,1.8608 -2.4585,2.5352 -0.5784,0.2613 -1.1165,0.742 -0.6697,1.4839 0.4537,0.7531 2.0721,0.5779 2.7623,2.1744 0.6318,1.4616 0.5482,3.5596 1.9037,3.0396 0.8671,-0.3327 0.7017,-2.2526 1.4794,-3.4631 0.8297,-1.2917 2.8216,-1.0691 2.6702,-2.3412 -0.1409,-1.1837 -1.7522,-0.7016 -2.7173,-2.2358 -0.8072,-1.2832 -0.7267,-3.4008 -2.0852,-2.7588z"/>
   <path id="_559658392" class="fil10" d="M23.2547 22.5023c-0.295,1.4339 -2.2915,1.681 -2.8347,0.5721 -0.3607,-0.3631 -0.4045,-1.2457 -0.4064,-1.7139l2.7195 0.2916c0.3229,0.0144 0.2969,0.0765 0.6793,0.1289l-0.1577 0.7213zm-4.0113 -2.4957c-0.5683,0.28 -0.5255,1.5129 -0.4505,2.2686 0.3091,3.1119 4.7053,4.0996 5.7462,0.2692 0.2054,-0.7564 0.4922,-1.755 -0.4064,-1.9869l-2.4364 -0.3236c-0.44,-0.0598 -2.1572,-0.373 -2.4529,-0.2273z"/>
   <path id="_559658464" class="fil11" d="M4.5902 5.558c-0.0776,0.076 -0.2565,0.4739 -0.3401,0.6175 -0.6044,1.0388 -1.3057,1.1697 -1.5786,1.4247l-0.2461 0.1968c0.6714,0.4138 1.1289,0.1071 2.5532,1.7872 0.3135,-0.1069 0.3278,-0.3039 0.4993,-0.5156 0.1221,-0.1507 0.3982,-0.4014 0.5628,-0.5262 0.8287,-0.6287 0.7773,-0.4664 1.3372,-0.7828 0.1161,0.192 0.004,-0.0503 -0.0221,-0.1097 -0.2746,-0.2602 -0.5509,-0.1563 -1.3514,-1.0061 -0.0037,-0.0041 -0.0853,-0.0864 -0.0897,-0.0904 -0.0639,-0.0569 -0.0615,-0.0503 -0.089,-0.0672l-0.2399 0.0057 -0.3376 -0.6945c-0.1632,-0.3684 -0.245,-0.5645 -0.3978,-0.5832l-0.2602 0.3438z"/>
   <path id="_559658128" class="fil12" d="M18.1061 9.7587c-2.0978,0.7287 -2.277,3.0688 -0.6088,2.494 0.7052,-0.2429 1.2119,-0.7798 1.5518,-1.209 0.6015,-0.7594 0.0607,-1.6336 -0.943,-1.285z"/>
   <path id="_559657240" class="fil13" d="M20.42 23.0744c0.5432,1.1089 2.5397,0.8618 2.8347,-0.5721 -0.3125,-0.6866 -2.3297,-0.552 -2.8347,0.5721z"/>
   <path id="_559657888" class="fil14" d="M20.42 23.0744c0.505,-1.1241 2.5222,-1.2587 2.8347,-0.5721l0.1577 -0.7213c-0.3824,-0.0524 -0.3564,-0.1145 -0.6793,-0.1289l-2.7195 -0.2916c0.0019,0.4682 0.0457,1.3508 0.4064,1.7139z"/>
   <path id="_559657840" class="fil15" d="M2.2077 7.9275c0.4614,0.0997 0.7413,0.3538 1.0914,0.5217 0.1893,0.0299 0.2375,0.086 0.3615,0.1698 0.2502,0.1689 0.466,0.4755 0.6116,0.7763 0.4393,0.9081 0.3164,0.4308 0.6423,1.5184l0.6223 -1.2773c0.138,-0.289 0.1327,-0.3333 0.3324,-0.5609 0.0988,-0.1127 0.1304,-0.1489 0.215,-0.2312 0.1863,-0.1814 0.1576,-0.1693 0.308,-0.203 0.6449,-0.3614 0.5203,-0.3466 1.3968,-0.7763 -0.0976,-0.127 -0.1081,-0.1316 -0.4332,-0.2151 0.0261,0.0594 0.1382,0.3017 0.0221,0.1097 -0.5599,0.3164 -0.5085,0.1541 -1.3372,0.7828 -0.1646,0.1248 -0.4407,0.3755 -0.5628,0.5262 -0.1715,0.2117 -0.1858,0.4087 -0.4993,0.5156 -1.4243,-1.6801 -1.8818,-1.3734 -2.5532,-1.7872l0.2461 -0.1968 -0.5988 0.1804c0.0964,0.113 -0.0417,0.0157 0.135,0.1469z"/>
   <path id="_559656688" class="fil16" d="M21.8923 9.4987c-1.1577,0.2069 -1.01,1.6453 0.1112,1.3782 1.1464,-0.2733 0.9317,-1.5645 -0.1112,-1.3782z"/>
   <path id="_559657168" class="fil17" d="M4.8628 11.2817c-0.1117,-0.5713 -0.305,-1.1697 -0.5633,-1.6469 -0.1548,-0.2859 -0.2636,-0.4334 -0.4471,-0.6451 -0.2173,-0.2508 -0.4172,-0.3726 -0.5533,-0.5405 -0.3501,-0.1679 -0.63,-0.422 -1.0914,-0.5217l-0.2236 0.0905c0.2148,0.0435 0.3659,0.0937 0.5493,0.1834 0.4132,0.2022 0.0136,0.1296 0.4599,0.308 0.3332,0.1331 0.2091,0.145 0.4275,0.3456 1.2912,1.1863 0.8732,2.0507 1.442,2.4267z"/>
   <path id="_559657144" class="fil18" d="M4.8628 11.2817l0.0838 0.2777c0.1378,-0.5694 0.3086,-1.1589 0.5374,-1.6489 0.3074,-0.658 0.5182,-0.8338 0.9082,-1.2692 -0.1504,0.0337 -0.1217,0.0216 -0.308,0.203 -0.0846,0.0823 -0.1162,0.1185 -0.215,0.2312 -0.1997,0.2276 -0.1944,0.2719 -0.3324,0.5609l-0.6223 1.2773c-0.3259,-1.0876 -0.203,-0.6103 -0.6423,-1.5184 -0.1456,-0.3008 -0.3614,-0.6074 -0.6116,-0.7763 -0.124,-0.0838 -0.1722,-0.1399 -0.3615,-0.1698 0.1361,0.1679 0.336,0.2897 0.5533,0.5405 0.1835,0.2117 0.2923,0.3592 0.4471,0.6451 0.2583,0.4772 0.4516,1.0756 0.5633,1.6469z"/>
   <path id="_559656352" class="fil19" d="M4.5902 5.558l0.2602 -0.3438c0.1528,0.0187 0.2346,0.2148 0.3978,0.5832l0.3376 0.6945 0.2399 -0.0057c-0.1352,-0.3326 -0.3349,-0.5854 -0.4975,-0.966 -0.1321,-0.3091 -0.2528,-0.6929 -0.368,-1.0364 -0.1373,0.1798 -0.3056,0.8123 -0.37,1.0742z"/>
   <path id="_559657432" class="fil20" d="M36.9016 12.0612c-0.0491,-0.2795 0.1817,-0.0197 -0.0936,-0.3316l-0.1805 -0.2649 0.6453 0.3541c0.173,-0.0738 0.0428,0.0704 0.0538,-0.1182 -0.1914,-0.1894 -0.2572,-0.2482 -0.4918,-0.4202 0.009,0.2848 0.0282,0.1055 -0.0888,0.1669 -0.1644,-0.1127 -0.8618,-0.4532 -1.0628,-0.4896 -0.0372,0.0788 0.7121,0.7001 0.8393,0.7973 0.122,0.0933 0.2312,0.2085 0.3791,0.3062z"/>
  </g>
 </g>
</svg>
