<?xml version="1.0" encoding="UTF-8"?>
<!DOCTYPE svg PUBLIC "-//W3C//DTD SVG 1.1//EN" "http://www.w3.org/Graphics/SVG/1.1/DTD/svg11.dtd">
<!-- Creator: CorelDRAW -->
<svg xmlns="http://www.w3.org/2000/svg" xml:space="preserve" width="69.46mm" height="69.46mm" style="shape-rendering:geometricPrecision; text-rendering:geometricPrecision; image-rendering:optimizeQuality; fill-rule:evenodd; clip-rule:evenodd"
viewBox="0 0 69.46 69.46"
 xmlns:xlink="http://www.w3.org/1999/xlink">
 <defs>
  <style type="text/css">
   <![CDATA[
    .fil0 {fill:#152931}
    .fil1 {fill:#646C66}
    .fil2 {fill:#9A734A}
   ]]>
  </style>
 </defs>
 <g id="Capa_x0020_1">
  <metadata id="CorelCorpID_0Corel-Layer"/>
  <g id="_594757664">
   <path id="_594767360" class="fil0" d="M41.3029 45.5413c0.3778,0.5953 0.1313,2.4121 -0.4963,3.4246 -1.6209,2.6148 -5.8635,3.0576 -8.9195,1.8971 -0.4594,-0.1745 -0.3288,-0.1856 -0.41,-0.268 -0.5703,-0.4277 -1.9483,-1.3305 -2.1102,-2.2837l0.1224 -3.7976c1.9474,-0.1611 3.7272,-0.4513 5.7427,-0.4383l5.8264 0.4382 0.2445 1.0277zm-8.0283 -2.4266l2.2789 -1.0704c0.3315,0.6176 -0.0341,1.5819 -0.7042,1.1302 -0.6063,-0.4085 -0.5927,-0.6001 -1.5747,-0.0598zm11.069 -12.8775c-0.1523,-0.233 0.0516,-0.1678 -0.1947,-0.0628 -0.0065,0.0028 -0.1767,0.1517 -0.193,0.1658 -0.3943,0.3398 -0.6684,0.6011 -1.3029,0.8308 -1.7728,0.6419 -4.1729,-0.0916 -5.8629,1.9547 -0.1482,0.1794 -0.1687,0.2836 -0.3849,0.414l-0.2386 0.5114c-0.0633,-1.2222 0.4657,-2.3207 1.1106,-2.8437 0.8222,-0.6668 1.7928,-0.8294 3.0435,-0.9566 1.2939,-0.1315 2.3464,-0.1867 3.0886,-0.9651l1.1758 -2.8744c0.9267,1.0409 1.2734,5.3651 1.2275,6.9509 -0.0575,1.984 -0.2931,5.5636 -1.1883,7.0573l-0.0936 0.2557 -0.2248 -0.2865 -1.3013 -0.7206c0.5694,0.4346 1.3752,2.114 1.2911,2.953l-0.912 3.4044c-0.1957,-1.5617 0.0298,-2.132 -0.8284,-3.3565 -0.1789,-0.2551 -0.3186,-0.3507 -0.4775,-0.5588l-0.2287 -0.3749c-0.1616,-0.1776 -0.8231,-0.5276 -1.1803,-0.5998 -0.2604,-0.0527 0.0352,0.0923 -0.6758,-0.2569l-0.0252 0.0528 0.9689 2.4261c-0.278,-0.1038 -0.8256,-0.5501 -1.2117,-0.7772 -2.5738,-1.5137 -4.5118,-2.6033 -7.7077,-0.7799l-2.524 1.594c0.1134,-1.3293 0.4066,-1.4107 0.7106,-2.1482l-0.1988 -0.1712c-0.3077,0.3669 0.3464,-0.1437 -0.1218,0.096 -0.0141,0.0071 -0.0409,0.0188 -0.0573,0.0266 -0.3647,0.1718 -1.2273,0.411 -1.5052,0.8278l-0.0599 0.1135c-0.0761,0.17 -0.007,0.1574 -0.1587,0.3757 -0.0519,0.0747 -0.1736,0.2028 -0.2332,0.2803l-0.6785 3.1797c-0.2276,-0.1777 -0.4739,-0.4927 -0.5351,-0.791 -0.7934,-3.1245 -0.62,-2.651 0.9427,-5.4597l-1.2185 0.5581 0.368 -1.2891c-0.2393,0.1659 -0.2202,0.2364 -0.5587,0.5988 -0.2432,-0.8674 -0.4701,-1.4408 -0.6185,-2.4383 -0.1303,-0.8758 -0.2808,-1.8157 -0.3207,-2.766 -0.0953,-2.2694 0.0553,-3.4587 0.3367,-5.6157 -0.0031,0.0636 -0.3723,1.6721 -0.4369,2.7015 -0.0696,1.1104 -0.0368,2.2348 0.0068,3.3457 0.0909,2.3103 0.4148,3.5304 0.8903,5.6643 -0.9835,-1.2163 -1.2702,-5.0389 -1.3232,-6.9473l1.2233 -7.107c0.054,1.2534 0.4695,2.241 1.1225,2.8425 0.8418,0.7754 1.6349,0.8395 3.0187,0.9809 1.198,0.1223 2.3184,0.3303 3.039,0.9322l1.2122 2.7593c-0.4701,-0.7326 -0.6212,-1.2261 -1.3371,-1.6822 -1.7428,-1.1106 -5.3378,-0.9081 -6.2127,-1.507l-0.9203 -0.7262c0.2516,2.6869 3.348,2.3305 5.0191,2.6995 2.505,0.5531 3.0649,2.0723 3.8143,3.8979l0.6031 -2.3974 0.5548 2.298c2.2976,-6.4541 7.0469,-2.099 8.4833,-6.2892zm-7.2259 -1.5l-0.5998 0.0836c0,0.2043 -0.0048,0.2487 0.0857,0.4276l-0.0005 -0.0848c-0.2071,-0.0001 -0.125,0.0061 -0.1813,-0.0924l-0.0813 -0.1372c-0.6964,0.5634 -0.6429,1.5039 -1.0507,2.1306l-0.4173 -1.1306c-0.5017,-0.5056 -0.0378,-0.4383 -0.6251,-0.6576 -0.2769,-0.1035 -0.6045,-0.2373 -0.7314,-0.4899 -0.6995,-0.4401 -1.4646,-0.658 -1.9016,-1.319 -1.5046,-2.2758 0.1405,-5.4269 3.5319,-5.5541 1.7257,-0.0647 3.6486,0.9549 4.148,2.4993 0.3147,0.9735 0.2668,2.071 -0.2113,2.8604 -0.3645,0.6022 -1.2694,1.2131 -1.9653,1.4641zm-8.4996 -3.5766l0.2518 -0.7895c-0.193,0.1396 -0.7417,0.9314 -0.9201,1.1367l0.4241 -1.0171c-0.4161,0.2507 -0.4597,0.5961 -0.9758,1.0093 0.0899,-0.3521 0.1986,-0.4796 0.3922,-0.8396 -0.5673,0.3607 -0.9842,0.9939 -1.3761,1.5213 0.3414,-1.3767 1.7819,-2.0477 2.8193,-2.694 0.0081,0.0151 0.02,0.0242 0.0213,0.0467l0.0329 0.2028 0.5684 -0.4836c-0.1141,0.2577 -0.9554,1.6585 -1.238,1.907zm0.2583 25.5075l1.2643 0.983c1.3674,1.0021 3.268,1.6072 5.0913,1.5844 1.2641,-0.0158 2.7049,-0.2815 3.6833,-0.7658 0.528,-0.2614 0.9751,-0.4784 1.4398,-0.785 0.2781,-0.1835 0.3906,-0.2905 0.6376,-0.4798l0.6597 -0.572c1.0552,-1.1684 1.5932,-1.7885 2.4023,-3.305 2.1101,-3.9548 2.7901,-10.0817 2.6922,-14.6513 -0.067,-3.1255 -0.517,-6.5077 -2.9858,-8.6131 -3.6742,-3.1336 -8.6674,-3.9649 -13.2908,-2.2343 -1.5292,0.5725 -2.6563,1.2787 -3.6323,2.1942 -2.1811,2.0456 -2.9471,4.5286 -3.0252,8.5675 -0.113,5.8315 0.7737,13.6765 5.0636,18.0772z"/>
   <path id="_594767312" class="fil0" d="M18.9787 54.5509c0.1988,-0.2309 0.8627,-0.5697 1.2166,-0.9215 0.9812,-0.9759 1.8717,-2.5158 2.0824,-3.9859l-0.0911 3.4936c-0.7195,1.0299 -1.443,1.4901 -3.2079,1.4138zm-1.9994 -1.0955c-0.0471,-0.103 -0.2321,0.1128 0.0474,-0.4171 0.0791,-0.15 0.117,-0.2057 0.1913,-0.327 0.6161,-1.0058 2.5015,-4.3527 2.9319,-4.7807 0.918,0.8823 -0.085,2.7115 -0.5807,3.5328 -0.6568,1.0881 -1.307,2.2789 -2.5899,1.992zm-4.2941 -4.1701c0.6769,-0.0447 1.5303,-1.2523 2.3327,-1.5159l2.9825 -0.5249 -2.6493 4.8653 -1.4398 -0.0071c0.281,0.9529 1.3653,0.6348 -0.8128,3.8586 -0.4111,0.6085 -0.7473,1.1316 -1.2273,1.6009 -0.802,0.7842 -1.0135,0.5777 -1.743,0.7424 -1.4911,0.3366 2.2649,2.1097 2.4892,2.2168 0.363,0.1735 1.3688,0.7261 1.3685,0.0893 -0.0003,-0.7503 -1.0152,-0.6899 0.2933,-2.956l1.5918 -2.6781c0.2404,0.0959 0.562,0.3766 0.8764,0.5558 0.3261,0.1858 0.6634,0.3447 1.0525,0.4833 0.8084,0.2881 1.8114,0.3481 2.6851,0.2132 1.7556,-0.2711 2.8067,-1.1 3.6962,-2.4694 0.9333,-1.4371 0.7484,-3.4961 -0.1575,-4.8199l-3.3927 -2.7741c0.0341,-0.6887 -0.1257,-0.799 -0.8199,-0.8099 -2.0576,-0.0322 -4.5671,0.8227 -6.1309,2.1051l-0.8137 0.8142c-0.3053,0.3348 -0.5988,0.5813 -0.1813,1.0104z"/>
   <path id="_594767264" class="fil0" d="M36.0474 25.5474c0.0164,-0.0881 0.1351,-0.2724 0.173,-0.4143 0.1052,-0.3932 0.1038,-0.9164 -0.06,-1.3214l0.4935 0.9018c-0.0306,0.3682 -0.1465,0.5922 -0.6065,0.8339zm-0.6704 0.0172c-0.0272,-0.0193 -0.0423,0.063 -0.0496,-0.1131 -0.0021,-0.0498 -0.0007,-0.0696 0.0003,-0.1114 0.0078,-0.3469 -0.0078,-1.4767 0.0383,-1.6492 0.3639,0.0886 0.3795,0.702 0.3749,0.9841 -0.0061,0.3738 0.0047,0.7728 -0.3639,0.8896zm-1.7085 -0.4252c0.1654,-0.1115 0.2038,-0.5447 0.3689,-0.7304l0.6806 -0.5746 0.046 1.6288 -0.3671 0.2112c0.2124,0.2007 0.441,-0.0406 0.364,1.1013 -0.0145,0.2155 -0.0226,0.3982 -0.0752,0.5885 -0.088,0.318 -0.1723,0.2968 -0.3334,0.4466 -0.3293,0.3061 0.8879,0.2014 0.9608,0.1954 0.1179,-0.0095 0.4554,-0.0178 0.3611,-0.1797 -0.111,-0.1907 -0.3601,-0.0252 -0.3626,-0.7949l0.0086 -0.9163c0.0753,-0.0112 0.1986,0.0126 0.3051,0.0116 0.1103,-0.001 0.2196,-0.0104 0.339,-0.0327 0.2482,-0.0464 0.5121,-0.1794 0.7142,-0.343 0.4063,-0.3286 0.551,-0.6948 0.5746,-1.1745 0.0248,-0.5034 -0.3268,-0.9996 -0.7529,-1.2022l-1.2729 -0.2035c-0.0932,-0.1802 -0.1502,-0.1846 -0.3283,-0.0847 -0.5279,0.2962 -1.0395,0.8847 -1.2474,1.442l-0.0865 0.3274c-0.0281,0.1303 -0.0662,0.2363 0.1034,0.2837z"/>
   <path id="_594767144" class="fil0" d="M49.3903 49.9209c0.2506,0.1454 1.2394,1.4712 1.4944,1.8095l1.4036 2.0269 -1.2886 1.1555c-0.3667,-0.3097 -1.5604,-4.5001 -1.6094,-4.9919zm-3.49 -0.0199c0.2992,0.3598 0.2078,0.1046 0.6403,0.4301 1.373,1.0337 1.7105,3.2572 2.2348,5.079l-0.8658 0.6609c0.293,0.465 1.4256,0.0476 2.1643,2.3854 0.8969,2.8387 -0.2067,3.0955 0.2568,3.6132 0.241,0.2692 2.8569,-0.8993 3.2594,-1.1792l0.8343 -0.7061c-0.3783,-0.475 -1.2761,-0.2086 -1.8408,-0.9861l-1.0218 -1.9275c0.3053,-0.4467 1.5402,-1.4466 2.0087,-1.8504 0.3421,0.316 1.9275,2.4413 2.0161,3.0749 0.1159,0.8288 -1.2624,2.4668 2.0553,0.7039l1.4779 -0.8349 0.2517 -0.5559c-1.307,-0.7103 -1.2067,0.2636 -3.3303,-2.4949 -0.7221,-0.938 -1.8078,-2.4008 -2.4504,-3.3753 -0.9078,-1.3768 -4.3133,-5.1712 -1.2195,-5.0111 1.5164,0.0785 2.7689,1.2436 3.7454,2.1435 0.4219,0.3888 1.4625,0.2912 0.3547,-1.042 -0.6474,-0.7791 -2.0326,-1.9434 -3.4352,-2.3944 -3.626,-1.1658 -4.132,1.8369 -6.3422,3.4751 -0.3542,0.2625 -0.7169,0.2727 -0.7937,0.7918z"/>
   <path id="_594767120" class="fil0" d="M40.3691 14.4585c0.081,-0.4472 0.3355,-0.8877 0.6249,-1.1777l0.0513 1.3333 -0.6762 -0.1556zm-4.4319 -0.428c-0.1156,-0.0958 -0.0323,0.0357 -0.2011,-0.1984l-0.3946 -0.7179c-0.187,-0.328 -0.3402,-0.6657 -0.5371,-1.0044l-1.0989 -1.9787 -2.3347 0.1624c0.0921,0.5895 0.61,0.3823 0.7593,1.4849l0.2139 2.1312 -0.5179 0.4208 0.5615 0.5219c0.0872,0.4246 0.1339,1.1915 0.0948,1.6245l-0.4883 1.191c0.1978,0.1027 2.2941,0.1627 2.5658,-0.1554 0.1317,-0.3123 -0.1437,-0.3618 -0.4003,-0.6433 -0.4464,-0.4895 -0.391,-2.2854 -0.4398,-3.1834 0.2211,0.3114 1.8433,3.3495 2.1951,3.9846 0.9933,0.0782 1.6156,0.0749 2.6504,0.2749 0.1263,0.0244 0.3285,0.0841 0.4408,0.0985 0.2545,0.0325 0.1698,0.0512 0.4405,-0.0893l0.2415 -2.1846 1.3542 0.3679c0.1902,1.2399 -0.0774,1.3011 -0.7462,2.0786l2.5624 0.6594c0.1061,-0.4305 -0.2509,-0.9948 -0.3098,-1.6267 -0.0654,-0.7026 -0.0494,-3.4133 -0.0468,-4.282 0.003,-0.9809 0.0475,-0.8818 0.5349,-1.7139l-3.0649 -0.6716c-0.0492,0.0643 -0.1439,-0.1411 -0.0738,0.2849 0.0159,0.0969 0.1002,0.2613 0.1226,0.3931 0.1348,0.7936 -0.331,1.5181 -0.7349,2.1428l-0.9538 0.0053c0.1617,1.5108 1.2917,0.1506 -0.872,3.4821 -0.2456,-0.3437 -0.1735,-0.9072 -0.17,-1.352l0.5177 -1.1139 -0.5016 -0.4205c-0.0427,-0.6237 -0.0681,-2.5368 0.2113,-3.1214l0.2926 -0.6612c-0.4099,-0.2902 -1.8946,-0.1796 -2.4185,-0.1775 0.0092,0.6173 0.4949,0.5546 0.5311,1.7228 0.023,0.7445 0.0278,1.5199 0.0146,2.2645z"/>
   <path id="_594767048" class="fil0" d="M27.4684 61.1882c0.0736,-0.9293 0.3306,-2.0223 0.4761,-2.974l0.3807 -2.9849c0.722,0.0093 1.3891,0.672 1.7145,1.0626 0.9334,1.1209 0.7691,2.8782 -0.4236,4.1033 -0.5566,0.5717 -1.1368,0.7491 -2.1477,0.793zm-2.2697 -3.4033c0.1665,-0.3531 0.3407,-0.5515 0.5884,-0.8755 0.3113,-0.4073 0.4372,-0.6384 0.7284,-0.7889l-0.2007 1.9791 -1.1161 -0.3147zm2.9107 -4.2761c-0.5522,-0.1594 -2.068,-0.7337 -2.5213,-0.7316 -0.104,0.4841 0.0974,0.8356 -0.1121,1.5087 -0.8396,2.697 -2.4456,2.2416 -2.8909,2.4145 0.3749,1.4591 0.5499,1.2028 -0.3355,2.4122 -1.0515,1.4364 -1.6369,0.8758 -2.0707,1.4144l0.5582 0.6119c0.1934,0.1437 1.8925,0.981 2.4709,0.811 0.149,-1.4427 0.0041,-1.6325 0.8839,-2.7183l1.927 0.6121 -0.5536 1.3735c-0.4066,0.4781 -0.7526,0.3241 -1.1622,0.6274l2.1866 1.0011c1.0491,0.0858 1.9933,-0.0057 2.8991,-0.365 1.3951,-0.5534 2.6217,-1.8289 2.919,-3.5945 0.5549,-3.2947 -1.7372,-4.667 -4.1984,-5.3774z"/>
   <path id="_594766904" class="fil0" d="M8.6205 44.1823c-0.0725,0.5508 1.0245,2.0602 1.3567,2.593 0.4842,0.0449 5.8798,-1.481 6.9597,-1.7212 1.1823,-0.2631 2.3554,-0.5355 3.5812,-0.7884 1.6511,-0.3408 1.9352,-0.408 3.5523,-0.8745l-0.1465 -0.5386 -1.2888 0.0972c-0.2958,-0.2122 -0.5295,-0.6684 -0.2471,-1.0982l1.1432 -0.5218 -0.0479 -0.432c-0.4618,-0.3564 -1.2214,-0.0307 -1.8723,0.1026 -1.6708,0.3424 -12.5281,2.6777 -12.9905,3.1819z"/>
   <path id="_594766736" class="fil0" d="M47.1333 41.3317l1.4971 0.7712 -0.3119 0.9031 -1.7507 0.3823c0.3415,0.3863 12.4004,3.0808 13.6542,3.3831 0.4136,-0.3642 1.0356,-2.0024 1.291,-2.6039 -0.6838,-0.6454 -13.0703,-3.1617 -14.1673,-3.393 -0.1634,0.1748 -0.2307,0.2002 -0.2124,0.5572z"/>
   <path id="_594766712" class="fil0" d="M12.4894 21.7935c0.2887,-0.4508 1.1033,-0.7206 1.7442,-0.7792 0.7916,-0.0725 1.5403,0.1926 2.0662,0.5151 0.4064,0.2493 0.9554,0.7837 1.0802,1.4049l-0.6381 1.8533c-0.5171,-0.1857 -1.6823,-1.1251 -2.1342,-1.4794 -0.6576,-0.5156 -1.4888,-0.9844 -2.1183,-1.5147zm-2.7405 1.0586c2.04,0.3774 2.4081,0.7804 4.2345,1.8389l-0.1517 0.9261c0.2049,-0.0338 1.2121,-0.4351 1.7471,0.4037l0.8006 1.6901c0.3285,-0.1305 0.206,-0.2665 0.6514,-0.8104 0.6406,-0.7823 1.5919,-1.6552 1.9796,-2.6471 0.7358,-1.8821 -0.7091,-3.4005 -1.6407,-4.0485 -1.2565,-0.8741 -3.1161,-1.3568 -4.7025,-0.4081 -1.544,0.9232 -1.9271,1.8207 -2.7137,2.5989 -0.1978,0.1956 -0.2406,0.1553 -0.2046,0.4564z"/>
   <path id="_594768680" class="fil0" d="M25.4876 11.9387c0.181,0.619 0.5293,0.1258 1.1358,1.5801l0.8039 1.9464 -3.8496 -2.8076c-0.4806,0.1296 -1.2656,0.6353 -1.7159,0.9093 0.1754,0.5734 0.7954,0.2218 1.4215,1.5796l0.7631 2.0778c0.0015,0.0017 0.6584,0.098 0.8945,1.0603l0.1995 1.6823c0.4827,0.0938 1.8124,-0.5893 1.8813,-0.6411l0.4053 -0.4459c-0.2398,-0.2252 -0.559,-0.2502 -0.8094,-0.4706 -0.4306,-0.3791 -1.1128,-1.918 -1.3936,-2.4875 0.5524,0.37 1.1456,0.843 1.7009,1.3224l1.7087 1.3764c0.3773,0.1361 1.433,-0.4904 1.7692,-0.6834 -0.1708,-0.5269 -0.4624,-0.2397 -0.9676,-1.4023l-1.4168 -3.4673c-0.3664,-0.9652 -0.2725,-0.8862 -0.1787,-1.9692 -0.4944,-0.085 -2.0946,0.5381 -2.3521,0.8403z"/>
   <path id="_589748888" class="fil0" d="M46.6089 20.3367c0.0414,0.5018 0.5955,0.6468 0.9862,0.9181 0.6569,0.4561 0.4786,0.3583 1.2367,0.5153 0.314,-1.2271 -0.5387,-0.4656 1.1395,-2.3324l1.3702 0.8794c-0.0412,1.0025 -1.3072,1.4921 -2.0078,1.8606 -0.0201,0.4067 0.9906,1.1657 1.3672,1.3702l0.6413 0.2189c0.2868,-0.3826 -0.0355,-0.7164 0.3254,-1.3061l0.7051 -0.9679 0.7897 0.0776c-0.1256,-1.4204 0.0449,-1.0547 0.7158,-1.9548l1.7704 -1.0439c-0.0993,-0.6268 -1.7747,-1.472 -2.2509,-1.7554 -0.0409,1.2656 0.1568,0.8702 -0.9412,2.1935l-1.4712 -1.0395c0.293,-0.8363 0.9585,-1.2652 1.566,-1.7469 -0.3119,-0.6113 -1.5471,-1.17 -2.1578,-1.493 -0.0875,1.4955 0.6934,0.6498 -1.2156,3.3576 -0.3897,0.5528 -0.6176,0.8848 -1.0528,1.3436 -1.055,1.1122 -0.9522,0.487 -1.5162,0.9051z"/>
   <path id="_589748408" class="fil0" d="M41.3947 54.1c0.0759,0.4736 0.3566,0.3711 0.602,0.6906 0.1383,0.1801 0.3486,0.645 0.4357,0.9414 0.2701,0.9196 1.1952,4.8188 1.1142,5.7419l-0.112 1.1311c0.3172,0.2773 0.642,0.0294 1.3776,-0.2109l4.3757 -1.5242c0.1039,-0.5007 -0.497,-1.6407 -0.7421,-1.9883l-1.6746 -1.2074 0.23 1.9335 -1.77 0.605c-0.3887,-1.6531 -0.8392,-3.3837 -1.2266,-5.0247 -0.384,-1.626 0.6553,-2.3985 -0.405,-2.0586 -0.5608,0.1798 -1.8845,0.6106 -2.2049,0.9706z"/>
   <path id="_589748384" class="fil0" d="M19.1448 18.2801c-0.3136,-0.8951 0.5441,-1.4999 1.6814,-0.6769 2.4683,1.7864 1.2366,3.5934 -0.2977,2.3546 -0.4272,-0.345 -1.1522,-1.0169 -1.3837,-1.6777zm-0.1775 -2.6861c-1.9315,0.5058 -2.0095,2.5304 -0.9163,4.0996 0.6414,0.9208 2.1765,2.5839 4.1586,2.1073 1.7813,-0.4282 2.0607,-2.4758 0.9689,-4.1504 -0.632,-0.9694 -2.2745,-2.5637 -4.2112,-2.0565z"/>
   <path id="_589748696" class="fil0" d="M54.2368 25.0341c-0.7679,-0.736 0.1444,-1.4636 0.5778,-1.825 0.3796,-0.3165 1.4239,-1.0491 2.1275,-0.7617 1.2785,0.522 -0.8004,2.8593 -2.7053,2.5867zm1.7615 -4.1975c-1.5631,0.3961 -3.0403,1.6332 -3.5722,2.8174 -0.7183,1.5993 0.5938,3.4945 2.9798,2.8823 1.5597,-0.4002 2.9419,-1.5666 3.4994,-2.8372 0.9096,-2.0731 -0.8642,-3.3801 -2.907,-2.8625z"/>
   <path id="_589748792" class="fil0" d="M39.1735 61.8065c-0.2457,-1.0778 -0.2711,-3.7001 -0.332,-4.9642 -0.0208,-0.4343 -0.0754,-0.8798 0.11,-1.2496 0.5328,-1.0632 -0.1295,-0.8206 -1.9487,-0.4872 -0.4317,0.0791 -0.329,0.1055 -0.4102,0.2071 0.3816,0.7276 0.6096,0.9589 0.6485,1.6986l0.1289 4.8875c0.0278,1.386 -0.9493,1.1621 -0.4269,1.7259l5.9602 -0.7331 -0.5851 -1.9968c-0.2579,-0.4487 -0.8136,-1.2541 -1.3908,-1.1892l0.0181 1.671 -1.772 0.43z"/>
   <path id="_589748816" class="fil0" d="M27.772 35.1697c0.7612,0.09 1.9391,0.2749 2.6169,0.5527l1.4763 1.7099c-1.7677,0.2125 -3.8898,-0.1104 -4.0932,-2.2626zm5.392 2.8887c-0.042,-1.4092 -0.7047,-2.9702 -2.1165,-3.5949 -0.7483,-0.3311 -1.6277,-0.3128 -2.4512,-0.4658l-2.0952 -0.8173c0.3061,2.455 0.7964,6.3321 4.1198,5.77 0.9095,-0.1538 1.5966,-0.6735 2.5431,-0.892z"/>
   <path id="_589749536" class="fil0" d="M47.4192 18.5371c-0.1516,-0.3072 -0.888,-0.7778 -1.2183,-1.0377l-0.9427 0.8681c-0.9542,-0.6665 0.14,-2.892 1.0786,-3.3812l1.0489 0.3802 -0.3061 0.5998 1.5041 0.6549c0.2218,-0.3328 0.2062,-0.991 0.3459,-1.4367l0.4419 -1.255 -0.8569 0.2125c-0.2243,-0.3797 -0.054,-0.9153 -1.3742,-0.8352 -1.7446,0.1058 -3.0856,1.3617 -3.6419,3.1318 -0.7649,2.4335 1.1169,4.1213 2.7072,3.218 0.4393,-0.2495 0.9663,-0.7307 1.2135,-1.1195z"/>
   <path id="_589749320" class="fil0" d="M39.4878 37.4713l-0.8171 0.0713c0.6071,-1.1968 1.6541,-1.99 3.0875,-2.1185l1.0866 -0.2068c-0.3941,1.5833 -1.524,2.2051 -3.357,2.254zm0.5334 -3.1843l-0.5902 0.1145c-0.3737,0.5353 -0.849,0.8658 -1.1965,1.4486 -0.1474,0.2472 -0.3497,0.6203 -0.4652,0.902 -0.1523,0.3713 -0.2263,0.8411 -0.3459,0.9637l-0.0448 0.3525 2.4197 0.842c2.0156,0.4279 3.3938,-1.0652 3.8035,-2.8363l0.4792 -2.8768c-0.7136,0.2575 -0.4039,0.3477 -1.8676,0.7114 -0.6243,0.155 -1.5629,0.3299 -2.1922,0.3784z"/>
   <path id="_594777776" class="fil0" d="M30.798 46.4031c-0.144,2.0143 0.9794,2.429 2.3248,3.3716 -0.6107,-0.447 -1.4813,-2.1439 0.3227,-2.2601l3.9604 0.2211c-0.2462,0.9591 -2.8501,1.0096 -4.0525,1.1512l3.4803 0.7905c-0.3667,0.1322 -0.5045,0.199 -0.7841,0.4195l3.7684 -3.6667c-3.0601,-0.7399 -5.9937,-0.4782 -9.02,-0.0271z"/>
   <path id="_594756800" class="fil0" d="M3.7027 37.64c1.8465,0.9444 1.0084,0.6747 3.4896,0.7813 0.091,0.1157 0.1309,-0.2374 0.1147,0.682 -0.0041,0.2308 -0.0156,0.5242 0.0261,0.7485l0.9911 0.5836 12.2542 -0.0688 2.3139 -0.9353 -13.8826 0.0071 -0.7551 -0.1719 -1.1301 -1.8491c-0.8513,0.0006 -2.968,-0.1704 -3.4218,0.2226z"/>
   <path id="_594753584" class="fil0" d="M32.9144 63.4407c0.3796,0.4583 2.7391,0.3844 2.9549,0.2026 0.3273,-0.2758 -0.2578,-0.7182 -0.3835,-0.9681 -0.2749,-0.5465 -0.1409,-3.9009 -0.1413,-4.6332 -0.0019,-2.9729 0.4267,-1.6032 0.5476,-2.5758 -0.534,-0.1017 -1.833,-0.3719 -2.379,-0.3001 -0.1177,0.0156 -0.0604,-0.0233 -0.2812,0.1106 0.2126,0.6392 0.4631,1.1122 0.4712,1.8222l-0.0679 4.7147c-0.0486,1.3219 -0.6945,0.9212 -0.7208,1.6271z"/>
   <path id="_383976920" class="fil0" d="M54.3512 32.3251c-0.0036,0.6312 0.011,0.7512 0.948,0.6109 0.3785,-0.0566 0.7397,-0.0976 1.1083,-0.1457 0.9292,-0.121 4.1391,-0.5629 4.8711,-0.4403 0.3734,0.0624 0.5702,0.2696 0.5997,0.6659 0.0512,0.6898 -0.1601,0.7689 0.1772,1.2157l4.0456 0.0725 0.2044 -0.4278c-0.2331,-0.571 -0.8775,-0.4075 -1.5948,-0.4065l-2.0218 -0.0504c-0.0008,-2.159 -0.6387,-2.1264 -3.5076,-1.806 -1.0381,0.116 -4.237,0.2671 -4.8301,0.7117z"/>
   <path id="_594756752" class="fil0" d="M7.2812 33.4256c-1.4173,0.191 -4.1221,-0.4063 -3.5436,0.7523 0.1715,0.3436 3.6817,0.1658 4.2032,0.1591 0.411,-2.1169 -0.1539,-2.3262 4.068,-1.7461 2.2284,0.3062 1.6735,0.3315 3.5095,-0.2796 -0.4289,-0.352 -1.5522,-0.3763 -2.276,-0.4482 -1.1894,-0.1182 -3.967,-0.5611 -5.0162,-0.3252 -1.0317,0.2319 -0.7623,0.916 -0.9449,1.8877z"/>
   <path id="_594765416" class="fil0" d="M53.9133 40.3596l5.2273 0.0448 0.5998 -0.9333 -11.9166 -0.0747c-0.4883,0.0947 -0.4972,0.6091 -0.152,0.8066 0.292,0.1671 5.6543,0.1562 6.2415,0.1566z"/>
   <path id="_589749248" class="fil0" d="M8.8506 36.2107c0.2985,0 0.2641,-0.646 -0.1158,-0.7693 -0.1844,-0.0597 -8.3473,-0.0813 -8.5596,0.0621 -0.2745,0.1854 -0.2147,0.6847 0.0975,0.7817 0.091,0.0283 8.2461,0.1637 8.5779,-0.0745z"/>
   <path id="_383982968" class="fil0" d="M56.6014 51.2721l1.0037 0.9192c0.0021,0.5113 -0.5346,1.9117 0.498,1.2151l0.6091 -0.3865 1.3149 0.5949 -0.1177 -1.4972 0.9376 -0.8455c-0.3113,-0.5206 -1.1415,-0.0816 -1.4498,-0.5158l-0.7707 -1.1564c-0.3945,0.2776 -0.3548,0.9109 -0.6241,1.2188 -0.3104,0.3549 -1.0369,-0.0685 -1.401,0.4534z"/>
   <path id="_594768824" class="fil0" d="M8.768 51.2721l0.9706 0.9427 -0.1489 1.3919 1.3053 -0.5912 1.2776 0.5735 -0.1455 -1.3737c0.6066,-0.4587 0.5667,-0.4586 1.0089,-1.0426 -0.5022,-0.2672 -1.2161,-0.0609 -1.4604,-0.4072l-0.6806 -1.1729c-0.4292,0.2753 -0.3984,0.8327 -0.6784,1.1737 -0.365,0.4446 -1.0356,-0.0661 -1.4486,0.5058z"/>
   <path id="_589742744" class="fil0" d="M60.6769 35.5746c-0.152,0.8923 0.3562,0.7394 1.1202,0.7321 0.9783,-0.0061 7.1696,0.0777 7.4317,-0.0454 0.3416,-0.1603 0.3152,-0.7317 -0.1501,-0.8352l-7.1102 -0.0114c-0.4274,-0.0001 -1.0607,-0.0756 -1.2916,0.1599z"/>
   <path id="_589742816" class="fil0" d="M12.2243 28.2567l-1.1651 0.2005 0.9067 1.0487 -0.1257 1.2869 1.1971 -0.5357 1.3046 0.5509 -0.1271 -1.3021c0.5651,-0.6427 0.2156,0.0266 0.8688,-1.0283 -1.9213,-0.4483 -1.0903,-0.2254 -1.5836,-0.971l-0.5548 -0.5521c-0.3342,0.3722 -0.3315,0.8892 -0.7209,1.3022z"/>
   <path id="_589742768" class="fil0" d="M56.6775 28.2373l-1.2938 0.326c1.0688,1.1763 0.8715,0.6214 0.7947,2.2734l1.1627 -0.5766 1.2856 0.5399 -0.1024 -1.2941c0.4756,-0.4916 0.3157,-0.2117 0.9361,-0.9426 -1.55,-0.3834 -1.027,-0.0136 -2.1193,-1.5851 -0.323,0.2177 -0.5225,0.9438 -0.6636,1.2591z"/>
   <path id="_589742312" class="fil0" d="M47.8908 31.4391l-0.0417 0.4748 0.237 0.2245c0.4363,0.1791 5.5136,-1.9612 6.2577,-2.2679l-0.0108 -0.3796 -0.2492 -0.2163c-0.1003,-0.0407 -5.9311,2.034 -6.193,2.1645z"/>
   <path id="_589742912" class="fil0" d="M61.8781 39.3607l-0.5251 1.2777c0.6028,0.1075 1.051,-0.0856 1.2744,-0.5414l0.129 -1.7469c2.2121,-0.3101 0.6795,0.5013 3.3743,-0.6175l-0.3059 -0.2937c-0.9248,-0.0438 -1.9831,-0.0385 -2.9144,-0.0282 -0.5096,0.0058 -0.9099,-0.0347 -1.0007,0.4284 -0.0814,0.4152 0.0136,1.0535 -0.0316,1.5216z"/>
   <path id="_589741424" class="fil0" d="M16.0297 32.4014l-0.0101 0.5621c0.5644,0.3038 2.5964,0.4048 3.4381,0.4954 2.1778,0.2343 1.1725,0.4045 3.0782,-0.198 -0.4719,-0.4188 -2.4855,-0.5551 -3.2024,-0.6383 -0.6493,-0.0754 -2.9882,-0.5157 -3.3038,-0.2212z"/>
   <path id="_589741496" class="fil0" d="M48.001 33.1655l0.001 0.5446c0.6689,0.2878 4.8368,-0.5338 5.8265,-0.6973l-0.0112 -0.5134c-0.5324,-0.3587 -2.1202,0.0452 -2.9082,0.1593 -0.6581,0.0953 -2.4809,0.2707 -2.9081,0.5068z"/>
   <path id="_589741952" class="fil0" d="M47.662 29.8487c0.453,0.3778 0.8669,-0.0371 1.3704,-0.2524l2.7077 -1.2435c0.2945,-0.1441 1.2277,-0.386 0.9339,-0.9439 -0.2608,-0.4949 -0.9898,0.068 -1.3159,0.2258l-2.6821 1.2621c-0.5632,0.2718 -1.1306,0.2786 -1.014,0.9519z"/>
   <path id="_589741880" class="fil0" d="M18.0254 27.8121c0.4301,0.3853 1.8329,0.9632 2.4198,1.2269 1.6417,0.7376 0.7436,0.5617 2.5152,0.724 -0.0039,-0.5646 -0.4666,-0.6499 -0.9192,-0.8653 -1.5779,-0.7512 -2.1472,-1.0525 -3.8341,-1.6634 -0.2057,0.2574 -0.2025,0.1222 -0.1817,0.5778z"/>
   <path id="_589742024" class="fil0" d="M28.0338 52.0936l0.2855 -0.3073c-0.0525,-0.445 -0.3624,-0.6964 -0.5908,-0.9814l-1.3306 -1.7521c-0.125,-0.1733 -0.5542,-0.977 -0.958,-0.5461 -0.3336,0.356 0.6429,1.3998 1.0695,1.977 0.2576,0.3485 0.4091,0.5284 0.6676,0.8734 0.261,0.3484 0.3579,0.7179 0.8568,0.7365z"/>
   <path id="_589741088" class="fil0" d="M42.2729 52.1093c0.5682,0.1395 0.9219,-0.4994 1.4101,-1.1281 1.0108,-1.3013 1.009,-1.182 1.4246,-2.548 -0.6079,-0.1027 -1.025,0.7043 -1.6963,1.5925 -0.2342,0.31 -0.4851,0.6678 -0.7376,0.9757 -0.2311,0.282 -0.6426,0.622 -0.4008,1.1079z"/>
   <path id="_589740800" class="fil0" d="M50.703 25.4783c-0.4163,-0.6177 -0.7639,-0.1782 -1.8043,0.5537 -0.4762,0.3351 -1.6744,1.0503 -1.6829,1.4239 -0.0196,0.8636 1.3596,-0.2682 1.8394,-0.5806 0.3228,-0.2102 0.6222,-0.4096 0.9274,-0.6144 0.3692,-0.2478 0.6846,-0.3455 0.7204,-0.7826z"/>
   <path id="_589741064" class="fil0" d="M23.3415 27.6304c0.3104,-0.5718 -0.9447,-1.1021 -1.3727,-1.4004 -1.0815,-0.7538 -0.5724,-0.4798 -1.8189,-1.0534 -0.495,0.4236 -0.3168,0.6042 0.1753,0.8985l2.4325 1.5968c0.4626,0.2669 0.5134,0.0362 0.5838,-0.0415z"/>
   <path id="_589740920" class="fil0" d="M19.2423 30.9109c0.1338,-0.7268 0.1717,-0.6607 -1.4015,-1.2375 -0.4355,-0.1596 -1.43,-0.7497 -1.6048,-0.1369 -0.1562,0.5476 0.3526,0.5499 1.2895,0.8814 0.5337,0.1888 1.2222,0.6167 1.7168,0.493z"/>
   <path id="_589741136" class="fil0" d="M24.1232 25.7395l0.2172 -0.3468c-0.0915,-0.4074 -1.2172,-1.362 -1.621,-1.6282l-0.7699 -0.3432c-0.588,0.6849 0.4387,0.9053 1.3607,1.8962 0.2275,0.2446 0.3487,0.4209 0.813,0.422z"/>
   <path id="_589741256" class="fil0" d="M19.743 30.867l0.0009 0.3578 2.8104 0.9173 0.2528 -0.2097 -0.0114 -0.3783c-0.2802,-0.2597 -1.7398,-0.6852 -2.2983,-0.8584 -0.4257,-0.132 -0.4843,-0.1243 -0.7544,0.1713z"/>
   <path id="_589739936" class="fil0" d="M32.249 23.9325c0.5286,0.0057 2.4522,-2.3212 5.3858,-0.4294l0.6394 0.392c0.1649,-0.6982 -1.8069,-1.4697 -2.9562,-1.4574 -0.6506,0.007 -1.3304,0.1471 -1.8663,0.4032 -0.4533,0.2167 -1.1143,0.701 -1.2027,1.0916z"/>
   <path id="_589740080" class="fil0" d="M23.6766 7.9258c-0.248,0.612 0.8686,2.3464 1.1865,2.9406l0.3895 -0.1598c0.1192,-0.4862 -0.3765,-1.248 -0.5546,-1.691 -0.1969,-0.4897 -0.3003,-1.3918 -1.0214,-1.0898z"/>
   <path id="_589740608" class="fil0" d="M46.2964 25.1882l0.0698 0.4669c0.4421,0.1607 0.4642,0.0465 0.756,-0.1968 0.4599,-0.3834 1.2624,-1.2405 1.7033,-1.6939 -0.3702,-0.8292 -1.0416,0.0599 -1.3359,0.3456 -0.341,0.3311 -0.6674,0.5294 -1.1932,1.0782z"/>
   <path id="_589740512" class="fil0" d="M45.1725 10.8192c0.6252,-0.2619 1.0852,-2.2368 1.283,-2.904 -0.6173,-0.2157 -0.5251,-0.064 -1.088,1.2191 -0.1381,0.3146 -0.2619,0.5821 -0.3856,0.9019 -0.169,0.4368 -0.2438,0.6135 0.1906,0.783z"/>
   <path id="_589740128" class="fil0" d="M48.4452 12.3676c0.5869,0.3698 0.7152,-0.1781 0.9786,-0.7196 0.1483,-0.3047 0.6782,-1.1045 0.5954,-1.3946 -0.0888,-0.3116 -0.4489,-0.2977 -0.6533,-0.0317 -0.1224,0.1593 -1.009,1.6538 -0.9207,2.1459z"/>
   <path id="_589739216" class="fil0" d="M12.772 15.1951c-0.3996,0.4183 0.6937,1.0136 1.1615,1.5026 0.1548,0.1618 0.4232,0.4432 0.6946,0.1752 0.4078,-0.4027 -0.4818,-0.9849 -0.6464,-1.1663 -0.138,-0.1522 -0.83,-0.909 -1.2097,-0.5115z"/>
   <path id="_589739648" class="fil0" d="M21.264 12.5166l0.4085 -0.2351c0.0335,-0.4446 -0.3228,-0.8624 -0.5373,-1.2428 -0.135,-0.2395 -0.4459,-1.2023 -0.9444,-0.8721 -0.4464,0.2959 0.8727,2.2544 1.0732,2.35z"/>
   <path id="_589739552" class="fil0" d="M9.0332 26.9339c-0.7926,0.4738 -0.0882,1.654 0.7439,1.1961 0.734,-0.4038 0.1776,-1.7469 -0.7439,-1.1961z"/>
   <path id="_589739816" class="fil0" d="M60.3391 27.1567c-0.1703,1.3787 1.0175,1.252 1.3022,0.6521 0.3577,-0.7536 -0.5032,-1.4213 -1.3022,-0.6521z"/>
   <path id="_589739792" class="fil0" d="M55.3061 16.6481c0.4948,0.3512 0.7088,-0.0397 1.0852,-0.3469 0.5725,-0.4671 0.5086,-0.4883 0.7891,-1.1372 -0.5979,-0.287 -0.7117,0.0807 -1.1004,0.3978 -0.3203,0.2614 -0.8226,0.5452 -0.7739,1.0863z"/>
   <path id="_589738952" class="fil0" d="M9.7608 55.9501c-0.8232,0.4784 -0.1496,1.6709 0.6666,1.1992 0.8016,-0.4632 0.118,-1.6553 -0.6666,-1.1992z"/>
   <path id="_589738856" class="fil0" d="M12.2058 35.6224c-0.8232,0.4784 -0.1495,1.6708 0.6666,1.1992 0.8016,-0.4632 0.1181,-1.6553 -0.6666,-1.1992z"/>
   <path id="_589738520" class="fil0" d="M51.1222 35.6801c-0.7274,0.6143 0.1432,1.6715 0.8649,1.0652 0.709,-0.5955 -0.1714,-1.6506 -0.8649,-1.0652z"/>
   <path id="_589738880" class="fil0" d="M14.3569 35.7489c-0.8232,0.4784 -0.1496,1.6709 0.6666,1.1992 0.8016,-0.4632 0.118,-1.6553 -0.6666,-1.1992z"/>
   <path id="_589738544" class="fil0" d="M53.2626 35.4309c-0.7275,0.6142 0.1431,1.6714 0.8649,1.0651 0.7089,-0.5955 -0.1715,-1.6506 -0.8649,-1.0651z"/>
   <path id="_589737776" class="fil0" d="M16.5079 35.8754c-0.8231,0.4784 -0.1495,1.6709 0.6666,1.1992 0.8017,-0.4632 0.1181,-1.6553 -0.6666,-1.1992z"/>
   <path id="_589738304" class="fil0" d="M55.4029 35.1816c-0.7275,0.6143 0.1431,1.6715 0.8649,1.0652 0.7089,-0.5955 -0.1714,-1.6507 -0.8649,-1.0652z"/>
   <path id="_589737584" class="fil0" d="M9.0335 29.3479c-1.4632,-0.2231 -1.1798,1.0658 -0.6818,1.2434 0.7682,0.2742 1.4846,-0.4842 0.6818,-1.2434z"/>
   <path id="_589737680" class="fil0" d="M60.951 29.6583c-0.1923,1.3426 1.1361,1.1075 1.3422,0.508 0.237,-0.689 -0.6061,-1.2996 -1.3422,-0.508z"/>
   <path id="_589738160" class="fil0" d="M59.0783 55.8114c-0.2041,0.0976 -0.2163,-0.0192 -0.3294,0.2986 -0.0731,0.2057 -0.0783,0.4014 0.0142,0.5953 0.1145,0.2399 0.6243,0.463 0.9874,0.234 0.6344,-0.4 0.1827,-1.5373 -0.6722,-1.1279z"/>
   <path id="_589737008" class="fil0" d="M25.3802 23.7774c0.0518,-0.4304 0.0472,-0.412 -0.5191,-1.0409 -0.2173,-0.2412 -0.7204,-0.7499 -0.9319,-0.2299 -0.1416,0.3481 0.3807,0.773 0.5506,0.9545 0.291,0.3111 0.3892,0.651 0.9004,0.3163z"/>
   <path id="_589736960" class="fil0" d="M45.3439 23.9288c0.7796,0.0229 0.9982,-0.9618 1.2087,-1.5481 -0.6672,-0.1873 -0.6854,0.2162 -0.9889,0.5769 -0.2603,0.3092 -0.7597,0.5223 -0.2198,0.9712z"/>
   <path id="_589737320" class="fil0" d="M25.5656 21.3778c-0.305,0.3065 0.0889,0.6485 0.2592,0.911 0.1588,0.2447 0.3985,0.768 0.7874,0.3981 0.278,-0.2644 -0.0523,-0.6645 -0.2196,-0.8805 -0.2064,-0.2663 -0.4731,-0.7843 -0.827,-0.4286z"/>
   <path id="_589736240" class="fil0" d="M44.6583 21.277c-0.2419,0.166 -0.4325,0.4503 -0.6261,0.746 -0.2122,0.3241 -0.2732,0.8985 0.253,0.7658 0.0946,-0.0239 1.5578,-1.4169 0.3731,-1.5118z"/>
   <path id="_589736528" class="fil0" d="M10.9675 25.8024l0.17 -0.3241c-0.1406,-0.4551 -1.1477,-1.0445 -1.4017,-0.7195 -0.4149,0.5308 0.8102,1.0603 1.2317,1.0436z"/>
   <path id="_589736456" class="fil0" d="M55.5301 13.1366c-0.3906,-0.2413 -0.519,-0.1981 -0.7795,0.1545 -0.1352,0.1832 -0.4861,0.6016 -0.3921,0.8502 0.243,0.643 1.2437,-0.3038 1.1716,-1.0047z"/>
   <path id="_589736504" class="fil0" d="M60.1655 24.7665c-1.4838,0.7384 -0.8094,1.1677 -0.3278,0.9854 1.3882,-0.5255 0.9348,-1.2875 0.3278,-0.9854z"/>
   <path id="_589736096" class="fil0" d="M28.0393 8.6757c-0.1219,0.8538 0.2233,1.0963 0.8811,0.8979 0.1577,-0.5698 0.202,-0.7724 -0.281,-1.1327l-0.3493 0.0203 -0.2508 0.2145z"/>
   <path id="_589736600" class="fil0" d="M29.7982 9.3037c0.3849,0.0257 0.8314,0.1643 0.7739,-0.6072 -0.0785,-1.0525 -1.3714,-0.7389 -0.7739,0.6072z"/>
   <path id="_589735520" class="fil0" d="M35.5015 5.7685c-0.2481,0.1773 -0.2002,0.4914 -0.1869,0.8621 0.0128,0.352 0.1394,0.7237 0.5576,0.4705 0.2937,-0.1779 0.3255,-1.8302 -0.3707,-1.3326z"/>
   <path id="_589735760" class="fil0" d="M31.4819 7.8599c-0.5267,0.4626 -0.2337,1.3834 0.3798,1.2146 0.3509,-0.0966 0.5836,-1.3394 -0.3798,-1.2146z"/>
   <path id="_589735880" class="fil0" d="M15.4368 14.3421l0.2296 -0.1985c0.2248,-0.5097 -0.8553,-1.026 -1.0507,-1.1336 -0.325,0.3089 -0.1628,0.5161 0.064,0.7993 0.2164,0.2702 0.3755,0.5314 0.7571,0.5328z"/>
   <path id="_589735448" class="fil0" d="M33.388 7.703c-0.1661,0.4959 -0.1153,0.7649 0.1125,1.1658l0.4461 -0.0184c0.4681,-0.4883 0.1966,-1.5316 -0.5586,-1.1474z"/>
   <path id="_589736000" class="fil0" d="M22.4826 10.6443c-0.0448,0.5442 0.1116,0.7866 0.5078,0.9751l0.3938 -0.2086c0.1417,-0.5691 0.0484,-0.7184 -0.3042,-1.0053l-0.3615 0.015 -0.2359 0.2238z"/>
   <path id="_589734560" class="fil0" d="M41.1675 9.5083l0.4916 0.0595c0.3206,-0.2901 0.3952,-0.526 0.2436,-1.057 -0.7925,-0.4865 -1.0092,0.4809 -0.7352,0.9975z"/>
   <path id="_589734656" class="fil0" d="M19.387 13.4478c0.8062,0.0045 0.7281,-0.6757 0.3368,-1.088l-0.5496 0.0011c-0.3477,0.4954 -0.1957,0.7996 0.2128,1.0869z"/>
   <path id="_589734608" class="fil0" d="M50.1639 13.2187l0.1547 0.1529c0.6747,0.1163 1.0118,-0.593 0.7129,-0.9473 -0.3861,-0.4578 -1.0392,0.0265 -0.8676,0.7944z"/>
   <path id="_589734824" class="fil0" d="M27.0527 9.8821c0.0573,-0.5795 -0.1053,-0.9815 -0.7328,-0.864 -0.5037,0.5815 0.09,1.6733 0.7328,0.864z"/>
   <path id="_589735112" class="fil0" d="M47.3163 11.4917c0.2726,-0.3101 0.4229,-0.5699 0.2048,-1.035 -0.442,-0.1006 -0.7302,-0.1097 -0.8217,0.3714 -0.1112,0.585 0.0833,0.7301 0.6169,0.6636z"/>
   <path id="_589734392" class="fil0" d="M8.4632 22.9932c-0.1359,-0.3476 -0.5153,-0.6326 -1.0574,-0.5692 -0.2933,0.3713 -0.2058,0.6026 0.231,0.8303 0.4789,0.2496 0.7023,0.2085 0.8264,-0.2611z"/>
   <path id="_589734104" class="fil0" d="M39.6687 9.2437c0.3475,-0.3584 0.5723,-1.2136 -0.2377,-1.2378 -0.2041,0.1644 -0.3239,0.3642 -0.3202,0.7669 0.004,0.4531 0.1406,0.4901 0.5579,0.4709z"/>
   <path id="_589734008" class="fil0" d="M37.2531 8.8808l0.5456 0.0474c0.2898,-0.4382 0.5077,-1.2718 -0.3979,-1.1539 -0.2917,0.3634 -0.3302,0.5704 -0.1477,1.1065z"/>
   <path id="_589733888" class="fil0" d="M23.3157 45.2736l0.0766 0.4434c0.7583,0.2222 1.0519,-0.4438 1.2676,-0.7674 -0.3976,-0.305 -1.0657,-0.0116 -1.3442,0.324z"/>
   <path id="_589733912" class="fil0" d="M17.4997 14.4873c0.9682,0.1293 0.7445,-0.8012 0.3818,-0.973 -0.6495,-0.3077 -0.9445,0.4628 -0.3818,0.973z"/>
   <path id="_589734344" class="fil0" d="M43.0421 9.8821c0.2344,0.255 0.5259,0.3624 0.7784,0.019l-0.0816 -0.9747 -0.4621 0.0194c-0.2366,0.261 -0.3198,0.4416 -0.2347,0.9363z"/>
   <path id="_589733456" class="fil0" d="M51.8685 13.7153c-0.0687,0.4562 -0.0822,0.5073 0.2453,0.747 0.791,0.0024 0.9172,-0.9104 0.1713,-1.048 -0.2593,0.1045 -0.2235,0.1088 -0.4166,0.301z"/>
   <path id="_589733240" class="fil0" d="M34.3266 26.9351c-0.254,-0.3241 -1.6092,-0.1822 -2.0754,-0.1572 0.1104,0.4652 0.7048,0.3673 1.5265,0.3768 0.0593,0.0006 0.2981,-0.0015 0.3432,-0.0174 0.3048,-0.1079 0.0693,0.0449 0.2057,-0.2022z"/>
   <path id="_589733504" class="fil0" d="M61.8172 46.5446c-0.0585,0.6018 0.0953,0.7434 0.7015,0.7027 0.3952,-0.5806 0.358,-0.9918 -0.4943,-0.9359l-0.2072 0.2332z"/>
   <path id="_589733552" class="fil0" d="M61.3108 23.3102l1.155 -0.3978c0.0145,-0.4882 -0.197,-0.6787 -0.6777,-0.4459 -0.653,0.3161 -0.5659,0.5646 -0.4773,0.8437z"/>
   <path id="_589733480" class="fil0" d="M11.7219 17.7538c-0.1679,0.4059 -0.1773,0.5541 0.0876,0.8766 1.2821,0.194 0.5889,-1.3128 -0.0876,-0.8766z"/>
   <path id="_589732400" class="fil0" d="M36.2502 27.0208c0.0188,0.0143 0.044,0.0154 0.0558,0.044 0.0773,0.1874 1.5756,0.0431 1.7636,0.0324l0.2262 -0.3139c-0.3459,-0.0428 -1.997,-0.1555 -2.0456,0.2375z"/>
   <path id="_589732280" class="fil0" d="M35.3894 7.4392c-0.0631,0.2767 -0.1138,0.6722 -0.0845,0.9911l0.5745 0.3807 0.0549 -1.3684 -0.5449 -0.0034z"/>
   <path id="_589732904" class="fil0" d="M60.8804 42.4292l0.2323 0.2111 0.4163 -0.0505 0.1711 -0.1394c0.2224,-1.0226 -0.9988,-1.0835 -0.8197,-0.0212z"/>
   <path id="_589732544" class="fil0" d="M7.4128 47.0581l0.7362 0.1689 0.1612 -0.1491 -0.1601 -0.7505c-0.6076,-0.125 -0.8653,0.1232 -0.7373,0.7307z"/>
   <path id="_589732472" class="fil0" d="M59.3194 20.4073c0.5587,0.1445 0.8345,-0.0764 0.831,-0.5848 -0.4726,-0.5872 -1.1763,-0.1464 -0.831,0.5848z"/>
   <path id="_589731656" class="fil0" d="M8.3242 42.6065c0.5721,0.0639 0.661,-0.0705 0.6691,-0.605l-0.3264 -0.2642c-0.7074,0.0028 -0.7871,0.5126 -0.3427,0.8692z"/>
   <path id="_589732040" class="fil0" d="M27.9884 21.6551c0.2333,-0.6918 -0.3018,-1.1205 -0.6535,-0.8214 -0.2667,0.2269 -0.1944,1.0688 0.6535,0.8214z"/>
   <path id="_589731704" class="fil0" d="M59.1011 41.6491c-0.3051,0.6918 -0.016,1.0994 0.7558,0.6619l-0.0417 -0.5629c-0.1452,-0.0887 -0.4745,-0.2582 -0.7141,-0.099z"/>
   <path id="_589731824" class="fil0" d="M9.576 19.6265c-0.1724,0.4435 -0.1518,0.5735 0.205,0.8478 1.0736,0.0187 0.4578,-1.2575 -0.205,-0.8478z"/>
   <path id="_589731632" class="fil0" d="M57.5321 18.5905c0.7227,0.1742 0.8679,-0.3552 0.598,-0.8469l-0.549 0.0295c-0.2409,0.309 -0.3037,0.4845 -0.049,0.8174z"/>
   <path id="_589731584" class="fil0" d="M10.0479 41.8176c-0.0758,0.7263 0.308,0.9268 0.842,0.4779 0.0668,-0.7327 -0.389,-0.8817 -0.842,-0.4779z"/>
   <path id="_589731224" class="fil0" d="M45.8999 45.3822c0.2093,0.1399 0.5109,0.2862 0.7773,0.3553l0.5606 -0.4639 -1.2238 -0.4159 -0.1141 0.5245z"/>
   <path id="_589731104" class="fil0" d="M30.7443 19.5232c-0.1592,0.4598 -0.1256,0.5661 0.1782,0.8848 0.7208,-0.0209 0.726,-0.559 0.28,-0.924l-0.4582 0.0392z"/>
   <path id="_589730696" class="fil0" d="M29.1149 20.9457l0.469 -0.0185c0.7615,-1.1169 -1.3865,-1.1805 -0.469,0.0185z"/>
   <path id="_589731296" class="fil0" d="M25.0478 47.0144c0.0945,-0.4322 0.1179,-0.3701 -0.0805,-0.7329l-0.5312 0.0408c-0.4536,0.6422 -0.0967,1.0148 0.6117,0.6921z"/>
   <path id="_589731080" class="fil0" d="M39.6748 20.3881c0.3242,-0.3579 0.4563,-0.9375 -0.3295,-0.8893 -0.3972,0.3841 -0.4272,0.9654 0.3295,0.8893z"/>
   <path id="_589730432" class="fil0" d="M16.5068 15.0237c-0.4512,-0.5456 -0.9881,-0.2444 -0.818,0.331 0.1033,0.3494 0.8761,0.5061 0.818,-0.331z"/>
   <path id="_589730408" class="fil0" d="M53.7413 14.7466c-0.5053,0.2507 -0.156,1.0336 0.3504,0.7999 0.4823,-0.2227 0.2486,-1.0971 -0.3504,-0.7999z"/>
   <path id="_589730528" class="fil0" d="M43.0302 20.8146c-0.8098,0.0121 -0.6382,0.8532 -0.2499,0.9087 0.3892,0.0555 0.8297,-0.4842 0.2499,-0.9087z"/>
   <path id="_589729928" class="fil0" d="M45.6144 47.1357l0.4233 0.007c0.4232,-0.4782 0.3066,-0.9247 -0.463,-0.8493 -0.2164,0.3481 -0.1969,0.5533 0.0397,0.8423z"/>
   <path id="_589730024" class="fil0" d="M32.6189 19.1632l-0.0397 0.6886 0.3391 0.2033c0.5903,-0.1148 0.5526,-0.5074 0.2425,-0.9256l-0.5419 0.0337z"/>
   <path id="_589729112" class="fil0" d="M37.7778 20.0395c0.3072,-0.2809 0.4591,-0.8311 -0.232,-0.931 -0.4617,0.2909 -0.5299,0.9617 0.232,0.931z"/>
   <path id="_594757880" class="fil0" d="M35.0821 19.787c0.4105,0.0358 0.4795,-0.0579 0.4785,-0.4779 -0.001,-0.4549 -0.066,-0.5671 -0.4999,-0.5166 -0.2392,0.3595 -0.1993,0.7377 0.0214,0.9945z"/>
   <path id="_594753992" class="fil0" d="M58.5924 45.1341c0.0698,0.0416 -0.1458,0.1169 0.215,0.0952 0.2515,-0.0151 0.1147,0.0217 0.2096,-0.076 0.382,-0.3934 -0.4644,-0.8005 -0.4919,-0.2261 -0.0202,0.4193 -0.0071,0.0429 0.0673,0.2069z"/>
   <path id="_594767096" class="fil0" d="M40.9631 20.8623l0.5145 -0.7629c-0.4245,-0.0704 -0.6879,0.0143 -0.6442,0.4873 0.018,0.1937 0.0778,0.2093 0.1297,0.2756z"/>
   <path id="_594757928" class="fil0" d="M52.7212 43.7324c0.4393,0.1865 0.5393,-0.325 0.1638,-0.6091 -0.0848,0.0571 -0.1413,-0.0801 -0.2086,0.301 -0.0542,0.3077 0.0227,0.2583 0.0448,0.3081z"/>
   <path id="_594757400" class="fil1" d="M33.516 28.7865c0.1269,0.2526 0.4545,0.3864 0.7314,0.4899 0.5873,0.2193 0.1234,0.152 0.6251,0.6576l-0.6285 -1.249 1.105 0.869 0.9915 -0.62 0.0813 0.1372c0.0563,0.0985 -0.0258,0.0923 0.1813,0.0924l0.0005 0.0848c-0.0905,-0.1789 -0.0857,-0.2233 -0.0857,-0.4276l0.5998 -0.0836c-0.0557,-0.3668 0.3997,-0.7595 0.5953,-1.1255l-1.8873 0.9439 -0.5308 0.4311c-0.7341,-0.5167 -1.6207,-1.1527 -2.4672,-1.4462l0.4184 0.6962c0.3641,0.59 0.3947,0.4855 0.2699,0.5498z"/>
   <path id="_594757688" class="fil0" d="M19.0135 36.1646c-0.8232,0.4785 -0.1495,1.6709 0.6666,1.1993 0.8016,-0.4632 0.1181,-1.6553 -0.6666,-1.1993z"/>
   <path id="_594757952" class="fil0" d="M57.9206 35.031c-0.7275,0.6143 0.1431,1.6715 0.8649,1.0652 0.7089,-0.5955 -0.1714,-1.6507 -0.8649,-1.0652z"/>
   <g>
    <path id="_594757376" class="fil2" d="M37.4234 37.7158c0.1196,-0.1226 0.1936,-0.5924 0.3459,-0.9637 0.1155,-0.2817 0.3178,-0.6548 0.4652,-0.902 0.3475,-0.5828 0.8228,-0.9133 1.1965,-1.4486l0.5902 -0.1145 -0.2298 0.0107c1.4092,-0.5349 3.6617,-1.2024 4.6956,-2.112 -0.0792,2.9663 0.2615,4.208 -1.456,6.4053 -0.656,0.8393 -1.9183,1.2632 -3.0862,1.1016 -0.8774,-0.1215 -2.3037,-0.74 -3.1313,-1.0844l0.4113 -1.1271 0.1986 0.2347zm-5.9463 12.8792c0.0812,0.0824 -0.0494,0.0935 0.41,0.268 3.056,1.1605 7.2986,0.7177 8.9195,-1.8971 0.6276,-1.0125 0.8741,-2.8293 0.4963,-3.4246l0.039 0.7014c-0.0157,-0.0182 -0.042,-0.0673 -0.0482,-0.0536 -0.0062,0.0134 -0.0362,-0.0405 -0.0441,-0.0549l-0.4055 -1.2991c-0.3026,-0.0267 -0.4272,0.0121 -0.6946,-0.0153 -0.1971,-0.0202 -0.4248,-0.0501 -0.6319,-0.0674 -1.312,-0.1101 -2.7391,0.0466 -4.0244,0.1867 -0.7296,0.0795 -4.2734,0.1952 -4.9839,0.6773 0.3427,0.1805 1.776,-0.1756 2.2698,-0.24 0.8779,-0.1144 1.6276,-0.1634 2.5386,-0.2001l4.7429 0.6789c0.076,0.2033 0.1009,0.5007 0.1183,0.79 0.01,0.165 -0.0035,0.2416 -0.0284,0.3902 -0.1806,1.0795 -0.1673,1.29 -1.1411,2.2633 -0.0125,0.0125 -0.0322,0.0288 -0.0454,0.0409 -0.2875,0.2644 -0.2522,0.2199 -0.4984,0.3488 -0.4296,0.2247 -0.2332,0.2182 -0.9733,0.5161l-0.0911 0.3099c-1.4961,0.6666 -2.7793,0.8422 -4.5803,0.2594 -0.6689,-0.2165 -1.3799,-0.5658 -1.8222,-0.9266 -0.0573,-0.0467 -0.9055,-0.9405 -0.9806,-1.0897 -0.1116,-0.2214 0.0845,-0.1485 -0.2316,-0.3634 0.1248,0.7816 0.9555,1.563 1.5691,1.9723 0.4315,0.2878 0.3208,0.1016 0.1215,0.2286zm10.1753 0.0379l-0.6597 0.572c-0.247,0.1893 -0.3595,0.2963 -0.6376,0.4798 -0.4647,0.3066 -0.9118,0.5236 -1.4398,0.785 -0.9784,0.4843 -2.4192,0.75 -3.6833,0.7658 -1.8233,0.0228 -3.7239,-0.5823 -5.0913,-1.5844l-1.2643 -0.983c0.6129,1.2354 1.4288,1.9436 2.4277,2.6448 2.2201,1.5587 5.6675,1.6698 7.9574,0.1028 0.8173,-0.5593 2.1792,-1.7907 2.3909,-2.7828zm-14.997 -5.4493c0.0612,0.2983 0.3075,0.6133 0.5351,0.791l0.6785 -3.1797c0.0596,-0.0775 0.1813,-0.2056 0.2332,-0.2803 0.1517,-0.2183 0.0826,-0.2057 0.1587,-0.3757l0.0599 -0.1135c0.2779,-0.4168 1.1405,-0.656 1.5052,-0.8278 0.0164,-0.0078 0.0432,-0.0195 0.0573,-0.0266 0.4682,-0.2397 -0.1859,0.2709 0.1218,-0.096l0.1988 0.1712c0.2725,-0.2168 0.4109,-0.383 0.7193,-0.568l-2.3474 0.3278c-0.7766,0.1903 -1.4484,0.9653 -1.6461,1.1001l0.9141 -1.9496 -0.797 0.8794c-0.6092,0.818 -0.6204,2.5697 -0.3997,3.5793 0.1461,0.6677 0.1141,0.491 0.0083,0.5684zm3.789 -11.9928c0.2804,0.3068 0.5342,0.0136 1.9664,1.3644 0.846,0.7981 1.2624,1.4607 1.7719,2.6771l0.3638 0.8663c0.1243,-0.22 0.0338,-0.5485 -0.0412,-0.9094 -0.2887,-1.3899 -1.0694,-2.8557 -2.3436,-3.4991 -0.4043,-0.2042 -1.2901,-0.7297 -1.7173,-0.4993zm9.5234 7.7406l0.0252 -0.0528c0.711,0.3492 0.4154,0.2042 0.6758,0.2569 0.3572,0.0722 1.0187,0.4222 1.1803,0.5998l0.2287 0.3749c0.1589,0.2081 0.2986,0.3037 0.4775,0.5588 0.8582,1.2245 0.6327,1.7948 0.8284,3.3565l0.912 -3.4044c0.0841,-0.839 -0.7217,-2.5184 -1.2911,-2.953l1.3013 0.7206 0.2248 0.2865 0.0936 -0.2557c-0.0396,-0.2971 1.7851,-7.1318 0.301,-11.6152 -0.1844,0.9307 -0.3336,2.4041 -1.1438,3.0724 -0.8321,0.6865 -1.9157,0.9677 -3.0847,1.0481 -1.6918,2.0068 -2.161,1.6462 -2.9743,2.7566 -0.8049,1.099 -1.7092,2.3311 -1.9057,3.765l2.5127 1.2735c0.15,0.2421 -0.1099,0.1826 0.3482,0.4176 0.2347,0.1204 0.3329,0.2057 0.5747,0.3713 0.4186,0.2869 0.6052,0.4474 1.0109,0.8391l-0.71 -1.7533c0.292,0.3123 0.1682,0.2058 0.4145,0.3368z"/>
    <path id="_594758024" class="fil2" d="M36.4052 33.5397c0.2162,-0.1304 0.2367,-0.2346 0.3849,-0.414 1.69,-2.0463 4.0901,-1.3128 5.8629,-1.9547 0.6345,-0.2297 0.9086,-0.491 1.3029,-0.8308 0.0163,-0.0141 0.1865,-0.163 0.193,-0.1658 0.2463,-0.105 0.0424,-0.1702 0.1947,0.0628l0.1663 -0.793c-0.2942,0.1172 -0.2153,0.0767 -0.4421,0.3279 -0.9988,1.1066 -2.7459,1.0374 -4.1139,1.2006 -1.0063,0.12 -1.5491,0.2548 -2.2317,0.7654 -0.4253,0.3183 -1.1016,1.0888 -1.317,1.8016z"/>
    <path id="_594757760" class="fil2" d="M41.7582 35.4241c0.1115,0.1183 0.1427,0.002 -0.3223,0.6287 -0.6249,0.8418 -1.4012,1.0226 -1.9481,1.4185 1.833,-0.0489 2.9629,-0.6707 3.357,-2.254l-1.0866 0.2068z"/>
   </g>
  </g>
 </g>
</svg>
