<?xml version="1.0" encoding="UTF-8"?>
<!DOCTYPE svg PUBLIC "-//W3C//DTD SVG 1.1//EN" "http://www.w3.org/Graphics/SVG/1.1/DTD/svg11.dtd">
<!-- Creator: CorelDRAW -->
<svg xmlns="http://www.w3.org/2000/svg" xml:space="preserve" width="215.9mm" height="279.4mm" style="shape-rendering:geometricPrecision; text-rendering:geometricPrecision; image-rendering:optimizeQuality; fill-rule:evenodd; clip-rule:evenodd"
viewBox="0 0 215.9 279.4"
 xmlns:xlink="http://www.w3.org/1999/xlink">
 <defs>
  <style type="text/css">
   <![CDATA[
    .fil0 {fill:#CF7054;fill-opacity:0.501961}
   ]]>
  </style>
 </defs>
 <g id="Capa_x0020_1">
  <metadata id="CorelCorpID_0Corel-Layer"/>
  <path class="fil0" d="M114.963 175.712c-0.2981,0.6321 -1.6474,1.4171 -2.6538,1.5766 -1.2828,0.2034 -2.7429,-0.2562 -3.0597,-1.1483 -0.0197,-0.02 -0.0543,-0.0742 -0.0616,-0.0575 -0.0071,0.0162 -0.046,-0.0446 -0.0549,-0.0605 -0.3766,-0.672 -0.2627,-2.249 -0.0535,-3.0539 0.1609,-0.619 0.5265,-0.4088 1.8006,-0.7875 2.0861,-0.6201 3.9024,-2.0494 4.3128,-2.1645 0.7082,-0.1985 0.0502,0.5238 2.8731,-0.6668 -0.0641,1.4894 -2.1737,5.7932 -3.103,6.3624zm13.5587 -42.2291l-0.0765 -0.4903c0.6236,-0.3073 0.0888,0.0639 0.5656,-0.2275 1.2561,0.084 4.2173,-0.8131 5.338,-1.239 1.6264,-0.6181 2.9571,-1.325 4.323,-2.2237 2.8378,-1.8673 4.5874,-3.8367 6.5456,-6.5279 3.1006,-4.261 6.5971,-13.0538 6.2914,-19.9158 -0.107,-2.4013 -1.6723,-2.706 -3.7798,-2.0892 -6.571,1.923 -15.6021,7.3488 -20.6442,12.0431 -1.1405,1.0617 -2.2887,2.0401 -3.2896,3.2483l-2.9847 3.5698c-1.5026,-0.9288 -2.6291,-1.6963 -4.2935,-2.3632 -1.4468,-0.5797 -3.3848,-1.2475 -5.1731,-1.3863l-1.1798 -1.6584c-0.5624,-0.7352 -2.0215,-2.4573 -3.0377,-2.5056 -0.7321,-0.0348 -1.5026,0.6464 -1.657,1.0529l-0.2526 0.2789 -0.139 -0.4293c-0.8396,-3.3867 -2.8623,-2.3123 -5.0822,-0.4417 -1.4208,1.1973 -2.8391,3.3154 -3.1641,5.9335l-2.3724 1.3797c-1.1706,-1.5989 -2.9905,-4.0815 -4.4371,-5.35 -0.6845,-0.6001 -1.8205,-1.7707 -2.4906,-2.3104 -1.8869,-1.5196 -2.4414,-2.0272 -4.5929,-3.5766 -3.7159,-2.6758 -10.4997,-6.2602 -15.1103,-7.569 -2.4836,-0.705 -3.4068,0.2922 -3.4515,2.6877 -0.1279,6.8654 3.2593,15.2563 6.3982,19.5996 3.239,4.4816 8.1507,8.908 15.979,9.871 -0.7239,4.7151 -1.0546,6.6879 0.5368,11.3842 -0.7099,0.584 -1.5101,1.1894 -2.107,1.8576 -0.5677,0.6355 -1.1711,1.3946 -1.657,2.2248 -0.4998,0.854 -2.7298,5.5767 -0.1253,5.0158 -0.577,2.7022 -0.9526,4.8192 0.4044,7.5896 0.7919,1.6166 2.8056,4.0643 4.3404,4.551 -0.1526,2.4615 -0.4512,3.5949 0.4389,5.8809 1.0044,2.5794 1.6447,2.6714 2.7077,3.9872 0.1935,0.1108 0.0597,0.0152 0.2107,0.1349 4.4816,3.5529 7.6823,1.6364 8.471,1.8016 0.621,0.3898 0.8568,0.7108 1.6755,1.1302 1.6645,0.8526 4.1967,0.6564 5.4196,-0.6271l0.6673 -0.7429c0.2598,0.1841 0.4474,0.4776 0.7024,0.7102 1.497,1.3654 3.9421,1.4962 5.4465,0.7188l1.8178 -1.1587c0.4824,-0.1472 3.5295,1.2928 7.1313,-0.8216 0.6719,-0.3945 1.203,-0.8797 1.7541,-1.1949l1.7369 -2.165c0.8619,-0.5372 6.1414,-0.1352 11.3648,-5.4749 2.9801,-3.0464 5.0192,-6.4542 6.1047,-10.6505 0.9072,-3.5071 0.8979,-6.17 1.1975,-9.9358 0.1396,-1.7549 0.2059,-3.4965 0.4098,-5.1935 0.2071,-1.7235 1.2861,-8.982 0.9836,-10.1429 -0.1655,-0.6351 -0.7519,-1.2642 -1.4664,-1.343 -0.8558,-0.0942 -1.5886,0.3772 -2.1396,0.6827 -2.4191,1.3413 -12.4506,8.2015 -13.8359,8.6274l-0.027 -3.3234c-0.0759,-0.9279 -0.4001,-2.1348 -0.3957,-2.8832l0 -0.0001zm-11.5262 42.3052c0.1468,-0.4073 0.7446,-1.2028 0.9751,-1.6139 1.3403,-2.3906 1.7072,-5.5928 1.9781,-6.0464l1.9163 -1.7989c1.6252,0.3877 0.2779,0.9405 3.8279,-0.0232 0.968,4.0662 -1.0046,7.7908 -4.5275,9.2166 -0.6545,0.2649 -1.1538,0.3745 -1.902,0.4767 -0.4028,0.0551 -0.8064,0.053 -1.212,0.0292 -0.1755,-0.0102 -0.4164,-0.0234 -0.5861,-0.0513 -0.0257,-0.0043 -0.2322,-0.0506 -0.2424,-0.0544 -0.1521,-0.0582 -0.1454,-0.0777 -0.2274,-0.1344zm-10.8923 0.6127c-0.1729,0.7255 -1.8689,1.0566 -2.8005,0.8835 -0.8219,-0.1527 -2.3065,-0.9783 -2.4095,-1.4967l-3.2613 -6.245c0.4168,0.0841 0.6705,0.2421 1.0808,0.3673l1.3639 0.078c0.8923,0.5832 1.7213,1.1668 2.8234,1.6468 1.2614,0.5494 2.1637,0.6888 3.5114,0.9871 0.2479,0.4992 0.6622,3.1768 -0.3082,3.779zm-16.469 -10.0295c2.1253,0.3303 0.5871,0.7885 3.5992,-0.0813 0.413,0.2708 1.0497,1.0872 1.9919,1.6904 0.5653,0.3619 0.4709,1.1898 1.023,2.7523 0.7679,2.1732 1.4007,3.1279 2.507,5.0554 -0.0965,0.0821 0.0218,0.0993 -0.3482,0.1921 -2.0559,0.5154 -5.1195,-0.7114 -6.5753,-2.3679 -1.5729,-1.7898 -2.6173,-4.1006 -2.1976,-7.241zm53.797 -19.7157c0.0231,2.0773 -0.162,5.1376 -0.5124,7.0812 -0.8863,4.8006 -2.4918,8.4516 -5.1089,11.4731 -1.1302,1.3049 -2.6036,2.7639 -4.4108,3.8621l-6.2338 2.2816c0.0681,-1.0492 0.3953,-1.7665 0.3927,-3.0216l-0.3965 -2.8598c0.4816,-0.5612 2.9318,-1.591 4.3113,-4.9609 0.1665,-0.4068 0.2802,-0.713 0.3987,-1.1608 0.0743,-0.2807 0.1149,-1.1761 0.3317,-1.2956 -0.056,-0.7884 0.0687,-1.6212 -0.0521,-2.5032 -0.1085,-0.7925 -0.3625,-1.4447 -0.465,-2.1902l0.9958 -2.3211c-0.2611,-1.0672 -0.6699,-1.9015 -1.1376,-2.7443 -1.4585,-2.6282 -3.119,-3.3931 -3.6891,-4.0684 0.8958,-2.6195 0.4812,-2.3057 1.6989,-3.0025l2.9859 -1.7724c-0.0724,1.063 0.723,0.535 1.0945,0.235 0.3759,-0.3036 0.7052,-0.5805 1.0892,-0.8866 0.6187,-0.3309 1.0493,-0.9332 1.4889,-1.4628l-0.2067 -0.043 0 -0.0001 3.8139 -2.5541c0.4058,-0.2497 0.9369,-0.6271 1.3123,-0.7969 0.8898,-0.5195 2.5987,-1.995 3.557,-1.8349l0.1505 1.7499 -0.6795 5.4645c-0.1201,1.2299 -0.2601,2.4251 -0.383,3.6709 -0.0967,0.979 -0.3581,2.8091 -0.3459,3.6609zm2.7752 -28.695c-0.8543,1.9325 -2.0059,3.5398 -3.2094,5.1458 -2.2523,3.0058 -5.8314,5.638 -9.5207,7.0281 -2.3071,0.8693 -4.1085,1.1255 -6.8433,1.1483l-0.2137 0.1614c0.4603,2.1279 0.8782,3.7107 0.9659,5.9403 0.0943,2.3979 -0.2117,3.9337 -0.8917,5.9528l0 0.0001 -0.0001 0.0001c-0.4726,0.3463 -1.8438,2.9608 -5.326,5.0231 -1.2108,0.7171 -2.4186,1.1104 -3.5225,1.5965 -2.6773,1.1789 -7.2175,1.8112 -10.1122,1.8116 -4.6354,0.0005 -9.6839,-1.1957 -13.6344,-3.514 -0.985,-0.578 -2.0653,-1.419 -2.9052,-2.1894 -0.3568,-0.3272 -0.4737,-0.5828 -0.8289,-0.9182 -1.1149,-1.0531 -1.1543,-1.6326 -1.5098,-1.9403 -0.7394,-1.2491 -0.9361,-4.3985 -0.8448,-6.1287 0.0566,-1.0728 0.1964,-2.0522 0.3825,-3.0657 0.1325,-0.7218 0.6731,-2.212 0.4446,-2.7532 -0.7693,-0.0383 -1.2336,0.0718 -2.0722,-0.0477 -5.6798,-0.8093 -10.6175,-4.0688 -13.9965,-8.5048 -1.2555,-1.6481 -1.4901,-2.217 -2.3934,-3.7392 -0.174,-0.2932 -0.5318,-1.008 -0.6561,-1.3586 -0.7306,-0.9259 -2.1429,-5.4627 -2.5291,-6.9819 -0.4575,-1.7999 -0.934,-4.3251 -0.9997,-6.2285 -0.0328,-0.9512 -0.158,-1.6242 0.3466,-2.0203 0.0339,-0.0843 -0.0062,-0.1057 0.0727,-0.1808 1.3984,0.3571 4.6217,1.1169 5.9009,1.995l0.1247 0.1275c0.4677,-0.0384 2.3537,1.0238 2.9942,1.3418 0.4367,0.2169 2.4508,1.2744 2.6926,1.5274 0.237,0.0878 0.2075,0.0581 0.3858,0.1872 0.3429,0.2486 0.0467,0.0171 0.1627,0.1837 0.4965,0.1353 0.9869,0.5303 1.4305,0.7967 0.9926,0.596 1.7512,1.1113 2.7235,1.8501 0.6951,0.5282 1.1572,0.8623 1.9182,1.4483l1.5604 1.3002c0.0161,0.0139 0.0434,0.0344 0.058,0.0474 0.0151,0.0135 0.0442,0.0422 0.0565,0.0536l0.1069 0.1257c0.9289,0.5791 5.2446,4.9776 5.6632,6.025 0.3406,0.247 1.287,1.7232 1.5784,2.2295 0.2328,0.4046 0.3538,0.9543 0.5696,1.3656 0.598,1.14 1.7167,2.0857 2.9415,2.6715 1.7826,0.8527 2.1517,0.4634 2.8889,0.471 0.7449,-1.5138 -0.9875,-1.1871 -1.6732,-1.729 -1.2702,-0.1331 -3.1152,-1.9841 -3.3005,-3.1731l1.658 -1.0617c0.1765,0.3885 0.7175,2.0409 1.5427,1.3139l0.0535 -3.312c0.2711,-2.3918 2.9974,-5.698 4.6947,-5.8244 0.2976,0.8576 1.4045,4.7191 2.3708,5.2384 0.0284,-0.5738 -0.0589,-2.0191 0.4451,-2.4435 0.0626,-0.5781 0.8174,-1.2989 1.0653,-1.4627 0.3779,0.0467 0.3444,0.0558 0.5281,0.2611 1.3046,0.8991 2.3462,3.1999 3.0467,3.8159 1.0166,-0.0966 0.7749,-0.1508 1.7563,0.0849l1.2293 0.2956c0.4579,0.1681 0.1087,0.0284 0.2683,0.1783 1.0217,0.0225 4.5763,1.6901 4.9572,2.1952 0.416,0.1407 1.0651,0.5445 1.2188,0.8391 0.4402,0.1576 0.5008,0.3631 0.9881,0.582l1.163 -1.1689c0.3832,-0.426 0.6593,-0.9231 1.0938,-1.2982 0.1446,-0.3108 1.0274,-1.3992 1.2657,-1.6566 0.5475,-0.5913 0.8591,-0.9495 1.4343,-1.5276 1.0163,-1.0211 1.8551,-1.9032 3.0597,-2.8307 0.1175,-0.1189 -0.0226,0.0011 0.1761,-0.1632 1.4412,-1.1917 2.3634,-1.8776 3.9105,-3.0328 0.8622,-0.6438 3.4316,-2.338 4.4345,-2.8629 0.4496,-0.3796 2.092,-1.1904 2.6679,-1.476 0.5061,-0.2509 0.8374,-0.4613 1.3498,-0.694 0.4403,-0.2 0.9742,-0.5536 1.4335,-0.5847 0.206,-0.2436 0.1339,-0.152 0.4572,-0.2787 0.219,-0.0858 0.341,-0.1523 0.5387,-0.2485 0.4452,-0.1907 5.2529,-2.248 5.4462,-1.6702l0.2821 0.0808 -0.8861 8.5516c-0.3327,1.2947 -0.7432,2.5469 -1.1691,3.7285 -0.4734,1.3132 -1.2343,2.7266 -1.4661,3.3501zm-29.8125 32.9115c-0.013,0.0085 -0.0255,0.0174 -0.0378,0.0266 0.0122,-0.0092 0.0248,-0.0181 0.0378,-0.0266zm10.0651 -4.3242l0 -0.0001c0.0908,-0.3115 0.2423,-0.3739 0.4553,-0.8009l2.6627 2.277c0.4767,0.6745 1.4409,2.2627 1.4107,3.3261l-1.9495 -1.503 -0.0001 0c-0.1257,-0.1115 0.1427,-0.1361 -0.4122,-0.167 0.0765,0.5281 0.0702,0.2532 0.189,0.3775 0.3435,0.728 1.344,2.0793 1.269,3.1428 0.1231,0.2071 0.4342,1.961 0.4613,2.1635 0.3087,2.3011 0.026,4.0482 -1.2496,5.9263 -0.6043,0.8897 -1.5417,1.817 -2.4457,2.4576 -0.5451,0.3862 -2.5522,1.8081 -3.4116,1.3513 0.1287,-0.7611 0.5222,-2.4734 0.5467,-2.8916 0.0526,-0.9002 -0.0832,-1.5636 -0.3618,-2.4018 -0.2272,-0.6836 -0.2586,-0.5066 -0.4073,-0.602l-0.6996 3.165c-0.7004,2.3916 -4.0951,5.4076 -5.9253,5.7884l0.6389 -1.749c-1.6148,1.4239 -2.0628,1.9759 -4.1032,3.1235 -4.0737,2.2912 -7.109,2.1323 -11.1252,-0.0611 -0.819,-0.4472 -1.4961,-0.8782 -2.1768,-1.3975 -0.6211,-0.4737 -1.6194,-1.534 -2.0105,-1.6325l0.6457 1.6148 -4.5164 -3.3984c-1.4955,-1.4874 -1.8711,-5.2644 -2.1189,-5.5864l-0.6322 3.033c0.0607,1.1166 0.7552,2.3278 0.7022,2.9561l-3.4624 -1.2186c-0.9449,-0.675 -1.7242,-1.3493 -2.451,-2.3485 -0.6922,-0.9517 -1.2367,-2.0984 -1.4393,-3.474 -0.1555,-1.0562 -0.1008,-2.3153 0.1464,-3.3558 0.0416,-0.1747 0.079,-0.3134 0.12,-0.4565l0.1855 -0.4034c-0.2349,-1.2689 0.9203,-3.0537 1.3766,-3.8356 0.1269,-0.1308 0.1589,0.2273 0.1211,-0.3252 -0.5294,0.0346 -0.1466,0.0028 -0.2943,0.1489 -0.8625,0.2745 -1.4272,1.2655 -2.0857,1.5195l1.4943 -3.3725c0.4199,-0.5534 1.8594,-2.0704 2.5208,-2.2667l0.409 0.6796c0.2443,0.6118 -0.1622,0.9885 -0.104,1.3546 0.0223,0.1403 1.2202,1.3403 1.271,1.3771 0.6547,0.4746 1.3207,1.0217 1.9786,1.3923 0.1899,0.1069 0.379,0.1384 0.583,0.249 3.5105,1.9018 4.9892,2.1696 8.8808,3.08 3.7708,0.882 8.4377,1.0804 12.2235,0.1641 0.8607,-0.2083 1.9319,-0.3899 2.8145,-0.5929 2.9485,-0.6781 6.4978,-2.1178 8.8035,-3.9537 0.2448,-0.1949 0.156,-0.1547 0.4537,-0.3518 0.5511,-0.3648 1.577,-1.4346 1.3364,-2.1319l-0.3176 -0.3896zm-27.4075 5.3673l0.0008 -0.0007 0.0001 0.0001 -0.0009 0.0006zm7.5422 -10.8291c0.3641,0.0857 2.244,0.7188 1.9863,-0.4233 -0.1197,-0.5303 -1.3035,-0.748 -1.9661,-0.1128l-0.0202 0.5361zm-28.8141 3.2437c0.3522,0.6305 0.2118,-0.017 1.0529,1.8602 0.8755,-0.0536 0.5261,-0.3528 0.8559,-1.0042l0.6195 -0.9581c-0.2753,-0.5187 -0.1844,0.0781 -1.0666,-1.8508l-0.4601 -0.0092c-0.305,0.4983 -0.1986,0.4649 -0.3845,1.0095 -0.1927,0.5645 -0.4814,0.3777 -0.6171,0.9526zm33.2259 -2.5204l-1.2848 1.6595c-1.1541,0.3267 -1.4806,-0.7663 -2.0895,-0.79 -0.5805,-0.0225 -0.9687,1.0682 -2.1132,0.8021 -0.8534,-0.1984 -0.8195,-1.0358 -1.3029,-1.6546l-0.4616 0.0025c-0.9972,0.8265 0.2233,2.2105 0.7565,2.5647 1.518,1.0083 3.058,-0.253 3.1248,-0.2646l3.0363 0.2759c0.5425,-0.3403 1.7415,-1.7792 0.7427,-2.5722l-0.4083 -0.0233zm-38.0825 -5.5558l-0.0074 0.5333c0.6729,0.7376 1.6762,0.4171 2.4216,1.335l1.2317 2.5235 0.4364 -0.0184c0.6551,-0.5133 0.5996,-1.7521 1.2281,-2.5144l2.3963 -1.3409c0.1777,-1.1899 -1.4356,-0.7566 -2.3579,-1.8901 -0.3139,-0.3858 -0.5148,-0.9353 -0.6686,-1.4756l-1.0181 -1.086c-0.7014,0.5224 -0.559,1.6803 -1.235,2.5051 -0.784,0.9564 -1.7508,0.7527 -2.4271,1.4285zm23.8094 0.814c1.4518,-0.3238 2.6646,0.3298 3.4004,1.179 0.3496,0.4035 0.538,0.8552 0.9088,1.4445 0.9113,1.4483 2.7521,-0.5036 0.3814,-3.6526 -0.6113,-0.8118 -1.5316,-1.6183 -2.6924,-2.0106 -4.282,-1.4468 -7.1163,3.3549 -6.0807,5.1534 0.3795,0.6591 1.1109,0.4892 1.5125,0.0517 0.3638,-0.3964 0.5874,-0.9658 0.9947,-1.3553 0.4096,-0.3915 0.8477,-0.6477 1.5753,-0.8101zm15.9173 2.6868c0.567,0.4911 1.0036,0.632 1.4876,-0.1473 0.3277,-0.5279 0.4917,-0.9282 0.953,-1.4056 0.7921,-0.8197 1.8259,-1.5081 3.378,-1.1279 1.5705,0.3846 1.843,1.4558 2.4881,2.2065 0.6643,0.773 2.4286,0.2206 1.5072,-2.3143 -0.7228,-1.9883 -3.2095,-3.9877 -6.0931,-2.8863 -1.8303,0.6992 -4.1381,2.85 -3.7208,5.6749zm-39.8179 -21.221l1.2805 2.0201c2.5759,3.5264 5.1956,5.7304 9.4039,7.4427 1.0544,0.4289 4.2107,1.5036 5.4289,1.2834 0.1974,-0.6867 0.8763,-2.0344 1.224,-2.6108 1.0055,-1.6672 0.6715,-0.9982 1.5922,-2.2557 -2.564,-3.3313 -3.9109,-5.5078 -7.0056,-8.2725 -0.9768,-0.8727 -1.8279,-1.4746 -2.8387,-2.2688 -1.5771,-1.239 -4.2808,-2.9304 -6.2331,-3.9771 -1.0933,-0.5861 -2.1466,-1.1883 -3.3081,-1.8026 -0.5639,-0.2982 -1.1233,-0.5938 -1.6861,-0.8761 -0.4804,-0.2412 -1.303,-0.8337 -1.7649,-0.5684 0.8845,3.4523 1.3381,5.9061 2.6866,9.1484 0.3685,0.8859 0.8727,1.8713 1.2204,2.7374zm53.3924 10.7853c2.8204,0.2391 7.504,-1.8061 9.9116,-3.3685 1.4177,-0.9201 2.5707,-1.854 3.6429,-2.9956 1.0916,-1.1622 1.3091,-1.5367 2.1738,-2.7259 0.1379,-0.1895 0.2265,-0.306 0.338,-0.49 0.0754,-0.1245 0.0672,-0.1291 0.1396,-0.2547 0.0766,-0.133 -0.0022,-0.0223 0.0741,-0.1333 0.0804,-0.117 0.0922,-0.112 0.1644,-0.1863 0.1775,-0.4328 0.4795,-0.9182 0.72,-1.3956 1.1491,-2.2803 3.8636,-9.6473 3.6148,-11.1715 -3.1577,1.1555 -3.8273,1.7525 -6.9433,3.364 -1.5034,0.7776 -4.9497,2.9191 -6.3377,3.9752 -2.5596,1.9476 -3.2375,2.52 -5.4978,4.8171 -0.8341,0.8477 -1.6828,1.7746 -2.4714,2.7399 -0.4885,0.598 -1.9394,2.3017 -2.1816,2.9196 0.7244,1.0616 2.5723,3.7715 2.6526,4.9056z"/>
 </g>
</svg>
