<?xml version="1.0" encoding="UTF-8"?>
<!DOCTYPE svg PUBLIC "-//W3C//DTD SVG 1.1//EN" "http://www.w3.org/Graphics/SVG/1.1/DTD/svg11.dtd">
<!-- Creator: CorelDRAW -->
<svg xmlns="http://www.w3.org/2000/svg" xml:space="preserve" width="100mm" height="100mm" style="shape-rendering:geometricPrecision; text-rendering:geometricPrecision; image-rendering:optimizeQuality; fill-rule:evenodd; clip-rule:evenodd"
viewBox="0 0 100 100"
 xmlns:xlink="http://www.w3.org/1999/xlink">
 <defs>
  <style type="text/css">
   <![CDATA[
    .str0 {stroke:black;stroke-width:0.5;stroke-linecap:round;stroke-linejoin:round}
    .fil7 {fill:none;fill-rule:nonzero}
    .fil6 {fill:#020202}
    .fil3 {fill:#2B1403}
    .fil1 {fill:#6D5227}
    .fil5 {fill:#BD7213}
    .fil0 {fill:#CC9933}
    .fil2 {fill:#FAE7A7}
    .fil4 {fill:#FAF8E9}
    .fil8 {fill:black;fill-rule:nonzero}
   ]]>
  </style>
 </defs>
 <g id="Capa_x0020_1">
  <metadata id="CorelCorpID_0Corel-Layer"/>
  <rect class="fil0" width="100" height="100"/>
  <path class="fil1" d="M51.1351 61.7501c0.3604,-0.1457 0.1299,-0.1068 0.236,0.1022 0.3018,-0.2151 0.4392,-0.4806 0.547,-0.8707 -0.4469,0.3183 -0.5563,0.3323 -0.783,0.7685z"/>
  <path class="fil2" d="M50.2449 51.7439l-0.7024 -0.3514 -0.3132 -0.0355 -0.4251 -0.0221c0.1688,0.2866 0.033,0.1567 0.2545,0.3515 0.0103,0.0091 0.2578,0.1418 0.3281,0.1772l1.7664 0.9925c-0.0832,-0.4467 -0.4929,-0.9449 -0.9083,-1.1122z"/>
  <path class="fil2" d="M56.6253 34.398c0.583,-0.1243 0.8385,-0.6143 1.4682,-1.1951 0.354,-0.3265 0.3045,-0.2717 0.4439,-0.5773l-0.3267 0.1424 0.0575 -0.2489c-0.3949,0.2085 -1.3872,1.4132 -1.6429,1.8789z"/>
  <path class="fil2" d="M69.5466 52.4533l-0.5584 0.0485c0.1635,-0.4494 0.0991,-0.1845 0.3321,-0.5736 -0.4458,0.2012 -0.5108,0.3706 -0.8972,0.838 0.2599,0.011 0.5463,0.0086 0.8057,-0.1054 0.3548,-0.1559 0.1892,-0.1051 0.3178,-0.2075zm1.2733 -1.6634c-0.3035,0.4178 -1.1596,0.7542 -1.4996,1.1383 -0.233,0.3891 -0.1686,0.1242 -0.3321,0.5736l0.5584 -0.0485c0.6122,-0.0183 1.4111,-0.5963 1.8809,-0.885 0.7354,-0.4519 0.9807,-0.8516 1.5485,-1.3557l0.1204 -0.3375c-0.0637,-0.1041 0.1898,-0.1034 -0.151,-0.0762l-2.1255 0.991zm3.7941 -2.1327c-0.0799,0.4603 -0.6265,1.8266 -1.0148,2.1635 -0.0616,0.3187 -0.1406,0.2139 -0.1892,0.7348 0.896,-0.2808 1.0791,-1.4903 1.6429,-1.8273l0.2844 -1.8216c-0.3818,0.2299 -0.4755,0.2943 -0.7233,0.7506z"/>
  <path class="fil3" d="M43.989 22.7581c0.2282,-0.4694 -1.8818,-6.4582 -1.8858,-6.4642l-0.7141 -0.6058c-0.1856,0.806 1.4867,4.1038 1.8892,5.3508 0.19,0.5888 0.4379,1.2665 0.7107,1.7192z"/>
  <path class="fil3" d="M46.04 22.1857c0.0161,-0.8036 -0.177,-1.7738 -0.2798,-2.5784l-0.2643 -1.9179 -0.3818 -0.446c-0.0898,0.1255 -0.077,0.0178 -0.116,0.2348 -0.0589,0.3274 0.5601,2.8641 0.6774,3.4977 0.1038,0.5602 0.1536,0.942 0.3645,1.2098z"/>
  <path class="fil3" d="M40.6315 20.7218c-0.196,-0.3342 -0.045,-0.2374 -0.4269,-0.3457 -0.0047,0.0075 -0.2929,0.0305 0.0441,0.6208l0.8111 1.4403c0.2031,0.352 0.39,0.6367 0.5621,0.9734 0.512,1.0016 0.1924,0.7209 0.6944,0.8451 -0.5229,-1.1829 -1.0363,-2.4277 -1.6848,-3.5339z"/>
  <path class="fil3" d="M59.1587 25.4168c0.5108,-0.0117 2.0934,-2.2339 2.1799,-2.7906 -0.5723,0.3424 -0.3641,0.1602 -0.7281,0.6173 -0.3825,0.4802 -1.4073,1.7129 -1.4518,2.1733z"/>
  <path class="fil3" d="M62.125 44.6119c0.2138,0.2325 -0.3095,0.1162 0.3738,0.3828 0.2387,0.0931 0.8635,0.2873 1.1085,0.2576 0.0193,-0.0023 0.0646,-0.0004 0.0784,-0.0313 0.0143,-0.0318 0.0518,-0.0262 0.0773,-0.0399 -0.4641,-0.413 -0.959,-0.5309 -1.638,-0.5692z"/>
  <path class="fil3" d="M67.8888 46.7153c-0.3766,-0.267 -0.867,-0.7214 -1.3514,-0.5114 0.0616,0.1078 -0.1576,0.1272 0.2313,0.3273 0.2048,0.1054 0.8277,0.3162 1.1201,0.1841z"/>
  <path class="fil3" d="M35.6321 17.6906c-0.028,-0.4459 -0.0686,-0.5934 -0.4013,-0.6978 -0.0335,0.4074 -0.005,0.5763 0.4013,0.6978z"/>
  <path class="fil3" d="M34.9414 16.2827c0.0227,-0.3815 -0.036,-0.4747 -0.3728,-0.5664 -0.0179,0.4222 -0.033,0.5473 0.3728,0.5664z"/>
  <path class="fil4" d="M34.9057 47.0857c0.3323,0.1066 0.08,0.0539 0.1791,-0.063 -0.3276,-0.2376 -0.5529,-0.5411 -0.6975,-1.0249 -0.3101,-0.158 -0.8768,-1.4949 -0.9768,-1.9827 -0.2499,-1.2195 0.4175,-2.5617 1.226,-3.3801 1.3248,-1.3412 0.7214,-0.6334 1.4592,-2.4142 0.1674,-0.4043 0.041,-0.3302 0.4298,-0.4647 0.1003,-0.6934 0.5584,-1.6832 0.9022,-2.3075 0.4994,-0.9069 0.85,-1.1927 1.3861,-1.8267 0.3705,-1.2775 4.0374,-2.9601 5.0841,-3.1445l2.1136 -0.3315c-0.1445,-0.2844 -0.242,-0.2079 -0.4779,-0.4229 -5.0363,-0.8051 -8.2361,3.0636 -9.5688,6.624 -0.3402,0.909 -0.7617,2.9631 -0.9434,3.1362 -0.1049,0.0999 -0.4731,0.2753 -0.6391,0.3834 -3.2593,2.1224 -1.4643,5.8233 0.5234,7.2191z"/>
  <path class="fil4" d="M58.2682 32.5191l-0.0575 0.2489 0.3267 -0.1424 2.0589 -1.9312c0.6698,-0.6012 1.38,-1.2138 2.2988,-1.8967 2.1149,-1.572 5.4686,-3.4031 7.9553,-4.4053 2.2502,-0.9069 7.8178,-2.8872 9.6569,-2.8905l0.2316 -0.5097c-3.6525,0.3057 -9.7612,2.4387 -12.9791,4.0752 -2.7445,1.3957 -5.3682,3.172 -7.455,5.2347 -0.5114,0.5054 -1.8412,1.6464 -2.0366,2.217z"/>
  <path class="fil4" d="M35.5421 52.4655c-0.0821,0.2493 -0.4389,0.9671 -0.6561,1.1136 -0.1194,-0.3809 -0.1266,-0.2861 -0.0365,-0.5564 0.0411,-0.1229 0.094,-0.186 0.1621,-0.384l0.0854 -0.5008c-0.3956,0.1529 -0.2201,0.0203 -0.5226,0.3067 -0.3485,0.3302 0.0647,0.0916 -0.3861,0.3048 -0.4107,0.4741 -0.7224,1.0564 -0.9026,1.6803 -0.3051,1.0563 -0.065,1.1945 0.0412,2.1923 0.1056,0.8001 0.6402,2.2318 1.0306,2.6331 0.1123,-0.1689 -0.1473,-0.6486 -0.1996,-0.9847 -0.066,-0.4238 -0.1021,-0.775 -0.1002,-1.223 0.0029,-0.7181 0.0178,-1.649 0.6238,-2.0777 0.2176,0.3146 0.1537,0.2914 0.2713,0.5813 0.1401,0.3451 0.1117,0.2872 0.3424,0.4483 0.3435,-0.9754 0.2993,-1.018 0.8362,-1.8997 1.337,-2.1955 2.7825,-2.5475 4.5102,-3.3619 0.1498,-0.0706 0.1366,-0.0696 0.2224,-0.1357 -0.4193,-0.1958 -0.4119,-0.1819 -0.968,-0.1618 -3.2305,0.1165 -3.8171,1.8142 -4.3539,2.0253zm-0.5305 0.1732c-0.0681,0.198 -0.121,0.2611 -0.1621,0.384 -0.0901,0.2703 -0.0829,0.1755 0.0365,0.5564 0.2172,-0.1465 0.574,-0.8643 0.6561,-1.1136 -0.2823,0.1184 -0.1425,-0.0938 -0.3087,0.2159l0.0261 -0.2175c-0.0249,0.0221 -0.0597,0.0432 -0.0808,0.0584 -0.0215,0.0152 -0.0654,0.0796 -0.0827,0.0582 -0.0176,-0.0217 -0.0581,0.0364 -0.0844,0.0582zm-0.8233 0.1107c0.4508,-0.2132 0.0376,0.0254 0.3861,-0.3048 0.3025,-0.2864 0.127,-0.1538 0.5226,-0.3067l-0.0854 0.5008c0.0263,-0.0218 0.0668,-0.0799 0.0844,-0.0582 0.0173,0.0214 0.0612,-0.043 0.0827,-0.0582 0.0211,-0.0152 0.0559,-0.0363 0.0808,-0.0584 0.0743,-0.4239 0.2191,-0.2876 0.2666,-0.8483 -0.3721,0.0582 -0.4751,0.2136 -0.7396,0.4189 -0.3241,0.2515 -0.4267,0.3338 -0.5982,0.7149z"/>
  <path class="fil4" d="M28.7048 54.7129c0.3596,0.1055 0.4352,0.3589 0.8627,0.8814 0.1508,-0.3361 0.3112,-3.0215 1.6791,-4.8449 0.2498,-0.333 0.7863,-0.9341 1.1219,-1.0645 0.2433,-0.3452 0.1023,-0.116 0.3646,-0.3198 0.2356,-0.1831 0.1166,-0.0442 0.2584,-0.2973 -0.5785,-0.2962 -1.0553,-0.0919 -2.0279,-0.1768l1.2301 -0.5488c0.1294,-0.0783 0.5301,-0.2024 0.7834,-0.2384 0.1583,-0.0226 0.3693,-0.0214 0.4869,-0.0399 0.5916,-0.0935 0.3353,0.1217 0.3905,-0.2149 -0.7473,-0.7878 -2.8614,0.0783 -3.5985,0.4767 -0.8407,0.4543 -1.8153,1.4378 -2.1993,2.3732l3.1357 -1.0138c-1.736,1.6007 -2.3143,2.2153 -2.4876,5.0278z"/>
  <path class="fil4" d="M65.5933 51.5325c-0.5161,0.3389 -1.1101,0.4838 -1.7515,0.9172 -0.2894,0.1955 -1.1285,0.8697 -1.325,1.1889 0.1389,0.273 0.1008,0.1616 0.8748,-0.0984 2.2999,-0.7726 4.5452,-1.7117 6.7814,-2.5888l-0.1929 -0.0419 -4.3868 0.623z"/>
  <path class="fil4" d="M45.6454 29.6082c0.5596,0.2286 0.9548,0.6312 1.6153,0.643 -0.0027,-0.3838 -0.0823,-0.5538 -0.1912,-0.8381 -1.0471,-0.7023 -2.5886,-1.0798 -4.1641,-0.9481 0.4498,0.1404 0.8911,0.2194 1.3886,0.4573 0.4704,0.2249 0.9584,0.5058 1.3514,0.6859z"/>
  <path class="fil4" d="M39.7657 33.787c-0.8095,0.391 -1.2153,2.3258 -0.1266,1.9536 0.8336,-0.2851 1.2864,-2.5136 0.1266,-1.9536z"/>
  <path class="fil4" d="M49.6992 37.7207c1.081,0.2931 1.6279,-1.4417 1.2386,-1.8529 -0.5494,-0.5803 -1.7055,0.7464 -1.2386,1.8529z"/>
  <path class="fil4" d="M47.3547 29.1068c0.6261,0.2292 1.1409,0.7362 1.8647,0.7384 0.1119,-0.217 0.0432,-0.0071 0.0671,-0.3083 -0.7139,-0.4618 -1.5723,-1.0712 -2.5386,-1.3395 0.1442,0.3023 0.3512,0.6669 0.6068,0.9094z"/>
  <path class="fil5" d="M51.3711 61.8523c-0.1061,-0.209 0.1244,-0.2479 -0.236,-0.1022 -0.0023,0.0006 -3.71,3.3354 -3.9696,3.7843 0.8407,-0.2688 1.1711,0.2127 1.8353,0.3066l2.7589 -1.4661c1.3956,-0.0714 2.0418,0.7009 2.4101,1.7195 0.3793,1.0492 0.417,2.5027 0.0216,3.6042 -0.5433,1.5136 -1.0981,1.5422 -1.8153,2.28l0.9812 0.4284 -0.3717 2.6189c-0.4444,2.7366 -0.7371,0.7674 -1.0182,2.1699 0.0244,-0.0213 0.0505,-0.0514 0.0692,-0.0684l0.3583 -0.2864 0.1592 1.4057 0.6716 -0.5071c0.7388,-0.7143 2.0459,-4.3353 2.0151,-5.3518l-0.3352 -0.2881 0.7316 -1.0526c1.5125,-2.464 0.0554,-7.5141 -0.5802,-9.7318 -1.2703,0.544 -2.8771,1.3611 -4.3022,1.3496l0.6163 -0.8126z"/>
  <path class="fil5" d="M49.5425 51.3925l0.7024 0.3514 1.0848 0.3784 -0.7586 -0.6206c1.5801,-0.1905 1.3959,-0.0853 2.9877,1.1049l-0.4491 -0.9589c1.5012,0.2462 3.1485,1.5084 3.6876,2.9149 0.8057,2.102 -0.5428,2.8203 -2.1179,4.2523l-0.0596 -0.2782c-0.2011,0.3103 -0.2822,0.7306 -0.4543,1.1203 -0.2027,0.4589 -0.367,0.5843 -0.5015,1.0243l1.9329 -1.437c1.3915,-1.2054 2.3581,-3.944 1.7133,-6.1019 -0.1515,-0.5073 -0.4085,-0.7793 -0.2292,-1.0955 2.2604,1.7474 1.4506,1.5602 2.0727,2.0729l-1.9711 -3.8272c-0.3436,-0.2748 -1.3979,-1.0355 -1.8649,-0.8454 -0.2123,0.0864 -0.7704,0.6994 -1.7375,1.0502l0.3426 0.1626 -4.3803 0.7325z"/>
  <path class="fil5" d="M48.9122 50.3258c4.5481,-0.0169 7.2837,-2.3095 7.7602,-6.3741l0.4109 -4.3226 -1.0285 -0.7757c0.4993,-0.0137 3.1939,-0.1647 3.5565,-0.4764l-3.9168 0.3068c0.3992,0.9839 -0.3656,6.1803 -1.3042,7.6966 -1.2223,1.9744 -3.001,2.8874 -5,3.6837l-0.3952 0.2044c-0.0228,0.0141 -0.0569,0.036 -0.0829,0.0573z"/>
  <path class="fil5" d="M61.507 37.4872l0.5857 -0.0109c0.007,0.016 -0.0018,0.0308 -0.001,0.0523 0.0057,0.1674 -0.2106,0.134 0.4331,0.1517 -0.0576,0.1342 -0.0725,0.2867 -0.0736,0.3041 2.0848,-0.6196 3.6394,-1.0082 5.4357,-1.84 3.5359,-1.6373 5.5212,-3.6317 7.863,-6.4562 0.6337,-0.7643 2.3909,-3.2746 2.8513,-4.3582 -0.6672,0.1713 -1.4216,1.3674 -1.8353,1.7922 -1.9823,2.0357 -2.3721,3.1669 -5.3176,5.7319 -1.3008,1.1327 -2.4775,2.0478 -4.3926,2.891 -1.3588,0.5981 -3.9376,1.5794 -5.5487,1.7421z"/>
  <path class="fil5" d="M45.1308 64.2716l0.2177 0.8369c2.4109,-2.008 2.6254,-2.2382 4.8792,-4.3815 0.7999,-0.7607 1.8056,-1.3846 2.5593,-2.1448 1.8524,-1.8681 1.0836,-2.7055 1.4887,-3.1773 -0.1488,-0.4406 -0.1166,-0.3276 -0.4214,-0.6562 -0.1571,-0.1694 -0.2336,-0.3187 -0.4554,-0.4958 -0.2844,0.568 -0.1348,0.8784 -0.4881,1.8875 -0.1709,0.488 -0.5503,1.0992 -0.8009,1.4587 -0.9175,1.3167 -6.6408,6.0887 -6.9791,6.6725z"/>
  <path class="fil5" d="M37.7167 69.2671c0.15,0.2317 -0.0025,0.0355 0.1699,0.2058l0.3712 0.2648c3.3083,2.0225 6.6298,2.2329 10.4641,1.524l-0.2038 -0.954c-0.1844,-0.8737 -0.0057,-0.9085 0.1753,-0.994 -0.0845,-0.3796 0.0565,-0.1516 -0.204,-0.3817l-0.2063 0.9525c-3.332,0.2929 -5.1456,0.7662 -8.1066,0.0997 -0.6959,-0.1566 -1.9982,-0.7204 -2.4598,-0.7171z"/>
  <path class="fil5" d="M66.9461 63.1757c-0.0209,0.0187 -0.0457,0.0464 -0.0581,0.0609l-0.5216 0.8522c-0.1823,0.3076 -0.4141,0.5228 -0.4975,0.9184l6.658 -5.2025c1.033,-2.0624 2.3238,-6.7057 2.507,-9.4563 -0.4073,0.0943 -0.2294,-0.2057 -0.4073,0.4276 -0.4266,1.5188 -0.249,1.4082 -1.0171,3.5689 -0.9912,2.7887 -2.5028,6.5454 -4.9465,8.2509 -0.3009,0.21 -1.41,0.7872 -1.7169,0.5799z"/>
  <path class="fil5" d="M36.536 76.6841c0.0596,0.3557 0.1689,0.5443 0.3235,0.7802l0.8493 0.0089 0.0267 -1.5605c0.5161,0.4972 0.1947,0.4041 0.5497,1.1624 0.8837,-2.2655 0.7157,-1.7022 1.2904,-3.8785 0.1189,-0.45 0.3143,-0.8351 0.4079,-1.2094l-3.9898 -3.4861 0.3919 -0.0791c-0.0671,-0.1044 -0.1022,-0.2608 -0.367,-0.4484 -0.1689,-0.1196 -0.2828,-0.1466 -0.5222,-0.2082 1.2364,2.1808 1.1954,2.5553 3.182,4.0087l-0.5495 2.8648c-0.0125,0.1471 -0.0241,0.6434 -0.0556,0.7419 -0.1849,0.5776 -0.0067,-0.1254 -0.3797,0.4272 -0.136,0.2015 -0.1049,0.4322 -0.1076,0.6713l-0.0889 0.6555c-0.0041,-0.0136 -0.0197,0.0522 -0.0347,0.0755 -0.4378,0.3089 -0.6833,-0.2847 -0.9264,-0.5262z"/>
  <path class="fil5" d="M41.5182 61.8821c0.1692,0.3122 0.1478,0.2259 0.3359,0.4722 0.5949,-0.7493 3.1953,-3.8483 3.3635,-4.183 -0.2768,0.0931 -0.0539,0.1718 -0.1742,-0.0005l0.484 -1.9509c-1.4123,1.8519 -3.1916,3.4933 -3.5948,5.7704l-0.4144 -0.1082z"/>
  <path class="fil5" d="M61.9998 54.959l-0.2695 -0.0612c0.0105,-0.3856 0.0755,-0.3545 0.303,-0.6721 0.1743,-0.2434 0.2529,-0.3882 0.4835,-0.5871 0.1965,-0.3192 1.0356,-0.9934 1.325,-1.1889 0.6414,-0.4334 1.2354,-0.5783 1.7515,-0.9172 -1.1845,0.1921 -3.733,0.7738 -4.4244,1.422 0.032,0.3309 0.3785,1.9223 0.5147,2.1831 0.5396,-0.0788 0.179,-0.0231 0.3162,-0.1786z"/>
  <path class="fil6" d="M57.5789 34.8722c-0.0847,0.2624 -0.7944,1.3061 -0.9727,1.5767 -0.0749,0.4192 -0.0548,0.1375 0.066,0.2362l1.8221 -0.3853c-0.3577,0.5836 -0.8868,0.73 -1.1479,1.3454l1.1226 -0.033c0.5091,-0.0494 1.1719,-0.2059 1.6455,-0.0841 0.2755,-0.1695 1.2846,-0.3044 1.6941,-0.3892 3.4184,-0.7076 7.2879,-2.3549 9.7506,-4.5841 3.501,-3.1692 4.5434,-5.5312 6.8485,-9.5186 -0.9731,-0.1207 -5.3132,1.3413 -6.3613,1.7152 -4.7642,1.6995 -9.1409,4.2489 -12.5225,7.9396 -0.3884,0.4239 -0.6219,0.6771 -0.966,1.0797 -0.3314,0.3879 -0.6122,0.8332 -0.979,1.1015z"/>
  <path class="fil6" d="M33.5698 82.4721c0.2082,2.1106 27.2744,2.1491 27.5278,-0.0176 0.1804,-1.542 -11.9704,-1.6034 -13.7928,-1.6084 -1.7823,-0.005 -13.8834,0.122 -13.735,1.626z"/>
  <path class="fil6" d="M49.4564 5.0444c-1.0901,-0.3359 -0.7684,1.2844 -0.7632,3.2134 0.0049,1.821 -0.2138,11.7447 0.2208,12.0584 0.9753,0.7041 0.677,-2.6124 0.6784,-3.16 0.005,-2.0302 0.1912,-11.4443 -0.136,-12.1118z"/>
  <path class="fil6" d="M54.3237 28.2974c0.5478,-0.0868 1.8158,-2.3695 2.1768,-2.9253 0.6836,-1.0526 1.2904,-2.018 1.9836,-3.1284 0.6877,-1.1013 1.2881,-2.0393 1.9701,-3.1461 0.3063,-0.4971 1.9692,-2.9161 1.5647,-3.2986 -0.437,-0.4133 -0.9939,0.821 -1.2195,1.1915l-4.8018 7.9829c-0.4029,0.6711 -1.7418,2.6748 -1.6739,3.324z"/>
  <path class="fil6" d="M61.7202 42.6929c0.7323,0.3496 6.9317,-0.0057 8.555,-0.0564 0.4989,-0.0156 2.5819,0.1447 2.1077,-0.665 -0.2291,-0.3914 -4.9167,-0.0502 -5.6915,-0.0256 -0.9168,0.0291 -1.8443,0.0873 -2.7555,0.1202 -1.5356,0.0555 -2.2656,-0.1585 -2.2157,0.6268z"/>
  <path class="fil6" d="M61.8082 21.7415c0.6903,0.1407 1.2929,-0.9851 2.0153,-1.9341l3.4759 -4.6039c0.2273,-0.3146 1.7754,-2.0874 1.436,-2.4534 -0.4485,-0.4836 -1.5383,1.2494 -1.9589,1.8276l-3.439 4.6444c-0.4027,0.5403 -1.6059,1.8479 -1.5293,2.5194z"/>
  <path class="fil6" d="M34.706 10.2305c-0.4431,0.4204 1.7324,3.8791 2.1816,4.7222 0.4187,0.7859 0.8254,1.4771 1.2729,2.3097 0.2593,0.4823 0.4473,0.817 0.6468,1.1966 0.1497,0.285 0.4871,1.1478 0.9043,0.7571 0.3915,-0.3666 -1.8955,-4.2347 -2.1953,-4.7887l-1.9139 -3.5105c-0.1749,-0.3326 -0.4899,-1.0721 -0.8964,-0.6864z"/>
  <path class="fil6" d="M24.6585 36.7305c1.0041,0.0095 2.5909,1.3941 3.3007,1.0043l-0.4304 -0.748c-0.0972,-0.0868 -2.2345,-0.8391 -2.4955,-1.0789l-2.9189 -1.177c-0.3779,-0.1752 -0.6139,-0.2994 -0.9615,-0.1153 -0.1001,0.4528 -0.1905,0.4721 0.5216,0.7729 0.4726,0.1997 2.6606,1.0204 2.984,1.342z"/>
  <path class="fil6" d="M53.2119 13.0944l2.0585 0.3798 0.0144 1.3625c0.8616,-0.1431 0.3315,-0.7593 0.6701,-1.2499 0.1399,-0.2028 0.8966,-0.0485 1.1248,-0.0301 0.7205,0.0578 0.8074,0.0979 1.2618,-0.1848 -0.1392,-0.2751 0.213,-0.2008 -1.0201,-0.3614l-1.2571 -0.1711c-0.0319,-0.3577 0.0003,-0.5118 0.0539,-0.8637 0.0648,-0.4246 0.032,-0.5108 0.1905,-0.7219l0.1022 -1.9188c-0.6069,-0.0756 -0.4282,0.1427 -0.6527,1.4775l-0.3366 1.9167 -2.1632 0.0339 -0.0465 0.3313z"/>
  <path class="fil6" d="M53.2397 23.4564c0.5047,0.1221 0.6108,0.0337 0.9479,-1.0081l0.3988 -1.5644c-0.5714,-0.201 -0.5759,0.189 -0.9201,1.0356 -0.1926,0.4737 -0.503,0.9946 -0.4266,1.5369z"/>
  <path class="fil6" d="M40.4916 13.4724c0.8053,0.0428 0.6529,-0.3904 0.4388,-0.923 -0.1068,-0.2657 -0.4007,-1.059 -0.5891,-1.1711 -1.2418,-0.7383 0.0904,2.0037 0.1503,2.0941z"/>
  <path class="fil6" d="M45.1032 16.1334c0.2531,-0.433 0.1353,-0.8501 0.053,-1.3847 -0.0885,-0.575 -0.0283,-0.8739 -0.622,-0.8231 -0.2299,0.4154 -0.3046,2.4988 0.569,2.2078z"/>
  <path class="fil6" d="M48.8068 21.6107l0.0072 0.2003c-0.0104,0.3283 -0.1498,2.4664 0.2158,2.4833l0.2982 -0.0584 -0.0204 -2.7584c-0.4841,-0.0347 -0.1531,-0.0968 -0.5008,0.1332z"/>
  <g id="_716767096">
   <g>
    <path id="_541434944" class="fil7 str0" d="M16.613 93.415c0.0418,0.0748 0.0925,0.1431 0.1563,0.2025 0.0639,0.0594 0.1299,0.1057 0.2025,0.1409 0.0727,0.0352 0.1409,0.0528 0.2092,0.0528 0.1189,-0.0044 0.2025,-0.0484 0.2554,-0.1365 0.0506,-0.088 0.077,-0.1959 0.0748,-0.3258 -0.0022,-0.1409 -0.0132,-0.2818 -0.0352,-0.4205 -0.0198,-0.1408 -0.0419,-0.2817 -0.0617,-0.427 -0.022,-0.1431 -0.033,-0.2928 -0.0352,-0.4469 0.0022,-0.0639 0.0154,-0.1101 0.0418,-0.1343 0.0265,-0.0264 0.0595,-0.0462 0.0969,-0.0572 0.0396,-0.0111 0.0749,-0.0265 0.1123,-0.0463 0.2355,-0.11 0.4557,-0.2201 0.6626,-0.3324 0.2069,-0.1101 0.4139,-0.2201 0.6208,-0.3258 0.2091,-0.1079 0.4315,-0.2091 0.6715,-0.306 0.044,0.0022 0.088,0.0418 0.1254,0.1167 0.0397,0.0748 0.0771,0.1717 0.1079,0.2884 0.033,0.1166 0.0638,0.2399 0.0881,0.3676 0.0264,0.1299 0.0462,0.2488 0.0638,0.3588 0.0176,0.1101 0.0286,0.1938 0.0374,0.2554 0.011,0.0881 0.0176,0.1761 0.0176,0.2686 0.0022,0.0924 0.0088,0.1783 0.0221,0.2553 0.0132,0.0793 0.044,0.1431 0.0902,0.1938 0.0484,0.0484 0.1233,0.0726 0.2268,0.0748 0.1607,-0.0022 0.2707,-0.0704 0.328,-0.2025 0.0572,-0.1343 0.0858,-0.317 0.0814,-0.5504 0,-0.1915 -0.0176,-0.3874 -0.0484,-0.59 -0.033,-0.2047 -0.0771,-0.4072 -0.1321,-0.6076 -0.055,-0.2003 -0.1189,-0.3896 -0.1893,-0.5723l-1.2416 -3.3154c-0.0903,-0.2421 -0.2048,-0.4667 -0.339,-0.6714 -0.1343,-0.2048 -0.2796,-0.3831 -0.4359,-0.535 -0.1585,-0.1519 -0.3148,-0.2708 -0.4733,-0.3566 -0.1585,-0.0837 -0.306,-0.1255 -0.4425,-0.1277 -0.0375,0 -0.0859,0.0022 -0.1475,0.0066 -0.0617,0.0044 -0.1123,0.0066 -0.1563,0.0066 -0.1123,0.1211 -0.2026,0.2796 -0.273,0.4755 -0.0682,0.1938 -0.1211,0.4095 -0.1563,0.6428 -0.0352,0.2356 -0.0616,0.4734 -0.0771,0.7133 -0.0154,0.24 -0.0242,0.4689 -0.0308,0.6825 -0.0044,0.2135 -0.011,0.3962 -0.0176,0.5503 0,0.3016 -0.0044,0.5878 -0.011,0.8586 -0.0066,0.273 -0.0132,0.5415 -0.022,0.8079 -0.0088,0.2664 -0.0154,0.5416 -0.022,0.8277 -0.0066,0.2862 -0.011,0.5944 -0.011,0.9268 0,0.1475 0,0.3038 0.0022,0.4689 0.0022,0.1652 0.0088,0.3303 0.0176,0.4932 0.0088,0.1629 0.0242,0.3126 0.0462,0.4513zm0.7661 -2.7606c0,-0.1211 -0.0022,-0.2466 -0.0066,-0.3743 -0.0044,-0.1277 -0.0088,-0.2465 -0.0132,-0.3566 -0.0044,-0.1101 -0.0066,-0.1959 -0.0066,-0.2598 0,-0.2884 0.0044,-0.5856 0.011,-0.8938 0.0066,-0.306 0.0198,-0.601 0.0374,-0.8849 0.0154,-0.2818 0.0397,-0.535 0.0683,-0.7551 0.0286,-0.2202 0.066,-0.3875 0.11,-0.5042 0.0441,-0.1166 0.0947,-0.1607 0.1563,-0.132 0.0969,0.099 0.1938,0.2157 0.2862,0.35 0.0925,0.1343 0.1761,0.273 0.251,0.4183 0.077,0.1475 0.1409,0.2861 0.1893,0.4204l0.8322 2.1134c0.0242,0.0616 0.0374,0.1145 0.0396,0.1585 0.0022,0.0418 0.0022,0.0947 0,0.1585 -0.1255,0.0198 -0.2598,0.0484 -0.3985,0.0881 -0.1409,0.0374 -0.2796,0.0836 -0.4204,0.1365 -0.0969,0.0242 -0.2026,0.0572 -0.3171,0.1012 -0.1144,0.0419 -0.2223,0.0859 -0.328,0.1321 -0.1056,0.044 -0.1937,0.0837 -0.2663,0.1145 -0.0727,0.0308 -0.1167,0.0462 -0.1321,0.0484 -0.0154,0.0022 -0.0308,-0.0022 -0.0507,-0.011 -0.0198,-0.0066 -0.033,-0.0308 -0.0418,-0.0682zm7.2384 0.4623c0.0022,0.2597 0.022,0.5349 0.0572,0.8233 0.0374,0.2906 0.0925,0.5812 0.1695,0.8696 0.0749,0.2906 0.1739,0.5657 0.295,0.8277 0.1211,0.262 0.2664,0.4953 0.4359,0.7001 0.1695,0.2025 0.3676,0.3654 0.5922,0.4821 0.2245,0.1189 0.4777,0.1783 0.7617,0.1805 0.1739,-0.0022 0.35,-0.0242 0.5283,-0.0705 0.1805,-0.0462 0.3567,-0.1056 0.5284,-0.1805 0.077,-0.033 0.1893,-0.0924 0.3346,-0.1739 0.1453,-0.0792 0.3104,-0.1783 0.4909,-0.2928 0.1827,-0.1144 0.3654,-0.2421 0.5504,-0.3764 0.1871,-0.1365 0.3566,-0.2774 0.5151,-0.4205 0.1563,-0.1431 0.2818,-0.284 0.3787,-0.4227 0.0946,-0.1387 0.1452,-0.2685 0.1474,-0.3874 -0.0022,-0.1893 -0.044,-0.3522 -0.1254,-0.4887 -0.0815,-0.1365 -0.1894,-0.251 -0.3236,-0.3457 -0.1365,-0.0924 -0.284,-0.1673 -0.4469,-0.2267 -0.1607,-0.0572 -0.3236,-0.1013 -0.4866,-0.1299 -0.1607,-0.0308 -0.3126,-0.0506 -0.449,-0.0616 -0.1365,-0.011 -0.2488,-0.0154 -0.3347,-0.0154 -0.1166,-0.0022 -0.2333,0.0066 -0.3478,0.0264 -0.1145,0.0198 -0.2091,0.0638 -0.2862,0.1321 -0.077,0.0682 -0.1167,0.1739 -0.1189,0.317 0,0.1122 0.0265,0.2223 0.0727,0.328 0.0484,0.1056 0.1123,0.1937 0.1937,0.2642 0.0815,0.0682 0.1739,0.1056 0.2752,0.1078 0.0881,-0.0022 0.1673,-0.0198 0.24,-0.0506 0.0726,-0.033 0.1453,-0.0639 0.2157,-0.0969 0.0726,-0.0308 0.1475,-0.0484 0.2311,-0.0506 0.0441,0 0.1101,0.0044 0.2004,0.011 0.088,0.0088 0.1805,0.022 0.2752,0.0418 0.0946,0.0198 0.1695,0.0463 0.2267,0.0815 0.0572,0.033 0.0727,0.077 0.0506,0.1299 -0.1431,0.1893 -0.3104,0.3698 -0.4975,0.5393 -0.1893,0.1673 -0.3918,0.3192 -0.6054,0.4491 -0.2135,0.1321 -0.4337,0.2356 -0.6538,0.3104 -0.2224,0.0749 -0.4381,0.1123 -0.6472,0.1145 -0.273,-0.0022 -0.5064,-0.0595 -0.6957,-0.1717 -0.1893,-0.1123 -0.3434,-0.2642 -0.4645,-0.4557 -0.1211,-0.1938 -0.2135,-0.4117 -0.2796,-0.6561 -0.066,-0.2443 -0.11,-0.5019 -0.1365,-0.7705 -0.0242,-0.2685 -0.0374,-0.5349 -0.0352,-0.7991 0,-0.6406 0.0727,-1.2614 0.2158,-1.8624 0.1431,-0.601 0.3544,-1.1689 0.634,-1.7039 0.2774,-0.5349 0.6208,-1.0237 1.0258,-1.4662 0.0331,-0.033 0.0727,-0.066 0.1211,-0.1034 0.0485,-0.0352 0.0991,-0.0661 0.1497,-0.0925 0.0529,-0.0264 0.0969,-0.0396 0.1387,-0.0418 0.0683,0.0044 0.1189,0.044 0.1497,0.1211 0.033,0.077 0.0528,0.1695 0.0594,0.2774 0.0089,0.11 0.0111,0.2157 0.0089,0.3148 -0.0045,0.099 -0.0067,0.1739 -0.0067,0.2245l0 0.3038 -0.317 2.1002c0,0.0022 -0.0022,0.011 -0.0066,0.0286 -0.0044,0.0198 -0.0066,0.0352 -0.0066,0.0506 0.0022,0.0683 0.0242,0.1343 0.0639,0.2004 0.0418,0.066 0.0924,0.1232 0.1541,0.1673 0.0594,0.044 0.1189,0.066 0.1783,0.0682 0.1167,-0.0022 0.2069,-0.0352 0.2664,-0.0969 0.0616,-0.0638 0.1056,-0.1453 0.1321,-0.2465 0.0264,-0.0991 0.0484,-0.2048 0.0638,-0.317 0.0352,-0.2224 0.0682,-0.4469 0.0991,-0.6715 0.0286,-0.2245 0.0528,-0.4579 0.0704,-0.7 0.0198,-0.24 0.0286,-0.4975 0.0286,-0.7683 0,-0.1629 -0.0044,-0.3346 -0.0154,-0.5174 -0.011,-0.1805 -0.0352,-0.3588 -0.0726,-0.5327 -0.0375,-0.1739 -0.0925,-0.3324 -0.1651,-0.4733 -0.0749,-0.1431 -0.174,-0.2554 -0.2972,-0.3412 -0.1255,-0.0837 -0.2796,-0.1277 -0.4667,-0.1299 -0.1828,0.0022 -0.3611,0.0572 -0.5416,0.1673 -0.1783,0.1079 -0.3522,0.2576 -0.5217,0.4447 -0.1695,0.1871 -0.3325,0.3984 -0.4866,0.6362 -0.1563,0.2356 -0.2993,0.4843 -0.4336,0.7441 -0.1343,0.2575 -0.2554,0.5129 -0.3633,0.7639 -0.1078,0.2531 -0.1981,0.4865 -0.2729,0.7044 -0.0749,0.2158 -0.1299,0.4007 -0.1674,0.5548 -0.0814,0.3434 -0.143,0.6935 -0.1893,1.0457 -0.0462,0.3522 -0.066,0.7044 -0.0616,1.0545zm6.3533 -3.1173c0.0022,0.0661 0.0044,0.1651 0.0088,0.2972 0.0044,0.1321 0.0088,0.284 0.0154,0.4557 0.0044,0.1717 0.011,0.3501 0.0176,0.535 0.0066,0.1849 0.011,0.3632 0.0176,0.5349 0.0066,0.1717 0.0132,0.3236 0.0176,0.4557 0.0067,0.1321 0.0111,0.2312 0.0155,0.2972 0.0154,0.3148 0.0528,0.6384 0.1144,0.9686 0.0617,0.3303 0.1475,0.6495 0.2576,0.9555 0.1123,0.306 0.251,0.5833 0.4161,0.8277 0.1651,0.2444 0.3588,0.4381 0.5834,0.5812 0.2245,0.1431 0.4799,0.2179 0.7683,0.2201 0.2883,-0.0022 0.5613,-0.0792 0.8189,-0.2267 0.2554,-0.1475 0.4931,-0.3478 0.711,-0.601 0.218,-0.2554 0.4117,-0.546 0.5856,-0.8696 0.1717,-0.3236 0.3192,-0.6648 0.4403,-1.0236 0.1233,-0.3567 0.2158,-0.7111 0.2796,-1.0633 0.0638,-0.3545 0.0969,-0.6869 0.0969,-0.9973 0,-0.2223 -0.0132,-0.4315 -0.0375,-0.6296 -0.0242,-0.1981 -0.0572,-0.3985 -0.1012,-0.5988 -0.0441,-0.2003 -0.0947,-0.4161 -0.1519,-0.6472 -0.0022,-0.0242 -0.022,-0.0727 -0.0639,-0.1387 -0.0396,-0.0682 -0.0858,-0.1387 -0.1409,-0.2113 -0.055,-0.0705 -0.1056,-0.1277 -0.1519,-0.1651 -0.077,0.0022 -0.1541,0.0242 -0.2289,0.0704 -0.0771,0.0462 -0.1409,0.1057 -0.1937,0.1805 -0.0507,0.0727 -0.0771,0.1519 -0.0793,0.2378 0.0044,0.2135 0.0264,0.4249 0.0727,0.634 0.044,0.2091 0.088,0.4249 0.132,0.6472 0.0463,0.2224 0.0683,0.4601 0.0727,0.7133 -0.0044,0.4535 -0.0705,0.8717 -0.2003,1.2614 -0.1299,0.3874 -0.3016,0.7507 -0.5152,1.0875 -0.2157,0.3368 -0.4513,0.6538 -0.711,0.9532 -0.0617,0.0727 -0.1321,0.1387 -0.207,0.2026 -0.077,0.0638 -0.1585,0.1166 -0.2421,0.1585 -0.0837,0.0396 -0.1673,0.0594 -0.251,0.0616 -0.1497,-0.0022 -0.2818,-0.0484 -0.3962,-0.1409 -0.1167,-0.0903 -0.2158,-0.2113 -0.3016,-0.3654 -0.0859,-0.1541 -0.1563,-0.3258 -0.2158,-0.5152 -0.0572,-0.1893 -0.1057,-0.3852 -0.1409,-0.5855 -0.0352,-0.2004 -0.0616,-0.3919 -0.0792,-0.5746 -0.0176,-0.1827 -0.0264,-0.3456 -0.0286,-0.4865 -0.0067,-0.0925 -0.0133,-0.2268 -0.0199,-0.4073 -0.0044,-0.1805 -0.011,-0.3853 -0.0154,-0.6142 -0.0066,-0.229 -0.011,-0.4601 -0.0154,-0.6957 -0.0044,-0.2355 -0.011,-0.4535 -0.0154,-0.656 -0.0044,-0.2025 -0.0088,-0.3676 -0.0132,-0.4953 -0.0044,-0.1277 -0.0088,-0.1959 -0.0132,-0.2091 -0.0418,-0.0881 -0.0969,-0.1651 -0.1673,-0.229 -0.0683,-0.0638 -0.1409,-0.0991 -0.2158,-0.1013 -0.099,0 -0.1915,0.0133 -0.2773,0.0463 -0.0859,0.0308 -0.1541,0.0858 -0.207,0.1629 -0.055,0.077 -0.0814,0.1827 -0.0836,0.3192 0,0.0704 0,0.1321 0.0044,0.1871 0.0044,0.055 0.0154,0.1189 0.0352,0.1959zm5.9306 3.7381c0.0176,0.2311 0.0308,0.4557 0.0375,0.6736 0.0066,0.218 0.0264,0.4183 0.0616,0.6032 0.033,0.1871 0.1035,0.3456 0.2047,0.4799 0.0859,0.1145 0.1673,0.2136 0.2444,0.2972 0.077,0.0815 0.1629,0.1453 0.2553,0.1893 0.0903,0.0463 0.2026,0.0683 0.3325,0.0683 0.1034,-0.0022 0.2377,-0.0308 0.4028,-0.0881 0.1629,-0.0572 0.3413,-0.1343 0.535,-0.2333 0.1937,-0.0991 0.3852,-0.2114 0.579,-0.3391 0.1915,-0.1276 0.3676,-0.2597 0.5261,-0.4006 0.1607,-0.1387 0.2884,-0.2796 0.3852,-0.4183 0.0947,-0.1409 0.1453,-0.2708 0.1475,-0.3962 0,-0.0683 -0.0088,-0.1431 -0.0242,-0.2224 -0.0176,-0.0792 -0.0462,-0.1453 -0.088,-0.2025 -0.0397,-0.0573 -0.0947,-0.0881 -0.1651,-0.0903 -0.0529,0.0022 -0.0991,0.022 -0.1409,0.0573 -0.0419,0.0374 -0.0815,0.0792 -0.1189,0.1276 -0.0396,0.0463 -0.0793,0.0859 -0.1233,0.1189 -0.1189,0.0837 -0.2509,0.1849 -0.3962,0.3082 -0.1453,0.1255 -0.3016,0.2488 -0.4645,0.3721 -0.163,0.1232 -0.3303,0.2267 -0.5042,0.3126 -0.1739,0.0836 -0.3478,0.1254 -0.5239,0.1298 -0.0903,-0.0044 -0.1585,-0.0462 -0.2025,-0.1276 -0.0441,-0.0837 -0.0705,-0.185 -0.0837,-0.3038 -0.0132,-0.1189 -0.0198,-0.2334 -0.0176,-0.3479l0 -0.7661c0.033,-0.1034 0.1013,-0.1937 0.2091,-0.2707 0.1057,-0.0771 0.229,-0.1497 0.3699,-0.2202 0.1409,-0.0682 0.2773,-0.1453 0.4138,-0.2267 0.1343,-0.0815 0.2466,-0.1783 0.3347,-0.2906 0.0902,-0.1145 0.1342,-0.2532 0.1386,-0.4183 0,-0.0242 -0.0044,-0.0638 -0.011,-0.1145 -0.0066,-0.0528 -0.0176,-0.1078 -0.033,-0.1651 -0.0154,-0.0572 -0.0374,-0.1056 -0.0616,-0.1453 -0.0264,-0.0418 -0.0573,-0.0616 -0.0925,-0.0638 -0.0066,0 -0.0154,0 -0.0264,0.0022 -0.011,0 -0.0198,0.0044 -0.0264,0.011l-1.0171 0.6076 -0.1189 0c0.0044,-0.2972 0.0176,-0.5922 0.0397,-0.8828 0.0242,-0.2906 0.0374,-0.5768 0.0396,-0.8607 0,-0.1079 -0.0242,-0.2092 -0.0705,-0.3016 -0.044,-0.0947 -0.1056,-0.1695 -0.1849,-0.229 -0.0792,-0.0572 -0.1717,-0.088 -0.273,-0.0902 -0.0836,0.0022 -0.1541,0.0286 -0.2091,0.0814 -0.0572,0.0528 -0.1101,0.1211 -0.1607,0.2091 0,0.1057 0.0022,0.2114 0.0066,0.3171 0.0044,0.1056 0.0066,0.2113 0.0066,0.317 0,0.3236 -0.0088,0.6472 -0.0264,0.9664 -0.0176,0.3214 -0.0396,0.6384 -0.066,0.9488 -0.0155,0.0242 -0.0463,0.0616 -0.0903,0.1145 -0.044,0.0528 -0.0837,0.1123 -0.1233,0.1761 -0.0396,0.0638 -0.0616,0.1255 -0.0638,0.1849 0.0022,0.0661 0.0176,0.1277 0.0462,0.1871 0.0308,0.0595 0.0638,0.1189 0.1013,0.1762 0.0352,0.0572 0.066,0.1166 0.0902,0.1783zm0.2906 -5.2835c0.0066,0.1035 0.033,0.2004 0.0837,0.2928 0.0506,0.0925 0.1144,0.1673 0.1937,0.2246 0.077,0.0594 0.1607,0.088 0.251,0.0902 0.1188,-0.0022 0.2421,-0.033 0.3698,-0.0858 0.1255,-0.0551 0.2488,-0.1167 0.3698,-0.185 0.1233,-0.066 0.2378,-0.1232 0.3435,-0.1651 0.1409,-0.044 0.2862,-0.0704 0.4381,-0.0814 0.1518,-0.0088 0.2993,-0.0132 0.4468,-0.011l0.0925 0c0.1453,0.0022 0.2928,0.011 0.4403,0.0308 0.1475,0.0198 0.295,0.0374 0.4447,0.0572 0.1497,0.0199 0.2994,0.0287 0.4491,0.0309 0.0638,0 0.1233,-0.0155 0.1805,-0.0441 0.0594,-0.0286 0.1079,-0.0682 0.1453,-0.1232 0.0374,-0.0551 0.055,-0.1233 0.0572,-0.2026 -0.0044,-0.1365 -0.0506,-0.2465 -0.1431,-0.3324 -0.0924,-0.0859 -0.2069,-0.1519 -0.3478,-0.1981 -0.1387,-0.0463 -0.284,-0.0815 -0.4315,-0.1013 -0.1475,-0.0198 -0.2774,-0.033 -0.3918,-0.0396 -0.1145,-0.0066 -0.1916,-0.011 -0.2312,-0.0154 -0.2774,0 -0.5239,0.0088 -0.7353,0.0242 -0.2135,0.0176 -0.4094,0.0462 -0.5922,0.0858 -0.1827,0.0397 -0.3654,0.0947 -0.5525,0.1629 -0.1849,0.0683 -0.3919,0.1541 -0.6164,0.2554 -0.0683,0.0264 -0.1299,0.0661 -0.1805,0.1211 -0.0529,0.0528 -0.0815,0.1233 -0.0837,0.2091zm3.3286 1.6775l0.1188 0.4227c0.1608,0.5548 0.3237,1.0919 0.4888,1.6114 0.1673,0.5196 0.3544,1.0237 0.5635,1.5146 0.2092,0.4932 0.4557,0.9731 0.7441,1.4442 0.0507,0.0902 0.1013,0.1563 0.1497,0.1959 0.0484,0.0396 0.1013,0.0616 0.1629,0.0704 0.0617,0.0089 0.1387,0.0133 0.229,0.0111 0.11,0 0.1937,-0.0177 0.2509,-0.0529 0.0551,-0.0352 0.0969,-0.088 0.1189,-0.1563 0.022,-0.0682 0.0396,-0.1541 0.0506,-0.2531 0.0089,-0.0991 0.0243,-0.2136 0.0419,-0.3435 0.044,-0.3258 0.0946,-0.6428 0.1519,-0.9532 0.055,-0.3104 0.1211,-0.623 0.1981,-0.94 0.0748,-0.317 0.1651,-0.6494 0.2686,-0.9973 0.1034,-0.3478 0.2223,-0.7242 0.3588,-1.1249 0.1387,-0.4006 0.2972,-0.8409 0.4755,-1.3208l0 -0.0133c0.0264,-0.0506 0.044,-0.0902 0.0529,-0.1188 0.0088,-0.0309 0.0132,-0.0705 0.0132,-0.1189 0,-0.0683 -0.0176,-0.1431 -0.0507,-0.2246 -0.033,-0.0814 -0.077,-0.1519 -0.1321,-0.2113 -0.0528,-0.0594 -0.1122,-0.0903 -0.1739,-0.0925 -0.1255,0.0022 -0.2377,0.0529 -0.3368,0.1541 -0.1013,0.0991 -0.1893,0.2312 -0.2708,0.3941 -0.0792,0.1651 -0.1519,0.3456 -0.2179,0.5416 -0.0661,0.1959 -0.1277,0.3918 -0.1827,0.5899 -0.0573,0.196 -0.1123,0.3765 -0.1651,0.5394 -0.0529,0.1651 -0.1057,0.2972 -0.1607,0.3963 -0.0199,0.0792 -0.0507,0.2047 -0.0947,0.372 -0.0418,0.1695 -0.0903,0.3588 -0.1453,0.5702 -0.055,0.2135 -0.1101,0.4248 -0.1629,0.6384 -0.055,0.2113 -0.1013,0.4006 -0.1431,0.5702 -0.0418,0.1673 -0.0704,0.2927 -0.0881,0.372l-0.0792 0c-0.0286,-0.0022 -0.0682,-0.0616 -0.1145,-0.1739 -0.0484,-0.1145 -0.1034,-0.2708 -0.1651,-0.4689 -0.0616,-0.196 -0.1277,-0.4205 -0.1981,-0.6715 -0.0705,-0.2509 -0.1409,-0.5151 -0.2158,-0.7903 -0.0748,-0.2774 -0.1475,-0.5525 -0.2201,-0.8255 -0.0726,-0.2708 -0.1431,-0.5284 -0.2091,-0.7683 -0.0595,-0.0925 -0.1255,-0.1629 -0.2004,-0.2092 -0.077,-0.0462 -0.1629,-0.0682 -0.2619,-0.0682 -0.1277,-0.0044 -0.2356,0.0308 -0.3192,0.1013 -0.0837,0.0704 -0.1277,0.2003 -0.1299,0.3874zm4.9664 2.2719c0.0022,0.317 0.055,0.6054 0.1585,0.8652 0.1034,0.2575 0.2465,0.4799 0.4271,0.667 0.1827,0.1849 0.3896,0.328 0.623,0.4293 0.2355,0.099 0.4843,0.1497 0.7462,0.1519 0.306,-0.0022 0.6142,-0.0661 0.9246,-0.1937 0.3082,-0.1255 0.6032,-0.3016 0.885,-0.524 0.2796,-0.2223 0.5306,-0.4799 0.7507,-0.7727 0.2202,-0.2906 0.3941,-0.601 0.5196,-0.9334 0.1276,-0.3302 0.1937,-0.667 0.1959,-1.0105 -0.0022,-0.3544 -0.0573,-0.6868 -0.1673,-0.995 -0.1101,-0.3104 -0.2686,-0.5856 -0.4711,-0.8277 -0.2026,-0.24 -0.4425,-0.4337 -0.7221,-0.5812 -0.0176,-0.0044 -0.055,-0.011 -0.1101,-0.0264 -0.055,-0.0132 -0.1167,-0.0287 -0.1827,-0.0485 -0.066,-0.0198 -0.1233,-0.0396 -0.1739,-0.0616 -0.0506,-0.0198 -0.0793,-0.0418 -0.0881,-0.0617 0.0242,-0.0198 0.0485,-0.033 0.0683,-0.0418 0.0198,-0.0066 0.0462,-0.011 0.077,-0.011 0.0749,0.0022 0.1475,0.0154 0.2224,0.0418 0.0726,0.0243 0.1453,0.0507 0.2201,0.0749 0.0749,0.0264 0.1519,0.0396 0.2312,0.0418 0.0484,-0.0022 0.0814,-0.022 0.1012,-0.0594 0.022,-0.0374 0.0353,-0.0815 0.0397,-0.1321 0.0044,-0.0506 0.0044,-0.0969 0.0044,-0.1387l0 -0.0264c-0.0022,-0.1409 -0.0331,-0.2576 -0.0947,-0.35 -0.0616,-0.0947 -0.1431,-0.1674 -0.24,-0.2202 -0.099,-0.0528 -0.2047,-0.0902 -0.317,-0.1123 -0.1122,-0.022 -0.2223,-0.0308 -0.3258,-0.0308 -0.2509,0.0022 -0.4865,0.0551 -0.7066,0.1563 -0.2202,0.1013 -0.4271,0.24 -0.6164,0.4161 -0.1894,0.1761 -0.3655,0.3742 -0.524,0.5966 -0.1607,0.2223 -0.306,0.4557 -0.4359,0.7 -0.1298,0.2422 -0.2443,0.4822 -0.3456,0.7199l-0.0924 0.1981c-0.0947,0.2114 -0.185,0.4337 -0.273,0.6649 -0.0881,0.2311 -0.1629,0.4667 -0.2202,0.7088 -0.0572,0.2422 -0.0858,0.4843 -0.088,0.7265zm0.8982 0.1189c0.0022,-0.2774 0.0418,-0.5504 0.121,-0.819 0.0771,-0.2685 0.1784,-0.5305 0.3016,-0.7859 0.1233,-0.2553 0.2532,-0.5041 0.3919,-0.7463 0.1365,-0.2421 0.2664,-0.4755 0.3874,-0.7 0.0925,-0.1717 0.1718,-0.2796 0.2378,-0.328 0.066,-0.0485 0.1233,-0.0573 0.1717,-0.0264 0.0462,0.033 0.0903,0.0814 0.1299,0.1453 0.0374,0.066 0.0748,0.1276 0.1101,0.1849 0.0352,0.0572 0.0748,0.0858 0.1166,0.0902 0.0661,-0.0022 0.1321,-0.0132 0.2004,-0.033 0.066,-0.0198 0.1365,-0.0308 0.2091,-0.033 0.1563,0.0022 0.3038,0.0528 0.4403,0.1475 0.1365,0.0969 0.2554,0.2223 0.361,0.3764 0.1035,0.1541 0.1849,0.3192 0.2444,0.4954 0.0594,0.1783 0.0902,0.3478 0.0902,0.5129 -0.0022,0.2443 -0.0594,0.4909 -0.1695,0.7397 -0.1078,0.2465 -0.2553,0.4821 -0.4381,0.7066 -0.1849,0.2224 -0.3874,0.4227 -0.6097,0.5988 -0.2246,0.1739 -0.4513,0.3126 -0.6803,0.4139 -0.2311,0.1035 -0.4491,0.1541 -0.6516,0.1563 -0.1959,-0.0022 -0.3633,-0.0484 -0.5085,-0.1409 -0.1431,-0.0925 -0.2554,-0.2201 -0.3347,-0.383 -0.0792,-0.1652 -0.1188,-0.3545 -0.121,-0.5724zm8.1761 0.4094c0.055,0.4778 0.1871,0.8982 0.3918,1.2571 0.2048,0.3588 0.4667,0.6406 0.7837,0.8409 0.3193,0.2003 0.6759,0.3038 1.0699,0.306 0.1299,0 0.273,-0.0088 0.4293,-0.0308 0.1585,-0.022 0.317,-0.0594 0.4755,-0.1123 0.1585,-0.0528 0.3038,-0.1277 0.4359,-0.2245 0.1321,-0.0969 0.2378,-0.2202 0.317,-0.3699 0.0771,-0.1497 0.1145,-0.3302 0.1123,-0.5437 -0.0022,-0.0132 -0.0154,-0.022 -0.0396,-0.0286 -0.0264,-0.0044 -0.0551,-0.0088 -0.0881,-0.0088 -0.033,-0.0022 -0.0594,-0.0022 -0.0836,-0.0022 -0.1409,0.0022 -0.2818,0.0198 -0.4205,0.055 -0.1387,0.0352 -0.2774,0.077 -0.4139,0.1233 -0.1387,0.0462 -0.2796,0.088 -0.4205,0.1232 -0.1431,0.0353 -0.2883,0.0529 -0.4358,0.0551 -0.2686,-0.0022 -0.491,-0.0617 -0.6627,-0.1783 -0.1739,-0.1167 -0.3082,-0.2774 -0.4028,-0.4799 -0.0969,-0.2004 -0.1629,-0.4315 -0.2004,-0.6913 -0.0396,-0.2576 -0.0572,-0.5305 -0.055,-0.8167 0,-0.1409 0.011,-0.3192 0.0308,-0.5306 0.022,-0.2113 0.0529,-0.4381 0.0969,-0.6824 0.0418,-0.2422 0.0968,-0.4843 0.1607,-0.7243 0.066,-0.2377 0.1431,-0.4579 0.2311,-0.6538 0.0903,-0.1981 0.1916,-0.3566 0.3038,-0.4755 0.1145,-0.1189 0.24,-0.1805 0.3787,-0.1827 0.0902,0.0022 0.1651,0.044 0.2245,0.1232 0.0573,0.0793 0.1079,0.1828 0.1519,0.3104 0.0419,0.1299 0.0859,0.2686 0.1299,0.4205 0.044,0.1497 0.0991,0.2972 0.1629,0.4403 0.0617,0.1453 0.1431,0.273 0.2422,0.383 0.0418,0.0397 0.0968,0.0617 0.1629,0.0661 0.0682,0.0066 0.1365,-0.0044 0.2069,-0.0308 0.0683,-0.0286 0.1255,-0.0705 0.1717,-0.1277 0.022,-0.0308 0.0441,-0.0661 0.0683,-0.1101 0.022,-0.0418 0.0352,-0.0726 0.0374,-0.088 -0.0815,-0.5174 -0.1915,-0.9401 -0.328,-1.2615 -0.1365,-0.3236 -0.284,-0.5723 -0.4425,-0.744 -0.1585,-0.1696 -0.3126,-0.2884 -0.4601,-0.3501 -0.1497,-0.0616 -0.2752,-0.0924 -0.3809,-0.088 -0.2795,0.0044 -0.5217,0.0814 -0.7264,0.2311 -0.2048,0.1497 -0.3787,0.3522 -0.5196,0.6076 -0.1409,0.2532 -0.2553,0.5394 -0.3434,0.8542 -0.0902,0.317 -0.1585,0.6428 -0.2069,0.9752 -0.0507,0.3346 -0.0837,0.6582 -0.1057,0.9686 -0.0198,0.3104 -0.0308,0.5856 -0.0352,0.83 -0.0044,0.2443 -0.0044,0.4315 -0.0044,0.5657z"/>
    <path id="_5414349441" class="fil8" d="M16.613 93.415c0.0418,0.0748 0.0925,0.1431 0.1563,0.2025 0.0639,0.0594 0.1299,0.1057 0.2025,0.1409 0.0727,0.0352 0.1409,0.0528 0.2092,0.0528 0.1189,-0.0044 0.2025,-0.0484 0.2554,-0.1365 0.0506,-0.088 0.077,-0.1959 0.0748,-0.3258 -0.0022,-0.1409 -0.0132,-0.2818 -0.0352,-0.4205 -0.0198,-0.1408 -0.0419,-0.2817 -0.0617,-0.427 -0.022,-0.1431 -0.033,-0.2928 -0.0352,-0.4469 0.0022,-0.0639 0.0154,-0.1101 0.0418,-0.1343 0.0265,-0.0264 0.0595,-0.0462 0.0969,-0.0572 0.0396,-0.0111 0.0749,-0.0265 0.1123,-0.0463 0.2355,-0.11 0.4557,-0.2201 0.6626,-0.3324 0.2069,-0.1101 0.4139,-0.2201 0.6208,-0.3258 0.2091,-0.1079 0.4315,-0.2091 0.6715,-0.306 0.044,0.0022 0.088,0.0418 0.1254,0.1167 0.0397,0.0748 0.0771,0.1717 0.1079,0.2884 0.033,0.1166 0.0638,0.2399 0.0881,0.3676 0.0264,0.1299 0.0462,0.2488 0.0638,0.3588 0.0176,0.1101 0.0286,0.1938 0.0374,0.2554 0.011,0.0881 0.0176,0.1761 0.0176,0.2686 0.0022,0.0924 0.0088,0.1783 0.0221,0.2553 0.0132,0.0793 0.044,0.1431 0.0902,0.1938 0.0484,0.0484 0.1233,0.0726 0.2268,0.0748 0.1607,-0.0022 0.2707,-0.0704 0.328,-0.2025 0.0572,-0.1343 0.0858,-0.317 0.0814,-0.5504 0,-0.1915 -0.0176,-0.3874 -0.0484,-0.59 -0.033,-0.2047 -0.0771,-0.4072 -0.1321,-0.6076 -0.055,-0.2003 -0.1189,-0.3896 -0.1893,-0.5723l-1.2416 -3.3154c-0.0903,-0.2421 -0.2048,-0.4667 -0.339,-0.6714 -0.1343,-0.2048 -0.2796,-0.3831 -0.4359,-0.535 -0.1585,-0.1519 -0.3148,-0.2708 -0.4733,-0.3566 -0.1585,-0.0837 -0.306,-0.1255 -0.4425,-0.1277 -0.0375,0 -0.0859,0.0022 -0.1475,0.0066 -0.0617,0.0044 -0.1123,0.0066 -0.1563,0.0066 -0.1123,0.1211 -0.2026,0.2796 -0.273,0.4755 -0.0682,0.1938 -0.1211,0.4095 -0.1563,0.6428 -0.0352,0.2356 -0.0616,0.4734 -0.0771,0.7133 -0.0154,0.24 -0.0242,0.4689 -0.0308,0.6825 -0.0044,0.2135 -0.011,0.3962 -0.0176,0.5503 0,0.3016 -0.0044,0.5878 -0.011,0.8586 -0.0066,0.273 -0.0132,0.5415 -0.022,0.8079 -0.0088,0.2664 -0.0154,0.5416 -0.022,0.8277 -0.0066,0.2862 -0.011,0.5944 -0.011,0.9268 0,0.1475 0,0.3038 0.0022,0.4689 0.0022,0.1652 0.0088,0.3303 0.0176,0.4932 0.0088,0.1629 0.0242,0.3126 0.0462,0.4513zm0.7661 -2.7606c0,-0.1211 -0.0022,-0.2466 -0.0066,-0.3743 -0.0044,-0.1277 -0.0088,-0.2465 -0.0132,-0.3566 -0.0044,-0.1101 -0.0066,-0.1959 -0.0066,-0.2598 0,-0.2884 0.0044,-0.5856 0.011,-0.8938 0.0066,-0.306 0.0198,-0.601 0.0374,-0.8849 0.0154,-0.2818 0.0397,-0.535 0.0683,-0.7551 0.0286,-0.2202 0.066,-0.3875 0.11,-0.5042 0.0441,-0.1166 0.0947,-0.1607 0.1563,-0.132 0.0969,0.099 0.1938,0.2157 0.2862,0.35 0.0925,0.1343 0.1761,0.273 0.251,0.4183 0.077,0.1475 0.1409,0.2861 0.1893,0.4204l0.8322 2.1134c0.0242,0.0616 0.0374,0.1145 0.0396,0.1585 0.0022,0.0418 0.0022,0.0947 0,0.1585 -0.1255,0.0198 -0.2598,0.0484 -0.3985,0.0881 -0.1409,0.0374 -0.2796,0.0836 -0.4204,0.1365 -0.0969,0.0242 -0.2026,0.0572 -0.3171,0.1012 -0.1144,0.0419 -0.2223,0.0859 -0.328,0.1321 -0.1056,0.044 -0.1937,0.0837 -0.2663,0.1145 -0.0727,0.0308 -0.1167,0.0462 -0.1321,0.0484 -0.0154,0.0022 -0.0308,-0.0022 -0.0507,-0.011 -0.0198,-0.0066 -0.033,-0.0308 -0.0418,-0.0682zm7.2384 0.4623c0.0022,0.2597 0.022,0.5349 0.0572,0.8233 0.0374,0.2906 0.0925,0.5812 0.1695,0.8696 0.0749,0.2906 0.1739,0.5657 0.295,0.8277 0.1211,0.262 0.2664,0.4953 0.4359,0.7001 0.1695,0.2025 0.3676,0.3654 0.5922,0.4821 0.2245,0.1189 0.4777,0.1783 0.7617,0.1805 0.1739,-0.0022 0.35,-0.0242 0.5283,-0.0705 0.1805,-0.0462 0.3567,-0.1056 0.5284,-0.1805 0.077,-0.033 0.1893,-0.0924 0.3346,-0.1739 0.1453,-0.0792 0.3104,-0.1783 0.4909,-0.2928 0.1827,-0.1144 0.3654,-0.2421 0.5504,-0.3764 0.1871,-0.1365 0.3566,-0.2774 0.5151,-0.4205 0.1563,-0.1431 0.2818,-0.284 0.3787,-0.4227 0.0946,-0.1387 0.1452,-0.2685 0.1474,-0.3874 -0.0022,-0.1893 -0.044,-0.3522 -0.1254,-0.4887 -0.0815,-0.1365 -0.1894,-0.251 -0.3236,-0.3457 -0.1365,-0.0924 -0.284,-0.1673 -0.4469,-0.2267 -0.1607,-0.0572 -0.3236,-0.1013 -0.4866,-0.1299 -0.1607,-0.0308 -0.3126,-0.0506 -0.449,-0.0616 -0.1365,-0.011 -0.2488,-0.0154 -0.3347,-0.0154 -0.1166,-0.0022 -0.2333,0.0066 -0.3478,0.0264 -0.1145,0.0198 -0.2091,0.0638 -0.2862,0.1321 -0.077,0.0682 -0.1167,0.1739 -0.1189,0.317 0,0.1122 0.0265,0.2223 0.0727,0.328 0.0484,0.1056 0.1123,0.1937 0.1937,0.2642 0.0815,0.0682 0.1739,0.1056 0.2752,0.1078 0.0881,-0.0022 0.1673,-0.0198 0.24,-0.0506 0.0726,-0.033 0.1453,-0.0639 0.2157,-0.0969 0.0726,-0.0308 0.1475,-0.0484 0.2311,-0.0506 0.0441,0 0.1101,0.0044 0.2004,0.011 0.088,0.0088 0.1805,0.022 0.2752,0.0418 0.0946,0.0198 0.1695,0.0463 0.2267,0.0815 0.0572,0.033 0.0727,0.077 0.0506,0.1299 -0.1431,0.1893 -0.3104,0.3698 -0.4975,0.5393 -0.1893,0.1673 -0.3918,0.3192 -0.6054,0.4491 -0.2135,0.1321 -0.4337,0.2356 -0.6538,0.3104 -0.2224,0.0749 -0.4381,0.1123 -0.6472,0.1145 -0.273,-0.0022 -0.5064,-0.0595 -0.6957,-0.1717 -0.1893,-0.1123 -0.3434,-0.2642 -0.4645,-0.4557 -0.1211,-0.1938 -0.2135,-0.4117 -0.2796,-0.6561 -0.066,-0.2443 -0.11,-0.5019 -0.1365,-0.7705 -0.0242,-0.2685 -0.0374,-0.5349 -0.0352,-0.7991 0,-0.6406 0.0727,-1.2614 0.2158,-1.8624 0.1431,-0.601 0.3544,-1.1689 0.634,-1.7039 0.2774,-0.5349 0.6208,-1.0237 1.0258,-1.4662 0.0331,-0.033 0.0727,-0.066 0.1211,-0.1034 0.0485,-0.0352 0.0991,-0.0661 0.1497,-0.0925 0.0529,-0.0264 0.0969,-0.0396 0.1387,-0.0418 0.0683,0.0044 0.1189,0.044 0.1497,0.1211 0.033,0.077 0.0528,0.1695 0.0594,0.2774 0.0089,0.11 0.0111,0.2157 0.0089,0.3148 -0.0045,0.099 -0.0067,0.1739 -0.0067,0.2245l0 0.3038 -0.317 2.1002c0,0.0022 -0.0022,0.011 -0.0066,0.0286 -0.0044,0.0198 -0.0066,0.0352 -0.0066,0.0506 0.0022,0.0683 0.0242,0.1343 0.0639,0.2004 0.0418,0.066 0.0924,0.1232 0.1541,0.1673 0.0594,0.044 0.1189,0.066 0.1783,0.0682 0.1167,-0.0022 0.2069,-0.0352 0.2664,-0.0969 0.0616,-0.0638 0.1056,-0.1453 0.1321,-0.2465 0.0264,-0.0991 0.0484,-0.2048 0.0638,-0.317 0.0352,-0.2224 0.0682,-0.4469 0.0991,-0.6715 0.0286,-0.2245 0.0528,-0.4579 0.0704,-0.7 0.0198,-0.24 0.0286,-0.4975 0.0286,-0.7683 0,-0.1629 -0.0044,-0.3346 -0.0154,-0.5174 -0.011,-0.1805 -0.0352,-0.3588 -0.0726,-0.5327 -0.0375,-0.1739 -0.0925,-0.3324 -0.1651,-0.4733 -0.0749,-0.1431 -0.174,-0.2554 -0.2972,-0.3412 -0.1255,-0.0837 -0.2796,-0.1277 -0.4667,-0.1299 -0.1828,0.0022 -0.3611,0.0572 -0.5416,0.1673 -0.1783,0.1079 -0.3522,0.2576 -0.5217,0.4447 -0.1695,0.1871 -0.3325,0.3984 -0.4866,0.6362 -0.1563,0.2356 -0.2993,0.4843 -0.4336,0.7441 -0.1343,0.2575 -0.2554,0.5129 -0.3633,0.7639 -0.1078,0.2531 -0.1981,0.4865 -0.2729,0.7044 -0.0749,0.2158 -0.1299,0.4007 -0.1674,0.5548 -0.0814,0.3434 -0.143,0.6935 -0.1893,1.0457 -0.0462,0.3522 -0.066,0.7044 -0.0616,1.0545zm6.3533 -3.1173c0.0022,0.0661 0.0044,0.1651 0.0088,0.2972 0.0044,0.1321 0.0088,0.284 0.0154,0.4557 0.0044,0.1717 0.011,0.3501 0.0176,0.535 0.0066,0.1849 0.011,0.3632 0.0176,0.5349 0.0066,0.1717 0.0132,0.3236 0.0176,0.4557 0.0067,0.1321 0.0111,0.2312 0.0155,0.2972 0.0154,0.3148 0.0528,0.6384 0.1144,0.9686 0.0617,0.3303 0.1475,0.6495 0.2576,0.9555 0.1123,0.306 0.251,0.5833 0.4161,0.8277 0.1651,0.2444 0.3588,0.4381 0.5834,0.5812 0.2245,0.1431 0.4799,0.2179 0.7683,0.2201 0.2883,-0.0022 0.5613,-0.0792 0.8189,-0.2267 0.2554,-0.1475 0.4931,-0.3478 0.711,-0.601 0.218,-0.2554 0.4117,-0.546 0.5856,-0.8696 0.1717,-0.3236 0.3192,-0.6648 0.4403,-1.0236 0.1233,-0.3567 0.2158,-0.7111 0.2796,-1.0633 0.0638,-0.3545 0.0969,-0.6869 0.0969,-0.9973 0,-0.2223 -0.0132,-0.4315 -0.0375,-0.6296 -0.0242,-0.1981 -0.0572,-0.3985 -0.1012,-0.5988 -0.0441,-0.2003 -0.0947,-0.4161 -0.1519,-0.6472 -0.0022,-0.0242 -0.022,-0.0727 -0.0639,-0.1387 -0.0396,-0.0682 -0.0858,-0.1387 -0.1409,-0.2113 -0.055,-0.0705 -0.1056,-0.1277 -0.1519,-0.1651 -0.077,0.0022 -0.1541,0.0242 -0.2289,0.0704 -0.0771,0.0462 -0.1409,0.1057 -0.1937,0.1805 -0.0507,0.0727 -0.0771,0.1519 -0.0793,0.2378 0.0044,0.2135 0.0264,0.4249 0.0727,0.634 0.044,0.2091 0.088,0.4249 0.132,0.6472 0.0463,0.2224 0.0683,0.4601 0.0727,0.7133 -0.0044,0.4535 -0.0705,0.8717 -0.2003,1.2614 -0.1299,0.3874 -0.3016,0.7507 -0.5152,1.0875 -0.2157,0.3368 -0.4513,0.6538 -0.711,0.9532 -0.0617,0.0727 -0.1321,0.1387 -0.207,0.2026 -0.077,0.0638 -0.1585,0.1166 -0.2421,0.1585 -0.0837,0.0396 -0.1673,0.0594 -0.251,0.0616 -0.1497,-0.0022 -0.2818,-0.0484 -0.3962,-0.1409 -0.1167,-0.0903 -0.2158,-0.2113 -0.3016,-0.3654 -0.0859,-0.1541 -0.1563,-0.3258 -0.2158,-0.5152 -0.0572,-0.1893 -0.1057,-0.3852 -0.1409,-0.5855 -0.0352,-0.2004 -0.0616,-0.3919 -0.0792,-0.5746 -0.0176,-0.1827 -0.0264,-0.3456 -0.0286,-0.4865 -0.0067,-0.0925 -0.0133,-0.2268 -0.0199,-0.4073 -0.0044,-0.1805 -0.011,-0.3853 -0.0154,-0.6142 -0.0066,-0.229 -0.011,-0.4601 -0.0154,-0.6957 -0.0044,-0.2355 -0.011,-0.4535 -0.0154,-0.656 -0.0044,-0.2025 -0.0088,-0.3676 -0.0132,-0.4953 -0.0044,-0.1277 -0.0088,-0.1959 -0.0132,-0.2091 -0.0418,-0.0881 -0.0969,-0.1651 -0.1673,-0.229 -0.0683,-0.0638 -0.1409,-0.0991 -0.2158,-0.1013 -0.099,0 -0.1915,0.0133 -0.2773,0.0463 -0.0859,0.0308 -0.1541,0.0858 -0.207,0.1629 -0.055,0.077 -0.0814,0.1827 -0.0836,0.3192 0,0.0704 0,0.1321 0.0044,0.1871 0.0044,0.055 0.0154,0.1189 0.0352,0.1959zm5.9306 3.7381c0.0176,0.2311 0.0308,0.4557 0.0375,0.6736 0.0066,0.218 0.0264,0.4183 0.0616,0.6032 0.033,0.1871 0.1035,0.3456 0.2047,0.4799 0.0859,0.1145 0.1673,0.2136 0.2444,0.2972 0.077,0.0815 0.1629,0.1453 0.2553,0.1893 0.0903,0.0463 0.2026,0.0683 0.3325,0.0683 0.1034,-0.0022 0.2377,-0.0308 0.4028,-0.0881 0.1629,-0.0572 0.3413,-0.1343 0.535,-0.2333 0.1937,-0.0991 0.3852,-0.2114 0.579,-0.3391 0.1915,-0.1276 0.3676,-0.2597 0.5261,-0.4006 0.1607,-0.1387 0.2884,-0.2796 0.3852,-0.4183 0.0947,-0.1409 0.1453,-0.2708 0.1475,-0.3962 0,-0.0683 -0.0088,-0.1431 -0.0242,-0.2224 -0.0176,-0.0792 -0.0462,-0.1453 -0.088,-0.2025 -0.0397,-0.0573 -0.0947,-0.0881 -0.1651,-0.0903 -0.0529,0.0022 -0.0991,0.022 -0.1409,0.0573 -0.0419,0.0374 -0.0815,0.0792 -0.1189,0.1276 -0.0396,0.0463 -0.0793,0.0859 -0.1233,0.1189 -0.1189,0.0837 -0.2509,0.1849 -0.3962,0.3082 -0.1453,0.1255 -0.3016,0.2488 -0.4645,0.3721 -0.163,0.1232 -0.3303,0.2267 -0.5042,0.3126 -0.1739,0.0836 -0.3478,0.1254 -0.5239,0.1298 -0.0903,-0.0044 -0.1585,-0.0462 -0.2025,-0.1276 -0.0441,-0.0837 -0.0705,-0.185 -0.0837,-0.3038 -0.0132,-0.1189 -0.0198,-0.2334 -0.0176,-0.3479l0 -0.7661c0.033,-0.1034 0.1013,-0.1937 0.2091,-0.2707 0.1057,-0.0771 0.229,-0.1497 0.3699,-0.2202 0.1409,-0.0682 0.2773,-0.1453 0.4138,-0.2267 0.1343,-0.0815 0.2466,-0.1783 0.3347,-0.2906 0.0902,-0.1145 0.1342,-0.2532 0.1386,-0.4183 0,-0.0242 -0.0044,-0.0638 -0.011,-0.1145 -0.0066,-0.0528 -0.0176,-0.1078 -0.033,-0.1651 -0.0154,-0.0572 -0.0374,-0.1056 -0.0616,-0.1453 -0.0264,-0.0418 -0.0573,-0.0616 -0.0925,-0.0638 -0.0066,0 -0.0154,0 -0.0264,0.0022 -0.011,0 -0.0198,0.0044 -0.0264,0.011l-1.0171 0.6076 -0.1189 0c0.0044,-0.2972 0.0176,-0.5922 0.0397,-0.8828 0.0242,-0.2906 0.0374,-0.5768 0.0396,-0.8607 0,-0.1079 -0.0242,-0.2092 -0.0705,-0.3016 -0.044,-0.0947 -0.1056,-0.1695 -0.1849,-0.229 -0.0792,-0.0572 -0.1717,-0.088 -0.273,-0.0902 -0.0836,0.0022 -0.1541,0.0286 -0.2091,0.0814 -0.0572,0.0528 -0.1101,0.1211 -0.1607,0.2091 0,0.1057 0.0022,0.2114 0.0066,0.3171 0.0044,0.1056 0.0066,0.2113 0.0066,0.317 0,0.3236 -0.0088,0.6472 -0.0264,0.9664 -0.0176,0.3214 -0.0396,0.6384 -0.066,0.9488 -0.0155,0.0242 -0.0463,0.0616 -0.0903,0.1145 -0.044,0.0528 -0.0837,0.1123 -0.1233,0.1761 -0.0396,0.0638 -0.0616,0.1255 -0.0638,0.1849 0.0022,0.0661 0.0176,0.1277 0.0462,0.1871 0.0308,0.0595 0.0638,0.1189 0.1013,0.1762 0.0352,0.0572 0.066,0.1166 0.0902,0.1783zm0.2906 -5.2835c0.0066,0.1035 0.033,0.2004 0.0837,0.2928 0.0506,0.0925 0.1144,0.1673 0.1937,0.2246 0.077,0.0594 0.1607,0.088 0.251,0.0902 0.1188,-0.0022 0.2421,-0.033 0.3698,-0.0858 0.1255,-0.0551 0.2488,-0.1167 0.3698,-0.185 0.1233,-0.066 0.2378,-0.1232 0.3435,-0.1651 0.1409,-0.044 0.2862,-0.0704 0.4381,-0.0814 0.1518,-0.0088 0.2993,-0.0132 0.4468,-0.011l0.0925 0c0.1453,0.0022 0.2928,0.011 0.4403,0.0308 0.1475,0.0198 0.295,0.0374 0.4447,0.0572 0.1497,0.0199 0.2994,0.0287 0.4491,0.0309 0.0638,0 0.1233,-0.0155 0.1805,-0.0441 0.0594,-0.0286 0.1079,-0.0682 0.1453,-0.1232 0.0374,-0.0551 0.055,-0.1233 0.0572,-0.2026 -0.0044,-0.1365 -0.0506,-0.2465 -0.1431,-0.3324 -0.0924,-0.0859 -0.2069,-0.1519 -0.3478,-0.1981 -0.1387,-0.0463 -0.284,-0.0815 -0.4315,-0.1013 -0.1475,-0.0198 -0.2774,-0.033 -0.3918,-0.0396 -0.1145,-0.0066 -0.1916,-0.011 -0.2312,-0.0154 -0.2774,0 -0.5239,0.0088 -0.7353,0.0242 -0.2135,0.0176 -0.4094,0.0462 -0.5922,0.0858 -0.1827,0.0397 -0.3654,0.0947 -0.5525,0.1629 -0.1849,0.0683 -0.3919,0.1541 -0.6164,0.2554 -0.0683,0.0264 -0.1299,0.0661 -0.1805,0.1211 -0.0529,0.0528 -0.0815,0.1233 -0.0837,0.2091zm3.3286 1.6775l0.1188 0.4227c0.1608,0.5548 0.3237,1.0919 0.4888,1.6114 0.1673,0.5196 0.3544,1.0237 0.5635,1.5146 0.2092,0.4932 0.4557,0.9731 0.7441,1.4442 0.0507,0.0902 0.1013,0.1563 0.1497,0.1959 0.0484,0.0396 0.1013,0.0616 0.1629,0.0704 0.0617,0.0089 0.1387,0.0133 0.229,0.0111 0.11,0 0.1937,-0.0177 0.2509,-0.0529 0.0551,-0.0352 0.0969,-0.088 0.1189,-0.1563 0.022,-0.0682 0.0396,-0.1541 0.0506,-0.2531 0.0089,-0.0991 0.0243,-0.2136 0.0419,-0.3435 0.044,-0.3258 0.0946,-0.6428 0.1519,-0.9532 0.055,-0.3104 0.1211,-0.623 0.1981,-0.94 0.0748,-0.317 0.1651,-0.6494 0.2686,-0.9973 0.1034,-0.3478 0.2223,-0.7242 0.3588,-1.1249 0.1387,-0.4006 0.2972,-0.8409 0.4755,-1.3208l0 -0.0133c0.0264,-0.0506 0.044,-0.0902 0.0529,-0.1188 0.0088,-0.0309 0.0132,-0.0705 0.0132,-0.1189 0,-0.0683 -0.0176,-0.1431 -0.0507,-0.2246 -0.033,-0.0814 -0.077,-0.1519 -0.1321,-0.2113 -0.0528,-0.0594 -0.1122,-0.0903 -0.1739,-0.0925 -0.1255,0.0022 -0.2377,0.0529 -0.3368,0.1541 -0.1013,0.0991 -0.1893,0.2312 -0.2708,0.3941 -0.0792,0.1651 -0.1519,0.3456 -0.2179,0.5416 -0.0661,0.1959 -0.1277,0.3918 -0.1827,0.5899 -0.0573,0.196 -0.1123,0.3765 -0.1651,0.5394 -0.0529,0.1651 -0.1057,0.2972 -0.1607,0.3963 -0.0199,0.0792 -0.0507,0.2047 -0.0947,0.372 -0.0418,0.1695 -0.0903,0.3588 -0.1453,0.5702 -0.055,0.2135 -0.1101,0.4248 -0.1629,0.6384 -0.055,0.2113 -0.1013,0.4006 -0.1431,0.5702 -0.0418,0.1673 -0.0704,0.2927 -0.0881,0.372l-0.0792 0c-0.0286,-0.0022 -0.0682,-0.0616 -0.1145,-0.1739 -0.0484,-0.1145 -0.1034,-0.2708 -0.1651,-0.4689 -0.0616,-0.196 -0.1277,-0.4205 -0.1981,-0.6715 -0.0705,-0.2509 -0.1409,-0.5151 -0.2158,-0.7903 -0.0748,-0.2774 -0.1475,-0.5525 -0.2201,-0.8255 -0.0726,-0.2708 -0.1431,-0.5284 -0.2091,-0.7683 -0.0595,-0.0925 -0.1255,-0.1629 -0.2004,-0.2092 -0.077,-0.0462 -0.1629,-0.0682 -0.2619,-0.0682 -0.1277,-0.0044 -0.2356,0.0308 -0.3192,0.1013 -0.0837,0.0704 -0.1277,0.2003 -0.1299,0.3874zm4.9664 2.2719c0.0022,0.317 0.055,0.6054 0.1585,0.8652 0.1034,0.2575 0.2465,0.4799 0.4271,0.667 0.1827,0.1849 0.3896,0.328 0.623,0.4293 0.2355,0.099 0.4843,0.1497 0.7462,0.1519 0.306,-0.0022 0.6142,-0.0661 0.9246,-0.1937 0.3082,-0.1255 0.6032,-0.3016 0.885,-0.524 0.2796,-0.2223 0.5306,-0.4799 0.7507,-0.7727 0.2202,-0.2906 0.3941,-0.601 0.5196,-0.9334 0.1276,-0.3302 0.1937,-0.667 0.1959,-1.0105 -0.0022,-0.3544 -0.0573,-0.6868 -0.1673,-0.995 -0.1101,-0.3104 -0.2686,-0.5856 -0.4711,-0.8277 -0.2026,-0.24 -0.4425,-0.4337 -0.7221,-0.5812 -0.0176,-0.0044 -0.055,-0.011 -0.1101,-0.0264 -0.055,-0.0132 -0.1167,-0.0287 -0.1827,-0.0485 -0.066,-0.0198 -0.1233,-0.0396 -0.1739,-0.0616 -0.0506,-0.0198 -0.0793,-0.0418 -0.0881,-0.0617 0.0242,-0.0198 0.0485,-0.033 0.0683,-0.0418 0.0198,-0.0066 0.0462,-0.011 0.077,-0.011 0.0749,0.0022 0.1475,0.0154 0.2224,0.0418 0.0726,0.0243 0.1453,0.0507 0.2201,0.0749 0.0749,0.0264 0.1519,0.0396 0.2312,0.0418 0.0484,-0.0022 0.0814,-0.022 0.1012,-0.0594 0.022,-0.0374 0.0353,-0.0815 0.0397,-0.1321 0.0044,-0.0506 0.0044,-0.0969 0.0044,-0.1387l0 -0.0264c-0.0022,-0.1409 -0.0331,-0.2576 -0.0947,-0.35 -0.0616,-0.0947 -0.1431,-0.1674 -0.24,-0.2202 -0.099,-0.0528 -0.2047,-0.0902 -0.317,-0.1123 -0.1122,-0.022 -0.2223,-0.0308 -0.3258,-0.0308 -0.2509,0.0022 -0.4865,0.0551 -0.7066,0.1563 -0.2202,0.1013 -0.4271,0.24 -0.6164,0.4161 -0.1894,0.1761 -0.3655,0.3742 -0.524,0.5966 -0.1607,0.2223 -0.306,0.4557 -0.4359,0.7 -0.1298,0.2422 -0.2443,0.4822 -0.3456,0.7199l-0.0924 0.1981c-0.0947,0.2114 -0.185,0.4337 -0.273,0.6649 -0.0881,0.2311 -0.1629,0.4667 -0.2202,0.7088 -0.0572,0.2422 -0.0858,0.4843 -0.088,0.7265zm0.8982 0.1189c0.0022,-0.2774 0.0418,-0.5504 0.121,-0.819 0.0771,-0.2685 0.1784,-0.5305 0.3016,-0.7859 0.1233,-0.2553 0.2532,-0.5041 0.3919,-0.7463 0.1365,-0.2421 0.2664,-0.4755 0.3874,-0.7 0.0925,-0.1717 0.1718,-0.2796 0.2378,-0.328 0.066,-0.0485 0.1233,-0.0573 0.1717,-0.0264 0.0462,0.033 0.0903,0.0814 0.1299,0.1453 0.0374,0.066 0.0748,0.1276 0.1101,0.1849 0.0352,0.0572 0.0748,0.0858 0.1166,0.0902 0.0661,-0.0022 0.1321,-0.0132 0.2004,-0.033 0.066,-0.0198 0.1365,-0.0308 0.2091,-0.033 0.1563,0.0022 0.3038,0.0528 0.4403,0.1475 0.1365,0.0969 0.2554,0.2223 0.361,0.3764 0.1035,0.1541 0.1849,0.3192 0.2444,0.4954 0.0594,0.1783 0.0902,0.3478 0.0902,0.5129 -0.0022,0.2443 -0.0594,0.4909 -0.1695,0.7397 -0.1078,0.2465 -0.2553,0.4821 -0.4381,0.7066 -0.1849,0.2224 -0.3874,0.4227 -0.6097,0.5988 -0.2246,0.1739 -0.4513,0.3126 -0.6803,0.4139 -0.2311,0.1035 -0.4491,0.1541 -0.6516,0.1563 -0.1959,-0.0022 -0.3633,-0.0484 -0.5085,-0.1409 -0.1431,-0.0925 -0.2554,-0.2201 -0.3347,-0.383 -0.0792,-0.1652 -0.1188,-0.3545 -0.121,-0.5724zm8.1761 0.4094c0.055,0.4778 0.1871,0.8982 0.3918,1.2571 0.2048,0.3588 0.4667,0.6406 0.7837,0.8409 0.3193,0.2003 0.6759,0.3038 1.0699,0.306 0.1299,0 0.273,-0.0088 0.4293,-0.0308 0.1585,-0.022 0.317,-0.0594 0.4755,-0.1123 0.1585,-0.0528 0.3038,-0.1277 0.4359,-0.2245 0.1321,-0.0969 0.2378,-0.2202 0.317,-0.3699 0.0771,-0.1497 0.1145,-0.3302 0.1123,-0.5437 -0.0022,-0.0132 -0.0154,-0.022 -0.0396,-0.0286 -0.0264,-0.0044 -0.0551,-0.0088 -0.0881,-0.0088 -0.033,-0.0022 -0.0594,-0.0022 -0.0836,-0.0022 -0.1409,0.0022 -0.2818,0.0198 -0.4205,0.055 -0.1387,0.0352 -0.2774,0.077 -0.4139,0.1233 -0.1387,0.0462 -0.2796,0.088 -0.4205,0.1232 -0.1431,0.0353 -0.2883,0.0529 -0.4358,0.0551 -0.2686,-0.0022 -0.491,-0.0617 -0.6627,-0.1783 -0.1739,-0.1167 -0.3082,-0.2774 -0.4028,-0.4799 -0.0969,-0.2004 -0.1629,-0.4315 -0.2004,-0.6913 -0.0396,-0.2576 -0.0572,-0.5305 -0.055,-0.8167 0,-0.1409 0.011,-0.3192 0.0308,-0.5306 0.022,-0.2113 0.0529,-0.4381 0.0969,-0.6824 0.0418,-0.2422 0.0968,-0.4843 0.1607,-0.7243 0.066,-0.2377 0.1431,-0.4579 0.2311,-0.6538 0.0903,-0.1981 0.1916,-0.3566 0.3038,-0.4755 0.1145,-0.1189 0.24,-0.1805 0.3787,-0.1827 0.0902,0.0022 0.1651,0.044 0.2245,0.1232 0.0573,0.0793 0.1079,0.1828 0.1519,0.3104 0.0419,0.1299 0.0859,0.2686 0.1299,0.4205 0.044,0.1497 0.0991,0.2972 0.1629,0.4403 0.0617,0.1453 0.1431,0.273 0.2422,0.383 0.0418,0.0397 0.0968,0.0617 0.1629,0.0661 0.0682,0.0066 0.1365,-0.0044 0.2069,-0.0308 0.0683,-0.0286 0.1255,-0.0705 0.1717,-0.1277 0.022,-0.0308 0.0441,-0.0661 0.0683,-0.1101 0.022,-0.0418 0.0352,-0.0726 0.0374,-0.088 -0.0815,-0.5174 -0.1915,-0.9401 -0.328,-1.2615 -0.1365,-0.3236 -0.284,-0.5723 -0.4425,-0.744 -0.1585,-0.1696 -0.3126,-0.2884 -0.4601,-0.3501 -0.1497,-0.0616 -0.2752,-0.0924 -0.3809,-0.088 -0.2795,0.0044 -0.5217,0.0814 -0.7264,0.2311 -0.2048,0.1497 -0.3787,0.3522 -0.5196,0.6076 -0.1409,0.2532 -0.2553,0.5394 -0.3434,0.8542 -0.0902,0.317 -0.1585,0.6428 -0.2069,0.9752 -0.0507,0.3346 -0.0837,0.6582 -0.1057,0.9686 -0.0198,0.3104 -0.0308,0.5856 -0.0352,0.83 -0.0044,0.2443 -0.0044,0.4315 -0.0044,0.5657z"/>
   </g>
   <g>
    <path class="fil7 str0" d="M59.8976 93.9037c0.0066,0.0792 0.0286,0.1453 0.0704,0.1981 0.0419,0.0528 0.0903,0.0925 0.1497,0.1189 0.0595,0.0264 0.1167,0.0396 0.1761,0.0396 0.1695,0.0022 0.2906,-0.0374 0.3611,-0.1189 0.0704,-0.0814 0.1034,-0.2135 0.1012,-0.3962 -0.0022,-0.1849 -0.0198,-0.3655 -0.0506,-0.5438 -0.033,-0.1761 -0.0638,-0.3522 -0.0969,-0.5239 -0.0308,-0.1739 -0.0484,-0.3456 -0.0506,-0.5174 0.0022,-0.0682 0.022,-0.1188 0.0616,-0.1541 0.0397,-0.0352 0.0903,-0.0594 0.1475,-0.0748 0.0595,-0.0132 0.1167,-0.022 0.1762,-0.0264 0.0572,-0.0066 0.1056,-0.0132 0.1431,-0.022 0.0462,-0.0132 0.1232,-0.0353 0.2267,-0.0661 0.1035,-0.0308 0.2223,-0.0638 0.3544,-0.1034 0.1343,-0.0397 0.2664,-0.0771 0.3985,-0.1167 0.1343,-0.0418 0.2532,-0.0771 0.3588,-0.1101 0.1057,-0.033 0.1827,-0.0594 0.2334,-0.0792l0.2377 0 0.1585 2.3247c0.0066,0.0308 0.0265,0.0528 0.0595,0.066 0.033,0.0132 0.0704,0.0198 0.11,0.022 0.0397,0.0044 0.0705,0.0044 0.0947,0.0044l0.0132 0c0.1123,0.0022 0.2003,-0.0198 0.262,-0.0616 0.0616,-0.044 0.1035,-0.1189 0.1277,-0.2246 0.022,-0.1056 0.0352,-0.2531 0.033,-0.4402 0,-0.2928 -0.0044,-0.5988 -0.0132,-0.9158 -0.0088,-0.3148 -0.0176,-0.623 -0.0264,-0.9246 -0.0088,-0.3016 -0.0132,-0.579 -0.0132,-0.8278 0,-0.0308 0.0044,-0.0924 0.0088,-0.1805 0.0066,-0.0903 0.0154,-0.1937 0.0264,-0.317 0.0088,-0.1211 0.0198,-0.2466 0.0308,-0.3742 0.011,-0.1299 0.0198,-0.2488 0.0308,-0.3589 0.0088,-0.1079 0.0176,-0.1959 0.022,-0.262 0.0044,-0.0704 0.0154,-0.1739 0.0331,-0.3082 0.0176,-0.1342 0.0374,-0.2883 0.0616,-0.4601 0.0242,-0.1739 0.0484,-0.3522 0.0726,-0.5371 0.0265,-0.1849 0.0507,-0.3654 0.0727,-0.5372 0.0242,-0.1717 0.0418,-0.3236 0.055,-0.4579 0.0154,-0.132 0.022,-0.2333 0.022,-0.3015 0,-0.1035 -0.0198,-0.2026 -0.055,-0.2994 -0.0374,-0.0969 -0.0903,-0.1762 -0.1585,-0.2378 -0.0682,-0.0616 -0.1519,-0.0947 -0.2488,-0.0969 -0.0902,0 -0.1651,0.0177 -0.2223,0.0551 -0.0594,0.0374 -0.1167,0.0968 -0.1739,0.1827 -0.0242,0.1453 -0.0485,0.3236 -0.0749,0.5327 -0.0242,0.2092 -0.0484,0.4381 -0.0726,0.6869 -0.0242,0.2465 -0.0484,0.5019 -0.0705,0.7639 -0.022,0.2598 -0.0418,0.5151 -0.0616,0.7639 -0.0176,0.2509 -0.033,0.4799 -0.0462,0.6912 -0.0132,0.2114 -0.0242,0.3897 -0.0309,0.5372l-0.0528 0.0792c-0.077,0.1145 -0.1541,0.218 -0.2311,0.3104 -0.0771,0.0903 -0.1673,0.1673 -0.273,0.229 -0.1079,0.0638 -0.2422,0.1079 -0.4073,0.1343 -0.0858,0.0264 -0.1959,0.0594 -0.328,0.0968 -0.1321,0.0353 -0.2664,0.0727 -0.4029,0.1079 -0.1364,0.0352 -0.2531,0.066 -0.3522,0.0881 -0.0968,0.0242 -0.1541,0.0374 -0.1717,0.0374l-0.3302 0c-0.0088,-0.0022 -0.0242,-0.022 -0.044,-0.0572 -0.0221,-0.0375 -0.0331,-0.0793 -0.0353,-0.1277l-0.1849 -3.9098 0 -0.1056c0,-0.1211 -0.0198,-0.2334 -0.0594,-0.3369 -0.0396,-0.1034 -0.0991,-0.1871 -0.1761,-0.2509 -0.0749,-0.0639 -0.1695,-0.0969 -0.2796,-0.0991 -0.0286,0 -0.0727,0.0044 -0.1321,0.0154 -0.0572,0.011 -0.1101,0.0308 -0.1585,0.0573 -0.0506,0.0264 -0.0771,0.0638 -0.0793,0.1122l0 0.3699 0.2906 4.2003c0,0.0132 0.0022,0.033 0.0066,0.055 0.0044,0.0221 0.0066,0.0441 0.0066,0.0639 -0.0022,0.0704 -0.0242,0.1233 -0.0638,0.1607 -0.0396,0.0374 -0.0881,0.0704 -0.1409,0.099 -0.0528,0.0287 -0.1013,0.0639 -0.1409,0.1101 -0.0396,0.044 -0.0616,0.1101 -0.0638,0.1981 0.0022,0.1277 0.022,0.2268 0.0594,0.2972 0.0396,0.0705 0.0881,0.1233 0.1475,0.1607 0.0572,0.0353 0.1189,0.0683 0.1805,0.0947 0.0639,0.0242 0.1189,0.0572 0.1695,0.0969 0.0485,0.0374 0.0837,0.0946 0.1035,0.1695 0.0462,0.1849 0.0771,0.3786 0.0969,0.579 0.0176,0.2003 0.0308,0.405 0.0352,0.6098 0,0.0594 0,0.1166 -0.0022,0.1717 0,0.055 -0.0044,0.1122 -0.011,0.1717zm4.7023 -0.9775c0.0088,0.0947 0.0286,0.1784 0.0594,0.2576 0.0308,0.0771 0.0749,0.1387 0.1321,0.1849 0.0572,0.0485 0.1299,0.0705 0.2179,0.0727 0.0771,-0.0066 0.1497,-0.0286 0.218,-0.0661 0.0704,-0.0396 0.1167,-0.1012 0.1387,-0.1849 0.0242,-0.7991 0.0594,-1.53 0.1056,-2.1926 0.0485,-0.6604 0.1079,-1.2724 0.1806,-1.8316 0.0704,-0.5592 0.1541,-1.0853 0.2509,-1.5762 0.0947,-0.4909 0.2026,-0.9665 0.3214,-1.4266 0,-0.099 -0.0132,-0.2047 -0.0396,-0.3104 -0.0264,-0.1078 -0.0726,-0.1981 -0.1365,-0.2729 -0.0638,-0.0749 -0.1497,-0.1145 -0.2597,-0.1167 -0.1189,0.0022 -0.2202,0.0484 -0.3038,0.1387 -0.0837,0.0902 -0.1541,0.2069 -0.2114,0.3522 -0.0572,0.1431 -0.1012,0.295 -0.1343,0.4557 -0.0352,0.1629 -0.0616,0.317 -0.0792,0.4623 -0.0176,0.1453 -0.0308,0.2664 -0.0374,0.361l0 0.0661c-0.0243,0.2135 -0.0551,0.4645 -0.0903,0.7507 -0.0374,0.2862 -0.0749,0.5878 -0.1145,0.907 -0.0396,0.3192 -0.077,0.634 -0.1123,0.9466 -0.0352,0.3126 -0.0638,0.601 -0.0858,0.8673 -0.022,0.2686 -0.033,0.4932 -0.033,0.6759 0,0.1012 0.0022,0.2333 0.0044,0.3984 0.0022,0.1651 0.0022,0.3435 0.0044,0.5328 0.0022,0.1915 0.0044,0.372 0.0044,0.5481zm2.3907 -0.8585c0.0022,0.1365 0.0419,0.2487 0.1167,0.3368 0.0749,0.0881 0.1673,0.1519 0.2774,0.1937 0.1079,0.0441 0.2157,0.0639 0.3192,0.0639 0.1167,-0.0022 0.2091,-0.0375 0.2752,-0.1079 0.066,-0.0682 0.1122,-0.1563 0.1409,-0.2642 0.0286,-0.1056 0.0462,-0.2179 0.0528,-0.3346 0.0044,-0.1189 0.0088,-0.2245 0.0066,-0.3236 -0.0022,-0.4557 -0.011,-0.9092 -0.0264,-1.3627 -0.0154,-0.4535 -0.0242,-0.9092 -0.0264,-1.3715 0,-0.0088 0.0066,-0.022 0.0154,-0.0374 0.0088,-0.0176 0.0176,-0.0264 0.0242,-0.0286 0.011,0.0022 0.0374,0.0198 0.0814,0.055 0.0441,0.0352 0.0925,0.0793 0.1453,0.1277 0.0551,0.0484 0.1013,0.0925 0.1431,0.1343l2.6946 2.9983c0.033,0.0419 0.0638,0.0727 0.0902,0.0859 0.0265,0.0154 0.0551,0.022 0.0881,0.022 0.0308,0 0.0749,0 0.1255,-0.0022 0.0946,0.0022 0.1871,-0.0088 0.2752,-0.0374 0.0902,-0.0264 0.1651,-0.0837 0.2267,-0.1739 0,-0.0991 0.0022,-0.2202 0.0088,-0.3655 0.0044,-0.1431 0.011,-0.2928 0.0176,-0.4513 0.0066,-0.1563 0.0132,-0.3016 0.0176,-0.4358 0.0066,-0.1343 0.0088,-0.24 0.0088,-0.3193l0.4095 -3.8833c0.0352,-0.1431 0.0617,-0.262 0.0815,-0.361 0.0198,-0.0969 0.033,-0.1893 0.0396,-0.2774 0.0088,-0.0881 0.011,-0.1871 0.011,-0.2994 0,-0.0903 -0.0132,-0.1871 -0.0374,-0.2862 -0.0264,-0.099 -0.0661,-0.1827 -0.1233,-0.2509 -0.055,-0.0705 -0.1299,-0.1079 -0.2224,-0.1101 -0.1364,0.0022 -0.2399,0.0528 -0.3126,0.1497 -0.0704,0.0968 -0.121,0.2267 -0.1497,0.3874 -0.0286,0.1607 -0.0506,0.3347 -0.0616,0.5262 -0.011,0.1915 -0.0264,0.383 -0.044,0.5746 0,0.0154 -0.0044,0.0396 -0.011,0.077 -0.0066,0.0352 -0.011,0.0704 -0.0176,0.1057 -0.0066,0.0352 -0.011,0.0572 -0.011,0.0682l-0.4095 3.5135c-0.0088,0.0352 -0.022,0.0793 -0.0396,0.1343 -0.0176,0.055 -0.0375,0.0991 -0.0573,0.1321 -0.0176,0.0352 -0.0352,0.0374 -0.0484,0.011l-3.606 -3.8966 -0.4887 0c-0.044,0.0022 -0.0836,0.0243 -0.1211,0.0661 -0.0352,0.0418 -0.0638,0.0902 -0.0836,0.1453 -0.022,0.055 -0.033,0.1035 -0.033,0.1453 0.0022,0.077 0.0154,0.1409 0.0396,0.1937 0.0264,0.0528 0.0594,0.1079 0.0969,0.1629 0.0374,0.055 0.0726,0.1255 0.1078,0.2113 0.0375,0.0859 0.0661,0.2004 0.0859,0.3435 0.0066,0.0616 0.0154,0.1783 0.0264,0.35 0.0132,0.1717 0.0242,0.3786 0.0396,0.6186 0.0132,0.24 0.0264,0.4931 0.0419,0.7595 0.0132,0.2664 0.0264,0.5239 0.0374,0.7727 0.0132,0.2488 0.022,0.4667 0.0286,0.656 0.0066,0.1871 0.011,0.3236 0.011,0.4095 -0.0154,0.0726 -0.0462,0.1299 -0.0903,0.1717 -0.044,0.0418 -0.0836,0.0837 -0.1232,0.1233 -0.0397,0.0396 -0.0617,0.0902 -0.0639,0.1541zm6.1817 -0.951c0.0022,0.2597 0.022,0.5349 0.0572,0.8233 0.0374,0.2906 0.0925,0.5812 0.1695,0.8696 0.0749,0.2906 0.1739,0.5657 0.295,0.8277 0.1211,0.262 0.2664,0.4953 0.4359,0.7001 0.1695,0.2025 0.3676,0.3654 0.5922,0.4821 0.2245,0.1189 0.4777,0.1783 0.7617,0.1805 0.1739,-0.0022 0.35,-0.0242 0.5283,-0.0705 0.1805,-0.0462 0.3567,-0.1056 0.5284,-0.1805 0.077,-0.033 0.1893,-0.0924 0.3346,-0.1739 0.1453,-0.0792 0.3104,-0.1783 0.4909,-0.2928 0.1827,-0.1144 0.3654,-0.2421 0.5504,-0.3764 0.1871,-0.1365 0.3566,-0.2774 0.5151,-0.4205 0.1563,-0.1431 0.2818,-0.284 0.3787,-0.4227 0.0946,-0.1387 0.1452,-0.2685 0.1474,-0.3874 -0.0022,-0.1893 -0.044,-0.3522 -0.1254,-0.4887 -0.0815,-0.1365 -0.1894,-0.251 -0.3236,-0.3457 -0.1365,-0.0924 -0.284,-0.1673 -0.4469,-0.2267 -0.1607,-0.0572 -0.3236,-0.1013 -0.4866,-0.1299 -0.1607,-0.0308 -0.3126,-0.0506 -0.449,-0.0616 -0.1365,-0.011 -0.2488,-0.0154 -0.3347,-0.0154 -0.1166,-0.0022 -0.2333,0.0066 -0.3478,0.0264 -0.1145,0.0198 -0.2091,0.0638 -0.2862,0.1321 -0.077,0.0682 -0.1167,0.1739 -0.1189,0.317 0,0.1122 0.0265,0.2223 0.0727,0.328 0.0484,0.1056 0.1123,0.1937 0.1937,0.2642 0.0815,0.0682 0.1739,0.1056 0.2752,0.1078 0.0881,-0.0022 0.1673,-0.0198 0.24,-0.0506 0.0726,-0.033 0.1453,-0.0639 0.2157,-0.0969 0.0726,-0.0308 0.1475,-0.0484 0.2311,-0.0506 0.0441,0 0.1101,0.0044 0.2004,0.011 0.088,0.0088 0.1805,0.022 0.2752,0.0418 0.0946,0.0198 0.1695,0.0463 0.2267,0.0815 0.0572,0.033 0.0727,0.077 0.0506,0.1299 -0.1431,0.1893 -0.3104,0.3698 -0.4975,0.5393 -0.1893,0.1673 -0.3918,0.3192 -0.6054,0.4491 -0.2135,0.1321 -0.4337,0.2356 -0.6538,0.3104 -0.2224,0.0749 -0.4381,0.1123 -0.6472,0.1145 -0.273,-0.0022 -0.5064,-0.0595 -0.6957,-0.1717 -0.1893,-0.1123 -0.3434,-0.2642 -0.4645,-0.4557 -0.1211,-0.1938 -0.2135,-0.4117 -0.2796,-0.6561 -0.066,-0.2443 -0.11,-0.5019 -0.1365,-0.7705 -0.0242,-0.2685 -0.0374,-0.5349 -0.0352,-0.7991 0,-0.6406 0.0727,-1.2614 0.2158,-1.8624 0.1431,-0.601 0.3544,-1.1689 0.634,-1.7039 0.2774,-0.5349 0.6208,-1.0237 1.0258,-1.4662 0.0331,-0.033 0.0727,-0.066 0.1211,-0.1034 0.0485,-0.0352 0.0991,-0.0661 0.1497,-0.0925 0.0529,-0.0264 0.0969,-0.0396 0.1387,-0.0418 0.0683,0.0044 0.1189,0.044 0.1497,0.1211 0.033,0.077 0.0528,0.1695 0.0594,0.2774 0.0089,0.11 0.0111,0.2157 0.0089,0.3148 -0.0045,0.099 -0.0067,0.1739 -0.0067,0.2245l0 0.3038 -0.317 2.1002c0,0.0022 -0.0022,0.011 -0.0066,0.0286 -0.0044,0.0198 -0.0066,0.0352 -0.0066,0.0506 0.0022,0.0683 0.0242,0.1343 0.0639,0.2004 0.0418,0.066 0.0924,0.1232 0.1541,0.1673 0.0594,0.044 0.1189,0.066 0.1783,0.0682 0.1167,-0.0022 0.2069,-0.0352 0.2664,-0.0969 0.0616,-0.0638 0.1056,-0.1453 0.1321,-0.2465 0.0264,-0.0991 0.0484,-0.2048 0.0638,-0.317 0.0352,-0.2224 0.0682,-0.4469 0.0991,-0.6715 0.0286,-0.2245 0.0528,-0.4579 0.0704,-0.7 0.0198,-0.24 0.0286,-0.4975 0.0286,-0.7683 0,-0.1629 -0.0044,-0.3346 -0.0154,-0.5174 -0.011,-0.1805 -0.0352,-0.3588 -0.0726,-0.5327 -0.0375,-0.1739 -0.0925,-0.3324 -0.1651,-0.4733 -0.0749,-0.1431 -0.174,-0.2554 -0.2972,-0.3412 -0.1255,-0.0837 -0.2796,-0.1277 -0.4667,-0.1299 -0.1828,0.0022 -0.3611,0.0572 -0.5416,0.1673 -0.1783,0.1079 -0.3522,0.2576 -0.5217,0.4447 -0.1695,0.1871 -0.3325,0.3984 -0.4866,0.6362 -0.1563,0.2356 -0.2993,0.4843 -0.4336,0.7441 -0.1343,0.2575 -0.2554,0.5129 -0.3633,0.7639 -0.1078,0.2531 -0.1981,0.4865 -0.2729,0.7044 -0.0749,0.2158 -0.1299,0.4007 -0.1674,0.5548 -0.0814,0.3434 -0.143,0.6935 -0.1893,1.0457 -0.0462,0.3522 -0.066,0.7044 -0.0616,1.0545zm6.3797 2.2983c0.0418,0.0748 0.0925,0.1431 0.1563,0.2025 0.0639,0.0594 0.1299,0.1057 0.2025,0.1409 0.0727,0.0352 0.1409,0.0528 0.2092,0.0528 0.1189,-0.0044 0.2025,-0.0484 0.2554,-0.1365 0.0506,-0.088 0.077,-0.1959 0.0748,-0.3258 -0.0022,-0.1409 -0.0132,-0.2818 -0.0352,-0.4205 -0.0198,-0.1408 -0.0419,-0.2817 -0.0617,-0.427 -0.022,-0.1431 -0.033,-0.2928 -0.0352,-0.4469 0.0022,-0.0639 0.0154,-0.1101 0.0418,-0.1343 0.0265,-0.0264 0.0595,-0.0462 0.0969,-0.0572 0.0396,-0.0111 0.0749,-0.0265 0.1123,-0.0463 0.2355,-0.11 0.4557,-0.2201 0.6626,-0.3324 0.2069,-0.1101 0.4139,-0.2201 0.6208,-0.3258 0.2091,-0.1079 0.4315,-0.2091 0.6715,-0.306 0.044,0.0022 0.088,0.0418 0.1254,0.1167 0.0397,0.0748 0.0771,0.1717 0.1079,0.2884 0.033,0.1166 0.0638,0.2399 0.0881,0.3676 0.0264,0.1299 0.0462,0.2488 0.0638,0.3588 0.0176,0.1101 0.0286,0.1938 0.0374,0.2554 0.011,0.0881 0.0176,0.1761 0.0176,0.2686 0.0022,0.0924 0.0088,0.1783 0.0221,0.2553 0.0132,0.0793 0.044,0.1431 0.0902,0.1938 0.0484,0.0484 0.1233,0.0726 0.2268,0.0748 0.1607,-0.0022 0.2707,-0.0704 0.328,-0.2025 0.0572,-0.1343 0.0858,-0.317 0.0814,-0.5504 0,-0.1915 -0.0176,-0.3874 -0.0484,-0.59 -0.033,-0.2047 -0.0771,-0.4072 -0.1321,-0.6076 -0.055,-0.2003 -0.1189,-0.3896 -0.1893,-0.5723l-1.2416 -3.3154c-0.0903,-0.2421 -0.2048,-0.4667 -0.339,-0.6714 -0.1343,-0.2048 -0.2796,-0.3831 -0.4359,-0.535 -0.1585,-0.1519 -0.3148,-0.2708 -0.4733,-0.3566 -0.1585,-0.0837 -0.306,-0.1255 -0.4425,-0.1277 -0.0375,0 -0.0859,0.0022 -0.1475,0.0066 -0.0617,0.0044 -0.1123,0.0066 -0.1563,0.0066 -0.1123,0.1211 -0.2026,0.2796 -0.273,0.4755 -0.0682,0.1938 -0.1211,0.4095 -0.1563,0.6428 -0.0352,0.2356 -0.0616,0.4734 -0.0771,0.7133 -0.0154,0.24 -0.0242,0.4689 -0.0308,0.6825 -0.0044,0.2135 -0.011,0.3962 -0.0176,0.5503 0,0.3016 -0.0044,0.5878 -0.011,0.8586 -0.0066,0.273 -0.0132,0.5415 -0.022,0.8079 -0.0088,0.2664 -0.0154,0.5416 -0.022,0.8277 -0.0066,0.2862 -0.011,0.5944 -0.011,0.9268 0,0.1475 0,0.3038 0.0022,0.4689 0.0022,0.1652 0.0088,0.3303 0.0176,0.4932 0.0088,0.1629 0.0242,0.3126 0.0462,0.4513zm0.7661 -2.7606c0,-0.1211 -0.0022,-0.2466 -0.0066,-0.3743 -0.0044,-0.1277 -0.0088,-0.2465 -0.0132,-0.3566 -0.0044,-0.1101 -0.0066,-0.1959 -0.0066,-0.2598 0,-0.2884 0.0044,-0.5856 0.011,-0.8938 0.0066,-0.306 0.0198,-0.601 0.0374,-0.8849 0.0154,-0.2818 0.0397,-0.535 0.0683,-0.7551 0.0286,-0.2202 0.066,-0.3875 0.11,-0.5042 0.0441,-0.1166 0.0947,-0.1607 0.1563,-0.132 0.0969,0.099 0.1938,0.2157 0.2862,0.35 0.0925,0.1343 0.1761,0.273 0.251,0.4183 0.077,0.1475 0.1409,0.2861 0.1893,0.4204l0.8322 2.1134c0.0242,0.0616 0.0374,0.1145 0.0396,0.1585 0.0022,0.0418 0.0022,0.0947 0,0.1585 -0.1255,0.0198 -0.2598,0.0484 -0.3985,0.0881 -0.1409,0.0374 -0.2796,0.0836 -0.4204,0.1365 -0.0969,0.0242 -0.2026,0.0572 -0.3171,0.1012 -0.1144,0.0419 -0.2223,0.0859 -0.328,0.1321 -0.1056,0.044 -0.1937,0.0837 -0.2663,0.1145 -0.0727,0.0308 -0.1167,0.0462 -0.1321,0.0484 -0.0154,0.0022 -0.0308,-0.0022 -0.0507,-0.011 -0.0198,-0.0066 -0.033,-0.0308 -0.0418,-0.0682z"/>
    <path id="1" class="fil8" d="M59.8976 93.9037c0.0066,0.0792 0.0286,0.1453 0.0704,0.1981 0.0419,0.0528 0.0903,0.0925 0.1497,0.1189 0.0595,0.0264 0.1167,0.0396 0.1761,0.0396 0.1695,0.0022 0.2906,-0.0374 0.3611,-0.1189 0.0704,-0.0814 0.1034,-0.2135 0.1012,-0.3962 -0.0022,-0.1849 -0.0198,-0.3655 -0.0506,-0.5438 -0.033,-0.1761 -0.0638,-0.3522 -0.0969,-0.5239 -0.0308,-0.1739 -0.0484,-0.3456 -0.0506,-0.5174 0.0022,-0.0682 0.022,-0.1188 0.0616,-0.1541 0.0397,-0.0352 0.0903,-0.0594 0.1475,-0.0748 0.0595,-0.0132 0.1167,-0.022 0.1762,-0.0264 0.0572,-0.0066 0.1056,-0.0132 0.1431,-0.022 0.0462,-0.0132 0.1232,-0.0353 0.2267,-0.0661 0.1035,-0.0308 0.2223,-0.0638 0.3544,-0.1034 0.1343,-0.0397 0.2664,-0.0771 0.3985,-0.1167 0.1343,-0.0418 0.2532,-0.0771 0.3588,-0.1101 0.1057,-0.033 0.1827,-0.0594 0.2334,-0.0792l0.2377 0 0.1585 2.3247c0.0066,0.0308 0.0265,0.0528 0.0595,0.066 0.033,0.0132 0.0704,0.0198 0.11,0.022 0.0397,0.0044 0.0705,0.0044 0.0947,0.0044l0.0132 0c0.1123,0.0022 0.2003,-0.0198 0.262,-0.0616 0.0616,-0.044 0.1035,-0.1189 0.1277,-0.2246 0.022,-0.1056 0.0352,-0.2531 0.033,-0.4402 0,-0.2928 -0.0044,-0.5988 -0.0132,-0.9158 -0.0088,-0.3148 -0.0176,-0.623 -0.0264,-0.9246 -0.0088,-0.3016 -0.0132,-0.579 -0.0132,-0.8278 0,-0.0308 0.0044,-0.0924 0.0088,-0.1805 0.0066,-0.0903 0.0154,-0.1937 0.0264,-0.317 0.0088,-0.1211 0.0198,-0.2466 0.0308,-0.3742 0.011,-0.1299 0.0198,-0.2488 0.0308,-0.3589 0.0088,-0.1079 0.0176,-0.1959 0.022,-0.262 0.0044,-0.0704 0.0154,-0.1739 0.0331,-0.3082 0.0176,-0.1342 0.0374,-0.2883 0.0616,-0.4601 0.0242,-0.1739 0.0484,-0.3522 0.0726,-0.5371 0.0265,-0.1849 0.0507,-0.3654 0.0727,-0.5372 0.0242,-0.1717 0.0418,-0.3236 0.055,-0.4579 0.0154,-0.132 0.022,-0.2333 0.022,-0.3015 0,-0.1035 -0.0198,-0.2026 -0.055,-0.2994 -0.0374,-0.0969 -0.0903,-0.1762 -0.1585,-0.2378 -0.0682,-0.0616 -0.1519,-0.0947 -0.2488,-0.0969 -0.0902,0 -0.1651,0.0177 -0.2223,0.0551 -0.0594,0.0374 -0.1167,0.0968 -0.1739,0.1827 -0.0242,0.1453 -0.0485,0.3236 -0.0749,0.5327 -0.0242,0.2092 -0.0484,0.4381 -0.0726,0.6869 -0.0242,0.2465 -0.0484,0.5019 -0.0705,0.7639 -0.022,0.2598 -0.0418,0.5151 -0.0616,0.7639 -0.0176,0.2509 -0.033,0.4799 -0.0462,0.6912 -0.0132,0.2114 -0.0242,0.3897 -0.0309,0.5372l-0.0528 0.0792c-0.077,0.1145 -0.1541,0.218 -0.2311,0.3104 -0.0771,0.0903 -0.1673,0.1673 -0.273,0.229 -0.1079,0.0638 -0.2422,0.1079 -0.4073,0.1343 -0.0858,0.0264 -0.1959,0.0594 -0.328,0.0968 -0.1321,0.0353 -0.2664,0.0727 -0.4029,0.1079 -0.1364,0.0352 -0.2531,0.066 -0.3522,0.0881 -0.0968,0.0242 -0.1541,0.0374 -0.1717,0.0374l-0.3302 0c-0.0088,-0.0022 -0.0242,-0.022 -0.044,-0.0572 -0.0221,-0.0375 -0.0331,-0.0793 -0.0353,-0.1277l-0.1849 -3.9098 0 -0.1056c0,-0.1211 -0.0198,-0.2334 -0.0594,-0.3369 -0.0396,-0.1034 -0.0991,-0.1871 -0.1761,-0.2509 -0.0749,-0.0639 -0.1695,-0.0969 -0.2796,-0.0991 -0.0286,0 -0.0727,0.0044 -0.1321,0.0154 -0.0572,0.011 -0.1101,0.0308 -0.1585,0.0573 -0.0506,0.0264 -0.0771,0.0638 -0.0793,0.1122l0 0.3699 0.2906 4.2003c0,0.0132 0.0022,0.033 0.0066,0.055 0.0044,0.0221 0.0066,0.0441 0.0066,0.0639 -0.0022,0.0704 -0.0242,0.1233 -0.0638,0.1607 -0.0396,0.0374 -0.0881,0.0704 -0.1409,0.099 -0.0528,0.0287 -0.1013,0.0639 -0.1409,0.1101 -0.0396,0.044 -0.0616,0.1101 -0.0638,0.1981 0.0022,0.1277 0.022,0.2268 0.0594,0.2972 0.0396,0.0705 0.0881,0.1233 0.1475,0.1607 0.0572,0.0353 0.1189,0.0683 0.1805,0.0947 0.0639,0.0242 0.1189,0.0572 0.1695,0.0969 0.0485,0.0374 0.0837,0.0946 0.1035,0.1695 0.0462,0.1849 0.0771,0.3786 0.0969,0.579 0.0176,0.2003 0.0308,0.405 0.0352,0.6098 0,0.0594 0,0.1166 -0.0022,0.1717 0,0.055 -0.0044,0.1122 -0.011,0.1717zm4.7023 -0.9775c0.0088,0.0947 0.0286,0.1784 0.0594,0.2576 0.0308,0.0771 0.0749,0.1387 0.1321,0.1849 0.0572,0.0485 0.1299,0.0705 0.2179,0.0727 0.0771,-0.0066 0.1497,-0.0286 0.218,-0.0661 0.0704,-0.0396 0.1167,-0.1012 0.1387,-0.1849 0.0242,-0.7991 0.0594,-1.53 0.1056,-2.1926 0.0485,-0.6604 0.1079,-1.2724 0.1806,-1.8316 0.0704,-0.5592 0.1541,-1.0853 0.2509,-1.5762 0.0947,-0.4909 0.2026,-0.9665 0.3214,-1.4266 0,-0.099 -0.0132,-0.2047 -0.0396,-0.3104 -0.0264,-0.1078 -0.0726,-0.1981 -0.1365,-0.2729 -0.0638,-0.0749 -0.1497,-0.1145 -0.2597,-0.1167 -0.1189,0.0022 -0.2202,0.0484 -0.3038,0.1387 -0.0837,0.0902 -0.1541,0.2069 -0.2114,0.3522 -0.0572,0.1431 -0.1012,0.295 -0.1343,0.4557 -0.0352,0.1629 -0.0616,0.317 -0.0792,0.4623 -0.0176,0.1453 -0.0308,0.2664 -0.0374,0.361l0 0.0661c-0.0243,0.2135 -0.0551,0.4645 -0.0903,0.7507 -0.0374,0.2862 -0.0749,0.5878 -0.1145,0.907 -0.0396,0.3192 -0.077,0.634 -0.1123,0.9466 -0.0352,0.3126 -0.0638,0.601 -0.0858,0.8673 -0.022,0.2686 -0.033,0.4932 -0.033,0.6759 0,0.1012 0.0022,0.2333 0.0044,0.3984 0.0022,0.1651 0.0022,0.3435 0.0044,0.5328 0.0022,0.1915 0.0044,0.372 0.0044,0.5481zm2.3907 -0.8585c0.0022,0.1365 0.0419,0.2487 0.1167,0.3368 0.0749,0.0881 0.1673,0.1519 0.2774,0.1937 0.1079,0.0441 0.2157,0.0639 0.3192,0.0639 0.1167,-0.0022 0.2091,-0.0375 0.2752,-0.1079 0.066,-0.0682 0.1122,-0.1563 0.1409,-0.2642 0.0286,-0.1056 0.0462,-0.2179 0.0528,-0.3346 0.0044,-0.1189 0.0088,-0.2245 0.0066,-0.3236 -0.0022,-0.4557 -0.011,-0.9092 -0.0264,-1.3627 -0.0154,-0.4535 -0.0242,-0.9092 -0.0264,-1.3715 0,-0.0088 0.0066,-0.022 0.0154,-0.0374 0.0088,-0.0176 0.0176,-0.0264 0.0242,-0.0286 0.011,0.0022 0.0374,0.0198 0.0814,0.055 0.0441,0.0352 0.0925,0.0793 0.1453,0.1277 0.0551,0.0484 0.1013,0.0925 0.1431,0.1343l2.6946 2.9983c0.033,0.0419 0.0638,0.0727 0.0902,0.0859 0.0265,0.0154 0.0551,0.022 0.0881,0.022 0.0308,0 0.0749,0 0.1255,-0.0022 0.0946,0.0022 0.1871,-0.0088 0.2752,-0.0374 0.0902,-0.0264 0.1651,-0.0837 0.2267,-0.1739 0,-0.0991 0.0022,-0.2202 0.0088,-0.3655 0.0044,-0.1431 0.011,-0.2928 0.0176,-0.4513 0.0066,-0.1563 0.0132,-0.3016 0.0176,-0.4358 0.0066,-0.1343 0.0088,-0.24 0.0088,-0.3193l0.4095 -3.8833c0.0352,-0.1431 0.0617,-0.262 0.0815,-0.361 0.0198,-0.0969 0.033,-0.1893 0.0396,-0.2774 0.0088,-0.0881 0.011,-0.1871 0.011,-0.2994 0,-0.0903 -0.0132,-0.1871 -0.0374,-0.2862 -0.0264,-0.099 -0.0661,-0.1827 -0.1233,-0.2509 -0.055,-0.0705 -0.1299,-0.1079 -0.2224,-0.1101 -0.1364,0.0022 -0.2399,0.0528 -0.3126,0.1497 -0.0704,0.0968 -0.121,0.2267 -0.1497,0.3874 -0.0286,0.1607 -0.0506,0.3347 -0.0616,0.5262 -0.011,0.1915 -0.0264,0.383 -0.044,0.5746 0,0.0154 -0.0044,0.0396 -0.011,0.077 -0.0066,0.0352 -0.011,0.0704 -0.0176,0.1057 -0.0066,0.0352 -0.011,0.0572 -0.011,0.0682l-0.4095 3.5135c-0.0088,0.0352 -0.022,0.0793 -0.0396,0.1343 -0.0176,0.055 -0.0375,0.0991 -0.0573,0.1321 -0.0176,0.0352 -0.0352,0.0374 -0.0484,0.011l-3.606 -3.8966 -0.4887 0c-0.044,0.0022 -0.0836,0.0243 -0.1211,0.0661 -0.0352,0.0418 -0.0638,0.0902 -0.0836,0.1453 -0.022,0.055 -0.033,0.1035 -0.033,0.1453 0.0022,0.077 0.0154,0.1409 0.0396,0.1937 0.0264,0.0528 0.0594,0.1079 0.0969,0.1629 0.0374,0.055 0.0726,0.1255 0.1078,0.2113 0.0375,0.0859 0.0661,0.2004 0.0859,0.3435 0.0066,0.0616 0.0154,0.1783 0.0264,0.35 0.0132,0.1717 0.0242,0.3786 0.0396,0.6186 0.0132,0.24 0.0264,0.4931 0.0419,0.7595 0.0132,0.2664 0.0264,0.5239 0.0374,0.7727 0.0132,0.2488 0.022,0.4667 0.0286,0.656 0.0066,0.1871 0.011,0.3236 0.011,0.4095 -0.0154,0.0726 -0.0462,0.1299 -0.0903,0.1717 -0.044,0.0418 -0.0836,0.0837 -0.1232,0.1233 -0.0397,0.0396 -0.0617,0.0902 -0.0639,0.1541zm6.1817 -0.951c0.0022,0.2597 0.022,0.5349 0.0572,0.8233 0.0374,0.2906 0.0925,0.5812 0.1695,0.8696 0.0749,0.2906 0.1739,0.5657 0.295,0.8277 0.1211,0.262 0.2664,0.4953 0.4359,0.7001 0.1695,0.2025 0.3676,0.3654 0.5922,0.4821 0.2245,0.1189 0.4777,0.1783 0.7617,0.1805 0.1739,-0.0022 0.35,-0.0242 0.5283,-0.0705 0.1805,-0.0462 0.3567,-0.1056 0.5284,-0.1805 0.077,-0.033 0.1893,-0.0924 0.3346,-0.1739 0.1453,-0.0792 0.3104,-0.1783 0.4909,-0.2928 0.1827,-0.1144 0.3654,-0.2421 0.5504,-0.3764 0.1871,-0.1365 0.3566,-0.2774 0.5151,-0.4205 0.1563,-0.1431 0.2818,-0.284 0.3787,-0.4227 0.0946,-0.1387 0.1452,-0.2685 0.1474,-0.3874 -0.0022,-0.1893 -0.044,-0.3522 -0.1254,-0.4887 -0.0815,-0.1365 -0.1894,-0.251 -0.3236,-0.3457 -0.1365,-0.0924 -0.284,-0.1673 -0.4469,-0.2267 -0.1607,-0.0572 -0.3236,-0.1013 -0.4866,-0.1299 -0.1607,-0.0308 -0.3126,-0.0506 -0.449,-0.0616 -0.1365,-0.011 -0.2488,-0.0154 -0.3347,-0.0154 -0.1166,-0.0022 -0.2333,0.0066 -0.3478,0.0264 -0.1145,0.0198 -0.2091,0.0638 -0.2862,0.1321 -0.077,0.0682 -0.1167,0.1739 -0.1189,0.317 0,0.1122 0.0265,0.2223 0.0727,0.328 0.0484,0.1056 0.1123,0.1937 0.1937,0.2642 0.0815,0.0682 0.1739,0.1056 0.2752,0.1078 0.0881,-0.0022 0.1673,-0.0198 0.24,-0.0506 0.0726,-0.033 0.1453,-0.0639 0.2157,-0.0969 0.0726,-0.0308 0.1475,-0.0484 0.2311,-0.0506 0.0441,0 0.1101,0.0044 0.2004,0.011 0.088,0.0088 0.1805,0.022 0.2752,0.0418 0.0946,0.0198 0.1695,0.0463 0.2267,0.0815 0.0572,0.033 0.0727,0.077 0.0506,0.1299 -0.1431,0.1893 -0.3104,0.3698 -0.4975,0.5393 -0.1893,0.1673 -0.3918,0.3192 -0.6054,0.4491 -0.2135,0.1321 -0.4337,0.2356 -0.6538,0.3104 -0.2224,0.0749 -0.4381,0.1123 -0.6472,0.1145 -0.273,-0.0022 -0.5064,-0.0595 -0.6957,-0.1717 -0.1893,-0.1123 -0.3434,-0.2642 -0.4645,-0.4557 -0.1211,-0.1938 -0.2135,-0.4117 -0.2796,-0.6561 -0.066,-0.2443 -0.11,-0.5019 -0.1365,-0.7705 -0.0242,-0.2685 -0.0374,-0.5349 -0.0352,-0.7991 0,-0.6406 0.0727,-1.2614 0.2158,-1.8624 0.1431,-0.601 0.3544,-1.1689 0.634,-1.7039 0.2774,-0.5349 0.6208,-1.0237 1.0258,-1.4662 0.0331,-0.033 0.0727,-0.066 0.1211,-0.1034 0.0485,-0.0352 0.0991,-0.0661 0.1497,-0.0925 0.0529,-0.0264 0.0969,-0.0396 0.1387,-0.0418 0.0683,0.0044 0.1189,0.044 0.1497,0.1211 0.033,0.077 0.0528,0.1695 0.0594,0.2774 0.0089,0.11 0.0111,0.2157 0.0089,0.3148 -0.0045,0.099 -0.0067,0.1739 -0.0067,0.2245l0 0.3038 -0.317 2.1002c0,0.0022 -0.0022,0.011 -0.0066,0.0286 -0.0044,0.0198 -0.0066,0.0352 -0.0066,0.0506 0.0022,0.0683 0.0242,0.1343 0.0639,0.2004 0.0418,0.066 0.0924,0.1232 0.1541,0.1673 0.0594,0.044 0.1189,0.066 0.1783,0.0682 0.1167,-0.0022 0.2069,-0.0352 0.2664,-0.0969 0.0616,-0.0638 0.1056,-0.1453 0.1321,-0.2465 0.0264,-0.0991 0.0484,-0.2048 0.0638,-0.317 0.0352,-0.2224 0.0682,-0.4469 0.0991,-0.6715 0.0286,-0.2245 0.0528,-0.4579 0.0704,-0.7 0.0198,-0.24 0.0286,-0.4975 0.0286,-0.7683 0,-0.1629 -0.0044,-0.3346 -0.0154,-0.5174 -0.011,-0.1805 -0.0352,-0.3588 -0.0726,-0.5327 -0.0375,-0.1739 -0.0925,-0.3324 -0.1651,-0.4733 -0.0749,-0.1431 -0.174,-0.2554 -0.2972,-0.3412 -0.1255,-0.0837 -0.2796,-0.1277 -0.4667,-0.1299 -0.1828,0.0022 -0.3611,0.0572 -0.5416,0.1673 -0.1783,0.1079 -0.3522,0.2576 -0.5217,0.4447 -0.1695,0.1871 -0.3325,0.3984 -0.4866,0.6362 -0.1563,0.2356 -0.2993,0.4843 -0.4336,0.7441 -0.1343,0.2575 -0.2554,0.5129 -0.3633,0.7639 -0.1078,0.2531 -0.1981,0.4865 -0.2729,0.7044 -0.0749,0.2158 -0.1299,0.4007 -0.1674,0.5548 -0.0814,0.3434 -0.143,0.6935 -0.1893,1.0457 -0.0462,0.3522 -0.066,0.7044 -0.0616,1.0545zm6.3797 2.2983c0.0418,0.0748 0.0925,0.1431 0.1563,0.2025 0.0639,0.0594 0.1299,0.1057 0.2025,0.1409 0.0727,0.0352 0.1409,0.0528 0.2092,0.0528 0.1189,-0.0044 0.2025,-0.0484 0.2554,-0.1365 0.0506,-0.088 0.077,-0.1959 0.0748,-0.3258 -0.0022,-0.1409 -0.0132,-0.2818 -0.0352,-0.4205 -0.0198,-0.1408 -0.0419,-0.2817 -0.0617,-0.427 -0.022,-0.1431 -0.033,-0.2928 -0.0352,-0.4469 0.0022,-0.0639 0.0154,-0.1101 0.0418,-0.1343 0.0265,-0.0264 0.0595,-0.0462 0.0969,-0.0572 0.0396,-0.0111 0.0749,-0.0265 0.1123,-0.0463 0.2355,-0.11 0.4557,-0.2201 0.6626,-0.3324 0.2069,-0.1101 0.4139,-0.2201 0.6208,-0.3258 0.2091,-0.1079 0.4315,-0.2091 0.6715,-0.306 0.044,0.0022 0.088,0.0418 0.1254,0.1167 0.0397,0.0748 0.0771,0.1717 0.1079,0.2884 0.033,0.1166 0.0638,0.2399 0.0881,0.3676 0.0264,0.1299 0.0462,0.2488 0.0638,0.3588 0.0176,0.1101 0.0286,0.1938 0.0374,0.2554 0.011,0.0881 0.0176,0.1761 0.0176,0.2686 0.0022,0.0924 0.0088,0.1783 0.0221,0.2553 0.0132,0.0793 0.044,0.1431 0.0902,0.1938 0.0484,0.0484 0.1233,0.0726 0.2268,0.0748 0.1607,-0.0022 0.2707,-0.0704 0.328,-0.2025 0.0572,-0.1343 0.0858,-0.317 0.0814,-0.5504 0,-0.1915 -0.0176,-0.3874 -0.0484,-0.59 -0.033,-0.2047 -0.0771,-0.4072 -0.1321,-0.6076 -0.055,-0.2003 -0.1189,-0.3896 -0.1893,-0.5723l-1.2416 -3.3154c-0.0903,-0.2421 -0.2048,-0.4667 -0.339,-0.6714 -0.1343,-0.2048 -0.2796,-0.3831 -0.4359,-0.535 -0.1585,-0.1519 -0.3148,-0.2708 -0.4733,-0.3566 -0.1585,-0.0837 -0.306,-0.1255 -0.4425,-0.1277 -0.0375,0 -0.0859,0.0022 -0.1475,0.0066 -0.0617,0.0044 -0.1123,0.0066 -0.1563,0.0066 -0.1123,0.1211 -0.2026,0.2796 -0.273,0.4755 -0.0682,0.1938 -0.1211,0.4095 -0.1563,0.6428 -0.0352,0.2356 -0.0616,0.4734 -0.0771,0.7133 -0.0154,0.24 -0.0242,0.4689 -0.0308,0.6825 -0.0044,0.2135 -0.011,0.3962 -0.0176,0.5503 0,0.3016 -0.0044,0.5878 -0.011,0.8586 -0.0066,0.273 -0.0132,0.5415 -0.022,0.8079 -0.0088,0.2664 -0.0154,0.5416 -0.022,0.8277 -0.0066,0.2862 -0.011,0.5944 -0.011,0.9268 0,0.1475 0,0.3038 0.0022,0.4689 0.0022,0.1652 0.0088,0.3303 0.0176,0.4932 0.0088,0.1629 0.0242,0.3126 0.0462,0.4513zm0.7661 -2.7606c0,-0.1211 -0.0022,-0.2466 -0.0066,-0.3743 -0.0044,-0.1277 -0.0088,-0.2465 -0.0132,-0.3566 -0.0044,-0.1101 -0.0066,-0.1959 -0.0066,-0.2598 0,-0.2884 0.0044,-0.5856 0.011,-0.8938 0.0066,-0.306 0.0198,-0.601 0.0374,-0.8849 0.0154,-0.2818 0.0397,-0.535 0.0683,-0.7551 0.0286,-0.2202 0.066,-0.3875 0.11,-0.5042 0.0441,-0.1166 0.0947,-0.1607 0.1563,-0.132 0.0969,0.099 0.1938,0.2157 0.2862,0.35 0.0925,0.1343 0.1761,0.273 0.251,0.4183 0.077,0.1475 0.1409,0.2861 0.1893,0.4204l0.8322 2.1134c0.0242,0.0616 0.0374,0.1145 0.0396,0.1585 0.0022,0.0418 0.0022,0.0947 0,0.1585 -0.1255,0.0198 -0.2598,0.0484 -0.3985,0.0881 -0.1409,0.0374 -0.2796,0.0836 -0.4204,0.1365 -0.0969,0.0242 -0.2026,0.0572 -0.3171,0.1012 -0.1144,0.0419 -0.2223,0.0859 -0.328,0.1321 -0.1056,0.044 -0.1937,0.0837 -0.2663,0.1145 -0.0727,0.0308 -0.1167,0.0462 -0.1321,0.0484 -0.0154,0.0022 -0.0308,-0.0022 -0.0507,-0.011 -0.0198,-0.0066 -0.033,-0.0308 -0.0418,-0.0682z"/>
   </g>
  </g>
  <path class="fil6" d="M29.0746 37.9267l-0.0298 0.4168 1.2363 0.2917c0.0011,-0.3932 -0.0498,-0.3656 -0.3873,-0.5238 -0.2941,-0.1379 -0.4769,-0.1935 -0.8192,-0.1847z"/>
  <path class="fil6" d="M51.3711 61.8523l-0.6163 0.8125c1.4251,0.0116 3.0319,-0.8055 4.3022,-1.3495 0.6356,2.2177 2.0927,7.2678 0.5802,9.7318l-0.7316 1.0526 0.3352 0.2881c0.0308,1.0165 -1.2763,4.6375 -2.0151,5.3518l-0.6716 0.5071 -0.1592 -1.4057 -0.3583 0.2864c-0.0187,0.017 -0.0448,0.047 -0.0692,0.0684l0.0243 1.3323c-1.4955,0.0875 -1.2761,-0.2296 -0.9647,-2.7252l-0.733 2.3896c-1.3353,-1.2921 -0.4841,-3.0251 0.123,-5.1763l0.9839 0.0252c-0.044,-0.3297 -2.5977,-2.4392 -2.7075,-3.7277 -0.1809,0.0855 -0.3597,0.1203 -0.1753,0.994l0.2038 0.954c-3.8343,0.7089 -7.1558,0.4985 -10.4641,-1.524l-0.3711 -0.2648c-0.1725,-0.1702 -0.02,0.0259 -0.1701,-0.2058 -0.2641,-0.0526 -1.1711,-0.6287 -1.331,-0.8451l-0.3919 0.0791 3.9897 3.4861c-0.0935,0.3742 -0.2889,0.7594 -0.4078,1.2094 -0.5747,2.1763 -0.4067,1.613 -1.2904,3.8785 -0.355,-0.7583 -0.0336,-0.6653 -0.5497,-1.1624l-0.0267 1.5605 -0.8493 -0.0089c-0.1546,-0.2359 -0.2639,-0.4245 -0.3235,-0.7802l-0.218 -1.6205 -0.2726 1.9457 -0.3126 -4.8985 0.7314 -0.1813c-0.0016,-0.5461 -1.7206,-1.5993 -2.1226,-2.7846 -0.7535,-0.8055 -1.4413,-4.4154 -0.7965,-5.5355l0.2498 0.5209c0.4403,0.2307 0.7441,0.8305 1.1644,1.2271 0.2787,0.2631 1.1198,0.8406 1.3325,1.1421 0.8922,0.1799 1.4198,0.819 2.808,0.4835l1.9018 -1.529c0.8996,2.0542 3.1176,1.9748 4.8291,1.0039 0.3975,-0.2254 1.1376,-0.8739 1.3348,-0.9235 0.2596,-0.4489 3.9673,-3.7837 3.9696,-3.7843 0.2267,-0.4362 0.3361,-0.4502 0.783,-0.7685 -0.1078,0.3901 -0.2452,0.6556 -0.547,0.8707zm-16.9763 -0.2045c0.2122,-0.0028 1.2114,0.7432 1.4503,0.8785 0.575,0.3257 1.1813,0.5872 1.8272,0.694 0.6353,0.0502 0.3033,0.0249 1.0501,-0.2943l0.664 2.4753c-0.4544,-0.2211 -0.1166,-0.8111 -0.7621,-1.078l0.193 1.4546 -1.5546 -1.7639 0.2216 1.6399 -1.1386 -1.5836c-0.1405,0.153 -0.2307,0.4192 -0.2997,0.6056 -0.3203,-0.3495 -2.2081,-2.2839 -2.2558,-2.8882 -0.1649,-0.1177 -0.069,-0.014 -0.2026,-0.1669 -0.006,-0.0068 -0.1661,-0.2428 -0.1705,-0.25l-0.7609 -1.4389c0.2667,0.3009 0.4645,0.5008 0.7907,0.8038 0.1228,0.1142 0.2534,0.2341 0.4348,0.3774 0.4034,0.3188 0.2926,0.1857 0.5131,0.5347zm40.6581 -11.9197l-0.019 0.6203c-0.1832,2.7506 -1.474,7.3939 -2.507,9.4563l-6.658 5.2025c0.0834,-0.3956 0.3152,-0.6109 0.4975,-0.9184l0.5216 -0.8522c0.0124,-0.0145 0.0372,-0.0422 0.0581,-0.0609 0.0184,-0.388 0.7363,-2.0406 0.9186,-2.7129 0.1742,-0.6426 0.5985,-2.3583 0.5357,-3.0711 -0.6521,0.0302 -1.288,0.483 -1.9642,0.362 -0.2537,0.1824 -0.2088,0.1568 -0.6596,0.229l-2.3762 0.3012c0.133,-0.6873 1.4963,-2.5882 2.1108,-2.9634 0.1854,-0.4378 0.8048,-0.6978 0.9721,-1.112 -0.7583,-0.027 -1.666,0.1064 -2.3936,0.2466 -0.6334,0.122 -1.6322,0.5074 -2.0899,0.504 -0.1373,0.1554 0.2234,0.0997 -0.3162,0.1785 -0.1362,-0.2608 -0.4827,-1.8522 -0.5148,-2.1831 0.6915,-0.6483 3.24,-1.2299 4.4245,-1.422l4.3868 -0.623c0.2827,-0.1501 0.4711,-0.1075 0.8398,-0.1196l2.1255 -0.991c0.1782,-0.2131 1.3601,-1.0091 1.6686,-1.1417 0.2478,-0.4563 0.3415,-0.5207 0.7233,-0.7505l-0.2844 1.8214zm-37.7727 -18.1874c-0.0408,0.4065 -0.2152,0.6945 -0.596,0.8517l-0.6847 -1.3862 1.2807 0.5345zm43.2271 -10.0388c-0.2543,0.9593 -1.3782,2.9249 -1.9061,3.8281 -0.4605,1.0835 -2.2176,3.5939 -2.8513,4.3582 -2.3418,2.8245 -4.3271,4.8189 -7.863,6.4562 -1.7963,0.8318 -3.3509,1.2203 -5.4357,1.84 -0.5741,-0.0443 -1.9428,0.4832 -2.8399,0.3926 -0.3626,0.3117 -3.0572,0.4626 -3.5565,0.4764l1.0285 0.7757 -0.4109 4.3226c-0.4765,4.0646 -3.2121,6.3572 -7.7602,6.3741l-2.4752 0.4357 2.7923 0.5955 0.3131 0.0355 4.3804 -0.7325 -0.3426 -0.1626c0.967,-0.3508 1.5252,-0.9638 1.7375,-1.0502 0.4669,-0.1901 1.5213,0.5706 1.8649,0.8454l1.9711 3.8272c-0.6221,-0.5127 0.1877,-0.3255 -2.0727,-2.0729 -0.1793,0.3162 0.0777,0.5882 0.2292,1.0955 0.6448,2.1579 -0.3218,4.8965 -1.7133,6.1019l-1.9329 1.437c0.1345,-0.4399 0.2988,-0.5654 0.5015,-1.0243 0.1721,-0.3897 0.2532,-0.8099 0.4542,-1.1203 0.0409,-0.5782 0.1974,-0.9829 0.1083,-1.6945 -0.0686,-0.548 -0.3879,-1.0576 -0.4523,-1.4373 -0.4051,0.4717 0.3637,1.3092 -1.4887,3.1773 -0.7537,0.7602 -1.7594,1.3841 -2.5593,2.1448 -2.2538,2.1433 -2.4683,2.3735 -4.8792,4.3815l-0.2177 -0.8369c-0.1605,0.19 -0.224,0.3076 -0.2858,0.6028l-0.013 0.6208c-0.141,0.0649 -0.3063,0.1451 -0.4989,0.1992 -0.5646,0.1586 -0.453,0.0321 -0.7345,-0.0424l-0.0227 -1.0795 0.0355 -0.405 -0.2281 0.1361 -0.2837 1.4683c-1.7626,-0.1329 -0.2362,-2.7402 0.4049,-3.221 0.1154,-0.4563 2.1267,-2.7532 2.4971,-3.1862l2.386 -3.3541c-0.4979,0.1615 -1.3412,0.6918 -1.7195,0.9558 -0.4108,0.2867 -1.3024,1.1598 -1.4505,1.2049 -0.1682,0.3347 -2.7686,3.4337 -3.3635,4.183 -0.1881,-0.2463 -0.1668,-0.16 -0.3359,-0.4722 -0.3061,-0.1767 -0.9121,-1.1363 -1.1257,-1.6441 -0.2281,-0.5419 -0.3743,-1.0584 -0.4245,-1.6655l-0.1725 -0.6253 -0.0203 4.2047c-0.7062,-0.23 -1.5186,-1.1465 -1.8507,-1.7043l-0.5187 -2.974c-0.859,0.8757 -0.6419,1.6123 -0.8048,2.9644l0.3687 1.2386c-0.6463,-0.2124 -1.2681,-0.7352 -1.6367,-1.1322 -0.3321,-0.3124 -0.7914,-0.8164 -0.9755,-1.2892 -0.3905,-0.4013 -0.925,-1.8331 -1.0306,-2.6332l-0.1601 -0.7058 0.0646 3.4814c-0.5472,-0.6245 -1.0764,-1.2959 -1.2667,-2.382 -0.21,-1.1988 0.1219,-2.0565 0.4252,-3.1816 -0.2071,0.2632 -1.3549,1.1068 -1.4621,2.3136l0.1479 3.5375c-1.1171,-0.6549 -2.5143,-3.027 -2.3709,-4.9722 0.1733,-2.8125 0.7516,-3.4271 2.4876,-5.0278l-3.1357 1.0138c0.384,-0.9354 1.3586,-1.9189 2.1993,-2.3732 0.7371,-0.3984 2.8512,-1.2645 3.5985,-0.4767 0.5502,0.2698 1.1511,0.8379 1.9612,1.2085l2.6442 0.6075 -1.2066 -0.8489c-0.5009,-0.1845 -0.8528,-0.5386 -1.2975,-0.8192 -0.4047,-0.2553 -0.7996,-0.5082 -1.0501,-0.9112 -1.9877,-1.3958 -3.7827,-5.0967 -0.5234,-7.2191 0.166,-0.1082 0.5342,-0.2835 0.6392,-0.3834 0.1816,-0.173 0.6031,-2.2272 0.9433,-3.1362 1.3327,-3.5604 4.5325,-7.4291 9.5687,-6.624 0.1486,-0.0057 0.1119,0.0331 0.1119,-0.1148 -0.393,-0.1801 -0.881,-0.461 -1.3514,-0.6859 -0.4975,-0.2379 -0.9388,-0.3169 -1.3886,-0.4573 1.5755,-0.1317 3.117,0.2458 4.1641,0.9481 0.2664,0.0288 0.2265,-0.0891 0.2852,-0.3063 -0.2556,-0.2425 -0.4626,-0.6071 -0.6068,-0.9095 0.9663,0.2684 1.8247,0.8778 2.5386,1.3396 0.1811,0.0993 0.3246,0.1982 0.5021,0.3343 0.0494,0.038 0.1885,0.1465 0.2254,0.1833 0.1939,0.1933 0.1088,0.0626 0.1932,0.2715 0.2503,-0.0332 0.22,0.233 0.1624,-0.8723 0.5011,0.2609 0.6645,0.2761 0.9047,0.6976 0.2057,0.0984 0.1413,0.0599 0.3371,0.246l0.9669 1.0587 -0.0463 -0.9543c0.4791,0.2186 1.2264,1.2075 1.3512,1.6781l0.5385 0.5111 0.1201 -0.6934c1.3393,1.793 1.1394,1.3328 0.9833,2.7531l0.4264 -0.2689c0.1242,0.3282 0.062,0.2152 0.2089,0.3629l0.4649 -0.4466c0.2556,-0.4656 1.248,-1.6704 1.6429,-1.8789 0.1954,-0.5706 1.5252,-1.7116 2.0366,-2.217 2.0868,-2.0627 4.7105,-3.839 7.455,-5.2347 3.2179,-1.6365 9.3266,-3.7695 12.979,-4.0752l-0.2315 0.5097zm-56.779 0.0779c-0.3677,-2.1707 -0.6274,-3.8725 -0.626,-6.2646 0.0014,-2.3679 0.3635,-4.1279 0.6052,-6.2926 0.4266,0.154 0.4859,0.3668 0.781,0.7222 0.2236,0.1684 0.7863,0.853 1.0823,1.18 3.5523,3.9251 7.6878,9.0174 10.088,13.7444 0.5972,1.1759 2.2146,4.9162 2.4993,6.0904l-0.7349 0.7493 -5.5222 -10.8566c-1.1246,-1.8382 -5.7648,-7.3533 -7.5025,-8.7671l0.0773 7.8188c0.4362,2.6331 1.0152,4.3082 2.1462,6.2335 0.9886,1.6826 2.5885,3.3661 3.9465,4.4346 1.1366,0.8942 3.953,2.8326 5.2413,3.1439l-0.4971 -1.2026 1.0892 0.5053 -0.9022 1.599 -4.0116 -2.2014c-3.7127,-2.1944 -6.679,-5.9182 -7.7598,-10.6365zm8.004 23.3483c0.1972,0.3709 0.7221,1.1466 0.7746,1.4359l-1.4649 0.2621c-0.1627,0.1086 -0.7872,0.3352 -1.0811,0.4885 -2.5303,1.3198 -4.3964,4.2631 -3.8369,7.1387 0.7413,-0.8044 1.1285,-1.6447 1.7116,-2.0227 -0.2804,2.6708 -0.7867,4.0399 0.6229,6.2332 1.2243,1.9049 1.8936,2.1717 4.0313,3.4913l-0.3834 2.7608c-0.2129,2.5204 0.7923,5.1031 2.4855,6.7513l-0.4621 2.1954c-0.3046,1.9355 0.3159,4.9107 2.7995,5.0579 3.9805,0.236 3.3176,-4.859 4.1959,-6.3222 5.0609,0.6509 3.1362,0.6178 8.0358,0.1621l-0.6484 5.1301c0.1701,1.6622 4.5123,4.2851 6.7513,-0.8766 0.5476,-1.2625 1.1907,-2.9559 1.3088,-4.5168 3.9421,-0.5052 6.3209,-0.4065 9.624,-2.5571 5.1394,-3.3465 7.9644,-8.8442 9.3699,-14.8754 0.5533,-2.3746 1.6198,-8.4312 0.7471,-10.7005 -0.8016,1.1652 -1.5677,2.3957 -2.593,3.3384 -2.5395,2.335 -5.6133,2.2801 -9.0056,2.8718 -2.6343,0.4595 -3.3809,1.1009 -4.6179,1.3821l-3.6669 -3.3514c1.1772,-2.4805 1.4686,-3.2029 1.7055,-6.1426 0.0596,-0.7405 -0.0703,-1.8258 0.1459,-2.4311l2.4914 -0.3469c8.5075,-1.2046 13.7423,-5.1503 18.2164,-12.2871 0.9998,-1.5949 3.0634,-5.4249 3.4496,-7.5931l-8.1803 1.64c-2.6202,0.8192 -4.7207,1.5777 -7.0571,2.7708 -2.261,1.1546 -4.1899,2.4277 -5.9697,3.8383 -2.3264,1.8438 -4.2975,4.3713 -4.867,4.8253 -0.4577,-0.7167 -1.1135,-1.6831 -1.7458,-2.2267 -0.472,-0.4058 -0.2782,-0.1954 -0.6451,-0.1641l-2.5388 -2.0639c-0.5125,-0.2767 -2.6124,-1.2516 -3.2562,-1.0651l0.856 0.9258c-0.4705,-0.2183 -0.9466,-0.3802 -1.2152,-0.7202 -0.3247,0.0283 -1.6056,-0.5382 -2.125,-0.657 -0.8132,-0.186 -1.6714,-0.2911 -2.5371,-0.2388 0.4779,0.4948 0.9212,0.8061 1.1036,1.1734 -1.1079,0.0036 -3.0788,-0.1444 -4.0502,0.4765l1.1899 0.8 -2.2193 1.1059 -1.3566 -3.5364c-2.2895,-5.672 -5.9378,-10.0897 -9.7269,-14.5108 -0.7043,-0.8217 -3.9902,-4.6599 -4.77,-4.865l-1.3855 9.4304c0.0747,3.2551 0.6199,6.3446 1.7972,8.8937 2.1583,4.673 6.0337,7.4966 10.4126,9.6364 0.3581,0.1749 0.589,0.2334 0.8406,0.494l-0.8234 2.5731c-0.1978,0.8154 -0.1027,0.6254 -0.7188,1.0014 -1.8564,1.1329 -2.6702,3.3661 -1.7187,5.7869zm14.6092 -2.3001c-0.5121,-0.3161 -0.8063,0.3746 -1.8279,0.259 -0.6514,-0.0739 -1.0564,-0.5182 -1.4616,-0.8593 -0.7339,-0.6179 -0.94,-0.2317 -1.7086,0.002l-1.4456 -0.837c-1.0778,0.0796 -0.2585,1.3993 0.3062,1.6341 1.1466,0.4769 1.7185,-0.5422 2.4042,-0.0575 0.5757,0.4071 0.982,0.9186 1.9981,0.9503 0.688,0.0214 2.1063,-0.2955 1.7352,-1.0916zm-3.5798 -2.1298l0.9975 -0.2265c-0.0387,-0.5253 -0.7211,-0.6972 -1.2103,-0.6503 -0.937,0.0901 -0.0548,0.7116 0.2128,0.8768zm-2.996 -6.7112c1.1598,-0.56 0.7069,1.6685 -0.1266,1.9536 -1.0887,0.3722 -0.6829,-1.5626 0.1266,-1.9536zm-0.9519 -0.165c-0.5361,0.6338 -0.8867,0.9197 -1.3861,1.8266 -0.3438,0.6243 -0.8019,1.6141 -0.9022,2.3075 -0.0125,1.2331 -0.0801,2.6944 1.2405,2.7944 2.0935,0.1583 3.1156,-2.9835 3.3152,-4.6983 0.0725,-0.6233 0.0857,-1.3011 -0.1091,-1.8653 -0.2519,-0.7294 -0.5256,-0.7447 -1.3375,-0.8233l-0.8208 0.4584zm10.8854 4.0987c-0.467,-1.1065 0.6891,-2.4333 1.2386,-1.8529 0.3893,0.4112 -0.1576,2.146 -1.2386,1.8529zm0.9741 -2.4352c-1.4324,0.331 -2.4685,2.1025 -2.8158,3.6131 -0.4377,1.9042 -0.2569,4.5102 2.0499,4.1342 3.3047,-0.5385 4.2502,-8.5522 0.7659,-7.7473z"/>
 </g>
</svg>
