<?xml version="1.0" encoding="UTF-8"?>
<!DOCTYPE svg PUBLIC "-//W3C//DTD SVG 1.1//EN" "http://www.w3.org/Graphics/SVG/1.1/DTD/svg11.dtd">
<!-- Creator: CorelDRAW -->
<svg xmlns="http://www.w3.org/2000/svg" xml:space="preserve" width="215.9mm" height="279.4mm" style="shape-rendering:geometricPrecision; text-rendering:geometricPrecision; image-rendering:optimizeQuality; fill-rule:evenodd; clip-rule:evenodd"
viewBox="0 0 215.9 279.4"
 xmlns:xlink="http://www.w3.org/1999/xlink">
 <defs>
  <style type="text/css">
   <![CDATA[
    .str0 {stroke:#CECCCD;stroke-width:0.0762}
    .fil5 {fill:#29050A}
    .fil0 {fill:#937F82}
    .fil2 {fill:#CF7054}
    .fil6 {fill:#EEA67E}
    .fil3 {fill:#F9C2AD}
    .fil1 {fill:#FDE5CD}
    .fil4 {fill:#FFFAF6}
   ]]>
  </style>
 </defs>
 <g id="Capa_x0020_1">
  <metadata id="CorelCorpID_0Corel-Layer"/>
  <g id="_378294280">
   <g>
    <path id="_378301408" class="fil0" d="M99.2501 100.172l-0.0725 -0.4648c0.5912,-0.2914 0.0841,0.0605 0.5362,-0.2157l-0.6324 0.1188c-0.0085,0.2097 -0.0953,-0.0544 0.0042,0.2952 0.1199,0.4213 0.0632,0.1551 0.1645,0.2665z"/>
    <path id="_378301240" class="fil0" d="M99.528 115.885l-0.064 -0.2356 0.2757 0.036c-0.1193,-0.1058 0.1355,-0.129 -0.3908,-0.1584 0.0725,0.5007 0.0666,0.2401 0.1791,0.358z"/>
    <path id="_378300952" class="fil0" d="M59.2899 115.799c0.1203,-0.124 0.1506,0.2154 0.1147,-0.3084 -0.5017,0.0328 -0.1389,0.0027 -0.2789,0.1412l0.201 -0.0258 -0.0368 0.193z"/>
    <path id="_378300712" class="fil0" d="M77.3961 80.5354c-0.0036,0.0025 -0.2316,0.1138 -0.2322,0.1213l-0.139 -0.2639 0.1318 0.407 0.2394 -0.2644z"/>
   </g>
   <g>
    <path id="_378301048" class="fil1" d="M69.5415 108.712c0.3386,-1.2758 -0.9409,-2.017 -2.0962,-2.0792 -3.4662,-0.1865 -3.9392,3.1794 -0.6331,3.4769 1.1764,0.1059 2.4182,-0.2255 2.7293,-1.3977z"/>
    <path id="_378300424" class="fil1" d="M89.164 108.712c0.2232,1.0406 1.5419,1.4729 2.7773,1.3995 1.1934,-0.071 2.3724,-0.7148 2.1474,-2.0796 -0.1719,-1.042 -1.6158,-1.4645 -2.8293,-1.3869 -0.8664,0.0554 -1.0605,0.1964 -1.5043,0.5599 -0.3933,0.3222 -0.7314,0.8532 -0.5911,1.5071z"/>
    <path id="_378300376" class="fil1" d="M46.8174 73.6343c0.3084,0.2229 1.0889,0.5819 1.4068,0.7446 0.3102,0.1588 0.4291,0.1955 0.7,0.3717 0.3017,0.1962 0.3483,0.2246 0.7392,0.4145 0.6865,0.3334 1.8813,1.2272 2.7385,1.6601 0.3408,0.0783 0.5661,0.234 0.8804,0.3739 -0.2031,-0.3665 -0.1658,-0.036 -0.2973,-0.4912 -0.1504,-0.0876 -0.2394,-0.2086 -0.4511,-0.335 -0.1612,-0.0962 -0.3121,-0.1508 -0.5051,-0.2927 -0.4316,-0.0793 -0.4967,-0.2018 -0.7246,-0.4837 0.1096,-0.284 0.0069,-0.0924 0.1655,-0.3521 -0.2293,-0.2398 -2.1387,-1.2423 -2.5526,-1.4479 -0.6073,-0.3015 -2.3952,-1.3085 -2.8386,-1.2721 -0.1564,0.1995 -0.1986,0.2035 -0.2053,0.5385 0.2941,0.1649 0.7273,0.3359 0.9442,0.5714z"/>
    <path id="_378300400" class="fil1" d="M90.0153 87.9118l0.1904 -0.0264c-0.4719,0 -0.0113,0.0634 -0.1645,-0.1911 -0.3612,-0.4789 -3.731,-2.0598 -4.6996,-2.0812l2.2941 1.0966c0.8161,0.3465 1.6293,0.8509 2.3796,1.2021z"/>
    <path id="_378299704" class="fil1" d="M93.9684 93.6124c0.3342,0.2938 0.459,0.1914 0.8651,0.0857 0.0446,-0.6905 -0.3958,-1.0117 -1.061,-0.9826 -0.0993,0.4269 -0.1143,0.6243 0.1959,0.8969z"/>
    <path id="_378300352" class="fil1" d="M105.129 104.601l0.3173 -0.0914c-0.0932,0.2385 -0.0151,0.0832 -0.1407,0.3262 -0.1809,0.3499 -0.0337,-0.0583 -0.1759,0.3773 0.5866,-0.3136 0.9948,-0.8847 1.4115,-1.3867l-0.1959 -0.0408c-0.2347,0.0614 -0.9871,0.5113 -1.2163,0.8154z"/>
   </g>
   <g>
    <path id="_378299944" class="fil2" d="M102.74 123.466c-0.2055,0.1133 -0.244,0.9621 -0.3144,1.2283 -0.1124,0.4245 -0.2201,0.7148 -0.378,1.1005 -1.3077,3.1946 -3.6306,4.1709 -4.0872,4.703l0.3759 2.7112c0.0024,1.1897 -0.3077,1.8698 -0.3722,2.8644l5.9097 -2.163c1.7133,-1.0411 3.1101,-2.4242 4.1815,-3.6613 2.4811,-2.8645 4.0031,-6.3257 4.8434,-10.8767 -0.3208,0.2105 -0.236,0.297 -0.5126,0.5833 -1.035,1.0715 -1.2596,1.3596 -2.5268,2.3211 -1.8481,1.4024 -4.5497,2.4419 -7.2778,2.4388l0.1585 -1.2496z"/>
    <path id="_378300136" class="fil2" d="M112.662 86.5973c-0.0683,0.0705 -0.0796,0.0657 -0.1558,0.1766 -0.0723,0.1053 0.0024,0.0004 -0.0703,0.1264 -0.0686,0.1191 -0.0608,0.1234 -0.1323,0.2414 -0.1057,0.1745 -0.1897,0.2849 -0.3204,0.4646 -0.8198,1.1274 -1.026,1.4824 -2.0608,2.5841 -1.0165,1.0823 -2.1095,1.9677 -3.4536,2.84 -2.2824,1.4811 -6.7225,3.4201 -9.3963,3.1934 0.3234,0.3495 0.1003,-0.0244 0.2569,0.4456 0.1465,0.4395 0.3399,0.8154 0.3885,1.1975l-0.2579 0.2189c2.5926,-0.0216 4.3004,-0.2646 6.4876,-1.0887 3.4975,-1.3178 6.8906,-3.8132 9.0258,-6.6627 1.1409,-1.5225 2.2327,-3.0463 3.0426,-4.8784l-0.2063 -0.0401c-0.6331,0.4965 -1.3605,0.9425 -2.2031,1.0951 -0.7241,0.1312 -0.5245,-0.0587 -0.8226,0.2582l-0.122 -0.1719z"/>
    <path id="_378300256" class="fil2" d="M88.3231 140.278c0.0777,0.0538 0.0713,0.0723 0.2156,0.1274 0.0096,0.0037 0.2054,0.0476 0.2297,0.0516 0.1609,0.0265 0.3893,0.039 0.5557,0.0487 0.3845,0.0225 0.7671,0.0245 1.149,-0.0277 0.7093,-0.0969 1.1826,-0.2008 1.8031,-0.452 3.3397,-1.3516 5.2098,-4.8826 4.2922,-8.7375 -3.3655,0.9136 -2.0882,0.3896 -3.6289,0.0221l-1.8167 1.7053c-0.2569,0.4301 -0.6047,3.4658 -1.8753,5.7322 -0.2185,0.3896 -0.7853,1.1439 -0.9244,1.5299z"/>
    <path id="_378299776" class="fil2" d="M61.4384 98.0634c-0.2219,-0.1746 0.3179,-0.0904 -0.3674,-0.196l0.416 -1.3197 0.2438 -0.3611c-1.1549,0.2089 -4.1472,-0.8099 -5.1467,-1.2166 -3.9896,-1.6233 -6.4732,-3.7127 -8.9151,-7.0559l-1.214 -1.915 0.0431 0.3953c-0.9881,-0.1851 -2.1234,-0.2519 -2.8917,-0.9888l-0.2185 -0.2233c-0.0118,-0.0432 -0.0492,-0.0399 -0.074,-0.0597 0.1179,0.3324 0.4571,1.0101 0.622,1.288 0.8564,1.4431 1.0788,1.9824 2.269,3.5449 3.2034,4.2054 7.8844,7.2954 13.2689,8.0627 0.7951,0.1133 1.2353,0.0089 1.9646,0.0452z"/>
    <path id="_378299512" class="fil2" d="M62.384 131.35c-0.3979,2.9771 0.5922,5.1678 2.0834,6.8645 1.3801,1.5704 4.2844,2.7334 6.2335,2.2448 0.3508,-0.0879 0.2386,-0.1043 0.3301,-0.1821 -1.0488,-1.8273 -1.6487,-2.7323 -2.3767,-4.7926 -0.5234,-1.4813 -0.4339,-2.2661 -0.9698,-2.6092 -0.8932,-0.5719 -1.4968,-1.3458 -1.8883,-1.6025 -2.8556,0.8245 -1.3974,0.3901 -3.4122,0.0771z"/>
    <path id="_378298864" class="fil2" d="M71.0016 117.905c0.2111,-0.0103 3.0894,0.6951 3.9623,0.8388 7.1282,1.1734 12.1536,-0.9393 12.8244,-0.8123l-0.338 -0.4089c-0.0142,-0.949 0.354,-0.9076 1.1132,-1.1581 0.5512,-0.1818 1.1282,-0.3454 1.6649,-0.5464 2.9214,-1.0938 5.8716,-3.3459 7.099,-6.3048 -0.4481,0.3281 -1.748,2.8069 -5.0493,4.7621 -1.1478,0.6799 -2.2929,1.0527 -3.3394,1.5135 -2.5381,1.1177 -6.8424,1.7171 -9.5866,1.7174 -4.3944,0.0006 -9.1805,-1.1335 -12.9256,-3.3312 -0.9339,-0.548 -1.9579,-1.3454 -2.7542,-2.0756 -0.3382,-0.3102 -0.4491,-0.5525 -0.7858,-0.8705 -1.057,-0.9984 -1.0944,-1.5477 -1.4313,-1.8394 0.5454,2.0433 2.5338,3.7468 4.1746,4.9062 1.7215,1.2164 4.5572,2.0016 4.6336,2.0548l1.0493 1.294c-0.005,0.004 -0.1483,0.1114 -0.1487,0.1117l-0.1624 0.1487z"/>
    <path id="_378299056" class="fil2" d="M80.9797 140.612c0.0303,-0.3078 0.2835,-0.0998 1.3661,-0.2808 0.5367,-0.0898 0.7551,-0.2717 1.1527,-0.4592l2.8661 0.0968 0.0316 0.2371c0.881,-0.5396 2.8809,-4.6197 2.9417,-6.0317 -2.6761,1.1287 -2.0523,0.444 -2.7237,0.6322 -0.3891,0.1091 -2.111,1.464 -4.0887,2.0519 -1.2078,0.359 -1.5545,0.1598 -1.707,0.7466 -0.1983,0.7631 -0.3063,2.2581 0.0508,2.8952 0.0084,0.015 0.0452,0.0727 0.052,0.0573 0.007,-0.0158 0.0397,0.0356 0.0584,0.0546z"/>
    <path id="_378299584" class="fil2" d="M73.0578 140.277l-0.1622 -0.3418c0.9814,-0.0916 1.6672,-0.3884 2.7396,-0.0403 1.6204,0.526 0.3571,0.3191 2.5335,0.6165l-0.1717 0.347c0.9199,-0.5709 0.5272,-3.1093 0.2921,-3.5826 -1.2777,-0.2828 -2.133,-0.4149 -3.3288,-0.9357 -1.0448,-0.4551 -1.8307,-1.0084 -2.6767,-1.5612l-1.293 -0.074c-0.3889,-0.1187 -0.6294,-0.2685 -1.0246,-0.3483l3.0918 5.9204z"/>
    <path id="_378298936" class="fil2" d="M76.666 91.4763c0.5146,0.4609 1.4246,0.4533 2.2038,0.3849 0.3739,-0.0329 0.6351,-0.0989 0.9622,-0.2875 0.3466,-0.1998 0.4484,-0.3479 0.7253,-0.4847 -1.5442,-0.8056 -0.3628,-0.339 -2.3672,-0.339 -1.1316,0 -1.1095,-0.129 -1.5393,0.2337l0.0152 0.4926z"/>
    <path id="_378299368" class="fil2" d="M72.3679 93.0251c0.8164,-0.4309 2.5259,-0.0325 2.5745,-1.0647 -0.3107,-0.294 -0.3617,-0.2696 -0.9127,-0.2832 -0.3897,-0.0096 -0.7768,-0.0062 -1.1652,-0.0121 -0.7672,-0.0118 -1.3816,-0.1961 -2.0828,-0.2792 0.65,0.5137 2.2923,0.204 1.5862,1.6392z"/>
   </g>
   <g>
    <path id="_378298240" class="fil3" d="M57.9849 119.435l-0.1759 0.3824c-0.0389,0.1357 -0.0744,0.2671 -0.1137,0.4328 -0.2344,0.9864 -0.2863,2.18 -0.1389,3.1813 0.1921,1.3042 0.7083,2.3912 1.3645,3.2934 0.6891,0.9473 1.4279,1.5866 2.3236,2.2264l3.2824 1.1553c0.0503,-0.5956 -0.6081,-1.7438 -0.6656,-2.8024l0.5993 -2.8754c0.2349,0.3053 0.591,3.886 2.0087,5.2961l4.2817 3.2217 -0.6122 -1.5308c0.3708,0.0933 1.3172,1.0985 1.906,1.5476 0.6454,0.4923 1.2873,0.9009 2.0636,1.3248 3.8075,2.0794 6.685,2.2301 10.547,0.0579 1.9343,-1.0879 2.359,-1.6112 3.8898,-2.961l-0.6057 1.658c1.7351,-0.361 4.9534,-3.2202 5.6174,-5.4875l0.6632 -3.0005c0.141,0.0904 0.1708,-0.0773 0.3862,0.5707 0.2641,0.7947 0.3928,1.4236 0.3429,2.277 -0.0232,0.3964 -0.3962,2.0198 -0.5182,2.7413 0.8147,0.433 2.7174,-0.9149 3.2342,-1.2811 0.8571,-0.6073 1.7457,-1.4864 2.3186,-2.3299 1.2093,-1.7804 1.4773,-3.4367 1.1847,-5.6182 -0.0258,-0.192 -0.3207,-1.8547 -0.4374,-2.051 -0.0205,0.615 0.1074,0.7526 -0.1072,1.3321 -0.4888,1.32 -0.9039,2.1402 -1.8537,3.1861 -0.637,0.7014 -1.8132,1.9265 -2.6669,2.1443l-2.1302 -2.8201c-1.1736,1.5254 -0.4633,0.7314 -1.1124,1.8425 -0.5706,0.9768 -1.838,2.2589 -2.808,2.8938 -2.7178,1.7791 -4.9724,2.6035 -8.2067,3.1178 -0.8274,0.1317 -1.7208,0.2388 -2.5907,0.2253 -3.4251,-0.053 -8.3065,-1.6443 -10.729,-3.5062 -1.1592,-0.891 -1.9115,-1.6502 -2.7042,-2.9067 -0.6603,-1.0465 -0.0516,-0.4834 -1.0261,-1.7671 -1.9385,1.5106 -1.3586,0.8112 -2.0735,2.791 -1.6529,-0.7922 -1.7401,-0.9283 -3.0256,-2.3539 -0.6514,-0.7225 -1.1368,-1.6714 -1.5058,-2.5484 -0.1071,-0.2545 -0.1329,-0.7214 -0.2062,-1.0594z"/>
    <path id="_378298696" class="fil3" d="M63.9564 139.848c-0.2613,0.3169 -0.3203,0.2161 -0.8468,0.2799 -1.2329,0.1495 -4.7358,0.5312 -5.3494,1.5056l0.2181 0.5572c0.4733,0.7186 3.4753,0.8304 4.2406,1.0832 0.5095,0.1684 3.3911,0.3412 4.254,0.4092 1.292,0.1017 3.4652,0.1135 4.3071,0.2425 2.5226,0.3866 11.9514,0.2431 14.963,0.2198 1.9716,-0.0152 3.8662,-0.2979 5.7087,-0.3518 2.8798,-0.0842 7.8718,-0.3931 10.4893,-1.676l-0.9813 -1.1634 -2.7244 -0.6325c-0.8332,-0.086 -1.8779,-0.0947 -2.713,-0.3346l-0.0004 -0.186c-0.5225,0.2988 -1.026,0.7588 -1.663,1.1328 -3.4145,2.0044 -6.3032,0.6393 -6.7606,0.7789l-1.7233 1.0984c-1.4262,0.737 -3.7442,0.613 -5.1633,-0.6814 -0.2418,-0.2205 -0.4197,-0.4987 -0.666,-0.6733l-0.6326 0.7043c-1.1593,1.2168 -3.5599,1.4028 -5.1379,0.5945 -0.7761,-0.3976 -0.9996,-0.7019 -1.5884,-1.0714 -0.7476,-0.1566 -3.782,1.6602 -8.0307,-1.708 -0.1431,-0.1134 -0.0162,-0.0228 -0.1997,-0.1279z"/>
    <path id="_378298624" class="fil3" d="M97.2946 112.557c-0.0237,0.0165 -0.0607,0.0106 -0.0714,0.049l-0.3935 0.4143c-0.1644,0.1942 -0.2584,0.3461 -0.4327,0.5369 -0.6688,0.7326 -2.2228,1.8589 -3.1288,2.3841 -1.145,0.6637 -3.941,2.0095 -5.4799,1.9903 -0.6708,-0.127 -5.6962,1.9857 -12.8244,0.8123 -0.8729,-0.1437 -3.7512,-0.8491 -3.9623,-0.8388 -1.7173,0.254 -6.9415,-2.4465 -8.6746,-4.4659 -0.1663,-0.1938 -0.2604,-0.2924 -0.4487,-0.5179 -0.2646,-0.317 -0.1206,-0.293 -0.5357,-0.5512 0.2316,0.58 -0.1539,0.9371 -0.0986,1.2842 0.0211,0.133 1.1567,1.2707 1.2048,1.3055 0.6207,0.45 1.2521,0.9686 1.8758,1.3199 0.18,0.1015 0.3593,0.1313 0.5527,0.2361 3.328,1.8029 4.7299,2.0568 8.4192,2.9198 3.5747,0.8362 7.999,1.0243 11.5881,0.1557 0.816,-0.1975 1.8315,-0.3697 2.6682,-0.5621 2.7952,-0.6429 6.16,-2.0077 8.3458,-3.7482 0.2321,-0.1847 0.148,-0.1467 0.4302,-0.3335 0.5224,-0.3459 1.495,-1.36 1.2669,-2.0211l-0.3011 -0.3694z"/>
    <path id="_378298672" class="fil3" d="M107.811 75.2564c0.1011,0.4812 -0.0661,0.5288 -1.0354,1.1422 -0.7022,0.4443 -0.4866,0.2277 -0.9283,0.9586 0.0389,0.019 -0.0354,0.2538 0.4849,-0.0432 0.1565,-0.0894 0.3151,-0.195 0.4854,-0.2986l1.1679 -0.7408c0.2676,-0.1331 0.2854,-0.0298 0.8064,-0.3794l3.9282 -2.2188c0.6641,-0.2772 0.2252,0.0092 1.07,-0.5207l-0.1046 -0.6292c-0.3576,-0.0204 -0.4156,0.0027 -0.7066,0.1185 -0.4355,0.0294 -0.9416,0.3646 -1.359,0.5542 -0.4858,0.2206 -0.7999,0.4201 -1.2796,0.6579 -0.5461,0.2708 -2.1031,1.0395 -2.5293,1.3993z"/>
    <path id="_378298288" class="fil3" d="M113.923 72.1451c0.1998,1.1257 1.3884,0.3526 2.546,-0.1931l2.7043 -1.1752 -0.0873 -0.2151c-0.1831,-0.5478 -4.7409,1.4026 -5.163,1.5834z"/>
    <path id="_378298552" class="fil3" d="M40.2972 70.6836l-0.0454 0.1877c0.3559,-0.1616 2.1244,0.7471 2.585,0.9851l1.3268 0.5943 1.5333 0.0339 -0.0355 0.5944c0.3277,0.2565 0.7117,0.4465 1.156,0.5553 -0.2169,-0.2355 -0.6501,-0.4065 -0.9442,-0.5714 0.0067,-0.335 0.0489,-0.339 0.2053,-0.5385l-0.1182 -0.1209c-1.2128,-0.8324 -4.2685,-1.5527 -5.5942,-1.8912 -0.0748,0.0712 -0.0368,0.0914 -0.0689,0.1713z"/>
    <path id="_378297832" class="fil3" d="M77.858 82.605c-0.1541,0.321 -0.1289,0.2358 -0.1515,0.606 1.6927,-1.2024 0.8087,-0.5463 1.2984,-1.2761 0.2284,-0.3402 0.143,-0.0674 0.3636,-0.4691 -0.1741,-0.1946 -0.1423,-0.2032 -0.5006,-0.2475 -0.235,0.1553 -0.9506,0.8386 -1.0099,1.3867z"/>
    <path id="_378297856" class="fil3" d="M64.4406 93.9235c0.629,-0.0634 1.1304,-0.5461 0.8614,-1.2656 -0.6428,-0.0507 -0.9468,0.1904 -1.1514,0.7243 0.079,0.438 -0.0016,0.2751 0.29,0.5413z"/>
    <path id="_378297376" class="fil3" d="M89.6212 90.2198c-0.0928,0.795 1.3319,1.2211 1.1315,0.1858 -0.0633,-0.3271 -0.4075,-0.6767 -1.0226,-0.4692 -0.0204,0.0427 -0.0731,-0.0228 -0.1089,0.2834z"/>
    <path id="_378297448" class="fil3" d="M92.4922 92.2357c-0.1397,0.6333 0.1029,1.0151 0.7063,0.9868l0.2841 -0.475c-0.2758,-0.4743 -0.3265,-0.571 -0.9904,-0.5118z"/>
    <path id="_378297520" class="fil3" d="M65.9549 93.149c0.0706,0.0395 -0.1456,0.1284 0.3212,0.0952 0.6798,-0.0484 0.506,-0.8102 0.4878,-0.9928 -0.5206,0.1535 -1.1617,0.1883 -0.809,0.8976z"/>
    <path id="_378297952" class="fil3" d="M52.0288 76.0802c0.1183,-0.2735 -0.1581,-0.205 0.1722,-0.2296 -0.1753,-0.1173 -0.1068,-0.0954 -0.2113,-0.2546 -0.11,-0.1579 0.1708,0.0616 -0.1543,-0.174 -0.169,-0.1225 -0.1411,-0.0943 -0.3657,-0.1776 -0.1586,0.2597 -0.0559,0.0681 -0.1655,0.3521 0.2279,0.2819 0.293,0.4044 0.7246,0.4837z"/>
    <path id="_378296920" class="fil3" d="M52.4019 76.8252l0.2386 0.2119c0.3141,0.2198 0.5943,0.3161 0.9506,0.4714 -0.0183,-0.5645 -0.155,-0.6123 -0.6061,-0.8006 0.1315,0.4552 0.0942,0.1247 0.2973,0.4912 -0.3143,-0.1399 -0.5396,-0.2956 -0.8804,-0.3739z"/>
    <path id="_378296728" class="fil3" d="M90.0153 87.9118c0.0997,0.0993 0.0264,0.0616 0.1934,0.1785l0.1302 0.0719c0.1074,0.0586 0.1472,0.0659 0.2527,0.1181 0.219,0.1084 0.3109,0.1624 0.4767,0.2964l0.1283 -0.087c-0.1457,-0.2793 -0.761,-0.662 -1.1554,-0.7954 0.1532,0.2545 -0.3074,0.1911 0.1645,0.1911l-0.1904 0.0264z"/>
   </g>
   <g>
    <path id="_378296800" class="fil4" d="M59.1257 115.632c0.14,-0.1385 -0.2228,-0.1084 0.2789,-0.1412 0.0359,0.5238 0.0056,0.1844 -0.1147,0.3084 -0.4326,0.7412 -1.5278,2.4332 -1.305,3.6362 0.0733,0.338 0.0991,0.8049 0.2062,1.0594 0.369,0.877 0.8544,1.8259 1.5058,2.5484 1.2855,1.4256 1.3727,1.5617 3.0256,2.3539 0.7149,-1.9798 0.135,-1.2804 2.0735,-2.791 0.9745,1.2837 0.3658,0.7206 1.0261,1.7671 0.7927,1.2565 1.545,2.0157 2.7042,2.9067 2.4225,1.8619 7.3039,3.4532 10.729,3.5062 0.8699,0.0135 1.7633,-0.0936 2.5907,-0.2253 3.2343,-0.5143 5.4889,-1.3387 8.2067,-3.1178 0.97,-0.6349 2.2374,-1.917 2.808,-2.8938 0.6491,-1.1111 -0.0612,-0.3171 1.1124,-1.8425l2.1302 2.8201c0.8537,-0.2178 2.0299,-1.4429 2.6669,-2.1443 0.9498,-1.0459 1.3649,-1.8661 1.8537,-3.1861 0.2146,-0.5795 0.0867,-0.7171 0.1072,-1.3321 0.0712,-1.0082 -0.8774,-2.2893 -1.2031,-2.9794 -0.1125,-0.1179 -0.1066,0.1427 -0.1791,-0.358 0.5263,0.0294 0.2715,0.0526 0.3908,0.1584l1.8483 1.4249c0.0286,-1.0082 -0.8855,-2.5139 -1.3375,-3.1532l-2.5242 -2.1587c-0.2019,0.4048 -0.3456,0.464 -0.4317,0.7593l0.3011 0.3694c0.2281,0.6611 -0.7445,1.6752 -1.2669,2.0211 -0.2822,0.1868 -0.1981,0.1488 -0.4302,0.3335 -2.1858,1.7405 -5.5506,3.1053 -8.3458,3.7482 -0.8367,0.1924 -1.8522,0.3646 -2.6682,0.5621 -3.5891,0.8686 -8.0134,0.6805 -11.5881,-0.1557 -3.6893,-0.863 -5.0912,-1.1169 -8.4192,-2.9198 -0.1934,-0.1048 -0.3727,-0.1346 -0.5527,-0.2361 -0.6237,-0.3513 -1.2551,-0.8699 -1.8758,-1.3199 -0.0481,-0.0348 -1.1837,-1.1725 -1.2048,-1.3055 -0.0553,-0.3471 0.3302,-0.7042 0.0986,-1.2842l-0.3878 -0.6443c-0.6271,0.1861 -1.9917,1.6243 -2.3897,2.1489l-1.4167 3.1973c0.6243,-0.2409 1.1597,-1.1803 1.9773,-1.4406z"/>
    <path id="_378297280" class="fil4" d="M111.205 100.609c-0.1395,0.324 -0.1165,0.2735 -0.524,0.607 -1.3562,1.11 -2.938,2.6522 -4.0962,3.8414 -0.9569,0.9825 -3.4247,2.9832 -2.3526,3.8533 0.2688,0.2182 0.5034,0.2322 0.9607,0.1584l0.8713 0.1308c0.1124,0.9764 -0.8081,1.4368 -1.5604,2.6808 -0.2885,0.4772 -0.512,1.11 -0.269,1.6598l1.4469 0.699c0.2104,0.9364 0.546,2.1539 1.8352,1.5162 1.0387,-0.5137 -0.1043,-0.361 2.1275,-1.2226 0.3433,1.7147 -0.7102,4.6688 0.6909,4.6986 0.5823,0.0123 0.8607,-0.4127 1.0643,-0.8399 0.4006,-0.8402 0.8417,-1.7213 1.1048,-2.6462l0.7257 -2.8747c0.0914,-0.1981 0.0411,-0.0853 0.1544,-0.2114 -0.0116,-0.8075 0.2363,-2.5425 0.3279,-3.4705 0.1166,-1.1811 0.2493,-2.3141 0.3631,-3.4802l0.6442 -5.1804 -0.1427 -1.6589c-0.9084,-0.1518 -2.5286,1.2471 -3.372,1.7395z"/>
    <path id="_378296632" class="fil4" d="M64.8043 86.6377c-0.3969,-0.993 -4.4882,-5.1628 -5.3689,-5.7118 -0.2987,0.0162 -0.4208,-0.0087 -0.4344,0.3893 -0.0171,0.502 2.0561,2.4978 2.3897,2.8507 0.4294,0.4543 1.0382,1.0771 1.5049,1.4914 0.8587,0.7622 1.1288,1.1873 1.8355,1.1747l0.0732 -0.1943z"/>
    <path id="_378297208" class="fil4" d="M94.2728 86.7026l0.0525 0.2028 1.869 -1.145 1.8656 -1.8206c0.5785,-0.6297 1.2264,-1.2444 1.7474,-1.9282 0.3462,-0.4544 0.4593,-0.3445 0.3064,-1.0457l-0.3806 0.0344c-1.142,0.8794 -1.9372,1.7156 -2.9006,2.6836 -0.5453,0.5481 -0.8408,0.8877 -1.3598,1.4483 -0.2259,0.244 -1.0628,1.2758 -1.1999,1.5704z"/>
    <path id="_378296512" class="fil4" d="M72.3805 84.7152c0.3782,-0.3658 0.5113,-0.7658 0.7429,-1.2319 0.2307,-0.4646 0.4892,-0.6582 0.2715,-1.2596l-0.5158 -0.0256c-0.5245,0.5334 -1.2199,1.2761 -1.1496,2.117 0.0359,0.4293 0.2903,0.4535 0.651,0.4001z"/>
    <path id="_378296416" class="fil4" d="M103.06 105.831c-0.0687,1.0078 0.6854,0.5072 1.0376,0.2228 0.3563,-0.2878 0.6685,-0.5504 1.0325,-0.8406 0.1422,-0.4356 -0.005,-0.0274 0.1759,-0.3773 0.1256,-0.243 0.0475,-0.0877 0.1407,-0.3262l-0.3173 0.0914c-0.2704,0.0511 -0.2195,0.0561 -0.5093,0.2358 -0.2397,0.1486 -0.3587,0.2167 -0.5377,0.3291 -0.337,0.2115 -0.6287,0.4306 -1.0224,0.665z"/>
   </g>
   <g>
    <path id="_378296248" class="fil5" d="M86.3962 140.206c-0.2825,0.5992 -1.5617,1.3434 -2.5158,1.4947 -1.2162,0.1927 -2.6004,-0.243 -2.9007,-1.0886 -0.0187,-0.019 -0.0514,-0.0704 -0.0584,-0.0546 -0.0068,0.0154 -0.0436,-0.0423 -0.052,-0.0573 -0.3571,-0.6371 -0.2491,-2.1321 -0.0508,-2.8952 0.1525,-0.5868 0.4992,-0.3876 1.707,-0.7466 1.9777,-0.5879 3.6996,-1.9428 4.0887,-2.0519 0.6714,-0.1882 0.0476,0.4965 2.7237,-0.6322 -0.0608,1.412 -2.0607,5.4921 -2.9417,6.0317zm1.9269 0.0721c0.1391,-0.386 0.7059,-1.1403 0.9244,-1.5299 1.2706,-2.2664 1.6184,-5.3021 1.8753,-5.7322l1.8167 -1.7053c1.5407,0.3675 0.2634,0.8915 3.6289,-0.0221 0.9176,3.8549 -0.9525,7.3859 -4.2922,8.7375 -0.6205,0.2512 -1.0938,0.3551 -1.8031,0.452 -0.3819,0.0522 -0.7645,0.0502 -1.149,0.0277 -0.1664,-0.0097 -0.3948,-0.0222 -0.5557,-0.0487 -0.0243,-0.004 -0.2201,-0.0479 -0.2297,-0.0516 -0.1443,-0.0551 -0.1379,-0.0736 -0.2156,-0.1274zm-10.3261 0.5809c-0.1639,0.6878 -1.7718,1.0017 -2.655,0.8376 -0.7791,-0.1448 -2.1866,-0.9275 -2.2842,-1.419l-3.0918 -5.9204c0.3952,0.0798 0.6357,0.2296 1.0246,0.3483l1.293 0.074c0.846,0.5528 1.6319,1.1061 2.6767,1.5612 1.1958,0.5208 2.0511,0.6529 3.3288,0.9357 0.2351,0.4733 0.6278,3.0117 -0.2921,3.5826zm-15.613 -9.5081c2.0148,0.313 0.5566,0.7474 3.4122,-0.0771 0.3915,0.2567 0.9951,1.0306 1.8883,1.6025 0.5359,0.3431 0.4464,1.1279 0.9698,2.6092 0.728,2.0603 1.3279,2.9653 2.3767,4.7926 -0.0915,0.0778 0.0207,0.0942 -0.3301,0.1821 -1.9491,0.4886 -4.8534,-0.6744 -6.2335,-2.2448 -1.4912,-1.6967 -2.4813,-3.8874 -2.0834,-6.8645zm51.0006 -18.691c0.0219,1.9694 -0.1536,4.8706 -0.4857,6.7132 -0.8403,4.551 -2.3623,8.0122 -4.8434,10.8767 -1.0714,1.2371 -2.4682,2.6202 -4.1815,3.6613l-5.9097 2.163c0.0645,-0.9946 0.3746,-1.6747 0.3722,-2.8644l-0.3759 -2.7112c0.4566,-0.5321 2.7795,-1.5084 4.0872,-4.703 0.1579,-0.3857 0.2656,-0.676 0.378,-1.1005 0.0704,-0.2662 0.1089,-1.115 0.3144,-1.2283 -0.053,-0.7474 0.0651,-1.5369 -0.0494,-2.3731 -0.1028,-0.7512 -0.3436,-1.3696 -0.4408,-2.0763l0.9441 -2.2004c-0.2476,-1.0118 -0.6351,-1.8027 -1.0785,-2.6017 -1.3827,-2.4916 -2.9569,-3.2168 -3.4973,-3.8569 0.8492,-2.4834 0.4562,-2.1859 1.6106,-2.8464l2.8307 -1.6803c0.3937,-0.2344 0.6854,-0.4535 1.0224,-0.665 0.179,-0.1124 0.298,-0.1805 0.5377,-0.3291 0.2898,-0.1797 0.2389,-0.1847 0.5093,-0.2358 0.2292,-0.3041 0.9816,-0.754 1.2163,-0.8154l3.6156 -2.4214c0.3847,-0.2368 0.8882,-0.5945 1.2442,-0.7555 0.8434,-0.4924 2.4636,-1.8913 3.372,-1.7395l0.1427 1.6589 -0.6442 5.1804c-0.1138,1.1661 -0.2465,2.2991 -0.3631,3.4802 -0.0916,0.928 -0.3395,2.663 -0.3279,3.4705zm2.631 -27.2034c-0.8099,1.8321 -1.9017,3.3559 -3.0426,4.8784 -2.1352,2.8495 -5.5283,5.3449 -9.0258,6.6627 -2.1872,0.8241 -3.895,1.0671 -6.4876,1.0887l-0.2026 0.153c0.4364,2.0172 0.8326,3.5178 0.9157,5.6315 0.0894,2.2732 -0.2007,3.7292 -0.8453,5.6434 -1.2274,2.9589 -4.1776,5.211 -7.099,6.3048 -0.5367,0.201 -1.1137,0.3646 -1.6649,0.5464 -0.7592,0.2505 -1.1274,0.2091 -1.1132,1.1581l0.338 0.4089c1.5389,0.0192 4.3349,-1.3266 5.4799,-1.9903 0.906,-0.5252 2.46,-1.6515 3.1288,-2.3841 0.1743,-0.1908 0.2683,-0.3427 0.4327,-0.5369l0.3935 -0.4143c0.0107,-0.0384 0.0477,-0.0325 0.0714,-0.049 0.0861,-0.2953 0.2298,-0.3545 0.4317,-0.7593l2.5242 2.1587c0.452,0.6393 1.3661,2.145 1.3375,3.1532l-1.8483 -1.4249 -0.2757 -0.036 0.064 0.2356c0.3257,0.6901 1.2743,1.9712 1.2031,2.9794 0.1167,0.1963 0.4116,1.859 0.4374,2.051 0.2926,2.1815 0.0246,3.8378 -1.1847,5.6182 -0.5729,0.8435 -1.4615,1.7226 -2.3186,2.3299 -0.5168,0.3662 -2.4195,1.7141 -3.2342,1.2811 0.122,-0.7215 0.495,-2.3449 0.5182,-2.7413 0.0499,-0.8534 -0.0788,-1.4823 -0.3429,-2.277 -0.2154,-0.648 -0.2452,-0.4803 -0.3862,-0.5707l-0.6632 3.0005c-0.664,2.2673 -3.8823,5.1265 -5.6174,5.4875l0.6057 -1.658c-1.5308,1.3498 -1.9555,1.8731 -3.8898,2.961 -3.862,2.1722 -6.7395,2.0215 -10.547,-0.0579 -0.7763,-0.4239 -1.4182,-0.8325 -2.0636,-1.3248 -0.5888,-0.4491 -1.5352,-1.4543 -1.906,-1.5476l0.6122 1.5308 -4.2817 -3.2217c-1.4177,-1.4101 -1.7738,-4.9908 -2.0087,-5.2961l-0.5993 2.8754c0.0575,1.0586 0.7159,2.2068 0.6656,2.8024l-3.2824 -1.1553c-0.8957,-0.6398 -1.6345,-1.2791 -2.3236,-2.2264 -0.6562,-0.9022 -1.1724,-1.9892 -1.3645,-3.2934 -0.1474,-1.0013 -0.0955,-2.1949 0.1389,-3.1813 0.0393,-0.1657 0.0748,-0.2971 0.1137,-0.4328l0.1759 -0.3824c-0.2228,-1.203 0.8724,-2.895 1.305,-3.6362l0.0368 -0.193 -0.201 0.0258c-0.8176,0.2603 -1.353,1.1997 -1.9773,1.4406l1.4167 -3.1973c0.398,-0.5246 1.7626,-1.9628 2.3897,-2.1489l0.3878 0.6443c0.4151,0.2582 0.2711,0.2342 0.5357,0.5512 0.1883,0.2255 0.2824,0.3241 0.4487,0.5179 1.7331,2.0194 6.9573,4.7199 8.6746,4.4659l0.1624 -0.1487c0.0004,-0.0003 0.1437,-0.1077 0.1487,-0.1117l-1.0493 -1.294c-0.0764,-0.0532 -2.9121,-0.8384 -4.6336,-2.0548 -1.6408,-1.1594 -3.6292,-2.8629 -4.1746,-4.9062 -0.701,-1.1842 -0.8875,-4.1699 -0.8009,-5.8102 0.0537,-1.017 0.1861,-1.9455 0.3626,-2.9063 0.1256,-0.6843 0.6381,-2.097 0.4215,-2.6101 -0.7293,-0.0363 -1.1695,0.0681 -1.9646,-0.0452 -5.3845,-0.7673 -10.0655,-3.8573 -13.2689,-8.0627 -1.1902,-1.5625 -1.4126,-2.1018 -2.269,-3.5449 -0.1649,-0.2779 -0.5041,-0.9556 -0.622,-1.288 -0.6925,-0.8777 -2.0314,-5.1787 -2.3975,-6.619 -0.4338,-1.7063 -0.8855,-4.1002 -0.9478,-5.9047 -0.0311,-0.9017 -0.1498,-1.5397 0.3286,-1.9153 0.0321,-0.0799 -0.0059,-0.1001 0.0689,-0.1713 1.3257,0.3385 4.3814,1.0588 5.5942,1.8912l0.1182 0.1209c0.4434,-0.0364 2.2313,0.9706 2.8386,1.2721 0.4139,0.2056 2.3233,1.2081 2.5526,1.4479 0.2246,0.0833 0.1967,0.0551 0.3657,0.1776 0.3251,0.2356 0.0443,0.0161 0.1543,0.174 0.4707,0.1284 0.9356,0.5029 1.3561,0.7554 0.941,0.565 1.6602,1.0535 2.5819,1.754 0.659,0.5007 1.0971,0.8174 1.8185,1.3729l1.4793 1.2326c0.0153,0.0132 0.0412,0.0326 0.055,0.045 0.0143,0.0128 0.0419,0.04 0.0535,0.0508l0.1014 0.1192c0.8807,0.549 4.972,4.7188 5.3689,5.7118 0.3228,0.2342 1.22,1.6336 1.4963,2.1136 0.2207,0.3836 0.3354,0.9046 0.54,1.2946 0.5669,1.0807 1.6274,1.9773 2.7886,2.5327 1.6899,0.8083 2.0399,0.4393 2.7387,0.4465 0.7061,-1.4352 -0.9362,-1.1255 -1.5862,-1.6392 -1.2042,-0.1261 -2.9533,-1.8809 -3.129,-3.0081l1.5718 -1.0066c0.1674,0.3684 0.6802,1.9349 1.4625,1.2457l0.0508 -3.1398c0.257,-2.2676 2.8416,-5.4019 4.4507,-5.5217 0.2821,0.813 1.3314,4.4738 2.2475,4.966 0.0269,-0.5439 -0.0558,-1.9141 0.422,-2.3164 0.0593,-0.5481 0.7749,-1.2314 1.0099,-1.3867 0.3583,0.0443 0.3265,0.0529 0.5006,0.2475 1.2369,0.8524 2.2243,3.0336 2.8884,3.6176 0.9637,-0.0916 0.7346,-0.143 1.665,0.0805l1.1654 0.2803c0.4341,0.1593 0.1031,0.0268 0.2543,0.1689 0.9686,0.0214 4.3384,1.6023 4.6996,2.0812 0.3944,0.1334 1.0097,0.5161 1.1554,0.7954 0.4173,0.1494 0.4748,0.3442 0.9368,0.5518l1.1025 -1.1082c0.3633,-0.4038 0.625,-0.8751 1.0369,-1.2307 0.1371,-0.2946 0.974,-1.3264 1.1999,-1.5704 0.519,-0.5606 0.8145,-0.9002 1.3598,-1.4483 0.9634,-0.968 1.7586,-1.8042 2.9006,-2.6836 0.1114,-0.1127 -0.0214,0.0011 0.167,-0.1547 1.3662,-1.1297 2.2406,-1.78 3.7072,-2.8751 0.8174,-0.6104 3.2532,-2.2165 4.204,-2.7141 0.4262,-0.3598 1.9832,-1.1285 2.5293,-1.3993 0.4797,-0.2378 0.7938,-0.4373 1.2796,-0.6579 0.4174,-0.1896 0.9235,-0.5248 1.359,-0.5542 0.1953,-0.231 0.1269,-0.1442 0.4334,-0.2643 0.2075,-0.0813 0.3232,-0.1444 0.5107,-0.2356 0.4221,-0.1808 4.9799,-2.1312 5.163,-1.5834l0.2675 0.0766 -0.84 8.1071c-0.3154,1.2274 -0.7046,2.4145 -1.1084,3.5347 -0.4487,1.245 -1.1701,2.5849 -1.3898,3.1759zm-38.6195 -4.9206l-0.2394 0.2644 -0.1318 -0.407c-0.796,-3.2107 -2.7136,-2.1921 -4.8181,-0.4187 -1.3469,1.135 -2.6915,3.143 -2.9996,5.625l-2.2491 1.308c-1.1098,-1.5157 -2.835,-3.8694 -4.2064,-5.0719 -0.6489,-0.569 -1.7259,-1.6786 -2.3612,-2.1903 -1.7888,-1.4406 -2.3144,-1.9218 -4.3541,-3.3907 -3.5228,-2.5367 -9.954,-5.9348 -14.3248,-7.1755 -2.3546,-0.6684 -3.2298,0.277 -3.2721,2.5479 -0.1213,6.5086 3.0898,14.4633 6.0656,18.5808 3.0706,4.2486 7.7269,8.445 15.1484,9.3579 -0.6863,4.4701 -0.9999,6.3403 0.5088,10.7925 -0.6729,0.5536 -1.4316,1.1275 -1.9975,1.761 -0.5382,0.6025 -1.1102,1.3221 -1.5708,2.1092 -0.4738,0.8096 -2.5879,5.2868 -0.1188,4.7551 -0.547,2.5616 -0.9031,4.5686 0.3834,7.195 0.7507,1.5326 2.6597,3.8531 4.1147,4.3144 -0.1446,2.3336 -0.4277,3.4081 0.4162,5.5753 0.9521,2.4453 1.5592,2.5325 2.5669,3.7799 0.1835,0.1051 0.0566,0.0145 0.1997,0.1279 4.2487,3.3682 7.2831,1.5514 8.0307,1.708 0.5888,0.3695 0.8123,0.6738 1.5884,1.0714 1.578,0.8083 3.9786,0.6223 5.1379,-0.5945l0.6326 -0.7043c0.2463,0.1746 0.4242,0.4528 0.666,0.6733 1.4191,1.2944 3.7371,1.4184 5.1633,0.6814l1.7233 -1.0984c0.4574,-0.1396 3.3461,1.2255 6.7606,-0.7789 0.637,-0.374 1.1405,-0.834 1.663,-1.1328l1.6465 -2.0525c0.8172,-0.5093 5.8222,-0.1281 10.7741,-5.1903 2.8252,-2.8881 4.7583,-6.1187 5.7874,-10.0968 0.8601,-3.3248 0.8512,-5.8493 1.1352,-9.4194 0.1323,-1.6636 0.1952,-3.3147 0.3886,-4.9236 0.1963,-1.6339 1.2192,-8.5151 0.9324,-9.6156 -0.1569,-0.602 -0.7128,-1.1985 -1.3902,-1.2731 -0.8112,-0.0894 -1.506,0.3576 -2.0283,0.6472 -2.2934,1.2715 -11.8034,7.7751 -13.1168,8.1789l-0.0256 -3.1507c-0.0719,-0.8796 -0.3792,-2.0238 -0.3751,-2.7334 -0.1013,-0.1114 -0.0446,0.1548 -0.1645,-0.2665 -0.0995,-0.3496 -0.0127,-0.0855 -0.0042,-0.2952l0.6324 -0.1188c1.1908,0.0797 3.9981,-0.7708 5.0605,-1.1746 1.5419,-0.5859 2.8034,-1.2561 4.0983,-2.1081 2.6903,-1.7702 4.3489,-3.6373 6.2053,-6.1885 2.9394,-4.0396 6.2542,-12.3754 5.9644,-18.8806 -0.1014,-2.2765 -1.5853,-2.5653 -3.5833,-1.9806 -6.2294,1.823 -14.7911,6.9668 -19.5711,11.417 -1.0812,1.0066 -2.1697,1.9341 -3.1186,3.0796l-2.8296 3.3842c-1.4244,-0.8805 -2.4924,-1.6082 -4.0703,-2.2404 -1.3715,-0.5496 -3.2088,-1.1827 -4.9041,-1.3142l-1.1185 -1.5722c-0.5332,-0.697 -1.9165,-2.3296 -2.8798,-2.3754 -0.6941,-0.033 -1.4245,0.6128 -1.5709,0.9982z"/>
    <path id="_378296344" class="fil5" d="M97.0721 96.2238c2.6738,0.2267 7.1139,-1.7123 9.3963,-3.1934 1.3441,-0.8723 2.4371,-1.7577 3.4536,-2.84 1.0348,-1.1017 1.241,-1.4567 2.0608,-2.5841 0.1307,-0.1797 0.2147,-0.2901 0.3204,-0.4646 0.0715,-0.118 0.0637,-0.1223 0.1323,-0.2414 0.0727,-0.126 -0.002,-0.0211 0.0703,-0.1264 0.0762,-0.1109 0.0875,-0.1061 0.1558,-0.1766 0.1683,-0.4104 0.4546,-0.8704 0.6827,-1.323 1.0893,-2.1619 3.6627,-9.1459 3.4268,-10.591 -2.9935,1.0955 -3.6283,1.6615 -6.5823,3.1893 -1.4254,0.7372 -4.6925,2.7673 -6.0084,3.7685 -2.4265,1.8463 -3.0691,2.389 -5.2119,4.5668 -0.7908,0.8036 -1.5954,1.6823 -2.343,2.5975 -0.4631,0.5668 -1.8385,2.182 -2.0682,2.7677 0.6868,1.0064 2.4387,3.5755 2.5148,4.6507z"/>
    <path id="_378296200" class="fil5" d="M46.455 85.9991l1.214 1.915c2.4419,3.3432 4.9255,5.4326 8.9151,7.0559 0.9995,0.4067 3.9918,1.4255 5.1467,1.2166 0.1871,-0.6509 0.8307,-1.9286 1.1602,-2.4749 0.9533,-1.5806 0.6367,-0.9464 1.5096,-2.1386 -2.4308,-3.158 -3.7077,-5.2214 -6.6415,-7.8424 -0.9261,-0.8274 -1.7328,-1.398 -2.6911,-2.1509 -1.4951,-1.1746 -4.0583,-2.7781 -5.9091,-3.7704 -1.0364,-0.5556 -2.035,-1.1266 -3.1362,-1.7089 -0.5346,-0.2827 -1.0648,-0.5629 -1.5984,-0.8306 -0.4555,-0.2285 -1.2353,-0.7903 -1.6732,-0.5388 0.8385,3.2728 1.2685,5.5991 2.547,8.6729 0.3493,0.8398 0.8273,1.7741 1.1569,2.5951z"/>
    <path id="_378296104" class="fil5" d="M84.2031 106.117c0.5376,0.4656 0.9515,0.5991 1.4103,-0.1397 0.3107,-0.5004 0.4662,-0.8799 0.9035,-1.3325 0.7509,-0.7771 1.7311,-1.4297 3.2024,-1.0693 1.4889,0.3647 1.7472,1.3802 2.3588,2.0918 0.6298,0.7329 2.3024,0.2092 1.4288,-2.194 -0.6852,-1.8848 -3.0426,-3.7804 -5.7763,-2.7362 -1.7352,0.6628 -3.923,2.7018 -3.5275,5.3799z"/>
    <path id="_378295360" class="fil5" d="M69.1132 103.57c1.3765,-0.307 2.5261,0.3126 3.2238,1.1177 0.3314,0.3825 0.5099,0.8107 0.8615,1.3694 0.8639,1.373 2.6089,-0.4774 0.3615,-3.4627 -0.5794,-0.7697 -1.4519,-1.5343 -2.5524,-1.9061 -4.0594,-1.3716 -6.7464,3.1805 -5.7647,4.8855 0.3598,0.6249 1.0532,0.4637 1.4339,0.049 0.345,-0.3758 0.5569,-0.9156 0.943,-1.2848 0.3883,-0.3712 0.8037,-0.6141 1.4934,-0.768z"/>
    <path id="_378295240" class="fil5 str0" d="M46.5415 102.798l-0.007 0.5056c0.6379,0.6994 1.5891,0.3955 2.2957,1.2656l1.1676 2.3924 0.4138 -0.0174c0.621,-0.4866 0.5684,-1.6611 1.1643,-2.3838l2.2717 -1.2712c0.1684,-1.128 -1.361,-0.7172 -2.2353,-1.7918 -0.2976,-0.3658 -0.488,-0.8867 -0.6339,-1.3989l-0.9652 -1.0295c-0.6649,0.4952 -0.5299,1.5929 -1.1708,2.3748 -0.7432,0.9067 -1.6597,0.7136 -2.3009,1.3542z"/>
    <path id="_378295216" class="fil5" d="M82.6445 108.065l-1.2181 1.5733c-1.0941,0.3097 -1.4036,-0.7264 -1.9809,-0.7488 -0.5503,-0.0214 -0.9183,1.0126 -2.0033,0.7603 -0.8091,-0.1882 -0.7769,-0.982 -1.2353,-1.5686l-0.4374 0.0024c-0.9455,0.7835 0.2116,2.0956 0.7171,2.4313 1.439,0.9559 2.899,-0.2398 2.9623,-0.2507l2.8785 0.2614c0.5143,-0.3225 1.651,-1.6867 0.7041,-2.4384l-0.387 -0.0222z"/>
    <path id="_378295504" class="fil5" d="M51.1457 110.455c0.3339,0.5977 0.2007,-0.0162 0.9981,1.7635 0.83,-0.0508 0.4987,-0.3345 0.8114,-0.952l0.5873 -0.9083c-0.2609,-0.4918 -0.1748,0.074 -1.0112,-1.7546l-0.4361 -0.0088c-0.2892,0.4724 -0.1883,0.4408 -0.3646,0.9571 -0.1826,0.5352 -0.4563,0.358 -0.5849,0.9031z"/>
    <path id="_378295264" class="fil5" d="M78.4619 107.379c0.3452,0.0814 2.1275,0.6815 1.8831,-0.4013 -0.1135,-0.5026 -1.2357,-0.7091 -1.8639,-0.1069l-0.0192 0.5082z"/>
   </g>
   <g>
    <path id="_378295072" class="fil6" d="M75.7695 108.084l0.4374 -0.0024c0.4584,0.5866 0.4262,1.3804 1.2353,1.5686 1.085,0.2523 1.453,-0.7817 2.0033,-0.7603 0.5773,0.0224 0.8868,1.0585 1.9809,0.7488l1.2181 -1.5733 0.387 0.0222c0.9469,0.7517 -0.1898,2.1159 -0.7041,2.4384l-2.8785 -0.2614c-0.0633,0.0109 -1.5233,1.2066 -2.9623,0.2507 -0.5055,-0.3357 -1.6626,-1.6478 -0.7171,-2.4313zm13.3945 0.628c-0.1403,-0.6539 0.1978,-1.1849 0.5911,-1.5071 0.4438,-0.3635 0.6379,-0.5045 1.5043,-0.5599 1.2135,-0.0776 2.6574,0.3449 2.8293,1.3869 0.225,1.3648 -0.954,2.0086 -2.1474,2.0796 -1.2354,0.0734 -2.5541,-0.3589 -2.7773,-1.3995zm-19.6225 0c-0.3111,1.1722 -1.5529,1.5036 -2.7293,1.3977 -3.3061,-0.2975 -2.8331,-3.6634 0.6331,-3.4769 1.1553,0.0622 2.4348,0.8034 2.0962,2.0792zm8.9396 -1.8405c0.6282,-0.6022 1.7504,-0.3957 1.8639,0.1069 0.2444,1.0828 -1.5379,0.4827 -1.8831,0.4013l0.0192 -0.5082zm5.722 -0.7542c-0.3955,-2.6781 1.7923,-4.7171 3.5275,-5.3799 2.7337,-1.0442 5.0911,0.8514 5.7763,2.7362 0.8736,2.4032 -0.799,2.9269 -1.4288,2.194 -0.6116,-0.7116 -0.8699,-1.7271 -2.3588,-2.0918 -1.4713,-0.3604 -2.4515,0.2922 -3.2024,1.0693 -0.4373,0.4526 -0.5928,0.8321 -0.9035,1.3325 -0.4588,0.7388 -0.8727,0.6053 -1.4103,0.1397zm-15.0899 -2.5471c-0.6897,0.1539 -1.1051,0.3968 -1.4934,0.768 -0.3861,0.3692 -0.598,0.909 -0.943,1.2848 -0.3807,0.4147 -1.0741,0.5759 -1.4339,-0.049 -0.9817,-1.705 1.7053,-6.2571 5.7647,-4.8855 1.1005,0.3718 1.973,1.1364 2.5524,1.9061 2.2474,2.9853 0.5024,4.8357 -0.3615,3.4627 -0.3516,-0.5587 -0.5301,-0.9869 -0.8615,-1.3694 -0.6977,-0.8051 -1.8473,-1.4247 -3.2238,-1.1177zm-4.6726 -9.6464c-0.2916,-0.2662 -0.211,-0.1033 -0.29,-0.5413 0.2046,-0.5339 0.5086,-0.775 1.1514,-0.7243 0.269,0.7195 -0.2324,1.2022 -0.8614,1.2656zm29.3319 -1.208c0.6652,-0.0291 1.1056,0.2921 1.061,0.9826 -0.4061,0.1057 -0.5309,0.2081 -0.8651,-0.0857 -0.3102,-0.2726 -0.2952,-0.47 -0.1959,-0.8969zm-1.2803 -0.4798c0.6639,-0.0592 0.7146,0.0375 0.9904,0.5118l-0.2841 0.475c-0.6034,0.0283 -0.846,-0.3535 -0.7063,-0.9868zm-26.5373 0.9133c-0.3527,-0.7093 0.2884,-0.7441 0.809,-0.8976 0.0182,0.1826 0.192,0.9444 -0.4878,0.9928 -0.4668,0.0332 -0.2506,-0.0557 -0.3212,-0.0952zm10.7111 -1.6727l-0.0152 -0.4926c0.4298,-0.3627 0.4077,-0.2337 1.5393,-0.2337 2.0044,0 0.823,-0.4666 2.3672,0.339 -0.2769,0.1368 -0.3787,0.2849 -0.7253,0.4847 -0.3271,0.1886 -0.5883,0.2546 -0.9622,0.2875 -0.7792,0.0684 -1.6892,0.076 -2.2038,-0.3849zm13.0641 -1.5399c0.6151,-0.2075 0.9593,0.1421 1.0226,0.4692 0.2004,1.0353 -1.2243,0.6092 -1.1315,-0.1858 0.0358,-0.3062 0.0885,-0.2407 0.1089,-0.2834zm-17.3496 -5.2212c-0.3607,0.0534 -0.6151,0.0292 -0.651,-0.4001 -0.0703,-0.8409 0.6251,-1.5836 1.1496,-2.117l0.5158 0.0256c0.2177,0.6014 -0.0408,0.795 -0.2715,1.2596 -0.2316,0.4661 -0.3647,0.8661 -0.7429,1.2319zm41.5428 -12.5701c-0.1875,0.0912 -0.3032,0.1543 -0.5107,0.2356 -0.3065,0.1201 -0.2381,0.0333 -0.4334,0.2643 0.291,-0.1158 0.349,-0.1389 0.7066,-0.1185l0.1046 0.6292c-0.8448,0.5299 -0.4059,0.2435 -1.07,0.5207l-3.9282 2.2188c-0.521,0.3496 -0.5388,0.2463 -0.8064,0.3794l-1.1679 0.7408c-0.1703,0.1036 -0.3289,0.2092 -0.4854,0.2986 -0.5203,0.297 -0.446,0.0622 -0.4849,0.0432 0.4417,-0.7309 0.2261,-0.5143 0.9283,-0.9586 0.9693,-0.6134 1.1365,-0.661 1.0354,-1.1422 -0.9508,0.4976 -3.3866,2.1037 -4.204,2.7141 -1.4666,1.0951 -2.341,1.7454 -3.7072,2.8751 -0.1884,0.1558 -0.0556,0.042 -0.167,0.1547l0.3806 -0.0344c0.1529,0.7012 0.0398,0.5913 -0.3064,1.0457 -0.521,0.6838 -1.1689,1.2985 -1.7474,1.9282l-1.8656 1.8206 -1.869 1.145 -0.0525 -0.2028c-0.4119,0.3556 -0.6736,0.8269 -1.0369,1.2307l-1.1025 1.1082c-0.462,-0.2076 -0.5195,-0.4024 -0.9368,-0.5518l-0.1283 0.087c-0.1658,-0.134 -0.2577,-0.188 -0.4767,-0.2964 -0.1055,-0.0522 -0.1453,-0.0595 -0.2527,-0.1181l-0.1302 -0.0719c-0.167,-0.1169 -0.0937,-0.0792 -0.1934,-0.1785 -0.7503,-0.3512 -1.5635,-0.8556 -2.3796,-1.2021l-2.2941 -1.0966c-0.1512,-0.1421 0.1798,-0.0096 -0.2543,-0.1689l-1.1654 -0.2803c-0.9304,-0.2235 -0.7013,-0.1721 -1.665,-0.0805 -0.6641,-0.584 -1.6515,-2.7652 -2.8884,-3.6176 -0.2206,0.4017 -0.1352,0.1289 -0.3636,0.4691 -0.4897,0.7298 0.3943,0.0737 -1.2984,1.2761 0.0226,-0.3702 -0.0026,-0.285 0.1515,-0.606 -0.4778,0.4023 -0.3951,1.7725 -0.422,2.3164 -0.9161,-0.4922 -1.9654,-4.153 -2.2475,-4.966 -1.6091,0.1198 -4.1937,3.2541 -4.4507,5.5217l-0.0508 3.1398c-0.7823,0.6892 -1.2951,-0.8773 -1.4625,-1.2457l-1.5718 1.0066c0.1757,1.1272 1.9248,2.882 3.129,3.0081 0.7012,0.0831 1.3156,0.2674 2.0828,0.2792 0.3884,0.0059 0.7755,0.0025 1.1652,0.0121 0.551,0.0136 0.602,-0.0108 0.9127,0.2832 -0.0486,1.0322 -1.7581,0.6338 -2.5745,1.0647 -0.6988,-0.0072 -1.0488,0.3618 -2.7387,-0.4465 -1.1612,-0.5554 -2.2217,-1.452 -2.7886,-2.5327 -0.2046,-0.39 -0.3193,-0.911 -0.54,-1.2946 -0.2763,-0.48 -1.1735,-1.8794 -1.4963,-2.1136l-0.0732 0.1943c-0.7067,0.0126 -0.9768,-0.4125 -1.8355,-1.1747 -0.4667,-0.4143 -1.0755,-1.0371 -1.5049,-1.4914 -0.3336,-0.3529 -2.4068,-2.3487 -2.3897,-2.8507 0.0136,-0.398 0.1357,-0.3731 0.4344,-0.3893l-0.1014 -0.1192c-0.0116,-0.0108 -0.0392,-0.038 -0.0535,-0.0508 -0.0138,-0.0124 -0.0397,-0.0318 -0.055,-0.045l-1.4793 -1.2326c-0.7214,-0.5555 -1.1595,-0.8722 -1.8185,-1.3729 -0.9217,-0.7005 -1.6409,-1.189 -2.5819,-1.754 -0.4205,-0.2525 -0.8854,-0.627 -1.3561,-0.7554 0.1045,0.1592 0.036,0.1373 0.2113,0.2546 -0.3303,0.0246 -0.0539,-0.0439 -0.1722,0.2296 0.193,0.1419 0.3439,0.1965 0.5051,0.2927 0.2117,0.1264 0.3007,0.2474 0.4511,0.335 0.4511,0.1883 0.5878,0.2361 0.6061,0.8006 -0.3563,-0.1553 -0.6365,-0.2516 -0.9506,-0.4714l-0.2386 -0.2119c-0.8572,-0.4329 -2.052,-1.3267 -2.7385,-1.6601 -0.3909,-0.1899 -0.4375,-0.2183 -0.7392,-0.4145 -0.2709,-0.1762 -0.3898,-0.2129 -0.7,-0.3717 -0.3179,-0.1627 -1.0984,-0.5217 -1.4068,-0.7446 -0.4443,-0.1088 -0.8283,-0.2988 -1.156,-0.5553l0.0355 -0.5944 -1.5333 -0.0339 -1.3268 -0.5943c-0.4606,-0.238 -2.2291,-1.1467 -2.585,-0.9851l0.0454 -0.1877c-0.4784,0.3756 -0.3597,1.0136 -0.3286,1.9153 0.0623,1.8045 0.514,4.1984 0.9478,5.9047 0.3661,1.4403 1.705,5.7413 2.3975,6.619 0.0248,0.0198 0.0622,0.0165 0.074,0.0597l0.2185 0.2233c0.7683,0.7369 1.9036,0.8037 2.8917,0.9888l-0.0431 -0.3953c-0.3296,-0.821 -0.8076,-1.7553 -1.1569,-2.5951 -1.2785,-3.0738 -1.7085,-5.4001 -2.547,-8.6729 0.4379,-0.2515 1.2177,0.3103 1.6732,0.5388 0.5336,0.2677 1.0638,0.5479 1.5984,0.8306 1.1012,0.5823 2.0998,1.1533 3.1362,1.7089 1.8508,0.9923 4.414,2.5958 5.9091,3.7704 0.9583,0.7529 1.765,1.3235 2.6911,2.1509 2.9338,2.621 4.2107,4.6844 6.6415,7.8424 -0.8729,1.1922 -0.5563,0.558 -1.5096,2.1386 -0.3295,0.5463 -0.9731,1.824 -1.1602,2.4749l-0.2438 0.3611 -0.416 1.3197c0.6853,0.1056 0.1455,0.0214 0.3674,0.196 0.2166,0.5131 -0.2959,1.9258 -0.4215,2.6101 -0.1765,0.9608 -0.3089,1.8893 -0.3626,2.9063 -0.0866,1.6403 0.0999,4.626 0.8009,5.8102 0.3369,0.2917 0.3743,0.841 1.4313,1.8394 0.3367,0.318 0.4476,0.5603 0.7858,0.8705 0.7963,0.7302 1.8203,1.5276 2.7542,2.0756 3.7451,2.1977 8.5312,3.3318 12.9256,3.3312 2.7442,-0.0003 7.0485,-0.5997 9.5866,-1.7174 1.0465,-0.4608 2.1916,-0.8336 3.3394,-1.5135 3.3013,-1.9552 4.6012,-4.434 5.0493,-4.7621 0.6446,-1.9142 0.9347,-3.3702 0.8453,-5.6434 -0.0831,-2.1137 -0.4793,-3.6143 -0.9157,-5.6315l0.2026 -0.153 0.2579 -0.2189c-0.0486,-0.3821 -0.242,-0.758 -0.3885,-1.1975 -0.1566,-0.47 0.0665,-0.0961 -0.2569,-0.4456 -0.0761,-1.0752 -1.828,-3.6443 -2.5148,-4.6507 0.2297,-0.5857 1.6051,-2.2009 2.0682,-2.7677 0.7476,-0.9152 1.5522,-1.7939 2.343,-2.5975 2.1428,-2.1778 2.7854,-2.7205 5.2119,-4.5668 1.3159,-1.0012 4.583,-3.0313 6.0084,-3.7685 2.954,-1.5278 3.5888,-2.0938 6.5823,-3.1893 0.2359,1.4451 -2.3375,8.4291 -3.4268,10.591 -0.2281,0.4526 -0.5144,0.9126 -0.6827,1.323l0.122 0.1719c0.2981,-0.3169 0.0985,-0.127 0.8226,-0.2582 0.8426,-0.1526 1.57,-0.5986 2.2031,-1.0951l0.2063 0.0401c0.2197,-0.591 0.9411,-1.9309 1.3898,-3.1759 0.4038,-1.1202 0.793,-2.3073 1.1084,-3.5347l0.84 -8.1071 -0.2675 -0.0766 0.0873 0.2151 -2.7043 1.1752c-1.1576,0.5457 -2.3462,1.3188 -2.546,0.1931z"/>
    <path id="_378295288" class="fil6" d="M106.345 103.786l0.1959 0.0408c-0.4167,0.502 -0.8249,1.0731 -1.4115,1.3867 -0.364,0.2902 -0.6762,0.5528 -1.0325,0.8406 -0.3522,0.2844 -1.1063,0.785 -1.0376,-0.2228l-2.8307 1.6803c-1.1544,0.6605 -0.7614,0.363 -1.6106,2.8464 0.5404,0.6401 2.1146,1.3653 3.4973,3.8569 0.4434,0.799 0.8309,1.5899 1.0785,2.6017l-0.9441 2.2004c0.0972,0.7067 0.338,1.3251 0.4408,2.0763 0.1145,0.8362 -0.0036,1.6257 0.0494,2.3731l-0.1585 1.2496c2.7281,0.0031 5.4297,-1.0364 7.2778,-2.4388 1.2672,-0.9615 1.4918,-1.2496 2.5268,-2.3211 0.2766,-0.2863 0.1918,-0.3728 0.5126,-0.5833 0.3321,-1.8426 0.5076,-4.7438 0.4857,-6.7132 -0.1133,0.1261 -0.063,0.0133 -0.1544,0.2114l-0.7257 2.8747c-0.2631,0.9249 -0.7042,1.806 -1.1048,2.6462 -0.2036,0.4272 -0.482,0.8522 -1.0643,0.8399 -1.4011,-0.0298 -0.3476,-2.9839 -0.6909,-4.6986 -2.2318,0.8616 -1.0888,0.7089 -2.1275,1.2226 -1.2892,0.6377 -1.6248,-0.5798 -1.8352,-1.5162l-1.4469 -0.699c-0.243,-0.5498 -0.0195,-1.1826 0.269,-1.6598 0.7523,-1.244 1.6728,-1.7044 1.5604,-2.6808l-0.8713 -0.1308c-0.4573,0.0738 -0.6919,0.0598 -0.9607,-0.1584 -1.0721,-0.8701 1.3957,-2.8708 2.3526,-3.8533 1.1582,-1.1892 2.74,-2.7314 4.0962,-3.8414 0.4075,-0.3335 0.3845,-0.283 0.524,-0.607 -0.356,0.161 -0.8595,0.5187 -1.2442,0.7555l-3.6156 2.4214z"/>
    <path id="_378294592" class="fil6" d="M80.9797 140.612c0.3003,0.8456 1.6845,1.2813 2.9007,1.0886 0.9541,-0.1513 2.2333,-0.8955 2.5158,-1.4947l-0.0316 -0.2371 -2.8661 -0.0968c-0.3976,0.1875 -0.616,0.3694 -1.1527,0.4592 -1.0826,0.181 -1.3358,-0.027 -1.3661,0.2808z"/>
    <path id="_378294856" class="fil6" d="M73.0578 140.277c0.0976,0.4915 1.5051,1.2742 2.2842,1.419 0.8832,0.1641 2.4911,-0.1498 2.655,-0.8376l0.1717 -0.347c-2.1764,-0.2974 -0.9131,-0.0905 -2.5335,-0.6165 -1.0724,-0.3481 -1.7582,-0.0513 -2.7396,0.0403l0.1622 0.3418z"/>
   </g>
  </g>
 </g>
</svg>
