<?xml version="1.0" encoding="UTF-8"?>
<!DOCTYPE svg PUBLIC "-//W3C//DTD SVG 1.1//EN" "http://www.w3.org/Graphics/SVG/1.1/DTD/svg11.dtd">
<!-- Creator: CorelDRAW -->
<svg xmlns="http://www.w3.org/2000/svg" xml:space="preserve" width="279.4mm" height="431.8mm" style="shape-rendering:geometricPrecision; text-rendering:geometricPrecision; image-rendering:optimizeQuality; fill-rule:evenodd; clip-rule:evenodd"
viewBox="0 0 279.4 431.8"
 xmlns:xlink="http://www.w3.org/1999/xlink">
 <defs>
  <style type="text/css">
   <![CDATA[
    .fil2 {fill:#050505}
    .fil5 {fill:#807D7F}
    .fil1 {fill:#BB0625}
    .fil0 {fill:#D5CD6C}
    .fil4 {fill:#E8D768}
    .fil3 {fill:#F8DC45}
   ]]>
  </style>
 </defs>
 <g id="Capa_x0020_1">
  <metadata id="CorelCorpID_0Corel-Layer"/>
  <path class="fil0" d="M164.252 137.289c0.7688,-0.0013 0.9948,-0.2669 1.0867,-1.0458 -0.6407,0.2035 -0.9823,0.3413 -1.0867,1.0458z"/>
  <path class="fil0" d="M122.845 137.846c0.3807,-0.554 0.2463,-0.7104 0.1194,-1.2987 -0.5738,0.3668 -0.7324,0.9871 -0.1194,1.2987z"/>
  <path class="fil1" d="M207.667 112.076c-3.0751,0.7315 -3.5194,5.7338 0.948,7.3193 1.6158,0.5734 2.1268,-0.2122 2.8305,-1.1804 0.5536,-0.7614 4.957,-4.6451 4.0138,-0.6611 -0.2866,1.211 -0.7053,2.152 -1.4466,2.8759 -0.8073,0.7885 -1.7571,1.197 -1.5551,2.9601 0.426,3.7167 4.7532,3.2927 5.4847,2.5805 0.8552,-0.8326 1.1915,-5.101 0.1904,-7.3114 -0.5257,-1.1607 -1.1755,-1.4231 -1.8798,-2.4341 -0.8716,-1.2513 -0.5363,-2.4937 -1.0791,-3.2106 -0.9145,-1.2078 -5.6208,-1.3867 -7.5068,-0.9382z"/>
  <path class="fil1" d="M222.271 102.508c-1.0852,0.4969 -1.261,0.8881 -1.673,2.137 -0.2489,0.7543 -0.7688,2.3502 -0.8776,3.0595 -0.2428,1.5841 0.4685,1.7236 1.2893,2.3431 0.8119,0.6127 1.2106,1.4475 2.5718,1.3322 1.8121,-0.1536 2.3249,-3.3449 2.4007,-5.3487 0.0485,-1.2807 -0.2431,-1.9983 -1.0574,-2.7683 -0.626,-0.592 -1.6431,-1.2175 -2.6538,-0.7548z"/>
  <path class="fil1" d="M213.462 101.223c-2.9316,1.0488 -2.9108,1.6738 -1.9191,4.7028 0.6742,2.0591 1.2199,4.2109 3.2949,4.5937 3.3048,0.6096 2.3983,-2.5648 1.6866,-4.9347 -0.8341,-2.7771 -0.9216,-5.1277 -3.0624,-4.3618z"/>
  <path class="fil1" d="M221.6 118.158c-1.2034,0.382 -1.5376,0.4658 -1.1364,2.123 0.1779,0.7348 0.7469,1.7472 1.1949,2.3707 1.0371,1.4432 2.7565,3.0834 4.2322,1.6025 1.308,-1.3126 2.5895,-2.6316 0.5861,-4.2812 -1.4908,-1.2274 -2.2229,-2.6576 -4.8768,-1.815z"/>
  <path class="fil1" d="M225.981 112.659c-0.8365,0.3195 -1.0706,0.3191 -1.5721,1.164 -1.2308,2.0741 0.7839,2.3139 1.8108,3.006 0.658,0.4435 1.1895,0.8211 2.0335,0.8394 3.4518,0.075 1.4323,-6.4243 -2.2722,-5.0094z"/>
  <path class="fil2" d="M216.511 225.732c0.128,-2.0251 3.6158,-4.0412 4.4604,-4.7237l4.9846 -4.3976c0.8418,2.3841 -1.1991,3.7809 -3.5054,5.5193 -0.9161,0.6905 -1.8872,1.2733 -2.8789,1.9505 -0.6596,0.4505 -2.1194,1.9172 -3.0607,1.6515zm3.7841 -5.4178c0.0243,-0.5426 0.0512,-0.3507 0.5046,-0.7341 1.2733,-1.0768 0.7921,-0.7339 2.3966,-1.8276 -0.0641,0.8179 -1.2242,1.5922 -1.9652,2.2632 -0.5125,0.464 -0.309,0.5096 -0.936,0.2985zm-9.5608 -2.9252c5.9127,-0.0014 5.9089,-0.5028 5.5427,1.5907 -0.3473,1.9854 -0.4892,4.4927 -2.5124,4.1678 -1.3815,-0.2218 -2.9714,-5.1329 -3.0303,-5.7585zm-2.861 -2.1589c1.9843,1.0535 2.5014,4.5797 3.3247,7.4777 -1.0472,-0.1246 -2.0583,-2.0372 -2.5558,-2.9176 -0.9092,-1.6092 -1.1637,-2.5048 -0.7689,-4.5601zm1.7647 -0.7121c0.7594,0.0924 1.4331,0.3152 2.1632,0.5116 1.1134,0.2995 1.3596,0.2172 2.1394,0.7386 -1.5904,0.7628 -3.8607,0.3424 -4.3026,-1.2502zm10.5573 3.3354l-0.6869 -2.1431c1.442,-1.0145 3.0186,-1.1359 3.4872,-2.8822 0.2597,-0.9675 -0.1204,-2.2661 0.2938,-2.9367l2.1983 -0.8636c0.5217,2.0107 -0.2997,4.5299 -1.1874,5.8188 -0.8272,1.2008 -3.2523,2.9354 -4.105,3.0068zm-26.6006 -10.1001c0.9359,-0.302 3.3708,-0.0861 4.6011,-0.1989 1.3752,-0.1261 3.002,-0.5398 4.2862,-0.574 1.3925,-0.0372 2.8058,0.7347 3.3528,1.4833 0.4996,0.6837 0.2065,1.2257 -0.0045,2.0356 -0.5627,3.2998 1.2305,2.5077 -5.3579,3.8015l-5.4496 1.0387c-0.3744,-0.7672 -1.6195,-6.7642 -1.4281,-7.5862zm35.0395 -30.6196c0.9691,-0.0318 3.5078,1.064 4.4589,1.5419 2.3371,1.1744 5.1863,4.9646 4.5628,7.4647 -0.949,3.805 -3.0032,4.889 -6.7348,5.5866 -2.2984,0.4297 -2.3009,0.7138 -1.7595,-3.5232 0.234,-1.8316 0.532,-3.7988 0.3397,-5.7435 -0.1485,-1.5021 -1.1909,-4.1311 -0.8671,-5.3265zm-8.6178 -12.6871c0.328,0.326 1.7617,3.4408 2.4484,4.6501 1.5007,2.6425 1.144,1.8212 1.9442,4.7087 -1.2378,-0.0176 -4.3318,-1.2032 -5.2269,-3.0396 -1.2738,-2.6133 -0.2531,-5.9919 0.8343,-6.3192zm1.5832 -46.2881c2.6539,-0.8426 3.386,0.5876 4.8768,1.815 2.0034,1.6496 0.7219,2.9686 -0.5861,4.2812 -1.4757,1.4809 -3.1951,-0.1593 -4.2322,-1.6025 -0.448,-0.6235 -1.017,-1.6359 -1.1949,-2.3707 -0.4012,-1.6572 -0.067,-1.741 1.1364,-2.123zm-13.9326 -6.0829c1.886,-0.4485 6.5923,-0.2696 7.5068,0.9382 0.5428,0.7169 0.2075,1.9593 1.0791,3.2106 0.7043,1.011 1.3541,1.2734 1.8798,2.4341 1.0011,2.2104 0.6648,6.4788 -0.1904,7.3114 -0.7315,0.7122 -5.0587,1.1362 -5.4847,-2.5805 -0.202,-1.7631 0.7478,-2.1716 1.5551,-2.9601 0.7413,-0.7239 1.16,-1.6649 1.4466,-2.8759 0.9432,-3.984 -3.4602,-0.1003 -4.0138,0.6611 -0.7037,0.9682 -1.2147,1.7538 -2.8305,1.1804 -4.4674,-1.5855 -4.0231,-6.5878 -0.948,-7.3193zm18.3143 0.5838c3.7045,-1.4149 5.724,5.0844 2.2722,5.0094 -0.844,-0.0183 -1.3755,-0.3959 -2.0335,-0.8394 -1.0269,-0.6921 -3.0416,-0.9319 -1.8108,-3.006 0.5015,-0.8449 0.7356,-0.8445 1.5721,-1.164zm-7.7852 -0.7675c2.4416,-1.5037 4.2001,2.903 2.1849,3.9904 -1.9054,1.0283 -4.4127,-2.6184 -2.1849,-3.9904zm4.0751 -9.3841c1.0107,-0.4627 2.0278,0.1628 2.6538,0.7548 0.8143,0.77 1.1059,1.4876 1.0574,2.7683 -0.0758,2.0038 -0.5886,5.1951 -2.4007,5.3487 -1.3612,0.1153 -1.7599,-0.7195 -2.5718,-1.3322 -0.8208,-0.6195 -1.5321,-0.759 -1.2893,-2.3431 0.1088,-0.7093 0.6287,-2.3052 0.8776,-3.0595 0.412,-1.2489 0.5878,-1.6401 1.673,-2.137zm-8.8096 -1.2852c2.1408,-0.7659 2.2283,1.5847 3.0624,4.3618 0.7117,2.3699 1.6182,5.5443 -1.6866,4.9347 -2.075,-0.3828 -2.6207,-2.5346 -3.2949,-4.5937 -0.9917,-3.029 -1.0125,-3.654 1.9191,-4.7028zm4.9589 61.2208c-1.5588,3.4778 -2.0604,2.5076 -1.6911,6.0085 0.2514,2.3831 0.4238,3.2471 2.5744,5.234 4.6706,4.3151 7.7722,0.3169 8.4336,7.3377 0.2206,2.3409 -0.1118,5.1849 -0.4054,7.4821 -0.4373,3.4228 -0.0136,3.7605 -2.9374,4.97 -1.9113,0.7907 -4.0232,1.5159 -5.0798,2.7799 -1.8125,2.1684 -0.724,3.615 0.2153,5.9151 -1.9822,0.2962 -1.9122,0.4173 -1.8259,1.2205 0.2313,0.1553 -0.0416,0.0771 0.3476,0.1197 0.5853,0.0639 0.6351,-0.1167 1.3423,-0.009 2.72,0.4144 -0.6664,0.8184 5.7019,0.1256 -0.3262,1.7501 -1.4578,2.1562 -2.8679,2.8961l-3.9105 -0.889c-0.0418,1.4798 1.4141,2.3744 3.1078,2.0746l4.0363 -1.7462c-0.0976,2.2648 -2.7663,2.4547 -4.4687,2.8648 1.7994,2.5596 -0.4795,4.6546 -1.5205,5.1362l-2.1064 0.7158 0.6817 5.354c-0.902,-1.4608 0.2421,-3.4789 -2.3726,-5.1246 -2.2428,-1.4117 -0.633,-0.517 -1.8127,-1.9496l-1.5758 -2.2176c0.538,-0.9977 0.9834,-0.979 1.4976,-2.4724 0.3274,-0.951 0.6078,-2.1762 0.8944,-3.2252 0.2889,-1.0577 0.6226,-2.1259 0.9016,-3.2177 0.1448,-0.5669 0.17,-1.0604 0.2951,-1.6563 0.5665,-1.5779 1.8516,-1.2357 -1.449,-3.5338 -1.2461,-0.8675 -2.1654,-0.4226 -3.1981,0.1598l-0.6986 1.1054c1.4284,-0.0404 1.4433,-0.6125 2.3241,-0.5901 0.6306,0.016 1.6213,0.6477 1.8204,1.0573 0.3322,0.6828 -0.6947,3.6365 -0.9427,4.4776 -1.1841,4.0145 -1.4042,4.8127 -2.8639,8.8281 -0.7984,-0.3079 -3.0901,-2.7042 -3.6897,-3.3066 -1.0311,-1.0361 -2.329,-2.4408 -4.2039,-2.9405 -3.4669,-0.9239 -8.6299,0.7078 -12.0907,1.5634 -0.1904,1.3662 0.5571,1.7868 1.1115,2.604 0.517,0.762 0.921,1.5068 1.2201,2.5412l-0.0337 6.8822 1.7725 0.5434c0.5183,-0.3036 0.3101,-0.121 0.7295,-1.1229 0.6656,-1.5905 1.7868,-1.6823 3.5976,-1.9165l6.2446 -0.7686c0.6113,1.0316 0.2012,4.7 2.6567,7.3628 0.6369,0.6907 2.1691,1.319 3.1508,1.8597l3.5394 0.021c0.4432,0.1599 0.4153,0.7408 0.6282,1.737 1.8148,0.7695 2.2785,-0.2219 5.6266,-2.1682 8.0434,-4.6758 4.8873,-7.4326 10.1674,-4.5174 0.5769,0.3185 2.264,1.2601 2.6612,1.6282 1.2025,1.1143 -0.3155,1.058 2.5243,1.3732 0.5026,-1.3452 -0.8817,-2.1707 -1.5628,-2.6913 -3.6675,-2.8031 -4.6045,-2.5147 -5.917,-3.3815l-0.4557 -3.9476 -1.4341 0.236c0.2873,-4.6685 -0.3272,-3.4023 2.97,-6.2826 -0.3203,-0.2815 -0.7914,-0.3927 -1.2427,-0.5355 -0.0071,-2.9754 0.3261,-1.8817 -0.8726,-4.2345 -0.7028,1.937 -0.2524,2.5144 -0.6582,3.4671l-0.1488 0.2646c-0.0122,-0.8547 0.231,-1.9727 -0.312,-2.5706 -0.4336,-0.4773 -0.4429,-0.0114 -1.8191,-1.2396l-3.9369 0.5473 -1.0521 -4.6762c1.5071,-1.3335 4.5151,-2.0012 6.4594,-2.5244l-0.6741 6.2455 1.4553 0.1761c1.1388,-2.3736 0.3245,-7.0024 1.9689,-7.6853 1.5061,-0.6253 5.2882,-0.902 7.45,-2.2226 4.9775,-3.0406 3.4461,-9.8427 0.0019,-13.1544 -0.8826,-0.8486 -4.7022,-3.482 -5.9241,-3.7699 -3.2231,-0.7596 -3.2601,1.0453 -5.6911,-3.9399 -1.0782,-2.2111 -2.0824,-4.2588 -3.2448,-6.4259 -1.9995,-3.7275 1.1569,-3.0114 4.8945,-3.0803l-6.1773 -1.1796c-1.0941,-1.9315 1.9303,-14.3021 2.3798,-17.1059 1.0501,-6.5505 -0.1576,-11.1771 -1.1115,-18.0284 1.9872,0.2576 2.9093,3.5434 5.695,0.3994 0.3754,-0.4235 0.6258,-0.7411 1.0076,-1.145 1.3386,-1.4162 1.0852,-0.3141 0.7703,-4.5724 1.0976,-0.9026 1.9234,-0.2357 2.6173,-1.8771 1.0543,-2.4937 -0.2306,-5.6234 -1.4716,-6.5826l-3.2925 -1.9351c-0.1403,-1.21 2.4114,-5.6974 -1.6258,-8.0085 -4.02,-2.3014 -4.1635,-0.8431 -6.9405,2.6501 -1.1094,-0.9263 -2.7963,-5.8929 -4.6595,-5.0357 -0.2539,0.1168 -0.6399,0.4463 -0.9798,0.6487 -0.3334,0.1987 -0.7681,0.4376 -1.1333,0.6596l-0.3459 9.4809c-3.8524,0.3683 -5.7999,0.3987 -7.1454,3.429 -0.9349,2.1058 -0.0282,5.7249 2.727,7.1836 2.087,1.1051 3.4441,0.3825 3.9339,1.4464 0.5239,1.1384 0.2676,2.7865 1.1348,4.24 0.8389,1.406 1.7494,1.3834 3.7605,1.5981 2.5164,0.2689 2.0956,0.2312 4.3183,-0.7449 0.8499,0.9856 1.3096,6.9646 1.3879,8.7708 0.2398,5.5325 -3.3314,18.0044 -3.1102,22.3729 0.116,2.2924 1.0098,1.4866 -0.0525,4.1545z"/>
  <path class="fil2" d="M134.477 172.053c-0.7769,-1.4124 0.0272,-3.3805 0.4142,-4.7787l2.6729 0.8088 -0.4749 0.5253c-0.8568,0.7504 -1.4473,0.9554 -2.0821,2.4016 -0.1482,0.3375 -0.27,0.7955 -0.5301,1.043zm41.0242 16.4135c-0.342,-0.4766 -0.7329,-1.9334 -1.0952,-2.6225 -1.1463,-2.1794 -4.6382,-5.8558 -6.0271,-4.099l1.5912 7.0047 -5.9659 -2.4983 0.919 4.0619 -4.6715 -1.7601c-4.0132,-0.9317 -11.251,4.3352 -8.9971,9.6873 1.8031,4.2818 9.9308,5.0204 14.3602,5.0355 1.0742,0.0037 5.435,-0.302 5.8439,-0.0519l-6.1943 2.5255c-1.9463,0.4867 -7.823,-0.6447 -8.1107,0.4893l0.1575 1.1503 1.0194 0.694 -6.9479 -0.1031c-2.6288,-0.3228 -3.903,-2.7681 -4.7971,-1.0129l2.0073 2.1637c-0.8106,2.5872 -1.2998,3.4991 -1.0079,6.383 0.8496,8.3931 9.7736,5.8487 13.2322,9.3708l-14.8219 -1.92c-0.1902,-0.5989 -0.2446,-0.5459 -0.0942,-1.1564 0.1026,-0.4164 0.2199,-0.7221 0.3368,-1.1182 0.2341,-0.7935 0.5103,-1.546 0.5102,-2.429 -0.0008,-5.6014 -9.2835,-3.0573 -12.0458,-2.4625 -1.2406,0.2672 -3.8039,0.6199 -4.5896,1.1454 -2.535,1.6958 0.6838,3.5925 -6.6027,4.4727 -4.0641,0.491 -3.593,-0.1991 -4.3876,-0.9838l-6.3015 1.2087 5.7292 -3.9089c2.5952,-1.0055 5.4606,-1.2586 8.59,-1.0954 3.2975,0.172 1.7231,-0.4988 3.8131,-1.0101 1.6308,-0.3989 3.1844,0.5858 2.6004,-1.7909 -0.355,-1.4446 -0.4474,-3.0014 -0.4149,-4.5265 0.0269,-1.2631 0.4411,-3.5 0.2872,-4.4748 -0.5012,-0.95 -6.074,-3.8322 -0.9581,-5.4096 5.7036,-1.7585 13.1095,0.7419 14.2984,-1.2642 0.5134,-0.8662 1.2164,-2.7849 1.243,-4.0624 0.0729,-3.5102 -3.5683,-3.9538 -6.761,-3.5698 -3.2197,0.3873 -6.3149,1.0631 -9.7251,0.2502 -6.7076,-1.5989 -9.5407,-8.5256 -6.6146,-12.1606 0.9594,-1.1919 4.3539,-3.7243 6.1684,-4.1831l1.1167 2.6143c1.1125,2.1734 4.2836,3.9889 7.1966,2.0964 5.0888,-3.306 2.4043,-10.5829 2.4096,-10.6467l2.1544 -8.7673c-2.3389,-3.4943 -6.5262,-3.666 -8.4065,-4.4539 -0.9394,-0.0959 -2.1563,-0.2212 -1.9995,1.0343 0.1879,1.5042 2.7861,0.544 6.7627,2.7742 1.1464,0.643 2.5052,1.9077 2.6835,3.5258l-2.1648 4.1518c-1.1466,-0.3746 -1.4061,-1.3253 -3.1837,-1.671 -1.4687,-0.2856 -2.7293,0.1423 -3.738,0.8673l-3 6.3171c-3.1016,1.1253 -6.6314,3.6695 -8.024,5.7514 -3.2481,4.8557 0.7019,14.3649 10.5228,15.0865 2.299,0.1689 4.3172,-0.0378 6.4823,-0.378l6.0225 0.4621 -0.7624 3.6873c-4.875,0.4158 -8.6587,-0.846 -13.4439,0.6892 -1.7955,0.5759 -3.463,1.6076 -3.3416,3.8474l3.0057 4.3063c0.0258,1.1654 -0.1993,2.4664 -0.1979,3.7588l0.1332 3.9379c-0.6023,0.2917 -1.3641,0.4001 -1.884,0.668 -0.9948,0.5128 -0.6731,0.6499 -1.9894,0.5454 -5.9422,-0.4714 -11.5354,1.0626 -15.6503,5.0824 -2.9457,2.8777 -0.2692,4.6822 4.0114,3.6768 0.5892,-0.1384 1.6936,-0.5766 2.0938,-0.6222 0.7451,-0.0849 0.9967,0.4273 1.9761,0.6199 2.5225,0.4959 7.1307,-0.2191 8.9419,-1.3248 1.6679,-1.0183 1.2054,-1.5847 2.1246,-3.0591 0.5261,-0.8438 3.1155,-1.0478 4.113,-1.249 2.0549,-0.4145 7.2336,-1.7545 9.03,-0.692 1.8387,1.0874 -0.9558,4.9548 -0.2627,6.3536l1.249 1.4295c-1.8727,0.1808 -10.8755,0.5503 -12.0769,0.8755 -2.0717,0.5609 -0.3285,0.3807 -3.5016,0.7624 0.4536,1.1135 3.5378,0.9484 4.4955,1.032l-0.4526 1.0011 3.2952 0.127 -1.1072 1.459c0.5118,0.1571 4.1431,-0.2135 5.388,-0.1725l4.8181 -1.1196 -3.0447 -0.9151 0.0566 -0.9897c1.4425,-0.3492 4.368,-0.29 6.1827,-0.6138 3.8519,-0.6873 1.5653,-0.7609 5.9411,-0.168 1.8237,0.2471 4.2335,0.7492 5.9461,0.83 2.9242,0.1379 2.9213,-2.1244 1.3613,-3.4791 -4.2524,-3.6927 -11.9961,-1.9856 -12.7323,-7.5933 -0.3834,-2.9205 0.0138,-3.3964 0.9256,-5.8817 2.519,-0.1191 3.8245,1.1866 10.4948,-0.4322 0.3782,-0.0918 1.2096,-0.2679 1.4825,-0.4887 0.4226,-0.3419 0.134,-0.2457 0.7583,-1.2073 3.6327,0.028 5.612,-0.2347 8.2918,-1.7246l4.0886 -5.6345c-1.045,-1.4677 -5.8091,1.21 -12.5351,0.6937 -3.586,-0.2753 -9.2936,-1.1518 -10.1583,-4.1364 -0.5982,-2.0644 1.2295,-4.2429 2.1124,-4.9208 3.7033,-2.8433 6.8732,-1.7709 10.0167,1.019 0.6922,0.6144 1.7435,0.8673 2.0162,-0.3761l-0.1952 -3.4987 3.2947 2.8718 1.1794 -0.0274 0.0289 -6.9209 2.582 5.2815c1.9042,0.3121 1.5995,-0.6385 1.4906,-2.0413z"/>
  <path class="fil2" d="M66.9544 215.338c1.0282,-0.6397 1.8981,-0.5412 3.2237,-0.4067l1.2847 4.7796c0.9002,1.5827 1.5796,2.4224 1.3002,4.7967 -4.1726,-0.9276 -3.8586,-0.4721 -4.5653,-3.1472 -0.4141,-1.5677 -1.518,-4.4258 -1.2433,-6.0224zm20.2355 -7.5904c0.5966,-3.0314 0.9081,-4.6487 1.0129,-8.0404l5.1709 4.5379c0.476,1.5221 -0.9963,2.0791 -2.2575,2.5339 -1.1252,0.4058 -2.5396,0.8591 -3.9263,0.9686zm11.4701 -51.4279c-1.6299,1.4673 -3.2305,2.6985 -3.9171,5.4046 -2.4599,9.6952 12.0842,12.3377 16.045,19.9141 4.7567,9.0988 -6.6481,7.8495 -16.3724,8.7531 -7.1721,0.6665 -7.5981,3.3452 -8.2235,10.1766 -0.3794,4.1448 -0.8113,11.6135 -5.378,12.9112 -4.1983,1.193 -13.1712,-2.9095 -15.6431,0.6039 -2.2516,3.2002 3.1566,8.7628 0.9621,15.2974l-2.3122 -5.0814c-1.356,-3.7118 -2.0932,-11.1451 -4.8084,-17.0193 -4.4132,-9.5477 -13.5922,-12.8167 -14.5823,-14.6162 1.2347,-2.0141 3.4226,-5.2817 4.0217,-7.4461 6.0736,3.5028 5.4997,2.0557 8.695,3.5268 3.7201,1.7127 1.9488,12.7718 8.8995,14.9156 1.352,0.417 3.9162,0.6103 5.3133,0.3093 2.3821,-0.5132 3.019,0.9327 4.4165,1.4639l-3.1957 -2.2089 0.3693 -3.0427c0.0004,-0.9275 -0.1657,-2.5289 0.026,-3.3615 0.4247,-1.8443 4.0118,-0.5998 5.326,-0.3767 2.6444,0.4488 3.0176,-1.633 2.248,-3.7217 -0.6685,-1.8142 -1.7009,-2.6843 -2.8326,-3.78l-0.3097 -0.0369c0.1455,0.6763 1.0521,1.8718 1.437,2.6544l0.6276 3.5639c-0.9958,0.0121 -4.8216,-1.6923 -6.9847,-0.2036l-1.0881 7.5888c-1.2488,1.3227 -5.2417,0.3585 -6.3976,-0.4939 -3.2259,-2.379 -3.4441,-8.0525 -4.6258,-11.4899 -1.6366,-4.7607 -5.4636,-2.9984 -10.0268,-6.2549 -2.8843,-2.0583 -3.034,-0.4294 -4.291,2.1168 -1.0159,2.0576 -2.2684,3.0557 -3.1384,4.9159 -1.982,4.238 5.0588,4.4084 11.3324,12.152 2.491,3.0747 3.85,6.6495 4.9867,11.2972 1.0544,4.3113 1.9233,8.9544 3.3105,12.9813 0.583,1.6925 1.7301,4.5292 4.0317,3.8996l2.4741 -5.7688c0.8297,0.428 2.7879,1.2357 3.8892,1.3426 1.8474,0.1793 2.4132,-1.2012 2.6897,-2.8092l-2.337 -8.3973c2.9459,0.1996 6.3167,0.925 8.8561,-0.4939 4.1627,-2.3258 3.6472,-4.527 4.6772,-5.5282 0.6595,-0.3358 1.84,-0.4441 2.6779,-0.7199 0.8135,-0.2678 1.7196,-0.643 2.4125,-0.9776 1.2746,-0.6155 3.6064,-1.792 3.6194,-3.4417l-6.8514 -7.0005c0.1395,-4.3574 1.8807,-4.9723 5.8657,-5.3926 3.4388,-0.3627 6.8294,-0.4201 10.2742,-0.9095 3.183,-0.4523 6.6955,-1.2231 8.0803,-3.2607 1.8306,-2.6935 0.2014,-6.398 -1.2097,-8.4482 -5.0134,-7.2842 -17.7362,-9.6309 -15.9972,-17.6939 0.3561,-1.6513 1.1167,-2.7755 1.9481,-3.7993 1.0118,-1.2459 1.7177,-1.7484 3.9596,-1.9376 0.8228,0.1538 0.2247,0.1126 0.485,-0.1601 -1.6279,-0.5788 -1.7937,-0.476 -3.4346,0.0837z"/>
  <path class="fil2" d="M164.252 137.289c0.1044,-0.7045 0.446,-0.8423 1.0867,-1.0458 -0.0919,0.7789 -0.3179,1.0445 -1.0867,1.0458zm2.0901 -0.0992c0.2339,-0.9208 1.4695,-2.2042 2.5755,-2.0622 0.1929,1.087 -1.5884,2.0428 -2.5755,2.0622zm1.466 1.1838c0.2675,-0.4828 3.3359,-2.4572 4.0125,-3.0452 1.558,-1.3539 1.2932,-3.2114 3.6652,-3.7516 -0.6354,2.6747 -4.6517,6.6557 -7.6777,6.7968zm2.0519 -6.4984c-0.0257,-1.6125 1.1893,-2.0908 2.9001,-0.3098l-2.9001 0.3098zm3.1626 -1.5765c0.0931,-0.7654 2.8357,-2.0598 3.683,-2.2557 1.3778,-0.3187 4.376,-0.1607 5.9169,-0.0871 2.209,0.1056 3.143,0.3655 3.8219,2.1943l-1.861 3.9741c-2.8205,-0.5143 -6.8125,-4.8413 -8.1854,-4.634 -1.2098,0.1827 -1.6754,1.1532 -3.3754,0.8084zm-4.3333 -6.7263l2.7108 -0.3866c0.461,0.8103 1.3012,1.7367 -0.4022,1.6072 -0.6707,-0.051 -1.9358,-0.7358 -2.3086,-1.2206zm3.4072 -2.3324l0.357 -0.1735c-0.3504,-1.2844 -2.5388,-2.9561 -4.3317,-2.887 -1.0054,0.0387 -1.8204,0.5778 -2.2377,1.359l-0.5134 2.9957c0.0996,0.4399 0.3758,0.2181 1.7619,0.7754 -0.1017,0.699 -0.6224,1.084 0.1879,2.1363 1.1701,1.5197 4.426,2.0038 6.6564,2.6013 -0.0059,0.0167 0.2467,0.4742 -1.0694,0.6629 -1.9357,0.2775 -2.2434,-0.2545 -4.2566,-1.4098 0.3117,0.8876 1.48,1.574 0.7941,2.7644 -0.756,1.3121 -1.411,-0.116 -0.368,2.5696 -2.4556,-0.2648 -1.4214,-1.3413 -3.9742,-1.5919 -1.5936,-0.1563 -2.478,-1.0807 -2.9989,-2.3719 -2.4885,-6.1695 7.3261,-8.1294 -2.1401,-14.8394 -1.9825,-1.4052 -8.1912,-4.6346 -7.1313,-8.9672 0.4153,-1.6978 1.2384,-2.137 2.5265,-2.8342 7.1465,-3.8686 11.3487,4.9093 16.679,0.7585 0.8245,-0.6421 1.576,-2.424 1.4832,-3.9137 -0.1046,-1.6806 -0.9014,-2.9401 -1.4959,-4.1007l-3.2513 -1.3351c-0.2066,1.1892 1.2668,0.6578 2.3874,2.7573 2.0543,3.8489 0.1753,8.5697 -7.3457,4.4756 -2.6163,-1.4242 -6.2448,-1.4132 -8.8792,-0.1356 -2.2291,1.0811 -4.6898,3.5507 -3.5679,6.8835 1.073,3.1878 2.7871,4.3526 4.9333,5.9553 1.7566,1.3117 5.236,3.2703 6.0306,4.9075 0.9224,1.9007 -1.9282,5.9156 -1.8803,8.5149 0.0312,1.6949 0.8167,2.992 1.5964,3.9215l3.5851 1.9823 -3.4964 4.1168c0.3919,0.3863 1.3134,1.3281 1.6502,1.4674 0.7271,0.3006 1.8153,0.2817 2.5889,0.6261 1.5279,0.6801 1.9242,1.0482 4.631,-0.6369 3.4235,-2.1314 3.9272,-3.7283 5.8627,-6.9989 1.3103,-0.0396 5.9993,3.1613 7.3554,3.9772 0.9107,-0.3656 2.5264,-2.1238 3.0457,-2.9122 0.799,-1.2132 -0.3709,-3.5341 -1.1084,-4.2635 -1.7712,-1.7515 -10.3041,-0.5799 -10.7061,-0.681 -0.849,-0.5238 -0.384,-0.675 -1.7847,-0.6473 -2.1235,0.0421 -3.1758,-0.7893 -5.5276,-1.8906 3.5148,0.6167 0.5591,1.7733 6.8155,-0.2117 -2.4862,-0.5262 -1.6374,0.0408 -3.4401,-2.4357 -1.1922,-0.1038 -2.3826,0.3416 -3.5889,0.1544 -1.0247,-0.1591 -1.5829,-1.2369 -0.8705,-2.1762 1.4656,-1.9323 4.1863,0.6711 5.0361,1.0511z"/>
  <path class="fil2" d="M147.516 174.554c-1.4837,-0.6014 -1.5289,-3.1483 -0.9226,-4.6657 0.777,-1.9444 1.8027,-2.3468 3.5876,-1.2097 -1.7422,2.7632 -2.0065,2.7273 -2.665,5.8754zm29.2897 9.5328l5.1718 1.6624c0.0236,-1.8345 -1.8272,-3.5057 -2.7081,-4.2382 -0.9778,-0.8132 -1.9442,-0.6202 -1.8382,-4.8989 -1.1338,0.3713 -1.4426,1.7094 -1.787,2.6824 -0.8261,-0.1851 -4.9531,-2.1124 -8.512,-2.8381l-9.8028 -1.6473c-0.2241,-0.8132 -0.1478,-2.0979 -0.4041,-3.1827 -0.2302,-0.9741 -0.556,-1.7506 -1.0574,-2.5061 -3.8821,-5.849 -10.6654,-3.3672 -11.9477,3.0613 -1.4389,7.214 5.3781,12.6486 10.2452,8.6736 1.696,-1.3851 1.9566,-2.4685 2.8593,-4.4391 5.1776,0.0371 14.5232,4.3108 19.3954,6.3409 0.2185,1.4335 -0.1522,0.8568 0.3856,1.3298z"/>
  <path class="fil2" d="M122.845 137.846c-0.613,-0.3116 -0.4544,-0.9319 0.1194,-1.2987 0.1269,0.5883 0.2613,0.7447 -0.1194,1.2987zm-0.8476 -5.0613c1.1224,-0.2379 1.61,-0.66 2.6372,-1.021 0.6777,1.1674 0.3306,1.3986 1.5937,1.31 0.5505,-0.0387 0.8306,-0.1509 1.4592,-0.092 0.7476,0.0701 0.8415,0.2063 1.1178,0.4631l-6.9863 2.779 0.1784 -3.4391zm-2.7548 -2.0581l0.7861 0.4908c0.123,0.1221 0.9897,1.7045 0.7741,2.6429 -1.1351,0.0418 -1.6952,-2.1134 -1.5602,-3.1337zm10.4873 2.7862c1.2379,-0.7415 2.7518,-1.5046 4.0895,-2.1888 1.3806,-0.7061 3.4554,-2.0838 4.2414,-0.2336l-4.1174 1.6129c-1.5798,0.6988 -2.1556,1.3222 -4.2135,0.8095zm-4.2209 -9.0402c-0.5172,-4.0053 -5.5565,-5.292 -7.4787,-2.1291 -2.3947,3.9405 2.4548,6.4045 3.4976,8.3206l-1.473 -0.9035c-0.4344,-0.87 -0.0448,-1.1278 -1.1468,-1.2249 -1.5353,4.4693 -0.5022,2.3814 -0.1335,4.7496l-1.9217 -1.9292c0.7,4.6346 0.523,3.7811 2.7882,3.6766l-2.2598 0.4504c-2.6656,-2.9317 0.6345,-12.6162 -1.1726,-14.7569 -0.7965,-0.9436 -2.4438,-1.308 -3.9237,-1.6324 -1.7495,-0.3835 -2.735,-0.6769 -4.0201,-1.5213 -0.9325,-0.6127 -2.0044,-1.6625 -2.7415,-2.8103 -0.3613,-0.5627 -0.748,-1.2976 -1.0685,-1.8057 -0.3633,-0.5759 -0.8897,-1.0486 -1.1455,-1.5553l2.0168 -2.3048c0.5338,-1.1552 0.5354,-2.0064 1.6368,-2.6601 1.8397,-1.092 5.5019,-0.3844 7.8002,-0.6473 2.3463,-0.2686 3.7503,-2.0356 4.5338,-3.8274 1.0602,-2.4246 0.4669,-5.0164 -0.235,-7.2036 -0.4764,-0.3464 -1.1292,-0.3872 -1.4184,0.2206 -0.6525,1.3712 3.1951,8.6454 -4.9943,9.416 -3.0555,0.2874 -6.9332,-0.9461 -9.3131,3.4364 -0.3246,0.5977 -0.3869,0.9185 -0.5853,1.5793 -0.8421,1.8347 -0.6469,-0.3835 -1.0879,3.8877 2.1832,0.9337 2.9559,3.8682 4.9248,5.413 2.3037,1.8075 6.9264,1.8883 7.7728,2.6099 1.286,1.0964 0.2446,7.9454 0.4417,9.6373l2.4952 7.9552 2.9451 -0.7003 0.5984 1.6451c1.7353,0.4077 3.8037,-1.2226 4.1575,-2.6651 0.4173,-1.7008 2.1237,-3.31 4.4833,-2.3574 2.735,1.1043 3.7265,-0.8159 7.8514,-2.1498l2.8258 -0.8795c-0.2606,-0.8965 -1.4181,-2.542 -2.0084,-2.7897 -2.4773,-1.0396 -6.5527,2.2238 -7.3104,2.5516l-3.4883 0.775c0.3408,-0.4462 0.6311,-0.4311 1.3169,-0.617l1.2166 -0.9939c-0.7734,-0.4622 -1.4475,-0.0465 -2.7455,0.3712 -1.6179,-1.058 -1.0808,-0.9713 -3.9723,-0.1502 -0.8002,-2.3224 -5.0115,-3.8735 -4.0321,-6.9652 0.4241,-1.3388 2.2545,-2.1286 3.8329,-1.2579l1.3603 4.187c1.2073,0.1271 1.1714,-1.3762 1.1803,-2.4447z"/>
  <path class="fil2" d="M69.6958 137.225c-3.0993,0.3071 0.8016,-2.6458 0.8031,-2.6473 1.3189,-1.3294 0.7952,-1.8516 1.713,-2.5905 0.476,-0.3831 0.5438,-0.3932 0.9471,-0.4093 0.1704,1.137 -1.8432,2.9289 -2.666,4.0693 -0.4962,0.6876 -0.3631,0.9699 -0.7972,1.5778zm4.8646 -7.0184l2.2215 -0.0969c0.2092,0.9733 -1.1555,3.9186 -1.6256,4.8349l-4.053 2.0521 4.1341 -5.9068c-0.7937,-0.72 -0.6363,0.0066 -0.677,-0.8833zm0.0734 -2.3927c0.2263,-2.1322 2.6978,-3.7341 4.3616,-4.6142 7.3561,-3.8911 7.0567,1.6071 5.7508,3.2556 -0.7518,0.9489 -2.3083,0.3298 -3.515,0.0758 -1.0071,-0.2119 -2.7123,-0.7661 -3.7402,-0.5327 -1.4965,0.3397 -1.2722,1.3672 -2.8572,1.8155zm-6.6193 -3.8186c-0.0517,-0.6752 0.9055,-1.6559 1.5613,-1.8247 0.291,-0.0748 2.6849,0.3991 2.9243,0.5408 -0.5671,0.9139 -2.9138,1.8544 -4.4856,1.2839zm2.0325 -4.0415c0.0125,-0.7161 -0.0751,-0.6738 -0.8471,-0.9035 -7.1001,-2.1118 -5.6423,3.7516 -4.863,4.8781l1.8816 0.0741 3.1118 2.346c1.9517,0.0717 3.1685,-0.4155 4.8555,-0.6168l-1.8176 1.44c-1.3867,0.2859 -1.6065,-0.5282 -2.9703,-0.1575l4.7929 2.1068c-0.5517,0.9391 -0.44,0.9335 -1.3376,1.5471 -0.565,0.3861 -1.0955,0.6741 -1.9102,0.7328 -0.8582,0.0619 -1.9135,-0.1549 -2.6714,-0.0091 -0.33,0.0636 -3.5715,1.9571 -5.3638,-2.104 -1.5696,-3.5566 0.8988,-7.0749 -1.6838,-9.2344 -3.0073,-2.5146 -8.7035,-1.7737 -12.3701,-3.9182 -5.5553,-3.2492 -1.8504,-10.4296 6.2918,-9.8507 6.9778,0.4961 9.5802,-3.3153 7.3477,-7.37 -0.6924,-1.2577 -1.6506,-1.8645 -2.6626,-2.7172l-3.6635 -0.011c0.2344,0.7198 0.7367,0.632 1.621,0.8215 3.1434,0.6737 5.9814,5.6246 1.3319,7.391 -3.0605,1.1627 -7.7164,-1.5034 -12.3862,3.1876 -1.7286,1.7365 -3.0981,4.9441 -1.1951,7.7511 3.3075,4.8789 13.2537,3.602 14.9077,6.3857 1.2719,2.1408 -0.1275,6.3241 1.6815,8.8831 2.7016,3.8217 6.1815,1.6146 7.9793,2.0525 0.6214,1.5041 -3.1179,1.9737 -2.8105,4.1489 0.211,1.4932 3.921,1.9615 5.6196,1.6636 3.5296,-0.6192 4.5164,-6.4046 5.3401,-9.1713l-1.5562 -0.8682 0.6443 -1.284c1.3478,-0.1289 3.1287,0.3421 4.4524,0.5889 1.7417,0.3248 2.7618,0.9706 3.78,-0.4483 0.5941,-0.828 1.4879,-2.5545 1.021,-3.9837 -0.2913,-0.8917 -1.7102,-2.2164 -2.6687,-2.5244 -1.7592,-0.5654 -6.3807,1.9959 -7.4105,2.8143 -0.6183,0.4916 -0.6698,0.8547 -1.474,0.7014 -1.0976,-0.2093 -0.7765,0.0502 -1.8627,0.4243l-4.5415 0.2838c0.9796,-0.5125 2.2647,-0.1521 3.3748,-0.9032l1.9293 -2.2804c-1.0284,-0.139 -1.4714,0.2468 -2.3476,0.0195 -2.2332,-0.5794 0.1493,-1.4373 -5.8448,0.9754 -0.7527,-0.7877 -1.1145,-2.0932 0.2317,-2.7858 1.2554,-0.6459 2.6425,0.0749 4.0629,-0.0758z"/>
  <path class="fil2" d="M204.509 161.834c0.6351,1.1769 1.0733,2.638 1.5779,3.9551 0.4502,1.1749 1.5292,2.9385 0.9291,4.1876l-6.2763 -0.2698 -5.2236 -2.4472c-0.3647,-0.0867 -0.6333,-0.1948 -0.9376,-0.225 -0.7734,-0.0768 -0.8404,0.0787 -0.8411,0.0788l-0.3238 0.1335c0.1993,0.2814 0.0998,0.2823 0.8124,0.5651 0.4969,0.1972 0.576,0.1758 0.9452,0.4378 2.5753,0.5181 6.1692,4.8781 12.439,3.7815 3.7945,-0.6637 1.9822,-3.1699 1.2761,-4.5708 -0.8534,-1.6929 -2.0777,-3.8221 -2.7201,-5.5401 -0.4034,-0.8141 -0.7303,-1.405 -1.1425,-2.228 -0.4186,-0.8357 -0.5841,-1.704 -1.4712,-2.007 -0.5943,1.0299 0.6157,3.031 0.9565,4.1485z"/>
  <path class="fil2" d="M91.5799 146.449c-0.2124,4.1388 -2.4934,10.4458 -6.0202,12.858l-1.5485 1.1815c3.0066,1.1969 5.5978,-1.8805 6.6768,-3.5691 1.6735,-2.619 2.5421,-4.6443 2.5596,-8.4513 -0.3071,-1.8281 -0.2033,-1.4073 -1.1827,-2.9651 -0.26,0.2593 -0.121,0.0432 -0.3342,0.4767 -0.0534,0.1087 -0.1319,0.4128 -0.1508,0.4693z"/>
  <path class="fil2" d="M158.71 160.517c-0.0139,1.0361 -0.4735,3.7678 0.5096,4.0589 1.6551,0.4901 1.4508,-2.069 1.4804,-3.2357 0.0942,-3.7208 -0.4499,-5.2424 -1.0616,-8.3981 -0.2383,-0.7862 -1.1031,-3.1657 -1.591,-3.5644 -0.6463,-0.5284 -1.4443,-0.2135 -1.6322,0.4255 -0.3,1.0203 2.1731,3.6243 2.2948,10.7138z"/>
  <path class="fil2" d="M174.395 171.761c-3.7777,1.2715 -8.8616,-0.6576 -8.6362,1.5564 0.108,1.0614 1.4367,0.8787 2.5395,0.8779 5.4541,-0.004 7.1347,-0.413 11.8245,-1.9455 0.9949,-0.6326 1.6531,-0.7326 1.1116,-2.1916 -1.4075,-0.5539 -1.7506,0.3643 -3.1703,0.8603 -1.011,0.3532 -2.5778,0.7268 -3.6691,0.8425z"/>
  <path class="fil2" d="M196.033 179.261c-0.6763,0.4895 -1.638,0.8108 -2.4821,1.0791 -2.1373,0.6795 -1.9674,0.1718 -2.1671,1.3046 1.1875,0.7743 4.3276,-0.1006 5.689,-0.2834 0.4971,-0.4456 1.3002,-0.6881 2.0211,-1.2058 3.1891,-2.2905 2.3956,-2.2471 6.0094,-3.9593 -0.4322,-2.3735 -3.5252,-0.3814 -4.6622,0.2861 -1.2674,0.7442 -3.1059,2.4521 -4.4081,2.7787z"/>
  <path class="fil2" d="M59.989 173.512c0.5223,-0.9532 2.6054,-2.9749 4.024,-3.714 2.0825,-1.085 4.3171,-0.7933 6.1257,-1.5486 -0.3741,-1.3977 -3.7604,-1.0824 -5.2608,-1.1134 -2.2976,0.7395 -3.4016,1.3505 -4.7432,2.8958 -0.6602,0.7604 -2.7172,3.6292 -2.503,5.1734 0.8736,0.0452 1.7996,-1.2211 2.3573,-1.6932z"/>
  <path class="fil2" d="M212.634 162.155c-0.0052,3.2445 -0.4173,5.3097 -0.9262,8.4098 1.1912,-0.0298 1.2722,-0.536 1.788,-1.2484 1.7689,-2.4428 1.6854,-3.8935 1.3934,-7.1434 -0.1364,-1.0276 -0.3499,-2.0387 -0.5565,-3.0113 -0.1085,-0.511 -0.1927,-0.9729 -0.3158,-1.478 -0.1936,-0.7946 -0.1429,-0.6168 -0.8008,-1.1881 -0.9067,1.0921 -0.5165,4.0528 -0.5821,5.6594z"/>
  <path class="fil2" d="M200.396 188.409c-0.3711,1.2523 -1.4179,3.1689 -1.3161,4.4415 1.4876,0.3851 2.3988,-0.6565 3.0411,-1.4216 0.8722,-1.4422 1.0865,-2.8042 1.4027,-4.7115 0.2205,-1.3303 0.9805,-4.131 0.2076,-5.1547 -1.0206,0.8174 -0.7131,0.4211 -1.1527,1.5298 -0.4879,1.2301 -1.7529,4.6159 -2.1826,5.3165z"/>
  <path class="fil2" d="M148.615 156.872l1.3905 3.0471c2.8706,0.3477 0.9608,-3.1589 0.2371,-4.3251 -0.9897,-1.595 -2.1008,-2.7696 -3.2282,-3.9207 -2.4095,-1.6918 -0.57,-1.0793 -3.9901,-1.8403 -0.5927,1.5998 0.2651,1.4187 2.6877,3.4911 0.7796,0.6668 2.4623,2.4038 2.903,3.5479z"/>
  <path class="fil2" d="M77.4025 148.353l-0.5486 14.0469c0.5326,-0.1718 0.5135,-0.2443 0.7651,-0.8278 1.3478,-3.1253 1.6169,-6.8656 1.55,-10.2014 -0.0268,-0.5359 -0.3706,-3.0357 -0.6825,-3.468l-0.8127 -0.7341 -0.2713 1.1844z"/>
  <path class="fil2" d="M167.292 166.675c-0.3029,0.9157 -1.575,2.5893 -0.779,3.2666 1.3023,1.1081 1.9772,-1.1794 2.3747,-1.9221 0.5654,-1.0562 3.1068,-5.1689 3.877,-5.6387l0.87 -2.4574c-1.4364,-0.9394 -1.8756,0.1142 -3.6023,2.6124 -0.9025,1.3057 -1.8082,2.9373 -2.7404,4.1392z"/>
  <path class="fil2" d="M182.735 99.2691c-0.2611,2.0023 -0.5536,3.0945 -1.3153,4.6651l-1.9598 3.8284c1.4644,0.3329 1.4595,-1.2351 3.7577,-0.3812 0.6627,0.2462 2.9068,1.1871 3.3281,1.503l1.6092 -0.5263 -5.4954 -2.5294c-0.0375,-0.6588 2.0064,-6.3831 1.2733,-7.9355l-0.7232 -0.8976 -0.4746 2.2735z"/>
  <path class="fil2" d="M67.3822 182.254c-0.1808,0.9923 -0.7482,2.1711 -0.3707,3.243 0.9606,-0.0902 1.3992,-1.5148 1.9341,-2.3043 0.3635,-1.0916 1.5569,-3.0235 2.1929,-3.9373l2.7281 -3.677c-1.8751,0.0068 -3.3725,1.5989 -4.0991,2.4785 -1.6951,2.0519 -1.6607,3.1517 -2.3853,4.1971z"/>
  <path class="fil2" d="M120.368 94.5814c-0.1306,2.0703 1.8025,4.5509 2.0519,5.2617l0.6122 1.8381 0.5806 0.0268c0.3913,-0.4161 1.1251,-2.4229 1.5256,-3.228l2.0973 -2.8341 -0.1082 -0.517c-1.0068,-0.8125 -1.4867,0.8428 -1.855,1.3389 -0.9359,1.2603 -0.3917,0.0892 -1.3535,2.2279 -0.8261,-0.2651 -1.2148,-1.834 -1.5601,-2.5696 -0.3354,-0.7144 -1.0746,-3.0383 -1.9908,-1.5447z"/>
  <path class="fil2" d="M203.888 193.488c0.2097,2.1871 -0.7064,3.2588 -0.6237,4.4867 1.3964,0.2966 2.3983,-1.3487 2.8275,-2.5605 0.0278,-1.601 0.0731,-2.2436 -0.1042,-3.9108 -0.2168,-2.0387 0.058,-2.7194 -0.8247,-3.4592l-1.2749 5.4438z"/>
  <path class="fil2" d="M63.031 158.692c0.6028,0.185 1.5578,0.8313 2.2299,1.161 0.8608,0.4224 1.5683,0.739 2.4413,1.1279 2.0715,0.9227 2.2888,1.1708 4.9057,2.2248 -0.2681,-1.8231 -1.5937,-2.1889 -2.2575,-3.2802l-7.6338 -2.2538c-0.0179,0.0419 -0.0322,0.0677 -0.0324,0.1327l-0.0045 0.3729c0.0597,0.2085 0.2114,0.3189 0.3513,0.5147z"/>
  <path class="fil2" d="M81.2164 114.212l0.5575 0.1224c0.9559,-1.0663 0.4116,-2.179 -0.0316,-3.155 -1.1739,-0.7525 -2.665,-1.6826 -3.9924,-2.4664 -0.9979,-0.5893 -3.1829,-2.2081 -4.5309,-1.0711l2.4234 1.377c3.7175,1.8355 4.246,1.445 5.574,5.1931z"/>
  <path class="fil2" d="M184.242 116.404c1.3488,1.5346 0.2511,3.289 0.7298,4.105 0.9904,0.4879 1.5798,-1.4654 1.4336,-2.6587 -0.1525,-1.2439 -1.117,-2.09 -1.615,-2.8933 -1.4884,-1.0417 -2.4653,-4.4074 -4.7118,-3.9177 0.3821,0.8598 1.5611,1.7874 2.2377,2.6305 0.5766,0.7185 1.6219,1.8704 1.9257,2.7342z"/>
  <path class="fil2" d="M79.0707 103.376c0.5246,-0.4042 0.3457,-0.1103 0.5416,-0.8096l-0.6245 -0.134c-3.5813,-0.7688 -9.3862,0.2068 -7.8581,2.504l3.3963 -1.4367c1.8458,-0.0815 2.5671,0.4509 4.5447,-0.1237z"/>
  <path class="fil2" d="M221.448 179.849c-0.6882,0.6238 -0.8139,2.2214 -0.9875,3.216 -0.2338,1.3399 0.2864,2.4164 1.6634,2.1864 1.8925,-0.3161 0.8998,-5.2877 -0.6759,-5.4024z"/>
  <path class="fil2" d="M129.257 100.618c0.5447,-0.4466 0.439,-0.1836 0.4477,-1.0655 -1.237,-0.0802 -1.7067,0.5388 -2.9114,0.849l0.6893 -2.4533 0.0116 -0.6824c-2.3802,-0.3031 -1.8385,4.019 -1.8242,5.4071 0.9901,0.4476 2.0527,-0.9552 3.587,-2.0549z"/>
  <path class="fil2" d="M176.745 97.9498c0.1442,1.6372 -0.2306,3.322 -0.0964,4.5629 2.6125,0.4587 1.1866,-5.4084 1.0233,-6.9299 -0.053,-0.2571 -0.1059,-0.6651 -0.1804,-0.8921 -0.25,-0.7608 -0.1138,-0.5121 -0.6033,-0.6841 -0.548,0.9 -0.1754,2.8066 -0.1432,3.9432z"/>
  <path class="fil2" d="M72.7141 96.8577c-0.2411,-0.8151 -0.7225,-3.059 -1.7861,-2.3082 -0.0438,0.5671 0.991,6.7272 1.1209,6.9861 2.1601,0.2792 0.9423,-3.4207 0.6652,-4.6779z"/>
  <path class="fil2" d="M64.8515 94.2062c-0.3847,-0.243 -0.218,-0.2049 -0.6769,-0.2796 -0.237,1.4911 0.7331,2.7827 1.3147,3.954 1.3023,2.6228 -0.2247,0.7439 1.906,3.4564 1.5793,-2.3663 -1.8765,-5.6685 -2.5438,-7.1308z"/>
  <path class="fil2" d="M93.8339 174.444c-1.149,-0.1396 -1.612,0.6634 -1.9682,1.5609 -0.2737,0.6895 -0.6958,2.5211 0.1312,2.991 1.3579,0.7716 2.9788,-2.5722 1.837,-4.5519z"/>
  <path class="fil2" d="M132.292 108.655c1.9824,0.2513 1.4547,0.6856 2.9005,0.213 0.7214,-1.4828 -4.5293,-1.9952 -6.1092,-1.7192 -0.5124,0.5497 -0.606,0.3039 -0.4686,1.2093 1.0966,0.5406 2.7462,-0.054 3.6773,0.2969z"/>
  <path class="fil2" d="M73.8428 187.651l-0.2307 1.8311c1.0775,-0.1205 1.7092,-1.4425 2.1401,-2.412 0.4493,-0.8987 1.4245,-2.529 0.9228,-3.5901 -1.2774,0.3708 -2.1991,3.0134 -2.8322,4.171z"/>
  <path class="fil2" d="M127.103 119.45c1.4834,0.7 2.2351,2.2211 2.6821,2.7305l1.1129 0.8567c0.904,-1.4153 -1.9509,-3.6788 -2.6554,-4.4815 -0.525,-0.4361 -1.0828,-0.7585 -1.8447,-0.3918l-0.0629 0.2451c-0.0005,0.0277 -0.01,0.0891 -0.0066,0.1192 0.0592,0.5313 0.3716,0.5177 0.7746,0.9218z"/>
  <path class="fil2" d="M126.98 125.887c0.5067,0.3845 0.0317,0.2062 0.6964,0.1724 0.7326,-1.3819 -0.1754,-5.2412 -0.9316,-6.2001 -1.9519,-1.1886 -0.6098,1.7418 -0.3988,2.3636 0.5176,1.5258 0.3949,2.0045 0.634,3.6641z"/>
  <path class="fil2" d="M179.405 119.071c1.1024,0.599 1.3017,1.5969 2.518,1.6218 0.0003,-1.0518 -0.6978,-1.6295 -1.0761,-2.2851 -0.9248,-0.4764 -2.7253,-2.3324 -4.3121,-1.6564 0.1835,1.1952 2.1517,1.5383 2.8702,2.3197z"/>
  <path class="fil2" d="M130.32 117.146c0.8482,0.293 1.8264,1.0326 2.7926,0.9432 0.3102,-1.3545 -3.3964,-3.2764 -4.5777,-3.2225 -0.472,0.1904 -0.4809,0.2277 -0.6888,0.6515 0.462,0.6848 1.7933,1.0271 2.4739,1.6278z"/>
  <path class="fil2" d="M77.2218 115.806l1.1947 -0.0467 0.0494 -0.5517c-1.4997,-0.9248 -2.308,-1.8287 -4.838,-1.5038 -0.8077,0.1038 -1.0562,0.1474 -1.2476,0.7403 1.1035,0.3002 4.1832,0.9759 4.8415,1.3619z"/>
  <path class="fil2" d="M73.574 119.005c0.6221,0.196 1.0517,0.4448 1.7791,0.3462l-0.0687 -0.6577c-0.8926,-0.48 -1.3916,-1.0154 -2.7041,-1.3838 -1.0532,-0.2956 -2.8652,-0.5161 -3.2177,0.5351 0.725,0.8077 3.0477,0.6261 4.2114,1.1602z"/>
  <path class="fil2" d="M174.782 120.835c0.4527,0.249 0.9749,0.5862 1.2914,0.8709 0.5121,0.4607 0.5196,0.9032 1.2175,0.6532 0.2597,-0.7189 -0.9256,-1.9522 -1.2649,-2.3955 -0.8035,-0.4784 -2.4841,-1.9919 -3.8857,-1.0445 0.3809,0.5962 1.9717,1.3096 2.6417,1.9159z"/>
  <path class="fil2" d="M207.811 196.052l-0.1608 1.4576c0.8063,-0.3634 0.617,-0.7127 1.5417,-1.0208 0.6761,-0.8827 3.7039,-1.7384 2.7967,-3.1133 -0.7287,-0.0923 -0.5908,-0.1781 -1.1818,0.2749 -0.8171,0.6261 -2.4002,2.0603 -2.9958,2.4016z"/>
  <path class="fil2" d="M165.751 109.802c1.1537,-0.1151 1.1599,-0.8951 1.1146,-1.9818 -0.0358,-0.8603 -0.0844,-1.9008 -0.8932,-2.0855 -0.7754,1.0324 -0.856,3.0525 -0.2214,4.0673z"/>
  <path class="fil2" d="M60.1199 112.035c0.4997,-1.3924 -0.6945,-4.3999 -1.654,-3.2914 -0.3686,0.4259 0.0126,1.7564 0.2116,2.2162 0.3108,0.7181 0.5474,1.1487 1.4424,1.0752z"/>
  <path class="fil2" d="M111.974 139.646l2.2395 0.5263c-0.0375,-0.6832 -0.6595,-1.4617 -0.9653,-2.1831l-0.7829 -2.3959c-0.1774,0.2512 -0.2189,0.395 -0.2426,0.8517 -0.0234,0.4536 0.0714,0.847 0.0622,1.2744 -0.0208,0.969 -0.4091,0.9053 -0.3109,1.9266z"/>
  <path class="fil2" d="M115.82 107.785c-0.6792,1.2943 1.6834,3.2732 2.4924,4.0698 0.1795,-0.9614 -0.3865,-1.6598 -0.7737,-2.4899 -0.3782,-0.8104 -0.7277,-1.9555 -1.7187,-1.5799z"/>
  <path class="fil2" d="M122.836 141.843c-0.7295,0.0637 -0.8175,0.3567 -1.5794,0.2957 -0.8613,-0.0688 -0.7274,-0.5665 -1.5278,-0.3914 -0.4373,2.4799 3.0558,1.6749 3.1072,0.0957z"/>
  <path class="fil2" d="M131.86 112.099l0.8568 -0.34c-0.24,-0.4962 -0.3672,-0.5075 -0.9904,-0.6491 -0.5358,-0.1217 -1.0669,-0.1722 -1.5784,-0.2185l-0.9827 0.0424c-0.0928,1.1952 1.6064,1.3049 2.6947,1.1652z"/>
  <path class="fil2" d="M114.255 138.369c0.1466,-0.4791 0.0319,-0.9126 -0.0457,-1.3591 -0.1535,-0.8835 -0.0532,-0.6405 -0.6701,-1.2059 -0.1298,0.1871 -0.5381,-0.3277 -0.048,1.5623 0.0382,0.1476 0.103,0.5474 0.1988,0.7078 0.3813,0.639 -0.0377,0.2609 0.565,0.2949z"/>
  <path class="fil2" d="M119.047 141.83c-0.1573,-0.3563 -2.1978,-1.358 -2.7118,-1.6516 0.0836,1.3983 1.9069,1.9676 2.7118,1.6516z"/>
  <path class="fil2" d="M74.501 119.993c0.1681,0.1386 -0.1505,-0.0238 0.3228,0.2255 1.2093,0.6372 0.8805,0.3529 1.7681,2.2022 0.4963,-1.414 -0.8888,-3.0713 -2.0909,-2.4277z"/>
  <path class="fil2" d="M75.0644 122.482l-1.2487 -2.1167c0.4644,0.9839 0.3461,-0.0929 1.0669,1.7652 0.1784,0.4599 0.0698,0.1895 0.1818,0.3515z"/>
  <path class="fil3" d="M93.8339 174.444c1.1418,1.9797 -0.4791,5.3235 -1.837,4.5519 -0.827,-0.4699 -0.4049,-2.3015 -0.1312,-2.991 0.3562,-0.8975 0.8192,-1.7005 1.9682,-1.5609zm-14.6649 -23.0731c0.0669,3.3358 -0.2022,7.0761 -1.55,10.2014 -0.2516,0.5835 -0.2325,0.656 -0.7651,0.8278l0.5486 -14.0469c-0.0253,0.0619 -0.0904,0.3091 -0.0979,0.3258 -0.0128,0.0289 -0.0362,0.0865 -0.0514,0.1178 -0.0163,0.0332 -0.0477,0.0887 -0.0645,0.1203l-0.1558 0.244c-0.7283,-0.7714 -1.762,-2.359 -3.248,-1.0923 -1.5455,1.3174 -2.3399,5.3453 -2.6945,7.3617 -0.2158,1.2272 -0.673,3.3788 -0.74,4.4953 0.6638,1.0913 1.9894,1.4571 2.2575,3.2802 -2.6169,-1.054 -2.8342,-1.3021 -4.9057,-2.2248 -0.873,-0.3889 -1.5805,-0.7055 -2.4413,-1.1279 -0.6721,-0.3297 -1.6271,-0.976 -2.2299,-1.161 0.1557,1.6853 0.4392,2.7551 0.802,4.2062 0.3566,1.4266 0.9549,2.7233 1.0449,4.2377 1.5004,0.031 4.8867,-0.2843 5.2608,1.1134 -1.8086,0.7553 -4.0432,0.4636 -6.1257,1.5486 -1.4186,0.7391 -3.5017,2.7608 -4.024,3.714l0.091 0.563c-0.0073,0.3044 -0.0629,0.7112 -0.0766,1.0402 -0.3891,9.3216 2.5741,6.9332 7.3788,7.1387 0.7246,-1.0454 0.6902,-2.1452 2.3853,-4.1971 0.7266,-0.8796 2.224,-2.4717 4.0991,-2.4785l-2.7281 3.677c-0.636,0.9138 -1.8294,2.8457 -2.1929,3.9373 0.6978,0.7571 0.7497,3.0056 1.1079,3.5762 0.4712,0.751 1.8906,0.3713 2.889,0.4246 1.1701,0.0625 0.7776,-0.1652 0.9003,0.4573 0.6331,-1.1576 1.5548,-3.8002 2.8322,-4.171 0.5017,1.0611 -0.4735,2.6914 -0.9228,3.5901 0.8,-0.0853 1.1566,-0.0918 1.608,0.4327 0.0098,0.0114 0.4133,0.6842 0.4157,0.6911 0.3662,1.0335 0.1384,0.5211 -0.0588,0.7481 1.1317,1.0957 2.1641,1.9658 2.8326,3.78 0.7696,2.0887 0.3964,4.1705 -2.248,3.7217 -1.3142,-0.2231 -4.9013,-1.4676 -5.326,0.3767 -0.1917,0.8326 -0.0256,2.434 -0.026,3.3615l-0.3693 3.0427 3.1957 2.2089c-1.3975,-0.5312 -2.0344,-1.9771 -4.4165,-1.4639 -1.3971,0.301 -3.9613,0.1077 -5.3133,-0.3093 -6.9507,-2.1438 -5.1794,-13.2029 -8.8995,-14.9156 -3.1953,-1.4711 -2.6214,-0.024 -8.695,-3.5268 -0.5991,2.1644 -2.787,5.432 -4.0217,7.4461 0.9901,1.7995 10.1691,5.0685 14.5823,14.6162 2.7152,5.8742 3.4524,13.3075 4.8084,17.0193l2.3122 5.0814c2.1945,-6.5346 -3.2137,-12.0972 -0.9621,-15.2974 2.4719,-3.5134 11.4448,0.5891 15.6431,-0.6039 4.5667,-1.2977 4.9986,-8.7664 5.378,-12.9112 0.6254,-6.8314 1.0514,-9.5101 8.2235,-10.1766 9.7243,-0.9036 21.1291,0.3457 16.3724,-8.7531 -3.9608,-7.5764 -18.5049,-10.2189 -16.045,-19.9141 0.6866,-2.7061 2.2872,-3.9373 3.9171,-5.4046 -0.5867,0.109 -0.3451,-0.6006 -0.3905,-1.214 -0.1152,-1.5571 -0.6061,-2.3951 -1.5544,-3.4291 -0.4412,-0.481 -2.6958,-2.9243 -3.4675,-3.208 -0.0175,3.807 -0.8861,5.8323 -2.5596,8.4513 -1.079,1.6886 -3.6702,4.766 -6.6768,3.5691l1.5485 -1.1815c3.5268,-2.4122 5.8078,-8.7192 6.0202,-12.858 -2.429,-1.3322 -3.1926,-4.5449 -6.4778,0.227 -0.6832,0.9924 -1.4956,2.3763 -2.2194,3.328 -1.4963,1.9671 -1.9062,2.0627 -3.7137,1.3662z"/>
  <path class="fil3" d="M148.615 156.872c-0.2497,0.1474 0.4262,0.5275 -1.15,-0.4593 -1.3475,-0.8436 -2.933,-1.2804 -4.5829,-1.4515 -4.4169,-0.4579 -5.2107,0.546 -7.3348,0.3171 1.8803,0.7879 6.0676,0.9596 8.4065,4.4539l-2.1544 8.7673c-0.0053,0.0638 2.6792,7.3407 -2.4096,10.6467 -2.913,1.8925 -6.0841,0.077 -7.1966,-2.0964l-1.1167 -2.6143c-1.8145,0.4588 -5.209,2.9912 -6.1684,4.1831 -2.9261,3.635 -0.093,10.5617 6.6146,12.1606 3.4102,0.8129 6.5054,0.1371 9.7251,-0.2502 3.1927,-0.384 6.8339,0.0596 6.761,3.5698 -0.0266,1.2775 -0.7296,3.1962 -1.243,4.0624 -1.1889,2.0061 -8.5948,-0.4943 -14.2984,1.2642 -5.1159,1.5774 0.4569,4.4596 0.9581,5.4096 0.1539,0.9748 -0.2603,3.2117 -0.2872,4.4748 -0.0325,1.5251 0.0599,3.0819 0.4149,4.5265 0.584,2.3767 -0.9696,1.392 -2.6004,1.7909 -2.09,0.5113 -0.5156,1.1821 -3.8131,1.0101 -3.1294,-0.1632 -5.9948,0.0899 -8.59,1.0954l-5.7292 3.9089 6.3015 -1.2087c0.7946,0.7847 0.3235,1.4748 4.3876,0.9838 7.2865,-0.8802 4.0677,-2.7769 6.6027,-4.4727 0.7857,-0.5255 3.349,-0.8782 4.5896,-1.1454 2.7623,-0.5948 12.045,-3.1389 12.0458,2.4625 0.0001,0.883 -0.2761,1.6355 -0.5102,2.429 -0.1169,0.3961 -0.2342,0.7018 -0.3368,1.1182 -0.1504,0.6105 -0.096,0.5575 0.0942,1.1564l14.8219 1.92c-3.4586,-3.5221 -12.3826,-0.9777 -13.2322,-9.3708 -0.2919,-2.8839 0.1973,-3.7958 1.0079,-6.383l-2.0073 -2.1637c0.8941,-1.7552 2.1683,0.6901 4.7971,1.0129l6.9479 0.1031 -1.0194 -0.694 -0.1575 -1.1503c0.2877,-1.134 6.1644,-0.0026 8.1107,-0.4893l6.1943 -2.5255c-0.4089,-0.2501 -4.7697,0.0556 -5.8439,0.0519 -4.4294,-0.0151 -12.5571,-0.7537 -14.3602,-5.0355 -2.2539,-5.3521 4.9839,-10.619 8.9971,-9.6873l4.6715 1.7601 -0.919 -4.0619 5.9659 2.4983 -1.5912 -7.0047c1.3889,-1.7568 4.8808,1.9196 6.0271,4.099 0.3623,0.6891 0.7532,2.1459 1.0952,2.6225 -0.0325,-0.7455 0.3831,-1.4814 0.5872,-2.1677 0.1363,-0.4581 0.1931,-0.7523 0.3017,-1.1449 0.1793,-0.6479 0.2165,-0.4889 0.416,-1.0672 -0.5378,-0.473 -0.1671,0.1037 -0.3856,-1.3298 -4.8722,-2.0301 -14.2178,-6.3038 -19.3954,-6.3409 -0.9027,1.9706 -1.1633,3.054 -2.8593,4.4391 -4.8671,3.975 -11.6841,-1.4596 -10.2452,-8.6736 1.2823,-6.4285 8.0656,-8.9103 11.9477,-3.0613 0.5014,0.7555 0.8272,1.532 1.0574,2.5061 0.2563,1.0848 0.18,2.3695 0.4041,3.1827l9.8028 1.6473c3.5589,0.7257 7.6859,2.653 8.512,2.8381 0.3444,-0.973 0.6532,-2.3111 1.787,-2.6824 0.4467,-0.7635 0.8956,-1.2702 1.3561,-2.0943 0.3402,-0.609 0.8178,-1.8046 1.335,-2.2677 -4.6898,1.5325 -6.3704,1.9415 -11.8245,1.9455 -1.1028,0.0008 -2.4315,0.1835 -2.5395,-0.8779 -0.2254,-2.214 4.8585,-0.2849 8.6362,-1.5564l-0.8147 -0.0504 -0.8153 -9.3299c-0.7702,0.4698 -3.3116,4.5825 -3.877,5.6387 -0.3975,0.7427 -1.0724,3.0302 -2.3747,1.9221 -0.796,-0.6773 0.4761,-2.3509 0.779,-3.2666 -0.3246,-0.7209 -0.4934,-3.1266 -0.8936,-4.3554 -0.5034,-1.5454 -0.8292,-2.5074 -1.5695,-3.7688 -1.0563,-1.8 -3.2824,-4.6713 -5.1904,-5.6091 0.6117,3.1557 1.1558,4.6773 1.0616,8.3981 -0.0296,1.1667 0.1747,3.7258 -1.4804,3.2357 -0.9831,-0.2911 -0.5235,-3.0228 -0.5096,-4.0589 -0.328,-0.2201 -0.3578,-0.2777 -0.6445,-0.7775 -0.6976,-1.2165 -0.6112,-1.0881 -1.5743,-2.1611 -2.8516,-3.1772 -6.005,-4.1676 -9.4767,-5.9048 1.1274,1.1511 2.2385,2.3257 3.2282,3.9207 0.7237,1.1662 2.6335,4.6728 -0.2371,4.3251l-1.3905 -3.0471z"/>
  <path class="fil3" d="M221.448 179.849c1.5757,0.1147 2.5684,5.0863 0.6759,5.4024 -1.377,0.23 -1.8972,-0.8465 -1.6634,-2.1864 0.1736,-0.9946 0.2993,-2.5922 0.9875,-3.216zm-26.2766 -11.599c-0.6984,2.3591 -1.1696,2.7686 -0.669,5.7356 0.3128,1.854 1.3228,3.8064 1.5307,5.2759 1.3022,-0.3266 3.1407,-2.0345 4.4081,-2.7787 1.137,-0.6675 4.23,-2.6596 4.6622,-0.2861 -3.6138,1.7122 -2.8203,1.6688 -6.0094,3.9593 -0.7209,0.5177 -1.524,0.7602 -2.0211,1.2058 0.2022,0.8192 1.1738,2.5466 1.6149,3.4694 0.4545,0.9508 1.6018,2.7189 1.7085,3.5782 0.4297,-0.7006 1.6947,-4.0864 2.1826,-5.3165 0.4396,-1.1087 0.1321,-0.7124 1.1527,-1.5298 0.7729,1.0237 0.0129,3.8244 -0.2076,5.1547 -0.3162,1.9073 -0.5305,3.2693 -1.4027,4.7115 0.6214,0.2666 1.2503,1.5206 1.767,2.0594l1.2749 -5.4438c0.8827,0.7398 0.6079,1.4205 0.8247,3.4592 0.1773,1.6672 0.132,2.3098 0.1042,3.9108 0.5569,0.0897 1.2659,0.4041 1.7188,0.6376 0.5956,-0.3413 2.1787,-1.7755 2.9958,-2.4016 0.591,-0.453 0.4531,-0.3672 1.1818,-0.2749 0.9072,1.3749 -2.1206,2.2306 -2.7967,3.1133 0.7386,-0.0802 1.5398,0.0226 2.0365,0.3074 1.0327,-0.5824 1.952,-1.0273 3.1981,-0.1598 3.3006,2.2981 2.0155,1.9559 1.449,3.5338 -0.1251,0.5959 -0.1503,1.0894 -0.2951,1.6563 -0.279,1.0918 -0.6127,2.16 -0.9016,3.2177 -0.2866,1.049 -0.567,2.2742 -0.8944,3.2252 -0.5142,1.4934 -0.9596,1.4747 -1.4976,2.4724l1.5758 2.2176c1.1797,1.4326 -0.4301,0.5379 1.8127,1.9496 2.6147,1.6457 1.4706,3.6638 2.3726,5.1246l-0.6817 -5.354 2.1064 -0.7158c1.041,-0.4816 3.3199,-2.5766 1.5205,-5.1362 1.7024,-0.4101 4.3711,-0.6 4.4687,-2.8648l-4.0363 1.7462c-1.6937,0.2998 -3.1496,-0.5948 -3.1078,-2.0746l3.9105 0.889c1.4101,-0.7399 2.5417,-1.146 2.8679,-2.8961 -6.3683,0.6928 -2.9819,0.2888 -5.7019,-0.1256 -0.7072,-0.1077 -0.757,0.0729 -1.3423,0.009 -0.3892,-0.0426 -0.1163,0.0356 -0.3476,-0.1197 -0.0863,-0.8032 -0.1563,-0.9243 1.8259,-1.2205 -0.9393,-2.3001 -2.0278,-3.7467 -0.2153,-5.9151 1.0566,-1.264 3.1685,-1.9892 5.0798,-2.7799 2.9238,-1.2095 2.5001,-1.5472 2.9374,-4.97 0.2936,-2.2972 0.626,-5.1412 0.4054,-7.4821 -0.6614,-7.0208 -3.763,-3.0226 -8.4336,-7.3377 -2.1506,-1.9869 -2.323,-2.8509 -2.5744,-5.234 -0.3693,-3.5009 0.1323,-2.5307 1.6911,-6.0085 -0.6202,0.052 -1.1847,0.035 -1.8078,0.0342 -0.2212,-0.0002 -0.7122,0.0164 -0.9021,-0.0016 -0.9813,-0.0929 -0.379,0.1341 -0.8214,-0.3028 0.292,3.2499 0.3755,4.7006 -1.3934,7.1434 -0.5158,0.7124 -0.5968,1.2186 -1.788,1.2484 0.5089,-3.1001 0.921,-5.1653 0.9262,-8.4098 -0.5029,0.1613 -5.5064,-0.1317 -6.4676,-0.2349 0.6424,1.718 1.8667,3.8472 2.7201,5.5401 0.7061,1.4009 2.5184,3.9071 -1.2761,4.5708 -6.2698,1.0966 -9.8637,-3.2634 -12.439,-3.7815z"/>
  <path class="fil3" d="M60.1199 112.035c-0.895,0.0735 -1.1316,-0.3571 -1.4424,-1.0752 -0.199,-0.4598 -0.5802,-1.7903 -0.2116,-2.2162 0.9595,-1.1085 2.1537,1.899 1.654,3.2914zm-0.2891 -15.8379c1.012,0.8527 1.9702,1.4595 2.6626,2.7172 2.2325,4.0547 -0.3699,7.8661 -7.3477,7.37 -8.1422,-0.5789 -11.8471,6.6015 -6.2918,9.8507 3.6666,2.1445 9.3628,1.4036 12.3701,3.9182 2.5826,2.1595 0.1142,5.6778 1.6838,9.2344 1.7923,4.0611 5.0338,2.1676 5.3638,2.104 0.7579,-0.1458 1.8132,0.071 2.6714,0.0091 0.8147,-0.0587 1.3452,-0.3467 1.9102,-0.7328 0.8976,-0.6136 0.7859,-0.608 1.3376,-1.5471l-4.7929 -2.1068c1.3638,-0.3707 1.5836,0.4434 2.9703,0.1575l1.8176 -1.44c-1.687,0.2013 -2.9038,0.6885 -4.8555,0.6168l-3.1118 -2.346 -1.8816 -0.0741c-0.7793,-1.1265 -2.2371,-6.9899 4.863,-4.8781 0.772,0.2297 0.8596,0.1874 0.8471,0.9035 0.4488,-0.5222 0.0068,-0.1957 0.5341,-0.5137 0.0646,-0.0388 0.7056,-0.2804 0.7712,-0.2953 0.6426,-0.1461 1.5458,-0.1302 2.2217,-0.1402 -1.1637,-0.5341 -3.4864,-0.3525 -4.2114,-1.1602 0.3525,-1.0512 2.1645,-0.8307 3.2177,-0.5351 1.3125,0.3684 1.8115,0.9038 2.7041,1.3838 0.0692,-1.7673 1.1401,-1.8482 1.9374,-2.8876 -0.6583,-0.386 -3.738,-1.0617 -4.8415,-1.3619 0.1914,-0.5929 0.4399,-0.6365 1.2476,-0.7403 2.53,-0.3249 3.3383,0.579 4.838,1.5038 1.0047,-1.0683 0.8947,-1.052 2.7505,-0.9952 -1.328,-3.7481 -1.8565,-3.3576 -5.574,-5.1931l-2.4234 -1.377c1.348,-1.137 3.533,0.4818 4.5309,1.0711 1.3274,0.7838 2.8185,1.7139 3.9924,2.4664 -0.7297,-2.9328 -3.6609,-3.5608 -2.6716,-7.8034 -1.9776,0.5746 -2.6989,0.0422 -4.5447,0.1237l-3.3963 1.4367c-1.5281,-2.2972 4.2768,-3.2728 7.8581,-2.504 -0.4365,-1.6292 -2.7596,-2.8001 -4.5068,-4.2226 -0.9527,-0.7757 -0.9707,-1.1343 -1.7669,-1.3523 0.2771,1.2572 1.4949,4.9571 -0.6652,4.6779 -0.1299,-0.2589 -1.1647,-6.419 -1.1209,-6.9861 -1.8028,1.2081 -4.1659,0.175 -6.0765,-0.3433 0.6673,1.4623 4.1231,4.7645 2.5438,7.1308 -2.1307,-2.7125 -0.6037,-0.8336 -1.906,-3.4564 -0.5816,-1.1713 -1.5517,-2.4629 -1.3147,-3.954 -0.3285,0.5482 0.0297,0.5038 -0.6327,0.9679 -1.0235,0.7171 -2.7896,0.9108 -3.7111,1.3031z"/>
  <path class="fil3" d="M165.751 109.802c-0.6346,-1.0148 -0.554,-3.0349 0.2214,-4.0673 0.8088,0.1847 0.8574,1.2252 0.8932,2.0855 0.0453,1.0867 0.0391,1.8667 -1.1146,1.9818zm6.3456 11.4385c0.8039,0.4674 1.9047,-0.2826 2.685,-0.4055 -0.67,-0.6063 -2.2608,-1.3197 -2.6417,-1.9159 1.4016,-0.9474 3.0822,0.5661 3.8857,1.0445 0.1386,-0.4165 -0.1513,-0.2033 0.5131,-0.4955 0.2437,-0.1071 0.5743,-0.1542 0.8777,-0.2102 0.741,-0.1368 1.1469,-0.1632 1.9887,-0.1866 -0.7185,-0.7814 -2.6867,-1.1245 -2.8702,-2.3197 1.5868,-0.676 3.3873,1.18 4.3121,1.6564l-0.0135 -1.4336c0.6852,-0.0775 1.1787,-0.1126 1.7679,-0.2259 0.5929,-0.1141 1.0368,-0.3067 1.6408,-0.3442 -0.3038,-0.8638 -1.3491,-2.0157 -1.9257,-2.7342 -0.6766,-0.8431 -1.8556,-1.7707 -2.2377,-2.6305 2.2465,-0.4897 3.2234,2.876 4.7118,3.9177 0.0811,-1.589 0.1396,-1.9503 0.7506,-3.1286 0.4608,-0.8889 1.0949,-1.8473 1.0043,-2.9439 -0.4213,-0.3159 -2.6654,-1.2568 -3.3281,-1.503 -2.2982,-0.8539 -2.2933,0.7141 -3.7577,0.3812l1.9598 -3.8284c0.7617,-1.5706 1.0542,-2.6628 1.3153,-4.6651 -0.9874,-0.4173 -1.4209,-1.4055 -2.167,-2.1063 -0.5861,-0.5505 -1.8064,-1.6342 -2.7333,-1.1355l-0.1624 -0.4445c0.1633,1.5215 1.5892,7.3886 -1.0233,6.9299 -0.1342,-1.2409 0.2406,-2.9257 0.0964,-4.5629 -0.5545,-0.2361 -1.5287,-1.1743 -2.2531,-1.6899 -1.0245,-0.7293 -1.2258,-0.9827 -2.4667,-1.486 0.5945,1.1606 1.3913,2.4201 1.4959,4.1007 0.0928,1.4897 -0.6587,3.2716 -1.4832,3.9137 -5.3303,4.1508 -9.5325,-4.6271 -16.679,-0.7585 -1.2881,0.6972 -2.1112,1.1364 -2.5265,2.8342 -1.0599,4.3326 5.1488,7.562 7.1313,8.9672 9.4662,6.71 -0.3484,8.6699 2.1401,14.8394 0.5209,1.2912 1.4053,2.2156 2.9989,2.3719 2.5528,0.2506 1.5186,1.3271 3.9742,1.5919 -1.043,-2.6856 -0.388,-1.2575 0.368,-2.5696 0.6859,-1.1904 -0.4824,-1.8768 -0.7941,-2.7644 2.0132,1.1553 2.3209,1.6873 4.2566,1.4098 1.3161,-0.1887 1.0635,-0.6462 1.0694,-0.6629 -2.2304,-0.5975 -5.4863,-1.0816 -6.6564,-2.6013 -0.8103,-1.0523 -0.2896,-1.4373 -0.1879,-2.1363 -1.3861,-0.5573 -1.6623,-0.3355 -1.7619,-0.7754l0.5134 -2.9957c0.4173,-0.7812 1.2323,-1.3203 2.2377,-1.359 1.7929,-0.0691 3.9813,1.6026 4.3317,2.887l-0.357 0.1735z"/>
  <path class="fil3" d="M117.538 109.365c0.3872,0.8301 0.9532,1.5285 0.7737,2.4899 -0.809,-0.7966 -3.1716,-2.7755 -2.4924,-4.0698 0.991,-0.3756 1.3405,0.7695 1.7187,1.5799zm1.5234 -14.6072c0.7019,2.1872 1.2952,4.779 0.235,7.2036 -0.7835,1.7918 -2.1875,3.5588 -4.5338,3.8274 -2.2983,0.2629 -5.9605,-0.4447 -7.8002,0.6473 -1.1014,0.6537 -1.103,1.5049 -1.6368,2.6601l-2.0168 2.3048c0.2558,0.5067 0.7822,0.9794 1.1455,1.5553 0.3205,0.5081 0.7072,1.243 1.0685,1.8057 0.7371,1.1478 1.809,2.1976 2.7415,2.8103 1.2851,0.8444 2.2706,1.1378 4.0201,1.5213 1.4799,0.3244 3.1272,0.6888 3.9237,1.6324 1.8071,2.1407 -1.493,11.8252 1.1726,14.7569l2.2598 -0.4504c-2.2652,0.1045 -2.0882,0.958 -2.7882,-3.6766l1.9217 1.9292c-0.3687,-2.3682 -1.4018,-0.2803 0.1335,-4.7496 1.102,0.0971 0.7124,0.3549 1.1468,1.2249l1.473 0.9035c-1.0428,-1.9161 -5.8923,-4.3801 -3.4976,-8.3206 1.9222,-3.1629 6.9615,-1.8762 7.4787,2.1291l1.2501 0.1328 0.2213 1.2816c-0.2391,-1.6596 -0.1164,-2.1383 -0.634,-3.6641 -0.211,-0.6218 -1.5531,-3.5522 0.3988,-2.3636 0.0744,-0.7582 -0.3263,-0.4003 0.3578,-0.4094 -0.403,-0.4041 -0.7154,-0.3905 -0.7746,-0.9218 -0.0034,-0.0301 0.0061,-0.0915 0.0066,-0.1192l0.0629 -0.2451c0.7619,-0.3667 1.3197,-0.0443 1.8447,0.3918l-0.068 -0.5287c1.1966,-0.2196 1.3607,-0.5644 2.1453,-0.8811 -0.6806,-0.6007 -2.0119,-0.943 -2.4739,-1.6278 0.2079,-0.4238 0.2168,-0.4611 0.6888,-0.6515 0.2381,-1.1944 0.8735,-1.1853 1.467,-1.8454 0.1767,-0.1965 0.0312,-0.0119 0.2319,-0.3076l0.3076 -0.4776 1.3189 -0.1367c-1.0883,0.1397 -2.7875,0.03 -2.6947,-1.1652l0.9827 -0.0424c0.002,-1.2413 1.0572,-1.0138 2.118,-1.5173l0.0261 -0.7191c-0.9311,-0.3509 -2.5807,0.2437 -3.6773,-0.2969 -0.1374,-0.9054 -0.0438,-0.6596 0.4686,-1.2093 -0.0575,-2.4596 1.845,-4.3597 0.6614,-5.8701 -0.4995,-0.6374 -0.1873,0.1481 -0.4876,-0.6606 -1.5343,1.0997 -2.5969,2.5025 -3.587,2.0549 -0.0143,-1.3881 -0.556,-5.7102 1.8242,-5.4071l-0.0116 0.6824c0.2373,-0.3811 0.1609,-0.4947 0.2944,-0.9274 0.1173,-0.3807 0.193,-0.4184 0.1945,-1.0133 -0.6455,-0.5279 -0.3268,-0.2101 -0.8446,-0.8787l0.1082 0.517 -2.0973 2.8341c-0.4005,0.8051 -1.1343,2.8119 -1.5256,3.228l-0.5806 -0.0268 -0.6122 -1.8381c-0.2494,-0.7108 -2.1825,-3.1914 -2.0519,-5.2617l-1.3059 0.1764z"/>
  <path class="fil3" d="M230.921 191.727c3.7316,-0.6976 5.7858,-1.7816 6.7348,-5.5866 0.6235,-2.5001 -2.2257,-6.2903 -4.5628,-7.4647 -0.9511,-0.4779 -3.4898,-1.5737 -4.4589,-1.5419 -0.3238,1.1954 0.7186,3.8244 0.8671,5.3265 0.1923,1.9447 -0.1057,3.9119 -0.3397,5.7435 -0.5414,4.237 -0.5389,3.9529 1.7595,3.5232z"/>
  <path class="fil3" d="M193.595 207.753c-0.1914,0.822 1.0537,6.819 1.4281,7.5862l5.4496 -1.0387c6.5884,-1.2938 4.7952,-0.5017 5.3579,-3.8015 0.211,-0.8099 0.5041,-1.3519 0.0045,-2.0356 -0.547,-0.7486 -1.9603,-1.5205 -3.3528,-1.4833 -1.2842,0.0342 -2.911,0.4479 -4.2862,0.574 -1.2303,0.1128 -3.6652,-0.1031 -4.6011,0.1989z"/>
  <path class="fil3" d="M195.516 167.259l5.2236 2.4472 6.2763 0.2698c0.6001,-1.2491 -0.4789,-3.0127 -0.9291,-4.1876 -0.5046,-1.3171 -0.9428,-2.7782 -1.5779,-3.9551 -0.0124,0.9621 -0.1324,0.0175 -2.6551,1.0414 -2.5087,1.0183 -3.3622,1.8724 -5.2166,3.7211 -0.5841,0.5823 -0.3804,0.6509 -1.1212,0.6632z"/>
  <path class="fil3" d="M173.023 130.299c1.7,0.3448 2.1656,-0.6257 3.3754,-0.8084 1.3729,-0.2073 5.3649,4.1197 8.1854,4.634l1.861 -3.9741c-0.6789,-1.8288 -1.6129,-2.0887 -3.8219,-2.1943 -1.5409,-0.0736 -4.5391,-0.2316 -5.9169,0.0871 -0.8473,0.1959 -3.5899,1.4903 -3.683,2.2557z"/>
  <path class="fil3" d="M66.9544 215.338c-0.2747,1.5966 0.8292,4.4547 1.2433,6.0224 0.7067,2.6751 0.3927,2.2196 4.5653,3.1472 0.2794,-2.3743 -0.4,-3.214 -1.3002,-4.7967l-1.2847 -4.7796c-1.3256,-0.1345 -2.1955,-0.233 -3.2237,0.4067z"/>
  <path class="fil3" d="M74.6338 127.814c1.585,-0.4483 1.3607,-1.4758 2.8572,-1.8155 1.0279,-0.2334 2.7331,0.3208 3.7402,0.5327 1.2067,0.254 2.7632,0.8731 3.515,-0.0758 1.3059,-1.6485 1.6053,-7.1467 -5.7508,-3.2556 -1.6638,0.8801 -4.1353,2.482 -4.3616,4.6142z"/>
  <path class="fil3" d="M87.1899 207.748c1.3867,-0.1095 2.8011,-0.5628 3.9263,-0.9686 1.2612,-0.4548 2.7335,-1.0118 2.2575,-2.5339l-5.1709 -4.5379c-0.1048,3.3917 -0.4163,5.009 -1.0129,8.0404z"/>
  <path class="fil3" d="M216.511 225.732c0.9413,0.2657 2.4011,-1.201 3.0607,-1.6515 0.9917,-0.6772 1.9628,-1.26 2.8789,-1.9505 2.3063,-1.7384 4.3472,-3.1352 3.5054,-5.5193l-4.9846 4.3976c-0.8446,0.6825 -4.3324,2.6986 -4.4604,4.7237z"/>
  <path class="fil3" d="M121.997 132.784l-0.1784 3.4391 6.9863 -2.779c-0.2763,-0.2568 -0.3702,-0.393 -1.1178,-0.4631 -0.6286,-0.0589 -0.9087,0.0533 -1.4592,0.092 -1.2631,0.0886 -0.916,-0.1426 -1.5937,-1.31 -1.0272,0.361 -1.5148,0.7831 -2.6372,1.021z"/>
  <path class="fil3" d="M218.196 111.892c-2.2278,1.372 0.2795,5.0187 2.1849,3.9904 2.0152,-1.0874 0.2567,-5.4941 -2.1849,-3.9904z"/>
  <path class="fil3" d="M75.1563 134.945c0.4701,-0.9163 1.8348,-3.8616 1.6256,-4.8349l-2.2215 0.0969c0.0407,0.8899 -0.1167,0.1633 0.677,0.8833l-4.1341 5.9068 4.053 -2.0521z"/>
  <path class="fil3" d="M207.873 215.23c-0.3948,2.0553 -0.1403,2.9509 0.7689,4.5601 0.4975,0.8804 1.5086,2.793 2.5558,2.9176 -0.8233,-2.898 -1.3404,-6.4242 -3.3247,-7.4777z"/>
  <path class="fil3" d="M129.73 133.513c2.0579,0.5127 2.6337,-0.1107 4.2135,-0.8095l4.1174 -1.6129c-0.786,-1.8502 -2.8608,-0.4725 -4.2414,0.2336 -1.3377,0.6842 -2.8516,1.4473 -4.0895,2.1888z"/>
  <path class="fil3" d="M167.808 138.374c3.026,-0.1411 7.0423,-4.1221 7.6777,-6.7968 -2.372,0.5402 -2.1072,2.3977 -3.6652,3.7516 -0.6766,0.588 -3.745,2.5624 -4.0125,3.0452z"/>
  <path class="fil3" d="M69.6958 137.225c0.4341,-0.6079 0.301,-0.8902 0.7972,-1.5778 0.8228,-1.1404 2.8364,-2.9323 2.666,-4.0693 -0.4033,0.0161 -0.4711,0.0262 -0.9471,0.4093 -0.9178,0.7389 -0.3941,1.2611 -1.713,2.5905 -0.0015,0.0015 -3.9024,2.9544 -0.8031,2.6473z"/>
  <path class="fil3" d="M68.0145 123.996c1.5718,0.5705 3.9185,-0.37 4.4856,-1.2839 -0.2394,-0.1417 -2.6333,-0.6156 -2.9243,-0.5408 -0.6558,0.1688 -1.613,1.1495 -1.5613,1.8247z"/>
  <path class="fil3" d="M211.801 215.03c-0.7301,-0.1964 -1.4038,-0.4192 -2.1632,-0.5116 0.4419,1.5926 2.7122,2.013 4.3026,1.2502 -0.7798,-0.5214 -1.026,-0.4391 -2.1394,-0.7386z"/>
  <path class="fil3" d="M168.69 123.572c0.3728,0.4848 1.6379,1.1696 2.3086,1.2206 1.7034,0.1295 0.8632,-0.7969 0.4022,-1.6072l-2.7108 0.3866z"/>
  <path class="fil3" d="M120.803 133.86c0.2156,-0.9384 -0.6511,-2.5208 -0.7741,-2.6429l-0.7861 -0.4908c-0.135,1.0203 0.4251,3.1755 1.5602,3.1337z"/>
  <path class="fil3" d="M172.76 131.565c-1.7108,-1.781 -2.9258,-1.3027 -2.9001,0.3098l2.9001 -0.3098z"/>
  <path class="fil3" d="M166.342 137.19c0.9871,-0.0194 2.7684,-0.9752 2.5755,-2.0622 -1.106,-0.142 -2.3416,1.1414 -2.5755,2.0622z"/>
  <path class="fil4" d="M220.295 220.314c0.627,0.2111 0.4235,0.1655 0.936,-0.2985 0.741,-0.671 1.9011,-1.4453 1.9652,-2.2632 -1.6045,1.0937 -1.1233,0.7508 -2.3966,1.8276 -0.4534,0.3834 -0.4803,0.1915 -0.5046,0.7341z"/>
  <path class="fil5" d="M101.61 156.396c0.2497,0.3136 1.02,0.7162 2.0244,1.691 -0.1833,-0.6524 -0.8896,-1.5882 -1.5394,-1.8511 -0.2603,0.2727 0.3378,0.3139 -0.485,0.1601z"/>
 </g>
</svg>
