<?xml version="1.0" encoding="UTF-8"?>
<!DOCTYPE svg PUBLIC "-//W3C//DTD SVG 1.1//EN" "http://www.w3.org/Graphics/SVG/1.1/DTD/svg11.dtd">
<!-- Creator: CorelDRAW -->
<svg xmlns="http://www.w3.org/2000/svg" xml:space="preserve" width="30.1752mm" height="32.639mm" style="shape-rendering:geometricPrecision; text-rendering:geometricPrecision; image-rendering:optimizeQuality; fill-rule:evenodd; clip-rule:evenodd"
viewBox="0 0 30.1752 32.639"
 xmlns:xlink="http://www.w3.org/1999/xlink">
 <defs>
  <style type="text/css">
   <![CDATA[
    .fil1 {fill:#020202}
    .fil0 {fill:#FDFEFD}
   ]]>
  </style>
 </defs>
 <g id="Capa_x0020_1">
  <metadata id="CorelCorpID_0Corel-Layer"/>
  <g id="_450911560">
   <g>
    <path id="_450927472" class="fil0" d="M8.8907 28.8425c0.0751,0.2655 -0.1663,0.2917 -0.2746,0.199 -0.1899,-0.1626 0.0783,-0.2574 0.2746,-0.199zm0.5646 0.1031c0.114,-0.1515 0.4021,-0.1567 0.5616,-0.0647 -0.0011,0.2514 -0.4831,0.3056 -0.5616,0.0647zm1.4871 -0.4228c0.5927,-0.1192 0.5843,0.2935 -0.012,0.4334 -0.1719,0.0403 -0.5181,0.0798 -0.4703,-0.1955 0.0348,-0.2009 0.3224,-0.2058 0.4823,-0.2379zm1.3567 -0.4165c0.5033,-0.1501 0.5244,0.3739 -0.1415,0.5275 -0.4901,0.1129 -0.6324,-0.2965 0.1415,-0.5275zm-3.4531 0.0444c0.1599,0.2466 -0.0777,0.3798 -0.23,0.2754 -0.1393,-0.0955 -0.0609,-0.3584 0.23,-0.2754zm4.5879 -0.4664c0.4321,-0.112 0.3897,0.446 -0.121,0.5511 -0.4068,0.0838 -0.4951,-0.3914 0.121,-0.5511zm-4.2373 -0.9325c0.0224,0.1331 -0.2731,1.1693 -0.4815,0.9558 -0.1152,-0.1179 0.0538,-0.4543 0.1083,-0.5911 0.0816,-0.2045 0.1256,-0.4586 0.3732,-0.3647zm3.4507 -0.1698c0.5049,-0.1225 0.7817,0.0955 0.3058,0.2411 -0.8911,0.2726 -1.3089,0.4263 -1.9727,1.1725 -0.3099,0.3483 -0.5217,0.1426 -0.2784,-0.201 0.1112,-0.157 0.3635,-0.4127 0.5125,-0.5355 0.4428,-0.3648 0.8875,-0.5449 1.4328,-0.6771zm3.1548 -0.1361c0.3248,-0.1396 0.4883,0.1184 0.2341,0.3189 -0.2584,0.2037 -1.3605,0.8673 -1.5815,0.9423 -0.2799,0.095 -0.5146,-0.1275 -0.2586,-0.3374l1.606 -0.9238zm-6.0252 -0.7774c-0.0783,-0.1993 0.0318,-0.3802 0.2397,-0.2396 0.059,0.2072 -0.0263,0.3067 -0.2397,0.2396zm3.8932 -0.7013c0.2537,-0.0289 0.692,-0.0562 0.9413,-0.0267 0.4098,0.0485 0.2364,0.2873 -0.1353,0.3503 -0.5479,0.093 -1.0553,0.1673 -1.6014,0.2894 -2.3107,0.5168 -2.7038,1.7148 -2.9206,1.8183 -0.6033,0.2881 0.2064,-2.0324 3.716,-2.4313zm4.2647 -0.189c0.3024,-0.1512 0.4249,0.1446 0.2078,0.3683 -0.228,0.235 -1.1805,1.0118 -1.3913,1.0954 -0.3126,0.124 -0.4226,-0.1629 -0.2047,-0.3621l1.3882 -1.1016zm-7.4956 0.3857c-0.1779,-0.4558 1.9246,-1.5401 2.2175,-1.2428 0.2015,0.2046 -0.3393,0.3138 -0.4658,0.3569 -0.2173,0.0741 -0.4143,0.1709 -0.6174,0.2744 -0.5854,0.2982 -0.9052,0.7048 -1.1343,0.6115zm3.4167 -1.9415c0.3825,-0.1668 0.5901,0.3411 0.2419,0.5202 -0.3498,0.1799 -0.6152,-0.3573 -0.2419,-0.5202zm5.0822 -0.4686c0.0079,0.2238 -0.4696,0.3434 -0.6574,0.4339 -2.2011,1.0611 -1.7645,2.0516 -2.746,2.7269 -0.214,0.1472 -1.3479,0.8234 -1.5368,0.5264 -0.1522,-0.2393 0.4854,-0.3401 0.6773,-0.4186 1.5737,-0.6439 0.8805,-1.738 2.7187,-2.7521 0.283,-0.1561 1.2733,-0.7143 1.5442,-0.5165zm-1.2708 -0.7101c0.0224,0.2619 -0.2729,0.226 -0.815,0.4167 -0.2949,0.1037 -0.5701,0.2255 -0.8328,0.4071 -0.2925,0.2023 -0.427,0.3347 -0.6302,0.6122 -0.1075,0.1466 -0.3566,0.8594 -0.5559,0.514 -0.2271,-0.3935 0.6725,-1.2489 0.9826,-1.4455 0.3532,-0.2239 1.469,-0.6972 1.8513,-0.5045zm0.8521 2.4536c-0.0622,-0.3116 0.4871,-0.6432 0.7057,-0.8295 0.5358,-0.4567 1.1123,-1.0781 1.5937,-1.5877 0.153,-0.162 0.6627,-0.8736 0.8615,-0.5511 0.1266,0.2053 -0.4841,0.7475 -0.6295,0.8993 -0.2668,0.2783 -0.4962,0.5439 -0.777,0.8143 -0.2552,0.2455 -0.5438,0.5371 -0.8155,0.7749 -0.2259,0.1977 -0.6085,0.6508 -0.9389,0.4798zm3.3573 -3.6836c0.2471,-0.2439 0.4289,0.1605 0.2258,0.3023 -0.1701,0.1189 -0.4716,-0.0598 -0.2258,-0.3023zm0.6957 -0.7623c0.1275,0.2482 -0.1724,0.5172 -0.3209,0.362 -0.0936,-0.0979 0.0112,-0.5005 0.3209,-0.362zm-2.0522 -0.5338c-0.0969,0.2418 -1.1182,0.2736 -1.4825,1.2086 -0.3573,0.917 0.5867,1.0184 0.4936,1.2983 -0.1666,0.5005 -1.5802,-0.5516 -0.6665,-1.8207 0.3931,-0.546 1.4583,-1.0916 1.6554,-0.6862zm2.2718 -0.273c0.467,-0.0453 0.2245,0.3841 0.092,0.4414 -0.289,0.1251 -0.3023,-0.2175 -0.092,-0.4414zm-1.2765 -0.8511c0.3521,-0.3039 0.3153,0.5257 0.2916,0.6892 -0.1136,0.7854 -0.7277,1.6848 -1.4242,1.8352 -0.1351,0.0292 -0.3727,0.0122 -0.324,-0.1808 0.0575,-0.228 0.8808,-0.1928 1.2928,-1.4302 0.0801,-0.2405 0.0791,-0.8404 0.1638,-0.9134zm-1.1432 -0.3313c0.3702,-0.1353 0.4542,0.3874 0.1614,0.4823 -0.3606,0.1169 -0.4837,-0.3645 -0.1614,-0.4823zm3.2128 -0.2061c0.1328,-0.1002 0.2335,-0.0335 0.2279,0.1443 -0.0051,0.1595 -0.3627,0.8529 -0.5016,0.9142 -0.1406,0.0621 -0.247,-0.0188 -0.2408,-0.1669 0.0044,-0.1084 0.3679,-0.781 0.5145,-0.8916zm0.9386 -1.2925c0.0831,0.2341 -0.2225,0.7092 -0.4085,0.5467 -0.1392,-0.1216 0.0942,-0.7233 0.4085,-0.5467zm-2.6798 0.9188c-0.0467,-0.1751 0.0598,-0.6652 0.0541,-0.9144 -0.0202,-0.8714 -0.6169,-2.4509 0.026,-2.3072l0.3148 1.7799c0.0376,0.2549 0.1713,1.7524 -0.3949,1.4417zm3.2497 -3.8157c0.3577,-0.3847 0.5181,0.8657 -0.0964,1.7277 -0.8343,1.1703 -2.0747,1.2078 -1.7665,0.7988 0.0962,-0.1276 0.6472,-0.1538 1.1767,-0.6898 0.919,-0.9302 0.5005,-1.637 0.6862,-1.8367zm-1.5454 0.1588c0.6919,-0.1884 0.9145,0.8735 0.2415,1.021 -0.6758,0.148 -0.9078,-0.8395 -0.2415,-1.021zm2.1588 -0.5252c-0.3098,-0.1307 -0.1143,-0.4897 -0.0473,-0.7707 0.045,-0.1884 0.0792,-0.713 0.2867,-0.7368 0.3077,-0.0354 0.1039,0.6594 0.0671,0.8239 -0.0525,0.2355 -0.0786,0.5701 -0.3065,0.6836zm-2.3137 -0.5478c0.2353,0.5253 -1.3211,0.6679 -1.5939,-0.4987 -0.0652,-0.2786 0.0754,-0.5601 0.2712,-0.3173 0.0364,0.0451 0.1526,0.3876 0.2309,0.5096 0.339,0.5277 0.7704,0.1842 1.0918,0.3064zm1.8844 -1.2974c0.7385,0.0153 -0.489,1.3454 -0.8676,1.4164 -0.2474,0.0464 -0.3239,-0.1635 -0.0898,-0.326 0.7758,-0.5385 0.6144,-0.7585 0.9574,-1.0904zm-2.3534 -0.0327c0.3103,-0.0856 0.568,0.2017 0.8828,-0.2056 0.1932,-0.2499 0.1088,-0.597 -0.1397,-0.756 -0.4321,-0.2766 -0.8087,0.2906 -0.8839,-0.0636 -0.0634,-0.2989 0.4974,-0.4341 0.711,-0.427 0.6626,0.0221 1.0629,0.7705 0.7606,1.3482 -0.3708,0.7086 -1.5024,0.6308 -1.3308,0.104zm2.0975 -2.2518c0.4051,-0.2857 0.9075,1.6419 0.6442,1.8537 -0.4218,0.3393 -0.1599,-0.5644 -0.5995,-1.4204 -0.0882,-0.1717 -0.2271,-0.3047 -0.0447,-0.4333zm1.2244 -0.7135c0.3779,-0.3031 0.2616,0.7006 0.2555,0.8571 -0.0085,0.217 -0.0077,0.9854 -0.1558,1.1096 -0.355,0.2979 -0.2208,-0.6995 -0.2171,-0.8386 0.0065,-0.2424 -0.0529,-0.9914 0.1174,-1.1281zm0.0904 -1.3549c0.3448,-0.1743 0.3152,0.8578 0.0806,0.9421 -0.3448,0.124 -0.3049,-0.8287 -0.0806,-0.9421zm-1.759 1.3223c-0.117,-0.1902 0.1149,-0.622 0.1728,-0.8432 0.0791,-0.3024 0.1304,-0.5836 0.1629,-0.8959 0.0375,-0.3604 0.0475,-0.695 0.03,-1.0579 -0.0059,-0.1227 -0.0431,-0.443 -0.0154,-0.5413 0.0462,-0.1637 0.2139,-0.2017 0.3098,-0.0396 0.2323,0.3926 0.057,2.1638 -0.1862,2.8757 -0.0764,0.2237 -0.1773,0.6698 -0.4739,0.5022zm1.8631 -4.1509c0.1264,0.177 0.0942,1.0999 0.108,1.3774 0.0104,0.2094 0.1692,1.2847 -0.2418,1.1281 -0.1943,-0.0741 -0.138,-1.1141 -0.1443,-1.3456 -0.0149,-0.5524 -0.1259,-1.2283 0.2781,-1.1599zm-2.6814 1.613c0.5331,-0.3217 -0.0095,1.4232 -0.0524,1.5831 -0.0716,0.2674 -0.426,1.3729 -0.6684,1.4677 -0.1639,0.064 -0.2523,-0.0667 -0.2236,-0.2252 0.0154,-0.0848 0.1229,-0.2947 0.1634,-0.3809 0.3461,-0.7368 0.6234,-2.3496 0.781,-2.4447zm2.4734 -2.0667c-0.0742,-0.2152 0.0464,-0.393 0.2624,-0.2601l0.0335 0.2039c-0.1339,0.1256 -0.1376,0.1518 -0.2959,0.0562zm-18.376 19.3406c0.0576,-0.8374 0.3539,-0.9963 0.0928,-2.4596 -0.2756,-1.5444 -1.0429,-2.7642 -0.6039,-4.7211 0.1473,-0.6567 0.4418,-1.4016 0.6743,-2.0556 -0.4123,-0.109 -1.0035,1.7673 -1.0817,2.1099 -0.6734,2.9525 1.1364,4.1977 0.4063,7.0847l-0.3121 1.2637c0.2149,0.1459 0.3409,-0.0253 0.4911,-0.1929 0.3651,-0.4072 0.8698,-0.8305 1.3333,-1.1134 0.7115,-0.4343 1.5631,-0.7087 2.3788,-0.876 2.8609,-0.5868 2.4136,-0.2217 5.3265,-1.1836 0.06,0.2223 -0.3964,0.3366 -0.5769,0.4202 -0.2415,0.1119 -0.4944,0.2021 -0.7411,0.3039 -1.5145,0.6252 -2.9013,0.8429 -4.4271,1.9401 -0.8109,0.5832 -1.5295,1.3411 -1.9951,2.2332 -0.2527,0.4841 -0.4668,0.9961 -0.572,1.5345l0.0958 1.861c0.4651,0.1226 1.9443,-0.0019 2.466,-0.0887 0.7367,-0.1226 1.3644,-0.2884 2.0706,-0.5248 2.967,-0.993 5.5373,-3.1317 7.6972,-5.3415 0.8041,-0.8227 0.4725,-0.5543 1.4321,-1.1961 0.3825,0.2767 -0.0489,0.6355 -0.2616,0.8921 -1.4915,1.7996 -3.681,3.6517 -5.6056,4.8702 -1.2885,0.8158 -2.7325,1.4269 -4.2196,1.7616 -2.288,0.515 -3.149,0.2668 -5.2798,0.1443 -0.0719,0.4426 0.5546,0.4806 0.9084,0.5537 0.4607,0.0952 0.9194,0.1477 1.3894,0.1664 2.6513,0.1058 5.0454,-0.5991 7.3197,-1.9647 2.3696,-1.4227 4.8187,-3.66 6.4379,-5.9003 1.8137,-2.5093 3.3359,-5.0981 4.2704,-8.0673 0.559,-1.7763 0.821,-3.324 1.0062,-5.1721l-0.3954 -5.5507c-0.1879,0.1656 -0.0528,0.8903 -0.0341,1.1491 0.2993,4.1445 -0.3449,8.3373 -2.1114,12.1126 -0.4293,0.9173 -1.2899,2.5518 -1.9556,3.2822 -0.1628,0.1787 -0.6624,0.5715 -0.6906,0.0806 -0.017,-0.2959 0.2955,-0.5572 0.4578,-0.8175 1.1184,-1.7936 1.8743,-3.2336 2.5472,-5.2901 1.0318,-3.1529 1.2371,-5.9721 1.1041,-9.2698 -0.0169,-0.4205 -0.0299,-0.841 -0.0385,-1.2617 -0.0056,-0.2777 0.2237,-0.9755 -0.0946,-1.0446 -0.3222,-0.0701 -1.4972,0.6024 -1.8077,0.8053 -2.3259,1.5204 -3.5127,3.8901 -3.8877,6.5914 -0.2263,1.63 0.0096,3.3497 -0.2979,4.9393 -0.532,2.751 -2.204,4.684 -4.8559,5.58 -1.4813,0.5005 -2.8375,0.6226 -4.3535,0.8843 -1.6087,0.2777 -2.4084,0.5223 -3.7065,1.5278z"/>
    <path id="_450927160" class="fil0" d="M2.8655 23.4693c-0.0698,-0.4037 0.3656,-0.1047 0.9891,-0.5824 0.3825,-0.2931 0.5669,-0.9757 0.7555,-0.6269 0.2476,0.458 -1.1366,1.6216 -1.7446,1.2093zm-1.445 -2.1452c0.1341,0.1516 0.1227,0.4495 0.1821,0.6511 0.2669,0.9054 0.7525,1.078 0.7526,1.2702 0,0.3401 -0.5655,0.1758 -0.9558,-0.7634 -0.1045,-0.2514 -0.4398,-1.1405 0.0211,-1.1579zm0.6937 -0.0286c0.2204,-0.1153 0.3246,0.4631 0.5265,0.6847 0.3487,0.383 0.8031,0.4085 0.5287,0.608 -0.4601,0.3345 -1.4946,-1.0627 -1.0552,-1.2927zm-0.9675 -1.6983c0.287,-0.2867 0.2573,0.4149 0.2601,0.5417 0.0039,0.1751 0.0902,0.6933 -0.063,0.786 -0.3926,0.2377 -0.2992,-1.2257 -0.1971,-1.3277zm2.3731 1.7061c0.186,-0.1706 0.5455,-0.1338 0.6011,-0.5548 0.0465,-0.3521 -0.2387,-0.5767 -0.5686,-0.543 -0.3804,0.0389 -0.5162,0.537 -0.7188,0.3047 -0.195,-0.2236 0.1957,-0.5567 0.3698,-0.6438 0.5905,-0.2955 1.2967,0.0428 1.3627,0.6989 0.0812,0.8077 -1.0408,1.3202 -1.0462,0.738zm-2.4346 -2.2661c-0.0481,-0.1616 0.0265,-0.2508 0.1997,-0.2029 0.0428,0.1706 -0.0178,0.3163 -0.1997,0.2029zm2.6651 -2.7442c0.2376,-0.0617 0.8037,-0.0023 0.8344,0.2854 0.04,0.3758 -0.4815,-0.0215 -0.8219,0.1653 -0.2934,0.161 -0.3461,0.5187 -0.1768,0.8 0.2695,0.448 0.5694,0.1714 0.8225,0.1847 0.5935,0.0313 -0.5229,1.0071 -1.1849,0.0602 -0.3782,-0.541 -0.1165,-1.3286 0.5267,-1.4956zm-0.5647 -1.4149c0.3115,-0.1031 0.4711,0.1169 0.1864,0.3084 -0.482,0.3241 -0.8307,0.5848 -1.0977,1.2298 -0.6191,1.4956 0.3053,2.3246 0.0339,2.5215 -0.3371,0.2445 -0.55,-0.733 -0.5807,-0.9241 -0.0753,-0.4696 -0.0495,-0.9624 0.0749,-1.4187 0.1745,-0.6399 0.7243,-1.4986 1.3832,-1.7169zm-0.9791 -0.3431c-0.0273,-0.205 0.0558,-0.3418 0.2711,-0.2702 0.0669,0.1979 -0.0541,0.3576 -0.2711,0.2702zm3.595 -1.1976c0.3364,-0.2034 0.5758,0.2957 0.2455,0.453 -0.3303,0.1573 -0.5429,-0.2731 -0.2455,-0.453zm-0.0518 -1.0956c0.1794,-0.0673 0.3244,0.0433 0.2284,0.2265 -0.0117,0.0224 -0.2466,0.2164 -0.2941,0.2586 -1.3063,1.1605 -0.4901,2.301 -0.8984,2.3645 -0.4886,0.076 -0.1969,-1.4143 -0.0718,-1.7022 0.1635,-0.3764 0.6408,-0.9992 1.0359,-1.1474zm1.0627 -0.3791c0.3802,-0.1324 0.5009,0.4325 0.1746,0.5433 -0.3775,0.1282 -0.5392,-0.4162 -0.1746,-0.5433zm-1.8189 -0.5343c0.2041,-0.0952 0.3905,-0.0009 0.2617,0.188 -0.0373,0.0546 -0.2728,0.1952 -0.3423,0.2452 -1.0662,0.7677 -1.3095,1.8796 -1.4463,2.0481 -0.1563,0.1924 -0.2947,0.0477 -0.2703,-0.1842 0.0722,-0.6866 0.9907,-1.9211 1.7972,-2.2971zm-0.922 0.0192c-0.086,-0.1459 -0.0047,-0.2226 0.1577,-0.1919l0.007 0.1841 -0.1647 0.0078zm2.8599 -1.1706c0.6163,-0.3226 1.0164,0.6066 0.4029,0.8657 -0.594,0.2508 -0.9814,-0.563 -0.4029,-0.8657zm-1.8453 0.0073c0.0529,0.1977 -0.1049,0.306 -0.2254,0.4781 -0.0732,0.1046 -0.2257,0.4005 -0.3777,0.2448 -0.1099,-0.1127 0.1308,-0.3559 0.2095,-0.4519 0.1154,-0.1406 0.2061,-0.3025 0.3936,-0.271zm3.721 -1.2472c0.6216,-0.1799 0.5653,0.5053 -0.0001,0.6652 -0.5876,0.1662 -0.6177,-0.4864 0.0001,-0.6652zm-3.3337 1.7135c-0.2896,-0.6453 1.5793,-2.5101 1.921,-2.1882 0.2073,0.1953 -0.3415,0.4425 -0.4692,0.5395 -0.1882,0.1428 -0.3808,0.3355 -0.5395,0.5074 -0.1709,0.1851 -0.3173,0.3891 -0.4459,0.6024 -0.1503,0.2491 -0.171,0.6463 -0.4664,0.5389zm3.4435 -3.0843c0.1315,-0.0333 0.3712,-0.0295 0.2864,0.1741 -0.0475,0.114 -0.2517,0.1431 -0.3669,0.1849 -0.3301,0.1198 -0.4474,0.2568 -0.7169,0.4121 -0.3005,0.1732 -0.4584,-0.1167 0.0064,-0.4234 0.2881,-0.19 0.4593,-0.2639 0.791,-0.3477zm2.675 -0.0038c0.2561,0.1429 0.593,0.0955 0.7924,-0.1242 0.197,-0.217 0.216,-0.5708 -0.0219,-0.7662 -0.1673,-0.1375 -0.3041,-0.0376 -0.4337,-0.1185 -0.1653,-0.1031 -0.0076,-0.2352 0.1182,-0.2776 0.6084,-0.2052 1.0997,0.5481 0.856,1.1361 -0.2263,0.5461 -0.9402,0.8007 -1.4569,0.4864 -0.2974,-0.1808 -0.3634,-0.6202 0.1459,-0.336zm-1.7235 -1.6737c0.1855,-0.0979 0.259,0.0587 0.1401,0.216 -0.0479,0.0633 -0.7254,0.7585 -0.7829,0.7781 -0.1814,0.0617 -0.2315,-0.0689 -0.1485,-0.2246 0.0533,-0.1 0.1591,-0.192 0.2361,-0.2735 0.1325,-0.14 0.3835,-0.4055 0.5552,-0.496zm5.823 -0.4059c0,0 0,0 0,0m1.833 -0.3201c0.4378,-0.3202 0.3527,0.7743 -0.7441,1.7043 -1.4715,1.2477 -3.1138,0.667 -2.5006,0.4186 0.1118,-0.0452 1.6163,0.1914 2.6826,-1.1684 0.1513,-0.1929 0.4948,-0.9053 0.5621,-0.9545zm-5.3302 0.0482c0.0889,0.4383 -0.7842,0.0667 -1.5943,1.2577 -0.5261,0.7734 -0.3876,1.1405 -0.3956,1.7236 -0.0035,0.2488 -0.2116,0.3522 -0.3244,0.1503 -0.1397,-0.2503 -0.0604,-0.9701 0.0255,-1.2476 0.1178,-0.38 0.2584,-0.6277 0.4991,-0.9388 0.2895,-0.3741 1.2904,-1.2725 1.7897,-0.9452zm0.1814 -0.7276c-0.0383,-0.2495 0.3468,-0.5399 0.5829,-0.4623 0.0602,0.1939 -0.0423,0.2245 -0.1964,0.3413 -0.149,0.1129 -0.2014,0.1863 -0.3865,0.121zm2.732 -0.6997c1.4433,-0.2217 1.8201,1.2494 0.9536,0.5863 -0.6469,-0.4951 -1.4843,-0.1492 -1.9951,0.365 -0.4161,0.419 -0.3998,0.737 -0.5217,0.9162 -0.185,0.2721 -0.5177,0.0111 -0.1089,-0.7331 0.3327,-0.6056 0.9933,-1.0301 1.6721,-1.1344zm3.5823 -0.4552c0.6387,-0.1522 0.1157,0.7442 -0.4509,0.8942 -0.6635,0.1756 -0.2762,-0.7208 0.4509,-0.8942zm-5.1384 0.3303c-0.1587,-0.3622 1.4382,-1.091 1.5994,-0.9349 0.1878,0.182 -0.5854,0.4322 -0.749,0.5233 -0.2002,0.1114 -0.6553,0.4828 -0.8504,0.4116zm2.5686 -1.407c0.1645,-0.1691 0.4206,0.0341 0.2576,0.216 -0.1708,0.1906 -0.4298,-0.0389 -0.2576,-0.216zm2.6714 -0.2276c0.0063,0.3402 -0.7514,0.3718 -1.4304,1.0379 -0.0993,0.0975 -0.3768,0.3742 -0.4802,0.1384 -0.118,-0.2692 1.4515,-1.5179 1.9106,-1.1763zm0.7587 0.0939c-0.2841,-0.2602 0.0164,-0.6421 0.3023,-0.4545 0.2118,0.1389 0.1043,0.5863 -0.3023,0.4545zm-16.3565 21.9414l-1.6677 0.0954 0.3415 0.7302c0.8899,0.0812 1.1038,-0.092 1.9726,-0.4158 0.1239,0.3012 -0.378,0.5313 -0.6207,0.6509l-1.1459 0.2123 0.2767 0.501c0.2638,0.0267 0.7772,-0.0975 1.1296,-0.1505l-0.8987 0.5403c0.24,0.821 0.8644,0.1838 1.2431,-0.1847 0.4408,-0.4289 0.7048,-0.7882 1.0036,-1.3263 0.5918,-1.0655 0.9412,-2.4686 0.9361,-3.6834 -0.0067,-1.5864 -0.395,-2.5978 -0.0668,-4.2889 0.2185,-1.1255 0.7338,-2.3174 1.4248,-3.2344 1.7933,-2.3799 4.642,-3.8107 7.6044,-3.902 0.7388,-0.0228 1.4619,-0.0016 2.1915,-0.1507l2.8315 -1.7845c-0.0166,0.1325 -0.1739,0.5273 -0.2404,1.0691 -0.0945,0.7692 0.0356,1.7419 0.266,2.4784 0.175,0.5593 0.5727,0.4644 0.4406,-0.1352 -0.3947,-1.7908 -0.3637,-2.8757 0.5378,-4.5063 0.5908,-1.0687 1.4391,-2.3526 2.3503,-3.1614l3.5502 -2.011c-0.0939,-0.1842 -1.2534,0.178 -1.4384,0.2427 -0.3856,0.1349 -0.8243,0.3577 -1.1725,0.5727 -2.3913,1.4769 -3.1474,3.8588 -4.991,5.5248 -2.7661,2.4998 -5.429,0.5223 -8.4613,2.0158 -1.0055,0.4952 -1.0041,0.7023 -1.5119,1.126l-0.4822 0.3224c-0.2074,-0.3753 0.9608,-1.3484 1.2647,-1.5579 2.3898,-1.6476 4.4451,-0.8813 6.6681,-2.1386 2.1331,-1.2064 2.9252,-2.8893 3.8343,-4.936 0.3242,-0.7298 0.6664,-1.1768 1.1048,-1.8211 -5.3093,-0.3888 -11.6962,4.4229 -15.4512,7.8456 -3.4821,3.174 -5.5912,7.3619 -5.2643,12.1282 0.0602,0.8788 0.2048,1.6196 0.4441,2.4629 0.1519,0.5351 0.2965,0.5117 0.8054,0.6722 0.705,0.2222 1.0192,-0.1143 1.1913,0.1978z"/>
    <path id="_450927640" class="fil0" d="M12.0034 17.9316c-0.511,-0.2492 -0.8099,-0.7708 -0.768,-1.3627 0.1931,0.2398 0.0842,0.0874 0.1851,0.3202 0.6114,1.4111 2.0278,0.7072 2.3106,0.883 -0.246,0.3651 -1.3257,0.3555 -1.7277,0.1595zm1.2457 -3.3566c2.0417,-0.4503 1.9554,2.3766 0.0434,2.785 -1.9461,0.4156 -2.073,-2.3373 -0.0434,-2.785zm0.9699 -1.8553c0.4606,0.1116 0.8049,0.1502 1.1732,0.466 0.3077,0.2638 0.5169,0.6353 0.5725,1.0583 0.0637,0.4842 -0.0464,0.9639 -0.2196,1.4046l-0.6703 1.0216c-0.1452,-0.4873 0.7896,-1.6832 -0.1955,-2.6214 -1.1561,-1.1012 -3.5081,0.0277 -3.9901,1.8287 -0.2345,0.8764 -0.0214,1.8875 0.8214,2.3476 1.5624,0.8528 3.5141,-0.5758 4.2234,-1.9599 0.4225,-0.8244 0.6749,-1.7934 0.4534,-2.7131l-1.8311 -1.5603 -0.3373 0.7279z"/>
    <path id="_450926512" class="fil0" d="M17.4804 16.2695c-0.1028,-0.171 0.2049,-0.8119 0.2902,-1.3385 0.1613,-0.9954 -0.1019,-0.3108 0.2815,-1.4524 0.2102,0.3515 -0.1047,2.7082 -0.5717,2.7909zm-0.1906 -3.2311c-0.0305,0.3347 0.3575,1.3255 -0.1629,2.7488l-0.3009 0.7805 0.8071 0.6931c0.4017,-0.353 0.8332,-1.4873 0.9652,-2.059l-0.1416 -2.6396c-0.2544,0.0191 -0.9262,0.3323 -1.1669,0.4762z"/>
    <path id="_450926608" class="fil0" d="M10.118 20.2942c1.3222,0.5785 2.7892,0.131 4.0746,-0.3016l-0.2041 -0.8615c-0.5549,0.0844 -0.8441,0.2316 -1.4754,0.2202l-1.3599 -0.3417c-0.2095,0.1716 -0.9956,1.0357 -1.0352,1.2846z"/>
    <path id="_450926440" class="fil0" d="M9.0949 13.6277c0.282,0.1268 0.824,-0.6565 1.3924,-1.1013 1.0713,-0.8385 2.2759,-1.4348 3.6562,-1.4763 0.9783,-0.0293 1.2244,0.1473 2.0665,0.5037l0.5421 -0.6541c-0.9273,-0.3134 -1.4039,-0.4405 -2.4142,-0.3932 -1.4365,0.0672 -2.9303,0.6407 -4.0157,1.5821 -0.2745,0.2381 -1.3583,1.1829 -1.2273,1.5391z"/>
    <path id="_450926704" class="fil0" d="M8.2838 16.1319l1.6695 -0.3016c0.1436,-0.3905 0.2164,-0.6644 0.4393,-1.0338 0.2197,-0.3642 0.3946,-0.5518 0.6614,-0.8693l-0.4025 -0.5471c-0.5883,0.292 -2.2862,1.8407 -2.3677,2.7518z"/>
    <path id="_450927040" class="fil0" d="M14.2898 19.0525l0.1564 0.7914c0.4593,-0.1021 1.2761,-0.6581 1.6579,-0.9649l1.3001 -1.3397 -0.7386 -0.6467c-0.2403,0.2086 -0.5948,1.0012 -1.6479,1.715 -0.1907,0.1292 -0.5947,0.3246 -0.7279,0.4449z"/>
    <path id="_450926344" class="fil0" d="M16.3818 19.839c0.4007,0.0672 1.5703,-0.8787 1.8745,-1.1746 0.5627,-0.5475 0.97,-1.0771 1.3147,-1.7899 0.3502,-0.7243 0.6058,-1.7114 0.5952,-2.5169l-0.764 -2.3476c-0.0606,0.1624 0.2105,0.9069 0.2582,1.1476 0.0854,0.4315 0.1257,0.9149 0.1113,1.3554 -0.0277,0.8526 -0.2484,1.5346 -0.627,2.2861 -0.5247,1.0417 -1.5,1.9978 -2.4659,2.6548 -0.1649,0.1122 -0.368,0.1798 -0.297,0.3851z"/>
    <path id="_450925816" class="fil0" d="M10.9306 13.1548l0.3209 0.5588c0.2262,-0.0744 0.7001,-0.5348 1.149,-0.6734l1.5007 -0.3223 0.3158 -0.77c-1.0873,-0.0315 -2.4905,0.4659 -3.2864,1.2069z"/>
    <path id="_450925624" class="fil0" d="M8.6821 18.9064l0.4964 0.7371 0.6977 -0.5047 -0.4633 0.7347 0.4248 0.2637c0.1271,-0.1117 0.3738,-0.4995 0.5046,-0.6566l0.5413 -0.6221 -0.6189 -0.6992c-0.2985,0.0545 -1.3392,0.5496 -1.5826,0.7471z"/>
    <path id="_450925648" class="fil0" d="M8.2085 17.5812l0.3168 1.1116c0.1181,-0.033 0.5693,-0.3362 0.7593,-0.4265l0.8281 -0.381 -0.2372 -0.8854c-0.5484,-0.0153 -1.1792,0.3735 -1.667,0.5813z"/>
    <path id="_450926104" class="fil0" d="M6.2374 29.4597c0.0536,-0.12 0.063,-0.9981 0.0902,-1.2363 0.1315,-1.1541 0.4894,-1.9973 0.8701,-3.0704 -0.2712,-0.0473 -0.4959,0.498 -0.6453,0.8182 -0.1558,0.3337 -0.2991,0.7269 -0.3952,1.0832 -0.0846,0.3138 -0.4665,2.5397 0.0802,2.4053z"/>
    <path id="_450925840" class="fil0" d="M16.4572 11.7625l0.674 0.9327 1.0884 -0.5492 -1.1671 -1.051c-0.1504,0.1432 -0.5244,0.4823 -0.5953,0.6675z"/>
    <path id="_450926248" class="fil0" d="M20.7151 4.9139c0.2062,0.0004 0.3091,-0.2614 0.4071,-0.4161 0.119,-0.1876 0.2191,-0.3664 0.3351,-0.5589 1.1592,-1.925 1.1689,-1.6099 2.3111,-2.9723 -0.5251,-0.0567 -1.5404,1.2299 -1.8381,1.6605 -0.2555,0.3695 -1.2549,1.9557 -1.2152,2.2868z"/>
    <path id="_450926200" class="fil0" d="M8.1735 17.2695c0.1453,-0.0211 0.6029,-0.2551 0.7935,-0.3258l0.9108 -0.2634 0.0057 -0.5708c-0.3879,-0.0174 -0.8624,0.0942 -1.2365,0.2006 -0.1968,0.056 -0.4007,0.061 -0.4464,0.2533 -0.0368,0.1544 -0.0324,0.538 -0.0271,0.7061z"/>
    <path id="_450925480" class="fil0" d="M4.2456 28.4076c0.2689,0.0156 0.3608,-0.2595 0.5047,-0.4725 0.4871,-0.7207 0.6532,-1.1647 1.0332,-1.9603 -0.2208,-0.0126 -0.3688,0.318 -0.4824,0.4919 -0.2816,0.4314 -1.1745,1.6084 -1.0555,1.9409z"/>
    <path id="_450924976" class="fil0" d="M17.1326 28.3563c-0.41,0.2074 0.3883,0.5479 0.5619,0.6488 0.1874,0.109 0.7929,0.4999 0.9691,0.424 0.3641,-0.1567 -0.4662,-0.5579 -0.5973,-0.6405 -0.2013,-0.1267 -0.7341,-0.5333 -0.9337,-0.4323z"/>
    <path id="_450924856" class="fil0" d="M19.3256 26.7148c-0.3439,0.1917 0.3805,0.5113 0.5267,0.5962 0.1707,0.0991 0.7434,0.4738 0.9034,0.4058 0.3562,-0.1514 -0.3975,-0.5148 -0.5237,-0.5902 -0.1936,-0.1156 -0.7215,-0.5149 -0.9064,-0.4118z"/>
    <path id="_450925336" class="fil0" d="M28.2488 10.0341c0.1447,0.1324 0.4772,0.2149 0.6768,0.2833 0.2597,0.0891 0.7714,0.1508 0.4336,-0.2718 -0.2021,-0.2528 -1.2895,-0.7898 -1.1104,-0.0115z"/>
    <path id="_450924832" class="fil0" d="M12.2232 31.3719c0.2221,0.1244 0.7275,0.462 0.9693,0.3132 -0.4745,-0.4252 -0.2847,-0.2726 -0.8334,-0.6053 -0.2261,-0.1371 -0.733,-0.5926 -0.9423,-0.3107 0.0532,0.2758 0.5639,0.467 0.8064,0.6028z"/>
    <path id="_450925528" class="fil0" d="M27.5686 13.6592c-0.5128,0.3882 1.2288,0.7169 1.365,0.6243 0.4096,-0.2784 -1.2361,-0.7219 -1.365,-0.6243z"/>
    <path id="_450924040" class="fil0" d="M21.5093 24.6343c-0.3437,0.2796 1.2629,0.9355 1.3788,0.8679 0.3132,-0.1825 -0.3745,-0.4774 -0.5147,-0.5563 -0.205,-0.1152 -0.6714,-0.4683 -0.8641,-0.3116z"/>
    <path id="_450924664" class="fil0" d="M23.8511 21.6096c-0.3729,0.2342 0.3133,0.4676 0.4711,0.5365 0.1659,0.0725 0.7494,0.3545 0.8919,0.2564 0.3206,-0.2208 -1.2168,-0.8847 -1.363,-0.7929z"/>
    <path id="_450924496" class="fil0" d="M16.3081 28.9335c-0.3261,0.1906 0.3588,0.5167 0.5025,0.6048 0.1685,0.1032 0.6557,0.4613 0.832,0.3457 0.2618,-0.1718 -0.3887,-0.4808 -0.5297,-0.5702 -0.1648,-0.1045 -0.65,-0.4708 -0.8048,-0.3803z"/>
    <path id="_450924736" class="fil0" d="M24.5777 20.4196c-0.2525,0.2353 0.4326,0.4372 0.5856,0.495 0.1652,0.0625 0.7637,0.3417 0.8942,0.2264 0.2395,-0.2115 -0.4509,-0.4151 -0.6001,-0.4804 -0.1933,-0.0846 -0.717,-0.3928 -0.8797,-0.241z"/>
    <path id="_450924424" class="fil0" d="M11.0217 31.1762c-0.1562,-0.0998 -0.7019,-0.5542 -0.8438,-0.3343 -0.135,0.2093 1.3104,1.0777 1.5759,0.88 0.0134,-0.2087 -0.5488,-0.4285 -0.7321,-0.5457z"/>
    <path id="_450924376" class="fil0" d="M23.7124 24.467c0.0547,-0.2701 -0.3995,-0.4112 -0.6023,-0.5288 -0.1737,-0.1006 -0.643,-0.4713 -0.7838,-0.2699 -0.1635,0.234 0.3706,0.4362 0.5551,0.5366 0.2082,0.1134 0.6148,0.3892 0.831,0.2621z"/>
    <path id="_450923344" class="fil0" d="M18.0375 27.7823c0.0558,0.3875 1.2027,0.7403 1.5589,0.8734 0.0569,-0.2435 -0.3352,-0.4055 -0.6995,-0.6224 -0.5181,-0.3084 -0.6447,-0.492 -0.8594,-0.251z"/>
    <path id="_450923704" class="fil0" d="M20.5368 25.6939c0.0815,0.1206 1.5766,1.0696 1.4379,0.5537 -0.0318,-0.1182 -0.5628,-0.4002 -0.695,-0.4792 -0.2457,-0.1468 -0.649,-0.4702 -0.7429,-0.0745z"/>
    <path id="_450924016" class="fil0" d="M23.1231 22.6385c-0.2477,0.2231 0.3174,0.4175 0.5053,0.5083 0.1585,0.0765 0.6647,0.3818 0.8043,0.2513 0.2074,-0.1939 -0.4208,-0.4355 -0.5509,-0.5045 -0.187,-0.0993 -0.5946,-0.4027 -0.7587,-0.2551z"/>
    <path id="_450923296" class="fil0" d="M26.8445 16.0645c-0.5898,0.3204 1.0653,0.6689 1.1834,0.6198 0.5446,-0.2262 -1.0765,-0.6779 -1.1834,-0.6198z"/>
    <path id="_450923320" class="fil0" d="M27.1833 14.9009c-0.2363,0.2514 0.3036,0.3787 0.4579,0.4277 0.1824,0.0578 0.6766,0.2656 0.8137,0.1071 0.1984,-0.2293 -0.3608,-0.3545 -0.4879,-0.3951 -0.1604,-0.0513 -0.6628,-0.2684 -0.7837,-0.1397z"/>
    <path id="_450923584" class="fil0" d="M26.1355 17.6176c-0.3744,0.3116 1.1731,0.6572 1.2842,0.584 0.283,-0.1864 -0.368,-0.3876 -0.4767,-0.4267 -0.211,-0.0758 -0.628,-0.3068 -0.8075,-0.1573z"/>
    <path id="_450923392" class="fil0" d="M16.1615 30.574c-0.3606,-0.4351 -0.161,-0.2397 -0.6185,-0.5433 -0.2111,-0.1402 -0.5105,-0.4316 -0.7622,-0.3281 -0.1071,0.281 0.3901,0.4759 0.6029,0.6043 0.21,0.1268 0.5621,0.4344 0.7778,0.2671z"/>
    <path id="_450923056" class="fil0" d="M14.1666 30.4767c-0.1124,-0.0723 -0.2392,-0.168 -0.3494,-0.2335 -0.1476,-0.0879 -0.4081,-0.105 -0.3632,0.1003 0.0175,0.0802 1.5255,1.1362 1.4136,0.6376 -0.0289,-0.1292 -0.5597,-0.4135 -0.701,-0.5044z"/>
    <path id="_450922768" class="fil0" d="M21.3018 26.9094c0.1192,-0.3369 -0.9551,-0.6894 -1.2974,-0.8325 -0.1898,0.2981 0.2039,0.4099 0.4586,0.545 0.2324,0.1234 0.5832,0.3948 0.8388,0.2875z"/>
    <path id="_450922504" class="fil0" d="M29.2191 12.9453c0.0517,-0.1912 -0.0146,-0.2028 -0.2013,-0.2677 -0.3258,-0.1133 -1.0743,-0.431 -1.1802,-0.2618 -0.1526,0.2438 0.4168,0.3567 0.5714,0.4034 0.2177,0.0656 0.6107,0.2423 0.8101,0.1261z"/>
    <path id="_450923152" class="fil0" d="M25.1325 19.5171c-0.4899,0.2902 1.1496,0.7476 1.2528,0.6806 0.324,-0.2103 -1.1355,-0.7501 -1.2528,-0.6806z"/>
    <path id="_450923104" class="fil0" d="M28.0354 11.5714c-0.2349,0.2497 0.3367,0.3506 0.495,0.3937 0.1518,0.0413 0.6745,0.2343 0.7823,0.1333 0.2214,-0.2076 -0.3834,-0.3487 -0.5003,-0.3861 -0.192,-0.0614 -0.6316,-0.2955 -0.777,-0.1409z"/>
    <path id="_450923200" class="fil0" d="M29.3342 11.1946c0.103,-0.2792 -0.236,-0.3212 -0.4586,-0.3898 -0.1665,-0.0513 -0.5957,-0.236 -0.7202,-0.0916 -0.2881,0.3339 0.9946,0.5562 1.1788,0.4814z"/>
    <path id="_450922408" class="fil0" d="M25.6169 18.6158c-0.3263,0.2985 1.0869,0.6106 1.1579,0.5694 0.3753,-0.2175 -1.0048,-0.7094 -1.1579,-0.5694z"/>
    <path id="_450921904" class="fil0" d="M28.3854 8.6534c-0.3631,0.344 0.8267,0.6036 0.9319,0.5038 0.3269,-0.3098 -0.8027,-0.6261 -0.9319,-0.5038z"/>
    <path id="_450921928" class="fil0" d="M29.0629 7.2777c0.136,-0.4236 -0.41,-0.7603 -0.6437,-0.5257 -0.2696,0.2707 0.4643,0.5606 0.6437,0.5257z"/>
    <path id="_450921760" class="fil0" d="M29.2117 8.3238c0.0595,-0.2074 -0.1001,-0.2633 -0.2828,-0.3334 -0.1553,-0.0597 -0.3578,-0.1492 -0.5207,-0.1246 -0.2344,0.4309 0.705,0.5207 0.8035,0.458z"/>
    <path id="_450922216" class="fil0" d="M8.546 30.8025c-0.0131,0.2763 0.7924,0.726 1.0369,0.6447 -0.2458,-0.2266 -0.6843,-0.7239 -1.0369,-0.6447z"/>
    <path id="_450922168" class="fil0" d="M28.762 6.1997c0.0204,-0.2304 -0.2019,-0.4794 -0.3628,-0.3237 -0.222,0.2148 0.1648,0.3432 0.3628,0.3237z"/>
   </g>
   <g>
    <path id="_450921400" class="fil1" d="M11.7538 31.7219c-0.2655,0.1977 -1.7109,-0.6707 -1.5759,-0.88 0.1419,-0.2199 0.6876,0.2345 0.8438,0.3343 0.1833,0.1172 0.7455,0.337 0.7321,0.5457zm-3.2078 -0.9194c0.3526,-0.0792 0.7911,0.4181 1.0369,0.6447 -0.2445,0.0813 -1.05,-0.3684 -1.0369,-0.6447zm2.8708 -0.0334c0.2093,-0.2819 0.7162,0.1736 0.9423,0.3107 0.5487,0.3327 0.3589,0.1801 0.8334,0.6053 -0.2418,0.1488 -0.7472,-0.1888 -0.9693,-0.3132 -0.2425,-0.1358 -0.7532,-0.327 -0.8064,-0.6028zm2.0372 -0.4256c-0.0449,-0.2053 0.2156,-0.1882 0.3632,-0.1003 0.1102,0.0655 0.237,0.1612 0.3494,0.2335 0.1413,0.0909 0.6721,0.3752 0.701,0.5044 0.1119,0.4986 -1.3961,-0.5574 -1.4136,-0.6376zm1.3268 -0.6409c0.2517,-0.1035 0.5511,0.1879 0.7622,0.3281 0.4575,0.3036 0.2579,0.1082 0.6185,0.5433 -0.2157,0.1673 -0.5678,-0.1403 -0.7778,-0.2671 -0.2128,-0.1284 -0.71,-0.3233 -0.6029,-0.6043zm2.3321 -0.3888c0.141,0.0894 0.7915,0.3984 0.5297,0.5702 -0.1763,0.1156 -0.6635,-0.2425 -0.832,-0.3457 -0.1437,-0.0881 -0.8286,-0.4142 -0.5025,-0.6048 0.1548,-0.0905 0.64,0.2758 0.8048,0.3803zm0.9534 -0.5252c0.1311,0.0826 0.9614,0.4838 0.5973,0.6405 -0.1762,0.0759 -0.7817,-0.315 -0.9691,-0.424 -0.1736,-0.1009 -0.9719,-0.4414 -0.5619,-0.6488 0.1996,-0.101 0.7324,0.3056 0.9337,0.4323zm-0.0288 -1.0063c0.2147,-0.241 0.3413,-0.0574 0.8594,0.251 0.3643,0.2169 0.7564,0.3789 0.6995,0.6224 -0.3562,-0.1331 -1.5031,-0.4859 -1.5589,-0.8734zm2.1945 -0.6557c0.1262,0.0754 0.8799,0.4388 0.5237,0.5902 -0.16,0.068 -0.7327,-0.3067 -0.9034,-0.4058 -0.1462,-0.0849 -0.8706,-0.4045 -0.5267,-0.5962 0.1849,-0.1031 0.7128,0.2962 0.9064,0.4118zm0.231 -0.5047c-0.2547,-0.1351 -0.6484,-0.2469 -0.4586,-0.545 0.3423,0.1431 1.4166,0.4956 1.2974,0.8325 -0.2556,0.1073 -0.6064,-0.1641 -0.8388,-0.2875zm-16.2174 1.7857c-0.119,-0.3325 0.7739,-1.5095 1.0555,-1.9409 0.1136,-0.1739 0.2616,-0.5045 0.4824,-0.4919 -0.38,0.7956 -0.5461,1.2396 -1.0332,1.9603 -0.1439,0.213 -0.2358,0.4881 -0.5047,0.4725zm17.0341 -2.6392c0.1322,0.079 0.6632,0.361 0.695,0.4792 0.1387,0.5159 -1.3564,-0.4331 -1.4379,-0.5537 0.0939,-0.3957 0.4972,-0.0723 0.7429,0.0745zm-15.0423 3.6913c-0.5467,0.1344 -0.1648,-2.0915 -0.0802,-2.4053 0.0961,-0.3563 0.2394,-0.7495 0.3952,-1.0832 0.1494,-0.3202 0.3741,-0.8655 0.6453,-0.8182 -0.3807,1.0731 -0.7386,1.9163 -0.8701,3.0704 -0.0272,0.2382 -0.0366,1.1163 -0.0902,1.2363zm16.136 -4.5138c0.1402,0.0789 0.8279,0.3738 0.5147,0.5563 -0.1159,0.0676 -1.7225,-0.5883 -1.3788,-0.8679 0.1927,-0.1567 0.6591,0.1964 0.8641,0.3116zm-0.0471 -1.2776c0.1408,-0.2014 0.6101,0.1693 0.7838,0.2699 0.2028,0.1176 0.657,0.2587 0.6023,0.5288 -0.2162,0.1271 -0.6228,-0.1487 -0.831,-0.2621 -0.1845,-0.1004 -0.7186,-0.3026 -0.5551,-0.5366zm2.1064 -0.2702c-0.1396,0.1305 -0.6458,-0.1748 -0.8043,-0.2513 -0.1879,-0.0908 -0.753,-0.2852 -0.5053,-0.5083 0.1641,-0.1476 0.5717,0.1558 0.7587,0.2551 0.1301,0.069 0.7583,0.3106 0.5509,0.5045zm-0.5816 -1.7885c0.1462,-0.0918 1.6836,0.5721 1.363,0.7929 -0.1425,0.0981 -0.726,-0.1839 -0.8919,-0.2564 -0.1578,-0.0689 -0.844,-0.3023 -0.4711,-0.5365zm2.2064 -0.4686c-0.1305,0.1153 -0.729,-0.1639 -0.8942,-0.2264 -0.153,-0.0578 -0.8381,-0.2597 -0.5856,-0.495 0.1627,-0.1518 0.6864,0.1564 0.8797,0.241 0.1492,0.0653 0.8396,0.2689 0.6001,0.4804zm-15.9395 -0.8468c0.0396,-0.2489 0.8257,-1.113 1.0352,-1.2846l1.3599 0.3417c0.6313,0.0114 0.9205,-0.1358 1.4754,-0.2202l0.2041 0.8615c-1.2854,0.4326 -2.7524,0.8801 -4.0746,0.3016zm15.0145 -0.7771c0.1173,-0.0695 1.5768,0.4703 1.2528,0.6806 -0.1032,0.067 -1.7427,-0.3904 -1.2528,-0.6806zm-16.4504 -0.6107c0.2434,-0.1975 1.2841,-0.6926 1.5826,-0.7471l0.6189 0.6992 -0.5413 0.6221c-0.1308,0.1571 -0.3775,0.5449 -0.5046,0.6566l-0.4248 -0.2637 0.4633 -0.7347 -0.6977 0.5047 -0.4964 -0.7371zm16.9348 -0.2906c0.1531,-0.14 1.5332,0.3519 1.1579,0.5694 -0.071,0.0412 -1.4842,-0.2709 -1.1579,-0.5694zm-17.4084 -1.0346c0.4878,-0.2078 1.1186,-0.5966 1.667,-0.5813l0.2372 0.8854 -0.8281 0.381c-0.19,0.0903 -0.6412,0.3935 -0.7593,0.4265l-0.3168 -1.1116zm18.7345 0.1937c0.1087,0.0391 0.7597,0.2403 0.4767,0.4267 -0.1111,0.0732 -1.6586,-0.2724 -1.2842,-0.584 0.1795,-0.1495 0.5965,0.0815 0.8075,0.1573zm-12.6532 1.2776c0.1332,-0.1203 0.5372,-0.3157 0.7279,-0.4449 1.0531,-0.7138 1.4076,-1.5064 1.6479,-1.715l0.7386 0.6467 -1.3001 1.3397c-0.3818,0.3068 -1.1986,0.8628 -1.6579,0.9649l-0.1564 -0.7914zm-6.1163 -1.783c-0.0053,-0.1681 -0.0097,-0.5517 0.0271,-0.7061 0.0457,-0.1923 0.2496,-0.1973 0.4464,-0.2533 0.3741,-0.1064 0.8486,-0.218 1.2365,-0.2006l-0.0057 0.5708 -0.9108 0.2634c-0.1906,0.0707 -0.6482,0.3047 -0.7935,0.3258zm18.671 -1.205c0.1069,-0.0581 1.728,0.3936 1.1834,0.6198 -0.1181,0.0491 -1.7732,-0.2994 -1.1834,-0.6198zm1.6104 -0.6288c-0.1371,0.1585 -0.6313,-0.0493 -0.8137,-0.1071 -0.1543,-0.049 -0.6942,-0.1763 -0.4579,-0.4277 0.1209,-0.1287 0.6233,0.0884 0.7837,0.1397 0.1271,0.0406 0.6863,0.1658 0.4879,0.3951zm-20.1711 0.6962c0.0815,-0.9111 1.7794,-2.4598 2.3677,-2.7518l0.4025 0.5471c-0.2668,0.3175 -0.4417,0.5051 -0.6614,0.8693 -0.2229,0.3694 -0.2957,0.6433 -0.4393,1.0338l-1.6695 0.3016zm19.2848 -2.4727c0.1289,-0.0976 1.7746,0.3459 1.365,0.6243 -0.1362,0.0926 -1.8778,-0.2361 -1.365,-0.6243zm-10.2788 -0.6208c0.2407,-0.1439 0.9125,-0.4571 1.1669,-0.4762l0.1416 2.6396c-0.132,0.5717 -0.5635,1.706 -0.9652,2.059l-0.8071 -0.6931 0.3009 -0.7805c0.5204,-1.4233 0.1324,-2.4141 0.1629,-2.7488zm-0.9024 0.5137c0.2215,0.9197 -0.0309,1.8887 -0.4534,2.7131 -0.7093,1.3841 -2.661,2.8127 -4.2234,1.9599 -0.8428,-0.4601 -1.0559,-1.4712 -0.8214,-2.3476 0.482,-1.801 2.834,-2.9299 3.9901,-1.8287 0.9851,0.9382 0.0503,2.1341 0.1955,2.6214l0.6703 -1.0216c0.1732,-0.4407 0.2833,-0.9204 0.2196,-1.4046 -0.0556,-0.423 -0.2648,-0.7945 -0.5725,-1.0583 -0.3683,-0.3158 -0.7126,-0.3544 -1.1732,-0.466l0.3373 -0.7279 1.8311 1.5603zm11.4502 -1.1363c0.1059,-0.1692 0.8544,0.1485 1.1802,0.2618 0.1867,0.0649 0.253,0.0765 0.2013,0.2677 -0.1994,0.1162 -0.5924,-0.0605 -0.8101,-0.1261 -0.1546,-0.0467 -0.724,-0.1596 -0.5714,-0.4034zm-9.5813 6.2486c-0.3042,0.2959 -1.4738,1.2418 -1.8745,1.1746 -0.071,-0.2053 0.1321,-0.2729 0.297,-0.3851 0.9659,-0.657 1.9412,-1.6131 2.4659,-2.6548 0.3786,-0.7515 0.5993,-1.4335 0.627,-2.2861 0.0144,-0.4405 -0.0259,-0.9239 -0.1113,-1.3554 -0.0477,-0.2407 -0.3188,-0.9852 -0.2582,-1.1476l0.764 2.3476c0.0106,0.8055 -0.245,1.7926 -0.5952,2.5169 -0.3447,0.7128 -0.752,1.2424 -1.3147,1.7899zm-7.3257 -5.5096c0.7959,-0.741 2.1991,-1.2384 3.2864,-1.2069l-0.3158 0.77 -1.5007 0.3223c-0.4489,0.1386 -0.9228,0.599 -1.149,0.6734l-0.3209 -0.5588zm18.3821 -1.0564c-0.1078,0.101 -0.6305,-0.092 -0.7823,-0.1333 -0.1583,-0.0431 -0.7299,-0.144 -0.495,-0.3937 0.1454,-0.1546 0.585,0.0795 0.777,0.1409 0.1169,0.0374 0.7217,0.1785 0.5003,0.3861zm-12.8555 -0.3359c0.0709,-0.1852 0.4449,-0.5243 0.5953,-0.6675l1.1671 1.051 -1.0884 0.5492 -0.674 -0.9327zm-7.3623 1.8652c-0.131,-0.3562 0.9528,-1.301 1.2273,-1.5391 1.0854,-0.9414 2.5792,-1.5149 4.0157,-1.5821 1.0103,-0.0473 1.4869,0.0798 2.4142,0.3932l-0.5421 0.6541c-0.8421,-0.3564 -1.0882,-0.533 -2.0665,-0.5037 -1.3803,0.0415 -2.5849,0.6378 -3.6562,1.4763 -0.5684,0.4448 -1.1104,1.2281 -1.3924,1.1013zm19.0605 -2.9145c0.1245,-0.1444 0.5537,0.0403 0.7202,0.0916 0.2226,0.0686 0.5616,0.1106 0.4586,0.3898 -0.1842,0.0748 -1.4669,-0.1475 -1.1788,-0.4814zm0.0934 -0.6791c-0.1791,-0.7783 0.9083,-0.2413 1.1104,0.0115 0.3378,0.4226 -0.1739,0.3609 -0.4336,0.2718 -0.1996,-0.0684 -0.5321,-0.1509 -0.6768,-0.2833zm0.1366 -1.3807c0.1292,-0.1223 1.2588,0.194 0.9319,0.5038 -0.1052,0.0998 -1.295,-0.1598 -0.9319,-0.5038zm0.0228 -0.7876c0.1629,-0.0246 0.3654,0.0649 0.5207,0.1246 0.1827,0.0701 0.3423,0.126 0.2828,0.3334 -0.0985,0.0627 -1.0379,-0.0271 -0.8035,-0.458zm0.6547 -0.5881c-0.1794,0.0349 -0.9133,-0.255 -0.6437,-0.5257 0.2337,-0.2346 0.7797,0.1021 0.6437,0.5257zm-0.3009 -1.078c-0.198,0.0195 -0.5848,-0.1089 -0.3628,-0.3237 0.1609,-0.1557 0.3832,0.0933 0.3628,0.3237zm-20.9053 16.9608c1.2981,-1.0055 2.0978,-1.2501 3.7065,-1.5278 1.516,-0.2617 2.8722,-0.3838 4.3535,-0.8843 2.6519,-0.896 4.3239,-2.829 4.8559,-5.58 0.3075,-1.5896 0.0716,-3.3093 0.2979,-4.9393 0.375,-2.7013 1.5618,-5.071 3.8877,-6.5914 0.3105,-0.2029 1.4855,-0.8754 1.8077,-0.8053 0.3183,0.0691 0.089,0.7669 0.0946,1.0446 0.0086,0.4207 0.0216,0.8412 0.0385,1.2617 0.133,3.2977 -0.0723,6.1169 -1.1041,9.2698 -0.6729,2.0565 -1.4288,3.4965 -2.5472,5.2901 -0.1623,0.2603 -0.4748,0.5216 -0.4578,0.8175 0.0282,0.4909 0.5278,0.0981 0.6906,-0.0806 0.6657,-0.7304 1.5263,-2.3649 1.9556,-3.2822 1.7665,-3.7753 2.4107,-7.9681 2.1114,-12.1126 -0.0187,-0.2588 -0.1538,-0.9835 0.0341,-1.1491l0.3954 5.5507c-0.1852,1.8481 -0.4472,3.3958 -1.0062,5.1721 -0.9345,2.9692 -2.4567,5.558 -4.2704,8.0673 -1.6192,2.2403 -4.0683,4.4776 -6.4379,5.9003 -2.2743,1.3656 -4.6684,2.0705 -7.3197,1.9647 -0.47,-0.0187 -0.9287,-0.0712 -1.3894,-0.1664 -0.3538,-0.0731 -0.9803,-0.1111 -0.9084,-0.5537 2.1308,0.1225 2.9918,0.3707 5.2798,-0.1443 1.4871,-0.3347 2.9311,-0.9458 4.2196,-1.7616 1.9246,-1.2185 4.1141,-3.0706 5.6056,-4.8702 0.2127,-0.2566 0.6441,-0.6154 0.2616,-0.8921 -0.9596,0.6418 -0.628,0.3734 -1.4321,1.1961 -2.1599,2.2098 -4.7302,4.3485 -7.6972,5.3415 -0.7062,0.2364 -1.3339,0.4022 -2.0706,0.5248 -0.5217,0.0868 -2.0009,0.2113 -2.466,0.0887l-0.0958 -1.861c0.1052,-0.5384 0.3193,-1.0504 0.572,-1.5345 0.4656,-0.8921 1.1842,-1.65 1.9951,-2.2332 1.5258,-1.0972 2.9126,-1.3149 4.4271,-1.9401 0.2467,-0.1018 0.4996,-0.192 0.7411,-0.3039 0.1805,-0.0836 0.6369,-0.1979 0.5769,-0.4202 -2.9129,0.9619 -2.4656,0.5968 -5.3265,1.1836 -0.8157,0.1673 -1.6673,0.4417 -2.3788,0.876 -0.4635,0.2829 -0.9682,0.7062 -1.3333,1.1134 -0.1502,0.1676 -0.2762,0.3388 -0.4911,0.1929l0.3121 -1.2637c0.7301,-2.887 -1.0797,-4.1322 -0.4063,-7.0847 0.0782,-0.3426 0.6694,-2.2189 1.0817,-2.1099 -0.2325,0.654 -0.527,1.3989 -0.6743,2.0556 -0.439,1.9569 0.3283,3.1767 0.6039,4.7211 0.2611,1.4633 -0.0352,1.6222 -0.0928,2.4596zm12.8584 -18.2466c-0.0397,-0.3311 0.9597,-1.9173 1.2152,-2.2868 0.2977,-0.4306 1.313,-1.7172 1.8381,-1.6605 -1.1422,1.3624 -1.1519,1.0473 -2.3111,2.9723 -0.116,0.1925 -0.2161,0.3713 -0.3351,0.5589 -0.098,0.1547 -0.2009,0.4165 -0.4071,0.4161zm-17.5214 19.1456c-0.1721,-0.3121 -0.4863,0.0244 -1.1913,-0.1978 -0.5089,-0.1605 -0.6535,-0.1371 -0.8054,-0.6722 -0.2393,-0.8433 -0.3839,-1.5841 -0.4441,-2.4629 -0.3269,-4.7663 1.7822,-8.9542 5.2643,-12.1282 3.755,-3.4227 10.1419,-8.2344 15.4512,-7.8456 -0.4384,0.6443 -0.7806,1.0913 -1.1048,1.8211 -0.9091,2.0467 -1.7012,3.7296 -3.8343,4.936 -2.223,1.2573 -4.2783,0.491 -6.6681,2.1386 -0.3039,0.2095 -1.4721,1.1826 -1.2647,1.5579l0.4822 -0.3224c0.5078,-0.4237 0.5064,-0.6308 1.5119,-1.126 3.0323,-1.4935 5.6952,0.484 8.4613,-2.0158 1.8436,-1.666 2.5997,-4.0479 4.991,-5.5248 0.3482,-0.215 0.7869,-0.4378 1.1725,-0.5727 0.185,-0.0647 1.3445,-0.4269 1.4384,-0.2427l-3.5502 2.011c-0.9112,0.8088 -1.7595,2.0927 -2.3503,3.1614 -0.9015,1.6306 -0.9325,2.7155 -0.5378,4.5063 0.1321,0.5996 -0.2656,0.6945 -0.4406,0.1352 -0.2304,-0.7365 -0.3605,-1.7092 -0.266,-2.4784 0.0665,-0.5418 0.2238,-0.9366 0.2404,-1.0691l-2.8315 1.7845c-0.7296,0.1491 -1.4527,0.1279 -2.1915,0.1507 -2.9624,0.0913 -5.8111,1.5221 -7.6044,3.902 -0.691,0.917 -1.2063,2.1089 -1.4248,3.2344 -0.3282,1.6911 0.0601,2.7025 0.0668,4.2889 0.0051,1.2148 -0.3443,2.6179 -0.9361,3.6834 -0.2988,0.5381 -0.5628,0.8974 -1.0036,1.3263 -0.3787,0.3685 -1.0031,1.0057 -1.2431,0.1847l0.8987 -0.5403c-0.3524,0.053 -0.8658,0.1772 -1.1296,0.1505l-0.2767 -0.501 1.1459 -0.2123c0.2427,-0.1196 0.7446,-0.3497 0.6207,-0.6509 -0.8688,0.3238 -1.0827,0.497 -1.9726,0.4158l-0.3415 -0.7302 1.6677 -0.0954zm25.8438 -23.3687c-0.6537,-0.277 -0.9482,-0.1552 -1.6258,-0.0648 -1.72,0.2297 -3.6074,-0.4734 -5.3834,-0.596 -2.376,-0.1641 -4.5408,0.3265 -6.7103,1.2635 -3.2239,1.3924 -6.9276,4.1643 -9.5336,6.5289 -3.1119,2.8236 -5.2447,6.1231 -5.7055,10.3851 -0.4745,4.3883 1.0497,8.6475 4.5146,11.4427 7.6862,6.2008 16.0114,1.9006 21.1048,-5.0955 2.5141,-3.4534 4.0156,-7.4387 4.4035,-11.6973 0.2153,-2.3637 0.0056,-4.8529 -0.8069,-7.0937 -0.4642,-1.28 -0.704,-1.6157 -1.359,-2.7006 -0.5889,-0.9753 0.3874,-1.8048 1.1016,-2.3723z"/>
    <path id="_450921592" class="fil1" d="M13.2491 14.575c-2.0296,0.4477 -1.9027,3.2006 0.0434,2.785 1.912,-0.4084 1.9983,-3.2353 -0.0434,-2.785z"/>
    <path id="_450921352" class="fil1" d="M13.6701 24.9672c-3.5096,0.3989 -4.3193,2.7194 -3.716,2.4313 0.2168,-0.1035 0.6099,-1.3015 2.9206,-1.8183 0.5461,-0.1221 1.0535,-0.1964 1.6014,-0.2894 0.3717,-0.063 0.5451,-0.3018 0.1353,-0.3503 -0.2493,-0.0295 -0.6876,-0.0022 -0.9413,0.0267z"/>
    <path id="_450921544" class="fil1" d="M18.9381 22.7538c-0.2709,-0.1978 -1.2612,0.3604 -1.5442,0.5165 -1.8382,1.0141 -1.145,2.1082 -2.7187,2.7521 -0.1919,0.0785 -0.8295,0.1793 -0.6773,0.4186 0.1889,0.297 1.3228,-0.3792 1.5368,-0.5264 0.9815,-0.6753 0.5449,-1.6658 2.746,-2.7269 0.1878,-0.0905 0.6653,-0.2101 0.6574,-0.4339z"/>
    <path id="_450921688" class="fil1" d="M3.1856 14.8781c-0.6589,0.2183 -1.2087,1.077 -1.3832,1.7169 -0.1244,0.4563 -0.1502,0.9491 -0.0749,1.4187 0.0307,0.1911 0.2436,1.1686 0.5807,0.9241 0.2714,-0.1969 -0.653,-1.0259 -0.0339,-2.5215 0.267,-0.645 0.6157,-0.9057 1.0977,-1.2298 0.2847,-0.1915 0.1251,-0.4115 -0.1864,-0.3084z"/>
    <path id="_450921424" class="fil1" d="M18.5194 24.4973c0.3304,0.171 0.713,-0.2821 0.9389,-0.4798 0.2717,-0.2378 0.5603,-0.5294 0.8155,-0.7749 0.2808,-0.2704 0.5102,-0.536 0.777,-0.8143 0.1454,-0.1518 0.7561,-0.694 0.6295,-0.8993 -0.1988,-0.3225 -0.7085,0.3891 -0.8615,0.5511 -0.4814,0.5096 -1.0579,1.131 -1.5937,1.5877 -0.2186,0.1863 -0.7679,0.5179 -0.7057,0.8295z"/>
    <path id="_450920728" class="fil1" d="M17.5244 5.1628c-0.0673,0.0492 -0.4108,0.7616 -0.5621,0.9545 -1.0663,1.3598 -2.5708,1.1232 -2.6826,1.1684 -0.6132,0.2484 1.0291,0.8291 2.5006,-0.4186 1.0968,-0.93 1.1819,-2.0245 0.7441,-1.7043z"/>
    <path id="_450920440" class="fil1" d="M15.1076 3.7837c-0.6788,0.1043 -1.3394,0.5288 -1.6721,1.1344 -0.4088,0.7442 -0.0761,1.0052 0.1089,0.7331 0.1219,-0.1792 0.1056,-0.4972 0.5217,-0.9162 0.5108,-0.5142 1.3482,-0.8601 1.9951,-0.365 0.8665,0.6631 0.4897,-0.808 -0.9536,-0.5863z"/>
    <path id="_450920272" class="fil1" d="M12.1942 5.211c-0.4993,-0.3273 -1.5002,0.5711 -1.7897,0.9452 -0.2407,0.3111 -0.3813,0.5588 -0.4991,0.9388 -0.0859,0.2775 -0.1652,0.9973 -0.0255,1.2476 0.1128,0.2019 0.3209,0.0985 0.3244,-0.1503 0.008,-0.5831 -0.1305,-0.9502 0.3956,-1.7236 0.8101,-1.191 1.6832,-0.8194 1.5943,-1.2577z"/>
    <path id="_450920944" class="fil1" d="M20.5202 19.5176c-0.1971,-0.4054 -1.2623,0.1402 -1.6554,0.6862 -0.9137,1.2691 0.4999,2.3212 0.6665,1.8207 0.0931,-0.2799 -0.8509,-0.3813 -0.4936,-1.2983 0.3643,-0.935 1.3856,-0.9668 1.4825,-1.2086z"/>
    <path id="_450920344" class="fil1" d="M3.7503 16.293c-0.6432,0.167 -0.9049,0.9546 -0.5267,1.4956 0.662,0.9469 1.7784,-0.0289 1.1849,-0.0602 -0.2531,-0.0133 -0.553,0.2633 -0.8225,-0.1847 -0.1693,-0.2813 -0.1166,-0.639 0.1768,-0.8 0.3404,-0.1868 0.8619,0.2105 0.8219,-0.1653 -0.0307,-0.2877 -0.5968,-0.3471 -0.8344,-0.2854z"/>
    <path id="_450920896" class="fil1" d="M22.9243 11.4224c-0.1716,0.5268 0.96,0.6046 1.3308,-0.104 0.3023,-0.5777 -0.098,-1.3261 -0.7606,-1.3482 -0.2136,-0.0071 -0.7744,0.1281 -0.711,0.427 0.0752,0.3542 0.4518,-0.213 0.8839,0.0636 0.2485,0.159 0.3329,0.5061 0.1397,0.756 -0.3148,0.4073 -0.5725,0.12 -0.8828,0.2056z"/>
    <path id="_450920512" class="fil1" d="M3.5198 21.3033c0.0054,0.5822 1.1274,0.0697 1.0462,-0.738 -0.066,-0.6561 -0.7722,-0.9944 -1.3627,-0.6989 -0.1741,0.0871 -0.5648,0.4202 -0.3698,0.6438 0.2026,0.2323 0.3384,-0.2658 0.7188,-0.3047 0.3299,-0.0337 0.6151,0.1909 0.5686,0.543 -0.0556,0.421 -0.4151,0.3842 -0.6011,0.5548z"/>
    <path id="_450919648" class="fil1" d="M25.0936 13.6667c-0.1857,0.1997 0.2328,0.9065 -0.6862,1.8367 -0.5295,0.536 -1.0805,0.5622 -1.1767,0.6898 -0.3082,0.409 0.9322,0.3715 1.7665,-0.7988 0.6145,-0.862 0.4541,-2.1124 0.0964,-1.7277z"/>
    <path id="_450920176" class="fil1" d="M24.5776 8.4245c0.2966,0.1676 0.3975,-0.2785 0.4739,-0.5022 0.2432,-0.7119 0.4185,-2.4831 0.1862,-2.8757 -0.0959,-0.1621 -0.2636,-0.1241 -0.3098,0.0396 -0.0277,0.0983 0.0095,0.4186 0.0154,0.5413 0.0175,0.3629 0.0075,0.6975 -0.03,1.0579 -0.0325,0.3123 -0.0838,0.5935 -0.1629,0.8959 -0.0579,0.2212 -0.2898,0.653 -0.1728,0.8432z"/>
    <path id="_450919840" class="fil1" d="M12.0469 6.276c-0.1258,0.0424 -0.2835,0.1745 -0.1182,0.2776 0.1296,0.0809 0.2664,-0.019 0.4337,0.1185 0.2379,0.1954 0.2189,0.5492 0.0219,0.7662 -0.1994,0.2197 -0.5363,0.2671 -0.7924,0.1242 -0.5093,-0.2842 -0.4433,0.1552 -0.1459,0.336 0.5167,0.3143 1.2306,0.0597 1.4569,-0.4864 0.2437,-0.588 -0.2476,-1.3413 -0.856,-1.1361z"/>
    <path id="_450919744" class="fil1" d="M17.6673 22.0437c-0.3823,-0.1927 -1.4981,0.2806 -1.8513,0.5045 -0.3101,0.1966 -1.2097,1.052 -0.9826,1.4455 0.1993,0.3454 0.4484,-0.3674 0.5559,-0.514 0.2032,-0.2775 0.3377,-0.4099 0.6302,-0.6122 0.2627,-0.1816 0.5379,-0.3034 0.8328,-0.4071 0.5421,-0.1907 0.8374,-0.1548 0.815,-0.4167z"/>
    <path id="_450919624" class="fil1" d="M23.7593 5.8866c-0.1576,0.0951 -0.4349,1.7079 -0.781,2.4447 -0.0405,0.0862 -0.148,0.2961 -0.1634,0.3809 -0.0287,0.1585 0.0597,0.2892 0.2236,0.2252 0.2424,-0.0948 0.5968,-1.2003 0.6684,-1.4677 0.0429,-0.1599 0.5855,-1.9048 0.0524,-1.5831z"/>
    <path id="_450919480" class="fil1" d="M21.8439 17.4824c0.5662,0.3107 0.4325,-1.1868 0.3949,-1.4417l-0.3148 -1.7799c-0.6429,-0.1437 -0.0462,1.4358 -0.026,2.3072 0.0057,0.2492 -0.1008,0.7393 -0.0541,0.9144z"/>
    <path id="_450919360" class="fil1" d="M21.5155 18.3935c-0.0847,0.073 -0.0837,0.6729 -0.1638,0.9134 -0.412,1.2374 -1.2353,1.2022 -1.2928,1.4302 -0.0487,0.193 0.1889,0.21 0.324,0.1808 0.6965,-0.1504 1.3106,-1.0498 1.4242,-1.8352 0.0237,-0.1635 0.0605,-0.9931 -0.2916,-0.6892z"/>
    <path id="_450919072" class="fil1" d="M5.7497 12.2418c-0.3951,0.1482 -0.8724,0.771 -1.0359,1.1474 -0.1251,0.2879 -0.4168,1.7782 0.0718,1.7022 0.4083,-0.0635 -0.4079,-1.204 0.8984,-2.3645 0.0475,-0.0422 0.2824,-0.2362 0.2941,-0.2586 0.096,-0.1832 -0.049,-0.2938 -0.2284,-0.2265z"/>
    <path id="_450919336" class="fil1" d="M4.9935 11.3284c-0.8065,0.376 -1.725,1.6105 -1.7972,2.2971 -0.0244,0.2319 0.114,0.3766 0.2703,0.1842 0.1368,-0.1685 0.3801,-1.2804 1.4463,-2.0481 0.0695,-0.05 0.305,-0.1906 0.3423,-0.2452 0.1288,-0.1889 -0.0576,-0.2832 -0.2617,-0.188z"/>
    <path id="_450919216" class="fil1" d="M5.4734 10.6506c0.2954,0.1074 0.3161,-0.2898 0.4664,-0.5389 0.1286,-0.2133 0.275,-0.4173 0.4459,-0.6024 0.1587,-0.1719 0.3513,-0.3646 0.5395,-0.5074 0.1277,-0.097 0.6765,-0.3442 0.4692,-0.5395 -0.3417,-0.3219 -2.2106,1.5429 -1.921,2.1882z"/>
    <path id="_450919024" class="fil1" d="M12.6473 26.582c-0.5453,0.1322 -0.99,0.3123 -1.4328,0.6771 -0.149,0.1228 -0.4013,0.3785 -0.5125,0.5355 -0.2433,0.3436 -0.0315,0.5493 0.2784,0.201 0.6638,-0.7462 1.0816,-0.8999 1.9727,-1.1725 0.4759,-0.1456 0.1991,-0.3636 -0.3058,-0.2411z"/>
    <path id="_450919192" class="fil1" d="M15.8021 26.4459l-1.606 0.9238c-0.256,0.2099 -0.0213,0.4324 0.2586,0.3374 0.221,-0.075 1.3231,-0.7386 1.5815,-0.9423 0.2542,-0.2005 0.0907,-0.4585 -0.2341,-0.3189z"/>
    <path id="_450918568" class="fil1" d="M26.4407 4.2736c-0.404,-0.0684 -0.293,0.6075 -0.2781,1.1599 0.0063,0.2315 -0.05,1.2715 0.1443,1.3456 0.411,0.1566 0.2522,-0.9187 0.2418,-1.1281 -0.0138,-0.2775 0.0184,-1.2004 -0.108,-1.3774z"/>
    <path id="_450918424" class="fil1" d="M17.9348 24.7782l-1.3882 1.1016c-0.2179,0.1992 -0.1079,0.4861 0.2047,0.3621 0.2108,-0.0836 1.1633,-0.8604 1.3913,-1.0954 0.2171,-0.2237 0.0946,-0.5195 -0.2078,-0.3683z"/>
    <path id="_450918280" class="fil1" d="M23.5482 13.8255c-0.6663,0.1815 -0.4343,1.169 0.2415,1.021 0.673,-0.1475 0.4504,-1.2094 -0.2415,-1.021z"/>
    <path id="_450918496" class="fil1" d="M10.4392 25.1639c0.2291,0.0933 0.5489,-0.3133 1.1343,-0.6115 0.2031,-0.1035 0.4001,-0.2003 0.6174,-0.2744 0.1265,-0.0431 0.6673,-0.1523 0.4658,-0.3569 -0.2929,-0.2973 -2.3954,0.787 -2.2175,1.2428z"/>
    <path id="_450918472" class="fil1" d="M1.4205 21.3241c-0.4609,0.0174 -0.1256,0.9065 -0.0211,1.1579 0.3903,0.9392 0.9558,1.1035 0.9558,0.7634 -0.0001,-0.1922 -0.4857,-0.3648 -0.7526,-1.2702 -0.0594,-0.2016 -0.048,-0.4995 -0.1821,-0.6511z"/>
    <path id="_450918160" class="fil1" d="M2.8655 23.4693c0.608,0.4123 1.9922,-0.7513 1.7446,-1.2093 -0.1886,-0.3488 -0.373,0.3338 -0.7555,0.6269 -0.6235,0.4777 -1.0589,0.1787 -0.9891,0.5824z"/>
    <path id="_450917944" class="fil1" d="M23.3933 12.7525c-0.3214,-0.1222 -0.7528,0.2213 -1.0918,-0.3064 -0.0783,-0.122 -0.1945,-0.4645 -0.2309,-0.5096 -0.1958,-0.2428 -0.3364,0.0387 -0.2712,0.3173 0.2728,1.1666 1.8292,1.024 1.5939,0.4987z"/>
    <path id="_450917800" class="fil1" d="M18.7915 2.0242c-0.4591,-0.3416 -2.0286,0.9071 -1.9106,1.1763 0.1034,0.2358 0.3809,-0.0409 0.4802,-0.1384 0.679,-0.6661 1.4367,-0.6977 1.4304,-1.0379z"/>
    <path id="_450917440" class="fil1" d="M6.9314 10.177c-0.5785,0.3027 -0.1911,1.1165 0.4029,0.8657 0.6135,-0.2591 0.2134,-1.1883 -0.4029,-0.8657z"/>
    <path id="_450917728" class="fil1" d="M13.7311 17.7721c-0.2828,-0.1758 -1.6992,0.5281 -2.3106,-0.883 -0.1009,-0.2328 0.008,-0.0804 -0.1851,-0.3202 -0.0419,0.5919 0.257,1.1135 0.768,1.3627 0.402,0.196 1.4817,0.2056 1.7277,-0.1595z"/>
    <path id="_450917656" class="fil1" d="M25.0218 9.1706c-0.1824,0.1286 -0.0435,0.2616 0.0447,0.4333 0.4396,0.856 0.1777,1.7597 0.5995,1.4204 0.2633,-0.2118 -0.2391,-2.1394 -0.6442,-1.8537z"/>
    <path id="_450917560" class="fil1" d="M26.2462 8.4571c-0.1703,0.1367 -0.1109,0.8857 -0.1174,1.1281 -0.0037,0.1391 -0.1379,1.1365 0.2171,0.8386 0.1481,-0.1242 0.1473,-0.8926 0.1558,-1.1096 0.0061,-0.1565 0.1224,-1.1602 -0.2555,-0.8571z"/>
    <path id="_450916840" class="fil1" d="M25.5105 26.0616c0.2432,-0.0401 0.6442,-0.5669 0.805,-0.7741 0.0994,-0.128 0.8201,-0.8744 0.3987,-0.9155 -0.1688,-0.0165 -0.9094,0.9816 -1.1216,1.2405 -0.1538,0.1877 -0.2577,0.2709 -0.0821,0.4491z"/>
    <path id="_450916768" class="fil1" d="M17.4804 16.2695c0.467,-0.0827 0.7819,-2.4394 0.5717,-2.7909 -0.3834,1.1416 -0.1202,0.457 -0.2815,1.4524 -0.0853,0.5266 -0.393,1.1675 -0.2902,1.3385z"/>
    <path id="_450916504" class="fil1" d="M25.2777 11.4551c-0.343,0.3319 -0.1816,0.5519 -0.9574,1.0904 -0.2341,0.1625 -0.1576,0.3724 0.0898,0.326 0.3786,-0.071 1.6061,-1.4011 0.8676,-1.4164z"/>
    <path id="_450917080" class="fil1" d="M2.1142 21.2955c-0.4394,0.23 0.5951,1.6272 1.0552,1.2927 0.2744,-0.1995 -0.18,-0.225 -0.5287,-0.608 -0.2019,-0.2216 -0.3061,-0.8 -0.5265,-0.6847z"/>
    <path id="_450916408" class="fil1" d="M18.6899 3.3285c-0.7271,0.1734 -1.1144,1.0698 -0.4509,0.8942 0.5666,-0.15 1.0896,-1.0464 0.4509,-0.8942z"/>
    <path id="_450916480" class="fil1" d="M25.707 13.3003c0.2279,-0.1135 0.254,-0.4481 0.3065,-0.6836 0.0368,-0.1645 0.2406,-0.8593 -0.0671,-0.8239 -0.2075,0.0238 -0.2417,0.5484 -0.2867,0.7368 -0.067,0.281 -0.2625,0.64 0.0473,0.7707z"/>
    <path id="_450916072" class="fil1" d="M13.5515 3.6588c0.1951,0.0712 0.6502,-0.3002 0.8504,-0.4116 0.1636,-0.0911 0.9368,-0.3413 0.749,-0.5233 -0.1612,-0.1561 -1.7581,0.5727 -1.5994,0.9349z"/>
    <path id="_450915880" class="fil1" d="M8.9169 7.5663c-0.3317,0.0838 -0.5029,0.1577 -0.791,0.3477 -0.4648,0.3067 -0.3069,0.5966 -0.0064,0.4234 0.2695,-0.1553 0.3868,-0.2923 0.7169,-0.4121 0.1152,-0.0418 0.3194,-0.0709 0.3669,-0.1849 0.0848,-0.2036 -0.1549,-0.2074 -0.2864,-0.1741z"/>
    <path id="_450915616" class="fil1" d="M8.8071 8.9371c-0.6178,0.1788 -0.5877,0.8314 -0.0001,0.6652 0.5654,-0.1599 0.6217,-0.8451 0.0001,-0.6652z"/>
    <path id="_450916288" class="fil1" d="M1.1467 19.5972c-0.1021,0.102 -0.1955,1.5654 0.1971,1.3277 0.1532,-0.0927 0.0669,-0.6109 0.063,-0.786 -0.0028,-0.1268 0.0269,-0.8284 -0.2601,-0.5417z"/>
    <path id="_450915784" class="fil1" d="M23.5851 17.8561c-0.1466,0.1106 -0.5101,0.7832 -0.5145,0.8916 -0.0062,0.1481 0.1002,0.229 0.2408,0.1669 0.1389,-0.0613 0.4965,-0.7547 0.5016,-0.9142 0.0056,-0.1778 -0.0951,-0.2445 -0.2279,-0.1443z"/>
    <path id="_450916312" class="fil1" d="M9.8684 5.8888c-0.1717,0.0905 -0.4227,0.356 -0.5552,0.496 -0.077,0.0815 -0.1828,0.1735 -0.2361,0.2735 -0.083,0.1557 -0.0329,0.2863 0.1485,0.2246 0.0575,-0.0196 0.735,-0.7148 0.7829,-0.7781 0.1189,-0.1573 0.0454,-0.3139 -0.1401,-0.216z"/>
    <path id="_450915208" class="fil1" d="M12.2991 28.1063c-0.7739,0.231 -0.6316,0.6404 -0.1415,0.5275 0.6659,-0.1536 0.6448,-0.6776 0.1415,-0.5275z"/>
    <path id="_450914848" class="fil1" d="M26.3366 7.1022c-0.2243,0.1134 -0.2642,1.0661 0.0806,0.9421 0.2346,-0.0843 0.2642,-1.1164 -0.0806,-0.9421z"/>
    <path id="_450915520" class="fil1" d="M10.9424 28.5228c-0.1599,0.0321 -0.4475,0.037 -0.4823,0.2379 -0.0478,0.2753 0.2984,0.2358 0.4703,0.1955 0.5963,-0.1399 0.6047,-0.5526 0.012,-0.4334z"/>
    <path id="_450915472" class="fil1" d="M13.4339 27.6843c-0.6161,0.1597 -0.5278,0.6349 -0.121,0.5511 0.5107,-0.1051 0.5531,-0.6631 0.121,-0.5511z"/>
    <path id="_450914632" class="fil1" d="M13.8559 23.2224c-0.3733,0.1629 -0.1079,0.7001 0.2419,0.5202 0.3482,-0.1791 0.1406,-0.687 -0.2419,-0.5202z"/>
    <path id="_450914176" class="fil1" d="M9.1966 26.7518c-0.2476,-0.0939 -0.2916,0.1602 -0.3732,0.3647 -0.0545,0.1368 -0.2235,0.4732 -0.1083,0.5911 0.2084,0.2135 0.5039,-0.8227 0.4815,-0.9558z"/>
    <path id="_450914512" class="fil1" d="M6.8124 11.8627c-0.3646,0.1271 -0.2029,0.6715 0.1746,0.5433 0.3263,-0.1108 0.2056,-0.6757 -0.1746,-0.5433z"/>
    <path id="_450914104" class="fil1" d="M5.8015 13.3374c-0.2974,0.1799 -0.0848,0.6103 0.2455,0.453 0.3303,-0.1573 0.0909,-0.6564 -0.2455,-0.453z"/>
    <path id="_450914128" class="fil1" d="M5.0861 10.1843c-0.1875,-0.0315 -0.2782,0.1304 -0.3936,0.271 -0.0787,0.096 -0.3194,0.3392 -0.2095,0.4519 0.152,0.1557 0.3045,-0.1402 0.3777,-0.2448 0.1205,-0.1721 0.2783,-0.2804 0.2254,-0.4781z"/>
    <path id="_450913504" class="fil1" d="M19.5502 2.1181c0.4066,0.1318 0.5141,-0.3156 0.3023,-0.4545 -0.2859,-0.1876 -0.5864,0.1943 -0.3023,0.4545z"/>
    <path id="_450913480" class="fil1" d="M20.3723 18.0622c-0.3223,0.1178 -0.1992,0.5992 0.1614,0.4823 0.2928,-0.0949 0.2088,-0.6176 -0.1614,-0.4823z"/>
    <path id="_450913888" class="fil1" d="M24.5237 16.5636c-0.3143,-0.1766 -0.5477,0.4251 -0.4085,0.5467 0.186,0.1625 0.4916,-0.3126 0.4085,-0.5467z"/>
    <path id="_450913336" class="fil1" d="M12.3756 4.4834c0.1851,0.0653 0.2375,-0.0081 0.3865,-0.121 0.1541,-0.1168 0.2566,-0.1474 0.1964,-0.3413 -0.2361,-0.0776 -0.6212,0.2128 -0.5829,0.4623z"/>
    <path id="_450914008" class="fil1" d="M22.792 19.2446c-0.2103,0.2239 -0.197,0.5665 0.092,0.4414 0.1325,-0.0573 0.375,-0.4867 -0.092,-0.4414z"/>
    <path id="_450913144" class="fil1" d="M22.5724 20.0514c-0.3097,-0.1385 -0.4145,0.2641 -0.3209,0.362 0.1485,0.1552 0.4484,-0.1138 0.3209,-0.362z"/>
    <path id="_450912856" class="fil1" d="M21.8767 20.8137c-0.2458,0.2425 0.0557,0.4212 0.2258,0.3023 0.2031,-0.1418 0.0213,-0.5462 -0.2258,-0.3023z"/>
    <path id="_450913072" class="fil1" d="M9.4553 28.9456c0.0785,0.2409 0.5605,0.1867 0.5616,-0.0647 -0.1595,-0.092 -0.4476,-0.0868 -0.5616,0.0647z"/>
    <path id="_450913000" class="fil1" d="M27.6801 23.5119c0.1623,-0.1993 -0.131,-0.4653 -0.2925,-0.2162 -0.1421,0.2192 0.1316,0.4138 0.2925,0.2162z"/>
    <path id="_450912688" class="fil1" d="M16.1201 2.2518c-0.1722,0.1771 0.0868,0.4066 0.2576,0.216 0.163,-0.1819 -0.0931,-0.3851 -0.2576,-0.216z"/>
    <path id="_450911872" class="fil1" d="M8.846 28.1507c-0.2909,-0.083 -0.3693,0.1799 -0.23,0.2754 0.1523,0.1044 0.3899,-0.0288 0.23,-0.2754z"/>
    <path id="_450911968" class="fil1" d="M26.2327 3.8199c0.1583,0.0956 0.162,0.0694 0.2959,-0.0562l-0.0335 -0.2039c-0.216,-0.1329 -0.3366,0.0449 -0.2624,0.2601z"/>
    <path id="_450912376" class="fil1" d="M2.2065 14.535c0.217,0.0874 0.338,-0.0723 0.2711,-0.2702 -0.2153,-0.0716 -0.2984,0.0652 -0.2711,0.2702z"/>
    <path id="_450911992" class="fil1" d="M8.8907 28.8425c-0.1963,-0.0584 -0.4645,0.0364 -0.2746,0.199 0.1083,0.0927 0.3497,0.0665 0.2746,-0.199z"/>
    <path id="_450911224" class="fil1" d="M9.7769 25.6685c0.2134,0.0671 0.2987,-0.0324 0.2397,-0.2396 -0.2079,-0.1406 -0.318,0.0403 -0.2397,0.2396z"/>
    <path id="_450911704" class="fil1" d="M1.0852 19.0372c0.1819,0.1134 0.2425,-0.0323 0.1997,-0.2029 -0.1732,-0.0479 -0.2478,0.0413 -0.1997,0.2029z"/>
    <path id="_450911104" class="fil1" d="M4.0715 11.3476l0.1647 -0.0078 -0.007 -0.1841c-0.1624,-0.0307 -0.2437,0.046 -0.1577,0.1919z"/>
    <path id="_450911440" class="fil1" d="M15.6914 5.4829c0,0 0,0 0,0z"/>
   </g>
  </g>
 </g>
</svg>
