<?xml version="1.0" encoding="UTF-8"?>
<!DOCTYPE svg PUBLIC "-//W3C//DTD SVG 1.1//EN" "http://www.w3.org/Graphics/SVG/1.1/DTD/svg11.dtd">
<!-- Creator: CorelDRAW -->
<svg xmlns="http://www.w3.org/2000/svg" xml:space="preserve" width="215.9mm" height="279.4mm" style="shape-rendering:geometricPrecision; text-rendering:geometricPrecision; image-rendering:optimizeQuality; fill-rule:evenodd; clip-rule:evenodd"
viewBox="0 0 215.9 279.4"
 xmlns:xlink="http://www.w3.org/1999/xlink">
 <defs>
  <style type="text/css">
   <![CDATA[
    .fil6 {fill:#010000}
    .fil4 {fill:#292728}
    .fil1 {fill:#504F50}
    .fil5 {fill:#727071}
    .fil0 {fill:#908F90}
    .fil2 {fill:#BABABB}
    .fil3 {fill:#E8EAE7}
   ]]>
  </style>
 </defs>
 <g id="Capa_x0020_1">
  <metadata id="CorelCorpID_0Corel-Layer"/>
  <g id="_377644232">
   <g>
    <path id="_381847360" class="fil0" d="M119.294 123.936c0.0791,0.1541 0.0309,0.0881 0.1571,0.2157l1.0529 1.1072c0.0929,0.1104 0.0605,0.1234 0.1696,0.1671l0.1291 -0.0344c-0.1883,-0.3466 -0.2073,0.0087 -0.2505,-0.4746l0.1207 -0.0409c-0.0751,-0.1074 -1.0841,-0.9703 -1.2478,-1.0762l0.0207 0.1703 -0.1518 -0.0342z"/>
    <path id="_381847720" class="fil0" d="M135.086 152.025c-0.1641,-0.091 -0.0198,-0.0693 -0.271,-0.0605 -0.0901,0.2583 0.0134,0.3238 0.2666,0.2689l0.0044 -0.2084z"/>
    <path id="_381847864" class="fil0" d="M114.544 124.63l0.1068 0.1476c0.1718,0.0014 0.3398,-0.0684 0.3317,-0.2666 -0.0109,-0.2661 -0.002,-0.0886 -0.081,-0.1533 -0.03,0.1638 0.0054,0.0923 -0.0625,0.1799 -0.0618,0.0797 0.0009,-0.0065 -0.087,0.0796l-0.208 0.0128z"/>
   </g>
   <g>
    <path id="_381847216" class="fil1" d="M97.5119 146.389c-0.0291,0.4404 0.3449,1.5245 0.505,2.0275l0.1622 0.4637c0.0665,0.109 0.0364,0.0488 0.1033,0.1132l-0.0061 -0.1631 0.2202 -0.0583c-0.002,-0.031 -0.0201,-0.1127 -0.0181,-0.1298l0.1346 -0.322c0.0816,0.0744 0.1555,0.1408 0.2386,0.0271 0.0003,-0.0005 0.0124,0.0307 0.0204,-0.0754 -0.0446,-0.2348 -0.3768,-0.9429 -0.5044,-1.2838l-0.3853 -1.1997c-0.0301,-0.0853 -0.0038,-0.0675 -0.113,-0.2085 -0.0202,0.3985 -0.1667,0.502 -0.1904,0.8481 -0.1767,-0.0634 -0.1556,0.0732 -0.1366,-0.1255l-0.0304 0.0865z"/>
    <path id="_381847696" class="fil1" d="M99.0808 144.382c0.0546,0.0546 0.0084,0.0433 0.1004,0.0899 0.3126,0.1583 0.7878,-0.0615 0.916,-0.291 0.1458,-0.2608 0.0442,-1.0877 -0.1442,-1.2766 -0.0217,0.1225 -0.0025,0.2026 -0.0211,0.2826 -0.0191,0.0823 -0.1444,0.1392 -0.1559,0.7313l-0.324 0.0151c-0.05,0.1856 -0.0207,0.1383 -0.0989,0.2449 -0.1449,0.1973 -0.0994,0.1389 -0.2723,0.2038z"/>
   </g>
   <g>
    <path id="_381847768" class="fil2" d="M103.939 137.502c-0.4202,0.3905 -0.5045,2.3905 -0.4456,3.0461 0.071,0.7888 0.4017,2.2916 0.8003,2.8018 -0.2157,-0.9022 -0.0101,-2.3535 0.5494,-3.1728l1.7881 -2.023c-0.1356,0.4909 -0.5418,0.887 -0.4341,2.1061 0.1506,1.7042 1.2413,3.0273 2.2785,4.2427l0.5742 0.5571c0.0906,0.0853 0.0129,0.0246 0.1149,0.0918 -0.2048,-0.4547 -0.4448,-0.7517 -0.6152,-1.2912 -0.1196,-0.3787 -0.0066,-0.3311 -0.2917,-0.6177 -0.1616,-0.1624 -0.3114,-0.3038 -0.4665,-0.4999 -0.5738,-0.7249 -1.0072,-1.5771 -0.9614,-2.8235 0.0396,-1.0756 0.5829,-2.0924 1.0881,-2.6424l0.4565 -0.4504c0.6005,-0.4517 1.0089,-0.6894 1.7329,-0.8807 0.0201,-0.0053 0.083,-0.0201 0.1003,-0.0265 0.1214,-0.0447 0.0401,-0.0081 0.1085,-0.063 -0.281,-0.0579 -1.5832,0.1307 -1.9,0.2121 -0.5997,0.1542 -1.0553,0.488 -1.4868,0.6159 0.8643,-1.1031 1.266,-1.3658 2.2934,-2.1403 0.4928,-0.3715 1.8181,-1.0575 2.3272,-1.1151 -0.1083,-0.2051 -0.17,-0.3132 -0.2939,-0.5151 -0.1242,-0.2025 -0.2014,-0.3792 -0.4129,-0.4897 -0.0605,0.1005 -1.0321,0.2051 -1.2357,0.2477 -0.8312,0.1742 -1.9826,0.6424 -2.6386,1.1606l-0.6149 0.5178c-0.0852,0.0656 -0.1729,0.0945 -0.2435,0.1592l-0.7472 0.7827c-0.4301,0.5276 -1.2725,1.7715 -1.3999,2.3718l-0.0244 -0.1621z"/>
    <path id="_450691528" class="fil2" d="M110.962 150.377c0.1118,0.4257 0.2634,0.7158 0.3501,1.2398 0.4747,2.8711 -1.0116,4.9808 -2.7788,6.8527 -0.1266,0.1342 -0.2649,0.236 -0.3595,0.3506 0.0847,0.0776 -0.1261,0.0624 0.4843,0.1672 0.4761,0.0818 1.4441,0.2701 1.8584,0.1627l0.4639 -0.506c0.5131,-0.6261 0.8367,-0.9861 1.3244,-1.6898 1.253,-1.8079 1.8473,-4.134 1.1602,-6.3619 -0.2176,-0.7055 -1.0574,-2.2017 -1.6258,-2.4481 -0.1487,0.2834 -0.2347,0.9173 -0.3385,1.2522 -0.1641,0.5295 -0.3645,0.7864 -0.4431,1.0772l-0.0956 -0.0966z"/>
    <path id="_450691432" class="fil2" d="M111.531 132.429c-0.0176,-0.1153 -0.2656,-0.4612 -0.3852,-0.6622 -1.1667,-1.9616 -2.1319,-3.9852 -1.9876,-6.3979 0.1247,-2.0868 0.8054,-3.6916 2.017,-5.1797 0.3603,-0.4426 0.7839,-0.8128 1.2759,-1.105 -0.0911,-0.0809 -0.0254,-0.0512 -0.1788,-0.0974 -0.0207,-0.0062 -0.2267,-0.0459 -0.2629,-0.055 -0.0612,0.1753 -0.1671,0.1867 -0.282,0.2737 -0.6677,0.5062 -1.5366,1.6679 -1.9819,2.3939 -1.7928,2.9231 -1.5364,6.7776 0.5877,9.5071 0.1605,0.2062 0.9799,1.204 1.1978,1.3225z"/>
    <path id="_450690904" class="fil2" d="M118.164 122.972c0.0358,0.0486 0.039,0.0674 0.1098,0.1403l0.4416 0.3513c0.2072,0.1474 0.39,0.3741 0.5783,0.472l0.1518 0.0342 -0.0207 -0.1703c0.1637,0.1059 1.1727,0.9688 1.2478,1.0762 0.0598,0.0696 0.1014,0.123 0.1849,0.2013 0.3066,0.2873 0.1993,0.0608 0.235,0.0169 -0.3527,-0.321 -1.3795,-1.5344 -2.0614,-2.0581 -0.3053,-0.2345 -0.5043,-0.4417 -0.8564,-0.6172 0.0486,0.1785 0.0578,0.0585 -0.0003,0.1592l-0.2167 -0.1073c-0.1886,-0.1026 -0.3196,-0.0096 -0.2486,-0.0449l0.4017 0.3303c0.2428,0.1556 -0.093,0.0757 0.1626,0.0769l-0.1094 0.1392z"/>
    <path id="_450691336" class="fil2" d="M114.74 137.633c-0.2751,-0.7707 -0.2404,-1.4463 -1.0384,-2.5689 -0.088,-0.1237 -0.0594,-0.0774 -0.1378,-0.1968 -0.1727,-0.263 -0.6311,-0.894 -0.8449,-1.0866 0.2611,0.6044 0.8908,1.1531 1.0918,2.5322 0.103,0.7067 0.0435,0.2527 0.7242,1.107 0.0186,0.0233 0.0659,0.0874 0.0734,0.0959 0.1257,0.1403 0.0316,0.0477 0.1317,0.1172z"/>
    <path id="_450691120" class="fil2" d="M114.544 124.63l0.208 -0.0128c0.0879,-0.0861 0.0252,0.0001 0.087,-0.0796 0.0679,-0.0876 0.0325,-0.0161 0.0625,-0.1799 -0.0584,-0.2095 -0.2338,-0.1495 -0.2751,-0.1053l-0.0824 0.3776z"/>
    <path id="_450691312" class="fil2" d="M101.641 132.723c0.1761,0.3295 0.3927,0.1002 0.6129,-0.0626 0.0203,-0.215 0.0473,-0.2766 -0.102,-0.4355l0.0537 0.1894c-0.1808,0.2943 -0.2326,0.4251 -0.5646,0.3087z"/>
    <path id="_450691144" class="fil2" d="M115.876 125.633c-0.0504,0.199 -0.0393,0.3626 0.2134,0.3203 0.0753,-0.2177 0.0168,-0.4413 -0.2134,-0.3203z"/>
    <path id="_450691168" class="fil2" d="M118.612 125.045c0.1663,0.0473 0.2225,0.0123 0.1305,-0.1822 -0.1618,0.0266 -0.2141,0.006 -0.1305,0.1822z"/>
   </g>
   <g>
    <path id="_456896120" class="fil3" d="M98.2818 149.517c0.0882,0.0687 0.1078,0.0353 0.2032,0.0832l-0.2026 -0.6068c-0.0669,-0.0644 -0.0368,-0.0042 -0.1033,-0.1132l-0.1622 -0.4637c-0.1601,-0.503 -0.5341,-1.5871 -0.505,-2.0275 -0.0695,-0.0716 -0.0279,0.0274 -0.0987,-0.1484 -0.0206,-0.0513 -0.0217,-0.0835 -0.0346,-0.1372 -0.0281,-0.1171 -0.0461,-0.2067 -0.0724,-0.3247 -0.1756,-0.787 -0.2186,-1.0906 -0.2575,-1.9946 -0.0203,-0.4741 0.006,-2.5247 0.1735,-2.8288 -0.2266,-2.0388 0.3176,-5.2888 0.8394,-7.2837 0.5601,-2.1412 1.4599,-3.985 2.4733,-5.6504 0.2131,-0.3502 0.9683,-1.429 1.2475,-1.7675 1.8348,-2.224 3.4742,-3.7188 6.1548,-5.0388 0.8832,-0.435 0.548,-0.1312 1.1146,-0.8477 -0.3732,-0.3761 -1.7142,0.2379 -2.1587,0.424 -4.4773,1.8744 -7.4761,5.872 -9.2264,10.2784 -1.9627,4.9412 -2.2867,11.3844 -0.2319,16.5189 0.171,0.4272 0.8654,1.7959 0.847,1.9285z"/>
    <path id="_456896144" class="fil3" d="M104.293 143.35c0.2345,0.7206 1.0567,1.5271 1.5356,1.867 0.9654,0.6852 0.9617,0.5813 1.8905,1.5762 0.5608,0.6007 1.1505,1.0602 1.7603,1.6497 0.2833,0.274 0.5781,0.5487 0.8293,0.8765 0.3681,0.4802 0.5427,0.9145 0.6534,1.0579l0.0956 0.0966c0.0786,-0.2908 0.279,-0.5477 0.4431,-1.0772 0.1038,-0.3349 0.1898,-0.9688 0.3385,-1.2522 -0.0226,-0.0657 -1.3636,-1.3855 -1.3902,-1.4094 -0.4497,-0.4043 -0.8707,-1.0807 -1.2851,-1.5832 -0.102,-0.0672 -0.0243,-0.0065 -0.1149,-0.0918l-0.5742 -0.5571c-1.0372,-1.2154 -2.1279,-2.5385 -2.2785,-4.2427 -0.1077,-1.2191 0.2985,-1.6152 0.4341,-2.1061l-1.7881 2.023c-0.5595,0.8193 -0.7651,2.2706 -0.5494,3.1728z"/>
    <path id="_456895640" class="fil3" d="M110.902 138.938c0.6577,-0.1685 1.2227,0.3668 1.3584,0.86 0.1743,0.6332 -0.3056,1.196 -0.8227,1.349 -1.4292,0.4228 -2.1483,-1.7959 -0.5357,-2.209zm-0.1206 -1.6082c-1.4213,0.1947 -2.6399,1.4662 -2.3908,3.16 0.2048,1.3921 1.5113,2.5488 3.1519,2.295 1.4014,-0.2168 2.5613,-1.4623 2.3532,-3.1271 -0.1732,-1.3853 -1.4863,-2.551 -3.1143,-2.3279z"/>
    <path id="_456895832" class="fil3" d="M110.316 135.857c0.3037,0.0253 0.6083,-0.0394 0.9268,-0.031 0.325,0.0086 0.6135,0.0652 0.9414,0.0931 0.0115,-0.9044 -0.2682,-1.8168 -0.6344,-2.4895 -0.5091,0.0576 -1.8344,0.7436 -2.3272,1.1151 -1.0274,0.7745 -1.4291,1.0372 -2.2934,2.1403 0.4315,-0.1279 0.8871,-0.4617 1.4868,-0.6159 0.3168,-0.0814 1.619,-0.27 1.9,-0.2121z"/>
    <path id="_456895856" class="fil3" d="M99.8476 132.821c-0.3321,0.1315 -0.6658,0.4076 -0.5426,0.9527 0.0782,0.3462 0.4859,0.6925 0.9313,0.5428 0.9127,-0.3068 0.5532,-1.8683 -0.3887,-1.4955z"/>
    <path id="_456895928" class="fil3" d="M118.164 122.972l0.1094 -0.1392c-0.2556,-0.0012 0.0802,0.0787 -0.1626,-0.0769l-0.4017 -0.3303c-0.071,0.0353 0.06,-0.0577 0.2486,0.0449l0.2167 0.1073c0.0581,-0.1007 0.0489,0.0193 0.0003,-0.1592 -0.1208,-0.2317 -1.2246,-0.868 -1.5999,-1.0801l-2.0519 -0.517c0.0418,0.1522 -0.1112,0.0951 0.3909,0.3074 0.1679,0.0711 0.3392,0.1449 0.508,0.2253 0.3565,0.1698 0.6718,0.3376 0.9816,0.5004l1.6194 1.051c0.132,0.0794 0.0384,0.0293 0.1412,0.0664z"/>
    <path id="_456895904" class="fil3" d="M103.939 137.502l0.0244 0.1621c0.1274,-0.6003 0.9698,-1.8442 1.3999,-2.3718l0.7472 -0.7827c0.0706,-0.0647 0.1583,-0.0936 0.2435,-0.1592l0.6149 -0.5178c0.656,-0.5182 1.8074,-0.9864 2.6386,-1.1606 0.2036,-0.0426 1.1752,-0.1472 1.2357,-0.2477 -0.6248,-0.1744 -1.951,0.2204 -2.5099,0.4375 -1.3562,0.5268 -2.5299,1.4955 -3.374,2.6535 -0.2482,0.3406 -0.9929,1.4747 -1.0203,1.9867z"/>
    <path id="_456896432" class="fil3" d="M101.641 132.723c0.332,0.1164 0.3838,-0.0144 0.5646,-0.3087l-0.0537 -0.1894c-0.1444,-0.166 -0.3621,-0.1647 -0.531,0.0082 -0.1061,0.1086 -0.1295,0.2643 -0.0816,0.391 0.0765,0.2027 0.0491,0.0719 0.1017,0.0989z"/>
   </g>
   <g>
    <path id="_381831152" class="fil4" d="M121.796 127.122c0.008,0.0147 0.0207,0.0196 0.0251,0.0433l0.2455 0.3882c1.3574,2.0897 2.3924,5.1947 2.7933,7.6095 0.8978,5.4076 0.2366,11.2895 -2.8896,15.7708 -0.4003,0.5738 -0.7528,1.0341 -1.2335,1.5504 -0.2655,0.2852 -0.4212,0.454 -0.6684,0.6962 -0.8155,0.799 -1.3474,1.1989 -2.3335,1.8678 -1.2155,0.8244 -2.4047,1.2769 -3.7176,1.8512 -0.1749,1.6151 3.5115,-0.457 4.0136,-0.753 2.2546,-1.3292 4.5242,-3.8069 5.7841,-6.0987 3.5668,-6.4882 3.063,-15.014 -0.3288,-21.5219l-1.0327 -1.7447c-0.0083,-0.0126 -0.0157,-0.0269 -0.0245,-0.0393 -0.0096,-0.0134 -0.0211,-0.0274 -0.0306,-0.0396l-0.0747 -0.0815 0.0203 0.2235c-0.169,0.0436 -0.1642,0.0457 -0.2825,0.1386 -0.2332,0.1833 -0.0328,0.1036 -0.2655,0.1392z"/>
    <path id="_381831248" class="fil4" d="M98.2824 148.993l0.2026 0.6068c-0.0954,-0.0479 -0.115,-0.0145 -0.2032,-0.0832 0.06,0.3591 0.2334,0.461 0.3987,0.7834 0.1872,0.3652 0.1711,0.3422 0.4311,0.713l0.3603 0.4997c0.4145,0.4271 0.8361,1.2007 1.6707,2.0259 0.2041,0.2018 0.3615,0.3719 0.5702,0.5688 1.3763,1.2989 3.0299,2.5176 4.922,3.1653 1.6947,0.5801 2.3868,-0.2549 1.1725,-0.6914 -2.0063,-0.7212 -3.4209,-1.6316 -5.0011,-2.9993 -0.2019,-0.1747 -0.3325,-0.3578 -0.5642,-0.572 -0.2515,-0.2324 -0.3293,-0.3756 -0.541,-0.5956 -0.8695,-0.9034 -1.7775,-2.288 -2.3653,-3.3712l-0.2846 -0.5657c-0.0925,-0.1819 -0.0588,-0.1264 -0.1791,-0.206 -0.008,0.1061 -0.0201,0.0749 -0.0204,0.0754 -0.0831,0.1137 -0.157,0.0473 -0.2386,-0.0271l-0.1346 0.322c-0.002,0.0171 0.0161,0.0988 0.0181,0.1298l-0.2202 0.0583 0.0061 0.1631z"/>
    <path id="_381830792" class="fil4" d="M99.7809 146.175c0.2806,0.2755 0.7806,-0.0693 0.8062,-0.2002l-0.102 -0.8738 -0.214 -0.0658c0.0741,0.4241 -0.1259,1.1241 -0.4902,1.1398z"/>
   </g>
   <g>
    <path id="_381830888" class="fil5" d="M115.969 158.33c-0.8329,0.2851 -1.6493,0.52 -2.5645,0.68 -0.3834,0.0671 -2.736,0.3923 -2.888,0.1408 -0.4143,0.1074 -1.3823,-0.0809 -1.8584,-0.1627 -0.6104,-0.1048 -0.3996,-0.0896 -0.4843,-0.1672 -0.4099,0.0453 -1.4938,-0.3634 -1.8817,-0.5076 -0.0632,0.0616 -0.0222,0.0708 -0.277,0.0802l-0.8574 0.0231c-0.3839,0.0174 -0.7485,0.0227 -1.1367,0.0492 -0.7271,0.0497 -1.4263,0.0906 -2.1585,0.1498 -0.6639,0.0537 -3.5609,0.2421 -3.8001,0.8559 1.4745,0.6269 1.1779,0.5837 2.8602,0.7658 4.978,0.5387 12.3664,0.6093 17.3058,0.2635 1.3744,-0.0962 3.6036,-0.2615 4.9495,-0.5221 0.2504,-0.0485 0.5147,-0.1129 0.7165,-0.1797 0.2815,-0.0931 0.4394,-0.1253 0.4933,-0.3843l-3.9978 -0.8124c-0.704,-0.0993 -4.3047,-0.1917 -4.4209,-0.2723z"/>
    <path id="_381830768" class="fil5" d="M99.0808 144.382c0.1729,-0.0649 0.1274,-0.0065 0.2723,-0.2038 0.0782,-0.1066 0.0489,-0.0593 0.0989,-0.2449l0.324 -0.0151c0.0115,-0.5921 0.1368,-0.649 0.1559,-0.7313 0.0186,-0.08 -0.0006,-0.1601 0.0211,-0.2826 0.0418,-0.9491 -0.3974,-1.9227 -0.1862,-4.6884 0.0486,-0.6363 0.2915,-1.6911 0.2804,-2.2186 -0.0183,-0.8709 -1.0039,-0.9831 -1.3835,-0.2982 -0.4269,0.7702 -0.5547,3.5275 -0.5253,4.5614 0.0272,0.9613 0.1764,2.4229 0.4194,3.3632 0.0422,0.1633 0.0917,0.3137 0.1702,0.454 0.1464,0.2612 0.2158,0.2753 0.3528,0.3043z"/>
    <path id="_381830600" class="fil5" d="M97.5119 146.389l0.0304 -0.0865c-0.019,0.1987 -0.0401,0.0621 0.1366,0.1255 0.0237,-0.3461 0.1702,-0.4496 0.1904,-0.8481 0.0177,-0.2369 -0.3426,-1.791 -0.4219,-2.2042 -0.1698,-0.886 -0.1765,-1.5504 -0.2252,-2.4204 -0.1675,0.3041 -0.1938,2.3547 -0.1735,2.8288 0.0389,0.904 0.0819,1.2076 0.2575,1.9946 0.0263,0.118 0.0443,0.2076 0.0724,0.3247 0.0129,0.0537 0.014,0.0859 0.0346,0.1372 0.0708,0.1758 0.0292,0.0768 0.0987,0.1484z"/>
    <path id="_381831032" class="fil5" d="M120.673 125.426c0.2557,0.547 0.8889,1.1384 1.1226,1.6963 0.2327,-0.0356 0.0323,0.0441 0.2655,-0.1392 0.1183,-0.0929 0.1135,-0.095 0.2825,-0.1386l-0.0203 -0.2235c-0.2254,-0.1765 -0.9684,-1.3654 -1.2311,-1.5267 -0.0357,0.0439 0.0716,0.2704 -0.235,-0.0169 -0.0835,-0.0783 -0.1251,-0.1317 -0.1849,-0.2013l-0.1207 0.0409c0.0432,0.4833 0.0622,0.128 0.2505,0.4746l-0.1291 0.0344z"/>
    <path id="_381830816" class="fil5" d="M99.7809 146.175c0.3643,-0.0157 0.5643,-0.7157 0.4902,-1.1398 -0.4115,-0.0534 -0.6381,-0.0125 -0.7959,0.3418 -0.1628,0.3655 0.066,0.692 0.3057,0.798z"/>
    <path id="_377383664" class="fil5" d="M97.65 159.528c-0.2672,-0.1583 -0.4537,-0.3381 -0.6829,-0.0568 0.0646,0.0816 -0.0632,0.0421 0.1285,0.1024 0.1182,0.0372 0.4032,0.0234 0.5544,-0.0456z"/>
   </g>
   <g>
    <path id="_377455160" class="fil6" d="M100.271 145.035l0.214 0.0658 0.102 0.8738c-0.0256,0.1309 -0.5256,0.4757 -0.8062,0.2002 -0.2397,-0.106 -0.4685,-0.4325 -0.3057,-0.798 0.1578,-0.3543 0.3844,-0.3952 0.7959,-0.3418zm10.5104 -7.7046c1.628,-0.2231 2.9411,0.9426 3.1143,2.3279 0.2081,1.6648 -0.9518,2.9103 -2.3532,3.1271 -1.6406,0.2538 -2.9471,-0.9029 -3.1519,-2.295 -0.2491,-1.6938 0.9695,-2.9653 2.3908,-3.16zm-10.8285 5.5738c0.1884,0.1889 0.29,1.0158 0.1442,1.2766 -0.1282,0.2295 -0.6034,0.4493 -0.916,0.291 -0.092,-0.0466 -0.0458,-0.0353 -0.1004,-0.0899 -0.137,-0.029 -0.2064,-0.0431 -0.3528,-0.3043 -0.0785,-0.1403 -0.128,-0.2907 -0.1702,-0.454 -0.243,-0.9403 -0.3922,-2.4019 -0.4194,-3.3632 -0.0294,-1.0339 0.0984,-3.7912 0.5253,-4.5614 0.3796,-0.6849 1.3652,-0.5727 1.3835,0.2982 0.0111,0.5275 -0.2318,1.5823 -0.2804,2.2186 -0.2112,2.7657 0.228,3.7393 0.1862,4.6884zm-0.1054 -10.0829c0.9419,-0.3728 1.3014,1.1887 0.3887,1.4955 -0.4454,0.1497 -0.8531,-0.1966 -0.9313,-0.5428 -0.1232,-0.5451 0.2105,-0.8212 0.5426,-0.9527zm2.3041 -0.596c0.1493,0.1589 0.1223,0.2205 0.102,0.4355 -0.2202,0.1628 -0.4368,0.3921 -0.6129,0.0626 -0.0526,-0.027 -0.0252,0.1038 -0.1017,-0.0989 -0.0479,-0.1267 -0.0245,-0.2824 0.0816,-0.391 0.1689,-0.1729 0.3866,-0.1742 0.531,-0.0082zm13.7242 -6.5917c0.2302,-0.121 0.2887,0.1026 0.2134,0.3203 -0.2527,0.0423 -0.2638,-0.1213 -0.2134,-0.3203zm2.867 -0.7706c0.092,0.1945 0.0358,0.2295 -0.1305,0.1822 -0.0836,-0.1762 -0.0313,-0.1556 0.1305,-0.1822zm-3.8416 -0.5048c0.079,0.0647 0.0701,-0.1128 0.081,0.1533 0.0081,0.1982 -0.1599,0.268 -0.3317,0.2666l-0.1068 -0.1476 0.0824 -0.3776c0.0413,-0.0442 0.2167,-0.1042 0.2751,0.1053zm3.2735 -1.939c0.3521,0.1755 0.5511,0.3827 0.8564,0.6172 0.6819,0.5237 1.7087,1.7371 2.0614,2.0581 0.2627,0.1613 1.0057,1.3502 1.2311,1.5267l0.0747 0.0815c0.0095,0.0122 0.021,0.0262 0.0306,0.0396 0.0088,0.0124 0.0162,0.0267 0.0245,0.0393l1.0327 1.7447c3.3918,6.5079 3.8956,15.0337 0.3288,21.5219 -1.2599,2.2918 -3.5295,4.7695 -5.7841,6.0987 -0.5021,0.296 -4.1885,2.3681 -4.0136,0.753 1.3129,-0.5743 2.5021,-1.0268 3.7176,-1.8512 0.9861,-0.6689 1.518,-1.0688 2.3335,-1.8678 0.2472,-0.2422 0.4029,-0.411 0.6684,-0.6962 0.4807,-0.5163 0.8332,-0.9766 1.2335,-1.5504 3.1262,-4.4813 3.7874,-10.3632 2.8896,-15.7708 -0.4009,-2.4148 -1.4359,-5.5198 -2.7933,-7.6095l-0.2455 -0.3882c-0.0044,-0.0237 -0.0171,-0.0286 -0.0251,-0.0433 -0.2337,-0.5579 -0.8669,-1.1493 -1.1226,-1.6963 -0.1091,-0.0437 -0.0767,-0.0567 -0.1696,-0.1671l-1.0529 -1.1072c-0.1262,-0.1276 -0.078,-0.0616 -0.1571,-0.2157 -0.1883,-0.0979 -0.3711,-0.3246 -0.5783,-0.472l-0.4416 -0.3513c-0.0708,-0.0729 -0.074,-0.0917 -0.1098,-0.1403 -0.1028,-0.0371 -0.0092,0.013 -0.1412,-0.0664l-1.6194 -1.051c-0.3098,-0.1628 -0.6251,-0.3306 -0.9816,-0.5004 -0.1688,-0.0804 -0.3401,-0.1542 -0.508,-0.2253 -0.5021,-0.2123 -0.3491,-0.1552 -0.3909,-0.3074l2.0519 0.517c0.3753,0.2121 1.4791,0.8484 1.5999,1.0801zm-20.9526 18.5363c0.0487,0.87 0.0554,1.5344 0.2252,2.4204 0.0793,0.4132 0.4396,1.9673 0.4219,2.2042 0.1092,0.141 0.0829,0.1232 0.113,0.2085l0.3853 1.1997c0.1276,0.3409 0.4598,1.049 0.5044,1.2838 0.1203,0.0796 0.0866,0.0241 0.1791,0.206l0.2846 0.5657c0.5878,1.0832 1.4958,2.4678 2.3653,3.3712 0.2117,0.22 0.2895,0.3632 0.541,0.5956 0.2317,0.2142 0.3623,0.3973 0.5642,0.572 1.5802,1.3677 2.9948,2.2781 5.0011,2.9993 1.2143,0.4365 0.5222,1.2715 -1.1725,0.6914 -1.8921,-0.6477 -3.5457,-1.8664 -4.922,-3.1653 -0.2087,-0.1969 -0.3661,-0.367 -0.5702,-0.5688 -0.8346,-0.8252 -1.2562,-1.5988 -1.6707,-2.0259l-0.3603 -0.4997c-0.26,-0.3708 -0.2439,-0.3478 -0.4311,-0.713 -0.1653,-0.3224 -0.3387,-0.4243 -0.3987,-0.7834 0.0184,-0.1326 -0.676,-1.5013 -0.847,-1.9285 -2.0548,-5.1345 -1.7308,-11.5777 0.2319,-16.5189 1.7503,-4.4064 4.7491,-8.404 9.2264,-10.2784 0.4445,-0.1861 1.7855,-0.8001 2.1587,-0.424 -0.5666,0.7165 -0.2314,0.4127 -1.1146,0.8477 -2.6806,1.32 -4.32,2.8148 -6.1548,5.0388 -0.2792,0.3385 -1.0344,1.4173 -1.2475,1.7675 -1.0134,1.6654 -1.9132,3.5092 -2.4733,5.6504 -0.5218,1.9949 -1.066,5.2449 -0.8394,7.2837zm9.0703 17.3577c0.3879,0.1442 1.4718,0.5529 1.8817,0.5076 0.0946,-0.1146 0.2329,-0.2164 0.3595,-0.3506 1.7672,-1.8719 3.2535,-3.9816 2.7788,-6.8527 -0.0867,-0.524 -0.2383,-0.8141 -0.3501,-1.2398 -0.1107,-0.1434 -0.2853,-0.5777 -0.6534,-1.0579 -0.2512,-0.3278 -0.546,-0.6025 -0.8293,-0.8765 -0.6098,-0.5895 -1.1995,-1.049 -1.7603,-1.6497 -0.9288,-0.9949 -0.9251,-0.891 -1.8905,-1.5762 -0.4789,-0.3399 -1.3011,-1.1464 -1.5356,-1.867 -0.3986,-0.5102 -0.7293,-2.013 -0.8003,-2.8018 -0.0589,-0.6556 0.0254,-2.6556 0.4456,-3.0461 0.0274,-0.512 0.7721,-1.6461 1.0203,-1.9867 0.8441,-1.158 2.0178,-2.1267 3.374,-2.6535 0.5589,-0.2171 1.8851,-0.6119 2.5099,-0.4375 0.2115,0.1105 0.2887,0.2872 0.4129,0.4897 0.1239,0.2019 0.1856,0.31 0.2939,0.5151 0.3662,0.6727 0.6459,1.5851 0.6344,2.4895 -0.3279,-0.0279 -0.6164,-0.0845 -0.9414,-0.0931 -0.3185,-0.0084 -0.6231,0.0563 -0.9268,0.031 -0.0684,0.0549 0.0129,0.0183 -0.1085,0.063 -0.0173,0.0064 -0.0802,0.0212 -0.1003,0.0265 -0.724,0.1913 -1.1324,0.429 -1.7329,0.8807l-0.4565 0.4504c-0.5052,0.55 -1.0485,1.5668 -1.0881,2.6424 -0.0458,1.2464 0.3876,2.0986 0.9614,2.8235 0.1551,0.1961 0.3049,0.3375 0.4665,0.4999 0.2851,0.2866 0.1721,0.239 0.2917,0.6177 0.1704,0.5395 0.4104,0.8365 0.6152,1.2912 0.4144,0.5025 0.8354,1.1789 1.2851,1.5832 0.0266,0.0239 1.3676,1.3437 1.3902,1.4094 0.5684,0.2464 1.4082,1.7426 1.6258,2.4481 0.6871,2.2279 0.0928,4.554 -1.1602,6.3619 -0.4877,0.7037 -0.8113,1.0637 -1.3244,1.6898l-0.4639 0.506c0.152,0.2515 2.5046,-0.0737 2.888,-0.1408 0.9152,-0.16 1.7316,-0.3949 2.5645,-0.68 2.3588,-0.7389 4.5465,-2.4251 6.1843,-4.2012 3.0818,-3.3421 4.6913,-7.6364 5.0691,-12.2208 0.3596,-4.3632 -0.3877,-8.1787 -1.8446,-11.8058 -0.8355,-2.0801 -2.5212,-4.7211 -4.0743,-6.3283 -1.7715,-1.8333 -3.594,-3.2077 -6.1573,-4.1803 -0.7162,-0.2717 -0.7096,-0.3595 -1.2119,0.0576 -0.8498,0.7056 -1.7734,1.787 -2.2845,2.8892 -0.7552,1.6284 -0.9222,4.0596 -0.3372,5.8834 0.2641,0.8236 0.8375,1.6278 1.2923,2.174 0.6133,0.7366 2.7831,3.0418 3.3281,3.5484 1.2552,1.1668 2.4915,2.0766 3.0622,3.874 1.5048,4.7386 -2.8026,9.6505 -7.4142,9.3234 -0.7604,-1.1704 -1.2113,-1.6519 -1.4006,-3.1492l2.7611 -0.3075c0.7764,-0.3865 1.2645,-0.7997 1.7024,-1.4144 0.4608,-0.647 0.7656,-1.4075 0.774,-2.3825 0.0042,-0.4923 -0.0725,-0.96 -0.214,-1.4041 -0.1023,-0.321 -0.4352,-0.8381 -0.4647,-1.0523 -0.1001,-0.0695 -0.006,0.0231 -0.1317,-0.1172 -0.0075,-0.0085 -0.0548,-0.0726 -0.0734,-0.0959 -0.6807,-0.8543 -0.6212,-0.4003 -0.7242,-1.107 -0.201,-1.3791 -0.8307,-1.9278 -1.0918,-2.5322 -0.1289,-0.0825 -1.1317,-1.2546 -1.1875,-1.3521 -0.2179,-0.1185 -1.0373,-1.1163 -1.1978,-1.3225 -2.1241,-2.7295 -2.3805,-6.584 -0.5877,-9.5071 0.4453,-0.726 1.3142,-1.8877 1.9819,-2.3939 0.1149,-0.087 0.2208,-0.0984 0.282,-0.2737 -0.5596,0.0744 -1.4263,0.0005 -2.0763,0.0647 -1.7086,0.1686 -3.3708,0.6739 -4.8115,1.5046 -0.9775,0.5636 -2.6287,1.6557 -3.3619,2.4914l-0.8066 0.7847c-0.4961,0.5315 -0.9784,1.1051 -1.4457,1.7368 -3.7027,5.0068 -5.3146,12.1831 -4.1787,18.3763 0.649,3.5382 1.7671,6.2173 3.8043,8.9327 1.7234,2.2969 4.3853,4.5552 7.1595,5.4901z"/>
    <path id="_377454920" class="fil6" d="M110.902 138.938c-1.6126,0.4131 -0.8935,2.6318 0.5357,2.209 0.5171,-0.153 0.997,-0.7158 0.8227,-1.349 -0.1357,-0.4932 -0.7007,-1.0285 -1.3584,-0.86z"/>
   </g>
  </g>
 </g>
</svg>
