<?xml version="1.0" encoding="UTF-8"?>
<!DOCTYPE svg PUBLIC "-//W3C//DTD SVG 1.1//EN" "http://www.w3.org/Graphics/SVG/1.1/DTD/svg11.dtd">
<!-- Creator: CorelDRAW -->
<svg xmlns="http://www.w3.org/2000/svg" xml:space="preserve" width="215.9mm" height="279.4mm" style="shape-rendering:geometricPrecision; text-rendering:geometricPrecision; image-rendering:optimizeQuality; fill-rule:evenodd; clip-rule:evenodd"
viewBox="0 0 215.9 279.4"
 xmlns:xlink="http://www.w3.org/1999/xlink">
 <defs>
  <style type="text/css">
   <![CDATA[
    .fil1 {fill:#12130F}
    .fil0 {fill:#362716}
    .fil2 {fill:#574635}
   ]]>
  </style>
 </defs>
 <g id="Capa_x0020_1">
  <metadata id="CorelCorpID_0Corel-Layer"/>
  <g id="_506046608">
   <path id="_506047808" class="fil0" d="M107.836 149.66c-0.0664,0.3344 -0.083,-0.0416 0.1395,0.2127l0.4919 0.2341 0.0211 1.7586 0.6126 -0.1788c0.2587,-0.6511 0.1369,-1.2106 -0.0011,-1.9948 -0.5922,-0.1109 -0.4722,0.1673 -1.264,-0.0318z"/>
   <path id="_506047664" class="fil0" d="M111.489 123.327c-0.2032,-0.2312 -0.4679,-0.2805 -1.0516,-0.5048 -0.4376,-0.1681 -0.8512,-0.3631 -1.3703,-0.3153 0.5685,0.4514 0.4369,0.6222 0.28,1.6508l0.6534 -0.7919 1.4885 -0.0388z"/>
   <path id="_506047640" class="fil0" d="M102.479 123.872c0.6956,-0.0849 1.4432,-0.2084 1.6961,0.1468 0.2975,-0.317 0.3329,-0.563 0.5007,-1.0315 -0.9517,0.2228 -1.754,0.4862 -2.1225,0.8117 -0.0185,0.0163 -0.0494,0.0488 -0.0743,0.073z"/>
   <path id="_506047688" class="fil0" d="M101.588 151.361c0.8793,0.0092 1.9699,-0.6967 2.3212,-1.0865 -0.4498,0.1335 -2.085,0.5613 -2.3212,1.0865z"/>
   <path id="_506046944" class="fil0" d="M112.368 146.858l-0.0138 -0.3163c0.6522,-0.1968 0.5833,-0.1107 1.0138,-0.4767l-0.1535 -0.2485c-0.4245,0.0449 -0.7916,0.1727 -1.0552,0.4862 0.0053,0.038 0.0384,0.2507 0.0528,0.2859 0.1527,0.3739 0.0676,0.1417 0.1559,0.2694z"/>
   <path id="_506046680" class="fil0" d="M113.294 145.817c0.4054,0.1091 0.5758,0.3531 1.1673,-0.0555 0.0191,-0.0132 0.0434,-0.0405 0.0615,-0.0538l0.2923 -0.1872 -0.0801 -0.1894c-0.5624,0.1816 -0.9736,0.1662 -1.441,0.4859z"/>
   <path id="_506047376" class="fil0" d="M102.52 128.466l0.301 -0.7802c-0.324,0.1914 -0.3587,0.3402 -0.7481,0.5093 0.2814,0.1462 0.165,0.1163 0.4471,0.2709z"/>
   <path id="_506047064" class="fil0" d="M112.134 127.574c0.1669,0.1984 0.079,0.1733 0.2742,0.1075 0.4114,-0.1386 0.2309,-0.1839 0.3086,-0.2684 -0.0835,-0.0429 0.1661,-0.2818 -0.3962,-0.0939 -0.5234,0.1749 -0.1018,0.0321 -0.1866,0.2548z"/>
   <path id="_506046776" class="fil1" d="M109.067 122.507c0.5191,-0.0478 0.9327,0.1472 1.3703,0.3153 0.5837,0.2243 0.8484,0.2736 1.0516,0.5048 0.3236,0.0212 1.436,0.6731 1.7292,0.8617 0.2992,0.1926 0.4122,0.3522 0.7281,0.5816 0.3375,0.2452 0.3102,0.1976 0.6471,0.5887 0.6043,0.3122 1.076,0.9917 1.487,1.5614 0.2112,0.2927 0.342,0.5176 0.5749,0.8477 0.2952,0.4184 0.2321,0.5024 0.4466,0.9755 0.1806,0.3984 0.3669,0.4778 0.5467,0.9009 0.1944,0.4575 0.1512,0.5991 0.3653,1.018 0.8692,1.7003 1.9273,4.7171 1.9318,6.6114 0.0038,1.5961 0.1133,3.3646 0.0535,5.2217 -0.0968,3.0046 -0.288,1.6537 -0.4244,2.4065 -0.0882,0.4864 0.1824,0.4535 -0.019,1.1991 -0.624,2.311 -2.2324,5.6699 -3.8313,7.5879 -0.2041,0.2449 -1.9593,1.4987 -2.4914,1.7841 -0.5683,0.3048 -1.2913,0.6567 -1.9923,0.7625l0.3879 -1.0065c0.4208,-0.6681 1.4857,-2.984 1.6132,-3.9301 0.1758,-1.304 -0.4781,-3.34 -0.8738,-4.441 -0.0883,-0.1277 -0.0032,0.1045 -0.1559,-0.2694 -0.0144,-0.0352 -0.0475,-0.2479 -0.0528,-0.2859 0.2636,-0.3135 0.6307,-0.4413 1.0552,-0.4862l0.0792 0c0.4674,-0.3197 0.8786,-0.3043 1.441,-0.4859 0.3003,-0.06 0.614,-0.203 0.8175,-0.3802 0.1959,-0.1707 0.034,0.0295 0.1555,-0.1928 -0.8151,-0.0483 -0.3451,-0.0286 -1.0138,-0.1683 -0.2064,0.3844 -0.1875,0.1874 -0.7367,0.3066 -0.9349,0.2028 -0.4731,0.5408 -2.3629,0.4216 -1.8656,-3.731 -0.9016,-1.6179 -1.4721,-4.9976l0.3585 0.1672 0.1816 -0.1961c0.1822,-0.1642 0.0145,-0.0532 0.2025,-0.1566 0.281,-0.1545 3.5697,-0.8223 3.9648,-0.9113l-0.3047 -0.0671c-2.3268,-0.2543 -3.7754,0.4771 -4.5578,0.2935l-0.494 -1.7533c-0.324,-1.4332 0.2349,-1.5164 0.3693,-1.7638l-0.731 0.0967c0.7489,-0.5135 0.5257,-0.4208 1.411,-0.7148 1.6419,-0.5454 0.6778,-0.5314 1.4652,-0.6147 0.5255,-0.3132 2.392,-0.7113 3.1539,-1.0633l-0.0904 -0.0613c-0.918,-0.5361 0.4732,0.0436 -0.2982,-0.1302 -0.5605,-0.1262 -2.2978,0.2479 -2.7232,0.3753 -0.5803,0.1738 -1.0757,0.0354 -1.6608,0.13 -0.5562,0.09 -0.732,0.3166 -1.473,0.3509l1.6926 -0.8432c0.9135,-0.5217 1.5322,-2.313 1.3017,-3.5397 -0.1174,-0.6248 -0.3258,-1.0198 -0.6507,-1.5127l0.8941 -0.832c0.0848,-0.2227 -0.3368,-0.0799 0.1866,-0.2548 0.5623,-0.1879 0.3127,0.051 0.3962,0.0939l1.3875 -0.948c-0.8803,0.2318 -3.2759,1.0836 -4.0402,0.8676 -2.8768,-0.8129 -1.9297,-0.2098 -3.7929,0.2423 0.5153,-2.0494 0.5424,-3.1322 1.5227,-4.4054 0.5027,-0.6529 0.2216,-0.5446 1.2735,-0.6622zm-4.8917 1.5119c-0.355,1.0941 -1.3126,2.5647 -1.3538,3.6668l-0.301 0.7802 -0.0265 0.287c0.0553,0.7592 -0.0809,1.2829 0.0236,2.0643 0.2122,1.5867 0.9426,3.2922 1.0252,4.789 -0.4912,0.275 -0.9316,0.5626 -1.4427,0.763 -0.6961,0.2728 -0.9939,0.3252 -1.8546,0.4583 -0.3681,0.0587 -0.5251,0.1859 -0.9116,0.2835l1.9451 0.0001c1.2446,0.126 0.3343,-0.0044 1.6041,-0.2945l1.0219 -0.3302c0.6484,1.0065 1.3467,1.8288 1.5605,3.0298l-2.2672 0.6324 -0.913 0.4012c0.7052,0.4141 0.5761,-0.1382 2.0114,-0.1615 0.332,-0.2423 0.8998,-0.3413 1.3086,-0.4733l0.4656 2.8218c-0.0063,0.5425 -0.0613,1.1199 0.0104,1.6506 0.0767,0.5676 0.214,0.6778 0.1989,1.3212 -3.1368,1.6384 -0.9753,0.2823 -3.0859,1.1376 -0.6713,0.025 -1.0871,0.2041 -1.2789,0.6809 1.2165,-0.314 1.9941,-0.3488 3.2038,-0.5261 0.3394,-0.1793 0.6457,-0.4034 1.0648,-0.4765 0.3278,-0.0571 0.8852,-0.0722 1.3229,-0.1059 1.1325,1.4237 1.0994,1.1281 1.5082,2.9468l-1.0395 0.2682 -0.14 0.0258c0.7918,0.1991 0.6718,-0.0791 1.264,0.0318 0.138,0.7842 0.2598,1.3437 0.0011,1.9948l-0.6126 0.1788c-0.6055,0.2817 -1.4106,0.3043 -1.972,0.6984 0.3554,0.6025 0.2753,-0.0199 0.1588,0.2369 -1.4258,0.4791 -2.3513,0.6402 -3.4473,1.4666 -0.2573,0.2607 0.3054,0.2206 -0.2751,0.2192 0.2857,0.1766 0.2612,0.1311 0.2133,0.2643 -0.0698,0.1943 -0.0425,0.0489 -0.0564,0.0323l0.3694 -0.1968c0.8373,-0.3384 1.4741,-0.7758 2.3265,-1.1937 0.7518,-0.3686 1.833,-0.548 2.661,-0.8461l0.7903 -0.2272c-0.3568,1.2054 -0.9963,4.5047 -2.5773,4.5962 -1.6395,0.095 -4.0884,-1.5578 -4.8773,-2.295 -0.8294,-0.7751 -2.0431,-1.9371 -2.6147,-2.8497 -0.2329,-0.3718 -0.4575,-0.6269 -0.7409,-1.0441 -0.6621,-0.9747 -1.9631,-3.6005 -1.9348,-5.0835l1.1584 0.0084c0.1752,-0.3473 1.6318,-0.5147 2.0492,-0.8403 0.0021,-0.2396 0.081,-0.0697 -0.2022,-0.1782 -0.4859,0.3371 -1.9014,0.4056 -2.3744,0.5667 -0.5701,0.1941 -0.0993,0.2119 -0.6675,0.244 -0.6154,-5.9473 -1.7514,-11.6352 1.7543,-17.0942 0.7932,-1.2351 1.797,-2.9287 3.1581,-3.6689l1.0917 -0.808c0.0249,-0.0242 0.0558,-0.0567 0.0743,-0.073 0.3685,-0.3255 1.1708,-0.5889 2.1225,-0.8117 -0.1678,0.4685 -0.2032,0.7145 -0.5007,1.0315zm-1.173 6.1878l-0.0475 -0.3731 0.1783 0.3915c0.0476,1.887 1.8541,3.2455 3.3085,3.8371 0.7641,0.3107 0.2542,0.0287 0.9568,1.4158 0.5053,0.9977 1.1649,2.0323 1.5043,3.2535 0.4144,1.4914 0.212,2.9884 0.5622,4.1824 0.7003,2.3875 2.0751,2.4496 2.9705,6.5479 0.5409,2.4758 -0.8263,4.1533 -1.3396,5.6553l-0.4037 1.6791c1.2502,0.5864 4.4471,-1.6632 5.5056,-2.7537 1.3187,-1.3586 2.2924,-3.0788 3.1721,-5.264 2.461,-6.1127 1.6512,-15.0388 -1.7586,-20.6601 -1.0692,-1.7627 -2.1572,-3.2955 -3.9766,-4.4615 -0.7919,-0.5076 -1.7317,-1.052 -2.7646,-1.3952 -1.2394,-0.4119 -2.3991,-0.8201 -3.3161,0.0799l-1.8298 6.3582c0.6729,-0.0414 0.1457,-0.2751 1.2464,-0.8823 0.4988,-0.2751 1.1979,-0.3612 1.8388,-0.2866 1.1705,0.1364 2.0376,0.8554 2.4721,1.9245 1.0344,2.5449 -1.5115,4.7824 -3.9902,4.3373 -4.2449,-0.7622 -4.465,-5.2869 -3.126,-8.4198l1.3734 -2.8969c-1.9991,-0.9545 -5.9548,2.5057 -7.2244,4.2915 -1.6313,2.2947 -2.6805,5.3773 -3.114,8.7373 -0.3272,2.5366 0.2373,8.2321 0.8018,10.7772 0.3552,1.6014 0.9269,2.9919 1.6404,4.3005 1.2835,2.354 2.0743,3.2577 4.1895,4.8416 1.4365,1.0755 4.5374,3.208 6.1592,1.5839 0.6943,-0.6952 1.501,-2.793 1.8323,-4.11 1.2441,-4.9458 -2.7036,-7.6817 -2.9125,-8.6155 -0.4309,-1.9264 0.003,-3.1121 -0.6854,-5.2561 -0.5892,-1.8349 -0.978,-1.0123 -1.9417,-4.0059 -0.4626,-1.4368 -1.2328,-3.2091 -1.2815,-4.8138z"/>
   <path id="_506047088" class="fil1" d="M108.163 129.972l-0.0339 0.6839c-1.3382,0.4456 -1.4232,-1.8467 0.4435,-1.6252 1.2092,0.1434 1.6434,1.5581 0.969,2.5488 -0.5281,0.7758 -2.066,0.8564 -3.0168,0.2546 -0.3127,-0.1979 -1.4286,-1.5713 -1.9203,-2.0998 -0.1647,0.474 0.0283,0.6278 0.2734,1.1303 1.3356,2.7379 4.3699,2.3523 5.1753,1.1104 0.4377,-0.6749 0.6785,-1.6085 0.2449,-2.4832 -0.866,-1.7472 -3.6423,-1.2626 -3.8277,0.3234 -0.1099,0.9393 0.6544,1.5777 1.5997,1.4697 1.0816,-0.1235 1.3684,-1.4641 0.0929,-1.3129z"/>
   <polygon id="_506046008" class="fil2" points="103.002,130.207 103.133,130.225 102.955,129.834 "/>
  </g>
 </g>
</svg>
