<?xml version="1.0" encoding="UTF-8"?>
<!DOCTYPE svg PUBLIC "-//W3C//DTD SVG 1.1//EN" "http://www.w3.org/Graphics/SVG/1.1/DTD/svg11.dtd">
<!-- Creator: CorelDRAW -->
<svg xmlns="http://www.w3.org/2000/svg" xml:space="preserve" width="30.1752mm" height="32.639mm" style="shape-rendering:geometricPrecision; text-rendering:geometricPrecision; image-rendering:optimizeQuality; fill-rule:evenodd; clip-rule:evenodd"
viewBox="0 0 30.1752 32.639"
 xmlns:xlink="http://www.w3.org/1999/xlink">
 <defs>
  <style type="text/css">
   <![CDATA[
    .fil0 {fill:#141411}
   ]]>
  </style>
 </defs>
 <g id="Capa_x0020_1">
  <metadata id="CorelCorpID_0Corel-Layer"/>
  <path class="fil0" d="M16.2775 28.2026c0.1327,-0.4533 -0.2784,-0.8694 -0.4796,-1.2398l-0.4726 -1.5398 3.9134 -0.9747c0.6517,-0.2518 0.2588,0.0118 0.3802,-0.2843 -1.1027,0.0047 -1.9149,-0.2762 -3.0342,0.0767l-1.3506 0.2744 0.4926 -2.9381 3.3883 -1.809 5.2872 -0.3683c-0.1821,2.0711 -1.4069,3.6466 -2.3896,5.306 -0.3229,0.5452 -1.3679,1.3783 -2.0445,1.8025 -1.2106,0.7589 -1.3674,0.6622 -2.8843,0.9495 -0.2303,0.3696 -0.0136,0.8621 -0.3772,1.2241 -1.2998,1.2941 -3.9143,-2.2908 -2.668,-6.0379 0.2937,-0.8829 -0.1655,-0.312 0.6353,-1.1806 0.6374,0.821 -1.4984,3.8283 0.9181,6.4374 0.2614,0.2823 0.2561,0.2634 0.6855,0.3019zm-3.8924 -23.3559c0.6409,0.2204 0.2772,-0.05 0.5252,0.3824 0.2978,0.0193 -0.0003,-0.153 0.3571,0.1625 0.7903,0.6974 0.2991,1.8351 0.1573,2.7795 -1.6266,-0.5313 -1.6965,-0.663 -3.5216,-0.6822 -0.6251,0.0161 -1.1007,0.1625 -1.472,0.5488 0.8697,0.202 1.947,0.0615 2.749,0.4057 0.9026,0.1799 1.5465,0.6267 2.0615,1.0241 0.0001,0.0001 0.4462,-0.1325 0.069,0.3933 -0.1664,0.232 -1.4561,0.8088 -1.951,1.4377 -0.1065,0.1353 -0.0695,0.0866 -0.163,0.1979l-0.1614 0.1869c-0.121,0.1554 -0.123,0.1892 -0.2456,0.3507 -0.9957,1.3108 -1.3024,2.0688 -1.3668,3.981 0.0158,1.5426 0.6738,2.8317 1.6394,3.8773 0.5316,0.5756 0.5863,0.4283 1.0534,0.8196 0.3134,0.14 1.2977,0.4431 1.3458,0.7514l-0.5488 2.5298c-0.2538,0.1407 -1.1317,0.0722 -1.4594,0.0838l-0.211 0.4538c0.4698,-0.0182 0.9302,0.1753 1.4069,0.3125 0.4114,0.2995 0.2572,0.2788 0.327,0.9488 0.0462,0.4433 0.1496,0.8829 0.2661,1.2259 -0.5548,0.0127 -1.0929,0.044 -1.4335,-0.3069 -0.4911,0.006 -0.9607,-0.2883 -1.3004,-0.4737 -0.4437,-0.2422 -0.7345,-0.5594 -1.0741,-0.8646 -0.4761,-0.4278 -1.6816,-1.4793 -1.8893,-1.9682 -1.0793,-1.3715 -2.0833,-4.0809 -1.9757,-6.3335l3.2313 -0.7378 0.4035 -0.3247 -0.6748 -0.0911 -1.2201 0.0264 -1.6287 0.0178c-0.4604,-0.146 -0.2381,0.1953 -0.3299,-0.5107 -0.215,-1.6535 0.7087,-6.2788 1.657,-7.7968 0.9746,-1.5603 3.4979,-4.478 5.6211,-4.3398 0.4384,-0.2962 2.3141,-0.0821 1.3773,1.8067 -0.5732,-0.4451 -1.2323,-1.1788 -2.2093,-0.5276l0.5885 0.2533zm2.4938 3.1194c-0.0672,0.6617 0.0276,1.1987 -0.0471,1.7192l-0.5282 0.1306c-0.1508,-1.1062 0.0837,-2.6469 0.4334,-3.6951 0.162,-0.4856 0.4747,-1.2371 0.428,-1.7579 -0.0407,-0.4544 -0.8731,-1.4484 -0.014,-1.4148 0.4967,0.0194 0.597,1.0548 0.6009,1.5253 0.0102,1.1921 -0.7378,2.1613 -0.873,3.4927zm4.0217 -4.2258c0.3968,0.1212 0.8976,0.3757 1.1118,0.5788 0.1579,0.1498 0.565,0.687 0.6246,0.7945 0.6109,0.4095 0.6008,0.2138 0.9472,0.8872 0.388,0.7542 1.7819,2.0929 1.9759,3.6531 0.918,0.8331 1.2299,7.125 1.2255,8.0735l-1.8941 0.7542c-0.4048,0.1825 -1.478,0.4909 -1.9894,0.5354l-0.9941 0.1976c-0.5607,-0.0484 -0.1781,0.0185 -0.2666,-0.1618 0.4502,-0.4096 0.8269,-1.6802 0.8614,-2.524 0.0466,-1.1386 -0.1923,-1.9779 -0.6939,-2.7929 -0.1107,-0.0597 0.031,0.0912 -0.1702,-0.1442l-0.0937 -0.1333c-1.9043,-2.7575 -6.1762,-2.4086 -7.2767,0.929 -0.5562,1.6868 0.0548,2.1947 0.4703,3.4173 0.5611,0.3239 0.3167,0.6067 1.6291,0.9512 1.3838,0.3632 2.904,-0.1831 3.3897,-1.5505 0.2764,-0.7785 -0.0106,-1.4703 -0.1954,-2.1699 -0.4448,-0.4308 -1.2488,-1.0185 -2.1601,-0.6977 -0.3275,0.1153 -0.6957,0.4754 -0.7612,0.8795 -0.1022,0.6322 0.273,0.7147 0.5047,1.1072 0.6786,-0.1425 0.692,-0.6147 1.3113,-0.1589 0.3023,0.4765 -0.714,1.3933 -1.7086,1.0108 -0.9809,-0.3773 -1.6062,-1.8552 -0.5081,-3.1362 0.6463,-0.7539 2.4405,-1.0104 3.2643,-0.2795 0.7222,0.292 1.1451,1.1474 1.2868,1.9224 0.2885,1.5782 -0.6386,3.4491 -2.508,4.0011 -0.5083,0.15 -0.9704,0.1346 -1.4932,0.0943 -0.254,-0.0196 -0.5116,-0.0468 -0.7412,-0.1028 -0.3124,-0.0762 -0.4139,-0.123 -0.6128,-0.2569 -0.1903,-0.0708 -0.2713,-0.1054 -0.4713,-0.2254 -0.3566,-0.2139 -0.3188,-0.2466 -0.4074,-0.3448l-0.468 -0.3529c-1.3004,-1.3709 -1.0704,-4.3382 -0.0737,-5.5886 0.9925,-1.2451 1.8607,-1.5791 3.469,-1.9882 0.4114,-0.1046 1.2331,-0.6058 1.7305,-0.8991 1.4332,-0.845 2.94,-0.8449 4.1081,-1.1891l-0.0748 -0.0608 -0.4286 -0.0498c-1.1571,-0.434 -3.3669,0.2245 -4.4641,0.5749l-0.3607 0.1367c-0.5185,0.1742 -0.0738,0.08 -0.2881,-0.0185l0.5834 -3.3169c0.3559,-0.9997 0.5157,-2.0738 0.0033,-3.0345l2.6071 0.6785zm-4.0763 -1.4223c-0.4237,0.1089 -0.6098,0.2808 -1.0957,0.2315 -1.1807,-0.1196 -1.2818,-0.4136 -2.9457,0.4428 -1.2922,0.6651 -1.8802,1.2486 -2.7413,2.084 -0.8875,0.8611 -2.0317,2.4216 -2.3923,3.6324 -0.099,0.3325 -0.1877,0.5939 -0.2906,0.911 -0.214,0.6592 -0.3503,1.256 -0.4871,1.9161 -0.497,2.3987 -0.3297,6.3209 0.2017,8.8011 0.2216,1.0342 0.5912,2.8339 1.0528,3.772 0.4273,0.8682 0.8191,2.1601 1.7618,3.1407 0.2087,0.0154 0.1949,-0.0096 0.8878,0.8364 0.5445,0.6647 1.2283,1.1646 2.0512,1.5394 2.3926,1.0895 5.0666,0.9162 7.539,0.2107 1.262,-0.3601 2.5167,-1.2081 3.4283,-1.9718l0.9587 -0.9744c0.0165,-0.017 0.0427,-0.0412 0.059,-0.0582l0.2777 -0.3127c0.5821,-0.7776 0.6258,-0.8466 1.0114,-1.7521 1.1705,-2.7487 1.7857,-6.4663 1.3693,-9.454 -0.5482,-3.9337 -0.3234,-4.9804 -2.3547,-8.4441 -0.3304,-0.5634 -1.1441,-1.5254 -1.589,-2.0191 -1.1092,-1.2307 -1.7145,-1.6177 -3.1358,-2.2779 -0.7916,-0.3676 -0.6317,-0.2105 -1.4281,-0.3368l-0.6289 0.0172 -1.5095 0.0658z"/>
 </g>
</svg>
