<?xml version="1.0" encoding="UTF-8"?>
<!DOCTYPE svg PUBLIC "-//W3C//DTD SVG 1.1//EN" "http://www.w3.org/Graphics/SVG/1.1/DTD/svg11.dtd">
<!-- Creator: CorelDRAW -->
<svg xmlns="http://www.w3.org/2000/svg" xml:space="preserve" width="34.544mm" height="32.639mm" style="shape-rendering:geometricPrecision; text-rendering:geometricPrecision; image-rendering:optimizeQuality; fill-rule:evenodd; clip-rule:evenodd"
viewBox="0 0 34.544 32.639"
 xmlns:xlink="http://www.w3.org/1999/xlink">
 <defs>
  <style type="text/css">
   <![CDATA[
    .fil2 {fill:black}
    .fil0 {fill:#232324}
    .fil1 {fill:#F8F9F9}
   ]]>
  </style>
 </defs>
 <g id="Capa_x0020_1">
  <metadata id="CorelCorpID_0Corel-Layer"/>
  <g id="_1240327528">
   <g>
    <path id="_1240345768" class="fil0" d="M6.5495 21.6869c-0.071,-0.2478 -0.2923,-0.4591 -0.4997,-0.5968 0.0395,0.1363 0.1214,0.2308 0.2062,0.3369 0.106,0.1327 0.1081,0.2044 0.2935,0.2599z"/>
    <path id="_1240345720" class="fil0" d="M4.5253 30.5509c0.115,-0.0581 0.0971,0.0107 0.0699,-0.1662 -0.1903,0.0006 -0.196,0.0924 -0.0699,0.1662z"/>
    <path id="_1240345624" class="fil0" d="M7.2033 19.3265c0.0569,-0.1582 0.0413,-0.0337 -0.0003,-0.15 -0.1982,-0.0104 -0.1982,0.1565 0.0003,0.15z"/>
    <path id="_1240345912" class="fil0" d="M28.7504 32.5785c0.1294,-0.0373 0.1411,-0.0174 0.0978,-0.1547l-0.1128 0.0005 0.015 0.1542z"/>
   </g>
   <g>
    <path id="_1240345672" class="fil1" d="M19.5408 27.6848l1.0731 0.0374c-0.0501,0.0368 0.0978,0.0357 -0.255,0.0623 -0.0964,0.0073 -0.2036,0.0156 -0.3119,0.017 -0.082,0.0011 -0.3444,-0.0001 -0.42,-0.0278 -0.1857,-0.0683 -0.0342,-0.0296 -0.0862,-0.0889zm2.0526 0c0.1252,-0.1251 0.5218,-0.1104 0.7459,-0.1461 0.133,-0.0212 0.2458,-0.0385 0.3786,-0.0631 0.2513,-0.0466 0.2189,-0.0741 0.3984,-0.0152 -0.2536,0.1181 -1.2797,0.4185 -1.5229,0.2244zm-0.6863 0.8405c-0.1507,0 -0.3232,-0.0401 -0.4742,-0.0644 -0.0222,-0.2828 0.2721,-0.217 0.5462,-0.2245 1.6359,-0.0442 3.1821,-0.4821 4.7317,-0.8686 -0.0009,0.4221 -1.6882,0.8359 -2.0365,0.9106 -0.9122,0.1957 -1.8002,0.2469 -2.7672,0.2469zm-1.2827 -0.0659c-0.4065,0.2978 -2.615,-0.1567 -3.0623,-0.2462 -0.4784,-0.0956 -0.9409,-0.2269 -1.3937,-0.3643 -0.1829,-0.0555 -1.2211,-0.3347 -1.1578,-0.5579 0.0642,-0.2263 0.4931,-0.0274 0.6505,0.0191 0.5862,0.1732 1.5257,0.3839 2.1298,0.4962 0.9158,0.1703 1.3801,0.2305 2.2907,0.3159 0.3128,0.0293 0.5943,0.0067 0.5428,0.3372zm-0.4803 -1.5974c0.1027,-0.1593 0.703,-0.0838 1.0524,-0.0931 0.2572,-0.0068 0.2367,-0.0408 0.3963,0.0778 -0.2458,0.0343 -1.3028,0.2136 -1.4487,0.0153zm2.4231 -0.3893l0.1762 0.0028c0.04,0.2398 -0.2226,0.2284 -0.1762,-0.0028zm-5.4403 -0.1343c0.1419,-0.0969 1.6275,0.2157 1.8936,0.2618 -0.2042,0.1808 -1.1781,0.0134 -1.508,-0.0588 -0.4943,-0.1083 -0.3446,-0.1255 -0.3856,-0.203zm-1.4332 -0.1122c0.0166,-0.0131 -0.0158,-0.1457 0.1611,0.0374 -0.0237,0.017 0.0487,0.0665 -0.0835,0.0419 -0.1733,-0.0321 -0.0303,-0.026 -0.0776,-0.0793zm10.711 0.6732l1.8682 -0.9864c-0.1227,0.208 -0.6531,0.51 -0.8531,0.6276 -0.1704,0.1 -0.8322,0.4677 -1.0151,0.3588zm-13.5645 -1.213c0.1578,0.0197 0.9418,0.3887 1.107,0.583 -0.1996,-0.0299 -0.8132,-0.316 -0.9938,-0.4379 -0.1682,-0.1136 -0.0632,-0.0825 -0.1132,-0.1451zm7.1702 -0.0213c-0.0544,-0.2698 0.3668,-0.2952 0.4029,-0.0696 0.0443,0.2776 -0.3653,0.2559 -0.4029,0.0696zm-3.5603 0c-0.0192,-0.175 0.2661,-0.179 0.2438,-0.0084 -0.0158,0.1202 -0.2269,0.1622 -0.2438,0.0084zm8.7702 0.2992c0.0066,-0.0076 0.0168,-0.0292 0.0205,-0.0223 0.0036,0.0068 0.0159,-0.0171 0.021,-0.0213l0.0445 -0.0364c0.03,-0.0221 0.0718,-0.0458 0.1148,-0.0724 0.306,-0.1889 0.2767,-0.1471 0.6743,-0.259 -0.0276,0.1202 -0.0248,0.0981 -0.1572,0.1777 -0.091,0.0547 -0.4677,0.2503 -0.5606,0.263 -0.1143,0.0158 -0.12,-0.0081 -0.1573,-0.0293zm-7.8416 -0.7854c0.1725,-0.132 0.5833,-0.004 0.8102,0.0239 0.4903,0.0604 0.3074,-0.0158 0.6827,0.2353 -0.2152,0.0997 -0.5737,0.0509 -0.8372,0.0169 -0.265,-0.0341 -0.635,-0.0618 -0.6557,-0.2761zm4.7074 0.6006c0.0735,-0.3035 0.6493,-0.3146 0.9573,-0.4022l1.0768 -0.209c-0.0295,0.1388 -0.006,0.1113 -0.1387,0.1788 -0.0749,0.0381 -0.1665,0.0657 -0.242,0.0923 -0.4635,0.1635 -1.1682,0.3505 -1.6534,0.3401zm4.3016 -0.9372l-0.0017 0.1455c-0.2663,0.0307 -0.2243,-0.237 0.0017,-0.1455zm-1.2107 -0.1616c-0.046,-0.3348 0.2566,-0.2637 0.3093,-0.1572 0.0893,0.1811 -0.1042,0.3335 -0.3093,0.1572zm0.3546 -0.7436l2.1255 1.047c-0.125,0.006 -0.5609,-0.3555 -1.003,-0.5529 -0.5501,-0.2458 -1.1331,-0.2275 -1.1225,-0.4941zm-9.7417 0.045c-0.113,-0.3951 0.7695,-0.0658 0.9743,-0.0175 0.3676,0.0866 0.7244,0.1683 1.1121,0.2264 0.7715,0.1156 1.1867,0.0957 1.9365,0.0666 0.1958,-0.0076 0.5489,-0.037 0.4617,0.2248 -0.1144,0.3436 -1.9802,0.1909 -2.4036,0.1324 -0.3692,-0.051 -2.0143,-0.3992 -2.081,-0.6327zm-2.3343 -0.4124c0.2226,-0.027 1.1172,0.5309 1.5169,0.7242 0.2685,0.1297 0.4836,0.2309 0.7711,0.3558 0.1332,0.0579 0.7798,0.2624 0.6329,0.4226 -0.157,0.1713 -1.4244,-0.453 -1.6277,-0.5535 -0.2701,-0.1335 -1.3364,-0.6408 -1.2932,-0.9491zm1.2985 2.058c-0.3404,0.1235 -1.8707,-0.6919 -2.1555,-0.8646 -0.5712,-0.3465 -0.8843,-0.5654 -1.3687,-0.9876 -0.0654,-0.0569 -0.4064,-0.2669 -0.3259,-0.4032 0.1313,-0.2226 0.6972,0.3054 0.9234,0.4783 0.7545,0.5771 1.8155,1.183 2.6999,1.6017 0.1349,0.0639 0.1866,0.0699 0.2268,0.1754zm6.3126 -1.4586c0.0135,-0.2312 0.3899,-0.2624 0.591,-0.3286 0.7045,-0.2318 1.4868,-0.6017 2.1006,-0.7695 1.0283,-0.2811 2.4143,-0.2393 3.2961,0.1779 0.9013,0.4265 1.4747,1.0456 1.9329,1.8822 0.1648,0.301 0.6135,1.0816 0.3342,1.3661 -0.0987,0.1005 -1.9156,1.2578 -1.8497,0.7094 0.0192,-0.1591 0.42,-0.3307 0.5698,-0.4182 0.2008,-0.1171 0.3861,-0.2297 0.5885,-0.3471 0.2348,-0.1362 0.4511,-0.2225 0.2967,-0.5786 -0.8846,-2.0394 -2.756,-2.925 -4.954,-2.4365 -0.8482,0.1885 -2.5348,1.1021 -2.9061,0.7429zm-7.1187 -1.1144c0.2274,-0.0204 0.5258,0.0328 0.5421,0.2472 -0.1179,0.0468 -0.1881,0.0199 -0.3203,-0.0333 -0.1515,-0.0609 -0.2176,-0.0714 -0.2218,-0.2139zm-3.3724 -0.0791c-0.2913,0.0178 -0.3217,-0.2648 -0.0211,-0.2068 0.0539,0.1002 0.0489,0.1082 0.0211,0.2068zm-3.3985 -0.6739c0.4591,-0.1711 1.0537,0.5388 1.4628,0.8846 1.3816,1.1679 1.9892,1.6042 3.5425,2.5535 0.1374,0.084 0.7332,0.3823 0.613,0.5714 -0.1417,0.223 -1.4311,-0.607 -1.5984,-0.7078 -0.6703,-0.4038 -1.5193,-1.0047 -2.1261,-1.5018 -0.4547,-0.3725 -1.2033,-1.0409 -1.6188,-1.4479 -0.1146,-0.1123 -0.2575,-0.1546 -0.275,-0.352zm2.4045 0.953c0.3136,0.2918 1.1623,0.9576 1.497,1.1958 0.1936,0.1377 0.9607,0.6073 1.0261,0.7562 -0.5197,-0.1058 -2.647,-1.7178 -3.2228,-2.1877 -0.1932,-0.1576 -0.9788,-0.7538 -0.777,-0.94 0.168,-0.1551 0.6964,0.4693 1.0084,0.7463 0.1676,0.1486 0.2997,0.2726 0.4683,0.4294zm1.2682 -1.4224c0.2839,0.1584 1.0544,0.5215 1.1631,0.8626 -0.2827,-0.0395 -1.0728,-0.5936 -1.1631,-0.8626zm-2.8213 -0.7686c0.0432,0.1131 0.0534,0.0942 -0.0159,0.2054 -0.2087,0.0343 -0.2325,-0.0845 -0.131,-0.2161l0.1469 0.0107zm-0.479 0.6232c-0.1854,-0.0555 -0.1875,-0.1272 -0.2935,-0.2599 -0.0848,-0.1061 -0.1667,-0.2006 -0.2062,-0.3369 0.2074,0.1377 0.4287,0.349 0.4997,0.5968zm1.8714 -0.0297c0.1262,0.1214 0.6208,0.5887 0.6139,0.736 -0.3071,0.0326 -1.3,-1.1601 -1.3215,-1.3947l0.7076 0.6587zm-1.0399 -2c0.3277,-0.0744 0.4556,0.3242 0.3553,0.4333 -0.1181,0.1286 -0.4699,-0.1094 -0.3553,-0.4333zm-1.0979 0.773c-0.1525,0.1588 -0.7206,-0.6804 -0.7047,-0.9324 0.2264,-0.0174 0.335,0.249 0.4453,0.4048 0.0705,0.0995 0.3574,0.4256 0.2594,0.5276zm0.9199 -1.2537c0.0416,0.1163 0.0572,-0.0082 0.0003,0.15 -0.1985,0.0065 -0.1985,-0.1604 -0.0003,-0.15zm2.592 1.406c0.7066,0.7039 1.1073,1.0278 1.8882,1.5903 0.3884,0.2797 0.611,0.2904 0.5376,0.5656 -0.5088,0.1287 -2.3339,-1.5502 -2.7048,-1.9516 -0.3787,-0.4099 -0.7046,-0.7705 -1.0528,-1.266 -0.1569,-0.2234 -0.3174,-0.4644 -0.4563,-0.7031 -0.1219,-0.2096 -0.3739,-0.535 -0.2552,-0.8116l0.5532 0.5874c0.2811,0.3765 0.4825,0.8122 0.952,1.3676 0.1831,0.2166 0.3631,0.447 0.5381,0.6214zm-4.7043 -1.7662c-0.1439,-0.2399 -0.6218,-1.0146 -0.481,-1.214 0.1761,0.2535 0.8791,1.1907 0.7973,1.4655 -0.1697,0.0166 -0.2389,-0.1224 -0.3163,-0.2515zm0.2695 1.7872c0.0791,0.1365 0.7413,1.0322 0.594,1.1807 -0.3081,0.3107 -1.4534,-1.8813 -1.5407,-2.0685 -0.1265,-0.2715 -1.0472,-2.5889 -0.8699,-2.7393 0.174,-0.1475 0.3215,0.3805 0.3711,0.509 0.2662,0.6898 0.4797,1.243 0.8094,1.9233 0.2019,0.4163 0.4089,0.8028 0.6361,1.1948zm-0.1229 -3.6567c0.0543,0.1593 0.0879,0.2385 0.0762,0.4104 -0.1061,-0.0985 -0.322,-0.5588 -0.2646,-0.7436 0.1232,0.0514 0.1414,0.1954 0.1884,0.3332zm-0.2288 -1.1173c0.1809,0.0258 0.1846,0.0706 0.0778,0.1769 -0.121,-0.0535 -0.1096,-0.0487 -0.0778,-0.1769zm0.6014 -0.5956c0.3019,0.4091 0.1985,0.2273 0.3831,0.6976 0.1521,0.3877 0.8864,2.1104 0.8138,2.2686 -0.2123,-0.0343 -0.3266,-0.4486 -0.413,-0.6486 -0.1695,-0.3928 -0.9046,-2.0828 -0.7839,-2.3176zm-1.7201 0.2954c0.057,0.1256 0.3667,0.6896 0.2657,0.7927 -0.192,0.1958 -0.7935,-1.1571 -0.7518,-1.469 0.201,-0.0063 0.2229,0.1148 0.3061,0.2939 0.0629,0.1357 0.1225,0.2558 0.18,0.3824zm-1.2236 -1.5816c-0.0127,-0.0382 -0.0251,-0.114 -0.034,-0.1565 -0.0187,-0.0891 -0.0407,-0.1759 -0.0563,-0.2656 -0.1175,-0.6747 -0.1409,-0.8709 0.2177,-1.0385 0.1482,-0.0692 0.3192,-0.1254 0.5095,-0.1628 0.633,-0.1243 1.1311,0.0939 1.6172,0.4162 0.1363,0.0903 0.2998,0.1731 0.3619,0.3255l-0.5814 -0.294c-0.5188,-0.2494 -1.6379,-0.4927 -2.046,-0.1226l0.0834 1.4304 -0.072 -0.1321zm0.7426 4.2113c-0.2268,-0.0037 -0.2252,-0.0917 -0.3277,-0.2883 -0.7303,-1.4021 -1.3537,-3.3995 -1.4956,-4.9737 -0.0416,-0.4613 -0.0102,-0.6838 0.2345,-0.9332 0.7146,-0.7282 1.8562,-0.6026 2.7369,-0.3216 1.1539,0.3681 2.0342,1.0835 2.4539,2.2619 0.1475,0.4141 0.361,1.5925 0.1767,1.9936l-0.1687 -0.4035c-0.0646,-0.2535 -0.0154,-0.6587 -0.2671,-1.294 -0.4294,-1.0838 -1.0264,-1.7158 -2.1236,-2.1429 -0.7688,-0.2993 -1.8737,-0.4663 -2.526,0.2255 -0.2256,0.2392 -0.1349,0.528 -0.0704,0.8788 0.1836,0.9979 0.5609,2.4447 0.8741,3.3892 0.1031,0.3107 0.5136,1.3599 0.503,1.6082zm-1.9734 -6.4198l-0.3116 -0.5774c-0.2469,0.4043 0.0869,2.4695 0.1961,3.0122 0.512,2.5434 1.7552,4.8614 3.2572,6.9138 0.5527,0.7553 1.6289,2.058 2.3864,2.6631 0.3145,0.2512 0.5972,0.5421 0.9266,0.7939 0.6246,0.4777 1.2217,0.9559 1.9548,1.4108 2.1931,1.3606 4.5646,2.4008 7.2619,2.9107 4.513,0.8533 8.4529,0.1406 12.1077,-2.4859 0.167,-0.1201 0.3673,-0.2388 0.2765,-0.5435 -0.0649,-0.2178 -0.9388,-2.3065 -1.0101,-2.3977l-0.4283 -0.3529c-0.1081,0.2615 0.3551,1.0636 0.4821,1.3852l0.4392 1.4044c-0.1973,0.0073 -0.2459,-0.2226 -0.3166,-0.3687 -0.2692,-0.5562 -0.3897,-0.8533 -0.7742,-1.357 -0.3989,-0.5227 -0.895,-0.9628 -1.5935,-1.2847 -1.6973,-0.7824 -3.1274,-0.4756 -4.7107,0.1418 -1.6445,0.6413 -2.8658,0.9878 -4.8716,0.686 -1.5856,-0.2386 -3.0794,-0.8497 -4.2021,-1.5577 -1.2623,-0.796 -2.2096,-1.6546 -3.0434,-2.7157 -0.9644,-1.2273 -1.435,-2.0749 -1.7208,-4.0343 -0.2306,-1.581 -0.507,-2.8192 -2.0224,-3.7427 -1.0086,-0.6147 -2.8233,-1.0658 -3.8852,-0.2267 -0.1154,0.0911 -0.292,0.296 -0.398,0.323z"/>
    <path id="_1240345384" class="fil1" d="M30.7655 17.1206c-0.3352,0.0941 -0.3042,-0.3134 0.0099,-0.1668l-0.0099 0.1668zm0.8972 -0.3328c0.1173,0.1452 0.1105,0.1903 0.1676,0.4218 0.1412,0.5732 0.2179,1.0932 -0.3759,1.0835 0.1423,-0.0795 0.226,-0.0317 0.2778,-0.1997 0.1034,-0.3352 -0.0644,-0.9974 -0.0695,-1.3056zm-1.4181 -0.9219c-0.0498,0.1272 -0.0145,0.0604 -0.0993,0.1348 -0.1354,-0.0193 -0.1377,-0.0235 -0.1848,-0.1348 0.0594,-0.2114 0.2127,-0.1585 0.2841,0zm-2.1564 -0.3024c0.151,-0.1558 0.4795,0.5873 0.5665,0.7447 0.1736,0.3142 0.4936,0.708 0.484,0.9029 -0.2202,0.0155 -0.2925,-0.1603 -0.4031,-0.3096 -0.149,-0.201 -0.8085,-1.1717 -0.6474,-1.338zm2.8011 0.64c-0.0829,-0.256 -0.3344,-0.932 -0.2578,-1.1206l0.2268 0.2657c0.0669,0.1258 0.2026,0.9719 0.1964,1.2001l-0.11 -0.1761c-0.0216,-0.0568 -0.0387,-0.1174 -0.0554,-0.1691zm1.7382 2.518c-0.2172,0.2231 -0.7531,0.3857 -1.1731,0.3865l-3.1416 -1.4843c-0.303,-0.3224 -0.66,-0.9501 -0.8354,-1.4827 -0.0893,-0.2712 -0.3518,-1.7281 -0.2772,-1.9803 0.4522,0.1306 0.0604,2.6758 2.3512,4.0578 0.5787,0.3491 1.7667,0.746 2.5348,0.3754 0.4787,-0.2309 0.2932,-0.646 0.1468,-1.1542 -0.1161,-0.4032 -0.257,-0.7736 -0.4022,-1.1665 -0.2865,-0.7752 -0.5257,-1.6462 -0.8163,-2.3984 -0.0688,-0.178 -0.2045,-0.5574 0.0992,-0.5441 0.1894,0.0082 0.264,0.2449 0.3378,0.4442 0.4248,1.1466 0.8464,2.4558 1.1342,3.6489 0.0936,0.3883 0.2975,1.0353 0.0418,1.2977zm-4.474 -5.8137c0.2705,0.2972 0.2904,0.2685 0.4172,0.6794 0.0761,0.2467 0.1725,0.6186 0.1692,0.9035 -0.2141,-0.1181 -0.5903,-1.4767 -0.5864,-1.5829zm0.9446 -0.0742c0.2947,0.5123 0.2908,0.4481 0.4439,1.0515 0.0847,0.3335 0.2237,0.9071 0.1917,1.272 -0.1104,-0.1637 -0.2774,-0.9085 -0.3611,-1.1776 -0.1045,-0.3355 -0.3947,-0.9817 -0.2745,-1.1459zm-0.6134 -1.1036c0.1853,0.0526 0.1996,0.1287 0.2121,0.3341 -0.1463,-0.0755 -0.1855,-0.1617 -0.2121,-0.3341zm-1.1998 -0.1954c0.0774,0.0196 0.1294,0.1251 0.161,0.1848 0.1549,0.2931 0.3328,0.7048 0.3015,1.039 -0.1627,-0.0424 -0.2634,-0.3603 -0.3581,-0.5671 -0.0545,-0.1191 -0.4301,-0.7392 -0.1044,-0.6567zm2.8182 1.157c0.13,0.3494 0.4096,1.1495 0.3905,1.5407 -0.1246,-0.0428 -0.0706,0.028 -0.1453,-0.1431l-0.4434 -1.2346c-0.1073,-0.2677 -0.5675,-1.1467 -0.5663,-1.3151l0.302 0.1565c0.0857,0.0819 0.4045,0.8398 0.4625,0.9956zm-3.2828 -1.7992c0.1822,-0.027 0.1851,-0.0226 0.1767,0.149l-0.1666 -0.0164 -0.0101 -0.1326zm-0.4924 0.4897c0.1144,0.1752 0.6081,1.0014 0.4887,1.2692 -0.1919,-0.0127 -0.2235,-0.2059 -0.3776,-0.5214 -0.2109,-0.432 -0.9393,-1.5682 -0.976,-1.7271l0.8649 0.9793zm0.1031 -1.2635c0.0748,0.1284 0.1644,0.2626 0.1455,0.4591 -0.1201,-0.0443 -0.4685,-0.5749 -0.4533,-0.7524 0.1631,0.0001 0.2223,0.1465 0.3078,0.2933zm1.6437 -0.4667c0.3028,0.3065 0.7669,0.7127 0.8468,1.1679 -0.1456,-0.0841 -0.1196,-0.114 -0.2457,-0.2909 -0.0738,-0.1035 -0.1216,-0.1697 -0.2038,-0.2825 -0.114,-0.1565 -0.3555,-0.4175 -0.3973,-0.5945zm1.5653 1.4094c-0.1851,-0.3249 -0.3797,-0.6279 -0.5827,-0.9141 -0.1177,-0.1659 -0.2058,-0.2713 -0.3223,-0.4259 -0.0651,-0.0864 -0.3199,-0.3643 -0.1714,-0.5222 0.1613,-0.1715 0.3521,0.1426 0.4562,0.2743 0.2997,0.3792 0.6508,0.9076 0.9132,1.3305 0.1398,0.2253 1.0805,1.7926 0.9048,1.9789 -0.2794,0.2964 -0.5783,-0.5863 -0.6664,-0.758 -0.1733,-0.3377 -0.3527,-0.65 -0.5314,-0.9635zm-4.2231 -2.3941c0.1564,0.0256 0.2663,0.0844 0.265,0.2701 -0.1456,-0.0215 -0.2238,-0.118 -0.265,-0.2701zm1.3095 0.2946c0.3124,0.2994 1.565,1.6367 1.3911,1.9954 -0.1742,-0.0053 -0.2171,-0.1407 -0.3024,-0.2782 -0.0728,-0.1171 -0.1466,-0.2246 -0.2224,-0.3391 -0.1551,-0.2343 -0.3123,-0.4335 -0.4795,-0.6423 -0.2026,-0.2529 -0.9836,-1.0591 -1.0305,-1.2934l0.6437 0.5576zm0.6995 -0.1425c-0.1877,-0.0718 -0.4655,-0.4255 -0.65,-0.6173 -0.1174,-0.1221 -0.5433,-0.4541 -0.5839,-0.5851l1.2339 1.2024zm-2.9888 0.5577c-0.0971,-0.0323 -0.4702,-0.4233 -0.5887,-0.529 -0.1037,-0.0925 -0.1974,-0.1994 -0.3098,-0.2889 -0.1033,-0.0822 -0.2018,-0.1716 -0.3035,-0.2576 -0.2237,-0.1892 -0.4119,-0.3402 -0.647,-0.5116 -0.1122,-0.0819 -0.219,-0.1684 -0.3421,-0.2566 -0.1311,-0.0939 -0.2391,-0.1476 -0.3052,-0.2752 0.7578,0.5241 1.3531,0.8592 1.9798,1.5178l0.5165 0.6011zm-1.2146 -2.1094c0.4535,0.297 2.1989,1.944 2.1119,2.4378 -0.2189,-0.0157 -0.3177,-0.2392 -0.4298,-0.3804 -0.594,-0.7474 -1.2128,-1.2653 -1.9532,-1.8619 -0.455,-0.3666 -0.8062,-0.4675 -0.7229,-0.714l0.994 0.5185zm-0.4297 -1.4861c0.1893,-0.1186 0.3959,0.151 0.2262,0.2704 -0.1909,0.1343 -0.4171,-0.1509 -0.2262,-0.2704zm-2.5429 0.6421c-0.3098,-0.142 -0.5974,-0.2587 -0.9342,-0.3743 -1.1324,-0.3885 -2.1291,-0.44 -1.7254,-0.694 0.4171,-0.2625 4.1777,1.0743 3.5543,1.429 -0.1366,0.0777 -0.7309,-0.2856 -0.8947,-0.3607zm1.7291 -0.906c-0.1137,-0.3578 0.3084,-0.3538 0.2219,-0.0247 -0.0753,0.045 -0.1277,0.0494 -0.2219,0.0247zm-10.3281 -0.0685c-0.5878,0.4092 -2.5608,-0.04 -2.4362,-0.5289 0.2778,-0.0711 0.511,0.2655 1.3076,0.3474 0.337,0.0347 1.6595,-0.1882 1.1286,0.1815zm9.5247 0.2371c0.2871,0.1833 0.4294,0.2417 0.4073,0.4521 -0.2109,0.0024 -0.9264,-0.4574 -1.1693,-0.5885 -0.341,-0.184 -1.1907,-0.4957 -1.0025,-0.6724 0.1274,-0.1196 1.0499,0.3963 1.2019,0.4737 0.1997,0.1017 0.3708,0.2126 0.5626,0.3351zm3.9751 1.1729c-0.1084,-0.0468 -0.0115,0.0071 -0.1133,-0.0609l-1.1619 -0.9317c-0.206,-0.154 -1.1509,-0.8403 -1.2415,-0.9669 0.4557,0.3044 2.4054,1.5309 2.5167,1.9595zm-13.2568 -2.2481c-0.0528,-0.3736 0.2616,-0.306 0.3164,-0.1684 0.1034,0.2595 -0.1903,0.2289 -0.3164,0.1684zm15.4582 3.5013c-1.1269,-1.1265 -2.6378,-2.2784 -3.9742,-3.2076 -0.221,-0.1536 -0.5918,-0.3144 -0.3985,-0.5775 0.2948,-0.0398 1.2806,0.6976 1.4981,0.8623 0.2397,0.1815 0.4656,0.3241 0.6928,0.5035 0.22,0.1738 3.4907,2.7632 2.838,2.9464 -0.1907,0.0536 -0.5442,-0.4151 -0.6562,-0.5271zm-12.5943 -3.7633c0.1814,-0.0232 0.6507,-0.116 0.6848,0.0801 0.0375,0.2155 -0.4357,0.1852 -0.6023,0.2049 -0.4785,0.0567 -0.9456,0.1342 -1.4003,0.2508 -0.1576,0.0404 -0.624,0.2325 -0.6425,-0.0161 -0.0248,-0.3358 1.7113,-0.4878 1.9603,-0.5197zm3.7218 0.5209c-0.0468,0.0301 0.0401,0.0267 -0.1112,0.0327l-0.3725 -0.0769c-0.305,-0.0691 -1.2788,-0.2437 -1.4165,-0.3512l1.9002 0.3954zm-7.5137 -0.5706c0.1096,0.304 -0.1609,0.3599 -0.2728,0.2379 -0.1323,-0.1443 0.0123,-0.3252 0.2728,-0.2379zm7.8422 -0.2825c-0.3438,0.2953 -0.5374,-0.3071 -0.0759,-0.22 0.0505,0.0679 0.0716,0.0918 0.0759,0.22zm-9.1363 -0.2096c0.2668,0.0376 0.1499,0.0936 0.1305,0.134l-0.1234 0.0056c-0.059,-0.1104 -0.0075,-0.1383 -0.0071,-0.1396zm5.9243 0.0538c-0.495,-0.0032 -0.5888,-0.0005 -0.6055,-0.1985 0.1127,-0.0869 0.8878,0.0165 1.094,0.0443 0.3214,0.0433 0.2318,0.0519 0.2686,0.1272l-0.7571 0.027zm-2.7874 -0.1951c0.324,-0.0896 1.3378,-0.382 1.6618,-0.1799 -0.3557,0.0582 -1.1098,0.1863 -1.4722,0.2193 -0.1621,0.0148 -0.1467,-0.0115 -0.1896,-0.0394zm-1.618 -0.2921c-0.0046,-0.3541 0.3412,-0.255 0.3694,-0.1072 0.0368,0.1936 -0.1834,0.3071 -0.3694,0.1072zm6.1511 -0.3962c-0.1836,-0.0384 -0.653,-0.0399 -0.7216,-0.2022 0.3924,-0.208 2.668,0.4798 3.0909,0.6327 0.4903,0.1773 0.899,0.3502 1.351,0.5605 0.2173,0.1012 1.2183,0.5139 1.0913,0.724 -0.0935,0.1547 -0.5244,-0.1343 -0.6488,-0.1985 -0.5935,-0.3062 -1.3279,-0.6307 -1.962,-0.879 -0.6498,-0.2544 -1.4975,-0.4903 -2.2008,-0.6375zm2.1992 -0.1045c-0.4317,-0.1765 -0.6673,-0.1842 -0.6481,-0.3969 0.2866,-0.1446 2.0003,0.5835 2.4116,0.8002 0.2148,0.1131 0.5724,0.236 0.5567,0.4918 -0.7241,-0.2532 -1.599,-0.6004 -2.3202,-0.8951zm-6.5384 -0.3221c0.0577,-0.2187 0.6509,-0.2324 0.7861,-0.0748 -0.2646,0.0937 -0.3296,0.1467 -0.5882,0.1321 -0.2075,-0.0118 -0.1814,-0.0467 -0.1979,-0.0573zm-2.5098 0.0825c0.0686,-0.0821 0.0518,-0.0734 0.1985,-0.1261 0.3864,-0.1386 0.7062,-0.2172 1.1284,-0.2598 0.1967,-0.0198 0.407,-0.0382 0.5303,0.0416 -0.3159,0.1151 -0.1524,0.0713 -0.4672,0.1045 -0.5917,0.0624 -0.8927,0.1666 -1.39,0.2398zm5.4399 2.7819c-2.9974,0 -4.5406,1.7231 -6.5959,0.738 -0.8197,-0.3928 -1.5174,-1.1282 -1.8515,-2.0755 -0.2311,-0.6555 -0.4114,-1.1227 0.0819,-1.4405 0.219,-0.141 1.0344,-0.6398 1.3448,-0.626l-0.4861 0.4748c-0.5315,0.4237 -0.8743,0.3666 -0.7152,1.0653 0.2489,1.0937 1.0417,2.0812 2.198,2.4106 1.1472,0.3268 2.1069,-0.1118 3.0748,-0.4174 1.0375,-0.3276 1.9607,-0.5222 3.1737,-0.5246l0.5597 0.2838c-0.0731,0.1852 -0.552,0.1115 -0.7842,0.1115zm-5.7735 -3.4506c0.0914,-0.1136 0.2734,-0.1657 0.4148,-0.2109 0.4777,-0.1526 0.8648,-0.2326 1.3815,-0.2934 1.6571,-0.1947 4.5194,0.058 5.9768,0.7327 -0.2275,0.1 -0.4427,-0.0053 -0.9062,-0.0698 -1.3064,-0.1817 -3.6327,-0.3401 -4.9083,-0.2995 -0.6681,0.0212 -1.3116,0.119 -1.9586,0.1409zm-1.9688 5.1492c0.1135,-0.2054 -0.116,-0.3563 -0.2275,-0.4833 -0.5517,-0.6286 -1.0208,-1.6241 -1.313,-2.4276 -0.1024,-0.2817 -0.4836,-1.0395 0.0841,-0.9751l0.4578 1.2917c0.4456,1.1142 1.5552,2.0697 2.8208,2.3353 1.0973,0.2302 2.0142,-0.1022 2.9374,-0.4048 0.9006,-0.2951 1.8271,-0.5659 2.8705,-0.5682l5.9428 1.8725c1.5351,1.051 2.8733,2.253 3.8341,3.9449 1.518,2.673 0.9193,4.0714 2.0397,5.7768 0.717,1.0914 2.3084,2.0562 3.7412,2.0811 0.8461,0.0148 1.0134,-0.186 1.46,-0.48l0.0498 0.1466c0.0631,0.3079 -0.0179,0.8121 0.3558,0.6768 -0.1155,-1.8206 -0.0612,-2.4017 -0.5901,-4.185 -0.9922,-3.3447 -2.9598,-6.6856 -5.5401,-8.9729 -0.7717,-0.6842 -1.8615,-1.569 -2.7305,-2.1324 -3.0851,-1.9999 -6.8647,-3.6131 -10.8442,-3.6217 -0.0858,-0.0002 -6.2468,1.433 -6.4755,1.521 -0.2554,0.1401 -0.4241,0.2319 -0.6405,0.3687 -0.2136,0.1351 -0.4391,0.2227 -0.4144,0.5696 0.0463,0.6492 0.8169,2.2735 1.157,2.8201 0.1361,0.2188 0.6881,1.0343 1.0248,0.8459z"/>
    <path id="_1240344616" class="fil1" d="M32.0391 20.4799c0.2179,-0.2999 -0.5173,-0.4465 -0.7327,-0.5042 -0.2606,-0.0698 -0.7813,-0.255 -1.0173,-0.155 -0.0281,0.2446 0.1665,0.245 0.3447,0.3065 0.3842,0.1325 1.2688,0.5406 1.4053,0.3527z"/>
    <path id="_1240345120" class="fil1" d="M24.1912 11.7892c0.0653,0.3813 0.7588,0.6591 0.6742,0.1207 -0.068,-0.4337 -0.76,-0.622 -0.6742,-0.1207z"/>
    <path id="_1240345096" class="fil1" d="M4.7886 4.3051c-0.3917,0.2447 0.262,0.6743 0.5381,0.5105 0.3229,-0.1915 -0.1724,-0.739 -0.5381,-0.5105z"/>
    <path id="_1240344664" class="fil1" d="M15.2925 6.9193c-0.0234,0.2193 0.0225,0.3097 0.2336,0.3498 0.239,0.0455 0.3679,0.0174 0.5162,-0.0767 0.064,-0.4447 -0.5278,-0.4281 -0.7498,-0.2731z"/>
    <path id="_1240344928" class="fil1" d="M12.8414 7.7228c-0.3153,0.2545 -0.0267,0.7596 0.2724,0.5389 0.2529,-0.1867 0.0816,-0.8246 -0.2724,-0.5389z"/>
    <path id="_1240344160" class="fil1" d="M9.2972 17.1531c-0.2639,0.1289 -0.0623,0.7077 0.2529,0.5626 0.2703,-0.1245 0.0211,-0.6965 -0.2529,-0.5626z"/>
    <path id="_1240343800" class="fil1" d="M20.1794 22.1999c-0.2952,0.1118 -0.2126,0.6408 0.1124,0.5354 0.2407,-0.078 0.2413,-0.6694 -0.1124,-0.5354z"/>
    <path id="_1240343848" class="fil1" d="M24.6372 13.7624c-0.1148,0.312 0.1769,0.4948 0.4663,0.3897 0.1192,-0.3439 -0.1442,-0.5134 -0.4663,-0.3897z"/>
    <path id="_1240344232" class="fil1" d="M4.8334 9.6205c-0.2994,0.1979 0.0303,0.5211 0.2735,0.4015 0.2783,-0.1368 0.0069,-0.5869 -0.2735,-0.4015z"/>
    <path id="_1240343872" class="fil1" d="M30.4486 25.3696c0.1363,-0.3699 -0.2895,-0.5039 -0.4089,-0.3709 -0.142,0.1582 0.1119,0.4497 0.4089,0.3709z"/>
    <path id="_1240344376" class="fil1" d="M9.6396 8.9401c0.0714,-0.348 -0.3463,-0.393 -0.4151,-0.2692 -0.1018,0.1829 0.201,0.3503 0.4151,0.2692z"/>
    <path id="_1240343560" class="fil1" d="M25.9563 16.4271c0.1197,-0.2952 -0.1283,-0.4029 -0.2665,-0.2669 -0.1349,0.1329 -0.0398,0.389 0.2665,0.2669z"/>
    <path id="_1240343512" class="fil1" d="M26.8222 19.5647c0.2328,0.0831 0.3699,-0.099 0.2615,-0.2254 -0.0946,-0.1104 -0.3867,-0.0835 -0.2615,0.2254z"/>
    <path id="_1240343488" class="fil1" d="M25.9234 18.5555c0.2084,0.0993 0.3527,-0.0338 0.2371,-0.2362 -0.227,-0.0707 -0.292,0.0062 -0.2371,0.2362z"/>
    <path id="_1240343056" class="fil1" d="M23.0886 21.5009c0.3303,0.08 0.3962,-0.2852 0.0244,-0.2459 -0.0575,0.0963 -0.0786,0.1266 -0.0244,0.2459z"/>
    <path id="_1240343608" class="fil1" d="M17.7654 22.5122l0.1635 -0.0248 0.002 -0.2472 -0.2098 -0.0162c-0.0798,0.1515 -0.0886,0.182 0.0443,0.2882z"/>
    <path id="_1240343368" class="fil1" d="M13.0263 20.9175c-0.0629,0.0503 -0.0296,-0.072 -0.0597,0.0786 -0.0373,0.1871 0.1502,0.2193 0.2285,0.1369 0.1143,-0.1201 -0.025,-0.3306 -0.1688,-0.2155z"/>
    <path id="_1240342384" class="fil1" d="M18.388 8.0254c-0.1882,-0.0868 -0.3294,0.0344 -0.2264,0.186 0.0628,0.0926 0.3054,0.1052 0.2264,-0.186z"/>
    <path id="_1240342984" class="fil1" d="M3.9721 7.3625c0.168,0.0012 0.2211,-0.0518 0.1929,-0.2267 -0.2302,-0.1381 -0.3378,0.0397 -0.1929,0.2267z"/>
    <path id="_1240342480" class="fil1" d="M12.5152 9.2337l0.0027 0.1992c0.1894,0.1181 0.2636,0.0236 0.2301,-0.1847 -0.0639,-0.0291 -0.1593,-0.0618 -0.2328,-0.0145z"/>
    <path id="_1240342600" class="fil1" d="M2.2438 10.3505c0.0716,-0.0952 0.0981,-0.3076 -0.1015,-0.2396 -0.103,0.0351 -0.1781,0.2566 0.1015,0.2396z"/>
   </g>
   <g>
    <path id="_1240342264" class="fil2" d="M30.4486 25.3696c-0.297,0.0788 -0.5509,-0.2127 -0.4089,-0.3709 0.1194,-0.133 0.5452,0.001 0.4089,0.3709zm-10.2692 -3.1697c0.3537,-0.134 0.3531,0.4574 0.1124,0.5354 -0.325,0.1054 -0.4076,-0.4236 -0.1124,-0.5354zm-2.414 0.3123c-0.1329,-0.1062 -0.1241,-0.1367 -0.0443,-0.2882l0.2098 0.0162 -0.002 0.2472 -0.1635 0.0248zm5.3232 -1.0113c-0.0542,-0.1193 -0.0331,-0.1496 0.0244,-0.2459 0.3718,-0.0393 0.3059,0.3259 -0.0244,0.2459zm-10.0623 -0.5834c0.1438,-0.1151 0.2831,0.0954 0.1688,0.2155 -0.0783,0.0824 -0.2658,0.0502 -0.2285,-0.1369 0.0301,-0.1506 -0.0032,-0.0283 0.0597,-0.0786zm-3.7291 -3.7644c0.274,-0.1339 0.5232,0.4381 0.2529,0.5626 -0.3152,0.1451 -0.5168,-0.4337 -0.2529,-0.5626zm-7.8618 -5.4139c0.106,-0.027 0.2826,-0.2319 0.398,-0.323 1.0619,-0.8391 2.8766,-0.388 3.8852,0.2267 1.5154,0.9235 1.7918,2.1617 2.0224,3.7427 0.2858,1.9594 0.7564,2.807 1.7208,4.0343 0.8338,1.0611 1.7811,1.9197 3.0434,2.7157 1.1227,0.708 2.6165,1.3191 4.2021,1.5577 2.0058,0.3018 3.2271,-0.0447 4.8716,-0.686 1.5833,-0.6174 3.0134,-0.9242 4.7107,-0.1418 0.6985,0.3219 1.1946,0.762 1.5935,1.2847 0.3845,0.5037 0.505,0.8008 0.7742,1.357 0.0707,0.1461 0.1193,0.376 0.3166,0.3687l-0.4392 -1.4044c-0.127,-0.3216 -0.5902,-1.1237 -0.4821,-1.3852l0.4283 0.3529c0.0713,0.0912 0.9452,2.1799 1.0101,2.3977 0.0908,0.3047 -0.1095,0.4234 -0.2765,0.5435 -3.6548,2.6265 -7.5947,3.3392 -12.1077,2.4859 -2.6973,-0.5099 -5.0688,-1.5501 -7.2619,-2.9107 -0.7331,-0.4549 -1.3302,-0.9331 -1.9548,-1.4108 -0.3294,-0.2518 -0.6121,-0.5427 -0.9266,-0.7939 -0.7575,-0.6051 -1.8337,-1.9078 -2.3864,-2.6631 -1.502,-2.0524 -2.7452,-4.3704 -3.2572,-6.9138 -0.1092,-0.5427 -0.443,-2.6079 -0.1961,-3.0122l0.3116 0.5774zm0.8084 -1.3887c-0.2796,0.017 -0.2045,-0.2045 -0.1015,-0.2396 0.1996,-0.068 0.1731,0.1444 0.1015,0.2396zm2.5896 -0.73c0.2804,-0.1854 0.5518,0.2647 0.2735,0.4015 -0.2432,0.1196 -0.5729,-0.2036 -0.2735,-0.4015zm1.2254 16.4748c0.3006,-0.005 0.3566,-0.0549 0.5411,0.1141 0.1216,0.1113 0.2472,0.1585 0.3281,0.3129l-2.8142 0.0335c-0.8326,0.0035 -1.677,-0.0424 -2.509,0.0077 -0.1561,0.0094 -0.1704,-0.0039 -0.2232,0.1115l0.3267 0.1183c0.2396,0.0492 0.9707,0.0533 1.2462,0.0695 0.6832,0.0401 4.3183,0.0281 4.3738,0.0375 0.1293,0.0218 0.4397,0.249 0.4815,0.3573l-5.1922 0.06c-0.2234,0.0045 -0.5191,-0.0457 -0.5447,0.1802l1.7791 0.0791c0.4656,0.0107 4.3979,0.0113 4.5361,0.0606 0.0773,0.0275 0.504,0.2772 0.54,0.3313 -0.9212,0.0162 -5.4201,-0.0026 -5.713,0.1187l0.7118 0.2471c0.3309,0.0572 4.2625,0.015 4.8233,0.0028 0.3289,-0.0071 0.6208,-0.0655 0.8865,0.0702 0.1425,0.0727 0.5411,0.2137 0.6164,0.3531l-4.9425 0.0472c-0.1896,0.0028 -0.4802,-0.0526 -0.5892,0.1112l0.3269 0.1409c0.2927,0.0694 1.0734,0.0279 1.4071,0.0486 0.8835,0.0547 2.8574,0.0327 3.8297,0.0309 0.3726,-0.0007 0.5621,-0.0392 0.8875,0.0899 0.1343,0.0533 0.5852,0.1851 0.6301,0.2881l-2.9763 0.0406c-1.9937,0.0157 -3.9594,-0.1091 -5.9468,-0.1064 -0.5016,0.0007 -1.002,0.0159 -1.495,0.0252 -0.25,0.0047 -0.4993,0.0129 -0.7492,0.019 -0.2656,0.0064 -0.5027,-0.0546 -0.5488,0.1673 1.1319,0.0707 2.2572,0.1183 3.3916,0.1319 1.1183,0.0135 2.2464,0.0503 3.3659,0.0825 1.7323,0.0498 3.465,0.063 5.1989,0.0721 0.7653,0.004 0.7687,-0.0293 1.4753,0.2259 -0.1637,0.0822 -0.3172,0.0764 -0.5017,0.0784 -2.5176,0.0274 -5.0443,-0.0096 -7.5585,0.0769 -0.1961,0.0067 -0.3287,-0.0146 -0.351,0.159l5.4024 0.1636c0.9964,0.0091 4.7869,-0.0871 5.4018,0.2104l-5.4018 0.0864c-0.3915,0.0037 -1.4604,-0.0788 -1.7147,0.0662l0.3663 0.2934c0.148,0.0577 1.7582,0.0198 1.9842,0.021 4.4125,0.0228 8.8271,0.0049 13.2402,-0.0216 0.72,-0.0044 4.9567,0.0777 5.2843,-0.0214 -0.7388,-0.4195 -0.4678,-0.275 -1.3584,-0.31 -0.8775,-0.0344 -4.6208,0.051 -4.9654,-0.1083l2.573 -0.2068c0.9103,0.002 1.8199,0.0063 2.7303,0.0123l4.1515 -0.0221c0.3391,-0.0017 1.03,0.0942 1.1269,-0.2005 -1.043,-0.1679 -0.9355,-0.1442 -1.9871,-0.1554l-5.2736 -0.015c-0.2622,-0.0002 -0.6728,0.0414 -0.9277,-0.0186 -0.0821,-0.0193 -0.0451,-0.0089 -0.0797,-0.0354l1.5684 -0.2985 4.6007 -0.0415c0.2758,-0.0049 0.6522,0.0495 0.6359,-0.2584l-5.08 -0.0872 0.7148 -0.3831c0.1602,-0.058 1.9185,-0.0068 2.2329,-0.0064 0.3786,0.0006 0.9074,0.0872 0.9867,-0.1591l-0.575 -0.1385c-0.3588,-0.0444 -1.6449,-0.0071 -2.0733,-0.0131 0.0923,-0.1039 0.1767,-0.1716 0.2952,-0.2428 0.5651,-0.3398 0.4901,-0.2139 1.2916,-0.2206 0.4867,-0.0041 0.9755,0.0081 1.4609,-0.0193 0.1993,-0.0113 0.2897,-0.0116 0.2975,-0.1886 -0.7911,-0.0585 -1.4503,-0.0804 -2.243,-0.0873 0.0641,-0.1024 0.1497,-0.1566 0.2441,-0.2279 0.4685,-0.3539 0.4509,-0.2091 1.1756,-0.2014 0.312,0.0034 0.6231,0.0025 0.935,0.0016 0.2738,-0.0007 0.6889,0.0725 0.6931,-0.1956l-1.0676 -0.1016c-0.3261,-0.0058 -0.7323,-0.0055 -1.0646,-0.0334l1.1143 -1.2371c0.2811,-0.3512 0.7786,-0.9656 0.7797,-1.6197 0.0013,-0.7403 -0.488,-1.2478 -0.9078,-1.4925 -0.5744,-0.3349 -1.2467,-0.3683 -1.8724,-0.5135 -1.3146,-0.305 -2.483,-0.7175 -3.558,-1.2359 -0.9196,-0.4435 -2.3381,-1.2124 -3.5034,-1.2914 -1.7644,-0.1196 -2.2249,0.8363 -3.5848,1.2171 -1.6607,0.4649 -4.3338,-0.1237 -5.7145,-1.112 -0.5583,-0.3996 -0.8152,-0.6555 -1.2658,-1.1279 -1.747,-1.8313 -1.764,-5.0714 -2.5654,-6.9739 -0.4537,-1.0771 -1.3561,-1.8587 -2.4106,-2.3752 -1.9894,-0.9743 -5.9603,-1.9615 -6.9193,0.5609 -0.806,2.12 0.2008,6.2289 0.8917,8.1226 0.6094,1.6702 1.4602,3.2607 2.4585,4.7223 0.137,0.2005 0.9756,1.2518 0.9932,1.3307l-2.235 0.131 0.1254 0.105c0.0927,0.0491 1.398,0.053 1.5247,0.0552 0.815,0.0142 0.6828,-0.1394 1.0928,0.2436 0.0895,0.0836 0.1422,0.0994 0.1713,0.2216l-2.0106 0.0693c-0.1087,0.0031 -0.2343,0.0026 -0.3411,0.0128 -0.1565,0.015 -0.1656,0.011 -0.234,0.1153l0.4236 0.123c0.4366,0.0647 1.9,0.0184 2.4333,0.0363 0.1694,0.0056 0.4955,0.2501 0.5078,0.4178l-1.8187 0.0633c-0.3921,0.0062 -1.5405,-0.0543 -1.8064,0.0211l0.3846 0.2249c0.1449,0.0379 1.6657,-0.0423 1.9081,-0.0434 0.4358,-0.002 0.8736,0.0058 1.3091,-0.0014z"/>
    <path id="_1240342768" class="fil2" d="M30.2891 19.8207c0.236,-0.1 0.7567,0.0852 1.0173,0.155 0.2154,0.0577 0.9506,0.2043 0.7327,0.5042 -0.1365,0.1879 -1.0211,-0.2202 -1.4053,-0.3527 -0.1782,-0.0615 -0.3728,-0.0619 -0.3447,-0.3065zm-3.4669 -0.256c-0.1252,-0.3089 0.1669,-0.3358 0.2615,-0.2254 0.1084,0.1264 -0.0287,0.3085 -0.2615,0.2254zm-0.8988 -1.0092c-0.0549,-0.23 0.0101,-0.3069 0.2371,-0.2362 0.1156,0.2024 -0.0287,0.3355 -0.2371,0.2362zm0.0329 -2.1284c-0.3063,0.1221 -0.4014,-0.134 -0.2665,-0.2669 0.1382,-0.136 0.3862,-0.0283 0.2665,0.2669zm-1.3191 -2.6647c0.3221,-0.1237 0.5855,0.0458 0.4663,0.3897 -0.2894,0.1051 -0.5811,-0.0777 -0.4663,-0.3897zm-0.446 -1.9732c-0.0858,-0.5013 0.6062,-0.313 0.6742,0.1207 0.0846,0.5384 -0.6089,0.2606 -0.6742,-0.1207zm-11.676 -2.5555c0.0735,-0.0473 0.1689,-0.0146 0.2328,0.0145 0.0335,0.2083 -0.0407,0.3028 -0.2301,0.1847l-0.0027 -0.1992zm-2.8756 -0.2936c-0.2141,0.0811 -0.5169,-0.0863 -0.4151,-0.2692 0.0688,-0.1238 0.4865,-0.0788 0.4151,0.2692zm8.7484 -0.9147c0.079,0.2912 -0.1636,0.2786 -0.2264,0.186 -0.103,-0.1516 0.0382,-0.2728 0.2264,-0.186zm-5.5466 -0.3026c0.354,-0.2857 0.5253,0.3522 0.2724,0.5389 -0.2991,0.2207 -0.5877,-0.2844 -0.2724,-0.5389zm-8.8693 -0.3603c-0.1449,-0.187 -0.0373,-0.3648 0.1929,-0.2267 0.0282,0.1749 -0.0249,0.2279 -0.1929,0.2267zm11.3204 -0.4432c0.222,-0.155 0.8138,-0.1716 0.7498,0.2731 -0.1483,0.0941 -0.2772,0.1222 -0.5162,0.0767 -0.2111,-0.0401 -0.257,-0.1305 -0.2336,-0.3498zm-10.5039 -2.6142c0.3657,-0.2285 0.861,0.319 0.5381,0.5105 -0.2761,0.1638 -0.9298,-0.2658 -0.5381,-0.5105zm3.4018 2.8089c-0.3367,0.1884 -0.8887,-0.6271 -1.0248,-0.8459 -0.3401,-0.5466 -1.1107,-2.1709 -1.157,-2.8201 -0.0247,-0.3469 0.2008,-0.4345 0.4144,-0.5696 0.2164,-0.1368 0.3851,-0.2286 0.6405,-0.3687 0.2287,-0.088 6.3897,-1.5212 6.4755,-1.521 3.9795,0.0086 7.7591,1.6218 10.8442,3.6217 0.869,0.5634 1.9588,1.4482 2.7305,2.1324 2.5803,2.2873 4.5479,5.6282 5.5401,8.9729 0.5289,1.7833 0.4746,2.3644 0.5901,4.185 -0.3737,0.1353 -0.2927,-0.3689 -0.3558,-0.6768l-0.0498 -0.1466c-0.4466,0.294 -0.6139,0.4948 -1.46,0.48 -1.4328,-0.0249 -3.0242,-0.9897 -3.7412,-2.0811 -1.1204,-1.7054 -0.5217,-3.1038 -2.0397,-5.7768 -0.9608,-1.6919 -2.299,-2.8939 -3.8341,-3.9449l-5.9428 -1.8725c-1.0434,0.0023 -1.9699,0.2731 -2.8705,0.5682 -0.9232,0.3026 -1.8401,0.635 -2.9374,0.4048 -1.2656,-0.2656 -2.3752,-1.2211 -2.8208,-2.3353l-0.4578 -1.2917c-0.5677,-0.0644 -0.1865,0.6934 -0.0841,0.9751 0.2922,0.8035 0.7613,1.799 1.313,2.4276 0.1115,0.127 0.341,0.2779 0.2275,0.4833zm3.9083 -7.0738c-2.0878,0.1839 -3.9205,0.654 -5.5256,1.4553 -1.6158,0.8067 -3.0614,1.8516 -4.0136,2.9794 -0.4939,0.5848 -1.1632,1.445 -0.6061,2.4811 0.4506,0.8381 1.3292,0.8919 2.4407,1.0726 2.2389,0.3641 3.2693,1.004 5.1343,1.8614 0.7998,0.3678 1.7723,0.713 2.8153,0.6531 1.013,-0.0581 1.7462,-0.5504 2.5864,-0.8793 1.9304,-0.7555 4.0834,-0.5948 5.6309,0.4515 1.5974,1.0801 2.3689,2.407 2.6414,4.3471 0.3015,2.147 0.425,3.3252 1.9213,5.0788 0.9181,1.076 3.2198,1.9342 4.6958,2.2613 2.3676,0.5247 4.224,0.602 4.4136,-2.0449 0.259,-3.6162 -1.9374,-8.3171 -3.5394,-10.4614 -0.681,-0.9114 -1.5701,-2.0244 -2.4001,-2.7987 -1.5499,-1.446 -2.9355,-2.6398 -4.9974,-3.7538 -3.4013,-1.8377 -7.1707,-3.0582 -11.1975,-2.7035z"/>
    <path id="_1240341880" class="fil2" d="M19.7874 17.4789c-0.5869,0.2826 -0.9743,0.4873 -1.7975,0.4869 -3.9996,-0.0019 -5.2695,-4.8311 -2.1171,-5.7535 0.6712,-0.1965 1.3762,-0.0876 1.9252,0.1816l1.0919 1.2283c-0.1242,-0.0694 -0.2262,-0.1887 -0.3496,-0.289 -0.3674,-0.2987 -0.8011,-0.5762 -1.2907,-0.6879 -0.8245,-0.1881 -1.6052,0.058 -2.0286,0.4896 -0.4566,0.4656 -0.7204,1.1609 -0.4941,2.0259l1.2154 1.4599c-0.0153,-0.2607 -0.8615,-1.4917 0.0552,-2.5226 0.6334,-0.7124 1.7099,-0.3479 2.3548,0.1338 1.271,0.9494 1.4156,2.2659 0.9585,2.1746 -0.193,-0.0386 -0.3403,-0.9022 -1.2134,-1.6573 -0.739,-0.6391 -1.8427,-0.3997 -1.834,0.7423 0.0146,1.9194 2.7575,2.478 3.8674,0.9819 1.2297,-1.6577 -0.3554,-5.5446 -3.5988,-5.4149 -1.8459,0.0739 -3.2391,1.3895 -3.5211,3.0136 -0.5166,2.9759 2.0603,5.3325 4.7537,4.6723 0.8711,-0.2135 1.6696,-0.7267 2.0228,-1.2655z"/>
    <path id="_1240341640" class="fil2" d="M8.1582 31.9822c0.4795,0.1424 4.3604,-0.0234 5.1564,-0.0402 1.6976,-0.0358 3.5277,-0.0421 5.2092,0.0127 1.7022,0.0555 3.4884,0.0433 5.1885,0.0477l3.8897 0.0542c0.5286,0.0074 1.1033,0.108 1.1265,-0.1828l-1.2029 -0.149c-0.9684,-0.0846 -2.8934,-0.1023 -3.8881,-0.1158 -3.2873,-0.0445 -7.3005,-0.1039 -10.5462,0.0012 -0.8532,0.0276 -1.6885,0.089 -2.5444,0.1159 -0.4397,0.0139 -0.8685,0.0186 -1.309,0.0333 -0.6215,0.0207 -1.0808,-0.0759 -1.0797,0.2228z"/>
    <path id="_1240342192" class="fil2" d="M3.4088 18.159c0.0106,-0.2483 -0.3999,-1.2975 -0.503,-1.6082 -0.3132,-0.9445 -0.6905,-2.3913 -0.8741,-3.3892 -0.0645,-0.3508 -0.1552,-0.6396 0.0704,-0.8788 0.6523,-0.6918 1.7572,-0.5248 2.526,-0.2255 1.0972,0.4271 1.6942,1.0591 2.1236,2.1429 0.2517,0.6353 0.2025,1.0405 0.2671,1.294l0.1687 0.4035c0.1843,-0.4011 -0.0292,-1.5795 -0.1767,-1.9936 -0.4197,-1.1784 -1.3,-1.8938 -2.4539,-2.2619 -0.8807,-0.281 -2.0223,-0.4066 -2.7369,0.3216 -0.2447,0.2494 -0.2761,0.4719 -0.2345,0.9332 0.1419,1.5742 0.7653,3.5716 1.4956,4.9737 0.1025,0.1966 0.1009,0.2846 0.3277,0.2883z"/>
    <path id="_1240342120" class="fil2" d="M20.0667 24.1691c0.3713,0.3592 2.0579,-0.5544 2.9061,-0.7429 2.198,-0.4885 4.0694,0.3971 4.954,2.4365 0.1544,0.3561 -0.0619,0.4424 -0.2967,0.5786 -0.2024,0.1174 -0.3877,0.23 -0.5885,0.3471 -0.1498,0.0875 -0.5506,0.2591 -0.5698,0.4182 -0.0659,0.5484 1.751,-0.6089 1.8497,-0.7094 0.2793,-0.2845 -0.1694,-1.0651 -0.3342,-1.3661 -0.4582,-0.8366 -1.0316,-1.4557 -1.9329,-1.8822 -0.8818,-0.4172 -2.2678,-0.459 -3.2961,-0.1779 -0.6138,0.1678 -1.3961,0.5377 -2.1006,0.7695 -0.2011,0.0662 -0.5775,0.0974 -0.591,0.3286z"/>
    <path id="_1240341976" class="fil2" d="M21.6269 13.9211c-0.1071,0.0992 0.073,0.6643 0.1011,0.8534 0.046,0.3093 0.0722,0.648 0.0692,0.9793 -0.0059,0.6481 -0.1074,1.2539 -0.3553,1.7717 -1.0263,2.1436 -3.8269,2.7568 -5.8429,1.8905 -0.5073,-0.218 -0.977,-0.4949 -1.3527,-0.7788 -0.1331,-0.1007 -0.9155,-0.8516 -0.8025,-0.3995 0.0221,0.0888 0.2053,0.2409 0.2652,0.3006 1.555,1.549 4.4353,2.0137 6.3834,1.0019 3.2163,-1.6705 1.9733,-6.026 1.5345,-5.6191z"/>
    <path id="_1240341496" class="fil2" d="M15.9327 5.4154c0.2322,0 0.7111,0.0737 0.7842,-0.1115l-0.5597 -0.2838c-1.213,0.0024 -2.1362,0.197 -3.1737,0.5246 -0.9679,0.3056 -1.9276,0.7442 -3.0748,0.4174 -1.1563,-0.3294 -1.9491,-1.3169 -2.198,-2.4106 -0.1591,-0.6987 0.1837,-0.6416 0.7152,-1.0653l0.4861 -0.4748c-0.3104,-0.0138 -1.1258,0.485 -1.3448,0.626 -0.4933,0.3178 -0.313,0.785 -0.0819,1.4405 0.3341,0.9473 1.0318,1.6827 1.8515,2.0755 2.0553,0.9851 3.5985,-0.738 6.5959,-0.738z"/>
    <path id="_1240340728" class="fil2" d="M25.8816 32.6582c0.3115,-0.0009 0.6235,-0.0045 0.935,-0.0079 0.2984,-0.0034 0.6913,0.0723 0.6622,-0.2439 -4.6254,-0.0554 -9.3163,-0.1563 -13.9398,-0.0987 -0.2884,0.0036 -0.6481,-0.0676 -0.6974,0.2019 0.1538,0.1707 0.5744,0.1073 0.847,0.1077 4.0672,0.0057 8.1168,0.0529 12.193,0.0409z"/>
    <path id="_1240341280" class="fil2" d="M12.8355 17.4062c0.1711,-0.4163 -1.6245,-2.992 0.1784,-5.3568 0.4352,-0.5709 1.1168,-1.1765 1.8917,-1.5483 1.1238,-0.5391 1.6522,-0.5268 2.8266,-0.6568 -0.0134,-0.0575 0.0901,-0.1227 -0.3014,-0.1468 -0.1623,-0.01 -0.3264,-0.0075 -0.4888,-0.0014 -2.6434,0.1005 -5.3621,2.0283 -5.1867,5.0847 0.0327,0.5698 0.164,1.0439 0.3477,1.5166 0.0844,0.2172 0.4651,1.2094 0.7325,1.1088z"/>
    <path id="_1240340920" class="fil2" d="M27.2002 14.1607c-0.0746,0.2522 0.1879,1.7091 0.2772,1.9803 0.1754,0.5326 0.5324,1.1603 0.8354,1.4827l3.1416 1.4843c0.42,-0.0008 0.9559,-0.1634 1.1731,-0.3865 0.2557,-0.2624 0.0518,-0.9094 -0.0418,-1.2977 -0.2878,-1.1931 -0.7094,-2.5023 -1.1342,-3.6489 -0.0738,-0.1993 -0.1484,-0.436 -0.3378,-0.4442 -0.3037,-0.0133 -0.168,0.3661 -0.0992,0.5441 0.2906,0.7522 0.5298,1.6232 0.8163,2.3984 0.1452,0.3929 0.2861,0.7633 0.4022,1.1665 0.1464,0.5082 0.3319,0.9233 -0.1468,1.1542 -0.7681,0.3706 -1.9561,-0.0263 -2.5348,-0.3754 -2.2908,-1.382 -1.899,-3.9272 -2.3512,-4.0578z"/>
    <path id="_1240340848" class="fil2" d="M15.2735 20.217c0.0524,-0.2048 -0.0636,-0.2383 -0.234,-0.3132 -0.5225,-0.2298 -0.7051,-0.3327 -1.1831,-0.6528 -0.5095,-0.3412 -0.9009,-0.7164 -1.2545,-1.1764 -0.0223,-0.0412 -1.2643,-3.5673 -1.2588,-3.6673l0.1427 -1.3814c-0.2306,0.0051 -0.2315,0.1903 -0.2838,0.4233 -0.0497,0.2213 -0.0779,0.4368 -0.0978,0.644 -0.0425,0.4424 -0.0281,0.9792 0.0288,1.4075 0.201,1.5135 0.9647,2.956 2.0809,3.8322 0.3112,0.2442 1.4817,1.0673 2.0596,0.8841z"/>
    <path id="_1240341424" class="fil2" d="M7.6399 23.1863c-0.4091,-0.3458 -1.0037,-1.0557 -1.4628,-0.8846 0.0175,0.1974 0.1604,0.2397 0.275,0.352 0.4155,0.407 1.1641,1.0754 1.6188,1.4479 0.6068,0.4971 1.4558,1.098 2.1261,1.5018 0.1673,0.1008 1.4567,0.9308 1.5984,0.7078 0.1202,-0.1891 -0.4756,-0.4874 -0.613,-0.5714 -1.5533,-0.9493 -2.1609,-1.3856 -3.5425,-2.5535z"/>
    <path id="_1240341088" class="fil2" d="M10.1592 1.9648c0.647,-0.0219 1.2905,-0.1197 1.9586,-0.1409 1.2756,-0.0406 3.6019,0.1178 4.9083,0.2995 0.4635,0.0645 0.6787,0.1698 0.9062,0.0698 -1.4574,-0.6747 -4.3197,-0.9274 -5.9768,-0.7327 -0.5167,0.0608 -0.9038,0.1408 -1.3815,0.2934 -0.1414,0.0452 -0.3234,0.0973 -0.4148,0.2109z"/>
    <path id="_1240340200" class="fil2" d="M22.9794 4.3272c-0.1933,0.2631 0.1775,0.4239 0.3985,0.5775 1.3364,0.9292 2.8473,2.0811 3.9742,3.2076 0.112,0.112 0.4655,0.5807 0.6562,0.5271 0.6527,-0.1832 -2.618,-2.7726 -2.838,-2.9464 -0.2272,-0.1794 -0.4531,-0.322 -0.6928,-0.5035 -0.2175,-0.1647 -1.2033,-0.9021 -1.4981,-0.8623z"/>
    <path id="_1240339960" class="fil2" d="M15.1684 27.8489c0.4528,0.1374 0.9153,0.2687 1.3937,0.3643 0.4473,0.0895 2.6558,0.544 3.0623,0.2462 0.0515,-0.3305 -0.23,-0.3079 -0.5428,-0.3372 -0.9106,-0.0854 -1.3749,-0.1456 -2.2907,-0.3159 -0.6041,-0.1123 -1.5436,-0.323 -2.1298,-0.4962 -0.1574,-0.0465 -0.5863,-0.2454 -0.6505,-0.0191 -0.0633,0.2232 0.9749,0.5024 1.1578,0.5579z"/>
    <path id="_1240340680" class="fil2" d="M22.665 14.6674c0.1531,-0.3185 -0.2251,-1.5005 -0.3383,-1.7925 -0.3559,-0.9179 -1.2389,-1.8546 -2.0356,-2.377 -0.2023,-0.1327 -1.3142,-0.808 -1.6109,-0.5999 -0.2394,0.168 0.7841,0.5632 1.2424,0.8552 1.3639,0.8688 2.1194,1.9886 2.5343,3.5601 0.0186,0.0702 0.0332,0.1431 0.0549,0.2108 0.0566,0.1766 0.0321,0.1373 0.1532,0.1433z"/>
    <path id="_1240340272" class="fil2" d="M17.3896 19.1573c0.1231,0.4042 1.5209,-0.0218 1.7289,-0.105 1.2197,-0.4875 2.2274,-1.756 2.2956,-3.1107 0.0296,-0.5873 0.0344,-0.4765 -0.2397,-0.8184 -0.1455,0.326 0.054,1.6515 -1.0902,2.7996 -0.3278,0.3289 -0.6292,0.5722 -1.1416,0.8053 -0.6928,0.3152 -1.3951,0.3416 -1.553,0.4292z"/>
    <path id="_1240340704" class="fil2" d="M12.2208 22.7384c0.0734,-0.2752 -0.1492,-0.2859 -0.5376,-0.5656 -0.7809,-0.5625 -1.1816,-0.8864 -1.8882,-1.5903 -0.175,-0.1744 -0.355,-0.4048 -0.5381,-0.6214 -0.4695,-0.5554 -0.6709,-0.9911 -0.952,-1.3676l-0.5532 -0.5874c-0.1187,0.2766 0.1333,0.602 0.2552,0.8116 0.1389,0.2387 0.2994,0.4797 0.4563,0.7031 0.3482,0.4955 0.6741,0.8561 1.0528,1.266 0.3709,0.4014 2.196,2.0803 2.7048,1.9516z"/>
    <path id="_1240339984" class="fil2" d="M3.5436 16.9764c-0.1773,0.1504 0.7434,2.4678 0.8699,2.7393 0.0873,0.1872 1.2326,2.3792 1.5407,2.0685 0.1473,-0.1485 -0.5149,-1.0442 -0.594,-1.1807 -0.2272,-0.392 -0.4342,-0.7785 -0.6361,-1.1948 -0.3297,-0.6803 -0.5432,-1.2335 -0.8094,-1.9233 -0.0496,-0.1285 -0.1971,-0.6565 -0.3711,-0.509z"/>
    <path id="_1240339744" class="fil2" d="M16.8763 24.191c-0.3877,-0.0581 -0.7445,-0.1398 -1.1121,-0.2264 -0.2048,-0.0483 -1.0873,-0.3776 -0.9743,0.0175 0.0667,0.2335 1.7118,0.5817 2.081,0.6327 0.4234,0.0585 2.2892,0.2112 2.4036,-0.1324 0.0872,-0.2618 -0.2659,-0.2324 -0.4617,-0.2248 -0.7498,0.0291 -1.165,0.049 -1.9365,-0.0666z"/>
    <path id="_1240339480" class="fil2" d="M20.9071 28.5253c0.967,0 1.855,-0.0512 2.7672,-0.2469 0.3483,-0.0747 2.0356,-0.4885 2.0365,-0.9106 -1.5496,0.3865 -3.0958,0.8244 -4.7317,0.8686 -0.2741,0.0075 -0.5684,-0.0583 -0.5462,0.2245 0.151,0.0243 0.3235,0.0644 0.4742,0.0644z"/>
    <path id="_1240339648" class="fil2" d="M28.5636 9.1991c-0.1485,0.1579 0.1063,0.4358 0.1714,0.5222 0.1165,0.1546 0.2046,0.26 0.3223,0.4259 0.203,0.2862 0.3976,0.5892 0.5827,0.9141 0.1787,0.3135 0.3581,0.6258 0.5314,0.9635 0.0881,0.1717 0.387,1.0544 0.6664,0.758 0.1757,-0.1863 -0.765,-1.7536 -0.9048,-1.9789 -0.2624,-0.4229 -0.6135,-0.9513 -0.9132,-1.3305 -0.1041,-0.1317 -0.2949,-0.4458 -0.4562,-0.2743z"/>
    <path id="_1240339576" class="fil2" d="M17.6173 10.5549c-0.0082,0.3277 0.859,0.1038 1.9564,1.1466 0.3755,0.3569 0.7026,0.9074 0.9746,1.3818 0.1916,0.3341 0.0571,0.1567 0.3337,0.4828 -0.0379,-0.7535 -0.6857,-1.7631 -1.0351,-2.1377 -0.519,-0.5565 -1.8163,-1.1059 -2.2296,-0.8735z"/>
    <path id="_1240339504" class="fil2" d="M16.6202 2.7754c0.0686,0.1623 0.538,0.1638 0.7216,0.2022 0.7033,0.1472 1.551,0.3831 2.2008,0.6375 0.6341,0.2483 1.3685,0.5728 1.962,0.879 0.1244,0.0642 0.5553,0.3532 0.6488,0.1985 0.127,-0.2101 -0.874,-0.6228 -1.0913,-0.724 -0.452,-0.2103 -0.8607,-0.3832 -1.351,-0.5605 -0.4229,-0.1529 -2.6985,-0.8407 -3.0909,-0.6327z"/>
    <path id="_1240339936" class="fil2" d="M10.4721 13.5709c0.2546,-0.0909 0.2497,-0.8681 0.1986,-1.1619 -0.1147,-0.6594 -0.5897,-1.5008 -1.056,-1.8574l-0.8997 -0.5687c0.2794,0.4979 1.0028,0.5643 1.514,2.4999 0.0792,0.3 0.144,0.833 0.2431,1.0881z"/>
    <path id="_1240339360" class="fil2" d="M17.5903 5.3553c-0.4037,0.254 0.593,0.3055 1.7254,0.694 0.3368,0.1156 0.6244,0.2323 0.9342,0.3743 0.1638,0.0751 0.7581,0.4384 0.8947,0.3607 0.6234,-0.3547 -3.1372,-1.6915 -3.5543,-1.429z"/>
    <path id="_1240338808" class="fil2" d="M19.9604 20.1805c-0.1806,-0.0179 -0.744,0.1735 -0.99,0.2227 -0.3254,0.0651 -0.7447,0.1049 -1.0928,0.1163 -0.3871,0.0127 -0.7774,-0.0085 -1.158,-0.0505 -0.1703,-0.0187 -0.373,-0.0627 -0.5326,-0.0757 -0.2716,-0.0221 -0.3025,0.1433 -0.0915,0.244 1.242,0.592 3.8174,0.0103 3.8649,-0.4568z"/>
    <path id="_1240338688" class="fil2" d="M10.2299 23.7755c0.4844,0.4222 0.7975,0.6411 1.3687,0.9876 0.2848,0.1727 1.8151,0.9881 2.1555,0.8646 -0.0402,-0.1055 -0.0919,-0.1115 -0.2268,-0.1754 -0.8844,-0.4187 -1.9454,-1.0246 -2.6999,-1.6017 -0.2262,-0.1729 -0.7921,-0.7009 -0.9234,-0.4783 -0.0805,0.1363 0.2605,0.3463 0.3259,0.4032z"/>
    <path id="_1240338544" class="fil2" d="M25.3344 9.7054c0.087,-0.4938 -1.6584,-2.1408 -2.1119,-2.4378l-0.994 -0.5185c-0.0833,0.2465 0.2679,0.3474 0.7229,0.714 0.7404,0.5966 1.3592,1.1145 1.9532,1.8619 0.1121,0.1412 0.2109,0.3647 0.4298,0.3804z"/>
    <path id="_1240338424" class="fil2" d="M11.1047 25.2067c-0.0654,-0.1489 -0.8325,-0.6185 -1.0261,-0.7562 -0.3347,-0.2382 -1.1834,-0.904 -1.497,-1.1958 -0.1686,-0.1568 -0.3007,-0.2808 -0.4683,-0.4294 -0.312,-0.277 -0.8404,-0.9014 -1.0084,-0.7463 -0.2018,0.1862 0.5838,0.7824 0.777,0.94 0.5758,0.4699 2.7031,2.0819 3.2228,2.1877z"/>
    <path id="_1240339024" class="fil2" d="M13.9725 24.2939c-0.3997,-0.1933 -1.2943,-0.7512 -1.5169,-0.7242 -0.0432,0.3083 1.0231,0.8156 1.2932,0.9491 0.2033,0.1005 1.4707,0.7248 1.6277,0.5535 0.1469,-0.1602 -0.4997,-0.3647 -0.6329,-0.4226 -0.2875,-0.1249 -0.5026,-0.2261 -0.7711,-0.3558z"/>
    <path id="_1240339000" class="fil2" d="M24.956 19.9859c-0.1363,-0.3853 -1.0135,-1.2658 -1.2645,-1.7805l-0.3159 -0.7255c-0.2633,0.0936 -0.1426,0.6426 -0.0576,0.8379 0.2297,0.5281 1.2279,1.4783 1.638,1.6681z"/>
    <path id="_1240338184" class="fil2" d="M18.8929 2.4762c-0.0192,0.2127 0.2164,0.2204 0.6481,0.3969 0.7212,0.2947 1.5961,0.6419 2.3202,0.8951 0.0157,-0.2558 -0.3419,-0.3787 -0.5567,-0.4918 -0.4113,-0.2167 -2.125,-0.9448 -2.4116,-0.8002z"/>
    <path id="_1240338088" class="fil2" d="M14.7578 4.349c-0.249,0.0319 -1.9851,0.1839 -1.9603,0.5197 0.0185,0.2486 0.4849,0.0565 0.6425,0.0161 0.4547,-0.1166 0.9218,-0.1941 1.4003,-0.2508 0.1666,-0.0197 0.6398,0.0106 0.6023,-0.2049 -0.0341,-0.1961 -0.5034,-0.1033 -0.6848,-0.0801z"/>
    <path id="_1240338280" class="fil2" d="M9.2147 4.9202c-0.1246,0.4889 1.8484,0.9381 2.4362,0.5289 0.5309,-0.3697 -0.7916,-0.1468 -1.1286,-0.1815 -0.7966,-0.0819 -1.0298,-0.4185 -1.3076,-0.3474z"/>
    <path id="_1240338376" class="fil2" d="M6.8068 18.2001c0.0726,-0.1582 -0.6617,-1.8809 -0.8138,-2.2686 -0.1846,-0.4703 -0.0812,-0.2885 -0.3831,-0.6976 -0.1207,0.2348 0.6144,1.9248 0.7839,2.3176 0.0864,0.2 0.2007,0.6143 0.413,0.6486z"/>
    <path id="_1240338040" class="fil2" d="M28.1175 10.9572c0.1739,-0.3587 -1.0787,-1.696 -1.3911,-1.9954l-0.6437 -0.5576c0.0469,0.2343 0.8279,1.0405 1.0305,1.2934 0.1672,0.2088 0.3244,0.408 0.4795,0.6423 0.0758,0.1145 0.1496,0.222 0.2224,0.3391 0.0853,0.1375 0.1282,0.2729 0.3024,0.2782z"/>
    <path id="_1240337296" class="fil2" d="M30.4936 14.2323c0.0191,-0.3912 -0.2605,-1.1913 -0.3905,-1.5407 -0.058,-0.1558 -0.3768,-0.9137 -0.4625,-0.9956l-0.302 -0.1565c-0.0012,0.1684 0.459,1.0474 0.5663,1.3151l0.4434 1.2346c0.0747,0.1711 0.0207,0.1003 0.1453,0.1431z"/>
    <path id="_1240337152" class="fil2" d="M21.5829 6.1383c0.0221,-0.2104 -0.1202,-0.2688 -0.4073,-0.4521 -0.1918,-0.1225 -0.3629,-0.2334 -0.5626,-0.3351 -0.152,-0.0774 -1.0745,-0.5933 -1.2019,-0.4737 -0.1882,0.1767 0.6615,0.4884 1.0025,0.6724 0.2429,0.1311 0.9584,0.5909 1.1693,0.5885z"/>
    <path id="_1240337584" class="fil2" d="M2.7382 14.0798l-0.0834 -1.4304c0.4081,-0.3701 1.5272,-0.1268 2.046,0.1226l0.5814 0.294c-0.0621,-0.1524 -0.2256,-0.2352 -0.3619,-0.3255 -0.4861,-0.3223 -0.9842,-0.5405 -1.6172,-0.4162 -0.1903,0.0374 -0.3613,0.0936 -0.5095,0.1628 -0.3586,0.1676 -0.3352,0.3638 -0.2177,1.0385 0.0156,0.0897 0.0376,0.1765 0.0563,0.2656 0.0089,0.0425 0.0213,0.1183 0.034,0.1565l0.072 0.1321z"/>
    <path id="_1240336984" class="fil2" d="M21.8651 18.6915c0.3019,-0.1445 0.6827,-0.8707 0.826,-1.3035l0.1461 -1.9529c-0.1992,-0.0043 -0.1698,0.1316 -0.174,0.3167 -0.0115,0.5202 -0.0504,0.9334 -0.1729,1.4344 -0.1091,0.4461 -0.3956,1.2559 -0.6252,1.5053z"/>
    <path id="_1240337224" class="fil2" d="M12.351 11.5355c0.0048,-0.151 0.0131,-0.1429 -0.1123,-0.2029l-1.7151 -0.5783c-0.0002,0.368 1.3523,0.9544 1.8274,0.7812z"/>
    <path id="_1240336384" class="fil2" d="M26.8166 12.6513c0.1194,-0.2678 -0.3743,-1.094 -0.4887,-1.2692l-0.8649 -0.9793c0.0367,0.1589 0.7651,1.2951 0.976,1.7271 0.1541,0.3155 0.1857,0.5087 0.3776,0.5214z"/>
    <path id="_1240336312" class="fil2" d="M29.1387 17.2111c0.0096,-0.1949 -0.3104,-0.5887 -0.484,-0.9029 -0.087,-0.1574 -0.4155,-0.9005 -0.5665,-0.7447 -0.1611,0.1663 0.4984,1.137 0.6474,1.338 0.1106,0.1493 0.1829,0.3251 0.4031,0.3096z"/>
    <path id="_1240336168" class="fil2" d="M21.0861 25.7795c0.4852,0.0104 1.1899,-0.1766 1.6534,-0.3401 0.0755,-0.0266 0.1671,-0.0542 0.242,-0.0923 0.1327,-0.0675 0.1092,-0.04 0.1387,-0.1788l-1.0768 0.209c-0.308,0.0876 -0.8838,0.0987 -0.9573,0.4022z"/>
    <path id="_1240336624" class="fil2" d="M30.2648 31.2689c0.1903,0.0934 0.6666,0.0577 0.9278,0.0566 0.2562,-0.0011 0.743,0.0779 0.8153,-0.1623 -0.7678,-0.1671 -0.467,-0.1213 -1.302,-0.1154 -0.2606,0.0017 -0.4467,-0.0422 -0.4411,0.2211z"/>
    <path id="_1240336552" class="fil2" d="M21.7661 19.5709c0.2592,0.022 0.542,-0.046 0.8247,-0.0424l0.811 0.0701c0.0085,-0.4733 -1.5632,-0.4925 -1.6357,-0.0277z"/>
    <path id="_1240336696" class="fil2" d="M3.4037 14.853c-0.0417,0.3119 0.5598,1.6648 0.7518,1.469 0.101,-0.1031 -0.2087,-0.6671 -0.2657,-0.7927 -0.0575,-0.1266 -0.1171,-0.2467 -0.18,-0.3824 -0.0832,-0.1791 -0.1051,-0.3002 -0.3061,-0.2939z"/>
    <path id="_1240335520" class="fil2" d="M29.7337 15.1571c0.032,-0.3649 -0.107,-0.9385 -0.1917,-1.272 -0.1531,-0.6034 -0.1492,-0.5392 -0.4439,-1.0515 -0.1202,0.1642 0.17,0.8104 0.2745,1.1459 0.0837,0.2691 0.2507,1.0139 0.3611,1.1776z"/>
    <path id="_1240335904" class="fil2" d="M17.1889 25.2028c-0.2269,-0.0279 -0.6377,-0.1559 -0.8102,-0.0239 0.0207,0.2143 0.3907,0.242 0.6557,0.2761 0.2635,0.034 0.622,0.0828 0.8372,-0.0169 -0.3753,-0.2511 -0.1924,-0.1749 -0.6827,-0.2353z"/>
    <path id="_1240335616" class="fil2" d="M5.407 19.0678c0.0818,-0.2748 -0.6212,-1.212 -0.7973,-1.4655 -0.1408,0.1994 0.3371,0.9741 0.481,1.214 0.0774,0.1291 0.1466,0.2681 0.3163,0.2515z"/>
    <path id="_1240335712" class="fil2" d="M18.0205 26.6002c-0.2661,-0.0461 -1.7517,-0.3587 -1.8936,-0.2618 0.041,0.0775 -0.1087,0.0947 0.3856,0.203 0.3299,0.0722 1.3038,0.2396 1.508,0.0588z"/>
    <path id="_1240336072" class="fil2" d="M25.1507 6.8591c-0.1113,-0.4286 -2.061,-1.6551 -2.5167,-1.9595 0.0906,0.1266 1.0355,0.8129 1.2415,0.9669l1.1619 0.9317c0.1018,0.068 0.0049,0.0141 0.1133,0.0609z"/>
    <path id="_1240334728" class="fil2" d="M9.0348 22.3932c0.0069,-0.1473 -0.4877,-0.6146 -0.6139,-0.736l-0.7076 -0.6587c0.0215,0.2346 1.0144,1.4273 1.3215,1.3947z"/>
    <path id="_1240335184" class="fil2" d="M6.1372 31.9486c0.15,0.1314 1.1816,0.1497 1.3604,0.0192 -0.522,-0.1738 -0.5949,-0.2563 -1.1018,-0.2072 -0.1773,0.0172 -0.239,0.0244 -0.2586,0.188z"/>
    <path id="_1240334992" class="fil2" d="M27.7474 12.7584c0.0313,-0.3342 -0.1466,-0.7459 -0.3015,-1.039 -0.0316,-0.0597 -0.0836,-0.1652 -0.161,-0.1848 -0.3257,-0.0825 0.0499,0.5376 0.1044,0.6567 0.0947,0.2068 0.1954,0.5247 0.3581,0.5671z"/>
    <path id="_1240335112" class="fil2" d="M9.4299 32.547c0.16,0.1232 0.4829,0.077 0.7058,0.0743 0.2448,-0.0029 0.5244,0.0462 0.5195,-0.222l-0.7068 -0.0421c-0.2586,0.0048 -0.4952,-0.05 -0.5185,0.1898z"/>
    <path id="_1240334968" class="fil2" d="M28.7399 14.4907c0.0033,-0.2849 -0.0931,-0.6568 -0.1692,-0.9035 -0.1268,-0.4109 -0.1467,-0.3822 -0.4172,-0.6794 -0.0039,0.1062 0.3723,1.4648 0.5864,1.5829z"/>
    <path id="_1240334584" class="fil2" d="M24.4371 9.377l-0.5165 -0.6011c-0.6267,-0.6586 -1.222,-0.9937 -1.9798,-1.5178 0.0661,0.1276 0.1741,0.1813 0.3052,0.2752 0.1231,0.0882 0.2299,0.1747 0.3421,0.2566 0.2351,0.1714 0.4233,0.3224 0.647,0.5116 0.1017,0.086 0.2002,0.1754 0.3035,0.2576 0.1124,0.0895 0.2061,0.1964 0.3098,0.2889 0.1185,0.1057 0.4916,0.4967 0.5887,0.529z"/>
    <path id="_1240334752" class="fil2" d="M25.4047 26.8994c0.1829,0.1089 0.8447,-0.2588 1.0151,-0.3588 0.2,-0.1176 0.7304,-0.4196 0.8531,-0.6276l-1.8682 0.9864z"/>
    <path id="_1240334344" class="fil2" d="M5.5784 19.4978c-0.0159,0.252 0.5522,1.0912 0.7047,0.9324 0.098,-0.102 -0.1889,-0.4281 -0.2594,-0.5276 -0.1103,-0.1558 -0.2189,-0.4222 -0.4453,-0.4048z"/>
    <path id="_1240333840" class="fil2" d="M1.5392 28.2641c0.1027,0.009 0.2267,0.0073 0.3307,0.007 0.2395,-0.0006 0.478,0.047 0.5266,-0.1749 -0.2329,-0.0407 -0.9628,-0.2266 -1.0807,0.0374 0.0474,0.0616 -0.0799,0.0118 0.079,0.1 0.0286,0.016 0.107,0.0273 0.1444,0.0305z"/>
    <path id="_1240333960" class="fil2" d="M14.9906 3.6625c0.0167,0.198 0.1105,0.1953 0.6055,0.1985l0.7571 -0.027c-0.0368,-0.0753 0.0528,-0.0839 -0.2686,-0.1272 -0.2062,-0.0278 -0.9813,-0.1312 -1.094,-0.0443z"/>
    <path id="_1240334248" class="fil2" d="M10.4928 2.6335c0.4973,-0.0732 0.7983,-0.1774 1.39,-0.2398 0.3148,-0.0332 0.1513,0.0106 0.4672,-0.1045 -0.1233,-0.0798 -0.3336,-0.0614 -0.5303,-0.0416 -0.4222,0.0426 -0.742,0.1212 -1.1284,0.2598 -0.1467,0.0527 -0.1299,0.044 -0.1985,0.1261z"/>
    <path id="_1240334392" class="fil2" d="M31.0547 16.5487c0.0062,-0.2282 -0.1295,-1.0743 -0.1964,-1.2001l-0.2268 -0.2657c-0.0766,0.1886 0.1749,0.8646 0.2578,1.1206 0.0167,0.0517 0.0338,0.1123 0.0554,0.1691l0.11 0.1761z"/>
    <path id="_1240334464" class="fil2" d="M11.0129 22.6949c-0.1087,-0.3411 -0.8792,-0.7042 -1.1631,-0.8626 0.0903,0.269 0.8804,0.8231 1.1631,0.8626z"/>
    <path id="_1240333120" class="fil2" d="M19.1441 26.862c0.1459,0.1983 1.2029,0.019 1.4487,-0.0153 -0.1596,-0.1186 -0.1391,-0.0846 -0.3963,-0.0778 -0.3494,0.0093 -0.9497,-0.0662 -1.0524,0.0931z"/>
    <path id="_1240333648" class="fil2" d="M31.4544 18.2931c0.5938,0.0097 0.5171,-0.5103 0.3759,-1.0835 -0.0571,-0.2315 -0.0503,-0.2766 -0.1676,-0.4218 0.0051,0.3082 0.1729,0.9704 0.0695,1.3056 -0.0518,0.168 -0.1355,0.1202 -0.2778,0.1997z"/>
    <path id="_1240333480" class="fil2" d="M21.5934 27.6848c0.2432,0.1941 1.2693,-0.1063 1.5229,-0.2244 -0.1795,-0.0589 -0.1471,-0.0314 -0.3984,0.0152 -0.1328,0.0246 -0.2456,0.0419 -0.3786,0.0631 -0.2241,0.0357 -0.6207,0.021 -0.7459,0.1461z"/>
    <path id="_1240333144" class="fil2" d="M12.8087 3.6659c0.0429,0.0279 0.0275,0.0542 0.1896,0.0394 0.3624,-0.033 1.1165,-0.1611 1.4722,-0.2193 -0.324,-0.2021 -1.3378,0.0903 -1.6618,0.1799z"/>
    <path id="_1240333552" class="fil2" d="M29.9803 31.848c-0.0055,-0.0018 -0.8649,-0.1237 -0.7235,0.1547 0.0482,0.0949 0.7317,0.1901 0.8288,-0.0915 -0.0477,-0.0381 0.0084,-0.0247 -0.1053,-0.0632z"/>
    <path id="_1240333000" class="fil2" d="M7.381 19.6572c-0.1146,0.3239 0.2372,0.5619 0.3553,0.4333 0.1003,-0.1091 -0.0276,-0.5077 -0.3553,-0.4333z"/>
    <path id="_1240332664" class="fil2" d="M28.9215 10.8198c-0.0799,-0.4552 -0.544,-0.8614 -0.8468,-1.1679 0.0418,0.177 0.2833,0.438 0.3973,0.5945 0.0822,0.1128 0.13,0.179 0.2038,0.2825 0.1261,0.1769 0.1001,0.2068 0.2457,0.2909z"/>
    <path id="_1240332640" class="fil2" d="M1.7862 24.3624c-0.1578,-0.0732 -0.6758,-0.0808 -0.547,0.168 0.0489,0.0942 0.2617,0.0741 0.3705,0.0585 0.1617,-0.0231 0.192,-0.0567 0.1765,-0.2265z"/>
    <path id="_1240332928" class="fil2" d="M13.0026 2.551c0.0165,0.0106 -0.0096,0.0455 0.1979,0.0573 0.2586,0.0146 0.3236,-0.0384 0.5882,-0.1321 -0.1352,-0.1576 -0.7284,-0.1439 -0.7861,0.0748z"/>
    <path id="_1240332400" class="fil2" d="M24.2203 25.9643c0.0373,0.0212 0.043,0.0451 0.1573,0.0293 0.0929,-0.0127 0.4696,-0.2083 0.5606,-0.263 0.1324,-0.0796 0.1296,-0.0575 0.1572,-0.1777 -0.3976,0.1119 -0.3683,0.0701 -0.6743,0.259 -0.043,0.0266 -0.0848,0.0503 -0.1148,0.0724l-0.0445 0.0364c-0.0051,0.0042 -0.0174,0.0281 -0.021,0.0213 -0.0037,-0.0069 -0.0139,0.0147 -0.0205,0.0223z"/>
    <path id="_1240332304" class="fil2" d="M11.8402 25.6864c0.05,0.0626 -0.055,0.0315 0.1132,0.1451 0.1806,0.1219 0.7942,0.408 0.9938,0.4379 -0.1652,-0.1943 -0.9492,-0.5633 -1.107,-0.583z"/>
    <path id="_1240331656" class="fil2" d="M26.5765 10.5777c0.0189,-0.1965 -0.0707,-0.3307 -0.1455,-0.4591 -0.0855,-0.1468 -0.1447,-0.2932 -0.3078,-0.2933 -0.0152,0.1775 0.3332,0.7081 0.4533,0.7524z"/>
    <path id="_1240331584" class="fil2" d="M19.0104 25.6651c0.0376,0.1863 0.4472,0.208 0.4029,-0.0696 -0.0361,-0.2256 -0.4573,-0.2002 -0.4029,0.0696z"/>
    <path id="_1240332040" class="fil2" d="M11.1907 3.3738c0.186,0.1999 0.4062,0.0864 0.3694,-0.1072 -0.0282,-0.1478 -0.374,-0.2469 -0.3694,0.1072z"/>
    <path id="_1240332112" class="fil2" d="M11.9726 32.5464c0.2196,0.0835 0.455,0.0886 0.4841,-0.1549 -0.1836,-0.0903 -0.4731,-0.1058 -0.4841,0.1549z"/>
    <path id="_1240331992" class="fil2" d="M13.4901 23.3019c-0.0163,-0.2144 -0.3147,-0.2676 -0.5421,-0.2472 0.0042,0.1425 0.0703,0.153 0.2218,0.2139 0.1322,0.0532 0.2024,0.0801 0.3203,0.0333z"/>
    <path id="_1240332232" class="fil2" d="M33.655 27.3883c-0.1956,-0.1058 -0.4724,-0.0465 -0.3256,0.2217 0.2091,0.0919 0.3686,0.0155 0.3256,-0.2217z"/>
    <path id="_1240330816" class="fil2" d="M18.4796 4.8699l-1.9002 -0.3954c0.1377,0.1075 1.1115,0.2821 1.4165,0.3512l0.3725 0.0769c0.1513,-0.006 0.0644,-0.0026 0.1112,-0.0327z"/>
    <path id="_1240331416" class="fil2" d="M22.7928 5.7815c-0.1909,0.1195 0.0353,0.4047 0.2262,0.2704 0.1697,-0.1194 -0.0369,-0.389 -0.2262,-0.2704z"/>
    <path id="_1240330792" class="fil2" d="M10.9659 4.2993c-0.2605,-0.0873 -0.4051,0.0936 -0.2728,0.2379 0.1119,0.122 0.3824,0.0661 0.2728,-0.2379z"/>
    <path id="_1240331032" class="fil2" d="M11.8939 4.611c0.1261,0.0605 0.4198,0.0911 0.3164,-0.1684 -0.0548,-0.1376 -0.3692,-0.2052 -0.3164,0.1684z"/>
    <path id="_1240331104" class="fil2" d="M20.6139 27.7222l-1.0731 -0.0374c0.052,0.0593 -0.0995,0.0206 0.0862,0.0889 0.0756,0.0277 0.338,0.0289 0.42,0.0278 0.1083,-0.0014 0.2155,-0.0097 0.3119,-0.017 0.3528,-0.0266 0.2049,-0.0255 0.255,-0.0623z"/>
    <path id="_1240330240" class="fil2" d="M24.177 24.6807c0.2051,0.1763 0.3986,0.0239 0.3093,-0.1572 -0.0527,-0.1065 -0.3553,-0.1776 -0.3093,0.1572z"/>
    <path id="_1240330120" class="fil2" d="M18.8081 4.0168c-0.0043,-0.1282 -0.0254,-0.1521 -0.0759,-0.22 -0.4615,-0.0871 -0.2679,0.5153 0.0759,0.22z"/>
    <path id="_1240330456" class="fil2" d="M5.3135 17.3572c0.0117,-0.1719 -0.0219,-0.2511 -0.0762,-0.4104 -0.047,-0.1378 -0.0652,-0.2818 -0.1884,-0.3332 -0.0574,0.1848 0.1585,0.6451 0.2646,0.7436z"/>
    <path id="_1240330096" class="fil2" d="M31.2157 31.8566c-0.0122,0.1536 0.0324,0.1823 0.1999,0.1714 0.1743,-0.0115 0.1884,-0.0521 0.1942,-0.1975 -0.1572,-0.0548 -0.2381,-0.0661 -0.3941,0.0261z"/>
    <path id="_1240330432" class="fil2" d="M0.687 26.7124c0.0914,0.1088 0.1326,0.1387 0.271,0.0374 0.0556,-0.3021 -0.2645,-0.3337 -0.271,-0.0374z"/>
    <path id="_1240330504" class="fil2" d="M21.979 5.5176c0.0942,0.0247 0.1466,0.0203 0.2219,-0.0247 0.0865,-0.3291 -0.3356,-0.3331 -0.2219,0.0247z"/>
    <path id="_1240329592" class="fil2" d="M29.9605 15.8659c0.0471,0.1113 0.0494,0.1155 0.1848,0.1348 0.0848,-0.0744 0.0495,-0.0076 0.0993,-0.1348 -0.0714,-0.1585 -0.2247,-0.2114 -0.2841,0z"/>
    <path id="_1240329304" class="fil2" d="M28.1271 32.3933c-0.1438,-0.0526 -0.3302,-0.0235 -0.1947,0.1593 0.0834,0.1124 0.2197,0.0619 0.1947,-0.1593z"/>
    <path id="_1240329280" class="fil2" d="M15.6939 25.6567c0.0223,-0.1706 -0.263,-0.1666 -0.2438,0.0084 0.0169,0.1538 0.228,0.1118 0.2438,-0.0084z"/>
    <path id="_1240329208" class="fil2" d="M11.2853 32.5613c0.2019,0.0826 0.253,-0.0997 0.1935,-0.1617 -0.0492,-0.0513 -0.2023,-0.0828 -0.2225,0.0721 -0.0213,0.1641 0.0068,0.0434 0.029,0.0896z"/>
    <path id="_1240329904" class="fil2" d="M30.7655 17.1206l0.0099 -0.1668c-0.3141,-0.1466 -0.3451,0.2609 -0.0099,0.1668z"/>
    <path id="_1240329616" class="fil2" d="M27.4259 8.8193l-1.2339 -1.2024c0.0406,0.131 0.4665,0.463 0.5839,0.5851 0.1845,0.1918 0.4623,0.5455 0.65,0.6173z"/>
    <path id="_1240329112" class="fil2" d="M9.5756 22.9756c0.0278,-0.0986 0.0328,-0.1066 -0.0211,-0.2068 -0.3006,-0.058 -0.2702,0.2246 0.0211,0.2068z"/>
    <path id="_1240328968" class="fil2" d="M7.0126 21.2691c0.0693,-0.1112 0.0591,-0.0923 0.0159,-0.2054l-0.1469 -0.0107c-0.1015,0.1316 -0.0777,0.2504 0.131,0.2161z"/>
    <path id="_1240329136" class="fil2" d="M34.3809 30.3512c-0.1414,0.2676 0.2687,0.3381 0.1637,0.0033l-0.1637 -0.0033z"/>
    <path id="_1240328584" class="fil2" d="M25.6819 8.9373c0.0013,-0.1857 -0.1086,-0.2445 -0.265,-0.2701 0.0412,0.1521 0.1194,0.2486 0.265,0.2701z"/>
    <path id="_1240328824" class="fil2" d="M28.6968 12.0641c-0.0125,-0.2054 -0.0268,-0.2815 -0.2121,-0.3341 0.0266,0.1724 0.0658,0.2586 0.2121,0.3341z"/>
    <path id="_1240327720" class="fil2" d="M8.2993 31.1369c0.1862,0.0513 0.2404,-0.1908 -0.0169,-0.1813 -0.0252,0.0715 -0.0228,0.0216 -0.0202,0.096 0.0061,0.1714 -0.0124,0.0078 0.0371,0.0853z"/>
    <path id="_1240327864" class="fil2" d="M21.5672 26.4727c-0.0464,0.2312 0.2162,0.2426 0.1762,0.0028l-0.1762 -0.0028z"/>
    <path id="_1240327936" class="fil2" d="M1.9678 25.8631c-0.426,-0.079 0.0243,0.4375 0,0z"/>
    <path id="_1240328104" class="fil2" d="M25.3877 24.8423c-0.226,-0.0915 -0.268,0.1762 -0.0017,0.1455l0.0017 -0.1455z"/>
    <path id="_1240327960" class="fil2" d="M26.8304 11.025l0.1666 0.0164c0.0084,-0.1716 0.0055,-0.176 -0.1767,-0.149l0.0101 0.1326z"/>
    <path id="_1240327888" class="fil2" d="M5.0863 16.0064c0.1068,-0.1063 0.1031,-0.1511 -0.0778,-0.1769 -0.0318,0.1282 -0.0432,0.1234 0.0778,0.1769z"/>
    <path id="_1240327648" class="fil2" d="M9.6789 3.9468l0.1234 -0.0056c0.0194,-0.0404 0.1363,-0.0964 -0.1305,-0.134 -0.0004,0.0013 -0.0519,0.0292 0.0071,0.1396z"/>
    <path id="_1240327432" class="fil2" d="M14.8548 26.2636c-0.1769,-0.1831 -0.1445,-0.0505 -0.1611,-0.0374 0.0473,0.0533 -0.0957,0.0472 0.0776,0.0793 0.1322,0.0246 0.0598,-0.0249 0.0835,-0.0419z"/>
    <path id="_1240327384" class="fil2" d="M31.9479 29.0313c-0.1746,-0.1872 -0.1432,-0.0479 -0.155,-0.0374 0.0414,0.0583 -0.0862,0.0512 0.0724,0.0821 0.1273,0.0248 0.0532,-0.0221 0.0826,-0.0447z"/>
    <path id="_1240327600" class="fil2" d="M25.6541 24.4312c0.4421,0.1974 0.878,0.5589 1.003,0.5529l-2.1255 -1.047c-0.0106,0.2666 0.5724,0.2483 1.1225,0.4941z"/>
   </g>
  </g>
 </g>
</svg>
