<?xml version="1.0" encoding="UTF-8"?>
<!DOCTYPE svg PUBLIC "-//W3C//DTD SVG 1.1//EN" "http://www.w3.org/Graphics/SVG/1.1/DTD/svg11.dtd">
<!-- Creator: CorelDRAW -->
<svg xmlns="http://www.w3.org/2000/svg" xml:space="preserve" width="215.9mm" height="279.4mm" style="shape-rendering:geometricPrecision; text-rendering:geometricPrecision; image-rendering:optimizeQuality; fill-rule:evenodd; clip-rule:evenodd"
viewBox="0 0 215.9 279.4"
 xmlns:xlink="http://www.w3.org/1999/xlink">
 <defs>
  <style type="text/css">
   <![CDATA[
    .fil1 {fill:black}
    .fil0 {fill:#FDFEFE}
   ]]>
  </style>
 </defs>
 <g id="Capa_x0020_1">
  <metadata id="CorelCorpID_0Corel-Layer"/>
  <g id="_381848728">
   <g>
    <path id="_455480792" class="fil0" d="M29.2043 171.47l0.04 -3.913c-0.3669,-0.3969 -0.9617,-0.8328 -1.3746,-1.2407 -3.323,-3.2821 -5.7259,-7.1165 -6.9587,-11.678 -2.205,-8.1584 -0.1884,-18.6068 4.4922,-25.5103 1.5894,-2.3441 2.9048,-3.756 4.9185,-5.6961 1.6275,-1.5682 4.2794,-3.2694 6.2947,-4.3201 2.9907,-1.5592 4.5737,-1.8962 7.7272,-2.848 -1.1369,-0.5318 -3.9152,-0.2976 -5.1843,-0.0199 -1.5128,0.331 -2.9816,0.8649 -4.3822,1.5198 -13.6636,6.3891 -20.3561,26.1842 -15.6272,40.2652 1.6676,4.9652 5.1962,10.1082 9.5869,13.1738 0.2821,0.197 0.2811,0.241 0.4675,0.2673z"/>
    <path id="_455480888" class="fil0" d="M35.8075 145.916c-0.3925,-3.4539 2.1109,-6.3641 5.4562,-6.8507 3.4376,-0.5001 6.5508,1.8909 6.9971,5.3094 0.4454,3.4127 -2.1807,6.3967 -5.4801,6.8393 -3.3228,0.4457 -6.5926,-1.9479 -6.9732,-5.298zm5.8218 -9.022c-4.4041,0.5436 -8.2437,4.3854 -8.1368,8.9411 0.1147,4.8847 4.5801,8.1267 9.2717,7.7759 4.6316,-0.3464 8.5189,-4.175 8.0337,-8.993 -0.2375,-2.3587 -1.0037,-4.1744 -2.8113,-5.7117 -1.7188,-1.4617 -4.0737,-2.2942 -6.3573,-2.0123z"/>
    <path id="_455481056" class="fil0" d="M41.4432 142.478c3.2865,-0.7495 4.405,4.1054 1.1333,4.8796 -3.2323,0.7649 -4.4719,-4.1183 -1.1333,-4.8796zm-0.0008 -2.279c-2.5629,0.4316 -4.5738,2.6421 -4.192,5.393 0.3582,2.5812 2.8691,4.3893 5.4766,3.9847 2.545,-0.3949 4.4325,-2.6478 4.0965,-5.3022 -0.3321,-2.6235 -2.7024,-4.5266 -5.3811,-4.0755z"/>
   </g>
   <g>
    <path id="_455480120" class="fil1" d="M41.6293 136.894c2.2836,-0.2819 4.6385,0.5506 6.3573,2.0123 1.8076,1.5373 2.5738,3.353 2.8113,5.7117 0.4852,4.818 -3.4021,8.6466 -8.0337,8.993 -4.6916,0.3508 -9.157,-2.8912 -9.2717,-7.7759 -0.1069,-4.5557 3.7327,-8.3975 8.1368,-8.9411zm-12.425 34.5752c-0.1864,-0.0263 -0.1854,-0.0703 -0.4675,-0.2673 -4.3907,-3.0656 -7.9193,-8.2086 -9.5869,-13.1738 -4.7289,-14.081 1.9636,-33.8761 15.6272,-40.2652 1.4006,-0.6549 2.8694,-1.1888 4.3822,-1.5198 1.2691,-0.2777 4.0474,-0.5119 5.1843,0.0199 -3.1535,0.9518 -4.7365,1.2888 -7.7272,2.848 -2.0153,1.0507 -4.6672,2.7519 -6.2947,4.3201 -2.0137,1.9401 -3.3291,3.352 -4.9185,5.6961 -4.6806,6.9035 -6.6972,17.3519 -4.4922,25.5103 1.2328,4.5615 3.6357,8.3959 6.9587,11.678 0.4129,0.4079 1.0077,0.8438 1.3746,1.2407l-0.04 3.913zm16.7574 -57.8185c0.1782,0.2782 0.8983,0.7498 1.2039,1.0451 1.3666,1.3203 1.851,2.9117 1.7635,4.8117 -0.0978,2.1238 -1.1605,4.7226 -2.1759,6.5815 -1.8617,3.408 -3.5949,5.3149 -5.1772,7.9492 -1.1607,1.9325 -1.1345,1.5288 -2.3437,1.9461 -6.5585,2.263 -10.045,10.5728 -4.7382,16.2543 2.5757,2.7576 5.3035,2.5076 5.7764,2.9195l-0.7159 1.4762 -5.4981 -1.5284c-1.4052,-0.9758 -2.5675,-2.2178 -3.4403,-3.6867 -0.9817,-1.6519 -1.5358,-3.5379 -1.6801,-5.4517 -0.2188,-2.8997 0.4619,-3.912 0.9669,-6.0833l-1.7044 2.8121c-0.3986,0.9372 -0.8986,2.2919 -1.0268,3.2619l1.9312 -8.0292c1.5355,-2.3499 2.8885,-3.3099 4.9508,-5.0946 1.801,-1.5585 3.7609,-2.9916 5.3122,-4.7341 2.4367,-2.737 8.3445,-9.1495 6.7477,-12.761 -0.2474,-0.5596 -0.6201,-1.0534 -1.0468,-1.4604 -0.6422,-0.6125 -1.2187,-0.4446 -2.0626,-0.4285 -6.2281,0.1182 -12.7263,3.7693 -17.0004,8.0926 -7.7639,7.8531 -10.9273,18.9996 -9.9707,29.8816 0.4537,5.161 2.1902,10.6762 5.1115,14.9736 2.5808,3.7964 6.4674,7.5405 10.7611,9.3098l-2.3247 -3.2585c-0.4436,-1.6919 -0.338,-3.3586 -0.1185,-5.0652 0.1678,-1.3043 0.7677,-3.0446 1.2598,-4.2639 0.4143,-1.0264 1.8153,-3.533 1.8403,-3.6721 -1.1153,-0.639 -2.1783,-1.199 -3.1695,-2.0291 -0.913,-0.7646 -1.7743,-1.6435 -2.497,-2.6057 -1.3844,-1.8431 -2.8032,-5.0571 -2.9391,-7.3688 0.8218,1.7335 1.1213,2.5473 2.2804,4.138 2.8039,3.8478 7.1714,6.7895 11.9897,7.1481 -2.0496,2.8125 -4.841,6.2169 -5.9745,9.3226 -1.6283,4.4612 -0.3594,8.6515 4.7263,9.1715 -0.9341,-0.8202 -1.4775,-1.2043 -2.1383,-2.3259 -3.0434,-5.1663 2.7056,-11.6263 5.5522,-15.4722l2.8812 -3.9226c0.4378,-0.5921 0.9168,-0.4605 1.6415,-0.6249 9.3623,-2.1231 10.1374,-14.8731 2.191,-18.6629 -1.8247,-0.8703 -2.3261,-0.6228 -3.4929,-0.9528l1.2326 -2.012 7.4078 3.981c1.9977,2.4257 3.1119,4.9856 3.0812,8.1974 -0.0274,2.8743 -1.1572,6.0208 -3.2593,8.0196 -1.0917,1.0382 -1.9847,1.6181 -3.2573,2.412 -3.5918,2.2405 -5.9565,4.9233 -8.4042,8.4471 -2.005,2.8863 -5.6237,8.668 -3.2707,12.0942 0.8084,1.1771 1.163,1.0049 1.8097,1.031 0.9214,0.0372 1.8369,0.0451 2.7583,-0.0096 3.0208,-0.1795 6.1305,-1.091 8.8477,-2.4025 10.5267,-5.0809 16.2679,-17.3612 16.353,-28.7006 0.0474,-6.3133 -1.4431,-12.5843 -4.3486,-18.1851 -2.2368,-4.3117 -6.257,-9.4799 -10.4507,-12.0051l0.9735 7.2326c-0.3964,1.2213 -0.7855,2.1755 -1.3455,3.3407 -0.2831,0.5888 -1.5306,2.6789 -1.5324,3.0887l5.8876 4.7306c1.3428,1.876 2.8371,5.205 3.0882,7.5044 -1.5309,-3.3629 -1.942,-4.1912 -4.6842,-6.961 -2.0759,-2.0968 -5.0996,-3.2407 -8.0574,-3.6162 2.2986,-3.9675 7.1126,-10.9723 4.3764,-15.465 -1.0224,-1.6787 -2.9166,-2.1834 -4.8577,-2.3351z"/>
    <path id="_455480336" class="fil1" d="M41.4424 140.199c2.6787,-0.4511 5.049,1.452 5.3811,4.0755 0.336,2.6544 -1.5515,4.9073 -4.0965,5.3022 -2.6075,0.4046 -5.1184,-1.4035 -5.4766,-3.9847 -0.3818,-2.7509 1.6291,-4.9614 4.192,-5.393zm-5.6349 5.7175c0.3806,3.3501 3.6504,5.7437 6.9732,5.298 3.2994,-0.4426 5.9255,-3.4266 5.4801,-6.8393 -0.4463,-3.4185 -3.5595,-5.8095 -6.9971,-5.3094 -3.3453,0.4866 -5.8487,3.3968 -5.4562,6.8507z"/>
    <path id="_455480240" class="fil1" d="M41.4432 142.478c-3.3386,0.7613 -2.099,5.6445 1.1333,4.8796 3.2717,-0.7742 2.1532,-5.6291 -1.1333,-4.8796z"/>
    <path id="_455480072" class="fil1" d="M67.1574 131.805c2.0515,-1.3542 1.2182,-0.4215 3.4178,-1.5005l3.739 -1.292c0.045,-1.1488 -2.3234,-1.9539 -4.6573,-1.0047 -1.217,0.4948 -3.3678,2.3116 -2.4995,3.7972z"/>
    <path id="_455480192" class="fil1" d="M67.3027 132.142c0.1657,0.7209 1.1344,1.1804 1.8396,1.3217 0.8881,0.1778 1.9203,-0.0477 2.7302,-0.4029l2.5946 -3.6763c-0.4174,-0.1621 -1.5381,0.2081 -2.0243,0.3581 -0.6824,0.2105 -1.0679,0.5023 -1.644,0.8721 -1.2355,0.7931 -2.3609,0.459 -3.4961,1.5273z"/>
    <path id="_455480168" class="fil1" d="M21.1939 121.927c-0.0391,-0.3543 -1.8051,-2.4636 -2.1614,-2.8328 -0.4771,-0.4944 -0.8894,-0.6914 -1.5066,-1.0048l-1.2659 -1.3207c-0.6768,0.2299 -0.7076,1.5885 -0.5179,2.2112 0.6158,2.0207 3.6611,4.1129 5.4518,2.9471z"/>
    <path id="_455479880" class="fil1" d="M61.5505 171.907c-2.3437,2.3384 2.0336,6.8892 4.5403,5.5176 0.1367,-1.3601 -1.5866,-1.8538 -2.2566,-2.7593 -0.5894,-0.7964 -1.1275,-2.6325 -2.2837,-2.7583z"/>
    <path id="_455479472" class="fil1" d="M8.8622 166.331c0.2192,0.6856 1.2302,1.0224 1.8954,1.0478 2.4911,0.0952 5.2989,-2.5909 4.0456,-4.1897l-2.9695 1.5466c-0.841,0.4408 -2.6245,0.6948 -2.9715,1.5953z"/>
    <path id="_455479952" class="fil1" d="M16.5322 116.428c0.1704,1.1068 1.9525,1.6387 2.7016,2.3815 0.419,0.4156 1.8307,2.2489 2.2991,2.8389 1.3544,-1.12 0.2671,-3.2123 -0.6883,-4.2066 -0.93,-0.9678 -3.1073,-1.9731 -4.3124,-1.0138z"/>
    <path id="_455479304" class="fil1" d="M67.3129 162.783c-1.3492,2.1892 3.6549,5.5857 5.7648,3.4664 -1.3466,-1.4983 -0.877,-1.265 -2.7641,-1.8707 -1.2511,-0.4015 -1.8246,-1.7722 -3.0007,-1.5957z"/>
    <path id="_455479736" class="fil1" d="M62.0847 118.945c2.2456,1.4634 6.1293,-2.7475 4.3203,-5.077 -0.7695,0.2121 -1.8745,1.582 -2.3018,2.3551 -0.6397,1.1576 -1.6766,1.4959 -2.0185,2.7219z"/>
    <path id="_455479568" class="fil1" d="M15.5479 132.146c-0.9735,-0.7987 -2.4773,-0.7066 -3.5289,-1.2561 -0.5557,-0.2904 -0.8478,-0.6753 -1.4724,-0.8943 -2.216,-0.777 -0.9673,2.4625 1.5902,3.2032 0.9749,0.2823 3.3658,0.2323 3.4111,-1.0528z"/>
    <path id="_381849416" class="fil1" d="M61.8026 118.717c0.4212,-0.5956 0.313,-0.7756 0.9693,-1.3961 1.1754,-1.1114 1.2187,-1.8905 2.0549,-2.6438l1.2918 -1.0841c-0.5584,-0.5467 -1.7201,-0.4132 -2.3524,-0.1367 -2.3727,1.0376 -3.3948,4.3803 -1.9636,5.2607z"/>
    <path id="_381849368" class="fil1" d="M8.6546 166.019c1.1884,-1.1963 1.5884,-0.9066 2.9643,-1.5796 0.6876,-0.3363 2.5224,-1.1901 2.9763,-1.6039 -1.5342,-2.3809 -7.2855,0.8803 -5.9406,3.1835z"/>
    <path id="_381849848" class="fil1" d="M69.0058 149.242c1.8352,-0.1394 1.804,0.5363 3.079,0.6508 1.9277,0.173 0.4959,-0.3046 3.376,0.3865 0.2349,-3.1756 -6.2529,-3.3885 -6.455,-1.0373z"/>
    <path id="_381849968" class="fil1" d="M9.6955 129.567c1.8434,0.1493 1.5935,0.7459 2.9889,1.2215 1.7208,0.5865 0.5942,-0.0924 3.0587,1.0806 0.6438,-3.3625 -5.8709,-4.3883 -6.0476,-2.3021z"/>
    <path id="_381849824" class="fil1" d="M68.9139 149.641c-0.1503,1.4634 1.5142,2.382 2.7744,2.5778l3.6819 -1.5825c-1.0783,-0.6498 -2.2978,-0.2733 -3.4422,-0.4164 -0.8833,-0.1104 -2.1727,-1.1399 -3.0141,-0.5789z"/>
    <path id="_381849344" class="fil1" d="M7.7012 140.978c0.1129,1.1981 1.7352,1.8013 2.8144,1.8284l2.9023 -1.8126c-0.8267,-0.3843 -1.9764,-0.2266 -2.9002,-0.2612 -0.8255,-0.0309 -2.1872,-0.3317 -2.8165,0.2454z"/>
    <path id="_381851216" class="fil1" d="M7.6144 152.137c1.0139,-0.3388 1.2797,-0.5963 2.4973,-0.6232 0.8018,-0.0176 2.3562,0.0894 3.0394,-0.2455 -0.4061,-2.1746 -5.7887,-1.8005 -5.5367,0.8687z"/>
    <path id="_381851048" class="fil1" d="M7.6744 140.571c1.7668,-0.3967 0.9212,-0.2536 2.8422,-0.1741 1.7693,0.0732 1.0853,-0.0487 2.9373,0.255 0.2006,-2.3344 -5.7603,-2.6469 -5.7795,-0.0809z"/>
    <path id="_381850880" class="fil1" d="M17.9538 177.206c2.3092,1.2264 4.7522,-2.6446 3.3375,-3.8048 -0.79,0.7601 -1.3496,1.1026 -1.6809,1.8687 -0.4248,0.9823 -1.5268,0.6762 -1.6566,1.9361z"/>
    <path id="_381850976" class="fil1" d="M70.1706 121.934c-0.6447,0.2749 -1.2219,1.0002 -1.6818,1.5065 -0.8232,0.9063 -0.3857,1.8618 0.6968,1.2669 3.5892,-1.9724 1.8353,-3.136 0.985,-2.7734z"/>
    <path id="_381850040" class="fil1" d="M73.4905 138.766c-0.5415,0.0932 -1.7911,0.2142 -1.9357,0.8552 -0.2393,1.0609 0.8851,1.0835 1.6018,0.9886 0.5774,-0.0764 1.7972,-0.1641 1.9434,-0.8537 0.2314,-1.0912 -0.8744,-1.1165 -1.6095,-0.9901z"/>
    <path id="_381850736" class="fil1" d="M69.1886 171.179c0.4763,0.1315 0.9085,-0.1282 0.9139,-0.6338 0.0074,-0.6751 -1.2223,-1.2143 -1.7482,-1.5344 -0.2912,-0.1773 -0.7197,-0.4696 -1.0277,-0.588 -0.4739,-0.1823 -0.9594,0.0333 -0.7976,0.5815 0.0059,0.0202 2.469,2.122 2.6596,2.1747z"/>
    <path id="_381850616" class="fil1" d="M25.7307 112.589c-0.9488,0.4013 -0.3153,1.2069 0.05,1.7804 0.3135,0.4921 0.7309,1.4768 1.4165,1.3341 0.8754,-0.1823 0.2146,-1.4801 0.0041,-1.9397 -0.2861,-0.6246 -0.6174,-1.5357 -1.4706,-1.1748z"/>
    <path id="_381850136" class="fil1" d="M72.3586 155.382c-0.8873,0.2048 -0.7841,1.0972 0.0615,1.3934 0.4394,0.1538 1.7123,0.4589 2.1438,0.3594 0.7027,-0.1619 0.8497,-1.1578 -0.0572,-1.4904 -0.4173,-0.1531 -1.7485,-0.3546 -2.1481,-0.2624z"/>
    <path id="_381850712" class="fil1" d="M15.2941 170.152c0.4026,-0.6985 -0.3677,-1.3162 -1.3489,-0.6364 -0.3989,0.2764 -1.3597,0.8476 -1.5068,1.2476 -0.2893,0.7871 0.5764,1.4049 1.446,0.7167 0.2251,-0.1782 1.3057,-1.1473 1.4097,-1.3279z"/>
    <path id="_381850064" class="fil1" d="M7.6361 145.498c-1.3351,0.1927 -0.9616,1.1062 -0.7243,1.3488 0.4463,0.4563 1.5608,0.2172 2.1439,0.1135 0.6773,-0.1205 1.3013,-0.7228 0.6465,-1.2815 -0.3907,-0.3334 -1.5834,-0.2505 -2.0661,-0.1808z"/>
    <path id="_381849064" class="fil1" d="M11.5892 123.469c-1.7812,0.573 1.2376,2.6033 1.8249,2.4937 1.4316,-0.2671 -0.9586,-2.7723 -1.8249,-2.4937z"/>
    <path id="_381848920" class="fil1" d="M73.6761 143.986c-0.2447,0.0433 -0.5759,0.0279 -0.7263,0.2832 -0.1452,0.2463 -0.0926,0.5746 0.1188,0.7487 0.3085,0.2541 1.3607,0.2838 1.7647,0.2283 0.9673,-0.1327 1.2328,-1.6825 -1.1572,-1.2602z"/>
    <path id="_381848848" class="fil1" d="M10.3568 156.772c-0.265,1.4599 2.294,0.6355 1.2149,-0.3169 -0.4905,-0.058 -0.8563,-0.0208 -1.2149,0.3169z"/>
    <path id="_381848968" class="fil1" d="M67.546 162.362c0.458,0.3023 0.905,0.1988 1.5492,0.805 1.4215,1.3375 1.6863,0.6852 3.1043,1.5934 0.4216,0.2701 0.9361,1.013 1.1794,1.0948l-5.8329 -3.4932z"/>
    <path id="_381848128" class="fil1" d="M7.7 152.479l5.5247 -0.8498c-0.2999,-0.0411 -0.9358,0.1591 -1.3293,0.1997 -1.0374,0.1072 -3.2513,-0.1652 -4.1954,0.6501z"/>
    <path id="_381848512" class="fil1" d="M63.2566 172.892c1.3183,2.0733 0.0884,1.0314 2.2867,2.7359 0.6947,0.5387 0.5915,1.0479 0.9464,1.5433l-4.5346 -5.574c0.3112,0.4476 0.5823,0.1637 1.3015,1.2948z"/>
    <path id="_381848032" class="fil1" d="M17.6767 176.918c0.2964,-0.4368 0.2713,-0.6467 0.8033,-1.0049 0.5808,-0.3911 0.5946,-0.1824 0.9044,-0.8725 0.4224,-0.941 1.5641,-1.2942 1.6453,-1.9037l-3.353 3.7811z"/>
   </g>
  </g>
 </g>
</svg>
