<?xml version="1.0" encoding="UTF-8"?>
<!DOCTYPE svg PUBLIC "-//W3C//DTD SVG 1.1//EN" "http://www.w3.org/Graphics/SVG/1.1/DTD/svg11.dtd">
<!-- Creator: CorelDRAW -->
<svg xmlns="http://www.w3.org/2000/svg" xml:space="preserve" width="50.8mm" height="50.8mm" style="shape-rendering:geometricPrecision; text-rendering:geometricPrecision; image-rendering:optimizeQuality; fill-rule:evenodd; clip-rule:evenodd"
viewBox="0 0 50.8 50.8"
 xmlns:xlink="http://www.w3.org/1999/xlink">
 <defs>
  <style type="text/css">
   <![CDATA[
    .fil7 {fill:#551D2A}
    .fil5 {fill:#552A3C}
    .fil1 {fill:#9AB8BD}
    .fil10 {fill:#EC708A}
    .fil0 {fill:#F5C496}
    .fil3 {fill:#FBB3C4}
    .fil2 {fill:#FBDBAA}
    .fil8 {fill:#FBE7E8}
    .fil4 {fill:#FDFFFE}
    .fil6 {fill:#FE9DB6}
    .fil9 {fill:#FECED5}
   ]]>
  </style>
 </defs>
 <g id="Capa_x0020_1">
  <metadata id="CorelCorpID_0Corel-Layer"/>
  <g id="_568011936">
   <path id="_380103032" class="fil0" d="M24.6681 2.4007c0.3593,-0.2 0.4473,-0.3264 0.6741,-0.6755l0.7127 0.7631 -0.7127 0.6311 -0.6741 -0.7187zm0.4271 2.3865c1.071,0.1184 0.6556,-0.5067 1.0112,-1.1706 0.251,-0.4687 1.1093,-0.3426 1.2774,-0.8605 0.2481,-0.7643 -0.6524,-0.7522 -1.0328,-1.0572 -0.4822,-0.3867 -0.245,-1.1669 -0.7696,-1.3748 -0.7435,-0.2947 -0.7305,0.7667 -0.9248,1.1191 -0.2978,0.5404 -1.0978,0.4203 -1.282,0.8581 -0.3273,0.7777 0.625,0.8233 1.0207,1.0604 0.5515,0.3305 0.1606,0.4992 0.6999,1.4255z"/>
   <path id="_380103728" class="fil0" d="M49.1849 27.1404c0.2618,-0.4283 0.1648,-1.014 0.623,-1.2177 0.3414,-0.1517 1.1726,-0.1268 0.9568,-0.7738 -0.1432,-0.4292 -0.8818,-0.2469 -1.154,-0.6259 -0.2436,-0.3391 -0.1054,-1.0996 -0.7431,-1.0475 -0.6185,0.0504 -0.4168,0.8332 -0.7443,1.1316 -0.2767,0.2522 -1.0603,0.1258 -1.0906,0.6723 -0.0324,0.5868 0.7501,0.4395 1.0639,0.6901 0.3374,0.2696 0.1694,0.7556 0.5489,1.206l0.5394 -0.0351z"/>
   <path id="_380102888" class="fil0" d="M2.1537 27.1423c0.2188,-0.287 0.2056,-0.2615 0.3069,-0.6598 0.0635,-0.2498 0.1267,-0.4356 0.3126,-0.5466 0.2983,-0.178 1.3254,-0.1428 0.9469,-0.8528 -0.2119,-0.3975 -0.9089,-0.0919 -1.1637,-0.6917 -0.1625,-0.3825 -0.1836,-1.1382 -0.8528,-0.875 -0.4515,0.1775 -0.2152,0.8935 -0.6821,1.172 -0.303,0.1808 -1.3115,0.1321 -0.9406,0.837 0.1897,0.3603 0.9627,0.2317 1.1965,0.6525 0.279,0.502 -0.0224,1.0646 0.8763,0.9644z"/>
   <path id="_380102600" class="fil0" d="M46.6786 17.4231l0.5262 0.5806 0.2317 -0.4914c0.0937,-0.2152 0.4537,-0.4233 0.6455,-0.5725 -0.1314,-0.3867 -0.174,-0.2951 -0.5241,-0.4169l-0.3067 -0.6185c-0.4454,-0.0516 -0.4339,-0.0658 -0.5254,0.3078 -0.1057,0.4322 0.012,0.259 -0.3855,0.4009 -0.2236,0.0798 -0.414,0.1624 -0.2601,0.5116 0.0921,0.2091 0.3946,0.2231 0.5984,0.2984z"/>
   <path id="_380102480" class="fil0" d="M16.7499 4.8131l-0.659 0.2131c0.7604,0.7954 0.597,0.4809 0.8129,1.315 0.5627,-0.7682 0.2943,-0.563 1.0983,-0.877l0.0012 -0.4328 -0.591 -0.2189c-0.0512,-0.3119 -0.0209,-0.5942 -0.3333,-0.615 -0.3505,-0.0234 -0.2942,0.3211 -0.3291,0.6156z"/>
   <path id="_380102840" class="fil1" d="M30.1715 29.5121c0.1127,0.2408 0.0089,0.039 0.0973,0.1813 0.7053,1.1344 2.1221,1.9102 3.5528,1.8673 1.4263,-0.0427 3.1341,-1.1275 3.446,-2.147 -0.1751,-0.0035 -0.2662,-0.2652 -0.432,-0.5217l-0.0724 -0.1104c0.0488,1.1121 -1.2045,1.1478 -1.2431,0.0208 -0.5813,0.6902 -1.9623,0.8734 -2.9669,0.4611 -0.4056,-0.1664 -0.8437,-0.6182 -1.3075,-0.5942 -0.7918,0.0411 -0.9668,0.7327 -1.0742,0.8428z"/>
   <path id="_380102384" class="fil1" d="M13.568 29.3947c0.6246,1.0792 1.6776,2.0625 3.3661,2.1508 0.889,0.0466 1.5795,-0.1688 2.2039,-0.5301 0.4855,-0.281 1.2577,-0.8548 1.4111,-1.3527 -0.1862,-0.2856 0.0416,-0.4685 -0.3922,-0.832 0.1062,1.0994 -1.4532,0.9382 -1.1165,-0.1488 -0.2504,0.2122 -0.0267,0.2008 -0.5762,0.4749 -2.5269,1.2605 -3.0164,-1.1675 -4.3922,-0.258 -0.132,0.0872 -0.1802,0.1328 -0.2722,0.2368 -0.038,0.0428 -0.0886,0.1093 -0.1044,0.1272 -0.0977,0.1112 -0.0189,0.048 -0.1274,0.1319z"/>
   <path id="_380102624" class="fil2" d="M47.0733 5.1442c0.0803,-0.8838 -0.8057,-0.9306 -0.8888,-1.6211 -0.0477,-0.395 0.1603,-0.819 -0.0381,-1.1978 -0.3489,-0.6661 -1.272,0.2271 -1.6544,0.2859 -0.4189,0.0645 -0.6377,-0.1826 -1.0163,-0.2168 -1.0932,-0.0987 -0.1859,1.0773 -0.4752,1.6692 -0.1763,0.3609 -1.2391,1.0616 -0.1767,1.4315 0.2606,0.0908 0.7862,0.091 0.981,0.2868 0.2455,0.2468 0.7357,2.3478 1.6973,0.2135 0.284,-0.6304 1.0343,-0.316 1.5712,-0.8512z"/>
   <path id="_380103008" class="fil2" d="M4.1248 5.0689c0.4053,0.5132 0.9693,0.3496 1.3189,0.6537 0.3121,0.2713 0.2868,1.1671 0.8755,1.1782 0.5752,0.011 0.6931,-0.8677 0.9467,-1.1087l1.4805 -0.5635c0.0109,-0.533 -0.2262,-0.6498 -0.4431,-0.9662 -0.3462,-0.5053 -0.0635,-0.665 0.0123,-1.1942 0.1838,-1.2814 -1.2272,-0.2747 -1.8157,-0.5373 -0.676,-0.3014 -1.5819,-1.2047 -1.4688,0.5501 0.0861,1.3383 -1.1008,0.9732 -0.9063,1.9879z"/>
   <path id="_380102000" class="fil3" d="M41.449 17.3491c-0.1035,0.1377 -0.3286,1.5744 -0.4338,1.9111 -0.1481,0.4742 -0.3974,1.3986 -0.7055,1.6623l-0.3939 -0.3669 -0.0115 0.1849 -0.3789 -0.0054c0.0045,0.3277 1.3812,2.6018 1.7322,3.8137l1.0062 4.6665c0.2264,0.0776 0.3105,0.0906 0.6021,0.1255 0.5668,0.0679 0.299,-0.0758 0.5679,0.1114 -0.2343,-2.3765 -0.3255,-3.3585 -1.2309,-5.4845 -0.1432,-0.3361 -0.7405,-1.2579 -0.6882,-1.5421 0.1599,-0.8684 1.5399,-2.2391 1.2402,-7.2587 -0.0047,-0.0774 -0.0131,-0.2175 -0.0271,-0.2902 -0.0835,-0.4341 0.0951,0.2737 -0.0549,-0.1847 -0.0047,-0.0142 -0.0136,-0.0385 -0.0235,-0.0563 -0.1034,0.5848 0.1278,1.2451 0.0086,1.8617 -0.1292,0.2514 -0.8971,0.7418 -1.192,0.8755l-0.017 -0.0238z"/>
   <path id="_380102096" class="fil3" d="M29.7186 48.0373c1.3352,0.6631 5.8105,0.867 7.6848,0.4279 2.234,-0.5235 -0.7154,-2.6554 -1.3891,-2.7727 -0.3606,-0.0629 -0.3277,0.1061 -0.963,0.4273 -0.9362,0.4734 -2.046,0.9455 -3.0507,1.2923 -0.7302,0.2521 -1.5699,0.3756 -2.282,0.6252z"/>
   <path id="_380101928" class="fil3" d="M16.1257 48.71l4.9249 -0.6625c-0.2083,-0.1469 -1.3157,-0.3442 -1.6644,-0.4476 -1.065,-0.3154 -2.1905,-0.7656 -3.1722,-1.2579 -0.4585,-0.2298 -1.217,-0.7187 -1.4268,-0.6582 -0.2092,0.0603 -1.1462,0.6787 -1.3222,0.8147 -0.3429,0.2652 -0.8811,0.8556 -0.8564,1.3298 0.046,0.8767 2.8295,0.8817 3.5171,0.8817z"/>
   <path id="_380102144" class="fil4" d="M13.29 27.1648c-0.0474,-0.9332 0.7734,-1.9226 1.2394,-2.3843 0.4913,-0.4868 1.5498,-0.9452 2.5536,-0.984 2.2442,-0.0868 4.0442,1.8905 3.9562,3.0965 0.065,0.0903 0.0871,0.1285 0.119,0.3638 0.1003,0.7424 -0.1993,1.856 -0.6091,2.4059 -0.1534,0.4979 -0.9256,1.0717 -1.4111,1.3527 -0.6244,0.3613 -1.3149,0.5767 -2.2039,0.5301 -1.6885,-0.0883 -2.7415,-1.0716 -3.3661,-2.1508 -0.1248,-0.4253 -0.68,-1.7988 -0.278,-2.2299zm-0.6545 2.7424c1.0262,0.9985 0.6699,-0.1043 1.2197,1.7631 1.1001,-0.144 1.8466,-0.1883 2.2891,0.844 0.4832,0.2273 0.7224,0.2693 1.48,0.1446 2.9484,-0.4849 5.0683,-3.057 4.4472,-5.8848 -0.1947,-0.8862 -0.4156,-1.0847 -0.4497,-1.383 -0.1211,-0.3997 -0.6896,-0.9512 -1.0164,-1.2804l-0.1498 -0.1819c-0.4663,-0.2168 -0.7854,-0.5078 -1.3923,-0.7119 -2.8383,-0.9545 -5.7189,0.2189 -6.6721,3.1787 -0.4996,1.5515 -0.0409,2.3939 0.2443,3.5116z"/>
   <path id="_380101664" class="fil4" d="M37.2676 29.4137c-0.3119,1.0195 -2.0197,2.1043 -3.446,2.147 -1.4307,0.0429 -2.8475,-0.7329 -3.5528,-1.8673 -0.0884,-0.1423 0.0154,0.0595 -0.0973,-0.1813 -0.5521,-1.4238 -0.7803,-2.4862 0.1067,-3.8738 1.5265,-2.3876 5.0411,-2.4915 6.6762,-0.1803 0.7235,1.0227 1.0693,2.7323 0.3132,3.9557zm-6.7099 -5.5369l-0.1031 0.0764c-0.3359,0.2528 -0.9422,0.8505 -1.0813,1.1857 -0.2471,0.8553 -0.7111,1.2184 -0.6564,2.9363 0.0343,1.0756 0.4975,1.8897 0.9908,2.5646 1.034,1.4145 3.3526,2.4207 4.9641,1.9808 0.4064,-1.0712 1.1432,-1.1486 2.421,-0.9794 -0.0365,-0.9607 0.3737,-1.2145 1.0813,-1.5269 0.3555,-1.2328 0.7411,-2.0286 0.358,-3.5129 -0.3133,-1.2141 -0.9484,-2.0176 -1.6546,-2.6154 -0.7131,-0.6036 -1.8561,-1.0982 -3.1282,-1.118 -1.0287,-0.016 -2.6641,0.4442 -3.1916,1.0088z"/>
   <path id="_380101352" class="fil4" d="M23.8475 11.8659c-1.7185,-1.0993 -2.7596,0.5145 -2.0952,1.4377 0.3199,0.4446 1.0447,0.6703 1.652,0.2953 0.6362,-0.3929 0.6142,-0.9236 0.4432,-1.733z"/>
   <path id="_380101328" class="fil4" d="M15.7889 24.5579c-1.5131,0.3596 -0.9813,2.6215 0.5672,2.2703 1.5033,-0.3408 0.9624,-2.6338 -0.5672,-2.2703z"/>
   <path id="_380101232" class="fil4" d="M32.4883 24.5775c-1.5187,0.3686 -0.9196,2.6399 0.6398,2.2093 1.3997,-0.3863 0.9012,-2.5834 -0.6398,-2.2093z"/>
   <path id="_380101208" class="fil4" d="M35.5201 28.8024c0.0386,1.127 1.2919,1.0913 1.2431,-0.0208 -0.1345,-0.6526 -1.0937,-0.7063 -1.2431,0.0208z"/>
   <path id="_380101424" class="fil4" d="M19.0404 28.6819c-0.3367,1.087 1.2227,1.2482 1.1165,0.1488 -0.15,-0.5781 -0.8949,-0.6971 -1.1165,-0.1488z"/>
   <path id="_380100944" class="fil4" d="M24.6681 2.4007l0.6741 0.7187 0.7127 -0.6311 -0.7127 -0.7631c-0.2268,0.3491 -0.3148,0.4755 -0.6741,0.6755z"/>
   <path id="_380100584" class="fil5" d="M32.4883 24.5775c1.541,-0.3741 2.0395,1.823 0.6398,2.2093 -1.5594,0.4306 -2.1585,-1.8407 -0.6398,-2.2093zm-2.3168 4.9346c0.1074,-0.1101 0.2824,-0.8017 1.0742,-0.8428 0.4638,-0.024 0.9019,0.4278 1.3075,0.5942 1.0046,0.4123 2.3856,0.2291 2.9669,-0.4611 0.1494,-0.7271 1.1086,-0.6734 1.2431,-0.0208l0.0724 0.1104c0.1658,0.2565 0.2569,0.5182 0.432,0.5217 0.7561,-1.2234 0.4103,-2.933 -0.3132,-3.9557 -1.6351,-2.3112 -5.1497,-2.2073 -6.6762,0.1803 -0.887,1.3876 -0.6588,2.45 -0.1067,3.8738z"/>
   <path id="_380100440" class="fil5" d="M39.9158 20.5556l0.3939 0.3669c0.3081,-0.2637 0.5574,-1.1881 0.7055,-1.6623 0.1052,-0.3367 0.3303,-1.7734 0.4338,-1.9111 -0.0923,-0.8416 0.1016,-1.8202 -0.1529,-2.6364 -0.2549,-0.8173 -1.2055,-0.4109 -1.9483,-0.2083 -1.3452,0.3672 -1.8382,0.5523 -3.0431,1.0812 -0.4793,0.2103 -0.5947,0.2482 -0.877,0.5743 1.1476,0.645 4.1752,3.4266 4.4881,4.3957z"/>
   <path id="_380099984" class="fil5" d="M9.5069 17.4846c0.051,0.5395 0.5136,2.9975 1.0542,3.4353 0.2828,-0.4537 0.7138,-0.9164 1.0587,-1.3349 1.3248,-1.6074 2.0714,-2.1504 3.5946,-3.3344l0.1908 -0.1956c-0.586,-0.5421 -3.8547,-1.7314 -5.056,-1.8162 -0.5103,-0.0359 -0.6728,0.1175 -0.76,0.5902 -0.141,0.7646 -0.1586,1.8722 -0.0823,2.6556z"/>
   <path id="_380100176" class="fil6" d="M7.9977 35.7259c0.1876,0.2512 0.429,0.9092 0.5635,1.2427 0.167,0.4143 0.3874,0.8759 0.5781,1.2624 0.3661,0.7425 0.9586,1.6924 1.4151,2.2692 1.2876,1.6272 1.9837,2.3603 3.7031,3.6012 2.799,2.02 6.8885,3.5056 11.1584,3.5243 6.0133,0.0264 11.4771,-2.7723 14.8369,-7.0756 0.4206,-0.5386 1.0764,-1.5147 1.4287,-2.2587l1.153 -2.577c-0.1484,-0.2013 0.2408,-0.3519 0.3964,-0.4346 1.2202,-0.6488 3.5377,-2.4925 2.7568,-4.0322l-0.4289 0.3024c-1.6943,1.2799 -3.0425,1.119 -3.2204,1.7393 -0.2504,1.3279 -1.8252,3.6333 -2.5566,4.5026 -2.2109,2.6281 -4.9722,4.5486 -8.3949,5.5352 -5.7563,1.6591 -12.0726,0.9668 -16.8446,-2.2423 -1.5408,-1.0362 -2.6824,-2.1752 -3.6224,-3.3784 -0.8277,-1.0595 -2.2325,-3.1246 -2.5047,-4.4882 -0.0993,-0.3291 -0.5689,-0.3698 -0.874,-0.4806 -1.5821,-0.5745 -2.0735,-1.2073 -2.549,-1.471l0.8343 2.6822c0.3447,0.592 2.4245,1.5016 2.1712,1.7771z"/>
   <path id="_380100536" class="fil6" d="M29.4144 17.7148c-0.2121,0.769 -0.2055,0.9595 -0.7717,1.4187 -2.0875,1.6935 -5.9051,1.6437 -8.0968,-0.1996 -0.5005,-0.4208 -0.6786,-0.5951 -1.0272,-1.1087 -0.2966,-0.4368 -0.5108,-0.9315 -0.7387,-1.4113 -0.0631,0.0973 -0.0225,0.0093 -0.0655,0.1732 -0.103,0.3928 0.0378,0.2014 -0.2294,0.6129 -0.1323,-0.6859 -0.0216,-0.9827 -0.0683,-1.5851 -0.244,0.6399 0.0236,2.2546 0.2341,2.9238 0.2764,0.8786 0.6648,1.5632 1.145,2.1783 3.3458,4.2858 10.1052,3.1069 10.5393,-0.617 0.1351,-1.1593 -0.2906,-1.8811 -0.9208,-2.3852z"/>
   <path id="_380100296" class="fil6" d="M18.524 20.6417c0.0974,0.3411 0.0844,0.5911 0.1944,0.9445 0.0426,0.1369 0.0852,0.2482 0.1395,0.3879 0.111,0.285 0.2016,0.2421 0.0089,0.3952 0.2866,0.2448 0.7316,0.2765 1.019,0.5442 0.2418,0.2252 0.5355,0.5822 0.5698,1.0153l0.1498 0.1819c0.3268,0.3292 0.8953,0.8807 1.0164,1.2804 1.4342,0.5645 1.7328,1.1481 4.0167,1.0889 0.6497,-0.0168 1.5124,-0.1961 2.0911,-0.4343 0.2889,-0.1189 0.5877,-0.2457 0.874,-0.3985 0.3281,-0.175 0.432,-0.3322 0.7697,-0.5083 0.1391,-0.3352 0.7454,-0.9329 1.0813,-1.1857l0.1031 -0.0764c-0.063,-0.0289 -0.3599,0.0623 0.1833,-0.7258 0.1328,-0.1925 0.2491,-0.2961 0.4046,-0.409l0.1976 -0.137c-0.0783,-0.1082 0.0645,-0.8534 0.0699,-1.1676 0.0072,-0.4175 0.0253,-0.9187 -0.0667,-1.3109 -0.2314,0.3834 -0.0102,0.8115 -0.7292,1.8678 -1.8979,2.7883 -6.2853,3.0227 -9.3804,1.1923 -0.7335,-0.4338 -1.6009,-1.1332 -2.1079,-1.8025 -0.1784,-0.2354 -0.3452,-0.5589 -0.6049,-0.7424z"/>
   <path id="_380099912" class="fil6" d="M38.1741 30.1143c-0.7076,0.3124 -1.1178,0.5662 -1.0813,1.5269 -1.2778,-0.1692 -2.0146,-0.0918 -2.421,0.9794 -0.1252,1.1018 0.4678,1.6975 1.5049,1.7659 1.2932,0.0853 4.0993,-0.8988 4.2985,-2.409 0.2064,-1.5647 -1.2407,-1.5893 -1.4007,-1.8997 -0.2017,0.1001 -0.5833,0.0731 -0.9004,0.0365z"/>
   <path id="_380099552" class="fil6" d="M11.8173 30.0754c-0.1194,0.2762 -1.5848,0.4214 -1.3708,1.8945 0.3216,2.2138 6.5773,3.7641 5.6978,0.5444 -0.4425,-1.0323 -1.189,-0.988 -2.2891,-0.844 -0.5498,-1.8674 -0.1935,-0.7646 -1.2197,-1.7631 0.0388,0.3762 0.0595,0.0989 -0.0489,0.2217 -0.3654,-0.0085 -0.5033,0.0626 -0.7693,-0.0535z"/>
   <path id="_380099528" class="fil6" d="M9.1736 21.9948l0.1842 -0.148 0.2795 0.1728c0.3277,-0.2649 0.4,-0.7672 0.7617,-1.0086l0.1621 -0.0911c-0.5406,-0.4378 -1.0032,-2.8958 -1.0542,-3.4353 -0.5573,-0.1243 -1.0007,-0.8002 -1.335,-0.987l-0.0166 -0.9817c-0.3254,0.9808 0.1573,4.7046 0.8262,6.1284 0.0116,0.0246 0.0666,0.1385 0.0751,0.1545 0.0084,0.0158 0.0187,0.0351 0.0271,0.0502 0.0084,0.015 0.0211,0.0358 0.0289,0.0493l0.061 0.0965z"/>
   <path id="_380099696" class="fil6" d="M6.1786 42.5984c0.5568,-1.9261 -2.3672,-2.5789 -2.8488,-0.8552 -0.556,1.9904 2.3187,2.6895 2.8488,0.8552z"/>
   <path id="_380099744" class="fil6" d="M44.5237 42.5984c0.1497,0.6539 0.9344,1.2544 1.7779,1.0427 0.6953,-0.1744 1.2941,-0.8914 1.0983,-1.7743 -0.3855,-1.7391 -3.3591,-1.3788 -2.8762,0.7316z"/>
   <path id="_380099792" class="fil6" d="M33.5612 4.2069c-1.9492,0.5238 -1.0417,3.29 0.727,2.7945 1.8453,-0.517 1.1147,-3.2893 -0.727,-2.7945z"/>
   <path id="_380099456" class="fil6" d="M3.1254 16.3096c-1.4986,0.411 -0.7258,2.6237 0.6322,2.1887 1.3753,-0.4407 0.8899,-2.6061 -0.6322,-2.1887z"/>
   <path id="_380098712" class="fil7" d="M29.7186 48.0373c0.7121,-0.2496 1.5518,-0.3731 2.282,-0.6252 1.0047,-0.3468 2.1145,-0.8189 3.0507,-1.2923 0.6353,-0.3212 0.6024,-0.4902 0.963,-0.4273 0.6737,0.1173 3.6231,2.2492 1.3891,2.7727 -1.8743,0.4391 -6.3496,0.2352 -7.6848,-0.4279zm-13.5929 0.6727c-0.6876,0 -3.4711,-0.005 -3.5171,-0.8817 -0.0247,-0.4742 0.5135,-1.0646 0.8564,-1.3298 0.176,-0.136 1.113,-0.7544 1.3222,-0.8147 0.2098,-0.0605 0.9683,0.4284 1.4268,0.6582 0.9817,0.4923 2.1072,0.9425 3.1722,1.2579 0.3487,0.1034 1.4561,0.3007 1.6644,0.4476l-4.9249 0.6625zm2.3983 -28.0683c0.2597,0.1835 0.4265,0.507 0.6049,0.7424 0.507,0.6693 1.3744,1.3687 2.1079,1.8025 3.0951,1.8304 7.4825,1.596 9.3804,-1.1923 0.719,-1.0563 0.4978,-1.4844 0.7292,-1.8678 -0.1945,-1.2386 -0.0076,-1.6568 -0.7663,-2.6002 -0.4259,-0.5297 -1.1573,-1.0926 -2.2122,-1.0224 -2.8988,0.1931 -1.8516,3.9478 -0.3772,2.4266l-0.5322 -0.5956c-0.1808,-0.3932 0.6007,-1.3997 1.9559,-0.6201 0.6302,0.5041 1.0559,1.2259 0.9208,2.3852 -0.4341,3.7239 -7.1935,4.9028 -10.5393,0.617 -0.4802,-0.6151 -0.8686,-1.2997 -1.145,-2.1783 -0.2105,-0.6692 -0.4781,-2.2839 -0.2341,-2.9238 -0.1617,-1.7991 1.1734,-3.862 1.9814,-4.652 2.5503,-2.4937 6.9377,-2.9275 9.7419,-0.7381 1.5654,1.2221 1.8549,2.3449 2.5172,4.0436 1.0148,-0.4474 1.477,-0.6807 2.5557,-1.0208 1.675,-0.5282 4.568,-1.1205 6.2787,-0.9601 1.2328,0.1155 1.2491,1.9631 1.1577,2.3482 0.0099,0.0178 0.0188,0.0421 0.0235,0.0563 0.15,0.4584 -0.0286,-0.2494 0.0549,0.1847 0.014,0.0727 0.0224,0.2128 0.0271,0.2902 0.2997,5.0196 -1.0803,6.3903 -1.2402,7.2587 -0.0523,0.2842 0.545,1.206 0.6882,1.5421 0.9054,2.126 0.9966,3.108 1.2309,5.4845 0.4173,0.2634 1.4328,0.2025 2.3368,0.9768 2.428,2.0794 -2.0696,5.3668 -2.9361,5.2854l-1.153 2.577c-0.3523,0.744 -1.0081,1.7201 -1.4287,2.2587 -3.3598,4.3033 -8.8236,7.102 -14.8369,7.0756 -4.2699,-0.0187 -8.3594,-1.5043 -11.1584,-3.5243 -1.7194,-1.2409 -2.4155,-1.974 -3.7031,-3.6012 -0.4565,-0.5768 -1.049,-1.5267 -1.4151,-2.2692 -0.1907,-0.3865 -0.4111,-0.8481 -0.5781,-1.2624 -0.1345,-0.3335 -0.3759,-0.9915 -0.5635,-1.2427 -0.8413,-0.0144 -2.9257,-1.8262 -3.4584,-3.0679 -0.4016,-0.9363 0.0117,-1.8552 0.5643,-2.2608 1.0845,-0.7962 1.7229,-0.6437 2.3197,-0.9231 0.2328,-2.5525 0.2624,-3.4227 1.385,-5.8438 0.6919,-1.4923 0.6832,-0.7404 0.3653,-1.6355l-0.061 -0.0965c-0.0078,-0.0135 -0.0205,-0.0343 -0.0289,-0.0493 -0.0084,-0.0151 -0.0187,-0.0344 -0.0271,-0.0502 -0.0085,-0.016 -0.0635,-0.1299 -0.0751,-0.1545 -0.6689,-1.4238 -1.1516,-5.1476 -0.8262,-6.1284 -0.1053,-0.8131 0.1329,-2.6901 0.6339,-3.0386 1.1074,-0.7703 7.7514,0.5523 8.9267,1.6016 -0.2225,1.367 -0.4428,2.1561 -0.2325,3.5515 0.296,1.9644 0.9272,2.462 1.0406,3.0113zm-6.8043 26.7804c-0.2028,1.5814 0.792,1.8676 2.1846,2.0618 2.3666,0.3302 5.2866,0.0973 7.538,-0.6062 2.8975,-0.9052 0.3921,-0.4335 3.5312,-0.3501 0.6814,0.0181 1.3522,-0.0157 2.031,-0.067 1.1019,-0.0834 0.7729,-0.1818 1.7145,0.2011 0.9305,0.3784 2.3032,0.6697 3.4024,0.8075 1.5228,0.1908 4.2792,0.2942 5.7957,-0.1921 0.8417,-0.2699 0.7742,-0.4451 1.2413,-0.9248 -0.037,-0.4861 0.0562,-0.7028 -0.165,-1.1949 -0.5176,-1.1514 -1.2798,-1.3932 -2.1608,-2.0521 0.2489,-0.3142 0.6207,-0.4774 1.0843,-0.8427 0.3905,-0.3076 0.6435,-0.5186 0.99,-0.8541 1.7677,-1.7112 2.8858,-3.1695 3.9625,-5.4735 0.9818,-2.1009 -0.0636,-0.8045 1.7437,-2.018 0.4046,-0.2717 0.7097,-0.5182 1.0444,-0.8009 0.5257,-0.4439 1.2368,-1.3254 1.5749,-2.1912 1.1981,-3.0679 -2.6025,-3.9158 -2.8811,-4.1143 -0.1857,-1.4042 -0.2256,-2.034 -0.6151,-3.4142 -0.3193,-1.1315 -1.1684,-2.6555 -1.1484,-2.9182 0.0127,-0.1675 0.4522,-1.2211 0.5451,-1.5276 0.1751,-0.5784 0.285,-1.0418 0.3859,-1.6383 0.2104,-1.2444 0.2621,-2.5196 0.2145,-3.8477 -0.1411,-3.9335 -1.0958,-4.2768 -4.0283,-4.017 -1.2319,0.1091 -2.3492,0.2998 -3.4933,0.581 -1.1065,0.2718 -1.9919,0.6606 -2.9802,0.9997l-0.4991 -1.1148c-2.1623,-4.319 -8.2378,-5.1346 -12.0102,-2.3975 -1.2799,0.9286 -2.1097,2.0909 -2.766,3.5668 -1.0573,-0.4103 -1.9948,-0.8061 -3.1073,-1.0704 -1.6012,-0.3804 -5.872,-1.3195 -6.9358,0.1071 -1.2319,1.6519 -0.8002,6.6656 -0.1577,8.9093 0.6369,2.2245 0.8903,0.6399 -0.0625,2.8183 -0.2147,0.4909 -0.3969,0.977 -0.5629,1.4966 -0.385,1.2058 -0.4754,2.1862 -0.6139,3.522 -0.9249,0.3475 -1.7735,0.5618 -2.4368,1.3192 -1.9414,2.2163 0.8904,5.1662 2.8935,6.1585 0.8216,0.407 0.4351,0.4216 1.0649,1.7326 0.7913,1.647 1.843,3.1996 3.0328,4.4918 0.6565,0.7131 1.1787,1.1376 1.9333,1.7523 0.3159,0.2574 0.791,0.5187 1.0463,0.7959 -1.6403,1.1104 -1.5152,0.8218 -2.3304,2.3061z"/>
   <path id="_568011984" class="fil7" d="M15.7889 24.5579c1.5296,-0.3635 2.0705,1.9295 0.5672,2.2703 -1.5485,0.3512 -2.0803,-1.9107 -0.5672,-2.2703zm-2.4989 2.6069c-0.402,0.4311 0.1532,1.8046 0.278,2.2299 0.1085,-0.0839 0.0297,-0.0207 0.1274,-0.1319 0.0158,-0.0179 0.0664,-0.0844 0.1044,-0.1272 0.092,-0.104 0.1402,-0.1496 0.2722,-0.2368 1.3758,-0.9095 1.8653,1.5185 4.3922,0.258 0.5495,-0.2741 0.3258,-0.2627 0.5762,-0.4749 0.2216,-0.5483 0.9665,-0.4293 1.1165,0.1488 0.4338,0.3635 0.206,0.5464 0.3922,0.832 0.4098,-0.5499 0.7094,-1.6635 0.6091,-2.4059 -0.0319,-0.2353 -0.054,-0.2735 -0.119,-0.3638 0.088,-1.206 -1.712,-3.1833 -3.9562,-3.0965 -1.0038,0.0388 -2.0623,0.4972 -2.5536,0.984 -0.466,0.4617 -1.2868,1.4511 -1.2394,2.3843z"/>
   <path id="_380098592" class="fil7" d="M47.0733 5.1442c-0.5369,0.5352 -1.2872,0.2208 -1.5712,0.8512 -0.9616,2.1343 -1.4518,0.0333 -1.6973,-0.2135 -0.1948,-0.1958 -0.7204,-0.196 -0.981,-0.2868 -1.0624,-0.3699 0.0004,-1.0706 0.1767,-1.4315 0.2893,-0.5919 -0.618,-1.7679 0.4752,-1.6692 0.3786,0.0342 0.5974,0.2813 1.0163,0.2168 0.3824,-0.0588 1.3055,-0.952 1.6544,-0.2859 0.1984,0.3788 -0.0096,0.8028 0.0381,1.1978 0.0831,0.6905 0.9691,0.7373 0.8888,1.6211zm-1.631 -3.883c-0.4192,0.1006 -0.881,0.4613 -1.1313,0.452 -0.5212,-0.0193 -0.8074,-0.3391 -1.5338,-0.0786 -0.3979,0.1427 -0.6556,0.4721 -0.722,0.9253 -0.1001,0.6822 0.2917,1.0228 -0.0577,1.469 -0.239,0.3053 -0.5348,0.5412 -0.5206,1.1133 0.0347,1.3885 1.4756,0.9656 1.8088,1.5255 0.2749,0.4619 0.2423,0.6873 0.7505,0.9454 0.8213,0.4172 1.646,0.123 2.0855,-0.8584 0.3335,-0.7447 1.5606,-0.2818 1.8147,-1.5062 0.2649,-1.2764 -0.8642,-1.128 -0.8745,-2.3932 -0.0085,-1.0465 -0.4589,-1.8727 -1.6196,-1.5941z"/>
   <path id="_380098520" class="fil7" d="M4.1248 5.0689c-0.1945,-1.0147 0.9924,-0.6496 0.9063,-1.9879 -0.1131,-1.7548 0.7928,-0.8515 1.4688,-0.5501 0.5885,0.2626 1.9995,-0.7441 1.8157,0.5373 -0.0758,0.5292 -0.3585,0.6889 -0.0123,1.1942 0.2169,0.3164 0.454,0.4332 0.4431,0.9662l-1.4805 0.5635c-0.2536,0.241 -0.3715,1.1197 -0.9467,1.1087 -0.5887,-0.0111 -0.5634,-0.9069 -0.8755,-1.1782 -0.3496,-0.3041 -0.9136,-0.1405 -1.3189,-0.6537zm0.827 -3.7522c-1.3041,0.5406 -0.3782,1.743 -0.9722,2.2978 -0.2597,0.2425 -0.5823,0.4461 -0.7262,0.907 -0.469,1.503 1.3929,1.7989 1.4295,1.8154 0.2032,0.0917 0.425,0.7696 0.6703,1.0256 0.6895,0.7194 1.7942,0.4298 2.1867,-0.2631 0.3422,-0.6041 0.1359,-0.5459 0.8836,-0.7417 0.4515,-0.1183 0.7973,-0.2722 1.0202,-0.5989 0.2281,-0.3346 0.2608,-0.8599 0.0463,-1.2784 -0.3143,-0.613 -0.4738,-0.4016 -0.3391,-1.2819 0.1644,-1.0747 -0.4574,-1.7976 -1.5489,-1.6362 -0.8559,0.1266 -0.5001,0.3094 -1.2716,-0.1178 -0.4462,-0.247 -0.8886,-0.331 -1.3786,-0.1278z"/>
   <path id="_380098856" class="fil7" d="M24.2025 28.7828c1.486,-0.1841 0.2361,-0.4888 2.4657,0.0176 -0.0102,0.7896 -0.2474,3.8489 -1.2479,3.8039 -0.8561,-0.0385 -1.2725,-2.9238 -1.2178,-3.8215zm0.0225 -0.7869c-0.149,-0.1581 -0.4368,-0.6503 -0.7998,-0.3752 -0.3417,0.2589 0.1185,3.1721 0.2181,3.5522 0.3644,1.3903 1.3447,2.9614 2.769,1.6571 0.9417,-0.8622 1.017,-2.7753 1.1218,-4.2898 0.0249,-0.3607 0.2074,-0.82 -0.1637,-0.9587 -0.4738,-0.1771 -0.4163,0.3862 -0.8507,0.4148 -0.2983,0.0196 -0.5974,-0.3015 -1.1051,-0.2732 -0.4822,0.0267 -0.6517,0.2963 -1.1896,0.2728z"/>
   <path id="_380097680" class="fil7" d="M31.3432 22.605l-0.1976 0.137c-0.1555,0.1129 -0.2718,0.2165 -0.4046,0.409 -0.5432,0.7881 -0.2463,0.6969 -0.1833,0.7258 0.5275,-0.5646 2.1629,-1.0248 3.1916,-1.0088 1.2721,0.0198 2.4151,0.5144 3.1282,1.118 0.7062,0.5978 1.3413,1.4013 1.6546,2.6154 0.3831,1.4843 -0.0025,2.2801 -0.358,3.5129 0.3171,0.0366 0.6987,0.0636 0.9004,-0.0365 0.0383,-0.7449 0.7174,-1.5617 0.2512,-3.6003 -0.2825,-1.2351 -0.8921,-2.0661 -1.5572,-2.7196 -2.7483,-2.7007 -5.9199,-1.1604 -6.4253,-1.1529z"/>
   <path id="_380098088" class="fil7" d="M11.8173 30.0754c0.266,0.1161 0.4039,0.045 0.7693,0.0535 0.1084,-0.1228 0.0877,0.1545 0.0489,-0.2217 -0.2852,-1.1177 -0.7439,-1.9601 -0.2443,-3.5116 0.9532,-2.9598 3.8338,-4.1332 6.6721,-3.1787 0.6069,0.2041 0.926,0.4951 1.3923,0.7119 -0.0343,-0.4331 -0.328,-0.7901 -0.5698,-1.0153 -0.2874,-0.2677 -0.7324,-0.2994 -1.019,-0.5442 -0.836,0.0148 -1.6884,-0.5069 -3.5187,0.0622 -1.0245,0.3187 -1.9147,0.9439 -2.4481,1.532 -0.5871,0.6474 -1.1381,1.4505 -1.3872,2.6017 -0.4131,1.9093 0.2028,2.7086 0.3045,3.5102z"/>
   <path id="_380098040" class="fil8" d="M27.5341 28.5402c-0.1048,1.5145 -0.1801,3.4276 -1.1218,4.2898 -1.4243,1.3043 -2.4046,-0.2668 -2.769,-1.6571 -0.0996,-0.3801 -0.5598,-3.2933 -0.2181,-3.5522 0.363,-0.2751 0.6508,0.2171 0.7998,0.3752 0.5379,0.0235 0.7074,-0.2461 1.1896,-0.2728 0.5077,-0.0283 0.8068,0.2928 1.1051,0.2732 0.4344,-0.0286 0.3769,-0.5919 0.8507,-0.4148 0.3711,0.1387 0.1886,0.598 0.1637,0.9587zm-3.6866 -16.6743c0.171,0.8094 0.193,1.3401 -0.4432,1.733 -0.6073,0.375 -1.3321,0.1493 -1.652,-0.2953 -0.6644,-0.9232 0.3767,-2.537 2.0952,-1.4377zm-5.4307 3.749c0.0467,0.6024 -0.064,0.8992 0.0683,1.5851 0.2672,-0.4115 0.1264,-0.2201 0.2294,-0.6129 0.043,-0.1639 0.0024,-0.0759 0.0655,-0.1732 0.2279,0.4798 0.4421,0.9745 0.7387,1.4113 0.3486,0.5136 0.5267,0.6879 1.0272,1.1087 2.1917,1.8433 6.0093,1.8931 8.0968,0.1996 0.5662,-0.4592 0.5596,-0.6497 0.7717,-1.4187 -1.3552,-0.7796 -2.1367,0.2269 -1.9559,0.6201l0.5322 0.5956c-1.4744,1.5212 -2.5216,-2.2335 0.3772,-2.4266 1.0549,-0.0702 1.7863,0.4927 2.2122,1.0224 0.7587,0.9434 0.5718,1.3616 0.7663,2.6002 0.092,0.3922 0.0739,0.8934 0.0667,1.3109 -0.0054,0.3142 -0.1482,1.0594 -0.0699,1.1676 0.5054,-0.0075 3.677,-1.5478 6.4253,1.1529 0.6651,0.6535 1.2747,1.4845 1.5572,2.7196 0.4662,2.0386 -0.2129,2.8554 -0.2512,3.6003 0.16,0.3104 1.6071,0.335 1.4007,1.8997 -0.1992,1.5102 -3.0053,2.4943 -4.2985,2.409 -1.0371,-0.0684 -1.6301,-0.6641 -1.5049,-1.7659 -1.6115,0.4399 -3.9301,-0.5663 -4.9641,-1.9808 -0.4933,-0.6749 -0.9565,-1.489 -0.9908,-2.5646 -0.0547,-1.7179 0.4093,-2.081 0.6564,-2.9363 -0.3377,0.1761 -0.4416,0.3333 -0.7697,0.5083 -0.2863,0.1528 -0.5851,0.2796 -0.874,0.3985 -0.5787,0.2382 -1.4414,0.4175 -2.0911,0.4343 -2.2839,0.0592 -2.5825,-0.5244 -4.0167,-1.0889 0.0341,0.2983 0.255,0.4968 0.4497,1.383 0.6211,2.8278 -1.4988,5.3999 -4.4472,5.8848 -0.7576,0.1247 -0.9968,0.0827 -1.48,-0.1446 0.8795,3.2197 -5.3762,1.6694 -5.6978,-0.5444 -0.214,-1.4731 1.2514,-1.6183 1.3708,-1.8945 -0.1017,-0.8016 -0.7176,-1.6009 -0.3045,-3.5102 0.2491,-1.1512 0.8001,-1.9543 1.3872,-2.6017 0.5334,-0.5881 1.4236,-1.2133 2.4481,-1.532 1.8303,-0.5691 2.6827,-0.0474 3.5187,-0.0622 0.1927,-0.1531 0.1021,-0.1102 -0.0089,-0.3952 -0.0543,-0.1397 -0.0969,-0.251 -0.1395,-0.3879 -0.11,-0.3534 -0.097,-0.6034 -0.1944,-0.9445 -0.1134,-0.5493 -0.7446,-1.0469 -1.0406,-3.0113 -0.2103,-1.3954 0.01,-2.1845 0.2325,-3.5515 -1.1753,-1.0493 -7.8193,-2.3719 -8.9267,-1.6016 -0.501,0.3485 -0.7392,2.2255 -0.6339,3.0386l0.0166 0.9817c0.3343,0.1868 0.7777,0.8627 1.335,0.987 -0.0763,-0.7834 -0.0587,-1.891 0.0823,-2.6556 0.0872,-0.4727 0.2497,-0.6261 0.76,-0.5902 1.2013,0.0848 4.47,1.2741 5.056,1.8162l-0.1908 0.1956c-1.5232,1.184 -2.2698,1.727 -3.5946,3.3344 -0.3449,0.4185 -0.7759,0.8812 -1.0587,1.3349l-0.1621 0.0911c-0.3617,0.2414 -0.434,0.7437 -0.7617,1.0086l-0.2795 -0.1728 -0.1842 0.148c0.3179,0.8951 0.3266,0.1432 -0.3653,1.6355 -1.1226,2.4211 -1.1522,3.2913 -1.385,5.8438 -0.5968,0.2794 -1.2352,0.1269 -2.3197,0.9231 -0.5526,0.4056 -0.9659,1.3245 -0.5643,2.2608 0.5327,1.2417 2.6171,3.0535 3.4584,3.0679 0.2533,-0.2755 -1.8265,-1.1851 -2.1712,-1.7771l-0.8343 -2.6822c0.4755,0.2637 0.9669,0.8965 2.549,1.471 0.3051,0.1108 0.7747,0.1515 0.874,0.4806 0.1589,0.1442 0.2934,0.3147 0.4706,0.4097 0.1221,0.0655 0.2031,0.0659 0.3098,0.1301l0.1973 0.1648c0.362,0.3174 0.3891,0.4907 0.638,0.9143l1.8404 2.1358c0.7915,0.8142 2.0898,1.837 3.0838,2.4536 0.2025,0.1256 0.2845,0.2019 0.4888,0.3141 2.3413,1.2861 3.7505,1.7244 6.4474,2.2546 1.9587,0.3851 3.9171,0.3723 5.8771,0.2113 0.8259,-0.0678 1.8397,-0.3417 2.6502,-0.5039 1.0864,-0.2175 2.8628,-1.0107 3.948,-1.5192 0.0157,-0.0074 0.0357,-0.0154 0.0512,-0.0228 0.2743,-0.1329 2.4416,-1.5309 2.6742,-1.7406 0.0116,-0.0104 0.0271,-0.0259 0.0384,-0.0365l0.0727 -0.075c0.0106,-0.0102 0.0248,-0.0268 0.0355,-0.0368 0.1886,-0.1754 0.0639,-0.0569 0.2517,-0.1826l1.0325 -0.8902c0.6559,-0.6713 0.9762,-1.0998 1.5017,-1.6681 0.1599,-0.1731 0.2165,-0.2302 0.3565,-0.4501 0.1744,-0.2738 0.4022,-0.4263 0.6822,-0.8708 0.0827,-0.1312 0.0801,-0.144 0.1318,-0.2547 0.2352,-0.5031 0.201,-0.1316 0.7936,-0.511l0.3498 -0.1549c0.1779,-0.6203 1.5261,-0.4594 3.2204,-1.7393l0.4289 -0.3024c0.7809,1.5397 -1.5366,3.3834 -2.7568,4.0322 -0.1556,0.0827 -0.5448,0.2333 -0.3964,0.4346 0.8665,0.0814 5.3641,-3.206 2.9361,-5.2854 -0.904,-0.7743 -1.9195,-0.7134 -2.3368,-0.9768 -0.2689,-0.1872 -0.0011,-0.0435 -0.5679,-0.1114 -0.2916,-0.0349 -0.3757,-0.0479 -0.6021,-0.1255l-1.0062 -4.6665c-0.351,-1.2119 -1.7277,-3.486 -1.7322,-3.8137l0.3789 0.0054 0.0115 -0.1849c-0.3129,-0.9691 -3.3405,-3.7507 -4.4881,-4.3957 0.2823,-0.3261 0.3977,-0.364 0.877,-0.5743 1.2049,-0.5289 1.6979,-0.714 3.0431,-1.0812 0.7428,-0.2026 1.6934,-0.609 1.9483,0.2083 0.2545,0.8162 0.0606,1.7948 0.1529,2.6364l0.017 0.0238c0.2949,-0.1337 1.0628,-0.6241 1.192,-0.8755 0.1192,-0.6166 -0.112,-1.2769 -0.0086,-1.8617 0.0914,-0.3851 0.0751,-2.2327 -1.1577,-2.3482 -1.7107,-0.1604 -4.6037,0.4319 -6.2787,0.9601 -1.0787,0.3401 -1.5409,0.5734 -2.5557,1.0208 -0.6623,-1.6987 -0.9518,-2.8215 -2.5172,-4.0436 -2.8042,-2.1894 -7.1916,-1.7556 -9.7419,0.7381 -0.808,0.79 -2.1431,2.8529 -1.9814,4.652z"/>
   <path id="_380098400" class="fil8" d="M39.1584 48.3523c-0.4671,0.4797 -0.3996,0.6549 -1.2413,0.9248 -1.5165,0.4863 -4.2729,0.3829 -5.7957,0.1921 -1.0992,-0.1378 -2.4719,-0.4291 -3.4024,-0.8075 -0.9416,-0.3829 -0.6126,-0.2845 -1.7145,-0.2011 -0.6788,0.0513 -1.3496,0.0851 -2.031,0.067 -3.1391,-0.0834 -0.6337,-0.5551 -3.5312,0.3501 -2.2514,0.7035 -5.1714,0.9364 -7.538,0.6062 -1.3926,-0.1942 -2.3874,-0.4804 -2.1846,-2.0618 -0.1422,0.1169 -0.1858,0.2232 -0.1743,0.5593 0.0057,0.1651 0.0374,0.3207 0.0584,0.4792 -0.6727,0.0674 -3.496,0.1266 -3.6537,0.8474l0.3696 0.3156c1.2547,0.725 15.9334,0.9119 17.0962,0.9032 3.206,-0.024 10.4945,-0.0428 13.5699,-0.3893 0.7404,-0.0835 2.4328,-0.2387 3.1199,-0.4227 0.3497,-0.0935 0.6085,-0.1783 0.7555,-0.4068l-0.2824 -0.3598c-0.3089,-0.2378 -2.9319,-0.3999 -3.4204,-0.5959z"/>
   <path id="_380097896" class="fil9" d="M42.3384 33.2893l-0.3498 0.1549c-0.5926,0.3794 -0.5584,0.0079 -0.7936,0.511 -0.0517,0.1107 -0.0491,0.1235 -0.1318,0.2547 -0.28,0.4445 -0.5078,0.597 -0.6822,0.8708 -0.14,0.2199 -0.1966,0.277 -0.3565,0.4501 -0.5255,0.5683 -0.8458,0.9968 -1.5017,1.6681l-1.0325 0.8902c-0.1878,0.1257 -0.0631,0.0072 -0.2517,0.1826 -0.0107,0.01 -0.0249,0.0266 -0.0355,0.0368l-0.0727 0.075c-0.0113,0.0106 -0.0268,0.0261 -0.0384,0.0365 -0.2326,0.2097 -2.3999,1.6077 -2.6742,1.7406 -0.0155,0.0074 -0.0355,0.0154 -0.0512,0.0228 -1.0852,0.5085 -2.8616,1.3017 -3.948,1.5192 -0.8105,0.1622 -1.8243,0.4361 -2.6502,0.5039 -1.96,0.161 -3.9184,0.1738 -5.8771,-0.2113 -2.6969,-0.5302 -4.1061,-0.9685 -6.4474,-2.2546 -0.2043,-0.1122 -0.2863,-0.1885 -0.4888,-0.3141 -0.994,-0.6166 -2.2923,-1.6394 -3.0838,-2.4536l-1.8404 -2.1358c-0.2489,-0.4236 -0.276,-0.5969 -0.638,-0.9143l-0.1973 -0.1648c-0.1067,-0.0642 -0.1877,-0.0646 -0.3098,-0.1301 -0.1772,-0.095 -0.3117,-0.2655 -0.4706,-0.4097 0.2722,1.3636 1.677,3.4287 2.5047,4.4882 0.94,1.2032 2.0816,2.3422 3.6224,3.3784 4.772,3.2091 11.0883,3.9014 16.8446,2.2423 3.4227,-0.9866 6.184,-2.9071 8.3949,-5.5352 0.7314,-0.8693 2.3062,-3.1747 2.5566,-4.5026z"/>
   <path id="_563148968" class="fil10" d="M24.2025 28.7828c-0.0547,0.8977 0.3617,3.783 1.2178,3.8215 1.0005,0.045 1.2377,-3.0143 1.2479,-3.8039 -2.2296,-0.5064 -0.9797,-0.2017 -2.4657,-0.0176z"/>
  </g>
 </g>
</svg>
