<?xml version="1.0" encoding="UTF-8"?>
<!DOCTYPE svg PUBLIC "-//W3C//DTD SVG 1.1//EN" "http://www.w3.org/Graphics/SVG/1.1/DTD/svg11.dtd">
<!-- Creator: CorelDRAW -->
<svg xmlns="http://www.w3.org/2000/svg" xml:space="preserve" width="50.8mm" height="50.8mm" style="shape-rendering:geometricPrecision; text-rendering:geometricPrecision; image-rendering:optimizeQuality; fill-rule:evenodd; clip-rule:evenodd"
viewBox="0 0 50.8 50.8"
 xmlns:xlink="http://www.w3.org/1999/xlink">
 <defs>
  <style type="text/css">
   <![CDATA[
    .fil0 {fill:none}
    .fil3 {fill:#1F0916}
    .fil1 {fill:#BA87AE}
    .fil2 {fill:#DCCBDB}
    .fil4 {fill:#FEFEFE}
   ]]>
  </style>
 </defs>
 <g id="Capa_x0020_1">
  <metadata id="CorelCorpID_0Corel-Layer"/>
  <rect class="fil0" width="50.8" height="50.8"/>
  <g id="_568042288">
   <path id="_568039312" class="fil1" d="M17.5308 39.9794c-0.4055,0.0807 -1.4673,-0.3515 -1.8214,-0.5179 -0.9696,-0.4557 -1.9801,-1.3053 -2.5098,-2.2798 -0.6102,-1.1226 -0.3478,-1.1602 -0.5075,-1.8475 -0.3052,0.4424 -0.096,2.3351 0.056,2.9132 0.5715,2.1737 2.5824,4.391 4.681,4.6413 -0.1241,-1.8475 -0.1587,-1.1477 0.1017,-2.9093z"/>
   <path id="_568039048" class="fil1" d="M23.2482 43.2242c0.0686,0.7965 0.5713,1.8218 1.004,2.1538 0.5788,0.4441 1.7013,0.5424 2.5902,0.5326 2.0541,-0.0227 3.1798,-0.6395 3.5145,-2.7557 -1.0785,0.5373 -2.0104,0.8522 -3.5145,0.8654 -2.4569,0.0214 -2.9485,-0.6457 -3.5942,-0.7961z"/>
   <path id="_568039288" class="fil1" d="M12.4424 31.7073c-0.0151,-0.0255 -0.1503,-0.2225 -0.2643,-0.2939 -0.0698,-0.0437 -0.3164,-0.134 -0.4128,-0.1491 -0.3447,-0.054 -0.6322,0.0162 -0.8622,0.2425 -0.4437,0.4367 -0.4169,0.7097 -1.3225,0.7737 -1.2305,0.0869 -2.1455,-0.6333 -2.3734,-1.8318 -0.0113,0.0157 -0.0235,0.0224 -0.0272,0.0512 -0.0038,0.0287 -0.0208,0.0388 -0.0255,0.052 -0.2136,0.5889 -0.0506,1.6227 0.2814,2.1836 0.916,1.5474 2.7652,1.6705 3.8181,0.6969 0.4399,-0.4066 0.3112,-0.4326 0.332,-1.1287 0.0175,-0.5834 0.3515,-0.6555 0.8564,-0.5964z"/>
   <path id="_568038664" class="fil2" d="M10.8414 15.324l-0.0965 0.195c-0.0132,0.0394 -0.0439,0.1826 -0.0529,0.2274 -0.0325,0.1614 -0.0574,0.3091 -0.0827,0.4646 -0.3994,2.4461 -0.3693,4.7143 0.4639,7.066 1.6073,4.537 5.5785,7.0652 10.2715,8.0988 0.6225,0.137 1.2298,0.2501 1.8957,0.3692 0.7297,0.1304 1.3503,0.1457 1.6388,0.6758 0.1687,0.3098 0.0711,0.6392 -0.1373,0.7984 -0.6537,0.499 -2.0088,-0.7995 -2.6048,0.3665 0.2316,0.0247 0.4587,0.1231 0.6554,0.2351 0.2184,0.1244 0.3348,0.3098 0.565,0.4191l-0.077 0.1986c0.4833,-0.1451 0.6754,-0.1895 1.1609,0.0628 0.4418,0.2296 0.5114,0.4904 0.8643,0.6704 0.0067,-0.1422 -0.1088,-0.1044 0.4361,-0.0626 0.483,0.0369 1.6778,0.0068 2.1967,0.0023 0.0587,0.0794 0.0314,-0.0186 0.0388,0.1487 0.0152,-0.0113 0.037,-0.0488 0.0437,-0.0361 0.0067,0.0124 0.0335,-0.0278 0.0425,-0.0364 0.4258,-0.4062 0.8634,-0.9892 1.7496,-0.8746 -0.0051,-0.0112 -0.0541,-0.1713 -0.0627,-0.1914 0.3832,-0.2622 0.7567,-0.6592 1.2855,-0.6258 -0.3975,-0.8165 -1.1047,-0.4876 -1.6485,-0.3573 -1.0123,0.2424 -1.3796,-0.4553 -0.8359,-1.0417 0.3607,-0.3892 1.1774,-0.4326 1.8312,-0.5537 9.2678,-1.7167 14.6586,-8.1595 11.7264,-17.3713 -0.0614,-0.1929 -0.092,-0.3105 -0.2228,-0.4462 -0.032,0.3253 0.0689,0.6617 0.105,0.9367 0.2283,1.741 -0.0896,4.4922 -0.5719,6.1262 -2.8693,9.7202 -18.1056,12.0809 -26.2342,5.7055 -1.3923,-1.092 -2.4308,-2.5555 -3.2229,-4.5752 -0.3694,-0.9419 -0.714,-1.9761 -0.8951,-3.0223 -0.3473,-2.006 -0.1404,-3.0319 -0.2258,-3.5725z"/>
   <path id="_568039216" class="fil2" d="M36.7692 46.171c0.1306,0.4448 0.4338,0.7661 0.3826,1.4035 -0.1895,2.3571 -4.4702,1.8816 -6.3619,0.9864 -1.3171,-0.6233 -1.1835,-0.722 -1.8923,-1.5711l-2.2607 0.2861c-0.9317,0.0021 -1.479,-0.1997 -2.2762,-0.3013 -0.7414,0.906 -0.8039,1.1645 -1.9615,1.641 -0.9008,0.3709 -1.8455,0.6033 -2.8962,0.6754 -1.529,0.1048 -3.5345,-0.2503 -3.444,-1.9151 0.0373,-0.6858 0.3459,-0.9239 0.5099,-1.3405 -0.889,0.4094 -3.5722,0.7985 -3.775,1.8331 -0.237,1.2084 2.4856,1.7756 3.5333,2.0158 5.4291,1.2446 14.8082,1.1818 20.2582,0.0456 6.9785,-1.4548 2.4314,-3.4903 0.1838,-3.7589z"/>
   <path id="_568039336" class="fil2" d="M9.9881 27.4728c0.3529,0.0468 0.5564,-0.0647 0.9239,0.0797 0.6902,0.2712 1.0093,1.3082 -0.1984,1.714 -0.6338,0.213 -1.177,0.1275 -1.5415,-0.3167 -0.2761,-0.3364 -0.2676,-0.7267 0.1144,-1.0383 0.2781,-0.2269 0.1623,-0.0486 0.2693,-0.27 -0.828,0.2237 -2.4762,1.737 -2.3486,2.8072 0.2279,1.1985 1.1429,1.9187 2.3734,1.8318 0.9056,-0.064 0.8788,-0.337 1.3225,-0.7737 0.23,-0.2263 0.5175,-0.2965 0.8622,-0.2425 0.0964,0.0151 0.343,0.1054 0.4128,0.1491 0.114,0.0714 0.2492,0.2684 0.2643,0.2939 0.4323,0.4759 0.5644,0.6847 0.4807,1.6216 -0.0516,0.5778 -0.2885,1.4737 -0.231,2.0053 0.1597,0.6873 -0.1027,0.7249 0.5075,1.8475 0.5297,0.9745 1.5402,1.8241 2.5098,2.2798 0.3541,0.1664 1.4159,0.5986 1.8214,0.5179 0.1014,-0.211 0.1995,-0.6891 0.3201,-0.9841l0.4315 -1.0029c-0.8284,-0.4167 -1.8322,-0.6639 -2.3758,-2.015 -0.4694,-1.1668 -0.1442,-3.0593 -0.5076,-4.9727 -0.1315,-0.6924 -0.4938,-0.6224 -1.6622,-1.6222 -0.4198,-0.3592 -0.7696,-0.666 -1.1463,-1.0465l-1.0933 -1.1698c-0.2821,0.0011 -0.5712,0.0273 -0.8344,0.0698 -0.4903,0.0791 -0.4758,0.1048 -0.5865,0.1717l-0.0882 0.0651z"/>
   <path id="_568039936" class="fil2" d="M23.2482 43.2242c0.6457,0.1504 1.1373,0.8175 3.5942,0.7961 1.5041,-0.0132 2.436,-0.3281 3.5145,-0.8654 0.4089,-0.8463 0.2132,-3.8147 -0.3777,-4.4066 -0.1985,-0.1061 -0.8625,0.0041 -1.5593,-0.5512 -0.2066,-0.1645 -0.3492,-0.3212 -0.4814,-0.5504 -0.1677,-0.2904 -0.1328,-0.3397 -0.2263,-0.6054 -0.0065,-0.0187 -0.0399,-0.0701 -0.0441,-0.1037 -0.0035,-0.0275 -0.0143,-0.0347 -0.0244,-0.0504 -0.1598,0.1117 -0.6719,-0.0247 -0.9384,-0.0279 -0.3645,-0.0044 -0.6064,0.0401 -0.9387,0.0971 0.0388,-0.272 0.1284,-0.6278 -0.0809,-0.8133 0.0899,1.712 -0.6392,2.3737 -2.1245,2.6192 -0.3449,1.0483 -0.8337,3.3532 -0.313,4.4619z"/>
   <path id="_568039672" class="fil2" d="M12.1743 11.4617l0.1408 -0.3156c0.2127,-0.9469 0.6461,-0.8881 -0.2973,-1.8972 -0.5052,-0.5404 -0.9428,-1.1297 -1.4021,-1.8098 -0.4862,-0.7201 -1.2307,-2.4245 -1.4192,-3.3609 -0.0929,-0.4609 0.0253,-1.1252 -0.0622,-1.5593 -0.0111,0.0132 -0.0239,0.0189 -0.0271,0.0442 -0.0033,0.0258 -0.021,0.0348 -0.0251,0.0466 -0.078,0.2241 -0.0618,0.3164 -0.055,0.5813 0.0595,2.3025 -0.4596,6.2831 0.0056,7.9605l0.8205 2.2452c0.2637,-0.2673 0.8841,-2.5427 1.5901,-2.744 0.6153,-0.1754 0.7723,0.2885 0.731,0.809z"/>
   <path id="_568039552" class="fil2" d="M40.68 11.001c-0.3764,-1.5594 0.687,-1.4878 1.1574,-0.6766l1.0645 2.0772c0.4258,-0.2692 0.7018,-1.7129 0.7737,-2.3036 0.3276,-2.6939 -0.3859,-4.6989 -0.6134,-6.8625 -0.0411,-0.3903 0.0853,-1.2059 -0.1637,-1.4489 -0.1385,0.7844 0.3186,0.7184 -0.2161,2.719 -0.6945,2.5985 -2.429,4.0977 -2.379,5.1959 0.011,0.2407 0.1633,1.0309 0.2422,1.154 0.3112,0.4848 -0.2851,-0.2006 0.1344,0.1455z"/>
   <path id="_568040080" class="fil2" d="M19.0376 46.0393c1.4319,-0.0438 2.1748,1.0437 1.1813,1.6944l-0.1581 0.1186c1.3205,-0.1705 2.6083,-0.6554 3.1755,-1.4776 0.6894,-0.9996 -0.2833,-0.7825 -0.7252,-2.8113 -0.028,-0.1288 -0.0651,-0.3218 -0.1489,-0.4305l-0.014 0.3431 -2.1484 -0.4867c-0.6831,-0.2323 -1.2421,-0.943 -1.4997,-1.0917 0.0334,1.1828 0.4349,1.9023 0.9872,2.5644 0.7305,0.8758 1.6085,1.0583 1.7513,1.2741 0.0553,0.0834 0.0323,0.0099 0.0458,0.1367 0.0325,0.3058 0.0217,0.043 -0.036,0.1597 -0.624,-0.1411 -1.8617,-0.5308 -2.4108,0.0068z"/>
   <path id="_568040008" class="fil2" d="M31.1861 43.2171c-0.1286,0.1529 -0.3979,1.1478 -0.546,1.4507 -0.2771,0.5665 -0.5496,0.7426 -0.7967,1.1343 0.3043,1.1861 1.7399,1.8224 3.1642,1.9849 -0.2303,-0.2447 -0.303,-0.2413 -0.3567,-0.5847 -0.0461,-0.2954 -0.0022,-0.5432 0.1532,-0.7123 0.4148,-0.4518 1.0682,-0.4291 1.4085,-0.4411 -0.6061,-0.6969 -2.0117,0.0957 -2.3946,-0.0118l0.3049 -0.5047c0.2373,-0.2251 2.3666,-0.9738 2.4058,-3.8403l-0.3287 0.3725c-0.211,0.2449 -0.7553,0.6054 -1.0848,0.7607 -0.6681,0.3151 -1.0909,0.4079 -1.8884,0.5987l-0.0407 -0.2069z"/>
   <path id="_568040104" class="fil3" d="M22.3622 43.1329c0.0838,0.1087 0.1209,0.3017 0.1489,0.4305 0.4419,2.0288 1.4146,1.8117 0.7252,2.8113 -0.5672,0.8222 -1.855,1.3071 -3.1755,1.4776 -0.6783,0.1428 -2.1902,0.2726 -2.5311,-0.2752 -0.4094,-0.6581 1.0908,-1.5206 1.5079,-1.5378 0.5491,-0.5376 1.7868,-0.1479 2.4108,-0.0068 0.0577,-0.1167 0.0685,0.1461 0.036,-0.1597 -0.0135,-0.1268 0.0095,-0.0533 -0.0458,-0.1367 -0.1428,-0.2158 -1.0208,-0.3983 -1.7513,-1.2741 -0.5523,-0.6621 -0.9538,-1.3816 -0.9872,-2.5644 -0.0924,-0.889 0.2097,-2.0549 0.5314,-2.7511l1.3084 -2.0238c0.2202,0.1877 0.5185,0.671 0.9276,0.9026l1.3293 0.6052c-0.0362,0.2973 -0.1805,0.6183 -0.2658,0.9517 -0.4344,1.6988 -0.0596,2.5584 -0.1688,3.5507zm12.1665 -1.4408c-0.0392,2.8665 -2.1685,3.6152 -2.4058,3.8403l-0.3049 0.5047c0.3829,0.1075 1.7885,-0.6851 2.3946,0.0118 0.483,0.0507 1.8467,0.9082 1.4923,1.5527 -0.2898,0.5269 -2.0728,0.3669 -2.6973,0.1854 -1.4243,-0.1625 -2.8599,-0.7988 -3.1642,-1.9849 0.2471,-0.3917 0.5196,-0.5678 0.7967,-1.1343 0.1481,-0.3029 0.4174,-1.2978 0.546,-1.4507 -0.0326,-0.3921 0.2424,-1.5828 0.0784,-2.545l-0.5198 -2.1452 1.8892 -1.3759c0.798,0.382 1.9956,2.9412 1.8948,4.5411zm-14.3874 -7.6575c-0.3128,0.7479 -0.2358,1.0091 -0.2322,1.8342l-0.8762 0.9035c-2.3457,-0.2824 -2.0179,-2.5036 -2.0288,-3.7123 -0.0045,-0.5034 -0.164,-1.3859 -0.1314,-1.7457 1.505,0.6206 2.0401,0.8947 3.5903,1.2764 0.1912,0.0471 0.3611,0.0816 0.5112,0.1953 -0.3052,0.3936 -0.6311,0.7662 -0.8329,1.2486zm-12.9341 -3.5859c-0.1276,-1.0702 1.5206,-2.5835 2.3486,-2.8072 0.1272,-0.118 0.2349,-0.1629 0.4323,-0.1687l0.0882 -0.0651c0.1107,-0.0669 0.0962,-0.0926 0.5865,-0.1717 0.2632,-0.0425 0.5523,-0.0687 0.8344,-0.0698l1.0933 1.1698c0.3767,0.3805 0.7265,0.6873 1.1463,1.0465 1.1684,0.9998 1.5307,0.9298 1.6622,1.6222 0.3634,1.9134 0.0382,3.8059 0.5076,4.9727 0.5436,1.3511 1.5474,1.5983 2.3758,2.015l-0.4315 1.0029c-0.1206,0.295 -0.2187,0.7731 -0.3201,0.9841 -0.2604,1.7616 -0.2258,1.0618 -0.1017,2.9093 -2.0986,-0.2503 -4.1095,-2.4676 -4.681,-4.6413 -0.152,-0.5781 -0.3612,-2.4708 -0.056,-2.9132 -0.0575,-0.5316 0.1794,-1.4275 0.231,-2.0053 0.0837,-0.9369 -0.0484,-1.1457 -0.4807,-1.6216 -0.5049,-0.0591 -0.8389,0.013 -0.8564,0.5964 -0.0208,0.6961 0.1079,0.7221 -0.332,1.1287 -1.0529,0.9736 -2.9021,0.8505 -3.8181,-0.6969 -0.332,-0.5609 -0.495,-1.5947 -0.2814,-2.1836 0.0047,-0.0132 0.0217,-0.0233 0.0255,-0.052 0.0037,-0.0288 0.0159,-0.0355 0.0272,-0.0512zm1.9271 -27.9298c0.1602,-1.1185 3.7467,0.7791 4.1954,1.0334 1.2816,0.7263 2.4034,1.6499 3.3987,2.4926 1.2494,1.0578 1.0592,0.0344 4.0503,-1.0393 1.5148,-0.5437 3.1889,-0.8797 4.9339,-0.9626 2.7561,-0.1309 5.1532,0.2492 7.6226,1.2194 0.9968,0.3916 1.5865,0.9379 2.1849,0.5828 0.212,-0.1258 0.5978,-0.5639 0.7732,-0.7367 1.2989,-1.2792 4.8152,-4.1352 6.5335,-3.5814l0.0717 0.2595c0.249,0.243 0.1226,1.0586 0.1637,1.4489 0.2275,2.1636 0.941,4.1686 0.6134,6.8625 -0.0719,0.5907 -0.3479,2.0344 -0.7737,2.3036l-1.0645 -2.0772c-0.4704,-0.8112 -1.5338,-0.8828 -1.1574,0.6766 0.2249,0.2254 1.215,2.3807 1.2063,2.7246 0.1308,0.1357 0.1614,0.2533 0.2228,0.4462 2.9322,9.2118 -2.4586,15.6546 -11.7264,17.3713 -0.6538,0.1211 -1.4705,0.1645 -1.8312,0.5537 -0.5437,0.5864 -0.1764,1.2841 0.8359,1.0417 0.5438,-0.1303 1.251,-0.4592 1.6485,0.3573 0.3735,0.1045 1.0912,1.2214 0.9124,2.0651 -0.4512,2.1302 -3.7078,2.3221 -2.9784,0.4575 0.3126,-0.7991 1.6966,-0.8942 0.8432,-1.7054 -0.8862,-0.1146 -1.3238,0.4684 -1.7496,0.8746 -0.009,0.0086 -0.0358,0.0488 -0.0425,0.0364 -0.0067,-0.0127 -0.0285,0.0248 -0.0437,0.0361 -0.0412,0.2443 -0.188,0.402 -0.2606,0.7239 -0.0785,0.3485 -0.0184,0.6061 -0.073,0.9032 0.0101,0.0157 0.0209,0.0229 0.0244,0.0504 0.0042,0.0336 0.0376,0.085 0.0441,0.1037 0.0935,0.2657 0.0586,0.315 0.2263,0.6054 0.1322,0.2292 0.2748,0.3859 0.4814,0.5504 0.6968,0.5553 1.3608,0.4451 1.5593,0.5512 0.5909,0.5919 0.7866,3.5603 0.3777,4.4066 -0.3347,2.1162 -1.4604,2.733 -3.5145,2.7557 -0.8889,0.0098 -2.0114,-0.0885 -2.5902,-0.5326 -0.4327,-0.332 -0.9354,-1.3573 -1.004,-2.1538 -0.5207,-1.1087 -0.0319,-3.4136 0.313,-4.4619 1.4853,-0.2455 2.2144,-0.9072 2.1245,-2.6192 -0.0886,-0.3911 -0.3319,-0.703 -0.38,-0.9714 -0.3529,-0.18 -0.4225,-0.4408 -0.8643,-0.6704 -0.4855,-0.2523 -0.6776,-0.2079 -1.1609,-0.0628 -0.1309,0.7226 -0.1436,0.5159 0.4569,0.9045 0.2548,0.1649 0.5818,0.4718 0.6798,0.832 0.5004,1.8399 -2.5621,1.4075 -3.106,-0.5938 -0.2186,-0.8044 0.3688,-1.7777 0.8259,-1.9955 0.596,-1.166 1.9511,0.1325 2.6048,-0.3665 0.2084,-0.1592 0.306,-0.4886 0.1373,-0.7984 -0.2885,-0.5301 -0.9091,-0.5454 -1.6388,-0.6758 -0.6659,-0.1191 -1.2732,-0.2322 -1.8957,-0.3692 -4.693,-1.0336 -8.6642,-3.5618 -10.2715,-8.0988 -0.8332,-2.3517 -0.8633,-4.6199 -0.4639,-7.066 0.0253,-0.1555 0.0502,-0.3032 0.0827,-0.4646 0.009,-0.0448 0.0397,-0.188 0.0529,-0.2274l0.0965 -0.195c-0.0646,-0.7648 1.0312,-3.3009 1.3329,-3.8623 0.0413,-0.5205 -0.1157,-0.9844 -0.731,-0.809 -0.706,0.2013 -1.3264,2.4767 -1.5901,2.744l-0.8205 -2.2452c-0.4652,-1.6774 0.0539,-5.658 -0.0056,-7.9605 -0.0068,-0.2649 -0.023,-0.3572 0.055,-0.5813 0.0041,-0.0118 0.0218,-0.0208 0.0251,-0.0466 0.0032,-0.0253 0.016,-0.031 0.0271,-0.0442zm7.4346 43.5165c-0.164,0.4166 -0.4726,0.6547 -0.5099,1.3405 -0.0905,1.6648 1.915,2.0199 3.444,1.9151 1.0507,-0.0721 1.9954,-0.3045 2.8962,-0.6754 1.1576,-0.4765 1.2201,-0.735 1.9615,-1.641 0.7972,0.1016 1.3445,0.3034 2.2762,0.3013l2.2607 -0.2861c0.7088,0.8491 0.5752,0.9478 1.8923,1.5711 1.8917,0.8952 6.1724,1.3707 6.3619,-0.9864 0.0512,-0.6374 -0.252,-0.9587 -0.3826,-1.4035 -0.2755,-0.1362 -0.3783,-0.5651 -1.8266,-1.347 0.9269,-1.7719 1.2869,-2.7518 0.7217,-5.0303 -0.374,-1.5083 -1.4815,-3.1795 -2.3224,-3.9048l-0.3055 -1.9655c-0.1398,-0.4728 -0.7915,-1.0918 -0.869,-1.3429 3.8389,-1.1426 6.9779,-2.3796 9.5709,-5.7943 2.3261,-3.0633 3.3285,-7.5844 1.8938,-12.2254 -0.2679,-0.8667 0.5226,-0.6568 1.0654,-2.6288 0.2894,-1.0509 0.4353,-2.2312 0.4209,-3.3974 -0.0157,-1.2698 -0.5873,-5.438 -0.814,-6.8388 -0.2076,-1.2833 -0.6953,-1.8448 -2.1843,-1.6621 -1.0026,0.1229 -2.0264,0.5935 -2.8261,1.0183 -1.6994,0.9027 -2.9855,2.1022 -4.2853,3.3667 -1.54,-0.6116 -2.333,-0.9929 -3.9971,-1.3455 -3.1507,-0.6679 -6.481,-0.6118 -9.5903,0.2514 -0.8783,0.2438 -2.0943,0.6934 -2.8959,1.1397 -0.2642,0.1471 -0.6002,0.3824 -0.8627,0.4623l-1.5414 -1.221c-1.3387,-1.06 -3.6139,-2.3587 -5.3704,-2.7785 -2.1097,-0.5043 -2.9698,-0.0482 -3.0642,2.0561 -0.0772,1.7238 -0.2035,3.4962 -0.2259,5.2092 -0.0234,1.7916 0.0727,3.3088 0.6373,4.834 0.8526,2.3035 1.4962,1.5421 1.1984,2.7463 -0.4332,1.7516 -0.3761,4.5189 -0.0242,6.2256 0.1431,0.6937 0.384,1.5191 0.6251,2.1093 0.1325,0.3244 0.8007,1.6507 0.8104,1.7893l-3.5036 1.6374c-0.7436,0.7827 -1.471,1.9369 -1.5212,3.5379 -0.0512,1.6313 0.7319,2.8658 1.5549,3.5078 1.535,1.1973 2.6895,0.7909 4.021,0.5129l0.25 3.8502c0.1825,0.5557 0.3846,0.9856 0.6476,1.473 0.6886,1.2761 1.8533,2.4691 3.206,3.1668 1.9397,1.0004 2.6621,0.5098 2.9192,1.2601l-0.9541 0.5536c-0.2903,0.2044 -0.534,0.4962 -0.7587,0.6388z"/>
   <path id="_568040920" class="fil3" d="M16.7241 20.4459c-1.4065,0.2027 -2.5859,0.8853 -3.2411,1.9946 -0.2794,0.4729 -0.1422,1.0938 0.2927,1.2314 0.909,0.2876 0.8385,-0.7547 2.0369,-1.4374 0.8047,-0.4584 2.0085,-0.4236 2.8608,-0.0492 1.0831,0.4758 1.2895,1.1397 1.7547,1.7367 0.4808,0.6172 1.9598,0.2366 0.9175,-1.2574 -0.8133,-1.1658 -2.4094,-2.5376 -4.6215,-2.2187z"/>
   <path id="_568040536" class="fil3" d="M35.5807 19.8581c-1.1834,0.1401 -1.7027,0.4196 -2.4472,0.9964 -1.5037,1.1645 -1.8547,3.083 -0.683,2.9613 0.9638,-0.1001 0.6228,-1.8256 2.7232,-2.4239 2.2167,-0.6314 3.2618,1.1194 3.5749,1.3441 0.4699,0.337 1.0128,0.0189 1.1157,-0.3745 0.2586,-0.9881 -1.9472,-2.7801 -4.2836,-2.5034z"/>
   <path id="_568040896" class="fil3" d="M26.9109 26.2957c0.5752,0.2719 0.9678,0.76 1.9297,0.3376 1.2882,-0.5657 1.2084,-2.3537 0.1418,-2.0657 -0.4216,0.1137 -0.3197,0.5045 -0.5623,0.6943 -0.5972,0.4672 -0.8861,-0.8451 -1.8225,-0.5382 -0.5037,0.1651 -0.9589,1.2619 -1.5078,0.5683 -0.1981,-0.2502 -0.2913,-0.5825 -0.764,-0.5106 -0.8906,0.1355 -0.6046,1.7463 0.6887,2.0944 0.9188,0.2473 1.426,-0.2736 1.8964,-0.5801z"/>
   <path id="_568040872" class="fil3" d="M42.6762 36.3151c0.5754,-1.3098 -1.4616,-2.2087 -1.9947,-0.8641 -0.2857,0.7208 0.174,1.2724 0.6102,1.4436 0.6077,0.2383 1.2259,-0.2187 1.3845,-0.5795z"/>
   <path id="_568040224" class="fil3" d="M41.7923 33.8821c0.1773,1.0622 2.1066,0.8047 1.7955,-0.4568 -0.268,-1.0868 -2.0176,-0.8732 -1.7955,0.4568z"/>
   <path id="_568040488" class="fil3" d="M38.8466 34.5672c0.3773,1.0522 2.1031,0.5251 1.663,-0.6493 -0.4096,-1.0932 -2.0878,-0.5352 -1.663,0.6493z"/>
   <path id="_568041304" class="fil4" d="M26.9109 26.2957c-0.4704,0.3065 -0.9776,0.8274 -1.8964,0.5801 -1.2933,-0.3481 -1.5793,-1.9589 -0.6887,-2.0944 0.4727,-0.0719 0.5659,0.2604 0.764,0.5106 0.5489,0.6936 1.0041,-0.4032 1.5078,-0.5683 0.9364,-0.3069 1.2253,1.0054 1.8225,0.5382 0.2426,-0.1898 0.1407,-0.5806 0.5623,-0.6943 1.0666,-0.288 1.1464,1.5 -0.1418,2.0657 -0.9619,0.4224 -1.3545,-0.0657 -1.9297,-0.3376zm-10.1868 -5.8498c2.2121,-0.3189 3.8082,1.0529 4.6215,2.2187 1.0423,1.494 -0.4367,1.8746 -0.9175,1.2574 -0.4652,-0.597 -0.6716,-1.2609 -1.7547,-1.7367 -0.8523,-0.3744 -2.0561,-0.4092 -2.8608,0.0492 -1.1984,0.6827 -1.1279,1.725 -2.0369,1.4374 -0.4349,-0.1376 -0.5721,-0.7585 -0.2927,-1.2314 0.6552,-1.1093 1.8346,-1.7919 3.2411,-1.9946zm18.8566 -0.5878c2.3364,-0.2767 4.5422,1.5153 4.2836,2.5034 -0.1029,0.3934 -0.6458,0.7115 -1.1157,0.3745 -0.3131,-0.2247 -1.3582,-1.9755 -3.5749,-1.3441 -2.1004,0.5983 -1.7594,2.3238 -2.7232,2.4239 -1.1717,0.1217 -0.8207,-1.7968 0.683,-2.9613 0.7445,-0.5768 1.2638,-0.8563 2.4472,-0.9964zm-26.4464 -17.3392c0.0875,0.4341 -0.0307,1.0984 0.0622,1.5593 0.1885,0.9364 0.933,2.6408 1.4192,3.3609 0.4593,0.6801 0.8969,1.2694 1.4021,1.8098 0.9434,1.0091 0.51,0.9503 0.2973,1.8972l-0.1408 0.3156c-0.3017,0.5614 -1.3975,3.0975 -1.3329,3.8623 0.0854,0.5406 -0.1215,1.5665 0.2258,3.5725 0.1811,1.0462 0.5257,2.0804 0.8951,3.0223 0.7921,2.0197 1.8306,3.4832 3.2229,4.5752 8.1286,6.3754 23.3649,4.0147 26.2342,-5.7055 0.4823,-1.634 0.8002,-4.3852 0.5719,-6.1262 -0.0361,-0.275 -0.137,-0.6114 -0.105,-0.9367 0.0087,-0.3439 -0.9814,-2.4992 -1.2063,-2.7246 -0.4195,-0.3461 0.1768,0.3393 -0.1344,-0.1455 -0.0789,-0.1231 -0.2312,-0.9133 -0.2422,-1.154 -0.05,-1.0982 1.6845,-2.5974 2.379,-5.1959 0.5347,-2.0006 0.0776,-1.9346 0.2161,-2.719l-0.0717 -0.2595c-1.7183,-0.5538 -5.2346,2.3022 -6.5335,3.5814 -0.1754,0.1728 -0.5612,0.6109 -0.7732,0.7367 -0.5984,0.3551 -1.1881,-0.1912 -2.1849,-0.5828 -2.4694,-0.9702 -4.8665,-1.3503 -7.6226,-1.2194 -1.745,0.0829 -3.4191,0.4189 -4.9339,0.9626 -2.9911,1.0737 -2.8009,2.0971 -4.0503,1.0393 -0.9953,-0.8427 -2.1171,-1.7663 -3.3987,-2.4926 -0.4487,-0.2543 -4.0352,-2.1519 -4.1954,-1.0334z"/>
   <path id="_568041184" class="fil4" d="M18.7001 41.8976c0.2576,0.1487 0.8166,0.8594 1.4997,1.0917l2.1484 0.4867 0.014 -0.3431c0.1092,-0.9923 -0.2656,-1.8519 0.1688,-3.5507 0.0853,-0.3334 0.2296,-0.6544 0.2658,-0.9517l-1.3293 -0.6052c-0.4091,-0.2316 -0.7074,-0.7149 -0.9276,-0.9026l-1.3084 2.0238c-0.3217,0.6962 -0.6238,1.8621 -0.5314,2.7511z"/>
   <path id="_568041688" class="fil4" d="M31.1861 43.2171l0.0407 0.2069c0.7975,-0.1908 1.2203,-0.2836 1.8884,-0.5987 0.3295,-0.1553 0.8738,-0.5158 1.0848,-0.7607l0.3287 -0.3725c0.1008,-1.5999 -1.0968,-4.1591 -1.8948,-4.5411l-1.8892 1.3759 0.5198 2.1452c0.164,0.9622 -0.111,2.1529 -0.0784,2.545z"/>
   <path id="_568041328" class="fil4" d="M29.8131 34.313c0.8534,0.8112 -0.5306,0.9063 -0.8432,1.7054 -0.7294,1.8646 2.5272,1.6727 2.9784,-0.4575 0.1788,-0.8437 -0.5389,-1.9606 -0.9124,-2.0651 -0.5288,-0.0334 -0.9023,0.3636 -1.2855,0.6258 0.0086,0.0201 0.0576,0.1802 0.0627,0.1914z"/>
   <path id="_568041424" class="fil4" d="M23.2805 34.4385l0.077 -0.1986c-0.2302,-0.1093 -0.3466,-0.2947 -0.565,-0.4191 -0.1967,-0.112 -0.4238,-0.2104 -0.6554,-0.2351 -0.4571,0.2178 -1.0445,1.1911 -0.8259,1.9955 0.5439,2.0013 3.6064,2.4337 3.106,0.5938 -0.098,-0.3602 -0.425,-0.6671 -0.6798,-0.832 -0.6005,-0.3886 -0.5878,-0.1819 -0.4569,-0.9045z"/>
   <path id="_568041088" class="fil4" d="M20.0608 47.8523l0.1581 -0.1186c0.9935,-0.6507 0.2506,-1.7382 -1.1813,-1.6944 -0.4171,0.0172 -1.9173,0.8797 -1.5079,1.5378 0.3409,0.5478 1.8528,0.418 2.5311,0.2752z"/>
   <path id="_568041544" class="fil4" d="M33.0076 47.787c0.6245,0.1815 2.4075,0.3415 2.6973,-0.1854 0.3544,-0.6445 -1.0093,-1.502 -1.4923,-1.5527 -0.3403,0.012 -0.9937,-0.0107 -1.4085,0.4411 -0.1554,0.1691 -0.1993,0.4169 -0.1532,0.7123 0.0537,0.3434 0.1264,0.34 0.3567,0.5847z"/>
   <path id="_568042000" class="fil4" d="M25.3057 35.1717c0.0481,0.2684 0.2914,0.5803 0.38,0.9714 0.2093,0.1855 0.1197,0.5413 0.0809,0.8133 0.3323,-0.057 0.5742,-0.1015 0.9387,-0.0971 0.2665,0.0032 0.7786,0.1396 0.9384,0.0279 0.0546,-0.2971 -0.0055,-0.5547 0.073,-0.9032 0.0726,-0.3219 0.2194,-0.4796 0.2606,-0.7239 -0.0074,-0.1673 0.0199,-0.0693 -0.0388,-0.1487 -0.5189,0.0045 -1.7137,0.0346 -2.1967,-0.0023 -0.5449,-0.0418 -0.4294,-0.0796 -0.4361,0.0626z"/>
   <path id="_568042024" class="fil4" d="M9.5558 27.6415c-0.107,0.2214 0.0088,0.0431 -0.2693,0.27 -0.382,0.3116 -0.3905,0.7019 -0.1144,1.0383 0.3645,0.4442 0.9077,0.5297 1.5415,0.3167 1.2077,-0.4058 0.8886,-1.4428 0.1984,-1.714 -0.3675,-0.1444 -0.571,-0.0329 -0.9239,-0.0797 -0.1974,0.0058 -0.3051,0.0507 -0.4323,0.1687z"/>
  </g>
 </g>
</svg>
