<?xml version="1.0" encoding="UTF-8"?>
<!DOCTYPE svg PUBLIC "-//W3C//DTD SVG 1.1//EN" "http://www.w3.org/Graphics/SVG/1.1/DTD/svg11.dtd">
<!-- Creator: CorelDRAW -->
<svg xmlns="http://www.w3.org/2000/svg" xml:space="preserve" width="100.499mm" height="156.803mm" style="shape-rendering:geometricPrecision; text-rendering:geometricPrecision; image-rendering:optimizeQuality; fill-rule:evenodd; clip-rule:evenodd"
viewBox="0 0 100.499 156.803"
 xmlns:xlink="http://www.w3.org/1999/xlink">
 <defs>
  <style type="text/css">
   <![CDATA[
    .fil1 {fill:none}
    .fil3 {fill:#1F0916}
    .fil2 {fill:#BA87AE}
    .fil0 {fill:#DCCBDB}
    .fil4 {fill:#FEFEFE}
   ]]>
  </style>
 </defs>
 <g id="Capa_x0020_1">
  <metadata id="CorelCorpID_0Corel-Layer"/>
  <rect class="fil0" width="100.499" height="156.803"/>
  <rect class="fil1" x="4.9503" y="53.4987" width="88.018" height="88.018"/>
  <path id="_568039312" class="fil2" d="M35.3248 122.769c-0.7026,0.1398 -2.5423,-0.609 -3.1558,-0.8973 -1.68,-0.7896 -3.4308,-2.2616 -4.3486,-3.9501 -1.0572,-1.945 -0.6026,-2.0102 -0.8793,-3.201 -0.5288,0.7665 -0.1663,4.0459 0.097,5.0475 0.9902,3.7662 4.4744,7.608 8.1105,8.0417 -0.215,-3.2011 -0.275,-1.9886 0.1762,-5.0408z"/>
  <path id="_568039048" class="fil2" d="M45.231 128.391c0.1189,1.38 0.9899,3.1565 1.7396,3.7317 1.0028,0.7695 2.9477,0.9398 4.4879,0.9228 3.559,-0.0393 5.5094,-1.108 6.0893,-4.7746 -1.8686,0.931 -3.4833,1.4766 -6.0893,1.4994 -4.257,0.0371 -5.1087,-1.1187 -6.2275,-1.3793z"/>
  <path id="_568039288" class="fil2" d="M26.5085 108.436c-0.0262,-0.0442 -0.2604,-0.3855 -0.458,-0.5093 -0.1209,-0.0757 -0.5482,-0.2321 -0.7152,-0.2583 -0.5972,-0.0936 -1.0954,0.0281 -1.4939,0.4202 -0.7687,0.7566 -0.7223,1.2296 -2.2914,1.3405 -2.132,0.1506 -3.7174,-1.0973 -4.1122,-3.1738 -0.0196,0.0272 -0.0407,0.0388 -0.0472,0.0887 -0.0065,0.0497 -0.036,0.0672 -0.0441,0.0901 -0.3701,1.0203 -0.0877,2.8115 0.4875,3.7834 1.5871,2.6811 4.7911,2.8943 6.6154,1.2074 0.7622,-0.7044 0.5392,-0.7495 0.5752,-1.9556 0.0304,-1.0108 0.6091,-1.1357 1.4839,-1.0333z"/>
  <path id="_568038664" class="fil0" d="M23.7345 80.0496l-0.1672 0.3379c-0.0228,0.0683 -0.076,0.3164 -0.0916,0.394 -0.0563,0.2797 -0.0995,0.5356 -0.1433,0.805 -0.692,4.2382 -0.6399,8.1682 0.8037,12.2428 2.7849,7.861 9.6656,12.2414 17.7968,14.0323 1.0786,0.2374 2.1308,0.4333 3.2846,0.6397 1.2643,0.2259 2.3396,0.2524 2.8394,1.1709 0.2923,0.5368 0.1232,1.1075 -0.2378,1.3833 -1.1327,0.8646 -3.4806,-1.3852 -4.5132,0.6351 0.4013,0.0428 0.7947,0.2132 1.1355,0.4073 0.3785,0.2155 0.5801,0.5368 0.979,0.7261l-0.1334 0.3441c0.8374,-0.2514 1.1702,-0.3283 2.0114,0.1089 0.7655,0.3978 0.8861,0.8496 1.4975,1.1615 0.0116,-0.2464 -0.1885,-0.1809 0.7556,-0.1084 0.8369,0.0639 2.907,0.0117 3.8061,0.0039 0.1017,0.1376 0.0544,-0.0322 0.0672,0.2577 0.0264,-0.0196 0.0641,-0.0846 0.0757,-0.0626 0.0117,0.0215 0.0581,-0.0481 0.0737,-0.063 0.7377,-0.7038 1.4959,-1.714 3.0314,-1.5154 -0.0088,-0.0194 -0.0937,-0.2968 -0.1086,-0.3316 0.6639,-0.4543 1.3111,-1.1422 2.2273,-1.0843 -0.6888,-1.4147 -1.9141,-0.8448 -2.8563,-0.6191 -1.7539,0.42 -2.3903,-0.7889 -1.4483,-1.8049 0.625,-0.6743 2.04,-0.7495 3.1728,-0.9593 16.0578,-2.9744 25.3981,-14.1375 20.3176,-30.0982 -0.1064,-0.3342 -0.1594,-0.538 -0.386,-0.7731 -0.0555,0.5636 0.1194,1.1465 0.1819,1.623 0.3956,3.0165 -0.1552,7.7833 -0.9909,10.6144 -4.9714,16.8416 -31.3704,20.9319 -45.4543,9.8856 -2.4124,-1.892 -4.2117,-4.4277 -5.5842,-7.9272 -0.64,-1.6319 -1.2371,-3.4238 -1.5508,-5.2365 -0.6018,-3.4757 -0.2433,-5.2532 -0.3913,-6.1899z"/>
  <path id="_568039216" class="fil0" d="M68.658 133.496c0.2263,0.7707 0.7516,1.3274 0.6629,2.4318 -0.3283,4.084 -7.7452,3.2601 -11.0229,1.709 -2.282,-1.0799 -2.0505,-1.2509 -3.2786,-2.7221l-3.917 0.4957c-1.6143,0.0036 -2.5626,-0.346 -3.9438,-0.522 -1.2846,1.5697 -1.3929,2.0176 -3.3986,2.8432 -1.5608,0.6427 -3.1976,1.0453 -5.0181,1.1702 -2.6492,0.1816 -6.124,-0.4336 -5.9672,-3.3181 0.0647,-1.1883 0.5994,-1.6008 0.8835,-2.3226 -1.5403,0.7093 -6.1893,1.3835 -6.5407,3.1761 -0.4106,2.0937 4.3066,3.0764 6.1219,3.4926 9.4067,2.1565 25.6573,2.0477 35.1001,0.079 12.0913,-2.5206 4.2128,-6.0474 0.3185,-6.5128z"/>
  <path id="_568039336" class="fil0" d="M22.2561 101.099c0.6114,0.0811 0.964,-0.1121 1.6007,0.1381 1.1959,0.4699 1.7488,2.2666 -0.3437,2.9697 -1.0982,0.3691 -2.0393,0.221 -2.6709,-0.5487 -0.4784,-0.5828 -0.4636,-1.2591 0.1982,-1.799 0.4819,-0.3931 0.2813,-0.0842 0.4666,-0.4678 -1.4346,0.3876 -4.2903,3.0096 -4.0692,4.8639 0.3948,2.0765 1.9802,3.3244 4.1122,3.1738 1.5691,-0.1109 1.5227,-0.5839 2.2914,-1.3405 0.3985,-0.3921 0.8967,-0.5138 1.4939,-0.4202 0.167,0.0262 0.5943,0.1826 0.7152,0.2583 0.1976,0.1238 0.4318,0.4651 0.458,0.5093 0.749,0.8245 0.9779,1.1863 0.8329,2.8096 -0.0895,1.0011 -0.4999,2.5534 -0.4003,3.4745 0.2767,1.1908 -0.1779,1.256 0.8793,3.201 0.9178,1.6885 2.6686,3.1605 4.3486,3.9501 0.6135,0.2883 2.4532,1.0371 3.1558,0.8973 0.1757,-0.3656 0.3457,-1.1939 0.5546,-1.7051l0.7477 -1.7376c-1.4353,-0.722 -3.1746,-1.1503 -4.1164,-3.4913 -0.8133,-2.0216 -0.2499,-5.3007 -0.8795,-8.6159 -0.2279,-1.1997 -0.8556,-1.0784 -2.88,-2.8107 -0.7274,-0.6223 -1.3334,-1.1539 -1.9861,-1.8132l-1.8943 -2.0268c-0.4888,0.0019 -0.9897,0.0473 -1.4457,0.1209 -0.8495,0.1371 -0.8244,0.1816 -1.0162,0.2975l-0.1528 0.1128z"/>
  <path id="_568039936" class="fil0" d="M45.231 128.391c1.1188,0.2606 1.9705,1.4164 6.2275,1.3793 2.606,-0.0228 4.2207,-0.5684 6.0893,-1.4994 0.7085,-1.4663 0.3694,-6.6095 -0.6544,-7.635 -0.3439,-0.1839 -1.4944,0.0071 -2.7017,-0.9551 -0.358,-0.285 -0.605,-0.5565 -0.8341,-0.9536 -0.2906,-0.5032 -0.2301,-0.5886 -0.3921,-1.0489 -0.0113,-0.0324 -0.0691,-0.1215 -0.0764,-0.1797 -0.0061,-0.0477 -0.0248,-0.0601 -0.0423,-0.0873 -0.2769,0.1935 -1.1641,-0.0428 -1.6259,-0.0484 -0.6315,-0.0076 -1.0507,0.0695 -1.6264,0.1683 0.0672,-0.4713 0.2225,-1.0878 -0.1402,-1.4092 0.1558,2.9663 -1.1075,4.1128 -3.681,4.5381 -0.5976,1.8164 -1.4445,5.8099 -0.5423,7.7309z"/>
  <path id="_568039672" class="fil0" d="M26.044 73.3577l0.2439 -0.5468c0.3685,-1.6407 1.1195,-1.5388 -0.5151,-3.2872 -0.8753,-0.9363 -1.6335,-1.9574 -2.4293,-3.1357 -0.8424,-1.2477 -2.1324,-4.2008 -2.459,-5.8232 -0.161,-0.7986 0.0438,-1.9496 -0.1078,-2.7017 -0.0192,0.0228 -0.0414,0.0327 -0.0469,0.0765 -0.0057,0.0447 -0.0364,0.0603 -0.0435,0.0808 -0.1352,0.3883 -0.1071,0.5482 -0.0953,1.0072 0.1031,3.9894 -0.7963,10.8863 0.0097,13.7926l1.4216 3.8901c0.4569,-0.4631 1.5319,-4.4055 2.7551,-4.7543 1.0661,-0.3039 1.3381,0.4998 1.2666,1.4017z"/>
  <path id="_568039552" class="fil0" d="M75.434 72.5595c-0.6522,-2.7019 1.1903,-2.5779 2.0054,-1.1723l1.8443 3.599c0.7378,-0.4664 1.216,-2.9678 1.3406,-3.9913 0.5676,-4.6676 -0.6686,-8.1415 -1.0628,-11.8902 -0.0712,-0.6763 0.1478,-2.0894 -0.2836,-2.5105 -0.24,1.3591 0.552,1.2448 -0.3745,4.7111 -1.2033,4.5022 -4.2085,7.0998 -4.1219,9.0026 0.019,0.417 0.2829,1.7862 0.4196,1.9995 0.5392,0.8399 -0.4939,-0.3476 0.2329,0.2521z"/>
  <path id="_568040080" class="fil0" d="M37.9356 133.268c2.4809,-0.0759 3.7681,1.8084 2.0467,2.9358l-0.2739 0.2055c2.2879,-0.2954 4.5192,-1.1356 5.502,-2.5601 1.1945,-1.732 -0.4909,-1.3558 -1.2565,-4.871 -0.0485,-0.2232 -0.1128,-0.5576 -0.258,-0.7459l-0.0243 0.5945 -3.7224 -0.8433c-1.1835,-0.4025 -2.1521,-1.6339 -2.5984,-1.8915 0.0579,2.0493 0.7535,3.296 1.7105,4.4431 1.2657,1.5175 2.7869,1.8337 3.0343,2.2076 0.0958,0.1445 0.056,0.0171 0.0794,0.2368 0.0563,0.5299 0.0376,0.0745 -0.0624,0.2767 -1.0812,-0.2444 -3.2256,-0.9196 -4.177,0.0118z"/>
  <path id="_568040008" class="fil0" d="M58.9845 128.378c-0.2228,0.2649 -0.6894,1.9887 -0.946,2.5135 -0.4801,0.9816 -0.9523,1.2867 -1.3804,1.9653 0.5272,2.0551 3.0146,3.1576 5.4824,3.4392 -0.399,-0.424 -0.525,-0.4181 -0.618,-1.0131 -0.0799,-0.5118 -0.0038,-0.9412 0.2654,-1.2342 0.7187,-0.7828 1.8508,-0.7434 2.4404,-0.7642 -1.0501,-1.2075 -3.4855,0.1658 -4.1489,-0.0205l0.5282 -0.8744c0.4112,-0.3901 4.1005,-1.6873 4.1684,-6.6539l-0.5695 0.6454c-0.3656,0.4243 -1.3087,1.049 -1.8796,1.318 -1.1575,0.546 -1.8901,0.7068 -3.2719,1.0374l-0.0705 -0.3585z"/>
  <path id="_568040920" class="fil3" d="M33.9271 88.924c-2.4369,0.3512 -4.4804,1.5339 -5.6156,3.456 -0.4841,0.8193 -0.2464,1.8951 0.5071,2.1335 1.575,0.4983 1.4528,-1.3076 3.5292,-2.4905 1.3943,-0.7942 3.48,-0.7339 4.9567,-0.0852 1.8767,0.8244 2.2343,1.9747 3.0403,3.0091 0.8331,1.0693 3.3956,0.4099 1.5897,-2.1787 -1.4092,-2.0199 -4.1746,-4.3967 -8.0074,-3.8442z"/>
  <path id="_568040536" class="fil3" d="M66.5988 87.9056c-2.0504,0.2427 -2.9502,0.727 -4.2401,1.7264 -2.6054,2.0177 -3.2136,5.3417 -1.1834,5.1309 1.6699,-0.1735 1.079,-3.1631 4.7183,-4.1998 3.8407,-1.094 5.6515,1.9395 6.194,2.3289 0.8142,0.5839 1.7548,0.0327 1.9331,-0.6489 0.448,-1.712 -3.3738,-4.8169 -7.4219,-4.3375z"/>
  <path id="_568040896" class="fil3" d="M51.5771 99.0596c0.9967,0.4711 1.6769,1.3168 3.3435,0.585 2.232,-0.9802 2.0937,-4.0781 0.2457,-3.5791 -0.7305,0.197 -0.5539,0.8741 -0.9743,1.2029 -1.0347,0.8095 -1.5353,-1.4642 -3.1577,-0.9325 -0.8727,0.2861 -1.6614,2.1864 -2.6125,0.9847 -0.3432,-0.4335 -0.5047,-1.0093 -1.3237,-0.8847 -1.5431,0.2348 -1.0476,3.0257 1.1933,3.6288 1.5919,0.4285 2.4707,-0.474 3.2857,-1.0051z"/>
  <path id="_568040872" class="fil3" d="M78.8927 116.42c0.997,-2.2694 -2.5324,-3.8269 -3.4561,-1.4972 -0.495,1.2489 0.3015,2.2047 1.0573,2.5013 1.0529,0.4129 2.124,-0.3789 2.3988,-1.0041z"/>
  <path id="_568040872_0" class="fil3" d="M92.4265 15.3304c0.9695,-2.2068 -2.4626,-3.7213 -3.3608,-1.4559 -0.4814,1.2145 0.2932,2.1438 1.0281,2.4323 1.0239,0.4015 2.0655,-0.3685 2.3327,-0.9764z"/>
  <path id="_568040872_1" class="fil3" d="M28.855 30.092c0.9695,-2.2068 -2.4626,-3.7213 -3.3608,-1.4559 -0.4814,1.2145 0.2932,2.1438 1.0281,2.4323 1.0239,0.4015 2.0655,-0.3685 2.3327,-0.9764z"/>
  <path id="_568040872_2" class="fil3" d="M45.9975 11.6375c0.9695,-2.2068 -2.4626,-3.7213 -3.3608,-1.4559 -0.4814,1.2145 0.2932,2.1438 1.0281,2.4323 1.0239,0.4015 2.0655,-0.3685 2.3327,-0.9764z"/>
  <path id="_568040872_3" class="fil3" d="M69.7796 12.4239c0.9695,-2.2068 -2.4626,-3.7213 -3.3608,-1.4559 -0.4814,1.2145 0.2932,2.1438 1.0281,2.4323 1.0239,0.4015 2.0655,-0.3685 2.3327,-0.9764z"/>
  <path id="_568040872_4" class="fil3" d="M84.9287 14.3971c0.9695,2.2068 -2.4626,3.7213 -3.3608,1.4559 -0.4814,-1.2145 0.2932,-2.1438 1.0281,-2.4323 1.0239,-0.4015 2.0655,0.3685 2.3327,0.9764z"/>
  <path id="_568040872_5" class="fil3" d="M21.3572 29.1587c0.9695,2.2068 -2.4626,3.7213 -3.3608,1.4559 -0.4814,-1.2145 0.2932,-2.1438 1.0281,-2.4323 1.0239,-0.4015 2.0655,0.3685 2.3327,0.9764z"/>
  <path id="_568040872_6" class="fil3" d="M38.4997 10.7042c0.9695,2.2068 -2.4626,3.7213 -3.3608,1.4559 -0.4814,-1.2145 0.2932,-2.1438 1.0281,-2.4323 1.0239,-0.4015 2.0655,0.3685 2.3327,0.9764z"/>
  <path id="_568040872_7" class="fil3" d="M62.2818 11.4906c0.9695,2.2068 -2.4626,3.7213 -3.3608,1.4559 -0.4814,-1.2145 0.2932,-2.1438 1.0281,-2.4323 1.0239,-0.4015 2.0655,0.3685 2.3327,0.9764z"/>
  <path id="_568040224" class="fil3" d="M77.3612 112.204c0.3072,1.8404 3.65,1.3943 3.111,-0.7915 -0.4644,-1.883 -3.4958,-1.5129 -3.111,0.7915z"/>
  <path id="_568040224_8" class="fil3" d="M90.9372 11.2311c0.2988,1.7897 3.5494,1.3558 3.0252,-0.7696 -0.4515,-1.8311 -3.3994,-1.4712 -3.0252,0.7696z"/>
  <path id="_568040224_9" class="fil3" d="M27.3657 25.9927c0.2988,1.7897 3.5494,1.3558 3.0252,-0.7696 -0.4515,-1.8311 -3.3994,-1.4712 -3.0252,0.7696z"/>
  <path id="_568040224_10" class="fil3" d="M44.5082 7.5382c0.2988,1.7897 3.5494,1.3558 3.0252,-0.7696 -0.4515,-1.8311 -3.3994,-1.4712 -3.0252,0.7696z"/>
  <path id="_568040224_11" class="fil3" d="M68.2903 8.3246c0.2988,1.7897 3.5494,1.3558 3.0252,-0.7696 -0.4515,-1.8311 -3.3994,-1.4712 -3.0252,0.7696z"/>
  <path id="_568040224_12" class="fil3" d="M83.4394 18.4964c0.2988,-1.7897 3.5494,-1.3558 3.0252,0.7696 -0.4515,1.8311 -3.3994,1.4712 -3.0252,-0.7696z"/>
  <path id="_568040224_13" class="fil3" d="M19.8679 33.258c0.2988,-1.7897 3.5494,-1.3558 3.0252,0.7696 -0.4515,1.8311 -3.3994,1.4712 -3.0252,-0.7696z"/>
  <path id="_568040224_14" class="fil3" d="M37.0104 14.8035c0.2988,-1.7897 3.5494,-1.3558 3.0252,0.7696 -0.4515,1.8311 -3.3994,1.4712 -3.0252,-0.7696z"/>
  <path id="_568040224_15" class="fil3" d="M60.7925 15.5899c0.2988,-1.7897 3.5494,-1.3558 3.0252,0.7696 -0.4515,1.8311 -3.3994,1.4712 -3.0252,-0.7696z"/>
  <path id="_568040488" class="fil3" d="M72.2574 113.391c0.6537,1.8231 3.6439,0.9098 2.8814,-1.125 -0.7097,-1.8941 -3.6174,-0.9273 -2.8814,1.125z"/>
  <path id="_568040488_16" class="fil3" d="M85.9741 12.3854c0.6357,1.7729 3.5435,0.8848 2.802,-1.0939 -0.6901,-1.8419 -3.5177,-0.9018 -2.802,1.0939z"/>
  <path id="_568040488_17" class="fil3" d="M22.4026 27.147c0.6357,1.7729 3.5435,0.8848 2.802,-1.0939 -0.6901,-1.8419 -3.5177,-0.9018 -2.802,1.0939z"/>
  <path id="_568040488_18" class="fil3" d="M39.5451 8.6925c0.6357,1.7729 3.5435,0.8848 2.802,-1.0939 -0.6901,-1.8419 -3.5177,-0.9018 -2.802,1.0939z"/>
  <path id="_568040488_19" class="fil3" d="M63.3272 9.4789c0.6357,1.7729 3.5435,0.8848 2.802,-1.0939 -0.6901,-1.8419 -3.5177,-0.9018 -2.802,1.0939z"/>
  <path id="_568040488_20" class="fil3" d="M78.4763 17.3421c0.6357,-1.7729 3.5435,-0.8848 2.802,1.0939 -0.6901,1.8419 -3.5177,0.9018 -2.802,-1.0939z"/>
  <path id="_568040488_21" class="fil3" d="M14.9048 32.1037c0.6357,-1.7729 3.5435,-0.8848 2.802,1.0939 -0.6901,1.8419 -3.5177,0.9018 -2.802,-1.0939z"/>
  <path id="_568040488_22" class="fil3" d="M32.0473 13.6492c0.6357,-1.7729 3.5435,-0.8848 2.802,1.0939 -0.6901,1.8419 -3.5177,0.9018 -2.802,-1.0939z"/>
  <path id="_568040488_23" class="fil3" d="M55.8294 14.4356c0.6357,-1.7729 3.5435,-0.8848 2.802,1.0939 -0.6901,1.8419 -3.5177,0.9018 -2.802,-1.0939z"/>
  <g id="_473817624">
   <path id="_568040872_24" class="fil3" d="M81.4531 10.721c0.9695,-2.2068 -2.4626,-3.7213 -3.3608,-1.4559 -0.4814,1.2145 0.2932,2.1438 1.0281,2.4323 1.0239,0.4015 2.0655,-0.3685 2.3327,-0.9764z"/>
   <path id="_568040224_25" class="fil3" d="M79.9638 6.6217c0.2988,1.7897 3.5494,1.3558 3.0252,-0.7696 -0.4515,-1.8311 -3.3994,-1.4712 -3.0252,0.7696z"/>
   <path id="_568040488_26" class="fil3" d="M75.0007 7.776c0.6357,1.7729 3.5435,0.8848 2.802,-1.0939 -0.6901,-1.8419 -3.5177,-0.9018 -2.802,1.0939z"/>
  </g>
  <g id="_473823984">
   <path id="_568040872_27" class="fil3" d="M17.8816 25.4826c0.9695,-2.2068 -2.4626,-3.7213 -3.3608,-1.4559 -0.4814,1.2145 0.2932,2.1438 1.0281,2.4323 1.0239,0.4015 2.0655,-0.3685 2.3327,-0.9764z"/>
   <path id="_568040224_28" class="fil3" d="M16.3923 21.3833c0.2988,1.7897 3.5494,1.3558 3.0252,-0.7696 -0.4515,-1.8311 -3.3994,-1.4712 -3.0252,0.7696z"/>
   <path id="_568040488_29" class="fil3" d="M11.4292 22.5376c0.6357,1.7729 3.5435,0.8848 2.802,-1.0939 -0.6901,-1.8419 -3.5177,-0.9018 -2.802,1.0939z"/>
  </g>
  <g id="_376490440">
   <path id="_568040872_30" class="fil3" d="M35.0241 7.0281c0.9695,-2.2068 -2.4626,-3.7213 -3.3608,-1.4559 -0.4814,1.2145 0.2932,2.1438 1.0281,2.4323 1.0239,0.4015 2.0655,-0.3685 2.3327,-0.9764z"/>
   <path id="_568040224_31" class="fil3" d="M33.5348 2.9288c0.2988,1.7897 3.5494,1.3558 3.0252,-0.7696 -0.4515,-1.8311 -3.3994,-1.4712 -3.0252,0.7696z"/>
   <path id="_568040488_32" class="fil3" d="M28.5717 4.0831c0.6357,1.7729 3.5435,0.8848 2.802,-1.0939 -0.6901,-1.8419 -3.5177,-0.9018 -2.802,1.0939z"/>
  </g>
  <g id="_376489264">
   <path id="_568040872_33" class="fil3" d="M58.8062 7.8145c0.9695,-2.2068 -2.4626,-3.7213 -3.3608,-1.4559 -0.4814,1.2145 0.2932,2.1438 1.0281,2.4323 1.0239,0.4015 2.0655,-0.3685 2.3327,-0.9764z"/>
   <path id="_568040224_34" class="fil3" d="M57.3169 3.7152c0.2988,1.7897 3.5494,1.3558 3.0252,-0.7696 -0.4515,-1.8311 -3.3994,-1.4712 -3.0252,0.7696z"/>
   <path id="_568040488_35" class="fil3" d="M52.3538 4.8695c0.6357,1.7729 3.5435,0.8848 2.802,-1.0939 -0.6901,-1.8419 -3.5177,-0.9018 -2.802,1.0939z"/>
  </g>
  <g id="_376887272">
   <path id="_568040872_36" class="fil3" d="M73.9553 19.0065c0.9695,2.2068 -2.4626,3.7213 -3.3608,1.4559 -0.4814,-1.2145 0.2932,-2.1438 1.0281,-2.4323 1.0239,-0.4015 2.0655,0.3685 2.3327,0.9764z"/>
   <path id="_568040224_37" class="fil3" d="M72.466 23.1058c0.2988,-1.7897 3.5494,-1.3558 3.0252,0.7696 -0.4515,1.8311 -3.3994,1.4712 -3.0252,-0.7696z"/>
   <path id="_568040488_38" class="fil3" d="M67.5029 21.9515c0.6357,-1.7729 3.5435,-0.8848 2.802,1.0939 -0.6901,1.8419 -3.5177,0.9018 -2.802,-1.0939z"/>
  </g>
  <g id="_473823480">
   <path id="_568040872_39" class="fil3" d="M10.3838 33.7681c0.9695,2.2068 -2.4626,3.7213 -3.3608,1.4559 -0.4814,-1.2145 0.2932,-2.1438 1.0281,-2.4323 1.0239,-0.4015 2.0655,0.3685 2.3327,0.9764z"/>
   <path id="_568040224_40" class="fil3" d="M8.8945 37.8674c0.2988,-1.7897 3.5494,-1.3558 3.0252,0.7696 -0.4515,1.8311 -3.3994,1.4712 -3.0252,-0.7696z"/>
   <path id="_568040488_41" class="fil3" d="M3.9314 36.7131c0.6357,-1.7729 3.5435,-0.8848 2.802,1.0939 -0.6901,1.8419 -3.5177,0.9018 -2.802,-1.0939z"/>
  </g>
  <g id="_376491424">
   <path id="_568040872_42" class="fil3" d="M27.5263 15.3136c0.9695,2.2068 -2.4626,3.7213 -3.3608,1.4559 -0.4814,-1.2145 0.2932,-2.1438 1.0281,-2.4323 1.0239,-0.4015 2.0655,0.3685 2.3327,0.9764z"/>
   <path id="_568040224_43" class="fil3" d="M26.037 19.4129c0.2988,-1.7897 3.5494,-1.3558 3.0252,0.7696 -0.4515,1.8311 -3.3994,1.4712 -3.0252,-0.7696z"/>
   <path id="_568040488_44" class="fil3" d="M21.0739 18.2586c0.6357,-1.7729 3.5435,-0.8848 2.802,1.0939 -0.6901,1.8419 -3.5177,0.9018 -2.802,-1.0939z"/>
  </g>
  <g id="_376488712">
   <path id="_568040872_45" class="fil3" d="M51.3084 16.1c0.9695,2.2068 -2.4626,3.7213 -3.3608,1.4559 -0.4814,-1.2145 0.2932,-2.1438 1.0281,-2.4323 1.0239,-0.4015 2.0655,0.3685 2.3327,0.9764z"/>
   <path id="_568040224_46" class="fil3" d="M49.8191 20.1993c0.2988,-1.7897 3.5494,-1.3558 3.0252,0.7696 -0.4515,1.8311 -3.3994,1.4712 -3.0252,-0.7696z"/>
   <path id="_568040488_47" class="fil3" d="M44.856 19.045c0.6357,-1.7729 3.5435,-0.8848 2.802,1.0939 -0.6901,1.8419 -3.5177,0.9018 -2.802,-1.0939z"/>
  </g>
  <g id="_473823144">
   <path id="_568040104" class="fil3" d="M43.6959 128.232c0.1452,0.1883 0.2095,0.5227 0.258,0.7459 0.7656,3.5152 2.451,3.139 1.2565,4.871 -0.9828,1.4245 -3.2141,2.2647 -5.502,2.5601 -1.1752,0.2474 -3.7948,0.4723 -4.3855,-0.4768 -0.7093,-1.1403 1.89,-2.6347 2.6127,-2.6645 0.9514,-0.9314 3.0958,-0.2562 4.177,-0.0118 0.1,-0.2022 0.1187,0.2532 0.0624,-0.2767 -0.0234,-0.2197 0.0164,-0.0923 -0.0794,-0.2368 -0.2474,-0.3739 -1.7686,-0.6901 -3.0343,-2.2076 -0.957,-1.1471 -1.6526,-2.3938 -1.7105,-4.4431 -0.1601,-1.5403 0.3633,-3.5604 0.9207,-4.7667l2.267 -3.5065c0.3815,0.3252 0.8984,1.1626 1.6072,1.5639l2.3032 1.0486c-0.0627,0.5151 -0.3127,1.0713 -0.4605,1.6489 -0.7527,2.9434 -0.1033,4.4328 -0.2925,6.1521zm21.0801 -2.4964c-0.0679,4.9666 -3.7572,6.2638 -4.1684,6.6539l-0.5282 0.8744c0.6634,0.1863 3.0988,-1.187 4.1489,0.0205 0.8369,0.0878 3.1997,1.5735 2.5857,2.6902 -0.5022,0.913 -3.5915,0.6357 -4.6735,0.3213 -2.4678,-0.2816 -4.9552,-1.3841 -5.4824,-3.4392 0.4281,-0.6786 0.9003,-0.9837 1.3804,-1.9653 0.2566,-0.5248 0.7232,-2.2486 0.946,-2.5135 -0.0565,-0.6794 0.42,-2.7424 0.1359,-4.4096l-0.9007 -3.7168 3.2733 -2.384c1.3827,0.6619 3.4577,5.0961 3.283,7.8681zm-24.9281 -13.2677c-0.542,1.2959 -0.4086,1.7484 -0.4023,3.178l-1.5182 1.5655c-4.0642,-0.4893 -3.4963,-4.3379 -3.5152,-6.4321 -0.0077,-0.8722 -0.2841,-2.4013 -0.2276,-3.0247 2.6076,1.0753 3.5347,1.5502 6.2207,2.2116 0.3312,0.0816 0.6256,0.1414 0.8857,0.3384 -0.5288,0.6819 -1.0935,1.3275 -1.4431,2.1633zm-22.4101 -6.213c-0.2211,-1.8543 2.6346,-4.4763 4.0692,-4.8639 0.2204,-0.2044 0.407,-0.2822 0.7491,-0.2923l0.1528 -0.1128c0.1918,-0.1159 0.1667,-0.1604 1.0162,-0.2975 0.456,-0.0736 0.9569,-0.119 1.4457,-0.1209l1.8943 2.0268c0.6527,0.6593 1.2587,1.1909 1.9861,1.8132 2.0244,1.7323 2.6521,1.611 2.88,2.8107 0.6296,3.3152 0.0662,6.5943 0.8795,8.6159 0.9418,2.341 2.6811,2.7693 4.1164,3.4913l-0.7477 1.7376c-0.2089,0.5112 -0.3789,1.3395 -0.5546,1.7051 -0.4512,3.0522 -0.3912,1.8397 -0.1762,5.0408 -3.6361,-0.4337 -7.1203,-4.2755 -8.1105,-8.0417 -0.2633,-1.0016 -0.6258,-4.281 -0.097,-5.0475 -0.0996,-0.9211 0.3108,-2.4734 0.4003,-3.4745 0.145,-1.6233 -0.0839,-1.9851 -0.8329,-2.8096 -0.8748,-0.1024 -1.4535,0.0225 -1.4839,1.0333 -0.036,1.2061 0.187,1.2512 -0.5752,1.9556 -1.8243,1.6869 -5.0283,1.4737 -6.6154,-1.2074 -0.5752,-0.9719 -0.8576,-2.7631 -0.4875,-3.7834 0.0081,-0.0229 0.0376,-0.0404 0.0441,-0.0901 0.0065,-0.0499 0.0276,-0.0615 0.0472,-0.0887zm3.3389 -48.3922c0.2776,-1.938 6.4917,1.3498 7.2691,1.7905 2.2206,1.2584 4.1643,2.8586 5.8888,4.3187 2.1647,1.8328 1.8352,0.0596 7.0177,-1.8007 2.6246,-0.942 5.5252,-1.5242 8.5486,-1.6678 4.7753,-0.2268 8.9286,0.4317 13.2072,2.1127 1.7271,0.6785 2.7489,1.6251 3.7857,1.0098 0.3673,-0.2179 1.0357,-0.977 1.3396,-1.2764 2.2506,-2.2164 8.343,-7.1648 11.3202,-6.2053l0.1243 0.4496c0.4314,0.4211 0.2124,1.8342 0.2836,2.5105 0.3942,3.7487 1.6304,7.2226 1.0628,11.8902 -0.1246,1.0235 -0.6028,3.5249 -1.3406,3.9913l-1.8443 -3.599c-0.8151,-1.4056 -2.6576,-1.5296 -2.0054,1.1723 0.3897,0.3905 2.1052,4.1248 2.0901,4.7207 0.2266,0.2351 0.2796,0.4389 0.386,0.7731 5.0805,15.9607 -4.2598,27.1238 -20.3176,30.0982 -1.1328,0.2098 -2.5478,0.285 -3.1728,0.9593 -0.942,1.016 -0.3056,2.2249 1.4483,1.8049 0.9422,-0.2257 2.1675,-0.7956 2.8563,0.6191 0.6471,0.1811 1.8906,2.1162 1.5808,3.5781 -0.7817,3.6908 -6.4242,4.0233 -5.1605,0.7926 0.5417,-1.3845 2.9396,-1.5493 1.461,-2.9548 -1.5355,-0.1986 -2.2937,0.8116 -3.0314,1.5154 -0.0156,0.0149 -0.062,0.0845 -0.0737,0.063 -0.0116,-0.022 -0.0493,0.043 -0.0757,0.0626 -0.0714,0.4233 -0.3257,0.6965 -0.4515,1.2542 -0.136,0.6039 -0.0319,1.0502 -0.1265,1.565 0.0175,0.0272 0.0362,0.0396 0.0423,0.0873 0.0073,0.0582 0.0651,0.1473 0.0764,0.1797 0.162,0.4603 0.1015,0.5457 0.3921,1.0489 0.2291,0.3971 0.4761,0.6686 0.8341,0.9536 1.2073,0.9622 2.3578,0.7712 2.7017,0.9551 1.0238,1.0255 1.3629,6.1687 0.6544,7.635 -0.5799,3.6666 -2.5303,4.7353 -6.0893,4.7746 -1.5402,0.017 -3.4851,-0.1533 -4.4879,-0.9228 -0.7497,-0.5752 -1.6207,-2.3517 -1.7396,-3.7317 -0.9022,-1.921 -0.0553,-5.9145 0.5423,-7.7309 2.5735,-0.4253 3.8368,-1.5718 3.681,-4.5381 -0.1535,-0.6776 -0.575,-1.218 -0.6584,-1.6831 -0.6114,-0.3119 -0.732,-0.7637 -1.4975,-1.1615 -0.8412,-0.4372 -1.174,-0.3603 -2.0114,-0.1089 -0.2268,1.2521 -0.2488,0.8939 0.7916,1.5672 0.4415,0.2857 1.0081,0.8175 1.1779,1.4416 0.867,3.1879 -4.4392,2.4387 -5.3816,-1.0289 -0.3788,-1.3937 0.639,-3.0801 1.431,-3.4574 1.0326,-2.0203 3.3805,0.2295 4.5132,-0.6351 0.361,-0.2758 0.5301,-0.8465 0.2378,-1.3833 -0.4998,-0.9185 -1.5751,-0.945 -2.8394,-1.1709 -1.1538,-0.2064 -2.206,-0.4023 -3.2846,-0.6397 -8.1312,-1.7909 -15.0119,-6.1713 -17.7968,-14.0323 -1.4436,-4.0746 -1.4957,-8.0046 -0.8037,-12.2428 0.0438,-0.2694 0.087,-0.5253 0.1433,-0.805 0.0156,-0.0776 0.0688,-0.3257 0.0916,-0.394l0.1672 -0.3379c-0.1119,-1.3251 1.7867,-5.7192 2.3095,-6.6919 0.0715,-0.9019 -0.2005,-1.7056 -1.2666,-1.4017 -1.2232,0.3488 -2.2982,4.2912 -2.7551,4.7543l-1.4216 -3.8901c-0.806,-2.9063 0.0934,-9.8032 -0.0097,-13.7926 -0.0118,-0.459 -0.0399,-0.6189 0.0953,-1.0072 0.0071,-0.0205 0.0378,-0.0361 0.0435,-0.0808 0.0055,-0.0438 0.0277,-0.0537 0.0469,-0.0765zm12.8815 75.3983c-0.2841,0.7218 -0.8188,1.1343 -0.8835,2.3226 -0.1568,2.8845 3.318,3.4997 5.9672,3.3181 1.8205,-0.1249 3.4573,-0.5275 5.0181,-1.1702 2.0057,-0.8256 2.114,-1.2735 3.3986,-2.8432 1.3812,0.176 2.3295,0.5256 3.9438,0.522l3.917 -0.4957c1.2281,1.4712 0.9966,1.6422 3.2786,2.7221 3.2777,1.5511 10.6946,2.375 11.0229,-1.709 0.0887,-1.1044 -0.4366,-1.6611 -0.6629,-2.4318 -0.4773,-0.236 -0.6555,-0.9791 -3.1648,-2.3338 1.6059,-3.0701 2.2297,-4.7679 1.2504,-8.7157 -0.648,-2.6134 -2.5669,-5.509 -4.0239,-6.7656l-0.5293 -3.4055c-0.2422,-0.8192 -1.3714,-1.8917 -1.5056,-2.3268 6.6514,-1.9797 12.0901,-4.123 16.5829,-10.0394 4.0302,-5.3076 5.767,-13.141 3.2812,-21.1822 -0.4642,-1.5017 0.9055,-1.138 1.846,-4.5548 0.5014,-1.8208 0.7542,-3.8658 0.7292,-5.8864 -0.0272,-2.2001 -1.0175,-9.4221 -1.4103,-11.8492 -0.3597,-2.2235 -1.2047,-3.1964 -3.7846,-2.8798 -1.7372,0.2129 -3.511,1.0283 -4.8966,1.7643 -2.9445,1.5641 -5.1728,3.6424 -7.4249,5.8333 -2.6683,-1.0597 -4.0423,-1.7203 -6.9255,-2.3312 -5.4591,-1.1573 -11.2293,-1.0601 -16.6165,0.4355 -1.5218,0.4225 -3.6287,1.2014 -5.0176,1.9747 -0.4578,0.2549 -1.0399,0.6626 -1.4947,0.801l-2.6707 -2.1155c-2.3195,-1.8366 -6.2616,-4.0868 -9.305,-4.8142 -3.6553,-0.8737 -5.1456,-0.0835 -5.3091,3.5625 -0.1338,2.9867 -0.3526,6.0577 -0.3914,9.0257 -0.0406,3.1042 0.1259,5.7329 1.1042,8.3755 1.4772,3.9912 2.5923,2.6719 2.0764,4.7584 -0.7506,3.0349 -0.6517,7.8296 -0.042,10.7867 0.248,1.2019 0.6654,2.632 1.0831,3.6546 0.2296,0.5621 1.3873,2.8601 1.4041,3.1003l-6.0704 2.837c-1.2884,1.3561 -2.5487,3.3559 -2.6357,6.1299 -0.0887,2.8264 1.2681,4.9654 2.6941,6.0777 2.6596,2.0745 4.6599,1.3704 6.9669,0.8887l0.4332 6.671c0.3162,0.9628 0.6663,1.7077 1.122,2.5522 1.1931,2.211 3.2111,4.278 5.5548,5.4869 3.3608,1.7333 4.6125,0.8833 5.058,2.1833l-1.6531 0.9592c-0.503,0.3541 -0.9253,0.8597 -1.3146,1.1068z"/>
   <path id="_568041304" class="fil4" d="M51.5771 99.0596c-0.815,0.5311 -1.6938,1.4336 -3.2857,1.0051 -2.2409,-0.6031 -2.7364,-3.394 -1.1933,-3.6288 0.819,-0.1246 0.9805,0.4512 1.3237,0.8847 0.9511,1.2017 1.7398,-0.6986 2.6125,-0.9847 1.6224,-0.5317 2.123,1.742 3.1577,0.9325 0.4204,-0.3288 0.2438,-1.0059 0.9743,-1.2029 1.848,-0.499 1.9863,2.5989 -0.2457,3.5791 -1.6666,0.7318 -2.3468,-0.1139 -3.3435,-0.585zm-17.65 -10.1356c3.8328,-0.5525 6.5982,1.8243 8.0074,3.8442 1.8059,2.5886 -0.7566,3.248 -1.5897,2.1787 -0.806,-1.0344 -1.1636,-2.1847 -3.0403,-3.0091 -1.4767,-0.6487 -3.5624,-0.709 -4.9567,0.0852 -2.0764,1.1829 -1.9542,2.9888 -3.5292,2.4905 -0.7535,-0.2384 -0.9912,-1.3142 -0.5071,-2.1335 1.1352,-1.9221 3.1787,-3.1048 5.6156,-3.456zm32.6717 -1.0184c4.0481,-0.4794 7.8699,2.6255 7.4219,4.3375 -0.1783,0.6816 -1.1189,1.2328 -1.9331,0.6489 -0.5425,-0.3894 -2.3533,-3.4229 -6.194,-2.3289 -3.6393,1.0367 -3.0484,4.0263 -4.7183,4.1998 -2.0302,0.2108 -1.422,-3.1132 1.1834,-5.1309 1.2899,-0.9994 2.1897,-1.4837 4.2401,-1.7264zm-45.8221 -30.0425c0.1516,0.7521 -0.0532,1.9031 0.1078,2.7017 0.3266,1.6224 1.6166,4.5755 2.459,5.8232 0.7958,1.1783 1.554,2.1994 2.4293,3.1357 1.6346,1.7484 0.8836,1.6465 0.5151,3.2872l-0.2439 0.5468c-0.5228,0.9727 -2.4214,5.3668 -2.3095,6.6919 0.148,0.9367 -0.2105,2.7142 0.3913,6.1899 0.3137,1.8127 0.9108,3.6046 1.5508,5.2365 1.3725,3.4995 3.1718,6.0352 5.5842,7.9272 14.0839,11.0463 40.4829,6.956 45.4543,-9.8856 0.8357,-2.8311 1.3865,-7.5979 0.9909,-10.6144 -0.0625,-0.4765 -0.2374,-1.0594 -0.1819,-1.623 0.0151,-0.5959 -1.7004,-4.3302 -2.0901,-4.7207 -0.7268,-0.5997 0.3063,0.5878 -0.2329,-0.2521 -0.1367,-0.2133 -0.4006,-1.5825 -0.4196,-1.9995 -0.0866,-1.9028 2.9186,-4.5004 4.1219,-9.0026 0.9265,-3.4663 0.1345,-3.352 0.3745,-4.7111l-0.1243 -0.4496c-2.9772,-0.9595 -9.0696,3.9889 -11.3202,6.2053 -0.3039,0.2994 -0.9723,1.0585 -1.3396,1.2764 -1.0368,0.6153 -2.0586,-0.3313 -3.7857,-1.0098 -4.2786,-1.681 -8.4319,-2.3395 -13.2072,-2.1127 -3.0234,0.1436 -5.924,0.7258 -8.5486,1.6678 -5.1825,1.8603 -4.853,3.6335 -7.0177,1.8007 -1.7245,-1.4601 -3.6682,-3.0603 -5.8888,-4.3187 -0.7774,-0.4407 -6.9915,-3.7285 -7.2691,-1.7905z"/>
  </g>
  <path id="_568041184" class="fil4" d="M37.3508 126.092c0.4463,0.2576 1.4149,1.489 2.5984,1.8915l3.7224 0.8433 0.0243 -0.5945c0.1892,-1.7193 -0.4602,-3.2087 0.2925,-6.1521 0.1478,-0.5776 0.3978,-1.1338 0.4605,-1.6489l-2.3032 -1.0486c-0.7088,-0.4013 -1.2257,-1.2387 -1.6072,-1.5639l-2.267 3.5065c-0.5574,1.2063 -1.0808,3.2264 -0.9207,4.7667z"/>
  <path id="_568041688" class="fil4" d="M58.9845 128.378l0.0705 0.3585c1.3818,-0.3306 2.1144,-0.4914 3.2719,-1.0374 0.5709,-0.269 1.514,-0.8937 1.8796,-1.318l0.5695 -0.6454c0.1747,-2.772 -1.9003,-7.2062 -3.283,-7.8681l-3.2733 2.384 0.9007 3.7168c0.2841,1.6672 -0.1924,3.7302 -0.1359,4.4096z"/>
  <path id="_568041328" class="fil4" d="M56.6056 112.951c1.4786,1.4055 -0.9193,1.5703 -1.461,2.9548 -1.2637,3.2307 4.3788,2.8982 5.1605,-0.7926 0.3098,-1.4619 -0.9337,-3.397 -1.5808,-3.5781 -0.9162,-0.0579 -1.5634,0.63 -2.2273,1.0843 0.0149,0.0348 0.0998,0.3122 0.1086,0.3316z"/>
  <path id="_568041424" class="fil4" d="M45.287 113.168l0.1334 -0.3441c-0.3989,-0.1893 -0.6005,-0.5106 -0.979,-0.7261 -0.3408,-0.1941 -0.7342,-0.3645 -1.1355,-0.4073 -0.792,0.3773 -1.8098,2.0637 -1.431,3.4574 0.9424,3.4676 6.2486,4.2168 5.3816,1.0289 -0.1698,-0.6241 -0.7364,-1.1559 -1.1779,-1.4416 -1.0404,-0.6733 -1.0184,-0.3151 -0.7916,-1.5672z"/>
  <path id="_568041088" class="fil4" d="M39.7084 136.409l0.2739 -0.2055c1.7214,-1.1274 0.4342,-3.0117 -2.0467,-2.9358 -0.7227,0.0298 -3.322,1.5242 -2.6127,2.6645 0.5907,0.9491 3.2103,0.7242 4.3855,0.4768z"/>
  <path id="_568041544" class="fil4" d="M62.1405 136.296c1.082,0.3144 4.1713,0.5917 4.6735,-0.3213 0.614,-1.1167 -1.7488,-2.6024 -2.5857,-2.6902 -0.5896,0.0208 -1.7217,-0.0186 -2.4404,0.7642 -0.2692,0.293 -0.3453,0.7224 -0.2654,1.2342 0.093,0.595 0.219,0.5891 0.618,1.0131z"/>
  <path id="_568042000" class="fil4" d="M48.7959 114.439c0.0834,0.4651 0.5049,1.0055 0.6584,1.6831 0.3627,0.3214 0.2074,0.9379 0.1402,1.4092 0.5757,-0.0988 0.9949,-0.1759 1.6264,-0.1683 0.4618,0.0056 1.349,0.2419 1.6259,0.0484 0.0946,-0.5148 -0.0095,-0.9611 0.1265,-1.565 0.1258,-0.5577 0.3801,-0.8309 0.4515,-1.2542 -0.0128,-0.2899 0.0345,-0.1201 -0.0672,-0.2577 -0.8991,0.0078 -2.9692,0.06 -3.8061,-0.0039 -0.9441,-0.0725 -0.744,-0.138 -0.7556,0.1084z"/>
  <path id="_568042024" class="fil4" d="M21.507 101.391c-0.1853,0.3836 0.0153,0.0747 -0.4666,0.4678 -0.6618,0.5399 -0.6766,1.2162 -0.1982,1.799 0.6316,0.7697 1.5727,0.9178 2.6709,0.5487 2.0925,-0.7031 1.5396,-2.4998 0.3437,-2.9697 -0.6367,-0.2502 -0.9893,-0.057 -1.6007,-0.1381 -0.3421,0.0101 -0.5287,0.0879 -0.7491,0.2923z"/>
 </g>
</svg>
