<?xml version="1.0" encoding="UTF-8"?>
<!DOCTYPE svg PUBLIC "-//W3C//DTD SVG 1.1//EN" "http://www.w3.org/Graphics/SVG/1.1/DTD/svg11.dtd">
<!-- Creator: CorelDRAW -->
<svg xmlns="http://www.w3.org/2000/svg" xml:space="preserve" width="215.9mm" height="279.4mm" style="shape-rendering:geometricPrecision; text-rendering:geometricPrecision; image-rendering:optimizeQuality; fill-rule:evenodd; clip-rule:evenodd"
viewBox="0 0 215.9 279.4"
 xmlns:xlink="http://www.w3.org/1999/xlink">
 <defs>
  <style type="text/css">
   <![CDATA[
    .fil7 {fill:black}
    .fil2 {fill:#0D0D0D}
    .fil4 {fill:#0E0E0E}
    .fil3 {fill:#0F0D0E}
    .fil1 {fill:#100E0F}
    .fil5 {fill:#101010}
    .fil6 {fill:#110F10}
    .fil0 {fill:#111111}
   ]]>
  </style>
 </defs>
 <g id="Capa_x0020_1">
  <metadata id="CorelCorpID_0Corel-Layer"/>
  <g id="_376893344">
   <path id="_376903088" class="fil0" d="M20.813 103.693l-0.0029 1.2397c1.0292,1.0721 2.6077,0.791 2.6054,-0.5882 -0.0014,-0.7374 -0.8534,-1.8066 -2.6025,-0.6515z"/>
   <path id="_376903040" class="fil1" d="M173.243 104.795c3.9762,0.6476 2.9235,0.6285 6.8145,0.6193 7.4243,-0.0178 14.8581,0.1091 22.2805,-0.0844l0.5529 -0.9822c-1.8629,-1.041 -1.3762,-1.0002 -2.7603,-0.9952l-22.9964 0.0281c-0.8091,0 -1.7561,-0.0575 -2.5441,-0.0188 -1.1238,0.0553 -1.2887,0.349 -1.3471,1.4332z"/>
   <path id="_376903400" class="fil1" d="M158.139 148.392c0.7545,1.2056 1.8003,0.8131 4.3791,0.794l19.8781 -0.016 2.8731 -0.9729c-0.3856,-1.5832 -1.7936,-1.0975 -4.8219,-1.0826l-20.0733 -0.001c-1.3802,-0.0118 -2.0732,-0.1132 -2.2351,1.2785z"/>
   <path id="_376903376" class="fil1" d="M142.25 105.41c4.3777,0.0106 9.4483,0.1714 13.8288,-0.1152l0.559 -0.752c-2.0022,-1.2369 -1.4907,-1.1836 -2.8896,-1.1774l-16.704 0.0811c-2.4019,2.6925 3.2559,1.9608 5.2058,1.9635z"/>
   <path id="_376903544" class="fil1" d="M207.731 183.234l0 -2.1279 -15.201 0.0084c-1.8385,-0.0017 -3.7032,-0.5361 -3.663,1.382l4.2477 0.7295c1.1928,0.103 12.7991,0.0033 14.6163,0.008z"/>
   <path id="_376902320" class="fil2" d="M207.731 169.613l0 -1.9825c-20.2557,-0.2521 -41.0367,0.0705 -61.3886,-0.0446 -1.4945,-0.0085 -2.9878,-0.0083 -4.4823,-0.0026 -1.8213,0.0069 -3.0695,-0.5129 -2.9715,1.5408 2.429,0.7097 1.3499,0.5101 3.9459,0.5087l64.8965 -0.0198z"/>
   <path id="_376902704" class="fil2" d="M156.149 175.897c0.5663,-1.0983 0.6119,-0.705 -0.012,-1.7921l-4.5331 -0.1289c-6.8041,-0.1019 -8.6842,-0.27 -14.9733,0.5191l2.3057 1.526 17.2127 -0.1241z"/>
   <path id="_376902200" class="fil2" d="M111.653 177.8c2.5121,0.3042 1.4089,-3.5213 1.1919,-3.7124 -0.7135,-0.6287 -1.5974,-0.2106 -1.792,0.6205 -0.1809,0.7719 -0.0838,1.903 0.0814,2.672l0.5187 0.4199z"/>
   <path id="_376902656" class="fil3" d="M8.1693 183.251l175.006 -0.0245 0.8554 -0.8631c-0.1775,-0.7656 -0.1712,-0.7324 -0.6605,-1.1823l-175.201 -0.1018 0 2.1717z"/>
   <path id="_376902344" class="fil3" d="M35.1231 104.738l0.4772 0.5886c1.7634,0.2742 4.5972,0.0979 6.4789,0.0941l39.1717 0.0092c1.0462,-0.0009 2.305,0.0515 3.3247,-0.0036 1.2078,-0.0652 1.814,-0.9923 1.069,-1.7634 -0.5647,-0.5842 -11.0208,-0.2812 -12.7738,-0.2771l-35.8601 -0.0329c-1.376,-0.0064 -1.902,-0.0323 -1.8876,1.3851z"/>
   <path id="_376902584" class="fil3" d="M8.1693 127.325l31.9609 -0.0173 3.6004 -1.1523 -0.4709 -0.7321c-1.7756,-0.35 -32.1286,-0.0983 -35.0904,-0.1342l0 2.0359z"/>
   <path id="_376901912" class="fil3" d="M207.731 127.313l0 -2.0239 -29.4274 0.0126 -2.8725 1.4509c1.017,0.8731 1.7635,0.59 3.4571,0.5759 1.3642,-0.0114 2.7283,-0.0134 4.0924,-0.0108l24.7504 -0.0047z"/>
   <path id="_376901840" class="fil4" d="M207.731 98.2928l0 -2.0994c-0.3915,0 -157.014,-0.1245 -157.856,-0.0056l-4.0752 1.1443c0.4787,1.3065 1.8209,0.9543 4.0752,0.9475 1.6878,-0.0052 3.3789,0.0065 5.0671,0.0107 3.3776,0.0084 6.7562,0.0099 10.134,0.0092 6.8208,-0.0017 13.6419,-0.0031 20.4628,-0.0054 40.712,-0.0127 81.5026,0.1296 122.193,-0.0013z"/>
   <path id="_376901384" class="fil4" d="M8.1693 169.676c24.3007,-0.2097 48.9098,0.0179 73.2764,-0.0302 1.8289,-0.0036 3.5318,0.503 3.7684,-1.181l-0.4702 -0.736c-12.81,-0.1734 -25.5621,-0.1378 -38.3772,-0.1349 -12.6562,0.0029 -25.5735,0.2613 -38.1974,-0.0177l0 2.0998z"/>
   <path id="_376901720" class="fil4" d="M8.1693 157.018c10.6534,0 21.3076,0.0062 31.9609,-0.0078 9.1655,-0.0119 18.9123,-0.1069 28.0634,-0.0103 1.5432,0.0162 2.6444,0.3214 2.7603,-1.2027l-0.5888 -0.7431c-20.7491,-0.3068 -41.4607,0.0741 -62.1958,-0.1099l0 2.0738z"/>
   <polygon id="_376901360" class="fil4" points="207.731,121.515 207.731,119.486 150.825,119.469 147.969,120.523 148.51,121.528 "/>
   <path id="_376901768" class="fil4" d="M207.731 156.986l0 -2.0416 -56.1573 -0.0052 -0.56 1.2479 2.9291 0.8244 10.7188 -0.01c14.2233,-0.0165 28.9915,0.2162 43.0694,-0.0155z"/>
   <path id="_376901288" class="fil4" d="M8.1693 134.587c4.3917,-0.0116 8.8752,-0.0922 13.2567,-0.0282 8.8061,0.1285 8.7954,12.8007 -0.1967,12.8558 -4.3281,0.0264 -8.7291,-0.0095 -13.06,-0.0479l0 2.1314c2.8087,-0.0697 13.3349,0.2315 15.0131,-0.1298 9.1198,-1.964 9.3049,-14.7864 -0.009,-16.7747 -1.7131,-0.3657 -12.2345,-0.0936 -15.0041,-0.1511l0 2.1445z"/>
   <path id="_376900952" class="fil4" d="M60.3983 176.016c3.7609,0.0204 5.4745,0.5511 5.5258,-1.3145 -3.7478,-0.9851 -2.1398,-0.7057 -6.1105,-0.7321l-43.0694 -0.0067c-1.4831,-0.0141 -1.8622,-0.2747 -2.6969,0.5309 -0.4055,2.101 1.498,1.5265 5.4253,1.5117l40.9257 0.0107z"/>
   <path id="_376901264" class="fil4" d="M207.731 149.474l0 -2.0883c-2.0779,-0.0011 -4.1588,0.0178 -6.2362,0.0053 -2.8338,-0.017 -6.1187,0.5156 -8.3804,-0.7462 -0.9279,-0.5177 -1.0429,-0.6706 -1.7479,-1.3764 -3.5832,-3.5867 -1.2886,-10.1844 4.087,-10.6722 1.7179,-0.1559 9.6432,0.0264 12.2775,-0.015l0 -2.1472c-3.1126,0.0036 -11.4268,-0.3413 -13.8479,0.3473 -8.1016,2.3046 -8.6544,13.6003 -0.1678,16.3644 2.1575,0.7026 11.0945,0.3636 14.0157,0.3283z"/>
   <path id="_376900856" class="fil4" d="M36.4704 120.917c0.8036,0.9872 2.8196,0.6135 5.0242,0.6093 9.9184,-0.0187 20.7988,0.1567 30.5911,-0.0667l0.6228 -0.9757 -0.5862 -0.9975 -32.9664 -0.0164c-1.6098,-0.0028 -2.7247,-0.2801 -2.6855,1.447z"/>
   <path id="_376901096" class="fil4" d="M207.731 176.012l0 -2.0435c-10.061,-0.0051 -20.9579,-0.1309 -30.9866,-0.0003 -1.5538,0.0202 -2.7059,-0.388 -3.0919,1.1228l0.6166 0.8855 33.4619 0.0355z"/>
   <path id="_376901216" class="fil4" d="M8.1693 98.3145l29.6224 -0.0342 2.9848 -1.338c-0.7648,-1.1321 -1.8514,-0.7536 -3.3745,-0.7566 -9.6862,-0.0193 -19.6295,0.1117 -29.2327,0.0149l0 2.1139z"/>
   <path id="_376900736" class="fil4" d="M32.4775 148.002c0.1567,1.5799 1.3376,1.2095 2.7806,1.1818l26.8942 -0.0101 2.4795 -0.9769c-0.5495,-1.5362 -2.0492,-1.083 -3.8438,-1.0731l-25.5299 -0.0036c-1.4468,-0.0124 -2.1553,-0.3334 -2.7806,0.8819z"/>
   <path id="_376899968" class="fil4" d="M62.1025 133.581c-0.2465,-1.4197 -1.2447,-1.1333 -2.6785,-1.1189 -1.2954,0.013 -2.6019,0.0071 -3.8978,0.0003l-19.6834 -0.0077c-0.9854,-0.0067 -2.9676,-0.3181 -3.0836,0.9561 -0.154,1.6933 4.1872,1.1583 6.5916,1.1532l15.7856 -0.0049c1.2995,-0.004 2.5984,0.0085 3.8978,-0.0019 1.5949,-0.0129 2.4894,0.3909 3.0683,-0.9762z"/>
   <path id="_376900520" class="fil4" d="M158.271 133.16c0.0795,1.9779 2.0931,1.3817 5.6112,1.4037 2.4038,0.015 4.807,0.0215 7.2108,0.0067 6.2477,-0.0389 7.6396,-0.0501 13.9025,-0.5178l-0.0608 -1.1013c-1.3397,-0.8813 -4.3831,-0.4572 -6.4361,-0.4807l-17.5398 -0.0023c-1.4376,-0.0079 -1.8576,-0.2352 -2.6878,0.6917z"/>
   <path id="_376900088" class="fil4" d="M8.1693 163.345c4.6774,-0.0128 9.3539,-0.0337 14.0316,-0.0311l10.5239 0.0283c1.5686,0.0101 1.9878,0.2334 2.7371,-0.7234l-2.3471 -1.3323 -10.719 0.0185c-4.7072,0.0142 -9.5303,0.0874 -14.2265,-0.0254l0 2.0654z"/>
   <path id="_376900280" class="fil4" d="M207.731 163.32l0 -2.0282 -21.2426 0.002c-2.4823,-0.0223 -2.3049,0.1246 -2.4061,1.5581 3.3495,0.6442 2.0896,0.4867 5.5244,0.4755l18.1243 -0.0074z"/>
   <path id="_376900352" class="fil4" d="M8.1693 121.566l19.5555 -0.0784 0.6061 -1.1596 -0.5058 -0.7157c-0.5068,-0.3394 -17.5761,-0.1144 -19.6558,-0.1365l0 2.0902z"/>
   <path id="_376900448" class="fil4" d="M8.1693 140.183l0 2.0227c1.7569,0.0047 10.8756,-0.2378 12.1491,0.2727 3.0549,1.2242 3.2661,-3.7878 -0.1428,-2.5441 -1.294,0.4722 -10.2706,0.254 -12.0063,0.2487z"/>
   <path id="_376899416" class="fil4" d="M207.731 142.203l0 -2.0476 -9.361 0.0326c-0.224,-0.0196 -3.2679,-1.4037 -3.2989,0.995 -0.0311,2.4158 2.8731,1.0537 3.4903,1.0319l9.1696 -0.0119z"/>
   <path id="_376899128" class="fil4" d="M45.585 163.359l6.0451 -0.0163c1.3541,0.0075 1.5722,0.1761 2.1764,-0.7246l-4.1269 -1.3184c-1.7468,0.019 -3.758,-0.1208 -5.4568,0.022l-0.769 1.1014c0.7505,1.0192 0.3667,0.9753 2.1312,0.9359z"/>
   <path id="_376899560" class="fil4" d="M94.7327 175.149l-3.7376 -1.1722c-1.5486,-0.0051 -3.4005,-0.3003 -4.2559,0.5162l-0.064 1.0105c3.5013,0.5479 3.545,0.6202 7.29,0.5278l0.7675 -0.8823z"/>
   <path id="_376899272" class="fil4" d="M111.156 105.452c2.2863,2.112 2.4107,-2.4139 1.8974,-3.4783 -0.3735,-0.774 -1.7301,-0.8209 -1.9848,0.241 -0.1718,0.716 -0.0675,2.5044 0.0874,3.2373z"/>
   <path id="_376899752" class="fil4" d="M69.5416 161.78c-0.1481,1.4598 0.5953,1.613 1.9628,1.6167 1.5259,0.0038 1.8432,0.123 2.4323,-0.9731 -1.5783,-0.8964 -2.5792,-1.8391 -4.3951,-0.6436z"/>
   <path id="_376899728" class="fil4" d="M62.0807 162.618c0.3015,1.2423 3.719,1.2096 3.3806,-0.5513 -0.246,-1.2802 -3.8107,-1.2209 -3.3806,0.5513z"/>
   <path id="_376898936" class="fil4" d="M157.853 163.359c0.6008,-0.9633 0.9825,-1.0294 -0.0314,-2.0402 -1.4503,-0.2218 -2.3202,-0.2172 -2.4332,1.2996 0.5659,0.9987 1.1125,0.985 2.4646,0.7406z"/>
   <path id="_376898888" class="fil4" d="M28.0524 103.708c-0.4762,2.5579 2.1696,2.1985 2.5699,1.07 0.4882,-1.3761 -1.3466,-2.0905 -2.5699,-1.07z"/>
   <path id="_376898840" class="fil4" d="M166.741 125.816c-1.271,-1.4799 -3.1583,-0.4497 -2.5496,1.0273 0.3604,0.8744 2.8302,1.229 2.5496,-1.0273z"/>
   <path id="_376898528" class="fil4" d="M160.036 126.565c-0.0708,-1.4121 -0.7676,-1.6227 -2.233,-1.3464 -1.6314,1.8561 1.1428,3.2867 2.233,1.3464z"/>
   <path id="_376898624" class="fil4" d="M166.63 103.894c-0.0628,2.2187 1.9185,2.2357 2.6333,0.6485 -0.1451,-1.2223 -0.5802,-1.4324 -1.9339,-1.3353l-0.6994 0.6868z"/>
   <path id="_376898264" class="fil4" d="M150.813 163.353c1.3446,-1.6918 -0.2519,-2.8655 -2.1445,-1.5939l-0.0979 0.8569c0.6185,0.9247 0.9408,1.0127 2.2424,0.737z"/>
   <path id="_376898288" class="fil5" d="M8.1693 113.589c25.5051,-0.2809 51.1363,0.1915 76.7387,-0.1483l0.5803 -0.9077 -0.5607 -1.0177 -76.7583 -0.0177 0 2.0914z"/>
   <path id="_376898120" class="fil5" d="M207.731 113.552l0 -2.0335c-11.627,0.017 -23.2568,-0.0009 -34.8842,-0.0032l-30.597 -0.0054 -3.2853 1.2397 0.5643 0.7046c0.6324,0.3711 68.0308,0.1022 68.2022,0.0978z"/>
   <path id="_376897760" class="fil5" d="M166.775 162.887c0.7993,0.6688 0.9903,0.5045 2.3685,0.4835 0.9103,-0.0138 1.8183,-0.015 2.7286,-0.014 2.5511,0.0022 3.9211,0.3915 4.4697,-0.9326 -4.7647,-1.204 -3.0078,-1.0651 -7.3936,-1.1377 -1.2616,-0.0209 -1.4282,-0.1437 -2.152,0.4894l-0.0212 1.1114z"/>
   <path id="_376897616" class="fil5" d="M8.1693 105.414l7.6213 -0.1373 0.576 -0.4725c-0.0279,-1.981 -1.6095,-1.4603 -3.3252,-1.4475 -1.6297,0.012 -3.2421,0.0158 -4.8721,-0.0015l0 2.0588z"/>
   <path id="_376897520" class="fil5" d="M167.593 173.975c-0.4632,0.4496 -0.6021,0.5915 -0.579,1.5452 1.0062,0.9454 1.815,0.9948 2.538,-0.2349 -0.0588,-1.1758 -0.6804,-1.5745 -1.959,-1.3103z"/>
   <path id="_376898168" class="fil5" d="M207.731 105.351l0 -1.9522c-0.5433,0.3677 -0.688,0.6081 -0.5921,1.5683l0.5921 0.3839z"/>
   <path id="_376897640" class="fil6" d="M51.8698 126.751c1.0492,0.9594 3.5229,0.5744 5.995,0.5634l5.2806 -0.0341c0.8886,-0.329 0.9046,-1.852 -0.1971,-1.965 -1.3139,-0.1349 -8.6671,-0.0352 -10.7067,0.1188 -0.2505,0.4157 -0.3903,0.6561 -0.3718,1.3169z"/>
   <path id="_376897304" class="fil7" d="M107.512 139.561c-0.3956,-2.3497 1.2736,-4.4288 3.5749,-4.7201 2.3284,-0.2948 4.3046,1.3609 4.651,3.5933 0.3549,2.2873 -1.2312,4.4898 -3.4952,4.804 -2.4131,0.3348 -4.3521,-1.429 -4.7307,-3.6772zm5.0153 4.9428c2.9385,-0.3338 5.0382,-3.202 4.6472,-6.1167 -0.3883,-2.8942 -3.0057,-5.1977 -5.9993,-4.807 -2.9986,0.3915 -5.0958,3.1223 -4.6572,6.1377 0.4268,2.9344 2.9796,5.1302 6.0093,4.786z"/>
   <path id="_376896992" class="fil7" d="M109.511 139.561c0.6678,2.9286 4.9512,1.8412 4.2803,-0.9941 -0.6791,-2.8699 -4.9377,-1.8887 -4.2803,0.9941z"/>
   <path id="_376896944" class="fil7" d="M100.149 117.005c-1.1878,-1.7996 -0.3697,-1.0686 -1.3161,-2.998l-1.1333 -3.2798c-1.0078,-0.0395 -1.7139,2.038 -0.8814,4.0852 0.4341,1.0676 2.0277,2.9542 3.3308,2.1926z"/>
   <path id="_376897136" class="fil7" d="M100.445 116.878c0.6323,-0.1454 1.0354,-0.9951 1.1593,-1.6137 0.1561,-0.779 -0.0418,-1.6844 -0.3534,-2.3948l-3.2247 -2.276c-0.1422,0.3662 0.1825,1.3492 0.3141,1.7758 0.1846,0.5985 0.4406,0.9366 0.765,1.442 0.6957,1.0838 0.4026,2.0709 1.3397,3.0667z"/>
   <path id="_376896920" class="fil7" d="M91.4848 157.323c-0.3109,0.0344 -2.1611,1.5834 -2.485,1.896 -0.4336,0.4185 -0.6064,0.7801 -0.8813,1.3215l-1.1585 1.1104c0.2017,0.5937 1.3933,0.6207 1.9396,0.4543 1.7725,-0.5401 3.6077,-3.2114 2.5852,-4.7822z"/>
   <path id="_376896704" class="fil7" d="M135.326 121.923c2.0512,2.0559 6.043,-1.7837 4.8399,-3.9826 -1.1931,-0.1199 -1.6261,1.3918 -2.4204,1.9795 -0.6986,0.5169 -2.3092,0.989 -2.4195,2.0031z"/>
   <path id="_376896152" class="fil7" d="M130.434 168.14c0.6014,-0.1922 0.8968,-1.079 0.9191,-1.6626 0.0835,-2.1851 -2.2726,-4.648 -3.6751,-3.5486l1.3567 2.6047c0.3866,0.7377 0.6094,2.3022 1.3993,2.6065z"/>
   <path id="_376896488" class="fil7" d="M86.6611 161.412c0.9709,-0.1495 1.4374,-1.7127 2.0891,-2.3698 0.3645,-0.3675 1.9726,-1.6059 2.4901,-2.0167 -0.9824,-1.1881 -2.8177,-0.2343 -3.6898,0.6037 -0.849,0.8158 -1.7308,2.7257 -0.8894,3.7828z"/>
   <path id="_376895960" class="fil7" d="M127.322 116.869c1.9203,1.1834 4.8996,-3.206 3.0406,-5.0568 -1.3143,1.1812 -1.1096,0.7693 -1.6409,2.4246 -0.3522,1.0974 -1.5545,1.6005 -1.3997,2.6322z"/>
   <path id="_376896200" class="fil7" d="M88.8694 121.455c1.2836,-1.9698 -2.4101,-5.3765 -4.4535,-3.7897 0.1861,0.675 1.3877,1.6443 2.0659,2.0191 1.0154,0.5611 1.3122,1.4707 2.3876,1.7706z"/>
   <path id="_376896320" class="fil7" d="M100.449 162.275c-0.7006,0.854 -0.6198,2.1731 -1.1018,3.0955 -0.2548,0.4875 -0.5924,0.7437 -0.7845,1.2916 -0.6815,1.9438 2.1601,0.8485 2.8098,-1.395 0.2476,-0.8551 0.2038,-2.9523 -0.9235,-2.9921z"/>
   <path id="_376896248" class="fil7" d="M88.6686 121.702c-0.5224,-0.3695 -0.6803,-0.2745 -1.2246,-0.8502 -0.9749,-1.031 -1.6583,-1.069 -2.3191,-1.8025l-0.9509 -1.1332c-0.4795,0.4898 -0.3624,1.5089 -0.1199,2.0635 0.9101,2.0813 3.8423,2.9778 4.6145,1.7224z"/>
   <path id="_376896272" class="fil7" d="M130.161 168.322c-1.0494,-1.0425 -0.7953,-1.3934 -1.3856,-2.6002 -0.2951,-0.6032 -1.0439,-2.2126 -1.4069,-2.6108 -2.0885,1.3458 0.7721,6.3907 2.7925,5.211z"/>
   <path id="_376895168" class="fil7" d="M115.444 115.384c-0.1223,-1.6098 0.4704,-1.5824 0.5708,-2.7008 0.1518,-1.691 -0.2671,-0.435 0.3391,-2.9614 -2.7855,-0.206 -2.9723,5.4849 -0.9099,5.6622z"/>
   <path id="_376895360" class="fil7" d="M98.1863 167.409c0.1309,-1.6169 0.6543,-1.3978 1.0715,-2.6218 0.5144,-1.5094 -0.0811,-0.5212 0.9479,-2.683 -2.9496,-0.5647 -3.8493,5.1498 -2.0194,5.3048z"/>
   <path id="_376895504" class="fil7" d="M115.795 115.464c1.2836,0.1319 2.0893,-1.3282 2.2611,-2.4336l-1.3882 -3.2297c-0.5699,0.9459 -0.2397,2.0156 -0.3652,3.0194 -0.0969,0.7749 -0.9999,1.9058 -0.5077,2.6439z"/>
   <path id="_376895288" class="fil7" d="M108.196 169.158c1.0509,-0.099 1.5801,-1.522 1.6038,-2.4687l-1.59 -2.5457c-0.3371,0.725 -0.1987,1.7335 -0.229,2.5439 -0.0272,0.7241 -0.291,1.9186 0.2152,2.4705z"/>
   <path id="_376895480" class="fil7" d="M117.984 169.234c-0.2973,-0.8894 -0.5231,-1.1225 -0.5467,-2.1906 -0.0155,-0.7033 0.0784,-2.0668 -0.2154,-2.6661 -1.9074,0.3563 -1.5793,5.0778 0.7621,4.8567z"/>
   <path id="_376895696" class="fil7" d="M107.838 169.182c-0.348,-1.5498 -0.2224,-0.8081 -0.1527,-2.4932 0.0643,-1.5519 -0.0427,-0.9519 0.2237,-2.5764 -2.0477,-0.176 -2.3217,5.0528 -0.071,5.0696z"/>
   <path id="_376894496" class="fil7" d="M139.974 160.165c1.0758,-2.0256 -2.3197,-4.1685 -3.3375,-2.9276 0.6668,0.693 0.9672,1.1839 1.6392,1.4745 0.8617,0.3726 0.5931,1.3392 1.6983,1.4531z"/>
   <path id="_376894664" class="fil7" d="M91.4912 114.362c0.2412,0.5656 0.8774,1.0719 1.3215,1.4753 0.795,0.7221 1.6331,0.3383 1.1113,-0.6112 -1.7302,-3.1484 -2.7509,-1.6099 -2.4328,-0.8641z"/>
   <path id="_376894856" class="fil7" d="M106.256 111.45c0.0817,0.475 0.1879,1.5711 0.7502,1.698 0.9305,0.2099 0.9504,-0.7764 0.8671,-1.4051 -0.067,-0.5065 -0.144,-1.5764 -0.7489,-1.7047 -0.9571,-0.203 -0.9793,0.767 -0.8684,1.4118z"/>
   <path id="_376894904" class="fil7" d="M134.688 115.223c0.1154,-0.4179 -0.1124,-0.797 -0.5559,-0.8018 -0.5922,-0.0064 -1.0651,1.0722 -1.346,1.5336 -0.1555,0.2554 -0.4118,0.6312 -0.5157,0.9014 -0.1599,0.4157 0.0292,0.8416 0.5101,0.6997 0.0177,-0.0052 1.8613,-2.1658 1.9075,-2.3329z"/>
   <path id="_376894760" class="fil7" d="M83.2935 153.343c0.352,0.8322 1.0587,0.2765 1.5617,-0.0439 0.4317,-0.2749 1.2954,-0.6411 1.1702,-1.2425 -0.1598,-0.7679 -1.2983,-0.1882 -1.7014,-0.0036 -0.5479,0.251 -1.3471,0.5416 -1.0305,1.29z"/>
   <path id="_376895048" class="fil7" d="M120.83 112.443c0.1796,0.7783 0.9625,0.6877 1.2222,-0.0539 0.135,-0.3854 0.4026,-1.502 0.3154,-1.8805 -0.1421,-0.6164 -1.0157,-0.7453 -1.3074,0.0501 -0.1343,0.366 -0.311,1.5338 -0.2302,1.8843z"/>
   <path id="_376894304" class="fil7" d="M133.786 162.498c-0.6128,-0.3531 -1.1546,0.3227 -0.5583,1.1833 0.2424,0.3499 0.7435,1.1927 1.0944,1.3217 0.6904,0.2538 1.2323,-0.5056 0.6286,-1.2683 -0.1563,-0.1975 -1.0064,-1.1454 -1.1647,-1.2367z"/>
   <path id="_376894280" class="fil7" d="M112.161 169.215c0.169,1.1711 0.9703,0.8436 1.1831,0.6354 0.4002,-0.3915 0.1905,-1.3691 0.0995,-1.8806 -0.1056,-0.5941 -0.634,-1.1415 -1.124,-0.5671 -0.2924,0.3428 -0.2198,1.3889 -0.1586,1.8123z"/>
   <path id="_376893992" class="fil7" d="M92.8372 165.748c0.5026,1.5624 2.2835,-1.0855 2.1874,-1.6007 -0.2343,-1.2558 -2.4319,0.8409 -2.1874,1.6007z"/>
   <path id="_376893920" class="fil7" d="M110.834 111.287c0.038,0.2147 0.0245,0.5051 0.2484,0.6371 0.2161,0.1274 0.504,0.0812 0.6568,-0.1042 0.2228,-0.2706 0.2489,-1.1936 0.2003,-1.5479 -0.1164,-0.8485 -1.476,-1.0815 -1.1055,1.015z"/>
   <path id="_376893680" class="fil7" d="M122.05 166.829c1.2805,0.2324 0.5574,-2.0123 -0.2781,-1.0657 -0.0508,0.4302 -0.0182,0.7511 0.2781,1.0657z"/>
   <path id="_376893752" class="fil7" d="M126.953 116.664c0.2651,-0.4018 0.1744,-0.7939 0.7061,-1.359 1.1732,-1.2468 0.6011,-1.4791 1.3977,-2.7229 0.2369,-0.3699 0.8886,-0.8212 0.9604,-1.0345l-3.0642 5.1164z"/>
   <path id="_376893944" class="fil7" d="M118.284 169.159l-0.7454 -4.8461c-0.036,0.2631 0.1396,0.8208 0.1752,1.166 0.094,0.91 -0.1449,2.852 0.5702,3.6801z"/>
   <path id="_376893512" class="fil7" d="M136.19 120.427c1.8186,-1.1563 0.9047,-0.0776 2.3999,-2.0058 0.4725,-0.6094 0.9192,-0.5189 1.3537,-0.8302l-4.8893 3.9777c0.3926,-0.273 0.1436,-0.5108 1.1357,-1.1417z"/>
   <path id="_376893176" class="fil7" d="M139.721 160.408c-0.3831,-0.26 -0.5672,-0.2381 -0.8814,-0.7047 -0.3431,-0.5095 -0.16,-0.5215 -0.7653,-0.7933 -0.8255,-0.3706 -1.1353,-1.372 -1.6699,-1.4432l3.3166 2.9412z"/>
   <path id="_376893056" class="fil5" d="M104.614 139.397c-0.2473,-2.003 0.483,-4.0687 1.7651,-5.5763 1.3485,-1.5857 2.9412,-2.2577 5.0102,-2.4661 4.2262,-0.4256 7.5845,2.9842 7.8884,7.047 0.3077,4.1153 -2.5361,8.0323 -6.8208,8.1328 -3.9961,0.0938 -7.3661,-3.2742 -7.8429,-7.1374zm30.3284 10.8989c-0.023,0.1636 -0.0617,0.1627 -0.2344,0.4101 -2.6891,3.8514 -7.2004,6.9466 -11.5558,8.4093 -12.3514,4.1481 -29.7151,-1.7223 -35.3194,-13.7076 -0.5745,-1.2286 -1.0428,-2.517 -1.3332,-3.844 -0.2435,-1.1132 -0.449,-3.5503 0.0175,-4.5475 0.8348,2.7661 1.1305,4.1547 2.4982,6.7781 0.9216,1.7677 2.4139,4.0939 3.7894,5.5215 1.7018,1.7663 2.9403,2.9202 4.9965,4.3143 6.0556,4.1058 15.2206,5.8747 22.377,3.9405 4.0011,-1.0814 7.3645,-3.1891 10.2436,-6.104 0.3577,-0.3622 0.7401,-0.8839 1.0882,-1.2058l3.4324 0.0351zm-50.7167 -14.6991c0.2439,-0.1563 0.6576,-0.7879 0.9167,-1.056 1.1581,-1.1988 2.5541,-1.6237 4.2206,-1.5469 1.863,0.0858 4.1426,1.0179 5.7731,1.9086 2.9895,1.6331 4.6621,3.1534 6.9729,4.5414 1.6951,1.0181 1.341,0.995 1.707,2.0557 1.9851,5.753 9.2742,8.8112 14.2579,4.1563 2.4189,-2.2594 2.1996,-4.6521 2.5609,-5.067l1.2949 0.6281 -1.3407 4.8227c-0.8559,1.2326 -1.9454,2.2521 -3.2339,3.0178 -1.449,0.8611 -3.1034,1.3471 -4.7821,1.4737 -2.5435,0.1919 -3.4315,-0.4052 -5.3361,-0.8481l2.4667 1.495c0.8222,0.3497 2.0104,0.7883 2.8612,0.9007l-7.0429 -1.694c-2.0613,-1.3469 -2.9034,-2.5337 -4.4688,-4.3427 -1.3671,-1.5797 -2.6242,-3.2989 -4.1526,-4.6597 -2.4009,-2.1374 -8.0257,-7.3196 -11.1937,-5.9189 -0.4909,0.217 -0.924,0.5439 -1.281,0.9182 -0.5373,0.5634 -0.39,1.069 -0.3759,1.8093 0.1038,5.4631 3.3064,11.1631 7.0987,14.9123 6.8884,6.8102 16.6659,9.585 26.2113,8.7459 4.5271,-0.3979 9.3648,-1.9211 13.1343,-4.4836 3.3302,-2.2638 6.6144,-5.673 8.1664,-9.4394l-2.8583 2.0392c-1.4841,0.3891 -2.946,0.2965 -4.4431,0.104 -1.144,-0.1472 -2.6706,-0.6735 -3.7402,-1.1051 -0.9003,-0.3634 -3.0989,-1.5923 -3.221,-1.6143 -0.5605,0.9783 -1.0517,1.9108 -1.7799,2.7802 -0.6707,0.8009 -1.4416,1.5564 -2.2856,2.1904 -1.6167,1.2143 -4.4359,2.4588 -6.4637,2.578 1.5206,-0.7208 2.2344,-0.9835 3.6297,-2.0003 3.3752,-2.4594 5.9555,-6.2906 6.2702,-10.517 2.467,1.7978 5.4532,4.2464 8.1775,5.2407 3.9132,1.4283 7.5888,0.3152 8.0449,-4.1458 -0.7194,0.8193 -1.0563,1.296 -2.0402,1.8756 -4.5317,2.6697 -10.1982,-2.3732 -13.5718,-4.8702l-3.4407 -2.5273c-0.5194,-0.3841 -0.404,-0.8042 -0.5482,-1.4399 -1.8623,-8.2124 -13.0462,-8.8922 -16.3705,-1.9219 -0.7634,1.6006 -0.5464,2.0405 -0.8359,3.0639l-1.7648 -1.0812 3.4921 -6.4979c2.1276,-1.7523 4.3732,-2.7297 7.1905,-2.7028 2.5212,0.0241 5.2812,1.0151 7.0345,2.859 0.9107,0.9576 1.4194,1.7409 2.1158,2.8572 1.9653,3.1507 4.3186,5.2249 7.4095,7.372 2.5318,1.7587 7.6034,4.9329 10.6087,2.8689 1.0325,-0.7091 0.8815,-1.0201 0.9044,-1.5874 0.0326,-0.8082 0.0395,-1.6113 -0.0085,-2.4195 -0.1574,-2.6498 -0.9569,-5.3775 -2.1073,-7.761 -4.4568,-9.2336 -15.2288,-14.2697 -25.1754,-14.3444 -5.5379,-0.0415 -11.0386,1.266 -15.9515,3.8146 -3.782,1.962 -8.3155,5.4884 -10.5305,9.167l6.3442 -0.8539c1.0713,0.3477 1.9083,0.689 2.9304,1.1802 0.5165,0.2483 2.3498,1.3426 2.7093,1.3442l4.1496 -5.1645c1.6456,-1.1778 4.5657,-2.4886 6.5826,-2.7088 -2.9498,1.3428 -3.6764,1.7034 -6.106,4.1088 -1.8392,1.8209 -2.8427,4.4732 -3.172,7.0678 -3.4802,-2.0163 -9.6246,-6.2391 -13.5654,-3.8389 -1.4726,0.8968 -1.9153,2.5583 -2.0483,4.261z"/>
  </g>
 </g>
</svg>
