<?xml version="1.0" encoding="UTF-8"?>
<!DOCTYPE svg PUBLIC "-//W3C//DTD SVG 1.1//EN" "http://www.w3.org/Graphics/SVG/1.1/DTD/svg11.dtd">
<!-- Creator: CorelDRAW -->
<svg xmlns="http://www.w3.org/2000/svg" xml:space="preserve" width="215.9mm" height="279.4mm" style="shape-rendering:geometricPrecision; text-rendering:geometricPrecision; image-rendering:optimizeQuality; fill-rule:evenodd; clip-rule:evenodd"
viewBox="0 0 215.9 279.4"
 xmlns:xlink="http://www.w3.org/1999/xlink">
 <defs>
  <style type="text/css">
   <![CDATA[
    .str1 {stroke:black;stroke-width:0.2}
    .str0 {stroke:#1C171B;stroke-width:4}
    .str2 {stroke:#EE483C;stroke-width:11}
    .fil4 {fill:none}
    .fil2 {fill:black}
    .fil5 {fill:#EE483C}
    .fil1 {fill:white}
    .fil3 {fill:black;fill-rule:nonzero}
    .fil0 {fill:#E6E6E6;fill-opacity:0.160784}
   ]]>
  </style>
 </defs>
 <g id="Capa_x0020_1">
  <metadata id="CorelCorpID_0Corel-Layer"/>
  <g id="_460057984">
   <polygon id="_460064416" class="fil0" points="215.9,0 -0,0 -0,279.4 215.9,279.4 "/>
   <rect id="_460064080" class="fil1 str0" x="7.95" y="10.2882" width="200" height="258.824" rx="8.4684" ry="8.4684"/>
   <rect id="_460063840" class="fil2 str1" transform="matrix(2.40798E-014 -0.712887 0.909201 1.88805E-014 63.8426 156.016)" width="7.9158" height="105.425"/>
   <rect id="_460063288" class="fil2 str1" x="68.7332" y="37.8575" width="8.84823" height="117.843"/>
   <path id="_460062712" class="fil3" d="M31.8746 204.106l-8.4648 -11.9719 1.7932 -0.4746 0 12.4465 -4.7729 0 0 -17.9578 4.4565 0 8.4383 11.9719 -1.7932 0.4746 0 -12.4465 4.7994 0 0 17.9578 -4.4565 0zm5.9068 -8.9657c0,-1.3713 0.2197,-2.6282 0.6592,-3.7709 0.4395,-1.1427 1.0636,-2.1316 1.8723,-2.9666 0.8087,-0.8351 1.7755,-1.4811 2.9007,-1.9382 1.1251,-0.4571 2.3732,-0.6856 3.7445,-0.6856 1.3712,0 2.6238,0.2285 3.7577,0.6856 1.1339,0.4571 2.1095,1.1031 2.927,1.9382 0.8175,0.835 1.446,1.8239 1.8855,2.9666 0.4394,1.1427 0.6592,2.3996 0.6592,3.7709 0,1.3712 -0.2198,2.6282 -0.6592,3.7708 -0.4395,1.1427 -1.068,2.1316 -1.8855,2.9667 -0.8175,0.835 -1.7931,1.4767 -2.927,1.9249 -1.1339,0.4483 -2.3865,0.6725 -3.7577,0.6725 -1.3713,0 -2.6194,-0.2242 -3.7445,-0.6725 -1.1252,-0.4482 -2.092,-1.0899 -2.9007,-1.9249 -0.8087,-0.8351 -1.4328,-1.824 -1.8723,-2.9667 -0.4395,-1.1426 -0.6592,-2.3996 -0.6592,-3.7708zm4.8784 0c0,0.9844 0.1802,1.8195 0.5406,2.5051 0.3604,0.6856 0.8658,1.2042 1.5162,1.5558 0.6505,0.3516 1.3976,0.5274 2.2415,0.5274 0.8614,0 1.6173,-0.1758 2.2678,-0.5274 0.6504,-0.3516 1.1602,-0.8746 1.5294,-1.569 0.3692,-0.6944 0.5538,-1.5338 0.5538,-2.5183 0,-0.9845 -0.1846,-1.8195 -0.5538,-2.5051 -0.3692,-0.6856 -0.879,-1.2043 -1.5294,-1.5559 -0.6505,-0.3515 -1.4064,-0.5273 -2.2678,-0.5273 -0.8439,0 -1.591,0.1801 -2.2415,0.5405 -0.6504,0.3604 -1.1558,0.8834 -1.5162,1.569 -0.3604,0.6857 -0.5406,1.5207 -0.5406,2.5052zm21.8078 8.9657l0 -17.9578 6.6452 0c1.3184,0 2.5183,0.2505 3.5994,0.7515 1.0812,0.501 1.9426,1.2394 2.5843,2.2151 0.6416,0.9757 0.9625,2.1843 0.9625,3.6258 0,1.4416 -0.3209,2.6502 -0.9625,3.6259 -0.6417,0.9756 -1.5031,1.7096 -2.5843,2.2018 -1.0811,0.4923 -2.281,0.7384 -3.5994,0.7384l-3.0062 0 0 -4.6411 2.8479 0c0.8087,0 1.4196,-0.1582 1.8327,-0.4746 0.4132,-0.3165 0.6197,-0.7999 0.6197,-1.4504 0,-0.6329 -0.2065,-1.1163 -0.6197,-1.4503 -0.4131,-0.334 -1.024,-0.501 -1.8327,-0.501l-2.8743 0 1.1603 -1.0285 0 14.3452 -4.7729 0zm8.7547 0l-3.5335 -7.1726 5.2212 0 3.5336 7.1726 -5.2213 0zm9.5986 -6.6979l0 -4.562 7.489 0 0 4.562 -7.489 0zm-0.0791 -6.698l1.925 -2.1095 0 13.3958 -2.0568 -2.4524 9.0975 0 0 4.562 -11.8136 0 0 -17.9578 11.8136 0 0 4.5619 -8.9657 0zm19.3555 13.7651c-1.8987,0 -3.5336,-0.3956 -4.9048,-1.1867 -1.3712,-0.7911 -2.426,-1.8854 -3.1644,-3.283 -0.7383,-1.3976 -1.1075,-3.0193 -1.1075,-4.8652 0,-1.3713 0.2197,-2.6282 0.6592,-3.7709 0.4395,-1.1427 1.0636,-2.1316 1.8723,-2.9666 0.8087,-0.8351 1.7755,-1.4767 2.9007,-1.925 1.1251,-0.4483 2.3732,-0.6724 3.7445,-0.6724 2.1447,0 3.9203,0.4878 5.3267,1.4635 1.4064,0.9757 2.426,2.4216 3.0589,4.3378l-4.2192 1.7932c-0.4043,-0.9494 -0.9405,-1.6789 -1.6086,-2.1887 -0.668,-0.5098 -1.5206,-0.7648 -2.5578,-0.7648 -0.8439,0 -1.591,0.1846 -2.2415,0.5538 -0.6504,0.3692 -1.1558,0.9054 -1.5162,1.6086 -0.3604,0.7032 -0.5406,1.547 -0.5406,2.5315 0,0.9844 0.1802,1.8283 0.5406,2.5315 0.3604,0.7032 0.8658,1.235 1.5162,1.5953 0.6505,0.3604 1.3976,0.5406 2.2415,0.5406 1.0372,0 1.8898,-0.2505 2.5578,-0.7515 0.6681,-0.501 1.2043,-1.2262 1.6086,-2.1755l4.2192 1.7931c-0.6329,1.9162 -1.6525,3.3622 -3.0589,4.3379 -1.4064,0.9756 -3.182,1.4635 -5.3267,1.4635zm12.9739 -7.4627l7.5154 0 0 4.4038 -7.5154 0 0 -4.4038zm-4.351 7.0935l6.3551 -17.9578 4.7729 0 5.775 17.9578 -4.7993 0 -4.2983 -14.7143 1.8987 0 -4.9312 14.7143 -4.7729 0zm18.0633 0l0 -17.9578 6.6452 0c1.3184,0 2.5183,0.2505 3.5994,0.7515 1.0812,0.501 1.9426,1.2394 2.5843,2.2151 0.6416,0.9757 0.9625,2.1843 0.9625,3.6258 0,1.4416 -0.3209,2.6502 -0.9625,3.6259 -0.6417,0.9756 -1.5031,1.7096 -2.5843,2.2018 -1.0811,0.4923 -2.281,0.7384 -3.5994,0.7384l-3.0062 0 0 -4.6411 2.8479 0c0.8087,0 1.4196,-0.1582 1.8327,-0.4746 0.4132,-0.3165 0.6197,-0.7999 0.6197,-1.4504 0,-0.6329 -0.2065,-1.1163 -0.6197,-1.4503 -0.4131,-0.334 -1.024,-0.501 -1.8327,-0.501l-2.8743 0 1.1603 -1.0285 0 14.3452 -4.7729 0zm8.7547 0l-3.5335 -7.1726 5.2212 0 3.5336 7.1726 -5.2213 0zm15.1363 0.3692c-1.8283,0 -3.4325,-0.3912 -4.8125,-1.1735 -1.38,-0.7823 -2.4524,-1.859 -3.2171,-3.2303 -0.7648,-1.3712 -1.1471,-2.9358 -1.1471,-4.6938 0,-1.4416 0.2197,-2.7469 0.6592,-3.9159 0.4395,-1.1691 1.0636,-2.1755 1.8723,-3.0194 0.8087,-0.8438 1.7755,-1.4942 2.9007,-1.9513 1.1251,-0.4571 2.3732,-0.6856 3.7445,-0.6856 2.0568,0 3.7796,0.4526 5.1684,1.358 1.3889,0.9054 2.4085,2.237 3.0589,3.995l-4.2191 1.8987c-0.4044,-0.8439 -0.9318,-1.4899 -1.5822,-1.9382 -0.6505,-0.4483 -1.4591,-0.6725 -2.426,-0.6725 -0.8439,0 -1.591,0.189 -2.2415,0.567 -0.6504,0.378 -1.1558,0.9317 -1.5162,1.6613 -0.3604,0.7296 -0.5406,1.6305 -0.5406,2.7029 0,0.9493 0.1802,1.7756 0.5406,2.4788 0.3604,0.7032 0.8614,1.2437 1.503,1.6217 0.6417,0.378 1.3845,0.567 2.2283,0.567 0.7735,0 1.4328,-0.1187 1.9777,-0.356 0.545,-0.2374 0.9845,-0.589 1.3185,-1.0548 0.334,-0.4659 0.5538,-1.0504 0.6593,-1.7536l1.6613 1.213 -6.0123 0 0 -4.1664 8.7284 0c0.0879,0.334 0.1494,0.6944 0.1845,1.0811 0.0352,0.3868 0.0528,0.7823 0.0528,1.1867 0,1.3185 -0.2373,2.4919 -0.712,3.5203 -0.4747,1.0285 -1.1163,1.8943 -1.925,2.5975 -0.8087,0.7031 -1.7228,1.2393 -2.7425,1.6085 -1.0196,0.3692 -2.0744,0.5538 -3.1643,0.5538zm13.5013 -7.4627l7.5154 0 0 4.4038 -7.5154 0 0 -4.4038zm-4.351 7.0935l6.3551 -17.9578 4.7729 0 5.775 17.9578 -4.7993 0 -4.2983 -14.7143 1.8987 0 -4.9312 14.7143 -4.7729 0zm18.0633 0l0 -17.9578 6.6452 0c1.3184,0 2.5183,0.2505 3.5994,0.7515 1.0812,0.501 1.9426,1.2394 2.5843,2.2151 0.6416,0.9757 0.9625,2.1843 0.9625,3.6258 0,1.4416 -0.3209,2.6502 -0.9625,3.6259 -0.6417,0.9756 -1.5031,1.7096 -2.5843,2.2018 -1.0811,0.4923 -2.281,0.7384 -3.5994,0.7384l-3.0062 0 0 -4.6411 2.8479 0c0.8087,0 1.4196,-0.1582 1.8327,-0.4746 0.4132,-0.3165 0.6197,-0.7999 0.6197,-1.4504 0,-0.6329 -0.2065,-1.1163 -0.6197,-1.4503 -0.4131,-0.334 -1.024,-0.501 -1.8327,-0.501l-2.8743 0 1.1603 -1.0285 0 14.3452 -4.7729 0zm8.7547 0l-3.5335 -7.1726 5.2212 0 3.5336 7.1726 -5.2213 0zm-120.404 25.6018l-11.339 0 0 -17.9578 4.7729 0 0 15.5581 -1.4767 -2.2414 8.0428 0 0 4.6411zm4.9311 -7.0935l7.5154 0 0 4.4038 -7.5154 0 0 -4.4038zm-4.351 7.0935l6.3551 -17.9578 4.7729 0 5.775 17.9578 -4.7993 0 -4.2983 -14.7143 1.8987 0 -4.9312 14.7143 -4.7729 0zm31.6173 0.4747c-1.1251,0 -2.1491,-0.1627 -3.0721,-0.4879 -0.9229,-0.3252 -1.7404,-0.7955 -2.4524,-1.4108 -0.712,-0.6153 -1.3053,-1.3624 -1.7799,-2.2414l3.5862 -2.3469c0.4571,0.6504 1.0504,1.1734 1.78,1.569 0.7296,0.3955 1.4723,0.5933 2.2283,0.5933 0.5801,0 1.0152,-0.1143 1.3053,-0.3428 0.29,-0.2285 0.4351,-0.5098 0.4351,-0.8438 0,-0.2286 -0.066,-0.4307 -0.1978,-0.6065 -0.1319,-0.1758 -0.3912,-0.3472 -0.7779,-0.5142 -0.3868,-0.1671 -0.9493,-0.3297 -1.6877,-0.4879 -1.547,-0.3516 -2.7776,-0.7955 -3.6918,-1.3317 -0.9141,-0.5362 -1.5646,-1.1866 -1.9513,-1.9513 -0.3868,-0.7648 -0.5802,-1.6394 -0.5802,-2.6238 0,-1.09 0.2813,-2.0788 0.8439,-2.9666 0.5625,-0.8878 1.3668,-1.5954 2.4128,-2.1228 1.046,-0.5274 2.2898,-0.7911 3.7313,-0.7911 1.6174,0 2.9974,0.3208 4.1401,0.9625 1.1427,0.6417 2.0217,1.4635 2.637,2.4656l-3.5863 2.5842c-0.4044,-0.545 -0.9449,-0.9361 -1.6218,-1.1734 -0.6768,-0.2374 -1.3228,-0.356 -1.9381,-0.356 -0.545,0 -0.9801,0.1011 -1.3053,0.3032 -0.3253,0.2022 -0.4879,0.4791 -0.4879,0.8307 0,0.3516 0.1802,0.6329 0.5406,0.8438 0.3604,0.211 1.0768,0.4395 2.1491,0.6856 1.4767,0.334 2.6854,0.7604 3.6259,1.279 0.9405,0.5186 1.6349,1.1602 2.0832,1.925 0.4483,0.7647 0.6724,1.7008 0.6724,2.8083 0,1.1076 -0.2813,2.0964 -0.8438,2.9666 -0.5626,0.8702 -1.3712,1.5515 -2.426,2.0437 -1.0548,0.4922 -2.3118,0.7384 -3.7709,0.7384zm13.3695 -0.4747l-4.7729 0 0 -17.9578 4.7729 0 0 17.9578zm13.5014 0l-11.339 0 0 -17.9578 4.7729 0 0 15.5581 -1.4767 -2.2414 8.0428 0 0 4.6411zm12.8948 0l-11.339 0 0 -17.9578 4.7729 0 0 15.5581 -1.4767 -2.2414 8.0428 0 0 4.6411zm4.9311 -7.0935l7.5154 0 0 4.4038 -7.5154 0 0 -4.4038zm-4.351 7.0935l6.3551 -17.9578 4.7729 0 5.775 17.9578 -4.7993 0 -4.2983 -14.7143 1.8987 0 -4.9312 14.7143 -4.7729 0zm-106.943 18.9039l0 -4.562 7.489 0 0 4.562 -7.489 0zm-0.0791 -6.698l1.925 -2.1095 0 13.3958 -2.0568 -2.4524 9.0975 0 0 4.562 -11.8136 0 0 -17.9578 11.8136 0 0 4.5619 -8.9657 0zm22.3353 13.3959l-8.4648 -11.9719 1.7932 -0.4746 0 12.4465 -4.7729 0 0 -17.9578 4.4565 0 8.4383 11.9719 -1.7932 0.4746 0 -12.4465 4.7994 0 0 17.9578 -4.4565 0zm24.8139 0l-11.339 0 0 -17.9578 4.7729 0 0 15.5581 -1.4767 -2.2414 8.0428 0 0 4.6411zm4.9311 -7.0935l7.5154 0 0 4.4038 -7.5154 0 0 -4.4038zm-4.351 7.0935l6.3551 -17.9578 4.7729 0 5.775 17.9578 -4.7993 0 -4.2983 -14.7143 1.8987 0 -4.9312 14.7143 -4.7729 0zm28.5584 -8.9657l2.8479 0c0.8087,0 1.4196,-0.1846 1.8327,-0.5538 0.4132,-0.3692 0.6197,-0.9054 0.6197,-1.6086 0,-0.7207 -0.2065,-1.2657 -0.6197,-1.6349 -0.4131,-0.3692 -1.024,-0.5537 -1.8327,-0.5537l-2.8743 0 1.1603 -1.0285 0 14.3452 -4.7729 0 0 -17.9578 6.6452 0c1.4239,0 2.6721,0.2593 3.7445,0.7779 1.0723,0.5186 1.9074,1.2833 2.5051,2.2941 0.5977,1.0109 0.8966,2.2635 0.8966,3.7577 0,1.4943 -0.2989,2.7469 -0.8966,3.7577 -0.5977,1.0109 -1.4328,1.7756 -2.5051,2.2942 -1.0724,0.5186 -2.3206,0.7779 -3.7445,0.7779l-3.0062 0 0 -4.6674zm14.8462 1.8722l7.5154 0 0 4.4038 -7.5154 0 0 -4.4038zm-4.351 7.0935l6.3551 -17.9578 4.7729 0 5.775 17.9578 -4.7993 0 -4.2983 -14.7143 1.8987 0 -4.9312 14.7143 -4.7729 0zm18.0633 0l0 -17.9578 6.6452 0c1.3184,0 2.5183,0.2505 3.5994,0.7515 1.0812,0.501 1.9426,1.2394 2.5843,2.2151 0.6416,0.9757 0.9625,2.1843 0.9625,3.6258 0,1.4416 -0.3209,2.6502 -0.9625,3.6259 -0.6417,0.9756 -1.5031,1.7096 -2.5843,2.2018 -1.0811,0.4923 -2.281,0.7384 -3.5994,0.7384l-3.0062 0 0 -4.6411 2.8479 0c0.8087,0 1.4196,-0.1582 1.8327,-0.4746 0.4132,-0.3165 0.6197,-0.7999 0.6197,-1.4504 0,-0.6329 -0.2065,-1.1163 -0.6197,-1.4503 -0.4131,-0.334 -1.024,-0.501 -1.8327,-0.501l-2.8743 0 1.1603 -1.0285 0 14.3452 -4.7729 0zm8.7547 0l-3.5335 -7.1726 5.2212 0 3.5336 7.1726 -5.2213 0zm9.5986 -6.6979l0 -4.562 7.489 0 0 4.562 -7.489 0zm-0.0791 -6.698l1.925 -2.1095 0 13.3958 -2.0568 -2.4524 9.0975 0 0 4.562 -11.8136 0 0 -17.9578 11.8136 0 0 4.5619 -8.9657 0zm10.8908 13.3959l0 -17.9578 6.566 0c1.9514,0 3.5995,0.356 4.9444,1.0679 1.3448,0.712 2.3689,1.7361 3.0721,3.0721 0.7032,1.3361 1.0548,2.9447 1.0548,4.8257 0,1.881 -0.3516,3.494 -1.0548,4.8389 -0.7032,1.3448 -1.7317,2.3732 -3.0853,3.0852 -1.3537,0.712 -3.0062,1.068 -4.9575,1.068l-6.5397 0zm4.7729 -2.5315l-2.0832 -2.1096 3.4808 0c0.9845,0 1.8151,-0.145 2.4919,-0.4351 0.6769,-0.2901 1.1955,-0.7559 1.5559,-1.3976 0.3603,-0.6417 0.5405,-1.4811 0.5405,-2.5183 0,-1.0372 -0.1758,-1.8723 -0.5274,-2.5051 -0.3516,-0.6329 -0.8658,-1.0944 -1.5426,-1.3844 -0.6768,-0.2901 -1.5075,-0.4351 -2.4919,-0.4351l-3.6918 0 2.2678 -1.2394 0 12.0246z"/>
   <path id="_460061224" class="fil2" d="M104.923 93.114c0.2348,-0.4697 0.8975,-1.4782 1.4799,-1.7715l5.1804 7.7827c0.9062,1.3349 1.7408,2.5555 2.62,3.8734 0.7542,1.1304 1.9662,2.6517 2.4835,3.7973l13.0202 0.026c4.4339,0.0054 9.0156,0.8515 10.6783,-2.3272 1.3478,-2.5769 0.4892,-6.677 -5.237,-6.6407 -4.2265,0.0267 -8.624,0.096 -12.8368,-0.0134 -2.4503,-3.5161 -10.9368,-15.9573 -13.0133,-18.3683 -2.2068,-2.5624 -4.6687,-2.7649 -7.6752,-2.7531 -3.9369,0.0154 -6.2251,-0.3536 -8.9785,1.6268 -2.6335,1.8942 -3.0037,4.4255 -2.9909,7.396 0.0608,14.0902 0.7293,18.1153 2.0305,30.1202 1.1281,2.0501 3.0101,3.7586 6.246,3.9059 3.2791,0.1493 6.8641,-0.0198 10.1873,0.0045 2.2427,0.0164 8.3152,-0.2782 10.0956,0.0999 0.0126,8.9321 0.1608,18.6434 0.003,27.4788 -0.0461,2.5816 0.048,3.8884 1.3544,5.5736 0.9053,1.1678 2.8907,2.1105 5.1557,1.5097 4.7054,-1.2482 3.9105,-6.0998 3.9095,-9.7161 -0.0008,-3.0461 0.1692,-24.9655 -0.0435,-27.3709 -0.3293,-3.7254 -3.3055,-6.1496 -7.4858,-6.1707 -4.3125,-0.0218 -9.4428,0.2601 -13.6424,-0.0346l-0.073 -10.3051c-0.018,-1.4587 0.27,-3.6216 -0.4171,-4.6459 -0.701,-1.0448 -1.4535,-1.9663 -2.0508,-3.0773z"/>
   <path id="_460060816" class="fil2" d="M114.858 129.342c0.0052,-0.6337 0.2155,-6.163 -0.1284,-6.6961 -1.6066,-0.0183 -25.1342,-0.0819 -25.9199,-0.2392l-3.645 -43.4833 -6.7541 -0.028c0.0781,4.1493 1.0758,13.9157 1.4928,18.5935 0.7754,8.698 1.6789,18.8058 2.2366,27.5647 0.3046,4.7845 0.1421,14.416 0.1428,19.6645 0.0005,3.0527 -0.2033,6.567 -0.037,9.552l6.6845 0.0634 0.0639 -24.869c3.1593,-0.0076 24.708,0.1625 25.8638,-0.1225z"/>
   <path id="_460060600" class="fil2" d="M98.5202 54.839c-11.7159,2.853 -7.1623,19.4993 3.8198,17.0431 4.1534,-0.9288 7.8526,-5.0383 6.7328,-10.3982 -0.8554,-4.0946 -5.2379,-7.9391 -10.5526,-6.6449z"/>
   <ellipse id="_460060336" class="fil4 str2" cx="107.19" cy="100.399" rx="72.4586" ry="72.4586"/>
   <rect id="_460059304" class="fil5" transform="matrix(-1.73932 -1.25067 -0.650256 0.904317 152.287 46.2687)" width="6.1623" height="129.357"/>
   <rect id="_460058440" class="fil2" x="112.604" y="122.646" width="2.35794" height="30.1271"/>
  </g>
 </g>
</svg>
