<?xml version="1.0" encoding="UTF-8"?>
<!DOCTYPE svg PUBLIC "-//W3C//DTD SVG 1.1//EN" "http://www.w3.org/Graphics/SVG/1.1/DTD/svg11.dtd">
<!-- Creator: CorelDRAW -->
<svg xmlns="http://www.w3.org/2000/svg" xml:space="preserve" width="215.9mm" height="279.4mm" style="shape-rendering:geometricPrecision; text-rendering:geometricPrecision; image-rendering:optimizeQuality; fill-rule:evenodd; clip-rule:evenodd"
viewBox="0 0 215.9 279.4"
 xmlns:xlink="http://www.w3.org/1999/xlink">
 <defs>
  <style type="text/css">
   <![CDATA[
    .str0 {stroke:#0732AB;stroke-width:4}
    .fil3 {fill:#0732AB}
    .fil1 {fill:white}
    .fil2 {fill:black;fill-rule:nonzero}
    .fil0 {fill:#E6E6E6;fill-opacity:0.160784}
   ]]>
  </style>
 </defs>
 <g id="Capa_x0020_1">
  <metadata id="CorelCorpID_0Corel-Layer"/>
  <g id="_378351952">
   <polygon id="_378355480" class="fil0" points="215.9,0 -0,0 -0,279.4 215.9,279.4 "/>
   <rect id="_378355240" class="fil1 str0" x="7.95" y="10.2882" width="200" height="258.824" rx="8.4684" ry="8.4684"/>
   <path id="_378354856" class="fil2" d="M32.1001 202.962c0,-1.306 0.2093,-2.5032 0.6279,-3.5915 0.4186,-1.0883 1.013,-2.0301 1.7832,-2.8254 0.7702,-0.7954 1.691,-1.4107 2.7626,-1.846 1.0716,-0.4353 2.2604,-0.653 3.5664,-0.653 1.306,0 2.4989,0.2177 3.5789,0.653 1.0799,0.4353 2.0092,1.0506 2.7877,1.846 0.7786,0.7953 1.3772,1.7371 1.7958,2.8254 0.4186,1.0883 0.6279,2.2855 0.6279,3.5915 0,1.306 -0.2093,2.5031 -0.6279,3.5914 -0.4186,1.0883 -1.0172,2.0302 -1.7958,2.8255 -0.7785,0.7953 -1.7078,1.4064 -2.7877,1.8334 -1.08,0.4269 -2.2729,0.6404 -3.5789,0.6404 -1.306,0 -2.4948,-0.2135 -3.5664,-0.6404 -1.0716,-0.427 -1.9924,-1.0381 -2.7626,-1.8334 -0.7702,-0.7953 -1.3646,-1.7372 -1.7832,-2.8255 -0.4186,-1.0883 -0.6279,-2.2854 -0.6279,-3.5914zm4.6463 0c0,0.9376 0.1716,1.7329 0.5149,2.3859 0.3432,0.653 0.8246,1.1469 1.4441,1.4818 0.6195,0.3349 1.3311,0.5023 2.1348,0.5023 0.8204,0 1.5404,-0.1674 2.1599,-0.5023 0.6195,-0.3349 1.105,-0.833 1.4566,-1.4944 0.3517,-0.6613 0.5275,-1.4608 0.5275,-2.3984 0,-0.9377 -0.1758,-1.733 -0.5275,-2.386 -0.3516,-0.653 -0.8371,-1.1469 -1.4566,-1.4818 -0.6195,-0.3348 -1.3395,-0.5023 -2.1599,-0.5023 -0.8037,0 -1.5153,0.1716 -2.1348,0.5149 -0.6195,0.3432 -1.1009,0.8413 -1.4441,1.4943 -0.3433,0.653 -0.5149,1.4483 -0.5149,2.386zm14.2402 8.5391l0 -17.1034 6.4797 0c1.5906,0 2.838,0.1842 3.7422,0.5525 0.9041,0.3684 1.5404,0.9084 1.9087,1.62 0.3684,0.7116 0.5525,1.5864 0.5525,2.6245 0,0.7869 -0.1506,1.4776 -0.452,2.072 -0.3014,0.5944 -0.7284,1.059 -1.2809,1.3939 -0.5525,0.3349 -1.2055,0.5023 -1.959,0.5023l0 -0.427c0.9711,0 1.7413,0.1884 2.3106,0.5651 0.5693,0.3767 0.9795,0.8665 1.2307,1.4693 0.2511,0.6027 0.3767,1.239 0.3767,1.9087 0,1.6241 -0.494,2.8338 -1.4818,3.6291 -0.9879,0.7953 -2.478,1.193 -4.4705,1.193l-6.9569 0zm4.5459 -14.9937l0 12.7082 -1.5321 -2.0594 3.7924 0c0.4353,0 0.7911,-0.0921 1.0674,-0.2763 0.2763,-0.1842 0.4144,-0.4772 0.4144,-0.879 0,-0.4018 -0.1339,-0.6949 -0.4018,-0.879 -0.2679,-0.1842 -0.6112,-0.2763 -1.0298,-0.2763l-3.8426 0 0 -3.7924 3.5161 0c0.5023,0 0.8749,-0.0921 1.1177,-0.2762 0.2427,-0.1842 0.3641,-0.4772 0.3641,-0.8791 0,-0.4018 -0.1214,-0.6948 -0.3641,-0.879 -0.2428,-0.1842 -0.6154,-0.2763 -1.1177,-0.2763l-3.4407 0 1.4567 -2.2352zm20.8706 14.9937l-10.7995 0 0 -17.1034 4.5459 0 0 14.8179 -1.4065 -2.1348 7.6601 0 0 4.4203zm6.0277 0l-4.5459 0 0 -17.1034 4.5459 0 0 17.1034zm10.1214 0.3516c-1.7413,0 -3.2692,-0.3725 -4.5835,-1.1176 -1.3144,-0.7451 -2.3357,-1.7706 -3.0641,-3.0766 -0.7283,-1.306 -1.0925,-2.7962 -1.0925,-4.4705 0,-1.373 0.2093,-2.6162 0.6279,-3.7296 0.4186,-1.1134 1.013,-2.072 1.7832,-2.8757 0.7702,-0.8037 1.691,-1.4232 2.7626,-1.8585 1.0716,-0.4353 2.2604,-0.653 3.5664,-0.653 1.9589,0 3.5998,0.4312 4.9225,1.2934 1.3228,0.8623 2.2939,2.1306 2.9134,3.805l-4.0184 1.8083c-0.3851,-0.8037 -0.8874,-1.419 -1.5069,-1.846 -0.6196,-0.4269 -1.3897,-0.6404 -2.3106,-0.6404 -0.8037,0 -1.5153,0.18 -2.1348,0.54 -0.6195,0.3599 -1.1009,0.8874 -1.4441,1.5822 -0.3433,0.6949 -0.5149,1.553 -0.5149,2.5743 0,0.9041 0.1716,1.6911 0.5149,2.3608 0.3432,0.6698 0.8204,1.1846 1.4315,1.5446 0.6112,0.36 1.3186,0.54 2.1223,0.54 0.7367,0 1.3645,-0.113 1.8836,-0.3391 0.519,-0.226 0.9376,-0.5609 1.2557,-1.0046 0.3182,-0.4437 0.5275,-1.0004 0.6279,-1.6701l1.5823 1.1553 -5.7263 0 0 -3.9682 8.3131 0c0.0837,0.3181 0.1423,0.6613 0.1758,1.0297 0.0335,0.3683 0.0503,0.7451 0.0503,1.1302 0,1.2557 -0.2261,2.3733 -0.6781,3.3528 -0.4521,0.9795 -1.0633,1.8041 -1.8335,2.4739 -0.7701,0.6697 -1.6408,1.1804 -2.6119,1.532 -0.9711,0.3516 -1.9757,0.5274 -3.0138,0.5274zm12.8589 -7.1076l7.1578 0 0 4.1943 -7.1578 0 0 -4.1943zm-4.144 6.756l6.0527 -17.1034 4.5458 0 5.5002 17.1034 -4.5709 0 -4.0938 -14.0142 1.8083 0 -4.6965 14.0142 -4.5458 0zm21.2474 0l0 -15.496 4.596 0 0 15.496 -4.596 0zm-4.8473 -12.6831l0 -4.4203 14.2654 0 0 4.4203 -14.2654 0zm14.8682 4.144c0,-1.306 0.2093,-2.5032 0.6279,-3.5915 0.4186,-1.0883 1.013,-2.0301 1.7832,-2.8254 0.7702,-0.7954 1.691,-1.4107 2.7626,-1.846 1.0716,-0.4353 2.2604,-0.653 3.5664,-0.653 1.306,0 2.4989,0.2177 3.5789,0.653 1.0799,0.4353 2.0092,1.0506 2.7877,1.846 0.7786,0.7953 1.3772,1.7371 1.7958,2.8254 0.4186,1.0883 0.6279,2.2855 0.6279,3.5915 0,1.306 -0.2093,2.5031 -0.6279,3.5914 -0.4186,1.0883 -1.0172,2.0302 -1.7958,2.8255 -0.7785,0.7953 -1.7078,1.4064 -2.7877,1.8334 -1.08,0.4269 -2.2729,0.6404 -3.5789,0.6404 -1.306,0 -2.4948,-0.2135 -3.5664,-0.6404 -1.0716,-0.427 -1.9924,-1.0381 -2.7626,-1.8334 -0.7702,-0.7953 -1.3646,-1.7372 -1.7832,-2.8255 -0.4186,-1.0883 -0.6279,-2.2854 -0.6279,-3.5914zm4.6463 0c0,0.9376 0.1716,1.7329 0.5149,2.3859 0.3432,0.653 0.8246,1.1469 1.4441,1.4818 0.6195,0.3349 1.3311,0.5023 2.1348,0.5023 0.8204,0 1.5404,-0.1674 2.1599,-0.5023 0.6195,-0.3349 1.105,-0.833 1.4566,-1.4944 0.3517,-0.6613 0.5275,-1.4608 0.5275,-2.3984 0,-0.9377 -0.1758,-1.733 -0.5275,-2.386 -0.3516,-0.653 -0.8371,-1.1469 -1.4566,-1.4818 -0.6195,-0.3348 -1.3395,-0.5023 -2.1599,-0.5023 -0.8037,0 -1.5153,0.1716 -2.1348,0.5149 -0.6195,0.3432 -1.1009,0.8413 -1.4441,1.4943 -0.3433,0.653 -0.5149,1.4483 -0.5149,2.386zm14.2402 8.5391l0 -17.1034 6.329 0c1.2558,0 2.3985,0.2386 3.4282,0.7158 1.0298,0.4772 1.8502,1.1804 2.4613,2.1097 0.6111,0.9292 0.9167,2.0803 0.9167,3.4533 0,1.373 -0.3056,2.5241 -0.9167,3.4533 -0.6111,0.9293 -1.4315,1.6283 -2.4613,2.0971 -1.0297,0.4688 -2.1724,0.7033 -3.4282,0.7033l-2.8631 0 0 -4.4203 2.7124 0c0.7702,0 1.3521,-0.1507 1.7455,-0.4521 0.3935,-0.3014 0.5902,-0.7618 0.5902,-1.3813 0,-0.6028 -0.1967,-1.0632 -0.5902,-1.3813 -0.3934,-0.3182 -0.9753,-0.4772 -1.7455,-0.4772l-2.7375 0 1.1051 -0.9795 0 13.6626 -4.5459 0zm8.3382 0l-3.3654 -6.8313 4.9728 0 3.3654 6.8313 -4.9728 0zm10.9 0l-4.5459 0 0 -17.1034 4.5459 0 0 17.1034zm1.3813 -8.5391c0,-1.306 0.2093,-2.5032 0.6279,-3.5915 0.4186,-1.0883 1.013,-2.0301 1.7832,-2.8254 0.7702,-0.7954 1.691,-1.4107 2.7626,-1.846 1.0716,-0.4353 2.2604,-0.653 3.5664,-0.653 1.306,0 2.4989,0.2177 3.5789,0.653 1.0799,0.4353 2.0092,1.0506 2.7877,1.846 0.7786,0.7953 1.3772,1.7371 1.7958,2.8254 0.4186,1.0883 0.6279,2.2855 0.6279,3.5915 0,1.306 -0.2093,2.5031 -0.6279,3.5914 -0.4186,1.0883 -1.0172,2.0302 -1.7958,2.8255 -0.7785,0.7953 -1.7078,1.4064 -2.7877,1.8334 -1.08,0.4269 -2.2729,0.6404 -3.5789,0.6404 -1.306,0 -2.4948,-0.2135 -3.5664,-0.6404 -1.0716,-0.427 -1.9924,-1.0381 -2.7626,-1.8334 -0.7702,-0.7953 -1.3646,-1.7372 -1.7832,-2.8255 -0.4186,-1.0883 -0.6279,-2.2854 -0.6279,-3.5914zm4.6463 0c0,0.9376 0.1716,1.7329 0.5149,2.3859 0.3432,0.653 0.8246,1.1469 1.4441,1.4818 0.6195,0.3349 1.3311,0.5023 2.1348,0.5023 0.8204,0 1.5404,-0.1674 2.1599,-0.5023 0.6195,-0.3349 1.105,-0.833 1.4566,-1.4944 0.3517,-0.6613 0.5275,-1.4608 0.5275,-2.3984 0,-0.9377 -0.1758,-1.733 -0.5275,-2.386 -0.3516,-0.653 -0.8371,-1.1469 -1.4566,-1.4818 -0.6195,-0.3348 -1.3395,-0.5023 -2.1599,-0.5023 -0.8037,0 -1.5153,0.1716 -2.1348,0.5149 -0.6195,0.3432 -1.1009,0.8413 -1.4441,1.4943 -0.3433,0.653 -0.5149,1.4483 -0.5149,2.386zm-130.536 32.9227l-10.7995 0 0 -17.1034 4.5459 0 0 14.8179 -1.4065 -2.1348 7.6601 0 0 4.4203zm4.6966 -6.756l7.1578 0 0 4.1943 -7.1578 0 0 -4.1943zm-4.144 6.756l6.0527 -17.1034 4.5458 0 5.5002 17.1034 -4.5709 0 -4.0938 -14.0142 1.8083 0 -4.6965 14.0142 -4.5458 0zm21.8752 0l-5.6006 -17.1034 4.6714 0 4.4453 14.0142 -2.1599 0 4.4705 -14.0142 4.5459 0 -5.6007 17.1034 -4.7719 0zm14.7175 -6.756l7.1578 0 0 4.1943 -7.1578 0 0 -4.1943zm-4.144 6.756l6.0527 -17.1034 4.5458 0 5.5002 17.1034 -4.5709 0 -4.0938 -14.0142 1.8083 0 -4.6965 14.0142 -4.5458 0zm17.2038 0l0 -17.1034 6.329 0c1.2558,0 2.3985,0.2386 3.4282,0.7158 1.0298,0.4772 1.8502,1.1804 2.4613,2.1097 0.6111,0.9292 0.9167,2.0803 0.9167,3.4533 0,1.373 -0.3056,2.5241 -0.9167,3.4533 -0.6111,0.9293 -1.4315,1.6283 -2.4613,2.0971 -1.0297,0.4688 -2.1724,0.7033 -3.4282,0.7033l-2.8631 0 0 -4.4203 2.7124 0c0.7702,0 1.3521,-0.1507 1.7455,-0.4521 0.3935,-0.3014 0.5902,-0.7618 0.5902,-1.3813 0,-0.6028 -0.1967,-1.0632 -0.5902,-1.3813 -0.3934,-0.3182 -0.9753,-0.4772 -1.7455,-0.4772l-2.7375 0 1.1051 -0.9795 0 13.6626 -4.5459 0zm8.3382 0l-3.3654 -6.8313 4.9728 0 3.3654 6.8313 -4.9728 0zm12.7334 0.4521c-1.0716,0 -2.0469,-0.1549 -2.926,-0.4647 -0.879,-0.3097 -1.6576,-0.7576 -2.3357,-1.3436 -0.6781,-0.586 -1.2432,-1.2976 -1.6952,-2.1348l3.4156 -2.2352c0.4354,0.6195 1.0004,1.1176 1.6953,1.4943 0.6948,0.3767 1.4023,0.5651 2.1222,0.5651 0.5526,0 0.967,-0.1088 1.2432,-0.3265 0.2763,-0.2177 0.4144,-0.4856 0.4144,-0.8037 0,-0.2176 -0.0628,-0.4102 -0.1883,-0.5776 -0.1256,-0.1675 -0.3726,-0.3307 -0.7409,-0.4898 -0.3684,-0.159 -0.9042,-0.3139 -1.6074,-0.4646 -1.4734,-0.3349 -2.6455,-0.7576 -3.5161,-1.2683 -0.8707,-0.5107 -1.4902,-1.1302 -1.8585,-1.8585 -0.3684,-0.7284 -0.5526,-1.5614 -0.5526,-2.499 0,-1.0381 0.2679,-1.9799 0.8037,-2.8254 0.5358,-0.8456 1.3018,-1.5195 2.298,-2.0218 0.9963,-0.5023 2.1809,-0.7535 3.5538,-0.7535 1.5404,0 2.8548,0.3056 3.9431,0.9167 1.0883,0.6112 1.9255,1.3939 2.5115,2.3483l-3.4156 2.4613c-0.3851,-0.5191 -0.9,-0.8916 -1.5446,-1.1176 -0.6446,-0.2261 -1.26,-0.3391 -1.846,-0.3391 -0.519,0 -0.9334,0.0963 -1.2432,0.2888 -0.3097,0.1926 -0.4646,0.4563 -0.4646,0.7912 0,0.3348 0.1716,0.6027 0.5149,0.8036 0.3432,0.201 1.0255,0.4186 2.0468,0.653 1.4065,0.3182 2.5576,0.7242 3.4534,1.2181 0.8957,0.494 1.5571,1.1051 1.9841,1.8334 0.4269,0.7284 0.6404,1.6199 0.6404,2.6748 0,1.0548 -0.2679,1.9966 -0.8037,2.8254 -0.5358,0.8288 -1.306,1.4776 -2.3106,1.9464 -1.0046,0.4689 -2.2017,0.7033 -3.5914,0.7033zm10.9753 -6.8313l0 -4.3449 7.1327 0 0 4.3449 -7.1327 0zm-0.0754 -6.3793l1.8335 -2.0092 0 12.7585 -1.959 -2.3357 8.6647 0 0 4.3449 -11.2516 0 0 -17.1034 11.2516 0 0 4.3449 -8.5392 0zm27.702 12.7585l-10.7995 0 0 -17.1034 4.5459 0 0 14.8179 -1.4065 -2.1348 7.6601 0 0 4.4203zm4.6966 -6.756l7.1578 0 0 4.1943 -7.1578 0 0 -4.1943zm-4.144 6.756l6.0527 -17.1034 4.5458 0 5.5002 17.1034 -4.5709 0 -4.0938 -14.0142 1.8083 0 -4.6965 14.0142 -4.5458 0zm23.5831 0.4521c-1.0716,0 -2.0469,-0.1549 -2.926,-0.4647 -0.879,-0.3097 -1.6576,-0.7576 -2.3357,-1.3436 -0.6781,-0.586 -1.2432,-1.2976 -1.6952,-2.1348l3.4156 -2.2352c0.4354,0.6195 1.0004,1.1176 1.6953,1.4943 0.6948,0.3767 1.4023,0.5651 2.1222,0.5651 0.5526,0 0.967,-0.1088 1.2432,-0.3265 0.2763,-0.2177 0.4144,-0.4856 0.4144,-0.8037 0,-0.2176 -0.0628,-0.4102 -0.1883,-0.5776 -0.1256,-0.1675 -0.3726,-0.3307 -0.7409,-0.4898 -0.3684,-0.159 -0.9042,-0.3139 -1.6074,-0.4646 -1.4734,-0.3349 -2.6455,-0.7576 -3.5161,-1.2683 -0.8707,-0.5107 -1.4902,-1.1302 -1.8585,-1.8585 -0.3684,-0.7284 -0.5526,-1.5614 -0.5526,-2.499 0,-1.0381 0.2679,-1.9799 0.8037,-2.8254 0.5358,-0.8456 1.3018,-1.5195 2.298,-2.0218 0.9963,-0.5023 2.1809,-0.7535 3.5538,-0.7535 1.5404,0 2.8548,0.3056 3.9431,0.9167 1.0883,0.6112 1.9255,1.3939 2.5115,2.3483l-3.4156 2.4613c-0.3851,-0.5191 -0.9,-0.8916 -1.5446,-1.1176 -0.6446,-0.2261 -1.26,-0.3391 -1.846,-0.3391 -0.519,0 -0.9334,0.0963 -1.2432,0.2888 -0.3097,0.1926 -0.4646,0.4563 -0.4646,0.7912 0,0.3348 0.1716,0.6027 0.5149,0.8036 0.3432,0.201 1.0255,0.4186 2.0468,0.653 1.4065,0.3182 2.5576,0.7242 3.4534,1.2181 0.8957,0.494 1.5571,1.1051 1.9841,1.8334 0.4269,0.7284 0.6404,1.6199 0.6404,2.6748 0,1.0548 -0.2679,1.9966 -0.8037,2.8254 -0.5358,0.8288 -1.306,1.4776 -2.3106,1.9464 -1.0046,0.4689 -2.2017,0.7033 -3.5914,0.7033zm-112.955 23.9315l2.9385 -17.1034 4.0938 0 3.6417 11.1009 -0.3768 0 3.6417 -11.1009 4.0687 0 2.9635 17.1034 -4.4704 0 -1.0298 -7.2583c-0.1172,-0.9041 -0.2344,-1.8124 -0.3516,-2.725 -0.1172,-0.9125 -0.2344,-1.8292 -0.3516,-2.7501l1.306 0c-0.2344,0.8874 -0.4563,1.7832 -0.6656,2.6874 -0.2092,0.9041 -0.4562,1.7999 -0.7408,2.6873l-2.386 7.2331 -3.5914 0 -2.386 -7.2331c-0.3014,-0.8874 -0.5567,-1.7832 -0.766,-2.6873 -0.2093,-0.9042 -0.4311,-1.8 -0.6655,-2.6874l1.3311 0c-0.1172,0.9209 -0.2303,1.8376 -0.3391,2.7501 -0.1088,0.9126 -0.2302,1.8209 -0.3642,2.725l-1.0297 7.2583 -4.4705 0zm25.4417 -6.756l7.1578 0 0 4.1943 -7.1578 0 0 -4.1943zm-4.144 6.756l6.0527 -17.1034 4.5458 0 5.5002 17.1034 -4.5709 0 -4.0938 -14.0142 1.8083 0 -4.6965 14.0142 -4.5458 0zm28.1038 0l-8.062 -11.4023 1.7079 -0.452 0 11.8543 -4.5459 0 0 -17.1034 4.2445 0 8.0368 11.4023 -1.7078 0.452 0 -11.8543 4.5709 0 0 17.1034 -4.2444 0zm5.6257 -8.5391c0,-1.306 0.2093,-2.5032 0.6279,-3.5915 0.4186,-1.0883 1.013,-2.0301 1.7832,-2.8254 0.7702,-0.7954 1.691,-1.4107 2.7626,-1.846 1.0716,-0.4353 2.2604,-0.653 3.5664,-0.653 1.306,0 2.4989,0.2177 3.5789,0.653 1.0799,0.4353 2.0092,1.0506 2.7877,1.846 0.7786,0.7953 1.3772,1.7371 1.7958,2.8254 0.4186,1.0883 0.6279,2.2855 0.6279,3.5915 0,1.306 -0.2093,2.5031 -0.6279,3.5914 -0.4186,1.0883 -1.0172,2.0302 -1.7958,2.8255 -0.7785,0.7953 -1.7078,1.4064 -2.7877,1.8334 -1.08,0.4269 -2.2729,0.6404 -3.5789,0.6404 -1.306,0 -2.4948,-0.2135 -3.5664,-0.6404 -1.0716,-0.427 -1.9924,-1.0381 -2.7626,-1.8334 -0.7702,-0.7953 -1.3646,-1.7372 -1.7832,-2.8255 -0.4186,-1.0883 -0.6279,-2.2854 -0.6279,-3.5914zm4.6463 0c0,0.9376 0.1716,1.7329 0.5149,2.3859 0.3432,0.653 0.8246,1.1469 1.4441,1.4818 0.6195,0.3349 1.3311,0.5023 2.1348,0.5023 0.8204,0 1.5404,-0.1674 2.1599,-0.5023 0.6195,-0.3349 1.105,-0.833 1.4566,-1.4944 0.3517,-0.6613 0.5275,-1.4608 0.5275,-2.3984 0,-0.9377 -0.1758,-1.733 -0.5275,-2.386 -0.3516,-0.653 -0.8371,-1.1469 -1.4566,-1.4818 -0.6195,-0.3348 -1.3395,-0.5023 -2.1599,-0.5023 -0.8037,0 -1.5153,0.1716 -2.1348,0.5149 -0.6195,0.3432 -1.1009,0.8413 -1.4441,1.4943 -0.3433,0.653 -0.5149,1.4483 -0.5149,2.386zm20.6195 8.9912c-1.0716,0 -2.0469,-0.1549 -2.926,-0.4647 -0.879,-0.3097 -1.6576,-0.7576 -2.3357,-1.3436 -0.6781,-0.586 -1.2432,-1.2976 -1.6952,-2.1348l3.4156 -2.2352c0.4354,0.6195 1.0004,1.1176 1.6953,1.4943 0.6948,0.3767 1.4023,0.5651 2.1222,0.5651 0.5526,0 0.967,-0.1088 1.2432,-0.3265 0.2763,-0.2177 0.4144,-0.4856 0.4144,-0.8037 0,-0.2176 -0.0628,-0.4102 -0.1883,-0.5776 -0.1256,-0.1675 -0.3726,-0.3307 -0.7409,-0.4898 -0.3684,-0.159 -0.9042,-0.3139 -1.6074,-0.4646 -1.4734,-0.3349 -2.6455,-0.7576 -3.5161,-1.2683 -0.8707,-0.5107 -1.4902,-1.1302 -1.8585,-1.8585 -0.3684,-0.7284 -0.5526,-1.5614 -0.5526,-2.499 0,-1.0381 0.2679,-1.9799 0.8037,-2.8254 0.5358,-0.8456 1.3018,-1.5195 2.298,-2.0218 0.9963,-0.5023 2.1809,-0.7535 3.5538,-0.7535 1.5404,0 2.8548,0.3056 3.9431,0.9167 1.0883,0.6112 1.9255,1.3939 2.5115,2.3483l-3.4156 2.4613c-0.3851,-0.5191 -0.9,-0.8916 -1.5446,-1.1176 -0.6446,-0.2261 -1.26,-0.3391 -1.846,-0.3391 -0.519,0 -0.9334,0.0963 -1.2432,0.2888 -0.3097,0.1926 -0.4646,0.4563 -0.4646,0.7912 0,0.3348 0.1716,0.6027 0.5149,0.8036 0.3432,0.201 1.0255,0.4186 2.0468,0.653 1.4065,0.3182 2.5576,0.7242 3.4534,1.2181 0.8957,0.494 1.5571,1.1051 1.9841,1.8334 0.4269,0.7284 0.6404,1.6199 0.6404,2.6748 0,1.0548 -0.2679,1.9966 -0.8037,2.8254 -0.5358,0.8288 -1.306,1.4776 -2.3106,1.9464 -1.0046,0.4689 -2.2017,0.7033 -3.5914,0.7033z"/>
   <path id="_378354712" class="fil1" d="M83.2036 138.538c-1.7701,-1.2465 -7.3578,-2.0345 -9.7781,-3.4851 -2.6835,-1.6084 -4.6729,-4.2379 -7.098,-6.2184 -0.9791,-0.7996 -2.672,-2.1446 -4.4639,-2.2644 -3.0925,-0.2065 -1.7964,1.465 -5.1415,-0.6462 -3.7914,-2.3928 -7.3831,0.0672 -5.8275,4.8341 0.9415,2.8851 3.302,6.4227 4.7512,8.5611 1.84,2.715 3.7435,5.3177 5.5209,7.7908 2.1754,3.0268 3.0759,5.0671 6.4761,6.8209 3.644,1.8797 24.6826,8.2992 29.7629,9.9655 4.5614,1.496 5.5884,2.5431 10.947,1.2316 3.3852,-0.8284 6.8278,-2.224 9.857,-3.4528 14.9369,-6.0589 19.9199,-8.4796 36.4442,-1.015 1.2421,0.5611 3.2815,1.7595 4.5081,2.1145 0.6406,-0.8957 1.7471,-4.6851 2.1551,-5.8242 0.956,-2.6687 5.9532,-16.8351 5.8912,-17.5736 -13.9031,-4.0517 -16.3383,-3.9732 -29.1273,-11.1993 -4.0455,-2.2859 -9.3075,-4.8144 -15.053,-5.1486 -9.3456,-0.5436 -14.925,4.4637 -22.6571,7.4837 -4.3587,1.7025 -11.9983,3.334 -13.819,6.4305 -1.5559,2.646 -0.8492,5.7133 1.0728,7.141 2.6335,1.9562 5.1262,1.2576 8.082,0.246 2.5543,-0.8741 4.9765,-1.696 7.4334,-2.5052 2.4286,-0.8 13.6844,-4.7712 15.1146,-4.9871l0.5349 1.9764 -19.9178 6.6918c-3.3799,1.0971 -7.0234,2.905 -10.8079,1.321 -3.1523,-1.3194 -4.8621,-3.8462 -4.8603,-8.289z"/>
   <path id="_378354928" class="fil1" d="M104.354 47.73l1.3798 0.4966 0.8046 -0.9647 1.8766 1.2193 -0.075 5.7442c-2.5947,0.9473 -1.6112,0.7894 -4.2041,0.8487 -1.3702,2.6164 -0.7156,1.9349 -2.3524,2.8095 0.0355,2.5316 -0.1876,2.1237 0.5238,2.7518l0.5484 0.5599c-0.0001,2.6731 0.3277,5.5063 -1.1808,7.2532 -2.7691,3.2069 -9.6373,0.5549 -16.9835,8.041 -6.7961,6.9254 -7.3527,16.1911 -7.9445,17.0895 -1.6228,2.4633 -0.9731,3.2453 -0.095,6.6951l11.9591 -0.0224c0.0261,-4.822 -0.5719,-8.4808 2.3738,-12.7032 1.1061,-1.5856 2.6816,-2.9586 5.0532,-3.4785 6.173,-1.3532 7.8756,3.1749 11.7051,4.9081 2.053,0.9292 5.09,1.109 7.3745,0.4524 2.1932,-0.6304 3.8099,-2.0219 5.4008,-3.1266 4.751,-3.2994 7.7908,-2.4347 14.5625,-2.4143l0.1116 1.0786 2.3243 3.2109 6.8501 -0.0942 -0.0418 -21.6204 -6.7452 0.0075 -2.4037 3.2534 -0.1494 1.0874c-2.5644,0.2106 -9.4465,0.3279 -11.2568,-0.6413l-3.0977 -8.9762c0.4923,-1.1426 1.1168,0.1249 1.1356,-1.9831l-1.3422 -1.8137 -1.0359 -2.3282 -2.3667 -0.0929 -0.594 -0.6965 -1.3637 -0.1056 0.0181 -5.6942 1.9604 -1.2022 0.7357 0.9722 1.4279 -0.5567c2.4496,0.2427 5.6574,1.964 7.7244,1.3575 2.1111,-0.6194 4.0855,-2.6401 4.1331,-5.3395 0.0495,-2.7984 -1.9744,-4.7826 -3.953,-5.5234l-7.9045 1.2143 -1.3901 -0.4688 -0.7943 0.9225c-0.987,-0.0517 -2.402,-1.8739 -5.163,-1.9268 -2.3901,-0.0458 -3.5059,0.8752 -5.4047,1.9731 -0.6115,-0.7594 -0.7481,-1.2537 -1.6726,-0.9076l-0.6673 0.4222c-2.3731,-0.3087 -5.6139,-1.9883 -7.7334,-1.2508 -2.033,0.7074 -4.0432,2.749 -3.9952,5.5504 0.0446,2.6105 1.9606,4.6895 4.166,5.3552 2.173,0.6559 5.3014,-1.3414 7.7611,-1.3427z"/>
   <path id="_378354832" class="fil1" d="M88.4451 129.895l-0.8517 -0.8325c-0.5251,0.0135 -1.9247,-0.1548 -2.0814,1.2851 -0.2267,2.0843 3.2822,2.683 2.9331,-0.4526z"/>
   <path id="_378354664" class="fil1" d="M79.9042 131.167c0.1102,-1.2175 -0.1359,-1.3955 -0.7236,-2.0332 -4.0397,-0.4928 -1.9166,4.9847 0.7236,2.0332z"/>
   <path id="_378353896" class="fil1" d="M77.3767 126.592c1.3649,1.5885 3.0806,0.6218 2.7323,-0.9924 -0.2695,-1.2484 -2.9914,-1.8124 -2.7323,0.9924z"/>
   <path id="_378354016" class="fil1" d="M95.5971 125.134c-1.5632,-1.7698 -3.2393,-0.3475 -2.6847,1.1301 0.4296,1.1445 2.8515,1.5127 2.6847,-1.1301z"/>
   <path id="_378354424" class="fil1" d="M87.3552 127.364c0.7353,-0.7039 0.8642,-0.6593 0.7018,-2.0371 -2.6533,-2.4501 -4.288,2.3237 -0.7018,2.0371z"/>
   <path id="_378354448" class="fil1" d="M72.6034 125.083c-0.7073,-0.7448 -0.6597,-0.8883 -2.0611,-0.704 -2.3569,2.6591 2.2936,4.2783 2.0611,0.704z"/>
   <path id="_378354400" class="fil1" d="M70.7854 120.711c-0.2506,3.5562 4.3454,1.5108 1.8012,-0.6965l-1.0316 0.0061c-0.3154,0.2392 -0.4406,0.3684 -0.7696,0.6904z"/>
   <path id="_378353944" class="fil1" d="M94.603 120.579l-0.5973 -0.5615 -1.1569 0.0312c-2.5944,2.253 2.3973,4.1789 1.7542,0.5303z"/>
   <path id="_378354376" class="fil1" d="M77.7097 121.075c-0.005,1.0231 0.1314,1.1659 0.6156,1.6805 1.5171,0.23 2.0787,-0.2892 1.9494,-1.7718 -1.1114,-1.1987 -1.5395,-0.9863 -2.565,0.0913z"/>
   <path id="_378353704" class="fil1" d="M87.1158 122.767c1.0014,-1.0884 0.8784,-1.4608 -0.038,-2.4384 -2.5904,-0.4696 -2.7463,2.8117 0.038,2.4384z"/>
   <path id="_378353680" class="fil1" d="M85.6878 118.315c0.4665,0.021 1.8293,0.1159 1.7158,-1.2572 -0.1826,-2.2086 -4.0787,-0.7517 -1.7158,1.2572z"/>
   <path id="_378353800" class="fil1" d="M80.4738 117.624l-0.0203 -0.9731c-0.9568,-1.1727 -2.4306,-0.7962 -2.3772,0.5667 0.0264,0.6742 0.5035,1.1116 1.0784,1.1637 0.7439,0.0675 0.9814,-0.3499 1.3191,-0.7573z"/>
   <path id="_378353632" class="fil1" d="M91.3617 111.627c-0.3291,0.3505 -0.7717,0.6268 -0.6202,1.3333 0.1268,0.591 0.7166,1.0306 1.4457,0.838 0.9647,-0.2549 1.4963,-2.2215 -0.8255,-2.1713z"/>
   <path id="_378353656" class="fil1" d="M84.8103 112.442c-0.0756,1.4477 1.0483,1.9944 1.8815,1.2145 0.8478,-0.7935 0.2737,-2.0371 -1.2162,-1.9068l-0.6653 0.6923z"/>
   <path id="_378353776" class="fil1" d="M92.0796 118.133l1.1085 -0.0047 0.5955 -1.7055 -1.7926 -0.5816c-0.8506,1.103 -0.8179,1.4307 0.0886,2.2918z"/>
   <path id="_378352888" class="fil1" d="M80.6321 112.449c-0.4418,-0.5834 -0.4643,-0.7726 -1.4974,-0.6953 -2.2829,1.9819 1.697,3.479 1.4974,0.6953z"/>
   <path id="_378352576" class="fil1" d="M72.3668 118.165c1.2321,-0.0283 0.8332,0.1395 1.6488,-0.6451l-1.7331 -1.7251c-0.8752,0.9274 -1.0159,1.5216 0.0843,2.3702z"/>
   <path id="_378352312" class="fil1" d="M78.8232 108.125c-0.0152,0.9477 -0.1453,0.6042 0.5106,1.386l1.0167 -0.0444c0.7532,-0.9005 0.6825,-1.0906 -0.0665,-1.9384l-0.929 0.0177 -0.5318 0.5791z"/>
   <path id="_378352672" class="fil1" d="M73.3892 108.043l0.0132 0.8497 0.5692 0.5385c1.2029,0.1318 1.5948,-0.3217 1.3082,-1.5512 -0.8149,-0.7254 -1.3444,-0.5118 -1.8906,0.163z"/>
   <path id="_378353008" class="fil1" d="M86.2835 109.386c0.3986,-0.541 0.3979,-0.5501 0.3454,-1.3039l-0.5443 -0.5554 -0.9325 0.0391c-0.9351,1.0089 -0.6401,2.3001 1.1314,1.8202z"/>
   <path id="_378352504" class="fil1" d="M72.6263 112.066l0.5186 1.7452 1.5471 -0.606 -0.4981 -1.5278c-0.8959,-0.1068 -1.0505,-0.0396 -1.5676,0.3886z"/>
   <path id="_378351712" class="fil1" d="M86.1373 105.157c0.5097,-1.4534 -0.6107,-2.1798 -1.4061,-1.4077 -0.7434,0.7217 -0.1707,2.0038 1.4061,1.4077z"/>
   <path id="_378351592" class="fil1" d="M79.5592 103.566c-0.6733,0.9709 -0.4035,2.2455 0.9139,1.7148 0.6859,-0.2764 1.088,-1.9547 -0.9139,-1.7148z"/>
   <path id="_378352264" class="fil1" d="M91.0915 105.145l0.1075 -1.2145c-2.0068,-1.7087 -2.7742,2.244 -0.1075,1.2145z"/>
   <path id="_378351976" class="fil1" d="M74.576 105.268l0.9843 0.0117c0.4586,-0.4239 0.5683,-0.4137 0.4716,-1.2621l-0.4512 -0.4923 -0.8147 0.0277c-0.7806,0.6583 -0.7589,0.8947 -0.19,1.715z"/>
   <path id="_378351616" class="fil1" d="M90.1424 109.019l0.5111 0.4568 0.9719 -0.0558 0.0201 -1.9207 -1.1515 0.0493c-0.3625,0.4261 -0.4866,0.7062 -0.3516,1.4704z"/>
   <path id="_378351880" class="fil3" d="M88.4451 129.895c0.3491,3.1356 -3.1598,2.5369 -2.9331,0.4526 0.1567,-1.4399 1.5563,-1.2716 2.0814,-1.2851l0.8517 0.8325zm-8.5409 1.2713c-2.6402,2.9515 -4.7633,-2.526 -0.7236,-2.0332 0.5877,0.6377 0.8338,0.8157 0.7236,2.0332zm3.2994 7.3709c-0.0018,4.4428 1.708,6.9696 4.8603,8.289 3.7845,1.584 7.428,-0.2239 10.8079,-1.321l19.9178 -6.6918 -0.5349 -1.9764c-1.4302,0.2159 -12.686,4.1871 -15.1146,4.9871 -2.4569,0.8092 -4.8791,1.6311 -7.4334,2.5052 -2.9558,1.0116 -5.4485,1.7102 -8.082,-0.246 -1.922,-1.4277 -2.6287,-4.495 -1.0728,-7.141 1.8207,-3.0965 9.4603,-4.728 13.819,-6.4305 7.7321,-3.02 13.3115,-8.0273 22.6571,-7.4837 5.7455,0.3342 11.0075,2.8627 15.053,5.1486 12.789,7.2261 15.2242,7.1476 29.1273,11.1993 0.062,0.7385 -4.9352,14.9049 -5.8912,17.5736 -0.408,1.1391 -1.5145,4.9285 -2.1551,5.8242 -1.2266,-0.355 -3.266,-1.5534 -4.5081,-2.1145 -16.5243,-7.4646 -21.5073,-5.0439 -36.4442,1.015 -3.0292,1.2288 -6.4718,2.6244 -9.857,3.4528 -5.3586,1.3115 -6.3856,0.2644 -10.947,-1.2316 -5.0803,-1.6663 -26.1189,-8.0858 -29.7629,-9.9655 -3.4002,-1.7538 -4.3007,-3.7941 -6.4761,-6.8209 -1.7774,-2.4731 -3.6809,-5.0758 -5.5209,-7.7908 -1.4492,-2.1384 -3.8097,-5.676 -4.7512,-8.5611 -1.5556,-4.7669 2.0361,-7.2269 5.8275,-4.8341 3.3451,2.1112 2.049,0.4397 5.1415,0.6462 1.7919,0.1198 3.4848,1.4648 4.4639,2.2644 2.4251,1.9805 4.4145,4.61 7.098,6.2184 2.4203,1.4506 8.008,2.2386 9.7781,3.4851zm4.1516 -11.1738c-3.5862,0.2866 -1.9515,-4.4872 0.7018,-2.0371 0.1624,1.3778 0.0335,1.3332 -0.7018,2.0371zm-9.9785 -0.7716c-0.2591,-2.8048 2.4628,-2.2408 2.7323,-0.9924 0.3483,1.6142 -1.3674,2.5809 -2.7323,0.9924zm18.2204 -1.4584c0.1668,2.6428 -2.2551,2.2746 -2.6847,1.1301 -0.5546,-1.4776 1.1215,-2.8999 2.6847,-1.1301zm-22.9937 -0.0512c0.2325,3.5743 -4.418,1.9551 -2.0611,-0.704 1.4014,-0.1843 1.3538,-0.0408 2.0611,0.704zm21.9996 -4.5031c0.6431,3.6486 -4.3486,1.7227 -1.7542,-0.5303l1.1569 -0.0312 0.5973 0.5615zm-7.4872 2.1871c-2.7843,0.3733 -2.6284,-2.908 -0.038,-2.4384 0.9164,0.9776 1.0394,1.35 0.038,2.4384zm-9.4061 -1.6915c1.0255,-1.0776 1.4536,-1.29 2.565,-0.0913 0.1293,1.4826 -0.4323,2.0018 -1.9494,1.7718 -0.4842,-0.5146 -0.6206,-0.6574 -0.6156,-1.6805zm-6.9243 -0.3641c0.329,-0.322 0.4542,-0.4512 0.7696,-0.6904l1.0316 -0.0061c2.5442,2.2073 -2.0518,4.2527 -1.8012,0.6965zm21.2942 -2.5784c-0.9065,-0.8611 -0.9392,-1.1888 -0.0886,-2.2918l1.7926 0.5816 -0.5955 1.7055 -1.1085 0.0047zm-6.3918 0.1824c-2.3629,-2.0089 1.5332,-3.4658 1.7158,-1.2572 0.1135,1.3731 -1.2493,1.2782 -1.7158,1.2572zm-5.214 -0.6905c-0.3377,0.4074 -0.5752,0.8248 -1.3191,0.7573 -0.5749,-0.0521 -1.052,-0.4895 -1.0784,-1.1637 -0.0534,-1.3629 1.4204,-1.7394 2.3772,-0.5667l0.0203 0.9731zm-8.107 0.5403c-1.1002,-0.8486 -0.9595,-1.4428 -0.0843,-2.3702l1.7331 1.7251c-0.8156,0.7846 -0.4167,0.6168 -1.6488,0.6451zm13.1088 -6.4153c1.4899,-0.1303 2.064,1.1133 1.2162,1.9068 -0.8332,0.7799 -1.9571,0.2332 -1.8815,-1.2145l0.6653 -0.6923zm-4.8435 0.7c0.1996,2.7837 -3.7803,1.2866 -1.4974,-0.6953 1.0331,-0.0773 1.0556,0.1119 1.4974,0.6953zm-8.0058 -0.3838c0.5171,-0.4282 0.6717,-0.4954 1.5676,-0.3886l0.4981 1.5278 -1.5471 0.606 -0.5186 -1.7452zm18.7354 -0.439c2.3218,-0.0502 1.7902,1.9164 0.8255,2.1713 -0.7291,0.1926 -1.3189,-0.247 -1.4457,-0.838 -0.1515,-0.7065 0.2911,-0.9828 0.6202,-1.3333zm-12.0067 -4.0806l0.929 -0.0177c0.749,0.8478 0.8197,1.0379 0.0665,1.9384l-1.0167 0.0444c-0.6559,-0.7818 -0.5258,-0.4383 -0.5106,-1.386l0.5318 -0.5791zm10.7874 1.4726c-0.135,-0.7642 -0.0109,-1.0443 0.3516,-1.4704l1.1515 -0.0493 -0.0201 1.9207 -0.9719 0.0558 -0.5111 -0.4568zm-3.8589 0.3678c-1.7715,0.4799 -2.0665,-0.8113 -1.1314,-1.8202l0.9325 -0.0391 0.5443 0.5554c0.0525,0.7538 0.0532,0.7629 -0.3454,1.3039zm-12.8943 -1.3432c0.5462,-0.6748 1.0757,-0.8884 1.8906,-0.163 0.2866,1.2295 -0.1053,1.683 -1.3082,1.5512l-0.5692 -0.5385 -0.0132 -0.8497zm17.7023 -2.8986c-2.6667,1.0295 -1.8993,-2.9232 0.1075,-1.2145l-0.1075 1.2145zm-4.9542 0.0127c-1.5768,0.5961 -2.1495,-0.686 -1.4061,-1.4077 0.7954,-0.7721 1.9158,-0.0457 1.4061,1.4077zm-11.5613 0.1107c-0.5689,-0.8203 -0.5906,-1.0567 0.19,-1.715l0.8147 -0.0277 0.4512 0.4923c0.0967,0.8484 -0.013,0.8382 -0.4716,1.2621l-0.9843 -0.0117zm4.9832 -1.7024c2.0019,-0.2399 1.5998,1.4384 0.9139,1.7148 -1.3174,0.5307 -1.5872,-0.7439 -0.9139,-1.7148zm55.4678 -32.7528l0.1494 -1.0874 2.4037 -3.2534 6.7452 -0.0075 0.0418 21.6204 -6.8501 0.0942 -2.3243 -3.2109 -0.1116 -1.0786c-6.7717,-0.0204 -9.8115,-0.8851 -14.5625,2.4143 -1.5909,1.1047 -3.2076,2.4962 -5.4008,3.1266 -2.2845,0.6566 -5.3215,0.4768 -7.3745,-0.4524 -3.8295,-1.7332 -5.5321,-6.2613 -11.7051,-4.9081 -2.3716,0.5199 -3.9471,1.8929 -5.0532,3.4785 -2.9457,4.2224 -2.3477,7.8812 -2.3738,12.7032l-11.9591 0.0224c-0.8781,-3.4498 -1.5278,-4.2318 0.095,-6.6951 0.5918,-0.8984 1.1484,-10.1641 7.9445,-17.0895 7.3462,-7.4861 14.2144,-4.8341 16.9835,-8.041 1.5085,-1.7469 1.1807,-4.5801 1.1808,-7.2532l-0.5484 -0.5599c-0.7114,-0.6281 -0.4883,-0.2202 -0.5238,-2.7518 1.6368,-0.8746 0.9822,-0.1931 2.3524,-2.8095 2.5929,-0.0593 1.6094,0.0986 4.2041,-0.8487l0.075 -5.7442 -1.8766 -1.2193 -0.8046 0.9647 -1.3798 -0.4966c-2.4597,0.0013 -5.5881,1.9986 -7.7611,1.3427 -2.2054,-0.6657 -4.1214,-2.7447 -4.166,-5.3552 -0.048,-2.8014 1.9622,-4.843 3.9952,-5.5504 2.1195,-0.7375 5.3603,0.9421 7.7334,1.2508l0.6673 -0.4222c0.9245,-0.3461 1.0611,0.1482 1.6726,0.9076 1.8988,-1.0979 3.0146,-2.0189 5.4047,-1.9731 2.761,0.0529 4.176,1.8751 5.163,1.9268l0.7943 -0.9225 1.3901 0.4688 7.9045 -1.2143c1.9786,0.7408 4.0025,2.725 3.953,5.5234 -0.0476,2.6994 -2.022,4.7201 -4.1331,5.3395 -2.067,0.6065 -5.2748,-1.1148 -7.7244,-1.3575l-1.4279 0.5567 -0.7357 -0.9722 -1.9604 1.2022 -0.0181 5.6942 1.3637 0.1056 0.594 0.6965 2.3667 0.0929 1.0359 2.3282 1.3422 1.8137c-0.0188,2.108 -0.6433,0.8405 -1.1356,1.9831l3.0977 8.9762c1.8103,0.9692 8.6924,0.8519 11.2568,0.6413zm-32.2243 -50.0036c-22.3295,2.1835 -40.3896,11.0645 -54.3665,26.7638 -6.3074,7.0848 -11.3539,14.8529 -15.3898,25.1176 -3.9834,10.1309 -6.1458,22.8908 -5.1629,35.1888 1.9764,24.7273 13.8138,42.7586 26.8123,54.4476 14.1893,12.7598 34.7143,22.2411 60.3818,20.5181 32.7257,-2.1969 58.8979,-24.1079 69.7166,-51.8931 4.0469,-10.3937 6.0042,-22.5607 5.1547,-35.1911 -2.2466,-33.4033 -24.3544,-58.9286 -51.9232,-69.8481 -9.6185,-3.8097 -23.3391,-6.2656 -35.223,-5.1036z"/>
  </g>
 </g>
</svg>
