<?xml version="1.0" encoding="UTF-8"?>
<!DOCTYPE svg PUBLIC "-//W3C//DTD SVG 1.1//EN" "http://www.w3.org/Graphics/SVG/1.1/DTD/svg11.dtd">
<!-- Creator: CorelDRAW -->
<svg xmlns="http://www.w3.org/2000/svg" xml:space="preserve" width="704.681mm" height="646.176mm" style="shape-rendering:geometricPrecision; text-rendering:geometricPrecision; image-rendering:optimizeQuality; fill-rule:evenodd; clip-rule:evenodd"
viewBox="0 0 704.681 646.176"
 xmlns:xlink="http://www.w3.org/1999/xlink">
 <defs>
  <style type="text/css">
   <![CDATA[
    .fil3 {fill:#050102}
    .fil2 {fill:#DA3136}
    .fil1 {fill:#E4840B}
    .fil0 {fill:#F0F1EC}
   ]]>
  </style>
 </defs>
 <g id="Capa_x0020_1">
  <metadata id="CorelCorpID_0Corel-Layer"/>
  <path id="_390564512" class="fil0" d="M297.473 199.356c-0.5719,9.3537 4.2416,13.6031 13.5037,11.9337 13.6614,-9.7231 -0.908,-26.1974 -13.5037,-11.9337z"/>
  <path id="_602346008" class="fil0" d="M180.72 200.882c2.2126,24.2515 29.7535,-7.015 3.5844,-4.4809l-3.5844 4.4809z"/>
  <path id="_394061264" class="fil1" d="M245.214 591.349c5.6966,6.6089 52.4802,22.6653 62.7224,24.7758 24.3947,5.0272 45.9539,-2.5915 61.2718,-22.4506 16.236,-21.0493 18.6266,-43.6654 17.1103,-70.2531l-5.83 -81.771 -14.2021 13.0453c1.9909,-20.6785 36.0271,-55.4013 49.215,-68.8848 10.5867,-10.8242 49.9595,-53.1879 54.9069,-64.9013 -5.5308,0.1052 -23.1706,16.1906 -28.5911,21.4594 -20.9333,20.3479 -61.112,55.0693 -74.6504,78.7798 -8.0997,14.1852 -15.8889,37.7255 -10.4896,54.1607 9.2766,28.2358 31.5081,59.6385 -2.6946,101.709 -32.8199,40.3709 -87.0685,11.9874 -108.769,14.3305z"/>
  <path id="_394049648" class="fil1" d="M21.0085 503.433c2.726,4.4021 12.9004,29.2335 20.3947,37.23l32.6965 26.7226 5.8122 -29.9568c4.3222,22.7523 1.4035,13.8957 7.7724,21.1312 25.1931,28.6201 63.0136,23.0745 92.5369,22.5615 15.7066,-0.273 25.1325,1.4327 40.1862,3.5756 -7.1435,-6.285 -27.8284,-4.8725 -33.4916,-7.9709 -4.2453,-2.3225 -0.876,-2.6073 -8.2277,-4.367 -14.1872,-3.3963 -27.1284,-5.4161 -40.9873,-10.7339 -42.0965,-16.1517 -51.7569,-39.5872 -62.3597,-42.3755 1.0973,10.8384 2.3558,26.0994 2.2224,36.8252l-7.9504 -4.5789 -37.5535 -50.6208c-7.9231,-8.0434 -5.3302,-9.7761 -9.6504,0.127 -0.1415,0.3249 -0.5524,1.4271 -0.6622,1.207 -0.114,-0.2285 -0.4591,0.8378 -0.7385,1.2237z"/>
  <path id="_394831680" class="fil1" d="M294.982 127.491l13.8845 3.3289 36.6918 -33.3342c-0.4661,-6.3272 -1.8055,-15.6284 -5.0212,-20.2185 -9.5367,9.2234 -13.6917,12.6925 -23.3946,24.4608 -5.7522,6.9769 -19.2542,17.6782 -22.1605,25.763z"/>
  <path id="_394050920" class="fil2" d="M328.507 315.822c8.3767,-6.9379 14.5997,-11.8953 24.4398,-17.6357 7.2982,-4.2581 21.2663,-11.039 26.7485,-14.9028l-3.3929 -0.2938c-0.5565,-8.9598 -0.1284,-10.4047 -5.0124,-17.8528 -7.7273,-11.7842 -8.1573,-6.5045 -9.4822,-12.3939 -10.3244,-2.5223 -13.3372,-8.6028 -27.6133,-4.127 -28.0414,8.792 -29.5153,46.3357 -10.7997,61.7022 0.2784,0.2289 2.3063,1.6953 2.3748,1.7614 2.4152,2.3424 1.1209,0.5871 2.7374,3.7424z"/>
  <path id="_394815024" class="fil2" d="M138.113 308.36c2.0899,-3.9581 8.9695,-6.8913 12.9674,-12.4258 8.2557,-11.4272 10.6119,-26.5517 4.5362,-39.7419 -4.3663,-9.4788 -6.8728,-7.9632 -13.3574,-13.7265 -4.1095,-0.8672 -1.9026,1.2571 -2.156,-2.3266 -16.9957,15.6806 -14.6692,50.5632 -1.9902,68.2208z"/>
  <path id="_394831512" class="fil2" d="M225.67 311.403c18.4807,-0.423 31.1829,-33.0946 31.1448,-43.2845l-32.7457 12.8666c-11.2314,12.9348 -6.8334,20.475 1.6009,30.4179z"/>
  <path id="_394051688" class="fil3" d="M225.67 311.403c-8.4343,-9.9429 -12.8323,-17.4831 -1.6009,-30.4179l32.7457 -12.8666c0.0381,10.1899 -12.6641,42.8615 -31.1448,43.2845zm-23.1254 -50.5517c1.6596,9.7026 2.4445,19.6802 4.8827,28.5307 1.2234,4.4412 2.7933,9.1944 4.8432,13.289 0.9538,1.9053 1.9437,3.6394 3.1695,5.4142 2.58,3.7343 2.1422,1.7846 3.3225,5.4478 8.9048,4.0788 13.9425,5.6403 22.2086,-1.704 15.4801,-13.7538 18.5501,-37.3753 25.85,-62.3203 12.535,-4.1348 10.7898,-9.2908 9.5041,-14.3675 -3.6448,3.1358 -10.2921,12.8774 -26.09,9.7073l-26.6889 -8.7444c-5.771,2.5615 -11.8286,6.5321 -18.4763,7.4357l-16.5407 -9.2567c15.289,18.8447 13.5226,13.1579 14.0153,26.5682z"/>
  <path id="_394839648" class="fil3" d="M297.473 199.356c12.5957,-14.2637 27.1651,2.2106 13.5037,11.9337 -9.2621,1.6694 -14.0756,-2.58 -13.5037,-11.9337zm4.3572 -8.6602c-34.051,11.8283 -16.6047,57.2577 13.1438,48.5551 32.0716,-9.3824 16.8454,-58.9725 -13.1438,-48.5551z"/>
  <path id="_394829640" class="fil3" d="M184.304 196.401c26.1691,-2.5341 -1.3718,28.7324 -3.5844,4.4809l3.5844 -4.4809zm-8.9598 -2.8641c-7.4994,6.0599 -11.9951,15.4868 -12.9209,25.4247 0.0404,6.378 1.5669,9.5849 6.736,13.1117 12.4157,3.6201 27.7957,-4.6242 30.9426,-16.8818 4.3531,-16.9583 -9.2523,-27.1281 -24.7577,-21.6546z"/>
  <path id="_602346104" class="fil3" d="M216.532 215.722c-1.5692,3.7205 -1.9123,2.52 0.878,6.7906 7.5998,2.4903 11.7501,0.6427 13.6146,-6.8658 -4.7381,-1.2956 -10.7171,-2.0896 -14.4926,0.0752z"/>
  <path id="_602346248" class="fil3" d="M384.08 614.601c-1.5847,0.8159 -9.0518,-0.297 4.3596,9.1545 3.428,2.4159 7.5122,4.5399 8.9645,8.041l-30.1947 -13.4207 17.5413 -21.4729 1.7317 -4.0525 18.9424 24.7728 -16.7601 -10.1805 19.4861 22.0135c-3.1115,-1.73 -23.2514,-11.4036 -24.0708,-14.8552zm10.9362 -186.465c8.8927,-6.1402 51.2914,-52.0037 62.1153,-64.9007 5.9534,-7.0936 12.6527,-16.4649 19.1147,-22.935l30.3834 71.3067 -79.7447 32.9797 16.6793 47.9194 -40.142 9.7609c1.7586,15.7847 2.7809,13.3099 -1.2154,15.5242 -4.3781,-28.5264 -7.3507,-60.9172 -7.1906,-89.6552zm286.783 -174.373l6.2726 125.754 -119.541 19.3428 12.5401 49.7105 -121.588 24.5952 1.4435 15.6003 -9.9129 -23.516 -4.2176 -11.5822c12.1241,-10.4882 64.8844,-21.5693 78.983,-32.226 -2.0243,-17.0153 -21.7402,-56.1202 -27.4546,-76.488l-1.2872 -3.9989c29.7118,-16.1915 61.4366,-30.0289 91.5693,-44.5683 30.9241,-14.9219 61.9967,-29.0228 93.1928,-42.6232zm-559.989 57.3716l17.8346 25.1098 -13.8569 21.1928c-7.1698,-6.0824 -10.2018,-26.6993 -14.2108,-36.8862 -5.7569,-33.1141 -10.314,-46.0866 -8.8364,-81.9166 6.1526,-5.4094 4.4263,-2.1556 6.3632,-14.4908l8.8263 -1.7068c0.7981,-3.9942 0.634,-5.0134 2.3414,-7.5165 17.8602,9.0733 10.0356,2.2598 19.8949,5.4468 -11.9755,13.0052 -21.0826,19.9569 -25.1358,38.0092 -5.4475,24.2639 0.7711,31.6935 6.7795,52.7583zm173.167 -183.641c-19.0904,0.7685 -31.519,-0.9123 -51.7219,1.9501l-6.3888 1.125 20.942 -25.3282c14.7005,-16.5576 61.0584,-57.6817 76.6777,-60.1623l0.8938 5.2288c2.9096,6.0653 6.3275,20.4941 5.1523,26.9632 3.2156,4.5898 4.555,13.8909 5.0208,20.2181l-36.6917 33.3346 -13.8842 -3.3293zm198.533 -31.5219c-1.0829,10.1609 -4.7023,21.7391 -7.3335,32.3392 -1.3964,5.6258 -4.7064,28.3131 -10.4718,28.4024 -6.313,9.0534 -79.1569,32.0986 -91.5204,41.3651 19.5498,16.1248 27.97,46.731 27.5827,71.1456l-32.0784 14.0631c-5.4825,3.8638 -19.4503,10.645 -26.7488,14.9027 -9.8401,5.7404 -16.0632,10.6979 -24.4395,17.6358 -5.0087,5.282 -17.1187,15.2957 -19.0001,22.3869 5.9288,0.5403 14.6183,-7.7289 21.1588,-9.56 42.5019,-27.887 97.2696,-56.1792 148.487,-63.0298 2.1631,2.2477 2.2818,-3.763 1.5261,4.2777l8.584 2.032 -3.8668 10.3726 7.2489 4.89c-10.6692,14.4451 -5.5375,9.552 -11.016,18.2175 -2.9925,4.7347 -7.2301,12.3311 -11.2196,15.4986 -4.9473,11.7134 -44.3202,54.0771 -54.9072,64.9013 -13.1878,13.4835 -47.2241,48.2063 -49.2149,68.8848l14.2023 -13.0453 5.8301 81.7709c1.5163,26.5878 -0.8747,49.2039 -17.1103,70.2532 -15.3183,19.8591 -36.8775,27.4778 -61.2722,22.4506 -10.2418,-2.1105 -57.0258,-18.1669 -62.7223,-24.7759 -5.7869,0.752 -18.1707,-4.8876 -24.8062,-6.6503 -15.0537,-2.1429 -24.4796,-3.8487 -40.1858,-3.5757 -29.5237,0.513 -67.3442,6.0586 -92.5369,-22.5615 -6.3693,-7.2355 -3.4506,1.6212 -7.7727,-21.1311l-5.8122 29.9567 -32.6962 -26.7225c-7.4944,-7.9965 -17.6688,-32.828 -20.3951,-37.23 -3.005,-12.0706 -6.4181,-18.6448 -7.1482,-31.9231l12.4737 11.6723c3.7084,5.8668 3.7708,12.2839 9.8688,13.5765l-13.7157 -28.4341 34.7932 37.0591 -4.2079 -22.6114c-3.9423,-8.1202 8.9493,-24.6926 15.1333,-29.5125 18.207,-14.1923 22.8726,-8.802 34.1586,-13.0719l18.4375 -48.8814c4.0475,-7.986 20.0277,-34.9091 26.065,-39.6502l4.0279 -5.3188c20.2087,10.3622 27.215,16.3429 51.2679,15.9172l-64.0496 -53.8971c-12.6786,-17.6576 -15.0052,-52.5402 1.9902,-68.2208 11.0069,-14.1622 12.1333,-1.4007 17.0732,-26.1651 33.5803,-85.0031 141.198,-86.6084 186.066,-55.0474l-1.2689 4.4802 -1.6575 4.3104 8.5145 -5.1162c22.0067,-16.9148 42.3135,-33.1283 67.605,-46.638 18.9718,-10.1344 58.7872,-29.9565 78.7987,-33.0761l-1.7186 13.0838zm-349.597 110.662l-18.4433 -5.8678 -5.2951 5.3575 -12.8077 -2.1493 -1.6333 10.3238 -10.7653 0.7381 -0.7438 11.4413 -7.6231 5.0606c-0.1716,5.7283 1.1159,11.9307 0.9198,19.5481 -0.1777,6.8799 0.0765,14.1164 0.489,20.9896 2.2942,38.2488 13.8481,66.9869 26.5271,101.962 -5.1273,8.1634 -10.6096,16.3365 -14.8164,25.4243l-11.5068 29.1901c-9.5728,4.6029 -18.0415,4.1944 -28.0444,12.3978l-18.1905 22.0128c-9.2789,-3.0137 -9.4849,-10.0123 -23.761,-9.8242 -45.8019,0.604 7.4464,100.144 22.1041,109.495l44.9438 14.8721c24.64,14.1713 31.0619,20.1028 61.4392,20.2349 27.9683,0.1214 50.7334,-3.4974 77.7744,4.096 19.0867,5.3603 39.046,16.99 57.9109,23.1214l69.578 1.275c4.9996,1.0893 45.0927,32.2742 65.5656,14.2448 -1.1624,-23.9006 -5.5732,-45.48 -22.3047,-58.2594l5.6643 -22.1655 49.1658 6.7344 -3.9329 -34.5415 53.9658 -3.247 -7.8957 -48.3144c17.1187,-2.6357 34.9911,-7.1375 52.6565,-10.1536l53.9914 -8.6948 -10.709 -51.4924 116.54 -16.8498 -6.2783 -163.551c-9.7717,1.1018 -179.637,82.7427 -211.248,97.7044 0.0839,-0.3418 12.5846,-26.553 15.4292,-29.3929l7.4137 -8.497 -5.3191 -8.038 4.0158 -8.7039 -7.0184 -4.3576 -0.2039 -10.6483 -10.2429 -0.9966 -2.5719 -8.2523c-6.3497,-0.3866 -52.8506,11.2004 -62.4093,13.4669 -4.0478,-31.8718 -5.7838,-31.919 -17.5295,-60.7227 16.4183,-3.2329 42.4277,-15.7214 58.1737,-22.7601 58.5903,-26.1907 86.6297,-67.1837 129.415,-113.472 -7.5684,-9.131 -25.129,-6.1381 -36.2765,-6.0444 -28.4165,0.2386 -81.0477,10.0207 -104.336,21.8082l-105.28 64.0271 -23.7024 -9.9733c3.883,-5.769 40.3054,-35.9344 48.6754,-43.6202 14.1238,-12.9694 53.6295,-59.1006 60.8225,-78.8114 12.6088,-34.5492 -92.5959,11.6833 -99.7023,14.7429 -37.2536,16.0402 -77.7646,51.8732 -102.813,82.9358 -3.4435,4.2709 -6.488,7.8401 -9.6194,12.7063 -3.0478,4.7367 -4.9992,11.5178 -9.6982,14.0881 -25.7859,14.1056 -46.5463,23.8031 -62.724,53.1653 -2.8931,5.2501 -4.3771,11.6746 -7.735,16.2368z"/>
 </g>
</svg>
