<?xml version="1.0" encoding="UTF-8"?>
<!DOCTYPE svg PUBLIC "-//W3C//DTD SVG 1.1//EN" "http://www.w3.org/Graphics/SVG/1.1/DTD/svg11.dtd">
<!-- Creator: CorelDRAW -->
<svg xmlns="http://www.w3.org/2000/svg" xml:space="preserve" width="100mm" height="100mm" style="shape-rendering:geometricPrecision; text-rendering:geometricPrecision; image-rendering:optimizeQuality; fill-rule:evenodd; clip-rule:evenodd"
viewBox="0 0 100 100"
 xmlns:xlink="http://www.w3.org/1999/xlink">
 <defs>
  <style type="text/css">
   <![CDATA[
    .str0 {stroke:black;stroke-linecap:round;stroke-linejoin:round}
    .fil6 {fill:none;fill-rule:nonzero}
    .fil5 {fill:#020202}
    .fil1 {fill:#081311}
    .fil3 {fill:#267A75}
    .fil2 {fill:#EB8435}
    .fil4 {fill:#FDFDFB}
    .fil8 {fill:#FF9933}
    .fil0 {fill:#FFCC99}
    .fil7 {fill:black;fill-rule:nonzero}
   ]]>
  </style>
 </defs>
 <g id="Capa_x0020_1">
  <metadata id="CorelCorpID_0Corel-Layer"/>
  <rect class="fil0" width="100" height="100"/>
  <path class="fil1" d="M46.8877 61.5457l3.5797 -0.0295c-0.0937,-0.6638 -0.9785,-0.715 -1.8759,-0.7159 -0.42,-0.0005 -0.7598,0.0444 -1.1314,0.1325 -0.4018,0.0953 -0.5947,0.1118 -0.5724,0.6129z"/>
  <path class="fil1" d="M41.0383 61.3612l2.8219 0.0331c0.0026,-0.0077 0.2639,0.078 0.0103,-0.3131 -0.1785,-0.2754 -0.9816,-0.3647 -1.3302,-0.3704 -0.3454,-0.0056 -0.6103,0.0275 -0.8963,0.1043 -0.4412,0.1184 -0.5508,0.0926 -0.6057,0.5461z"/>
  <path class="fil2" d="M64.7485 73.6927c0.2041,0.403 -0.0101,0.2214 0.3895,0.5686l3.104 2.5964c0.8327,0.6401 2.7845,2.4057 4.0375,2.569l-2.4272 -4.8571 5.0669 1.4746 -1.3095 -1.7606c-0.7983,-0.83 -4.6936,-2.9082 -5.6941,-3.0461l-3.1671 2.4552z"/>
  <path class="fil2" d="M41.7236 86.745c0.9346,-0.3417 1.8718,-4.2135 2.1985,-5.2468l1.9721 -5.3345 -2.5397 -0.9226 -5.37 8.9489 2.048 -1.4794c0.7536,-0.6306 0.9887,-1.5812 1.8407,-1.7153l-0.1496 5.7497z"/>
  <path class="fil3" d="M46.8877 61.5457c-0.0223,-0.5011 0.1706,-0.5176 0.5724,-0.6129 0.3716,-0.0881 0.7114,-0.133 1.1314,-0.1325 0.8974,0.0009 1.7822,0.0521 1.8759,0.7159l-3.5797 0.0295zm-5.8494 -0.1845c0.0549,-0.4535 0.1645,-0.4277 0.6057,-0.5461 0.286,-0.0768 0.5509,-0.1099 0.8963,-0.1043 0.3486,0.0057 1.1517,0.095 1.3302,0.3704 0.2536,0.3911 -0.0077,0.3054 -0.0103,0.3131l-2.8219 -0.0331zm-3.2733 -0.0072c0.6428,1.4668 3.6909,3.1057 6.2653,1.3756l1.8851 -1.1372c0.9747,0.9502 1.6362,2.0672 3.7233,2.1057 2.0396,0.0377 2.7006,-0.7673 4.1125,-1.8786 -0.3659,-1.5967 -4.2411,-3.4362 -6.4172,-2.0777l-1.8842 1.4173c-0.9803,-0.335 -1.0849,-2.1988 -3.9615,-2.0031 -1.4918,0.1015 -3.1437,1.1115 -3.7233,2.198z"/>
  <path class="fil3" d="M77.7286 55.301c-0.6805,-0.426 -1.9337,-0.5385 -2.6054,-0.2496 0.1623,0.1013 -0.1518,0.0788 0.4011,0.3027 1.1697,0.4739 1.2488,0.7644 2.0126,0.1451 0.1228,-0.0996 0.1058,-0.1045 0.1917,-0.1982z"/>
  <path class="fil4" d="M56.2469 37.5619c2.923,-0.7287 5.2026,1.6478 5.5593,4.0231 0.4407,2.9354 -1.385,5.3147 -3.7304,5.8545 -4.7142,1.0851 -6.8109,-4.6321 -4.6937,-7.9508 0.8053,-1.2622 1.5761,-1.6056 2.8648,-1.9268zm-13.94 1.9828c0.2971,-0.3796 2.788,-6.2099 6.3955,-3.9049 4.7009,3.0036 4.3977,12.8431 -0.7453,14.9415 -1.6624,0.6783 -2.9698,0.4882 -4.2043,-0.566 -1.3147,-1.1226 -1.3148,-1.5999 -2.0279,-3.5443 -1.6247,0.9385 -3.2165,1.7751 -5.3844,0.4828 -4.2566,-2.5376 -1.659,-11.2272 4.086,-8.9784 0.9564,0.3744 1.3152,0.9206 1.8804,1.5693zm4.5204 -5.3337c-0.7018,-0.793 -1.4372,-1.4377 -2.4239,-1.951 -1.0496,-0.546 -2.0412,-0.9341 -3.4934,-0.9696 -3.432,-0.0839 -6.9637,1.9675 -8.6834,4.5005l-0.8379 1.3718c-0.239,0.5108 -0.4123,0.9206 -0.6472,1.4412 -2.0804,4.6097 -1.1459,11.222 3.0087,14.543 3.256,2.6027 8.2853,2.4798 11.1276,-0.2784 0.848,-0.8229 1.4826,-2.1639 2.4555,-0.8517 0.5907,0.7968 1.3474,1.4783 2.2851,2.0249 9.3185,5.4319 20.1983,-2.7529 18.3866,-12.9353 -1.2285,-6.9045 -8.0261,-11.9456 -15.5331,-9.9953 -3.8685,1.005 -4.446,3.1267 -5.6446,3.0999z"/>
  <path class="fil4" d="M34.1479 65.0031c0.5183,0.9657 1.9574,2.5171 2.8634,3.3925 1.1072,1.0698 3.8131,3.1628 5.3973,3.911 0.3406,0.1609 0.6575,0.3276 1.0177,0.4997 7.7939,3.7241 18.1531,2.2898 23.7909,-3.7687 0.315,-0.3385 0.1718,-0.0948 0.2403,-0.4667l-1.9307 -0.8082c0.1212,0.1823 0.0758,-0.0775 0.0919,0.3766l-6.2407 -1.7434c-0.3587,-0.1487 -4.4088,-2.5547 -4.7993,-2.9732l-0.5144 0.051c-1.2,0.7861 -2.3108,1.7265 -4.4245,1.7079 -2.1421,-0.0189 -3.1356,-0.9752 -4.0861,-1.9319l-4.7642 1.5912c-0.9103,-0.1298 -1.651,-0.4854 -2.3319,-0.9175 -1.1029,-0.6999 -1.2762,-1.2353 -1.6558,-1.4563 -0.3432,0.0268 -0.0213,-0.0999 -0.3875,0.2152l-2.2695 1.9309 0.0031 0.3899z"/>
  <path class="fil4" d="M50.4143 44.4281c0.9727,-3.7787 -2.1193,-8.5042 -3.6061,-7.9251 -1.0351,0.4033 -2.182,2.083 -2.773,3.2957 -0.7217,1.4812 -1.0037,3.1514 -0.9402,5.0887 6.0864,0.9001 2.6704,0.6414 7.3193,-0.4593z"/>
  <path class="fil4" d="M37.7457 42.6585c0.3564,0.3335 0.6813,0.8061 1.4763,0.4762 0.4404,-0.1828 0.7682,-0.7791 0.5692,-1.4052 -0.2338,-0.7351 -2.0577,-1.3982 -2.0455,0.929z"/>
  <path class="fil4" d="M56.3969 42.6341c0.3375,0.2626 0.7955,0.7115 1.4935,0.3123 0.3984,-0.2278 0.6546,-0.8426 0.3861,-1.4051 -0.4197,-0.8792 -2.1697,-0.995 -1.8796,1.0928z"/>
  <path class="fil5" d="M41.7236 86.745l0.1496 -5.7497c-0.852,0.1341 -1.0871,1.0847 -1.8407,1.7153l-2.048 1.4794 5.37 -8.9489 2.5397 0.9226 -1.9721 5.3345c-0.3267,1.0333 -1.2639,4.9051 -2.1985,5.2468zm23.0249 -13.0523l3.1671 -2.4552c1.0005,0.1379 4.8958,2.2161 5.6941,3.0461l1.3095 1.7606 -5.0669 -1.4746 2.4272 4.8571c-1.253,-0.1633 -3.2048,-1.9289 -4.0375,-2.569l-3.104 -2.5964c-0.3996,-0.3472 -0.1854,-0.1656 -0.3895,-0.5686zm10.3747 -18.6413c0.6717,-0.2889 1.9249,-0.1764 2.6054,0.2496 -0.0859,0.0937 -0.0689,0.0986 -0.1917,0.1982 -0.7638,0.6193 -0.8429,0.3288 -2.0126,-0.1451 -0.5529,-0.2239 -0.2388,-0.2014 -0.4011,-0.3027zm-28.2959 -20.8404c1.1986,0.0268 1.7761,-2.0949 5.6446,-3.0999 7.507,-1.9503 14.3046,3.0908 15.5331,9.9953 1.8117,10.1824 -9.0681,18.3672 -18.3866,12.9353 -0.9377,-0.5466 -1.6944,-1.2281 -2.2851,-2.0249 -0.9729,-1.3122 -1.6075,0.0288 -2.4555,0.8517 -2.8423,2.7582 -7.8716,2.8811 -11.1276,0.2784 -4.1546,-3.321 -5.0891,-9.9333 -3.0087,-14.543 0.2349,-0.5206 0.4082,-0.9304 0.6472,-1.4412l0.8379 -1.3718c1.7197,-2.533 5.2514,-4.5844 8.6834,-4.5005 1.4522,0.0355 2.4438,0.4236 3.4934,0.9696 0.9867,0.5133 1.7221,1.158 2.4239,1.951zm-27.0365 13.1157c-0.5584,1.107 -3.4459,0.1033 -3.2222,-2.1559 0.0136,-0.1377 0.1527,-0.7726 0.1963,-0.8845 0.1606,-0.4125 0.1661,-0.0942 0.3606,-0.5769l-0.1873 1.4672c-0.0307,1.3078 1.303,2.0718 2.8526,2.1501zm2.4949 -6.3138c-0.1199,-1.6751 -0.0478,-5.7354 1.2803,-6.3202l1.0653 3.3779c0.1013,1.4028 0.0946,2.8622 0.1523,4.3096l1.3445 1.7507c2.0848,3.2417 -0.3743,7.1437 2.7055,15.4642 0.2996,0.8094 0.6762,1.4709 0.8658,2.2884l-7.7088 -4.8921c-1.3667,-1.1537 -4.1916,-5.7165 -4.4979,-7.8635 1.7475,0.0459 2.469,0.3291 3.0711,-0.5583 0.2959,-0.436 0.1312,-0.5307 0.4646,-0.8879l2.3872 0.5186 -1.032 -1.3968 1.8203 -2.328 -0.4805 -0.1051c-0.0837,0.0011 -4.2227,2.6942 -5.1854,0.6871 2.0559,-2.52 1.8462,-3.0093 5.4464,-2.9588 -0.6507,-0.8131 -0.5801,-0.9811 -1.6987,-1.0858zm-4.1496 1.1942c-0.1643,-0.3894 -0.613,-1.0135 -0.8518,-1.4628 -0.632,-1.1886 -1.8808,-3.9275 -1.0114,-5.0629l2.2231 2.3311c0.2727,0.5346 1.4207,2.6824 1.4392,3.2036l-1.7991 0.991zm47.3907 25.5556l1.9307 0.8082c-0.0685,0.3719 0.0747,0.1282 -0.2403,0.4667 -5.6378,6.0585 -15.997,7.4928 -23.7909,3.7687 -0.3602,-0.1721 -0.6771,-0.3388 -1.0177,-0.4997 -1.5842,-0.7482 -4.2901,-2.8412 -5.3973,-3.911 -0.906,-0.8754 -2.3451,-2.4268 -2.8634,-3.3925l-0.1358 -0.1196c-0.0771,-0.0923 -0.0776,-0.0913 -0.153,-0.2058 -1.8804,-2.8547 -3.6828,-6.8746 -4.2314,-10.1817l-0.49 -4.6859c0.4027,0.3796 1.1039,2.2817 2.8234,3.8452 1.0759,0.9783 2.5917,2.035 4.2924,2.4647 2.1853,0.552 3.8342,0.5515 5.9904,-0.0586l4.1014 -2.6534c0.8892,0.4762 2.2857,2.716 6.5275,3.5403 12.1411,2.3591 21.2028,-10.2834 14.7512,-20.9139 -1.3508,-2.2257 -2.8457,-3.7282 -5.0991,-5.0293 -2.0585,-1.1884 -5.3361,-2.1619 -8.3005,-1.7399 -3.6854,0.5248 -4.1113,1.1521 -7.0286,3.0734 -1.2666,-0.7869 -2.0208,-1.9679 -5.0219,-2.405 -2.7706,-0.4036 -4.1258,0.0247 -6.4307,0.9702 0.1798,-0.3531 -0.0794,-0.0164 0.2141,-0.3463 0.0824,-0.0925 0.1865,-0.1614 0.3187,-0.265 0.7454,-0.5842 1.1697,-0.94 2.0191,-1.4731 5.808,-3.6455 11.9262,-4.858 18.681,-2.9935 2.3129,0.6384 6.1451,2.553 7.6825,3.9826 0.4717,0.4387 0.8622,0.7642 1.2398,1.0859 0.9829,0.8374 1.3688,1.4585 2.2396,2.4167 3.79,4.1709 5.8642,12.364 4.8703,18.09 -0.1289,0.7432 -0.204,1.3367 -0.3508,2.0255l-0.5336 1.758c1.2589,0.8529 4.0203,1.9589 5.46,2.9027l4.8267 3.4497 -3.2962 0.1662c0.1184,0.6152 1.7591,1.3016 2.2674,1.664l2.2311 1.8056c-1.3837,0.0816 -1.8816,0.1548 -3.2412,0.3717 0.2406,0.4546 1.1322,0.7306 1.5859,0.9665l1.6528 0.8959c-0.8321,0.6462 -6.0026,0.644 -7.4236,0.5649 -2.4382,-0.1355 -4.6892,-0.5062 -6.8893,-1.1322 -2.1586,-0.6141 -3.748,-1.3318 -5.5535,-2.4745 -1.7062,-1.08 -2.9361,-2.3121 -4.3823,-3.6535 -0.4174,1.3428 1.6348,3.7554 2.2129,4.3069 0.6796,0.6482 1.0244,0.8913 1.7972,1.4594 0.7258,0.5336 1.4787,0.7358 2.155,1.2848zm-38.2359 -25.277c-1.0276,-0.8484 -0.2782,-1.7562 -0.516,-4.6311 -0.1284,-1.5528 -0.3136,-3.3029 -1.0561,-4.3787 -0.7786,-1.1282 -2.2534,-1.705 -3.6148,-0.5904l-1.7613 3.7123c-0.5352,-0.3488 -1.1615,-2.1397 -2.4032,-2.9073 -2.1545,-1.3321 -6.2005,0.4344 -2.9611,7.2675l0.8736 1.7714c-0.8043,1.0891 -1.3121,1.7637 -1.2231,3.6124 0.0629,1.3071 0.5153,2.9492 0.8879,4.1111 0.775,2.4167 2.1375,4.7985 3.4689,6.4029 1.9533,2.354 1.6632,2.0329 3.6349,3.6975 0.4805,0.4056 0.9516,0.7918 1.4878,1.0743 2.1127,1.1133 2.2171,1.4517 4.9554,2.3657 2.5154,0.8395 1.5564,-0.1511 3.0035,2.0118 0.8758,1.309 2.4301,3.0849 3.527,4.0411 2.8109,2.4506 2.8083,2.2938 5.9396,4.1882 -0.1756,0.6104 -0.8179,1.0953 -1.1906,1.567 -1.179,1.4919 -2.3307,3.2494 -3.1882,4.8469 -0.5588,1.041 -1.3708,2.6582 -1.0076,4.0869 0.4851,1.9073 2.3518,0.9481 3.6201,0.5706 0.0819,1.2597 0.2507,3.6727 2.5162,3.1585 2.1324,-0.484 3.0575,-5.2208 3.9109,-7.62l1.6247 -4.1914c1.3658,0.0375 2.6523,0.3162 4.035,0.3583 4.5629,0.1391 6.9785,-0.7304 10.9395,-2.2305l2.1526 1.8818c1.6928,1.5505 5.5035,4.9798 7.8605,4.7215 0.8603,-0.0943 1.3355,-0.5851 1.426,-1.4077l-0.6578 -2.2443c4.6064,0.6487 4.5412,-3.2095 -0.9653,-6.2844 -0.2437,-0.1361 -0.4381,-0.2338 -0.6803,-0.3692l-0.6435 -0.4342 1.1693 -0.8519c1.3698,-0.0174 2.8837,0.2522 4.3065,0.284 2.0944,0.0468 6.3391,-0.1517 8.2305,-0.9594 0.4651,-0.1986 1.1035,-0.4483 1.2195,-1.128 0.1367,-0.8007 -0.4237,-1.1497 -0.8233,-1.5132 0.765,-1.698 0.6194,-1.5444 -1.5457,-3.3757 0.1828,-0.3267 2.0645,-1.4218 -1.054,-3.6924 -1.5975,-1.1632 -1.9942,-1.4196 -3.6813,-2.477 0.1467,-0.3355 0.7274,-0.8176 1.037,-1.1558l0.4331 -1.7468 -5.731 -0.887c-0.006,-0.7865 0.4817,-3.0448 0.4166,-5.5226 -0.123,-4.6859 -1.7809,-10.5859 -4.4318,-14.0979 -0.504,-0.6675 -0.7857,-1.1751 -1.2763,-1.7415 -3.891,-4.4916 -7.4452,-6.8172 -13.3078,-8.3432 -3.2817,-0.8543 -7.643,-0.7002 -10.9558,0.0448 -3.3601,0.7556 -6.2138,2.1528 -8.545,3.7962 -8.4689,5.9705 -8.8143,13.9527 -9.4557,15.2089z"/>
  <path class="fil5" d="M24.4689 92.8993c0.5113,0.9088 5.2236,1.1587 6.0793,1.251 9.3302,1.0073 26.3141,1.0382 35.6212,0.5129 1.1025,-0.0622 8.4791,-0.5618 9.9127,-0.8781l2.919 -0.8858c-0.5458,-1.0519 -4.7692,-1.1567 -6.0249,-1.3257 -5.3004,-0.7134 -15.9065,-0.9911 -21.2406,-1.004 -4.8424,-0.0117 -9.5578,0.1801 -14.3155,0.4164 -4.2623,0.2117 -6.3391,0.5764 -10.139,0.9713 -0.7482,0.0777 -2.5182,0.2046 -2.8122,0.942z"/>
  <path class="fil5" d="M43.4326 46.6362c3.4664,0.6349 2.6375,0.574 6.5467,-0.6444 -0.27,1.3841 -1.7682,3.0494 -3.0427,3.4665 -1.7341,0.5676 -3.2387,-1.483 -3.504,-2.8221zm6.9817 -2.2081c-4.6489,1.1007 -1.2329,1.3594 -7.3193,0.4593 -0.0635,-1.9373 0.2185,-3.6075 0.9402,-5.0887 0.591,-1.2127 1.7379,-2.8924 2.773,-3.2957 1.4868,-0.5791 4.5788,4.1464 3.6061,7.9251zm-12.6686 -1.7696c-0.0122,-2.3272 1.8117,-1.6641 2.0455,-0.929 0.199,0.6261 -0.1288,1.2224 -0.5692,1.4052 -0.795,0.3299 -1.1199,-0.1427 -1.4763,-0.4762zm4.5612 -3.1138c-0.5652,-0.6487 -0.924,-1.1949 -1.8804,-1.5693 -5.745,-2.2488 -8.3426,6.4408 -4.086,8.9784 2.1679,1.2923 3.7597,0.4557 5.3844,-0.4828 0.7131,1.9444 0.7132,2.4217 2.0279,3.5443 1.2345,1.0542 2.5419,1.2443 4.2043,0.566 5.143,-2.0984 5.4462,-11.9379 0.7453,-14.9415 -3.6075,-2.305 -6.0984,3.5253 -6.3955,3.9049z"/>
  <path class="fil5" d="M56.3969 42.6341c-0.2901,-2.0878 1.4599,-1.972 1.8796,-1.0928 0.2685,0.5625 0.0123,1.1773 -0.3861,1.4051 -0.698,0.3992 -1.156,-0.0497 -1.4935,-0.3123zm-0.15 -5.0722c-1.2887,0.3212 -2.0595,0.6646 -2.8648,1.9268 -2.1172,3.3187 -0.0205,9.0359 4.6937,7.9508 2.3454,-0.5398 4.1711,-2.9191 3.7304,-5.8545 -0.3567,-2.3753 -2.6363,-4.7518 -5.5593,-4.0231z"/>
  <path class="fil5" d="M37.765 61.354c0.5796,-1.0865 2.2315,-2.0965 3.7233,-2.198 2.8766,-0.1957 2.9812,1.6681 3.9615,2.0031l1.8842 -1.4173c2.1761,-1.3585 6.0513,0.481 6.4172,2.0777 -1.4119,1.1113 -2.0729,1.9163 -4.1125,1.8786 -2.0871,-0.0385 -2.7486,-1.1555 -3.7233,-2.1057l-1.8851 1.1372c-2.5744,1.7301 -5.6225,0.0912 -6.2653,-1.3756zm-0.9632 1.1131c0.3796,0.221 0.5529,0.7564 1.6558,1.4563 0.6809,0.4321 1.4216,0.7877 2.3319,0.9175l4.7642 -1.5912c0.9505,0.9567 1.944,1.913 4.0861,1.9319 2.1137,0.0186 3.2245,-0.9218 4.4245,-1.7079 0.334,-0.4833 0.8728,-0.6975 1.0493,-1.1961 0.5236,-1.4787 -1.5299,-3.0574 -2.7514,-3.649 -4.1602,-2.0152 -6.5646,0.7268 -6.796,0.7574l-5.9659 -1.2045c-1.0613,0.3764 -1.7119,0.9689 -2.3548,1.603 -1.3492,1.331 -0.8203,1.7584 -0.4437,2.6826z"/>
  <path class="fil5" d="M78.0877 42.46c0.7797,-0.7987 1.3464,-1.5217 1.7304,-2.7791 0.6455,1.6914 0.4615,1.6244 1.5811,2.8157 -0.9006,0.7858 -1.2823,1.0201 -1.9297,2.0825l-1.3818 -2.1191zm-2.9604 0.3858c0.8904,0.7676 2.1829,0.0124 2.892,1.7553l0.9547 3.834c1.0448,0.1088 0.8724,-0.8739 1.1394,-1.7727 1.1327,-3.8146 3.6,-3.0921 4.1687,-3.4081l0.7327 -0.7831c-1.892,-1.3674 -3.1329,0.6191 -4.1335,-4.5749l-0.5079 -2.374 -0.6133 -0.0303c-0.4807,0.728 -0.4322,1.2093 -0.6906,2.1948 -1.5538,5.9259 -4.1463,3.2376 -3.9422,5.159z"/>
  <g id="_541443296">
   <g>
    <path id="_692492952" class="fil6 str0" d="M20.3039 26.9589c0.0856,0.0227 0.1726,0.034 0.2626,0.0292 0.09,-0.0047 0.1717,-0.0207 0.25,-0.0494 0.0783,-0.0287 0.1404,-0.0667 0.1893,-0.1175 0.082,-0.0914 0.1093,-0.1851 0.0818,-0.2876 -0.0291,-0.1008 -0.0902,-0.1978 -0.1884,-0.2893 -0.1062,-0.0995 -0.2188,-0.1924 -0.3377,-0.2756 -0.1188,-0.0864 -0.2393,-0.171 -0.3614,-0.2605 -0.1221,-0.0863 -0.2412,-0.1856 -0.3573,-0.2945 -0.0458,-0.0474 -0.0708,-0.0904 -0.0698,-0.1274 -0.0007,-0.0386 0.0084,-0.0773 0.027,-0.113 0.0203,-0.0374 0.034,-0.0746 0.0462,-0.1167 0.0873,-0.2539 0.1634,-0.4964 0.2284,-0.7308 0.0667,-0.2327 0.1334,-0.4653 0.2033,-0.6949 0.0699,-0.2328 0.1543,-0.4706 0.2545,-0.7184 0.0332,-0.0311 0.0942,-0.0353 0.1767,-0.0095 0.084,0.0243 0.1828,0.0659 0.2916,0.1267 0.1103,0.0592 0.2241,0.1249 0.3363,0.1984 0.1155,0.0736 0.218,0.1442 0.3124,0.21 0.0944,0.0659 0.1644,0.1178 0.2166,0.1555 0.0733,0.0549 0.1435,0.1132 0.2122,0.1796 0.0703,0.0647 0.1387,0.1213 0.2055,0.1668 0.0683,0.0471 0.1378,0.07 0.2087,0.0719 0.0707,-0.0012 0.1423,-0.0395 0.2183,-0.1148 0.1136,-0.121 0.1419,-0.2516 0.0848,-0.389 -0.0587,-0.1389 -0.1739,-0.2912 -0.3504,-0.4553 -0.1423,-0.1374 -0.3005,-0.2649 -0.4731,-0.3873 -0.1758,-0.1224 -0.3579,-0.235 -0.5462,-0.3378 -0.1883,-0.1029 -0.3747,-0.1913 -0.561,-0.27l-3.354 -1.4562c-0.2447,-0.1066 -0.4936,-0.1827 -0.742,-0.2298 -0.2485,-0.0471 -0.4851,-0.0671 -0.7102,-0.0599 -0.2266,0.0087 -0.427,0.0395 -0.6045,0.0957 -0.1759,0.0577 -0.3129,0.1373 -0.4123,0.2371 -0.0269,0.0279 -0.06,0.0654 -0.101,0.1144 -0.0409,0.0489 -0.0756,0.0881 -0.1072,0.1208 0.0095,0.1703 0.0624,0.3511 0.1574,0.544 0.095,0.1897 0.2173,0.3837 0.3654,0.5773 0.1498,0.1951 0.3075,0.3854 0.4747,0.569 0.1672,0.1835 0.331,0.3544 0.4849,0.5125 0.1555,0.1565 0.2865,0.2924 0.3963,0.4079 0.224,0.2163 0.4335,0.425 0.6299,0.6242 0.1981,0.2007 0.3929,0.3984 0.5844,0.596 0.1917,0.1976 0.3913,0.4 0.5992,0.6102 0.2079,0.2102 0.4337,0.4347 0.6807,0.6731 0.1096,0.1059 0.2257,0.218 0.3499,0.3348 0.1243,0.1168 0.2517,0.2304 0.379,0.3407 0.1274,0.1104 0.2497,0.2063 0.3685,0.2894zm-1.5014 -2.5498c-0.0899,-0.0868 -0.1847,-0.1752 -0.2827,-0.2636 -0.098,-0.0882 -0.1895,-0.1703 -0.2745,-0.2459 -0.0849,-0.0758 -0.1503,-0.1358 -0.1977,-0.1815 -0.2143,-0.207 -0.4319,-0.4234 -0.6561,-0.6495 -0.2226,-0.2244 -0.4323,-0.4458 -0.6306,-0.6627 -0.1984,-0.2136 -0.3691,-0.4132 -0.5121,-0.5924 -0.143,-0.1793 -0.2405,-0.3271 -0.2956,-0.4435 -0.055,-0.1165 -0.0514,-0.1856 0.014,-0.2109 0.1432,-0.0009 0.2993,0.0108 0.4654,0.0385 0.1661,0.0277 0.3292,0.065 0.4908,0.1136 0.165,0.0486 0.3137,0.1007 0.4483,0.1611l2.1671 0.898c0.0632,0.0262 0.1119,0.0544 0.1462,0.0843 0.0327,0.0283 0.0719,0.0662 0.1177,0.1137 -0.0752,0.1074 -0.1504,0.2277 -0.2204,0.3592 -0.0733,0.1315 -0.1384,0.2678 -0.2003,0.4103 -0.0514,0.0893 -0.1027,0.1916 -0.1522,0.3082 -0.051,0.115 -0.0957,0.2268 -0.1371,0.3385 -0.0432,0.11 -0.077,0.2039 -0.1061,0.28 -0.0292,0.076 -0.0494,0.1198 -0.0588,0.1328 -0.0094,0.0131 -0.0238,0.0214 -0.0445,0.0297 -0.0192,0.0101 -0.0466,0.0025 -0.0808,-0.0179zm6.1569 -5.2692c0.1441,0.2263 0.312,0.4566 0.5008,0.6899 0.1917,0.234 0.399,0.4584 0.6244,0.6688 0.2246,0.2136 0.4619,0.4004 0.7113,0.5636 0.2495,0.1631 0.5045,0.288 0.765,0.3746 0.2593,0.0846 0.522,0.1188 0.7825,0.0981 0.2618,-0.0188 0.516,-0.1052 0.766,-0.2587 0.1511,-0.0972 0.2933,-0.2128 0.4242,-0.3509 0.1328,-0.1393 0.2545,-0.2877 0.364,-0.4473 0.0494,-0.0711 0.1152,-0.1845 0.1979,-0.3354 0.0839,-0.149 0.1743,-0.3261 0.2697,-0.5251 0.0973,-0.2003 0.1875,-0.4122 0.276,-0.631 0.0892,-0.222 0.1606,-0.4381 0.2211,-0.6502 0.0585,-0.2109 0.0913,-0.403 0.1002,-0.5775 0.0071,-0.1733 -0.0196,-0.3147 -0.0828,-0.42 -0.1056,-0.1647 -0.2313,-0.2845 -0.3774,-0.3595 -0.146,-0.0749 -0.3032,-0.1161 -0.4725,-0.1255 -0.1702,-0.0063 -0.3404,0.0089 -0.5156,0.046 -0.1721,0.0378 -0.3388,0.0884 -0.4972,0.1524 -0.1577,0.061 -0.3015,0.1267 -0.4271,0.1919 -0.1256,0.065 -0.2263,0.1225 -0.3015,0.1696 -0.1034,0.0619 -0.2008,0.1335 -0.2902,0.2135 -0.0895,0.08 -0.1482,0.1704 -0.1784,0.2723 -0.0301,0.1019 -0.007,0.2162 0.0694,0.3428 0.0614,0.0983 0.1448,0.1802 0.2431,0.2475 0.1003,0.0661 0.2044,0.1082 0.3143,0.1254 0.1087,0.0152 0.2101,-0.0027 0.3001,-0.0562 0.0759,-0.0501 0.1356,-0.1089 0.1824,-0.1756 0.0456,-0.0687 0.0924,-0.1355 0.136,-0.203 0.0467,-0.0668 0.1026,-0.1232 0.1747,-0.1708 0.0386,-0.0241 0.0989,-0.0564 0.1815,-0.1001 0.082,-0.0405 0.1702,-0.0794 0.2639,-0.1139 0.0938,-0.0345 0.1738,-0.0523 0.2432,-0.0528 0.0682,-0.0023 0.1058,0.0277 0.1154,0.0861 -0.0217,0.2441 -0.0694,0.4938 -0.1406,0.7447 -0.0742,0.2501 -0.1685,0.494 -0.2844,0.7247 -0.1148,0.2326 -0.2509,0.4437 -0.4028,0.6297 -0.1537,0.1872 -0.3222,0.338 -0.5042,0.4545 -0.2403,0.1474 -0.476,0.225 -0.7033,0.2303 -0.2273,0.0053 -0.4454,-0.0434 -0.6563,-0.1449 -0.212,-0.1034 -0.4123,-0.2437 -0.6039,-0.4216 -0.1915,-0.1778 -0.3711,-0.3794 -0.5412,-0.6001 -0.1682,-0.222 -0.3255,-0.4481 -0.4683,-0.6807 -0.3506,-0.5611 -0.6267,-1.1446 -0.8303,-1.7493 -0.2036,-0.6047 -0.3293,-1.2178 -0.3772,-1.8394 -0.0499,-0.6203 -0.0166,-1.2364 0.0961,-1.8457 0.0108,-0.0469 0.0274,-0.0975 0.0493,-0.1569 0.0233,-0.0573 0.0507,-0.1121 0.0807,-0.1628 0.0317,-0.0521 0.063,-0.0878 0.0985,-0.1126 0.0622,-0.0335 0.1282,-0.0265 0.1974,0.0241 0.0711,0.0495 0.1391,0.1196 0.2038,0.2104 0.068,0.0917 0.1278,0.183 0.18,0.2709 0.0504,0.0892 0.0895,0.1559 0.1172,0.2003l0.1663 0.2661 0.8718 2.013c0.0012,0.002 0.004,0.0109 0.0097,0.0287 0.0071,0.0198 0.0136,0.0345 0.022,0.0479 0.0393,0.0586 0.0947,0.1044 0.1656,0.1405 0.0728,0.035 0.1484,0.0575 0.2265,0.0623 0.0762,0.006 0.1403,-0.0073 0.1936,-0.0379 0.1009,-0.0658 0.1619,-0.1441 0.1803,-0.2306 0.019,-0.0897 0.0129,-0.1851 -0.0193,-0.2882 -0.0311,-0.1013 -0.0697,-0.2058 -0.1176,-0.3126 -0.0908,-0.214 -0.1848,-0.4287 -0.2806,-0.6423 -0.098,-0.2124 -0.2045,-0.43 -0.3216,-0.6518 -0.1139,-0.221 -0.2472,-0.4514 -0.3954,-0.6886 -0.0891,-0.1426 -0.187,-0.2906 -0.2966,-0.4447 -0.1084,-0.152 -0.2272,-0.2949 -0.3552,-0.4268 -0.1279,-0.1318 -0.2629,-0.2405 -0.4037,-0.3242 -0.1438,-0.0843 -0.2921,-0.1285 -0.447,-0.1362 -0.1557,-0.0046 -0.3148,0.0412 -0.4799,0.1417 -0.1589,0.1019 -0.2849,0.2477 -0.3828,0.4429 -0.0971,0.1921 -0.1675,0.4184 -0.2135,0.6751 -0.0461,0.2566 -0.0732,0.5309 -0.078,0.8234 -0.0079,0.2919 0.0029,0.5881 0.0274,0.8891 0.0234,0.2992 0.057,0.5891 0.0999,0.8679 0.0441,0.2808 0.0928,0.5346 0.1465,0.7665 0.0525,0.2299 0.1055,0.422 0.1571,0.5774 0.1166,0.3454 0.2542,0.6857 0.4064,1.0195 0.1523,0.3338 0.3277,0.6532 0.5232,0.9573zm4.6331 -6.4972c0.0298,0.0614 0.0735,0.1539 0.1332,0.2768 0.0596,0.1227 0.1276,0.2642 0.2059,0.4234 0.0763,0.1601 0.1574,0.3257 0.2414,0.4973 0.0839,0.1718 0.1629,0.3382 0.2413,0.4974 0.0784,0.1592 0.1484,0.2997 0.208,0.4226 0.0618,0.1218 0.1075,0.2134 0.1395,0.2739 0.1467,0.2905 0.318,0.5802 0.5148,0.8658 0.197,0.2857 0.412,0.5508 0.6444,0.7933 0.2345,0.2415 0.4819,0.445 0.7403,0.6062 0.2585,0.1612 0.5226,0.2626 0.7946,0.3032 0.272,0.0407 0.5443,0.0041 0.8174,-0.115 0.2711,-0.1232 0.4963,-0.3106 0.6774,-0.558 0.179,-0.2463 0.3192,-0.5353 0.4185,-0.8657 0.0983,-0.3325 0.159,-0.6881 0.1872,-1.0664 0.026,-0.3775 0.0218,-0.7613 -0.0147,-1.1509 -0.0335,-0.3882 -0.0951,-0.7615 -0.1829,-1.1206 -0.0886,-0.3613 -0.1971,-0.6888 -0.3275,-0.9816 -0.0933,-0.2098 -0.1937,-0.4015 -0.2998,-0.5784 -0.1061,-0.1767 -0.2214,-0.3519 -0.3471,-0.5224 -0.1256,-0.1705 -0.264,-0.3528 -0.4151,-0.5469 -0.0123,-0.0219 -0.0514,-0.0592 -0.1186,-0.104 -0.066,-0.0477 -0.1392,-0.0948 -0.2217,-0.1402 -0.0814,-0.0433 -0.1533,-0.0761 -0.2127,-0.092 -0.0717,0.0345 -0.1351,0.0876 -0.1864,0.1626 -0.0532,0.076 -0.0885,0.1589 -0.1069,0.2518 -0.0173,0.0898 -0.0089,0.1757 0.025,0.2576 0.094,0.1996 0.2035,0.3898 0.335,0.5677 0.1293,0.1789 0.2615,0.3639 0.3965,0.5551 0.137,0.1905 0.2577,0.4055 0.3681,0.6425 0.1864,0.4298 0.2998,0.8522 0.3409,1.2744 0.0403,0.4201 0.0308,0.8349 -0.0291,1.2424 -0.0621,0.4085 -0.1512,0.8065 -0.2705,1.1981 -0.0277,0.0944 -0.0664,0.1863 -0.1102,0.2781 -0.0459,0.0925 -0.1005,0.1766 -0.1618,0.2512 -0.0623,0.0725 -0.1329,0.1264 -0.211,0.1636 -0.1422,0.0609 -0.2862,0.0727 -0.4331,0.0335 -0.148,-0.0361 -0.2923,-0.1088 -0.438,-0.2181 -0.1458,-0.1093 -0.2844,-0.2417 -0.42,-0.3954 -0.1335,-0.1546 -0.2616,-0.319 -0.3789,-0.4933 -0.1174,-0.1743 -0.2228,-0.3439 -0.3162,-0.5089 -0.0934,-0.1649 -0.1701,-0.3149 -0.2313,-0.447 -0.0451,-0.0844 -0.1078,-0.2083 -0.1898,-0.3759 -0.08,-0.1684 -0.1723,-0.3589 -0.2725,-0.573 -0.1025,-0.2133 -0.2037,-0.4295 -0.3068,-0.6499 -0.1032,-0.2204 -0.2009,-0.4233 -0.2902,-0.6125 -0.0892,-0.1892 -0.1627,-0.3432 -0.2205,-0.4618 -0.0578,-0.1186 -0.0906,-0.1812 -0.1003,-0.1918 -0.0765,-0.0655 -0.1608,-0.1151 -0.254,-0.1457 -0.0912,-0.0316 -0.1746,-0.0343 -0.2462,-0.0049 -0.0935,0.0416 -0.1751,0.0929 -0.2422,0.1601 -0.0681,0.0651 -0.1094,0.1457 -0.1269,0.2406 -0.0195,0.0959 -0.0001,0.2066 0.0552,0.3364 0.0295,0.0664 0.0554,0.1246 0.0828,0.1747 0.0272,0.0501 0.0644,0.1056 0.1155,0.17zm7.4478 0.9626c0.0794,0.2259 0.1525,0.4463 0.2174,0.662 0.0649,0.2156 0.1382,0.4102 0.2228,0.5853 0.0829,0.1779 0.1956,0.3172 0.3325,0.4241 0.1162,0.0912 0.224,0.1682 0.3232,0.2311 0.0987,0.0607 0.2014,0.1014 0.3054,0.1207 0.1024,0.0219 0.2203,0.0138 0.3498,-0.0209 0.1027,-0.0298 0.229,-0.0943 0.3784,-0.1955 0.1472,-0.1006 0.3045,-0.2252 0.4713,-0.3758 0.1668,-0.1506 0.3279,-0.3138 0.487,-0.493 0.157,-0.1785 0.2974,-0.3574 0.4178,-0.5404 0.1232,-0.1812 0.2129,-0.3559 0.2725,-0.5202 0.0567,-0.1659 0.0726,-0.3089 0.0412,-0.4347 -0.0182,-0.0681 -0.047,-0.1404 -0.0836,-0.2154 -0.0387,-0.0743 -0.085,-0.1325 -0.142,-0.1784 -0.0548,-0.0466 -0.1179,-0.0626 -0.1888,-0.046 -0.0522,0.0163 -0.0929,0.0485 -0.1252,0.0948 -0.0318,0.0485 -0.0601,0.1008 -0.0845,0.1591 -0.0272,0.0568 -0.0561,0.1069 -0.0912,0.1516 -0.0963,0.1152 -0.201,0.2516 -0.313,0.4134 -0.1113,0.164 -0.2344,0.3287 -0.3639,0.4953 -0.1296,0.1666 -0.2688,0.3145 -0.4194,0.4466 -0.1511,0.1299 -0.3134,0.2182 -0.4879,0.2697 -0.0912,0.0197 -0.1705,-0.0038 -0.2362,-0.0733 -0.0663,-0.0717 -0.1197,-0.1657 -0.1647,-0.2807 -0.0449,-0.115 -0.0821,-0.2275 -0.1106,-0.3423l-0.2047 -0.7642c0.0052,-0.1121 0.0492,-0.2204 0.1362,-0.3261 0.0849,-0.1051 0.1884,-0.2105 0.3101,-0.3185 0.1224,-0.1057 0.238,-0.2191 0.3523,-0.3369 0.1122,-0.1171 0.1983,-0.2437 0.2561,-0.3793 0.0595,-0.1383 0.0663,-0.2884 0.0266,-0.4543 -0.0064,-0.0242 -0.0215,-0.0625 -0.0416,-0.1113 -0.0207,-0.0509 -0.0464,-0.1029 -0.077,-0.1558 -0.0307,-0.053 -0.0656,-0.0955 -0.1003,-0.1286 -0.0376,-0.0346 -0.0737,-0.0462 -0.1093,-0.0389 -0.0067,0.0018 -0.0155,0.0041 -0.0258,0.0092 -0.011,0.0029 -0.0186,0.0097 -0.0235,0.0181l-0.8522 0.878 -0.1186 0.0317c-0.0751,-0.2976 -0.1407,-0.5954 -0.1964,-0.8912 -0.0536,-0.2963 -0.1168,-0.5854 -0.1906,-0.8693 -0.0288,-0.1076 -0.0801,-0.2021 -0.1509,-0.282 -0.0692,-0.0827 -0.1508,-0.1409 -0.2456,-0.179 -0.0945,-0.0359 -0.1949,-0.0419 -0.2965,-0.0171 -0.0828,0.0246 -0.1461,0.0698 -0.1868,0.1372 -0.0431,0.068 -0.0775,0.1502 -0.1045,0.2516 0.0283,0.1054 0.0586,0.2102 0.0913,0.3145 0.0326,0.1042 0.0631,0.209 0.0914,0.3145 0.0864,0.3228 0.1642,0.648 0.2319,0.9711 0.0684,0.3254 0.1312,0.6476 0.1878,0.9643 -0.0089,0.0283 -0.0296,0.0738 -0.0595,0.1383 -0.0298,0.0645 -0.0534,0.1343 -0.0758,0.2086 -0.0225,0.0743 -0.028,0.1417 -0.0144,0.2016 0.0199,0.0653 0.0517,0.1226 0.0962,0.1743 0.0466,0.051 0.0955,0.1015 0.1481,0.1486 0.0505,0.0477 0.0971,0.0987 0.1377,0.1538zm-1.1224 -5.3485c0.0342,0.1015 0.0865,0.191 0.1617,0.2697 0.0752,0.0787 0.159,0.1363 0.2533,0.1722 0.0928,0.0387 0.1839,0.0449 0.2745,0.0229 0.118,-0.0339 0.2327,-0.0976 0.346,-0.1844 0.1105,-0.0885 0.217,-0.183 0.3196,-0.2834 0.1053,-0.0988 0.2042,-0.1866 0.2984,-0.2565 0.1288,-0.0816 0.2667,-0.1468 0.4153,-0.1984 0.1492,-0.0494 0.2951,-0.0931 0.4429,-0.1305l0.0922 -0.0247c0.1455,-0.0366 0.295,-0.0672 0.4475,-0.0869 0.1524,-0.0197 0.3043,-0.0415 0.459,-0.0617 0.1546,-0.0203 0.3063,-0.0515 0.4562,-0.0894 0.0636,-0.017 0.1188,-0.0483 0.1683,-0.0921 0.0516,-0.0444 0.0893,-0.0969 0.112,-0.1619 0.0226,-0.0648 0.0219,-0.1376 0.0029,-0.2173 -0.0408,-0.135 -0.1164,-0.2324 -0.2316,-0.2934 -0.1152,-0.0608 -0.247,-0.0962 -0.3999,-0.1046 -0.1508,-0.0091 -0.3051,-0.0054 -0.4576,0.0143 -0.1524,0.0196 -0.2855,0.0412 -0.4015,0.0652 -0.1159,0.024 -0.194,0.0402 -0.2347,0.0464 -0.2767,0.0742 -0.5203,0.1489 -0.727,0.2207 -0.2084,0.0747 -0.3962,0.1556 -0.5678,0.2439 -0.1717,0.0884 -0.3394,0.1922 -0.5077,0.3103 -0.1663,0.1175 -0.3497,0.2585 -0.5467,0.4195 -0.061,0.0446 -0.1119,0.1007 -0.1478,0.1691 -0.0385,0.0668 -0.0483,0.1447 -0.0275,0.231zm4.2569 0.5029l0.1967 0.4087c0.263,0.5354 0.525,1.0525 0.7862,1.5513 0.2633,0.4985 0.544,0.9777 0.8448,1.4395 0.3011,0.4641 0.638,0.9079 1.0158,1.3354 0.0677,0.0827 0.131,0.1408 0.1874,0.1725 0.0564,0.0316 0.114,0.0445 0.1783,0.0424 0.0644,-0.0021 0.1435,-0.0114 0.2349,-0.0299 0.1119,-0.0197 0.1938,-0.0526 0.2458,-0.0988 0.0496,-0.0457 0.0827,-0.1068 0.0928,-0.1802 0.0102,-0.0734 0.0128,-0.1639 0.0061,-0.2666 -0.0088,-0.1024 -0.0136,-0.2215 -0.019,-0.3568 -0.0137,-0.3393 -0.019,-0.6708 -0.0165,-0.9968 0.0003,-0.3256 0.0115,-0.6554 0.0329,-0.9916 0.0193,-0.3359 0.0516,-0.6902 0.0944,-1.0625 0.0429,-0.3723 0.0963,-0.7766 0.1632,-1.2085 0.0693,-0.4325 0.1515,-0.9087 0.2467,-1.4288l-0.0023 -0.0135c0.0178,-0.0562 0.0286,-0.0997 0.0324,-0.1304 0.0035,-0.0329 0.0009,-0.074 -0.0078,-0.1232 -0.0122,-0.0694 -0.0436,-0.1424 -0.0918,-0.2194 -0.0482,-0.0769 -0.1056,-0.1406 -0.1723,-0.1912 -0.0643,-0.051 -0.1303,-0.0716 -0.1935,-0.0628 -0.1272,0.0247 -0.2323,0.0963 -0.3149,0.2171 -0.0852,0.1188 -0.1511,0.2691 -0.2047,0.4493 -0.0511,0.1822 -0.0926,0.3788 -0.1246,0.5899 -0.032,0.2112 -0.0596,0.4216 -0.08,0.6329 -0.0231,0.2095 -0.0467,0.4031 -0.0712,0.5782 -0.0241,0.1775 -0.0542,0.3213 -0.0924,0.4319 -0.006,0.0841 -0.0148,0.2172 -0.0296,0.3953 -0.0121,0.18 -0.0274,0.3813 -0.0455,0.606 -0.0177,0.2271 -0.0357,0.4519 -0.0512,0.6786 -0.018,0.2249 -0.0311,0.4257 -0.0433,0.6056 -0.0125,0.1777 -0.0192,0.3105 -0.0228,0.3942l-0.0806 0.0142c-0.0295,0.0029 -0.0805,-0.0504 -0.1476,-0.1563 -0.0698,-0.1078 -0.1539,-0.2569 -0.252,-0.4474 -0.0979,-0.1882 -0.2053,-0.4048 -0.3221,-0.6474 -0.1166,-0.2426 -0.2356,-0.4986 -0.3611,-0.7651 -0.1259,-0.2687 -0.2491,-0.5356 -0.372,-0.8002 -0.1224,-0.2624 -0.2403,-0.5117 -0.3505,-0.7439 -0.0771,-0.0834 -0.1569,-0.1432 -0.2413,-0.1768 -0.0866,-0.0333 -0.1779,-0.0402 -0.2786,-0.0224 -0.1307,0.0183 -0.2341,0.0735 -0.3065,0.1602 -0.0725,0.0866 -0.094,0.2267 -0.0627,0.4173zm6.0609 1.3485c0.008,0.3274 0.0678,0.6242 0.1792,0.8906 0.1116,0.264 0.2633,0.4911 0.4531,0.681 0.192,0.1877 0.4083,0.3318 0.6511,0.4322 0.2451,0.098 0.5029,0.1458 0.7735,0.1434 0.3159,-0.0078 0.633,-0.0793 0.9512,-0.2168 0.316,-0.1351 0.6175,-0.3223 0.9044,-0.5569 0.2848,-0.2347 0.5393,-0.5052 0.7613,-0.8115 0.2221,-0.3041 0.3961,-0.6277 0.5197,-0.9733 0.1259,-0.3433 0.188,-0.6923 0.1841,-1.0469 -0.0087,-0.366 -0.0714,-0.7083 -0.1907,-1.0246 -0.1193,-0.3185 -0.2879,-0.5998 -0.5014,-0.8462 -0.2135,-0.2442 -0.4648,-0.44 -0.7562,-0.5872 -0.0182,-0.0042 -0.057,-0.0104 -0.114,-0.0253 -0.0572,-0.0126 -0.121,-0.0274 -0.1897,-0.0467 -0.0685,-0.0193 -0.128,-0.0387 -0.1807,-0.0606 -0.0526,-0.0195 -0.0825,-0.0418 -0.092,-0.062 0.0247,-0.0209 0.0494,-0.035 0.0698,-0.0444 0.0202,-0.0072 0.0475,-0.0123 0.0793,-0.0128 0.0773,0.0009 0.1526,0.0132 0.2304,0.0392 0.0754,0.0237 0.1509,0.0497 0.2287,0.0733 0.0778,0.0259 0.1575,0.0382 0.2394,0.039 0.05,-0.0031 0.0837,-0.0241 0.1035,-0.0632 0.022,-0.039 0.0349,-0.0847 0.0385,-0.1371 0.0036,-0.0524 0.0028,-0.1 0.002,-0.1432l-0.0004 -0.0273c-0.0048,-0.1455 -0.0388,-0.2654 -0.104,-0.3598 -0.0654,-0.0967 -0.1508,-0.1702 -0.2518,-0.223 -0.1033,-0.0528 -0.2131,-0.0895 -0.3294,-0.1103 -0.1163,-0.0207 -0.2302,-0.0278 -0.337,-0.0259 -0.2592,0.0068 -0.5014,0.0657 -0.7269,0.1741 -0.2256,0.1086 -0.4367,0.2556 -0.629,0.4409 -0.1924,0.1852 -0.3707,0.393 -0.5304,0.6254 -0.1619,0.2326 -0.3077,0.4761 -0.4375,0.7308 -0.1297,0.2525 -0.2436,0.5023 -0.3439,0.7496l-0.0919 0.2063c-0.094,0.2199 -0.1831,0.4512 -0.2699,0.6914 -0.0868,0.2404 -0.1598,0.4849 -0.2145,0.736 -0.0548,0.2511 -0.08,0.5016 -0.0779,0.7518zm0.9297 0.1065c-0.0027,-0.2865 0.0332,-0.569 0.1102,-0.8478 0.0747,-0.2788 0.1746,-0.551 0.2973,-0.817 0.1228,-0.2659 0.2523,-0.5251 0.3913,-0.7777 0.1365,-0.2525 0.2664,-0.4959 0.3874,-0.7299 0.0924,-0.179 0.1723,-0.2918 0.2396,-0.343 0.0673,-0.0513 0.1263,-0.0614 0.1768,-0.0304 0.0484,0.0333 0.0947,0.0825 0.1368,0.1477 0.0398,0.0675 0.0796,0.1305 0.1169,0.1889 0.0375,0.0585 0.079,0.0874 0.1222,0.0911 0.0682,-0.0034 0.1362,-0.0159 0.2063,-0.0377 0.0679,-0.0216 0.1403,-0.0342 0.2154,-0.0378 0.1614,-0.0006 0.3146,0.0491 0.4573,0.1444 0.1427,0.0975 0.2677,0.225 0.3796,0.3822 0.1096,0.1572 0.1967,0.3263 0.2612,0.5071 0.0646,0.1831 0.0996,0.3576 0.1025,0.528 0.0021,0.2524 -0.0525,0.508 -0.1617,0.767 -0.1069,0.2565 -0.255,0.5024 -0.4397,0.7376 -0.187,0.2329 -0.3924,0.4434 -0.6189,0.6293 -0.2287,0.1837 -0.4604,0.331 -0.6949,0.4397 -0.2369,0.1109 -0.4611,0.1671 -0.6701,0.1731 -0.2024,0.0012 -0.376,-0.0435 -0.5278,-0.1363 -0.1493,-0.0929 -0.2676,-0.2228 -0.3524,-0.3895 -0.0848,-0.1691 -0.1291,-0.3639 -0.1353,-0.589zm8.9794 0.5354c-0.0297,0.4958 0.0292,0.9472 0.1731,1.3489 0.1438,0.4017 0.3598,0.7352 0.6463,0.9958 0.2888,0.261 0.6329,0.4303 1.0333,0.5032 0.1322,0.0233 0.2793,0.04 0.4422,0.0456 0.1652,0.0061 0.3331,-0.0035 0.5038,-0.0289 0.1707,-0.0253 0.3319,-0.0754 0.4836,-0.1502 0.1517,-0.0749 0.2813,-0.1813 0.3888,-0.3193 0.1052,-0.1384 0.1756,-0.3154 0.2117,-0.5329 0.0001,-0.0138 -0.0118,-0.0252 -0.0352,-0.0363 -0.0261,-0.0092 -0.0544,-0.0188 -0.0879,-0.0247 -0.0332,-0.0081 -0.0601,-0.0129 -0.0847,-0.0172 -0.1437,-0.0231 -0.2903,-0.0305 -0.4376,-0.0195 -0.1473,0.011 -0.296,0.0286 -0.443,0.0512 -0.1494,0.0221 -0.3002,0.0394 -0.4498,0.05 -0.1519,0.0101 -0.3029,0.0019 -0.4533,-0.0222 -0.2728,-0.0505 -0.4882,-0.1508 -0.642,-0.3003 -0.1559,-0.1498 -0.2637,-0.3373 -0.3237,-0.5603 -0.0626,-0.2211 -0.0882,-0.4681 -0.0798,-0.739 0.0059,-0.2692 0.037,-0.5499 0.0906,-0.8406 0.0252,-0.1433 0.0684,-0.3228 0.1264,-0.5341 0.0604,-0.211 0.1324,-0.4361 0.221,-0.6768 0.086,-0.2388 0.1853,-0.4752 0.2934,-0.7078 0.1098,-0.23 0.2275,-0.4401 0.3523,-0.6236 0.1273,-0.1853 0.2588,-0.3284 0.3943,-0.4292 0.1378,-0.1004 0.2764,-0.1405 0.4178,-0.1179 0.0914,0.0185 0.1601,0.0744 0.2063,0.1656 0.0441,0.091 0.077,0.2052 0.0989,0.343 0.0192,0.1396 0.0391,0.2886 0.0567,0.451 0.0179,0.1602 0.0475,0.32 0.0867,0.477 0.0367,0.1589 0.0966,0.3033 0.1776,0.433 0.0354,0.0478 0.0875,0.0802 0.1539,0.0964 0.0682,0.0191 0.1395,0.0201 0.216,0.0058 0.0745,-0.0169 0.1403,-0.0492 0.1975,-0.0991 0.028,-0.0273 0.0566,-0.0592 0.0892,-0.0997 0.0299,-0.0386 0.0488,-0.0676 0.0539,-0.0828 0.0099,-0.5408 -0.0262,-0.9905 -0.1075,-1.3419 -0.0808,-0.3536 -0.1861,-0.6331 -0.3166,-0.8361 -0.1308,-0.2009 -0.2662,-0.3495 -0.4052,-0.4386 -0.1412,-0.0895 -0.2633,-0.1434 -0.3715,-0.1579 -0.2852,-0.0456 -0.5453,-0.0106 -0.7805,0.1049 -0.235,0.1155 -0.4482,0.2904 -0.6373,0.5248 -0.1888,0.2322 -0.3565,0.5027 -0.5025,0.8072 -0.1487,0.3062 -0.2765,0.6254 -0.3854,0.9548 -0.1116,0.3312 -0.2032,0.6544 -0.2812,0.9662 -0.0759,0.3122 -0.1363,0.5901 -0.1847,0.8379 -0.0483,0.2478 -0.0818,0.438 -0.1059,0.5746z"/>
    <path id="_6924929521" class="fil7" d="M20.3039 26.9589c0.0856,0.0227 0.1726,0.034 0.2626,0.0292 0.09,-0.0047 0.1717,-0.0207 0.25,-0.0494 0.0783,-0.0287 0.1404,-0.0667 0.1893,-0.1175 0.082,-0.0914 0.1093,-0.1851 0.0818,-0.2876 -0.0291,-0.1008 -0.0902,-0.1978 -0.1884,-0.2893 -0.1062,-0.0995 -0.2188,-0.1924 -0.3377,-0.2756 -0.1188,-0.0864 -0.2393,-0.171 -0.3614,-0.2605 -0.1221,-0.0863 -0.2412,-0.1856 -0.3573,-0.2945 -0.0458,-0.0474 -0.0708,-0.0904 -0.0698,-0.1274 -0.0007,-0.0386 0.0084,-0.0773 0.027,-0.113 0.0203,-0.0374 0.034,-0.0746 0.0462,-0.1167 0.0873,-0.2539 0.1634,-0.4964 0.2284,-0.7308 0.0667,-0.2327 0.1334,-0.4653 0.2033,-0.6949 0.0699,-0.2328 0.1543,-0.4706 0.2545,-0.7184 0.0332,-0.0311 0.0942,-0.0353 0.1767,-0.0095 0.084,0.0243 0.1828,0.0659 0.2916,0.1267 0.1103,0.0592 0.2241,0.1249 0.3363,0.1984 0.1155,0.0736 0.218,0.1442 0.3124,0.21 0.0944,0.0659 0.1644,0.1178 0.2166,0.1555 0.0733,0.0549 0.1435,0.1132 0.2122,0.1796 0.0703,0.0647 0.1387,0.1213 0.2055,0.1668 0.0683,0.0471 0.1378,0.07 0.2087,0.0719 0.0707,-0.0012 0.1423,-0.0395 0.2183,-0.1148 0.1136,-0.121 0.1419,-0.2516 0.0848,-0.389 -0.0587,-0.1389 -0.1739,-0.2912 -0.3504,-0.4553 -0.1423,-0.1374 -0.3005,-0.2649 -0.4731,-0.3873 -0.1758,-0.1224 -0.3579,-0.235 -0.5462,-0.3378 -0.1883,-0.1029 -0.3747,-0.1913 -0.561,-0.27l-3.354 -1.4562c-0.2447,-0.1066 -0.4936,-0.1827 -0.742,-0.2298 -0.2485,-0.0471 -0.4851,-0.0671 -0.7102,-0.0599 -0.2266,0.0087 -0.427,0.0395 -0.6045,0.0957 -0.1759,0.0577 -0.3129,0.1373 -0.4123,0.2371 -0.0269,0.0279 -0.06,0.0654 -0.101,0.1144 -0.0409,0.0489 -0.0756,0.0881 -0.1072,0.1208 0.0095,0.1703 0.0624,0.3511 0.1574,0.544 0.095,0.1897 0.2173,0.3837 0.3654,0.5773 0.1498,0.1951 0.3075,0.3854 0.4747,0.569 0.1672,0.1835 0.331,0.3544 0.4849,0.5125 0.1555,0.1565 0.2865,0.2924 0.3963,0.4079 0.224,0.2163 0.4335,0.425 0.6299,0.6242 0.1981,0.2007 0.3929,0.3984 0.5844,0.596 0.1917,0.1976 0.3913,0.4 0.5992,0.6102 0.2079,0.2102 0.4337,0.4347 0.6807,0.6731 0.1096,0.1059 0.2257,0.218 0.3499,0.3348 0.1243,0.1168 0.2517,0.2304 0.379,0.3407 0.1274,0.1104 0.2497,0.2063 0.3685,0.2894zm-1.5014 -2.5498c-0.0899,-0.0868 -0.1847,-0.1752 -0.2827,-0.2636 -0.098,-0.0882 -0.1895,-0.1703 -0.2745,-0.2459 -0.0849,-0.0758 -0.1503,-0.1358 -0.1977,-0.1815 -0.2143,-0.207 -0.4319,-0.4234 -0.6561,-0.6495 -0.2226,-0.2244 -0.4323,-0.4458 -0.6306,-0.6627 -0.1984,-0.2136 -0.3691,-0.4132 -0.5121,-0.5924 -0.143,-0.1793 -0.2405,-0.3271 -0.2956,-0.4435 -0.055,-0.1165 -0.0514,-0.1856 0.014,-0.2109 0.1432,-0.0009 0.2993,0.0108 0.4654,0.0385 0.1661,0.0277 0.3292,0.065 0.4908,0.1136 0.165,0.0486 0.3137,0.1007 0.4483,0.1611l2.1671 0.898c0.0632,0.0262 0.1119,0.0544 0.1462,0.0843 0.0327,0.0283 0.0719,0.0662 0.1177,0.1137 -0.0752,0.1074 -0.1504,0.2277 -0.2204,0.3592 -0.0733,0.1315 -0.1384,0.2678 -0.2003,0.4103 -0.0514,0.0893 -0.1027,0.1916 -0.1522,0.3082 -0.051,0.115 -0.0957,0.2268 -0.1371,0.3385 -0.0432,0.11 -0.077,0.2039 -0.1061,0.28 -0.0292,0.076 -0.0494,0.1198 -0.0588,0.1328 -0.0094,0.0131 -0.0238,0.0214 -0.0445,0.0297 -0.0192,0.0101 -0.0466,0.0025 -0.0808,-0.0179zm6.1569 -5.2692c0.1441,0.2263 0.312,0.4566 0.5008,0.6899 0.1917,0.234 0.399,0.4584 0.6244,0.6688 0.2246,0.2136 0.4619,0.4004 0.7113,0.5636 0.2495,0.1631 0.5045,0.288 0.765,0.3746 0.2593,0.0846 0.522,0.1188 0.7825,0.0981 0.2618,-0.0188 0.516,-0.1052 0.766,-0.2587 0.1511,-0.0972 0.2933,-0.2128 0.4242,-0.3509 0.1328,-0.1393 0.2545,-0.2877 0.364,-0.4473 0.0494,-0.0711 0.1152,-0.1845 0.1979,-0.3354 0.0839,-0.149 0.1743,-0.3261 0.2697,-0.5251 0.0973,-0.2003 0.1875,-0.4122 0.276,-0.631 0.0892,-0.222 0.1606,-0.4381 0.2211,-0.6502 0.0585,-0.2109 0.0913,-0.403 0.1002,-0.5775 0.0071,-0.1733 -0.0196,-0.3147 -0.0828,-0.42 -0.1056,-0.1647 -0.2313,-0.2845 -0.3774,-0.3595 -0.146,-0.0749 -0.3032,-0.1161 -0.4725,-0.1255 -0.1702,-0.0063 -0.3404,0.0089 -0.5156,0.046 -0.1721,0.0378 -0.3388,0.0884 -0.4972,0.1524 -0.1577,0.061 -0.3015,0.1267 -0.4271,0.1919 -0.1256,0.065 -0.2263,0.1225 -0.3015,0.1696 -0.1034,0.0619 -0.2008,0.1335 -0.2902,0.2135 -0.0895,0.08 -0.1482,0.1704 -0.1784,0.2723 -0.0301,0.1019 -0.007,0.2162 0.0694,0.3428 0.0614,0.0983 0.1448,0.1802 0.2431,0.2475 0.1003,0.0661 0.2044,0.1082 0.3143,0.1254 0.1087,0.0152 0.2101,-0.0027 0.3001,-0.0562 0.0759,-0.0501 0.1356,-0.1089 0.1824,-0.1756 0.0456,-0.0687 0.0924,-0.1355 0.136,-0.203 0.0467,-0.0668 0.1026,-0.1232 0.1747,-0.1708 0.0386,-0.0241 0.0989,-0.0564 0.1815,-0.1001 0.082,-0.0405 0.1702,-0.0794 0.2639,-0.1139 0.0938,-0.0345 0.1738,-0.0523 0.2432,-0.0528 0.0682,-0.0023 0.1058,0.0277 0.1154,0.0861 -0.0217,0.2441 -0.0694,0.4938 -0.1406,0.7447 -0.0742,0.2501 -0.1685,0.494 -0.2844,0.7247 -0.1148,0.2326 -0.2509,0.4437 -0.4028,0.6297 -0.1537,0.1872 -0.3222,0.338 -0.5042,0.4545 -0.2403,0.1474 -0.476,0.225 -0.7033,0.2303 -0.2273,0.0053 -0.4454,-0.0434 -0.6563,-0.1449 -0.212,-0.1034 -0.4123,-0.2437 -0.6039,-0.4216 -0.1915,-0.1778 -0.3711,-0.3794 -0.5412,-0.6001 -0.1682,-0.222 -0.3255,-0.4481 -0.4683,-0.6807 -0.3506,-0.5611 -0.6267,-1.1446 -0.8303,-1.7493 -0.2036,-0.6047 -0.3293,-1.2178 -0.3772,-1.8394 -0.0499,-0.6203 -0.0166,-1.2364 0.0961,-1.8457 0.0108,-0.0469 0.0274,-0.0975 0.0493,-0.1569 0.0233,-0.0573 0.0507,-0.1121 0.0807,-0.1628 0.0317,-0.0521 0.063,-0.0878 0.0985,-0.1126 0.0622,-0.0335 0.1282,-0.0265 0.1974,0.0241 0.0711,0.0495 0.1391,0.1196 0.2038,0.2104 0.068,0.0917 0.1278,0.183 0.18,0.2709 0.0504,0.0892 0.0895,0.1559 0.1172,0.2003l0.1663 0.2661 0.8718 2.013c0.0012,0.002 0.004,0.0109 0.0097,0.0287 0.0071,0.0198 0.0136,0.0345 0.022,0.0479 0.0393,0.0586 0.0947,0.1044 0.1656,0.1405 0.0728,0.035 0.1484,0.0575 0.2265,0.0623 0.0762,0.006 0.1403,-0.0073 0.1936,-0.0379 0.1009,-0.0658 0.1619,-0.1441 0.1803,-0.2306 0.019,-0.0897 0.0129,-0.1851 -0.0193,-0.2882 -0.0311,-0.1013 -0.0697,-0.2058 -0.1176,-0.3126 -0.0908,-0.214 -0.1848,-0.4287 -0.2806,-0.6423 -0.098,-0.2124 -0.2045,-0.43 -0.3216,-0.6518 -0.1139,-0.221 -0.2472,-0.4514 -0.3954,-0.6886 -0.0891,-0.1426 -0.187,-0.2906 -0.2966,-0.4447 -0.1084,-0.152 -0.2272,-0.2949 -0.3552,-0.4268 -0.1279,-0.1318 -0.2629,-0.2405 -0.4037,-0.3242 -0.1438,-0.0843 -0.2921,-0.1285 -0.447,-0.1362 -0.1557,-0.0046 -0.3148,0.0412 -0.4799,0.1417 -0.1589,0.1019 -0.2849,0.2477 -0.3828,0.4429 -0.0971,0.1921 -0.1675,0.4184 -0.2135,0.6751 -0.0461,0.2566 -0.0732,0.5309 -0.078,0.8234 -0.0079,0.2919 0.0029,0.5881 0.0274,0.8891 0.0234,0.2992 0.057,0.5891 0.0999,0.8679 0.0441,0.2808 0.0928,0.5346 0.1465,0.7665 0.0525,0.2299 0.1055,0.422 0.1571,0.5774 0.1166,0.3454 0.2542,0.6857 0.4064,1.0195 0.1523,0.3338 0.3277,0.6532 0.5232,0.9573zm4.6331 -6.4972c0.0298,0.0614 0.0735,0.1539 0.1332,0.2768 0.0596,0.1227 0.1276,0.2642 0.2059,0.4234 0.0763,0.1601 0.1574,0.3257 0.2414,0.4973 0.0839,0.1718 0.1629,0.3382 0.2413,0.4974 0.0784,0.1592 0.1484,0.2997 0.208,0.4226 0.0618,0.1218 0.1075,0.2134 0.1395,0.2739 0.1467,0.2905 0.318,0.5802 0.5148,0.8658 0.197,0.2857 0.412,0.5508 0.6444,0.7933 0.2345,0.2415 0.4819,0.445 0.7403,0.6062 0.2585,0.1612 0.5226,0.2626 0.7946,0.3032 0.272,0.0407 0.5443,0.0041 0.8174,-0.115 0.2711,-0.1232 0.4963,-0.3106 0.6774,-0.558 0.179,-0.2463 0.3192,-0.5353 0.4185,-0.8657 0.0983,-0.3325 0.159,-0.6881 0.1872,-1.0664 0.026,-0.3775 0.0218,-0.7613 -0.0147,-1.1509 -0.0335,-0.3882 -0.0951,-0.7615 -0.1829,-1.1206 -0.0886,-0.3613 -0.1971,-0.6888 -0.3275,-0.9816 -0.0933,-0.2098 -0.1937,-0.4015 -0.2998,-0.5784 -0.1061,-0.1767 -0.2214,-0.3519 -0.3471,-0.5224 -0.1256,-0.1705 -0.264,-0.3528 -0.4151,-0.5469 -0.0123,-0.0219 -0.0514,-0.0592 -0.1186,-0.104 -0.066,-0.0477 -0.1392,-0.0948 -0.2217,-0.1402 -0.0814,-0.0433 -0.1533,-0.0761 -0.2127,-0.092 -0.0717,0.0345 -0.1351,0.0876 -0.1864,0.1626 -0.0532,0.076 -0.0885,0.1589 -0.1069,0.2518 -0.0173,0.0898 -0.0089,0.1757 0.025,0.2576 0.094,0.1996 0.2035,0.3898 0.335,0.5677 0.1293,0.1789 0.2615,0.3639 0.3965,0.5551 0.137,0.1905 0.2577,0.4055 0.3681,0.6425 0.1864,0.4298 0.2998,0.8522 0.3409,1.2744 0.0403,0.4201 0.0308,0.8349 -0.0291,1.2424 -0.0621,0.4085 -0.1512,0.8065 -0.2705,1.1981 -0.0277,0.0944 -0.0664,0.1863 -0.1102,0.2781 -0.0459,0.0925 -0.1005,0.1766 -0.1618,0.2512 -0.0623,0.0725 -0.1329,0.1264 -0.211,0.1636 -0.1422,0.0609 -0.2862,0.0727 -0.4331,0.0335 -0.148,-0.0361 -0.2923,-0.1088 -0.438,-0.2181 -0.1458,-0.1093 -0.2844,-0.2417 -0.42,-0.3954 -0.1335,-0.1546 -0.2616,-0.319 -0.3789,-0.4933 -0.1174,-0.1743 -0.2228,-0.3439 -0.3162,-0.5089 -0.0934,-0.1649 -0.1701,-0.3149 -0.2313,-0.447 -0.0451,-0.0844 -0.1078,-0.2083 -0.1898,-0.3759 -0.08,-0.1684 -0.1723,-0.3589 -0.2725,-0.573 -0.1025,-0.2133 -0.2037,-0.4295 -0.3068,-0.6499 -0.1032,-0.2204 -0.2009,-0.4233 -0.2902,-0.6125 -0.0892,-0.1892 -0.1627,-0.3432 -0.2205,-0.4618 -0.0578,-0.1186 -0.0906,-0.1812 -0.1003,-0.1918 -0.0765,-0.0655 -0.1608,-0.1151 -0.254,-0.1457 -0.0912,-0.0316 -0.1746,-0.0343 -0.2462,-0.0049 -0.0935,0.0416 -0.1751,0.0929 -0.2422,0.1601 -0.0681,0.0651 -0.1094,0.1457 -0.1269,0.2406 -0.0195,0.0959 -0.0001,0.2066 0.0552,0.3364 0.0295,0.0664 0.0554,0.1246 0.0828,0.1747 0.0272,0.0501 0.0644,0.1056 0.1155,0.17zm7.4478 0.9626c0.0794,0.2259 0.1525,0.4463 0.2174,0.662 0.0649,0.2156 0.1382,0.4102 0.2228,0.5853 0.0829,0.1779 0.1956,0.3172 0.3325,0.4241 0.1162,0.0912 0.224,0.1682 0.3232,0.2311 0.0987,0.0607 0.2014,0.1014 0.3054,0.1207 0.1024,0.0219 0.2203,0.0138 0.3498,-0.0209 0.1027,-0.0298 0.229,-0.0943 0.3784,-0.1955 0.1472,-0.1006 0.3045,-0.2252 0.4713,-0.3758 0.1668,-0.1506 0.3279,-0.3138 0.487,-0.493 0.157,-0.1785 0.2974,-0.3574 0.4178,-0.5404 0.1232,-0.1812 0.2129,-0.3559 0.2725,-0.5202 0.0567,-0.1659 0.0726,-0.3089 0.0412,-0.4347 -0.0182,-0.0681 -0.047,-0.1404 -0.0836,-0.2154 -0.0387,-0.0743 -0.085,-0.1325 -0.142,-0.1784 -0.0548,-0.0466 -0.1179,-0.0626 -0.1888,-0.046 -0.0522,0.0163 -0.0929,0.0485 -0.1252,0.0948 -0.0318,0.0485 -0.0601,0.1008 -0.0845,0.1591 -0.0272,0.0568 -0.0561,0.1069 -0.0912,0.1516 -0.0963,0.1152 -0.201,0.2516 -0.313,0.4134 -0.1113,0.164 -0.2344,0.3287 -0.3639,0.4953 -0.1296,0.1666 -0.2688,0.3145 -0.4194,0.4466 -0.1511,0.1299 -0.3134,0.2182 -0.4879,0.2697 -0.0912,0.0197 -0.1705,-0.0038 -0.2362,-0.0733 -0.0663,-0.0717 -0.1197,-0.1657 -0.1647,-0.2807 -0.0449,-0.115 -0.0821,-0.2275 -0.1106,-0.3423l-0.2047 -0.7642c0.0052,-0.1121 0.0492,-0.2204 0.1362,-0.3261 0.0849,-0.1051 0.1884,-0.2105 0.3101,-0.3185 0.1224,-0.1057 0.238,-0.2191 0.3523,-0.3369 0.1122,-0.1171 0.1983,-0.2437 0.2561,-0.3793 0.0595,-0.1383 0.0663,-0.2884 0.0266,-0.4543 -0.0064,-0.0242 -0.0215,-0.0625 -0.0416,-0.1113 -0.0207,-0.0509 -0.0464,-0.1029 -0.077,-0.1558 -0.0307,-0.053 -0.0656,-0.0955 -0.1003,-0.1286 -0.0376,-0.0346 -0.0737,-0.0462 -0.1093,-0.0389 -0.0067,0.0018 -0.0155,0.0041 -0.0258,0.0092 -0.011,0.0029 -0.0186,0.0097 -0.0235,0.0181l-0.8522 0.878 -0.1186 0.0317c-0.0751,-0.2976 -0.1407,-0.5954 -0.1964,-0.8912 -0.0536,-0.2963 -0.1168,-0.5854 -0.1906,-0.8693 -0.0288,-0.1076 -0.0801,-0.2021 -0.1509,-0.282 -0.0692,-0.0827 -0.1508,-0.1409 -0.2456,-0.179 -0.0945,-0.0359 -0.1949,-0.0419 -0.2965,-0.0171 -0.0828,0.0246 -0.1461,0.0698 -0.1868,0.1372 -0.0431,0.068 -0.0775,0.1502 -0.1045,0.2516 0.0283,0.1054 0.0586,0.2102 0.0913,0.3145 0.0326,0.1042 0.0631,0.209 0.0914,0.3145 0.0864,0.3228 0.1642,0.648 0.2319,0.9711 0.0684,0.3254 0.1312,0.6476 0.1878,0.9643 -0.0089,0.0283 -0.0296,0.0738 -0.0595,0.1383 -0.0298,0.0645 -0.0534,0.1343 -0.0758,0.2086 -0.0225,0.0743 -0.028,0.1417 -0.0144,0.2016 0.0199,0.0653 0.0517,0.1226 0.0962,0.1743 0.0466,0.051 0.0955,0.1015 0.1481,0.1486 0.0505,0.0477 0.0971,0.0987 0.1377,0.1538zm-1.1224 -5.3485c0.0342,0.1015 0.0865,0.191 0.1617,0.2697 0.0752,0.0787 0.159,0.1363 0.2533,0.1722 0.0928,0.0387 0.1839,0.0449 0.2745,0.0229 0.118,-0.0339 0.2327,-0.0976 0.346,-0.1844 0.1105,-0.0885 0.217,-0.183 0.3196,-0.2834 0.1053,-0.0988 0.2042,-0.1866 0.2984,-0.2565 0.1288,-0.0816 0.2667,-0.1468 0.4153,-0.1984 0.1492,-0.0494 0.2951,-0.0931 0.4429,-0.1305l0.0922 -0.0247c0.1455,-0.0366 0.295,-0.0672 0.4475,-0.0869 0.1524,-0.0197 0.3043,-0.0415 0.459,-0.0617 0.1546,-0.0203 0.3063,-0.0515 0.4562,-0.0894 0.0636,-0.017 0.1188,-0.0483 0.1683,-0.0921 0.0516,-0.0444 0.0893,-0.0969 0.112,-0.1619 0.0226,-0.0648 0.0219,-0.1376 0.0029,-0.2173 -0.0408,-0.135 -0.1164,-0.2324 -0.2316,-0.2934 -0.1152,-0.0608 -0.247,-0.0962 -0.3999,-0.1046 -0.1508,-0.0091 -0.3051,-0.0054 -0.4576,0.0143 -0.1524,0.0196 -0.2855,0.0412 -0.4015,0.0652 -0.1159,0.024 -0.194,0.0402 -0.2347,0.0464 -0.2767,0.0742 -0.5203,0.1489 -0.727,0.2207 -0.2084,0.0747 -0.3962,0.1556 -0.5678,0.2439 -0.1717,0.0884 -0.3394,0.1922 -0.5077,0.3103 -0.1663,0.1175 -0.3497,0.2585 -0.5467,0.4195 -0.061,0.0446 -0.1119,0.1007 -0.1478,0.1691 -0.0385,0.0668 -0.0483,0.1447 -0.0275,0.231zm4.2569 0.5029l0.1967 0.4087c0.263,0.5354 0.525,1.0525 0.7862,1.5513 0.2633,0.4985 0.544,0.9777 0.8448,1.4395 0.3011,0.4641 0.638,0.9079 1.0158,1.3354 0.0677,0.0827 0.131,0.1408 0.1874,0.1725 0.0564,0.0316 0.114,0.0445 0.1783,0.0424 0.0644,-0.0021 0.1435,-0.0114 0.2349,-0.0299 0.1119,-0.0197 0.1938,-0.0526 0.2458,-0.0988 0.0496,-0.0457 0.0827,-0.1068 0.0928,-0.1802 0.0102,-0.0734 0.0128,-0.1639 0.0061,-0.2666 -0.0088,-0.1024 -0.0136,-0.2215 -0.019,-0.3568 -0.0137,-0.3393 -0.019,-0.6708 -0.0165,-0.9968 0.0003,-0.3256 0.0115,-0.6554 0.0329,-0.9916 0.0193,-0.3359 0.0516,-0.6902 0.0944,-1.0625 0.0429,-0.3723 0.0963,-0.7766 0.1632,-1.2085 0.0693,-0.4325 0.1515,-0.9087 0.2467,-1.4288l-0.0023 -0.0135c0.0178,-0.0562 0.0286,-0.0997 0.0324,-0.1304 0.0035,-0.0329 0.0009,-0.074 -0.0078,-0.1232 -0.0122,-0.0694 -0.0436,-0.1424 -0.0918,-0.2194 -0.0482,-0.0769 -0.1056,-0.1406 -0.1723,-0.1912 -0.0643,-0.051 -0.1303,-0.0716 -0.1935,-0.0628 -0.1272,0.0247 -0.2323,0.0963 -0.3149,0.2171 -0.0852,0.1188 -0.1511,0.2691 -0.2047,0.4493 -0.0511,0.1822 -0.0926,0.3788 -0.1246,0.5899 -0.032,0.2112 -0.0596,0.4216 -0.08,0.6329 -0.0231,0.2095 -0.0467,0.4031 -0.0712,0.5782 -0.0241,0.1775 -0.0542,0.3213 -0.0924,0.4319 -0.006,0.0841 -0.0148,0.2172 -0.0296,0.3953 -0.0121,0.18 -0.0274,0.3813 -0.0455,0.606 -0.0177,0.2271 -0.0357,0.4519 -0.0512,0.6786 -0.018,0.2249 -0.0311,0.4257 -0.0433,0.6056 -0.0125,0.1777 -0.0192,0.3105 -0.0228,0.3942l-0.0806 0.0142c-0.0295,0.0029 -0.0805,-0.0504 -0.1476,-0.1563 -0.0698,-0.1078 -0.1539,-0.2569 -0.252,-0.4474 -0.0979,-0.1882 -0.2053,-0.4048 -0.3221,-0.6474 -0.1166,-0.2426 -0.2356,-0.4986 -0.3611,-0.7651 -0.1259,-0.2687 -0.2491,-0.5356 -0.372,-0.8002 -0.1224,-0.2624 -0.2403,-0.5117 -0.3505,-0.7439 -0.0771,-0.0834 -0.1569,-0.1432 -0.2413,-0.1768 -0.0866,-0.0333 -0.1779,-0.0402 -0.2786,-0.0224 -0.1307,0.0183 -0.2341,0.0735 -0.3065,0.1602 -0.0725,0.0866 -0.094,0.2267 -0.0627,0.4173zm6.0609 1.3485c0.008,0.3274 0.0678,0.6242 0.1792,0.8906 0.1116,0.264 0.2633,0.4911 0.4531,0.681 0.192,0.1877 0.4083,0.3318 0.6511,0.4322 0.2451,0.098 0.5029,0.1458 0.7735,0.1434 0.3159,-0.0078 0.633,-0.0793 0.9512,-0.2168 0.316,-0.1351 0.6175,-0.3223 0.9044,-0.5569 0.2848,-0.2347 0.5393,-0.5052 0.7613,-0.8115 0.2221,-0.3041 0.3961,-0.6277 0.5197,-0.9733 0.1259,-0.3433 0.188,-0.6923 0.1841,-1.0469 -0.0087,-0.366 -0.0714,-0.7083 -0.1907,-1.0246 -0.1193,-0.3185 -0.2879,-0.5998 -0.5014,-0.8462 -0.2135,-0.2442 -0.4648,-0.44 -0.7562,-0.5872 -0.0182,-0.0042 -0.057,-0.0104 -0.114,-0.0253 -0.0572,-0.0126 -0.121,-0.0274 -0.1897,-0.0467 -0.0685,-0.0193 -0.128,-0.0387 -0.1807,-0.0606 -0.0526,-0.0195 -0.0825,-0.0418 -0.092,-0.062 0.0247,-0.0209 0.0494,-0.035 0.0698,-0.0444 0.0202,-0.0072 0.0475,-0.0123 0.0793,-0.0128 0.0773,0.0009 0.1526,0.0132 0.2304,0.0392 0.0754,0.0237 0.1509,0.0497 0.2287,0.0733 0.0778,0.0259 0.1575,0.0382 0.2394,0.039 0.05,-0.0031 0.0837,-0.0241 0.1035,-0.0632 0.022,-0.039 0.0349,-0.0847 0.0385,-0.1371 0.0036,-0.0524 0.0028,-0.1 0.002,-0.1432l-0.0004 -0.0273c-0.0048,-0.1455 -0.0388,-0.2654 -0.104,-0.3598 -0.0654,-0.0967 -0.1508,-0.1702 -0.2518,-0.223 -0.1033,-0.0528 -0.2131,-0.0895 -0.3294,-0.1103 -0.1163,-0.0207 -0.2302,-0.0278 -0.337,-0.0259 -0.2592,0.0068 -0.5014,0.0657 -0.7269,0.1741 -0.2256,0.1086 -0.4367,0.2556 -0.629,0.4409 -0.1924,0.1852 -0.3707,0.393 -0.5304,0.6254 -0.1619,0.2326 -0.3077,0.4761 -0.4375,0.7308 -0.1297,0.2525 -0.2436,0.5023 -0.3439,0.7496l-0.0919 0.2063c-0.094,0.2199 -0.1831,0.4512 -0.2699,0.6914 -0.0868,0.2404 -0.1598,0.4849 -0.2145,0.736 -0.0548,0.2511 -0.08,0.5016 -0.0779,0.7518zm0.9297 0.1065c-0.0027,-0.2865 0.0332,-0.569 0.1102,-0.8478 0.0747,-0.2788 0.1746,-0.551 0.2973,-0.817 0.1228,-0.2659 0.2523,-0.5251 0.3913,-0.7777 0.1365,-0.2525 0.2664,-0.4959 0.3874,-0.7299 0.0924,-0.179 0.1723,-0.2918 0.2396,-0.343 0.0673,-0.0513 0.1263,-0.0614 0.1768,-0.0304 0.0484,0.0333 0.0947,0.0825 0.1368,0.1477 0.0398,0.0675 0.0796,0.1305 0.1169,0.1889 0.0375,0.0585 0.079,0.0874 0.1222,0.0911 0.0682,-0.0034 0.1362,-0.0159 0.2063,-0.0377 0.0679,-0.0216 0.1403,-0.0342 0.2154,-0.0378 0.1614,-0.0006 0.3146,0.0491 0.4573,0.1444 0.1427,0.0975 0.2677,0.225 0.3796,0.3822 0.1096,0.1572 0.1967,0.3263 0.2612,0.5071 0.0646,0.1831 0.0996,0.3576 0.1025,0.528 0.0021,0.2524 -0.0525,0.508 -0.1617,0.767 -0.1069,0.2565 -0.255,0.5024 -0.4397,0.7376 -0.187,0.2329 -0.3924,0.4434 -0.6189,0.6293 -0.2287,0.1837 -0.4604,0.331 -0.6949,0.4397 -0.2369,0.1109 -0.4611,0.1671 -0.6701,0.1731 -0.2024,0.0012 -0.376,-0.0435 -0.5278,-0.1363 -0.1493,-0.0929 -0.2676,-0.2228 -0.3524,-0.3895 -0.0848,-0.1691 -0.1291,-0.3639 -0.1353,-0.589zm8.9794 0.5354c-0.0297,0.4958 0.0292,0.9472 0.1731,1.3489 0.1438,0.4017 0.3598,0.7352 0.6463,0.9958 0.2888,0.261 0.6329,0.4303 1.0333,0.5032 0.1322,0.0233 0.2793,0.04 0.4422,0.0456 0.1652,0.0061 0.3331,-0.0035 0.5038,-0.0289 0.1707,-0.0253 0.3319,-0.0754 0.4836,-0.1502 0.1517,-0.0749 0.2813,-0.1813 0.3888,-0.3193 0.1052,-0.1384 0.1756,-0.3154 0.2117,-0.5329 0.0001,-0.0138 -0.0118,-0.0252 -0.0352,-0.0363 -0.0261,-0.0092 -0.0544,-0.0188 -0.0879,-0.0247 -0.0332,-0.0081 -0.0601,-0.0129 -0.0847,-0.0172 -0.1437,-0.0231 -0.2903,-0.0305 -0.4376,-0.0195 -0.1473,0.011 -0.296,0.0286 -0.443,0.0512 -0.1494,0.0221 -0.3002,0.0394 -0.4498,0.05 -0.1519,0.0101 -0.3029,0.0019 -0.4533,-0.0222 -0.2728,-0.0505 -0.4882,-0.1508 -0.642,-0.3003 -0.1559,-0.1498 -0.2637,-0.3373 -0.3237,-0.5603 -0.0626,-0.2211 -0.0882,-0.4681 -0.0798,-0.739 0.0059,-0.2692 0.037,-0.5499 0.0906,-0.8406 0.0252,-0.1433 0.0684,-0.3228 0.1264,-0.5341 0.0604,-0.211 0.1324,-0.4361 0.221,-0.6768 0.086,-0.2388 0.1853,-0.4752 0.2934,-0.7078 0.1098,-0.23 0.2275,-0.4401 0.3523,-0.6236 0.1273,-0.1853 0.2588,-0.3284 0.3943,-0.4292 0.1378,-0.1004 0.2764,-0.1405 0.4178,-0.1179 0.0914,0.0185 0.1601,0.0744 0.2063,0.1656 0.0441,0.091 0.077,0.2052 0.0989,0.343 0.0192,0.1396 0.0391,0.2886 0.0567,0.451 0.0179,0.1602 0.0475,0.32 0.0867,0.477 0.0367,0.1589 0.0966,0.3033 0.1776,0.433 0.0354,0.0478 0.0875,0.0802 0.1539,0.0964 0.0682,0.0191 0.1395,0.0201 0.216,0.0058 0.0745,-0.0169 0.1403,-0.0492 0.1975,-0.0991 0.028,-0.0273 0.0566,-0.0592 0.0892,-0.0997 0.0299,-0.0386 0.0488,-0.0676 0.0539,-0.0828 0.0099,-0.5408 -0.0262,-0.9905 -0.1075,-1.3419 -0.0808,-0.3536 -0.1861,-0.6331 -0.3166,-0.8361 -0.1308,-0.2009 -0.2662,-0.3495 -0.4052,-0.4386 -0.1412,-0.0895 -0.2633,-0.1434 -0.3715,-0.1579 -0.2852,-0.0456 -0.5453,-0.0106 -0.7805,0.1049 -0.235,0.1155 -0.4482,0.2904 -0.6373,0.5248 -0.1888,0.2322 -0.3565,0.5027 -0.5025,0.8072 -0.1487,0.3062 -0.2765,0.6254 -0.3854,0.9548 -0.1116,0.3312 -0.2032,0.6544 -0.2812,0.9662 -0.0759,0.3122 -0.1363,0.5901 -0.1847,0.8379 -0.0483,0.2478 -0.0818,0.438 -0.1059,0.5746z"/>
   </g>
   <g>
    <path class="fil6 str0" d="M60.9299 14.8153c-0.0146,0.0807 -0.0102,0.1525 0.0174,0.2164 0.0276,0.064 0.0653,0.1164 0.1175,0.1587 0.0523,0.0422 0.1058,0.0707 0.1652,0.0866 0.1685,0.0475 0.2998,0.0403 0.3919,-0.0221 0.092,-0.0625 0.1603,-0.1854 0.2069,-0.3683 0.0473,-0.185 0.078,-0.3699 0.0949,-0.5559 0.0141,-0.1846 0.0304,-0.3685 0.0434,-0.5487 0.0158,-0.1817 0.0441,-0.3577 0.0878,-0.5296 0.0204,-0.0674 0.0537,-0.1126 0.1027,-0.1372 0.0489,-0.0246 0.1059,-0.0352 0.1671,-0.0353 0.0628,0.0027 0.1223,0.0092 0.1828,0.0207 0.0588,0.0088 0.1089,0.0151 0.1486,0.0164 0.0496,-0.0009 0.1324,-0.0022 0.2439,-0.0054 0.1114,-0.0031 0.2388,-0.0042 0.3812,-0.0084 0.1445,-0.0036 0.2864,-0.0057 0.4287,-0.0099 0.1452,-0.0058 0.2732,-0.0092 0.3874,-0.0139 0.1142,-0.0047 0.1982,-0.0105 0.254,-0.0167l0.2372 0.0635 -0.4633 2.3616c-0.0016,0.0326 0.0122,0.0598 0.0416,0.0817 0.0295,0.0221 0.065,0.0387 0.1039,0.0515 0.0385,0.0149 0.0692,0.0232 0.0933,0.0296l0.0132 0.0036c0.1114,0.0322 0.2051,0.0338 0.2778,0.0086 0.0733,-0.0275 0.135,-0.091 0.1874,-0.1899 0.0502,-0.0996 0.1029,-0.2432 0.1507,-0.4305 0.0782,-0.2921 0.1556,-0.5985 0.2315,-0.9171 0.0754,-0.3165 0.1491,-0.6262 0.2209,-0.9295 0.0719,-0.3032 0.1416,-0.5811 0.2081,-0.8293 0.0082,-0.0307 0.0291,-0.0911 0.057,-0.1777 0.0307,-0.0883 0.0672,-0.1892 0.1111,-0.3092 0.0412,-0.1185 0.0857,-0.2407 0.1308,-0.3651 0.0457,-0.1267 0.0863,-0.2429 0.1267,-0.3497 0.0376,-0.1053 0.0699,-0.1908 0.092,-0.2555 0.0231,-0.0692 0.0618,-0.1694 0.1153,-0.2986 0.0535,-0.1293 0.1144,-0.2778 0.1845,-0.4425 0.0706,-0.1671 0.1424,-0.3385 0.216,-0.5165 0.0758,-0.1775 0.1482,-0.351 0.2161,-0.5165 0.07,-0.1648 0.1282,-0.3116 0.1773,-0.4421 0.0507,-0.1276 0.0843,-0.2269 0.1026,-0.295 0.0276,-0.1031 0.0343,-0.2074 0.0251,-0.3133 -0.0115,-0.1067 -0.043,-0.1999 -0.0945,-0.2796 -0.0517,-0.0797 -0.1263,-0.135 -0.2224,-0.1632 -0.09,-0.0241 -0.1694,-0.0265 -0.2365,-0.0045 -0.0693,0.0215 -0.1423,0.0655 -0.2223,0.1359 -0.063,0.1384 -0.1349,0.3098 -0.2171,0.5114 -0.08,0.2022 -0.1655,0.424 -0.2561,0.6658 -0.0901,0.2395 -0.1825,0.4878 -0.2744,0.7432 -0.0915,0.2533 -0.1795,0.5028 -0.2658,0.7456 -0.0846,0.2457 -0.1612,0.47 -0.2308,0.6773 -0.0697,0.2073 -0.1283,0.3823 -0.1744,0.5276l-0.0738 0.0649c-0.1075,0.0937 -0.2121,0.1762 -0.3137,0.2479 -0.1009,0.0695 -0.2116,0.1222 -0.3335,0.1555 -0.1246,0.0348 -0.2704,0.0428 -0.4421,0.0251 -0.0928,0.0034 -0.2114,0.0069 -0.3532,0.0089 -0.1412,-0.0002 -0.2851,0.0013 -0.4307,-0.0001 -0.1456,-0.0013 -0.2703,-0.0017 -0.375,-0.0063 -0.1031,-0.0017 -0.1637,-0.0039 -0.1812,-0.0086l-0.3295 -0.0883c-0.0082,-0.0044 -0.0183,-0.0284 -0.0286,-0.0688 -0.012,-0.0432 -0.0117,-0.0878 -0.001,-0.1367l0.8606 -3.95 0.0283 -0.1053c0.0323,-0.1209 0.0425,-0.2381 0.0307,-0.352 -0.0119,-0.1137 -0.0488,-0.2131 -0.1086,-0.2974 -0.0576,-0.0837 -0.1433,-0.1419 -0.2524,-0.1736 -0.0286,-0.0076 -0.0737,-0.0151 -0.136,-0.0199 -0.06,-0.0043 -0.118,0.0012 -0.1734,0.0147 -0.0576,0.0128 -0.094,0.0431 -0.109,0.0909l-0.0989 0.3689 -0.8329 4.268c-0.0035,0.0132 -0.0066,0.0335 -0.0082,0.0567 -0.0014,0.0231 -0.0051,0.0456 -0.0104,0.0654 -0.021,0.0698 -0.0571,0.1165 -0.1067,0.1433 -0.0495,0.0267 -0.1066,0.0467 -0.167,0.0612 -0.0604,0.0144 -0.1181,0.0366 -0.17,0.0721 -0.0512,0.0333 -0.0909,0.0934 -0.1167,0.1806 -0.0319,0.128 -0.0385,0.2321 -0.0201,0.3124 0.0208,0.0809 0.0549,0.1465 0.1043,0.1997 0.0476,0.0505 0.1002,0.0999 0.1547,0.1427 0.0572,0.0412 0.1033,0.0889 0.1433,0.1419 0.0382,0.0504 0.0581,0.1169 0.0578,0.1968 -0.0033,0.1969 -0.0243,0.3984 -0.0581,0.6035 -0.036,0.2046 -0.0775,0.4123 -0.1278,0.6178 -0.0159,0.0593 -0.0312,0.1164 -0.0481,0.1707 -0.0148,0.0549 -0.0345,0.1108 -0.057,0.1684zm4.9347 0.509c-0.0265,0.0945 -0.0385,0.1824 -0.038,0.2703 0.0011,0.0857 0.0208,0.1614 0.0589,0.2272 0.0372,0.0679 0.0991,0.116 0.1832,0.1507 0.0768,0.0222 0.1549,0.0279 0.2346,0.017 0.0825,-0.0121 0.15,-0.0545 0.2022,-0.127 0.3191,-0.7615 0.6236,-1.4532 0.9135,-2.075 0.2911,-0.6189 0.5749,-1.1869 0.8519,-1.6992 0.2749,-0.5131 0.5503,-0.9895 0.8254,-1.427 0.273,-0.4383 0.553,-0.8568 0.8378,-1.2565 0.0367,-0.0955 0.0631,-0.2023 0.0767,-0.3139 0.0145,-0.1138 0.0033,-0.2179 -0.0305,-0.3138 -0.0339,-0.0958 -0.102,-0.1658 -0.2073,-0.2087 -0.1154,-0.0418 -0.2302,-0.0347 -0.3443,0.0214 -0.114,0.056 -0.2252,0.1424 -0.3341,0.2614 -0.1082,0.1168 -0.2068,0.2469 -0.2982,0.3896 -0.0942,0.1441 -0.1767,0.2829 -0.2475,0.4165 -0.0707,0.1336 -0.1283,0.2454 -0.1697,0.3342l-0.0245 0.0637c-0.1023,0.1969 -0.2249,0.4275 -0.3648,0.6904 -0.142,0.2622 -0.2897,0.5391 -0.4461,0.8322 -0.1564,0.2931 -0.309,0.5828 -0.4586,0.8711 -0.1497,0.2884 -0.284,0.5559 -0.4039,0.8046 -0.1206,0.2508 -0.2143,0.4633 -0.282,0.6395 -0.0375,0.0976 -0.0842,0.2258 -0.1431,0.3858 -0.059,0.16 -0.125,0.3319 -0.193,0.5153 -0.0688,0.1854 -0.1334,0.3604 -0.1986,0.5302zm2.767 0.1919c-0.0619,0.1267 -0.0782,0.2486 -0.0505,0.3647 0.0275,0.1162 0.0827,0.2182 0.1644,0.3084 0.0786,0.0911 0.1686,0.1598 0.2638,0.2084 0.1084,0.0527 0.21,0.0636 0.3038,0.0297 0.0928,-0.0318 0.1766,-0.0912 0.2535,-0.177 0.0759,-0.0839 0.1447,-0.1789 0.2056,-0.2831 0.0597,-0.1074 0.1133,-0.2026 0.1578,-0.2947 0.2116,-0.4205 0.4161,-0.8419 0.6146,-1.2664 0.1985,-0.4246 0.404,-0.8481 0.6187,-1.2745 0.0042,-0.0081 0.0164,-0.0173 0.0318,-0.0273 0.0163,-0.0121 0.0286,-0.0161 0.0356,-0.0149 0.0092,0.0071 0.0253,0.0357 0.0493,0.0888 0.0239,0.0531 0.0479,0.1162 0.0737,0.1856 0.028,0.0704 0.0499,0.1326 0.0688,0.1907l1.0738 4.0226c0.0107,0.054 0.0246,0.0968 0.0427,0.1214 0.0171,0.0266 0.0403,0.046 0.0707,0.0615 0.0284,0.0145 0.0689,0.0351 0.1165,0.0568 0.0861,0.0464 0.1764,0.0796 0.2709,0.0947 0.0954,0.0179 0.1911,0.0004 0.2901,-0.0538 0.0465,-0.0912 0.1053,-0.2016 0.1795,-0.3322 0.0712,-0.1296 0.1474,-0.2643 0.2278,-0.4071 0.0793,-0.1407 0.1536,-0.2713 0.2206,-0.3928 0.069,-0.1205 0.1206,-0.2167 0.1578,-0.2896l2.1976 -3.3816c0.0996,-0.1152 0.1796,-0.2122 0.2442,-0.2941 0.0637,-0.0798 0.1192,-0.1587 0.1666,-0.2366 0.0494,-0.0769 0.0978,-0.1671 0.1505,-0.2704 0.0423,-0.0831 0.0756,-0.1783 0.0998,-0.2808 0.0221,-0.1037 0.0249,-0.1992 0.0042,-0.2888 -0.0176,-0.0907 -0.069,-0.1603 -0.153,-0.2056 -0.1267,-0.062 -0.2456,-0.0639 -0.3578,-0.0088 -0.1103,0.0561 -0.2178,0.1519 -0.3195,0.2863 -0.1017,0.1345 -0.2035,0.2842 -0.3034,0.4554 -0.1,0.171 -0.204,0.3401 -0.31,0.508 -0.0072,0.0142 -0.0226,0.0344 -0.0463,0.0658 -0.0225,0.0292 -0.043,0.0596 -0.0657,0.0889 -0.0226,0.0294 -0.0369,0.0476 -0.0421,0.0577l-2.0242 3.0413c-0.0246,0.0282 -0.0575,0.0625 -0.0994,0.1049 -0.0421,0.0425 -0.081,0.0737 -0.1147,0.0948 -0.0327,0.0241 -0.0499,0.0179 -0.0497,-0.0126l-1.4913 -5.2766 -0.4497 -0.2291c-0.0416,-0.0186 -0.0884,-0.0169 -0.1425,0.004 -0.052,0.022 -0.101,0.0531 -0.1451,0.0944 -0.046,0.0404 -0.0789,0.0798 -0.0985,0.1183 -0.0341,0.072 -0.0518,0.1369 -0.0543,0.1969 -0.0004,0.061 0.0041,0.1271 0.0127,0.1953 0.0087,0.0682 0.008,0.1495 0.0002,0.2451 -0.0058,0.0966 -0.0332,0.2153 -0.082,0.3563 -0.0228,0.0597 -0.0694,0.1712 -0.1398,0.3345 -0.0684,0.1641 -0.1553,0.3598 -0.2536,0.5878 -0.1004,0.227 -0.2069,0.4662 -0.3177,0.7185 -0.1127,0.2513 -0.2213,0.4945 -0.3278,0.7287 -0.1045,0.2351 -0.1986,0.4398 -0.2813,0.617 -0.0817,0.1754 -0.1416,0.303 -0.1818,0.382 -0.0483,0.0596 -0.1035,0.0979 -0.1636,0.1158 -0.0602,0.0178 -0.1162,0.0377 -0.1713,0.0556 -0.055,0.0178 -0.099,0.0541 -0.131,0.1118zm6.5632 2.4705c-0.1634,0.2128 -0.3223,0.4493 -0.477,0.7065 -0.1544,0.2602 -0.2943,0.5317 -0.415,0.8155 -0.1238,0.2841 -0.2182,0.571 -0.2863,0.8612 -0.0679,0.2902 -0.098,0.5725 -0.0903,0.8469 0.0092,0.2726 0.0668,0.5312 0.1754,0.7689 0.1072,0.2396 0.2754,0.4489 0.5051,0.6313 0.143,0.1088 0.3002,0.2028 0.4748,0.2786 0.1764,0.0772 0.3574,0.1408 0.5448,0.1891 0.0837,0.0221 0.2128,0.0451 0.3829,0.0712 0.1687,0.0279 0.366,0.0522 0.5857,0.0739 0.2215,0.0229 0.4514,0.0351 0.6873,0.0435 0.2391,0.0079 0.4667,0.0011 0.6867,-0.0146 0.2181,-0.0171 0.4098,-0.052 0.5769,-0.1033 0.1652,-0.0527 0.289,-0.1261 0.3664,-0.2215 0.1186,-0.1555 0.1881,-0.3147 0.2086,-0.4776 0.0205,-0.1628 0.0055,-0.3247 -0.0436,-0.487 -0.0523,-0.162 -0.1248,-0.3168 -0.2195,-0.4687 -0.0945,-0.1488 -0.199,-0.2882 -0.3134,-0.4151 -0.1112,-0.1273 -0.2222,-0.24 -0.3263,-0.3357 -0.1041,-0.0958 -0.1926,-0.1708 -0.2625,-0.2254 -0.0936,-0.0759 -0.1942,-0.1429 -0.2999,-0.1996 -0.1058,-0.0567 -0.2108,-0.081 -0.3169,-0.0745 -0.1061,0.0065 -0.2056,0.0674 -0.2984,0.1825 -0.0713,0.0913 -0.1198,0.1977 -0.1494,0.313 -0.0278,0.1169 -0.0318,0.2291 -0.0103,0.3383 0.0228,0.1073 0.0743,0.1965 0.1553,0.2627 0.0732,0.0542 0.1488,0.0903 0.2275,0.1114 0.0802,0.0193 0.1589,0.0405 0.2373,0.0583 0.0787,0.0211 0.1508,0.0544 0.2202,0.1059 0.0359,0.028 0.0869,0.0735 0.1561,0.1362 0.0661,0.0632 0.1329,0.1328 0.1974,0.2091 0.0644,0.0763 0.1085,0.1454 0.1327,0.2104 0.0256,0.0633 0.0101,0.1089 -0.0414,0.138 -0.2368,0.063 -0.4878,0.1036 -0.7479,0.1225 -0.2604,0.0158 -0.5218,0.0106 -0.7782,-0.0194 -0.2578,-0.0283 -0.5028,-0.084 -0.7295,-0.1631 -0.2286,-0.0804 -0.4279,-0.1872 -0.5995,-0.3183 -0.2208,-0.1755 -0.3744,-0.3704 -0.457,-0.5822 -0.0828,-0.2117 -0.1115,-0.4333 -0.0883,-0.6662 0.0246,-0.2347 0.088,-0.4708 0.1896,-0.7117 0.1016,-0.2408 0.2296,-0.4785 0.3788,-0.7138 0.1511,-0.234 0.3097,-0.4592 0.4795,-0.6729 0.4073,-0.5213 0.8612,-0.9804 1.3598,-1.3786 0.4986,-0.3981 1.0318,-0.7259 1.5995,-0.9835 0.5658,-0.259 1.1561,-0.4385 1.7672,-0.541 0.0478,-0.0059 0.1011,-0.0076 0.1643,-0.0073 0.0618,0.0023 0.1227,0.0093 0.1806,0.0201 0.0598,0.012 0.1041,0.0293 0.1395,0.0541 0.0528,0.047 0.0688,0.1114 0.0448,0.1937 -0.0221,0.0837 -0.0647,0.1716 -0.128,0.2636 -0.0628,0.0952 -0.1281,0.1826 -0.1929,0.2618 -0.0667,0.0777 -0.116,0.1373 -0.1482,0.1785l-0.1932 0.2473 -1.5934 1.5077c-0.0014,0.0018 -0.0088,0.0076 -0.0236,0.019 -0.0162,0.0134 -0.0278,0.0245 -0.0376,0.037 -0.0415,0.057 -0.0656,0.1247 -0.0753,0.2037 -0.008,0.0803 -0.0033,0.1591 0.019,0.2341 0.0203,0.0737 0.0547,0.1294 0.1017,0.169 0.0964,0.0723 0.1908,0.1029 0.2784,0.0905 0.0908,-0.0128 0.1783,-0.0511 0.2643,-0.1167 0.0844,-0.0638 0.1695,-0.1358 0.2534,-0.2174 0.1701,-0.1585 0.3397,-0.3203 0.5076,-0.4834 0.1661,-0.1646 0.3342,-0.3392 0.5025,-0.525 0.1687,-0.1827 0.3397,-0.3867 0.5119,-0.6071 0.1035,-0.1325 0.2091,-0.2752 0.3164,-0.4308 0.1058,-0.1539 0.1995,-0.3145 0.2795,-0.4798 0.0802,-0.1653 0.1361,-0.3293 0.1667,-0.4902 0.03,-0.164 0.0208,-0.3184 -0.0249,-0.4667 -0.0489,-0.1479 -0.1464,-0.2817 -0.2973,-0.4025 -0.1501,-0.1144 -0.3302,-0.1829 -0.5472,-0.2081 -0.2136,-0.0256 -0.4504,-0.0144 -0.7073,0.0302 -0.2569,0.0444 -0.524,0.1128 -0.8005,0.2083 -0.277,0.0924 -0.5516,0.2038 -0.8261,0.3299 -0.2731,0.1243 -0.534,0.255 -0.7814,0.3907 -0.2488,0.1375 -0.4706,0.27 -0.6701,0.3998 -0.1981,0.128 -0.3605,0.2435 -0.4889,0.3451 -0.2846,0.2277 -0.5574,0.4733 -0.819,0.7306 -0.2616,0.2573 -0.5017,0.5314 -0.7206,0.8191zm3.6063 6.0524c-0.0257,0.0847 -0.0401,0.1713 -0.0384,0.2614 0.0016,0.0901 0.0147,0.1723 0.0407,0.2516 0.0259,0.0792 0.0618,0.1426 0.1107,0.1933 0.0886,0.0851 0.1813,0.1157 0.2846,0.0918 0.1018,-0.0256 0.2009,-0.0833 0.2958,-0.1782 0.1031,-0.1027 0.1999,-0.2119 0.2871,-0.3279 0.0905,-0.1157 0.1793,-0.2332 0.2731,-0.3521 0.0905,-0.119 0.1938,-0.2346 0.3067,-0.3468 0.049,-0.0441 0.0929,-0.0675 0.1298,-0.0653 0.0386,0.0007 0.077,0.0111 0.112,0.0309 0.0367,0.0216 0.0733,0.0366 0.115,0.0502 0.2507,0.0961 0.4904,0.1807 0.7223,0.2539 0.2303,0.0747 0.4604,0.1495 0.6874,0.2274 0.2302,0.078 0.465,0.1706 0.7091,0.2794 0.0299,0.0343 0.0321,0.0953 0.0033,0.1769 -0.0271,0.0831 -0.0722,0.1804 -0.1368,0.287 -0.063,0.1082 -0.1325,0.2196 -0.2099,0.3292 -0.0777,0.1128 -0.1517,0.2128 -0.2208,0.3049 -0.0692,0.092 -0.1235,0.1602 -0.163,0.211 -0.0574,0.0713 -0.1182,0.1394 -0.1869,0.2058 -0.0671,0.068 -0.1261,0.1344 -0.1738,0.1995 -0.0495,0.0667 -0.0748,0.1354 -0.0792,0.2061 -0.0013,0.0707 0.0345,0.1437 0.1071,0.2222 0.1169,0.1178 0.2465,0.1506 0.3858,0.0983 0.1408,-0.0538 0.2971,-0.1637 0.4673,-0.3343 0.1423,-0.1374 0.2752,-0.291 0.4036,-0.4592 0.1284,-0.1715 0.2473,-0.3495 0.3566,-0.5342 0.1094,-0.1846 0.2042,-0.3678 0.2894,-0.5512l1.5724 -3.3011c0.1151,-0.2408 0.1998,-0.487 0.2555,-0.7336 0.0558,-0.2467 0.084,-0.4825 0.0847,-0.7076 -0.0008,-0.2268 -0.0246,-0.4282 -0.0745,-0.6075 -0.0516,-0.1778 -0.1264,-0.3175 -0.2227,-0.4203 -0.0269,-0.0279 -0.0632,-0.0623 -0.1107,-0.1049 -0.0475,-0.0427 -0.0854,-0.0787 -0.117,-0.1114 -0.1705,0.0035 -0.3531,0.0501 -0.5491,0.1383 -0.193,0.0883 -0.3912,0.2038 -0.5898,0.3451 -0.2002,0.1429 -0.3959,0.2938 -0.5852,0.4545 -0.1893,0.1607 -0.3657,0.3185 -0.5291,0.4667 -0.1618,0.15 -0.3023,0.2762 -0.4215,0.3819 -0.224,0.2163 -0.4399,0.4183 -0.6458,0.6077 -0.2075,0.1909 -0.4118,0.3787 -0.616,0.5632 -0.2042,0.1847 -0.4134,0.3771 -0.6308,0.5776 -0.2173,0.2004 -0.4495,0.4182 -0.6964,0.6567 -0.1097,0.1059 -0.2258,0.218 -0.3468,0.3381 -0.1211,0.1201 -0.2391,0.2435 -0.3537,0.3669 -0.1148,0.1234 -0.2149,0.2422 -0.3021,0.3581zm2.6006 -1.4114c0.0899,-0.0869 0.1815,-0.1786 0.2733,-0.2734 0.0916,-0.0949 0.1768,-0.1834 0.2554,-0.2657 0.0787,-0.0822 0.1409,-0.1455 0.1883,-0.1913 0.2143,-0.2069 0.4382,-0.4169 0.6719,-0.633 0.232,-0.2146 0.4607,-0.4165 0.6843,-0.6072 0.2204,-0.1908 0.4258,-0.3544 0.61,-0.491 0.1841,-0.1367 0.3352,-0.229 0.4535,-0.2799 0.1183,-0.051 0.1873,-0.0449 0.2103,0.0213 -0.0041,0.1431 -0.0213,0.2987 -0.0547,0.4638 -0.0335,0.165 -0.0765,0.3267 -0.1307,0.4865 -0.0544,0.1631 -0.1116,0.31 -0.1766,0.4423l-0.9731 2.1345c-0.0284,0.0623 -0.0583,0.11 -0.0893,0.1432 -0.0295,0.0316 -0.0688,0.0696 -0.1178,0.1137 -0.1048,-0.079 -0.2223,-0.1583 -0.3513,-0.2328 -0.1288,-0.0779 -0.2628,-0.1477 -0.403,-0.2145 -0.0876,-0.0545 -0.1879,-0.1094 -0.3027,-0.1629 -0.1132,-0.055 -0.2234,-0.1036 -0.3336,-0.1489 -0.1084,-0.0469 -0.201,-0.084 -0.2761,-0.1158 -0.075,-0.0318 -0.118,-0.0535 -0.1307,-0.0634 -0.0127,-0.0098 -0.0205,-0.0245 -0.0281,-0.0455 -0.0094,-0.0195 -0.0008,-0.0466 0.0207,-0.08z"/>
    <path id="1" class="fil7" d="M60.9299 14.8153c-0.0146,0.0807 -0.0102,0.1525 0.0174,0.2164 0.0276,0.064 0.0653,0.1164 0.1175,0.1587 0.0523,0.0422 0.1058,0.0707 0.1652,0.0866 0.1685,0.0475 0.2998,0.0403 0.3919,-0.0221 0.092,-0.0625 0.1603,-0.1854 0.2069,-0.3683 0.0473,-0.185 0.078,-0.3699 0.0949,-0.5559 0.0141,-0.1846 0.0304,-0.3685 0.0434,-0.5487 0.0158,-0.1817 0.0441,-0.3577 0.0878,-0.5296 0.0204,-0.0674 0.0537,-0.1126 0.1027,-0.1372 0.0489,-0.0246 0.1059,-0.0352 0.1671,-0.0353 0.0628,0.0027 0.1223,0.0092 0.1828,0.0207 0.0588,0.0088 0.1089,0.0151 0.1486,0.0164 0.0496,-0.0009 0.1324,-0.0022 0.2439,-0.0054 0.1114,-0.0031 0.2388,-0.0042 0.3812,-0.0084 0.1445,-0.0036 0.2864,-0.0057 0.4287,-0.0099 0.1452,-0.0058 0.2732,-0.0092 0.3874,-0.0139 0.1142,-0.0047 0.1982,-0.0105 0.254,-0.0167l0.2372 0.0635 -0.4633 2.3616c-0.0016,0.0326 0.0122,0.0598 0.0416,0.0817 0.0295,0.0221 0.065,0.0387 0.1039,0.0515 0.0385,0.0149 0.0692,0.0232 0.0933,0.0296l0.0132 0.0036c0.1114,0.0322 0.2051,0.0338 0.2778,0.0086 0.0733,-0.0275 0.135,-0.091 0.1874,-0.1899 0.0502,-0.0996 0.1029,-0.2432 0.1507,-0.4305 0.0782,-0.2921 0.1556,-0.5985 0.2315,-0.9171 0.0754,-0.3165 0.1491,-0.6262 0.2209,-0.9295 0.0719,-0.3032 0.1416,-0.5811 0.2081,-0.8293 0.0082,-0.0307 0.0291,-0.0911 0.057,-0.1777 0.0307,-0.0883 0.0672,-0.1892 0.1111,-0.3092 0.0412,-0.1185 0.0857,-0.2407 0.1308,-0.3651 0.0457,-0.1267 0.0863,-0.2429 0.1267,-0.3497 0.0376,-0.1053 0.0699,-0.1908 0.092,-0.2555 0.0231,-0.0692 0.0618,-0.1694 0.1153,-0.2986 0.0535,-0.1293 0.1144,-0.2778 0.1845,-0.4425 0.0706,-0.1671 0.1424,-0.3385 0.216,-0.5165 0.0758,-0.1775 0.1482,-0.351 0.2161,-0.5165 0.07,-0.1648 0.1282,-0.3116 0.1773,-0.4421 0.0507,-0.1276 0.0843,-0.2269 0.1026,-0.295 0.0276,-0.1031 0.0343,-0.2074 0.0251,-0.3133 -0.0115,-0.1067 -0.043,-0.1999 -0.0945,-0.2796 -0.0517,-0.0797 -0.1263,-0.135 -0.2224,-0.1632 -0.09,-0.0241 -0.1694,-0.0265 -0.2365,-0.0045 -0.0693,0.0215 -0.1423,0.0655 -0.2223,0.1359 -0.063,0.1384 -0.1349,0.3098 -0.2171,0.5114 -0.08,0.2022 -0.1655,0.424 -0.2561,0.6658 -0.0901,0.2395 -0.1825,0.4878 -0.2744,0.7432 -0.0915,0.2533 -0.1795,0.5028 -0.2658,0.7456 -0.0846,0.2457 -0.1612,0.47 -0.2308,0.6773 -0.0697,0.2073 -0.1283,0.3823 -0.1744,0.5276l-0.0738 0.0649c-0.1075,0.0937 -0.2121,0.1762 -0.3137,0.2479 -0.1009,0.0695 -0.2116,0.1222 -0.3335,0.1555 -0.1246,0.0348 -0.2704,0.0428 -0.4421,0.0251 -0.0928,0.0034 -0.2114,0.0069 -0.3532,0.0089 -0.1412,-0.0002 -0.2851,0.0013 -0.4307,-0.0001 -0.1456,-0.0013 -0.2703,-0.0017 -0.375,-0.0063 -0.1031,-0.0017 -0.1637,-0.0039 -0.1812,-0.0086l-0.3295 -0.0883c-0.0082,-0.0044 -0.0183,-0.0284 -0.0286,-0.0688 -0.012,-0.0432 -0.0117,-0.0878 -0.001,-0.1367l0.8606 -3.95 0.0283 -0.1053c0.0323,-0.1209 0.0425,-0.2381 0.0307,-0.352 -0.0119,-0.1137 -0.0488,-0.2131 -0.1086,-0.2974 -0.0576,-0.0837 -0.1433,-0.1419 -0.2524,-0.1736 -0.0286,-0.0076 -0.0737,-0.0151 -0.136,-0.0199 -0.06,-0.0043 -0.118,0.0012 -0.1734,0.0147 -0.0576,0.0128 -0.094,0.0431 -0.109,0.0909l-0.0989 0.3689 -0.8329 4.268c-0.0035,0.0132 -0.0066,0.0335 -0.0082,0.0567 -0.0014,0.0231 -0.0051,0.0456 -0.0104,0.0654 -0.021,0.0698 -0.0571,0.1165 -0.1067,0.1433 -0.0495,0.0267 -0.1066,0.0467 -0.167,0.0612 -0.0604,0.0144 -0.1181,0.0366 -0.17,0.0721 -0.0512,0.0333 -0.0909,0.0934 -0.1167,0.1806 -0.0319,0.128 -0.0385,0.2321 -0.0201,0.3124 0.0208,0.0809 0.0549,0.1465 0.1043,0.1997 0.0476,0.0505 0.1002,0.0999 0.1547,0.1427 0.0572,0.0412 0.1033,0.0889 0.1433,0.1419 0.0382,0.0504 0.0581,0.1169 0.0578,0.1968 -0.0033,0.1969 -0.0243,0.3984 -0.0581,0.6035 -0.036,0.2046 -0.0775,0.4123 -0.1278,0.6178 -0.0159,0.0593 -0.0312,0.1164 -0.0481,0.1707 -0.0148,0.0549 -0.0345,0.1108 -0.057,0.1684zm4.9347 0.509c-0.0265,0.0945 -0.0385,0.1824 -0.038,0.2703 0.0011,0.0857 0.0208,0.1614 0.0589,0.2272 0.0372,0.0679 0.0991,0.116 0.1832,0.1507 0.0768,0.0222 0.1549,0.0279 0.2346,0.017 0.0825,-0.0121 0.15,-0.0545 0.2022,-0.127 0.3191,-0.7615 0.6236,-1.4532 0.9135,-2.075 0.2911,-0.6189 0.5749,-1.1869 0.8519,-1.6992 0.2749,-0.5131 0.5503,-0.9895 0.8254,-1.427 0.273,-0.4383 0.553,-0.8568 0.8378,-1.2565 0.0367,-0.0955 0.0631,-0.2023 0.0767,-0.3139 0.0145,-0.1138 0.0033,-0.2179 -0.0305,-0.3138 -0.0339,-0.0958 -0.102,-0.1658 -0.2073,-0.2087 -0.1154,-0.0418 -0.2302,-0.0347 -0.3443,0.0214 -0.114,0.056 -0.2252,0.1424 -0.3341,0.2614 -0.1082,0.1168 -0.2068,0.2469 -0.2982,0.3896 -0.0942,0.1441 -0.1767,0.2829 -0.2475,0.4165 -0.0707,0.1336 -0.1283,0.2454 -0.1697,0.3342l-0.0245 0.0637c-0.1023,0.1969 -0.2249,0.4275 -0.3648,0.6904 -0.142,0.2622 -0.2897,0.5391 -0.4461,0.8322 -0.1564,0.2931 -0.309,0.5828 -0.4586,0.8711 -0.1497,0.2884 -0.284,0.5559 -0.4039,0.8046 -0.1206,0.2508 -0.2143,0.4633 -0.282,0.6395 -0.0375,0.0976 -0.0842,0.2258 -0.1431,0.3858 -0.059,0.16 -0.125,0.3319 -0.193,0.5153 -0.0688,0.1854 -0.1334,0.3604 -0.1986,0.5302zm2.767 0.1919c-0.0619,0.1267 -0.0782,0.2486 -0.0505,0.3647 0.0275,0.1162 0.0827,0.2182 0.1644,0.3084 0.0786,0.0911 0.1686,0.1598 0.2638,0.2084 0.1084,0.0527 0.21,0.0636 0.3038,0.0297 0.0928,-0.0318 0.1766,-0.0912 0.2535,-0.177 0.0759,-0.0839 0.1447,-0.1789 0.2056,-0.2831 0.0597,-0.1074 0.1133,-0.2026 0.1578,-0.2947 0.2116,-0.4205 0.4161,-0.8419 0.6146,-1.2664 0.1985,-0.4246 0.404,-0.8481 0.6187,-1.2745 0.0042,-0.0081 0.0164,-0.0173 0.0318,-0.0273 0.0163,-0.0121 0.0286,-0.0161 0.0356,-0.0149 0.0092,0.0071 0.0253,0.0357 0.0493,0.0888 0.0239,0.0531 0.0479,0.1162 0.0737,0.1856 0.028,0.0704 0.0499,0.1326 0.0688,0.1907l1.0738 4.0226c0.0107,0.054 0.0246,0.0968 0.0427,0.1214 0.0171,0.0266 0.0403,0.046 0.0707,0.0615 0.0284,0.0145 0.0689,0.0351 0.1165,0.0568 0.0861,0.0464 0.1764,0.0796 0.2709,0.0947 0.0954,0.0179 0.1911,0.0004 0.2901,-0.0538 0.0465,-0.0912 0.1053,-0.2016 0.1795,-0.3322 0.0712,-0.1296 0.1474,-0.2643 0.2278,-0.4071 0.0793,-0.1407 0.1536,-0.2713 0.2206,-0.3928 0.069,-0.1205 0.1206,-0.2167 0.1578,-0.2896l2.1976 -3.3816c0.0996,-0.1152 0.1796,-0.2122 0.2442,-0.2941 0.0637,-0.0798 0.1192,-0.1587 0.1666,-0.2366 0.0494,-0.0769 0.0978,-0.1671 0.1505,-0.2704 0.0423,-0.0831 0.0756,-0.1783 0.0998,-0.2808 0.0221,-0.1037 0.0249,-0.1992 0.0042,-0.2888 -0.0176,-0.0907 -0.069,-0.1603 -0.153,-0.2056 -0.1267,-0.062 -0.2456,-0.0639 -0.3578,-0.0088 -0.1103,0.0561 -0.2178,0.1519 -0.3195,0.2863 -0.1017,0.1345 -0.2035,0.2842 -0.3034,0.4554 -0.1,0.171 -0.204,0.3401 -0.31,0.508 -0.0072,0.0142 -0.0226,0.0344 -0.0463,0.0658 -0.0225,0.0292 -0.043,0.0596 -0.0657,0.0889 -0.0226,0.0294 -0.0369,0.0476 -0.0421,0.0577l-2.0242 3.0413c-0.0246,0.0282 -0.0575,0.0625 -0.0994,0.1049 -0.0421,0.0425 -0.081,0.0737 -0.1147,0.0948 -0.0327,0.0241 -0.0499,0.0179 -0.0497,-0.0126l-1.4913 -5.2766 -0.4497 -0.2291c-0.0416,-0.0186 -0.0884,-0.0169 -0.1425,0.004 -0.052,0.022 -0.101,0.0531 -0.1451,0.0944 -0.046,0.0404 -0.0789,0.0798 -0.0985,0.1183 -0.0341,0.072 -0.0518,0.1369 -0.0543,0.1969 -0.0004,0.061 0.0041,0.1271 0.0127,0.1953 0.0087,0.0682 0.008,0.1495 0.0002,0.2451 -0.0058,0.0966 -0.0332,0.2153 -0.082,0.3563 -0.0228,0.0597 -0.0694,0.1712 -0.1398,0.3345 -0.0684,0.1641 -0.1553,0.3598 -0.2536,0.5878 -0.1004,0.227 -0.2069,0.4662 -0.3177,0.7185 -0.1127,0.2513 -0.2213,0.4945 -0.3278,0.7287 -0.1045,0.2351 -0.1986,0.4398 -0.2813,0.617 -0.0817,0.1754 -0.1416,0.303 -0.1818,0.382 -0.0483,0.0596 -0.1035,0.0979 -0.1636,0.1158 -0.0602,0.0178 -0.1162,0.0377 -0.1713,0.0556 -0.055,0.0178 -0.099,0.0541 -0.131,0.1118zm6.5632 2.4705c-0.1634,0.2128 -0.3223,0.4493 -0.477,0.7065 -0.1544,0.2602 -0.2943,0.5317 -0.415,0.8155 -0.1238,0.2841 -0.2182,0.571 -0.2863,0.8612 -0.0679,0.2902 -0.098,0.5725 -0.0903,0.8469 0.0092,0.2726 0.0668,0.5312 0.1754,0.7689 0.1072,0.2396 0.2754,0.4489 0.5051,0.6313 0.143,0.1088 0.3002,0.2028 0.4748,0.2786 0.1764,0.0772 0.3574,0.1408 0.5448,0.1891 0.0837,0.0221 0.2128,0.0451 0.3829,0.0712 0.1687,0.0279 0.366,0.0522 0.5857,0.0739 0.2215,0.0229 0.4514,0.0351 0.6873,0.0435 0.2391,0.0079 0.4667,0.0011 0.6867,-0.0146 0.2181,-0.0171 0.4098,-0.052 0.5769,-0.1033 0.1652,-0.0527 0.289,-0.1261 0.3664,-0.2215 0.1186,-0.1555 0.1881,-0.3147 0.2086,-0.4776 0.0205,-0.1628 0.0055,-0.3247 -0.0436,-0.487 -0.0523,-0.162 -0.1248,-0.3168 -0.2195,-0.4687 -0.0945,-0.1488 -0.199,-0.2882 -0.3134,-0.4151 -0.1112,-0.1273 -0.2222,-0.24 -0.3263,-0.3357 -0.1041,-0.0958 -0.1926,-0.1708 -0.2625,-0.2254 -0.0936,-0.0759 -0.1942,-0.1429 -0.2999,-0.1996 -0.1058,-0.0567 -0.2108,-0.081 -0.3169,-0.0745 -0.1061,0.0065 -0.2056,0.0674 -0.2984,0.1825 -0.0713,0.0913 -0.1198,0.1977 -0.1494,0.313 -0.0278,0.1169 -0.0318,0.2291 -0.0103,0.3383 0.0228,0.1073 0.0743,0.1965 0.1553,0.2627 0.0732,0.0542 0.1488,0.0903 0.2275,0.1114 0.0802,0.0193 0.1589,0.0405 0.2373,0.0583 0.0787,0.0211 0.1508,0.0544 0.2202,0.1059 0.0359,0.028 0.0869,0.0735 0.1561,0.1362 0.0661,0.0632 0.1329,0.1328 0.1974,0.2091 0.0644,0.0763 0.1085,0.1454 0.1327,0.2104 0.0256,0.0633 0.0101,0.1089 -0.0414,0.138 -0.2368,0.063 -0.4878,0.1036 -0.7479,0.1225 -0.2604,0.0158 -0.5218,0.0106 -0.7782,-0.0194 -0.2578,-0.0283 -0.5028,-0.084 -0.7295,-0.1631 -0.2286,-0.0804 -0.4279,-0.1872 -0.5995,-0.3183 -0.2208,-0.1755 -0.3744,-0.3704 -0.457,-0.5822 -0.0828,-0.2117 -0.1115,-0.4333 -0.0883,-0.6662 0.0246,-0.2347 0.088,-0.4708 0.1896,-0.7117 0.1016,-0.2408 0.2296,-0.4785 0.3788,-0.7138 0.1511,-0.234 0.3097,-0.4592 0.4795,-0.6729 0.4073,-0.5213 0.8612,-0.9804 1.3598,-1.3786 0.4986,-0.3981 1.0318,-0.7259 1.5995,-0.9835 0.5658,-0.259 1.1561,-0.4385 1.7672,-0.541 0.0478,-0.0059 0.1011,-0.0076 0.1643,-0.0073 0.0618,0.0023 0.1227,0.0093 0.1806,0.0201 0.0598,0.012 0.1041,0.0293 0.1395,0.0541 0.0528,0.047 0.0688,0.1114 0.0448,0.1937 -0.0221,0.0837 -0.0647,0.1716 -0.128,0.2636 -0.0628,0.0952 -0.1281,0.1826 -0.1929,0.2618 -0.0667,0.0777 -0.116,0.1373 -0.1482,0.1785l-0.1932 0.2473 -1.5934 1.5077c-0.0014,0.0018 -0.0088,0.0076 -0.0236,0.019 -0.0162,0.0134 -0.0278,0.0245 -0.0376,0.037 -0.0415,0.057 -0.0656,0.1247 -0.0753,0.2037 -0.008,0.0803 -0.0033,0.1591 0.019,0.2341 0.0203,0.0737 0.0547,0.1294 0.1017,0.169 0.0964,0.0723 0.1908,0.1029 0.2784,0.0905 0.0908,-0.0128 0.1783,-0.0511 0.2643,-0.1167 0.0844,-0.0638 0.1695,-0.1358 0.2534,-0.2174 0.1701,-0.1585 0.3397,-0.3203 0.5076,-0.4834 0.1661,-0.1646 0.3342,-0.3392 0.5025,-0.525 0.1687,-0.1827 0.3397,-0.3867 0.5119,-0.6071 0.1035,-0.1325 0.2091,-0.2752 0.3164,-0.4308 0.1058,-0.1539 0.1995,-0.3145 0.2795,-0.4798 0.0802,-0.1653 0.1361,-0.3293 0.1667,-0.4902 0.03,-0.164 0.0208,-0.3184 -0.0249,-0.4667 -0.0489,-0.1479 -0.1464,-0.2817 -0.2973,-0.4025 -0.1501,-0.1144 -0.3302,-0.1829 -0.5472,-0.2081 -0.2136,-0.0256 -0.4504,-0.0144 -0.7073,0.0302 -0.2569,0.0444 -0.524,0.1128 -0.8005,0.2083 -0.277,0.0924 -0.5516,0.2038 -0.8261,0.3299 -0.2731,0.1243 -0.534,0.255 -0.7814,0.3907 -0.2488,0.1375 -0.4706,0.27 -0.6701,0.3998 -0.1981,0.128 -0.3605,0.2435 -0.4889,0.3451 -0.2846,0.2277 -0.5574,0.4733 -0.819,0.7306 -0.2616,0.2573 -0.5017,0.5314 -0.7206,0.8191zm3.6063 6.0524c-0.0257,0.0847 -0.0401,0.1713 -0.0384,0.2614 0.0016,0.0901 0.0147,0.1723 0.0407,0.2516 0.0259,0.0792 0.0618,0.1426 0.1107,0.1933 0.0886,0.0851 0.1813,0.1157 0.2846,0.0918 0.1018,-0.0256 0.2009,-0.0833 0.2958,-0.1782 0.1031,-0.1027 0.1999,-0.2119 0.2871,-0.3279 0.0905,-0.1157 0.1793,-0.2332 0.2731,-0.3521 0.0905,-0.119 0.1938,-0.2346 0.3067,-0.3468 0.049,-0.0441 0.0929,-0.0675 0.1298,-0.0653 0.0386,0.0007 0.077,0.0111 0.112,0.0309 0.0367,0.0216 0.0733,0.0366 0.115,0.0502 0.2507,0.0961 0.4904,0.1807 0.7223,0.2539 0.2303,0.0747 0.4604,0.1495 0.6874,0.2274 0.2302,0.078 0.465,0.1706 0.7091,0.2794 0.0299,0.0343 0.0321,0.0953 0.0033,0.1769 -0.0271,0.0831 -0.0722,0.1804 -0.1368,0.287 -0.063,0.1082 -0.1325,0.2196 -0.2099,0.3292 -0.0777,0.1128 -0.1517,0.2128 -0.2208,0.3049 -0.0692,0.092 -0.1235,0.1602 -0.163,0.211 -0.0574,0.0713 -0.1182,0.1394 -0.1869,0.2058 -0.0671,0.068 -0.1261,0.1344 -0.1738,0.1995 -0.0495,0.0667 -0.0748,0.1354 -0.0792,0.2061 -0.0013,0.0707 0.0345,0.1437 0.1071,0.2222 0.1169,0.1178 0.2465,0.1506 0.3858,0.0983 0.1408,-0.0538 0.2971,-0.1637 0.4673,-0.3343 0.1423,-0.1374 0.2752,-0.291 0.4036,-0.4592 0.1284,-0.1715 0.2473,-0.3495 0.3566,-0.5342 0.1094,-0.1846 0.2042,-0.3678 0.2894,-0.5512l1.5724 -3.3011c0.1151,-0.2408 0.1998,-0.487 0.2555,-0.7336 0.0558,-0.2467 0.084,-0.4825 0.0847,-0.7076 -0.0008,-0.2268 -0.0246,-0.4282 -0.0745,-0.6075 -0.0516,-0.1778 -0.1264,-0.3175 -0.2227,-0.4203 -0.0269,-0.0279 -0.0632,-0.0623 -0.1107,-0.1049 -0.0475,-0.0427 -0.0854,-0.0787 -0.117,-0.1114 -0.1705,0.0035 -0.3531,0.0501 -0.5491,0.1383 -0.193,0.0883 -0.3912,0.2038 -0.5898,0.3451 -0.2002,0.1429 -0.3959,0.2938 -0.5852,0.4545 -0.1893,0.1607 -0.3657,0.3185 -0.5291,0.4667 -0.1618,0.15 -0.3023,0.2762 -0.4215,0.3819 -0.224,0.2163 -0.4399,0.4183 -0.6458,0.6077 -0.2075,0.1909 -0.4118,0.3787 -0.616,0.5632 -0.2042,0.1847 -0.4134,0.3771 -0.6308,0.5776 -0.2173,0.2004 -0.4495,0.4182 -0.6964,0.6567 -0.1097,0.1059 -0.2258,0.218 -0.3468,0.3381 -0.1211,0.1201 -0.2391,0.2435 -0.3537,0.3669 -0.1148,0.1234 -0.2149,0.2422 -0.3021,0.3581zm2.6006 -1.4114c0.0899,-0.0869 0.1815,-0.1786 0.2733,-0.2734 0.0916,-0.0949 0.1768,-0.1834 0.2554,-0.2657 0.0787,-0.0822 0.1409,-0.1455 0.1883,-0.1913 0.2143,-0.2069 0.4382,-0.4169 0.6719,-0.633 0.232,-0.2146 0.4607,-0.4165 0.6843,-0.6072 0.2204,-0.1908 0.4258,-0.3544 0.61,-0.491 0.1841,-0.1367 0.3352,-0.229 0.4535,-0.2799 0.1183,-0.051 0.1873,-0.0449 0.2103,0.0213 -0.0041,0.1431 -0.0213,0.2987 -0.0547,0.4638 -0.0335,0.165 -0.0765,0.3267 -0.1307,0.4865 -0.0544,0.1631 -0.1116,0.31 -0.1766,0.4423l-0.9731 2.1345c-0.0284,0.0623 -0.0583,0.11 -0.0893,0.1432 -0.0295,0.0316 -0.0688,0.0696 -0.1178,0.1137 -0.1048,-0.079 -0.2223,-0.1583 -0.3513,-0.2328 -0.1288,-0.0779 -0.2628,-0.1477 -0.403,-0.2145 -0.0876,-0.0545 -0.1879,-0.1094 -0.3027,-0.1629 -0.1132,-0.055 -0.2234,-0.1036 -0.3336,-0.1489 -0.1084,-0.0469 -0.201,-0.084 -0.2761,-0.1158 -0.075,-0.0318 -0.118,-0.0535 -0.1307,-0.0634 -0.0127,-0.0098 -0.0205,-0.0245 -0.0281,-0.0455 -0.0094,-0.0195 -0.0008,-0.0466 0.0207,-0.08z"/>
   </g>
  </g>
  <path class="fil8" d="M50.4143 44.4281c-4.6489,1.1007 -1.2329,1.3594 -7.3193,0.4593 -0.0635,-1.9373 0.2185,-3.6075 0.9402,-5.0887 0.591,-1.2127 1.7379,-2.8924 2.773,-3.2957 1.4868,-0.5791 4.5788,4.1464 3.6061,7.9251z"/>
  <path class="fil8" d="M43.4326 46.6362c3.4664,0.6349 2.6375,0.574 6.5467,-0.6444 -0.27,1.3841 -1.7682,3.0494 -3.0427,3.4665 -1.7341,0.5676 -3.2387,-1.483 -3.504,-2.8221z"/>
 </g>
</svg>
