<?xml version="1.0" encoding="UTF-8"?>
<!DOCTYPE svg PUBLIC "-//W3C//DTD SVG 1.1//EN" "http://www.w3.org/Graphics/SVG/1.1/DTD/svg11.dtd">
<!-- Creator: CorelDRAW -->
<svg xmlns="http://www.w3.org/2000/svg" xml:space="preserve" width="215.9mm" height="279.4mm" style="shape-rendering:geometricPrecision; text-rendering:geometricPrecision; image-rendering:optimizeQuality; fill-rule:evenodd; clip-rule:evenodd"
viewBox="0 0 215.9 279.4"
 xmlns:xlink="http://www.w3.org/1999/xlink">
 <defs>
  <style type="text/css">
   <![CDATA[
    .str0 {stroke:#CCCCCC;stroke-width:0.2;stroke-opacity:0.160784}
    .str2 {stroke:red;stroke-width:0.2}
    .str1 {stroke:black;stroke-width:4}
    .fil4 {fill:black}
    .fil3 {fill:#000066}
    .fil5 {fill:red}
    .fil1 {fill:white}
    .fil2 {fill:black;fill-rule:nonzero}
    .fil0 {fill:#E6E6E6;fill-opacity:0.160784}
   ]]>
  </style>
 </defs>
 <g id="Capa_x0020_1">
  <metadata id="CorelCorpID_0Corel-Layer"/>
  <g id="_496275712">
   <polygon id="_496277536" class="fil0 str0" points="215.9,41.2562 -0,41.2562 -0,238.144 215.9,238.144 "/>
   <rect id="_496277920" class="fil1 str1" x="7.95" y="51.5444" width="200" height="177.903" rx="7.5327" ry="7.5327"/>
   <path id="_496277104" class="fil2" d="M50.9971 170.599c-1.0022,0 -1.9143,-0.1448 -2.7365,-0.4345 -0.8221,-0.2897 -1.5503,-0.7086 -2.1845,-1.2567 -0.6342,-0.5481 -1.1627,-1.2136 -1.5855,-1.9966l3.1946 -2.0906c0.4071,0.5794 0.9356,1.0453 1.5855,1.3977 0.6499,0.3523 1.3115,0.5285 1.9848,0.5285 0.5168,0 0.9044,-0.1018 1.1627,-0.3054 0.2584,-0.2036 0.3876,-0.4541 0.3876,-0.7517 0,-0.2035 -0.0587,-0.3836 -0.1761,-0.5402 -0.1175,-0.1566 -0.3485,-0.3093 -0.693,-0.4581 -0.3445,-0.1487 -0.8456,-0.2936 -1.5033,-0.4345 -1.378,-0.3132 -2.4742,-0.7086 -3.2885,-1.1862 -0.8143,-0.4776 -1.3937,-1.057 -1.7382,-1.7382 -0.3445,-0.6812 -0.5168,-1.4603 -0.5168,-2.3372 0,-0.9709 0.2506,-1.8517 0.7517,-2.6426 0.5011,-0.7908 1.2175,-1.4211 2.1493,-1.8908 0.9317,-0.4698 2.0396,-0.7047 3.3237,-0.7047 1.4407,0 2.6699,0.2858 3.6878,0.8573 1.0179,0.5716 1.8009,1.3037 2.3489,2.1963l-3.1945 2.3019c-0.3602,-0.4854 -0.8417,-0.8338 -1.4446,-1.0452 -0.6029,-0.2114 -1.1784,-0.3171 -1.7265,-0.3171 -0.4854,0 -0.873,0.09 -1.1627,0.2701 -0.2897,0.1801 -0.4345,0.4267 -0.4345,0.7399 0,0.3132 0.1605,0.5637 0.4815,0.7517 0.321,0.1879 0.9591,0.3914 1.9144,0.6107 1.3154,0.2975 2.392,0.6773 3.2298,1.1392 0.8377,0.462 1.4563,1.0335 1.8556,1.7147 0.3993,0.6812 0.599,1.5151 0.599,2.5016 0,0.9866 -0.2506,1.8674 -0.7517,2.6426 -0.5011,0.7751 -1.2214,1.3819 -2.161,1.8204 -0.9396,0.4385 -2.0592,0.6577 -3.359,0.6577zm11.9091 -0.4228l-4.2515 0 0 -15.9962 4.2515 0 0 15.9962zm18.2277 0l-7.54 -10.6641 1.5972 -0.4228 0 11.0869 -4.2515 0 0 -15.9962 3.9697 0 7.5165 10.6641 -1.5972 0.4228 0 -11.0869 4.275 0 0 15.9962 -3.9697 0zm5.2617 -7.9864c0,-1.2214 0.1957,-2.3411 0.5872,-3.3589 0.3915,-1.0179 0.9474,-1.8988 1.6677,-2.6426 0.7204,-0.7438 1.5816,-1.3193 2.5838,-1.7264 1.0023,-0.4072 2.1141,-0.6108 3.3355,-0.6108 1.2215,0 2.3372,0.2036 3.3473,0.6108 1.01,0.4071 1.8791,0.9826 2.6073,1.7264 0.7281,0.7438 1.288,1.6247 1.6794,2.6426 0.3915,1.0178 0.5873,2.1375 0.5873,3.3589 0,1.2215 -0.1958,2.3411 -0.5873,3.359 -0.3914,1.0179 -0.9513,1.8987 -1.6794,2.6426 -0.7282,0.7438 -1.5973,1.3154 -2.6073,1.7147 -1.0101,0.3993 -2.1258,0.599 -3.3473,0.599 -1.2214,0 -2.3332,-0.1997 -3.3355,-0.599 -1.0022,-0.3993 -1.8634,-0.9709 -2.5838,-1.7147 -0.7203,-0.7439 -1.2762,-1.6247 -1.6677,-2.6426 -0.3915,-1.0179 -0.5872,-2.1375 -0.5872,-3.359zm4.3455 0c0,0.877 0.1605,1.6208 0.4815,2.2315 0.321,0.6107 0.7712,1.0727 1.3506,1.3859 0.5794,0.3132 1.245,0.4698 1.9966,0.4698 0.7673,0 1.4407,-0.1566 2.0201,-0.4698 0.5794,-0.3132 1.0335,-0.7791 1.3624,-1.3976 0.3288,-0.6186 0.4933,-1.3663 0.4933,-2.2433 0,-0.8769 -0.1645,-1.6207 -0.4933,-2.2314 -0.3289,-0.6108 -0.783,-1.0727 -1.3624,-1.3859 -0.5794,-0.3132 -1.2528,-0.4698 -2.0201,-0.4698 -0.7516,0 -1.4172,0.1605 -1.9966,0.4815 -0.5794,0.3211 -1.0296,0.7869 -1.3506,1.3977 -0.321,0.6107 -0.4815,1.3545 -0.4815,2.2314zm23.2073 7.9864l0 -14.4929 4.2986 0 0 14.4929 -4.2986 0zm-4.5334 -11.8621l0 -4.1341 13.3419 0 0 4.1341 -13.3419 0zm18.7914 11.8621l-4.2515 0 0 -15.9962 4.2515 0 0 15.9962zm4.5335 -5.9663l0 -4.0636 6.6709 0 0 4.0636 -6.6709 0zm-0.0705 -5.9663l1.7147 -1.8791 0 11.9326 -1.8321 -2.1845 8.1038 0 0 4.0636 -10.5232 0 0 -15.9962 10.5232 0 0 4.0636 -7.9864 0zm19.8954 11.9326l-7.54 -10.6641 1.5972 -0.4228 0 11.0869 -4.2515 0 0 -15.9962 3.9697 0 7.5165 10.6641 -1.5972 0.4228 0 -11.0869 4.275 0 0 15.9962 -3.9697 0zm8.5032 -5.9663l0 -4.0636 6.6709 0 0 4.0636 -6.6709 0zm-0.0705 -5.9663l1.7147 -1.8791 0 11.9326 -1.8321 -2.1845 8.1038 0 0 4.0636 -10.5232 0 0 -15.9962 10.5232 0 0 4.0636 -7.9864 0zm-138.599 26.7513l2.5368 0c0.7204,0 1.2645,-0.1644 1.6325,-0.4932 0.368,-0.3289 0.552,-0.8065 0.552,-1.4329 0,-0.642 -0.184,-1.1275 -0.552,-1.4563 -0.368,-0.3289 -0.9121,-0.4933 -1.6325,-0.4933l-2.5603 0 1.0335 -0.9161 0 12.7782 -4.2515 0 0 -15.9962 5.9193 0c1.2684,0 2.3802,0.231 3.3354,0.6929 0.9553,0.462 1.6991,1.1432 2.2315,2.0436 0.5325,0.9004 0.7987,2.0162 0.7987,3.3472 0,1.3311 -0.2662,2.4468 -0.7987,3.3472 -0.5324,0.9005 -1.2762,1.5817 -2.2315,2.0436 -0.9552,0.462 -2.067,0.6929 -3.3354,0.6929l-2.6778 0 0 -4.1576zm16.9123 8.3153c-1.5503,0 -2.8226,-0.278 -3.817,-0.8339 -0.9944,-0.5559 -1.7304,-1.3859 -2.208,-2.4899 -0.4776,-1.104 -0.7164,-2.4781 -0.7164,-4.1224l0 -8.8789 4.275 0 0 9.2783c0,0.9082 0.2036,1.6168 0.6108,2.1257 0.4071,0.509 1.0257,0.7634 1.8556,0.7634 0.83,0 1.4485,-0.2544 1.8557,-0.7634 0.4071,-0.5089 0.6107,-1.2175 0.6107,-2.1257l0 -9.2783 4.275 0 0 8.8789c0,1.6443 -0.2388,3.0184 -0.7164,4.1224 -0.4776,1.104 -1.2097,1.934 -2.1962,2.4899 -0.9866,0.5559 -2.2628,0.8339 -3.8288,0.8339zm18.8149 -0.3289l-7.54 -10.6641 1.5972 -0.4228 0 11.0869 -4.2515 0 0 -15.9962 3.9697 0 7.5165 10.6641 -1.5972 0.4228 0 -11.0869 4.275 0 0 15.9962 -3.9697 0zm9.6776 0l0 -14.4929 4.2986 0 0 14.4929 -4.2986 0zm-4.5334 -11.8621l0 -4.1341 13.3419 0 0 4.1341 -13.3419 0zm17.1472 5.8958l0 -4.0636 6.6709 0 0 4.0636 -6.6709 0zm-0.0705 -5.9663l1.7147 -1.8791 0 11.9326 -1.8321 -2.1845 8.1038 0 0 4.0636 -10.5232 0 0 -15.9962 10.5232 0 0 4.0636 -7.9864 0zm9.7011 11.9326l0 -15.9962 5.9193 0c1.1744,0 2.2432,0.2231 3.2063,0.6694 0.963,0.4463 1.7303,1.104 2.3019,1.9731 0.5716,0.8691 0.8574,1.9457 0.8574,3.2298 0,1.2841 -0.2858,2.3607 -0.8574,3.2298 -0.5716,0.8691 -1.3389,1.5229 -2.3019,1.9613 -0.9631,0.4385 -2.0319,0.6577 -3.2063,0.6577l-2.6778 0 0 -4.1341 2.5368 0c0.7204,0 1.2645,-0.1409 1.6325,-0.4228 0.368,-0.2818 0.552,-0.7125 0.552,-1.2919 0,-0.5637 -0.184,-0.9944 -0.552,-1.2919 -0.368,-0.2975 -0.9121,-0.4463 -1.6325,-0.4463l-2.5603 0 1.0335 -0.9161 0 12.7782 -4.2515 0zm7.7984 0l-3.1476 -6.3891 4.6509 0 3.1476 6.3891 -4.6509 0zm10.1943 0l-4.2515 0 0 -15.9962 4.2515 0 0 15.9962zm4.9328 -6.3186l6.6944 0 0 3.9227 -6.6944 0 0 -3.9227zm-3.8757 6.3186l5.6609 -15.9962 4.2515 0 5.1442 15.9962 -4.2751 0 -3.8287 -13.107 1.6912 0 -4.3925 13.107 -4.2515 0zm21.5632 -7.9864c0,-1.2214 0.1957,-2.3411 0.5872,-3.3589 0.3915,-1.0179 0.9474,-1.8988 1.6677,-2.6426 0.7204,-0.7438 1.5816,-1.3193 2.5838,-1.7264 1.0023,-0.4072 2.1141,-0.6108 3.3355,-0.6108 1.2215,0 2.3372,0.2036 3.3473,0.6108 1.01,0.4071 1.8791,0.9826 2.6073,1.7264 0.7281,0.7438 1.288,1.6247 1.6794,2.6426 0.3915,1.0178 0.5873,2.1375 0.5873,3.3589 0,1.2215 -0.1958,2.3411 -0.5873,3.359 -0.3914,1.0179 -0.9513,1.8987 -1.6794,2.6426 -0.7282,0.7438 -1.5973,1.3154 -2.6073,1.7147 -1.0101,0.3993 -2.1258,0.599 -3.3473,0.599 -1.2214,0 -2.3332,-0.1997 -3.3355,-0.599 -1.0022,-0.3993 -1.8634,-0.9709 -2.5838,-1.7147 -0.7203,-0.7439 -1.2762,-1.6247 -1.6677,-2.6426 -0.3915,-1.0179 -0.5872,-2.1375 -0.5872,-3.359zm4.3455 0c0,0.877 0.1605,1.6208 0.4815,2.2315 0.321,0.6107 0.7712,1.0727 1.3506,1.3859 0.5794,0.3132 1.245,0.4698 1.9966,0.4698 0.7673,0 1.4407,-0.1566 2.0201,-0.4698 0.5794,-0.3132 1.0335,-0.7791 1.3624,-1.3976 0.3288,-0.6186 0.4933,-1.3663 0.4933,-2.2433 0,-0.8769 -0.1645,-1.6207 -0.4933,-2.2314 -0.3289,-0.6108 -0.783,-1.0727 -1.3624,-1.3859 -0.5794,-0.3132 -1.2528,-0.4698 -2.0201,-0.4698 -0.7516,0 -1.4172,0.1605 -1.9966,0.4815 -0.5794,0.3211 -1.0296,0.7869 -1.3506,1.3977 -0.321,0.6107 -0.4815,1.3545 -0.4815,2.2314zm13.3184 7.9864l0 -15.9962 5.9193 0c1.1744,0 2.2432,0.2231 3.2063,0.6694 0.963,0.4463 1.7303,1.104 2.3019,1.9731 0.5716,0.8691 0.8574,1.9457 0.8574,3.2298 0,1.2841 -0.2858,2.3607 -0.8574,3.2298 -0.5716,0.8691 -1.3389,1.5229 -2.3019,1.9613 -0.9631,0.4385 -2.0319,0.6577 -3.2063,0.6577l-2.6778 0 0 -4.1341 2.5368 0c0.7204,0 1.2645,-0.1409 1.6325,-0.4228 0.368,-0.2818 0.552,-0.7125 0.552,-1.2919 0,-0.5637 -0.184,-0.9944 -0.552,-1.2919 -0.368,-0.2975 -0.9121,-0.4463 -1.6325,-0.4463l-2.5603 0 1.0335 -0.9161 0 12.7782 -4.2515 0zm7.7984 0l-3.1476 -6.3891 4.6509 0 3.1476 6.3891 -4.6509 0zm10.1943 0l-4.2515 0 0 -15.9962 4.2515 0 0 15.9962zm12.1205 0l-7.54 -10.6641 1.5972 -0.4228 0 11.0869 -4.2515 0 0 -15.9962 3.9697 0 7.5165 10.6641 -1.5972 0.4228 0 -11.0869 4.275 0 0 15.9962 -3.9697 0zm8.5032 -5.9663l0 -4.0636 6.6709 0 0 4.0636 -6.6709 0zm-0.0705 -5.9663l1.7147 -1.8791 0 11.9326 -1.8321 -2.1845 8.1038 0 0 4.0636 -10.5232 0 0 -15.9962 10.5232 0 0 4.0636 -7.9864 0zm-134.617 35.1605c-1.0022,0 -1.9143,-0.1448 -2.7365,-0.4345 -0.8221,-0.2897 -1.5503,-0.7086 -2.1845,-1.2567 -0.6342,-0.5481 -1.1627,-1.2136 -1.5855,-1.9966l3.1946 -2.0906c0.4071,0.5794 0.9356,1.0453 1.5855,1.3977 0.6499,0.3523 1.3115,0.5285 1.9848,0.5285 0.5168,0 0.9044,-0.1018 1.1627,-0.3054 0.2584,-0.2036 0.3876,-0.4541 0.3876,-0.7517 0,-0.2035 -0.0587,-0.3836 -0.1761,-0.5402 -0.1175,-0.1566 -0.3485,-0.3093 -0.693,-0.4581 -0.3445,-0.1487 -0.8456,-0.2936 -1.5033,-0.4345 -1.378,-0.3132 -2.4742,-0.7086 -3.2885,-1.1862 -0.8143,-0.4776 -1.3937,-1.057 -1.7382,-1.7382 -0.3445,-0.6812 -0.5168,-1.4603 -0.5168,-2.3372 0,-0.9709 0.2506,-1.8517 0.7517,-2.6426 0.5011,-0.7908 1.2175,-1.4211 2.1493,-1.8908 0.9317,-0.4698 2.0396,-0.7047 3.3237,-0.7047 1.4407,0 2.6699,0.2858 3.6878,0.8573 1.0179,0.5716 1.8009,1.3037 2.3489,2.1963l-3.1945 2.3019c-0.3602,-0.4854 -0.8417,-0.8338 -1.4446,-1.0452 -0.6029,-0.2114 -1.1784,-0.3171 -1.7265,-0.3171 -0.4854,0 -0.873,0.09 -1.1627,0.2701 -0.2897,0.1801 -0.4345,0.4267 -0.4345,0.7399 0,0.3132 0.1605,0.5637 0.4815,0.7517 0.321,0.1879 0.9591,0.3914 1.9144,0.6107 1.3154,0.2975 2.392,0.6773 3.2298,1.1392 0.8377,0.462 1.4563,1.0335 1.8556,1.7147 0.3993,0.6812 0.599,1.5151 0.599,2.5016 0,0.9866 -0.2506,1.8674 -0.7517,2.6426 -0.5011,0.7751 -1.2214,1.3819 -2.161,1.8204 -0.9396,0.4385 -2.0592,0.6577 -3.359,0.6577zm10.2649 -6.3891l0 -4.0636 6.6709 0 0 4.0636 -6.6709 0zm-0.0705 -5.9663l1.7147 -1.8791 0 11.9326 -1.8321 -2.1845 8.1038 0 0 4.0636 -10.5232 0 0 -15.9962 10.5232 0 0 4.0636 -7.9864 0zm19.8954 11.9326l-7.54 -10.6641 1.5972 -0.4228 0 11.0869 -4.2515 0 0 -15.9962 3.9697 0 7.5165 10.6641 -1.5972 0.4228 0 -11.0869 4.275 0 0 15.9962 -3.9697 0zm9.6776 0l0 -14.4929 4.2986 0 0 14.4929 -4.2986 0zm-4.5334 -11.8621l0 -4.1341 13.3419 0 0 4.1341 -13.3419 0zm17.5465 5.5435l6.6944 0 0 3.9227 -6.6944 0 0 -3.9227zm-3.8757 6.3186l5.6609 -15.9962 4.2515 0 5.1442 15.9962 -4.2751 0 -3.8287 -13.107 1.6912 0 -4.3925 13.107 -4.2515 0zm16.0902 0l0 -15.9962 5.8488 0c1.7382,0 3.2063,0.3171 4.4042,0.9513 1.198,0.6342 2.1102,1.5464 2.7365,2.7365 0.6264,1.1901 0.9396,2.623 0.9396,4.2985 0,1.6756 -0.3132,3.1124 -0.9396,4.3103 -0.6263,1.198 -1.5424,2.1141 -2.7482,2.7483 -1.2058,0.6342 -2.6778,0.9513 -4.416,0.9513l-5.8253 0zm4.2515 -2.255l-1.8556 -1.8791 3.1006 0c0.8769,0 1.6168,-0.1292 2.2197,-0.3876 0.6029,-0.2584 1.0648,-0.6734 1.3859,-1.2449 0.321,-0.5716 0.4815,-1.3193 0.4815,-2.2433 0,-0.9239 -0.1566,-1.6677 -0.4698,-2.2314 -0.3132,-0.5638 -0.7712,-0.9748 -1.3741,-1.2332 -0.6029,-0.2584 -1.3428,-0.3876 -2.2198,-0.3876l-3.2885 0 2.0201 -1.104 0 10.7111zm15.1976 2.255l-4.2515 0 0 -15.9962 4.2515 0 0 15.9962zm5.7079 0l0 -14.4929 4.2986 0 0 14.4929 -4.2986 0zm-4.5334 -11.8621l0 -4.1341 13.3419 0 0 4.1341 -13.3419 0zm13.9057 3.8757c0,-1.2214 0.1957,-2.3411 0.5872,-3.3589 0.3915,-1.0179 0.9474,-1.8988 1.6677,-2.6426 0.7204,-0.7438 1.5816,-1.3193 2.5838,-1.7264 1.0023,-0.4072 2.1141,-0.6108 3.3355,-0.6108 1.2215,0 2.3372,0.2036 3.3473,0.6108 1.01,0.4071 1.8791,0.9826 2.6073,1.7264 0.7281,0.7438 1.288,1.6247 1.6794,2.6426 0.3915,1.0178 0.5873,2.1375 0.5873,3.3589 0,1.2215 -0.1958,2.3411 -0.5873,3.359 -0.3914,1.0179 -0.9513,1.8987 -1.6794,2.6426 -0.7282,0.7438 -1.5973,1.3154 -2.6073,1.7147 -1.0101,0.3993 -2.1258,0.599 -3.3473,0.599 -1.2214,0 -2.3332,-0.1997 -3.3355,-0.599 -1.0022,-0.3993 -1.8634,-0.9709 -2.5838,-1.7147 -0.7203,-0.7439 -1.2762,-1.6247 -1.6677,-2.6426 -0.3915,-1.0179 -0.5872,-2.1375 -0.5872,-3.359zm4.3455 0c0,0.877 0.1605,1.6208 0.4815,2.2315 0.321,0.6107 0.7712,1.0727 1.3506,1.3859 0.5794,0.3132 1.245,0.4698 1.9966,0.4698 0.7673,0 1.4407,-0.1566 2.0201,-0.4698 0.5794,-0.3132 1.0335,-0.7791 1.3624,-1.3976 0.3288,-0.6186 0.4933,-1.3663 0.4933,-2.2433 0,-0.8769 -0.1645,-1.6207 -0.4933,-2.2314 -0.3289,-0.6108 -0.783,-1.0727 -1.3624,-1.3859 -0.5794,-0.3132 -1.2528,-0.4698 -2.0201,-0.4698 -0.7516,0 -1.4172,0.1605 -1.9966,0.4815 -0.5794,0.3211 -1.0296,0.7869 -1.3506,1.3977 -0.321,0.6107 -0.4815,1.3545 -0.4815,2.2314z"/>
   <path id="_496276720" class="fil3" d="M29.9772 106.579c-1.7982,-19.1489 12.4988,-36.8773 31.7891,-38.5525 19.3457,-1.68 36.8454,12.2952 38.5405,31.8305 1.666,19.2011 -12.4196,36.7753 -31.8096,38.4622 -19.3551,1.6839 -36.6921,-12.2752 -38.52,-31.7402zm75.3195 -0.5631c1.6324,-21.9562 -15.0556,-41.4616 -37.0612,-43.0291 -22.0176,-1.5683 -41.8526,14.8507 -43.3267,37.1116 -1.4735,22.2507 14.8461,41.6519 37.1942,43.2552 22.3802,1.6056 41.5331,-15.003 43.1937,-37.3377z"/>
   <path id="_496277440" class="fil4" d="M70.6169 99.3761c0.2885,0.0927 6.2696,5.8287 6.615,6.3063l-7.2989 -0.2819 0.6839 -6.0244zm9.3563 6.3537c1.0287,-1.1993 2.3039,-1.4667 2.0366,-3.6122 -0.156,-1.2513 -1.6491,-2.2286 -2.5344,-3.1242 -1.738,-1.7581 -3.8458,-3.9332 -5.4578,-5.8035 -1.3696,-1.589 -3.6919,-5.0361 -5.4671,-5.8117 -2.712,-1.1847 -6.3299,0.0575 -7.3889,2.8447 -0.8829,2.3236 -2.8874,17.7122 -2.2316,19.7455 1.0531,3.2663 5.334,2.8629 8.1633,2.9569 3.6401,0.1209 7.4221,-0.0128 11.0838,-0.0125l-4.9649 13.5696c-0.925,2.4117 -1.3832,4.8886 1.868,5.6342 3.0913,0.7089 4.2725,-1.164 5.2075,-3.6294 1.6152,-4.2586 3.5017,-8.8102 4.8809,-13.1339 2.0349,-6.3797 3.8611,-9.9232 -5.1954,-9.6235z"/>
   <path id="_496277008" class="fil4" d="M142.908 115.774c0.4188,5.2027 0.04,7.6685 5.1422,10.3925 2.0572,1.0983 4.3745,1.127 5.71,1.8917l2.519 5.3685 11.1006 0.1795 0.3126 -17.3553 3.1866 -0.292 -0.0481 -2.9902c-1.7327,-0.4131 -22.1707,-0.6527 -24.8634,-0.5072 -1.4029,0.5237 -2.3366,2.0897 -3.6897,2.8185l0.6302 0.494z"/>
   <path id="_496277176" class="fil4" d="M69.3357 126.274c1.5957,-1.143 2.7487,-2.6389 3.1461,-4.7047l0.2302 -2.8301c0.2869,-0.8344 1.8401,-0.7104 0.744,-3.5311l-25.8082 -0.3069 -0.0411 2.746 2.6733 0.1149 0.3308 15.1033 9.8402 0.0251 8.8847 -6.6165z"/>
   <path id="_496276696" class="fil4" d="M132.399 115.971c1.1239,-0.3808 2.2252,-1.6725 3.2101,-2.5745 0.8723,-0.7988 2.3995,-1.753 2.756,-2.8326 0.202,-3.0579 0.5612,-1.7716 2.1925,-3.4772 1.0581,-1.1061 0.514,-2.7863 -0.3409,-3.7779 -1.6691,-1.9364 -2.2378,-0.4733 -0.5085,-8.3556 0.6012,-2.7405 1.5486,-7.0679 1.2299,-9.7868 -0.4104,-3.5019 -3.6886,-4.7543 -5.7572,-1.4811 -1.3998,2.2153 -2.744,4.6658 -4.0357,6.9533 -1.4017,2.4822 -3.7081,4.9661 -2.8378,7.9579 0.7958,2.7365 3.1394,3.0009 3.8431,7.1561 0.6527,3.8527 0.3404,6.3753 0.2485,10.2184z"/>
   <path id="_496276384" class="fil4" d="M66.8231 72.6757c-8.1186,1.9038 -5.1786,14.2429 2.977,12.0856 7.6808,-2.0315 5.2304,-14.0102 -2.977,-12.0856z"/>
   <path id="_496276648" class="fil4" d="M132.206 124.382l-0.0178 7.4852 0.201 0.6215 9.5843 0.0881c1.2045,-0.7763 1.1907,-2.0801 -0.095,-2.7615 -1.136,-0.602 -2.4563,-0.582 -3.4374,-1.5258l-0.0661 -9.4892 -6.169 5.5817z"/>
   <path id="_496276672" class="fil4" d="M140.946 71.0304c-6.6808,1.7785 -3.8276,12.0207 2.4896,9.9418 6.1986,-2.0399 3.6055,-11.5642 -2.4896,-9.9418z"/>
   <path id="_496275952" class="fil4" d="M167.654 109.843c0.7883,0.3969 2.3907,0.4027 3.0678,0.0597 0.5596,-1.6953 0.1457,-16.2155 0.2284,-19.3416 -0.6193,0.1456 -2.7501,1.8585 -3.1133,2.4284 -0.7724,1.2121 -0.3348,3.8613 -0.3377,5.423 -0.0043,2.383 -0.2953,9.6177 0.1548,11.4305z"/>
   <path id="_496276144" class="fil4" d="M47.6928 112.425c1.1615,0.0837 2.0533,0.2378 2.9619,-0.2437l0.0808 -17.4092 -2.8854 0.0362 -0.1573 17.6167z"/>
   <path id="_496276552" class="fil4" d="M150.822 108.509c0.6333,1.0625 1.4975,3.0366 2.8031,2.6463 0.5813,-1.2907 -0.9653,-2.6964 -1.8263,-3.7306l-0.9768 1.0843z"/>
   <path id="_496275736" class="fil4" d="M144.287 104.978l1.0654 -0.1437 0.6752 -1.1158c-0.9083,-0.1658 -2.2297,-0.4993 -3.1502,-0.2946 -1.0054,0.2239 -0.1466,0.0055 -0.6182,0.3415l-0.0397 0.8289 2.0675 0.3837z"/>
   <path id="_496275160" class="fil5 str2" d="M121.061 126.668l53.3226 -46.3157c-7.2616,-7.8147 -18.0176,-12.2609 -29.4159,-11.271 -19.2903,1.6752 -33.5873,19.4036 -31.7891,38.5526 0.6852,7.2963 3.5495,13.819 7.8824,19.0341zm56.3854 -42.5196l-53.013 46.0467c7.1339,6.5018 16.9101,10.0798 27.2652,9.1789 19.39,-1.6869 33.4757,-19.2611 31.8096,-38.4622 -0.5444,-6.2731 -2.7199,-11.9716 -6.0618,-16.7634zm11.0517 22.9223c1.6324,-21.9562 -15.0555,-41.4616 -37.0612,-43.0291 -22.0176,-1.5683 -41.8526,14.8507 -43.3267,37.1115 -1.4735,22.2508 14.846,41.652 37.1942,43.2553 22.3802,1.6056 41.5332,-15.0031 43.1937,-37.3377z"/>
  </g>
 </g>
</svg>
