<?xml version="1.0" encoding="UTF-8"?>
<!DOCTYPE svg PUBLIC "-//W3C//DTD SVG 1.1//EN" "http://www.w3.org/Graphics/SVG/1.1/DTD/svg11.dtd">
<!-- Creator: CorelDRAW -->
<svg xmlns="http://www.w3.org/2000/svg" xml:space="preserve" width="215.9mm" height="279.4mm" style="shape-rendering:geometricPrecision; text-rendering:geometricPrecision; image-rendering:optimizeQuality; fill-rule:evenodd; clip-rule:evenodd"
viewBox="0 0 215.9 279.4"
 xmlns:xlink="http://www.w3.org/1999/xlink">
 <defs>
  <style type="text/css">
   <![CDATA[
    .str0 {stroke:black;stroke-width:4}
    .fil3 {fill:#28156F}
    .fil1 {fill:white}
    .fil2 {fill:black;fill-rule:nonzero}
    .fil0 {fill:#E6E6E6;fill-opacity:0.160784}
   ]]>
  </style>
 </defs>
 <g id="Capa_x0020_1">
  <metadata id="CorelCorpID_0Corel-Layer"/>
  <g id="_460034488">
   <polygon id="_460035304" class="fil0" points="215.9,0 -0,0 -0,279.4 215.9,279.4 "/>
   <rect id="_460035040" class="fil1 str0" x="7.95" y="10.2882" width="200" height="258.824" rx="8.4684" ry="8.4684"/>
   <path id="_460034272" class="fil2" d="M37.6697 211.217c-0.8581,0 -1.6391,-0.124 -2.3431,-0.3721 -0.7039,-0.248 -1.3274,-0.6067 -1.8704,-1.076 -0.543,-0.4692 -0.9956,-1.0391 -1.3576,-1.7095l2.7353 -1.79c0.3486,0.4961 0.8011,0.895 1.3576,1.1967 0.5564,0.3017 1.1229,0.4525 1.6994,0.4525 0.4425,0 0.7744,-0.0871 0.9956,-0.2614 0.2212,-0.1743 0.3318,-0.3889 0.3318,-0.6436 0,-0.1743 -0.0502,-0.3285 -0.1508,-0.4626 -0.1006,-0.1341 -0.2983,-0.2648 -0.5933,-0.3922 -0.295,-0.1274 -0.7241,-0.2514 -1.2872,-0.3721 -1.1799,-0.2681 -2.1185,-0.6067 -2.8157,-1.0156 -0.6972,-0.409 -1.1933,-0.9051 -1.4883,-1.4883 -0.295,-0.5833 -0.4425,-1.2504 -0.4425,-2.0012 0,-0.8313 0.2146,-1.5855 0.6436,-2.2626 0.4291,-0.6771 1.0425,-1.2168 1.8403,-1.6191 0.7978,-0.4022 1.7464,-0.6033 2.8459,-0.6033 1.2335,0 2.286,0.2447 3.1576,0.7341 0.8715,0.4894 1.5419,1.1162 2.0112,1.8805l-2.7353 1.971c-0.3084,-0.4157 -0.7207,-0.714 -1.2369,-0.895 -0.5162,-0.181 -1.0089,-0.2716 -1.4782,-0.2716 -0.4157,0 -0.7475,0.0771 -0.9956,0.2313 -0.248,0.1542 -0.372,0.3654 -0.372,0.6336 0,0.2681 0.1374,0.4827 0.4123,0.6436 0.2748,0.1609 0.8212,0.3352 1.6391,0.5229 1.1263,0.2547 2.0481,0.5799 2.7654,0.9754 0.7174,0.3956 1.247,0.885 1.5889,1.4682 0.3419,0.5833 0.5129,1.2972 0.5129,2.142 0,0.8447 -0.2146,1.5989 -0.6436,2.2626 -0.4291,0.6637 -1.0459,1.1833 -1.8504,1.5587 -0.8044,0.3754 -1.7631,0.5631 -2.876,0.5631zm10.1969 -0.362l-3.6403 0 0 -13.6964 3.6403 0 0 13.6964zm10.6193 0l-4.4851 -13.6964 3.7409 0 3.5599 11.2226 -1.7297 0 3.58 -11.2226 3.6403 0 -4.485 13.6964 -3.8213 0zm11.7858 -5.4102l5.7319 0 0 3.3588 -5.7319 0 0 -3.3588zm-3.3186 5.4102l4.8471 -13.6964 3.6403 0 4.4046 13.6964 -3.6605 0 -3.2782 -11.2226 1.448 0 -3.7609 11.2226 -3.6404 0zm18.8854 0.362c-0.8581,0 -1.6391,-0.124 -2.3431,-0.3721 -0.7039,-0.248 -1.3274,-0.6067 -1.8704,-1.076 -0.543,-0.4692 -0.9956,-1.0391 -1.3576,-1.7095l2.7353 -1.79c0.3486,0.4961 0.8011,0.895 1.3576,1.1967 0.5564,0.3017 1.1229,0.4525 1.6994,0.4525 0.4425,0 0.7744,-0.0871 0.9956,-0.2614 0.2212,-0.1743 0.3318,-0.3889 0.3318,-0.6436 0,-0.1743 -0.0502,-0.3285 -0.1508,-0.4626 -0.1006,-0.1341 -0.2983,-0.2648 -0.5933,-0.3922 -0.295,-0.1274 -0.7241,-0.2514 -1.2872,-0.3721 -1.1799,-0.2681 -2.1185,-0.6067 -2.8157,-1.0156 -0.6972,-0.409 -1.1933,-0.9051 -1.4883,-1.4883 -0.295,-0.5833 -0.4425,-1.2504 -0.4425,-2.0012 0,-0.8313 0.2146,-1.5855 0.6436,-2.2626 0.4291,-0.6771 1.0425,-1.2168 1.8403,-1.6191 0.7978,-0.4022 1.7464,-0.6033 2.8459,-0.6033 1.2335,0 2.286,0.2447 3.1576,0.7341 0.8715,0.4894 1.5419,1.1162 2.0112,1.8805l-2.7353 1.971c-0.3084,-0.4157 -0.7207,-0.714 -1.2369,-0.895 -0.5162,-0.181 -1.0089,-0.2716 -1.4782,-0.2716 -0.4157,0 -0.7475,0.0771 -0.9956,0.2313 -0.248,0.1542 -0.372,0.3654 -0.372,0.6336 0,0.2681 0.1374,0.4827 0.4123,0.6436 0.2748,0.1609 0.8212,0.3352 1.6391,0.5229 1.1263,0.2547 2.0481,0.5799 2.7654,0.9754 0.7174,0.3956 1.247,0.885 1.5889,1.4682 0.3419,0.5833 0.5129,1.2972 0.5129,2.142 0,0.8447 -0.2146,1.5989 -0.6436,2.2626 -0.4291,0.6637 -1.0459,1.1833 -1.8504,1.5587 -0.8044,0.3754 -1.7631,0.5631 -2.876,0.5631zm14.3602 -5.7722l5.7319 0 0 3.3588 -5.7319 0 0 -3.3588zm-3.3186 5.4102l4.8471 -13.6964 3.6403 0 4.4046 13.6964 -3.6605 0 -3.2782 -11.2226 1.448 0 -3.7609 11.2226 -3.6404 0zm18.4631 -6.8381c0,-1.0459 0.1676,-2.0046 0.5028,-2.8761 0.3352,-0.8715 0.8112,-1.6257 1.4279,-2.2626 0.6168,-0.6369 1.3543,-1.1297 2.2124,-1.4783 0.8581,-0.3486 1.8101,-0.5229 2.8559,-0.5229 1.0459,0 2.0012,0.1743 2.866,0.5229 0.8648,0.3486 1.609,0.8414 2.2325,1.4783 0.6234,0.6369 1.1028,1.3911 1.438,2.2626 0.3352,0.8715 0.5028,1.8302 0.5028,2.8761 0,1.0458 -0.1676,2.0045 -0.5028,2.876 -0.3352,0.8715 -0.8146,1.6257 -1.438,2.2626 -0.6235,0.6369 -1.3677,1.1263 -2.2325,1.4682 -0.8648,0.3419 -1.8201,0.5129 -2.866,0.5129 -1.0458,0 -1.9978,-0.171 -2.8559,-0.5129 -0.8581,-0.3419 -1.5956,-0.8313 -2.2124,-1.4682 -0.6167,-0.6369 -1.0927,-1.3911 -1.4279,-2.2626 -0.3352,-0.8715 -0.5028,-1.8302 -0.5028,-2.876zm3.7207 0c0,0.7508 0.1375,1.3877 0.4123,1.9106 0.2749,0.5229 0.6604,0.9185 1.1565,1.1866 0.4961,0.2682 1.0659,0.4023 1.7095,0.4023 0.657,0 1.2336,-0.1341 1.7297,-0.4023 0.4961,-0.2681 0.8849,-0.667 1.1665,-1.1966 0.2815,-0.5297 0.4223,-1.1699 0.4223,-1.9208 0,-0.7508 -0.1408,-1.3877 -0.4223,-1.9106 -0.2816,-0.5229 -0.6704,-0.9185 -1.1665,-1.1866 -0.4961,-0.2682 -1.0727,-0.4023 -1.7297,-0.4023 -0.6436,0 -1.2134,0.1375 -1.7095,0.4123 -0.4961,0.2749 -0.8816,0.6738 -1.1565,1.1967 -0.2748,0.5229 -0.4123,1.1598 -0.4123,1.9107zm11.4036 6.8381l0 -13.6964 5.0683 0c1.0056,0 1.9207,0.1911 2.7453,0.5732 0.8246,0.3821 1.4816,0.9453 1.971,1.6894 0.4894,0.7442 0.7341,1.666 0.7341,2.7654 0,1.0995 -0.2447,2.0213 -0.7341,2.7655 -0.4894,0.7441 -1.1464,1.3039 -1.971,1.6793 -0.8246,0.3755 -1.7397,0.5632 -2.7453,0.5632l-2.2928 0 0 -3.5398 2.1721 0c0.6168,0 1.0827,-0.1206 1.3978,-0.362 0.3151,-0.2413 0.4726,-0.6101 0.4726,-1.1062 0,-0.4827 -0.1575,-0.8514 -0.4726,-1.1061 -0.3151,-0.2548 -0.781,-0.3822 -1.3978,-0.3822l-2.1922 0 0.8849 -0.7843 0 10.941 -3.6403 0zm6.6773 0l-2.6951 -5.4705 3.9822 0 2.6951 5.4705 -3.9822 0zm8.7286 0l-3.6403 0 0 -13.6964 3.6403 0 0 13.6964zm10.3779 0l-6.456 -9.1309 1.3676 -0.3621 0 9.493 -3.6403 0 0 -13.6964 3.399 0 6.4359 9.1309 -1.3677 0.3621 0 -9.493 3.6605 0 0 13.6964 -3.399 0zm7.6226 -5.4102l5.7319 0 0 3.3588 -5.7319 0 0 -3.3588zm-3.3186 5.4102l4.8471 -13.6964 3.6403 0 4.4046 13.6964 -3.6605 0 -3.2782 -11.2226 1.448 0 -3.7609 11.2226 -3.6404 0zm13.7769 0l0 -13.6964 5.0683 0c1.0056,0 1.9207,0.1911 2.7453,0.5732 0.8246,0.3821 1.4816,0.9453 1.971,1.6894 0.4894,0.7442 0.7341,1.666 0.7341,2.7654 0,1.0995 -0.2447,2.0213 -0.7341,2.7655 -0.4894,0.7441 -1.1464,1.3039 -1.971,1.6793 -0.8246,0.3755 -1.7397,0.5632 -2.7453,0.5632l-2.2928 0 0 -3.5398 2.1721 0c0.6168,0 1.0827,-0.1206 1.3978,-0.362 0.3151,-0.2413 0.4726,-0.6101 0.4726,-1.1062 0,-0.4827 -0.1575,-0.8514 -0.4726,-1.1061 -0.3151,-0.2548 -0.781,-0.3822 -1.3978,-0.3822l-2.1922 0 0.8849 -0.7843 0 10.941 -3.6403 0zm6.6773 0l-2.6951 -5.4705 3.9822 0 2.6951 5.4705 -3.9822 0zm-113.966 14.4179l0 -3.4794 5.7118 0 0 3.4794 -5.7118 0zm-0.0604 -5.1085l1.4682 -1.609 0 10.217 -1.5687 -1.8704 6.9387 0 0 3.4794 -9.0103 0 0 -13.6964 9.0103 0 0 3.4794 -6.8382 0zm17.0351 10.217l-6.456 -9.1309 1.3676 -0.3621 0 9.493 -3.6403 0 0 -13.6964 3.399 0 6.4359 9.1309 -1.3677 0.3621 0 -9.493 3.6605 0 0 13.6964 -3.399 0zm12.5099 -5.1085l0 -3.4794 5.7118 0 0 3.4794 -5.7118 0zm-0.0604 -5.1085l1.4682 -1.609 0 10.217 -1.5687 -1.8704 6.9387 0 0 3.4794 -9.0103 0 0 -13.6964 9.0103 0 0 3.4794 -6.8382 0zm16.9546 10.217l-8.6482 0 0 -13.6964 3.6403 0 0 11.8662 -1.1263 -1.7095 6.1342 0 0 3.5397zm18.0408 0l-3.4191 -11.5243 -0.6436 -2.1721 3.4593 0 3.4995 11.6047 -1.8302 0 2.9565 -11.6047 3.6805 0 -3.8012 13.6964 -3.9017 0zm-8.5678 0l-3.8013 -13.6964 3.6806 0 2.9565 11.6047 -1.8302 0 3.4995 -11.6047 3.4593 0 -0.6235 2.1721 -3.4392 11.5243 -3.9017 0zm23.6318 0.2816c-1.4481,0 -2.695,-0.3017 -3.7409,-0.9051 -1.0458,-0.6033 -1.8503,-1.438 -2.4134,-2.5039 -0.5632,-1.066 -0.8447,-2.3029 -0.8447,-3.7107 0,-1.0459 0.1676,-2.0046 0.5028,-2.8761 0.3352,-0.8715 0.8112,-1.6257 1.4279,-2.2626 0.6168,-0.6369 1.3543,-1.1263 2.2124,-1.4682 0.8581,-0.3419 1.8101,-0.5129 2.8559,-0.5129 1.6358,0 2.99,0.3721 4.0627,1.1163 1.0726,0.7441 1.8503,1.8469 2.333,3.3084l-3.218 1.3676c-0.3083,-0.724 -0.7173,-1.2804 -1.2268,-1.6693 -0.5095,-0.3888 -1.1598,-0.5832 -1.9509,-0.5832 -0.6436,0 -1.2134,0.1408 -1.7095,0.4223 -0.4961,0.2816 -0.8816,0.6906 -1.1565,1.2269 -0.2748,0.5363 -0.4123,1.1799 -0.4123,1.9308 0,0.7508 0.1375,1.3944 0.4123,1.9307 0.2749,0.5363 0.6604,0.9419 1.1565,1.2168 0.4961,0.2749 1.0659,0.4123 1.7095,0.4123 0.7911,0 1.4414,-0.1911 1.9509,-0.5732 0.5095,-0.3821 0.9185,-0.9352 1.2268,-1.6592l3.218 1.3676c-0.4827,1.4615 -1.2604,2.5643 -2.333,3.3084 -1.0727,0.7442 -2.4269,1.1163 -4.0627,1.1163zm-128.688 13.8346l5.7319 0 0 3.3588 -5.7319 0 0 -3.3588zm-3.3186 5.4102l4.8471 -13.6964 3.6403 0 4.4046 13.6964 -3.6605 0 -3.2782 -11.2226 1.448 0 -3.7609 11.2226 -3.6404 0zm17.015 0l0 -12.4092 3.6805 0 0 12.4092 -3.6805 0zm-3.8817 -10.1567l0 -3.5397 11.4237 0 0 3.5397 -11.4237 0zm16.0898 10.1567l-3.6403 0 0 -13.6964 3.6403 0 0 13.6964zm10.3779 0l-6.456 -9.1309 1.3676 -0.3621 0 9.493 -3.6403 0 0 -13.6964 3.399 0 6.4359 9.1309 -1.3677 0.3621 0 -9.493 3.6605 0 0 13.6964 -3.399 0zm7.6226 -5.4102l5.7319 0 0 3.3588 -5.7319 0 0 -3.3588zm-3.3186 5.4102l4.8471 -13.6964 3.6403 0 4.4046 13.6964 -3.6605 0 -3.2782 -11.2226 1.448 0 -3.7609 11.2226 -3.6404 0zm22.4251 0l-8.6482 0 0 -13.6964 3.6403 0 0 11.8662 -1.1263 -1.7095 6.1342 0 0 3.5397zm3.4192 -5.1085l0 -3.4794 5.7118 0 0 3.4794 -5.7118 0zm-0.0604 -5.1085l1.4682 -1.609 0 10.217 -1.5687 -1.8704 6.9387 0 0 3.4794 -9.0103 0 0 -13.6964 9.0103 0 0 3.4794 -6.8382 0zm16.3111 3.3789l2.1721 0c0.6168,0 1.0827,-0.1408 1.3978,-0.4224 0.3151,-0.2816 0.4726,-0.6905 0.4726,-1.2268 0,-0.5498 -0.1575,-0.9654 -0.4726,-1.247 -0.3151,-0.2816 -0.781,-0.4224 -1.3978,-0.4224l-2.1922 0 0.8849 -0.7843 0 10.941 -3.6403 0 0 -13.6964 5.0683 0c1.086,0 2.038,0.1978 2.8559,0.5933 0.8179,0.3955 1.4548,0.9788 1.9107,1.7498 0.4558,0.7709 0.6838,1.7263 0.6838,2.866 0,1.1396 -0.228,2.095 -0.6838,2.8659 -0.4559,0.771 -1.0928,1.3543 -1.9107,1.7498 -0.8179,0.3955 -1.7699,0.5933 -2.8559,0.5933l-2.2928 0 0 -3.5598zm8.2058 0c0,-1.0459 0.1676,-2.0046 0.5028,-2.8761 0.3352,-0.8715 0.8112,-1.6257 1.4279,-2.2626 0.6168,-0.6369 1.3543,-1.1297 2.2124,-1.4783 0.8581,-0.3486 1.8101,-0.5229 2.8559,-0.5229 1.0459,0 2.0012,0.1743 2.866,0.5229 0.8648,0.3486 1.609,0.8414 2.2325,1.4783 0.6234,0.6369 1.1028,1.3911 1.438,2.2626 0.3352,0.8715 0.5028,1.8302 0.5028,2.8761 0,1.0458 -0.1676,2.0045 -0.5028,2.876 -0.3352,0.8715 -0.8146,1.6257 -1.438,2.2626 -0.6235,0.6369 -1.3677,1.1263 -2.2325,1.4682 -0.8648,0.3419 -1.8201,0.5129 -2.866,0.5129 -1.0458,0 -1.9978,-0.171 -2.8559,-0.5129 -0.8581,-0.3419 -1.5956,-0.8313 -2.2124,-1.4682 -0.6167,-0.6369 -1.0927,-1.3911 -1.4279,-2.2626 -0.3352,-0.8715 -0.5028,-1.8302 -0.5028,-2.876zm3.7207 0c0,0.7508 0.1375,1.3877 0.4123,1.9106 0.2749,0.5229 0.6604,0.9185 1.1565,1.1866 0.4961,0.2682 1.0659,0.4023 1.7095,0.4023 0.657,0 1.2336,-0.1341 1.7297,-0.4023 0.4961,-0.2681 0.8849,-0.667 1.1665,-1.1966 0.2815,-0.5297 0.4223,-1.1699 0.4223,-1.9208 0,-0.7508 -0.1408,-1.3877 -0.4223,-1.9106 -0.2816,-0.5229 -0.6704,-0.9185 -1.1665,-1.1866 -0.4961,-0.2682 -1.0727,-0.4023 -1.7297,-0.4023 -0.6436,0 -1.2134,0.1375 -1.7095,0.4123 -0.4961,0.2749 -0.8816,0.6738 -1.1565,1.1967 -0.2748,0.5229 -0.4123,1.1598 -0.4123,1.9107zm11.4036 6.8381l0 -13.6964 5.0683 0c1.0056,0 1.9207,0.1911 2.7453,0.5732 0.8246,0.3821 1.4816,0.9453 1.971,1.6894 0.4894,0.7442 0.7341,1.666 0.7341,2.7654 0,1.0995 -0.2447,2.0213 -0.7341,2.7655 -0.4894,0.7441 -1.1464,1.3039 -1.971,1.6793 -0.8246,0.3755 -1.7397,0.5632 -2.7453,0.5632l-2.2928 0 0 -3.5398 2.1721 0c0.6168,0 1.0827,-0.1206 1.3978,-0.362 0.3151,-0.2413 0.4726,-0.6101 0.4726,-1.1062 0,-0.4827 -0.1575,-0.8514 -0.4726,-1.1061 -0.3151,-0.2548 -0.781,-0.3822 -1.3978,-0.3822l-2.1922 0 0.8849 -0.7843 0 10.941 -3.6403 0zm6.6773 0l-2.6951 -5.4705 3.9822 0 2.6951 5.4705 -3.9822 0zm12.731 -4.6057l0 -3.5397 5.7118 0 0 3.5397 -5.7118 0zm1.2268 4.6057l-3.6403 0 0 -13.6964 9.0103 0 0 3.5397 -6.8382 0 1.4682 -1.6693 0 11.826zm9.1511 -5.4102l5.7319 0 0 3.3588 -5.7319 0 0 -3.3588zm-3.3186 5.4102l4.8471 -13.6964 3.6403 0 4.4046 13.6964 -3.6605 0 -3.2782 -11.2226 1.448 0 -3.7609 11.2226 -3.6404 0zm17.5178 0l-4.4851 -13.6964 3.7409 0 3.5599 11.2226 -1.7297 0 3.58 -11.2226 3.6403 0 -4.485 13.6964 -3.8213 0zm8.6684 -6.8381c0,-1.0459 0.1676,-2.0046 0.5028,-2.8761 0.3352,-0.8715 0.8112,-1.6257 1.4279,-2.2626 0.6168,-0.6369 1.3543,-1.1297 2.2124,-1.4783 0.8581,-0.3486 1.8101,-0.5229 2.8559,-0.5229 1.0459,0 2.0012,0.1743 2.866,0.5229 0.8648,0.3486 1.609,0.8414 2.2325,1.4783 0.6234,0.6369 1.1028,1.3911 1.438,2.2626 0.3352,0.8715 0.5028,1.8302 0.5028,2.8761 0,1.0458 -0.1676,2.0045 -0.5028,2.876 -0.3352,0.8715 -0.8146,1.6257 -1.438,2.2626 -0.6235,0.6369 -1.3677,1.1263 -2.2325,1.4682 -0.8648,0.3419 -1.8201,0.5129 -2.866,0.5129 -1.0458,0 -1.9978,-0.171 -2.8559,-0.5129 -0.8581,-0.3419 -1.5956,-0.8313 -2.2124,-1.4682 -0.6167,-0.6369 -1.0927,-1.3911 -1.4279,-2.2626 -0.3352,-0.8715 -0.5028,-1.8302 -0.5028,-2.876zm3.7207 0c0,0.7508 0.1375,1.3877 0.4123,1.9106 0.2749,0.5229 0.6604,0.9185 1.1565,1.1866 0.4961,0.2682 1.0659,0.4023 1.7095,0.4023 0.657,0 1.2336,-0.1341 1.7297,-0.4023 0.4961,-0.2681 0.8849,-0.667 1.1665,-1.1966 0.2815,-0.5297 0.4223,-1.1699 0.4223,-1.9208 0,-0.7508 -0.1408,-1.3877 -0.4223,-1.9106 -0.2816,-0.5229 -0.6704,-0.9185 -1.1665,-1.1866 -0.4961,-0.2682 -1.0727,-0.4023 -1.7297,-0.4023 -0.6436,0 -1.2134,0.1375 -1.7095,0.4123 -0.4961,0.2749 -0.8816,0.6738 -1.1565,1.1967 -0.2748,0.5229 -0.4123,1.1598 -0.4123,1.9107zm11.4036 6.8381l0 -13.6964 5.0683 0c1.0056,0 1.9207,0.1911 2.7453,0.5732 0.8246,0.3821 1.4816,0.9453 1.971,1.6894 0.4894,0.7442 0.7341,1.666 0.7341,2.7654 0,1.0995 -0.2447,2.0213 -0.7341,2.7655 -0.4894,0.7441 -1.1464,1.3039 -1.971,1.6793 -0.8246,0.3755 -1.7397,0.5632 -2.7453,0.5632l-2.2928 0 0 -3.5398 2.1721 0c0.6168,0 1.0827,-0.1206 1.3978,-0.362 0.3151,-0.2413 0.4726,-0.6101 0.4726,-1.1062 0,-0.4827 -0.1575,-0.8514 -0.4726,-1.1061 -0.3151,-0.2548 -0.781,-0.3822 -1.3978,-0.3822l-2.1922 0 0.8849 -0.7843 0 10.941 -3.6403 0zm6.6773 0l-2.6951 -5.4705 3.9822 0 2.6951 5.4705 -3.9822 0z"/>
   <path id="_460034944" class="fil3" d="M146.023 109.837c0.3823,-7.0386 2.6457,-15.5883 5.7519,-21.7003 1.2833,-2.5249 1.9122,-3.5275 3.3477,-5.8847 0.2228,0.2494 0.2788,0.4256 0.3514,0.8316 0.0607,0.3394 0.0915,0.691 0.1447,1.0388 0.7127,4.6666 0.5806,10.7963 -0.9698,15.0862 -0.867,2.3985 -2.3236,4.3104 -3.6447,5.9079 -0.777,0.9396 -3.9663,4.2956 -4.9812,4.7205zm-18.7853 -26.9451l-0.4124 1.3587c-0.3445,0.5557 -1.008,3.2223 -1.0548,3.961 -0.8929,2.0994 -1.7325,8.7597 -2.0469,11.4641 -2.6139,22.4828 3.0836,47.9497 12.4107,68.1128l4.5237 9.0127 -5.6342 2.899c-1.478,0.4553 -1.945,0.5344 -2.5971,1.6488 -0.4566,0.7804 -0.8566,1.9434 -0.8349,3.1152l31.1423 0.0138 -1.8119 -8.2542c-1.0504,-2.3093 -2.0397,-4.6878 -2.9692,-7.036 -1.9079,-4.8199 -3.9469,-9.5008 -5.5916,-14.5889 -1.6982,-5.2542 -3.0927,-10.3397 -4.2634,-15.9176 -0.8455,-4.0289 -2.4437,-13.8318 -2.2502,-17.7032l9.7265 -8.11c2.6398,-2.7272 5.6719,-6.351 7.1802,-10.7193 3.4083,-9.871 1.8515,-21.363 -1.4198,-30.6964 -1.8171,-5.1842 -3.1335,-8.5594 -6.9099,-10.9965 -4.1016,-2.6467 -9.8423,-2.5172 -13.8553,0.0941 -5.1907,3.3774 -11.8261,16.1019 -13.3318,22.3419zm-77.3336 62.4929c0.2367,0.4933 0.9587,1.229 1.3435,1.6958 1.2836,1.5573 2.5614,3.4266 3.5913,5.2065 1.1825,2.0438 2.8646,5.6248 3.3558,8.2375 -7.8286,0.0559 -6.7121,-0.853 -6.7125,4.1412 -0.0001,1.8204 -0.0005,3.6407 -0.0005,5.461 0,1.5171 -0.3061,3.8432 0.3911,4.8287l5.8266 0.1025 -2.0972 5.0271c-0.655,1.3592 -2.5763,3.9692 -2.7462,4.3685l1.2861 0.0264c12.722,0.128 25.9833,-0.0031 38.7602,-0.0034 -2.9165,-3.0818 -5.7941,-6.5791 -6.3533,-11.0798 -1.5495,-12.4696 24.3248,-14.4656 24.6851,-28.0345 -19.5366,-0.0049 -42.15,-1.0701 -61.33,0.0225zm21.0707 -21.2209c-0.109,-1.9376 -0.2155,-3.8019 -0.3372,-5.7472 -0.2408,-3.8497 -0.4712,-7.7348 -0.6798,-11.54 -0.2212,-4.0331 0.0169,-7.8403 -3.5407,-8.8065 -1.1752,-0.3193 -4.4686,-0.1644 -5.9027,-0.161 -1.7713,0.0041 -4.152,-0.2779 -5.5687,0.514 -2.9951,1.6741 -2.4746,5.4092 -2.7411,9.5363 -0.2311,3.5804 -2.1331,33.7342 -1.9367,34.622 21.0866,-0.2876 21.6291,-2.0407 20.7069,-18.4176zm71.7244 -99.8097c-9.1314,1.273 -15.0204,9.0331 -13.9688,17.6277 0.9909,8.1013 8.3202,15.049 17.7417,13.8712 7.9912,-0.9988 14.9835,-8.3927 13.766,-17.7199 -0.6273,-4.8046 -3.0248,-8.0139 -5.5783,-10.2249 -2.5788,-2.2325 -7.2137,-4.2157 -11.9606,-3.5541zm-51.1393 114.892c0.3595,-0.4434 2.418,-3.1108 2.5241,-3.4481l-1.2534 -0.9249 -3.5494 4.3949 -15.735 0.1955 0.1299 3.5476c1.8156,0.1921 1.8264,0.1883 3.6791,0.1819l33.6817 -0.0019 1.5022 -0.0228 -2.7838 -3.311c-1.6606,-0.7472 -3.4586,-0.5709 -5.3941,-0.5709 -4.0882,0 -8.7863,0.0799 -12.8013,-0.0403zm-10.9347 -14.2009c0.1826,-0.2208 0.0625,0.0384 0.2292,-0.4003 0.0738,-0.1943 0.0918,-0.3471 0.1493,-0.5849l5.8941 -22.0856 -7.1277 10.3503c-0.6121,2.2859 -1.2086,4.5555 -1.8214,6.8181 -0.8706,3.2135 -2.9853,9.4169 -3.3139,12.4532 -1.0015,2.7754 0.7896,5.8141 2.5686,6.4709 0.355,-0.7028 3.4228,-12.5141 3.4218,-13.0217zm40.1377 -5.2396l-0.3689 -1.6538c-1.9484,0.2728 -3.8342,1.1307 -5.5819,1.5988 0.0871,0.6241 0.3249,1.3188 0.6199,1.6732l5.3309 -1.6182zm-14.8845 6.1285c1.4742,-0.6081 3.1915,-2.0011 4.9024,-2.4991l-0.6009 -1.634c-1.0134,0.1556 -4.4366,2.1254 -5.2165,2.6284l0.915 1.5047zm-8.527 6.4324c0.2527,-0.0993 4.2342,-3.4559 4.4084,-3.6518l-0.9963 -1.3796 -4.4375 3.8066 1.0254 1.2248zm-33.5515 -35.4454c-0.5339,-2.5742 -4.758,-2.5632 -5.4208,-0.0242l5.4208 0.0242z"/>
  </g>
 </g>
</svg>
