<?xml version="1.0" encoding="UTF-8"?>
<!DOCTYPE svg PUBLIC "-//W3C//DTD SVG 1.1//EN" "http://www.w3.org/Graphics/SVG/1.1/DTD/svg11.dtd">
<!-- Creator: CorelDRAW -->
<svg xmlns="http://www.w3.org/2000/svg" xml:space="preserve" width="215.9mm" height="279.4mm" style="shape-rendering:geometricPrecision; text-rendering:geometricPrecision; image-rendering:optimizeQuality; fill-rule:evenodd; clip-rule:evenodd"
viewBox="0 0 215.9 279.4"
 xmlns:xlink="http://www.w3.org/1999/xlink">
 <defs>
  <style type="text/css">
   <![CDATA[
    .fil11 {fill:#05252E}
    .fil1 {fill:#2DAFD4}
    .fil3 {fill:#46C7E7}
    .fil7 {fill:#46D7FB}
    .fil12 {fill:#4FB6CF}
    .fil13 {fill:#6A7C83}
    .fil9 {fill:#7CEBFD}
    .fil8 {fill:#C9D5E1}
    .fil2 {fill:#D47893}
    .fil5 {fill:#E3EBED}
    .fil4 {fill:#F4BB89}
    .fil0 {fill:#F9CDD1}
    .fil6 {fill:#FBA1AC}
    .fil10 {fill:#FDFEFF}
   ]]>
  </style>
 </defs>
 <g id="Capa_x0020_1">
  <metadata id="CorelCorpID_0Corel-Layer"/>
  <path class="fil0" d="M49.4674 202.132c0.0901,-0.3347 0.1399,-0.5699 -0.1039,-0.8643 -0.1242,-0.15 -0.1552,-0.1053 -0.2568,-0.219 -0.0337,-0.0377 -0.8804,-1.5736 -1.4157,-0.9858 -0.3195,0.351 0.4543,0.8565 0.7068,1.0954 0.5503,0.5207 0.3133,0.9981 1.0696,0.9737z"/>
  <path class="fil0" d="M24.1627 200.12c-0.4986,-0.253 -0.3535,-0.2325 -1.0928,0.6003 -0.2485,0.2799 -0.9208,0.9341 -0.7051,1.2835 0.4465,0.7236 0.8235,-0.437 0.9999,-0.6885 0.3465,-0.4942 0.977,-0.547 0.798,-1.1953z"/>
  <path class="fil1" d="M26.7556 217.886c1.431,-0.3703 0.7999,0.1687 1.5687,0.5867 0.6144,-0.093 0.2032,-0.4717 1.1566,-0.1141 0.1037,-0.3579 0.321,-0.6198 -0.0162,-1.0132 -0.6838,-0.7979 -2.0208,0.0469 -2.0223,0.0475 -0.5232,0.2155 -0.4527,-0.0265 -0.6868,0.4931z"/>
  <path class="fil1" d="M42.6382 218.418c0.7324,-0.5137 0.5811,-0.1325 1.1361,0.0768 0.4311,-0.5169 0.4283,-0.8513 1.3102,-0.6645 -0.1612,-0.4001 -0.238,-0.268 -0.6461,-0.427 -0.8587,-0.3345 0.025,-0.7575 -2.2214,0.4445 0.3306,0.5123 0.2985,0.147 0.4212,0.5702z"/>
  <path class="fil2" d="M21.4199 209.357c0.3423,0.9741 2.9275,3.8815 3.8008,3.7658l0.0392 -7.4347c-0.3097,0.6353 -0.115,4.3535 -0.1769,5.4023 -0.087,-0.07 -1.5128,-0.5422 -1.9031,-0.7548 -0.4472,-0.2435 -1.3226,-0.8424 -1.76,-0.9786z"/>
  <path class="fil2" d="M46.7103 210.998l0.0127 2.1799c0.5587,-0.0282 2.4264,-1.6561 2.7286,-2.1765 -0.147,-0.5133 -0.3237,-0.5556 -0.2831,-1.1642 -0.4159,0.452 -1.7715,1.3737 -2.4582,1.1608z"/>
  <path class="fil3" d="M19.3111 239.761l-0.5624 0.3607c1.0954,0.7287 4.8717,-0.0243 6.2541,-0.2828 1.7591,-0.3291 5.3119,0.6407 6.5823,0.4007 -0.4953,-0.3035 -2.6039,-0.4325 -3.3502,-0.5316 -0.5271,-0.07 -1.0539,-0.1502 -1.5629,-0.2987 -0.6502,-0.1896 -0.9704,-0.3155 -0.6542,-0.9794 -0.7604,-0.1703 -2.9643,0.1527 -3.6201,0.373l-0.2127 -0.3313c0.0775,0.6854 -0.2392,1.3228 -0.8598,1.6193 -0.9107,0.4352 -1.3417,-0.0579 -2.0141,-0.3299z"/>
  <path class="fil3" d="M42.6382 218.418c-0.1227,-0.4232 -0.0906,-0.0579 -0.4212,-0.5702 2.2464,-1.202 1.3627,-0.779 2.2214,-0.4445 0.4081,0.159 0.4849,0.0269 0.6461,0.427l0.2154 0.1257 -0.4114 -1.0595 1.2495 -0.3002c-0.8398,-0.7652 -1.6595,-1.3394 -2.9432,-1.0875l-2.0064 2.0754 1.0551 0.9905 0.3947 -0.1567z"/>
  <path class="fil3" d="M40.4822 240.262c0.3094,0.0665 4.1585,-0.3197 4.8166,-0.3874 0.836,-0.0861 3.8789,-0.4026 4.2691,-1.0225 -0.4554,-0.3634 -2.7685,-0.5758 -3.3929,-0.4743 0.4792,0.7048 0.3118,0.7915 -0.5423,1.0364 -0.5619,0.1611 -1.0748,0.2467 -1.6538,0.3179 -0.6865,0.0844 -3.1339,0.2028 -3.4967,0.5299z"/>
  <path class="fil3" d="M40.0296 217.093c-0.6985,-0.0519 -1.2686,0.0807 -1.9626,0.1066 -0.6878,0.0257 -1.3787,0.0027 -2.0673,0.0086 -1.38,0.0119 -2.6473,-0.0702 -3.9951,-0.0991 0.0718,0.5963 -0.0609,0.548 1.6363,0.619 2.1884,0.0916 4.0841,-0.0078 6.2766,-0.0692l0.1121 -0.5659z"/>
  <path class="fil3" d="M28.418 214.32c-0.8239,-0.5067 -2.0073,-0.9425 -1.9509,-2.2053 -0.1639,0.3808 -0.0743,2.0934 0.0437,2.572 0.5714,-0.2964 1.26,-0.3942 1.9072,-0.3667z"/>
  <path class="fil4" d="M32.0881 229.997c-2.0657,2.4491 6.6557,2.5049 7.9036,1.1261 0.2836,-0.3134 0.2953,-0.7141 0.0518,-1.0653 -0.3513,-0.5063 -0.5474,-0.2709 -0.9597,-0.0408 -0.6167,0.3442 -1.4544,0.603 -2.1533,0.6926 -3.0418,0.3902 -3.3642,-0.309 -4.8424,-0.7126z"/>
  <path class="fil4" d="M35.9996 233.185c-0.9464,0.0072 -2.4093,-0.3367 -3.0003,-0.3122 -0.044,0.4206 0.2293,2.3265 0.9896,2.189l0.075 -1.6452 1.1949 1.8144 0.25 -1.6596 0.219 1.6961 0.7297 0.0549 0.4121 -1.8057 0.1641 1.7044 1.1073 -1.8708 0.1139 1.725c0.3525,-0.6383 0.8739,-1.4591 0.7421,-2.2197l-2.9974 0.3294z"/>
  <path class="fil5" d="M20.9625 238.161c-0.4895,-3.0434 -1.6372,-7.9341 -2.3495,-11.2661 -0.131,-0.613 -0.2442,-1.2663 -0.3913,-1.8708 -0.2441,-1.0024 -0.8614,-0.717 -0.7453,0.2346 0.2784,2.283 1.0104,5.2914 1.4742,7.6142 0.1329,0.6656 0.9669,5.253 1.1231,5.6607 0.2453,0.64 1.0675,0.7385 0.8888,-0.3726z"/>
  <path class="fil5" d="M32.5495 228.806c0.673,1.1986 4.2953,0.8819 5.4709,0.4432 2.1648,-0.8076 2.8023,-3.4896 0.8383,-3.7188 -0.2678,0.3744 -0.0556,2.4791 -4.0148,3.1067 -0.5473,0.0867 -2,-0.045 -2.2944,0.1689z"/>
  <path class="fil5" d="M37.4687 224.925c-0.6522,1.0118 -1.0528,1.326 -2.3551,1.5004 -0.6331,0.0848 -1.3271,-0.0595 -1.8628,0.0247 -0.58,0.0912 -0.8642,0.7682 -0.2891,1.0414 1.1259,0.5351 5.7994,-0.5046 4.507,-2.5665z"/>
  <path class="fil5" d="M36.1815 223.227c-0.4282,0.4085 -0.3205,1.4963 -1.2482,1.1373 -1.2439,-0.4813 -1.5616,0.5829 -1.1208,0.9109 0.8428,0.627 3.5669,0.0049 2.369,-2.0482z"/>
  <path class="fil5" d="M23.8704 215.59c0.1641,0.3479 0.1465,0.2419 0.8947,0.5591l0.505 -0.4344 -0.1919 -0.6498c-0.4024,0.118 -0.9108,0.2813 -1.2078,0.5251z"/>
  <path class="fil5" d="M21.6923 202.98l0.0992 0.7852c1.3179,0.4129 0.876,-1.4868 -0.0992,-0.7852z"/>
  <path class="fil5" d="M33.3029 215.282c0.1291,0.3949 0.0981,0.3755 0.434,0.5464 0.3725,-0.2335 0.364,-0.2217 0.3757,-0.7108l-0.8097 0.1644z"/>
  <path class="fil5" d="M37.9642 215.818c0.281,-0.1542 0.3003,-0.1847 0.454,-0.5028 -0.3152,-0.167 -0.4657,-0.1607 -0.8664,-0.1699 0.0813,0.3468 0.1484,0.4412 0.4124,0.6727z"/>
  <path class="fil5" d="M41.1451 211.023c0.448,0.0909 0.4468,0.0572 0.4588,-0.3651l-0.4567 0.0144 -0.0021 0.3507z"/>
  <path class="fil6" d="M49.2683 203.218c0.4966,-0.7706 1.0829,-0.2973 0.9385,0.4436 -0.5386,0.3227 -0.8459,0.1513 -0.9385,-0.4436zm0.0952 -1.9501c0.2438,0.2944 0.194,0.5296 0.1039,0.8643 -0.7563,0.0244 -0.5193,-0.453 -1.0696,-0.9737 -0.2525,-0.2389 -1.0263,-0.7444 -0.7068,-1.0954 0.5353,-0.5878 1.382,0.9481 1.4157,0.9858 0.1016,0.1137 0.1326,0.069 0.2568,0.219zm-2.6532 9.7303c0.6867,0.2129 2.0423,-0.7088 2.4582,-1.1608l1.1848 0.0412 0.4063 -1.1438c-0.4744,-0.3573 -1.0438,-0.3967 -0.7036,-1.0927l-0.0036 -0.1292 1.2625 0.0027 0.052 -1.8642 -1.5323 -0.8181 1.3588 -0.4668 -4.3729 -5.2437c-0.7135,0.8486 -0.2356,4.4556 -0.163,5.6789 0.1125,1.893 -0.1566,4.4792 0.0528,6.1965z"/>
  <path class="fil6" d="M21.6923 202.98c0.9752,-0.7016 1.4171,1.1981 0.0992,0.7852l-0.0992 -0.7852zm2.4704 -2.8595c0.179,0.6483 -0.4515,0.7011 -0.798,1.1953 -0.1764,0.2515 -0.5534,1.4121 -0.9999,0.6885 -0.2157,-0.3494 0.4566,-1.0036 0.7051,-1.2835 0.7393,-0.8328 0.5942,-0.8533 1.0928,-0.6003zm-2.7428 9.2366c0.4374,0.1362 1.3128,0.7351 1.76,0.9786 0.3903,0.2126 1.8161,0.6848 1.9031,0.7548 0.0619,-1.0488 -0.1328,-4.767 0.1769,-5.4023l-0.1409 -6.6103 -4.3374 5.321 1.4976 0.6986 -1.7155 0.5552 0.2192 1.8753c0.4315,-0.0448 1.0436,-0.2167 1.2174,0.3773l-0.8506 0.8661 0.2702 0.5857z"/>
  <path class="fil7" d="M35.5816 208.1c4.126,-0.6003 4.3233,4.6937 0.8045,5.1647 -3.4225,0.4581 -5.2149,-4.5231 -0.8045,-5.1647zm-6.4934 -0.541c2.5648,-0.0922 3.0687,0.8565 3.5506,3.2716 0.4353,2.1819 -0.4401,3.5544 -2.7014,3.6893 1.9317,1.4748 1.5752,-0.5932 6.3606,-0.4731 1.2761,0.032 2.1723,0.2671 3.3487,0.6695 1.8812,0.6434 1.0937,0.5624 2.8325,-0.2714 -5.6434,0.8206 -3.2585,-8.5329 0.4987,-6.7417 -0.8326,-1.0207 -3.0441,-1.9219 -4.3551,-2.1802 -0.7552,-0.1488 -1.3341,-0.4017 -1.7023,0.2367l-0.0847 -0.0552 1.036 -1.4593 -0.0263 -0.1756c-1.1709,0.6628 -0.9043,0.9302 -1.6215,1.6653l-0.0941 -0.0381 0.7009 -1.6298 -1.6541 1.8567 -0.2658 -0.6059c-1.5738,0.1054 -4.8526,0.9881 -5.8227,2.2412z"/>
  <path class="fil7" d="M26.7556 217.886c0.2341,-0.5196 0.1636,-0.2776 0.6868,-0.4931 0.0015,-0.0006 1.3385,-0.8454 2.0223,-0.0475 0.3372,0.3934 0.1199,0.6553 0.0162,1.0132l0.2837 0.1522 1.0479 -1.0214 -3.6966 -0.561c-0.0379,0.4919 -0.4009,0.3492 -0.3603,0.9576z"/>
  <path class="fil8" d="M46.1373 217.749l-0.5978 1.805c0.2622,0.5404 -0.7423,16.6543 -8.607,18.3271 -1.3845,0.2945 -2.7641,0.2851 -4.1652,0.1422 -1.5922,-0.1624 -2.1855,-0.7382 -3.4675,-1.101 1.3282,2.4922 6.0752,2.4893 8.4786,2.2825 1.9862,-0.1709 2.5427,-0.025 4.1793,-1.3001 1.049,-0.8174 1.8808,-1.677 2.6161,-2.7935 1.7199,-2.6118 2.472,-4.69 3.1692,-7.7374 0.4504,-1.9686 1.2344,-8.2773 0.716,-10.007l-0.0759 0.3713 -2.229 0.7488 -0.0168 -0.7379z"/>
  <path class="fil8" d="M48.0563 231.216l-0.8092 1.7723c2.8217,0.4881 7.1521,-1.0577 8.8699,-3.4439 1.9527,-2.7125 1.0906,-7.2155 -2.0211,-8.4272l0.337 0.3004 -0.4623 0.0605 2.0672 3.0317c0.4097,1.4298 0.0874,2.9124 -0.7459,4.109 -1.6173,2.3224 -4.537,2.8735 -7.212,2.9002l-0.0236 -0.303z"/>
  <path class="fil8" d="M15.0018 218.323c0.3751,1.0765 1.1482,4.5946 2.3147,4.8918 1.2431,-0.2241 0.8137,-2.5166 0.7438,-3.4623 -0.0482,-0.6518 -0.2469,-3.372 -0.4949,-3.7244 -0.1354,0.651 0.2626,2.0098 -0.4938,2.5935 -1.0972,0.8467 -1.8418,-0.732 -2.0698,-0.2986z"/>
  <path class="fil9" d="M46.175 238.378c0.6244,-0.1015 2.9375,0.1109 3.3929,0.4743 -0.3902,0.6199 -3.4331,0.9364 -4.2691,1.0225 -0.6581,0.0677 -4.5072,0.4539 -4.8166,0.3874 -1.2439,-0.0618 -3.0981,0.191 -4.4865,0.1959 -1.1794,0.0042 -3.5046,-0.3173 -4.4106,-0.2185 -1.2704,0.24 -4.8232,-0.7298 -6.5823,-0.4007 -1.3824,0.2585 -5.1587,1.0115 -6.2541,0.2828l0.5624 -0.3607 -0.8445 -2.8836c-0.1491,0.5236 -5.1363,0.6689 -6.1089,2.4271 0.5995,5.3324 47.5183,5.3138 48.2215,0.0047 -1.1842,-2.5384 -14.9976,-3.2145 -14.999,-3.2929l-1.8006 2.0725 2.3954 0.2892z"/>
  <path class="fil9" d="M21.9439 236.898l0.2411 1.5732 0.2127 0.3313c0.6558,-0.2203 2.8597,-0.5433 3.6201,-0.373l2.4529 -0.3837 -1.8218 -2.1449c-0.147,0.3564 -1.8929,0.3432 -2.4014,0.3945 -0.7263,0.0732 -2.0562,-0.055 -2.3036,0.6026z"/>
  <path class="fil10" d="M32.5167 225.502c0.1234,-0.7263 -0.1443,-1.2958 0.5667,-1.8823 0.816,-0.6732 1.5089,-0.2717 1.9064,-0.5463 0.4557,-0.3149 0.1416,-0.8463 1.3689,-1.1451 0.5122,-0.1247 1.5645,-0.0608 1.8026,0.4868l-0.9038 0.226 2.8665 2.4236c1.9644,1.6621 0.5333,3.3926 0.4865,3.7814 -0.0469,0.3906 0.7656,0.7372 0.7149,1.8074 -0.0499,1.0546 -0.6272,1.1253 -0.9777,1.6976 -0.6028,0.984 -0.0562,3.2213 -1.5894,3.7396 -1.3851,0.4683 -3.4823,0.4505 -4.9051,0.154 -1.7247,-0.3595 -1.73,-1.7951 -2.0192,-3.2875 -0.2266,-1.1697 -2.176,-1.6002 -0.6535,-3.6709 0.3657,-0.4972 0.4688,-1.4807 0.3956,-2.0754 -0.1545,-1.254 0.5122,-1.1133 0.9406,-1.7089zm-3.2169 11.42c1.282,0.3628 1.8753,0.9386 3.4675,1.101 1.4011,0.1429 2.7807,0.1523 4.1652,-0.1422 7.8647,-1.6728 8.8692,-17.7867 8.607,-18.3271 -0.1728,0.2875 -0.3541,0.8032 -0.67,0.9396 -0.6547,0.2827 -0.4609,-0.4737 -0.612,-0.7861l-1.3687 1.0611 -0.8103 -1.0048c-0.8344,-0.1328 -0.2829,0.4408 -0.9692,0.6681l-0.624 -1.5935 -9.03 0.0493 -0.5567 1.5307 -0.9719 -0.6711c-0.6709,0.162 -0.0613,0.6015 -0.7365,0.9864 -1.7145,-1.2685 -1.0948,-1.078 -2.5657,-0.9555 -0.1507,-0.331 -0.3666,-0.6197 -0.4849,-0.9044 -0.178,-0.428 -0.0763,-0.6444 -0.2358,-1.0258l-2.2521 -0.7703 1.1755 11.613c0.5269,2.0053 2.6921,7.2265 4.4726,8.2316z"/>
  <path class="fil10" d="M48.0563 231.216l0.0236 0.303c2.675,-0.0267 5.5947,-0.5778 7.212,-2.9002 0.8333,-1.1966 1.1556,-2.6792 0.7459,-4.109l-2.0672 -3.0317 0.4623 -0.0605 -0.337 -0.3004c-0.3275,-0.6174 -3.4494,-1.201 -4.2033,-1.0788l-0.143 2.4762 4.2095 1.1116c1.0593,1.0936 1.5052,2.3561 0.9743,3.8279 -0.495,1.3725 -1.4425,2.0309 -2.8113,2.526 -2.4677,0.8925 -4.0741,-0.0092 -4.0658,1.2359z"/>
  <path class="fil10" d="M48.6738 229.212c1.5288,0.2411 4.5433,-0.5632 5.0541,-2.3454 0.6723,-2.3455 -2.2752,-3.4466 -4.0942,-3.0011l-0.9599 5.3465z"/>
  <path class="fil10" d="M41.4327 208.624c2.7344,-1.175 4.9042,4.1673 1.6916,5.0885 -4.0857,1.1715 -4.0727,-4.0653 -1.6916,-5.0885zm1.0465 5.8207l1.3644 -0.1933c0.3055,-0.3326 0.7944,-0.5454 1.1053,-0.8912 0.4154,-0.4619 0.4692,-0.8094 0.4692,-1.4222 0.0258,-1.3416 -1.3344,-3.6903 -2.4402,-4.235 -3.7572,-1.7912 -6.1421,7.5623 -0.4987,6.7417z"/>
  <path class="fil10" d="M27.2606 212.178c-0.6633,-2.9954 3.1836,-5.6591 4.5711,-1.8251 1.5419,4.2606 -4.0146,4.3385 -4.5711,1.8251zm-0.7935 -0.0639c-0.0564,1.2628 1.127,1.6986 1.9509,2.2053l1.5194 0.2005c2.2613,-0.1349 3.1367,-1.5074 2.7014,-3.6893 -0.4819,-2.4151 -0.9858,-3.3638 -3.5506,-3.2716 -1.2486,0.6758 -2.5806,3.0381 -2.6211,4.5551z"/>
  <path class="fil10" d="M32.0046 217.109c1.3478,0.0289 2.6151,0.111 3.9951,0.0991 0.6886,-0.0059 1.3795,0.0171 2.0673,-0.0086 0.694,-0.0259 1.2641,-0.1585 1.9626,-0.1066l0.4242 -0.8973 -1.3136 -0.5069c-0.3755,0.5197 -0.7443,0.8682 -1.4538,0.7273l-1.0062 -1.3119 -1.7193 0.0987c-0.2524,0.5053 -0.1754,0.9685 -0.878,1.1854l-1.4385 -0.6038 -1.0991 0.3861 0.4593 0.9385z"/>
  <path class="fil10" d="M41.675 208.895c-1.0981,0.4118 -0.4903,2.174 0.867,1.6588 1.1054,-0.4197 0.4238,-2.1431 -0.867,-1.6588z"/>
  <path class="fil10" d="M29.2298 208.909c-1.1957,0.4002 -0.5821,2.0496 0.8226,1.6422 0.9651,-0.2799 0.6484,-2.1345 -0.8226,-1.6422z"/>
  <path class="fil10" d="M29.0328 261.351c0.2695,0.9444 1.8499,0.6293 1.5433,-0.5676 -0.2525,-0.9852 -1.9203,-0.7532 -1.5433,0.5676z"/>
  <polygon class="fil10" points="46.1373,217.749 46.1541,218.487 48.3831,217.738 48.459,217.366 48.4523,217.047 "/>
  <path class="fil10" d="M49.2683 203.218c0.0926,0.5949 0.3999,0.7663 0.9385,0.4436 0.1444,-0.7409 -0.4419,-1.2142 -0.9385,-0.4436z"/>
  <path class="fil10" d="M47.5922 215.985l0.577 -0.2799c-0.2912,-0.3681 -0.9277,-0.5064 -1.3833,-0.6416l0.0073 0.3755 0.799 0.546z"/>
  <path class="fil10" d="M30.3006 211.051c0.4737,-0.0046 0.4458,-0.0158 0.3646,-0.4168l-0.3827 0.0153 0.0181 0.4015z"/>
  <path class="fil11" d="M48.6738 229.212l0.9599 -5.3465c1.819,-0.4455 4.7665,0.6556 4.0942,3.0011 -0.5108,1.7822 -3.5253,2.5865 -5.0541,2.3454zm5.4221 -8.0956c3.1117,1.2117 3.9738,5.7147 2.0211,8.4272 -1.7178,2.3862 -6.0482,3.932 -8.8699,3.4439l0.8092 -1.7723c-0.0083,-1.2451 1.5981,-0.3434 4.0658,-1.2359 1.3688,-0.4951 2.3163,-1.1535 2.8113,-2.526 0.5309,-1.4718 0.085,-2.7343 -0.9743,-3.8279l-4.2095 -1.1116 0.143 -2.4762c0.7539,-0.1222 3.8758,0.4614 4.2033,1.0788zm-24.7961 15.8051c-1.7805,-1.0051 -3.9457,-6.2263 -4.4726,-8.2316l-1.1755 -11.613 2.2521 0.7703c0.1595,0.3814 0.0578,0.5978 0.2358,1.0258 0.1183,0.2847 0.3342,0.5734 0.4849,0.9044 1.4709,-0.1225 0.8512,-0.313 2.5657,0.9555 0.6752,-0.3849 0.0656,-0.8244 0.7365,-0.9864l0.9719 0.6711 0.5567 -1.5307 9.03 -0.0493 0.624 1.5935c0.6863,-0.2273 0.1348,-0.8009 0.9692,-0.6681l0.8103 1.0048 1.3687 -1.0611c0.1511,0.3124 -0.0427,1.0688 0.612,0.7861 0.3159,-0.1364 0.4972,-0.6521 0.67,-0.9396l0.5978 -1.805 2.315 -0.7015 0.0067 0.3193c0.5184,1.7297 -0.2656,8.0384 -0.716,10.007 -0.6972,3.0474 -1.4493,5.1256 -3.1692,7.7374 -0.7353,1.1165 -1.5671,1.9761 -2.6161,2.7935 -1.6366,1.2751 -2.1931,1.1292 -4.1793,1.3001 -2.4034,0.2068 -7.1504,0.2097 -8.4786,-2.2825zm15.7847 -19.0914c-0.8819,-0.1868 -0.8791,0.1476 -1.3102,0.6645 -0.555,-0.2093 -0.4037,-0.5905 -1.1361,-0.0768l-0.3947 0.1567 -1.0551 -0.9905 2.0064 -2.0754c1.2837,-0.2519 2.1034,0.3223 2.9432,1.0875l-1.2495 0.3002 0.4114 1.0595 -0.2154 -0.1257zm-15.6036 0.5279c-0.9534,-0.3576 -0.5422,0.0211 -1.1566,0.1141 -0.7688,-0.418 -0.1377,-0.957 -1.5687,-0.5867 -0.0406,-0.6084 0.3224,-0.4657 0.3603,-0.9576l3.6966 0.561 -1.0479 1.0214 -0.2837 -0.1522zm10.5487 -1.2651l-0.1121 0.5659c-2.1925,0.0614 -4.0882,0.1608 -6.2766,0.0692 -1.6972,-0.071 -1.5645,-0.0227 -1.6363,-0.619l-0.4593 -0.9385 1.0991 -0.3861 1.4385 0.6038c0.7026,-0.2169 0.6256,-0.6801 0.878,-1.1854l1.7193 -0.0987 1.0062 1.3119c0.7095,0.1409 1.0783,-0.2076 1.4538,-0.7273l1.3136 0.5069 -0.4242 0.8973zm-16.1592 -1.5033c0.297,-0.2438 0.8054,-0.4071 1.2078,-0.5251l0.1919 0.6498 -0.505 0.4344c-0.7482,-0.3172 -0.7306,-0.2112 -0.8947,-0.5591zm22.9155 -0.5263c0.4556,0.1352 1.0921,0.2735 1.3833,0.6416l-0.577 0.2799c-0.3561,0.4202 -0.782,-0.1394 -0.9613,-0.464l0.155 -0.4575zm-12.6733 0.0543c-0.0117,0.4891 -0.0032,0.4773 -0.3757,0.7108 -0.3359,-0.1709 -0.3049,-0.1515 -0.434,-0.5464l0.8097 -0.1644zm3.8516 0.6996c-0.264,-0.2315 -0.3311,-0.3259 -0.4124,-0.6727 0.4007,0.0092 0.5512,0.0029 0.8664,0.1699 -0.1537,0.3181 -0.173,0.3486 -0.454,0.5028zm-12.7043 -10.1299l-0.0392 7.4347c-0.8733,0.1157 -3.4585,-2.7917 -3.8008,-3.7658l-0.2702 -0.5857 0.8506 -0.8661c-0.1738,-0.594 -0.7859,-0.4221 -1.2174,-0.3773l-0.2192 -1.8753 1.7155 -0.5552 -1.4976 -0.6986 4.3374 -5.321 0.1409 6.6103zm23.9086 4.1499c-0.0406,0.6086 0.1361,0.6509 0.2831,1.1642 -0.3022,0.5204 -2.1699,2.1483 -2.7286,2.1765l-0.0127 -2.1799c-0.2094,-1.7173 0.0597,-4.3035 -0.0528,-6.1965 -0.0726,-1.2233 -0.5505,-4.8303 0.163,-5.6789l4.3729 5.2437 -1.3588 0.4668 1.5323 0.8181 -0.052 1.8642 -1.2625 -0.0027 0.0036 0.1292c-0.3402,0.696 0.2292,0.7354 0.7036,1.0927l-0.4063 1.1438 -1.1848 -0.0412zm-22.5196 26.0635l1.8218 2.1449 -2.4529 0.3837c-0.3162,0.6639 0.004,0.7898 0.6542,0.9794 0.509,0.1485 1.0358,0.2287 1.5629,0.2987 0.7463,0.0991 2.8549,0.2281 3.3502,0.5316 0.906,-0.0988 3.2312,0.2227 4.4106,0.2185 1.3884,-0.0049 3.2426,-0.2577 4.4865,-0.1959 0.3628,-0.3271 2.8102,-0.4455 3.4967,-0.5299 0.579,-0.0712 1.0919,-0.1568 1.6538,-0.3179 0.8541,-0.2449 1.0215,-0.3316 0.5423,-1.0364l-2.3954 -0.2892 1.8006 -2.0725c1.2434,-2.9958 1.8937,-0.7577 7.1356,-2.5079 5.8415,-1.9504 7.3198,-8.2302 4.0459,-11.9963 -1.8896,-2.1736 -3.8911,-2.2619 -6.7577,-2.945 -0.3563,-0.6935 0.1596,-2.2887 -0.2276,-3.1425l-1.8524 -1.363c0.2175,-0.5074 3.2856,-2.1586 4.3005,-5.3448 0.8599,-2.6994 0.3883,-5.5456 -1.0972,-7.9242 -0.928,-1.486 -4.6629,-4.8701 -5.7082,-1.8053l-0.0308 9.4163c-0.9573,-1.8716 -5.223,-4.4397 -7.5165,-4.1581l-1.036 1.4593 0.0847 0.0552c0.3682,-0.6384 0.9471,-0.3855 1.7023,-0.2367 1.311,0.2583 3.5225,1.1595 4.3551,2.1802 1.1058,0.5447 2.466,2.8934 2.4402,4.235 0.2192,0.3661 0.1332,2.0544 0.0626,2.5643 -0.2845,0.0655 -1.3578,-0.1273 -1.6371,-0.2509l-1.3644 0.1933c-1.7388,0.8338 -0.9513,0.9148 -2.8325,0.2714 -1.1764,-0.4024 -2.0726,-0.6375 -3.3487,-0.6695 -4.7854,-0.1201 -4.4289,1.9479 -6.3606,0.4731l-1.5194 -0.2005c-0.6472,-0.0275 -1.3358,0.0703 -1.9072,0.3667 -0.118,-0.4786 -0.2076,-2.1912 -0.0437,-2.572 0.0405,-1.517 1.3725,-3.8793 2.6211,-4.5551 0.9701,-1.2531 4.2489,-2.1358 5.8227,-2.2412l0.2658 0.6059 1.6541 -1.8567 -0.7009 1.6298 0.0941 0.0381c0.7172,-0.7351 0.4506,-1.0025 1.6215,-1.6653l1.6006 -0.8423c0.0232,-1.0729 -1.715,-0.8983 -2.4109,-0.6409l-1.7995 1.5509c-2.1638,0.2671 -3.0855,0.2387 -5.129,1.2528 -1.9104,0.948 -2.2024,1.4963 -3.5916,2.9719 -0.0522,-2.0785 0.54,-7.9381 0.0377,-9.3577 -1.0921,-3.0866 -4.7062,0.2785 -5.7084,1.761 -1.4854,2.1974 -1.8879,5.4575 -1.0767,7.9651l4.3174 5.3789c-0.4417,0.4819 -1.5882,0.4705 -1.8153,1.5535 -0.1453,0.693 -0.035,2.6827 -0.0236,3.5005 0.0287,2.0701 0.1998,4.4435 0.5743,6.4791 0.8506,4.6235 1.6356,6.2435 3.8284,10.2586z"/>
  <path class="fil11" d="M17.4764 225.258c-0.1161,-0.9516 0.5012,-1.237 0.7453,-0.2346 0.1471,0.6045 0.2603,1.2578 0.3913,1.8708 0.7123,3.332 1.86,8.2227 2.3495,11.2661 0.1787,1.1111 -0.6435,1.0126 -0.8888,0.3726 -0.1562,-0.4077 -0.9902,-4.9951 -1.1231,-5.6607 -0.4638,-2.3228 -1.1958,-5.3312 -1.4742,-7.6142zm0.089 -9.2303c0.248,0.3524 0.4467,3.0726 0.4949,3.7244 0.0699,0.9457 0.4993,3.2382 -0.7438,3.4623 -1.1665,-0.2972 -1.9396,-3.8153 -2.3147,-4.8918 0.0087,-0.1869 -0.8594,-4.2011 -0.9734,-4.8958 -0.1202,-0.7317 -0.5269,-4.8118 -0.9042,-5.1348 -1.6733,-1.4326 -0.537,3.9829 -0.4879,4.3588 0.3599,2.7574 1.2101,7.0685 2.378,9.5883 0.3797,0.8191 0.8261,1.2488 1.1263,1.8361 0.1175,0.2297 0.3456,2.1507 0.4234,2.6096 0.4435,2.6145 1.8425,7.9246 1.9026,10.1922l0.8445 2.8836c0.6724,0.272 1.1034,0.7651 2.0141,0.3299 0.6206,-0.2965 0.9373,-0.9339 0.8598,-1.6193l-0.2411 -1.5732c-0.3275,-2.7462 -1.4037,-6.6067 -1.9718,-9.4682 -0.2529,-1.274 -1.0605,-3.321 -0.7585,-4.4952 0.6689,-2.6002 -1.2122,-13.3855 -1.9281,-15.0506 -0.2797,-0.6505 -1.4538,-0.7925 -1.12,0.8269 0.3398,1.6481 1.4781,6.2119 1.3999,7.3168z"/>
  <path class="fil11" d="M56.5962 250.963c-0.2104,-0.7888 0.133,-2.2737 -0.0366,-3.1741 -0.1809,-0.9601 -1.3162,-1.3275 -2.0321,-0.7597 -0.875,0.694 -0.5098,4.6828 -0.5165,5.8639 -0.0072,1.2549 -0.6562,5.2645 1.4969,4.7806 2.3906,-0.5372 -0.5197,-5.0915 2.3375,-3.8933l1.1821 4.1998c2.1823,0.1386 0.9988,-2.8499 1.4425,-3.9457l1.1848 -0.0077 1.717 4.2364c1.3784,-0.3989 0.8858,-3.887 0.8933,-5.075 0.0071,-1.1164 0.3937,-4.8346 -0.503,-5.4343 -0.7169,-0.4795 -1.7236,-0.2091 -1.9145,0.694 -0.1929,0.9128 0.0637,2.041 -0.1206,2.8661l-1.2788 -0.07 -1.2392 -4.1954c-1.8945,0.0005 -1.0091,2.7881 -1.2937,3.9774l-1.3191 -0.063z"/>
  <path class="fil11" d="M32.9993 232.873c0.591,-0.0245 2.0539,0.3194 3.0003,0.3122l2.9974 -0.3294c0.1318,0.7606 -0.3896,1.5814 -0.7421,2.2197l-0.1139 -1.725 -1.1073 1.8708 -0.1641 -1.7044 -0.4121 1.8057 -0.7297 -0.0549 -0.219 -1.6961 -0.25 1.6596 -1.1949 -1.8144 -0.075 1.6452c-0.7603,0.1375 -1.0336,-1.7684 -0.9896,-2.189zm-0.9112 -2.8755c1.4782,0.4036 1.8006,1.1028 4.8424,0.7126 0.6989,-0.0896 1.5366,-0.3484 2.1533,-0.6926 0.4123,-0.2301 0.6084,-0.4655 0.9597,0.0408 0.2435,0.3512 0.2318,0.7519 -0.0518,1.0653 -1.2479,1.3788 -9.9693,1.323 -7.9036,-1.1261zm0.4614 -1.1912c0.2944,-0.2139 1.7471,-0.0822 2.2944,-0.1689 3.9592,-0.6276 3.747,-2.7323 4.0148,-3.1067 1.1228,0.2863 1.3156,0.9938 0.9506,2.1415 -0.2478,0.7133 -1.1165,1.3265 -1.7889,1.5773 -1.1756,0.4387 -4.7979,0.7554 -5.4709,-0.4432zm4.9192 -3.8808c1.2924,2.0619 -3.3811,3.1016 -4.507,2.5665 -0.5751,-0.2732 -0.2909,-0.9502 0.2891,-1.0414 0.5357,-0.0842 1.2297,0.0601 1.8628,-0.0247 1.3023,-0.1744 1.7029,-0.4886 2.3551,-1.5004zm-1.2872 -1.6981c1.1979,2.0531 -1.5262,2.6752 -2.369,2.0482 -0.4408,-0.328 -0.1231,-1.3922 1.1208,-0.9109 0.9277,0.359 0.82,-0.7288 1.2482,-1.1373zm-3.6648 2.2747c-0.4284,0.5956 -1.0951,0.4549 -0.9406,1.7089 0.0732,0.5947 -0.0299,1.5782 -0.3956,2.0754 -1.5225,2.0707 0.4269,2.5012 0.6535,3.6709 0.2892,1.4924 0.2945,2.928 2.0192,3.2875 1.4228,0.2965 3.52,0.3143 4.9051,-0.154 1.5332,-0.5183 0.9866,-2.7556 1.5894,-3.7396 0.3505,-0.5723 0.9278,-0.643 0.9777,-1.6976 0.0507,-1.0702 -0.7618,-1.4168 -0.7149,-1.8074 0.0468,-0.3888 1.4779,-2.1193 -0.4865,-3.7814l-2.8665 -2.4236 0.9038 -0.226c-0.2381,-0.5476 -1.2904,-0.6115 -1.8026,-0.4868 -1.2273,0.2988 -0.9132,0.8302 -1.3689,1.1451 -0.3975,0.2746 -1.0904,-0.1269 -1.9064,0.5463 -0.711,0.5865 -0.4433,1.156 -0.5667,1.8823z"/>
  <path class="fil11" d="M15.3698 248.808c0.7366,-3.1142 -8.5645,-1.9286 -6.2713,3.0515 0.8305,1.8037 3.2481,1.8112 3.8808,2.7192 1.3292,1.9078 -3.576,0.4058 -3.9681,2.1151 -0.5114,2.2286 3.4455,1.6394 4.603,1.3433 1.8523,-0.4739 2.5889,-2.491 1.9466,-4.2681 -0.7598,-2.1018 -2.9368,-1.8487 -3.8609,-2.7407 -1.762,-1.701 3.3121,-0.7071 3.6699,-2.2203z"/>
  <path class="fil11" d="M53.0366 248.398c0.8618,-1.9514 -2.2106,-1.9312 -3.2688,-1.9421 -1.8467,-0.0189 -2.784,0.4408 -3.0417,2.3321 -0.1989,1.4603 -0.2226,3.698 -0.1671,5.1886 0.0606,1.6231 0.3215,2.8244 2.0299,3.2526 1.0438,0.2616 4.0634,0.517 4.339,-0.8133 0.4972,-2.4001 -2.8022,-1.0816 -3.5344,-1.7711 -0.4117,-0.3877 -0.3205,-4.3695 -0.1734,-5.0722 0.3243,-1.5494 3.0847,0.4821 3.8165,-1.1746z"/>
  <path class="fil11" d="M23.701 248.173c1.2148,-2.9617 -6.3272,-1.5223 -6.7333,-1.2343 -0.5331,0.3779 -0.614,1.2228 -0.2544,1.7335 0.4732,0.6719 1.3005,0.3317 1.8982,0.3383 0.7587,0.0084 0.4875,1.0963 0.498,1.8041 0.0108,0.7288 0.0414,1.4502 0.0603,2.1773 0.0234,0.9011 -0.1262,3.5598 0.495,4.1435 0.4744,0.4457 1.2869,0.3747 1.758,-0.0326 0.5465,-0.4725 0.3679,-1.3097 0.342,-1.9472 -0.0607,-1.4915 -0.0979,-3.0297 -0.1293,-4.5241 -0.0175,-0.8327 -0.3875,-1.6925 0.4831,-1.7716 0.5845,-0.0531 1.3027,-0.0049 1.5824,-0.6869z"/>
  <path class="fil11" d="M45.6489 248.282c0.441,-0.4606 0.4572,-1.2424 0.0079,-1.701 -0.5482,-0.5598 -3.0892,-0.4895 -3.9524,-0.486 -1.1036,0.0045 -3.2596,-0.1357 -2.6137,1.729 0.281,0.811 0.9156,0.706 1.5452,0.7352 0.7416,0.0343 0.4503,0.926 0.4458,1.6794 -0.0089,1.5085 -0.0127,3.0154 -0.017,4.524 -0.0018,0.6224 -0.1208,1.4723 0.3766,1.934 0.415,0.3852 1.1403,0.4185 1.5938,0.0902 1.1479,-0.8312 0.2203,-6.7026 0.7175,-8.1296 0.6102,-0.1498 1.3389,0.207 1.8963,-0.3752z"/>
  <path class="fil11" d="M34.121 248.577c0.4438,1.5417 -0.6588,7.464 0.6676,8.195 1.7317,0.9543 1.894,-1.1634 1.8928,-2.207 -0.0016,-1.4414 -0.0031,-2.886 0.002,-4.3273 0.0031,-0.8794 -0.3072,-1.6745 0.5618,-1.7199 0.6468,-0.0338 1.158,-0.0723 1.3679,-0.8171 0.5186,-1.8399 -1.6116,-1.6296 -2.7118,-1.6209 -0.899,0.0071 -3.421,-0.2774 -3.8734,0.5867 -1.0872,2.0762 1.5748,1.7431 2.0931,1.9105z"/>
  <path class="fil11" d="M24.7948 251.418c0.095,1.2135 -0.42,5.3573 1.0941,5.6016 2.208,0.3562 1.5054,-3.6409 1.5081,-5.1099 0.0024,-1.2375 0.4669,-5.4808 -1.1367,-5.6442 -1.3354,-0.136 -1.4725,0.8839 -1.4933,1.9045 -0.018,0.8847 -0.0387,2.3975 0.0278,3.248z"/>
  <path class="fil11" d="M28.7375 255.844c0.0822,1.0467 1.2388,1.4284 2.0167,0.8554 0.6957,-0.5124 0.493,-2.0138 0.4941,-2.8224 0.0025,-1.874 0.1709,-4.8121 -0.0306,-6.5641 -0.1141,-0.9915 -1.1951,-1.3805 -1.9987,-0.9129 -0.7224,0.4204 -0.4977,2.1011 -0.498,2.8547 -0.0011,2.023 -0.137,4.6366 0.0165,6.5893z"/>
  <path class="fil11" d="M35.5816 208.1c-4.4104,0.6416 -2.618,5.6228 0.8045,5.1647 3.5188,-0.471 3.3215,-5.765 -0.8045,-5.1647z"/>
  <path class="fil11" d="M41.1472 210.672l0.4567 -0.0144c-0.012,0.4223 -0.0108,0.456 -0.4588,0.3651l0.0021 -0.3507zm0.5278 -1.7768c1.2908,-0.4843 1.9724,1.2391 0.867,1.6588 -1.3573,0.5152 -1.9651,-1.247 -0.867,-1.6588zm-0.2423 -0.2708c-2.3811,1.0232 -2.3941,6.26 1.6916,5.0885 3.2126,-0.9212 1.0428,-6.2635 -1.6916,-5.0885z"/>
  <path class="fil11" d="M30.6652 210.635c0.0812,0.401 0.1091,0.4122 -0.3646,0.4168l-0.0181 -0.4015 0.3827 -0.0153zm-1.4354 -1.7252c1.471,-0.4923 1.7877,1.3623 0.8226,1.6422 -1.4047,0.4074 -2.0183,-1.242 -0.8226,-1.6422zm-1.9692 3.2688c0.5565,2.5134 6.113,2.4355 4.5711,-1.8251 -1.3875,-3.834 -5.2344,-1.1703 -4.5711,1.8251z"/>
  <path class="fil11" d="M35.407 192.046c-0.3144,0.4047 0.8956,1.2445 0.5843,2.6103 -0.1698,0.7452 -0.8978,1.5897 -1.3443,2.205 -2.0401,2.8116 0.8066,5.1902 0.9239,4.1344 0.0835,-0.7521 -0.8464,-1.1964 0.2419,-2.6773 0.494,-0.6723 1.1732,-1.2214 1.5464,-1.9959 1.2484,-2.5904 -1.2667,-5.1589 -1.9522,-4.2765z"/>
  <path class="fil11" d="M29.0328 261.351c-0.377,-1.3208 1.2908,-1.5528 1.5433,-0.5676 0.3066,1.1969 -1.2738,1.512 -1.5433,0.5676zm2.7686 0.1967c0.7819,-2.5367 -3.2691,-3.8086 -3.9593,-1.1508 -0.7304,2.8124 3.1029,3.9291 3.9593,1.1508z"/>
  <path class="fil11" d="M49.0813 261.839c0.2097,-0.4783 0.4867,-0.0689 1.0029,-0.2755 0.352,-0.1409 0.4799,-0.6269 0.1926,-0.8966 -0.2958,-0.2778 -0.855,-0.0022 -1.1175,-0.2244 -0.3787,-0.3205 0.4045,-0.3249 0.5999,-0.3244 1.9054,0.0043 1.0923,-0.9808 0.9276,-1.0668 -0.3042,-0.1587 -1.992,-0.1038 -2.3919,-0.0573 -0.4151,1.2486 -0.6664,1.8135 -0.5056,3.3407 0.1228,1.166 2.3616,0.9672 2.9603,0.6935l0.0588 -0.8545 -1.7271 -0.3347z"/>
  <path class="fil11" d="M44.2466 260.374c0.2505,-0.577 2.4896,0.1233 1.8499,-1.1255 -0.2285,-0.4461 -2.2252,-0.3328 -2.6957,-0.2222 -0.264,1.6604 -0.992,4.0646 0.5569,4.1537 0.5759,0.0332 2.1128,0.2174 2.1817,-0.5647 0.0986,-1.1201 -1.546,-0.2576 -1.8628,-0.7734l1.3337 -0.788c0.0037,-0.8145 -0.9558,-0.3604 -1.3637,-0.6799z"/>
  <path class="fil11" d="M26.2432 262.225c-0.512,-1.2445 -0.947,-0.086 -1.6907,-0.3437 -0.6141,-0.2128 -0.8092,-1.0692 -0.2683,-1.5208 0.608,-0.5077 1.7638,0.5357 1.8976,-0.3867 0.1155,-0.7965 -0.9679,-1.0939 -1.5923,-1.0343 -1.5129,0.1447 -2.3367,1.8246 -1.631,3.1517 0.7408,1.393 2.9278,1.4513 3.2847,0.1338z"/>
  <path class="fil11" d="M14.3821 207.971c-0.4957,0.3832 -0.2038,1.0731 -0.0946,1.6977 0.2498,1.4292 0.4935,5.5642 1.7533,4.592 0.49,-0.378 -0.2015,-2.9546 -0.3111,-3.577 -0.1282,-0.7278 -0.2046,-3.5962 -1.3476,-2.7127z"/>
  <path class="fil11" d="M34.7662 260.37c0.1914,-0.451 0.768,-0.1776 1.3235,-0.2786 0.5391,-0.0981 0.7508,-0.5666 0.3594,-0.9519 -0.3645,-0.359 -2.4028,-0.2377 -2.7982,0.0692l-0.141 3.2293c0.0683,0.4768 0.4062,0.8837 0.9116,0.5998 0.4708,-0.2646 0.2731,-0.8595 0.359,-1.3249l1.4453 -0.6538c-0.0389,-0.9212 -1.1022,-0.2151 -1.4596,-0.6891z"/>
  <path class="fil11" d="M39.5054 260.514c-0.0446,-0.6377 0.5349,-0.3621 1.1261,-0.3985 0.5066,-0.0312 0.9415,-0.2939 0.6393,-0.8613 -0.2532,-0.4752 -2.3366,-0.3476 -2.782,-0.1372 -0.0976,1.1645 -0.7896,4.7344 0.6637,3.9303 0.4454,-0.2464 0.3067,-0.9256 0.3404,-1.3442l1.4337 -0.6324c-0.0848,-0.6812 -0.9326,-0.4881 -1.4212,-0.5567z"/>
  <path class="fil11" d="M54.4615 216.286c1.2103,0.9653 0.8839,0.5383 1.485,1.7546 0.9217,-1.2285 0.489,-0.8425 1.8021,-1.6177l-1.052 -0.5542c-0.139,-0.3557 -0.5017,-1.8866 -1.0206,-0.7289 -0.1894,0.4224 0.0245,0.5885 -0.4131,0.7632 -0.4448,0.1776 -0.5037,-0.0975 -0.8014,0.383z"/>
  <path class="fil11" d="M55.4911 210.664l-0.9649 0.689c1.1782,0.5464 0.7775,0.2124 1.6295,1.4657 0.7651,-1.2436 0.3782,-0.9067 1.5766,-1.431 -1.2514,-0.9487 -0.8355,-0.5567 -1.8458,-1.7791l-0.3954 1.0554z"/>
  <path class="fil12" d="M43.8436 214.252c0.2793,0.1236 1.3526,0.3164 1.6371,0.2509 0.0706,-0.5099 0.1566,-2.1982 -0.0626,-2.5643 0,0.6128 -0.0538,0.9603 -0.4692,1.4222 -0.3109,0.3458 -0.7998,0.5586 -1.1053,0.8912z"/>
  <path class="fil13" d="M47.5922 215.985l-0.799 -0.546 -0.0073 -0.3755 -0.155 0.4575c0.1793,0.3246 0.6052,0.8842 0.9613,0.464z"/>
 </g>
</svg>
