<?xml version="1.0" encoding="UTF-8"?>
<!DOCTYPE svg PUBLIC "-//W3C//DTD SVG 1.1//EN" "http://www.w3.org/Graphics/SVG/1.1/DTD/svg11.dtd">
<!-- Creator: CorelDRAW -->
<svg xmlns="http://www.w3.org/2000/svg" xml:space="preserve" width="431.8mm" height="279.4mm" style="shape-rendering:geometricPrecision; text-rendering:geometricPrecision; image-rendering:optimizeQuality; fill-rule:evenodd; clip-rule:evenodd"
viewBox="0 0 431.8 279.4"
 xmlns:xlink="http://www.w3.org/1999/xlink">
 <defs>
  <style type="text/css">
   <![CDATA[
    .str0 {stroke:red;stroke-width:4}
    .fil0 {fill:none}
    .fil3 {fill:black}
    .fil2 {fill:#010101}
    .fil1 {fill:black;fill-rule:nonzero}
   ]]>
  </style>
 </defs>
 <g id="Capa_x0020_1">
  <metadata id="CorelCorpID_0Corel-Layer"/>
  <rect class="fil0" width="431.8" height="279.4"/>
  <g id="_457063576">
   <path id="_457064824" class="fil0 str0" d="M345.312 231.232l0 -183.063c0,-4.6576 -3.8107,-8.4683 -8.4683,-8.4683l-241.887 0c-4.6576,0 -8.4683,3.8107 -8.4683,8.4683l0 183.063c0,4.6576 3.8107,8.4683 8.4683,8.4683l241.887 0c4.6576,0 8.4683,-3.8107 8.4683,-8.4683z"/>
   <path id="_457065160" class="fil1" d="M197.168 80.6776l0 -15.0589 4.4664 0 0 15.0589 -4.4664 0zm-4.7105 -12.3254l0 -4.2956 13.863 0 0 4.2956 -13.863 0zm22.0636 12.6671c-1.6109,0 -2.9329,-0.2888 -3.9661,-0.8664 -1.0332,-0.5777 -1.798,-1.44 -2.2942,-2.5872 -0.4963,-1.1471 -0.7444,-2.5749 -0.7444,-4.2833l0 -9.2258 4.442 0 0 9.6407c0,0.9437 0.2115,1.68 0.6346,2.2088 0.423,0.5288 1.0657,0.7932 1.9281,0.7932 0.8624,0 1.5051,-0.2644 1.9281,-0.7932 0.4231,-0.5288 0.6346,-1.2651 0.6346,-2.2088l0 -9.6407 4.442 0 0 9.2258c0,1.7084 -0.2481,3.1362 -0.7444,4.2833 -0.4963,1.1472 -1.2569,2.0095 -2.282,2.5872 -1.0251,0.5776 -2.3512,0.8664 -3.9783,0.8664zm-0.0244 -18.2318l-2.0502 -2.099 4.0271 -3.7098 2.0746 2.0746 -4.0515 3.7342zm19.745 17.8901l-4.4176 0 0 -16.621 4.4176 0 0 16.621zm12.5939 0l-7.8346 -11.0806 1.6597 -0.4394 0 11.52 -4.4176 0 0 -16.621 4.1247 0 7.8102 11.0807 -1.6597 0.4393 0 -11.52 4.442 0 0 16.621 -4.1247 0zm5.4671 -8.2983c0,-1.2691 0.2034,-2.4325 0.6102,-3.4901 0.4067,-1.0577 0.9844,-1.9729 1.7328,-2.7458 0.7485,-0.7729 1.6434,-1.3708 2.6848,-1.7939 1.0413,-0.423 2.1966,-0.6346 3.4657,-0.6346 1.2692,0 2.4285,0.2116 3.478,0.6346 1.0495,0.4231 1.9525,1.021 2.7091,1.7939 0.7566,0.7729 1.3383,1.6881 1.7451,2.7458 0.4068,1.0576 0.6102,2.221 0.6102,3.4901 0,1.2692 -0.2034,2.4326 -0.6102,3.4902 -0.4068,1.0576 -0.9885,1.9729 -1.7451,2.7457 -0.7566,0.7729 -1.6596,1.3668 -2.7091,1.7817 -1.0495,0.4149 -2.2088,0.6224 -3.478,0.6224 -1.2691,0 -2.4244,-0.2075 -3.4657,-0.6224 -1.0414,-0.4149 -1.9363,-1.0088 -2.6848,-1.7817 -0.7484,-0.7728 -1.3261,-1.6881 -1.7328,-2.7457 -0.4068,-1.0576 -0.6102,-2.221 -0.6102,-3.4902zm4.5152 0c0,0.9112 0.1668,1.6841 0.5004,2.3187 0.3335,0.6345 0.8013,1.1145 1.4034,1.44 0.602,0.3254 1.2935,0.4881 2.0745,0.4881 0.7973,0 1.497,-0.1627 2.099,-0.4881 0.602,-0.3255 1.0739,-0.8095 1.4156,-1.4522 0.3417,-0.6428 0.5125,-1.4197 0.5125,-2.3309 0,-0.9112 -0.1708,-1.684 -0.5125,-2.3186 -0.3417,-0.6346 -0.8136,-1.1146 -1.4156,-1.44 -0.602,-0.3254 -1.3017,-0.4882 -2.099,-0.4882 -0.781,0 -1.4725,0.1668 -2.0745,0.5004 -0.6021,0.3335 -1.0699,0.8176 -1.4034,1.4522 -0.3336,0.6346 -0.5004,1.4074 -0.5004,2.3186zm13.8387 8.2983l0 -16.621 6.0772 0c1.8061,0 3.3316,0.3295 4.5763,0.9885 1.2447,0.659 2.1925,1.6068 2.8434,2.8434 0.6508,1.2366 0.9762,2.7254 0.9762,4.4664 0,1.741 -0.3254,3.2339 -0.9762,4.4786 -0.6509,1.2448 -1.6027,2.1966 -2.8556,2.8556 -1.2529,0.659 -2.7824,0.9885 -4.5885,0.9885l-6.0528 0zm4.4176 -2.343l-1.9281 -1.9526 3.2216 0c0.9112,0 1.68,-0.1342 2.3065,-0.4027 0.6264,-0.2685 1.1064,-0.6996 1.44,-1.2935 0.3335,-0.5939 0.5003,-1.3709 0.5003,-2.3309 0,-0.96 -0.1627,-1.7329 -0.4881,-2.3186 -0.3254,-0.5858 -0.8014,-1.0129 -1.4278,-1.2814 -0.6265,-0.2684 -1.3953,-0.4027 -2.3065,-0.4027l-3.4169 0 2.099 -1.1471 0 11.1295zm10.7145 -5.9553c0,-1.2691 0.2034,-2.4325 0.6102,-3.4901 0.4067,-1.0577 0.9844,-1.9729 1.7328,-2.7458 0.7485,-0.7729 1.6434,-1.3708 2.6848,-1.7939 1.0413,-0.423 2.1966,-0.6346 3.4657,-0.6346 1.2692,0 2.4285,0.2116 3.478,0.6346 1.0495,0.4231 1.9525,1.021 2.7091,1.7939 0.7566,0.7729 1.3383,1.6881 1.7451,2.7458 0.4068,1.0576 0.6102,2.221 0.6102,3.4901 0,1.2692 -0.2034,2.4326 -0.6102,3.4902 -0.4068,1.0576 -0.9885,1.9729 -1.7451,2.7457 -0.7566,0.7729 -1.6596,1.3668 -2.7091,1.7817 -1.0495,0.4149 -2.2088,0.6224 -3.478,0.6224 -1.2691,0 -2.4244,-0.2075 -3.4657,-0.6224 -1.0414,-0.4149 -1.9363,-1.0088 -2.6848,-1.7817 -0.7484,-0.7728 -1.3261,-1.6881 -1.7328,-2.7457 -0.4068,-1.0576 -0.6102,-2.221 -0.6102,-3.4902zm4.5152 0c0,0.9112 0.1668,1.6841 0.5004,2.3187 0.3335,0.6345 0.8013,1.1145 1.4034,1.44 0.602,0.3254 1.2935,0.4881 2.0745,0.4881 0.7973,0 1.497,-0.1627 2.099,-0.4881 0.602,-0.3255 1.0739,-0.8095 1.4156,-1.4522 0.3417,-0.6428 0.5125,-1.4197 0.5125,-2.3309 0,-0.9112 -0.1708,-1.684 -0.5125,-2.3186 -0.3417,-0.6346 -0.8136,-1.1146 -1.4156,-1.44 -0.602,-0.3254 -1.3017,-0.4882 -2.099,-0.4882 -0.781,0 -1.4725,0.1668 -2.0745,0.5004 -0.6021,0.3335 -1.0699,0.8176 -1.4034,1.4522 -0.3336,0.6346 -0.5004,1.4074 -0.5004,2.3186zm13.8387 8.2983l0 -16.621 6.1505 0c1.2203,0 2.3308,0.2319 3.3315,0.6956 1.0007,0.4638 1.7979,1.1471 2.3918,2.0502 0.5939,0.903 0.8909,2.0217 0.8909,3.3559 0,1.3342 -0.297,2.4529 -0.8909,3.3559 -0.5939,0.9031 -1.3911,1.5824 -2.3918,2.038 -1.0007,0.4556 -2.1112,0.6834 -3.3315,0.6834l-2.7824 0 0 -4.2956 2.6359 0c0.7485,0 1.3139,-0.1464 1.6963,-0.4393 0.3824,-0.2929 0.5735,-0.7404 0.5735,-1.3424 0,-0.5857 -0.1911,-1.0332 -0.5735,-1.3424 -0.3824,-0.3091 -0.9478,-0.4637 -1.6963,-0.4637l-2.6603 0 1.0739 -0.9518 0 13.2772 -4.4176 0zm8.103 0l-3.2705 -6.6386 4.8325 0 3.2705 6.6386 -4.8325 0zm5.5159 -8.2983c0,-1.2691 0.2034,-2.4325 0.6102,-3.4901 0.4067,-1.0577 0.9844,-1.9729 1.7328,-2.7458 0.7485,-0.7729 1.6434,-1.3708 2.6848,-1.7939 1.0413,-0.423 2.1966,-0.6346 3.4657,-0.6346 1.2692,0 2.4285,0.2116 3.478,0.6346 1.0495,0.4231 1.9525,1.021 2.7091,1.7939 0.7566,0.7729 1.3383,1.6881 1.7451,2.7458 0.4068,1.0576 0.6102,2.221 0.6102,3.4901 0,1.2692 -0.2034,2.4326 -0.6102,3.4902 -0.4068,1.0576 -0.9885,1.9729 -1.7451,2.7457 -0.7566,0.7729 -1.6596,1.3668 -2.7091,1.7817 -1.0495,0.4149 -2.2088,0.6224 -3.478,0.6224 -1.2691,0 -2.4244,-0.2075 -3.4657,-0.6224 -1.0414,-0.4149 -1.9363,-1.0088 -2.6848,-1.7817 -0.7484,-0.7728 -1.3261,-1.6881 -1.7328,-2.7457 -0.4068,-1.0576 -0.6102,-2.221 -0.6102,-3.4902zm4.5152 0c0,0.9112 0.1668,1.6841 0.5004,2.3187 0.3335,0.6345 0.8013,1.1145 1.4034,1.44 0.602,0.3254 1.2935,0.4881 2.0745,0.4881 0.7973,0 1.497,-0.1627 2.099,-0.4881 0.602,-0.3255 1.0739,-0.8095 1.4156,-1.4522 0.3417,-0.6428 0.5125,-1.4197 0.5125,-2.3309 0,-0.9112 -0.1708,-1.684 -0.5125,-2.3186 -0.3417,-0.6346 -0.8136,-1.1146 -1.4156,-1.44 -0.602,-0.3254 -1.3017,-0.4882 -2.099,-0.4882 -0.781,0 -1.4725,0.1668 -2.0745,0.5004 -0.6021,0.3335 -1.0699,0.8176 -1.4034,1.4522 -0.3336,0.6346 -0.5004,1.4074 -0.5004,2.3186zm-118.446 31.9941l-7.8346 -11.0806 1.6597 -0.4394 0 11.52 -4.4176 0 0 -16.621 4.1247 0 7.8102 11.0807 -1.6597 0.4393 0 -11.52 4.442 0 0 16.621 -4.1247 0zm5.4671 -8.2983c0,-1.2691 0.2034,-2.4325 0.6102,-3.4901 0.4067,-1.0577 0.9844,-1.9729 1.7328,-2.7458 0.7485,-0.7729 1.6434,-1.3708 2.6848,-1.7939 1.0413,-0.423 2.1966,-0.6346 3.4657,-0.6346 1.2692,0 2.4285,0.2116 3.478,0.6346 1.0495,0.4231 1.9525,1.021 2.7091,1.7939 0.7566,0.7729 1.3383,1.6881 1.7451,2.7458 0.4068,1.0576 0.6102,2.221 0.6102,3.4901 0,1.2692 -0.2034,2.4326 -0.6102,3.4902 -0.4068,1.0576 -0.9885,1.9729 -1.7451,2.7457 -0.7566,0.7729 -1.6596,1.3668 -2.7091,1.7817 -1.0495,0.4149 -2.2088,0.6224 -3.478,0.6224 -1.2691,0 -2.4244,-0.2075 -3.4657,-0.6224 -1.0414,-0.4149 -1.9363,-1.0088 -2.6848,-1.7817 -0.7484,-0.7728 -1.3261,-1.6881 -1.7328,-2.7457 -0.4068,-1.0576 -0.6102,-2.221 -0.6102,-3.4902zm4.5152 0c0,0.9112 0.1668,1.6841 0.5004,2.3187 0.3335,0.6345 0.8013,1.1145 1.4034,1.44 0.602,0.3254 1.2935,0.4881 2.0745,0.4881 0.7973,0 1.497,-0.1627 2.099,-0.4881 0.602,-0.3255 1.0739,-0.8095 1.4156,-1.4522 0.3417,-0.6428 0.5125,-1.4197 0.5125,-2.3309 0,-0.9112 -0.1708,-1.684 -0.5125,-2.3186 -0.3417,-0.6346 -0.8136,-1.1146 -1.4156,-1.44 -0.602,-0.3254 -1.3017,-0.4882 -2.099,-0.4882 -0.781,0 -1.4725,0.1668 -2.0745,0.5004 -0.6021,0.3335 -1.0699,0.8176 -1.4034,1.4522 -0.3336,0.6346 -0.5004,1.4074 -0.5004,2.3186zm22.8935 2.099l0 -4.2224 6.9315 0 0 4.2224 -6.9315 0zm-0.0732 -6.1993l1.7817 -1.9525 0 12.3986 -1.9037 -2.2699 8.4203 0 0 4.2224 -10.9342 0 0 -16.621 10.9342 0 0 4.2224 -8.2983 0zm16.2793 12.8379c-1.0414,0 -1.9892,-0.1505 -2.8434,-0.4515 -0.8542,-0.301 -1.6108,-0.7363 -2.2698,-1.3058 -0.659,-0.5695 -1.2082,-1.261 -1.6475,-2.0745l3.3193 -2.1722c0.4231,0.602 0.9722,1.0861 1.6475,1.4522 0.6752,0.3661 1.3627,0.5491 2.0624,0.5491 0.5369,0 0.9396,-0.1057 1.2081,-0.3173 0.2685,-0.2115 0.4027,-0.4718 0.4027,-0.781 0,-0.2115 -0.061,-0.3986 -0.1831,-0.5613 -0.122,-0.1627 -0.362,-0.3214 -0.72,-0.476 -0.3579,-0.1545 -0.8786,-0.305 -1.562,-0.4515 -1.4318,-0.3254 -2.5708,-0.7363 -3.4169,-1.2325 -0.8461,-0.4963 -1.4482,-1.0983 -1.8061,-1.8061 -0.358,-0.7078 -0.537,-1.5173 -0.537,-2.4285 0,-1.0088 0.2604,-1.9241 0.781,-2.7457 0.5207,-0.8217 1.2651,-1.4766 2.2333,-1.9648 0.9681,-0.4881 2.1193,-0.7322 3.4535,-0.7322 1.497,0 2.7742,0.297 3.8319,0.8909 1.0576,0.5939 1.8711,1.3545 2.4406,2.282l-3.3193 2.3918c-0.3742,-0.5044 -0.8746,-0.8664 -1.501,-1.0861 -0.6264,-0.2196 -1.2244,-0.3294 -1.7939,-0.3294 -0.5044,0 -0.9071,0.0935 -1.2081,0.2806 -0.301,0.1872 -0.4515,0.4434 -0.4515,0.7688 0,0.3255 0.1667,0.5858 0.5003,0.7811 0.3336,0.1952 0.9966,0.4067 1.9891,0.6345 1.3668,0.3092 2.4855,0.7038 3.356,1.1838 0.8705,0.48 1.5132,1.0739 1.9281,1.7816 0.4149,0.7078 0.6224,1.5743 0.6224,2.5994 0,1.025 -0.2604,1.9403 -0.781,2.7457 -0.5207,0.8054 -1.2692,1.4359 -2.2455,1.8915 -0.9762,0.4556 -2.1396,0.6834 -3.4901,0.6834zm21.2582 -0.0976c-1.6109,0 -2.9329,-0.2888 -3.9661,-0.8664 -1.0332,-0.5777 -1.798,-1.44 -2.2942,-2.5872 -0.4963,-1.1471 -0.7444,-2.5749 -0.7444,-4.2833l0 -9.2258 4.442 0 0 9.6407c0,0.9437 0.2115,1.68 0.6346,2.2088 0.423,0.5288 1.0657,0.7932 1.9281,0.7932 0.8624,0 1.5051,-0.2644 1.9281,-0.7932 0.4231,-0.5288 0.6346,-1.2651 0.6346,-2.2088l0 -9.6407 4.442 0 0 9.2258c0,1.7084 -0.2481,3.1362 -0.7444,4.2833 -0.4963,1.1472 -1.2569,2.0095 -2.282,2.5872 -1.0251,0.5776 -2.3512,0.8664 -3.9783,0.8664zm19.5498 -0.3417l-7.8346 -11.0806 1.6597 -0.4394 0 11.52 -4.4176 0 0 -16.621 4.1247 0 7.8102 11.0807 -1.6597 0.4393 0 -11.52 4.442 0 0 16.621 -4.1247 0zm9.2501 -6.5654l6.9559 0 0 4.0759 -6.9559 0 0 -4.0759zm-4.0271 6.5654l5.882 -16.621 4.4177 0 5.345 16.621 -4.442 0 -3.9783 -13.6189 1.7573 0 -4.5641 13.6189 -4.4176 0zm-102.337 15.3975l2.6359 0c0.7485,0 1.3139,-0.1708 1.6963,-0.5125 0.3824,-0.3417 0.5735,-0.838 0.5735,-1.4888 0,-0.6671 -0.1911,-1.1715 -0.5735,-1.5132 -0.3824,-0.3417 -0.9478,-0.5126 -1.6963,-0.5126l-2.6603 0 1.0739 -0.9518 0 13.2772 -4.4176 0 0 -16.621 6.1505 0c1.3179,0 2.4732,0.24 3.4657,0.72 0.9926,0.48 1.7654,1.1878 2.3187,2.1234 0.5532,0.9356 0.8298,2.0949 0.8298,3.478 0,1.383 -0.2766,2.5423 -0.8298,3.4779 -0.5533,0.9356 -1.3261,1.6434 -2.3187,2.1234 -0.9925,0.48 -2.1478,0.72 -3.4657,0.72l-2.7824 0 0 -4.32zm13.7409 1.7329l6.9559 0 0 4.0759 -6.9559 0 0 -4.0759zm-4.0271 6.5654l5.882 -16.621 4.4177 0 5.345 16.621 -4.442 0 -3.9783 -13.6189 1.7573 0 -4.5641 13.6189 -4.4176 0zm20.0867 -8.2983l2.6359 0c0.7485,0 1.3139,-0.1708 1.6963,-0.5125 0.3824,-0.3417 0.5735,-0.838 0.5735,-1.4888 0,-0.6671 -0.1911,-1.1715 -0.5735,-1.5132 -0.3824,-0.3417 -0.9478,-0.5126 -1.6963,-0.5126l-2.6603 0 1.0739 -0.9518 0 13.2772 -4.4176 0 0 -16.621 6.1505 0c1.3179,0 2.4732,0.24 3.4657,0.72 0.9926,0.48 1.7654,1.1878 2.3187,2.1234 0.5532,0.9356 0.8298,2.0949 0.8298,3.478 0,1.383 -0.2766,2.5423 -0.8298,3.4779 -0.5533,0.9356 -1.3261,1.6434 -2.3187,2.1234 -0.9925,0.48 -2.1478,0.72 -3.4657,0.72l-2.7824 0 0 -4.32zm13.326 2.099l0 -4.2224 6.9315 0 0 4.2224 -6.9315 0zm-0.0732 -6.1993l1.7817 -1.9525 0 12.3986 -1.9037 -2.2699 8.4203 0 0 4.2224 -10.9342 0 0 -16.621 10.9342 0 0 4.2224 -8.2983 0zm20.5749 12.3986l-10.4949 0 0 -16.621 4.4176 0 0 14.4 -1.3668 -2.0746 7.4441 0 0 4.2956zm4.1491 -6.1993l0 -4.2224 6.9315 0 0 4.2224 -6.9315 0zm-0.0732 -6.1993l1.7817 -1.9525 0 12.3986 -1.9037 -2.2699 8.4203 0 0 4.2224 -10.9342 0 0 -16.621 10.9342 0 0 4.2224 -8.2983 0zm10.08 12.3986l0 -16.621 6.1505 0c1.2203,0 2.3308,0.2319 3.3315,0.6956 1.0007,0.4638 1.7979,1.1471 2.3918,2.0502 0.5939,0.903 0.8909,2.0217 0.8909,3.3559 0,1.3342 -0.297,2.4529 -0.8909,3.3559 -0.5939,0.9031 -1.3911,1.5824 -2.3918,2.038 -1.0007,0.4556 -2.1112,0.6834 -3.3315,0.6834l-2.7824 0 0 -4.2956 2.6359 0c0.7485,0 1.3139,-0.1464 1.6963,-0.4393 0.3824,-0.2929 0.5735,-0.7404 0.5735,-1.3424 0,-0.5857 -0.1911,-1.0332 -0.5735,-1.3424 -0.3824,-0.3091 -0.9478,-0.4637 -1.6963,-0.4637l-2.6603 0 1.0739 -0.9518 0 13.2772 -4.4176 0zm8.103 0l-3.2705 -6.6386 4.8325 0 3.2705 6.6386 -4.8325 0zm9.2989 -6.5654l6.9559 0 0 4.0759 -6.9559 0 0 -4.0759zm-4.0271 6.5654l5.882 -16.621 4.4177 0 5.345 16.621 -4.442 0 -3.9783 -13.6189 1.7573 0 -4.5641 13.6189 -4.4176 0z"/>
   <path id="_457064944" class="fil2" d="M130.036 159.2c-1.4186,11.3845 -18.54,15.6052 -21.1323,20.5128 -1.6168,3.0608 -1.394,13.2154 -1.0869,17.3297 0.478,6.4064 8.1106,3.028 6.2526,11.3086l-13.2505 -0.0242 -0.2318 -64.5024c0,-12.0454 -0.6174,-56.5008 0.1054,-64.6479l7.0353 0.0414 0.0821 48.2075c0,7.418 -1.0885,16.3016 2.1064,22.4766 2.7844,5.3819 12.602,8.5015 20.1197,9.2979z"/>
   <path id="_457065064" class="fil3" d="M163.118 147.922c0.3104,-5.7162 2.1486,-12.6596 4.6713,-17.6233 1.0421,-2.0506 1.5529,-2.8648 2.7187,-4.7792 0.1809,0.2025 0.2264,0.3457 0.2853,0.6753 0.0493,0.2757 0.0744,0.5613 0.1176,0.8437 0.5788,3.7899 0.4715,8.768 -0.7876,12.2519 -0.7041,1.9479 -1.887,3.5006 -2.96,4.798 -0.6311,0.7631 -3.2211,3.4886 -4.0453,3.8336zm-15.2561 -21.8828l-0.335 1.1034c-0.2797,0.4513 -0.8185,2.617 -0.8565,3.2169 -0.7253,1.705 -1.407,7.114 -1.6624,9.3103 -2.1228,18.2589 2.5043,38.9413 10.0791,55.3162l3.6738 7.3196 -4.5756 2.3543c-1.2004,0.3698 -1.5796,0.434 -2.1093,1.339 -0.3708,0.6338 -0.6957,1.5784 -0.678,2.53l25.2915 0.0112 -1.4715 -6.7035c-0.8532,-1.8754 -1.6565,-3.8071 -2.4114,-5.7141 -1.5494,-3.9144 -3.2053,-7.7159 -4.5411,-11.8481 -1.3792,-4.267 -2.5116,-8.3971 -3.4623,-12.9271 -0.6867,-3.272 -1.9847,-11.2332 -1.8275,-14.3772l7.8991 -6.5864c2.1439,-2.2148 4.6063,-5.1578 5.8313,-8.7055 2.7679,-8.0164 1.5036,-17.3495 -1.1531,-24.9293 -1.4757,-4.2103 -2.5448,-6.9514 -5.6117,-8.9306 -3.331,-2.1495 -7.9932,-2.0443 -11.2524,0.0764 -4.2154,2.7429 -9.6042,13.0768 -10.827,18.1445z"/>
   <path id="_457065136" class="fil3" d="M160.418 78.4995c-7.4159,1.0339 -12.1986,7.3361 -11.3447,14.3159 0.8049,6.5794 6.7572,12.2218 14.4087,11.2653 6.49,-0.8113 12.1685,-6.816 11.1797,-14.3909 -0.5094,-3.9019 -2.4565,-6.5083 -4.5303,-8.3038 -2.0942,-1.8132 -5.8584,-3.4239 -9.7134,-2.8865z"/>
   <path id="_457063960" class="fil3" d="M142.603 150.704l-0.2996 -1.3431c-1.5823,0.2215 -3.1138,0.9183 -4.5332,1.2984 0.0708,0.5069 0.2639,1.0712 0.5035,1.3588l4.3293 -1.3141z"/>
   <path id="_457064200" class="fil3" d="M130.515 155.682c1.1972,-0.494 2.5919,-1.6253 3.9814,-2.0297l-0.4879 -1.3269c-0.8232,0.1263 -3.6033,1.726 -4.2366,2.1345l0.7431 1.2221z"/>
   <path id="_457064464" class="fil3" d="M124.653 160.906c0.2053,-0.0807 3.4387,-2.8066 3.5802,-2.9658l-0.8092 -1.1204 -3.6037 3.0915 0.8327 0.9947z"/>
   <g>
    <path id="_457064632" class="fil1" d="M196.413 158.221l-2.9958 0 0.1397 -4.9826 0.2018 -2.5922 2.3128 0 0.2018 2.6077 0.1397 4.9671zm-1.4901 -11.2225c0.4553,0 0.8433,0.1578 1.1641,0.4734 0.3208,0.3156 0.4812,0.7063 0.4812,1.1719 0,0.4553 -0.1604,0.8434 -0.4812,1.1642 -0.3208,0.3208 -0.7088,0.4812 -1.1641,0.4812 -0.4554,0 -0.846,-0.1604 -1.172,-0.4812 -0.3259,-0.3208 -0.4889,-0.7089 -0.4889,-1.1642 0,-0.4656 0.1604,-0.8563 0.4812,-1.1719 0.3208,-0.3156 0.714,-0.4734 1.1797,-0.4734zm9.5461 8.1957l-4.9826 -7.0471 1.0555 -0.2794 0 7.3265 -2.8095 0 0 -10.5706 2.6233 0 4.9671 7.0471 -1.0555 0.2794 0 -7.3265 2.825 0 0 10.5706 -2.6233 0zm7.5749 0.2173c-0.8072,0 -1.516,-0.1733 -2.1266,-0.52 -0.6105,-0.3466 -1.0891,-0.8227 -1.4358,-1.428 -0.3466,-0.6054 -0.52,-1.2961 -0.52,-2.0722 0,-0.7761 0.1734,-1.4669 0.52,-2.0723 0.3467,-0.6053 0.8253,-1.0813 1.4358,-1.428 0.6106,-0.3467 1.3194,-0.52 2.1266,-0.52 0.8071,0 1.5186,0.1733 2.1343,0.52 0.6157,0.3467 1.0943,0.8227 1.4358,1.428 0.3415,0.6054 0.5122,1.2962 0.5122,2.0723 0,0.7761 -0.1707,1.4668 -0.5122,2.0722 -0.3415,0.6053 -0.8201,1.0814 -1.4358,1.428 -0.6157,0.3467 -1.3272,0.52 -2.1343,0.52zm0 -2.7474c0.3518,0 0.6467,-0.119 0.8847,-0.357 0.238,-0.238 0.357,-0.5485 0.357,-0.9314 0,-0.3828 -0.119,-0.6907 -0.357,-0.9235 -0.238,-0.2329 -0.5329,-0.3493 -0.8847,-0.3493 -0.3519,0 -0.6442,0.1164 -0.877,0.3493 -0.2329,0.2328 -0.3493,0.5407 -0.3493,0.9235 0,0.3829 0.1164,0.6934 0.3493,0.9314 0.2328,0.238 0.5251,0.357 0.877,0.357zm11.3157 2.7319c-0.5174,0 -0.9831,-0.1087 -1.397,-0.326 -0.4139,-0.2173 -0.7399,-0.5174 -0.9779,-0.9003 -0.238,-0.3828 -0.357,-0.8175 -0.357,-1.3038 0,-0.5588 0.1319,-1.0245 0.3958,-1.397 0.2639,-0.3726 0.6054,-0.6545 1.0245,-0.846 0.4191,-0.1914 0.8666,-0.2871 1.3427,-0.2871 0.7657,0 1.3944,0.1759 1.8859,0.5277 0.4915,0.3518 0.8046,0.8796 0.9391,1.5833l-1.071 -0.3105 0 -1.6453c0,-0.2484 -0.0906,-0.4528 -0.2717,-0.6132 -0.1811,-0.1603 -0.4424,-0.2405 -0.7838,-0.2405 -0.2794,0 -0.6028,0.0362 -0.9702,0.1086 -0.3673,0.0724 -0.7528,0.2121 -1.1564,0.4191l-0.8071 -1.9558c0.476,-0.238 1.0011,-0.4372 1.5755,-0.5976 0.5743,-0.1604 1.1771,-0.2406 1.8083,-0.2406 0.7451,0 1.3737,0.132 1.886,0.3958 0.5122,0.2639 0.8977,0.6416 1.1564,1.1331 0.2587,0.4916 0.388,1.0788 0.388,1.7618l0 4.5325 -2.4215 0 -0.4967 -1.5367 1.1642 -0.3725c-0.1552,0.6312 -0.4605,1.1409 -0.9158,1.5289 -0.4553,0.3881 -1.1021,0.5821 -1.9403,0.5821zm1.0245 -1.8161c0.238,0 0.4294,-0.0699 0.5743,-0.2096 0.1449,-0.1397 0.2173,-0.3078 0.2173,-0.5044 0,-0.1966 -0.0724,-0.3648 -0.2173,-0.5045 -0.1449,-0.1397 -0.3363,-0.2096 -0.5743,-0.2096 -0.2587,0 -0.4579,0.0699 -0.5976,0.2096 -0.1397,0.1397 -0.2096,0.3079 -0.2096,0.5045 0,0.1966 0.0699,0.3647 0.2096,0.5044 0.1397,0.1397 0.3389,0.2096 0.5976,0.2096zm6.8297 -5.9916l0.7451 2.1421 0 5.4638 -2.8095 0 0 -7.6059 2.0644 0zm0.0466 3.865l-0.4036 -0.1707 0 -2.2352 0.1552 -0.1863c0.1345,-0.1759 0.3234,-0.3803 0.5666,-0.6131 0.2432,-0.2328 0.5251,-0.4372 0.8459,-0.6131 0.3208,-0.1759 0.6571,-0.2639 1.009,-0.2639 0.1759,0 0.3285,0.0129 0.4579,0.0388 0.1293,0.0259 0.2354,0.0647 0.3182,0.1164l0 2.5612 -0.5278 0c-0.6312,0 -1.1564,0.1087 -1.5755,0.326 -0.4191,0.2173 -0.7011,0.5639 -0.8459,1.0399zm5.9139 -3.865l0.7451 2.1421 0 5.4638 -2.8095 0 0 -7.6059 2.0644 0zm0.0466 3.865l-0.4036 -0.1707 0 -2.2352 0.1552 -0.1863c0.1345,-0.1759 0.3234,-0.3803 0.5666,-0.6131 0.2432,-0.2328 0.5251,-0.4372 0.8459,-0.6131 0.3208,-0.1759 0.6571,-0.2639 1.009,-0.2639 0.1759,0 0.3285,0.0129 0.4579,0.0388 0.1293,0.0259 0.2354,0.0647 0.3182,0.1164l0 2.5612 -0.5278 0c-0.6312,0 -1.1564,0.1087 -1.5755,0.326 -0.4191,0.2173 -0.7011,0.5639 -0.8459,1.0399zm7.4972 3.9582c-0.8072,0 -1.516,-0.1733 -2.1266,-0.52 -0.6105,-0.3466 -1.0891,-0.8227 -1.4358,-1.428 -0.3466,-0.6054 -0.52,-1.2961 -0.52,-2.0722 0,-0.7761 0.1734,-1.4669 0.52,-2.0723 0.3467,-0.6053 0.8253,-1.0813 1.4358,-1.428 0.6106,-0.3467 1.3194,-0.52 2.1266,-0.52 0.8071,0 1.5186,0.1733 2.1343,0.52 0.6157,0.3467 1.0943,0.8227 1.4358,1.428 0.3415,0.6054 0.5122,1.2962 0.5122,2.0723 0,0.7761 -0.1707,1.4668 -0.5122,2.0722 -0.3415,0.6053 -0.8201,1.0814 -1.4358,1.428 -0.6157,0.3467 -1.3272,0.52 -2.1343,0.52zm0 -2.7474c0.3518,0 0.6467,-0.119 0.8847,-0.357 0.238,-0.238 0.357,-0.5485 0.357,-0.9314 0,-0.3828 -0.119,-0.6907 -0.357,-0.9235 -0.238,-0.2329 -0.5329,-0.3493 -0.8847,-0.3493 -0.3519,0 -0.6442,0.1164 -0.877,0.3493 -0.2329,0.2328 -0.3493,0.5407 -0.3493,0.9235 0,0.3829 0.1164,0.6934 0.3493,0.9314 0.2328,0.238 0.5251,0.357 0.877,0.357zm5.1379 5.5725c-0.2794,0 -0.5123,-0.0207 -0.6985,-0.0621 -0.1863,-0.0414 -0.3053,-0.0725 -0.3571,-0.0932l0 -2.3749c0.0621,0.0104 0.1268,0.0207 0.1941,0.0311 0.0672,0.0103 0.1681,0.0155 0.3027,0.0155 0.1759,0 0.3156,-0.0724 0.4191,-0.2173 0.1034,-0.1449 0.1552,-0.3467 0.1552,-0.6054l0 -7.342 2.8095 0 0 8.0871c0,0.445 -0.0957,0.8615 -0.2872,1.2495 -0.1914,0.3881 -0.4941,0.7037 -0.908,0.9469 -0.4139,0.2432 -0.9572,0.3648 -1.6298,0.3648zm-0.1708 -13.0853c0,-0.4863 0.1449,-0.8744 0.4346,-1.1641 0.2898,-0.2898 0.6727,-0.4346 1.1487,-0.4346 0.4863,0 0.8718,0.1448 1.1564,0.4346 0.2846,0.2897 0.4268,0.6778 0.4268,1.1641 0,0.4657 -0.1422,0.8408 -0.4268,1.1254 -0.2846,0.2846 -0.6701,0.4269 -1.1564,0.4269 -0.476,0 -0.8589,-0.1423 -1.1487,-0.4269 -0.2897,-0.2846 -0.4346,-0.6597 -0.4346,-1.1254zm6.6435 10.2447c-0.5174,0 -0.9831,-0.1087 -1.397,-0.326 -0.4139,-0.2173 -0.7399,-0.5174 -0.9779,-0.9003 -0.238,-0.3828 -0.357,-0.8175 -0.357,-1.3038 0,-0.5588 0.1319,-1.0245 0.3958,-1.397 0.2639,-0.3726 0.6054,-0.6545 1.0245,-0.846 0.4191,-0.1914 0.8666,-0.2871 1.3427,-0.2871 0.7657,0 1.3944,0.1759 1.8859,0.5277 0.4915,0.3518 0.8046,0.8796 0.9391,1.5833l-1.071 -0.3105 0 -1.6453c0,-0.2484 -0.0906,-0.4528 -0.2717,-0.6132 -0.1811,-0.1603 -0.4424,-0.2405 -0.7838,-0.2405 -0.2794,0 -0.6028,0.0362 -0.9702,0.1086 -0.3673,0.0724 -0.7528,0.2121 -1.1564,0.4191l-0.8071 -1.9558c0.476,-0.238 1.0011,-0.4372 1.5755,-0.5976 0.5743,-0.1604 1.1771,-0.2406 1.8083,-0.2406 0.7451,0 1.3737,0.132 1.886,0.3958 0.5122,0.2639 0.8977,0.6416 1.1564,1.1331 0.2587,0.4916 0.388,1.0788 0.388,1.7618l0 4.5325 -2.4215 0 -0.4967 -1.5367 1.1642 -0.3725c-0.1552,0.6312 -0.4605,1.1409 -0.9158,1.5289 -0.4553,0.3881 -1.1021,0.5821 -1.9403,0.5821zm1.0245 -1.8161c0.238,0 0.4294,-0.0699 0.5743,-0.2096 0.1449,-0.1397 0.2173,-0.3078 0.2173,-0.5044 0,-0.1966 -0.0724,-0.3648 -0.2173,-0.5045 -0.1449,-0.1397 -0.3363,-0.2096 -0.5743,-0.2096 -0.2587,0 -0.4579,0.0699 -0.5976,0.2096 -0.1397,0.1397 -0.2096,0.3079 -0.2096,0.5045 0,0.1966 0.0699,0.3647 0.2096,0.5044 0.1397,0.1397 0.3389,0.2096 0.5976,0.2096zm6.8297 -5.9916l0.7451 2.1421 0 5.4638 -2.8095 0 0 -7.6059 2.0644 0zm0.0466 3.865l-0.4036 -0.1707 0 -2.2352 0.1552 -0.1863c0.1345,-0.1759 0.3234,-0.3803 0.5666,-0.6131 0.2432,-0.2328 0.5251,-0.4372 0.8459,-0.6131 0.3208,-0.1759 0.6571,-0.2639 1.009,-0.2639 0.1759,0 0.3285,0.0129 0.4579,0.0388 0.1293,0.0259 0.2354,0.0647 0.3182,0.1164l0 2.5612 -0.5278 0c-0.6312,0 -1.1564,0.1087 -1.5755,0.326 -0.4191,0.2173 -0.7011,0.5639 -0.8459,1.0399zm-67.357 16.7877c-0.5287,0 -0.9881,-0.1175 -1.3783,-0.3524 -0.3902,-0.235 -0.6923,-0.5937 -0.9063,-1.0762 -0.214,-0.4825 -0.321,-1.093 -0.321,-1.8315 0,-0.6881 0.1112,-1.2734 0.3336,-1.7559 0.2224,-0.4825 0.5307,-0.8538 0.9251,-1.1139 0.3944,-0.2602 0.8518,-0.3902 1.3721,-0.3902 0.5538,0 1.0426,0.1405 1.4664,0.4216 0.4237,0.2811 0.7573,0.6671 1.0006,1.158 0.2434,0.4909 0.3651,1.0511 0.3651,1.6804 0,0.621 -0.1238,1.179 -0.3714,1.6741 -0.2475,0.4951 -0.5874,0.8832 -1.0195,1.1643 -0.4322,0.2812 -0.921,0.4217 -1.4664,0.4217zm-3.6126 2.2154l0 -8.5593 1.6867 0 0.5916 1.8251 -0.1133 0 0 2.4042 0.1133 0 0 4.33 -2.2783 0zm3.172 -4.4433c0.2686,0 0.4993,-0.0986 0.6923,-0.2958 0.193,-0.1972 0.2895,-0.4427 0.2895,-0.7364 0,-0.2937 -0.0965,-0.5412 -0.2895,-0.7426 -0.193,-0.2014 -0.4237,-0.3021 -0.6923,-0.3021 -0.2685,0 -0.5035,0.1007 -0.7049,0.3021 -0.2014,0.2014 -0.3021,0.4489 -0.3021,0.7426 0,0.2937 0.1007,0.5392 0.3021,0.7364 0.2014,0.1972 0.4364,0.2958 0.7049,0.2958zm5.8783 2.2153c-0.4196,0 -0.7972,-0.0881 -1.1329,-0.2643 -0.3356,-0.1762 -0.6,-0.4196 -0.793,-0.7301 -0.193,-0.3104 -0.2895,-0.6629 -0.2895,-1.0573 0,-0.4531 0.107,-0.8307 0.321,-1.1328 0.214,-0.3021 0.4909,-0.5308 0.8307,-0.686 0.3399,-0.1553 0.7028,-0.2329 1.0888,-0.2329 0.621,0 1.1308,0.1427 1.5294,0.428 0.3986,0.2853 0.6524,0.7132 0.7615,1.2839l-0.8685 -0.2518 0 -1.3342c0,-0.2014 -0.0734,-0.3671 -0.2203,-0.4972 -0.1468,-0.1301 -0.3587,-0.1951 -0.6356,-0.1951 -0.2266,0 -0.4888,0.0294 -0.7867,0.0881 -0.2979,0.0587 -0.6105,0.172 -0.9378,0.3398l-0.6545 -1.5859c0.386,-0.193 0.8119,-0.3546 1.2776,-0.4846 0.4657,-0.1301 0.9545,-0.1951 1.4664,-0.1951 0.6042,0 1.114,0.1069 1.5293,0.3209 0.4154,0.214 0.728,0.5203 0.9378,0.9189 0.2098,0.3986 0.3147,0.8748 0.3147,1.4286l0 3.6755 -1.9636 0 -0.4028 -1.2461 0.944 -0.3021c-0.1259,0.5119 -0.3734,0.9251 -0.7426,1.2398 -0.3693,0.3147 -0.8937,0.472 -1.5734,0.472zm0.8307 -1.4727c0.193,0 0.3483,-0.0566 0.4657,-0.1699 0.1175,-0.1133 0.1763,-0.2496 0.1763,-0.4091 0,-0.1594 -0.0588,-0.2958 -0.1763,-0.4091 -0.1174,-0.1132 -0.2727,-0.1699 -0.4657,-0.1699 -0.2098,0 -0.3713,0.0567 -0.4846,0.1699 -0.1133,0.1133 -0.1699,0.2497 -0.1699,0.4091 0,0.1595 0.0566,0.2958 0.1699,0.4091 0.1133,0.1133 0.2748,0.1699 0.4846,0.1699zm7.4768 1.4853c-0.5287,0 -0.9881,-0.1175 -1.3783,-0.3524 -0.3902,-0.235 -0.6923,-0.5937 -0.9063,-1.0762 -0.214,-0.4825 -0.321,-1.093 -0.321,-1.8315 0,-0.6881 0.1112,-1.2734 0.3336,-1.7559 0.2224,-0.4825 0.5307,-0.8538 0.9251,-1.1139 0.3944,-0.2602 0.8518,-0.3902 1.3721,-0.3902 0.5538,0 1.0426,0.1405 1.4664,0.4216 0.4237,0.2811 0.7573,0.6671 1.0006,1.158 0.2434,0.4909 0.3651,1.0511 0.3651,1.6804 0,0.621 -0.1238,1.179 -0.3714,1.6741 -0.2475,0.4951 -0.5874,0.8832 -1.0195,1.1643 -0.4322,0.2812 -0.921,0.4217 -1.4664,0.4217zm-3.6126 2.2154l0 -8.5593 1.6867 0 0.5916 1.8251 -0.1133 0 0 2.4042 0.1133 0 0 4.33 -2.2783 0zm3.172 -4.4433c0.2686,0 0.4993,-0.0986 0.6923,-0.2958 0.193,-0.1972 0.2895,-0.4427 0.2895,-0.7364 0,-0.2937 -0.0965,-0.5412 -0.2895,-0.7426 -0.193,-0.2014 -0.4237,-0.3021 -0.6923,-0.3021 -0.2685,0 -0.5035,0.1007 -0.7049,0.3021 -0.2014,0.2014 -0.3021,0.4489 -0.3021,0.7426 0,0.2937 0.1007,0.5392 0.3021,0.7364 0.2014,0.1972 0.4364,0.2958 0.7049,0.2958zm6.8097 2.165c-0.6293,0 -1.179,-0.1301 -1.6489,-0.3902 -0.4699,-0.2602 -0.835,-0.6294 -1.0951,-1.1077 -0.2601,-0.4783 -0.3902,-1.0447 -0.3902,-1.6993 0,-0.6293 0.1301,-1.1895 0.3902,-1.6804 0.2601,-0.4909 0.6252,-0.8769 1.0951,-1.158 0.4699,-0.2811 1.0196,-0.4216 1.6489,-0.4216 0.6546,0 1.2147,0.1489 1.6804,0.4468 0.4657,0.2979 0.8245,0.6902 1.0762,1.1769 0.2518,0.4867 0.3776,1.0196 0.3776,1.5986 0,0.151 -0.0042,0.2895 -0.0126,0.4154 -0.0083,0.1258 -0.0209,0.2223 -0.0377,0.2895l-4.6069 0 0 -1.4727 2.8195 0 -0.1133 0.3776c0,-0.3273 -0.0944,-0.5916 -0.2832,-0.793 -0.1888,-0.2014 -0.4804,-0.3021 -0.8748,-0.3021 -0.3608,0 -0.6482,0.1028 -0.8622,0.3084 -0.214,0.2056 -0.321,0.4846 -0.321,0.837l0 0.7049c0,0.386 0.1196,0.6797 0.3587,0.8811 0.2392,0.2014 0.5686,0.3021 0.9881,0.3021 0.3189,0 0.5769,-0.0608 0.7741,-0.1825 0.1972,-0.1217 0.363,-0.2748 0.4972,-0.4594l1.4727 0.7678c-0.2517,0.4699 -0.6356,0.8475 -1.1517,1.1328 -0.5161,0.2853 -1.1098,0.428 -1.7811,0.428zm6.0418 -0.0504c-0.3776,0 -0.7321,-0.0692 -1.0636,-0.2077 -0.3314,-0.1384 -0.6,-0.3671 -0.8056,-0.686 -0.2056,-0.3188 -0.3084,-0.7552 -0.3084,-1.309l0 -6.4321 2.2783 0 0 5.6265c0,0.344 0.0483,0.558 0.1448,0.6419 0.0965,0.084 0.237,0.1259 0.4217,0.1259l0 2.2154c-0.0672,0.0084 -0.1721,0.0146 -0.3147,0.0188 -0.1427,0.0042 -0.2602,0.0063 -0.3525,0.0063zm7.6782 0.1133c-0.6545,0 -1.2293,-0.1405 -1.7244,-0.4217 -0.4951,-0.2811 -0.8832,-0.6671 -1.1643,-1.158 -0.2811,-0.4909 -0.4217,-1.051 -0.4217,-1.6804 0,-0.6293 0.1406,-1.1895 0.4217,-1.6804 0.2811,-0.4909 0.6692,-0.8769 1.1643,-1.158 0.4951,-0.2811 1.0699,-0.4216 1.7244,-0.4216 0.6546,0 1.2315,0.1405 1.7308,0.4216 0.4993,0.2811 0.8874,0.6671 1.1643,1.158 0.2769,0.4909 0.4154,1.0511 0.4154,1.6804 0,0.6294 -0.1385,1.1895 -0.4154,1.6804 -0.2769,0.4909 -0.665,0.8769 -1.1643,1.158 -0.4993,0.2812 -1.0762,0.4217 -1.7308,0.4217zm0 -2.2279c0.2854,0 0.5245,-0.0965 0.7175,-0.2895 0.193,-0.193 0.2895,-0.4448 0.2895,-0.7553 0,-0.3104 -0.0965,-0.5601 -0.2895,-0.7489 -0.193,-0.1888 -0.4321,-0.2832 -0.7175,-0.2832 -0.2853,0 -0.5223,0.0944 -0.7111,0.2832 -0.1888,0.1888 -0.2832,0.4385 -0.2832,0.7489 0,0.3105 0.0944,0.5623 0.2832,0.7553 0.1888,0.193 0.4258,0.2895 0.7111,0.2895zm10.1706 2.2279c-0.6294,0 -1.1853,-0.1405 -1.6678,-0.4217 -0.4826,-0.2811 -0.8581,-0.6692 -1.1266,-1.1643 -0.2685,-0.4951 -0.4028,-1.0573 -0.4028,-1.6867 0,-0.6209 0.1343,-1.1769 0.4028,-1.6678 0.2685,-0.4909 0.644,-0.8769 1.1266,-1.158 0.4825,-0.2811 1.0384,-0.4216 1.6678,-0.4216 0.7468,0 1.3804,0.1741 1.9006,0.5223 0.5203,0.3483 0.8895,0.8203 1.1077,1.4161l-2.0265 0.9188c-0.1007,-0.193 -0.2182,-0.3482 -0.3525,-0.4657 -0.1342,-0.1175 -0.3314,-0.1762 -0.5916,-0.1762 -0.2685,0 -0.4972,0.0944 -0.686,0.2832 -0.1888,0.1888 -0.2832,0.4385 -0.2832,0.7489 0,0.3189 0.0944,0.5707 0.2832,0.7553 0.1888,0.1846 0.4175,0.2769 0.686,0.2769 0.2602,0 0.4574,-0.0566 0.5916,-0.1699 0.1343,-0.1133 0.2518,-0.2623 0.3525,-0.4469l2.0265 0.9063c-0.2182,0.5874 -0.5916,1.0594 -1.1203,1.4161 -0.5286,0.3566 -1.158,0.5349 -1.888,0.5349zm3.5998 -0.1762l0 -8.5719 2.2783 0 0 8.5719 -2.2783 0zm3.7384 0l0 -3.4363c0,-0.2853 -0.0356,-0.4699 -0.1069,-0.5538 -0.0714,-0.084 -0.1909,-0.1259 -0.3588,-0.1259 -0.1091,0 -0.2245,0.0189 -0.3461,0.0566 -0.1217,0.0378 -0.2518,0.0965 -0.3902,0.1762 -0.1385,0.0798 -0.2874,0.1784 -0.4469,0.2958l-0.8307 -1.372c0.2014,-0.2265 0.4426,-0.4447 0.7237,-0.6545 0.2811,-0.2098 0.5916,-0.3839 0.9315,-0.5224 0.3398,-0.1384 0.6986,-0.2076 1.0762,-0.2076 0.4028,0 0.7363,0.0692 1.0007,0.2076 0.2643,0.1385 0.472,0.3252 0.623,0.5602 0.1511,0.2349 0.256,0.5035 0.3147,0.8056 0.0588,0.302 0.0881,0.6167 0.0881,0.944l0 3.8265 -2.2783 0zm5.5636 0l-2.2909 0 0 -6.1677 2.2909 0 0 6.1677zm-2.4293 -8.1439c0,-0.3944 0.1175,-0.7091 0.3524,-0.9441 0.235,-0.2349 0.5455,-0.3524 0.9315,-0.3524 0.3944,0 0.707,0.1175 0.9377,0.3524 0.2308,0.235 0.3462,0.5497 0.3462,0.9441 0,0.3776 -0.1154,0.6818 -0.3462,0.9126 -0.2307,0.2307 -0.5433,0.3461 -0.9377,0.3461 -0.386,0 -0.6965,-0.1154 -0.9315,-0.3461 -0.2349,-0.2308 -0.3524,-0.535 -0.3524,-0.9126zm6.3691 8.3201c-0.6294,0 -1.1853,-0.1405 -1.6678,-0.4217 -0.4826,-0.2811 -0.8581,-0.6692 -1.1266,-1.1643 -0.2685,-0.4951 -0.4028,-1.0573 -0.4028,-1.6867 0,-0.6209 0.1343,-1.1769 0.4028,-1.6678 0.2685,-0.4909 0.644,-0.8769 1.1266,-1.158 0.4825,-0.2811 1.0384,-0.4216 1.6678,-0.4216 0.7468,0 1.3804,0.1741 1.9006,0.5223 0.5203,0.3483 0.8895,0.8203 1.1077,1.4161l-2.0265 0.9188c-0.1007,-0.193 -0.2182,-0.3482 -0.3525,-0.4657 -0.1342,-0.1175 -0.3314,-0.1762 -0.5916,-0.1762 -0.2685,0 -0.4972,0.0944 -0.686,0.2832 -0.1888,0.1888 -0.2832,0.4385 -0.2832,0.7489 0,0.3189 0.0944,0.5707 0.2832,0.7553 0.1888,0.1846 0.4175,0.2769 0.686,0.2769 0.2602,0 0.4574,-0.0566 0.5916,-0.1699 0.1343,-0.1133 0.2518,-0.2623 0.3525,-0.4469l2.0265 0.9063c-0.2182,0.5874 -0.5916,1.0594 -1.1203,1.4161 -0.5286,0.3566 -1.158,0.5349 -1.888,0.5349zm5.7774 -0.1133c-0.3776,0 -0.7321,-0.0692 -1.0636,-0.2077 -0.3314,-0.1384 -0.6,-0.3671 -0.8056,-0.686 -0.2056,-0.3188 -0.3084,-0.7552 -0.3084,-1.309l0 -6.4321 2.2783 0 0 5.6265c0,0.344 0.0483,0.558 0.1448,0.6419 0.0965,0.084 0.237,0.1259 0.4217,0.1259l0 2.2154c-0.0672,0.0084 -0.1721,0.0146 -0.3147,0.0188 -0.1427,0.0042 -0.2602,0.0063 -0.3525,0.0063zm4.2293 0.0504c-0.6293,0 -1.179,-0.1301 -1.6489,-0.3902 -0.4699,-0.2602 -0.835,-0.6294 -1.0951,-1.1077 -0.2601,-0.4783 -0.3902,-1.0447 -0.3902,-1.6993 0,-0.6293 0.1301,-1.1895 0.3902,-1.6804 0.2601,-0.4909 0.6252,-0.8769 1.0951,-1.158 0.4699,-0.2811 1.0196,-0.4216 1.6489,-0.4216 0.6546,0 1.2147,0.1489 1.6804,0.4468 0.4657,0.2979 0.8245,0.6902 1.0762,1.1769 0.2518,0.4867 0.3776,1.0196 0.3776,1.5986 0,0.151 -0.0042,0.2895 -0.0126,0.4154 -0.0083,0.1258 -0.0209,0.2223 -0.0377,0.2895l-4.6069 0 0 -1.4727 2.8195 0 -0.1133 0.3776c0,-0.3273 -0.0944,-0.5916 -0.2832,-0.793 -0.1888,-0.2014 -0.4804,-0.3021 -0.8748,-0.3021 -0.3608,0 -0.6482,0.1028 -0.8622,0.3084 -0.214,0.2056 -0.321,0.4846 -0.321,0.837l0 0.7049c0,0.386 0.1196,0.6797 0.3587,0.8811 0.2392,0.2014 0.5686,0.3021 0.9881,0.3021 0.3189,0 0.5769,-0.0608 0.7741,-0.1825 0.1972,-0.1217 0.363,-0.2748 0.4972,-0.4594l1.4727 0.7678c-0.2517,0.4699 -0.6356,0.8475 -1.1517,1.1328 -0.5161,0.2853 -1.1098,0.428 -1.7811,0.428zm9.6166 0.0629c-0.5454,0 -1.0321,-0.1405 -1.4601,-0.4217 -0.428,-0.2811 -0.7636,-0.6692 -1.007,-1.1643 -0.2433,-0.4951 -0.365,-1.0531 -0.365,-1.6741 0,-0.6293 0.1238,-1.1895 0.3713,-1.6804 0.2476,-0.4909 0.5874,-0.8769 1.0196,-1.158 0.4322,-0.2811 0.921,-0.4216 1.4664,-0.4216 0.5287,0 0.9881,0.1174 1.3783,0.3524 0.3902,0.235 0.6923,0.5937 0.9063,1.0762 0.214,0.4825 0.321,1.093 0.321,1.8314 0,0.6797 -0.1112,1.263 -0.3336,1.7497 -0.2224,0.4867 -0.5308,0.8601 -0.9252,1.1202 -0.3944,0.2602 -0.8517,0.3902 -1.372,0.3902zm0.4658 -2.2279c0.2769,0 0.5139,-0.0986 0.7111,-0.2958 0.1972,-0.1972 0.2958,-0.4427 0.2958,-0.7364 0,-0.2937 -0.0986,-0.5412 -0.2958,-0.7426 -0.1972,-0.2014 -0.4342,-0.3021 -0.7111,-0.3021 -0.2686,0 -0.4993,0.1007 -0.6923,0.3021 -0.193,0.2014 -0.2895,0.4489 -0.2895,0.7426 0,0.2937 0.0965,0.5392 0.2895,0.7364 0.193,0.1972 0.4237,0.2958 0.6923,0.2958zm1.4852 2.0517l-0.5916 -1.8251 0.1133 0 0 -2.4042 -0.1133 0 0 -4.3426 2.2783 0 0 8.5719 -1.6867 0zm5.551 0.1133c-0.6293,0 -1.179,-0.1301 -1.6489,-0.3902 -0.4699,-0.2602 -0.835,-0.6294 -1.0951,-1.1077 -0.2601,-0.4783 -0.3902,-1.0447 -0.3902,-1.6993 0,-0.6293 0.1301,-1.1895 0.3902,-1.6804 0.2601,-0.4909 0.6252,-0.8769 1.0951,-1.158 0.4699,-0.2811 1.0196,-0.4216 1.6489,-0.4216 0.6546,0 1.2147,0.1489 1.6804,0.4468 0.4657,0.2979 0.8245,0.6902 1.0762,1.1769 0.2518,0.4867 0.3776,1.0196 0.3776,1.5986 0,0.151 -0.0042,0.2895 -0.0126,0.4154 -0.0083,0.1258 -0.0209,0.2223 -0.0377,0.2895l-4.6069 0 0 -1.4727 2.8195 0 -0.1133 0.3776c0,-0.3273 -0.0944,-0.5916 -0.2832,-0.793 -0.1888,-0.2014 -0.4804,-0.3021 -0.8748,-0.3021 -0.3608,0 -0.6482,0.1028 -0.8622,0.3084 -0.214,0.2056 -0.321,0.4846 -0.321,0.837l0 0.7049c0,0.386 0.1196,0.6797 0.3587,0.8811 0.2392,0.2014 0.5686,0.3021 0.9881,0.3021 0.3189,0 0.5769,-0.0608 0.7741,-0.1825 0.1972,-0.1217 0.363,-0.2748 0.4972,-0.4594l1.4727 0.7678c-0.2517,0.4699 -0.6356,0.8475 -1.1517,1.1328 -0.5161,0.2853 -1.1098,0.428 -1.7811,0.428zm7.8544 -6.4572c0.4028,0 0.7363,0.0692 1.0007,0.2076 0.2643,0.1385 0.472,0.3252 0.623,0.5602 0.1511,0.2349 0.256,0.5035 0.3147,0.8056 0.0588,0.302 0.0881,0.6167 0.0881,0.944l0 3.8265 -2.2783 0 0 -3.4363c0,-0.2853 -0.0356,-0.4699 -0.1069,-0.5538 -0.0714,-0.084 -0.1909,-0.1259 -0.3588,-0.1259 -0.1091,0 -0.2245,0.0189 -0.3461,0.0566 -0.1217,0.0378 -0.2518,0.0965 -0.3902,0.1762 -0.1385,0.0798 -0.2874,0.1784 -0.4469,0.2958l-0.5664 -1.1076 0.7552 0 0 4.695 -2.2783 0 0 -6.1677 1.6741 0 0.4532 1.3216 -0.8685 -0.1133c0.2014,-0.2265 0.4426,-0.4447 0.7237,-0.6545 0.2811,-0.2098 0.5916,-0.3839 0.9315,-0.5224 0.3398,-0.1384 0.6986,-0.2076 1.0762,-0.2076zm6.1174 6.4446c-0.7888,0 -1.4056,-0.1783 -1.8503,-0.535 -0.4448,-0.3566 -0.6672,-0.9545 -0.6672,-1.7936l0 -3.8643 -0.0377 -0.0755 0.4783 -1.5483 1.8377 0 0 4.758c0,0.3273 0.0713,0.5538 0.214,0.6797 0.1427,0.1259 0.3357,0.1888 0.579,0.1888 0.1175,0 0.2329,-0.0126 0.3462,-0.0377 0.1132,-0.0252 0.2076,-0.0504 0.2832,-0.0756l0 2.1399c-0.1762,0.0587 -0.3588,0.1007 -0.5476,0.1258 -0.1888,0.0252 -0.4007,0.0378 -0.6356,0.0378zm-3.4867 -4.1664l0 -2.102 4.6699 0 0 2.102 -4.6699 0zm7.4012 -2.102l0.6042 1.737 0 4.4307 -2.2783 0 0 -6.1677 1.6741 0zm0.0378 3.1342l-0.3273 -0.1385 0 -1.8125 0.1259 -0.1511c0.1091,-0.1426 0.2622,-0.3084 0.4594,-0.4972 0.1972,-0.1888 0.4259,-0.3545 0.686,-0.4972 0.2602,-0.1426 0.5329,-0.2139 0.8182,-0.2139 0.1427,0 0.2664,0.0104 0.3713,0.0314 0.1049,0.021 0.1909,0.0525 0.2581,0.0944l0 2.0769 -0.428 0c-0.5119,0 -0.9377,0.0881 -1.2776,0.2643 -0.3398,0.1763 -0.5685,0.4574 -0.686,0.8434zm6.0796 3.2097c-0.6545,0 -1.2293,-0.1405 -1.7244,-0.4217 -0.4951,-0.2811 -0.8832,-0.6671 -1.1643,-1.158 -0.2811,-0.4909 -0.4217,-1.051 -0.4217,-1.6804 0,-0.6293 0.1406,-1.1895 0.4217,-1.6804 0.2811,-0.4909 0.6692,-0.8769 1.1643,-1.158 0.4951,-0.2811 1.0699,-0.4216 1.7244,-0.4216 0.6546,0 1.2315,0.1405 1.7308,0.4216 0.4993,0.2811 0.8874,0.6671 1.1643,1.158 0.2769,0.4909 0.4154,1.0511 0.4154,1.6804 0,0.6294 -0.1385,1.1895 -0.4154,1.6804 -0.2769,0.4909 -0.665,0.8769 -1.1643,1.158 -0.4993,0.2812 -1.0762,0.4217 -1.7308,0.4217zm0 -2.2279c0.2854,0 0.5245,-0.0965 0.7175,-0.2895 0.193,-0.193 0.2895,-0.4448 0.2895,-0.7553 0,-0.3104 -0.0965,-0.5601 -0.2895,-0.7489 -0.193,-0.1888 -0.4321,-0.2832 -0.7175,-0.2832 -0.2853,0 -0.5223,0.0944 -0.7111,0.2832 -0.1888,0.1888 -0.2832,0.4385 -0.2832,0.7489 0,0.3105 0.0944,0.5623 0.2832,0.7553 0.1888,0.193 0.4258,0.2895 0.7111,0.2895zm-113.108 14.4484c-0.5454,0 -1.0321,-0.1405 -1.4601,-0.4217 -0.428,-0.2811 -0.7636,-0.6692 -1.007,-1.1643 -0.2433,-0.4951 -0.365,-1.0531 -0.365,-1.6741 0,-0.6293 0.1238,-1.1895 0.3713,-1.6804 0.2476,-0.4909 0.5874,-0.8769 1.0196,-1.158 0.4322,-0.2811 0.921,-0.4216 1.4664,-0.4216 0.5287,0 0.9881,0.1174 1.3783,0.3524 0.3902,0.235 0.6923,0.5937 0.9063,1.0762 0.214,0.4825 0.321,1.093 0.321,1.8314 0,0.6797 -0.1112,1.263 -0.3336,1.7497 -0.2224,0.4867 -0.5308,0.8601 -0.9252,1.1202 -0.3944,0.2602 -0.8517,0.3902 -1.372,0.3902zm0.4658 -2.2279c0.2769,0 0.5139,-0.0986 0.7111,-0.2958 0.1972,-0.1972 0.2958,-0.4427 0.2958,-0.7364 0,-0.2937 -0.0986,-0.5412 -0.2958,-0.7426 -0.1972,-0.2014 -0.4342,-0.3021 -0.7111,-0.3021 -0.2686,0 -0.4993,0.1007 -0.6923,0.3021 -0.193,0.2014 -0.2895,0.4489 -0.2895,0.7426 0,0.2937 0.0965,0.5392 0.2895,0.7364 0.193,0.1972 0.4237,0.2958 0.6923,0.2958zm1.4852 2.0517l-0.5916 -1.8251 0.1133 0 0 -2.4042 -0.1133 0 0 -4.3426 2.2783 0 0 8.5719 -1.6867 0zm5.551 0.1133c-0.6293,0 -1.179,-0.1301 -1.6489,-0.3902 -0.4699,-0.2602 -0.835,-0.6294 -1.0951,-1.1077 -0.2601,-0.4783 -0.3902,-1.0447 -0.3902,-1.6993 0,-0.6293 0.1301,-1.1895 0.3902,-1.6804 0.2601,-0.4909 0.6252,-0.8769 1.0951,-1.158 0.4699,-0.2811 1.0196,-0.4216 1.6489,-0.4216 0.6546,0 1.2147,0.1489 1.6804,0.4468 0.4657,0.2979 0.8245,0.6902 1.0762,1.1769 0.2518,0.4867 0.3776,1.0196 0.3776,1.5986 0,0.151 -0.0042,0.2895 -0.0126,0.4154 -0.0083,0.1258 -0.0209,0.2223 -0.0377,0.2895l-4.6069 0 0 -1.4727 2.8195 0 -0.1133 0.3776c0,-0.3273 -0.0944,-0.5916 -0.2832,-0.793 -0.1888,-0.2014 -0.4804,-0.3021 -0.8748,-0.3021 -0.3608,0 -0.6482,0.1028 -0.8622,0.3084 -0.214,0.2056 -0.321,0.4846 -0.321,0.837l0 0.7049c0,0.386 0.1196,0.6797 0.3587,0.8811 0.2392,0.2014 0.5686,0.3021 0.9881,0.3021 0.3189,0 0.5769,-0.0608 0.7741,-0.1825 0.1972,-0.1217 0.363,-0.2748 0.4972,-0.4594l1.4727 0.7678c-0.2517,0.4699 -0.6356,0.8475 -1.1517,1.1328 -0.5161,0.2853 -1.1098,0.428 -1.7811,0.428zm6.0418 -0.0504c-0.3776,0 -0.7321,-0.0692 -1.0636,-0.2077 -0.3314,-0.1384 -0.6,-0.3671 -0.8056,-0.686 -0.2056,-0.3188 -0.3084,-0.7552 -0.3084,-1.309l0 -6.4321 2.2783 0 0 5.6265c0,0.344 0.0483,0.558 0.1448,0.6419 0.0965,0.084 0.237,0.1259 0.4217,0.1259l0 2.2154c-0.0672,0.0084 -0.1721,0.0146 -0.3147,0.0188 -0.1427,0.0042 -0.2602,0.0063 -0.3525,0.0063z"/>
    <path id="_457064272" class="fil1" d="M214.003 180.285l0 -6.1677 1.6741 0 0.4532 1.3216 -0.8685 -0.1133c0.2014,-0.2265 0.4426,-0.4447 0.7237,-0.6545 0.2811,-0.2098 0.5916,-0.3839 0.9315,-0.5224 0.3398,-0.1384 0.6986,-0.2076 1.0762,-0.2076 0.386,0 0.7028,0.0692 0.9503,0.2076 0.2476,0.1385 0.4406,0.3252 0.579,0.5602 0.1385,0.2349 0.2371,0.5035 0.2958,0.8056 0.0588,0.302 0.0881,0.6167 0.0881,0.944l0 3.8265 -2.2782 0 0 -3.4363c0,-0.2853 -0.0357,-0.4699 -0.107,-0.5538 -0.0714,-0.084 -0.17,-0.1259 -0.2958,-0.1259 -0.1679,0 -0.3399,0.044 -0.5161,0.1322 -0.1762,0.0881 -0.3818,0.2202 -0.6168,0.3964l-0.5664 -1.1076 0.7552 0 0 4.695 -2.2783 0zm7.2377 0l0 -3.4363c0,-0.2853 -0.0336,-0.4699 -0.1007,-0.5538 -0.0671,-0.084 -0.1636,-0.1259 -0.2895,-0.1259 -0.1678,0 -0.3399,0.044 -0.5161,0.1322 -0.1762,0.0881 -0.3818,0.2202 -0.6168,0.3964l-0.8307 -1.372c0.2014,-0.2265 0.4426,-0.4447 0.7237,-0.6545 0.2812,-0.2098 0.5916,-0.3839 0.9315,-0.5224 0.3399,-0.1384 0.6944,-0.2076 1.0636,-0.2076 0.386,0 0.7049,0.0692 0.9566,0.2076 0.2518,0.1385 0.4469,0.3252 0.5854,0.5602 0.1384,0.2349 0.237,0.5035 0.2957,0.8056 0.0588,0.302 0.0882,0.6167 0.0882,0.944l0 3.8265 -2.2909 0zm5.5635 0l-2.2909 0 0 -6.1677 2.2909 0 0 6.1677zm-2.4293 -8.1439c0,-0.3944 0.1175,-0.7091 0.3524,-0.9441 0.235,-0.2349 0.5455,-0.3524 0.9315,-0.3524 0.3944,0 0.707,0.1175 0.9377,0.3524 0.2308,0.235 0.3462,0.5497 0.3462,0.9441 0,0.3776 -0.1154,0.6818 -0.3462,0.9126 -0.2307,0.2307 -0.5433,0.3461 -0.9377,0.3461 -0.386,0 -0.6965,-0.1154 -0.9315,-0.3461 -0.2349,-0.2308 -0.3524,-0.535 -0.3524,-0.9126zm7.5145 1.8c0.4028,0 0.7363,0.0692 1.0007,0.2076 0.2643,0.1385 0.472,0.3252 0.623,0.5602 0.1511,0.2349 0.256,0.5035 0.3147,0.8056 0.0588,0.302 0.0881,0.6167 0.0881,0.944l0 3.8265 -2.2783 0 0 -3.4363c0,-0.2853 -0.0356,-0.4699 -0.1069,-0.5538 -0.0714,-0.084 -0.1909,-0.1259 -0.3588,-0.1259 -0.1091,0 -0.2245,0.0189 -0.3461,0.0566 -0.1217,0.0378 -0.2518,0.0965 -0.3902,0.1762 -0.1385,0.0798 -0.2874,0.1784 -0.4469,0.2958l-0.5664 -1.1076 0.7552 0 0 4.695 -2.2783 0 0 -6.1677 1.6741 0 0.4532 1.3216 -0.8685 -0.1133c0.2014,-0.2265 0.4426,-0.4447 0.7237,-0.6545 0.2811,-0.2098 0.5916,-0.3839 0.9315,-0.5224 0.3398,-0.1384 0.6986,-0.2076 1.0762,-0.2076zm5.7775 8.8865c-0.3189,0 -0.6566,-0.0503 -1.0132,-0.151 -0.3567,-0.1007 -0.6902,-0.2686 -1.0007,-0.5035 -0.3105,-0.235 -0.5581,-0.5539 -0.7427,-0.9566l-0.1133 -0.2518 1.586 -0.7678c0.2014,0.2937 0.3965,0.4993 0.5853,0.6168 0.1888,0.1174 0.4343,0.1762 0.7364,0.1762 0.2937,0 0.5412,-0.0965 0.7426,-0.2895 0.2014,-0.193 0.3021,-0.4741 0.3021,-0.8434l0 -1.9258 0.1133 0 0 -2.014 -0.1133 0 0.5916 -1.7999 1.6867 0 0 5.1985c0,0.73 -0.1259,1.3573 -0.3776,1.8818 -0.2518,0.5244 -0.6273,0.9272 -1.1266,1.2083 -0.4993,0.2812 -1.1181,0.4217 -1.8566,0.4217zm-0.3147 -2.8321c-0.537,0 -1.0174,-0.1301 -1.4412,-0.3902 -0.4238,-0.2601 -0.7594,-0.6189 -1.007,-1.0762 -0.2475,-0.4573 -0.3713,-0.9755 -0.3713,-1.5545 0,-0.579 0.1196,-1.0972 0.3587,-1.5546 0.2392,-0.4573 0.5686,-0.8181 0.9881,-1.0825 0.4196,-0.2643 0.8979,-0.3964 1.435,-0.3964 0.4867,0 0.9146,0.1279 1.2839,0.3839 0.3692,0.2559 0.6587,0.6104 0.8685,1.0636 0.2098,0.4531 0.3147,0.9818 0.3147,1.586 0,0.6461 -0.0986,1.1937 -0.2958,1.6426 -0.1972,0.4489 -0.4783,0.7909 -0.8434,1.0259 -0.365,0.2349 -0.7951,0.3524 -1.2902,0.3524zm0.5035 -2.014c0.2769,0 0.514,-0.0986 0.7112,-0.2958 0.1972,-0.1972 0.2958,-0.4342 0.2958,-0.7111 0,-0.2937 -0.0986,-0.5392 -0.2958,-0.7364 -0.1972,-0.1972 -0.4343,-0.2958 -0.7112,-0.2958 -0.2853,0 -0.5244,0.0986 -0.7174,0.2958 -0.193,0.1972 -0.2895,0.4427 -0.2895,0.7364 0,0.2769 0.0965,0.5139 0.2895,0.7111 0.193,0.1972 0.4321,0.2958 0.7174,0.2958zm6.558 2.3035l-2.2909 0 0 -6.1677 2.2909 0 0 6.1677zm-2.4293 -8.1439c0,-0.3944 0.1175,-0.7091 0.3524,-0.9441 0.235,-0.2349 0.5455,-0.3524 0.9315,-0.3524 0.3944,0 0.707,0.1175 0.9377,0.3524 0.2308,0.235 0.3462,0.5497 0.3462,0.9441 0,0.3776 -0.1154,0.6818 -0.3462,0.9126 -0.2307,0.2307 -0.5433,0.3461 -0.9377,0.3461 -0.386,0 -0.6965,-0.1154 -0.9315,-0.3461 -0.2349,-0.2308 -0.3524,-0.535 -0.3524,-0.9126zm6.646 8.2446c-0.7888,0 -1.4056,-0.1783 -1.8503,-0.535 -0.4448,-0.3566 -0.6672,-0.9545 -0.6672,-1.7936l0 -3.8643 -0.0377 -0.0755 0.4783 -1.5483 1.8377 0 0 4.758c0,0.3273 0.0713,0.5538 0.214,0.6797 0.1427,0.1259 0.3357,0.1888 0.579,0.1888 0.1175,0 0.2329,-0.0126 0.3462,-0.0377 0.1132,-0.0252 0.2076,-0.0504 0.2832,-0.0756l0 2.1399c-0.1762,0.0587 -0.3588,0.1007 -0.5476,0.1258 -0.1888,0.0252 -0.4007,0.0378 -0.6356,0.0378zm-3.4867 -4.1664l0 -2.102 4.6699 0 0 2.102 -4.6699 0zm8.6851 4.2419c-0.6545,0 -1.2293,-0.1405 -1.7244,-0.4217 -0.4951,-0.2811 -0.8832,-0.6671 -1.1643,-1.158 -0.2811,-0.4909 -0.4217,-1.051 -0.4217,-1.6804 0,-0.6293 0.1406,-1.1895 0.4217,-1.6804 0.2811,-0.4909 0.6692,-0.8769 1.1643,-1.158 0.4951,-0.2811 1.0699,-0.4216 1.7244,-0.4216 0.6546,0 1.2315,0.1405 1.7308,0.4216 0.4993,0.2811 0.8874,0.6671 1.1643,1.158 0.2769,0.4909 0.4154,1.0511 0.4154,1.6804 0,0.6294 -0.1385,1.1895 -0.4154,1.6804 -0.2769,0.4909 -0.665,0.8769 -1.1643,1.158 -0.4993,0.2812 -1.0762,0.4217 -1.7308,0.4217zm0 -2.2279c0.2854,0 0.5245,-0.0965 0.7175,-0.2895 0.193,-0.193 0.2895,-0.4448 0.2895,-0.7553 0,-0.3104 -0.0965,-0.5601 -0.2895,-0.7489 -0.193,-0.1888 -0.4321,-0.2832 -0.7175,-0.2832 -0.2853,0 -0.5223,0.0944 -0.7111,0.2832 -0.1888,0.1888 -0.2832,0.4385 -0.2832,0.7489 0,0.3105 0.0944,0.5623 0.2832,0.7553 0.1888,0.193 0.4258,0.2895 0.7111,0.2895zm5.7272 -4.116l0.6042 1.737 0 4.4307 -2.2783 0 0 -6.1677 1.6741 0zm0.0378 3.1342l-0.3273 -0.1385 0 -1.8125 0.1259 -0.1511c0.1091,-0.1426 0.2622,-0.3084 0.4594,-0.4972 0.1972,-0.1888 0.4259,-0.3545 0.686,-0.4972 0.2602,-0.1426 0.5329,-0.2139 0.8182,-0.2139 0.1427,0 0.2664,0.0104 0.3713,0.0314 0.1049,0.021 0.1909,0.0525 0.2581,0.0944l0 2.0769 -0.428 0c-0.5119,0 -0.9377,0.0881 -1.2776,0.2643 -0.3398,0.1763 -0.5685,0.4574 -0.686,0.8434zm5.4251 3.0335l-2.2909 0 0 -6.1677 2.2909 0 0 6.1677zm-2.4293 -8.1439c0,-0.3944 0.1175,-0.7091 0.3524,-0.9441 0.235,-0.2349 0.5455,-0.3524 0.9315,-0.3524 0.3944,0 0.707,0.1175 0.9377,0.3524 0.2308,0.235 0.3462,0.5497 0.3462,0.9441 0,0.3776 -0.1154,0.6818 -0.3462,0.9126 -0.2307,0.2307 -0.5433,0.3461 -0.9377,0.3461 -0.386,0 -0.6965,-0.1154 -0.9315,-0.3461 -0.2349,-0.2308 -0.3524,-0.535 -0.3524,-0.9126zm6.4823 8.3201c-0.6545,0 -1.2293,-0.1405 -1.7244,-0.4217 -0.4951,-0.2811 -0.8832,-0.6671 -1.1643,-1.158 -0.2811,-0.4909 -0.4217,-1.051 -0.4217,-1.6804 0,-0.6293 0.1406,-1.1895 0.4217,-1.6804 0.2811,-0.4909 0.6692,-0.8769 1.1643,-1.158 0.4951,-0.2811 1.0699,-0.4216 1.7244,-0.4216 0.6546,0 1.2315,0.1405 1.7308,0.4216 0.4993,0.2811 0.8874,0.6671 1.1643,1.158 0.2769,0.4909 0.4154,1.0511 0.4154,1.6804 0,0.6294 -0.1385,1.1895 -0.4154,1.6804 -0.2769,0.4909 -0.665,0.8769 -1.1643,1.158 -0.4993,0.2812 -1.0762,0.4217 -1.7308,0.4217zm0 -2.2279c0.2854,0 0.5245,-0.0965 0.7175,-0.2895 0.193,-0.193 0.2895,-0.4448 0.2895,-0.7553 0,-0.3104 -0.0965,-0.5601 -0.2895,-0.7489 -0.193,-0.1888 -0.4321,-0.2832 -0.7175,-0.2832 -0.2853,0 -0.5223,0.0944 -0.7111,0.2832 -0.1888,0.1888 -0.2832,0.4385 -0.2832,0.7489 0,0.3105 0.0944,0.5623 0.2832,0.7553 0.1888,0.193 0.4258,0.2895 0.7111,0.2895zm4.0657 -6.9607l2.4294 0 -0.1133 4.0405 -0.1637 2.102 -1.8754 0 -0.1511 -2.1146 -0.1259 -4.0279zm1.221 9.1005c-0.3692,0 -0.6839,-0.128 -0.944,-0.3839 -0.2602,-0.2559 -0.3902,-0.5727 -0.3902,-0.9503 0,-0.3693 0.13,-0.6839 0.3902,-0.9441 0.2601,-0.2601 0.5748,-0.3902 0.944,-0.3902 0.3692,0 0.686,0.1301 0.9503,0.3902 0.2644,0.2602 0.3965,0.5748 0.3965,0.9441 0,0.3776 -0.13,0.6944 -0.3902,0.9503 -0.2601,0.2559 -0.579,0.3839 -0.9566,0.3839zm-79.8519 7.7839l3.0162 0 0 1.7674 -3.0162 0 0 -1.7674zm-1.7463 2.8469l2.5506 -7.2072 1.9156 0 2.3177 7.2072 -1.9261 0 -1.7251 -5.9055 0.762 0 -1.9791 5.9055 -1.9156 0zm8.9641 -0.1905l-2.1061 -4.9953 1.9156 0 2.0955 4.9741 -1.905 0.0212zm-0.9207 2.2013l3.0056 -7.1966 1.9156 0 -3.0057 7.1966 -1.9155 0zm7.2601 -1.8626c-0.381,0 -0.695,-0.0547 -0.9419,-0.1641 -0.247,-0.1093 -0.4428,-0.2593 -0.5874,-0.4498 -0.1446,-0.1905 -0.247,-0.4145 -0.3069,-0.672 -0.06,-0.2575 -0.09,-0.5345 -0.09,-0.8308l0 -3.2173 1.9156 0 0 2.8892c0,0.2329 0.0423,0.3863 0.127,0.4604 0.0847,0.0741 0.1975,0.1111 0.3387,0.1111 0.0917,0 0.1834,-0.0123 0.2751,-0.037 0.0917,-0.0247 0.1905,-0.0688 0.2964,-0.1323 0.1058,-0.0635 0.2222,-0.1552 0.3492,-0.2752l0.4657 0.9314 -0.635 0 0 -3.9476 1.9261 0 0 5.1858 -1.4075 0 -0.3916 -1.1112 0.7302 0.0952c-0.1623,0.1834 -0.3528,0.3651 -0.5715,0.545 -0.2187,0.18 -0.4533,0.3281 -0.7038,0.4445 -0.2504,0.1165 -0.5133,0.1747 -0.7884,0.1747zm0.5821 -5.8843l-0.889 -0.9102 1.7462 -1.6087 0.8996 0.8996 -1.7568 1.6193zm5.5456 5.8843c-0.4586,0 -0.8678,-0.1182 -1.2277,-0.3546 -0.3598,-0.2363 -0.642,-0.5627 -0.8466,-0.9789 -0.2046,-0.4163 -0.307,-0.8855 -0.307,-1.4076 0,-0.5292 0.1041,-1.0001 0.3123,-1.4129 0.2081,-0.4127 0.4938,-0.7373 0.8572,-0.9736 0.3634,-0.2364 0.7743,-0.3546 1.233,-0.3546 0.4445,0 0.8307,0.0988 1.1588,0.2963 0.3281,0.1976 0.5821,0.4992 0.762,0.9049 0.1799,0.4057 0.2699,0.919 0.2699,1.5399 0,0.5715 -0.0935,1.0618 -0.2805,1.4711 -0.1869,0.4092 -0.4462,0.7232 -0.7778,0.9419 -0.3316,0.2187 -0.7162,0.3281 -1.1536,0.3281zm0.3916 -1.8733c0.2328,0 0.4321,-0.0829 0.5979,-0.2487 0.1658,-0.1658 0.2487,-0.3722 0.2487,-0.6191 0,-0.247 -0.0829,-0.4551 -0.2487,-0.6244 -0.1658,-0.1694 -0.3651,-0.254 -0.5979,-0.254 -0.2258,0 -0.4198,0.0846 -0.5821,0.254 -0.1623,0.1693 -0.2434,0.3774 -0.2434,0.6244 0,0.2469 0.0811,0.4533 0.2434,0.6191 0.1623,0.1658 0.3563,0.2487 0.5821,0.2487zm1.2488 1.7251l-0.4974 -1.5346 0.0952 0 0 -2.0214 -0.0952 0 0 -3.6512 1.9156 0 0 7.2072 -1.4182 0zm3.884 0.1376c-0.3527,0 -0.6702,-0.0741 -0.9525,-0.2223 -0.2822,-0.1481 -0.5044,-0.3527 -0.6667,-0.6138 -0.1623,-0.2611 -0.2434,-0.5574 -0.2434,-0.889 0,-0.381 0.0899,-0.6985 0.2698,-0.9525 0.18,-0.254 0.4128,-0.4463 0.6985,-0.5768 0.2858,-0.1305 0.5909,-0.1958 0.9155,-0.1958 0.5221,0 0.9507,0.12 1.2859,0.3599 0.3351,0.2398 0.5485,0.5997 0.6403,1.0795l-0.7303 -0.2117 0 -1.1218c0,-0.1694 -0.0617,-0.3087 -0.1852,-0.4181 -0.1235,-0.1093 -0.3016,-0.164 -0.5345,-0.164 -0.1905,0 -0.4109,0.0247 -0.6614,0.0741 -0.2505,0.0494 -0.5133,0.1446 -0.7885,0.2857l-0.5503 -1.3335c0.3246,-0.1623 0.6826,-0.2981 1.0742,-0.4074 0.3916,-0.1094 0.8026,-0.1641 1.233,-0.1641 0.508,0 0.9366,0.09 1.2858,0.2699 0.3493,0.1799 0.6121,0.4374 0.7885,0.7726 0.1764,0.3351 0.2646,0.7355 0.2646,1.2012l0 3.0903 -1.651 0 -0.3387 -1.0477 0.7938 -0.254c-0.1059,0.4303 -0.314,0.7778 -0.6245,1.0424 -0.3104,0.2646 -0.7514,0.3969 -1.3229,0.3969zm0.6985 -1.2383c0.1623,0 0.2928,-0.0476 0.3916,-0.1428 0.0988,-0.0953 0.1482,-0.2099 0.1482,-0.344 0,-0.1341 -0.0494,-0.2487 -0.1482,-0.344 -0.0988,-0.0952 -0.2293,-0.1428 -0.3916,-0.1428 -0.1764,0 -0.3122,0.0476 -0.4074,0.1428 -0.0953,0.0953 -0.1429,0.2099 -0.1429,0.344 0,0.1341 0.0476,0.2487 0.1429,0.344 0.0952,0.0952 0.231,0.1428 0.4074,0.1428zm6.604 -4.2333c0.3387,0 0.6191,0.0582 0.8414,0.1746 0.2222,0.1165 0.3968,0.2734 0.5238,0.471 0.127,0.1976 0.2152,0.4233 0.2646,0.6773 0.0494,0.254 0.0741,0.5186 0.0741,0.7938l0 3.2173 -1.9156 0 0 -2.8892c0,-0.2399 -0.03,-0.3952 -0.0899,-0.4657 -0.06,-0.0706 -0.1605,-0.1058 -0.3017,-0.1058 -0.0917,0 -0.1887,0.0158 -0.291,0.0476 -0.1023,0.0317 -0.2117,0.0811 -0.3281,0.1482 -0.1164,0.067 -0.2416,0.1499 -0.3757,0.2487l-0.4762 -0.9314 0.635 0 0 3.9476 -1.9156 0 0 -5.1858 1.4076 0 0.381 1.1112 -0.7303 -0.0952c0.1693,-0.1905 0.3722,-0.374 0.6086,-0.5504 0.2363,-0.1763 0.4974,-0.3227 0.7831,-0.4392 0.2858,-0.1164 0.5874,-0.1746 0.9049,-0.1746zm5.0059 5.4822c-0.5504,0 -1.0337,-0.1182 -1.45,-0.3546 -0.4162,-0.2363 -0.7425,-0.5609 -0.9789,-0.9736 -0.2364,-0.4128 -0.3546,-0.8837 -0.3546,-1.4129 0,-0.5292 0.1182,-1.0001 0.3546,-1.4129 0.2364,-0.4127 0.5627,-0.7373 0.9789,-0.9736 0.4163,-0.2364 0.8996,-0.3546 1.45,-0.3546 0.5503,0 1.0354,0.1182 1.4552,0.3546 0.4198,0.2363 0.7461,0.5609 0.9789,0.9736 0.2328,0.4128 0.3493,0.8837 0.3493,1.4129 0,0.5292 -0.1165,1.0001 -0.3493,1.4129 -0.2328,0.4127 -0.5591,0.7373 -0.9789,0.9736 -0.4198,0.2364 -0.9049,0.3546 -1.4552,0.3546zm0 -1.8733c0.2398,0 0.4409,-0.0811 0.6032,-0.2434 0.1623,-0.1623 0.2434,-0.3739 0.2434,-0.635 0,-0.261 -0.0811,-0.4709 -0.2434,-0.6297 -0.1623,-0.1587 -0.3634,-0.2381 -0.6032,-0.2381 -0.2399,0 -0.4392,0.0794 -0.598,0.2381 -0.1587,0.1588 -0.2381,0.3687 -0.2381,0.6297 0,0.2611 0.0794,0.4727 0.2381,0.635 0.1588,0.1623 0.3581,0.2434 0.598,0.2434zm5.4821 1.9156c-0.4515,0 -0.8643,-0.0776 -1.2382,-0.2328 -0.374,-0.1553 -0.7373,-0.4269 -1.0901,-0.8149l0.9313 -1.0795c0.2681,0.2398 0.5292,0.4092 0.7832,0.508 0.254,0.0987 0.5009,0.1481 0.7408,0.1481 0.0988,0 0.1852,-0.0159 0.2593,-0.0476 0.0741,-0.0318 0.1111,-0.0723 0.1111,-0.1217 0,-0.0565 -0.0264,-0.1041 -0.0794,-0.1429 -0.0529,-0.0388 -0.1587,-0.0794 -0.3174,-0.1217 -0.1588,-0.0423 -0.3934,-0.1023 -0.7038,-0.1799 -0.5786,-0.1411 -0.9949,-0.3528 -1.2489,-0.635 -0.254,-0.2822 -0.381,-0.628 -0.381,-1.0372 0,-0.3316 0.0882,-0.635 0.2646,-0.9101 0.1764,-0.2752 0.4304,-0.4957 0.762,-0.6615 0.3316,-0.1658 0.7232,-0.2487 1.1748,-0.2487 0.5432,0 1.0001,0.097 1.3705,0.291 0.3704,0.1941 0.6861,0.4322 0.9472,0.7144l-1.0583 0.9843c-0.1905,-0.1553 -0.4057,-0.2734 -0.6456,-0.3546 -0.2399,-0.0811 -0.4939,-0.1217 -0.762,-0.1217 -0.127,0 -0.2275,0.0141 -0.3016,0.0423 -0.0741,0.0283 -0.1112,0.0706 -0.1112,0.127 0,0.0494 0.06,0.0953 0.18,0.1376 0.1199,0.0424 0.3739,0.1129 0.762,0.2117 0.6561,0.1552 1.1324,0.3739 1.4287,0.6562 0.2963,0.2822 0.4445,0.6632 0.4445,1.143 0,0.3386 -0.0917,0.6402 -0.2752,0.9048 -0.1834,0.2646 -0.4409,0.471 -0.7725,0.6192 -0.3317,0.1481 -0.7232,0.2222 -1.1748,0.2222zm7.1543 -0.0529c-0.3527,0 -0.6702,-0.0741 -0.9525,-0.2223 -0.2822,-0.1481 -0.5044,-0.3527 -0.6667,-0.6138 -0.1623,-0.2611 -0.2434,-0.5574 -0.2434,-0.889 0,-0.381 0.0899,-0.6985 0.2698,-0.9525 0.18,-0.254 0.4128,-0.4463 0.6985,-0.5768 0.2858,-0.1305 0.5909,-0.1958 0.9155,-0.1958 0.5221,0 0.9507,0.12 1.2859,0.3599 0.3351,0.2398 0.5485,0.5997 0.6403,1.0795l-0.7303 -0.2117 0 -1.1218c0,-0.1694 -0.0617,-0.3087 -0.1852,-0.4181 -0.1235,-0.1093 -0.3016,-0.164 -0.5345,-0.164 -0.1905,0 -0.4109,0.0247 -0.6614,0.0741 -0.2505,0.0494 -0.5133,0.1446 -0.7885,0.2857l-0.5503 -1.3335c0.3246,-0.1623 0.6826,-0.2981 1.0742,-0.4074 0.3916,-0.1094 0.8026,-0.1641 1.233,-0.1641 0.508,0 0.9366,0.09 1.2858,0.2699 0.3493,0.1799 0.6121,0.4374 0.7885,0.7726 0.1764,0.3351 0.2646,0.7355 0.2646,1.2012l0 3.0903 -1.651 0 -0.3387 -1.0477 0.7938 -0.254c-0.1059,0.4303 -0.314,0.7778 -0.6245,1.0424 -0.3104,0.2646 -0.7514,0.3969 -1.3229,0.3969zm0.6985 -1.2383c0.1623,0 0.2928,-0.0476 0.3916,-0.1428 0.0988,-0.0953 0.1482,-0.2099 0.1482,-0.344 0,-0.1341 -0.0494,-0.2487 -0.1482,-0.344 -0.0988,-0.0952 -0.2293,-0.1428 -0.3916,-0.1428 -0.1764,0 -0.3122,0.0476 -0.4074,0.1428 -0.0953,0.0953 -0.1429,0.2099 -0.1429,0.344 0,0.1341 0.0476,0.2487 0.1429,0.344 0.0952,0.0952 0.231,0.1428 0.4074,0.1428zm6.0008 1.1007l0 -5.1858 1.4076 0 0.381 1.1112 -0.7303 -0.0952c0.1693,-0.1905 0.3722,-0.374 0.6086,-0.5504 0.2363,-0.1763 0.4974,-0.3227 0.7831,-0.4392 0.2858,-0.1164 0.5874,-0.1746 0.9049,-0.1746 0.3245,0 0.5909,0.0582 0.799,0.1746 0.2082,0.1165 0.3704,0.2734 0.4869,0.471 0.1164,0.1976 0.1993,0.4233 0.2487,0.6773 0.0494,0.254 0.074,0.5186 0.074,0.7938l0 3.2173 -1.9155 0 0 -2.8892c0,-0.2399 -0.03,-0.3952 -0.09,-0.4657 -0.06,-0.0706 -0.1429,-0.1058 -0.2487,-0.1058 -0.1411,0 -0.2857,0.037 -0.4339,0.1111 -0.1482,0.0741 -0.321,0.1852 -0.5186,0.3334l-0.4762 -0.9314 0.635 0 0 3.9476 -1.9156 0zm6.0854 0l0 -2.8892c0,-0.2399 -0.0282,-0.3952 -0.0847,-0.4657 -0.0564,-0.0706 -0.1376,-0.1058 -0.2434,-0.1058 -0.1411,0 -0.2858,0.037 -0.4339,0.1111 -0.1482,0.0741 -0.321,0.1852 -0.5186,0.3334l-0.6985 -1.1536c0.1693,-0.1905 0.3722,-0.374 0.6085,-0.5504 0.2364,-0.1763 0.4975,-0.3227 0.7832,-0.4392 0.2858,-0.1164 0.5839,-0.1746 0.8943,-0.1746 0.3245,0 0.5927,0.0582 0.8043,0.1746 0.2117,0.1165 0.3757,0.2734 0.4921,0.471 0.1165,0.1976 0.1994,0.4233 0.2488,0.6773 0.0493,0.254 0.074,0.5186 0.074,0.7938l0 3.2173 -1.9261 0zm4.2968 0.1376c-0.3527,0 -0.6702,-0.0741 -0.9525,-0.2223 -0.2822,-0.1481 -0.5044,-0.3527 -0.6667,-0.6138 -0.1623,-0.2611 -0.2434,-0.5574 -0.2434,-0.889 0,-0.381 0.0899,-0.6985 0.2698,-0.9525 0.18,-0.254 0.4128,-0.4463 0.6985,-0.5768 0.2858,-0.1305 0.5909,-0.1958 0.9155,-0.1958 0.5221,0 0.9507,0.12 1.2859,0.3599 0.3351,0.2398 0.5485,0.5997 0.6403,1.0795l-0.7303 -0.2117 0 -1.1218c0,-0.1694 -0.0617,-0.3087 -0.1852,-0.4181 -0.1235,-0.1093 -0.3016,-0.164 -0.5345,-0.164 -0.1905,0 -0.4109,0.0247 -0.6614,0.0741 -0.2505,0.0494 -0.5133,0.1446 -0.7885,0.2857l-0.5503 -1.3335c0.3246,-0.1623 0.6826,-0.2981 1.0742,-0.4074 0.3916,-0.1094 0.8026,-0.1641 1.233,-0.1641 0.508,0 0.9366,0.09 1.2858,0.2699 0.3493,0.1799 0.6121,0.4374 0.7885,0.7726 0.1764,0.3351 0.2646,0.7355 0.2646,1.2012l0 3.0903 -1.651 0 -0.3387 -1.0477 0.7938 -0.254c-0.1059,0.4303 -0.314,0.7778 -0.6245,1.0424 -0.3104,0.2646 -0.7514,0.3969 -1.3229,0.3969zm0.6985 -1.2383c0.1623,0 0.2928,-0.0476 0.3916,-0.1428 0.0988,-0.0953 0.1482,-0.2099 0.1482,-0.344 0,-0.1341 -0.0494,-0.2487 -0.1482,-0.344 -0.0988,-0.0952 -0.2293,-0.1428 -0.3916,-0.1428 -0.1764,0 -0.3122,0.0476 -0.4074,0.1428 -0.0953,0.0953 -0.1429,0.2099 -0.1429,0.344 0,0.1341 0.0476,0.2487 0.1429,0.344 0.0952,0.0952 0.231,0.1428 0.4074,0.1428zm6.604 -4.2333c0.3387,0 0.6191,0.0582 0.8414,0.1746 0.2222,0.1165 0.3968,0.2734 0.5238,0.471 0.127,0.1976 0.2152,0.4233 0.2646,0.6773 0.0494,0.254 0.0741,0.5186 0.0741,0.7938l0 3.2173 -1.9156 0 0 -2.8892c0,-0.2399 -0.03,-0.3952 -0.0899,-0.4657 -0.06,-0.0706 -0.1605,-0.1058 -0.3017,-0.1058 -0.0917,0 -0.1887,0.0158 -0.291,0.0476 -0.1023,0.0317 -0.2117,0.0811 -0.3281,0.1482 -0.1164,0.067 -0.2416,0.1499 -0.3757,0.2487l-0.4762 -0.9314 0.635 0 0 3.9476 -1.9156 0 0 -5.1858 1.4076 0 0.381 1.1112 -0.7303 -0.0952c0.1693,-0.1905 0.3722,-0.374 0.6086,-0.5504 0.2363,-0.1763 0.4974,-0.3227 0.7831,-0.4392 0.2858,-0.1164 0.5874,-0.1746 0.9049,-0.1746zm5.1434 5.4187c-0.6632,0 -1.1818,-0.15 -1.5557,-0.4498 -0.3739,-0.2999 -0.5609,-0.8026 -0.5609,-1.5081l0 -3.2491 -0.0318 -0.0635 0.4022 -1.3018 1.5452 0 0 4.0005c0,0.2752 0.0599,0.4657 0.1799,0.5715 0.1199,0.1059 0.2822,0.1588 0.4868,0.1588 0.0988,0 0.1958,-0.0106 0.291,-0.0318 0.0953,-0.0211 0.1747,-0.0423 0.2382,-0.0635l0 1.7992c-0.1482,0.0494 -0.3017,0.0846 -0.4604,0.1058 -0.1588,0.0212 -0.3369,0.0318 -0.5345,0.0318zm-2.9315 -3.5031l0 -1.7674 3.9264 0 0 1.7674 -3.9264 0zm7.1543 3.5136c-0.5292,0 -0.9913,-0.1093 -1.3864,-0.328 -0.3951,-0.2188 -0.702,-0.5292 -0.9208,-0.9314 -0.2187,-0.4021 -0.3281,-0.8784 -0.3281,-1.4287 0,-0.5292 0.1094,-1.0001 0.3281,-1.4129 0.2188,-0.4127 0.5257,-0.7373 0.9208,-0.9736 0.3951,-0.2364 0.8572,-0.3546 1.3864,-0.3546 0.5503,0 1.0213,0.1253 1.4129,0.3757 0.3915,0.2505 0.6932,0.5803 0.9048,0.9896 0.2117,0.4092 0.3175,0.8572 0.3175,1.344 0,0.127 -0.0035,0.2435 -0.0106,0.3493 -0.007,0.1058 -0.0176,0.187 -0.0317,0.2434l-3.8735 0 0 -1.2382 2.3707 0 -0.0953 0.3175c0,-0.2752 -0.0794,-0.4975 -0.2381,-0.6668 -0.1588,-0.1693 -0.4039,-0.254 -0.7355,-0.254 -0.3034,0 -0.5451,0.0864 -0.725,0.2593 -0.1799,0.1729 -0.2699,0.4075 -0.2699,0.7038l0 0.5927c0,0.3245 0.1006,0.5715 0.3017,0.7408 0.201,0.1693 0.478,0.254 0.8307,0.254 0.2682,0 0.4851,-0.0512 0.6509,-0.1535 0.1658,-0.1023 0.3052,-0.231 0.4181,-0.3863l1.2382 0.6456c-0.2117,0.3951 -0.5345,0.7126 -0.9684,0.9525 -0.4339,0.2399 -0.9331,0.3598 -1.4975,0.3598zm6.604 -5.4292c0.3387,0 0.6191,0.0582 0.8414,0.1746 0.2222,0.1165 0.3968,0.2734 0.5238,0.471 0.127,0.1976 0.2152,0.4233 0.2646,0.6773 0.0494,0.254 0.0741,0.5186 0.0741,0.7938l0 3.2173 -1.9156 0 0 -2.8892c0,-0.2399 -0.03,-0.3952 -0.0899,-0.4657 -0.06,-0.0706 -0.1605,-0.1058 -0.3017,-0.1058 -0.0917,0 -0.1887,0.0158 -0.291,0.0476 -0.1023,0.0317 -0.2117,0.0811 -0.3281,0.1482 -0.1164,0.067 -0.2416,0.1499 -0.3757,0.2487l-0.4762 -0.9314 0.635 0 0 3.9476 -1.9156 0 0 -5.1858 1.4076 0 0.381 1.1112 -0.7303 -0.0952c0.1693,-0.1905 0.3722,-0.374 0.6086,-0.5504 0.2363,-0.1763 0.4974,-0.3227 0.7831,-0.4392 0.2858,-0.1164 0.5874,-0.1746 0.9049,-0.1746zm4.8577 5.4292c-0.5292,0 -0.9913,-0.1093 -1.3864,-0.328 -0.3951,-0.2188 -0.702,-0.5292 -0.9208,-0.9314 -0.2187,-0.4021 -0.3281,-0.8784 -0.3281,-1.4287 0,-0.5292 0.1094,-1.0001 0.3281,-1.4129 0.2188,-0.4127 0.5257,-0.7373 0.9208,-0.9736 0.3951,-0.2364 0.8572,-0.3546 1.3864,-0.3546 0.5503,0 1.0213,0.1253 1.4129,0.3757 0.3915,0.2505 0.6932,0.5803 0.9048,0.9896 0.2117,0.4092 0.3175,0.8572 0.3175,1.344 0,0.127 -0.0035,0.2435 -0.0106,0.3493 -0.007,0.1058 -0.0176,0.187 -0.0317,0.2434l-3.8735 0 0 -1.2382 2.3707 0 -0.0953 0.3175c0,-0.2752 -0.0794,-0.4975 -0.2381,-0.6668 -0.1588,-0.1693 -0.4039,-0.254 -0.7355,-0.254 -0.3034,0 -0.5451,0.0864 -0.725,0.2593 -0.1799,0.1729 -0.2699,0.4075 -0.2699,0.7038l0 0.5927c0,0.3245 0.1006,0.5715 0.3017,0.7408 0.201,0.1693 0.478,0.254 0.8307,0.254 0.2682,0 0.4851,-0.0512 0.6509,-0.1535 0.1658,-0.1023 0.3052,-0.231 0.4181,-0.3863l1.2382 0.6456c-0.2117,0.3951 -0.5345,0.7126 -0.9684,0.9525 -0.4339,0.2399 -0.9331,0.3598 -1.4975,0.3598zm4.6567 -5.281l0.508 1.4605 0 3.7253 -1.9156 0 0 -5.1858 1.4076 0zm0.0317 2.6352l-0.2752 -0.1164 0 -1.524 0.1059 -0.127c0.0917,-0.1199 0.2205,-0.2593 0.3863,-0.418 0.1658,-0.1588 0.358,-0.2981 0.5768,-0.4181 0.2187,-0.1199 0.448,-0.1799 0.6879,-0.1799 0.1199,0 0.224,0.0088 0.3122,0.0265 0.0882,0.0176 0.1605,0.0441 0.2169,0.0793l0 1.7463 -0.3598 0c-0.4304,0 -0.7885,0.0741 -1.0742,0.2222 -0.2857,0.1482 -0.478,0.3846 -0.5768,0.7091zm-98.7633 12.9103c-0.6632,0 -1.1818,-0.15 -1.5557,-0.4498 -0.3739,-0.2999 -0.5609,-0.8026 -0.5609,-1.5081l0 -3.2491 -0.0318 -0.0635 0.4022 -1.3018 1.5452 0 0 4.0005c0,0.2752 0.0599,0.4657 0.1799,0.5715 0.1199,0.1059 0.2822,0.1588 0.4868,0.1588 0.0988,0 0.1958,-0.0106 0.291,-0.0318 0.0953,-0.0211 0.1747,-0.0423 0.2382,-0.0635l0 1.7992c-0.1482,0.0494 -0.3017,0.0846 -0.4604,0.1058 -0.1588,0.0212 -0.3369,0.0318 -0.5345,0.0318zm-2.9315 -3.5031l0 -1.7674 3.9264 0 0 1.7674 -3.9264 0zm6.6569 3.5666c-0.381,0 -0.695,-0.0547 -0.9419,-0.1641 -0.247,-0.1093 -0.4428,-0.2593 -0.5874,-0.4498 -0.1446,-0.1905 -0.247,-0.4145 -0.3069,-0.672 -0.06,-0.2575 -0.09,-0.5345 -0.09,-0.8308l0 -3.2173 1.9156 0 0 2.8892c0,0.2329 0.0423,0.3863 0.127,0.4604 0.0847,0.0741 0.1975,0.1111 0.3387,0.1111 0.0917,0 0.1834,-0.0123 0.2751,-0.037 0.0917,-0.0247 0.1905,-0.0688 0.2964,-0.1323 0.1058,-0.0635 0.2222,-0.1552 0.3492,-0.2752l0.4657 0.9314 -0.635 0 0 -3.9476 1.9261 0 0 5.1858 -1.4075 0 -0.3916 -1.1112 0.7302 0.0952c-0.1623,0.1834 -0.3528,0.3651 -0.5715,0.545 -0.2187,0.18 -0.4533,0.3281 -0.7038,0.4445 -0.2504,0.1165 -0.5133,0.1747 -0.7884,0.1747zm6.1171 0.0423c-0.4515,0 -0.8643,-0.0776 -1.2382,-0.2328 -0.374,-0.1553 -0.7373,-0.4269 -1.0901,-0.8149l0.9313 -1.0795c0.2681,0.2398 0.5292,0.4092 0.7832,0.508 0.254,0.0987 0.5009,0.1481 0.7408,0.1481 0.0988,0 0.1852,-0.0159 0.2593,-0.0476 0.0741,-0.0318 0.1111,-0.0723 0.1111,-0.1217 0,-0.0565 -0.0264,-0.1041 -0.0794,-0.1429 -0.0529,-0.0388 -0.1587,-0.0794 -0.3174,-0.1217 -0.1588,-0.0423 -0.3934,-0.1023 -0.7038,-0.1799 -0.5786,-0.1411 -0.9949,-0.3528 -1.2489,-0.635 -0.254,-0.2822 -0.381,-0.628 -0.381,-1.0372 0,-0.3316 0.0882,-0.635 0.2646,-0.9101 0.1764,-0.2752 0.4304,-0.4957 0.762,-0.6615 0.3316,-0.1658 0.7232,-0.2487 1.1748,-0.2487 0.5432,0 1.0001,0.097 1.3705,0.291 0.3704,0.1941 0.6861,0.4322 0.9472,0.7144l-1.0583 0.9843c-0.1905,-0.1553 -0.4057,-0.2734 -0.6456,-0.3546 -0.2399,-0.0811 -0.4939,-0.1217 -0.762,-0.1217 -0.127,0 -0.2275,0.0141 -0.3016,0.0423 -0.0741,0.0283 -0.1112,0.0706 -0.1112,0.127 0,0.0494 0.06,0.0953 0.18,0.1376 0.1199,0.0424 0.3739,0.1129 0.762,0.2117 0.6561,0.1552 1.1324,0.3739 1.4287,0.6562 0.2963,0.2822 0.4445,0.6632 0.4445,1.143 0,0.3386 -0.0917,0.6402 -0.2752,0.9048 -0.1834,0.2646 -0.4409,0.471 -0.7725,0.6192 -0.3317,0.1481 -0.7232,0.2222 -1.1748,0.2222z"/>
    <path id="_457064152" class="fil1" d="M214.298 201.427c-0.4375,0 -0.822,-0.1094 -1.1536,-0.3281 -0.3316,-0.2187 -0.5909,-0.5327 -0.7779,-0.9419 -0.187,-0.4093 -0.2805,-0.8996 -0.2805,-1.4711 0,-0.6209 0.09,-1.1342 0.2699,-1.5399 0.1799,-0.4057 0.4339,-0.7073 0.762,-0.9049 0.3281,-0.1975 0.7144,-0.2963 1.1589,-0.2963 0.4586,0 0.8696,0.1182 1.2329,0.3546 0.3634,0.2363 0.6492,0.5609 0.8573,0.9736 0.2081,0.4128 0.3122,0.8837 0.3122,1.4129 0,0.5221 -0.1023,0.9913 -0.3069,1.4076 -0.2046,0.4162 -0.4851,0.7426 -0.8414,0.9789 -0.3563,0.2364 -0.7673,0.3546 -1.2329,0.3546zm-3.0586 -0.1482l0 -7.2072 1.9156 0 0 3.6512 -0.0953 0 0 2.0214 0.0953 0 -0.4975 1.5346 -1.4181 0zm2.667 -1.7251c0.2258,0 0.4198,-0.0829 0.5821,-0.2487 0.1622,-0.1658 0.2434,-0.3722 0.2434,-0.6191 0,-0.247 -0.0812,-0.4551 -0.2434,-0.6244 -0.1623,-0.1694 -0.3563,-0.254 -0.5821,-0.254 -0.2258,0 -0.4234,0.0846 -0.5927,0.254 -0.1693,0.1693 -0.254,0.3774 -0.254,0.6244 0,0.2469 0.0847,0.4533 0.254,0.6191 0.1693,0.1658 0.3669,0.2487 0.5927,0.2487zm4.9423 1.8627c-0.3527,0 -0.6702,-0.0741 -0.9525,-0.2223 -0.2822,-0.1481 -0.5044,-0.3527 -0.6667,-0.6138 -0.1623,-0.2611 -0.2434,-0.5574 -0.2434,-0.889 0,-0.381 0.0899,-0.6985 0.2698,-0.9525 0.18,-0.254 0.4128,-0.4463 0.6985,-0.5768 0.2858,-0.1305 0.5909,-0.1958 0.9155,-0.1958 0.5221,0 0.9507,0.12 1.2859,0.3599 0.3351,0.2398 0.5485,0.5997 0.6403,1.0795l-0.7303 -0.2117 0 -1.1218c0,-0.1694 -0.0617,-0.3087 -0.1852,-0.4181 -0.1235,-0.1093 -0.3016,-0.164 -0.5345,-0.164 -0.1905,0 -0.4109,0.0247 -0.6614,0.0741 -0.2505,0.0494 -0.5133,0.1446 -0.7885,0.2857l-0.5503 -1.3335c0.3246,-0.1623 0.6826,-0.2981 1.0742,-0.4074 0.3916,-0.1094 0.8026,-0.1641 1.233,-0.1641 0.508,0 0.9366,0.09 1.2858,0.2699 0.3493,0.1799 0.6121,0.4374 0.7885,0.7726 0.1764,0.3351 0.2646,0.7355 0.2646,1.2012l0 3.0903 -1.651 0 -0.3387 -1.0477 0.7938 -0.254c-0.1059,0.4303 -0.314,0.7778 -0.6245,1.0424 -0.3104,0.2646 -0.7514,0.3969 -1.3229,0.3969zm0.6985 -1.2383c0.1623,0 0.2928,-0.0476 0.3916,-0.1428 0.0988,-0.0953 0.1482,-0.2099 0.1482,-0.344 0,-0.1341 -0.0494,-0.2487 -0.1482,-0.344 -0.0988,-0.0952 -0.2293,-0.1428 -0.3916,-0.1428 -0.1764,0 -0.3122,0.0476 -0.4074,0.1428 -0.0953,0.0953 -0.1429,0.2099 -0.1429,0.344 0,0.1341 0.0476,0.2487 0.1429,0.344 0.0952,0.0952 0.231,0.1428 0.4074,0.1428zm6.604 -4.2333c0.3387,0 0.6191,0.0582 0.8414,0.1746 0.2222,0.1165 0.3968,0.2734 0.5238,0.471 0.127,0.1976 0.2152,0.4233 0.2646,0.6773 0.0494,0.254 0.0741,0.5186 0.0741,0.7938l0 3.2173 -1.9156 0 0 -2.8892c0,-0.2399 -0.03,-0.3952 -0.0899,-0.4657 -0.06,-0.0706 -0.1605,-0.1058 -0.3017,-0.1058 -0.0917,0 -0.1887,0.0158 -0.291,0.0476 -0.1023,0.0317 -0.2117,0.0811 -0.3281,0.1482 -0.1164,0.067 -0.2416,0.1499 -0.3757,0.2487l-0.4762 -0.9314 0.635 0 0 3.9476 -1.9156 0 0 -5.1858 1.4076 0 0.381 1.1112 -0.7303 -0.0952c0.1693,-0.1905 0.3722,-0.374 0.6086,-0.5504 0.2363,-0.1763 0.4974,-0.3227 0.7831,-0.4392 0.2858,-0.1164 0.5874,-0.1746 0.9049,-0.1746zm-0.1482 -0.6561c-0.2187,0 -0.4727,-0.0741 -0.762,-0.2223 -0.0917,-0.0564 -0.1675,-0.0935 -0.2275,-0.1111 -0.06,-0.0177 -0.1217,-0.0265 -0.1852,-0.0265 -0.1905,0 -0.3669,0.12 -0.5292,0.3599l-1.1112 -0.561c0.1622,-0.3951 0.3598,-0.6985 0.5926,-0.9101 0.2329,-0.2117 0.508,-0.3175 0.8255,-0.3175 0.1129,0 0.2258,0.0211 0.3387,0.0635 0.1129,0.0423 0.2399,0.0952 0.381,0.1587 0.0776,0.0424 0.1534,0.0759 0.2275,0.1006 0.0741,0.0247 0.1464,0.037 0.217,0.037 0.0988,0 0.194,-0.0247 0.2857,-0.0741 0.0918,-0.0494 0.1835,-0.1446 0.2752,-0.2857l1.1113 0.5609c-0.1835,0.4374 -0.3987,0.7514 -0.6456,0.9419 -0.247,0.1905 -0.5116,0.2858 -0.7938,0.2858zm5.1541 6.1383c-0.5504,0 -1.0337,-0.1182 -1.45,-0.3546 -0.4162,-0.2363 -0.7425,-0.5609 -0.9789,-0.9736 -0.2364,-0.4128 -0.3546,-0.8837 -0.3546,-1.4129 0,-0.5292 0.1182,-1.0001 0.3546,-1.4129 0.2364,-0.4127 0.5627,-0.7373 0.9789,-0.9736 0.4163,-0.2364 0.8996,-0.3546 1.45,-0.3546 0.5503,0 1.0354,0.1182 1.4552,0.3546 0.4198,0.2363 0.7461,0.5609 0.9789,0.9736 0.2328,0.4128 0.3493,0.8837 0.3493,1.4129 0,0.5292 -0.1165,1.0001 -0.3493,1.4129 -0.2328,0.4127 -0.5591,0.7373 -0.9789,0.9736 -0.4198,0.2364 -0.9049,0.3546 -1.4552,0.3546zm0 -1.8733c0.2398,0 0.4409,-0.0811 0.6032,-0.2434 0.1623,-0.1623 0.2434,-0.3739 0.2434,-0.635 0,-0.261 -0.0811,-0.4709 -0.2434,-0.6297 -0.1623,-0.1587 -0.3634,-0.2381 -0.6032,-0.2381 -0.2399,0 -0.4392,0.0794 -0.598,0.2381 -0.1587,0.1588 -0.2381,0.3687 -0.2381,0.6297 0,0.2611 0.0794,0.4727 0.2381,0.635 0.1588,0.1623 0.3581,0.2434 0.598,0.2434zm5.4821 1.9156c-0.4515,0 -0.8643,-0.0776 -1.2382,-0.2328 -0.374,-0.1553 -0.7373,-0.4269 -1.0901,-0.8149l0.9313 -1.0795c0.2681,0.2398 0.5292,0.4092 0.7832,0.508 0.254,0.0987 0.5009,0.1481 0.7408,0.1481 0.0988,0 0.1852,-0.0159 0.2593,-0.0476 0.0741,-0.0318 0.1111,-0.0723 0.1111,-0.1217 0,-0.0565 -0.0264,-0.1041 -0.0794,-0.1429 -0.0529,-0.0388 -0.1587,-0.0794 -0.3174,-0.1217 -0.1588,-0.0423 -0.3934,-0.1023 -0.7038,-0.1799 -0.5786,-0.1411 -0.9949,-0.3528 -1.2489,-0.635 -0.254,-0.2822 -0.381,-0.628 -0.381,-1.0372 0,-0.3316 0.0882,-0.635 0.2646,-0.9101 0.1764,-0.2752 0.4304,-0.4957 0.762,-0.6615 0.3316,-0.1658 0.7232,-0.2487 1.1748,-0.2487 0.5432,0 1.0001,0.097 1.3705,0.291 0.3704,0.1941 0.6861,0.4322 0.9472,0.7144l-1.0583 0.9843c-0.1905,-0.1553 -0.4057,-0.2734 -0.6456,-0.3546 -0.2399,-0.0811 -0.4939,-0.1217 -0.762,-0.1217 -0.127,0 -0.2275,0.0141 -0.3016,0.0423 -0.0741,0.0283 -0.1112,0.0706 -0.1112,0.127 0,0.0494 0.06,0.0953 0.18,0.1376 0.1199,0.0424 0.3739,0.1129 0.762,0.2117 0.6561,0.1552 1.1324,0.3739 1.4287,0.6562 0.2963,0.2822 0.4445,0.6632 0.4445,1.143 0,0.3386 -0.0917,0.6402 -0.2752,0.9048 -0.1834,0.2646 -0.4409,0.471 -0.7725,0.6192 -0.3317,0.1481 -0.7232,0.2222 -1.1748,0.2222zm7.4295 -0.1376c-0.3175,0 -0.6156,-0.0582 -0.8943,-0.1746 -0.2787,-0.1164 -0.5045,-0.3087 -0.6773,-0.5768 -0.1729,-0.2681 -0.2593,-0.635 -0.2593,-1.1007l0 -5.408 1.9156 0 0 4.7307c0,0.2893 0.0405,0.4692 0.1217,0.5398 0.0811,0.0705 0.1993,0.1058 0.3545,0.1058l0 1.8626c-0.0564,0.0071 -0.1446,0.0124 -0.2646,0.0159 -0.1199,0.0036 -0.2187,0.0053 -0.2963,0.0053zm3.1538 -0.0529l-1.9261 0 0 -5.1858 1.9261 0 0 5.1858zm-2.0426 -6.8474c0,-0.3316 0.0988,-0.5962 0.2964,-0.7937 0.1975,-0.1976 0.4586,-0.2964 0.7831,-0.2964 0.3317,0 0.5945,0.0988 0.7885,0.2964 0.194,0.1975 0.291,0.4621 0.291,0.7937 0,0.3175 -0.097,0.5733 -0.291,0.7673 -0.194,0.194 -0.4568,0.291 -0.7885,0.291 -0.3245,0 -0.5856,-0.097 -0.7831,-0.291 -0.1976,-0.194 -0.2964,-0.4498 -0.2964,-0.7673zm2.9634 6.8474l0 -5.1858 1.4076 0 0.381 1.1112 -0.7303 -0.0952c0.1693,-0.1905 0.3722,-0.374 0.6086,-0.5504 0.2363,-0.1763 0.4974,-0.3227 0.7831,-0.4392 0.2858,-0.1164 0.5874,-0.1746 0.9049,-0.1746 0.3245,0 0.5909,0.0582 0.799,0.1746 0.2082,0.1165 0.3704,0.2734 0.4869,0.471 0.1164,0.1976 0.1993,0.4233 0.2487,0.6773 0.0494,0.254 0.074,0.5186 0.074,0.7938l0 3.2173 -1.9155 0 0 -2.8892c0,-0.2399 -0.03,-0.3952 -0.09,-0.4657 -0.06,-0.0706 -0.1429,-0.1058 -0.2487,-0.1058 -0.1411,0 -0.2857,0.037 -0.4339,0.1111 -0.1482,0.0741 -0.321,0.1852 -0.5186,0.3334l-0.4762 -0.9314 0.635 0 0 3.9476 -1.9156 0zm6.0854 0l0 -2.8892c0,-0.2399 -0.0282,-0.3952 -0.0847,-0.4657 -0.0564,-0.0706 -0.1376,-0.1058 -0.2434,-0.1058 -0.1411,0 -0.2858,0.037 -0.4339,0.1111 -0.1482,0.0741 -0.321,0.1852 -0.5186,0.3334l-0.6985 -1.1536c0.1693,-0.1905 0.3722,-0.374 0.6085,-0.5504 0.2364,-0.1763 0.4975,-0.3227 0.7832,-0.4392 0.2858,-0.1164 0.5839,-0.1746 0.8943,-0.1746 0.3245,0 0.5927,0.0582 0.8043,0.1746 0.2117,0.1165 0.3757,0.2734 0.4921,0.471 0.1165,0.1976 0.1994,0.4233 0.2488,0.6773 0.0493,0.254 0.074,0.5186 0.074,0.7938l0 3.2173 -1.9261 0zm5.7785 0.1482c-0.4445,0 -0.8308,-0.0988 -1.1589,-0.2964 -0.3281,-0.1975 -0.5821,-0.4991 -0.762,-0.9048 -0.1799,-0.4057 -0.2699,-0.919 -0.2699,-1.5399 0,-0.5786 0.0935,-1.0707 0.2805,-1.4764 0.187,-0.4057 0.4463,-0.7179 0.7779,-0.9366 0.3316,-0.2187 0.7161,-0.3281 1.1536,-0.3281 0.4656,0 0.8766,0.1182 1.2329,0.3546 0.3563,0.2363 0.6368,0.5609 0.8414,0.9736 0.2046,0.4128 0.3069,0.8837 0.3069,1.4129 0,0.5221 -0.1041,0.9913 -0.3122,1.4076 -0.2081,0.4162 -0.4939,0.7426 -0.8573,0.9789 -0.3633,0.2364 -0.7743,0.3546 -1.2329,0.3546zm-3.0374 1.8626l0 -7.1966 1.4181 0 0.4975 1.5346 -0.0953 0 0 2.0214 0.0953 0 0 3.6406 -1.9156 0zm2.667 -3.7359c0.2258,0 0.4198,-0.0829 0.5821,-0.2487 0.1622,-0.1658 0.2434,-0.3722 0.2434,-0.6191 0,-0.247 -0.0812,-0.4551 -0.2434,-0.6244 -0.1623,-0.1694 -0.3563,-0.254 -0.5821,-0.254 -0.2258,0 -0.4234,0.0846 -0.5927,0.254 -0.1693,0.1693 -0.254,0.3774 -0.254,0.6244 0,0.2469 0.0847,0.4533 0.254,0.6191 0.1693,0.1658 0.3669,0.2487 0.5927,0.2487zm5.3233 1.7251l-1.9261 0 0 -5.1858 1.9261 0 0 5.1858zm-2.0426 -6.8474c0,-0.3316 0.0988,-0.5962 0.2964,-0.7937 0.1975,-0.1976 0.4586,-0.2964 0.7831,-0.2964 0.3317,0 0.5945,0.0988 0.7885,0.2964 0.194,0.1975 0.291,0.4621 0.291,0.7937 0,0.3175 -0.097,0.5733 -0.291,0.7673 -0.194,0.194 -0.4568,0.291 -0.7885,0.291 -0.3245,0 -0.5856,-0.097 -0.7831,-0.291 -0.1976,-0.194 -0.2964,-0.4498 -0.2964,-0.7673zm5.4505 6.9956c-0.5504,0 -1.0337,-0.1182 -1.45,-0.3546 -0.4162,-0.2363 -0.7425,-0.5609 -0.9789,-0.9736 -0.2364,-0.4128 -0.3546,-0.8837 -0.3546,-1.4129 0,-0.5292 0.1182,-1.0001 0.3546,-1.4129 0.2364,-0.4127 0.5627,-0.7373 0.9789,-0.9736 0.4163,-0.2364 0.8996,-0.3546 1.45,-0.3546 0.5503,0 1.0354,0.1182 1.4552,0.3546 0.4198,0.2363 0.7461,0.5609 0.9789,0.9736 0.2328,0.4128 0.3493,0.8837 0.3493,1.4129 0,0.5292 -0.1165,1.0001 -0.3493,1.4129 -0.2328,0.4127 -0.5591,0.7373 -0.9789,0.9736 -0.4198,0.2364 -0.9049,0.3546 -1.4552,0.3546zm0 -1.8733c0.2398,0 0.4409,-0.0811 0.6032,-0.2434 0.1623,-0.1623 0.2434,-0.3739 0.2434,-0.635 0,-0.261 -0.0811,-0.4709 -0.2434,-0.6297 -0.1623,-0.1587 -0.3634,-0.2381 -0.6032,-0.2381 -0.2399,0 -0.4392,0.0794 -0.598,0.2381 -0.1587,0.1588 -0.2381,0.3687 -0.2381,0.6297 0,0.2611 0.0794,0.4727 0.2381,0.635 0.1588,0.1623 0.3581,0.2434 0.598,0.2434zm5.4821 1.9156c-0.4515,0 -0.8643,-0.0776 -1.2382,-0.2328 -0.374,-0.1553 -0.7373,-0.4269 -1.0901,-0.8149l0.9313 -1.0795c0.2681,0.2398 0.5292,0.4092 0.7832,0.508 0.254,0.0987 0.5009,0.1481 0.7408,0.1481 0.0988,0 0.1852,-0.0159 0.2593,-0.0476 0.0741,-0.0318 0.1111,-0.0723 0.1111,-0.1217 0,-0.0565 -0.0264,-0.1041 -0.0794,-0.1429 -0.0529,-0.0388 -0.1587,-0.0794 -0.3174,-0.1217 -0.1588,-0.0423 -0.3934,-0.1023 -0.7038,-0.1799 -0.5786,-0.1411 -0.9949,-0.3528 -1.2489,-0.635 -0.254,-0.2822 -0.381,-0.628 -0.381,-1.0372 0,-0.3316 0.0882,-0.635 0.2646,-0.9101 0.1764,-0.2752 0.4304,-0.4957 0.762,-0.6615 0.3316,-0.1658 0.7232,-0.2487 1.1748,-0.2487 0.5432,0 1.0001,0.097 1.3705,0.291 0.3704,0.1941 0.6861,0.4322 0.9472,0.7144l-1.0583 0.9843c-0.1905,-0.1553 -0.4057,-0.2734 -0.6456,-0.3546 -0.2399,-0.0811 -0.4939,-0.1217 -0.762,-0.1217 -0.127,0 -0.2275,0.0141 -0.3016,0.0423 -0.0741,0.0283 -0.1112,0.0706 -0.1112,0.127 0,0.0494 0.06,0.0953 0.18,0.1376 0.1199,0.0424 0.3739,0.1129 0.762,0.2117 0.6561,0.1552 1.1324,0.3739 1.4287,0.6562 0.2963,0.2822 0.4445,0.6632 0.4445,1.143 0,0.3386 -0.0917,0.6402 -0.2752,0.9048 -0.1834,0.2646 -0.4409,0.471 -0.7725,0.6192 -0.3317,0.1481 -0.7232,0.2222 -1.1748,0.2222zm3.9264 -0.0423c-0.2258,0 -0.4339,-0.0565 -0.6244,-0.1694 -0.1905,-0.1129 -0.3422,-0.2645 -0.4551,-0.455 -0.1129,-0.1905 -0.1694,-0.3987 -0.1694,-0.6245 0,-0.2328 0.0565,-0.4427 0.1694,-0.6297 0.1129,-0.1869 0.2646,-0.3369 0.4551,-0.4498 0.1905,-0.1128 0.3986,-0.1693 0.6244,-0.1693 0.2399,0 0.4533,0.0565 0.6403,0.1693 0.1869,0.1129 0.3369,0.2629 0.4498,0.4498 0.1128,0.187 0.1693,0.3969 0.1693,0.6297 0,0.2258 -0.0565,0.434 -0.1693,0.6245 -0.1129,0.1905 -0.2629,0.3421 -0.4498,0.455 -0.187,0.1129 -0.4004,0.1694 -0.6403,0.1694zm-83.4492 7.4386l0 -1.8309 3.0056 0 0 1.8309 -3.0056 0zm-0.0318 -2.6881l0.7726 -0.8467 0 5.3763 -0.8255 -0.9842 3.6512 0 0 1.8309 -4.7413 0 0 -7.2072 4.7413 0 0 1.8309 -3.5983 0zm6.4664 5.5668c-0.4515,0 -0.8643,-0.0776 -1.2382,-0.2328 -0.374,-0.1553 -0.7373,-0.4269 -1.0901,-0.8149l0.9313 -1.0795c0.2681,0.2398 0.5292,0.4092 0.7832,0.508 0.254,0.0987 0.5009,0.1481 0.7408,0.1481 0.0988,0 0.1852,-0.0159 0.2593,-0.0476 0.0741,-0.0318 0.1111,-0.0723 0.1111,-0.1217 0,-0.0565 -0.0264,-0.1041 -0.0794,-0.1429 -0.0529,-0.0388 -0.1587,-0.0794 -0.3174,-0.1217 -0.1588,-0.0423 -0.3934,-0.1023 -0.7038,-0.1799 -0.5786,-0.1411 -0.9949,-0.3528 -1.2489,-0.635 -0.254,-0.2822 -0.381,-0.628 -0.381,-1.0372 0,-0.3316 0.0882,-0.635 0.2646,-0.9101 0.1764,-0.2752 0.4304,-0.4957 0.762,-0.6615 0.3316,-0.1658 0.7232,-0.2487 1.1748,-0.2487 0.5432,0 1.0001,0.097 1.3705,0.291 0.3704,0.1941 0.6861,0.4322 0.9472,0.7144l-1.0583 0.9843c-0.1905,-0.1553 -0.4057,-0.2734 -0.6456,-0.3546 -0.2399,-0.0811 -0.4939,-0.1217 -0.762,-0.1217 -0.127,0 -0.2275,0.0141 -0.3016,0.0423 -0.0741,0.0283 -0.1112,0.0706 -0.1112,0.127 0,0.0494 0.06,0.0953 0.18,0.1376 0.1199,0.0424 0.3739,0.1129 0.762,0.2117 0.6561,0.1552 1.1324,0.3739 1.4287,0.6562 0.2963,0.2822 0.4445,0.6632 0.4445,1.143 0,0.3386 -0.0917,0.6402 -0.2752,0.9048 -0.1834,0.2646 -0.4409,0.471 -0.7725,0.6192 -0.3317,0.1481 -0.7232,0.2222 -1.1748,0.2222zm8.6572 -0.0423c-0.4375,0 -0.822,-0.1094 -1.1536,-0.3281 -0.3316,-0.2187 -0.5909,-0.5327 -0.7779,-0.9419 -0.187,-0.4093 -0.2805,-0.8996 -0.2805,-1.4711 0,-0.6209 0.09,-1.1342 0.2699,-1.5399 0.1799,-0.4057 0.4339,-0.7073 0.762,-0.9049 0.3281,-0.1975 0.7144,-0.2963 1.1589,-0.2963 0.4586,0 0.8696,0.1182 1.2329,0.3546 0.3634,0.2363 0.6492,0.5609 0.8573,0.9736 0.2081,0.4128 0.3122,0.8837 0.3122,1.4129 0,0.5221 -0.1023,0.9913 -0.3069,1.4076 -0.2046,0.4162 -0.4851,0.7426 -0.8414,0.9789 -0.3563,0.2364 -0.7673,0.3546 -1.2329,0.3546zm-3.0586 -0.1482l0 -7.2072 1.9156 0 0 3.6512 -0.0953 0 0 2.0214 0.0953 0 -0.4975 1.5346 -1.4181 0zm2.667 -1.7251c0.2258,0 0.4198,-0.0829 0.5821,-0.2487 0.1622,-0.1658 0.2434,-0.3722 0.2434,-0.6191 0,-0.247 -0.0812,-0.4551 -0.2434,-0.6244 -0.1623,-0.1694 -0.3563,-0.254 -0.5821,-0.254 -0.2258,0 -0.4234,0.0846 -0.5927,0.254 -0.1693,0.1693 -0.254,0.3774 -0.254,0.6244 0,0.2469 0.0847,0.4533 0.254,0.6191 0.1693,0.1658 0.3669,0.2487 0.5927,0.2487zm5.7255 1.8203c-0.5292,0 -0.9913,-0.1093 -1.3864,-0.328 -0.3951,-0.2188 -0.702,-0.5292 -0.9208,-0.9314 -0.2187,-0.4021 -0.3281,-0.8784 -0.3281,-1.4287 0,-0.5292 0.1094,-1.0001 0.3281,-1.4129 0.2188,-0.4127 0.5257,-0.7373 0.9208,-0.9736 0.3951,-0.2364 0.8572,-0.3546 1.3864,-0.3546 0.5503,0 1.0213,0.1253 1.4129,0.3757 0.3915,0.2505 0.6932,0.5803 0.9048,0.9896 0.2117,0.4092 0.3175,0.8572 0.3175,1.344 0,0.127 -0.0035,0.2435 -0.0106,0.3493 -0.007,0.1058 -0.0176,0.187 -0.0317,0.2434l-3.8735 0 0 -1.2382 2.3707 0 -0.0953 0.3175c0,-0.2752 -0.0794,-0.4975 -0.2381,-0.6668 -0.1588,-0.1693 -0.4039,-0.254 -0.7355,-0.254 -0.3034,0 -0.5451,0.0864 -0.725,0.2593 -0.1799,0.1729 -0.2699,0.4075 -0.2699,0.7038l0 0.5927c0,0.3245 0.1006,0.5715 0.3017,0.7408 0.201,0.1693 0.478,0.254 0.8307,0.254 0.2682,0 0.4851,-0.0512 0.6509,-0.1535 0.1658,-0.1023 0.3052,-0.231 0.4181,-0.3863l1.2382 0.6456c-0.2117,0.3951 -0.5345,0.7126 -0.9684,0.9525 -0.4339,0.2399 -0.9331,0.3598 -1.4975,0.3598zm6.604 -5.4292c0.3387,0 0.6191,0.0582 0.8414,0.1746 0.2222,0.1165 0.3968,0.2734 0.5238,0.471 0.127,0.1976 0.2152,0.4233 0.2646,0.6773 0.0494,0.254 0.0741,0.5186 0.0741,0.7938l0 3.2173 -1.9156 0 0 -2.8892c0,-0.2399 -0.03,-0.3952 -0.0899,-0.4657 -0.06,-0.0706 -0.1605,-0.1058 -0.3017,-0.1058 -0.0917,0 -0.1887,0.0158 -0.291,0.0476 -0.1023,0.0317 -0.2117,0.0811 -0.3281,0.1482 -0.1164,0.067 -0.2416,0.1499 -0.3757,0.2487l-0.4762 -0.9314 0.635 0 0 3.9476 -1.9156 0 0 -5.1858 1.4076 0 0.381 1.1112 -0.7303 -0.0952c0.1693,-0.1905 0.3722,-0.374 0.6086,-0.5504 0.2363,-0.1763 0.4974,-0.3227 0.7831,-0.4392 0.2858,-0.1164 0.5874,-0.1746 0.9049,-0.1746zm4.8577 5.4292c-0.5292,0 -0.9913,-0.1093 -1.3864,-0.328 -0.3951,-0.2188 -0.702,-0.5292 -0.9208,-0.9314 -0.2187,-0.4021 -0.3281,-0.8784 -0.3281,-1.4287 0,-0.5292 0.1094,-1.0001 0.3281,-1.4129 0.2188,-0.4127 0.5257,-0.7373 0.9208,-0.9736 0.3951,-0.2364 0.8572,-0.3546 1.3864,-0.3546 0.5503,0 1.0213,0.1253 1.4129,0.3757 0.3915,0.2505 0.6932,0.5803 0.9048,0.9896 0.2117,0.4092 0.3175,0.8572 0.3175,1.344 0,0.127 -0.0035,0.2435 -0.0106,0.3493 -0.007,0.1058 -0.0176,0.187 -0.0317,0.2434l-3.8735 0 0 -1.2382 2.3707 0 -0.0953 0.3175c0,-0.2752 -0.0794,-0.4975 -0.2381,-0.6668 -0.1588,-0.1693 -0.4039,-0.254 -0.7355,-0.254 -0.3034,0 -0.5451,0.0864 -0.725,0.2593 -0.1799,0.1729 -0.2699,0.4075 -0.2699,0.7038l0 0.5927c0,0.3245 0.1006,0.5715 0.3017,0.7408 0.201,0.1693 0.478,0.254 0.8307,0.254 0.2682,0 0.4851,-0.0512 0.6509,-0.1535 0.1658,-0.1023 0.3052,-0.231 0.4181,-0.3863l1.2382 0.6456c-0.2117,0.3951 -0.5345,0.7126 -0.9684,0.9525 -0.4339,0.2399 -0.9331,0.3598 -1.4975,0.3598zm3.5877 -0.0952l0 -5.3869c0,-0.4022 0.0812,-0.7532 0.2435,-1.053 0.1622,-0.2999 0.3915,-0.5345 0.6879,-0.7038 0.2963,-0.1694 0.642,-0.254 1.0371,-0.254 0.2188,0 0.4093,0.0123 0.5715,0.037 0.1623,0.0247 0.2823,0.0441 0.3599,0.0582l0 1.7251c-0.0494,-0.0141 -0.1112,-0.03 -0.1852,-0.0476 -0.0741,-0.0177 -0.1676,-0.0265 -0.2805,-0.0265 -0.1975,0 -0.3316,0.0512 -0.4022,0.1535 -0.0705,0.1023 -0.1058,0.2557 -0.1058,0.4603l0 5.0377 -1.9262 0zm2.7835 -3.1432l-3.4185 0 0 -1.7569 3.4185 0 0 1.7569zm2.5928 3.1432l-1.9261 0 0 -5.1858 1.9261 0 0 5.1858zm-2.0426 -6.8474c0,-0.3316 0.0988,-0.5962 0.2964,-0.7937 0.1975,-0.1976 0.4586,-0.2964 0.7831,-0.2964 0.3317,0 0.5945,0.0988 0.7885,0.2964 0.194,0.1975 0.291,0.4621 0.291,0.7937 0,0.3175 -0.097,0.5733 -0.291,0.7673 -0.194,0.194 -0.4568,0.291 -0.7885,0.291 -0.3245,0 -0.5856,-0.097 -0.7831,-0.291 -0.1976,-0.194 -0.2964,-0.4498 -0.2964,-0.7673zm5.3552 6.9956c-0.5292,0 -0.9966,-0.1182 -1.4023,-0.3546 -0.4057,-0.2363 -0.7214,-0.5627 -0.9472,-0.9789 -0.2258,-0.4163 -0.3387,-0.889 -0.3387,-1.4182 0,-0.5221 0.1129,-0.9895 0.3387,-1.4023 0.2258,-0.4127 0.5415,-0.7373 0.9472,-0.9736 0.4057,-0.2364 0.8731,-0.3546 1.4023,-0.3546 0.628,0 1.1606,0.1464 1.5981,0.4392 0.4374,0.2928 0.7479,0.6897 0.9313,1.1906l-1.7039 0.7726c-0.0847,-0.1623 -0.1834,-0.2928 -0.2963,-0.3916 -0.1129,-0.0987 -0.2787,-0.1481 -0.4974,-0.1481 -0.2258,0 -0.4181,0.0794 -0.5768,0.2381 -0.1588,0.1588 -0.2382,0.3687 -0.2382,0.6297 0,0.2681 0.0794,0.4798 0.2382,0.635 0.1587,0.1552 0.351,0.2328 0.5768,0.2328 0.2187,0 0.3845,-0.0476 0.4974,-0.1428 0.1129,-0.0953 0.2116,-0.2205 0.2963,-0.3757l1.7039 0.762c-0.1834,0.4938 -0.4974,0.8907 -0.9419,1.1906 -0.4445,0.2998 -0.9737,0.4498 -1.5875,0.4498zm4.9635 -0.1482l-1.9261 0 0 -5.1858 1.9261 0 0 5.1858zm-2.0426 -6.8474c0,-0.3316 0.0988,-0.5962 0.2964,-0.7937 0.1975,-0.1976 0.4586,-0.2964 0.7831,-0.2964 0.3317,0 0.5945,0.0988 0.7885,0.2964 0.194,0.1975 0.291,0.4621 0.291,0.7937 0,0.3175 -0.097,0.5733 -0.291,0.7673 -0.194,0.194 -0.4568,0.291 -0.7885,0.291 -0.3245,0 -0.5856,-0.097 -0.7831,-0.291 -0.1976,-0.194 -0.2964,-0.4498 -0.2964,-0.7673zm5.4505 6.9956c-0.5504,0 -1.0337,-0.1182 -1.45,-0.3546 -0.4162,-0.2363 -0.7425,-0.5609 -0.9789,-0.9736 -0.2364,-0.4128 -0.3546,-0.8837 -0.3546,-1.4129 0,-0.5292 0.1182,-1.0001 0.3546,-1.4129 0.2364,-0.4127 0.5627,-0.7373 0.9789,-0.9736 0.4163,-0.2364 0.8996,-0.3546 1.45,-0.3546 0.5503,0 1.0354,0.1182 1.4552,0.3546 0.4198,0.2363 0.7461,0.5609 0.9789,0.9736 0.2328,0.4128 0.3493,0.8837 0.3493,1.4129 0,0.5292 -0.1165,1.0001 -0.3493,1.4129 -0.2328,0.4127 -0.5591,0.7373 -0.9789,0.9736 -0.4198,0.2364 -0.9049,0.3546 -1.4552,0.3546zm0 -1.8733c0.2398,0 0.4409,-0.0811 0.6032,-0.2434 0.1623,-0.1623 0.2434,-0.3739 0.2434,-0.635 0,-0.261 -0.0811,-0.4709 -0.2434,-0.6297 -0.1623,-0.1587 -0.3634,-0.2381 -0.6032,-0.2381 -0.2399,0 -0.4392,0.0794 -0.598,0.2381 -0.1587,0.1588 -0.2381,0.3687 -0.2381,0.6297 0,0.2611 0.0794,0.4727 0.2381,0.635 0.1588,0.1623 0.3581,0.2434 0.598,0.2434zm8.2444 1.8733c-0.4586,0 -0.8678,-0.1182 -1.2277,-0.3546 -0.3598,-0.2363 -0.642,-0.5627 -0.8466,-0.9789 -0.2046,-0.4163 -0.307,-0.8855 -0.307,-1.4076 0,-0.5292 0.1041,-1.0001 0.3123,-1.4129 0.2081,-0.4127 0.4938,-0.7373 0.8572,-0.9736 0.3634,-0.2364 0.7743,-0.3546 1.233,-0.3546 0.4445,0 0.8307,0.0988 1.1588,0.2963 0.3281,0.1976 0.5821,0.4992 0.762,0.9049 0.1799,0.4057 0.2699,0.919 0.2699,1.5399 0,0.5715 -0.0935,1.0618 -0.2805,1.4711 -0.1869,0.4092 -0.4462,0.7232 -0.7778,0.9419 -0.3316,0.2187 -0.7162,0.3281 -1.1536,0.3281zm0.3916 -1.8733c0.2328,0 0.4321,-0.0829 0.5979,-0.2487 0.1658,-0.1658 0.2487,-0.3722 0.2487,-0.6191 0,-0.247 -0.0829,-0.4551 -0.2487,-0.6244 -0.1658,-0.1694 -0.3651,-0.254 -0.5979,-0.254 -0.2258,0 -0.4198,0.0846 -0.5821,0.254 -0.1623,0.1693 -0.2434,0.3774 -0.2434,0.6244 0,0.2469 0.0811,0.4533 0.2434,0.6191 0.1623,0.1658 0.3563,0.2487 0.5821,0.2487zm1.2488 1.7251l-0.4974 -1.5346 0.0952 0 0 -2.0214 -0.0952 0 0 -3.6512 1.9156 0 0 7.2072 -1.4182 0zm4.6672 0.0952c-0.5292,0 -0.9913,-0.1093 -1.3864,-0.328 -0.3951,-0.2188 -0.702,-0.5292 -0.9208,-0.9314 -0.2187,-0.4021 -0.3281,-0.8784 -0.3281,-1.4287 0,-0.5292 0.1094,-1.0001 0.3281,-1.4129 0.2188,-0.4127 0.5257,-0.7373 0.9208,-0.9736 0.3951,-0.2364 0.8572,-0.3546 1.3864,-0.3546 0.5503,0 1.0213,0.1253 1.4129,0.3757 0.3915,0.2505 0.6932,0.5803 0.9048,0.9896 0.2117,0.4092 0.3175,0.8572 0.3175,1.344 0,0.127 -0.0035,0.2435 -0.0106,0.3493 -0.007,0.1058 -0.0176,0.187 -0.0317,0.2434l-3.8735 0 0 -1.2382 2.3707 0 -0.0953 0.3175c0,-0.2752 -0.0794,-0.4975 -0.2381,-0.6668 -0.1588,-0.1693 -0.4039,-0.254 -0.7355,-0.254 -0.3034,0 -0.5451,0.0864 -0.725,0.2593 -0.1799,0.1729 -0.2699,0.4075 -0.2699,0.7038l0 0.5927c0,0.3245 0.1006,0.5715 0.3017,0.7408 0.201,0.1693 0.478,0.254 0.8307,0.254 0.2682,0 0.4851,-0.0512 0.6509,-0.1535 0.1658,-0.1023 0.3052,-0.231 0.4181,-0.3863l1.2382 0.6456c-0.2117,0.3951 -0.5345,0.7126 -0.9684,0.9525 -0.4339,0.2399 -0.9331,0.3598 -1.4975,0.3598zm8.6254 -0.0105c-0.6632,0 -1.1818,-0.15 -1.5557,-0.4498 -0.3739,-0.2999 -0.5609,-0.8026 -0.5609,-1.5081l0 -3.2491 -0.0318 -0.0635 0.4022 -1.3018 1.5452 0 0 4.0005c0,0.2752 0.0599,0.4657 0.1799,0.5715 0.1199,0.1059 0.2822,0.1588 0.4868,0.1588 0.0988,0 0.1958,-0.0106 0.291,-0.0318 0.0953,-0.0211 0.1747,-0.0423 0.2382,-0.0635l0 1.7992c-0.1482,0.0494 -0.3017,0.0846 -0.4604,0.1058 -0.1588,0.0212 -0.3369,0.0318 -0.5345,0.0318zm-2.9315 -3.5031l0 -1.7674 3.9264 0 0 1.7674 -3.9264 0zm7.3025 3.5666c-0.5504,0 -1.0337,-0.1182 -1.45,-0.3546 -0.4162,-0.2363 -0.7425,-0.5609 -0.9789,-0.9736 -0.2364,-0.4128 -0.3546,-0.8837 -0.3546,-1.4129 0,-0.5292 0.1182,-1.0001 0.3546,-1.4129 0.2364,-0.4127 0.5627,-0.7373 0.9789,-0.9736 0.4163,-0.2364 0.8996,-0.3546 1.45,-0.3546 0.5503,0 1.0354,0.1182 1.4552,0.3546 0.4198,0.2363 0.7461,0.5609 0.9789,0.9736 0.2328,0.4128 0.3493,0.8837 0.3493,1.4129 0,0.5292 -0.1165,1.0001 -0.3493,1.4129 -0.2328,0.4127 -0.5591,0.7373 -0.9789,0.9736 -0.4198,0.2364 -0.9049,0.3546 -1.4552,0.3546zm0 -1.8733c0.2398,0 0.4409,-0.0811 0.6032,-0.2434 0.1623,-0.1623 0.2434,-0.3739 0.2434,-0.635 0,-0.261 -0.0811,-0.4709 -0.2434,-0.6297 -0.1623,-0.1587 -0.3634,-0.2381 -0.6032,-0.2381 -0.2399,0 -0.4392,0.0794 -0.598,0.2381 -0.1587,0.1588 -0.2381,0.3687 -0.2381,0.6297 0,0.2611 0.0794,0.4727 0.2381,0.635 0.1588,0.1623 0.3581,0.2434 0.598,0.2434z"/>
    <path id="_457064128" class="fil1" d="M279.904 211.702c-0.4586,0 -0.8678,-0.1182 -1.2277,-0.3546 -0.3598,-0.2363 -0.642,-0.5627 -0.8466,-0.9789 -0.2046,-0.4163 -0.307,-0.8855 -0.307,-1.4076 0,-0.5292 0.1041,-1.0001 0.3123,-1.4129 0.2081,-0.4127 0.4938,-0.7373 0.8572,-0.9736 0.3634,-0.2364 0.7743,-0.3546 1.233,-0.3546 0.4445,0 0.8307,0.0988 1.1588,0.2963 0.3281,0.1976 0.5821,0.4992 0.762,0.9049 0.1799,0.4057 0.2699,0.919 0.2699,1.5399 0,0.5715 -0.0935,1.0618 -0.2805,1.4711 -0.1869,0.4092 -0.4462,0.7232 -0.7778,0.9419 -0.3316,0.2187 -0.7162,0.3281 -1.1536,0.3281zm0.3916 -1.8733c0.2328,0 0.4321,-0.0829 0.5979,-0.2487 0.1658,-0.1658 0.2487,-0.3722 0.2487,-0.6191 0,-0.247 -0.0829,-0.4551 -0.2487,-0.6244 -0.1658,-0.1694 -0.3651,-0.254 -0.5979,-0.254 -0.2258,0 -0.4198,0.0846 -0.5821,0.254 -0.1623,0.1693 -0.2434,0.3774 -0.2434,0.6244 0,0.2469 0.0811,0.4533 0.2434,0.6191 0.1623,0.1658 0.3563,0.2487 0.5821,0.2487zm1.2488 1.7251l-0.4974 -1.5346 0.0952 0 0 -2.0214 -0.0952 0 0 -3.6512 1.9156 0 0 7.2072 -1.4182 0zm4.8154 0.1482c-0.5504,0 -1.0337,-0.1182 -1.45,-0.3546 -0.4162,-0.2363 -0.7425,-0.5609 -0.9789,-0.9736 -0.2364,-0.4128 -0.3546,-0.8837 -0.3546,-1.4129 0,-0.5292 0.1182,-1.0001 0.3546,-1.4129 0.2364,-0.4127 0.5627,-0.7373 0.9789,-0.9736 0.4163,-0.2364 0.8996,-0.3546 1.45,-0.3546 0.5503,0 1.0354,0.1182 1.4552,0.3546 0.4198,0.2363 0.7461,0.5609 0.9789,0.9736 0.2328,0.4128 0.3493,0.8837 0.3493,1.4129 0,0.5292 -0.1165,1.0001 -0.3493,1.4129 -0.2328,0.4127 -0.5591,0.7373 -0.9789,0.9736 -0.4198,0.2364 -0.9049,0.3546 -1.4552,0.3546zm0 -1.8733c0.2398,0 0.4409,-0.0811 0.6032,-0.2434 0.1623,-0.1623 0.2434,-0.3739 0.2434,-0.635 0,-0.261 -0.0811,-0.4709 -0.2434,-0.6297 -0.1623,-0.1587 -0.3634,-0.2381 -0.6032,-0.2381 -0.2399,0 -0.4392,0.0794 -0.598,0.2381 -0.1587,0.1588 -0.2381,0.3687 -0.2381,0.6297 0,0.2611 0.0794,0.4727 0.2381,0.635 0.1588,0.1623 0.3581,0.2434 0.598,0.2434zm5.4821 1.9156c-0.4515,0 -0.8643,-0.0776 -1.2382,-0.2328 -0.374,-0.1553 -0.7373,-0.4269 -1.0901,-0.8149l0.9313 -1.0795c0.2681,0.2398 0.5292,0.4092 0.7832,0.508 0.254,0.0987 0.5009,0.1481 0.7408,0.1481 0.0988,0 0.1852,-0.0159 0.2593,-0.0476 0.0741,-0.0318 0.1111,-0.0723 0.1111,-0.1217 0,-0.0565 -0.0264,-0.1041 -0.0794,-0.1429 -0.0529,-0.0388 -0.1587,-0.0794 -0.3174,-0.1217 -0.1588,-0.0423 -0.3934,-0.1023 -0.7038,-0.1799 -0.5786,-0.1411 -0.9949,-0.3528 -1.2489,-0.635 -0.254,-0.2822 -0.381,-0.628 -0.381,-1.0372 0,-0.3316 0.0882,-0.635 0.2646,-0.9101 0.1764,-0.2752 0.4304,-0.4957 0.762,-0.6615 0.3316,-0.1658 0.7232,-0.2487 1.1748,-0.2487 0.5432,0 1.0001,0.097 1.3705,0.291 0.3704,0.1941 0.6861,0.4322 0.9472,0.7144l-1.0583 0.9843c-0.1905,-0.1553 -0.4057,-0.2734 -0.6456,-0.3546 -0.2399,-0.0811 -0.4939,-0.1217 -0.762,-0.1217 -0.127,0 -0.2275,0.0141 -0.3016,0.0423 -0.0741,0.0283 -0.1112,0.0706 -0.1112,0.127 0,0.0494 0.06,0.0953 0.18,0.1376 0.1199,0.0424 0.3739,0.1129 0.762,0.2117 0.6561,0.1552 1.1324,0.3739 1.4287,0.6562 0.2963,0.2822 0.4445,0.6632 0.4445,1.143 0,0.3386 -0.0917,0.6402 -0.2752,0.9048 -0.1834,0.2646 -0.4409,0.471 -0.7725,0.6192 -0.3317,0.1481 -0.7232,0.2222 -1.1748,0.2222zm3.9264 -0.0423c-0.2258,0 -0.4339,-0.0565 -0.6244,-0.1694 -0.1905,-0.1129 -0.3422,-0.2645 -0.4551,-0.455 -0.1129,-0.1905 -0.1694,-0.3987 -0.1694,-0.6245 0,-0.2328 0.0565,-0.4427 0.1694,-0.6297 0.1129,-0.1869 0.2646,-0.3369 0.4551,-0.4498 0.1905,-0.1128 0.3986,-0.1693 0.6244,-0.1693 0.2399,0 0.4533,0.0565 0.6403,0.1693 0.1869,0.1129 0.3369,0.2629 0.4498,0.4498 0.1128,0.187 0.1693,0.3969 0.1693,0.6297 0,0.2258 -0.0565,0.434 -0.1693,0.6245 -0.1129,0.1905 -0.2629,0.3421 -0.4498,0.455 -0.187,0.1129 -0.4004,0.1694 -0.6403,0.1694z"/>
   </g>
  </g>
 </g>
</svg>
