<?xml version="1.0" encoding="UTF-8"?>
<!DOCTYPE svg PUBLIC "-//W3C//DTD SVG 1.1//EN" "http://www.w3.org/Graphics/SVG/1.1/DTD/svg11.dtd">
<!-- Creator: CorelDRAW -->
<svg xmlns="http://www.w3.org/2000/svg" xml:space="preserve" width="215.9mm" height="279.4mm" style="shape-rendering:geometricPrecision; text-rendering:geometricPrecision; image-rendering:optimizeQuality; fill-rule:evenodd; clip-rule:evenodd"
viewBox="0 0 215.9 279.4"
 xmlns:xlink="http://www.w3.org/1999/xlink">
 <defs>
  <style type="text/css">
   <![CDATA[
    .str0 {stroke:#0732AB;stroke-width:0.0762}
    .str1 {stroke:white;stroke-width:4}
    .fil3 {fill:none}
    .fil4 {fill:#28156F}
    .fil2 {fill:#FEFEFF}
    .fil1 {fill:white;fill-rule:nonzero}
    .fil0 {fill:url(#id0)}
   ]]>
  </style>
  <radialGradient id="id0" gradientUnits="userSpaceOnUse" cx="107.95" cy="139.7" r="139.7" fx="107.95" fy="139.7">
   <stop offset="0" style="stop-color:#12073B"/>
   <stop offset="1" style="stop-color:#28156F"/>
  </radialGradient>
 </defs>
 <g id="Capa_x0020_1">
  <metadata id="CorelCorpID_0Corel-Layer"/>
  <g id="_867458824">
   <rect id="_867462064" class="fil0 str0" width="215.9" height="279.4"/>
   <path id="_867461920" class="fil1" d="M26.042 181.083c-1.5658,0 -2.8508,-0.2807 -3.8551,-0.8421 -1.0042,-0.5615 -1.7476,-1.3997 -2.2299,-2.5147 -0.4824,-1.115 -0.7236,-2.5028 -0.7236,-4.1634l0 -8.9674 4.3176 0 0 9.3707c0,0.9173 0.2056,1.6329 0.6168,2.1469 0.4112,0.514 1.0359,0.771 1.8742,0.771 0.8382,0 1.4629,-0.257 1.8741,-0.771 0.4112,-0.514 0.6168,-1.2296 0.6168,-2.1469l0 -9.3707 4.3176 0 0 8.9674c0,1.6606 -0.2412,3.0484 -0.7235,4.1634 -0.4824,1.115 -1.2218,1.9532 -2.2182,2.5147 -0.9963,0.5614 -2.2853,0.8421 -3.8668,0.8421zm19.0022 -0.3321l-7.6151 -10.7703 1.6132 -0.4271 0 11.1974 -4.2939 0 0 -16.1555 4.0092 0 7.5914 10.7703 -1.6132 0.4271 0 -11.1974 4.3176 0 0 16.1555 -4.0092 0zm12.1226 0l0 -16.1555 6.1205 0c1.5025,0 2.6808,0.174 3.5348,0.5219 0.854,0.348 1.455,0.858 1.803,1.5302 0.3479,0.6721 0.5219,1.4985 0.5219,2.479 0,0.7434 -0.1424,1.3957 -0.4271,1.9572 -0.2846,0.5614 -0.6879,1.0003 -1.2098,1.3166 -0.5219,0.3163 -1.1387,0.4745 -1.8504,0.4745l0 -0.4033c0.9173,0 1.6448,0.1779 2.1825,0.5338 0.5377,0.3558 0.9252,0.8184 1.1624,1.3878 0.2373,0.5693 0.3559,1.1703 0.3559,1.8029 0,1.5341 -0.4666,2.6768 -1.3997,3.428 -0.9331,0.7513 -2.3407,1.1269 -4.2227,1.1269l-6.5713 0zm4.2939 -14.1628l0 12.004 -1.4472 -1.9453 3.5822 0c0.4112,0 0.7473,-0.087 1.0083,-0.261 0.2609,-0.1739 0.3914,-0.4507 0.3914,-0.8303 0,-0.3796 -0.1265,-0.6563 -0.3796,-0.8303 -0.253,-0.174 -0.5772,-0.2609 -0.9726,-0.2609l-3.6297 0 0 -3.5823 3.3213 0c0.4744,0 0.8263,-0.0869 1.0557,-0.2609 0.2293,-0.174 0.344,-0.4507 0.344,-0.8303 0,-0.3796 -0.1147,-0.6564 -0.344,-0.8303 -0.2294,-0.174 -0.5813,-0.261 -1.0557,-0.261l-3.2501 0 1.376 -2.1114zm12.5495 7.7813l6.7611 0 0 3.9617 -6.7611 0 0 -3.9617zm-3.9143 6.3815l5.7173 -16.1555 4.2939 0 5.1954 16.1555 -4.3177 0 -3.8668 -13.2375 1.708 0 -4.4362 13.2375 -4.2939 0zm26.5462 0l-7.6151 -10.7703 1.6132 -0.4271 0 11.1974 -4.2939 0 0 -16.1555 4.0092 0 7.5914 10.7703 -1.6132 0.4271 0 -11.1974 4.3176 0 0 16.1555 -4.0092 0zm-1.4945 -17.9585c-0.4903,0 -1.0597,-0.166 -1.7081,-0.4981 -0.2056,-0.1266 -0.3756,-0.2096 -0.5101,-0.2491 -0.1344,-0.0396 -0.2728,-0.0594 -0.4151,-0.0594 -0.427,0 -0.8224,0.2689 -1.1862,0.8066l-2.4909 -1.2573c0.3637,-0.8857 0.8066,-1.5657 1.3285,-2.0402 0.5219,-0.4745 1.1387,-0.7117 1.8504,-0.7117 0.253,0 0.5061,0.0475 0.7591,0.1424 0.2531,0.0948 0.5378,0.2135 0.8541,0.3558 0.1739,0.0949 0.344,0.17 0.51,0.2254 0.1661,0.0553 0.3282,0.083 0.4863,0.083 0.2215,0 0.435,-0.0553 0.6406,-0.1661 0.2056,-0.1107 0.4112,-0.3242 0.6168,-0.6405l2.4909 1.2573c-0.4112,0.9806 -0.8936,1.6844 -1.4471,2.1114 -0.5535,0.427 -1.1466,0.6405 -1.7792,0.6405zm6.8085 9.8926c0,-1.2336 0.1977,-2.3644 0.5931,-3.3924 0.3954,-1.028 0.9568,-1.9176 1.6844,-2.6689 0.7275,-0.7512 1.5973,-1.3324 2.6095,-1.7436 1.0122,-0.4112 2.1351,-0.6168 3.3687,-0.6168 1.2336,0 2.3605,0.2056 3.3806,0.6168 1.0201,0.4112 1.8978,0.9924 2.6332,1.7436 0.7354,0.7513 1.3009,1.6409 1.6962,2.6689 0.3954,1.028 0.5931,2.1588 0.5931,3.3924 0,1.2336 -0.1977,2.3644 -0.5931,3.3924 -0.3953,1.028 -0.9608,1.9177 -1.6962,2.6689 -0.7354,0.7512 -1.6131,1.3285 -2.6332,1.7318 -1.0201,0.4033 -2.147,0.6049 -3.3806,0.6049 -1.2336,0 -2.3565,-0.2016 -3.3687,-0.6049 -1.0122,-0.4033 -1.882,-0.9806 -2.6095,-1.7318 -0.7276,-0.7512 -1.289,-1.6409 -1.6844,-2.6689 -0.3954,-1.028 -0.5931,-2.1588 -0.5931,-3.3924zm4.3888 0c0,0.8857 0.1621,1.6369 0.4863,2.2537 0.3243,0.6168 0.779,1.0834 1.3641,1.3997 0.5852,0.3163 1.2574,0.4744 2.0165,0.4744 0.775,0 1.455,-0.1581 2.0402,-0.4744 0.5852,-0.3163 1.0438,-0.7868 1.3759,-1.4115 0.3322,-0.6248 0.4982,-1.3799 0.4982,-2.2656 0,-0.8857 -0.166,-1.6369 -0.4982,-2.2537 -0.3321,-0.6168 -0.7907,-1.0834 -1.3759,-1.3997 -0.5852,-0.3163 -1.2652,-0.4744 -2.0402,-0.4744 -0.7591,0 -1.4313,0.1621 -2.0165,0.4863 -0.5851,0.3242 -1.0398,0.7947 -1.3641,1.4115 -0.3242,0.6168 -0.4863,1.368 -0.4863,2.2537zm29.82 8.0659l-10.2009 0 0 -16.1555 4.2939 0 0 13.9967 -1.3285 -2.0165 7.2355 0 0 4.1753zm5.6936 0l-4.2939 0 0 -16.1555 4.2939 0 0 16.1555zm1.1861 0l2.7756 -16.1555 3.8669 0 3.4399 10.4857 -0.3559 0 3.4399 -10.4857 3.8431 0 2.7994 16.1555 -4.2227 0 -0.9727 -6.856c-0.1107,-0.854 -0.2214,-1.712 -0.3321,-2.574 -0.1107,-0.8619 -0.2214,-1.7278 -0.3321,-2.5977l1.2336 0c-0.2215,0.8383 -0.431,1.6844 -0.6287,2.5384 -0.1977,0.8541 -0.431,1.7002 -0.6998,2.5384l-2.2537 6.8323 -3.3925 0 -2.2537 -6.8323c-0.2846,-0.8382 -0.5258,-1.6843 -0.7235,-2.5384 -0.1977,-0.854 -0.4073,-1.7001 -0.6287,-2.5384l1.2573 0c-0.1107,0.8699 -0.2174,1.7358 -0.3202,2.5977 -0.1028,0.862 -0.2175,1.72 -0.344,2.574l-0.9727 6.856 -4.2227 0zm24.2689 -8.0659l2.5621 0c0.7275,0 1.2771,-0.1661 1.6487,-0.4982 0.3717,-0.3321 0.5575,-0.8145 0.5575,-1.4471 0,-0.6484 -0.1858,-1.1387 -0.5575,-1.4708 -0.3716,-0.3322 -0.9212,-0.4982 -1.6487,-0.4982l-2.5859 0 1.0439 -0.9252 0 12.9054 -4.2939 0 0 -16.1555 5.9782 0c1.2811,0 2.4039,0.2333 3.3687,0.6998 0.9647,0.4666 1.716,1.1546 2.2537,2.064 0.5377,0.9093 0.8066,2.0362 0.8066,3.3805 0,1.3443 -0.2689,2.4712 -0.8066,3.3806 -0.5377,0.9094 -1.289,1.5973 -2.2537,2.0639 -0.9648,0.4665 -2.0876,0.6998 -3.3687,0.6998l-2.7044 0 0 -4.199zm14.6135 8.0659l-4.2939 0 0 -16.1555 4.2939 0 0 16.1555zm1.3047 -8.0659c0,-1.2336 0.1977,-2.3644 0.5931,-3.3924 0.3954,-1.028 0.9568,-1.9176 1.6844,-2.6689 0.7275,-0.7512 1.5973,-1.3324 2.6095,-1.7436 1.0122,-0.4112 2.1351,-0.6168 3.3687,-0.6168 1.2336,0 2.3605,0.2056 3.3806,0.6168 1.0201,0.4112 1.8978,0.9924 2.6332,1.7436 0.7354,0.7513 1.3009,1.6409 1.6962,2.6689 0.3954,1.028 0.5931,2.1588 0.5931,3.3924 0,1.2336 -0.1977,2.3644 -0.5931,3.3924 -0.3953,1.028 -0.9608,1.9177 -1.6962,2.6689 -0.7354,0.7512 -1.6131,1.3285 -2.6332,1.7318 -1.0201,0.4033 -2.147,0.6049 -3.3806,0.6049 -1.2336,0 -2.3565,-0.2016 -3.3687,-0.6049 -1.0122,-0.4033 -1.882,-0.9806 -2.6095,-1.7318 -0.7276,-0.7512 -1.289,-1.6409 -1.6844,-2.6689 -0.3954,-1.028 -0.5931,-2.1588 -0.5931,-3.3924zm4.3888 0c0,0.8857 0.1621,1.6369 0.4863,2.2537 0.3243,0.6168 0.779,1.0834 1.3641,1.3997 0.5852,0.3163 1.2574,0.4744 2.0165,0.4744 0.775,0 1.455,-0.1581 2.0402,-0.4744 0.5852,-0.3163 1.0438,-0.7868 1.3759,-1.4115 0.3322,-0.6248 0.4982,-1.3799 0.4982,-2.2656 0,-0.8857 -0.166,-1.6369 -0.4982,-2.2537 -0.3321,-0.6168 -0.7907,-1.0834 -1.3759,-1.3997 -0.5852,-0.3163 -1.2652,-0.4744 -2.0402,-0.4744 -0.7591,0 -1.4313,0.1621 -2.0165,0.4863 -0.5851,0.3242 -1.0398,0.7947 -1.3641,1.4115 -0.3242,0.6168 -0.4863,1.368 -0.4863,2.2537zm-131.332 31.0981l0 -16.1555 4.3176 0 0 16.1555 -4.3176 0zm-9.4655 0l0 -16.1555 4.2939 0 0 16.1555 -4.2939 0zm2.7518 -5.8359l0 -4.1753 8.232 0 0 4.1753 -8.232 0zm16.0132 -0.5456l6.7611 0 0 3.9617 -6.7611 0 0 -3.9617zm-3.9143 6.3815l5.7173 -16.1555 4.2939 0 5.1954 16.1555 -4.3177 0 -3.8668 -13.2375 1.708 0 -4.4362 13.2375 -4.2939 0zm16.2504 0l0 -16.1555 6.1205 0c1.5025,0 2.6808,0.174 3.5348,0.5219 0.854,0.348 1.455,0.858 1.803,1.5302 0.3479,0.6721 0.5219,1.4985 0.5219,2.479 0,0.7434 -0.1424,1.3957 -0.4271,1.9572 -0.2846,0.5614 -0.6879,1.0003 -1.2098,1.3166 -0.5219,0.3163 -1.1387,0.4745 -1.8504,0.4745l0 -0.4033c0.9173,0 1.6448,0.1779 2.1825,0.5338 0.5377,0.3558 0.9252,0.8184 1.1624,1.3878 0.2373,0.5693 0.3559,1.1703 0.3559,1.8029 0,1.5341 -0.4666,2.6768 -1.3997,3.428 -0.9331,0.7513 -2.3407,1.1269 -4.2227,1.1269l-6.5713 0zm4.2939 -14.1628l0 12.004 -1.4472 -1.9453 3.5822 0c0.4112,0 0.7473,-0.087 1.0083,-0.261 0.2609,-0.1739 0.3914,-0.4507 0.3914,-0.8303 0,-0.3796 -0.1265,-0.6563 -0.3796,-0.8303 -0.253,-0.174 -0.5772,-0.2609 -0.9726,-0.2609l-3.6297 0 0 -3.5823 3.3213 0c0.4744,0 0.8263,-0.0869 1.0557,-0.2609 0.2293,-0.174 0.344,-0.4507 0.344,-0.8303 0,-0.3796 -0.1147,-0.6564 -0.344,-0.8303 -0.2294,-0.174 -0.5813,-0.261 -1.0557,-0.261l-3.2501 0 1.376 -2.1114zm19.7139 14.1628l-10.2009 0 0 -16.1555 4.2939 0 0 13.9967 -1.3285 -2.0165 7.2355 0 0 4.1753zm4.4362 -6.3815l6.7611 0 0 3.9617 -6.7611 0 0 -3.9617zm-3.9143 6.3815l5.7173 -16.1555 4.2939 0 5.1954 16.1555 -4.3177 0 -3.8668 -13.2375 1.708 0 -4.4362 13.2375 -4.2939 0zm22.4184 0l0 -16.1555 6.1205 0c1.5025,0 2.6808,0.174 3.5348,0.5219 0.854,0.348 1.455,0.858 1.803,1.5302 0.3479,0.6721 0.5219,1.4985 0.5219,2.479 0,0.7434 -0.1424,1.3957 -0.4271,1.9572 -0.2846,0.5614 -0.6879,1.0003 -1.2098,1.3166 -0.5219,0.3163 -1.1387,0.4745 -1.8504,0.4745l0 -0.4033c0.9173,0 1.6448,0.1779 2.1825,0.5338 0.5377,0.3558 0.9252,0.8184 1.1624,1.3878 0.2373,0.5693 0.3559,1.1703 0.3559,1.8029 0,1.5341 -0.4666,2.6768 -1.3997,3.428 -0.9331,0.7513 -2.3407,1.1269 -4.2227,1.1269l-6.5713 0zm4.2939 -14.1628l0 12.004 -1.4472 -1.9453 3.5822 0c0.4112,0 0.7473,-0.087 1.0083,-0.261 0.2609,-0.1739 0.3914,-0.4507 0.3914,-0.8303 0,-0.3796 -0.1265,-0.6563 -0.3796,-0.8303 -0.253,-0.174 -0.5772,-0.2609 -0.9726,-0.2609l-3.6297 0 0 -3.5823 3.3213 0c0.4744,0 0.8263,-0.0869 1.0557,-0.2609 0.2293,-0.174 0.344,-0.4507 0.344,-0.8303 0,-0.3796 -0.1147,-0.6564 -0.344,-0.8303 -0.2294,-0.174 -0.5813,-0.261 -1.0557,-0.261l-3.2501 0 1.376 -2.1114zm13.8069 14.1628l-4.2939 0 0 -16.1555 4.2939 0 0 16.1555zm4.5785 -6.0257l0 -4.1041 6.7374 0 0 4.1041 -6.7374 0zm-0.0711 -6.0257l1.7318 -1.8978 0 12.0513 -1.8505 -2.2062 8.1845 0 0 4.1041 -10.6279 0 0 -16.1555 10.6279 0 0 4.1041 -8.0658 0zm20.0935 12.0514l-7.6151 -10.7703 1.6132 -0.4271 0 11.1974 -4.2939 0 0 -16.1555 4.0092 0 7.5914 10.7703 -1.6132 0.4271 0 -11.1974 4.3176 0 0 16.1555 -4.0092 0zm-150.962 23.0322l0 -16.1555 5.907 0c1.7555,0 3.2382,0.3203 4.4481,0.9608 1.2099,0.6405 2.1312,1.5618 2.7638,2.7637 0.6326,1.202 0.9489,2.6491 0.9489,4.3414 0,1.6922 -0.3163,3.1433 -0.9489,4.3532 -0.6326,1.2099 -1.5578,2.1351 -2.7756,2.7756 -1.2178,0.6405 -2.7045,0.9608 -4.46,0.9608l-5.8833 0zm4.2939 -2.2774l-1.8742 -1.8979 3.1315 0c0.8856,0 1.6329,-0.1305 2.2418,-0.3914 0.6089,-0.261 1.0755,-0.6801 1.3997,-1.2573 0.3242,-0.5773 0.4863,-1.3325 0.4863,-2.2656 0,-0.9331 -0.1581,-1.6844 -0.4744,-2.2537 -0.3164,-0.5694 -0.779,-0.9845 -1.3879,-1.2455 -0.6089,-0.2609 -1.3561,-0.3914 -2.2418,-0.3914l-3.3212 0 2.0402 -1.115 0 10.8178zm13.6882 -3.7483l0 -4.1041 6.7374 0 0 4.1041 -6.7374 0zm-0.0711 -6.0257l1.7318 -1.8978 0 12.0513 -1.8505 -2.2062 8.1845 0 0 4.1041 -10.6279 0 0 -16.1555 10.6279 0 0 4.1041 -8.0658 0zm26.9495 13.285l-5.2666 -8.659 4.3177 0 5.2665 8.659 -4.3176 0zm-11.6244 -9.2995c0,-1.2336 0.1977,-2.3644 0.5931,-3.3924 0.3954,-1.028 0.9568,-1.9176 1.6844,-2.6689 0.7275,-0.7512 1.5973,-1.3324 2.6095,-1.7436 1.0122,-0.4112 2.1351,-0.6168 3.3687,-0.6168 1.2336,0 2.3605,0.2056 3.3806,0.6168 1.0201,0.4112 1.8978,0.9924 2.6332,1.7436 0.7354,0.7513 1.3009,1.6409 1.6962,2.6689 0.3954,1.028 0.5931,2.1588 0.5931,3.3924 0,1.2336 -0.1977,2.3644 -0.5931,3.3924 -0.3953,1.028 -0.9608,1.9177 -1.6962,2.6689 -0.7354,0.7512 -1.6131,1.3285 -2.6332,1.7318 -1.0201,0.4033 -2.147,0.6049 -3.3806,0.6049 -1.2336,0 -2.3565,-0.2016 -3.3687,-0.6049 -1.0122,-0.4033 -1.882,-0.9806 -2.6095,-1.7318 -0.7276,-0.7512 -1.289,-1.6409 -1.6844,-2.6689 -0.3954,-1.028 -0.5931,-2.1588 -0.5931,-3.3924zm4.3888 0c0,0.8857 0.1621,1.6369 0.4863,2.2537 0.3243,0.6168 0.779,1.0834 1.3641,1.3997 0.5852,0.3163 1.2574,0.4744 2.0165,0.4744 0.775,0 1.455,-0.1581 2.0402,-0.4744 0.5852,-0.3163 1.0438,-0.7868 1.3759,-1.4115 0.3322,-0.6248 0.4982,-1.3799 0.4982,-2.2656 0,-0.8857 -0.166,-1.6369 -0.4982,-2.2537 -0.3321,-0.6168 -0.7907,-1.0834 -1.3759,-1.3997 -0.5852,-0.3163 -1.2652,-0.4744 -2.0402,-0.4744 -0.7591,0 -1.4313,0.1621 -2.0165,0.4863 -0.5851,0.3242 -1.0398,0.7947 -1.3641,1.4115 -0.3242,0.6168 -0.4863,1.368 -0.4863,2.2537zm20.2122 8.398c-1.5658,0 -2.8508,-0.2807 -3.8551,-0.8421 -1.0042,-0.5615 -1.7476,-1.3997 -2.2299,-2.5147 -0.4824,-1.115 -0.7236,-2.5028 -0.7236,-4.1634l0 -8.9674 4.3176 0 0 9.3707c0,0.9173 0.2056,1.6329 0.6168,2.1469 0.4112,0.514 1.0359,0.771 1.8742,0.771 0.8382,0 1.4629,-0.257 1.8741,-0.771 0.4112,-0.514 0.6168,-1.2296 0.6168,-2.1469l0 -9.3707 4.3176 0 0 8.9674c0,1.6606 -0.2412,3.0484 -0.7235,4.1634 -0.4824,1.115 -1.2218,1.9532 -2.2182,2.5147 -0.9963,0.5614 -2.2853,0.8421 -3.8668,0.8421zm13.0003 -0.3321l-4.2939 0 0 -16.1555 4.2939 0 0 16.1555zm4.5785 -6.0257l0 -4.1041 6.7374 0 0 4.1041 -6.7374 0zm-0.0711 -6.0257l1.7318 -1.8978 0 12.0513 -1.8505 -2.2062 8.1845 0 0 4.1041 -10.6279 0 0 -16.1555 10.6279 0 0 4.1041 -8.0658 0zm20.0935 12.0514l-7.6151 -10.7703 1.6132 -0.4271 0 11.1974 -4.2939 0 0 -16.1555 4.0092 0 7.5914 10.7703 -1.6132 0.4271 0 -11.1974 4.3176 0 0 16.1555 -4.0092 0zm22.3235 0l-10.2009 0 0 -16.1555 4.2939 0 0 13.9967 -1.3285 -2.0165 7.2355 0 0 4.1753zm0.7591 -8.0659c0,-1.2336 0.1977,-2.3644 0.5931,-3.3924 0.3954,-1.028 0.9568,-1.9176 1.6844,-2.6689 0.7275,-0.7512 1.5973,-1.3324 2.6095,-1.7436 1.0122,-0.4112 2.1351,-0.6168 3.3687,-0.6168 1.2336,0 2.3605,0.2056 3.3806,0.6168 1.0201,0.4112 1.8978,0.9924 2.6332,1.7436 0.7354,0.7513 1.3009,1.6409 1.6962,2.6689 0.3954,1.028 0.5931,2.1588 0.5931,3.3924 0,1.2336 -0.1977,2.3644 -0.5931,3.3924 -0.3953,1.028 -0.9608,1.9177 -1.6962,2.6689 -0.7354,0.7512 -1.6131,1.3285 -2.6332,1.7318 -1.0201,0.4033 -2.147,0.6049 -3.3806,0.6049 -1.2336,0 -2.3565,-0.2016 -3.3687,-0.6049 -1.0122,-0.4033 -1.882,-0.9806 -2.6095,-1.7318 -0.7276,-0.7512 -1.289,-1.6409 -1.6844,-2.6689 -0.3954,-1.028 -0.5931,-2.1588 -0.5931,-3.3924zm4.3888 0c0,0.8857 0.1621,1.6369 0.4863,2.2537 0.3243,0.6168 0.779,1.0834 1.3641,1.3997 0.5852,0.3163 1.2574,0.4744 2.0165,0.4744 0.775,0 1.455,-0.1581 2.0402,-0.4744 0.5852,-0.3163 1.0438,-0.7868 1.3759,-1.4115 0.3322,-0.6248 0.4982,-1.3799 0.4982,-2.2656 0,-0.8857 -0.166,-1.6369 -0.4982,-2.2537 -0.3321,-0.6168 -0.7907,-1.0834 -1.3759,-1.3997 -0.5852,-0.3163 -1.2652,-0.4744 -2.0402,-0.4744 -0.7591,0 -1.4313,0.1621 -2.0165,0.4863 -0.5851,0.3242 -1.0398,0.7947 -1.3641,1.4115 -0.3242,0.6168 -0.4863,1.368 -0.4863,2.2537zm26.3802 8.398c-1.5658,0 -2.8508,-0.2807 -3.8551,-0.8421 -1.0042,-0.5615 -1.7476,-1.3997 -2.2299,-2.5147 -0.4824,-1.115 -0.7236,-2.5028 -0.7236,-4.1634l0 -8.9674 4.3176 0 0 9.3707c0,0.9173 0.2056,1.6329 0.6168,2.1469 0.4112,0.514 1.0359,0.771 1.8742,0.771 0.8382,0 1.4629,-0.257 1.8741,-0.771 0.4112,-0.514 0.6168,-1.2296 0.6168,-2.1469l0 -9.3707 4.3176 0 0 8.9674c0,1.6606 -0.2412,3.0484 -0.7235,4.1634 -0.4824,1.115 -1.2218,1.9532 -2.2182,2.5147 -0.9963,0.5614 -2.2853,0.8421 -3.8668,0.8421zm14.732 0.0949c-1.0121,0 -1.9334,-0.1463 -2.7637,-0.4389 -0.8303,-0.2925 -1.5657,-0.7156 -2.2063,-1.2692 -0.6405,-0.5535 -1.1743,-1.2257 -1.6013,-2.0164l3.2264 -2.1114c0.4112,0.5852 0.9449,1.0557 1.6013,1.4115 0.6563,0.3559 1.3245,0.5338 2.0046,0.5338 0.5219,0 0.9133,-0.1028 1.1743,-0.3084 0.261,-0.2056 0.3914,-0.4586 0.3914,-0.7591 0,-0.2056 -0.0593,-0.3875 -0.1779,-0.5457 -0.1186,-0.1581 -0.3519,-0.3123 -0.6998,-0.4626 -0.348,-0.1502 -0.8541,-0.2965 -1.5183,-0.4388 -1.3918,-0.3164 -2.4989,-0.7157 -3.3213,-1.1981 -0.8224,-0.4823 -1.4075,-1.0675 -1.7555,-1.7555 -0.3479,-0.688 -0.5219,-1.4748 -0.5219,-2.3604 0,-0.9806 0.2531,-1.8702 0.7592,-2.6689 0.506,-0.7987 1.2296,-1.4353 2.1706,-1.9097 0.941,-0.4745 2.06,-0.7117 3.3569,-0.7117 1.455,0 2.6965,0.2886 3.7245,0.8659 1.028,0.5772 1.8188,1.3166 2.3723,2.2181l-3.2263 2.3249c-0.3638,-0.4903 -0.8501,-0.8422 -1.459,-1.0557 -0.6089,-0.2135 -1.1901,-0.3203 -1.7437,-0.3203 -0.4902,0 -0.8817,0.091 -1.1743,0.2728 -0.2925,0.1819 -0.4388,0.431 -0.4388,0.7473 0,0.3163 0.1621,0.5694 0.4863,0.7592 0.3242,0.1898 0.9687,0.3954 1.9334,0.6168 1.3285,0.3005 2.4158,0.684 3.262,1.1505 0.8461,0.4666 1.4708,1.0439 1.8741,1.7318 0.4033,0.688 0.6049,1.5302 0.6049,2.5266 0,0.9963 -0.253,1.886 -0.7591,2.6688 -0.5061,0.7829 -1.2336,1.3957 -2.1825,1.8386 -0.949,0.4428 -2.0798,0.6642 -3.3925,0.6642zm10.7704 -6.8085l6.7611 0 0 3.9617 -6.7611 0 0 -3.9617zm-3.9143 6.3815l5.7173 -16.1555 4.2939 0 5.1954 16.1555 -4.3177 0 -3.8668 -13.2375 1.708 0 -4.4362 13.2375 -4.2939 0z"/>
   <path id="_867462496" class="fil2" d="M84.512 136.671c5.9863,1.3023 12.5742,-0.4585 15.9256,-3.9058 1.1973,-1.2316 2.1857,-2.304 3.1996,-3.744 0.9815,-1.3938 2.3995,-4.0884 2.7468,-6.1279l-60.0848 -0.0522 -0.0693 6.9809c2.7206,1.6892 3.6815,2.612 4.762,6.5949 0.9888,3.6453 0.6089,6.7197 1.0682,10.2363l32.377 0.03 0.0749 -10.0122z"/>
   <path id="_867462256" class="fil2" d="M163.694 109.498c1.5126,-1.9634 4.9727,-8.5225 4.7918,-11.9835l-32.3065 -0.0036c-0.1618,1.4487 1.269,5.4989 1.8162,6.7638 1.663,3.8442 4.0802,7.1549 7.4854,9.4824 2.3981,1.6392 3.5921,1.5567 6.8661,1.5567 1.2719,0 3.0291,0.2042 4.1385,-0.1905 2.8526,-1.0146 5.4397,-3.3294 7.2085,-5.6253z"/>
   <polygon id="_867462088" class="fil2" points="46.0621,115.328 60.2154,115.443 60.252,91.4427 46.0681,91.3794 "/>
   <path id="_867461536" class="fil2" d="M155.195 117.716c-0.9665,-0.4908 -4.8721,-0.5735 -5.7498,0 0.24,1.3418 0.632,0.1551 0.8548,1.5168 0.0464,0.2833 -0.0174,1.6872 -0.0183,2.0893 -0.0032,1.4594 -0.0015,2.9195 0.0002,4.3789 0.005,4.4756 -0.0053,4.0303 -2.1151,6.6516 -2.1033,2.6132 -2.861,10.7295 -2.5482,14.7504l13.4131 0.027c0.04,-8.5957 -0.768,-13.9045 -2.7045,-14.8411 -1.9479,-2.1001 -1.9592,-3.1578 -1.9573,-6.8455l0.0455 -6.4057c0.5119,-1.5269 0.5991,0.6338 0.7796,-1.3217z"/>
   <path id="_867461584" class="fil2" d="M110.54 133.875c1.148,1.4577 1.5117,0.3593 1.8437,2.9524l1.7412 13.7013 10.1146 0.1182c0.5062,-4.0494 1.3609,-9.8927 1.7123,-13.8212 0.2475,-2.7667 1.071,-1.2839 1.7849,-2.9829l-17.1967 0.0322z"/>
   <path id="_867461248" class="fil2" d="M46.3633 120.377c6.4926,0.3767 24.0765,0.0323 31.8006,0.0323 3.1054,0 25.6265,0.2078 28.0938,0.0144 1.185,-0.0929 1.0152,-1.2909 0.8626,-2.5386l-60.7335 -0.0043c-0.1907,1.4868 -0.14,1.0002 -0.0235,2.4962z"/>
   <path id="_867461224" class="fil2" d="M62.4647 115.384l43.7631 0.0671 -2.3058 -3.1183c-10.5444,-0.0925 -31.722,-0.4499 -41.4337,0.0853l-0.0236 2.9659z"/>
   <path id="_867461488" class="fil2" d="M83.8439 148.217c-7.3666,-0.1687 -16.884,0.0088 -24.4833,0.0088 -1.9341,0 -8.1182,-0.536 -8.9687,0.6951 -2.1798,3.1553 4.775,2.3783 6.6504,2.3783 5.2949,0 26.6827,0.5385 28.6556,-0.5089 0.2912,-1.7179 0.0629,-2.5294 -1.854,-2.5733z"/>
   <path id="_867461368" class="fil2" d="M60.2404 88.8901c0.0895,-4.5052 -1.3965,-3.6436 -7.3194,-3.6436 -5.8076,0 -6.8889,-0.7198 -6.8523,3.5353l14.1717 0.1083z"/>
   <polygon id="_867460648" class="fil2" points="145.678,152.357 158.93,152.38 158.995,148.982 145.651,148.962 "/>
   <polygon id="_867460624" class="fil2" points="110.368,132.754 127.734,132.811 126.994,130.499 111.294,130.408 "/>
   <rect id="_867460576" class="fil3 str1" x="7.95" y="10.2882" width="200" height="258.824" rx="8.4684" ry="8.4684"/>
   <path id="_867460720" class="fil2" d="M137.662 54.8663c-0.3033,-1.663 -0.2504,-23.2728 -0.1416,-26.2779 0.1077,-2.9755 1.4626,-4.9593 3.0506,-6.1011 2.3721,-1.7058 3.7991,-1.5329 7.1396,-1.5322 3.0051,0.0006 6.0102,0 9.0153,0 2.9173,0 5.3289,-0.344 7.6628,0.9776 4.9562,2.8066 3.8316,8.2612 3.8316,13.8727 0,5.3542 0.1408,12.3928 -0.0093,17.5231 -0.089,3.0436 -1.2356,4.7731 -2.8236,6.0801 -2.2888,1.8836 -3.7796,1.7385 -7.116,1.7374 -3.5682,-0.0012 -14.2762,0.6248 -16.8795,-0.9739 -1.749,-1.0739 -3.272,-2.7957 -3.7299,-5.3058zm-2.2187 8.1314l34.8627 0.0193 -0.0203 -43.9836 -34.844 0.0711 0.0016 43.8932z"/>
   <path id="_867460480" class="fil2" d="M93.5495 78.4263c1.3919,-0.5158 3.0102,-0.2839 4.1583,0.4178 1.0941,0.6687 1.7195,1.5353 2.1555,2.7742 2.1639,6.1499 -7.3296,9.382 -9.466,3.2412 -0.5409,-1.5547 -0.3058,-3.0338 0.3875,-4.2143 0.6601,-1.1241 1.4001,-1.7131 2.7647,-2.2189zm-8.3862 8.9394c1.9235,2.7769 2.3561,4.393 6.3631,5.8936 6.3113,2.3637 13.8419,-2.2036 14.3016,-9.2641 0.5698,-8.753 -8.9518,-14.8913 -17.0246,-9.4605 -4.8078,3.2344 -4.3792,8.8331 -4.3796,13.5595 -0.0001,2.0305 -0.3769,10.6643 0.1796,11.7841 1.2565,-3.5082 -0.2641,-8.7875 0.5599,-12.5126z"/>
   <path id="_867460048" class="fil2" d="M150.404 90.5032l-2.8218 -0.0024 -0.0267 -3.7907 -2.477 0.0086 -0.0814 3.8322 -9.4413 0.0239 0.2183 4.7062 33.1459 0.0176 0.1039 -4.7345 -10.9022 -0.0463 -0.0274 -3.8051 -2.4528 -0.0091 -0.0902 3.8447 -2.6115 -0.0318 1.0215 -6.7969 2.4899 0.0351 0.7898 1.1788c0.1818,-0.1334 0.1051,0.1604 0.5132,-0.4493 0.6034,-0.9016 0.1866,-1.3659 -0.3735,-2.979l-5.0062 0.0041 -1.9705 8.9939z"/>
   <path id="_867459688" class="fil2" d="M91.719 83.7153c0.4836,4.1477 7.4805,3.6528 6.8001,-1.0245 -0.2657,-1.8265 -1.8958,-3.2872 -4.1263,-2.8605 -1.6644,0.3183 -2.9013,1.9344 -2.6738,3.885z"/>
   <path id="_867460192" class="fil4" d="M137.662 54.8663c0.4579,2.5101 1.9809,4.2319 3.7299,5.3058 2.6033,1.5987 13.3113,0.9727 16.8795,0.9739 3.3364,0.0011 4.8272,0.1462 7.116,-1.7374 1.588,-1.307 2.7346,-3.0365 2.8236,-6.0801 0.1501,-5.1303 0.0093,-12.1689 0.0093,-17.5231 0,-5.6115 1.1246,-11.0661 -3.8316,-13.8727 -2.3339,-1.3216 -4.7455,-0.9776 -7.6628,-0.9776 -3.0051,0 -6.0102,0.0006 -9.0153,0 -3.3405,-0.0007 -4.7675,-0.1736 -7.1396,1.5322 -1.588,1.1418 -2.9429,3.1256 -3.0506,6.1011 -0.1088,3.0051 -0.1617,24.6149 0.1416,26.2779z"/>
   <path id="_867459616" class="fil4" d="M91.719 83.7153c-0.2275,-1.9506 1.0094,-3.5667 2.6738,-3.885 2.2305,-0.4267 3.8606,1.034 4.1263,2.8605 0.6804,4.6773 -6.3165,5.1722 -6.8001,1.0245zm1.8305 -5.289c-1.3646,0.5058 -2.1046,1.0948 -2.7647,2.2189 -0.6933,1.1805 -0.9284,2.6596 -0.3875,4.2143 2.1364,6.1408 11.6299,2.9087 9.466,-3.2412 -0.436,-1.2389 -1.0614,-2.1055 -2.1555,-2.7742 -1.1481,-0.7017 -2.7664,-0.9336 -4.1583,-0.4178z"/>
   <g>
    <path id="_867459592" class="fil1" d="M73.2258 239.365l0 -1.2418 2.0037 0 0 1.2418 -2.0037 0zm0.4303 1.6157l-1.277 0 0 -4.8049 3.1609 0 0 1.2418 -2.3989 0 0.515 -0.5856 0 4.1487zm3.2103 -1.898l2.0108 0 0 1.1783 -2.0108 0 0 -1.1783zm-1.1642 1.898l1.7004 -4.8049 1.2771 0 1.5452 4.8049 -1.2842 0 -1.15 -3.937 0.508 0 -1.3194 3.937 -1.2771 0zm6.1454 0l-1.5734 -4.8049 1.3124 0 1.2488 3.9371 -0.6068 0 1.2559 -3.9371 1.2771 0 -1.5734 4.8049 -1.3406 0zm3.041 -2.3989c0,-0.3669 0.0588,-0.7032 0.1764,-1.009 0.1176,-0.3057 0.2845,-0.5703 0.5009,-0.7937 0.2164,-0.2234 0.4751,-0.3963 0.7761,-0.5186 0.3011,-0.1223 0.635,-0.1834 1.0019,-0.1834 0.3669,0 0.7021,0.0611 1.0055,0.1834 0.3033,0.1223 0.5644,0.2952 0.7831,0.5186 0.2187,0.2234 0.3869,0.488 0.5045,0.7937 0.1176,0.3058 0.1764,0.6421 0.1764,1.009 0,0.3669 -0.0588,0.7032 -0.1764,1.0089 -0.1176,0.3058 -0.2858,0.5704 -0.5045,0.7938 -0.2187,0.2234 -0.4798,0.3951 -0.7831,0.5151 -0.3034,0.1199 -0.6386,0.1799 -1.0055,0.1799 -0.3669,0 -0.7008,-0.06 -1.0019,-0.1799 -0.301,-0.12 -0.5597,-0.2917 -0.7761,-0.5151 -0.2164,-0.2234 -0.3833,-0.488 -0.5009,-0.7938 -0.1176,-0.3057 -0.1764,-0.642 -0.1764,-1.0089zm1.3053 0c0,0.2634 0.0482,0.4868 0.1446,0.6703 0.0964,0.1834 0.2317,0.3222 0.4057,0.4163 0.174,0.094 0.3739,0.1411 0.5997,0.1411 0.2305,0 0.4328,-0.0471 0.6068,-0.1411 0.174,-0.0941 0.3105,-0.2341 0.4092,-0.4198 0.0988,-0.1858 0.1482,-0.4105 0.1482,-0.6739 0,-0.2634 -0.0494,-0.4868 -0.1482,-0.6702 -0.0987,-0.1835 -0.2352,-0.3222 -0.4092,-0.4163 -0.174,-0.0941 -0.3763,-0.1411 -0.6068,-0.1411 -0.2258,0 -0.4257,0.0482 -0.5997,0.1446 -0.174,0.0964 -0.3093,0.2364 -0.4057,0.4198 -0.0964,0.1835 -0.1446,0.4069 -0.1446,0.6703zm4.0005 2.3989l0 -4.8049 1.778 0c0.3528,0 0.6738,0.0671 0.9631,0.2011 0.2893,0.1341 0.5197,0.3316 0.6914,0.5927 0.1717,0.261 0.2576,0.5844 0.2576,0.9701 0,0.3857 -0.0859,0.7091 -0.2576,0.9702 -0.1717,0.261 -0.4021,0.4574 -0.6914,0.5891 -0.2893,0.1317 -0.6103,0.1976 -0.9631,0.1976l-0.8043 0 0 -1.2418 0.762 0c0.2163,0 0.3798,-0.0423 0.4903,-0.127 0.1106,-0.0847 0.1658,-0.214 0.1658,-0.3881 0,-0.1693 -0.0552,-0.2987 -0.1658,-0.388 -0.1105,-0.0894 -0.274,-0.1341 -0.4903,-0.1341l-0.7691 0 0.3104 -0.2751 0 3.8382 -1.277 0zm2.3424 0l-0.9454 -1.9191 1.397 0 0.9454 1.9191 -1.397 0zm3.6196 0l0 -4.8049 1.7568 0c0.5221,0 0.9631,0.0953 1.3229,0.2858 0.3599,0.1905 0.6339,0.4645 0.822,0.822 0.1882,0.3574 0.2823,0.7878 0.2823,1.2911 0,0.5033 -0.0941,0.9349 -0.2823,1.2947 -0.1881,0.3599 -0.4633,0.635 -0.8255,0.8255 -0.3622,0.1905 -0.8043,0.2858 -1.3264,0.2858l-1.7498 0zm1.277 -0.6773l-0.5573 -0.5645 0.9313 0c0.2634,0 0.4857,-0.0388 0.6667,-0.1164 0.1811,-0.0776 0.3199,-0.2023 0.4163,-0.3739 0.0965,-0.1717 0.1447,-0.3963 0.1447,-0.6739 0,-0.2775 -0.0471,-0.5009 -0.1411,-0.6702 -0.0941,-0.1694 -0.2317,-0.2928 -0.4128,-0.3705 -0.1811,-0.0776 -0.4033,-0.1164 -0.6668,-0.1164l-0.9877 0 0.6067 -0.3316 0 3.2174zm4.0712 -1.1148l0 -1.2206 2.0037 0 0 1.2206 -2.0037 0zm-0.0212 -1.7921l0.515 -0.5645 0 3.5843 -0.5503 -0.6562 2.4342 0 0 1.2206 -3.1609 0 0 -4.8049 3.1609 0 0 1.2207 -2.3989 0zm7.8106 3.5842l-2.2648 -3.2032 0.4797 -0.127 0 3.3302 -1.277 0 0 -4.8049 1.1924 0 2.2578 3.2033 -0.4798 0.127 0 -3.3303 1.2841 0 0 4.8049 -1.1924 0zm1.5805 -2.3989c0,-0.3669 0.0588,-0.7032 0.1764,-1.009 0.1176,-0.3057 0.2845,-0.5703 0.5009,-0.7937 0.2164,-0.2234 0.4751,-0.3963 0.7761,-0.5186 0.3011,-0.1223 0.635,-0.1834 1.0019,-0.1834 0.3669,0 0.7021,0.0611 1.0055,0.1834 0.3033,0.1223 0.5644,0.2952 0.7831,0.5186 0.2187,0.2234 0.3869,0.488 0.5045,0.7937 0.1176,0.3058 0.1764,0.6421 0.1764,1.009 0,0.3669 -0.0588,0.7032 -0.1764,1.0089 -0.1176,0.3058 -0.2858,0.5704 -0.5045,0.7938 -0.2187,0.2234 -0.4798,0.3951 -0.7831,0.5151 -0.3034,0.1199 -0.6386,0.1799 -1.0055,0.1799 -0.3669,0 -0.7008,-0.06 -1.0019,-0.1799 -0.301,-0.12 -0.5597,-0.2917 -0.7761,-0.5151 -0.2164,-0.2234 -0.3833,-0.488 -0.5009,-0.7938 -0.1176,-0.3057 -0.1764,-0.642 -0.1764,-1.0089zm1.3053 0c0,0.2634 0.0482,0.4868 0.1446,0.6703 0.0964,0.1834 0.2317,0.3222 0.4057,0.4163 0.174,0.094 0.3739,0.1411 0.5997,0.1411 0.2305,0 0.4328,-0.0471 0.6068,-0.1411 0.174,-0.0941 0.3105,-0.2341 0.4092,-0.4198 0.0988,-0.1858 0.1482,-0.4105 0.1482,-0.6739 0,-0.2634 -0.0494,-0.4868 -0.1482,-0.6702 -0.0987,-0.1835 -0.2352,-0.3222 -0.4092,-0.4163 -0.174,-0.0941 -0.3763,-0.1411 -0.6068,-0.1411 -0.2258,0 -0.4257,0.0482 -0.5997,0.1446 -0.174,0.0964 -0.3093,0.2364 -0.4057,0.4198 -0.0964,0.1835 -0.1446,0.4069 -0.1446,0.6703zm8.8689 2.3989l-3.0339 0 0 -4.8049 1.277 0 0 4.1628 -0.3951 -0.5997 2.152 0 0 1.2418zm1.3194 -1.898l2.0108 0 0 1.1783 -2.0108 0 0 -1.1783zm-1.1642 1.898l1.7004 -4.8049 1.2771 0 1.5452 4.8049 -1.2842 0 -1.15 -3.937 0.508 0 -1.3194 3.937 -1.2771 0zm6.1454 0l-1.5734 -4.8049 1.3124 0 1.2488 3.9371 -0.6068 0 1.2559 -3.9371 1.2771 0 -1.5734 4.8049 -1.3406 0zm4.1346 -1.898l2.0108 0 0 1.1783 -2.0108 0 0 -1.1783zm-1.1642 1.898l1.7004 -4.8049 1.2771 0 1.5452 4.8049 -1.2842 0 -1.15 -3.937 0.508 0 -1.3194 3.937 -1.2771 0zm4.8331 0l0 -4.8049 1.778 0c0.3528,0 0.6738,0.0671 0.9631,0.2011 0.2893,0.1341 0.5197,0.3316 0.6914,0.5927 0.1717,0.261 0.2576,0.5844 0.2576,0.9701 0,0.3857 -0.0859,0.7091 -0.2576,0.9702 -0.1717,0.261 -0.4021,0.4574 -0.6914,0.5891 -0.2893,0.1317 -0.6103,0.1976 -0.9631,0.1976l-0.8043 0 0 -1.2418 0.762 0c0.2163,0 0.3798,-0.0423 0.4903,-0.127 0.1106,-0.0847 0.1658,-0.214 0.1658,-0.3881 0,-0.1693 -0.0552,-0.2987 -0.1658,-0.388 -0.1105,-0.0894 -0.274,-0.1341 -0.4903,-0.1341l-0.7691 0 0.3104 -0.2751 0 3.8382 -1.277 0zm2.3424 0l-0.9454 -1.9191 1.397 0 0.9454 1.9191 -1.397 0zm-105.746 6.8501l0 -4.3533 1.2912 0 0 4.3533 -1.2912 0zm-1.3617 -3.5631l0 -1.2418 4.0076 0 0 1.2418 -4.0076 0zm4.3674 3.5631l0 -4.8049 1.778 0c0.3528,0 0.6738,0.0671 0.9631,0.2011 0.2893,0.1341 0.5197,0.3316 0.6914,0.5927 0.1717,0.261 0.2576,0.5844 0.2576,0.9701 0,0.3857 -0.0859,0.7091 -0.2576,0.9702 -0.1717,0.261 -0.4021,0.4574 -0.6914,0.5891 -0.2893,0.1317 -0.6103,0.1976 -0.9631,0.1976l-0.8043 0 0 -1.2418 0.762 0c0.2163,0 0.3798,-0.0423 0.4903,-0.127 0.1106,-0.0847 0.1658,-0.214 0.1658,-0.3881 0,-0.1693 -0.0552,-0.2987 -0.1658,-0.388 -0.1105,-0.0894 -0.274,-0.1341 -0.4903,-0.1341l-0.7691 0 0.3104 -0.2751 0 3.8382 -1.277 0zm2.3424 0l-0.9454 -1.9191 1.397 0 0.9454 1.9191 -1.397 0zm2.6882 -1.898l2.0108 0 0 1.1783 -2.0108 0 0 -1.1783zm-1.1642 1.898l1.7004 -4.8049 1.2771 0 1.5452 4.8049 -1.2842 0 -1.15 -3.937 0.508 0 -1.3194 3.937 -1.2771 0zm6.6252 0.127c-0.301,0 -0.575,-0.0435 -0.822,-0.1305 -0.2469,-0.087 -0.4656,-0.2129 -0.6561,-0.3775 -0.1905,-0.1646 -0.3493,-0.3645 -0.4763,-0.5997l0.9596 -0.628c0.1223,0.1741 0.281,0.314 0.4762,0.4198 0.1952,0.1059 0.394,0.1588 0.5962,0.1588 0.1552,0 0.2717,-0.0306 0.3493,-0.0917 0.0776,-0.0612 0.1164,-0.1364 0.1164,-0.2258 0,-0.0612 -0.0177,-0.1153 -0.0529,-0.1623 -0.0353,-0.047 -0.1047,-0.0929 -0.2082,-0.1376 -0.1035,-0.0447 -0.254,-0.0882 -0.4515,-0.1305 -0.414,-0.0941 -0.7432,-0.2129 -0.9878,-0.3563 -0.2446,-0.1435 -0.4186,-0.3175 -0.5221,-0.5221 -0.1035,-0.2046 -0.1553,-0.4387 -0.1553,-0.7021 0,-0.2916 0.0753,-0.5562 0.2258,-0.7937 0.1505,-0.2376 0.3657,-0.4269 0.6456,-0.568 0.2799,-0.1411 0.6127,-0.2117 0.9984,-0.2117 0.4327,0 0.802,0.0859 1.1077,0.2576 0.3058,0.1717 0.5409,0.3916 0.7056,0.6597l-0.9596 0.6914c-0.1082,-0.1458 -0.2528,-0.2505 -0.4339,-0.314 -0.1811,-0.0635 -0.354,-0.0952 -0.5186,-0.0952 -0.1458,0 -0.2622,0.027 -0.3493,0.0811 -0.087,0.0541 -0.1305,0.1282 -0.1305,0.2223 0,0.0941 0.0482,0.1693 0.1447,0.2258 0.0964,0.0564 0.2881,0.1176 0.575,0.1834 0.3951,0.0894 0.7185,0.2034 0.9701,0.3422 0.2517,0.1388 0.4375,0.3104 0.5574,0.5151 0.12,0.2046 0.1799,0.455 0.1799,0.7514 0,0.2963 -0.0752,0.5609 -0.2257,0.7937 -0.1506,0.2329 -0.3669,0.4151 -0.6491,0.5468 -0.2823,0.1317 -0.6186,0.1976 -1.009,0.1976zm3.436 -0.127l0 -4.3533 1.2912 0 0 4.3533 -1.2912 0zm-1.3617 -3.5631l0 -1.2418 4.0076 0 0 1.2418 -4.0076 0zm5.1506 1.771l0 -1.2206 2.0037 0 0 1.2206 -2.0037 0zm-0.0212 -1.7921l0.515 -0.5645 0 3.5843 -0.5503 -0.6562 2.4342 0 0 1.2206 -3.1609 0 0 -4.8049 3.1609 0 0 1.2207 -2.3989 0zm4.7061 3.7112c-0.301,0 -0.575,-0.0435 -0.822,-0.1305 -0.2469,-0.087 -0.4656,-0.2129 -0.6561,-0.3775 -0.1905,-0.1646 -0.3493,-0.3645 -0.4763,-0.5997l0.9596 -0.628c0.1223,0.1741 0.281,0.314 0.4762,0.4198 0.1952,0.1059 0.394,0.1588 0.5962,0.1588 0.1552,0 0.2717,-0.0306 0.3493,-0.0917 0.0776,-0.0612 0.1164,-0.1364 0.1164,-0.2258 0,-0.0612 -0.0177,-0.1153 -0.0529,-0.1623 -0.0353,-0.047 -0.1047,-0.0929 -0.2082,-0.1376 -0.1035,-0.0447 -0.254,-0.0882 -0.4515,-0.1305 -0.414,-0.0941 -0.7432,-0.2129 -0.9878,-0.3563 -0.2446,-0.1435 -0.4186,-0.3175 -0.5221,-0.5221 -0.1035,-0.2046 -0.1553,-0.4387 -0.1553,-0.7021 0,-0.2916 0.0753,-0.5562 0.2258,-0.7937 0.1505,-0.2376 0.3657,-0.4269 0.6456,-0.568 0.2799,-0.1411 0.6127,-0.2117 0.9984,-0.2117 0.4327,0 0.802,0.0859 1.1077,0.2576 0.3058,0.1717 0.5409,0.3916 0.7056,0.6597l-0.9596 0.6914c-0.1082,-0.1458 -0.2528,-0.2505 -0.4339,-0.314 -0.1811,-0.0635 -0.354,-0.0952 -0.5186,-0.0952 -0.1458,0 -0.2622,0.027 -0.3493,0.0811 -0.087,0.0541 -0.1305,0.1282 -0.1305,0.2223 0,0.0941 0.0482,0.1693 0.1447,0.2258 0.0964,0.0564 0.2881,0.1176 0.575,0.1834 0.3951,0.0894 0.7185,0.2034 0.9701,0.3422 0.2517,0.1388 0.4375,0.3104 0.5574,0.5151 0.12,0.2046 0.1799,0.455 0.1799,0.7514 0,0.2963 -0.0752,0.5609 -0.2257,0.7937 -0.1506,0.2329 -0.3669,0.4151 -0.6491,0.5468 -0.2823,0.1317 -0.6186,0.1976 -1.009,0.1976zm4.9178 -1.9191l0 -1.2206 2.0037 0 0 1.2206 -2.0037 0zm-0.0212 -1.7921l0.515 -0.5645 0 3.5843 -0.5503 -0.6562 2.4342 0 0 1.2206 -3.1609 0 0 -4.8049 3.1609 0 0 1.2207 -2.3989 0zm5.9761 3.5842l-2.2648 -3.2032 0.4797 -0.127 0 3.3302 -1.277 0 0 -4.8049 1.1924 0 2.2578 3.2033 -0.4798 0.127 0 -3.3303 1.2841 0 0 4.8049 -1.1924 0zm4.3887 -1.7921l0 -1.2206 2.0037 0 0 1.2206 -2.0037 0zm-0.0212 -1.7921l0.515 -0.5645 0 3.5843 -0.5503 -0.6562 2.4342 0 0 1.2206 -3.1609 0 0 -4.8049 3.1609 0 0 1.2207 -2.3989 0zm5.9479 3.5842l-3.0339 0 0 -4.8049 1.277 0 0 4.1628 -0.3951 -0.5997 2.152 0 0 1.2418zm7.1192 0l-3.0339 0 0 -4.8049 1.277 0 0 4.1628 -0.3951 -0.5997 2.152 0 0 1.2418zm1.3194 -1.898l2.0108 0 0 1.1783 -2.0108 0 0 -1.1783zm-1.1642 1.898l1.7004 -4.8049 1.2771 0 1.5452 4.8049 -1.2842 0 -1.15 -3.937 0.508 0 -1.3194 3.937 -1.2771 0zm6.1454 0l-1.5734 -4.8049 1.3124 0 1.2488 3.9371 -0.6068 0 1.2559 -3.9371 1.2771 0 -1.5734 4.8049 -1.3406 0zm4.1346 -1.898l2.0108 0 0 1.1783 -2.0108 0 0 -1.1783zm-1.1642 1.898l1.7004 -4.8049 1.2771 0 1.5452 4.8049 -1.2842 0 -1.15 -3.937 0.508 0 -1.3194 3.937 -1.2771 0zm4.8331 0l0 -4.8049 1.8203 0c0.4469,0 0.7973,0.0518 1.0513,0.1553 0.254,0.1034 0.4328,0.2551 0.5362,0.455 0.1035,0.2 0.1553,0.4457 0.1553,0.7374 0,0.221 -0.0424,0.4151 -0.127,0.582 -0.0847,0.167 -0.2047,0.2976 -0.3599,0.3916 -0.1552,0.0941 -0.3386,0.1411 -0.5503,0.1411l0 -0.1199c0.2728,0 0.4892,0.0529 0.6491,0.1587 0.1599,0.1059 0.2752,0.2435 0.3457,0.4128 0.0706,0.1693 0.1059,0.3481 0.1059,0.5362 0,0.4563 -0.1388,0.7961 -0.4163,1.0196 -0.2775,0.2234 -0.6962,0.3351 -1.2559,0.3351l-1.9544 0zm1.277 -4.2122l0 3.5701 -0.4303 -0.5785 1.0653 0c0.1223,0 0.2223,-0.0259 0.2999,-0.0776 0.0776,-0.0518 0.1164,-0.1341 0.1164,-0.247 0,-0.1129 -0.0376,-0.1952 -0.1129,-0.2469 -0.0752,-0.0518 -0.1716,-0.0776 -0.2892,-0.0776l-1.0795 0 0 -1.0654 0.9877 0c0.1411,0 0.2458,-0.0259 0.314,-0.0776 0.0682,-0.0518 0.1023,-0.1341 0.1023,-0.247 0,-0.1129 -0.0341,-0.1952 -0.1023,-0.2469 -0.0682,-0.0518 -0.1729,-0.0776 -0.314,-0.0776l-0.9666 0 0.4092 -0.628zm2.6389 1.8133c0,-0.3669 0.0588,-0.7032 0.1764,-1.009 0.1176,-0.3057 0.2845,-0.5703 0.5009,-0.7937 0.2164,-0.2234 0.4751,-0.3963 0.7761,-0.5186 0.3011,-0.1223 0.635,-0.1834 1.0019,-0.1834 0.3669,0 0.7021,0.0611 1.0055,0.1834 0.3033,0.1223 0.5644,0.2952 0.7831,0.5186 0.2187,0.2234 0.3869,0.488 0.5045,0.7937 0.1176,0.3058 0.1764,0.6421 0.1764,1.009 0,0.3669 -0.0588,0.7032 -0.1764,1.0089 -0.1176,0.3058 -0.2858,0.5704 -0.5045,0.7938 -0.2187,0.2234 -0.4798,0.3951 -0.7831,0.5151 -0.3034,0.1199 -0.6386,0.1799 -1.0055,0.1799 -0.3669,0 -0.7008,-0.06 -1.0019,-0.1799 -0.301,-0.12 -0.5597,-0.2917 -0.7761,-0.5151 -0.2164,-0.2234 -0.3833,-0.488 -0.5009,-0.7938 -0.1176,-0.3057 -0.1764,-0.642 -0.1764,-1.0089zm1.3053 0c0,0.2634 0.0482,0.4868 0.1446,0.6703 0.0964,0.1834 0.2317,0.3222 0.4057,0.4163 0.174,0.094 0.3739,0.1411 0.5997,0.1411 0.2305,0 0.4328,-0.0471 0.6068,-0.1411 0.174,-0.0941 0.3105,-0.2341 0.4092,-0.4198 0.0988,-0.1858 0.1482,-0.4105 0.1482,-0.6739 0,-0.2634 -0.0494,-0.4868 -0.1482,-0.6702 -0.0987,-0.1835 -0.2352,-0.3222 -0.4092,-0.4163 -0.174,-0.0941 -0.3763,-0.1411 -0.6068,-0.1411 -0.2258,0 -0.4257,0.0482 -0.5997,0.1446 -0.174,0.0964 -0.3093,0.2364 -0.4057,0.4198 -0.0964,0.1835 -0.1446,0.4069 -0.1446,0.6703zm5.6938 1.8062c0,0.3011 -0.087,0.5951 -0.261,0.882 -0.1741,0.2869 -0.4657,0.5832 -0.8749,0.889l-0.6774 -0.6421c0.1835,-0.1552 0.3128,-0.2987 0.3881,-0.4304 0.0753,-0.1317 0.1129,-0.2634 0.1129,-0.3951 0,-0.0988 -0.0353,-0.1893 -0.1059,-0.2716 -0.0705,-0.0823 -0.181,-0.1611 -0.3316,-0.2364 0.0424,-0.2069 0.1141,-0.3657 0.2152,-0.4762 0.1012,-0.1106 0.2141,-0.187 0.3387,-0.2293 0.1246,-0.0424 0.2434,-0.0635 0.3563,-0.0635 0.1411,0 0.2752,0.0388 0.4022,0.1164 0.127,0.0776 0.2316,0.1881 0.314,0.3316 0.0823,0.1435 0.1234,0.3187 0.1234,0.5256zm3.0411 -1.1994l0 -1.2206 2.0037 0 0 1.2206 -2.0037 0zm-0.0212 -1.7921l0.515 -0.5645 0 3.5843 -0.5503 -0.6562 2.4342 0 0 1.2206 -3.1609 0 0 -4.8049 3.1609 0 0 1.2207 -2.3989 0zm4.2263 3.5842l-1.5734 -4.8049 1.3124 0 1.2488 3.9371 -0.6068 0 1.2559 -3.9371 1.2771 0 -1.5734 4.8049 -1.3406 0zm4.5085 0l-1.277 0 0 -4.8049 1.277 0 0 4.8049zm1.7145 0l0 -4.3533 1.2912 0 0 4.3533 -1.2912 0zm-1.3617 -3.5631l0 -1.2418 4.0076 0 0 1.2418 -4.0076 0zm5.2705 1.6651l2.0108 0 0 1.1783 -2.0108 0 0 -1.1783zm-1.1642 1.898l1.7004 -4.8049 1.2771 0 1.5452 4.8049 -1.2842 0 -1.15 -3.937 0.508 0 -1.3194 3.937 -1.2771 0zm9.9343 0.3669l-1.5663 -2.5753 1.2841 0 1.5663 2.5753 -1.2841 0zm-3.4572 -2.7658c0,-0.3669 0.0588,-0.7032 0.1764,-1.009 0.1176,-0.3057 0.2845,-0.5703 0.5009,-0.7937 0.2164,-0.2234 0.4751,-0.3963 0.7761,-0.5186 0.3011,-0.1223 0.635,-0.1834 1.0019,-0.1834 0.3669,0 0.7021,0.0611 1.0055,0.1834 0.3033,0.1223 0.5644,0.2952 0.7831,0.5186 0.2187,0.2234 0.3869,0.488 0.5045,0.7937 0.1176,0.3058 0.1764,0.6421 0.1764,1.009 0,0.3669 -0.0588,0.7032 -0.1764,1.0089 -0.1176,0.3058 -0.2858,0.5704 -0.5045,0.7938 -0.2187,0.2234 -0.4798,0.3951 -0.7831,0.5151 -0.3034,0.1199 -0.6386,0.1799 -1.0055,0.1799 -0.3669,0 -0.7008,-0.06 -1.0019,-0.1799 -0.301,-0.12 -0.5597,-0.2917 -0.7761,-0.5151 -0.2164,-0.2234 -0.3833,-0.488 -0.5009,-0.7938 -0.1176,-0.3057 -0.1764,-0.642 -0.1764,-1.0089zm1.3053 0c0,0.2634 0.0482,0.4868 0.1446,0.6703 0.0964,0.1834 0.2317,0.3222 0.4057,0.4163 0.174,0.094 0.3739,0.1411 0.5997,0.1411 0.2305,0 0.4328,-0.0471 0.6068,-0.1411 0.174,-0.0941 0.3105,-0.2341 0.4092,-0.4198 0.0988,-0.1858 0.1482,-0.4105 0.1482,-0.6739 0,-0.2634 -0.0494,-0.4868 -0.1482,-0.6702 -0.0987,-0.1835 -0.2352,-0.3222 -0.4092,-0.4163 -0.174,-0.0941 -0.3763,-0.1411 -0.6068,-0.1411 -0.2258,0 -0.4257,0.0482 -0.5997,0.1446 -0.174,0.0964 -0.3093,0.2364 -0.4057,0.4198 -0.0964,0.1835 -0.1446,0.4069 -0.1446,0.6703zm6.0113 2.4977c-0.4656,0 -0.8478,-0.0835 -1.1465,-0.2505 -0.2987,-0.167 -0.5198,-0.4163 -0.6632,-0.7479 -0.1435,-0.3316 -0.2152,-0.7444 -0.2152,-1.2382l0 -2.6671 1.2841 0 0 2.787c0,0.2728 0.0611,0.4857 0.1834,0.6385 0.1223,0.1529 0.3081,0.2293 0.5574,0.2293 0.2493,0 0.4351,-0.0764 0.5574,-0.2293 0.1223,-0.1528 0.1835,-0.3657 0.1835,-0.6385l0 -2.787 1.2841 0 0 2.6671c0,0.4938 -0.0717,0.9066 -0.2152,1.2382 -0.1435,0.3316 -0.3634,0.5809 -0.6597,0.7479 -0.2963,0.167 -0.6797,0.2505 -1.1501,0.2505zm3.3727 -1.8909l0 -1.2206 2.0037 0 0 1.2206 -2.0037 0zm-0.0212 -1.7921l0.515 -0.5645 0 3.5843 -0.5503 -0.6562 2.4342 0 0 1.2206 -3.1609 0 0 -4.8049 3.1609 0 0 1.2207 -2.3989 0zm6.5406 3.7112c-0.301,0 -0.575,-0.0435 -0.822,-0.1305 -0.2469,-0.087 -0.4656,-0.2129 -0.6561,-0.3775 -0.1905,-0.1646 -0.3493,-0.3645 -0.4763,-0.5997l0.9596 -0.628c0.1223,0.1741 0.281,0.314 0.4762,0.4198 0.1952,0.1059 0.394,0.1588 0.5962,0.1588 0.1552,0 0.2717,-0.0306 0.3493,-0.0917 0.0776,-0.0612 0.1164,-0.1364 0.1164,-0.2258 0,-0.0612 -0.0177,-0.1153 -0.0529,-0.1623 -0.0353,-0.047 -0.1047,-0.0929 -0.2082,-0.1376 -0.1035,-0.0447 -0.254,-0.0882 -0.4515,-0.1305 -0.414,-0.0941 -0.7432,-0.2129 -0.9878,-0.3563 -0.2446,-0.1435 -0.4186,-0.3175 -0.5221,-0.5221 -0.1035,-0.2046 -0.1553,-0.4387 -0.1553,-0.7021 0,-0.2916 0.0753,-0.5562 0.2258,-0.7937 0.1505,-0.2376 0.3657,-0.4269 0.6456,-0.568 0.2799,-0.1411 0.6127,-0.2117 0.9984,-0.2117 0.4327,0 0.802,0.0859 1.1077,0.2576 0.3058,0.1717 0.5409,0.3916 0.7056,0.6597l-0.9596 0.6914c-0.1082,-0.1458 -0.2528,-0.2505 -0.4339,-0.314 -0.1811,-0.0635 -0.354,-0.0952 -0.5186,-0.0952 -0.1458,0 -0.2622,0.027 -0.3493,0.0811 -0.087,0.0541 -0.1305,0.1282 -0.1305,0.2223 0,0.0941 0.0482,0.1693 0.1447,0.2258 0.0964,0.0564 0.2881,0.1176 0.575,0.1834 0.3951,0.0894 0.7185,0.2034 0.9701,0.3422 0.2517,0.1388 0.4375,0.3104 0.5574,0.5151 0.12,0.2046 0.1799,0.455 0.1799,0.7514 0,0.2963 -0.0752,0.5609 -0.2257,0.7937 -0.1506,0.2329 -0.3669,0.4151 -0.6491,0.5468 -0.2823,0.1317 -0.6186,0.1976 -1.009,0.1976zm3.0833 -1.9191l0 -1.2206 2.0037 0 0 1.2206 -2.0037 0zm-0.0212 -1.7921l0.515 -0.5645 0 3.5843 -0.5503 -0.6562 2.4342 0 0 1.2206 -3.1609 0 0 -4.8049 3.1609 0 0 1.2207 -2.3989 0zm5.8844 3.5842l0 -4.3533 1.2912 0 0 4.3533 -1.2912 0zm-1.3617 -3.5631l0 -1.2418 4.0076 0 0 1.2418 -4.0076 0zm5.2705 1.6651l2.0108 0 0 1.1783 -2.0108 0 0 -1.1783zm-1.1642 1.898l1.7004 -4.8049 1.2771 0 1.5452 4.8049 -1.2842 0 -1.15 -3.937 0.508 0 -1.3194 3.937 -1.2771 0zm5.8068 -2.3989l0.762 0c0.2163,0 0.3798,-0.0494 0.4903,-0.1482 0.1106,-0.0988 0.1658,-0.2422 0.1658,-0.4304 0,-0.1928 -0.0552,-0.3386 -0.1658,-0.4374 -0.1105,-0.0988 -0.274,-0.1482 -0.4903,-0.1482l-0.7691 0 0.3104 -0.2751 0 3.8382 -1.277 0 0 -4.8049 1.778 0c0.381,0 0.715,0.0694 1.0019,0.2082 0.2869,0.1387 0.5103,0.3433 0.6703,0.6138 0.1599,0.2705 0.2399,0.6056 0.2399,1.0054 0,0.3999 -0.08,0.735 -0.2399,1.0055 -0.16,0.2704 -0.3834,0.475 -0.6703,0.6138 -0.2869,0.1388 -0.6209,0.2081 -1.0019,0.2081l-0.8043 0 0 -1.2488zm3.8524 0.6068l0 -1.2206 2.0037 0 0 1.2206 -2.0037 0zm-0.0212 -1.7921l0.515 -0.5645 0 3.5843 -0.5503 -0.6562 2.4342 0 0 1.2206 -3.1609 0 0 -4.8049 3.1609 0 0 1.2207 -2.3989 0zm7.0133 1.1077l-0.5221 0 1.1783 -2.3284 1.3476 0 -1.7004 3.3303 0.0424 -0.5786 0 2.0532 -1.2771 0 0 -2.0532 0.0423 0.5786 -1.7004 -3.3303 1.4111 0 1.1783 2.3284zm-114.555 7.7109l0 -1.2418 2.0037 0 0 1.2418 -2.0037 0zm0.4303 1.6157l-1.277 0 0 -4.8049 3.1609 0 0 1.2418 -2.3989 0 0.515 -0.5856 0 4.1487zm3.2103 -1.898l2.0108 0 0 1.1783 -2.0108 0 0 -1.1783zm-1.1642 1.898l1.7004 -4.8049 1.2771 0 1.5452 4.8049 -1.2842 0 -1.15 -3.937 0.508 0 -1.3194 3.937 -1.2771 0zm6.1454 0l-1.5734 -4.8049 1.3124 0 1.2488 3.9371 -0.6068 0 1.2559 -3.9371 1.2771 0 -1.5734 4.8049 -1.3406 0zm3.041 -2.3989c0,-0.3669 0.0588,-0.7032 0.1764,-1.009 0.1176,-0.3057 0.2845,-0.5703 0.5009,-0.7937 0.2164,-0.2234 0.4751,-0.3963 0.7761,-0.5186 0.3011,-0.1223 0.635,-0.1834 1.0019,-0.1834 0.3669,0 0.7021,0.0611 1.0055,0.1834 0.3033,0.1223 0.5644,0.2952 0.7831,0.5186 0.2187,0.2234 0.3869,0.488 0.5045,0.7937 0.1176,0.3058 0.1764,0.6421 0.1764,1.009 0,0.3669 -0.0588,0.7032 -0.1764,1.0089 -0.1176,0.3058 -0.2858,0.5704 -0.5045,0.7938 -0.2187,0.2234 -0.4798,0.3951 -0.7831,0.5151 -0.3034,0.1199 -0.6386,0.1799 -1.0055,0.1799 -0.3669,0 -0.7008,-0.06 -1.0019,-0.1799 -0.301,-0.12 -0.5597,-0.2917 -0.7761,-0.5151 -0.2164,-0.2234 -0.3833,-0.488 -0.5009,-0.7938 -0.1176,-0.3057 -0.1764,-0.642 -0.1764,-1.0089zm1.3053 0c0,0.2634 0.0482,0.4868 0.1446,0.6703 0.0964,0.1834 0.2317,0.3222 0.4057,0.4163 0.174,0.094 0.3739,0.1411 0.5997,0.1411 0.2305,0 0.4328,-0.0471 0.6068,-0.1411 0.174,-0.0941 0.3105,-0.2341 0.4092,-0.4198 0.0988,-0.1858 0.1482,-0.4105 0.1482,-0.6739 0,-0.2634 -0.0494,-0.4868 -0.1482,-0.6702 -0.0987,-0.1835 -0.2352,-0.3222 -0.4092,-0.4163 -0.174,-0.0941 -0.3763,-0.1411 -0.6068,-0.1411 -0.2258,0 -0.4257,0.0482 -0.5997,0.1446 -0.174,0.0964 -0.3093,0.2364 -0.4057,0.4198 -0.0964,0.1835 -0.1446,0.4069 -0.1446,0.6703zm4.0005 2.3989l0 -4.8049 1.778 0c0.3528,0 0.6738,0.0671 0.9631,0.2011 0.2893,0.1341 0.5197,0.3316 0.6914,0.5927 0.1717,0.261 0.2576,0.5844 0.2576,0.9701 0,0.3857 -0.0859,0.7091 -0.2576,0.9702 -0.1717,0.261 -0.4021,0.4574 -0.6914,0.5891 -0.2893,0.1317 -0.6103,0.1976 -0.9631,0.1976l-0.8043 0 0 -1.2418 0.762 0c0.2163,0 0.3798,-0.0423 0.4903,-0.127 0.1106,-0.0847 0.1658,-0.214 0.1658,-0.3881 0,-0.1693 -0.0552,-0.2987 -0.1658,-0.388 -0.1105,-0.0894 -0.274,-0.1341 -0.4903,-0.1341l-0.7691 0 0.3104 -0.2751 0 3.8382 -1.277 0zm2.3424 0l-0.9454 -1.9191 1.397 0 0.9454 1.9191 -1.397 0zm3.6196 0l0 -4.8049 1.7568 0c0.5221,0 0.9631,0.0953 1.3229,0.2858 0.3599,0.1905 0.6339,0.4645 0.822,0.822 0.1882,0.3574 0.2823,0.7878 0.2823,1.2911 0,0.5033 -0.0941,0.9349 -0.2823,1.2947 -0.1881,0.3599 -0.4633,0.635 -0.8255,0.8255 -0.3622,0.1905 -0.8043,0.2858 -1.3264,0.2858l-1.7498 0zm1.277 -0.6773l-0.5573 -0.5645 0.9313 0c0.2634,0 0.4857,-0.0388 0.6667,-0.1164 0.1811,-0.0776 0.3199,-0.2023 0.4163,-0.3739 0.0965,-0.1717 0.1447,-0.3963 0.1447,-0.6739 0,-0.2775 -0.0471,-0.5009 -0.1411,-0.6702 -0.0941,-0.1694 -0.2317,-0.2928 -0.4128,-0.3705 -0.1811,-0.0776 -0.4033,-0.1164 -0.6668,-0.1164l-0.9877 0 0.6067 -0.3316 0 3.2174zm4.0712 -1.1148l0 -1.2206 2.0037 0 0 1.2206 -2.0037 0zm-0.0212 -1.7921l0.515 -0.5645 0 3.5843 -0.5503 -0.6562 2.4342 0 0 1.2206 -3.1609 0 0 -4.8049 3.1609 0 0 1.2207 -2.3989 0zm7.8106 3.5842l-2.2648 -3.2032 0.4797 -0.127 0 3.3302 -1.277 0 0 -4.8049 1.1924 0 2.2578 3.2033 -0.4798 0.127 0 -3.3303 1.2841 0 0 4.8049 -1.1924 0zm1.5805 -2.3989c0,-0.3669 0.0588,-0.7032 0.1764,-1.009 0.1176,-0.3057 0.2845,-0.5703 0.5009,-0.7937 0.2164,-0.2234 0.4751,-0.3963 0.7761,-0.5186 0.3011,-0.1223 0.635,-0.1834 1.0019,-0.1834 0.3669,0 0.7021,0.0611 1.0055,0.1834 0.3033,0.1223 0.5644,0.2952 0.7831,0.5186 0.2187,0.2234 0.3869,0.488 0.5045,0.7937 0.1176,0.3058 0.1764,0.6421 0.1764,1.009 0,0.3669 -0.0588,0.7032 -0.1764,1.0089 -0.1176,0.3058 -0.2858,0.5704 -0.5045,0.7938 -0.2187,0.2234 -0.4798,0.3951 -0.7831,0.5151 -0.3034,0.1199 -0.6386,0.1799 -1.0055,0.1799 -0.3669,0 -0.7008,-0.06 -1.0019,-0.1799 -0.301,-0.12 -0.5597,-0.2917 -0.7761,-0.5151 -0.2164,-0.2234 -0.3833,-0.488 -0.5009,-0.7938 -0.1176,-0.3057 -0.1764,-0.642 -0.1764,-1.0089zm1.3053 0c0,0.2634 0.0482,0.4868 0.1446,0.6703 0.0964,0.1834 0.2317,0.3222 0.4057,0.4163 0.174,0.094 0.3739,0.1411 0.5997,0.1411 0.2305,0 0.4328,-0.0471 0.6068,-0.1411 0.174,-0.0941 0.3105,-0.2341 0.4092,-0.4198 0.0988,-0.1858 0.1482,-0.4105 0.1482,-0.6739 0,-0.2634 -0.0494,-0.4868 -0.1482,-0.6702 -0.0987,-0.1835 -0.2352,-0.3222 -0.4092,-0.4163 -0.174,-0.0941 -0.3763,-0.1411 -0.6068,-0.1411 -0.2258,0 -0.4257,0.0482 -0.5997,0.1446 -0.174,0.0964 -0.3093,0.2364 -0.4057,0.4198 -0.0964,0.1835 -0.1446,0.4069 -0.1446,0.6703zm6.9709 2.3989l0 -4.3533 1.2912 0 0 4.3533 -1.2912 0zm-1.3617 -3.5631l0 -1.2418 4.0076 0 0 1.2418 -4.0076 0zm5.6444 3.5631l-1.277 0 0 -4.8049 1.277 0 0 4.8049zm0.5786 0l0 -4.8049 1.778 0c0.3528,0 0.6738,0.0671 0.9631,0.2011 0.2893,0.1341 0.5197,0.3316 0.6914,0.5927 0.1717,0.261 0.2576,0.5844 0.2576,0.9701 0,0.3857 -0.0859,0.7091 -0.2576,0.9702 -0.1717,0.261 -0.4021,0.4574 -0.6914,0.5891 -0.2893,0.1317 -0.6103,0.1976 -0.9631,0.1976l-0.8043 0 0 -1.2418 0.762 0c0.2163,0 0.3798,-0.0423 0.4903,-0.127 0.1106,-0.0847 0.1658,-0.214 0.1658,-0.3881 0,-0.1693 -0.0552,-0.2987 -0.1658,-0.388 -0.1105,-0.0894 -0.274,-0.1341 -0.4903,-0.1341l-0.7691 0 0.3104 -0.2751 0 3.8382 -1.277 0zm2.3424 0l-0.9454 -1.9191 1.397 0 0.9454 1.9191 -1.397 0zm2.6882 -1.898l2.0108 0 0 1.1783 -2.0108 0 0 -1.1783zm-1.1642 1.898l1.7004 -4.8049 1.2771 0 1.5452 4.8049 -1.2842 0 -1.15 -3.937 0.508 0 -1.3194 3.937 -1.2771 0zm4.8331 0l0 -4.8049 1.778 0c0.3528,0 0.6738,0.0671 0.9631,0.2011 0.2893,0.1341 0.5197,0.3316 0.6914,0.5927 0.1717,0.261 0.2576,0.5844 0.2576,0.9701 0,0.3857 -0.0859,0.7091 -0.2576,0.9702 -0.1717,0.261 -0.4021,0.4574 -0.6914,0.5891 -0.2893,0.1317 -0.6103,0.1976 -0.9631,0.1976l-0.8043 0 0 -1.2418 0.762 0c0.2163,0 0.3798,-0.0423 0.4903,-0.127 0.1106,-0.0847 0.1658,-0.214 0.1658,-0.3881 0,-0.1693 -0.0552,-0.2987 -0.1658,-0.388 -0.1105,-0.0894 -0.274,-0.1341 -0.4903,-0.1341l-0.7691 0 0.3104 -0.2751 0 3.8382 -1.277 0zm2.3424 0l-0.9454 -1.9191 1.397 0 0.9454 1.9191 -1.397 0zm4.5227 -1.898l2.0108 0 0 1.1783 -2.0108 0 0 -1.1783zm-1.1642 1.898l1.7004 -4.8049 1.2771 0 1.5452 4.8049 -1.2842 0 -1.15 -3.937 0.508 0 -1.3194 3.937 -1.2771 0zm7.0979 0.0988c-0.4892,0 -0.9184,-0.1047 -1.2876,-0.314 -0.3693,-0.2093 -0.6562,-0.4974 -0.8608,-0.8643 -0.2046,-0.3669 -0.3069,-0.7855 -0.3069,-1.2559 0,-0.3857 0.0588,-0.735 0.1764,-1.0478 0.1176,-0.3128 0.2845,-0.582 0.5009,-0.8078 0.2164,-0.2258 0.4751,-0.3998 0.7761,-0.5221 0.3011,-0.1223 0.635,-0.1835 1.0019,-0.1835 0.5504,0 1.0113,0.1211 1.3829,0.3634 0.3716,0.2422 0.6444,0.5985 0.8185,1.0689l-1.1289 0.508c-0.1082,-0.2258 -0.2493,-0.3986 -0.4234,-0.5186 -0.174,-0.1199 -0.3904,-0.1799 -0.6491,-0.1799 -0.2258,0 -0.4257,0.0506 -0.5997,0.1517 -0.174,0.1011 -0.3093,0.2493 -0.4057,0.4445 -0.0964,0.1952 -0.1446,0.4363 -0.1446,0.7232 0,0.254 0.0482,0.4751 0.1446,0.6632 0.0964,0.1882 0.2305,0.3328 0.4022,0.4339 0.1717,0.1012 0.3704,0.1517 0.5962,0.1517 0.2069,0 0.3833,-0.0317 0.5291,-0.0952 0.1459,-0.0635 0.2635,-0.1576 0.3528,-0.2822 0.0894,-0.1247 0.1482,-0.2811 0.1764,-0.4692l0.4445 0.3245 -1.6087 0 0 -1.1148 2.3354 0c0.0236,0.0894 0.04,0.1858 0.0494,0.2893 0.0094,0.1035 0.0141,0.2093 0.0141,0.3175 0,0.3528 -0.0635,0.6668 -0.1905,0.9419 -0.127,0.2752 -0.2986,0.5069 -0.515,0.695 -0.2164,0.1882 -0.461,0.3316 -0.7338,0.4304 -0.2728,0.0988 -0.555,0.1482 -0.8467,0.1482zm4.7202 0c-0.4656,0 -0.8478,-0.0835 -1.1465,-0.2505 -0.2987,-0.167 -0.5198,-0.4163 -0.6632,-0.7479 -0.1435,-0.3316 -0.2152,-0.7444 -0.2152,-1.2382l0 -2.6671 1.2841 0 0 2.787c0,0.2728 0.0611,0.4857 0.1834,0.6385 0.1223,0.1529 0.3081,0.2293 0.5574,0.2293 0.2493,0 0.4351,-0.0764 0.5574,-0.2293 0.1223,-0.1528 0.1835,-0.3657 0.1835,-0.6385l0 -2.787 1.2841 0 0 2.6671c0,0.4938 -0.0717,0.9066 -0.2152,1.2382 -0.1435,0.3316 -0.3634,0.5809 -0.6597,0.7479 -0.2963,0.167 -0.6797,0.2505 -1.1501,0.2505zm3.4926 -1.9968l2.0108 0 0 1.1783 -2.0108 0 0 -1.1783zm-1.1642 1.898l1.7004 -4.8049 1.2771 0 1.5452 4.8049 -1.2842 0 -1.15 -3.937 0.508 0 -1.3194 3.937 -1.2771 0zm-70.5842 5.058l0 -1.2206 2.0037 0 0 1.2206 -2.0037 0zm-0.0212 -1.7921l0.515 -0.5645 0 3.5843 -0.5503 -0.6562 2.4342 0 0 1.2206 -3.1609 0 0 -4.8049 3.1609 0 0 1.2207 -2.3989 0zm5.9761 3.5842l-2.2648 -3.2032 0.4797 -0.127 0 3.3302 -1.277 0 0 -4.8049 1.1924 0 2.2578 3.2033 -0.4798 0.127 0 -3.3303 1.2841 0 0 4.8049 -1.1924 0zm4.3887 -1.7921l0 -1.2206 2.0037 0 0 1.2206 -2.0037 0zm-0.0212 -1.7921l0.515 -0.5645 0 3.5843 -0.5503 -0.6562 2.4342 0 0 1.2206 -3.1609 0 0 -4.8049 3.1609 0 0 1.2207 -2.3989 0zm5.9479 3.5842l-3.0339 0 0 -4.8049 1.277 0 0 4.1628 -0.3951 -0.5997 2.152 0 0 1.2418zm3.2245 -2.3989l0.762 0c0.2163,0 0.3798,-0.0494 0.4903,-0.1482 0.1106,-0.0988 0.1658,-0.2422 0.1658,-0.4304 0,-0.1928 -0.0552,-0.3386 -0.1658,-0.4374 -0.1105,-0.0988 -0.274,-0.1482 -0.4903,-0.1482l-0.7691 0 0.3104 -0.2751 0 3.8382 -1.277 0 0 -4.8049 1.778 0c0.381,0 0.715,0.0694 1.0019,0.2082 0.2869,0.1387 0.5103,0.3433 0.6703,0.6138 0.1599,0.2705 0.2399,0.6056 0.2399,1.0054 0,0.3999 -0.08,0.735 -0.2399,1.0055 -0.16,0.2704 -0.3834,0.475 -0.6703,0.6138 -0.2869,0.1388 -0.6209,0.2081 -1.0019,0.2081l-0.8043 0 0 -1.2488zm4.3462 2.3989l-1.277 0 0 -4.8049 1.277 0 0 4.8049zm2.3707 0.127c-0.301,0 -0.575,-0.0435 -0.822,-0.1305 -0.2469,-0.087 -0.4656,-0.2129 -0.6561,-0.3775 -0.1905,-0.1646 -0.3493,-0.3645 -0.4763,-0.5997l0.9596 -0.628c0.1223,0.1741 0.281,0.314 0.4762,0.4198 0.1952,0.1059 0.394,0.1588 0.5962,0.1588 0.1552,0 0.2717,-0.0306 0.3493,-0.0917 0.0776,-0.0612 0.1164,-0.1364 0.1164,-0.2258 0,-0.0612 -0.0177,-0.1153 -0.0529,-0.1623 -0.0353,-0.047 -0.1047,-0.0929 -0.2082,-0.1376 -0.1035,-0.0447 -0.254,-0.0882 -0.4515,-0.1305 -0.414,-0.0941 -0.7432,-0.2129 -0.9878,-0.3563 -0.2446,-0.1435 -0.4186,-0.3175 -0.5221,-0.5221 -0.1035,-0.2046 -0.1553,-0.4387 -0.1553,-0.7021 0,-0.2916 0.0753,-0.5562 0.2258,-0.7937 0.1505,-0.2376 0.3657,-0.4269 0.6456,-0.568 0.2799,-0.1411 0.6127,-0.2117 0.9984,-0.2117 0.4327,0 0.802,0.0859 1.1077,0.2576 0.3058,0.1717 0.5409,0.3916 0.7056,0.6597l-0.9596 0.6914c-0.1082,-0.1458 -0.2528,-0.2505 -0.4339,-0.314 -0.1811,-0.0635 -0.354,-0.0952 -0.5186,-0.0952 -0.1458,0 -0.2622,0.027 -0.3493,0.0811 -0.087,0.0541 -0.1305,0.1282 -0.1305,0.2223 0,0.0941 0.0482,0.1693 0.1447,0.2258 0.0964,0.0564 0.2881,0.1176 0.575,0.1834 0.3951,0.0894 0.7185,0.2034 0.9701,0.3422 0.2517,0.1388 0.4375,0.3104 0.5574,0.5151 0.12,0.2046 0.1799,0.455 0.1799,0.7514 0,0.2963 -0.0752,0.5609 -0.2257,0.7937 -0.1506,0.2329 -0.3669,0.4151 -0.6491,0.5468 -0.2823,0.1317 -0.6186,0.1976 -1.009,0.1976z"/>
    <path id="_867460240" class="fil1" d="M101.24 259.133c0,-0.3669 0.0588,-0.7032 0.1764,-1.009 0.1176,-0.3057 0.2845,-0.5703 0.5009,-0.7937 0.2164,-0.2234 0.4751,-0.3963 0.7761,-0.5186 0.3011,-0.1223 0.635,-0.1834 1.0019,-0.1834 0.3669,0 0.7021,0.0611 1.0055,0.1834 0.3033,0.1223 0.5644,0.2952 0.7831,0.5186 0.2187,0.2234 0.3869,0.488 0.5045,0.7937 0.1176,0.3058 0.1764,0.6421 0.1764,1.009 0,0.3669 -0.0588,0.7032 -0.1764,1.0089 -0.1176,0.3058 -0.2858,0.5704 -0.5045,0.7938 -0.2187,0.2234 -0.4798,0.3951 -0.7831,0.5151 -0.3034,0.1199 -0.6386,0.1799 -1.0055,0.1799 -0.3669,0 -0.7008,-0.06 -1.0019,-0.1799 -0.301,-0.12 -0.5597,-0.2917 -0.7761,-0.5151 -0.2164,-0.2234 -0.3833,-0.488 -0.5009,-0.7938 -0.1176,-0.3057 -0.1764,-0.642 -0.1764,-1.0089zm1.3053 0c0,0.2634 0.0482,0.4868 0.1446,0.6703 0.0964,0.1834 0.2317,0.3222 0.4057,0.4163 0.174,0.094 0.3739,0.1411 0.5997,0.1411 0.2305,0 0.4328,-0.0471 0.6068,-0.1411 0.174,-0.0941 0.3105,-0.2341 0.4092,-0.4198 0.0988,-0.1858 0.1482,-0.4105 0.1482,-0.6739 0,-0.2634 -0.0494,-0.4868 -0.1482,-0.6702 -0.0987,-0.1835 -0.2352,-0.3222 -0.4092,-0.4163 -0.174,-0.0941 -0.3763,-0.1411 -0.6068,-0.1411 -0.2258,0 -0.4257,0.0482 -0.5997,0.1446 -0.174,0.0964 -0.3093,0.2364 -0.4057,0.4198 -0.0964,0.1835 -0.1446,0.4069 -0.1446,0.6703zm5.6938 1.8062c0,0.3011 -0.087,0.5951 -0.261,0.882 -0.1741,0.2869 -0.4657,0.5832 -0.8749,0.889l-0.6774 -0.6421c0.1835,-0.1552 0.3128,-0.2987 0.3881,-0.4304 0.0753,-0.1317 0.1129,-0.2634 0.1129,-0.3951 0,-0.0988 -0.0353,-0.1893 -0.1059,-0.2716 -0.0705,-0.0823 -0.181,-0.1611 -0.3316,-0.2364 0.0424,-0.2069 0.1141,-0.3657 0.2152,-0.4762 0.1012,-0.1106 0.2141,-0.187 0.3387,-0.2293 0.1246,-0.0424 0.2434,-0.0635 0.3563,-0.0635 0.1411,0 0.2752,0.0388 0.4022,0.1164 0.127,0.0776 0.2316,0.1881 0.314,0.3316 0.0823,0.1435 0.1234,0.3187 0.1234,0.5256zm4.5227 0.6915c-0.4892,0 -0.9184,-0.1047 -1.2876,-0.314 -0.3693,-0.2093 -0.6562,-0.4974 -0.8608,-0.8643 -0.2046,-0.3669 -0.3069,-0.7855 -0.3069,-1.2559 0,-0.3857 0.0588,-0.735 0.1764,-1.0478 0.1176,-0.3128 0.2845,-0.582 0.5009,-0.8078 0.2164,-0.2258 0.4751,-0.3998 0.7761,-0.5221 0.3011,-0.1223 0.635,-0.1835 1.0019,-0.1835 0.5504,0 1.0113,0.1211 1.3829,0.3634 0.3716,0.2422 0.6444,0.5985 0.8185,1.0689l-1.1289 0.508c-0.1082,-0.2258 -0.2493,-0.3986 -0.4234,-0.5186 -0.174,-0.1199 -0.3904,-0.1799 -0.6491,-0.1799 -0.2258,0 -0.4257,0.0506 -0.5997,0.1517 -0.174,0.1011 -0.3093,0.2493 -0.4057,0.4445 -0.0964,0.1952 -0.1446,0.4363 -0.1446,0.7232 0,0.254 0.0482,0.4751 0.1446,0.6632 0.0964,0.1882 0.2305,0.3328 0.4022,0.4339 0.1717,0.1012 0.3704,0.1517 0.5962,0.1517 0.2069,0 0.3833,-0.0317 0.5291,-0.0952 0.1459,-0.0635 0.2635,-0.1576 0.3528,-0.2822 0.0894,-0.1247 0.1482,-0.2811 0.1764,-0.4692l0.4445 0.3245 -1.6087 0 0 -1.1148 2.3354 0c0.0236,0.0894 0.04,0.1858 0.0494,0.2893 0.0094,0.1035 0.0141,0.2093 0.0141,0.3175 0,0.3528 -0.0635,0.6668 -0.1905,0.9419 -0.127,0.2752 -0.2986,0.5069 -0.515,0.695 -0.2164,0.1882 -0.461,0.3316 -0.7338,0.4304 -0.2728,0.0988 -0.555,0.1482 -0.8467,0.1482zm2.7094 -0.0988l0 -4.8049 1.778 0c0.3528,0 0.6738,0.0671 0.9631,0.2011 0.2893,0.1341 0.5197,0.3316 0.6914,0.5927 0.1717,0.261 0.2576,0.5844 0.2576,0.9701 0,0.3857 -0.0859,0.7091 -0.2576,0.9702 -0.1717,0.261 -0.4021,0.4574 -0.6914,0.5891 -0.2893,0.1317 -0.6103,0.1976 -0.9631,0.1976l-0.8043 0 0 -1.2418 0.762 0c0.2163,0 0.3798,-0.0423 0.4903,-0.127 0.1106,-0.0847 0.1658,-0.214 0.1658,-0.3881 0,-0.1693 -0.0552,-0.2987 -0.1658,-0.388 -0.1105,-0.0894 -0.274,-0.1341 -0.4903,-0.1341l-0.7691 0 0.3104 -0.2751 0 3.8382 -1.277 0zm2.3424 0l-0.9454 -1.9191 1.397 0 0.9454 1.9191 -1.397 0zm2.6882 -1.898l2.0108 0 0 1.1783 -2.0108 0 0 -1.1783zm-1.1642 1.898l1.7004 -4.8049 1.2771 0 1.5452 4.8049 -1.2842 0 -1.15 -3.937 0.508 0 -1.3194 3.937 -1.2771 0zm7.0979 0.0988c-0.508,0 -0.9454,-0.1059 -1.3123,-0.3175 -0.3669,-0.2117 -0.6491,-0.5045 -0.8467,-0.8784 -0.1975,-0.374 -0.2963,-0.8079 -0.2963,-1.3018 0,-0.3669 0.0588,-0.7032 0.1764,-1.009 0.1176,-0.3057 0.2845,-0.5703 0.5009,-0.7937 0.2164,-0.2234 0.4751,-0.3951 0.7761,-0.5151 0.3011,-0.1199 0.635,-0.1799 1.0019,-0.1799 0.5739,0 1.049,0.1305 1.4253,0.3916 0.3763,0.2611 0.6491,0.6479 0.8184,1.1606l-1.1289 0.4798c-0.1082,-0.254 -0.2516,-0.4492 -0.4304,-0.5856 -0.1787,-0.1364 -0.4069,-0.2046 -0.6844,-0.2046 -0.2258,0 -0.4257,0.0494 -0.5997,0.1482 -0.174,0.0987 -0.3093,0.2422 -0.4057,0.4304 -0.0964,0.1881 -0.1446,0.4139 -0.1446,0.6773 0,0.2634 0.0482,0.4892 0.1446,0.6773 0.0964,0.1882 0.2317,0.3305 0.4057,0.4269 0.174,0.0964 0.3739,0.1446 0.5997,0.1446 0.2775,0 0.5057,-0.067 0.6844,-0.201 0.1788,-0.1341 0.3222,-0.3281 0.4304,-0.5821l1.1289 0.4797c-0.1693,0.5128 -0.4421,0.8996 -0.8184,1.1607 -0.3763,0.261 -0.8514,0.3916 -1.4253,0.3916zm3.8453 -0.0988l-1.277 0 0 -4.8049 1.277 0 0 4.8049zm1.4817 -1.898l2.0108 0 0 1.1783 -2.0108 0 0 -1.1783zm-1.1642 1.898l1.7004 -4.8049 1.2771 0 1.5452 4.8049 -1.2842 0 -1.15 -3.937 0.508 0 -1.3194 3.937 -1.2771 0zm6.6252 0.127c-0.301,0 -0.575,-0.0435 -0.822,-0.1305 -0.2469,-0.087 -0.4656,-0.2129 -0.6561,-0.3775 -0.1905,-0.1646 -0.3493,-0.3645 -0.4763,-0.5997l0.9596 -0.628c0.1223,0.1741 0.281,0.314 0.4762,0.4198 0.1952,0.1059 0.394,0.1588 0.5962,0.1588 0.1552,0 0.2717,-0.0306 0.3493,-0.0917 0.0776,-0.0612 0.1164,-0.1364 0.1164,-0.2258 0,-0.0612 -0.0177,-0.1153 -0.0529,-0.1623 -0.0353,-0.047 -0.1047,-0.0929 -0.2082,-0.1376 -0.1035,-0.0447 -0.254,-0.0882 -0.4515,-0.1305 -0.414,-0.0941 -0.7432,-0.2129 -0.9878,-0.3563 -0.2446,-0.1435 -0.4186,-0.3175 -0.5221,-0.5221 -0.1035,-0.2046 -0.1553,-0.4387 -0.1553,-0.7021 0,-0.2916 0.0753,-0.5562 0.2258,-0.7937 0.1505,-0.2376 0.3657,-0.4269 0.6456,-0.568 0.2799,-0.1411 0.6127,-0.2117 0.9984,-0.2117 0.4327,0 0.802,0.0859 1.1077,0.2576 0.3058,0.1717 0.5409,0.3916 0.7056,0.6597l-0.9596 0.6914c-0.1082,-0.1458 -0.2528,-0.2505 -0.4339,-0.314 -0.1811,-0.0635 -0.354,-0.0952 -0.5186,-0.0952 -0.1458,0 -0.2622,0.027 -0.3493,0.0811 -0.087,0.0541 -0.1305,0.1282 -0.1305,0.2223 0,0.0941 0.0482,0.1693 0.1447,0.2258 0.0964,0.0564 0.2881,0.1176 0.575,0.1834 0.3951,0.0894 0.7185,0.2034 0.9701,0.3422 0.2517,0.1388 0.4375,0.3104 0.5574,0.5151 0.12,0.2046 0.1799,0.455 0.1799,0.7514 0,0.2963 -0.0752,0.5609 -0.2257,0.7937 -0.1506,0.2329 -0.3669,0.4151 -0.6491,0.5468 -0.2823,0.1317 -0.6186,0.1976 -1.009,0.1976z"/>
   </g>
  </g>
 </g>
</svg>
