<?xml version="1.0" encoding="UTF-8"?>
<!DOCTYPE svg PUBLIC "-//W3C//DTD SVG 1.1//EN" "http://www.w3.org/Graphics/SVG/1.1/DTD/svg11.dtd">
<!-- Creator: CorelDRAW -->
<svg xmlns="http://www.w3.org/2000/svg" xml:space="preserve" width="431.8mm" height="279.4mm" style="shape-rendering:geometricPrecision; text-rendering:geometricPrecision; image-rendering:optimizeQuality; fill-rule:evenodd; clip-rule:evenodd"
viewBox="0 0 431.8 279.4"
 xmlns:xlink="http://www.w3.org/1999/xlink">
 <defs>
  <style type="text/css">
   <![CDATA[
    .str0 {stroke:white;stroke-width:4}
    .fil4 {fill:none}
    .fil3 {fill:#28156F}
    .fil2 {fill:#FEFEFF}
    .fil1 {fill:white;fill-rule:nonzero}
    .fil0 {fill:url(#id0)}
   ]]>
  </style>
  <linearGradient id="id0" gradientUnits="userSpaceOnUse" x1="86.0738" y1="31.3295" x2="130.284" y2="248.956">
   <stop offset="0" style="stop-color:#28156F"/>
   <stop offset="1" style="stop-color:#3A3B77"/>
  </linearGradient>
 </defs>
 <g id="Capa_x0020_1">
  <metadata id="CorelCorpID_0Corel-Layer"/>
  <rect class="fil0" x="0.2291" y="0.2522" width="215.9" height="279.781"/>
  <path class="fil1" d="M29.7511 214.953c-1.5214,0 -2.77,-0.2728 -3.7458,-0.8183 -0.9759,-0.5455 -1.6981,-1.36 -2.1668,-2.4434 -0.4687,-1.0834 -0.7031,-2.4319 -0.7031,-4.0455l0 -8.7134 4.1953 0 0 9.1053c0,0.8913 0.1998,1.5866 0.5993,2.0861 0.3996,0.4994 1.0066,0.7492 1.8211,0.7492 0.8145,0 1.4215,-0.2498 1.821,-0.7492 0.3996,-0.4995 0.5994,-1.1948 0.5994,-2.0861l0 -9.1053 4.1953 0 0 8.7134c0,1.6136 -0.2344,2.9621 -0.7031,4.0455 -0.4687,1.0834 -1.1871,1.8979 -2.1553,2.4434 -0.9681,0.5455 -2.2206,0.8183 -3.7573,0.8183zm18.464 -0.3227l-7.3994 -10.4652 1.5675 -0.415 0 10.8802 -4.1723 0 0 -15.6979 3.8957 0 7.3763 10.4653 -1.5674 0.4149 0 -10.8802 4.1953 0 0 15.6979 -3.8957 0zm11.7792 0l0 -15.6979 5.9472 0c1.4599,0 2.6048,0.1691 3.4346,0.5072 0.8299,0.338 1.4138,0.8336 1.7519,1.4868 0.3381,0.6531 0.5072,1.456 0.5072,2.4088 0,0.7223 -0.1384,1.3562 -0.415,1.9017 -0.2766,0.5456 -0.6685,0.972 -1.1756,1.2794 -0.5071,0.3073 -1.1064,0.461 -1.798,0.461l0 -0.3919c0.8913,0 1.5982,0.1729 2.1207,0.5187 0.5225,0.3458 0.899,0.7952 1.1295,1.3485 0.2306,0.5532 0.3458,1.1372 0.3458,1.7519 0,1.4906 -0.4533,2.6009 -1.36,3.3309 -0.9067,0.7299 -2.2744,1.0949 -4.1031,1.0949l-6.3852 0zm4.1723 -13.7616l0 11.6639 -1.4062 -1.8902 3.4808 0c0.3995,0 0.7261,-0.0845 0.9797,-0.2535 0.2535,-0.1691 0.3803,-0.438 0.3803,-0.8068 0,-0.3688 -0.1229,-0.6378 -0.3688,-0.8068 -0.2459,-0.169 -0.5609,-0.2536 -0.9451,-0.2536l-3.5269 0 0 -3.4807 3.2272 0c0.461,0 0.803,-0.0845 1.0258,-0.2536 0.2228,-0.169 0.3342,-0.4379 0.3342,-0.8068 0,-0.3688 -0.1114,-0.6377 -0.3342,-0.8067 -0.2228,-0.1691 -0.5648,-0.2536 -1.0258,-0.2536l-3.158 0 1.337 -2.0516zm12.1941 7.5608l6.5695 0 0 3.8496 -6.5695 0 0 -3.8496zm-3.8035 6.2008l5.5553 -15.6979 4.1723 0 5.0482 15.6979 -4.1953 0 -3.7573 -12.8626 1.6596 0 -4.3105 12.8626 -4.1723 0zm25.7943 0l-7.3994 -10.4652 1.5675 -0.415 0 10.8802 -4.1723 0 0 -15.6979 3.8957 0 7.3763 10.4653 -1.5674 0.4149 0 -10.8802 4.1953 0 0 15.6979 -3.8957 0zm-1.4522 -17.4498c-0.4764,0 -1.0296,-0.1613 -1.6597,-0.484 -0.1998,-0.123 -0.365,-0.2037 -0.4956,-0.2421 -0.1306,-0.0384 -0.2651,-0.0576 -0.4034,-0.0576 -0.4149,0 -0.7991,0.2612 -1.1525,0.7837l-2.4204 -1.2217c0.3534,-0.8606 0.7837,-1.5214 1.2908,-1.9824 0.5072,-0.461 1.1065,-0.6915 1.798,-0.6915 0.2459,0 0.4918,0.0461 0.7377,0.1383 0.2459,0.0922 0.5225,0.2075 0.8298,0.3458 0.1691,0.0922 0.3343,0.1652 0.4956,0.2189 0.1614,0.0538 0.3189,0.0807 0.4726,0.0807 0.2151,0 0.4226,-0.0538 0.6224,-0.1613 0.1997,-0.1076 0.3995,-0.3151 0.5993,-0.6224l2.4204 1.2217c-0.3996,0.9528 -0.8683,1.6366 -1.4062,2.0516 -0.5378,0.4149 -1.1141,0.6223 -1.7288,0.6223zm6.6157 9.6124c0,-1.1987 0.1921,-2.2974 0.5763,-3.2963 0.3842,-0.9989 0.9297,-1.8633 1.6366,-2.5933 0.7069,-0.7299 1.5521,-1.2947 2.5357,-1.6943 0.9835,-0.3995 2.0746,-0.5993 3.2732,-0.5993 1.1987,0 2.2936,0.1998 3.2848,0.5993 0.9912,0.3996 1.8441,0.9644 2.5587,1.6943 0.7146,0.73 1.264,1.5944 1.6482,2.5933 0.3842,0.9989 0.5763,2.0976 0.5763,3.2963 0,1.1987 -0.1921,2.2974 -0.5763,3.2963 -0.3842,0.9989 -0.9336,1.8633 -1.6482,2.5933 -0.7146,0.7299 -1.5675,1.2908 -2.5587,1.6827 -0.9912,0.3919 -2.0861,0.5878 -3.2848,0.5878 -1.1986,0 -2.2897,-0.1959 -3.2732,-0.5878 -0.9836,-0.3919 -1.8288,-0.9528 -2.5357,-1.6827 -0.7069,-0.73 -1.2524,-1.5944 -1.6366,-2.5933 -0.3842,-0.9989 -0.5763,-2.0976 -0.5763,-3.2963zm4.2645 0c0,0.8606 0.1575,1.5905 0.4725,2.1899 0.3151,0.5993 0.7569,1.0526 1.3255,1.36 0.5686,0.3073 1.2217,0.461 1.9593,0.461 0.753,0 1.4138,-0.1537 1.9824,-0.461 0.5686,-0.3074 1.0143,-0.7646 1.337,-1.3716 0.3227,-0.607 0.4841,-1.3408 0.4841,-2.2014 0,-0.8605 -0.1614,-1.5905 -0.4841,-2.1898 -0.3227,-0.5994 -0.7684,-1.0527 -1.337,-1.36 -0.5686,-0.3074 -1.2294,-0.4611 -1.9824,-0.4611 -0.7376,0 -1.3907,0.1575 -1.9593,0.4726 -0.5686,0.315 -1.0104,0.7722 -1.3255,1.3715 -0.315,0.5994 -0.4725,1.3293 -0.4725,2.1899zm28.9753 7.8374l-9.912 0 0 -15.6979 4.1723 0 0 13.6002 -1.2909 -1.9593 7.0306 0 0 4.057zm5.5323 0l-4.1723 0 0 -15.6979 4.1723 0 0 15.6979zm1.1526 0l2.697 -15.6979 3.7573 0 3.3424 10.1887 -0.3457 0 3.3424 -10.1887 3.7343 0 2.72 15.6979 -4.1031 0 -0.9451 -6.6618c-0.1076,-0.8298 -0.2151,-1.6635 -0.3227,-2.5011 -0.1076,-0.8375 -0.2152,-1.6788 -0.3227,-2.5241l1.1986 0c-0.2151,0.8145 -0.4187,1.6367 -0.6108,2.4665 -0.1921,0.8299 -0.4188,1.652 -0.68,2.4665l-2.1899 6.6387 -3.2963 0 -2.1899 -6.6387c-0.2766,-0.8145 -0.511,-1.6366 -0.703,-2.4665 -0.1921,-0.8298 -0.3958,-1.652 -0.6109,-2.4665l1.2217 0c-0.1076,0.8453 -0.2113,1.6866 -0.3112,2.5241 -0.0999,0.8376 -0.2113,1.6713 -0.3342,2.5011l-0.9451 6.6618 -4.1031 0zm23.5814 -7.8374l2.4895 0c0.7069,0 1.2409,-0.1614 1.6021,-0.4841 0.3611,-0.3227 0.5417,-0.7914 0.5417,-1.4061 0,-0.6301 -0.1806,-1.1065 -0.5417,-1.4292 -0.3612,-0.3227 -0.8952,-0.4841 -1.6021,-0.4841l-2.5126 0 1.0143 -0.899 0 12.5399 -4.1723 0 0 -15.6979 5.8089 0c1.2448,0 2.3359,0.2267 3.2733,0.68 0.9374,0.4534 1.6673,1.1219 2.1898,2.0055 0.5225,0.8836 0.7838,1.9786 0.7838,3.2848 0,1.3062 -0.2613,2.4012 -0.7838,3.2848 -0.5225,0.8836 -1.2524,1.5521 -2.1898,2.0054 -0.9374,0.4534 -2.0285,0.6801 -3.2733,0.6801l-2.6278 0 0 -4.0801zm14.1995 7.8374l-4.1723 0 0 -15.6979 4.1723 0 0 15.6979zm1.2678 -7.8374c0,-1.1987 0.1921,-2.2974 0.5763,-3.2963 0.3842,-0.9989 0.9297,-1.8633 1.6366,-2.5933 0.7069,-0.7299 1.5521,-1.2947 2.5357,-1.6943 0.9835,-0.3995 2.0746,-0.5993 3.2732,-0.5993 1.1987,0 2.2936,0.1998 3.2848,0.5993 0.9912,0.3996 1.8441,0.9644 2.5587,1.6943 0.7146,0.73 1.264,1.5944 1.6482,2.5933 0.3842,0.9989 0.5763,2.0976 0.5763,3.2963 0,1.1987 -0.1921,2.2974 -0.5763,3.2963 -0.3842,0.9989 -0.9336,1.8633 -1.6482,2.5933 -0.7146,0.7299 -1.5675,1.2908 -2.5587,1.6827 -0.9912,0.3919 -2.0861,0.5878 -3.2848,0.5878 -1.1986,0 -2.2897,-0.1959 -3.2732,-0.5878 -0.9836,-0.3919 -1.8288,-0.9528 -2.5357,-1.6827 -0.7069,-0.73 -1.2524,-1.5944 -1.6366,-2.5933 -0.3842,-0.9989 -0.5763,-2.0976 -0.5763,-3.2963zm4.2645 0c0,0.8606 0.1575,1.5905 0.4725,2.1899 0.3151,0.5993 0.7569,1.0526 1.3255,1.36 0.5686,0.3073 1.2217,0.461 1.9593,0.461 0.753,0 1.4138,-0.1537 1.9824,-0.461 0.5686,-0.3074 1.0143,-0.7646 1.337,-1.3716 0.3227,-0.607 0.4841,-1.3408 0.4841,-2.2014 0,-0.8605 -0.1614,-1.5905 -0.4841,-2.1898 -0.3227,-0.5994 -0.7684,-1.0527 -1.337,-1.36 -0.5686,-0.3074 -1.2294,-0.4611 -1.9824,-0.4611 -0.7376,0 -1.3907,0.1575 -1.9593,0.4726 -0.5686,0.315 -1.0104,0.7722 -1.3255,1.3715 -0.315,0.5994 -0.4725,1.3293 -0.4725,2.1899zm-127.612 30.2172l0 -15.6979 4.1953 0 0 15.6979 -4.1953 0zm-9.1974 0l0 -15.6979 4.1723 0 0 15.6979 -4.1723 0zm2.6739 -5.6706l0 -4.057 7.9988 0 0 4.057 -7.9988 0zm15.5596 -0.5302l6.5695 0 0 3.8496 -6.5695 0 0 -3.8496zm-3.8035 6.2008l5.5553 -15.6979 4.1723 0 5.0482 15.6979 -4.1953 0 -3.7573 -12.8626 1.6596 0 -4.3105 12.8626 -4.1723 0zm15.7901 0l0 -15.6979 5.9472 0c1.4599,0 2.6048,0.1691 3.4346,0.5072 0.8299,0.338 1.4138,0.8336 1.7519,1.4868 0.3381,0.6531 0.5072,1.456 0.5072,2.4088 0,0.7223 -0.1384,1.3562 -0.415,1.9017 -0.2766,0.5456 -0.6685,0.972 -1.1756,1.2794 -0.5071,0.3073 -1.1064,0.461 -1.798,0.461l0 -0.3919c0.8913,0 1.5982,0.1729 2.1207,0.5187 0.5225,0.3458 0.899,0.7952 1.1295,1.3485 0.2306,0.5532 0.3458,1.1372 0.3458,1.7519 0,1.4906 -0.4533,2.6009 -1.36,3.3309 -0.9067,0.7299 -2.2744,1.0949 -4.1031,1.0949l-6.3852 0zm4.1723 -13.7616l0 11.6639 -1.4062 -1.8902 3.4808 0c0.3995,0 0.7261,-0.0845 0.9797,-0.2535 0.2535,-0.1691 0.3803,-0.438 0.3803,-0.8068 0,-0.3688 -0.1229,-0.6378 -0.3688,-0.8068 -0.2459,-0.169 -0.5609,-0.2536 -0.9451,-0.2536l-3.5269 0 0 -3.4807 3.2272 0c0.461,0 0.803,-0.0845 1.0258,-0.2536 0.2228,-0.169 0.3342,-0.4379 0.3342,-0.8068 0,-0.3688 -0.1114,-0.6377 -0.3342,-0.8067 -0.2228,-0.1691 -0.5648,-0.2536 -1.0258,-0.2536l-3.158 0 1.337 -2.0516zm19.1555 13.7616l-9.912 0 0 -15.6979 4.1723 0 0 13.6002 -1.2909 -1.9593 7.0306 0 0 4.057zm4.3106 -6.2008l6.5695 0 0 3.8496 -6.5695 0 0 -3.8496zm-3.8035 6.2008l5.5553 -15.6979 4.1723 0 5.0482 15.6979 -4.1953 0 -3.7573 -12.8626 1.6596 0 -4.3105 12.8626 -4.1723 0zm21.7834 0l0 -15.6979 5.9472 0c1.4599,0 2.6048,0.1691 3.4346,0.5072 0.8299,0.338 1.4138,0.8336 1.7519,1.4868 0.3381,0.6531 0.5072,1.456 0.5072,2.4088 0,0.7223 -0.1384,1.3562 -0.415,1.9017 -0.2766,0.5456 -0.6685,0.972 -1.1756,1.2794 -0.5071,0.3073 -1.1064,0.461 -1.798,0.461l0 -0.3919c0.8913,0 1.5982,0.1729 2.1207,0.5187 0.5225,0.3458 0.899,0.7952 1.1295,1.3485 0.2306,0.5532 0.3458,1.1372 0.3458,1.7519 0,1.4906 -0.4533,2.6009 -1.36,3.3309 -0.9067,0.7299 -2.2744,1.0949 -4.1031,1.0949l-6.3852 0zm4.1723 -13.7616l0 11.6639 -1.4062 -1.8902 3.4808 0c0.3995,0 0.7261,-0.0845 0.9797,-0.2535 0.2535,-0.1691 0.3803,-0.438 0.3803,-0.8068 0,-0.3688 -0.1229,-0.6378 -0.3688,-0.8068 -0.2459,-0.169 -0.5609,-0.2536 -0.9451,-0.2536l-3.5269 0 0 -3.4807 3.2272 0c0.461,0 0.803,-0.0845 1.0258,-0.2536 0.2228,-0.169 0.3342,-0.4379 0.3342,-0.8068 0,-0.3688 -0.1114,-0.6377 -0.3342,-0.8067 -0.2228,-0.1691 -0.5648,-0.2536 -1.0258,-0.2536l-3.158 0 1.337 -2.0516zm13.4158 13.7616l-4.1723 0 0 -15.6979 4.1723 0 0 15.6979zm4.4489 -5.855l0 -3.9879 6.5465 0 0 3.9879 -6.5465 0zm-0.0692 -5.855l1.6828 -1.8441 0 11.71 -1.798 -2.1438 7.9526 0 0 3.9879 -10.3269 0 0 -15.6979 10.3269 0 0 3.9879 -7.8374 0zm19.5244 11.71l-7.3994 -10.4652 1.5675 -0.415 0 10.8802 -4.1723 0 0 -15.6979 3.8957 0 7.3763 10.4653 -1.5674 0.4149 0 -10.8802 4.1953 0 0 15.6979 -3.8957 0zm-146.686 22.3798l0 -15.6979 5.7397 0c1.7058,0 3.1465,0.3112 4.3221,0.9336 1.1757,0.6224 2.0708,1.5175 2.6855,2.6855 0.6147,1.1679 0.9221,2.574 0.9221,4.2183 0,1.6444 -0.3074,3.0543 -0.9221,4.2299 -0.6147,1.1756 -1.5137,2.0746 -2.697,2.697 -1.1833,0.6224 -2.6278,0.9336 -4.3336,0.9336l-5.7167 0zm4.1723 -2.2129l-1.8211 -1.8441 3.0428 0c0.8606,0 1.5867,-0.1268 2.1783,-0.3804 0.5917,-0.2535 1.045,-0.6608 1.36,-1.2217 0.3151,-0.5609 0.4726,-1.2947 0.4726,-2.2014 0,-0.9066 -0.1537,-1.6366 -0.461,-2.1898 -0.3074,-0.5533 -0.7569,-0.9566 -1.3485,-1.2102 -0.5917,-0.2536 -1.3178,-0.3804 -2.1784,-0.3804l-3.2271 0 1.9824 -1.0834 0 10.5114zm13.3005 -3.6421l0 -3.9879 6.5465 0 0 3.9879 -6.5465 0zm-0.0692 -5.855l1.6828 -1.8441 0 11.71 -1.798 -2.1438 7.9526 0 0 3.9879 -10.3269 0 0 -15.6979 10.3269 0 0 3.9879 -7.8374 0zm26.1862 12.9087l-5.1174 -8.4137 4.1954 0 5.1173 8.4137 -4.1953 0zm-11.2951 -9.0361c0,-1.1987 0.1921,-2.2974 0.5763,-3.2963 0.3842,-0.9989 0.9297,-1.8633 1.6366,-2.5933 0.7069,-0.7299 1.5521,-1.2947 2.5357,-1.6943 0.9835,-0.3995 2.0746,-0.5993 3.2732,-0.5993 1.1987,0 2.2936,0.1998 3.2848,0.5993 0.9912,0.3996 1.8441,0.9644 2.5587,1.6943 0.7146,0.73 1.264,1.5944 1.6482,2.5933 0.3842,0.9989 0.5763,2.0976 0.5763,3.2963 0,1.1987 -0.1921,2.2974 -0.5763,3.2963 -0.3842,0.9989 -0.9336,1.8633 -1.6482,2.5933 -0.7146,0.7299 -1.5675,1.2908 -2.5587,1.6827 -0.9912,0.3919 -2.0861,0.5878 -3.2848,0.5878 -1.1986,0 -2.2897,-0.1959 -3.2732,-0.5878 -0.9836,-0.3919 -1.8288,-0.9528 -2.5357,-1.6827 -0.7069,-0.73 -1.2524,-1.5944 -1.6366,-2.5933 -0.3842,-0.9989 -0.5763,-2.0976 -0.5763,-3.2963zm4.2645 0c0,0.8606 0.1575,1.5905 0.4725,2.1899 0.3151,0.5993 0.7569,1.0526 1.3255,1.36 0.5686,0.3073 1.2217,0.461 1.9593,0.461 0.753,0 1.4138,-0.1537 1.9824,-0.461 0.5686,-0.3074 1.0143,-0.7646 1.337,-1.3716 0.3227,-0.607 0.4841,-1.3408 0.4841,-2.2014 0,-0.8605 -0.1614,-1.5905 -0.4841,-2.1898 -0.3227,-0.5994 -0.7684,-1.0527 -1.337,-1.36 -0.5686,-0.3074 -1.2294,-0.4611 -1.9824,-0.4611 -0.7376,0 -1.3907,0.1575 -1.9593,0.4726 -0.5686,0.315 -1.0104,0.7722 -1.3255,1.3715 -0.315,0.5994 -0.4725,1.3293 -0.4725,2.1899zm19.6396 8.1601c-1.5214,0 -2.77,-0.2728 -3.7458,-0.8183 -0.9759,-0.5455 -1.6981,-1.36 -2.1668,-2.4434 -0.4687,-1.0834 -0.7031,-2.4319 -0.7031,-4.0455l0 -8.7134 4.1953 0 0 9.1053c0,0.8913 0.1998,1.5866 0.5993,2.0861 0.3996,0.4994 1.0066,0.7492 1.8211,0.7492 0.8145,0 1.4215,-0.2498 1.821,-0.7492 0.3996,-0.4995 0.5994,-1.1948 0.5994,-2.0861l0 -9.1053 4.1953 0 0 8.7134c0,1.6136 -0.2344,2.9621 -0.7031,4.0455 -0.4687,1.0834 -1.1871,1.8979 -2.1553,2.4434 -0.9681,0.5455 -2.2206,0.8183 -3.7573,0.8183zm12.6321 -0.3227l-4.1723 0 0 -15.6979 4.1723 0 0 15.6979zm4.4489 -5.855l0 -3.9879 6.5465 0 0 3.9879 -6.5465 0zm-0.0692 -5.855l1.6828 -1.8441 0 11.71 -1.798 -2.1438 7.9526 0 0 3.9879 -10.3269 0 0 -15.6979 10.3269 0 0 3.9879 -7.8374 0zm19.5244 11.71l-7.3994 -10.4652 1.5675 -0.415 0 10.8802 -4.1723 0 0 -15.6979 3.8957 0 7.3763 10.4653 -1.5674 0.4149 0 -10.8802 4.1953 0 0 15.6979 -3.8957 0zm21.6912 0l-9.912 0 0 -15.6979 4.1723 0 0 13.6002 -1.2909 -1.9593 7.0306 0 0 4.057zm0.7376 -7.8374c0,-1.1987 0.1921,-2.2974 0.5763,-3.2963 0.3842,-0.9989 0.9297,-1.8633 1.6366,-2.5933 0.7069,-0.7299 1.5521,-1.2947 2.5357,-1.6943 0.9835,-0.3995 2.0746,-0.5993 3.2732,-0.5993 1.1987,0 2.2936,0.1998 3.2848,0.5993 0.9912,0.3996 1.8441,0.9644 2.5587,1.6943 0.7146,0.73 1.264,1.5944 1.6482,2.5933 0.3842,0.9989 0.5763,2.0976 0.5763,3.2963 0,1.1987 -0.1921,2.2974 -0.5763,3.2963 -0.3842,0.9989 -0.9336,1.8633 -1.6482,2.5933 -0.7146,0.7299 -1.5675,1.2908 -2.5587,1.6827 -0.9912,0.3919 -2.0861,0.5878 -3.2848,0.5878 -1.1986,0 -2.2897,-0.1959 -3.2732,-0.5878 -0.9836,-0.3919 -1.8288,-0.9528 -2.5357,-1.6827 -0.7069,-0.73 -1.2524,-1.5944 -1.6366,-2.5933 -0.3842,-0.9989 -0.5763,-2.0976 -0.5763,-3.2963zm4.2645 0c0,0.8606 0.1575,1.5905 0.4725,2.1899 0.3151,0.5993 0.7569,1.0526 1.3255,1.36 0.5686,0.3073 1.2217,0.461 1.9593,0.461 0.753,0 1.4138,-0.1537 1.9824,-0.461 0.5686,-0.3074 1.0143,-0.7646 1.337,-1.3716 0.3227,-0.607 0.4841,-1.3408 0.4841,-2.2014 0,-0.8605 -0.1614,-1.5905 -0.4841,-2.1898 -0.3227,-0.5994 -0.7684,-1.0527 -1.337,-1.36 -0.5686,-0.3074 -1.2294,-0.4611 -1.9824,-0.4611 -0.7376,0 -1.3907,0.1575 -1.9593,0.4726 -0.5686,0.315 -1.0104,0.7722 -1.3255,1.3715 -0.315,0.5994 -0.4725,1.3293 -0.4725,2.1899zm25.6329 8.1601c-1.5214,0 -2.77,-0.2728 -3.7458,-0.8183 -0.9759,-0.5455 -1.6981,-1.36 -2.1668,-2.4434 -0.4687,-1.0834 -0.7031,-2.4319 -0.7031,-4.0455l0 -8.7134 4.1953 0 0 9.1053c0,0.8913 0.1998,1.5866 0.5993,2.0861 0.3996,0.4994 1.0066,0.7492 1.8211,0.7492 0.8145,0 1.4215,-0.2498 1.821,-0.7492 0.3996,-0.4995 0.5994,-1.1948 0.5994,-2.0861l0 -9.1053 4.1953 0 0 8.7134c0,1.6136 -0.2344,2.9621 -0.7031,4.0455 -0.4687,1.0834 -1.1871,1.8979 -2.1553,2.4434 -0.9681,0.5455 -2.2206,0.8183 -3.7573,0.8183zm14.3148 0.0922c-0.9835,0 -1.8787,-0.1421 -2.6855,-0.4264 -0.8068,-0.2843 -1.5213,-0.6954 -2.1437,-1.2333 -0.6224,-0.5378 -1.1411,-1.1909 -1.556,-1.9593l3.135 -2.0516c0.3995,0.5686 0.9182,1.0258 1.5559,1.3716 0.6378,0.3457 1.2871,0.5186 1.9479,0.5186 0.5071,0 0.8874,-0.0999 1.141,-0.2996 0.2536,-0.1998 0.3803,-0.4457 0.3803,-0.7377 0,-0.1998 -0.0576,-0.3765 -0.1728,-0.5302 -0.1153,-0.1536 -0.342,-0.3035 -0.68,-0.4495 -0.3381,-0.1459 -0.8299,-0.2881 -1.4753,-0.4264 -1.3524,-0.3074 -2.4281,-0.6954 -3.2272,-1.1641 -0.7991,-0.4687 -1.3677,-1.0373 -1.7058,-1.7058 -0.3381,-0.6685 -0.5071,-1.433 -0.5071,-2.2936 0,-0.9528 0.2459,-1.8172 0.7376,-2.5932 0.4918,-0.7761 1.1949,-1.3946 2.1092,-1.8557 0.9144,-0.461 2.0016,-0.6915 3.2618,-0.6915 1.4138,0 2.6201,0.2805 3.619,0.8414 0.9989,0.5609 1.7673,1.2793 2.3051,2.1553l-3.1349 2.259c-0.3535,-0.4764 -0.826,-0.8183 -1.4177,-1.0258 -0.5916,-0.2075 -1.1564,-0.3112 -1.6943,-0.3112 -0.4763,0 -0.8567,0.0884 -1.141,0.2651 -0.2843,0.1767 -0.4264,0.4188 -0.4264,0.7261 0,0.3074 0.1575,0.5532 0.4725,0.7377 0.315,0.1844 0.9413,0.3841 1.8787,0.5993 1.2909,0.292 2.3474,0.6646 3.1695,1.118 0.8222,0.4533 1.4292,1.0142 1.8211,1.6827 0.3918,0.6685 0.5878,1.4868 0.5878,2.455 0,0.9681 -0.2459,1.8325 -0.7377,2.5932 -0.4917,0.7607 -1.1986,1.3562 -2.1207,1.7865 -0.922,0.4303 -2.0208,0.6454 -3.2963,0.6454zm10.4653 -6.6157l6.5695 0 0 3.8496 -6.5695 0 0 -3.8496zm-3.8035 6.2008l5.5553 -15.6979 4.1723 0 5.0482 15.6979 -4.1953 0 -3.7573 -12.8626 1.6596 0 -4.3105 12.8626 -4.1723 0z"/>
  <path class="fil2" d="M84.0342 159.875c6.948,1.5115 14.5945,-0.5322 18.4844,-4.5334 1.3896,-1.4295 2.5368,-2.6742 3.7137,-4.3456 1.1392,-1.6177 2.785,-4.7453 3.1882,-7.1126l-69.7392 -0.0605 -0.0804 8.1026c3.1578,1.9606 4.2731,3.0316 5.5272,7.6545 1.1477,4.2311 0.7067,7.7995 1.2398,11.8811l37.5793 0.0348 0.087 -11.6209z"/>
  <path class="fil2" d="M175.939 128.335c1.7557,-2.279 5.7717,-9.8919 5.5618,-13.9091l-37.4974 -0.0041c-0.1878,1.6814 1.4728,6.3824 2.108,7.8506 1.9302,4.4619 4.7358,8.3045 8.6881,11.0059 2.7834,1.9026 4.1693,1.8069 7.9694,1.8069 1.4762,0 3.5157,0.237 4.8034,-0.2211 3.311,-1.1776 6.3137,-3.8644 8.3667,-6.5291z"/>
  <path class="fil2" d="M145.724 64.9258c-0.3521,-1.9303 -0.2906,-27.0122 -0.1644,-30.5002 0.125,-3.4536 1.6977,-5.7562 3.5408,-7.0815 2.7532,-1.9798 4.4095,-1.7791 8.2867,-1.7783 3.488,0.0007 6.976,0 10.4639,0 3.386,0 6.1852,-0.3993 8.8941,1.1347 5.7525,3.2576 4.4472,9.5886 4.4472,16.1017 0,6.2145 0.1634,14.384 -0.0108,20.3386 -0.1033,3.5327 -1.4342,5.5401 -3.2773,7.0571 -2.6565,2.1863 -4.3869,2.0178 -8.2594,2.0165 -4.1415,-0.0014 -16.57,0.7253 -19.5916,-1.1303 -2.03,-1.2465 -3.7977,-3.245 -4.3292,-6.1583zm-2.5753 9.4379l40.4644 0.0223 -0.0235 -51.0506 -40.4427 0.0824 0.0018 50.9459z"/>
  <polygon class="fil2" points="39.4062,135.102 55.8337,135.236 55.876,107.379 39.4132,107.306 "/>
  <path class="fil2" d="M94.5237 92.2713c1.6155,-0.5987 3.4939,-0.3295 4.8265,0.485 1.2698,0.7761 1.9958,1.7819 2.5018,3.2199 2.5116,7.1381 -8.5073,10.8895 -10.987,3.7619 -0.6278,-1.8044 -0.3549,-3.5212 0.4498,-4.8914 0.7662,-1.3047 1.6251,-1.9884 3.2089,-2.5754zm-9.7336 10.3758c2.2326,3.223 2.7346,5.0987 7.3854,6.8405 7.3255,2.7435 16.066,-2.5577 16.5996,-10.7526 0.6614,-10.1594 -10.3902,-17.284 -19.76,-10.9806 -5.5804,3.7541 -5.0829,10.2523 -5.0833,15.7382 -0.0002,2.3567 -0.4376,12.3778 0.2084,13.6775 1.4584,-4.0718 -0.3065,-10.1994 0.6499,-14.523z"/>
  <path class="fil2" d="M166.075 137.874c-1.1218,-0.5697 -5.6549,-0.6656 -6.6737,0 0.2786,1.5574 0.7335,0.18 0.9922,1.7605 0.0538,0.3289 -0.0203,1.9584 -0.0213,2.4251 -0.0037,1.6939 -0.0017,3.3886 0.0002,5.0824 0.0059,5.1948 -0.0062,4.6779 -2.4549,7.7203 -2.4413,3.0332 -3.3207,12.4536 -2.9577,17.1205l15.5683 0.0314c0.0465,-9.9769 -0.8914,-16.1387 -3.139,-17.2258 -2.2608,-2.4375 -2.274,-3.6652 -2.2718,-7.9454l0.0528 -7.4349c0.5942,-1.7722 0.6954,0.7357 0.9049,-1.5341z"/>
  <path class="fil2" d="M114.244 156.629c1.3323,1.692 1.7545,0.417 2.1399,3.4268l2.0209 15.9028 11.7398 0.1372c0.5876,-4.7001 1.5796,-11.4822 1.9874,-16.0419 0.2873,-3.2114 1.2431,-1.4903 2.0718,-3.4623l-19.9598 0.0374z"/>
  <path class="fil2" d="M160.513 106.289l-3.2752 -0.0027 -0.031 -4.3998 -2.8749 0.0099 -0.0945 4.448 -10.9583 0.0278 0.2533 5.4623 38.4718 0.0204 0.1205 -5.4952 -12.6539 -0.0536 -0.0318 -4.4165 -2.8469 -0.0106 -0.1047 4.4624 -3.0311 -0.0369 1.1856 -7.889 2.89 0.0407 0.9167 1.3683c0.211,-0.1549 0.122,0.1861 0.5956,-0.5216 0.7004,-1.0464 0.2167,-1.5853 -0.4334,-3.4576l-5.8106 0.0048 -2.2872 10.4389z"/>
  <path class="fil2" d="M39.7558 140.963c7.5358,0.4372 27.945,0.0374 36.9102,0.0374 3.6044,0 29.7441,0.2413 32.6079,0.0168 1.3753,-0.1079 1.1783,-1.4983 1.0012,-2.9465l-70.4921 -0.005c-0.2212,1.7257 -0.1624,1.1609 -0.0272,2.8973z"/>
  <path class="fil2" d="M58.4444 135.168l50.7947 0.0779 -2.6763 -3.6194c-12.2386,-0.1073 -36.8189,-0.5222 -48.0911,0.099l-0.0273 3.4425z"/>
  <path class="fil2" d="M83.2586 173.276c-8.5501,-0.1958 -19.5968,0.0102 -28.4172,0.0102 -2.2448,0 -9.4225,-0.6222 -10.4097,0.8068 -2.5301,3.6623 5.5422,2.7604 7.7189,2.7604 6.1457,0 30.9701,0.6251 33.2599,-0.5906 0.3381,-1.9939 0.0731,-2.9359 -2.1519,-2.9868z"/>
  <path class="fil2" d="M55.8626 104.416c0.1039,-5.2291 -1.6209,-4.229 -8.4954,-4.229 -6.7408,0 -7.9959,-0.8356 -7.9533,4.1033l16.4487 0.1257z"/>
  <polygon class="fil2" points="155.028,178.081 170.409,178.107 170.485,174.163 154.997,174.14 "/>
  <polygon class="fil2" points="114.045,155.329 134.201,155.394 133.342,152.71 115.119,152.605 "/>
  <path class="fil2" d="M92.3991 98.4101c0.5614,4.8142 8.6825,4.2397 7.8927,-1.1891 -0.3084,-2.12 -2.2004,-3.8154 -4.7893,-3.3202 -1.9318,0.3695 -3.3674,2.2452 -3.1034,4.5093z"/>
  <path class="fil3" d="M145.724 64.9258c0.5315,2.9133 2.2992,4.9118 4.3292,6.1583 3.0216,1.8556 15.4501,1.1289 19.5916,1.1303 3.8725,0.0013 5.6029,0.1698 8.2594,-2.0165 1.8431,-1.517 3.174,-3.5244 3.2773,-7.0571 0.1742,-5.9546 0.0108,-14.1241 0.0108,-20.3386 0,-6.5131 1.3053,-12.8441 -4.4472,-16.1017 -2.7089,-1.534 -5.5081,-1.1347 -8.8941,-1.1347 -3.4879,0 -6.9759,0.0007 -10.4639,0 -3.8772,-0.0008 -5.5335,-0.2015 -8.2867,1.7783 -1.8431,1.3253 -3.4158,3.6279 -3.5408,7.0815 -0.1262,3.488 -0.1877,28.5699 0.1644,30.5002z"/>
  <path class="fil3" d="M92.3991 98.4101c-0.264,-2.2641 1.1716,-4.1398 3.1034,-4.5093 2.5889,-0.4952 4.4809,1.2002 4.7893,3.3202 0.7898,5.4288 -7.3313,6.0033 -7.8927,1.1891zm2.1246 -6.1388c-1.5838,0.587 -2.4427,1.2707 -3.2089,2.5754 -0.8047,1.3702 -1.0776,3.087 -0.4498,4.8914 2.4797,7.1276 13.4986,3.3762 10.987,-3.7619 -0.506,-1.438 -1.232,-2.4438 -2.5018,-3.2199 -1.3326,-0.8145 -3.211,-1.0837 -4.8265,-0.485z"/>
  <rect class="fil4 str0" x="8.1791" y="10.5404" width="200" height="258.824" rx="8.4684" ry="8.4684"/>
 </g>
</svg>
