<?xml version="1.0" encoding="UTF-8"?>
<!DOCTYPE svg PUBLIC "-//W3C//DTD SVG 1.1//EN" "http://www.w3.org/Graphics/SVG/1.1/DTD/svg11.dtd">
<!-- Creator: CorelDRAW -->
<svg xmlns="http://www.w3.org/2000/svg" xml:space="preserve" width="361.273mm" height="361.273mm" style="shape-rendering:geometricPrecision; text-rendering:geometricPrecision; image-rendering:optimizeQuality; fill-rule:evenodd; clip-rule:evenodd"
viewBox="0 0 361.273 361.273"
 xmlns:xlink="http://www.w3.org/1999/xlink">
 <defs>
  <style type="text/css">
   <![CDATA[
    .fil3 {fill:#24160D}
    .fil7 {fill:#554F4A}
    .fil1 {fill:#743110}
    .fil8 {fill:#837C78}
    .fil0 {fill:#AD3809}
    .fil2 {fill:#B85A26}
    .fil4 {fill:#E25E05}
    .fil6 {fill:#F9D8B8}
    .fil5 {fill:#F9F3EE}
   ]]>
  </style>
 </defs>
 <g id="Capa_x0020_1">
  <metadata id="CorelCorpID_0Corel-Layer"/>
  <g id="_1288353128">
   <g>
    <path id="_1288358576" class="fil0" d="M256.476 143.788l-1.4469 -3.0071 -1.7497 0.4933 2.133 -0.3707 0.0324 1.4454c-1.571,0.7535 -2.6034,1.4529 -4.4308,1.2562 -1.5178,-1.9503 -3.5809,-3.569 -4.6338,-5.2322l-1.0794 0.0478c1.8047,3.0469 3.5687,3.9874 6.1393,6.0494 2.2424,0.0648 3.1231,-1.0992 5.0359,-0.6821z"/>
    <path id="_1288358312" class="fil0" d="M188.347 260.41c2.4029,-1.5108 3.3756,-5.1552 4.9103,-7.4988 -2.0797,1.4279 -4.5893,4.778 -4.9103,7.4988z"/>
    <path id="_1288357400" class="fil0" d="M195.955 294.935c1.4048,-0.6818 1.2709,-0.4554 1.7948,-1.8087 -1.1309,0.6716 -1.1254,0.6613 -1.7948,1.8087z"/>
   </g>
   <g>
    <path id="_1288357328" class="fil1" d="M266.615 242.7l-0.8482 -2.2278c-1.725,0.3956 -1.2514,5.7199 -1.1472,7.3577l0.6322 7.6116 0.543 -12.3094c0.6121,-0.8656 -0.2058,-0.2274 0.8202,-0.4321z"/>
    <path id="_1288357232" class="fil1" d="M233.554 159.139l1.1622 -0.1921c0.2519,1.1923 0.0508,0.9078 1.4758,0.9555l-0.3027 -0.8273 6.0722 -2.8123c-2.7297,-0.1165 -6.6039,1.0832 -8.4075,2.8762z"/>
    <path id="_1288357616" class="fil1" d="M252.448 300.383c-1.4174,-0.3606 -2.5412,-1.4384 -3.6141,-1.2567 1.4062,2.4879 4.4452,2.9221 6.9396,3.924 -0.6844,-1.1641 -0.0591,-0.7566 -1.641,-1.6582 -0.9595,-0.5469 -0.8327,-0.3017 -1.6845,-1.0091z"/>
    <path id="_1288357184" class="fil1" d="M253.267 204.22l-0.4242 -1.1141c-0.645,-1.6837 0.2388,0.2623 -1.0161,-0.7287l-0.3615 5.7667c0.4407,-0.6167 1.6407,-3.3452 1.8018,-3.9239z"/>
   </g>
   <g>
    <path id="_1288357760" class="fil2" d="M221.591 200.389l0.9462 1.6408c3.6213,-1.3751 1.6946,-12.3137 1.5602,-17.4342 -0.0397,-1.5139 -1.395,-6.6404 -1.8824,-8.3785 -0.7813,-2.7856 -1.735,-5.167 -1.9884,-8.0221 1.0649,-1.0658 8.9225,-0.5431 10.7909,-0.1997l7.7461 3.7811 -0.2993 -1.6617 1.4591 -0.9156c4.551,1.2595 3.5983,-0.5795 5.5749,4.2587 0.5525,1.3523 0.0195,0.4747 0.9159,1.2305 -0.4058,-2.3075 -1.3683,-3.6702 -2.1763,-5.7072 -3.9555,0.3727 -14.9648,-2.9843 -25.6084,-1.5409 2.9359,8.6143 7.9022,25.2389 4.5956,33.3424l-1.6341 -0.3936z"/>
    <path id="_1288356704" class="fil2" d="M244.5 300.851c2.0056,1.4985 8.0551,2.1398 10.864,3.3061 2.9284,-0.2284 4.6855,0.9053 7.0577,0.5575l6.6599 -1.9775 -2.0075 -1.2918c-0.8085,-1.1597 -0.9057,-0.9899 -2.4699,-1.0574l2.469 1.988 -8.0726 1.4481c-3.5496,-0.7135 -2.0219,-2.7094 -6.553,-3.4408 0.8518,0.7074 0.725,0.4622 1.6845,1.0091 1.5819,0.9016 0.9566,0.4941 1.641,1.6582 -2.4944,-1.0019 -5.5334,-1.4361 -6.9396,-3.924 -0.386,0.8639 -0.7085,-1.1179 -0.2658,1.0819l2.5765 1.4499c-0.7959,0.2794 -0.6904,0.3417 -1.6637,0.1574 -2.0085,-0.3805 -1.5522,-0.9368 -4.9805,-0.9647z"/>
    <path id="_1288356560" class="fil2" d="M238.883 289.496l0.0677 -5.932c1.8848,2.1921 0.699,1.1886 2.1797,1.6725l0.2214 1.8949 4.5615 3.2066c-0.5691,-3.5881 -0.1662,-1.4111 -0.9721,-2.8216 -0.3716,-0.6503 -0.1124,-0.4954 -0.4153,-1.1288 -0.65,-1.3588 -1.6498,-0.1364 -2.7664,-2.9358l-1.7918 -0.229c-2.4443,-5.8361 -0.8783,-3.5673 -1.8932,-6.6125l-1.1827 -0.3383c1.2201,2.4396 0.9813,3.4268 1.1424,6.2377 0.1152,2.0095 -0.0814,5.5392 0.8488,6.9863z"/>
    <path id="_1288356488" class="fil2" d="M185.283 297.324l1.1893 -0.0633 -3.4175 20.1047c0.6703,-0.6402 0.4569,-0.142 0.7779,-1.0481 0.089,-0.2513 0.1332,-0.8563 0.1886,-1.1595 0.1641,-0.8989 0.3896,-1.7735 0.6117,-2.6564 0.7897,-3.1398 2.5115,-13.2595 4.732,-13.5936l-0.9096 -0.7767c-0.46,-0.3966 -0.1489,-0.1934 -0.5423,-0.4854 -1.1014,-0.8174 -3.7073,-2.984 -4.3435,-3.2152 0.6777,1.2837 1.4279,1.676 1.7134,2.8935z"/>
    <path id="_1288357088" class="fil2" d="M183.411 150.766c1.4327,0.0734 3.592,-1.6456 4.3178,-2.7392l1.4631 -5.8616 4.6023 2.9618 -0.6439 7.0684c2.4398,-1.8061 2.0848,-5.382 1.1244,-7.9414l2.2166 -0.5099c-3.1577,0.3675 -2.7372,-0.1133 -5.1151,-1.6501 -1.601,-1.0347 -2.768,-2.0273 -4.003,-3.3618 -0.0006,-1.3682 0.4875,-4.0001 -0.3549,-4.9172 0.3895,1.993 -0.1657,4.6821 0.0357,5.4549 0.5039,1.9333 1.6681,1.7576 1.5037,4.5011 -0.2786,4.6488 -3.1123,4.5197 -5.1467,6.995z"/>
    <path id="_1288356368" class="fil2" d="M206.915 113.218l2.0575 -0.4109 -0.2207 3.1886c1.2046,-1.2744 1.8906,-4.2287 3.133,-5.9876 1.0646,-1.5071 3.172,-3.8388 3.8602,-4.9715 -3.003,0.6448 -3.8223,0.9144 -4.9565,3.5273 -1.2352,2.8455 -2.717,2.5794 -3.8735,4.6541z"/>
    <path id="_1288356848" class="fil2" d="M201.161 263.911c0.4679,0.4781 -4.0115,5.1415 -4.794,6.1542 -0.8502,1.1003 -4.7815,5.8118 -5.6503,6.3262l1.0085 -3.29c-1.834,0.7799 -1.2615,1.1462 -1.7156,2.8595 -0.3582,1.3515 -1.2105,1.4689 -0.0824,3.0089 1.7569,-2.0243 5.1679,-5.6008 6.4157,-7.8204 0.9216,-1.6396 2.2659,-2.3518 3.4433,-3.8 1.2207,-1.5016 1.5274,-2.7707 3.3211,-3.6268l0.1438 -1.2998 -2.0901 1.4882z"/>
    <path id="_1288356224" class="fil2" d="M245.301 138.42l1.0794 -0.0478c1.0529,1.6632 3.116,3.2819 4.6338,5.2322 1.8274,0.1967 2.8598,-0.5027 4.4308,-1.2562l-0.0324 -1.4454 -2.133 0.3707 -1.8084 0.2606c-1.8014,-2.4557 -0.4568,-3.5361 -0.0755,-5.9959l-1.5167 5.2559c-1.0919,-0.4345 -0.7983,-0.428 -1.5728,-1.0942 -0.0794,-0.0683 -0.3109,-0.24 -0.3914,-0.3069 -2.3061,-1.9163 -2.435,-2.3604 -5.0525,-3.8175 0.4456,0.823 1.5569,2.7931 2.4387,2.8445z"/>
    <path id="_1288355960" class="fil2" d="M238.213 255.475l-6.4004 -5.9646 11.8239 8.2899c0.8195,0.459 0.1567,0.2076 1.137,0.3366 -0.2908,-0.438 -6.2396,-5.2712 -6.7141,-5.5171l-7.713 -4.2615c0.4289,0.6063 0.5601,1.3676 1.2229,1.9831 0.624,0.5796 1.5992,1.1045 2.2474,1.7861 1.1757,1.2363 2.6841,2.8343 4.3963,3.3475z"/>
    <path id="_1288355816" class="fil2" d="M265.166 166.431l-0.0945 1.2204 -1.3407 1.676c0.7396,0.5273 2.7611,1.01 3.8984,1.4108l0.291 -0.4724c-1.1574,-0.6943 -1.0631,-0.6267 -1.4317,-1.9116 1.9526,-2.2427 4.8263,-0.8462 7.2349,-0.8726 -1.8047,-2.332 -5.902,-0.9281 -8.2793,-0.0836l-0.2781 -0.967z"/>
    <path id="_1288356344" class="fil2" d="M202.674 296.333c0.8379,0.2511 1.3687,-0.2634 -1.3407,1.7947l-2.7339 2.1096c1.4141,0.1458 7.4368,1.8293 10.3229,-0.1047l-7.4216 0.2024 -0.1462 -0.9645c-0.0081,-0.0364 -0.0282,-0.1308 -0.0342,-0.2389 -0.0068,-0.1222 -0.0175,-0.1813 -0.019,-0.2722l1.5153 0.0098 0.2169 -1.1876 1.3751 -0.3646 -0.7594 -1.8365 -0.9752 0.8525z"/>
    <path id="_1288355792" class="fil2" d="M248.21 262.77c0.8956,1.8183 1.5208,1.4996 3.1691,2.4421 1.6024,0.9163 1.2969,0.8964 3.097,0.9086 -2.0509,-3.4837 -1.999,-1.6131 -4.5974,-4.4663l-5.106 -3.5179c0.5412,1.5307 3.0864,2.7228 4.4332,3.8557 0.8964,0.754 3.3,3.2844 4.0639,3.2817l-5.0598 -2.5039z"/>
    <path id="_1288355696" class="fil2" d="M193.603 205.56l0.8262 -0.589c0.5893,-3.78 0.4987,-1.6199 -2.3072,-4.4185 -1.6416,-1.6373 -0.6466,-0.3456 -3.1077,-2.4734l0.5536 -2.4642 -1.7183 2.7627 6.1938 4.6682 -0.4404 2.5142z"/>
    <path id="_1288355456" class="fil2" d="M230.817 112.917c1.4949,-0.4657 2.1223,-1.8216 4.3675,-3.9899l1.5788 0.6553c0.0776,-0.9127 -0.094,-1.0953 -0.0872,-1.5995 0.0183,-1.3513 0.4411,-0.5991 -0.0161,-1.5923 -1.3269,1.1886 -5.2332,5.0706 -5.843,6.5264z"/>
    <path id="_1288355336" class="fil2" d="M180.618 152.44c-0.5924,-1.4265 -0.231,-0.3396 0.0489,-0.7668 1.4339,-0.2712 1.5739,0.115 2.4961,-1.0187 -3.5852,0.3049 -2.4595,-0.1677 -4.7531,-1.947 0.0547,2.2304 0.1415,2.8375 2.2081,3.7325z"/>
    <path id="_1288355288" class="fil2" d="M274.92 115.392c-0.6084,-1.0513 -5.8264,-6.1746 -6.9878,-6.7396l0.2425 1.0746c1.3509,0.7116 1.7761,1.4242 2.8413,2.5484 0.873,0.9213 0.738,0.5646 1.4018,1.1685 1.4549,1.6773 0.068,1.2948 2.5022,1.9481z"/>
    <path id="_1288355264" class="fil2" d="M226.916 157.743l-0.1929 1.0337 3.1667 0.3633 -1.3597 -1.1286 -0.0787 -1.7175c-0.5255,0.8726 0.1045,-0.0679 -0.7367,0.5632 -0.904,0.6782 -0.2777,0.0243 -0.7987,0.8859z"/>
   </g>
   <g>
    <path id="_1288355576" class="fil3" d="M215.745 105.036c-0.6882,1.1327 -2.7956,3.4644 -3.8602,4.9715 -1.2424,1.7589 -1.9284,4.7132 -3.133,5.9876 0.0215,1.5512 -0.975,4.4689 -1.263,6.1731 -0.3942,2.3315 -0.6588,4.7604 -0.9232,7.1159l2.6955 12.2666c1.6613,-1.6188 4.1358,-4.9977 5.5916,-6.8968 1.9672,-2.5662 4.0362,-4.3606 5.6392,-7.0315 1.8577,-3.0952 7.7173,-13.3568 10.3251,-14.7055 0.6098,-1.4558 4.5161,-5.3378 5.843,-6.5264 3.9986,-3.4084 5.8695,-6.2753 11.221,-8.4352l-0.3316 -0.8236c-2.263,-1.2997 -2.6338,-2.0878 -5.4996,-2.5408 -3.4496,-0.5452 -2.585,-1.0928 -4.8477,-3.0349l-7.7738 -8.0291c0.8605,-2.7643 18.0763,-18.6433 21.3068,-21.7128l-13.434 4.367c1.1116,-2.502 12.4165,-17.2683 14.9104,-20.5956 -6.8115,1.7638 -13.5508,7.7389 -17.3545,9.6199 -0.7239,1.0493 -0.0858,0.7571 -1.4081,0.7639l0.7284 -1.1189c1.9219,-4.6516 6.8714,-10.1057 10.0842,-13.9644 -5.1997,0.8077 -15.851,6.4299 -20.6294,9.7012 -1.9356,1.3251 -3.9842,3.9169 -6.1851,4.197 -0.0817,-0.0648 -0.1821,-0.1582 -0.2389,-0.2022 -0.0539,-0.0418 -0.1642,-0.1369 -0.2307,-0.1866l-1.4906 -1.0115 -0.9912 -0.9898 17.0914 -11.953c-1.8145,-0.5684 -7.9928,3.0497 -9.7518,4.3944l-7.8739 7.2353c-5.451,-1.3094 0.6222,-1.4681 -11.3505,-2.1631 -0.7699,-1.5303 -2.365,-10.7451 -6.6257,-15.0273l-12.0045 -9.8502c0.8176,1.2805 6.2412,6.2798 7.8183,9.322l5.0374 12.6187c-2.5178,-5.431 -2.634,-7.8275 -7.8368,-11.9701l-13.4445 -6.5019c0.708,0.5449 10.8724,4.1029 13.4654,7.2003l7.8969 13.1394c-3.0796,-2.9916 -3.9745,-5.0017 -7.8363,-7.7746 -3.472,-2.4929 -6.5327,-4.0152 -10.5769,-5.3886l-27.4144 -0.2597c0.9546,0.8544 7.7708,2.6942 11.1667,5.3822l8.5494 8.0239c-2.1804,-0.6132 -4.2746,-2.6268 -8.7311,-3.5101l-11.0251 -1.5371c1.3513,0.9384 11.1163,1.319 14.4357,3.1861l9.7265 7.9484c-18.9978,-3.694 -19.7081,-0.0995 -36.457,12.9426 13.211,-3.7502 14.9734,-1.7872 27.6961,1.8822 -0.8595,1.157 -4.2892,2.4692 -5.7859,3.507 -7.2037,4.9949 -7.0317,6.5847 -13.0119,15.2931 1.6831,-0.4403 3.8953,-1.6761 5.6804,-2.3644 2.002,-0.772 4.0841,-1.3703 6.152,-1.8649l13.768 0.6014c0.2063,8.813 -0.8156,4.9173 3.0482,14.3488l4.5692 -8.4975 5.645 9.3703 2.6523 -10.6551c1.2915,3.8302 2.8887,4.129 5.7721,5.683l0.6465 7.1245 3.8345 -1.0099c1.4098,1.8414 1.6449,1.339 3.8523,2.1938 1.4501,0.5615 3.1738,1.9166 4.2598,2.2212l7.9402 -4.7435 1.0591 3.5251 -0.7877 0.5692z"/>
    <path id="_1288355120" class="fil3" d="M189.365 298.907c-2.2205,0.3341 -3.9423,10.4538 -4.732,13.5936 -0.2221,0.8829 -0.4476,1.7575 -0.6117,2.6564 -0.0554,0.3032 -0.0996,0.9082 -0.1886,1.1595 -0.321,0.9061 -0.1076,0.4079 -0.7779,1.0481l3.4175 -20.1047 -1.1893 0.0633 -4.3833 19.3424 1.1354 1.9657c-1.9424,2.8257 -9.4974,8.326 -12.6845,10.7519 -2.1821,1.661 -4.561,3.1621 -6.8043,4.7493l-6.6496 5.2155 -14.9448 2.0417c3.9002,2.7765 95.6894,6.054 107.96,6.5279 37.3587,1.4428 74.9575,2.0752 112.347,2.3014l0 -14.7816 -72.9776 -0.0563c-1.1337,-4.5929 -2.8292,-9.3743 -4.3728,-13.8599 1.4262,-2.6227 0.7217,-2.9771 0.1024,-5.808 -0.4227,-1.9322 -0.9094,-3.902 -1.3889,-5.8164 -0.9779,-3.9042 -1.837,-8.0797 -2.9109,-11.8921 -2.0827,0.5086 -3.8116,2.3549 -5.6439,3.5105 -2.9207,1.8419 -4.1592,0.1483 -6.9925,-0.0705l2.0075 1.2918 -6.6599 1.9775c-2.3722,0.3478 -4.1293,-0.7859 -7.0577,-0.5575 0.2497,3.0395 2.3334,8.4065 3.2874,11.5494 0.5607,1.8472 1.1185,3.7122 1.6692,5.5674 2.6467,8.9176 2.0914,-3.8325 3.2774,14.1674l-60.5976 1.2556 0.6627 -14.9996 2.5045 -4.6784c0.9537,-2.3935 4.1283,-15.2314 4.1199,-16.7559l-1.3654 -0.1305c-2.8861,1.934 -8.9088,0.2505 -10.3229,0.1047l2.7339 -2.1096c2.7094,-2.0581 2.1786,-1.5436 1.3407,-1.7947 -1.7955,1.2273 -4.3415,2.1522 -6.2792,3.0349 -3.5561,1.6198 -3.541,0.3448 -7.0303,-0.4602z"/>
    <path id="_1288354688" class="fil3" d="M193.151 152.195c-0.45,3.0709 -4.5487,3.4826 -5.2019,5.27 3.8268,4.9092 9.2871,6.6372 15.4655,7.0399 0.2871,2.1862 -0.6547,0.7763 -0.0261,2.793l-1.1894 1.3584c0.584,0.977 -0.0791,0.501 3.7322,0.0473 -0.4349,1.5401 -2.4225,4.9574 -3.2229,6.5636 -4.1689,8.3664 -4.4702,13.4093 -6.6077,23.1627l2.2251 1.6044 0.7343 -1.7195 8.2742 3.6095c-0.3538,-6.5853 -2.0436,-10.3474 -1.0173,-17.6625l3.9412 -15.8977 3.827 0.0994c2.6656,7.873 -0.6581,24.4403 -1.9337,33.7666 2.7818,-1.6112 6.3309,-2.9314 9.4396,-1.8412l1.6341 0.3936c3.3066,-8.1035 -1.6597,-24.7281 -4.5956,-33.3424 10.6436,-1.4434 21.6529,1.9136 25.6084,1.5409l0.5904 -1.0228 -1.6616 -1.8884 1.5907 -0.6388 -1.1091 -1.6949 2.1837 -1.3128 -1.9953 -1.2019c-1.483,-0.7772 -5.9095,-1.4606 -7.6443,-1.3194 -1.425,-0.0477 -1.2239,0.2368 -1.4758,-0.9555l-1.1622 0.1921 -3.6647 0.0011 -3.1667 -0.3633 0.1929 -1.0337c-2.0143,1.8757 -7.3719,0.9213 -12.3224,1.0834 -8.686,0.2844 -7.8809,2.247 -11.5598,1.9296l-4.2567 -7.5741 2.652 -3.2016 -1.6776 -6.1732 -3.2595 -0.0631 -2.2166 0.5099c0.9604,2.5594 1.3154,6.1353 -1.1244,7.9414z"/>
    <path id="_1288354472" class="fil3" d="M251.396 135.539c-0.3813,2.4598 -1.7259,3.5402 0.0755,5.9959l1.8084 -0.2606 1.7497 -0.4933 1.4469 3.0071 2.4452 4.0565c1.2237,1.0106 2.0931,1.9978 3.32,2.8663 1.4209,1.0058 2.5631,1.5194 3.7002,2.8326 -0.4717,4.8796 -2.5627,7.1026 -0.7751,12.8878l0.2781 0.967c2.3773,-0.8445 6.4746,-2.2484 8.2793,0.0836 1.5872,0.2187 3.0601,2.2929 3.589,3.9816l0.7346 -0.1031c1.9334,-2.4682 3.8228,-5.284 4.4394,-8.4561 0.5637,-2.9005 0.5767,-10.0513 -0.7157,-12.5917 -2.0958,-4.1198 -2.1476,-5.9982 -2.6354,-10.6013 -0.6508,-6.1415 -2.1552,-5.4432 -3.548,-9.949 -1.7597,-2.081 -0.9322,-2.5798 -0.704,-4.7468l-0.0313 -6.4497c-4.8726,-0.0355 -10.6757,2.7484 -14.7153,5.3467 -7.4294,4.7787 -5.9267,3.851 -8.7415,11.6265z"/>
    <path id="_1288354208" class="fil3" d="M178.41 148.707c2.2936,1.7793 1.1679,2.2519 4.7531,1.947l0.2482 0.1114c2.0344,-2.4753 4.8681,-2.3462 5.1467,-6.995 0.1644,-2.7435 -0.9998,-2.5678 -1.5037,-4.5011 -0.2014,-0.7728 0.3538,-3.4619 -0.0357,-5.4549 -0.5667,-4.3264 0.3114,-1.8186 -1.3269,-6.1021 -3.5721,0.1306 -2.2438,0.6259 -5.4167,-2.1669l-9.7615 6.3226c-0.5064,5.9017 -0.34,5.5388 2.5655,9.3652 1.2763,1.6808 4.563,5.7141 5.331,7.4738z"/>
    <path id="_1288354160" class="fil3" d="M272.342 181.727c1.2593,-2.8142 2.5386,-3.2212 0.6106,-7.0844 -1.2935,-2.592 -2.9992,-2.7274 -5.3226,-3.9051 -1.1373,-0.4008 -3.1588,-0.8835 -3.8984,-1.4108 -3.9885,-0.3306 -1.6181,-1.7907 -7.8894,2.42l-0.0629 2.0686 -3.1948 3.9305c-0.0095,0.7146 0.1234,1.5861 0.0261,2.1624 -0.1973,1.1692 -1.8771,1.6984 0.6923,5.3739 0.7305,1.045 1.7107,1.5022 2.6502,2.4008 1.2635,1.2085 1.8106,1.4413 3.6728,1.0442 0.1039,-0.0222 6.9539,-2.5377 7.08,-2.5993 1.4766,-0.7208 1.5351,-1.8457 5.6361,-4.4008z"/>
    <path id="_1288354784" class="fil3" d="M191.726 273.101l-1.0085 3.29c0.8688,-0.5144 4.8001,-5.2259 5.6503,-6.3262 0.7825,-1.0127 5.2619,-5.6761 4.794,-6.1542 -0.8444,0.7642 -4.4593,3.1861 -5.6226,3.8753 -3.5172,2.0837 -2.5434,1.7684 -3.8132,5.3151z"/>
    <path id="_1288354304" class="fil3" d="M238.213 255.475c0.9018,0.3437 3.9302,2.9721 5.0024,3.8273 1.6192,1.2915 3.5006,2.2754 4.9954,3.4681l5.0598 2.5039c-0.7639,0.0027 -3.1675,-2.5277 -4.0639,-3.2817 -1.3468,-1.1329 -3.892,-2.325 -4.4332,-3.8557 -0.9803,-0.129 -0.3175,0.1224 -1.137,-0.3366l-11.8239 -8.2899 6.4004 5.9646z"/>
   </g>
   <g>
    <path id="_1288353752" class="fil4" d="M195.955 294.935c0.6694,-1.1474 0.6639,-1.1371 1.7948,-1.8087 -0.5239,1.3533 -0.39,1.1269 -1.7948,1.8087zm-4.2294 -21.8341c1.2698,-3.5467 0.296,-3.2314 3.8132,-5.3151 1.1633,-0.6892 4.7782,-3.1111 5.6226,-3.8753l2.0901 -1.4882 -0.1438 1.2998c-1.7937,0.8561 -2.1004,2.1252 -3.3211,3.6268 -1.1774,1.4482 -2.5217,2.1604 -3.4433,3.8 -1.2478,2.2196 -4.6588,5.7961 -6.4157,7.8204 -1.1281,-1.54 -0.2758,-1.6574 0.0824,-3.0089 0.4541,-1.7133 -0.1184,-2.0796 1.7156,-2.8595zm-3.3784 -12.6916c0.321,-2.7208 2.8306,-6.0709 4.9103,-7.4988 -1.5347,2.3436 -2.5074,5.988 -4.9103,7.4988zm56.4259 -2.2731l5.106 3.5179c2.5984,2.8532 2.5465,0.9826 4.5974,4.4663 -1.8001,-0.0122 -1.4946,0.0077 -3.097,-0.9086 -1.6483,-0.9425 -2.2735,-0.6238 -3.1691,-2.4421 -1.4948,-1.1927 -3.3762,-2.1766 -4.9954,-3.4681 -1.0722,-0.8552 -4.1006,-3.4836 -5.0024,-3.8273 -1.7122,-0.5132 -3.2206,-2.1112 -4.3963,-3.3475 -0.6482,-0.6816 -1.6234,-1.2065 -2.2474,-1.7861 -0.6628,-0.6155 -0.794,-1.3768 -1.2229,-1.9831l7.713 4.2615c0.4745,0.2459 6.4233,5.0791 6.7141,5.5171zm-23.1822 -57.7476c-3.1087,-1.0902 -6.6578,0.23 -9.4396,1.8412 1.2756,-9.3263 4.5993,-25.8936 1.9337,-33.7666l-3.827 -0.0994 -3.9412 15.8977c-1.0263,7.3151 0.6635,11.0772 1.0173,17.6625l-8.2742 -3.6095 -0.7343 1.7195 -2.2251 -1.6044c2.1375,-9.7534 2.4388,-14.7963 6.6077,-23.1627 0.8004,-1.6062 2.788,-5.0235 3.2229,-6.5636 -3.8113,0.4537 -3.1482,0.9297 -3.7322,-0.0473 -0.9813,2.0246 -2.0683,4.604 -2.7765,6.951 -0.6425,2.1296 -1.3852,6.4085 -2.0662,8.0385 -0.6157,1.4736 -7.0429,10.1335 -7.7885,11.9694l-0.5536 2.4642c2.4611,2.1278 1.4661,0.8361 3.1077,2.4734 2.8059,2.7986 2.8965,0.6385 2.3072,4.4185l-0.8262 0.589c-0.5563,0.8256 -1.3656,3.9407 -1.7516,5.0991 -0.7249,2.1753 0.0588,3.855 -0.1001,6.4634 -0.2723,4.4701 -0.9844,8.9036 -1.3288,13.3606 -1.0925,14.139 -2.287,10.1778 -5.2715,16.8317 -1.1022,2.4573 0.9258,3.5904 1.5447,5.6772 0.6652,2.2426 -3.3856,7.5068 -4.4592,9.8046 -0.8176,1.75 0.3639,3.2552 1.2178,4.9704 1.1151,2.24 0.4464,3.9732 0.3548,6.4273 -0.2443,6.5429 -0.1784,4.7317 -3.3111,11.4096 -1.295,2.7607 -1.783,2.0172 -0.0359,4.6698 0.7573,1.1498 2.0461,3.5214 3.1073,4.156 0.6362,0.2312 3.2421,2.3978 4.3435,3.2152 0.3934,0.292 0.0823,0.0888 0.5423,0.4854l0.9096 0.7767c3.4893,0.805 3.4742,2.08 7.0303,0.4602 1.9377,-0.8827 4.4837,-1.8076 6.2792,-3.0349l0.9752 -0.8525 0.7594 1.8365 -1.3751 0.3646 -0.2169 1.1876 -1.5153 -0.0098c0.0015,0.0909 0.0122,0.15 0.019,0.2722 0.006,0.1081 0.0261,0.2025 0.0342,0.2389l0.1462 0.9645 7.4216 -0.2024 1.3654 0.1305c2.9356,-0.8635 5.7126,-5.0793 7.5761,-7.6265 4.1806,-5.7145 4.0112,-3.8397 4.1028,-11.5741 0.1852,-15.6523 -1.0423,-11.4931 3.046,-19.5641 1.8728,-3.6972 1.1993,-2.5791 1.6357,-6.4524 -1.0527,-1.3584 -0.942,-4.6233 -0.8983,-6.5193 1.0573,0.867 2.6579,3.9966 3.0079,5.4407l0.4405 0.1882c1.1166,5.5893 -2.2463,9.4634 0.7153,13.3869 1.1465,1.5189 5.9156,8.0917 6.9778,8.73l1.1827 0.3383c1.0149,3.0452 -0.5511,0.7764 1.8932,6.6125l1.7918 0.229c1.1166,2.7994 2.1164,1.577 2.7664,2.9358 0.3029,0.6334 0.0437,0.4785 0.4153,1.1288 0.8059,1.4105 0.403,-0.7665 0.9721,2.8216l-4.5615 -3.2066 -0.2214 -1.8949c-1.4807,-0.4839 -0.2949,0.5196 -2.1797,-1.6725l-0.0677 5.932c-0.1155,0.9246 3.7067,8.3195 4.6776,10.2603 0.6688,1.3368 0.5322,0.8876 0.9399,1.0943 3.4283,0.0279 2.972,0.5842 4.9805,0.9647 0.9733,0.1843 0.8678,0.122 1.6637,-0.1574l-2.5765 -1.4499c-0.4427,-2.1998 -0.1202,-0.218 0.2658,-1.0819 1.0729,-0.1817 2.1967,0.8961 3.6141,1.2567 4.5311,0.7314 3.0034,2.7273 6.553,3.4408l8.0726 -1.4481 -2.469 -1.988c1.5642,0.0675 1.6614,-0.1023 2.4699,1.0574 2.8333,0.2188 4.0718,1.9124 6.9925,0.0705 1.8323,-1.1556 3.5612,-3.0019 5.6439,-3.5105l5.0444 -7.9117c0.114,-3.7595 -2.54,-9.3838 -3.4087,-13.2214 -0.6527,-2.8832 0.6357,-4.6805 0.7587,-7.019 0.076,-1.4427 -1.6645,-4.7549 -2.2107,-6.3733 -1.2511,-3.7068 -0.5657,-2.3667 -3.1882,-5.1527 -2.6529,-2.8182 -5.3118,-6.3543 -7.181,-9.7901 -1.0218,-1.8781 -1.7399,-4.1618 -2.9102,-5.8374 -1.026,0.2047 -0.2081,-0.4335 -0.8202,0.4321l-0.543 12.3094 -0.6322 -7.6116c-0.1042,-1.6378 -0.5778,-6.9621 1.1472,-7.3577l0.136 -7.455c-1.2436,-1.5602 -4.6075,-3.7831 -5.3623,-5.1199l-5.0096 -15.9353c-1.2487,-3.4016 1.2754,-3.6818 -2.2641,-7.742 -0.1611,0.5787 -1.3611,3.3072 -1.8018,3.9239l0.3615 -5.7667c1.2549,0.991 0.3711,-0.955 1.0161,0.7287l0.0588 -0.7154 1.3825 -0.8015c-0.0307,-1.2615 -7.6008,-26.4838 -7.8699,-26.9002 -0.8964,-0.7558 -0.3634,0.1218 -0.9159,-1.2305 -1.9766,-4.8382 -1.0239,-2.9992 -5.5749,-4.2587l-1.4591 0.9156 0.2993 1.6617 -7.7461 -3.7811c-1.8684,-0.3434 -9.726,-0.8661 -10.7909,0.1997 0.2534,2.8551 1.2071,5.2365 1.9884,8.0221 0.4874,1.7381 1.8427,6.8646 1.8824,8.3785 0.1344,5.1205 2.0611,16.0591 -1.5602,17.4342l-0.9462 -1.6408z"/>
    <path id="_1288353704" class="fil4" d="M247.549 97.1321l0.3316 0.8236c-5.3515,2.1599 -7.2224,5.0268 -11.221,8.4352 0.4572,0.9932 0.0344,0.241 0.0161,1.5923 -0.0068,0.5042 0.1648,0.6868 0.0872,1.5995l-1.5788 -0.6553c-2.2452,2.1683 -2.8726,3.5242 -4.3675,3.9899 -2.6078,1.3487 -8.4674,11.6103 -10.3251,14.7055 -1.603,2.6709 -3.672,4.4653 -5.6392,7.0315 -1.4558,1.8991 -3.9303,5.278 -5.5916,6.8968l-2.6955 -12.2666c0.2644,-2.3555 0.529,-4.7844 0.9232,-7.1159 0.288,-1.7042 1.2845,-4.6219 1.263,-6.1731l0.2207 -3.1886 -2.0575 0.4109c-1.3799,0.4537 -3.65,3.3986 -4.822,4.7007 -1.9397,2.1553 -1.1517,5.553 -1.1187,8.5313 0.0184,1.6675 -0.3191,2.8074 -0.4901,4.335 -0.1862,1.6645 0.0007,3.4257 -0.1593,5.0178 -0.1737,1.7284 -1.181,1.9952 -1.1911,3.6415 -0.0091,1.4694 0.6488,2.5871 0.6177,4.3628l1.6776 6.1732 -2.652 3.2016 4.2567 7.5741c3.6789,0.3174 2.8738,-1.6452 11.5598,-1.9296 4.9505,-0.1621 10.3081,0.7923 12.3224,-1.0834 0.521,-0.8616 -0.1053,-0.2077 0.7987,-0.8859 0.8412,-0.6311 0.2112,0.3094 0.7367,-0.5632l0.0787 1.7175 1.3597 1.1286 3.6647 -0.0011c1.8036,-1.793 5.6778,-2.9927 8.4075,-2.8762l-6.0722 2.8123 0.3027 0.8273c1.7348,-0.1412 6.1613,0.5422 7.6443,1.3194 0.4049,-2.1912 4.2261,-0.7567 5.7196,-0.3423 1.6472,0.457 5.0792,-0.3737 6.0463,-1.3239 1.5942,-1.6347 1.1575,-9.624 3.3189,-11.7112l-2.4452 -4.0565c-1.9128,-0.4171 -2.7935,0.7469 -5.0359,0.6821 -2.5706,-2.062 -4.3346,-3.0025 -6.1393,-6.0494 -0.8818,-0.0514 -1.9931,-2.0215 -2.4387,-2.8445 2.6175,1.4571 2.7464,1.9012 5.0525,3.8175 0.0805,0.0669 0.312,0.2386 0.3914,0.3069 0.7745,0.6662 0.4809,0.6597 1.5728,1.0942l1.5167 -5.2559c2.8148,-7.7755 1.3121,-6.8478 8.7415,-11.6265 4.0396,-2.5983 9.8427,-5.3822 14.7153,-5.3467l0.0313 6.4497c-0.2282,2.167 -1.0557,2.6658 0.704,4.7468 0.4009,-2.1746 1.9159,-2.6661 1.9879,-5.0992 0.0514,-1.7347 0.0411,-5.2402 -0.1319,-6.8935l-2.5236 -2.3772c-2.4342,-0.6533 -1.0473,-0.2708 -2.5022,-1.9481 -0.6638,-0.6039 -0.5288,-0.2472 -1.4018,-1.1685 -1.0652,-1.1242 -1.4904,-1.8368 -2.8413,-2.5484l-0.2425 -1.0746c-0.2932,-1.1782 -2.1044,-2.4715 -3.1525,-3.4781 -2.0528,-1.9714 -2.0374,-1.6469 -4.6889,-2.5248l-8.2895 -6.0802c-2.5392,-0.1505 -2.0473,1.0313 -4.2523,0.5629z"/>
    <path id="_1288353872" class="fil4" d="M183.411 150.766l-0.2482 -0.1114c-0.9222,1.1337 -1.0622,0.7475 -2.4961,1.0187 -0.2799,0.4272 -0.6413,-0.6597 -0.0489,0.7668 0.1683,0.3686 2.181,2.2061 2.8105,3.0077 1.7782,2.2644 1.6967,1.8281 4.5201,2.0176 0.6532,-1.7874 4.7519,-2.1991 5.2019,-5.27l0.6439 -7.0684 -4.6023 -2.9618 -1.4631 5.8616c-0.7258,1.0936 -2.8851,2.8126 -4.3178,2.7392z"/>
    <path id="_1288353992" class="fil4" d="M267.63 170.738c2.3234,1.1777 4.0291,1.3131 5.3226,3.9051 1.928,3.8632 0.6487,4.2702 -0.6106,7.0844 1.6746,-0.9371 2.9332,-2.5219 3.775,-4.208 1.8513,-3.7079 1.9217,-1.5118 1.9308,-6.1596l-0.7346 0.1031c-0.5289,-1.6887 -2.0018,-3.7629 -3.589,-3.9816 -2.4086,0.0264 -5.2823,-1.3701 -7.2349,0.8726 0.3686,1.2849 0.2743,1.2173 1.4317,1.9116l-0.291 0.4724z"/>
   </g>
   <g>
    <path id="_1288353728" class="fil5" d="M0.0141 361.259l361.244 0 0 -11.0391c-37.3895,-0.2262 -74.9883,-0.8586 -112.347,-2.3014 -12.2707,-0.4739 -104.06,-3.7514 -107.96,-6.5279l14.9448 -2.0417 6.6496 -5.2155c2.2433,-1.5872 4.6222,-3.0883 6.8043,-4.7493 3.1871,-2.4259 10.7421,-7.9262 12.6845,-10.7519l-1.1354 -1.9657 4.3833 -19.3424c-0.2855,-1.2175 -1.0357,-1.6098 -1.7134,-2.8935 -1.0612,-0.6346 -2.35,-3.0062 -3.1073,-4.156 -1.7471,-2.6526 -1.2591,-1.9091 0.0359,-4.6698 3.1327,-6.6779 3.0668,-4.8667 3.3111,-11.4096 0.0916,-2.4541 0.7603,-4.1873 -0.3548,-6.4273 -0.8539,-1.7152 -2.0354,-3.2204 -1.2178,-4.9704 1.0736,-2.2978 5.1244,-7.562 4.4592,-9.8046 -0.6189,-2.0868 -2.6469,-3.2199 -1.5447,-5.6772 2.9845,-6.6539 4.179,-2.6927 5.2715,-16.8317 0.3444,-4.457 1.0565,-8.8905 1.3288,-13.3606 0.1589,-2.6084 -0.6248,-4.2881 0.1001,-6.4634 0.386,-1.1584 1.1953,-4.2735 1.7516,-5.0991l0.4404 -2.5142 -6.1938 -4.6682 1.7183 -2.7627c0.7456,-1.8359 7.1728,-10.4958 7.7885,-11.9694 0.681,-1.63 1.4237,-5.9089 2.0662,-8.0385 0.7082,-2.347 1.7952,-4.9264 2.7765,-6.951l1.1894 -1.3584c-0.6286,-2.0167 0.3132,-0.6068 0.0261,-2.793 -6.1784,-0.4027 -11.6387,-2.1307 -15.4655,-7.0399 -2.8234,-0.1895 -2.7419,0.2468 -4.5201,-2.0176 -0.6295,-0.8016 -2.6422,-2.6391 -2.8105,-3.0077 -2.0666,-0.895 -2.1534,-1.5021 -2.2081,-3.7325 -0.768,-1.7597 -4.0547,-5.793 -5.331,-7.4738 -2.9055,-3.8264 -3.0719,-3.4635 -2.5655,-9.3652l9.7615 -6.3226c3.1729,2.7928 1.8446,2.2975 5.4167,2.1669 1.6383,4.2835 0.7602,1.7757 1.3269,6.1021 0.8424,0.9171 0.3543,3.549 0.3549,4.9172 1.235,1.3345 2.402,2.3271 4.003,3.3618 2.3779,1.5368 1.9574,2.0176 5.1151,1.6501l3.2595 0.0631c0.0311,-1.7757 -0.6268,-2.8934 -0.6177,-4.3628 0.0101,-1.6463 1.0174,-1.9131 1.1911,-3.6415 0.16,-1.5921 -0.0269,-3.3533 0.1593,-5.0178 0.171,-1.5276 0.5085,-2.6675 0.4901,-4.335 -0.033,-2.9783 -0.821,-6.376 1.1187,-8.5313 1.172,-1.3021 3.4421,-4.247 4.822,-4.7007 1.1565,-2.0747 2.6383,-1.8086 3.8735,-4.6541 1.1342,-2.6129 1.9535,-2.8825 4.9565,-3.5273l0.7877 -0.5692 -1.0591 -3.5251 -7.9402 4.7435c-1.086,-0.3046 -2.8097,-1.6597 -4.2598,-2.2212 -2.2074,-0.8548 -2.4425,-0.3524 -3.8523,-2.1938l-3.8345 1.0099 -0.6465 -7.1245c-2.8834,-1.554 -4.4806,-1.8528 -5.7721,-5.683l-2.6523 10.6551 -5.645 -9.3703 -4.5692 8.4975c-3.8638,-9.4315 -2.8419,-5.5358 -3.0482,-14.3488l-13.768 -0.6014c-2.0679,0.4946 -4.15,1.0929 -6.152,1.8649 -1.7851,0.6883 -3.9973,1.9241 -5.6804,2.3644 5.9802,-8.7084 5.8082,-10.2982 13.0119,-15.2931 1.4967,-1.0378 4.9264,-2.35 5.7859,-3.507 -12.7227,-3.6694 -14.4851,-5.6324 -27.6961,-1.8822 16.7489,-13.0421 17.4592,-16.6366 36.457,-12.9426l-9.7265 -7.9484c-3.3194,-1.8671 -13.0844,-2.2477 -14.4357,-3.1861l11.0251 1.5371c4.4565,0.8833 6.5507,2.8969 8.7311,3.5101l-8.5494 -8.0239c-3.3959,-2.688 -10.2121,-4.5278 -11.1667,-5.3822l27.4144 0.2597c4.0442,1.3734 7.1049,2.8957 10.5769,5.3886 3.8618,2.7729 4.7567,4.783 7.8363,7.7746l-7.8969 -13.1394c-2.593,-3.0974 -12.7574,-6.6554 -13.4654,-7.2003l13.4445 6.5019c5.2028,4.1426 5.319,6.5391 7.8368,11.9701l-5.0374 -12.6187c-1.5771,-3.0422 -7.0007,-8.0415 -7.8183,-9.322l12.0045 9.8502c4.2607,4.2822 5.8558,13.497 6.6257,15.0273 11.9727,0.695 5.8995,0.8537 11.3505,2.1631l7.8739 -7.2353c1.759,-1.3447 7.9373,-4.9628 9.7518,-4.3944l-17.0914 11.953 0.9912 0.9898 1.2131 0.0289c1.6052,-1.9139 5.6862,-5.5313 8.2521,-6.0154l-7.6073 5.9355 0.1023 1.4513c2.2009,-0.2801 4.2495,-2.8719 6.1851,-4.197 4.7784,-3.2713 15.4297,-8.8935 20.6294,-9.7012 -3.2128,3.8587 -8.1623,9.3128 -10.0842,13.9644 0.2234,0.6361 -0.4708,0.6774 0.6797,0.355 3.8037,-1.881 10.543,-7.8561 17.3545,-9.6199 -2.4939,3.3273 -13.7988,18.0936 -14.9104,20.5956l13.434 -4.367c-3.2305,3.0695 -20.4463,18.9485 -21.3068,21.7128l7.7738 8.0291c2.2627,1.9421 1.3981,2.4897 4.8477,3.0349 2.8658,0.453 3.2366,1.2411 5.4996,2.5408 2.205,0.4684 1.7131,-0.7134 4.2523,-0.5629l8.2895 6.0802c2.6515,0.8779 2.6361,0.5534 4.6889,2.5248 1.0481,1.0066 2.8593,2.2999 3.1525,3.4781 1.1614,0.565 6.3794,5.6883 6.9878,6.7396l2.5236 2.3772c0.173,1.6533 0.1833,5.1588 0.1319,6.8935 -0.072,2.4331 -1.587,2.9246 -1.9879,5.0992 1.3928,4.5058 2.8972,3.8075 3.548,9.949 0.4878,4.6031 0.5396,6.4815 2.6354,10.6013 1.2924,2.5404 1.2794,9.6912 0.7157,12.5917 -0.6166,3.1721 -2.506,5.9879 -4.4394,8.4561 -0.0091,4.6478 -0.0795,2.4517 -1.9308,6.1596 -0.8418,1.6861 -2.1004,3.2709 -3.775,4.208 -4.101,2.5551 -4.1595,3.68 -5.6361,4.4008 -0.1261,0.0616 -6.9761,2.5771 -7.08,2.5993 -1.8622,0.3971 -2.4093,0.1643 -3.6728,-1.0442 -0.9395,-0.8986 -1.9197,-1.3558 -2.6502,-2.4008 -2.5694,-3.6755 -0.8896,-4.2047 -0.6923,-5.3739 0.0973,-0.5763 -0.0356,-1.4478 -0.0261,-2.1624l3.1948 -3.9305 0.0629 -2.0686c6.2713,-4.2107 3.9009,-2.7506 7.8894,-2.42l1.3407 -1.676 0.0945 -1.2204c-1.7876,-5.7852 0.3034,-8.0082 0.7751,-12.8878 -1.1371,-1.3132 -2.2793,-1.8268 -3.7002,-2.8326 -1.2269,-0.8685 -2.0963,-1.8557 -3.32,-2.8663 -2.1614,2.0872 -1.7247,10.0765 -3.3189,11.7112 -0.9671,0.9502 -4.3991,1.7809 -6.0463,1.3239 -1.4935,-0.4144 -5.3147,-1.8489 -5.7196,0.3423l1.9953 1.2019 -2.1837 1.3128 1.1091 1.6949 -1.5907 0.6388 1.6616 1.8884 -0.5904 1.0228c0.808,2.037 1.7705,3.3997 2.1763,5.7072 0.2691,0.4164 7.8392,25.6387 7.8699,26.9002l-1.3825 0.8015 -0.0588 0.7154 0.4242 1.1141c3.5395,4.0602 1.0154,4.3404 2.2641,7.742l5.0096 15.9353c0.7548,1.3368 4.1187,3.5597 5.3623,5.1199l-0.136 7.455 0.8482 2.2278c1.1703,1.6756 1.8884,3.9593 2.9102,5.8374 1.8692,3.4358 4.5281,6.9719 7.181,9.7901 2.6225,2.786 1.9371,1.4459 3.1882,5.1527 0.5462,1.6184 2.2867,4.9306 2.2107,6.3733 -0.123,2.3385 -1.4114,4.1358 -0.7587,7.019 0.8687,3.8376 3.5227,9.4619 3.4087,13.2214l-5.0444 7.9117c1.0739,3.8124 1.933,7.9879 2.9109,11.8921 0.4795,1.9144 0.9662,3.8842 1.3889,5.8164 0.6193,2.8309 1.3238,3.1853 -0.1024,5.808 1.5436,4.4856 3.2391,9.267 4.3728,13.8599l72.9776 0.0563 0 -335.424 -361.244 0 0 361.244z"/>
    <path id="_1288353248" class="fil5" d="M226.648 255.046c-0.4364,3.8733 0.2371,2.7552 -1.6357,6.4524 -4.0883,8.071 -2.8608,3.9118 -3.046,19.5641 -0.0916,7.7344 0.0778,5.8596 -4.1028,11.5741 -1.8635,2.5472 -4.6405,6.763 -7.5761,7.6265 0.0084,1.5245 -3.1662,14.3624 -4.1199,16.7559l-2.5045 4.6784 -0.6627 14.9996 60.5976 -1.2556c-1.186,-17.9999 -0.6307,-5.2498 -3.2774,-14.1674 -0.5507,-1.8552 -1.1085,-3.7202 -1.6692,-5.5674 -0.954,-3.1429 -3.0377,-8.5099 -3.2874,-11.5494 -2.8089,-1.1663 -8.8584,-1.8076 -10.864,-3.3061 -0.4077,-0.2067 -0.2711,0.2425 -0.9399,-1.0943 -0.9709,-1.9408 -4.7931,-9.3357 -4.6776,-10.2603 -0.9302,-1.4471 -0.7336,-4.9768 -0.8488,-6.9863 -0.1611,-2.8109 0.0777,-3.7981 -1.1424,-6.2377 -1.0622,-0.6383 -5.8313,-7.2111 -6.9778,-8.73 -2.9616,-3.9235 0.4013,-7.7976 -0.7153,-13.3869l-0.4405 -0.1882c-1.3219,-1.1154 -0.592,-1.1769 -2.0075,-1.9429l-0.1021 3.0215z"/>
   </g>
   <path id="_1288352744" class="fil6" d="M226.648 255.046l0.1021 -3.0215c1.4155,0.766 0.6856,0.8275 2.0075,1.9429 -0.35,-1.4441 -1.9506,-4.5737 -3.0079,-5.4407 -0.0437,1.896 -0.1544,5.1609 0.8983,6.5193z"/>
   <path id="_1288352528" class="fil7" d="M215.487 53.3843l1.4906 1.0115c0.0665,0.0497 0.1768,0.1448 0.2307,0.1866 0.0568,0.044 0.1572,0.1374 0.2389,0.2022l-0.1023 -1.4513 7.6073 -5.9355c-2.5659,0.4841 -6.6469,4.1015 -8.2521,6.0154l-1.2131 -0.0289z"/>
   <path id="_1288353224" class="fil8" d="M234.857 55.2058c-1.1505,0.3224 -0.4563,0.2811 -0.6797,-0.355l-0.7284 1.1189c1.3223,-0.0068 0.6842,0.2854 1.4081,-0.7639z"/>
  </g>
 </g>
</svg>
