<?xml version="1.0" encoding="UTF-8"?>
<!DOCTYPE svg PUBLIC "-//W3C//DTD SVG 1.1//EN" "http://www.w3.org/Graphics/SVG/1.1/DTD/svg11.dtd">
<!-- Creator: CorelDRAW -->
<svg xmlns="http://www.w3.org/2000/svg" xml:space="preserve" width="99.4918mm" height="139.217mm" style="shape-rendering:geometricPrecision; text-rendering:geometricPrecision; image-rendering:optimizeQuality; fill-rule:evenodd; clip-rule:evenodd"
viewBox="0 0 99.4918 139.217"
 xmlns:xlink="http://www.w3.org/1999/xlink">
 <defs>
  <style type="text/css">
   <![CDATA[
    .fil0 {fill:#082631}
    .fil4 {fill:#53D3F5}
    .fil6 {fill:#687C83}
    .fil3 {fill:#99E3EA}
    .fil1 {fill:#B6B7B8}
    .fil5 {fill:#F1FEFE}
    .fil2 {fill:#F9D8D7}
   ]]>
  </style>
 </defs>
 <g id="Capa_x0020_1">
  <metadata id="CorelCorpID_0Corel-Layer"/>
  <g id="_572471216">
   <path id="_572451296" class="fil0" d="M25.9149 119.338c1.3336,-0.6241 2.7598,0.1979 3.1994,1.1246 0.5526,1.1652 -0.052,2.9078 -0.3505,4.0691 -0.4806,1.8705 -0.9527,5.9058 -2.5707,6.7765 -1.39,0.7481 -2.719,-0.3611 -3.0919,-1.0877 -0.6121,-1.1925 -0.1845,-3.0118 0.0572,-4.2462 0.3951,-2.0183 0.803,-5.7222 2.7565,-6.6363zm-1.2844 -4.6698c-2.6903,0.7504 -3.9815,2.2855 -4.9001,4.7515 -0.8988,2.413 -1.4159,5.084 -1.7748,7.7682 -0.9829,7.3497 4.9079,10.1236 9.5123,8.9452 2.4029,-0.6151 3.9531,-2.5552 4.7126,-4.8526 0.8278,-2.5042 1.4235,-4.8482 1.9211,-7.6465 0.5523,-3.1066 -0.2936,-5.6247 -2.0008,-7.1213 -1.6286,-1.4276 -4.5462,-2.6602 -7.4703,-1.8445z"/>
   <path id="_572451512" class="fil0" d="M90.805 123.809l-1.3526 -3.1854c1.2921,-0.9098 4.4902,-2.2831 4.9453,-2.8884 0.4165,-0.5541 0.5353,-1.3646 0.2826,-2.0766l-7.287 0.5214 -1.3178 -2.8426c3.2113,-1.7861 6.1323,-2.5854 5.7061,-4.9611 -0.7326,-4.0836 -5.541,-0.6831 -6.9058,0.0343 -1.1397,0.5991 -2.4175,1.2336 -3.5451,1.8865 -1.6239,0.9403 -1.4165,1.9626 -0.6517,3.5909l6.9033 15.0385c0.88,1.5014 2.1996,1.0941 3.8096,0.2492 1.3694,-0.7185 6.4106,-3.1113 7.2847,-3.7797 1.3099,-1.0015 0.909,-2.8961 -0.1959,-3.8061 -2.0538,-1.6912 -5.3847,1.9436 -7.6757,2.2191z"/>
   <path id="_572451176" class="fil0" d="M9.6695 106.865c-4.0005,0.778 -5.2742,3.9149 -7.1042,7.1957 -1.7572,3.1503 -3.7561,6.9687 -1.6985,10.9997 1.2849,2.517 5.3949,5.6536 9.7339,4.1462 4.1955,-1.4575 4.3971,-4.5737 1.9088,-5.6478 -1.3121,-0.5664 -1.6756,-0.001 -2.6304,0.6244 -1.9951,1.3067 -4.1247,0.1434 -4.6709,-1.5639 -0.6775,-2.1175 0.4902,-3.8959 1.3641,-5.4861 0.7862,-1.4305 1.7291,-3.231 2.6419,-4.4912 1.1668,-1.6112 3.5163,-1.7012 4.5629,0.0771 0.6078,1.0329 -0.3059,4.5378 2.8836,4.2031 4.9315,-0.5173 1.5596,-11.7201 -6.9912,-10.0572z"/>
   <path id="_572451440" class="fil0" d="M75.0018 129.494l-0.9127 -3.3707c3.5274,-1.4368 6.3062,-1.3386 5.8318,-4.1224l-6.9693 -0.491 -0.8791 -2.698c3.1488,-1.6053 6.443,-0.9547 6.5713,-3.5707 0.075,-1.5279 -0.9189,-2.8177 -2.313,-2.8215 -0.8092,-0.0021 -6.6361,1.8899 -7.8818,2.2716 -1.6188,0.4961 -2.4033,0.9295 -1.8618,3.1324l4.2472 16.2427c0.8204,2.3798 3.8018,0.9123 7.1673,-0.2589 2.1467,-0.747 6.5039,-1.5741 4.5275,-4.8895 -1.4725,-2.4703 -4.9731,0.3317 -7.5274,0.576z"/>
   <path id="_572451608" class="fil0" d="M58.5411 130.239c1.282,-0.4123 2.6745,-0.5536 3.9955,-0.8519 1.4046,-0.3171 2.4389,-0.8213 2.3202,-2.4942 -0.2194,-3.0923 -3.911,-1.8555 -6.8267,-1.3961l-0.3855 -3.4426c2.1732,-0.8145 8.3954,-0.2891 6.5428,-4.6081 -0.4372,-1.0192 -1.3629,-1.3968 -2.8198,-1.2057 -2.2093,0.2896 -4.4579,0.7503 -6.7242,1.1654 -1.1481,0.2103 -2.1219,0.4181 -2.2529,1.7567 -0.0903,0.9226 1.7166,17.3564 1.9271,18.3224 0.5869,2.692 4.5751,1.8875 4.909,0.0456 0.3235,-1.7847 -0.7486,-5.305 -0.6855,-7.2915z"/>
   <path id="_572450624" class="fil0" d="M41.8175 130.65c2.4522,-0.2788 6.6548,1.1655 6.7644,-2.0976 -0.8198,-0.371 -6.1973,-2.5931 -6.3313,-3.056 -0.0759,-0.262 -0.0762,-0.139 -0.1004,-0.4931 -0.0445,-0.6497 0.215,-1.8818 0.3299,-2.535 1.9056,-0.3152 5.6696,0.829 6.8358,-0.4794 0.3632,-0.4074 2.1153,-4.1202 -2.2483,-4.3363 -11.6337,-0.5762 -8.7679,-2.4623 -10.4161,12.1596 -0.1668,1.4801 -0.7059,6.0282 -0.5361,7.3795 0.2859,2.277 4.1235,2.4988 4.8025,0.3891 0.4895,-1.5209 0.2148,-5.8485 0.8996,-6.9308z"/>
   <g>
    <path id="_572450720" class="fil1" d="M19.9786 36.8339c1.7082,2.7532 3.4688,3.6162 5.9955,5.3469 -0.7056,-1.3021 -1.435,-3.4419 -1.8592,-3.8867l-0.0593 0.263c-0.4742,-1.1946 -2.2205,-5.3315 -2.358,-5.9921 -0.9941,0.8482 -0.7053,1.1704 -1.2768,3.299 -0.2657,0.9903 -0.1891,0.7157 -0.4422,0.9699z"/>
    <path id="_572450576" class="fil1" d="M74.5238 38.4946c-0.1496,0.1659 -0.1291,0.1105 -0.2809,0.3862l-1.4752 3.4149c1.6978,-0.7142 5.1086,-3.7884 5.9616,-5.6422 -0.6103,0.2266 -0.2523,0.7903 -0.5958,-0.4725 -0.094,-0.3454 -0.1639,-0.7778 -0.2361,-1.0864 -0.1966,-0.8399 -0.3505,-1.4277 -0.5739,-2.0644l-2.7601 5.4979 -0.0396 -0.0335z"/>
    <path id="_572450288" class="fil2" d="M74.5238 38.4946l0.0396 0.0335 2.7601 -5.4979c0.2234,0.6367 0.3773,1.2245 0.5739,2.0644 0.0722,0.3086 0.1421,0.741 0.2361,1.0864 0.3435,1.2628 -0.0145,0.6991 0.5958,0.4725 0.809,-0.5359 2.3872,-4.1304 2.7657,-5.5251l0.3686 -7.716c-2.2663,-0.1399 -1.5411,0.7074 -3.9498,-3.0771l2.1249 -3.0009c-1.2999,-3.1422 -3.1971,-3.7759 -5.7575,-5.2584 -1.2156,2.7015 0.7901,9.6675 1.2787,12.916 1.0394,6.9092 -1.0972,11.9992 -1.0361,13.5026z"/>
    <path id="_572450240" class="fil2" d="M19.9786 36.8339c0.2531,-0.2542 0.1765,0.0204 0.4422,-0.9699 0.5715,-2.1286 0.2827,-2.4508 1.2768,-3.299 0.1375,0.6606 1.8838,4.7975 2.358,5.9921l0.0593 -0.263c0.0319,-0.3969 -0.8827,-4.114 -1.0833,-6.2767 -0.408,-4.3993 0.8143,-15.2015 1.2257,-19.9949 -2.6073,-0.1299 -4.5248,3.5549 -5.6989,5.3119l2.1916 3.0009c-0.1585,0.9331 -0.8215,1.3471 -1.3956,2.1101l-2.5877 0.9776c-1.2909,4.3319 1.1533,10.7809 3.2119,13.4109z"/>
    <path id="_572450672" class="fil3" d="M67.4775 89.9678l-0.0461 0.9876c-0.471,0.2344 -0.5339,0.2802 -0.9794,0.0253 0.0629,-0.7576 0.2569,-1.0651 1.0255,-1.0129zm1.0177 -1.2483c-0.149,-0.9025 0.3166,-1.3225 0.8928,-1.633 0.4436,0.491 0.4059,0.3555 0.0533,0.9828 -0.3428,0.6098 -0.1522,0.638 -0.9461,0.6502zm1.187 -4.1448c0.9278,-0.4918 1.2186,-0.5302 1.1176,0.6546 -0.7216,0.5017 -1.4127,0.6263 -1.1176,-0.6546zm1.7186 -3.4112c-0.2411,-0.8742 -0.0485,-1.1111 0.613,-1.2827 0.811,0.6046 0.7193,1.5579 -0.613,1.2827zm0.7073 -2.4986c0.2046,-0.6114 0.4779,-0.8039 1.2931,-0.6326l0.0594 0.9238c-0.7604,0.1945 -0.7801,0.1355 -1.3525,-0.2912zm1.9693 -1.5171l-1.2778 0.021 0.041 -0.7546c0.2985,-0.1755 -0.3772,-0.2264 0.6728,-0.2456 0.8934,-0.0164 0.4661,0.1508 0.614,0.2456l-0.05 0.7336zm-0.5547 -4.4847c1.5165,-1.4952 2.2696,1.8063 0.1481,1.1685l-0.1481 -1.1685zm1.1198 -1.2156c-0.81,0.2357 -0.8094,-0.2663 -0.8327,-0.2848 0.1099,-0.6711 -0.2731,-0.4763 0.4483,-0.677 0.7601,-0.2114 0.8118,0.2997 0.8143,0.3019l-0.4299 0.6599zm0.534 -1.9239c-1.3913,0.276 -1.7443,-1.8925 0.0941,-1.2827 0.8401,0.2786 0.2128,0.0733 0.5561,0.296 -0.0468,0.5937 -0.0306,0.8637 -0.6502,0.9867zm-0.6703 -5.2265l1.5533 -0.0414c0.2062,1.4177 -0.0324,1.6697 -1.4451,1.4529 -0.3584,-0.6244 -0.3517,-0.6623 -0.1082,-1.4115zm-19.7439 32.9668c1.7352,-0.1659 3.8993,-0.2725 5.3753,-0.9168l-0.8587 -0.0534c0.7438,-0.516 2.1483,-1.0155 3.0026,-1.4868 0.6267,-0.3457 1.9629,-1.0701 2.4034,-1.5262 0.0287,-0.0297 0.0635,-0.0746 0.091,-0.1041l0.2984 -0.3256c0.5181,0.1002 0.675,0.0632 1.0561,0.4602 0.7194,-0.2961 0.9426,-0.52 1.4855,-1.0381 0.4821,-0.4601 0.9209,-0.7437 1.4008,-1.2249 0.5765,-0.5782 2.1373,-2.1482 2.4121,-2.9203 -0.5563,-0.1998 0.8227,-1.9684 1.1383,-2.5523 3.3659,-6.2282 5.1507,-13.3346 5.3132,-20.4184 0.0184,-0.7995 0.1806,-1.3899 0.2009,-1.8769 0.0179,-0.4299 -0.2612,-1.7284 -0.4407,-1.9024 -0.4136,-0.4004 -3.6512,-0.594 -4.1642,2.7631 -0.338,2.2119 -0.5006,4.2959 -0.8338,6.4939 -0.6238,4.1142 -2.4806,10.4964 -4.3389,14.1093 -0.2422,0.471 -0.3303,0.4114 -0.6592,1.1637 -0.6537,1.4945 -3.6077,5.4649 -4.778,6.3237 -0.9543,0.7004 -0.2032,0.0355 -0.9021,0.9259 -0.287,0.3657 -3.1048,2.3108 -3.8336,2.7505 -0.0492,0.0297 -0.2026,0.1086 -0.2527,0.1366 -0.0376,0.0211 -0.0873,0.0452 -0.1246,0.0659 -1.2757,0.708 -2.3659,0.6841 -2.9911,1.1534z"/>
    <path id="_572450456" class="fil3" d="M80.7684 88.7054l-2.0217 0.1025 -0.4057 -3.4404c0.6219,-0.0825 0.8802,-0.0618 1.3616,-0.3201l-2.96 0.0738 -2.7123 4.2297c1.5432,-0.0746 5.8091,0.173 6.7381,-0.6455z"/>
    <path id="_572482520" class="fil3" d="M23.6219 56.1592l2.8065 1.4812c1.2627,-2.8475 2.3844,-2.6016 3.6263,-4.3646 -1.1759,-0.6336 -1.1503,-0.1752 -1.3137,-0.0208l-3.7535 2.1726c-1.2533,0.7324 -0.6003,0.7585 -1.3656,0.7316z"/>
    <path id="_572482496" class="fil3" d="M69.7325 54.0187c0.3733,0.5944 0.2325,0.3076 0.7815,0.8288 0.767,0.728 1.4569,1.9566 2.0625,2.9002 0.4648,-0.1774 1.0441,-0.366 1.5413,-0.6107 0.9506,-0.468 0.9563,-0.5036 1.2571,-1.0905 -0.6001,-0.1714 -1.8197,-1.0154 -2.6453,-1.3784 -0.8194,-0.3603 -2.0384,-1.0392 -2.9971,-0.6494z"/>
    <path id="_572482088" class="fil3" d="M30.6667 55.7553c0.5725,0.7492 -0.3888,0.1548 2.0203,-0.3729 0.6832,-0.1496 1.6474,-0.3235 2.5358,-0.2111 3.3842,0.4279 3.2265,1.4155 4.4278,1.3652 -0.5649,-1.0771 -2.9034,-1.8637 -4.0445,-2.0125 -2.1131,-0.2754 -3.5129,0.2025 -4.9394,1.2313z"/>
    <path id="_572481752" class="fil3" d="M59.2452 56.3755c0.2387,0.3467 -0.4584,0.4568 1.4,-0.4887 2.8501,-1.4501 4.8861,-0.406 5.5549,-0.5235 0.806,-0.1416 0.2553,0.1685 0.67,-0.4253 -1.6641,-0.4565 -2.3707,-0.674 -4.2185,-0.2978 -1.3595,0.2768 -2.7369,0.8743 -3.4064,1.7353z"/>
    <path id="_572482280" class="fil3" d="M48.5121 25.6056c0.2369,-0.5803 -0.0057,-0.3924 0.4377,-0.7683 0.0165,-0.014 0.0694,-0.0451 0.1011,-0.0717l-1.3104 -0.5142 0.7716 1.3542z"/>
    <path id="_572482232" class="fil4" d="M48.166 36.0169c3.4467,-0.5829 7.9773,1.2394 7.9707,4.7614 -0.005,2.6971 -2.566,6.4216 -5.6612,7.1644 -2.2255,0.5341 -3.7162,-0.2262 -4.9434,-1.315 -3.6998,-3.2829 -5.2621,-9.2754 2.6339,-10.6108zm-3.0134 -0.4773c0.5449,-2.3025 7.1822,-2.4254 8.4004,-0.0812 -4.2373,-0.9972 -4.2165,-0.684 -8.4004,0.0812zm0.7643 -2.3913c0.3813,-0.5512 0.8767,-0.7923 1.5233,-0.9966 1.8021,-0.5693 4.3373,-0.3152 5.2582,0.9397 -5.0759,-0.6069 -2.4209,-0.496 -6.7815,0.0569zm2.5952 -7.5427l0.8085 1.653 -1.2448 -0.3917c-0.4523,0.5515 -0.0071,-0.2127 -0.1608,0.3574l-0.0958 0.5304c-0.9009,-0.1451 -1.7221,-0.3106 -2.6227,-0.3028l-1.8779 0.2298c-0.3743,0.1208 -0.2918,0.0788 -0.4826,0.2582l0.6473 0.003c-1.1989,0.33 -2.6287,1.0996 -3.7092,1.6327 -1.3761,0.6788 -2.2384,1.1035 -3.1863,2.2385 2.2882,0.1134 3.4146,1.9569 3.3789,2.9683 -0.0356,1.0071 0.1453,0.3227 -0.2421,0.5994 0.5761,1.0541 0.6353,-0.337 1.1464,2.7692 0.5659,3.4389 2.0443,8.564 -0.7809,9.5269 -3.3913,1.156 -8.0046,-0.1338 -10.1484,-2.9029l-0.8664 -1.0852c-0.0413,1.8658 0.3115,3.5134 0.9294,4.9725 0.7037,1.6613 1.3329,2.4068 2.4351,3.5167 1.8109,-0.0455 2.6829,-0.5379 4.6812,0.0533 -0.8964,-0.6119 -0.6038,0.0573 -1.9823,-1.2115l-0.6383 -0.4818 -1.1953 -1.1327c0.5408,-1.5439 1.3819,-1.0314 2.8405,-0.5216 4.8652,1.7009 8.2472,0.5672 12.798,0.5107 3.1023,-0.0385 5.6773,0.5869 9.0091,0.3555 1.522,-0.1057 2.5692,-0.2146 3.9981,-0.6515l3.2747 -0.2395c0.199,1.2084 -0.1519,1.546 -1.186,1.7324 -0.4962,0.2869 -0.044,0.3276 -1.8608,1.3558 -0.2565,0.1451 -0.2606,0.1594 -0.3722,0.2348 1.768,-0.5329 2.8595,0.0344 4.3931,0.002 2.2107,-1.9462 3.0701,-4.196 3.4438,-8.1533 -0.6669,0.4748 -1.1411,1.2476 -1.9934,1.9454 -1.9703,1.6131 -6.511,2.7458 -9.2467,1.6638 -2.6688,-1.0555 -1.0392,-6.635 -0.5831,-9.4547 0.0929,-0.575 0.1956,-0.8922 0.3552,-1.4851 0.2874,-1.0675 0.1082,-0.5857 0.6549,-1.2529l-0.2607 -0.0515c0.2014,-2.2188 1.2655,-3.6042 3.5862,-3.5622 -1.3277,-1.5502 -5.6135,-3.3959 -7.8311,-3.9721 -0.3618,-0.094 -1.0893,-0.1339 -0.6815,-0.3722l-0.2582 -0.1135c-1.3062,-0.2642 -1.5943,0.263 -2.472,-0.7561 -0.8124,-0.9433 -0.7461,-1.1486 -1.8621,-1.8549 -0.0317,0.0266 -0.0846,0.0577 -0.1011,0.0717 -0.4434,0.3759 -0.2008,0.188 -0.4377,0.7683z"/>
    <path id="_572482184" class="fil4" d="M59.2452 56.3755c-0.7413,0.5823 -1.5012,1.5591 -1.8833,2.7693l1.5746 3.0274 0.3254 -2.0533 0.6648 0.0664 2.3037 2.4895c0.2855,-2.1578 -0.1422,-1.5825 1.5031,-2.4871l-0.2803 2.2914c1.211,0.2238 2.0956,-0.5205 2.4967,-1.3196l0.2497 -3.3427c1.0445,-0.3768 1.3109,0.2946 2.077,1.0544l1.8016 -0.6498c-0.27,-1.2184 -2.0116,-2.6885 -3.2081,-3.2834 -0.4147,0.5938 0.136,0.2837 -0.67,0.4253 -0.6688,0.1175 -2.7048,-0.9266 -5.5549,0.5235 -1.8584,0.9455 -1.1613,0.8354 -1.4,0.4887z"/>
    <path id="_572482328" class="fil4" d="M30.6667 55.7553c-0.8966,0.4951 -1.4096,1.5775 -1.898,2.4661l1.9831 0.516c0.4326,-0.4115 0.7128,-1.1804 1.6639,-0.8744 0.7026,0.2261 0.0802,1.1019 0.1244,2.0522l2.8158 2.5531 -0.1778 -2.4304c1.2124,0.0706 1.0218,0.2904 1.2,2.5251l2.4945 -2.4044 1.0538 1.971c2.0695,0.0733 1.8774,-2.7235 0.7605,-4.4621 -0.148,-0.2304 -0.3451,-0.5392 -0.4516,-0.678 -0.3952,-0.515 -0.4115,-0.3946 -0.5847,-0.453 -1.2013,0.0503 -1.0436,-0.9373 -4.4278,-1.3652 -0.8884,-0.1124 -1.8526,0.0615 -2.5358,0.2111 -2.4091,0.5277 -1.4478,1.1221 -2.0203,0.3729z"/>
    <path id="_572481512" class="fil4" d="M27.1882 39.7957c0.0225,-0.0473 1.2673,-4.0745 1.2675,-4.0852 0.0084,-0.4598 -0.8405,-3.5634 -0.9989,-4.3936l-1.2771 -9.6656c-0.7858,2.4342 -1.0232,6.7212 -0.8656,9.5701 0.1079,1.9508 0.9846,7.3489 1.8741,8.5743z"/>
    <path id="_572481176" class="fil4" d="M71.5971 39.8371c1.2811,-3.852 2.4075,-8.975 1.8246,-13.2346 -0.0894,-0.6534 -0.1743,-1.4643 -0.2771,-2.1396 -0.1743,-1.1461 -0.1556,-1.2885 -0.647,-2.1807 -0.2176,3.0978 -0.7909,6.1585 -1.3116,9.2129 -0.1678,0.9845 -0.9694,3.7577 -0.8693,4.3825 0.0075,0.047 1.2166,3.8076 1.2804,3.9595z"/>
    <path id="_572481152" class="fil5" d="M44.6328 90.136c4.0739,0.996 6.0804,0.1637 9.8934,-0.342l-5.2065 4.1062c-1.6156,-1.0222 -2.4376,-1.3962 -3.7648,-2.6553 -0.3857,-0.3659 -0.7269,-0.5913 -0.9221,-1.1089zm13.2408 -4.5011c-0.2788,0.71 -0.794,1.2617 -1.2592,1.8267 -0.6239,0.7577 -0.7099,0.9767 -1.948,1.2383 -2.5418,0.5372 -9.0906,1.7829 -11.2403,0.1702 -0.6301,-0.4727 -2.5749,-2.5146 -2.6896,-3.3733 3.8721,1.1211 4.3506,1.5259 8.5947,1.267 2.2825,-0.1392 6.6829,-1.339 8.5424,-1.1289zm-14.5785 -0.3913c0.3887,-0.3062 0.2709,-0.1954 0.9783,-0.3818l3.0865 -0.8443c3.1558,-0.8842 10.0736,-2.9202 12.9721,-2.691l-1.6965 3.059 -15.3404 0.8581zm-4.8398 -3.5521c6.0671,0.3337 14.9455,-5.1861 22.9554,-3.8491l-0.4439 2.3316 -10.7852 1.951c-2.2831,0.596 -8.1183,2.5865 -10.4272,2.1824l-1.2991 -2.6159zm-1.1888 -3.8408c2.3348,-0.1085 4.206,-0.1561 6.3916,-0.8704 6.4291,-2.1012 10.4454,-4.7565 17.8307,-1.852l0.1001 2.0833c-5.2293,-0.0196 -7.3853,-0.3774 -12.5078,1.0377 -2.8052,0.775 -7.9191,2.9401 -11.0147,2.4367l-0.7999 -2.8353zm-0.0365 -1.1702c-0.1641,-1.16 0.1446,-2.4051 0.5099,-3.2002 3.0481,-0.323 6.3174,-0.1453 8.3468,1.4335 -1.6111,1.0989 -6.2859,1.9652 -8.8567,1.7667zm1.0917 -4.2904c1.8278,-3.8937 8.5061,-4.2394 11.7405,1.2108l-0.6551 0.2635c-0.81,0.2468 -1.6417,0.6456 -2.0129,0.5183 -0.5174,-0.1775 -1.3621,-0.954 -2.421,-1.31 -2.5945,-0.8723 -4.1603,-0.3258 -6.6515,-0.6826zm11.9348 -0.2897c0.3852,-1.6498 3.7823,-2.9164 6.3124,-2.5066 2.2864,0.3703 4.5482,2.718 4.465,4.2702 -6.3667,-1.4347 -3.5858,-1.1156 -9.666,-0.6512l-1.1114 -1.1124zm4.5058 25.1635c0.6252,-0.4693 1.7154,-0.4454 2.9911,-1.1534 0.0373,-0.0207 0.087,-0.0448 0.1246,-0.0659 0.0501,-0.028 0.2035,-0.1069 0.2527,-0.1366 0.7288,-0.4397 3.5466,-2.3848 3.8336,-2.7505 0.6989,-0.8904 -0.0522,-0.2255 0.9021,-0.9259 1.1703,-0.8588 4.1243,-4.8292 4.778,-6.3237 0.3289,-0.7523 0.417,-0.6927 0.6592,-1.1637 1.8583,-3.6129 3.7151,-9.9951 4.3389,-14.1093 0.3332,-2.198 0.4958,-4.282 0.8338,-6.4939 0.513,-3.3571 3.7506,-3.1635 4.1642,-2.7631 0.1795,0.174 0.4586,1.4725 0.4407,1.9024 -0.0203,0.487 -0.1825,1.0774 -0.2009,1.8769 -0.1625,7.0838 -1.9473,14.1902 -5.3132,20.4184 -0.3156,0.5839 -1.6946,2.3525 -1.1383,2.5523 1.012,-0.608 3.0598,-4.3349 3.6904,-5.7794 2.9044,-6.6519 4.239,-16.3514 2.8984,-23.6991 -0.1117,-0.612 -0.1082,-0.4854 -0.4749,-1.0794l-9.036 3.8398 -3.0572 3.5258 -0.9379 3.3496 -1.3138 -2.9195 -3 -0.0764 -0.5961 2.8401 -1.6975 -3.182 -2.8891 -2.6531 -11.3221 0.1293c-0.5163,0.5441 -0.7264,1.247 -1.1614,1.5742 -2.1647,1.6275 -0.76,-0.8838 -3.4015,4.1132l-0.4283 -2.8327 -3.259 0.0864 -1.3151 2.9311c-1.0243,-4.0117 -0.5107,-2.9663 -1.8093,-3.765 -1.0945,-0.6733 -1.2689,-1.5982 -1.9509,-3.0883 -4.1219,-1.1428 -6.3974,-0.9473 -9.3215,-3.9538 -1.0673,12.2895 0.7077,21.7648 6.5714,30.1244 1.9873,2.8334 6.1853,6.9508 10.3034,8.4593 4.3735,1.602 11.8695,1.5784 16.8415,1.1915z"/>
    <path id="_572481464" class="fil5" d="M31.3097 95.3236c-1.2469,-1.0215 -2.9727,-2.3081 -3.8782,-3.5834l-17.1214 3.617 2.5377 2.1521c1.3899,0.849 9.5248,2.5738 11.3524,2.536l-2.8262 -3.7774c0.6937,0.5256 1.8306,1.4791 2.5269,1.805 7.1308,3.3381 17.5466,4.0004 25.4188,4.0194 8.2794,0.0201 14.7847,-0.3457 22.4582,-2.8414 1.2653,-0.4115 3.4536,-1.1155 4.3603,-2.0212 0.9536,-0.9526 0.3199,-0.7407 1.1272,-0.9639 -0.7825,3.185 -0.2596,2.0755 -2.2282,3.4235l-0.3447 0.2849c-0.02,-0.0364 -0.0761,0.0741 -0.1122,0.113 3.2912,-0.58 8.3415,-1.2047 11.2994,-2.5037 1.0592,-0.4652 2.3493,-0.7587 2.5675,-2.0387l-7.1981 -3.0943c-2.5609,-0.6426 -6.8745,-0.499 -9.8686,-0.344l-1.6469 1.7206c-0.4637,0.3824 -1.5525,1.1282 -1.8609,1.5243l4.2723 0.0671c1.2735,0.0654 3.2942,-0.137 1.8466,1.3503 -1.3466,1.3833 -4.6164,1.3448 -6.8542,1.398 -6.7953,0.1619 -2.6387,0.099 -7.1876,1.033 -7.0033,1.438 -15.7909,1.435 -22.4174,-0.3383 -3.4899,-0.934 -3.4467,-0.7291 -7.537,-0.7437 -1.9817,-0.007 -6.0092,-0.4261 -5.5667,-2.5701l6.881 -0.2241z"/>
    <path id="_572481536" class="fil5" d="M79.7026 85.0474c-0.4814,0.2583 -0.7397,0.2376 -1.3616,0.3201l0.4057 3.4404 2.0217 -0.1025c2.8343,0.2711 8.4599,-2.3897 10.1894,-3.6648 2.3286,-1.7167 4.9447,-4.3026 5.5558,-8.5217 0.6877,-4.7472 -1.2959,-8.0755 -3.6658,-10.062l-11.7627 -2.168 0.0219 3.2367c0.8388,-0.2762 3.8534,-0.2191 4.9189,-0.0902 9.6429,1.1672 9.7564,14.0946 -1.7925,16.9207 -0.4974,0.1217 -4.4922,0.6665 -4.5308,0.6913z"/>
    <path id="_572480864" class="fil5" d="M37.121 52.2323c1.5011,0.5292 2.7933,1.7605 5.4098,2.4777 2.0435,0.5602 4.6124,0.9462 6.9765,0.8981 5.6858,-0.1159 8.2505,-1.1857 12.2992,-3.4252 0.1116,-0.0754 0.1157,-0.0897 0.3722,-0.2348 1.8168,-1.0282 1.3646,-1.0689 1.8608,-1.3558 -0.0894,-0.1413 0.3348,-0.4233 -0.6651,-0.1103 -2.2582,0.707 -2.3549,1.1402 -5.9837,1.3535 -3.0386,0.1786 -5.3485,-0.4647 -8.0712,-0.4799 -4.6524,-0.0261 -7.5852,1.5145 -13.3766,-0.5896 -1.2544,-0.4558 -1.1715,-0.5804 -1.4425,-0.227l0.6383 0.4818c1.3785,1.2688 1.0859,0.5996 1.9823,1.2115z"/>
    <path id="_572481128" class="fil5" d="M67.3935 42.8419c-0.9621,3.7099 -6.0735,4.2864 -8.5353,3.57 -0.8367,-0.2434 -1.0356,-0.4586 -1.0215,-1.4969 0.0171,-1.2655 0.3746,-3.2963 0.7343,-4.4385 2.5808,-8.1971 10.2409,-3.1035 8.8225,2.3654zm-5.2377 -11.0075c1.7637,0.1139 3.6612,1.8684 3.7894,3.4514 -2.3599,-1.5897 -4.9123,-3.2138 -7.1149,0.1623 -0.5467,0.6672 -0.3675,0.1854 -0.6549,1.2529 -0.1596,0.5929 -0.2623,0.9101 -0.3552,1.4851 -0.4561,2.8197 -2.0857,8.3992 0.5831,9.4547 2.7357,1.082 7.2764,-0.0507 9.2467,-1.6638 0.8523,-0.6978 1.3265,-1.4706 1.9934,-1.9454 -0.0943,-5.5232 -2.013,-8.4403 -4.8615,-11.3996 -1.7169,-1.7837 -7.4816,-5.3503 -11.1387,-5.1419 -0.4078,0.2383 0.3197,0.2782 0.6815,0.3722 2.2176,0.5762 6.5034,2.4219 7.8311,3.9721z"/>
    <path id="_572480216" class="fil5" d="M40.7554 45.9244c-1.2809,0.981 -5.6975,1.1034 -7.9014,-0.6815 -2.0206,-1.6364 -2.1669,-4.8513 -0.5719,-7.2471 1.4144,-2.1245 5.0866,-2.3427 6.6357,-0.1321 1.2315,1.7577 2.124,5.4927 1.8376,8.0607zm-11.6801 -2.2346l0.8664 1.0852c2.1438,2.7691 6.7571,4.0589 10.1484,2.9029 2.8252,-0.9629 1.3468,-6.088 0.7809,-9.5269 -0.5111,-3.1062 -0.5703,-1.7151 -1.1464,-2.7692 -1.5485,-3.103 -5.1635,-1.7855 -6.986,0.0344 -0.111,-1.6251 2.1786,-3.4003 3.8492,-3.6021 0.9479,-1.135 1.8102,-1.5597 3.1863,-2.2385 1.0805,-0.5331 2.5103,-1.3027 3.7092,-1.6327l-0.6473 -0.003c-1.5978,0.047 -4.0663,1.3436 -5.2939,2.0021 -1.5079,0.8088 -3.2091,2.065 -4.2501,3.2447 -1.9516,2.2115 -4.494,6.0987 -4.2167,10.5031z"/>
    <path id="_572480240" class="fil5" d="M50.0699 59.8933l4.4993 -0.046 0.9754 -2.543c-7.9595,0.6942 -4.8347,0.8948 -12.3996,0.0156 1.1533,2.8861 0.5864,2.4218 2.075,2.4974 1.6468,0.0837 3.1987,0.076 4.8499,0.076z"/>
    <path id="_572480840" class="fil5" d="M35.4875 37.5841c-2.359,0.9231 -0.7438,3.9751 1.2516,3.1835 1.9058,-0.7561 0.9904,-4.0609 -1.2516,-3.1835z"/>
    <path id="_572480432" class="fil5" d="M61.9493 37.6109c-2.3002,1.0179 -0.4889,4.0061 1.4028,3.1391 1.9051,-0.8731 0.784,-4.1067 -1.4028,-3.1391z"/>
    <path id="_572479688" class="fil5" d="M60.1376 96.3471c1.7373,-0.2115 5.2715,-2.1557 5.9928,-3.0359 -0.3811,-0.397 -0.538,-0.36 -1.0561,-0.4602l-0.2984 0.3256c-0.0275,0.0295 -0.0623,0.0744 -0.091,0.1041 -0.4405,0.4561 -1.7767,1.1805 -2.4034,1.5262 -0.8543,0.4713 -2.2588,0.9708 -3.0026,1.4868l0.8587 0.0534z"/>
    <path id="_572479736" class="fil5" d="M69.7325 54.0187c0.9587,-0.3898 2.1777,0.2891 2.9971,0.6494 0.8256,0.363 2.0452,1.207 2.6453,1.3784 1.4711,-1.184 -5.3982,-3.3181 -6.5019,-2.8891 0.0087,0.6364 0.3553,0.7686 0.8595,0.8613z"/>
    <path id="_572479160" class="fil5" d="M23.6219 56.1592c0.7653,0.0269 0.1123,0.0008 1.3656,-0.7316l3.7535 -2.1726c-1.1304,-0.0071 -4.3205,1.2241 -4.6363,1.5067l-0.8198 1.2277c0.1795,0.1765 0.1019,0.1127 0.337,0.1698z"/>
    <path id="_572479280" class="fil5" d="M74.6144 65.7086c1.4127,0.2168 1.6513,-0.0352 1.4451,-1.4529l-1.5533 0.0414c-0.2435,0.7492 -0.2502,0.7871 0.1082,1.4115z"/>
    <path id="_572478560" class="fil5" d="M75.8267 68.5369c-0.3433,-0.2227 0.284,-0.0174 -0.5561,-0.296 -1.8384,-0.6098 -1.4854,1.5587 -0.0941,1.2827 0.6196,-0.123 0.6034,-0.393 0.6502,-0.9867z"/>
    <path id="_572479040" class="fil5" d="M73.5227 72.6631l0.1481 1.1685c2.1215,0.6378 1.3684,-2.6637 -0.1481,-1.1685z"/>
    <path id="_572478872" class="fil5" d="M69.6822 84.5747c-0.2951,1.2809 0.396,1.1563 1.1176,0.6546 0.101,-1.1848 -0.1898,-1.1464 -1.1176,-0.6546z"/>
    <path id="_572478440" class="fil5" d="M71.4008 81.1635c1.3323,0.2752 1.424,-0.6781 0.613,-1.2827 -0.6615,0.1716 -0.8541,0.4085 -0.613,1.2827z"/>
    <path id="_572477984" class="fil5" d="M68.4952 88.7195c0.7939,-0.0122 0.6033,-0.0404 0.9461,-0.6502 0.3526,-0.6273 0.3903,-0.4918 -0.0533,-0.9828 -0.5762,0.3105 -1.0418,0.7305 -0.8928,1.633z"/>
    <path id="_572478272" class="fil5" d="M72.8406 76.4142l-0.041 0.7546 1.2778 -0.021 0.05 -0.7336c-0.1479,-0.0948 0.2794,-0.262 -0.614,-0.2456 -1.05,0.0192 -0.3743,0.0701 -0.6728,0.2456z"/>
    <path id="_572478488" class="fil5" d="M72.1081 78.6649c0.5724,0.4267 0.5921,0.4857 1.3525,0.2912l-0.0594 -0.9238c-0.8152,-0.1713 -1.0885,0.0212 -1.2931,0.6326z"/>
    <path id="_572478224" class="fil5" d="M73.8098 71.1627c0.0233,0.0185 0.0227,0.5205 0.8327,0.2848l0.4299 -0.6599c-0.0025,-0.0022 -0.0542,-0.5133 -0.8143,-0.3019 -0.7214,0.2007 -0.3384,0.0059 -0.4483,0.677z"/>
    <path id="_572478392" class="fil5" d="M67.4775 89.9678c-0.7686,-0.0522 -0.9626,0.2553 -1.0255,1.0129 0.4455,0.2549 0.5084,0.2091 0.9794,-0.0253l0.0461 -0.9876z"/>
    <path id="_572478344" class="fil0" d="M24.4287 95.5477c-0.4425,2.144 3.585,2.5631 5.5667,2.5701 4.0903,0.0146 4.0471,-0.1903 7.537,0.7437 6.6265,1.7733 15.4141,1.7763 22.4174,0.3383 4.5489,-0.934 0.3923,-0.8711 7.1876,-1.033 2.2378,-0.0532 5.5076,-0.0147 6.8542,-1.398 1.4476,-1.4873 -0.5731,-1.2849 -1.8466,-1.3503l-4.2723 -0.0671c0.3084,-0.3961 1.3972,-1.1419 1.8609,-1.5243l1.6469 -1.7206c2.9941,-0.155 7.3077,-0.2986 9.8686,0.344l7.1981 3.0943c-0.2182,1.28 -1.5083,1.5735 -2.5675,2.0387 -2.9579,1.299 -8.0082,1.9237 -11.2994,2.5037 0.0361,-0.0389 0.0922,-0.1494 0.1122,-0.113l0.3447 -0.2849c1.9686,-1.348 1.4457,-0.2385 2.2282,-3.4235 -0.8073,0.2232 -0.1736,0.0113 -1.1272,0.9639 -0.9067,0.9057 -3.095,1.6097 -4.3603,2.0212 -7.6735,2.4957 -14.1788,2.8615 -22.4582,2.8414 -7.8722,-0.019 -18.288,-0.6813 -25.4188,-4.0194 -0.6963,-0.3259 -1.8332,-1.2794 -2.5269,-1.805l2.8262 3.7774c-1.8276,0.0378 -9.9625,-1.687 -11.3524,-2.536l-2.5377 -2.1521 17.1214 -3.617c0.9055,1.2753 2.6313,2.5619 3.8782,3.5834l-6.881 0.2241zm56.4716 -25.2517c2.4675,-0.2844 5.5959,-0.6038 7.395,0.7185 3.8462,2.827 3.2882,10.889 -10.2894,11.4194 2.4397,-7.1301 1.4638,-4.8075 2.8944,-12.1379zm-0.1319 18.4094c-0.929,0.8185 -5.1949,0.5709 -6.7381,0.6455l2.7123 -4.2297 2.96 -0.0738c0.0386,-0.0248 4.0334,-0.5696 4.5308,-0.6913 11.5489,-2.8261 11.4354,-15.7535 1.7925,-16.9207 -1.0655,-0.1289 -4.0801,-0.186 -4.9189,0.0902l-0.0219 -3.2367 11.7627 2.168c2.3699,1.9865 4.3535,5.3148 3.6658,10.062 -0.6111,4.2191 -3.2272,6.805 -5.5558,8.5217 -1.7295,1.2751 -7.3551,3.9359 -10.1894,3.6648zm-9.3396 -0.5775c-0.2748,0.7721 -1.8356,2.3421 -2.4121,2.9203 -0.4799,0.4812 -0.9187,0.7648 -1.4008,1.2249 -0.5429,0.5181 -0.7661,0.742 -1.4855,1.0381 -0.7213,0.8802 -4.2555,2.8244 -5.9928,3.0359 -1.476,0.6443 -3.6401,0.7509 -5.3753,0.9168 -4.972,0.3869 -12.468,0.4105 -16.8415,-1.1915 -4.1181,-1.5085 -8.3161,-5.6259 -10.3034,-8.4593 -5.8637,-8.3596 -7.6387,-17.8349 -6.5714,-30.1244 2.9241,3.0065 5.1996,2.811 9.3215,3.9538 0.682,1.4901 0.8564,2.415 1.9509,3.0883 1.2986,0.7987 0.785,-0.2467 1.8093,3.765l1.3151 -2.9311 3.259 -0.0864 0.4283 2.8327c2.6415,-4.997 1.2368,-2.4857 3.4015,-4.1132 0.435,-0.3272 0.6451,-1.0301 1.1614,-1.5742l11.3221 -0.1293 2.8891 2.6531 1.6975 3.182 0.5961 -2.8401 3 0.0764 1.3138 2.9195 0.9379 -3.3496 3.0572 -3.5258 9.036 -3.8398c0.3667,0.594 0.3632,0.4674 0.4749,1.0794 1.3406,7.3477 0.006,17.0472 -2.8984,23.6991 -0.6306,1.4445 -2.6784,5.1714 -3.6904,5.7794zm-40.7621 -32.3726c1.4265,-1.0288 2.8263,-1.5067 4.9394,-1.2313 1.1411,0.1488 3.4796,0.9354 4.0445,2.0125 0.1732,0.0584 0.1895,-0.062 0.5847,0.453 0.1065,0.1388 0.3036,0.4476 0.4516,0.678 1.1169,1.7386 1.309,4.5354 -0.7605,4.4621l-1.0538 -1.971 -2.4945 2.4044c-0.1782,-2.2347 0.0124,-2.4545 -1.2,-2.5251l0.1778 2.4304 -2.8158 -2.5531c-0.0442,-0.9503 0.5782,-1.8261 -0.1244,-2.0522 -0.9511,-0.306 -1.2313,0.4629 -1.6639,0.8744l-1.9831 -0.516c0.4884,-0.8886 1.0014,-1.971 1.898,-2.4661zm28.5785 0.6202c0.6695,-0.861 2.0469,-1.4585 3.4064,-1.7353 1.8478,-0.3762 2.5544,-0.1587 4.2185,0.2978 1.1965,0.5949 2.9381,2.065 3.2081,3.2834l-1.8016 0.6498c-0.7661,-0.7598 -1.0325,-1.4312 -2.077,-1.0544l-0.2497 3.3427c-0.4011,0.7991 -1.2857,1.5434 -2.4967,1.3196l0.2803 -2.2914c-1.6453,0.9046 -1.2176,0.3293 -1.5031,2.4871l-2.3037 -2.4895 -0.6648 -0.0664 -0.3254 2.0533 -1.5746 -3.0274c0.3821,-1.2102 1.142,-2.187 1.8833,-2.7693zm-9.1753 3.5178c-1.6512,0 -3.2031,0.0077 -4.8499,-0.076 -1.4886,-0.0756 -0.9217,0.3887 -2.075,-2.4974 7.5649,0.8792 4.4401,0.6786 12.3996,-0.0156l-0.9754 2.543 -4.4993 0.046zm25.305 -3.8468c-0.3008,0.5869 -0.3065,0.6225 -1.2571,1.0905 -0.4972,0.2447 -1.0765,0.4333 -1.5413,0.6107 -0.6056,-0.9436 -1.2955,-2.1722 -2.0625,-2.9002 -0.549,-0.5212 -0.4082,-0.2344 -0.7815,-0.8288 -0.5042,-0.0927 -0.8508,-0.2249 -0.8595,-0.8613 1.1037,-0.429 7.973,1.7051 6.5019,2.8891zm-51.753 0.1127c-0.2351,-0.0571 -0.1575,0.0067 -0.337,-0.1698l0.8198 -1.2277c0.3158,-0.2826 3.5059,-1.5138 4.6363,-1.5067 0.1634,-0.1544 0.1378,-0.6128 1.3137,0.0208 -1.2419,1.763 -2.3636,1.5171 -3.6263,4.3646l-2.8065 -1.4812zm3.5663 -16.3635c-0.8895,-1.2254 -1.7662,-6.6235 -1.8741,-8.5743 -0.1576,-2.8489 0.0798,-7.1359 0.8656,-9.5701l1.2771 9.6656c0.1584,0.8302 1.0073,3.9338 0.9989,4.3936 -0.0002,0.0107 -1.245,4.0379 -1.2675,4.0852zm44.4089 0.0414c-0.0638,-0.1519 -1.2729,-3.9125 -1.2804,-3.9595 -0.1001,-0.6248 0.7015,-3.398 0.8693,-4.3825 0.5207,-3.0544 1.094,-6.1151 1.3116,-9.2129 0.4914,0.8922 0.4727,1.0346 0.647,2.1807 0.1028,0.6753 0.1877,1.4862 0.2771,2.1396 0.5829,4.2596 -0.5435,9.3826 -1.8246,13.2346zm-22.5462 -15.0715c1.116,0.7063 1.0497,0.9116 1.8621,1.8549 0.8777,1.0191 1.1658,0.4919 2.472,0.7561l0.2582 0.1135c3.6571,-0.2084 9.4218,3.3582 11.1387,5.1419 2.8485,2.9593 4.7672,5.8764 4.8615,11.3996 -0.3737,3.9573 -1.2331,6.2071 -3.4438,8.1533 -1.5336,0.0324 -2.6251,-0.5349 -4.3931,-0.002 -4.0487,2.2395 -6.6134,3.3093 -12.2992,3.4252 -2.3641,0.0481 -4.933,-0.3379 -6.9765,-0.8981 -2.6165,-0.7172 -3.9087,-1.9485 -5.4098,-2.4777 -1.9983,-0.5912 -2.8703,-0.0988 -4.6812,-0.0533 -1.1022,-1.1099 -1.7314,-1.8554 -2.4351,-3.5167 -0.6179,-1.4591 -0.9707,-3.1067 -0.9294,-4.9725 -0.2773,-4.4044 2.2651,-8.2916 4.2167,-10.5031 1.041,-1.1797 2.7422,-2.4359 4.2501,-3.2447 1.2276,-0.6585 3.6961,-1.9551 5.2939,-2.0021 0.1908,-0.1794 0.1083,-0.1374 0.4826,-0.2582l1.8779 -0.2298c0.9006,-0.0078 1.7218,0.1577 2.6227,0.3028l0.0958 -0.5304c0.1537,-0.5701 -0.2915,0.1941 0.1608,-0.3574l1.2448 0.3917 -0.8085 -1.653 -0.7716 -1.3542 1.3104 0.5142zm29.6784 11.8879c-0.853,1.8538 -4.2638,4.928 -5.9616,5.6422l1.4752 -3.4149c0.1518,-0.2757 0.1313,-0.2203 0.2809,-0.3862 -0.0611,-1.5034 2.0755,-6.5934 1.0361,-13.5026 -0.4886,-3.2485 -2.4943,-10.2145 -1.2787,-12.916 2.5604,1.4825 4.4576,2.1162 5.7575,5.2584l-2.1249 3.0009c2.4087,3.7845 1.6835,2.9372 3.9498,3.0771l-0.3686 7.716c-0.3785,1.3947 -1.9567,4.9892 -2.7657,5.5251zm-54.6144 1.6406c0.4242,0.4448 1.1536,2.5846 1.8592,3.8867 -2.5267,-1.7307 -4.2873,-2.5937 -5.9955,-5.3469 -2.0586,-2.63 -4.5028,-9.079 -3.2119,-13.4109l2.5877 -0.9776c0.5741,-0.763 1.2371,-1.177 1.3956,-2.1101l-2.1916 -3.0009c1.1741,-1.757 3.0916,-5.4418 5.6989,-5.3119 -0.4114,4.7934 -1.6337,15.5956 -1.2257,19.9949 0.2006,2.1627 1.1152,5.8798 1.0833,6.2767zm61.7304 52.8581l-0.8699 -0.2378c0.3741,-0.45 0.22,-0.3342 0.9609,-0.473 3.5614,-0.5296 8.7077,-4.1758 10.991,-7.685 1.6651,-2.5589 2.5946,-5.9312 2.3234,-9.1588 -0.3947,-4.6953 -2.6772,-7.9591 -5.3658,-9.8653l-12.868 -2.2385c-0.0732,-1.6312 -0.3438,-3.1779 -0.6188,-4.7117 -0.3778,-2.1062 -0.7221,-2.5345 -2.0291,-3.424 -2.1081,-1.4347 -5.2672,-2.1152 -7.8245,-2.8265 0.2641,-0.7187 0.6665,-1.4479 0.9375,-2.2394 0.7841,-2.6748 0.1912,-2.5322 1.3619,-3.1402 4.5156,-2.3452 7.2771,-4.6771 9.6543,-9.629 1.6991,-3.5394 2.8332,-8.7962 1.8556,-12.9081 -4.2832,-2.5024 -3.8781,-1.7926 -2.6238,-3.2477l1.1529 -1.4701c-0.0485,-2.3195 -3.5574,-6.0906 -4.6418,-6.9791 -2.635,-2.1589 -5.8893,-2.5068 -6.8801,1.4494 -0.4225,1.6873 -0.9578,8.0546 -1.2586,10.3831l-1.4889 10.1215c-2.179,-1.338 -3.3532,-6.2015 -15.4227,-7.9341 -1.6208,-0.2327 -0.6589,-0.7478 -2.6332,-2.0881 -0.9268,-0.6293 -2.2069,-1.3006 -3.6175,-1.0057l-1.1779 3.1443c-3.8403,-0.0455 -9.8911,2.4886 -12.5939,4.8907 -1.1544,1.026 -2.6355,2.7624 -3.048,3.074 -0.2331,-3.2817 -1.1355,-7.7433 -1.6202,-11.1313 -0.3874,-2.7079 -0.7375,-9.2099 -1.861,-11.0632 -0.8593,-1.4176 -2.4587,-1.8198 -4.4229,-1.0217 -0.7158,0.2909 -1.4687,0.778 -1.9658,1.2213 -0.4024,0.3588 -1.3913,1.2732 -1.6965,1.6793 -0.8709,1.1587 -1.7334,2.3385 -2.4704,3.9046 -0.9482,2.0151 0.7132,2.5109 1.096,3.1113l0.361 1.1538c-1.8783,0.3948 -2.7736,-0.5289 -3.2546,1.8583 -1.5524,7.7033 2.683,17.2972 8.8706,21.0218 4.2519,2.5594 2.6775,0.1196 5.057,6.9399 -3.3324,0.9319 -8.1791,1.7941 -9.2902,4.587 -0.9669,2.4305 -0.9469,9.7838 -0.7392,12.7631 0.6273,8.9994 2.8277,13.863 6.8126,20.995 -4.1111,-0.0417 -10.9612,1.3419 -14.207,2.9424 -1.5975,0.7878 -4.2295,2.2671 -3.1041,4.9313 2.5719,6.0887 28.3757,7.6256 34.8809,8.0929 10.3457,0.7431 35.9916,-0.7939 45.4709,-5.3809 1.4196,-0.687 4.203,-2.6111 3.0208,-5.0611 -0.8867,-1.8378 -3.9141,-3.3095 -5.2129,-3.3447z"/>
    <path id="_572477384" class="fil0" d="M48.166 36.0169c-7.896,1.3354 -6.3337,7.3279 -2.6339,10.6108 1.2272,1.0888 2.7179,1.8491 4.9434,1.315 3.0952,-0.7428 5.6562,-4.4673 5.6612,-7.1644 0.0066,-3.522 -4.524,-5.3443 -7.9707,-4.7614z"/>
    <path id="_572477144" class="fil0" d="M37.2665 77.8507l0.7999 2.8353c3.0956,0.5034 8.2095,-1.6617 11.0147,-2.4367 5.1225,-1.4151 7.2785,-1.0573 12.5078,-1.0377l-0.1001 -2.0833c-7.3853,-2.9045 -11.4016,-0.2492 -17.8307,1.852 -2.1856,0.7143 -4.0568,0.7619 -6.3916,0.8704z"/>
    <path id="_572477432" class="fil0" d="M61.9493 37.6109c2.1868,-0.9676 3.3079,2.266 1.4028,3.1391 -1.8917,0.867 -3.703,-2.1212 -1.4028,-3.1391zm5.4442 5.231c1.4184,-5.4689 -6.2417,-10.5625 -8.8225,-2.3654 -0.3597,1.1422 -0.7172,3.173 -0.7343,4.4385 -0.0141,1.0383 0.1848,1.2535 1.0215,1.4969 2.4618,0.7164 7.5732,0.1399 8.5353,-3.57z"/>
    <path id="_572477072" class="fil0" d="M35.4875 37.5841c2.242,-0.8774 3.1574,2.4274 1.2516,3.1835 -1.9954,0.7916 -3.6106,-2.2604 -1.2516,-3.1835zm5.2679 8.3403c0.2864,-2.568 -0.6061,-6.303 -1.8376,-8.0607 -1.5491,-2.2106 -5.2213,-1.9924 -6.6357,0.1321 -1.595,2.3958 -1.4487,5.6107 0.5719,7.2471 2.2039,1.7849 6.6205,1.6625 7.9014,0.6815z"/>
    <path id="_572477504" class="fil0" d="M38.4553 81.6915l1.2991 2.6159c2.3089,0.4041 8.1441,-1.5864 10.4272,-2.1824l10.7852 -1.951 0.4439 -2.3316c-8.0099,-1.337 -16.8883,4.1828 -22.9554,3.8491z"/>
    <path id="_572476712" class="fil0" d="M34.5004 50.539c0.271,-0.3534 0.1881,-0.2288 1.4425,0.227 5.7914,2.1041 8.7242,0.5635 13.3766,0.5896 2.7227,0.0152 5.0326,0.6585 8.0712,0.4799 3.6288,-0.2133 3.7255,-0.6465 5.9837,-1.3535 0.9999,-0.313 0.5757,-0.031 0.6651,0.1103 1.0341,-0.1864 1.385,-0.524 1.186,-1.7324l-3.2747 0.2395c-1.4289,0.4369 -2.4761,0.5458 -3.9981,0.6515 -3.3318,0.2314 -5.9068,-0.394 -9.0091,-0.3555 -4.5508,0.0565 -7.9328,1.1902 -12.798,-0.5107 -1.4586,-0.5098 -2.2997,-1.0223 -2.8405,0.5216l1.1953 1.1327z"/>
    <path id="_572476928" class="fil0" d="M46.7993 0.1222c-3.1649,1.4899 4.4295,4.452 1.0034,10.0658 -0.9151,1.4995 -2.0498,2.9739 -1.5249,5.3372 0.9815,4.4184 5.9697,4.109 3.4288,1.0496 -3.4245,-4.1235 4.8132,-6.0096 0.7665,-13.3311 -0.6228,-1.1269 -2.1047,-3.8603 -3.6738,-3.1215z"/>
    <path id="_572476616" class="fil0" d="M3.507 82.3613c-0.8751,2.0386 1.3838,5.2915 2.3317,6.0252 3.5513,2.7485 8.1928,-0.0061 7.3239,-3.0393 -0.6239,-2.178 -8.545,-3.4891 -9.6556,-2.9859z"/>
    <path id="_572476328" class="fil0" d="M9.4372 58.3904c0.3468,0.4773 3.0492,1.8305 0.977,4.2507 -1.362,1.5909 -5.1957,4.3636 -3.0404,9.0301 1.4599,3.1606 3.2813,2.3933 3.0509,1.0728 -0.1443,-0.8267 -1.8445,-2.6442 -0.7702,-5.2457 0.6291,-1.5233 2.1638,-2.4406 3.0565,-3.6818 3.4154,-4.7485 -3.129,-8.8971 -3.2738,-5.4261z"/>
    <path id="_572476760" class="fil0" d="M57.8736 85.6349c-1.8595,-0.2101 -6.2599,0.9897 -8.5424,1.1289 -4.2441,0.2589 -4.7226,-0.1459 -8.5947,-1.267 0.1147,0.8587 2.0595,2.9006 2.6896,3.3733 2.1497,1.6127 8.6985,0.367 11.2403,-0.1702 1.2381,-0.2616 1.3241,-0.4806 1.948,-1.2383 0.4652,-0.565 0.9804,-1.1167 1.2592,-1.8267z"/>
    <path id="_572476880" class="fil0" d="M80.9844 47.9059c0.2598,0.7663 -0.4354,0.1654 1.6012,0.8759 0.75,0.2616 1.1492,0.5422 1.598,1.0211 0.3828,0.4085 1.3536,2.2529 1.8968,3.1219 1.165,-0.978 0.3309,-3.0855 3.18,-4.0863 1.3144,-0.4616 0.5559,0.1264 1.755,-0.9326 -0.4482,-0.4924 -1.0076,-0.4685 -1.7314,-0.7529 -1.9704,-0.7743 -1.9312,-1.8538 -3.3911,-4.3558 -1.3654,0.9875 -0.0319,3.338 -4.0283,4.6527 -0.0096,0.0031 -0.4126,0.1282 -0.4295,0.1358 -0.4731,0.2157 -0.0919,-0.0839 -0.4507,0.3202z"/>
    <path id="_572476232" class="fil0" d="M55.9152 19.4433c1.0705,1.0359 2.0527,0.6166 2.6699,-0.7153 0.5978,-1.2899 0.6777,-2.7079 0.1192,-4.0315 -1.7072,-4.0462 -2.1546,-0.6629 -0.9692,-7.1359 -2.2052,-2.0302 -3.9453,2.0714 -3.0319,4.787 0.4468,1.3283 1.2892,2.0783 1.7185,3.1349 0.7324,1.8025 -0.5186,2.4733 -0.5065,3.9608z"/>
    <path id="_572475896" class="fil0" d="M38.3217 72.3901c2.4912,0.3568 4.057,-0.1897 6.6515,0.6826 1.0589,0.356 1.9036,1.1325 2.421,1.31 0.3712,0.1273 1.2029,-0.2715 2.0129,-0.5183l0.6551 -0.2635c-3.2344,-5.4502 -9.9127,-5.1045 -11.7405,-1.2108z"/>
    <path id="_572475872" class="fil0" d="M39.9218 4.9081c-0.4379,1.6759 0.7627,1.5287 1.0071,3.2304 0.3562,2.4798 -2.5285,4.3597 -1.3039,7.2771 0.6912,1.6467 1.2935,1.1581 2.579,0.8631 0.0438,-1.6327 -1.0007,-1.7425 -0.0396,-3.6625 0.4875,-0.9742 1.148,-1.8985 1.2827,-3.1919 0.2432,-2.3353 -1.2968,-5.8744 -3.5253,-4.5162z"/>
    <path id="_572475800" class="fil0" d="M50.2565 72.1004l1.1114 1.1124c6.0802,-0.4644 3.2993,-0.7835 9.666,0.6512 0.0832,-1.5522 -2.1786,-3.8999 -4.465,-4.2702 -2.5301,-0.4098 -5.9272,0.8568 -6.3124,2.5066z"/>
    <path id="_572475272" class="fil0" d="M43.2951 85.2436l15.3404 -0.8581 1.6965 -3.059c-2.8985,-0.2292 -9.8163,1.8068 -12.9721,2.691l-3.0865 0.8443c-0.7074,0.1864 -0.5896,0.0756 -0.9783,0.3818z"/>
    <path id="_572474744" class="fil0" d="M10.0374 78.8524l1.3576 1.0475c1.5016,-1.878 2.9006,-2.8734 3.5531,-4.6921 0.8464,-2.3593 0.0873,-5.4019 -1.4262,-6.5077 -1.1725,-0.8567 -2.627,-0.1485 -1.6973,1.3174 3.3357,5.2594 -1.6906,5.7385 -1.7872,8.8349z"/>
    <path id="_572475056" class="fil0" d="M94.635 33.1535c-1.0639,-2.0587 -3.8028,-1.3524 -2.8236,1.1638 0.3662,0.9411 1.9545,3.4778 3.1848,3.1715 0.9039,-0.225 2.7348,-2.53 3.0154,-3.5316 0.4611,-1.6454 -0.9624,-2.8559 -2.7864,-1.2969l-0.5902 0.4932z"/>
    <path id="_572474912" class="fil0" d="M3.3687 33.1218l-2.4863 -1.1257c-1.4316,1.3683 -0.5054,2.5987 0.3972,3.7435 0.6124,0.7768 1.9914,2.5991 3.2398,1.3182 3.9234,-4.0255 1.42,-6.8872 -1.1507,-3.936z"/>
    <path id="_572474984" class="fil0" d="M37.23 76.6805c2.5708,0.1985 7.2456,-0.6678 8.8567,-1.7667 -2.0294,-1.5788 -5.2987,-1.7565 -8.3468,-1.4335 -0.3653,0.7951 -0.674,2.0402 -0.5099,3.2002z"/>
    <path id="_572474288" class="fil0" d="M3.776 81.0404c1.4532,0.066 2.9131,0.1772 4.294,0.4153 1.1871,0.2047 2.8545,0.8942 3.8805,0.8983 0.1917,-3.7892 -8.5395,-5.1598 -8.1745,-1.3136z"/>
    <path id="_572474600" class="fil0" d="M44.6328 90.136c0.1952,0.5176 0.5364,0.743 0.9221,1.1089 1.3272,1.2591 2.1492,1.6331 3.7648,2.6553l5.2065 -4.1062c-3.813,0.5057 -5.8195,1.338 -9.8934,0.342z"/>
    <path id="_572474192" class="fil0" d="M58.8303 35.4481c2.2026,-3.3761 4.755,-1.752 7.1149,-0.1623 -0.1282,-1.583 -2.0257,-3.3375 -3.7894,-3.4514 -2.3207,-0.042 -3.3848,1.3434 -3.5862,3.5622l0.2607 0.0515z"/>
    <path id="_572474408" class="fil0" d="M39.7246 35.3818c0.3874,-0.2767 0.2065,0.4077 0.2421,-0.5994 0.0357,-1.0114 -1.0907,-2.8549 -3.3789,-2.9683 -1.6706,0.2018 -3.9602,1.977 -3.8492,3.6021 1.8225,-1.8199 5.4375,-3.1374 6.986,-0.0344z"/>
    <path id="_572473904" class="fil0" d="M98.0784 101.734l-2.5698 -0.1998 0.0343 -2.8263c-2.0948,0.5283 -1.8265,3.4079 -1.5753,3.7871 0.3794,0.5724 1.6773,0.4618 2.4348,0.383 0.4458,-0.0463 0.645,-0.0744 1.0296,-0.2923 0.5296,-0.3002 0.5372,-0.3243 0.6464,-0.8517z"/>
    <path id="_572473808" class="fil0" d="M45.1526 35.5396c4.1839,-0.7652 4.1631,-1.0784 8.4004,-0.0812 -1.2182,-2.3442 -7.8555,-2.2213 -8.4004,0.0812z"/>
    <path id="_572473688" class="fil0" d="M2.8901 101.367l-2.3055 0.5543 3.8243 0.7016c0.1005,-0.0881 0.4057,0.1205 0.4411,-1.0775 0.0437,-1.4803 -0.3172,-1.4215 -1.8564,-2.7523 -0.9947,0.8835 -0.491,1.5047 -0.1035,2.5739z"/>
    <path id="_572473664" class="fil0" d="M45.9169 33.1483c4.3606,-0.5529 1.7056,-0.6638 6.7815,-0.0569 -0.9209,-1.2549 -3.4561,-1.509 -5.2582,-0.9397 -0.6466,0.2043 -1.142,0.4454 -1.5233,0.9966z"/>
    <path id="_572473880" class="fil0" d="M57.4386 108.671c-0.3501,0.1589 -0.5236,-0.0566 -0.4984,0.7495 0.0406,1.3036 2.5192,0.6676 2.6872,0.5577 1.6849,-1.1026 -0.8857,-1.8982 -2.1888,-1.3072z"/>
    <path id="_572472464" class="fil0" d="M38.5192 109.738c0.9249,0.5964 3.6447,0.6767 3.0076,-0.7718 -0.248,-0.5639 -3.3792,-1.237 -3.0076,0.7718z"/>
    <path id="_572472728" class="fil0" d="M65.8418 109.485c0.5938,-2.3749 -2.611,-1.2002 -2.7148,-1.0544 -1.2402,1.7427 1.893,1.3971 2.7148,1.0544z"/>
    <path id="_572472656" class="fil0" d="M47.4553 110.017c0.8473,-2.1934 -2.5539,-1.3623 -2.7828,-1.0959 -0.451,0.5252 -0.0048,1.1173 0.533,1.2565 0.7121,0.1842 1.7438,0.0441 2.2498,-0.1606z"/>
    <path id="_572473160" class="fil0" d="M32.8235 109.421c0.913,0.3816 2.0462,0.5175 2.8124,0.0512 0.3797,-1.5421 -1.1562,-1.5593 -2.6483,-1.3455 -0.3279,0.6089 -0.3822,0.5496 -0.1641,1.2943z"/>
    <path id="_572472488" class="fil0" d="M53.6721 110.032c0.712,-2.2686 -2.6037,-1.2637 -2.6971,-1.1766 -0.541,0.5046 -0.2271,1.2613 0.5816,1.3789 0.6909,0.1005 1.6058,-0.0302 2.1155,-0.2023z"/>
    <path id="_572472272" class="fil0" d="M68.6297 108.111c-0.1094,0.9112 -0.0044,1.1542 0.937,1.1943 0.6642,0.0283 1.3934,-0.0328 1.5364,-0.6609 0.3451,-1.5158 -1.8766,-1.1197 -2.4734,-0.5334z"/>
    <path id="_572472200" class="fil0" d="M27.7314 108.911c0.4305,0.2562 0.778,0.4538 1.5314,0.4001l0.8882 -1.1953c-0.3543,-0.3005 -2.6318,-1.5346 -2.4196,0.7952z"/>
    <path id="_572471864" class="fil0" d="M11.0347 47.9017c0,0 0,0 0,0z"/>
    <path id="_572471792" class="fil6" d="M85.8453 91.1522l-0.541 -0.3995c0.7162,-0.1417 0.4784,-0.1937 0.632,-0.3113 -0.7409,0.1388 -0.5868,0.023 -0.9609,0.473l0.8699 0.2378z"/>
   </g>
  </g>
 </g>
</svg>
