<?xml version="1.0" encoding="UTF-8"?>
<!DOCTYPE svg PUBLIC "-//W3C//DTD SVG 1.1//EN" "http://www.w3.org/Graphics/SVG/1.1/DTD/svg11.dtd">
<!-- Creator: CorelDRAW -->
<svg xmlns="http://www.w3.org/2000/svg" xml:space="preserve" width="47.66mm" height="33.95mm" style="shape-rendering:geometricPrecision; text-rendering:geometricPrecision; image-rendering:optimizeQuality; fill-rule:evenodd; clip-rule:evenodd"
viewBox="0 0 47.66 33.95"
 xmlns:xlink="http://www.w3.org/1999/xlink">
 <defs>
  <style type="text/css">
   <![CDATA[
    .fil10 {fill:#01052A}
    .fil15 {fill:#030314}
    .fil12 {fill:#032E61}
    .fil2 {fill:#13548F}
    .fil4 {fill:#2468A6}
    .fil17 {fill:#2A4B75}
    .fil8 {fill:#3097D9}
    .fil14 {fill:#338BB9}
    .fil1 {fill:#995867}
    .fil0 {fill:#AFD6E8}
    .fil6 {fill:#B16F78}
    .fil13 {fill:#CFCECE}
    .fil16 {fill:#D4F0F3}
    .fil9 {fill:#E7D5C1}
    .fil3 {fill:#EAE9E5}
    .fil7 {fill:#F8E6D2}
    .fil5 {fill:#FAB5A6}
    .fil11 {fill:#FCF4E3}
   ]]>
  </style>
 </defs>
 <g id="Capa_x0020_1">
  <metadata id="CorelCorpID_0Corel-Layer"/>
  <g id="_36362024">
   <path id="_36361616" class="fil0" d="M23.7319 13.4957c-0.0016,0.0044 -0.0757,0.1822 -0.0756,0.1839 0.0109,0.2684 -0.0614,0.0513 0.119,0.2141 0.3301,-0.3378 0.653,-0.4913 1.0663,-0.7045l0.4254 -0.1439c-0.5238,-0.1056 -1.1579,0.0589 -1.5351,0.4504z"/>
   <path id="_36360296" class="fil0" d="M22.9887 13.3977l-0.0511 0.522c0.2844,-0.5753 0.579,-0.7991 0.9699,-1.2678l-0.1953 -0.0431c-0.318,0.1578 -0.6527,0.4289 -0.7235,0.7889z"/>
   <path id="_36360488" class="fil1" d="M10.9444 21.8469c-0.1227,0.1556 0.0672,0.066 -0.2061,0.1355 -0.1404,0.0358 -0.5631,-0.0293 -0.6944,-0.0327 -0.2762,-0.0071 -0.6466,0.0455 -0.9673,0.0459 -0.42,0.0006 -1.4922,-0.098 -1.7962,0.038l-0.1536 -0.2073 0.2068 0.6867 6.5688 0.0076c-0.0651,-0.063 -1.1707,-0.4515 -1.3107,-0.477 -0.5058,-0.0921 -1.0528,-0.0822 -1.6473,-0.1967z"/>
   <path id="_36354944" class="fil1" d="M40.3833 21.8107c-0.0667,0.0548 -0.1475,0.1011 -0.2076,0.1694l-2.7004 -0.0248c-0.8103,0.0047 -0.6696,0.1623 -0.79,-0.1225 -0.9449,0.2032 -1.849,0.1122 -2.6386,0.6107 1.0294,0.0289 5.4069,0.2037 6.1114,0.0417l0.2252 -0.6745z"/>
   <path id="_36360368" class="fil2" d="M22.7114 31.2742c0.1875,0.5826 0.6718,1.4535 1.0866,1.8622 0.5738,-0.6167 1.7521,-2.8646 1.6185,-3.6903l-0.2338 -0.0022c-0.0162,0.5153 -0.3268,1.2976 -0.5514,1.7656 -0.2569,0.5353 -0.5722,0.8648 -0.9077,1.3683l-0.5139 -0.645c-0.3544,-0.4754 -0.2076,-0.5146 -0.4983,-0.6586z"/>
   <path id="_339514608" class="fil3" d="M18.9379 13.8108c0.5607,-2.3086 0.9554,-4.6471 1.9095,-6.8363 0.4273,-0.9804 0.8937,-1.9828 1.4811,-2.8717 0.2222,-0.3363 1.625,-2.4683 1.6725,-2.6751l-0.2149 -0.233c-0.4899,0.3685 -1.5077,2.0099 -1.8835,2.6295 -0.9381,1.5468 -2.2484,4.7148 -2.6284,6.4122l-0.7134 3.8484 0.3771 -0.274z"/>
   <path id="_339514392" class="fil3" d="M37.694 16.5044l0.0572 0.1284 0.2805 -0.5097c0.3616,-0.6176 0.6285,-1.2873 0.9642,-1.9116 0.9746,-1.8127 1.1224,-2.2504 1.6729,-4.217 0.1291,-0.4611 0.4287,-2.0175 0.691,-2.2822l-0.0163 -0.2325c-0.4811,0.4015 -1.5995,3.6418 -1.8976,4.4135 -0.4845,1.2546 -1.6319,3.3873 -1.7519,4.6111z"/>
   <path id="_339515520" class="fil3" d="M12.739 21.334c0.277,-0.0961 -0.0676,-0.1165 -0.5677,-0.7486 -0.715,-0.9037 -1.1738,-2.4424 -1.2413,-3.5346 -0.0989,-0.2579 -0.1874,-0.9227 -0.2653,-1.2514 -0.0993,-0.4185 -0.2377,-0.7918 -0.3554,-1.1945 0.541,0.4034 3.983,3.0992 4.2947,3.1286l-0.0214 -0.0837c-0.4714,-0.7339 -3.539,-3.2697 -4.5228,-3.4859 0.2924,0.957 0.2926,0.9646 0.4945,1.9527 0.1412,0.6912 0.24,1.3911 0.3869,2.0842 0.368,1.7351 0.7281,2.1108 1.7978,3.1332z"/>
   <path id="_339514272" class="fil3" d="M32.4977 18.6748c1.0031,-0.8397 3.7547,-3.6493 4.8592,-4.0696l0.1567 -0.4268c-1.0181,0.4132 -2.0037,1.0437 -2.801,1.7611 -0.4851,0.4365 -2.0788,1.768 -2.3874,2.2813l0.1725 0.454z"/>
   <path id="_339506400" class="fil3" d="M7.6781 18.6638c0.0628,-0.0361 -0.4494,-0.8501 -0.5276,-1.01 -0.1816,-0.3717 -0.3812,-0.8347 -0.4937,-1.225 -0.3296,-1.1427 -0.3052,-2.1102 -0.2739,-3.2873 0.0795,-1.917 0.4756,-3.4066 0.0677,-5.3437l-0.455 -1.0393c0.0206,0.3773 0.1918,0.9979 0.2459,1.4407 0.2051,1.6812 -0.1247,3.3081 -0.1643,5.0432 -0.0529,2.3183 0.2535,3.6007 1.6009,5.4214z"/>
   <path id="_339506472" class="fil3" d="M23.9107 13.913c0.116,0.1609 0.8363,0.0406 1.6117,0.2329l1.3917 0.3975 0.2906 -0.1403 0.0997 -0.2438c-0.6625,-0.4681 -1.8575,-0.418 -2.6067,-0.5122l-0.787 0.2659z"/>
   <path id="_339506880" class="fil3" d="M27.2047 14.4031c-0.1335,0.3078 -0.2032,0.2937 -0.1274,0.6775 0.1207,-0.1933 0.127,-0.1887 0.3222,-0.2753 0.3716,-0.3818 1.0917,-0.3893 1.4745,-0.0852 -0.1552,-0.2234 -0.4694,-0.4034 -0.7431,-0.4982 -0.5229,-0.181 -0.5525,0.0098 -0.9262,0.1812z"/>
   <path id="_339505584" class="fil3" d="M19.7501 14.7095l0.33 -0.0813 -0.0464 -0.2866c-0.339,-0.3973 -1.1104,-0.077 -1.3547,0.2661 0.4455,-0.0602 0.649,-0.2192 1.0711,0.1018z"/>
   <path id="_339505848" class="fil3" d="M20.3322 14.5795c0.2359,0.0163 0.7891,-0.2862 1.105,-0.3759 0.3947,-0.1119 0.8454,-0.2026 1.2396,-0.2734 -0.1239,-0.9662 0.0117,-1.7652 0.9827,-2.1768l0.7841 -0.4833 -1.9671 2.4315 -2.2792 0.4444c0.014,0.2809 0.0602,0.1852 0.1349,0.4335z"/>
   <path id="_339506136" class="fil4" d="M26.5263 20.2927c-0.2183,0.1089 -0.1627,0.1263 -0.3061,0.3477 -0.1159,0.1788 -0.1147,0.27 -0.3001,0.2613 -0.0187,0.5972 -1.7461,1.1109 -2.8142,0.9825 -1.4919,-0.1794 -1.819,-1.0948 -2.3276,-1.4421 0.0121,0.3633 0.3131,0.6699 0.563,0.9255 0.2125,0.2174 0.6542,0.387 0.7435,0.6618 -0.7578,0.027 -4.2764,0.099 -4.6082,-0.4416l-0.8477 -0.3035c-0.3057,0.3177 -0.2046,-0.0358 -0.3787,0.2952l0.1782 0.2593c-0.3107,-0.0698 -0.4211,-0.3256 -0.7416,-0.4631 0.4195,1.3218 2.9811,1.2579 4.1687,1.3153 2.6525,0.1283 7.828,0.1773 10.3692,-0.246 0.6973,-0.1161 1.3035,-0.4377 1.5937,-1.1009 0.275,-0.6282 0.3237,-1.7395 -0.1102,-2.2423 -0.0698,0.4625 0.0715,0.5742 -0.1414,1.0944 -0.6051,1.479 -2.8432,1.7989 -4.2487,1.8403l-2.331 0.0251c0.6117,-0.4642 1.4468,-0.9516 1.5392,-1.7689z"/>
   <path id="_339506328" class="fil4" d="M20.3742 29.4519c-1.285,-0.0057 -7.1898,-0.1111 -7.9793,0.0273 0.2987,0.4218 3.0566,1.454 3.6718,1.6496 0.6874,0.2184 3.745,1.0326 4.2678,0.8348l0.0397 -2.5117z"/>
   <path id="_339505776" class="fil4" d="M27.249 31.9461c1.5084,0.3269 7.5855,-1.8133 7.9498,-2.466l-7.9811 -0.0288 0.0313 2.4948z"/>
   <path id="_339505920" class="fil4" d="M7.6781 18.6638c0.0907,0.2474 0.1577,0.2758 0.3484,0.4532 0.3443,0.7686 2.3774,2.1088 3.7357,2.1402 -0.4636,-0.657 -0.807,-1.0321 -1.0653,-1.753 -0.1043,-0.291 -0.0697,-0.4638 -0.2701,-0.6652 0.0141,-0.3156 -0.4362,-2.3277 -0.5414,-2.7611 -0.1406,-0.5795 -0.6291,-1.9721 -1.0458,-2.3113 0.0478,0.4046 0.405,1.1836 0.5632,1.6315 0.1809,0.5126 0.4237,1.1688 0.3558,1.7149l-2.3 -1.3547c-0.2416,-0.2096 -0.7597,-1.4338 -0.8461,-1.9232 -0.0509,-0.2878 -0.0397,-0.5182 -0.2296,-0.6936 -0.0313,1.1771 -0.0557,2.1446 0.2739,3.2873 0.1125,0.3903 0.3121,0.8533 0.4937,1.225 0.0782,0.1599 0.5904,0.9739 0.5276,1.01z"/>
   <path id="_339505296" class="fil4" d="M38.0317 16.1231l-0.2805 0.5097 -0.0572 -0.1284c-0.1951,0.2391 -0.2318,0.9442 -0.293,1.2942 -0.0544,0.3107 -0.2742,1.0341 -0.2632,1.2701 -0.241,0.2781 -0.5372,1.3663 -0.8051,1.6751 -0.1833,0.2113 -0.2153,0.1467 -0.3379,0.4701l2.8706 -1.33c0.6337,-0.5838 1.4974,-1.5234 1.839,-2.333 0.4177,-0.7798 0.7575,-1.8946 0.8318,-2.7852 0.047,-0.5618 0.05,-1.2365 0.0177,-1.7997 -0.0261,-0.4561 0.0707,-1.3317 -0.1713,-1.662 -0.065,0.3435 0.0327,0.7525 -0.0242,1.1859 -0.289,2.1995 -1.0048,4.0329 -3.3189,4.9832l-0.0228 -0.7796c0.0218,-0.1883 0.1818,-0.5318 0.015,-0.5704z"/>
   <path id="_339505128" class="fil4" d="M10.93 17.0508c0.0675,1.0922 0.5263,2.6309 1.2413,3.5346 0.5001,0.6321 0.8447,0.6525 0.5677,0.7486 0.4398,0.4771 1.8523,0.7162 2.5131,0.6696 -0.4317,-0.1233 -1.7154,-0.3589 -1.9523,-0.6723l1.7092 0.2023c-0.0888,-0.8608 -0.2937,-1.762 -0.0491,-2.6123 0.0833,-0.2897 0.1841,-0.4601 0.2124,-0.7777l-0.5897 -0.4938 0.0214 0.0837c-0.2862,0.6252 -0.2372,1.4975 -0.3102,2.1813l-2.1618 -1.0194c-0.6139,-0.4219 -1.0627,-1.9315 -1.1773,-2.0722l-0.0247 0.2276z"/>
   <path id="_339505512" class="fil4" d="M26.0698 12.5695l-0.2786 0.1207c0.5704,0.8272 0.2331,0.3339 1.8683,0.8338 0.8547,0.2613 0.6286,0.1802 1.4463,0.5452 -0.1439,-1.4761 -0.565,-3.2332 -1.0236,-4.6169 -0.2156,-0.6503 -1.2241,-3.7937 -1.6373,-4.0737 0.031,0.2788 0.4689,1.4319 0.5788,1.7834 0.6034,1.9308 0.8532,3.9722 0.9479,5.983l-1.9693 -0.4031 0.0675 -0.1724z"/>
   <path id="_339505056" class="fil4" d="M35.7053 20.4815c0.4848,-0.3994 0.9463,-2.0494 1.0448,-2.6503 0.0857,-0.5224 0.1731,-1.0794 0.2698,-1.5996 0.0839,-0.4512 0.2856,-1.0888 0.3224,-1.5379 -0.2595,0.1321 -0.1479,0.0989 -0.2544,0.4383 -0.3564,1.1353 -0.5572,2.3051 -1.088,3.0653 -1.0648,1.5247 -1.9293,1.4939 -2.79,1.8745l-0.5086 0.0511c-0.0202,0.2812 -0.0375,0.5637 -0.0893,0.8417 -0.042,0.226 -0.1356,0.4077 -0.1566,0.6278l1.6257 -0.1838 -1.9002 0.601c1.1608,-0.2052 2.971,-0.2533 3.5244,-1.5281z"/>
   <path id="_339505464" class="fil4" d="M18.9721 13.8227c0.3655,-0.0047 1.0736,-0.2956 1.4827,-0.4016 0.4124,-0.1068 1.183,-0.1816 1.5123,-0.2958l0.0225 -0.5044c-0.3774,0.2163 -1.207,0.3081 -1.6946,0.4535 -0.2695,0.0804 -0.477,0.1614 -0.7296,0.2859 -0.4012,0.1979 -0.3569,0.1339 -0.5933,0.4624z"/>
   <path id="_339505008" class="fil5" d="M1.8319 6.7815c0.1925,0.3194 0.328,0.2835 0.5109,0.7135l-0.1064 0.2884c0.1783,-0.0553 0.057,-0.0998 0.1983,-0.0232 -1.2273,1.4324 -0.9491,0.7572 -1.1079,2.811l-0.244 0.1028c0.3579,0.151 0.6751,0.2513 0.8876,0.5187l-0.8456 0.3229 0.3817 2.7967c0.191,1.1581 0.7127,1.9981 0.6857,2.3849 1.0364,-0.7762 1.8715,-3.4263 1.9648,-4.8374l0.0881 -2.2115c0.4247,-0.4818 0.5949,-0.5586 0.8186,-1.2456 0.1273,-0.3908 0.3167,-1.464 0.2798,-1.8139 0.034,-0.3108 0.0132,-0.1183 -0.0744,-0.205l0.0056 0.2948c-0.3779,-0.7488 -1.0355,-2.2216 -1.7258,-2.6846l-0.9251 1.3462c-0.4303,0.7192 -0.5559,1.4763 -0.7919,1.4413z"/>
   <path id="_339504336" class="fil5" d="M42.3172 7.187l1.1239 2.4568c0.1232,0.5292 -0.3206,4.8048 2.0364,6.5782 0.1781,0.134 0.2017,0.0663 0.3933,0.2384 0.2909,-0.4867 -0.2766,-0.9983 -0.5294,-1.5449l-0.3466 -1.9561 1.5782 1.1004 0.2089 -2.466 -1.1423 -0.4668 0.9112 -0.4869c0.0366,-1.0274 -0.448,-2.8213 -0.8042,-3.8025 -0.3115,-0.8582 -0.8243,-2.0587 -1.5258,-2.6966 -0.0938,-0.0853 -0.0582,-0.0443 -0.0655,-0.0949l-1.7472 3.235 -0.0909 -0.0941z"/>
   <path id="_339504480" class="fil6" d="M36.6853 21.8328c0.1204,0.2848 -0.0203,0.1272 0.79,0.1225l2.7004 0.0248c0.0601,-0.0683 0.1409,-0.1146 0.2076,-0.1694 0.2518,-0.4202 -0.0066,-0.6496 0.1158,-0.9907l1.244 -0.3423c0.9194,-0.2612 2.6325,-1.2132 2.8365,-1.7195l0.147 -1.4913 0.4222 0.5533 0.722 -1.3598c-0.1916,-0.1721 -0.2152,-0.1044 -0.3933,-0.2384 -2.357,-1.7734 -1.9132,-6.049 -2.0364,-6.5782l-1.1239 -2.4568c-0.036,-0.5786 0.0442,-0.6498 0.1216,-1.1683 -0.6835,1.1267 -0.5113,3.6342 -0.3594,4.9322 0.1993,1.7035 0.358,3.4135 -0.0665,5.1084 -0.6132,2.4484 -2.8143,5.2417 -5.3276,5.7735z"/>
   <path id="_339504216" class="fil6" d="M2.1922 16.6972c-0.0743,0.2058 -0.0518,0.1558 -0.2012,0.2635l0.4961 0.932c0.3012,-0.0729 0.4182,-0.2801 0.6505,-0.4839l0.4067 0.2613 0.0058 0.1501c0.1458,0.0753 -0.0436,0.6803 -0.0647,0.8926l0.4508 0.6548 -0.1358 0.0105c0.2215,0.3512 1.0904,0.7404 1.4942,0.9017 0.4569,0.1826 1.5188,0.3631 1.7829,0.5624 0.0317,0.4408 -0.1635,0.4106 0.0493,0.9841l0.1536 0.2073c0.304,-0.136 1.3762,-0.0374 1.7962,-0.038 0.3207,-0.0004 0.6911,-0.053 0.9673,-0.0459 0.1313,0.0034 0.554,0.0685 0.6944,0.0327 0.2733,-0.0695 0.0834,0.0201 0.2061,-0.1355 -2.322,-0.4757 -4.5891,-3.1969 -5.2299,-5.4573 -0.4094,-1.4439 -0.3966,-3.502 -0.2099,-4.9978 0.1239,-0.9934 0.3565,-4.0366 -0.1611,-4.803 0.0369,0.3499 -0.1525,1.4231 -0.2798,1.8139 -0.2237,0.687 -0.3939,0.7638 -0.8186,1.2456l-0.0881 2.2115c-0.0933,1.4111 -0.9284,4.0612 -1.9648,4.8374z"/>
   <path id="_339504456" class="fil7" d="M42.4388 6.0187c-0.0774,0.5185 -0.1576,0.5897 -0.1216,1.1683l0.0909 0.0941 1.7472 -3.235c0.0073,0.0506 -0.0283,0.0096 0.0655,0.0949 0.7015,0.6379 1.2143,1.8384 1.5258,2.6966 0.3562,0.9812 0.8408,2.7751 0.8042,3.8025l0.2211 -0.0516c0.1577,-0.8652 -0.5045,-3.1425 -0.823,-4.0186l-1.7747 -3.1963c-0.6337,0.507 -1.4482,1.847 -1.7354,2.6451z"/>
   <path id="_339504792" class="fil7" d="M1.0828 10.674l0.244 -0.1028c0.1588,-2.0538 -0.1194,-1.3786 1.1079,-2.811 -0.1413,-0.0766 -0.02,-0.0321 -0.1983,0.0232l-1.1019 0.6836 -0.2454 2.103 0.1937 0.104z"/>
   <path id="_339504744" class="fil8" d="M18.9379 13.8108l0.0342 0.0119c0.2364,-0.3285 0.1921,-0.2645 0.5933,-0.4624 0.2526,-0.1245 0.4601,-0.2055 0.7296,-0.2859 0.4876,-0.1454 1.3172,-0.2372 1.6946,-0.4535 0.3812,-1.4298 2.2483,-1.7855 3.6505,-2.2677l-1.2793 1.6952 1.8849 0.342c-0.0894,0.1927 0.0623,0.0987 -0.1759,0.1791l-0.0675 0.1724 1.9693 0.4031c-0.0947,-2.0108 -0.3445,-4.0522 -0.9479,-5.983 -0.1099,-0.3515 -0.5478,-1.5046 -0.5788,-1.7834 -0.0558,-0.6304 -1.9042,-3.4958 -2.4439,-3.9509 -0.0475,0.2068 -1.4503,2.3388 -1.6725,2.6751 -0.5874,0.8889 -1.0538,1.8913 -1.4811,2.8717 -0.9541,2.1892 -1.3488,4.5277 -1.9095,6.8363z"/>
   <path id="_339504096" class="fil8" d="M20.3322 14.5795c-0.0571,0.1776 -0.052,-0.0626 -0.2985,-0.2379l0.0464 0.2866 -0.33 0.0813c0.0434,0.0627 0.1262,0.1643 0.1502,0.2312 0.1118,0.3121 0.0165,0.2303 -0.061,0.2981l0.0702 0.1896 -0.6746 -0.1537c-0.5619,-0.0706 -0.5801,0.2843 -0.7092,-0.0656 -0.2838,0.1518 -0.6054,0.3371 -0.7386,0.6161 0.7077,-0.1432 0.8523,-0.2188 1.4631,0.2338 0.212,0.1571 0.7017,0.8547 0.615,1.0999 0.1911,0.8869 0.5592,2.5426 0.2695,3.4104 -0.3914,1.1729 -1.6186,1.127 -2.6581,1.0185 0.3318,0.5406 3.8504,0.4686 4.6082,0.4416 -0.0893,-0.2748 -0.531,-0.4444 -0.7435,-0.6618 -0.2499,-0.2556 -0.5509,-0.5622 -0.563,-0.9255 -0.0801,-0.4862 -1.0157,-1.4885 -0.2954,-3.1187 0.352,-0.7965 1.2633,-1.6311 2.1292,-1.8694 1.61,-0.443 3.357,0.2997 4.0357,1.7019 0.3184,0.6577 0.3296,0.9593 0.3217,1.6765 0.1232,-0.2708 0.0791,-0.6937 0.1543,-1.0131 0.0781,-0.3316 0.1718,-0.5994 0.2684,-0.9181l-0.0547 -0.1322c0.703,-0.9995 0.2953,-0.7756 2.0468,-1.1162 -0.1027,-0.2069 -0.4983,-0.4606 -0.7592,-0.5531l-1.196 0.0835 -0.0296 -0.3779c-0.1952,0.0866 -0.2015,0.082 -0.3222,0.2753 -0.0758,-0.3838 -0.0061,-0.3697 0.1274,-0.6775l-0.2906 0.1403 -1.3917 -0.3975c-0.7754,-0.1923 -1.4957,-0.072 -1.6117,-0.2329l-0.1415 0.059 0.0061 -0.0783c-0.1804,-0.1628 -0.1081,0.0543 -0.119,-0.2141 -0.0001,-0.0017 0.074,-0.1795 0.0756,-0.1839l-0.196 0.0004c0.0108,-0.5695 0.6968,-0.7165 0.8827,-0.991 -0.2834,-0.0352 -0.4745,-0.0466 -0.7064,0.1037l0.1953 0.0431c-0.3909,0.4687 -0.6855,0.6925 -0.9699,1.2678l0.0511 -0.522c-0.4473,-0.2438 0.5511,-1.3617 0.6708,-1.6443 -0.971,0.4116 -1.1066,1.2106 -0.9827,2.1768 -0.3942,0.0708 -0.8449,0.1615 -1.2396,0.2734 -0.3159,0.0897 -0.8691,0.3922 -1.105,0.3759z"/>
   <path id="_339503592" class="fil8" d="M6.3829 13.1415c0.1899,0.1754 0.1787,0.4058 0.2296,0.6936 0.0864,0.4894 0.6045,1.7136 0.8461,1.9232l2.3 1.3547c0.0679,-0.5461 -0.1749,-1.2023 -0.3558,-1.7149 -0.1582,-0.4479 -0.5154,-1.2269 -0.5632,-1.6315 -0.0027,-0.0655 -0.9887,-2.6967 -1.1134,-3.0545 -0.1747,-0.501 -1.0159,-2.6017 -1.2756,-2.9143 0.4079,1.9371 0.0118,3.4267 -0.0677,5.3437z"/>
   <path id="_339503568" class="fil8" d="M38.0317 16.1231c0.1668,0.0386 0.0068,0.3821 -0.0149,0.5704l0.0227 0.7796c2.3141,-0.9502 3.0299,-2.7837 3.3189,-4.9833 0.0569,-0.4332 -0.0408,-0.8423 0.0242,-1.1858 0.0615,-0.3799 -0.0617,-1.2941 -0.0886,-1.7337 -0.0395,-0.6442 0.0359,-1.2251 0.0658,-1.858 -0.2623,0.2647 -0.5619,1.8211 -0.691,2.2822 -0.5505,1.9666 -0.6983,2.4043 -1.6729,4.217 -0.3357,0.6243 -0.6026,1.294 -0.9642,1.9116z"/>
   <path id="_339503472" class="fil8" d="M32.4977 18.6748c0.0807,0.4981 0.2161,0.9158 0.2036,1.4481l0.5086 -0.0511c0.8606,-0.3806 1.7252,-0.3498 2.79,-1.8746 0.5308,-0.7601 0.7316,-1.9299 1.088,-3.0652 0.1065,-0.3394 -0.0051,-0.3062 0.2544,-0.4383l0.0146 -0.0885c-1.1045,0.4203 -3.8561,3.2299 -4.8592,4.0696z"/>
   <path id="_339503616" class="fil8" d="M10.93 17.0508l0.0247 -0.2276c0.1146,0.1407 0.5634,1.6503 1.1773,2.0722l2.1618 1.0194c0.073,-0.6838 0.024,-1.5561 0.3102,-2.1813 -0.3117,-0.0294 -3.7537,-2.7252 -4.2947,-3.1286 0.1177,0.4027 0.2561,0.776 0.3554,1.1945 0.0779,0.3287 0.1664,0.9935 0.2653,1.2514z"/>
   <path id="_339503952" class="fil8" d="M22.7114 31.2742c0.2907,0.144 0.1439,0.1832 0.4983,0.6586l0.5139 0.645c0.3355,-0.5035 0.6508,-0.833 0.9077,-1.3683 0.2246,-0.468 0.5352,-1.2503 0.5514,-1.7656l-2.9847 0.0286c0.0652,0.7663 0.3564,1.1546 0.5134,1.8017z"/>
   <path id="_339503496" class="fil8" d="M26.969 19.0936l-0.4427 1.1991c-0.0924,0.8173 -0.9275,1.3047 -1.5392,1.7689l2.331 -0.0251c1.4055,-0.0414 3.6436,-0.3613 4.2487,-1.8403 0.2129,-0.5202 0.0716,-0.6319 0.1414,-1.0944l-0.0882 -0.3706c-0.0031,1.5288 -0.8104,2.4314 -2.232,2.8102 -0.5918,0.1577 -1.552,0.1006 -2.0022,-0.3516 -0.5093,-0.5117 -0.4248,-1.4267 -0.4168,-2.0962z"/>
   <path id="_36360056" class="fil9" d="M3.8004 19.3781l0.1358 -0.0105 -0.4508 -0.6548c0.0211,-0.2123 0.2105,-0.8173 0.0647,-0.8926l-0.4054 1.0201 0.6557 0.5378z"/>
   <path id="_36349544" class="fil10" d="M27.249 31.9461l-0.0313 -2.4948 7.9811 0.0288c-0.3643,0.6527 -6.4414,2.7929 -7.9498,2.466zm-14.8541 -2.4669c0.7895,-0.1384 6.6943,-0.033 7.9793,-0.0273l-0.0397 2.5117c-0.5228,0.1978 -3.5804,-0.6164 -4.2678,-0.8348 -0.6152,-0.1956 -3.3731,-1.2278 -3.6718,-1.6496zm26.6824 -3.1385c-0.2808,0.6625 -0.7675,0.516 -1.3947,0.52l-28.6702 -0.0205c-0.2118,-0.1771 -0.4582,-0.4003 -0.5642,-0.6399 -0.1826,-0.0676 -0.3907,-0.338 -0.478,-0.5336l31.7246 0.019c-0.085,0.2368 -0.379,0.5824 -0.6175,0.655zm-32.7494 -2.8755c1.4268,-0.0585 2.9645,0.0036 4.407,-0.0034 1.4738,-0.0072 2.9484,0.0026 4.4222,0.0013 2.8948,-0.0024 5.7438,0.1909 8.6371,0.1945 2.8975,0.0036 5.7435,-0.2009 8.637,-0.2011l8.8529 0.0328 -0.7792 1.0729 -33.3579 0.0023c-0.2038,-0.1731 -0.7445,-0.8555 -0.8191,-1.0993zm31.029 -8.86l-0.0146 0.0885c-0.0368,0.4491 -0.2385,1.0868 -0.3224,1.5379 -0.0967,0.5202 -0.1841,1.0772 -0.2697,1.5996 -0.0986,0.601 -0.5601,2.2509 -1.0449,2.6502 -0.5534,1.2749 -2.3636,1.323 -3.5244,1.5282l1.9002 -0.601 -1.6257 0.1838c0.021,-0.2201 0.1146,-0.4018 0.1567,-0.6278 0.0517,-0.278 0.069,-0.5605 0.0892,-0.8417 0.0125,-0.5323 -0.1229,-0.95 -0.2036,-1.4481l-0.1725 -0.454c0.3086,-0.5133 1.9023,-1.8448 2.3874,-2.2813 0.7973,-0.7174 1.7829,-1.3479 2.801,-1.7611l-0.1567 0.4268zm-22.7743 3.0446l0.5897 0.4938c-0.0283,0.3176 -0.1291,0.488 -0.2124,0.7777 -0.2446,0.8503 -0.0397,1.7515 0.0491,2.6123l-1.7092 -0.2023c0.2369,0.3134 1.5206,0.549 1.9523,0.6723 -0.6608,0.0466 -2.0733,-0.1925 -2.5131,-0.6696 -1.0697,-1.0224 -1.4298,-1.3981 -1.7978,-3.1332 -0.1469,-0.6931 -0.2457,-1.393 -0.3869,-2.0842 -0.2019,-0.9881 -0.2021,-0.9957 -0.4945,-1.9527 0.9838,0.2162 4.0514,2.752 4.5228,3.4859zm9.0769 -5.8964c-0.1197,0.2826 -1.1181,1.4005 -0.6708,1.6443 0.0708,-0.36 0.4055,-0.6311 0.7235,-0.7889 0.2319,-0.1503 0.423,-0.1389 0.7064,-0.1037 -0.1859,0.2745 -0.8719,0.4215 -0.8827,0.991l0.196 -0.0004c0.3772,-0.3915 1.0113,-0.556 1.5351,-0.4504l-0.4254 0.1439 0.0035 0.2194c-0.1039,0.0408 -0.1813,0.1087 -0.3113,0.1837l0.1639 0.0548c0.7492,0.0942 1.9442,0.0441 2.6067,0.5122l-0.0997 0.2438c0.3737,-0.1714 0.4033,-0.3622 0.9262,-0.1812 0.2737,0.0948 0.5879,0.2748 0.7431,0.4982 -0.3828,-0.3041 -1.1029,-0.2966 -1.4745,0.0852l0.0296 0.3779 1.196 -0.0835c0.2609,0.0925 0.6565,0.3462 0.7592,0.5531 -1.7515,0.3406 -1.3438,0.1167 -2.0468,1.1162l0.0547 0.1322c0.3981,-1.1612 1.6754,-1.3451 2.6157,-0.6835 0.6359,0.4475 1.4593,1.7004 1.6121,2.5135l0.0882 0.3706c0.4339,0.5028 0.3852,1.6141 0.1102,2.2423 -0.2902,0.6632 -0.8964,0.9848 -1.5937,1.1009 -2.5412,0.4233 -7.7167,0.3743 -10.3692,0.246 -1.1876,-0.0574 -3.7492,0.0065 -4.1687,-1.3153 -0.2942,-0.5069 -0.3579,-1.7178 -0.0391,-2.184 0.2612,-1.8727 2.9265,-5.2296 4.2175,-2.0328 0.0867,-0.2452 -0.403,-0.9428 -0.615,-1.0999 -0.6108,-0.4526 -0.7554,-0.377 -1.4631,-0.2338 0.1332,-0.279 0.4548,-0.4643 0.7386,-0.6161 0.6347,-0.1877 0.6897,-0.3222 1.3136,0.0297 0.0775,-0.0678 0.1728,0.014 0.061,-0.2981 -0.024,-0.0669 -0.1068,-0.1685 -0.1502,-0.2312 -0.4221,-0.321 -0.6256,-0.162 -1.0711,-0.1018 0.2443,-0.3431 1.0157,-0.6634 1.3547,-0.2661 0.2465,0.1753 0.2414,0.4155 0.2985,0.2379 -0.0747,-0.2483 -0.1209,-0.1526 -0.1349,-0.4335l2.2792 -0.4444 1.9671 -2.4315 -0.7841 0.4833zm-1.6699 0.8675l-0.0225 0.5044c-0.3293,0.1142 -1.0999,0.189 -1.5123,0.2958 -0.4091,0.106 -1.1172,0.3969 -1.4827,0.4016l-0.0342 -0.0119 -0.3771 0.274 0.7134 -3.8484c0.38,-1.6974 1.6903,-4.8654 2.6284,-6.4122 0.3758,-0.6196 1.3936,-2.261 1.8835,-2.6295l0.2149 0.233c0.5397,0.4551 2.3881,3.3205 2.4439,3.9509 0.4132,0.28 1.4217,3.4234 1.6373,4.0737 0.4586,1.3837 0.8797,3.1408 1.0236,4.6169 -0.8177,-0.365 -0.5916,-0.2839 -1.4463,-0.5452 -1.6352,-0.4999 -1.2979,-0.0066 -1.8683,-0.8338l0.2786 -0.1207c0.2382,-0.0804 0.0865,0.0136 0.1759,-0.1791l-1.8849 -0.342 1.2793 -1.6952c-1.4022,0.4822 -3.2693,0.8379 -3.6505,2.2677zm20.4492 -6.6022c0.2872,-0.7981 1.1017,-2.1381 1.7354,-2.6451l1.7747 3.1963c0.3185,0.8761 0.9807,3.1534 0.823,4.0186l-0.2211 0.0516 -0.9112 0.4869 1.1423 0.4668 -0.2089 2.466 -1.5782 -1.1004 0.3466 1.9561c0.2528,0.5466 0.8203,1.0582 0.5294,1.5449l-0.722 1.3598 -0.4222 -0.5533 -0.147 1.4913c-0.204,0.5063 -1.9171,1.4583 -2.8365,1.7195l-1.244 0.3423c-0.1224,0.3411 0.136,0.5705 -0.1158,0.9907l-0.2252 0.6745c-0.7045,0.162 -5.082,-0.0128 -6.1114,-0.0417 0.7896,-0.4985 1.6937,-0.4075 2.6386,-0.6107 2.5133,-0.5318 4.7144,-3.3251 5.3276,-5.7735 0.4245,-1.6949 0.2658,-3.4049 0.0665,-5.1084 -0.1519,-1.298 -0.3241,-3.8055 0.3594,-4.9322zm-1.0562 5.2853c0.242,0.3303 0.1452,1.2059 0.1713,1.662 0.0322,0.5632 0.0293,1.2379 -0.0176,1.7997 -0.0744,0.8906 -0.4142,2.0054 -0.8319,2.7853 -0.3416,0.8095 -1.2053,1.7491 -1.8391,2.3328l-2.8705 1.3301c0.1226,-0.3234 0.1546,-0.2588 0.3379,-0.4701 0.2679,-0.3088 0.5641,-1.3969 0.8051,-1.6751 -0.011,-0.236 0.2089,-0.9594 0.2632,-1.2701 0.0612,-0.35 0.0979,-1.0551 0.293,-1.2942 0.12,-1.2238 1.2674,-3.3565 1.7519,-4.6111 0.2981,-0.7717 1.4165,-4.012 1.8976,-4.4135l0.0163 0.2325c-0.0299,0.6329 -0.1053,1.2138 -0.0658,1.858 0.0269,0.4396 0.1501,1.3538 0.0886,1.7337zm-34.932 -3.5062c0.2597,0.3126 1.1009,2.4133 1.2756,2.9143 0.1247,0.3578 1.1107,2.989 1.1134,3.0545 0.4167,0.3392 0.9052,1.7318 1.0458,2.3113 0.1052,0.4334 0.5555,2.4455 0.5414,2.7611 0.2004,0.2014 0.1658,0.3742 0.2701,0.6652 0.2583,0.7209 0.6017,1.096 1.0653,1.753 -1.3583,-0.0314 -3.3914,-1.3716 -3.7357,-2.1402 -0.1907,-0.1774 -0.2577,-0.2058 -0.3484,-0.4532 -1.3474,-1.8207 -1.6538,-3.1031 -1.6009,-5.4214 0.0396,-1.7351 0.3694,-3.362 0.1643,-5.0432 -0.0541,-0.4428 -0.2253,-1.0634 -0.2459,-1.4407l0.455 1.0393zm-1.1815 -1.414c0.0876,0.0867 0.1084,-0.1058 0.0744,0.205 0.5176,0.7664 0.285,3.8096 0.1611,4.803 -0.1867,1.4958 -0.1995,3.5539 0.2099,4.9978 0.6408,2.2604 2.9079,4.9816 5.2299,5.4573 0.5945,0.1145 1.1415,0.1046 1.6473,0.1967 0.14,0.0255 1.2456,0.414 1.3107,0.477l-6.5688 -0.0076 -0.2068 -0.6867c-0.2128,-0.5735 -0.0176,-0.5433 -0.0493,-0.9841 -0.2641,-0.1993 -1.326,-0.3798 -1.7829,-0.5624 -0.4038,-0.1613 -1.2727,-0.5505 -1.4942,-0.9017l-0.6557 -0.5378 0.4054 -1.0201 -0.0058 -0.1501 -0.4067 -0.2613c-0.2323,0.2038 -0.3493,0.411 -0.6505,0.4839l-0.4961 -0.932c-0.4131,-0.8364 -0.6383,-1.4921 -0.8489,-2.4138 -0.1487,-0.6507 -0.4305,-2.4197 -0.2651,-3.0038l0.2478 -0.0275 0.8456 -0.3229c-0.2125,-0.2674 -0.5297,-0.3677 -0.8876,-0.5187l-0.1937 -0.104 0.2454 -2.103 1.1019 -0.6836 0.1064 -0.2884c-0.1829,-0.43 -0.3184,-0.3941 -0.5109,-0.7135l-0.18 -0.057c-0.0503,-0.5324 1.3601,-3.0098 1.8344,-3.3576 0.5385,0.6004 1.7908,2.1602 1.7828,3.0169zm2.2404 1.4821c-0.1522,-0.1447 -1.494,-2.5748 -1.8135,-3.0574l-2.3544 -2.5368c-0.8266,0.4553 -1.8866,2.5098 -2.2686,3.4456l-1.054 4.7806 0.8406 0.6007 -0.8461 0.4819c-0.0661,1.0718 0.1443,2.1338 0.2892,3.1816 0.2589,0.7478 0.3587,1.4259 0.7,2.2001 1.2158,2.7583 2.2438,3.4184 4.575,4.5244l-1.1628 0.0212c0.0006,0.9351 1.8692,3.6192 2.4714,4.427 0.8587,1.1521 2.3348,2.636 3.5392,3.4394 1.5991,1.0667 2.74,1.7384 4.5509,2.4265l5.7597 1.2564c0.2046,-0.9776 -0.0923,-2.6979 0.0544,-3.7806 -2.3959,0.0876 -5.3879,-0.0029 -7.9136,0.0103 -0.5299,0.0027 -0.6897,0.1097 -1.1359,-0.1883 -0.2668,-0.1782 -0.6434,-0.3611 -0.7923,-0.6229 -0.2258,-0.0458 -0.5631,-0.2842 -0.6798,-0.4901l27.1087 0.0115c-0.2057,0.1457 -0.3914,0.4217 -0.6785,0.477 -0.1489,0.2406 -0.5116,0.4071 -0.769,0.5655 -0.5405,0.3327 -0.431,0.2291 -1.0805,0.2336l-8.0491 -0.0037 0.0277 3.7745c4.8538,-0.1071 10.999,-3.0607 13.9125,-7.0717 1.6844,-2.3191 1.3367,-1.8505 2.5178,-4.4686l-1.3014 -0.0408c0.5284,-0.3851 3.1212,-0.6516 4.6699,-4.4592 0.1397,-0.3435 0.6979,-2.2324 0.7045,-2.2415l0.3276 -3.2097 -0.965 -0.4862 0.9405 -0.5882c0.0207,-1.3777 -0.5601,-3.4652 -1.0697,-4.7364l-2.3182 -3.4841c-0.7271,0.2847 -1.1697,1.2398 -1.688,1.5938 -0.0346,0.2143 -1.0804,1.7011 -1.2958,2.0558 -0.8632,1.4212 -1.6254,3.013 -2.2022,4.575 -1.0781,2.9193 -0.2369,2.2139 -1.8361,2.8582 -1.5484,0.6238 -2.7799,1.7031 -3.9716,2.7268 -0.5042,0.4332 -1.1908,1.2096 -1.3055,1.2902l-0.8915 -1.2886c-0.3093,-0.4093 -0.7796,-0.7829 -1.0123,-1.1239l-0.2907 -2.4149c-0.4956,-3.189 -1.935,-6.8361 -3.5675,-9.6234 -0.4177,-0.7134 -1.719,-2.5702 -2.3418,-2.9064 -2.5393,3.0707 -2.4872,2.6943 -4.1736,6.4286 -1.1101,2.4583 -1.9131,5.8094 -2.1455,8.5314l-1.0699 1.1006c-0.2574,0.3161 -0.6943,1.0615 -0.8743,1.2487 -1.1784,-1.1687 -1.4063,-1.4732 -2.7843,-2.5353 -1.0431,-0.8039 -2.1922,-1.4265 -3.4365,-1.8132l-0.872 -2.651c-0.1629,-0.4474 -0.9648,-2.1744 -0.9781,-2.444z"/>
   <path id="_36347600" class="fil10" d="M24.7389 15.9078c0.2988,0.097 0.6903,0.3556 0.8821,0.5846 0.627,0.3265 1.1588,1.6772 0.8599,2.3572l-0.1665 -0.2115c-1.0121,1.0061 -1.3083,1.5927 -2.8641,1.5975 -2.0317,0.0063 -2.3345,-1.5855 -2.7616,-1.609l1.1299 -2.387c0.4219,-0.2508 0.8861,-0.4131 1.3729,-0.4795 0.7148,-0.0975 0.9525,0.0991 1.5474,0.1477zm-3.9606 4.5343c0.5086,0.3473 0.8357,1.2627 2.3276,1.4421 1.0681,0.1284 2.7955,-0.3853 2.8142,-0.9825 0.1855,0.0087 0.1842,-0.0825 0.3001,-0.2612 0.1434,-0.2215 0.0878,-0.2389 0.3061,-0.3478l0.4427 -1.1991 0.0005 -0.2612c0.0079,-0.7172 -0.0033,-1.0188 -0.3217,-1.6766 -0.6787,-1.4021 -2.4256,-2.1448 -4.0357,-1.7018 -0.8659,0.2382 -1.7772,1.0729 -2.1292,1.8694 -0.7203,1.6302 0.2153,2.6326 0.2954,3.1187z"/>
   <path id="_36347672" class="fil10" d="M28.9986 17.3031c0.655,-0.2342 1.1138,0.7424 0.4764,1.0643 -0.7707,0.3893 -1.2633,-0.7829 -0.4764,-1.0643zm1.9632 2.158c0.4123,-1.8093 -2.3409,-4.1783 -3.1813,-1.1259 -1.028,3.7345 2.8038,2.7823 3.1813,1.1259z"/>
   <path id="_36347288" class="fil10" d="M17.8366 17.2904c0.7308,-0.2482 1.0197,0.9503 0.2826,1.1337 -0.7382,0.1837 -1.0314,-0.8794 -0.2826,-1.1337zm-1.5735 2.1707c0.1445,0.9666 1.3692,1.5181 2.2857,1.415 1.298,-0.1461 1.1246,-1.4369 0.8714,-2.4193 -0.8087,-3.1389 -3.4412,-0.8969 -3.1571,1.0043z"/>
   <path id="_36347264" class="fil10" d="M25.1827 29.4439l0.2338 0.0022c0.1336,0.8257 -1.0447,3.0736 -1.6185,3.6903 -0.4148,-0.4087 -0.8991,-1.2796 -1.0866,-1.8622 -0.157,-0.6471 -0.4482,-1.0354 -0.5134,-1.8017l2.9847 -0.0286zm-1.3862 4.5061c0.7716,-0.7372 2.0932,-3.6353 1.9224,-4.6674l-3.8408 0.0099c-0.0577,1.3271 1.0977,3.6131 1.9184,4.6575z"/>
   <path id="_36347768" class="fil11" d="M30.9618 19.4611c-0.3775,1.6564 -4.2093,2.6086 -3.1813,-1.1259 0.8404,-3.0524 3.5936,-0.6834 3.1813,1.1259zm-3.5696 -2.5599c-0.0966,0.3187 -0.1903,0.5865 -0.2684,0.9181 -0.0752,0.3194 -0.0311,0.7423 -0.1543,1.0131l-0.0005 0.2612c-0.008,0.6695 -0.0925,1.5845 0.4168,2.0962 0.4502,0.4522 1.4104,0.5093 2.0022,0.3516 1.4216,-0.3788 2.2289,-1.2814 2.232,-2.8102 -0.1528,-0.8131 -0.9762,-2.066 -1.6121,-2.5135 -0.9403,-0.6616 -2.2176,-0.4777 -2.6157,0.6835z"/>
   <path id="_36347312" class="fil11" d="M16.2631 19.4611c-0.2841,-1.9012 2.3484,-4.1432 3.1571,-1.0043 0.2532,0.9824 0.4266,2.2732 -0.8714,2.4193 -0.9165,0.1031 -2.1412,-0.4484 -2.2857,-1.415zm-0.6154 -0.2694c-0.0472,0.473 0.0167,0.8582 0.2439,1.2641 0.2075,0.3709 0.5539,0.526 0.7373,0.8285l0.8477 0.3035c1.0395,0.1085 2.2667,0.1544 2.6581,-1.0185 0.2897,-0.8678 -0.0784,-2.5235 -0.2695,-3.4104 -1.291,-3.1968 -3.9563,0.1601 -4.2175,2.0328z"/>
   <path id="_36346688" class="fil11" d="M1.8319 6.7815c0.236,0.035 0.3616,-0.7221 0.7919,-1.4413l0.9251 -1.3462c0.6903,0.463 1.3479,1.9358 1.7258,2.6846l-0.0056 -0.2948c0.008,-0.8567 -1.2443,-2.4165 -1.7828,-3.0169 -0.4743,0.3478 -1.8847,2.8252 -1.8344,3.3576l0.18 0.057z"/>
   <path id="_36347000" class="fil11" d="M1.991 16.9607c0.1494,-0.1077 0.1269,-0.0577 0.2012,-0.2635 0.027,-0.3868 -0.4947,-1.2268 -0.6857,-2.3849l-0.3817 -2.7967 -0.2478 0.0275c-0.1654,0.5841 0.1164,2.3531 0.2651,3.0038 0.2106,0.9217 0.4358,1.5774 0.8489,2.4138z"/>
   <path id="_36347168" class="fil11" d="M28.9986 17.3031c-0.7869,0.2814 -0.2943,1.4536 0.4764,1.0643 0.6374,-0.3219 0.1786,-1.2985 -0.4764,-1.0643z"/>
   <path id="_36347024" class="fil11" d="M17.8366 17.2904c-0.7488,0.2543 -0.4556,1.3174 0.2826,1.1337 0.7371,-0.1834 0.4482,-1.3819 -0.2826,-1.1337z"/>
   <path id="_36346856" class="fil12" d="M20.6887 18.6266c0.427,0.0235 0.7299,1.6153 2.7616,1.609 1.5558,-0.0048 1.852,-0.5914 2.8641,-1.5975l0.1665 0.2115c0.2989,-0.6801 -0.2329,-2.0307 -0.8598,-2.3572 -0.151,0.1281 -0.6973,-0.0065 -0.9281,-0.0233 -0.4309,-0.0312 -0.6878,-0.0164 -1.1051,0.0453 -0.1943,-0.0205 -0.2478,-0.0152 -0.4368,0.0068 -0.3521,0.0409 -0.0546,-0.0616 -0.3178,0.1068 -0.3609,0.2309 -0.2315,0.1036 -0.5981,0.1176l-0.5882 0.4866 -0.2292 -0.1131c-0.0076,-0.0222 -0.0325,-0.017 -0.0495,-0.0237 -0.3362,0.6853 -0.1746,0.3041 -0.4432,0.6713 -0.1737,0.2375 -0.2063,0.5693 -0.2364,0.8599z"/>
   <path id="_36346832" class="fil13" d="M20.6887 18.6266c0.0301,-0.2906 0.0626,-0.6224 0.2364,-0.8599 0.2685,-0.3671 0.1069,0.014 0.4432,-0.6713 0.017,0.0067 0.0419,0.0015 0.0495,0.0236l0.2292 0.1132 0.5882 -0.4867c0.3665,-0.0139 0.2372,0.1134 0.5981,-0.1175 0.2632,-0.1683 -0.0343,-0.0658 0.3178,-0.1068 0.189,-0.022 0.2425,-0.0273 0.4368,-0.0068 0.4172,-0.0617 0.6742,-0.0765 1.1051,-0.0453 0.2307,0.0168 0.7771,0.1514 0.928,0.0233 -0.1918,-0.229 -0.5833,-0.4876 -0.8821,-0.5846 -0.5949,-0.0486 -0.8326,-0.2452 -1.5474,-0.1477 -0.4868,0.0664 -0.951,0.2287 -1.3729,0.4795l-1.1299 2.387z"/>
   <path id="_36362648" class="fil14" d="M15.6868 21.3757c0.3205,0.1375 0.4309,0.3933 0.7416,0.4631l-0.1782 -0.2593c0.1741,-0.331 0.073,0.0225 0.3787,-0.2952 -0.1834,-0.3025 -0.5298,-0.4576 -0.7373,-0.8285 -0.2272,-0.4059 -0.2911,-0.7911 -0.2439,-1.2641 -0.3188,0.4662 -0.2551,1.6771 0.0391,2.184z"/>
   <path id="_36362144" class="fil15" d="M25.9201 20.9017c-0.1295,-0.5502 0.1533,-1.2251 0.2788,-1.7755 -0.218,0.0997 0.027,-0.0248 -0.1404,0.1051 -0.0096,0.0074 -0.0253,0.0218 -0.0357,0.0296 -0.2457,0.1852 0.0274,-0.0774 -0.1668,0.1154 -0.0919,0.0913 -0.6334,1.1418 -0.7184,1.3003 1.2252,0.1091 0.1374,0.1207 0.7825,0.2251z"/>
   <path id="_36361880" class="fil16" d="M18.5257 15.2091c0.1291,0.3499 0.1473,-0.005 0.7092,0.0656l0.6746 0.1537 -0.0702 -0.1896c-0.6239,-0.3519 -0.6789,-0.2174 -1.3136,-0.0297z"/>
   <path id="_36361856" class="fil17" d="M23.7753 13.8937l-0.0061 0.0783 0.1415 -0.059 0.787 -0.2659 -0.1639 -0.0548c0.13,-0.075 0.2074,-0.1429 0.3113,-0.1837l-0.0035 -0.2194c-0.4133,0.2132 -0.7362,0.3667 -1.0663,0.7045z"/>
  </g>
  <g id="_339515304">
   <path id="_562960608" class="fil0" d="M23.7319 13.4957c-0.0016,0.0044 -0.0757,0.1822 -0.0756,0.1839 0.0109,0.2684 -0.0614,0.0513 0.119,0.2141 0.3301,-0.3378 0.653,-0.4913 1.0663,-0.7045l0.4254 -0.1439c-0.5238,-0.1056 -1.1579,0.0589 -1.5351,0.4504z"/>
   <path id="_342185544" class="fil0" d="M22.9887 13.3977l-0.0511 0.522c0.2844,-0.5753 0.579,-0.7991 0.9699,-1.2678l-0.1953 -0.0431c-0.318,0.1578 -0.6527,0.4289 -0.7235,0.7889z"/>
   <path id="_36355040" class="fil1" d="M10.9444 21.8469c-0.1227,0.1556 0.0672,0.066 -0.2061,0.1355 -0.1404,0.0358 -0.5631,-0.0293 -0.6944,-0.0327 -0.2762,-0.0071 -0.6466,0.0455 -0.9673,0.0459 -0.42,0.0006 -1.4922,-0.098 -1.7962,0.038l-0.1536 -0.2073 0.2068 0.6867 6.5688 0.0076c-0.0651,-0.063 -1.1707,-0.4515 -1.3107,-0.477 -0.5058,-0.0921 -1.0528,-0.0822 -1.6473,-0.1967z"/>
   <path id="_36355328" class="fil1" d="M40.3833 21.8107c-0.0667,0.0548 -0.1475,0.1011 -0.2076,0.1694l-2.7004 -0.0248c-0.8103,0.0047 -0.6696,0.1623 -0.79,-0.1225 -0.9449,0.2032 -1.849,0.1122 -2.6386,0.6107 1.0294,0.0289 5.4069,0.2037 6.1114,0.0417l0.2252 -0.6745z"/>
   <path id="_36354992" class="fil2" d="M22.7114 31.2742c0.1875,0.5826 0.6718,1.4535 1.0866,1.8622 0.5738,-0.6167 1.7521,-2.8646 1.6185,-3.6903l-0.2338 -0.0022c-0.0162,0.5153 -0.3268,1.2976 -0.5514,1.7656 -0.2569,0.5353 -0.5722,0.8648 -0.9077,1.3683l-0.5139 -0.645c-0.3544,-0.4754 -0.2076,-0.5146 -0.4983,-0.6586z"/>
   <path id="_36355088" class="fil3" d="M18.9379 13.8108c0.5607,-2.3086 0.9554,-4.6471 1.9095,-6.8363 0.4273,-0.9804 0.8937,-1.9828 1.4811,-2.8717 0.2222,-0.3363 1.625,-2.4683 1.6725,-2.6751l-0.2149 -0.233c-0.4899,0.3685 -1.5077,2.0099 -1.8835,2.6295 -0.9381,1.5468 -2.2484,4.7148 -2.6284,6.4122l-0.7134 3.8484 0.3771 -0.274z"/>
   <path id="_36355544" class="fil3" d="M37.694 16.5044l0.0572 0.1284 0.2805 -0.5097c0.3616,-0.6176 0.6285,-1.2873 0.9642,-1.9116 0.9746,-1.8127 1.1224,-2.2504 1.6729,-4.217 0.1291,-0.4611 0.4287,-2.0175 0.691,-2.2822l-0.0163 -0.2325c-0.4811,0.4015 -1.5995,3.6418 -1.8976,4.4135 -0.4845,1.2546 -1.6319,3.3873 -1.7519,4.6111z"/>
   <path id="_36355448" class="fil3" d="M12.739 21.334c0.277,-0.0961 -0.0676,-0.1165 -0.5677,-0.7486 -0.715,-0.9037 -1.1738,-2.4424 -1.2413,-3.5346 -0.0989,-0.2579 -0.1874,-0.9227 -0.2653,-1.2514 -0.0993,-0.4185 -0.2377,-0.7918 -0.3554,-1.1945 0.541,0.4034 3.983,3.0992 4.2947,3.1286l-0.0214 -0.0837c-0.4714,-0.7339 -3.539,-3.2697 -4.5228,-3.4859 0.2924,0.957 0.2926,0.9646 0.4945,1.9527 0.1412,0.6912 0.24,1.3911 0.3869,2.0842 0.368,1.7351 0.7281,2.1108 1.7978,3.1332z"/>
   <path id="_36356240" class="fil3" d="M32.4977 18.6748c1.0031,-0.8397 3.7547,-3.6493 4.8592,-4.0696l0.1567 -0.4268c-1.0181,0.4132 -2.0037,1.0437 -2.801,1.7611 -0.4851,0.4365 -2.0788,1.768 -2.3874,2.2813l0.1725 0.454z"/>
   <path id="_36355952" class="fil3" d="M7.6781 18.6638c0.0628,-0.0361 -0.4494,-0.8501 -0.5276,-1.01 -0.1816,-0.3717 -0.3812,-0.8347 -0.4937,-1.225 -0.3296,-1.1427 -0.3052,-2.1102 -0.2739,-3.2873 0.0795,-1.917 0.4756,-3.4066 0.0677,-5.3437l-0.455 -1.0393c0.0206,0.3773 0.1918,0.9979 0.2459,1.4407 0.2051,1.6812 -0.1247,3.3081 -0.1643,5.0432 -0.0529,2.3183 0.2535,3.6007 1.6009,5.4214z"/>
   <path id="_36356408" class="fil3" d="M23.9107 13.913c0.116,0.1609 0.8363,0.0406 1.6117,0.2329l1.3917 0.3975 0.2906 -0.1403 0.0997 -0.2438c-0.6625,-0.4681 -1.8575,-0.418 -2.6067,-0.5122l-0.787 0.2659z"/>
   <path id="_36356120" class="fil3" d="M27.2047 14.4031c-0.1335,0.3078 -0.2032,0.2937 -0.1274,0.6775 0.1207,-0.1933 0.127,-0.1887 0.3222,-0.2753 0.3716,-0.3818 1.0917,-0.3893 1.4745,-0.0852 -0.1552,-0.2234 -0.4694,-0.4034 -0.7431,-0.4982 -0.5229,-0.181 -0.5525,0.0098 -0.9262,0.1812z"/>
   <path id="_36355712" class="fil3" d="M19.7501 14.7095l0.33 -0.0813 -0.0464 -0.2866c-0.339,-0.3973 -1.1104,-0.077 -1.3547,0.2661 0.4455,-0.0602 0.649,-0.2192 1.0711,0.1018z"/>
   <path id="_36356000" class="fil3" d="M20.3322 14.5795c0.2359,0.0163 0.7891,-0.2862 1.105,-0.3759 0.3947,-0.1119 0.8454,-0.2026 1.2396,-0.2734 -0.1239,-0.9662 0.0117,-1.7652 0.9827,-2.1768l0.7841 -0.4833 -1.9671 2.4315 -2.2792 0.4444c0.014,0.2809 0.0602,0.1852 0.1349,0.4335z"/>
   <path id="_36356648" class="fil4" d="M26.5263 20.2927c-0.2183,0.1089 -0.1627,0.1263 -0.3061,0.3477 -0.1159,0.1788 -0.1147,0.27 -0.3001,0.2613 -0.0187,0.5972 -1.7461,1.1109 -2.8142,0.9825 -1.4919,-0.1794 -1.819,-1.0948 -2.3276,-1.4421 0.0121,0.3633 0.3131,0.6699 0.563,0.9255 0.2125,0.2174 0.6542,0.387 0.7435,0.6618 -0.7578,0.027 -4.2764,0.099 -4.6082,-0.4416l-0.8477 -0.3035c-0.3057,0.3177 -0.2046,-0.0358 -0.3787,0.2952l0.1782 0.2593c-0.3107,-0.0698 -0.4211,-0.3256 -0.7416,-0.4631 0.4195,1.3218 2.9811,1.2579 4.1687,1.3153 2.6525,0.1283 7.828,0.1773 10.3692,-0.246 0.6973,-0.1161 1.3035,-0.4377 1.5937,-1.1009 0.275,-0.6282 0.3237,-1.7395 -0.1102,-2.2423 -0.0698,0.4625 0.0715,0.5742 -0.1414,1.0944 -0.6051,1.479 -2.8432,1.7989 -4.2487,1.8403l-2.331 0.0251c0.6117,-0.4642 1.4468,-0.9516 1.5392,-1.7689z"/>
   <path id="_36356936" class="fil4" d="M20.3742 29.4519c-1.285,-0.0057 -7.1898,-0.1111 -7.9793,0.0273 0.2987,0.4218 3.0566,1.454 3.6718,1.6496 0.6874,0.2184 3.745,1.0326 4.2678,0.8348l0.0397 -2.5117z"/>
   <path id="_36356576" class="fil4" d="M27.249 31.9461c1.5084,0.3269 7.5855,-1.8133 7.9498,-2.466l-7.9811 -0.0288 0.0313 2.4948z"/>
   <path id="_36357104" class="fil4" d="M7.6781 18.6638c0.0907,0.2474 0.1577,0.2758 0.3484,0.4532 0.3443,0.7686 2.3774,2.1088 3.7357,2.1402 -0.4636,-0.657 -0.807,-1.0321 -1.0653,-1.753 -0.1043,-0.291 -0.0697,-0.4638 -0.2701,-0.6652 0.0141,-0.3156 -0.4362,-2.3277 -0.5414,-2.7611 -0.1406,-0.5795 -0.6291,-1.9721 -1.0458,-2.3113 0.0478,0.4046 0.405,1.1836 0.5632,1.6315 0.1809,0.5126 0.4237,1.1688 0.3558,1.7149l-2.3 -1.3547c-0.2416,-0.2096 -0.7597,-1.4338 -0.8461,-1.9232 -0.0509,-0.2878 -0.0397,-0.5182 -0.2296,-0.6936 -0.0313,1.1771 -0.0557,2.1446 0.2739,3.2873 0.1125,0.3903 0.3121,0.8533 0.4937,1.225 0.0782,0.1599 0.5904,0.9739 0.5276,1.01z"/>
   <path id="_36357080" class="fil4" d="M38.0317 16.1231l-0.2805 0.5097 -0.0572 -0.1284c-0.1951,0.2391 -0.2318,0.9442 -0.293,1.2942 -0.0544,0.3107 -0.2742,1.0341 -0.2632,1.2701 -0.241,0.2781 -0.5372,1.3663 -0.8051,1.6751 -0.1833,0.2113 -0.2153,0.1467 -0.3379,0.4701l2.8706 -1.33c0.6337,-0.5838 1.4974,-1.5234 1.839,-2.333 0.4177,-0.7798 0.7575,-1.8946 0.8318,-2.7852 0.047,-0.5618 0.05,-1.2365 0.0177,-1.7997 -0.0261,-0.4561 0.0707,-1.3317 -0.1713,-1.662 -0.065,0.3435 0.0327,0.7525 -0.0242,1.1859 -0.289,2.1995 -1.0048,4.0329 -3.3189,4.9832l-0.0228 -0.7796c0.0218,-0.1883 0.1818,-0.5318 0.015,-0.5704z"/>
   <path id="_36357008" class="fil4" d="M10.93 17.0508c0.0675,1.0922 0.5263,2.6309 1.2413,3.5346 0.5001,0.6321 0.8447,0.6525 0.5677,0.7486 0.4398,0.4771 1.8523,0.7162 2.5131,0.6696 -0.4317,-0.1233 -1.7154,-0.3589 -1.9523,-0.6723l1.7092 0.2023c-0.0888,-0.8608 -0.2937,-1.762 -0.0491,-2.6123 0.0833,-0.2897 0.1841,-0.4601 0.2124,-0.7777l-0.5897 -0.4938 0.0214 0.0837c-0.2862,0.6252 -0.2372,1.4975 -0.3102,2.1813l-2.1618 -1.0194c-0.6139,-0.4219 -1.0627,-1.9315 -1.1773,-2.0722l-0.0247 0.2276z"/>
   <path id="_36356984" class="fil4" d="M26.0698 12.5695l-0.2786 0.1207c0.5704,0.8272 0.2331,0.3339 1.8683,0.8338 0.8547,0.2613 0.6286,0.1802 1.4463,0.5452 -0.1439,-1.4761 -0.565,-3.2332 -1.0236,-4.6169 -0.2156,-0.6503 -1.2241,-3.7937 -1.6373,-4.0737 0.031,0.2788 0.4689,1.4319 0.5788,1.7834 0.6034,1.9308 0.8532,3.9722 0.9479,5.983l-1.9693 -0.4031 0.0675 -0.1724z"/>
   <path id="_36357944" class="fil4" d="M35.7053 20.4815c0.4848,-0.3994 0.9463,-2.0494 1.0448,-2.6503 0.0857,-0.5224 0.1731,-1.0794 0.2698,-1.5996 0.0839,-0.4512 0.2856,-1.0888 0.3224,-1.5379 -0.2595,0.1321 -0.1479,0.0989 -0.2544,0.4383 -0.3564,1.1353 -0.5572,2.3051 -1.088,3.0653 -1.0648,1.5247 -1.9293,1.4939 -2.79,1.8745l-0.5086 0.0511c-0.0202,0.2812 -0.0375,0.5637 -0.0893,0.8417 -0.042,0.226 -0.1356,0.4077 -0.1566,0.6278l1.6257 -0.1838 -1.9002 0.601c1.1608,-0.2052 2.971,-0.2533 3.5244,-1.5281z"/>
   <path id="_36357368" class="fil4" d="M18.9721 13.8227c0.3655,-0.0047 1.0736,-0.2956 1.4827,-0.4016 0.4124,-0.1068 1.183,-0.1816 1.5123,-0.2958l0.0225 -0.5044c-0.3774,0.2163 -1.207,0.3081 -1.6946,0.4535 -0.2695,0.0804 -0.477,0.1614 -0.7296,0.2859 -0.4012,0.1979 -0.3569,0.1339 -0.5933,0.4624z"/>
   <path id="_36357608" class="fil5" d="M1.8319 6.7815c0.1925,0.3194 0.328,0.2835 0.5109,0.7135l-0.1064 0.2884c0.1783,-0.0553 0.057,-0.0998 0.1983,-0.0232 -1.2273,1.4324 -0.9491,0.7572 -1.1079,2.811l-0.244 0.1028c0.3579,0.151 0.6751,0.2513 0.8876,0.5187l-0.8456 0.3229 0.3817 2.7967c0.191,1.1581 0.7127,1.9981 0.6857,2.3849 1.0364,-0.7762 1.8715,-3.4263 1.9648,-4.8374l0.0881 -2.2115c0.4247,-0.4818 0.5949,-0.5586 0.8186,-1.2456 0.1273,-0.3908 0.3167,-1.464 0.2798,-1.8139 0.034,-0.3108 0.0132,-0.1183 -0.0744,-0.205l0.0056 0.2948c-0.3779,-0.7488 -1.0355,-2.2216 -1.7258,-2.6846l-0.9251 1.3462c-0.4303,0.7192 -0.5559,1.4763 -0.7919,1.4413z"/>
   <path id="_36357776" class="fil5" d="M42.3172 7.187l1.1239 2.4568c0.1232,0.5292 -0.3206,4.8048 2.0364,6.5782 0.1781,0.134 0.2017,0.0663 0.3933,0.2384 0.2909,-0.4867 -0.2766,-0.9983 -0.5294,-1.5449l-0.3466 -1.9561 1.5782 1.1004 0.2089 -2.466 -1.1423 -0.4668 0.9112 -0.4869c0.0366,-1.0274 -0.448,-2.8213 -0.8042,-3.8025 -0.3115,-0.8582 -0.8243,-2.0587 -1.5258,-2.6966 -0.0938,-0.0853 -0.0582,-0.0443 -0.0655,-0.0949l-1.7472 3.235 -0.0909 -0.0941z"/>
   <path id="_36357680" class="fil6" d="M36.6853 21.8328c0.1204,0.2848 -0.0203,0.1272 0.79,0.1225l2.7004 0.0248c0.0601,-0.0683 0.1409,-0.1146 0.2076,-0.1694 0.2518,-0.4202 -0.0066,-0.6496 0.1158,-0.9907l1.244 -0.3423c0.9194,-0.2612 2.6325,-1.2132 2.8365,-1.7195l0.147 -1.4913 0.4222 0.5533 0.722 -1.3598c-0.1916,-0.1721 -0.2152,-0.1044 -0.3933,-0.2384 -2.357,-1.7734 -1.9132,-6.049 -2.0364,-6.5782l-1.1239 -2.4568c-0.036,-0.5786 0.0442,-0.6498 0.1216,-1.1683 -0.6835,1.1267 -0.5113,3.6342 -0.3594,4.9322 0.1993,1.7035 0.358,3.4135 -0.0665,5.1084 -0.6132,2.4484 -2.8143,5.2417 -5.3276,5.7735z"/>
   <path id="_36357848" class="fil6" d="M2.1922 16.6972c-0.0743,0.2058 -0.0518,0.1558 -0.2012,0.2635l0.4961 0.932c0.3012,-0.0729 0.4182,-0.2801 0.6505,-0.4839l0.4067 0.2613 0.0058 0.1501c0.1458,0.0753 -0.0436,0.6803 -0.0647,0.8926l0.4508 0.6548 -0.1358 0.0105c0.2215,0.3512 1.0904,0.7404 1.4942,0.9017 0.4569,0.1826 1.5188,0.3631 1.7829,0.5624 0.0317,0.4408 -0.1635,0.4106 0.0493,0.9841l0.1536 0.2073c0.304,-0.136 1.3762,-0.0374 1.7962,-0.038 0.3207,-0.0004 0.6911,-0.053 0.9673,-0.0459 0.1313,0.0034 0.554,0.0685 0.6944,0.0327 0.2733,-0.0695 0.0834,0.0201 0.2061,-0.1355 -2.322,-0.4757 -4.5891,-3.1969 -5.2299,-5.4573 -0.4094,-1.4439 -0.3966,-3.502 -0.2099,-4.9978 0.1239,-0.9934 0.3565,-4.0366 -0.1611,-4.803 0.0369,0.3499 -0.1525,1.4231 -0.2798,1.8139 -0.2237,0.687 -0.3939,0.7638 -0.8186,1.2456l-0.0881 2.2115c-0.0933,1.4111 -0.9284,4.0612 -1.9648,4.8374z"/>
   <path id="_36358544" class="fil7" d="M42.4388 6.0187c-0.0774,0.5185 -0.1576,0.5897 -0.1216,1.1683l0.0909 0.0941 1.7472 -3.235c0.0073,0.0506 -0.0283,0.0096 0.0655,0.0949 0.7015,0.6379 1.2143,1.8384 1.5258,2.6966 0.3562,0.9812 0.8408,2.7751 0.8042,3.8025l0.2211 -0.0516c0.1577,-0.8652 -0.5045,-3.1425 -0.823,-4.0186l-1.7747 -3.1963c-0.6337,0.507 -1.4482,1.847 -1.7354,2.6451z"/>
   <path id="_36358064" class="fil7" d="M1.0828 10.674l0.244 -0.1028c0.1588,-2.0538 -0.1194,-1.3786 1.1079,-2.811 -0.1413,-0.0766 -0.02,-0.0321 -0.1983,0.0232l-1.1019 0.6836 -0.2454 2.103 0.1937 0.104z"/>
   <path id="_36358640" class="fil8" d="M18.9379 13.8108l0.0342 0.0119c0.2364,-0.3285 0.1921,-0.2645 0.5933,-0.4624 0.2526,-0.1245 0.4601,-0.2055 0.7296,-0.2859 0.4876,-0.1454 1.3172,-0.2372 1.6946,-0.4535 0.3812,-1.4298 2.2483,-1.7855 3.6505,-2.2677l-1.2793 1.6952 1.8849 0.342c-0.0894,0.1927 0.0623,0.0987 -0.1759,0.1791l-0.0675 0.1724 1.9693 0.4031c-0.0947,-2.0108 -0.3445,-4.0522 -0.9479,-5.983 -0.1099,-0.3515 -0.5478,-1.5046 -0.5788,-1.7834 -0.0558,-0.6304 -1.9042,-3.4958 -2.4439,-3.9509 -0.0475,0.2068 -1.4503,2.3388 -1.6725,2.6751 -0.5874,0.8889 -1.0538,1.8913 -1.4811,2.8717 -0.9541,2.1892 -1.3488,4.5277 -1.9095,6.8363z"/>
   <path id="_36358184" class="fil8" d="M20.3322 14.5795c-0.0571,0.1776 -0.052,-0.0626 -0.2985,-0.2379l0.0464 0.2866 -0.33 0.0813c0.0434,0.0627 0.1262,0.1643 0.1502,0.2312 0.1118,0.3121 0.0165,0.2303 -0.061,0.2981l0.0702 0.1896 -0.6746 -0.1537c-0.5619,-0.0706 -0.5801,0.2843 -0.7092,-0.0656 -0.2838,0.1518 -0.6054,0.3371 -0.7386,0.6161 0.7077,-0.1432 0.8523,-0.2188 1.4631,0.2338 0.212,0.1571 0.7017,0.8547 0.615,1.0999 0.1911,0.8869 0.5592,2.5426 0.2695,3.4104 -0.3914,1.1729 -1.6186,1.127 -2.6581,1.0185 0.3318,0.5406 3.8504,0.4686 4.6082,0.4416 -0.0893,-0.2748 -0.531,-0.4444 -0.7435,-0.6618 -0.2499,-0.2556 -0.5509,-0.5622 -0.563,-0.9255 -0.0801,-0.4862 -1.0157,-1.4885 -0.2954,-3.1187 0.352,-0.7965 1.2633,-1.6311 2.1292,-1.8694 1.61,-0.443 3.357,0.2997 4.0357,1.7019 0.3184,0.6577 0.3296,0.9593 0.3217,1.6765 0.1232,-0.2708 0.0791,-0.6937 0.1543,-1.0131 0.0781,-0.3316 0.1718,-0.5994 0.2684,-0.9181l-0.0547 -0.1322c0.703,-0.9995 0.2953,-0.7756 2.0468,-1.1162 -0.1027,-0.2069 -0.4983,-0.4606 -0.7592,-0.5531l-1.196 0.0835 -0.0296 -0.3779c-0.1952,0.0866 -0.2015,0.082 -0.3222,0.2753 -0.0758,-0.3838 -0.0061,-0.3697 0.1274,-0.6775l-0.2906 0.1403 -1.3917 -0.3975c-0.7754,-0.1923 -1.4957,-0.072 -1.6117,-0.2329l-0.1415 0.059 0.0061 -0.0783c-0.1804,-0.1628 -0.1081,0.0543 -0.119,-0.2141 -0.0001,-0.0017 0.074,-0.1795 0.0756,-0.1839l-0.196 0.0004c0.0108,-0.5695 0.6968,-0.7165 0.8827,-0.991 -0.2834,-0.0352 -0.4745,-0.0466 -0.7064,0.1037l0.1953 0.0431c-0.3909,0.4687 -0.6855,0.6925 -0.9699,1.2678l0.0511 -0.522c-0.4473,-0.2438 0.5511,-1.3617 0.6708,-1.6443 -0.971,0.4116 -1.1066,1.2106 -0.9827,2.1768 -0.3942,0.0708 -0.8449,0.1615 -1.2396,0.2734 -0.3159,0.0897 -0.8691,0.3922 -1.105,0.3759z"/>
   <path id="_36358376" class="fil8" d="M6.3829 13.1415c0.1899,0.1754 0.1787,0.4058 0.2296,0.6936 0.0864,0.4894 0.6045,1.7136 0.8461,1.9232l2.3 1.3547c0.0679,-0.5461 -0.1749,-1.2023 -0.3558,-1.7149 -0.1582,-0.4479 -0.5154,-1.2269 -0.5632,-1.6315 -0.0027,-0.0655 -0.9887,-2.6967 -1.1134,-3.0545 -0.1747,-0.501 -1.0159,-2.6017 -1.2756,-2.9143 0.4079,1.9371 0.0118,3.4267 -0.0677,5.3437z"/>
   <path id="_36358232" class="fil8" d="M38.0317 16.1231c0.1668,0.0386 0.0068,0.3821 -0.0149,0.5704l0.0227 0.7796c2.3141,-0.9502 3.0299,-2.7837 3.3189,-4.9833 0.0569,-0.4332 -0.0408,-0.8423 0.0242,-1.1858 0.0615,-0.3799 -0.0617,-1.2941 -0.0886,-1.7337 -0.0395,-0.6442 0.0359,-1.2251 0.0658,-1.858 -0.2623,0.2647 -0.5619,1.8211 -0.691,2.2822 -0.5505,1.9666 -0.6983,2.4043 -1.6729,4.217 -0.3357,0.6243 -0.6026,1.294 -0.9642,1.9116z"/>
   <path id="_36359432" class="fil8" d="M32.4977 18.6748c0.0807,0.4981 0.2161,0.9158 0.2036,1.4481l0.5086 -0.0511c0.8606,-0.3806 1.7252,-0.3498 2.79,-1.8746 0.5308,-0.7601 0.7316,-1.9299 1.088,-3.0652 0.1065,-0.3394 -0.0051,-0.3062 0.2544,-0.4383l0.0146 -0.0885c-1.1045,0.4203 -3.8561,3.2299 -4.8592,4.0696z"/>
   <path id="_36359408" class="fil8" d="M10.93 17.0508l0.0247 -0.2276c0.1146,0.1407 0.5634,1.6503 1.1773,2.0722l2.1618 1.0194c0.073,-0.6838 0.024,-1.5561 0.3102,-2.1813 -0.3117,-0.0294 -3.7537,-2.7252 -4.2947,-3.1286 0.1177,0.4027 0.2561,0.776 0.3554,1.1945 0.0779,0.3287 0.1664,0.9935 0.2653,1.2514z"/>
   <path id="_36358856" class="fil8" d="M22.7114 31.2742c0.2907,0.144 0.1439,0.1832 0.4983,0.6586l0.5139 0.645c0.3355,-0.5035 0.6508,-0.833 0.9077,-1.3683 0.2246,-0.468 0.5352,-1.2503 0.5514,-1.7656l-2.9847 0.0286c0.0652,0.7663 0.3564,1.1546 0.5134,1.8017z"/>
   <path id="_36358952" class="fil8" d="M26.969 19.0936l-0.4427 1.1991c-0.0924,0.8173 -0.9275,1.3047 -1.5392,1.7689l2.331 -0.0251c1.4055,-0.0414 3.6436,-0.3613 4.2487,-1.8403 0.2129,-0.5202 0.0716,-0.6319 0.1414,-1.0944l-0.0882 -0.3706c-0.0031,1.5288 -0.8104,2.4314 -2.232,2.8102 -0.5918,0.1577 -1.552,0.1006 -2.0022,-0.3516 -0.5093,-0.5117 -0.4248,-1.4267 -0.4168,-2.0962z"/>
   <path id="_36359216" class="fil9" d="M3.8004 19.3781l0.1358 -0.0105 -0.4508 -0.6548c0.0211,-0.2123 0.2105,-0.8173 0.0647,-0.8926l-0.4054 1.0201 0.6557 0.5378z"/>
   <path id="_36359264" class="fil10" d="M27.249 31.9461l-0.0313 -2.4948 7.9811 0.0288c-0.3643,0.6527 -6.4414,2.7929 -7.9498,2.466zm-14.8541 -2.4669c0.7895,-0.1384 6.6943,-0.033 7.9793,-0.0273l-0.0397 2.5117c-0.5228,0.1978 -3.5804,-0.6164 -4.2678,-0.8348 -0.6152,-0.1956 -3.3731,-1.2278 -3.6718,-1.6496zm26.6824 -3.1385c-0.2808,0.6625 -0.7675,0.516 -1.3947,0.52l-28.6702 -0.0205c-0.2118,-0.1771 -0.4582,-0.4003 -0.5642,-0.6399 -0.1826,-0.0676 -0.3907,-0.338 -0.478,-0.5336l31.7246 0.019c-0.085,0.2368 -0.379,0.5824 -0.6175,0.655zm-32.7494 -2.8755c1.4268,-0.0585 2.9645,0.0036 4.407,-0.0034 1.4738,-0.0072 2.9484,0.0026 4.4222,0.0013 2.8948,-0.0024 5.7438,0.1909 8.6371,0.1945 2.8975,0.0036 5.7435,-0.2009 8.637,-0.2011l8.8529 0.0328 -0.7792 1.0729 -33.3579 0.0023c-0.2038,-0.1731 -0.7445,-0.8555 -0.8191,-1.0993zm31.029 -8.86l-0.0146 0.0885c-0.0368,0.4491 -0.2385,1.0868 -0.3224,1.5379 -0.0967,0.5202 -0.1841,1.0772 -0.2697,1.5996 -0.0986,0.601 -0.5601,2.2509 -1.0449,2.6502 -0.5534,1.2749 -2.3636,1.323 -3.5244,1.5282l1.9002 -0.601 -1.6257 0.1838c0.021,-0.2201 0.1146,-0.4018 0.1567,-0.6278 0.0517,-0.278 0.069,-0.5605 0.0892,-0.8417 0.0125,-0.5323 -0.1229,-0.95 -0.2036,-1.4481l-0.1725 -0.454c0.3086,-0.5133 1.9023,-1.8448 2.3874,-2.2813 0.7973,-0.7174 1.7829,-1.3479 2.801,-1.7611l-0.1567 0.4268zm-22.7743 3.0446l0.5897 0.4938c-0.0283,0.3176 -0.1291,0.488 -0.2124,0.7777 -0.2446,0.8503 -0.0397,1.7515 0.0491,2.6123l-1.7092 -0.2023c0.2369,0.3134 1.5206,0.549 1.9523,0.6723 -0.6608,0.0466 -2.0733,-0.1925 -2.5131,-0.6696 -1.0697,-1.0224 -1.4298,-1.3981 -1.7978,-3.1332 -0.1469,-0.6931 -0.2457,-1.393 -0.3869,-2.0842 -0.2019,-0.9881 -0.2021,-0.9957 -0.4945,-1.9527 0.9838,0.2162 4.0514,2.752 4.5228,3.4859zm9.0769 -5.8964c-0.1197,0.2826 -1.1181,1.4005 -0.6708,1.6443 0.0708,-0.36 0.4055,-0.6311 0.7235,-0.7889 0.2319,-0.1503 0.423,-0.1389 0.7064,-0.1037 -0.1859,0.2745 -0.8719,0.4215 -0.8827,0.991l0.196 -0.0004c0.3772,-0.3915 1.0113,-0.556 1.5351,-0.4504l-0.4254 0.1439 0.0035 0.2194c-0.1039,0.0408 -0.1813,0.1087 -0.3113,0.1837l0.1639 0.0548c0.7492,0.0942 1.9442,0.0441 2.6067,0.5122l-0.0997 0.2438c0.3737,-0.1714 0.4033,-0.3622 0.9262,-0.1812 0.2737,0.0948 0.5879,0.2748 0.7431,0.4982 -0.3828,-0.3041 -1.1029,-0.2966 -1.4745,0.0852l0.0296 0.3779 1.196 -0.0835c0.2609,0.0925 0.6565,0.3462 0.7592,0.5531 -1.7515,0.3406 -1.3438,0.1167 -2.0468,1.1162l0.0547 0.1322c0.3981,-1.1612 1.6754,-1.3451 2.6157,-0.6835 0.6359,0.4475 1.4593,1.7004 1.6121,2.5135l0.0882 0.3706c0.4339,0.5028 0.3852,1.6141 0.1102,2.2423 -0.2902,0.6632 -0.8964,0.9848 -1.5937,1.1009 -2.5412,0.4233 -7.7167,0.3743 -10.3692,0.246 -1.1876,-0.0574 -3.7492,0.0065 -4.1687,-1.3153 -0.2942,-0.5069 -0.3579,-1.7178 -0.0391,-2.184 0.2612,-1.8727 2.9265,-5.2296 4.2175,-2.0328 0.0867,-0.2452 -0.403,-0.9428 -0.615,-1.0999 -0.6108,-0.4526 -0.7554,-0.377 -1.4631,-0.2338 0.1332,-0.279 0.4548,-0.4643 0.7386,-0.6161 0.6347,-0.1877 0.6897,-0.3222 1.3136,0.0297 0.0775,-0.0678 0.1728,0.014 0.061,-0.2981 -0.024,-0.0669 -0.1068,-0.1685 -0.1502,-0.2312 -0.4221,-0.321 -0.6256,-0.162 -1.0711,-0.1018 0.2443,-0.3431 1.0157,-0.6634 1.3547,-0.2661 0.2465,0.1753 0.2414,0.4155 0.2985,0.2379 -0.0747,-0.2483 -0.1209,-0.1526 -0.1349,-0.4335l2.2792 -0.4444 1.9671 -2.4315 -0.7841 0.4833zm-1.6699 0.8675l-0.0225 0.5044c-0.3293,0.1142 -1.0999,0.189 -1.5123,0.2958 -0.4091,0.106 -1.1172,0.3969 -1.4827,0.4016l-0.0342 -0.0119 -0.3771 0.274 0.7134 -3.8484c0.38,-1.6974 1.6903,-4.8654 2.6284,-6.4122 0.3758,-0.6196 1.3936,-2.261 1.8835,-2.6295l0.2149 0.233c0.5397,0.4551 2.3881,3.3205 2.4439,3.9509 0.4132,0.28 1.4217,3.4234 1.6373,4.0737 0.4586,1.3837 0.8797,3.1408 1.0236,4.6169 -0.8177,-0.365 -0.5916,-0.2839 -1.4463,-0.5452 -1.6352,-0.4999 -1.2979,-0.0066 -1.8683,-0.8338l0.2786 -0.1207c0.2382,-0.0804 0.0865,0.0136 0.1759,-0.1791l-1.8849 -0.342 1.2793 -1.6952c-1.4022,0.4822 -3.2693,0.8379 -3.6505,2.2677zm20.4492 -6.6022c0.2872,-0.7981 1.1017,-2.1381 1.7354,-2.6451l1.7747 3.1963c0.3185,0.8761 0.9807,3.1534 0.823,4.0186l-0.2211 0.0516 -0.9112 0.4869 1.1423 0.4668 -0.2089 2.466 -1.5782 -1.1004 0.3466 1.9561c0.2528,0.5466 0.8203,1.0582 0.5294,1.5449l-0.722 1.3598 -0.4222 -0.5533 -0.147 1.4913c-0.204,0.5063 -1.9171,1.4583 -2.8365,1.7195l-1.244 0.3423c-0.1224,0.3411 0.136,0.5705 -0.1158,0.9907l-0.2252 0.6745c-0.7045,0.162 -5.082,-0.0128 -6.1114,-0.0417 0.7896,-0.4985 1.6937,-0.4075 2.6386,-0.6107 2.5133,-0.5318 4.7144,-3.3251 5.3276,-5.7735 0.4245,-1.6949 0.2658,-3.4049 0.0665,-5.1084 -0.1519,-1.298 -0.3241,-3.8055 0.3594,-4.9322zm-1.0562 5.2853c0.242,0.3303 0.1452,1.2059 0.1713,1.662 0.0322,0.5632 0.0293,1.2379 -0.0176,1.7997 -0.0744,0.8906 -0.4142,2.0054 -0.8319,2.7853 -0.3416,0.8095 -1.2053,1.7491 -1.8391,2.3328l-2.8705 1.3301c0.1226,-0.3234 0.1546,-0.2588 0.3379,-0.4701 0.2679,-0.3088 0.5641,-1.3969 0.8051,-1.6751 -0.011,-0.236 0.2089,-0.9594 0.2632,-1.2701 0.0612,-0.35 0.0979,-1.0551 0.293,-1.2942 0.12,-1.2238 1.2674,-3.3565 1.7519,-4.6111 0.2981,-0.7717 1.4165,-4.012 1.8976,-4.4135l0.0163 0.2325c-0.0299,0.6329 -0.1053,1.2138 -0.0658,1.858 0.0269,0.4396 0.1501,1.3538 0.0886,1.7337zm-34.932 -3.5062c0.2597,0.3126 1.1009,2.4133 1.2756,2.9143 0.1247,0.3578 1.1107,2.989 1.1134,3.0545 0.4167,0.3392 0.9052,1.7318 1.0458,2.3113 0.1052,0.4334 0.5555,2.4455 0.5414,2.7611 0.2004,0.2014 0.1658,0.3742 0.2701,0.6652 0.2583,0.7209 0.6017,1.096 1.0653,1.753 -1.3583,-0.0314 -3.3914,-1.3716 -3.7357,-2.1402 -0.1907,-0.1774 -0.2577,-0.2058 -0.3484,-0.4532 -1.3474,-1.8207 -1.6538,-3.1031 -1.6009,-5.4214 0.0396,-1.7351 0.3694,-3.362 0.1643,-5.0432 -0.0541,-0.4428 -0.2253,-1.0634 -0.2459,-1.4407l0.455 1.0393zm-1.1815 -1.414c0.0876,0.0867 0.1084,-0.1058 0.0744,0.205 0.5176,0.7664 0.285,3.8096 0.1611,4.803 -0.1867,1.4958 -0.1995,3.5539 0.2099,4.9978 0.6408,2.2604 2.9079,4.9816 5.2299,5.4573 0.5945,0.1145 1.1415,0.1046 1.6473,0.1967 0.14,0.0255 1.2456,0.414 1.3107,0.477l-6.5688 -0.0076 -0.2068 -0.6867c-0.2128,-0.5735 -0.0176,-0.5433 -0.0493,-0.9841 -0.2641,-0.1993 -1.326,-0.3798 -1.7829,-0.5624 -0.4038,-0.1613 -1.2727,-0.5505 -1.4942,-0.9017l-0.6557 -0.5378 0.4054 -1.0201 -0.0058 -0.1501 -0.4067 -0.2613c-0.2323,0.2038 -0.3493,0.411 -0.6505,0.4839l-0.4961 -0.932c-0.4131,-0.8364 -0.6383,-1.4921 -0.8489,-2.4138 -0.1487,-0.6507 -0.4305,-2.4197 -0.2651,-3.0038l0.2478 -0.0275 0.8456 -0.3229c-0.2125,-0.2674 -0.5297,-0.3677 -0.8876,-0.5187l-0.1937 -0.104 0.2454 -2.103 1.1019 -0.6836 0.1064 -0.2884c-0.1829,-0.43 -0.3184,-0.3941 -0.5109,-0.7135l-0.18 -0.057c-0.0503,-0.5324 1.3601,-3.0098 1.8344,-3.3576 0.5385,0.6004 1.7908,2.1602 1.7828,3.0169zm2.2404 1.4821c-0.1522,-0.1447 -1.494,-2.5748 -1.8135,-3.0574l-2.3544 -2.5368c-0.8266,0.4553 -1.8866,2.5098 -2.2686,3.4456l-1.054 4.7806 0.8406 0.6007 -0.8461 0.4819c-0.0661,1.0718 0.1443,2.1338 0.2892,3.1816 0.2589,0.7478 0.3587,1.4259 0.7,2.2001 1.2158,2.7583 2.2438,3.4184 4.575,4.5244l-1.1628 0.0212c0.0006,0.9351 1.8692,3.6192 2.4714,4.427 0.8587,1.1521 2.3348,2.636 3.5392,3.4394 1.5991,1.0667 2.74,1.7384 4.5509,2.4265l5.7597 1.2564c0.2046,-0.9776 -0.0923,-2.6979 0.0544,-3.7806 -2.3959,0.0876 -5.3879,-0.0029 -7.9136,0.0103 -0.5299,0.0027 -0.6897,0.1097 -1.1359,-0.1883 -0.2668,-0.1782 -0.6434,-0.3611 -0.7923,-0.6229 -0.2258,-0.0458 -0.5631,-0.2842 -0.6798,-0.4901l27.1087 0.0115c-0.2057,0.1457 -0.3914,0.4217 -0.6785,0.477 -0.1489,0.2406 -0.5116,0.4071 -0.769,0.5655 -0.5405,0.3327 -0.431,0.2291 -1.0805,0.2336l-8.0491 -0.0037 0.0277 3.7745c4.8538,-0.1071 10.999,-3.0607 13.9125,-7.0717 1.6844,-2.3191 1.3367,-1.8505 2.5178,-4.4686l-1.3014 -0.0408c0.5284,-0.3851 3.1212,-0.6516 4.6699,-4.4592 0.1397,-0.3435 0.6979,-2.2324 0.7045,-2.2415l0.3276 -3.2097 -0.965 -0.4862 0.9405 -0.5882c0.0207,-1.3777 -0.5601,-3.4652 -1.0697,-4.7364l-2.3182 -3.4841c-0.7271,0.2847 -1.1697,1.2398 -1.688,1.5938 -0.0346,0.2143 -1.0804,1.7011 -1.2958,2.0558 -0.8632,1.4212 -1.6254,3.013 -2.2022,4.575 -1.0781,2.9193 -0.2369,2.2139 -1.8361,2.8582 -1.5484,0.6238 -2.7799,1.7031 -3.9716,2.7268 -0.5042,0.4332 -1.1908,1.2096 -1.3055,1.2902l-0.8915 -1.2886c-0.3093,-0.4093 -0.7796,-0.7829 -1.0123,-1.1239l-0.2907 -2.4149c-0.4956,-3.189 -1.935,-6.8361 -3.5675,-9.6234 -0.4177,-0.7134 -1.719,-2.5702 -2.3418,-2.9064 -2.5393,3.0707 -2.4872,2.6943 -4.1736,6.4286 -1.1101,2.4583 -1.9131,5.8094 -2.1455,8.5314l-1.0699 1.1006c-0.2574,0.3161 -0.6943,1.0615 -0.8743,1.2487 -1.1784,-1.1687 -1.4063,-1.4732 -2.7843,-2.5353 -1.0431,-0.8039 -2.1922,-1.4265 -3.4365,-1.8132l-0.872 -2.651c-0.1629,-0.4474 -0.9648,-2.1744 -0.9781,-2.444z"/>
   <path id="_36359192" class="fil10" d="M24.7389 15.9078c0.2988,0.097 0.6903,0.3556 0.8821,0.5846 0.627,0.3265 1.1588,1.6772 0.8599,2.3572l-0.1665 -0.2115c-1.0121,1.0061 -1.3083,1.5927 -2.8641,1.5975 -2.0317,0.0063 -2.3345,-1.5855 -2.7616,-1.609l1.1299 -2.387c0.4219,-0.2508 0.8861,-0.4131 1.3729,-0.4795 0.7148,-0.0975 0.9525,0.0991 1.5474,0.1477zm-3.9606 4.5343c0.5086,0.3473 0.8357,1.2627 2.3276,1.4421 1.0681,0.1284 2.7955,-0.3853 2.8142,-0.9825 0.1855,0.0087 0.1842,-0.0825 0.3001,-0.2612 0.1434,-0.2215 0.0878,-0.2389 0.3061,-0.3478l0.4427 -1.1991 0.0005 -0.2612c0.0079,-0.7172 -0.0033,-1.0188 -0.3217,-1.6766 -0.6787,-1.4021 -2.4256,-2.1448 -4.0357,-1.7018 -0.8659,0.2382 -1.7772,1.0729 -2.1292,1.8694 -0.7203,1.6302 0.2153,2.6326 0.2954,3.1187z"/>
   <path id="_36359528" class="fil10" d="M28.9986 17.3031c0.655,-0.2342 1.1138,0.7424 0.4764,1.0643 -0.7707,0.3893 -1.2633,-0.7829 -0.4764,-1.0643zm1.9632 2.158c0.4123,-1.8093 -2.3409,-4.1783 -3.1813,-1.1259 -1.028,3.7345 2.8038,2.7823 3.1813,1.1259z"/>
   <path id="_36359696" class="fil10" d="M17.8366 17.2904c0.7308,-0.2482 1.0197,0.9503 0.2826,1.1337 -0.7382,0.1837 -1.0314,-0.8794 -0.2826,-1.1337zm-1.5735 2.1707c0.1445,0.9666 1.3692,1.5181 2.2857,1.415 1.298,-0.1461 1.1246,-1.4369 0.8714,-2.4193 -0.8087,-3.1389 -3.4412,-0.8969 -3.1571,1.0043z"/>
   <path id="_36360152" class="fil10" d="M25.1827 29.4439l0.2338 0.0022c0.1336,0.8257 -1.0447,3.0736 -1.6185,3.6903 -0.4148,-0.4087 -0.8991,-1.2796 -1.0866,-1.8622 -0.157,-0.6471 -0.4482,-1.0354 -0.5134,-1.8017l2.9847 -0.0286zm-1.3862 4.5061c0.7716,-0.7372 2.0932,-3.6353 1.9224,-4.6674l-3.8408 0.0099c-0.0577,1.3271 1.0977,3.6131 1.9184,4.6575z"/>
   <path id="_36359768" class="fil11" d="M30.9618 19.4611c-0.3775,1.6564 -4.2093,2.6086 -3.1813,-1.1259 0.8404,-3.0524 3.5936,-0.6834 3.1813,1.1259zm-3.5696 -2.5599c-0.0966,0.3187 -0.1903,0.5865 -0.2684,0.9181 -0.0752,0.3194 -0.0311,0.7423 -0.1543,1.0131l-0.0005 0.2612c-0.008,0.6695 -0.0925,1.5845 0.4168,2.0962 0.4502,0.4522 1.4104,0.5093 2.0022,0.3516 1.4216,-0.3788 2.2289,-1.2814 2.232,-2.8102 -0.1528,-0.8131 -0.9762,-2.066 -1.6121,-2.5135 -0.9403,-0.6616 -2.2176,-0.4777 -2.6157,0.6835z"/>
   <path id="_36359912" class="fil11" d="M16.2631 19.4611c-0.2841,-1.9012 2.3484,-4.1432 3.1571,-1.0043 0.2532,0.9824 0.4266,2.2732 -0.8714,2.4193 -0.9165,0.1031 -2.1412,-0.4484 -2.2857,-1.415zm-0.6154 -0.2694c-0.0472,0.473 0.0167,0.8582 0.2439,1.2641 0.2075,0.3709 0.5539,0.526 0.7373,0.8285l0.8477 0.3035c1.0395,0.1085 2.2667,0.1544 2.6581,-1.0185 0.2897,-0.8678 -0.0784,-2.5235 -0.2695,-3.4104 -1.291,-3.1968 -3.9563,0.1601 -4.2175,2.0328z"/>
   <path id="_36360008" class="fil11" d="M1.8319 6.7815c0.236,0.035 0.3616,-0.7221 0.7919,-1.4413l0.9251 -1.3462c0.6903,0.463 1.3479,1.9358 1.7258,2.6846l-0.0056 -0.2948c0.008,-0.8567 -1.2443,-2.4165 -1.7828,-3.0169 -0.4743,0.3478 -1.8847,2.8252 -1.8344,3.3576l0.18 0.057z"/>
   <path id="_36360848" class="fil11" d="M1.991 16.9607c0.1494,-0.1077 0.1269,-0.0577 0.2012,-0.2635 0.027,-0.3868 -0.4947,-1.2268 -0.6857,-2.3849l-0.3817 -2.7967 -0.2478 0.0275c-0.1654,0.5841 0.1164,2.3531 0.2651,3.0038 0.2106,0.9217 0.4358,1.5774 0.8489,2.4138z"/>
   <path id="_339506784" class="fil11" d="M28.9986 17.3031c-0.7869,0.2814 -0.2943,1.4536 0.4764,1.0643 0.6374,-0.3219 0.1786,-1.2985 -0.4764,-1.0643z"/>
   <path id="_36361424" class="fil11" d="M17.8366 17.2904c-0.7488,0.2543 -0.4556,1.3174 0.2826,1.1337 0.7371,-0.1834 0.4482,-1.3819 -0.2826,-1.1337z"/>
   <path id="_339507624" class="fil12" d="M20.6887 18.6266c0.427,0.0235 0.7299,1.6153 2.7616,1.609 1.5558,-0.0048 1.852,-0.5914 2.8641,-1.5975l0.1665 0.2115c0.2989,-0.6801 -0.2329,-2.0307 -0.8598,-2.3572 -0.151,0.1281 -0.6973,-0.0065 -0.9281,-0.0233 -0.4309,-0.0312 -0.6878,-0.0164 -1.1051,0.0453 -0.1943,-0.0205 -0.2478,-0.0152 -0.4368,0.0068 -0.3521,0.0409 -0.0546,-0.0616 -0.3178,0.1068 -0.3609,0.2309 -0.2315,0.1036 -0.5981,0.1176l-0.5882 0.4866 -0.2292 -0.1131c-0.0076,-0.0222 -0.0325,-0.017 -0.0495,-0.0237 -0.3362,0.6853 -0.1746,0.3041 -0.4432,0.6713 -0.1737,0.2375 -0.2063,0.5693 -0.2364,0.8599z"/>
   <path id="_339961840" class="fil13" d="M20.6887 18.6266c0.0301,-0.2906 0.0626,-0.6224 0.2364,-0.8599 0.2685,-0.3671 0.1069,0.014 0.4432,-0.6713 0.017,0.0067 0.0419,0.0015 0.0495,0.0236l0.2292 0.1132 0.5882 -0.4867c0.3665,-0.0139 0.2372,0.1134 0.5981,-0.1175 0.2632,-0.1683 -0.0343,-0.0658 0.3178,-0.1068 0.189,-0.022 0.2425,-0.0273 0.4368,-0.0068 0.4172,-0.0617 0.6742,-0.0765 1.1051,-0.0453 0.2307,0.0168 0.7771,0.1514 0.928,0.0233 -0.1918,-0.229 -0.5833,-0.4876 -0.8821,-0.5846 -0.5949,-0.0486 -0.8326,-0.2452 -1.5474,-0.1477 -0.4868,0.0664 -0.951,0.2287 -1.3729,0.4795l-1.1299 2.387z"/>
   <path id="_36361712" class="fil14" d="M15.6868 21.3757c0.3205,0.1375 0.4309,0.3933 0.7416,0.4631l-0.1782 -0.2593c0.1741,-0.331 0.073,0.0225 0.3787,-0.2952 -0.1834,-0.3025 -0.5298,-0.4576 -0.7373,-0.8285 -0.2272,-0.4059 -0.2911,-0.7911 -0.2439,-1.2641 -0.3188,0.4662 -0.2551,1.6771 0.0391,2.184z"/>
   <path id="_36361928" class="fil15" d="M25.9201 20.9017c-0.1295,-0.5502 0.1533,-1.2251 0.2788,-1.7755 -0.218,0.0997 0.027,-0.0248 -0.1404,0.1051 -0.0096,0.0074 -0.0253,0.0218 -0.0357,0.0296 -0.2457,0.1852 0.0274,-0.0774 -0.1668,0.1154 -0.0919,0.0913 -0.6334,1.1418 -0.7184,1.3003 1.2252,0.1091 0.1374,0.1207 0.7825,0.2251z"/>
   <path id="_339506976" class="fil16" d="M18.5257 15.2091c0.1291,0.3499 0.1473,-0.005 0.7092,0.0656l0.6746 0.1537 -0.0702 -0.1896c-0.6239,-0.3519 -0.6789,-0.2174 -1.3136,-0.0297z"/>
   <path id="_36361760" class="fil17" d="M23.7753 13.8937l-0.0061 0.0783 0.1415 -0.059 0.787 -0.2659 -0.1639 -0.0548c0.13,-0.075 0.2074,-0.1429 0.3113,-0.1837l-0.0035 -0.2194c-0.4133,0.2132 -0.7362,0.3667 -1.0663,0.7045z"/>
  </g>
 </g>
</svg>
